solid model
  facet normal -1 -0 0
    outer loop
      vertex 0 -10 130
      vertex 0 -10 260
      vertex 0 10 260
    endloop
  endfacet
  facet normal 0 0 -1
    outer loop
      vertex 0 -10 130
      vertex 0 10 130
      vertex 134.082 0.987567 130
    endloop
  endfacet
  facet normal -1 0 0
    outer loop
      vertex 0 -10 130
      vertex 0 10 260
      vertex 0 10 130
    endloop
  endfacet
  facet normal -0 0 -1
    outer loop
      vertex 0 -10 130
      vertex 134.082 -0.987567 130
      vertex 134.723 -2.85568 130
    endloop
  endfacet
  facet normal -0 0 -1
    outer loop
      vertex 0 -10 130
      vertex 134.082 0.987567 130
      vertex 134.082 -0.987567 130
    endloop
  endfacet
  facet normal -0 0 -1
    outer loop
      vertex 0 -10 130
      vertex 134.723 -2.85568 130
      vertex 135.936 -4.41434 130
    endloop
  endfacet
  facet normal 0 0 -1
    outer loop
      vertex 0 -10 130
      vertex 135.936 -4.41434 130
      vertex 140 -10 130
    endloop
  endfacet
  facet normal 0 -1 -0
    outer loop
      vertex 0 -10 130
      vertex 140 -10 130
      vertex 140 -10 131
    endloop
  endfacet
  facet normal 0 -1 0
    outer loop
      vertex 0 -10 130
      vertex 140 -10 131
      vertex 0 -10 260
    endloop
  endfacet
  facet normal 0 -1 0
    outer loop
      vertex 0 -10 260
      vertex 140 -10 131
      vertex 200 -10 260
    endloop
  endfacet
  facet normal 0 0 1
    outer loop
      vertex 0 -10 260
      vertex 200 -10 260
      vertex 0 10 260
    endloop
  endfacet
  facet normal 0 1 0
    outer loop
      vertex 0 10 130
      vertex 0 10 260
      vertex 140 10 131
    endloop
  endfacet
  facet normal 0 0 -1
    outer loop
      vertex 0 10 130
      vertex 134.723 2.85568 130
      vertex 134.082 0.987567 130
    endloop
  endfacet
  facet normal 0 0 -1
    outer loop
      vertex 0 10 130
      vertex 135.936 4.41434 130
      vertex 134.723 2.85568 130
    endloop
  endfacet
  facet normal 0 0 -1
    outer loop
      vertex 0 10 130
      vertex 140 10 130
      vertex 135.936 4.41434 130
    endloop
  endfacet
  facet normal 0 1 0
    outer loop
      vertex 0 10 130
      vertex 140 10 131
      vertex 140 10 130
    endloop
  endfacet
  facet normal -0 0 1
    outer loop
      vertex 0 10 260
      vertex 200 -10 260
      vertex 200 10 260
    endloop
  endfacet
  facet normal 0 1 0
    outer loop
      vertex 0 10 260
      vertex 200 10 260
      vertex 140 10 131
    endloop
  endfacet
  facet normal 0.945868 0.324553 0
    outer loop
      vertex 134.082 -0.987567 130
      vertex 134.082 -0.987567 200
      vertex 134.723 -2.85568 200
    endloop
  endfacet
  facet normal 1 0 0
    outer loop
      vertex 134.082 -0.987567 130
      vertex 134.082 0.987567 130
      vertex 134.082 -0.987567 200
    endloop
  endfacet
  facet normal 0.945868 0.324553 0
    outer loop
      vertex 134.082 -0.987567 130
      vertex 134.723 -2.85568 200
      vertex 134.723 -2.85568 130
    endloop
  endfacet
  facet normal 1 -0 0
    outer loop
      vertex 134.082 -0.987567 200
      vertex 134.082 0.987567 130
      vertex 134.082 0.987567 200
    endloop
  endfacet
  facet normal 0 0 -1
    outer loop
      vertex 134.082 -0.987567 200
      vertex 134.082 0.987567 200
      vertex 134.723 2.85568 200
    endloop
  endfacet
  facet normal 0 0 -1
    outer loop
      vertex 134.082 -0.987567 200
      vertex 134.723 2.85568 200
      vertex 134.723 -2.85568 200
    endloop
  endfacet
  facet normal 0.945868 -0.324553 0
    outer loop
      vertex 134.082 0.987567 130
      vertex 134.723 2.85568 130
      vertex 134.082 0.987567 200
    endloop
  endfacet
  facet normal 0.945868 -0.324553 0
    outer loop
      vertex 134.082 0.987567 200
      vertex 134.723 2.85568 130
      vertex 134.723 2.85568 200
    endloop
  endfacet
  facet normal 0.789178 0.614164 0
    outer loop
      vertex 134.723 -2.85568 130
      vertex 134.723 -2.85568 200
      vertex 135.936 -4.41434 200
    endloop
  endfacet
  facet normal 0.789178 0.614164 0
    outer loop
      vertex 134.723 -2.85568 130
      vertex 135.936 -4.41434 200
      vertex 135.936 -4.41434 130
    endloop
  endfacet
  facet normal 0 0 -1
    outer loop
      vertex 134.723 -2.85568 200
      vertex 134.723 2.85568 200
      vertex 135.936 4.41434 200
    endloop
  endfacet
  facet normal 0 0 -1
    outer loop
      vertex 134.723 -2.85568 200
      vertex 135.936 4.41434 200
      vertex 135.936 -4.41434 200
    endloop
  endfacet
  facet normal 0.789178 -0.614164 0
    outer loop
      vertex 134.723 2.85568 130
      vertex 135.936 4.41434 130
      vertex 134.723 2.85568 200
    endloop
  endfacet
  facet normal 0.789178 -0.614164 0
    outer loop
      vertex 134.723 2.85568 200
      vertex 135.936 4.41434 130
      vertex 135.936 4.41434 200
    endloop
  endfacet
  facet normal 0.546837 0.837239 0
    outer loop
      vertex 135.936 -4.41434 130
      vertex 135.936 -4.41434 200
      vertex 137.59 -5.49464 130
    endloop
  endfacet
  facet normal 0 0 -1
    outer loop
      vertex 135.936 -4.41434 130
      vertex 137.59 -5.49464 130
      vertex 140 -10 130
    endloop
  endfacet
  facet normal 0 0 -1
    outer loop
      vertex 135.936 -4.41434 200
      vertex 135.936 4.41434 200
      vertex 137.59 5.49464 200
    endloop
  endfacet
  facet normal 0.546837 0.837239 -0
    outer loop
      vertex 135.936 -4.41434 200
      vertex 137.59 -5.49464 200
      vertex 137.59 -5.49464 130
    endloop
  endfacet
  facet normal 0 0 -1
    outer loop
      vertex 135.936 -4.41434 200
      vertex 137.59 5.49464 200
      vertex 137.59 -5.49464 200
    endloop
  endfacet
  facet normal 0.546837 -0.837239 0
    outer loop
      vertex 135.936 4.41434 130
      vertex 137.59 5.49464 130
      vertex 137.59 5.49464 200
    endloop
  endfacet
  facet normal 0.546837 -0.837239 0
    outer loop
      vertex 135.936 4.41434 130
      vertex 137.59 5.49464 200
      vertex 135.936 4.41434 200
    endloop
  endfacet
  facet normal 0 0 -1
    outer loop
      vertex 135.936 4.41434 130
      vertex 140 10 130
      vertex 137.59 5.49464 130
    endloop
  endfacet
  facet normal 0.24545 0.969409 0
    outer loop
      vertex 137.59 -5.49464 130
      vertex 137.59 -5.49464 200
      vertex 139.505 -5.97951 130
    endloop
  endfacet
  facet normal 0 0 -1
    outer loop
      vertex 137.59 -5.49464 130
      vertex 139.505 -5.97951 130
      vertex 140 -10 130
    endloop
  endfacet
  facet normal 0 0 -1
    outer loop
      vertex 137.59 -5.49464 200
      vertex 137.59 5.49464 200
      vertex 139.505 5.97951 200
    endloop
  endfacet
  facet normal 0.24545 0.969409 -0
    outer loop
      vertex 137.59 -5.49464 200
      vertex 139.505 -5.97951 200
      vertex 139.505 -5.97951 130
    endloop
  endfacet
  facet normal 0 0 -1
    outer loop
      vertex 137.59 -5.49464 200
      vertex 139.505 5.97951 200
      vertex 139.505 -5.97951 200
    endloop
  endfacet
  facet normal 0.24545 -0.969409 0
    outer loop
      vertex 137.59 5.49464 130
      vertex 139.505 5.97951 130
      vertex 139.505 5.97951 200
    endloop
  endfacet
  facet normal 0.24545 -0.969409 0
    outer loop
      vertex 137.59 5.49464 130
      vertex 139.505 5.97951 200
      vertex 137.59 5.49464 200
    endloop
  endfacet
  facet normal 0 0 -1
    outer loop
      vertex 137.59 5.49464 130
      vertex 140 10 130
      vertex 139.505 5.97951 130
    endloop
  endfacet
  facet normal -0.0826656 0.996577 0
    outer loop
      vertex 139.505 -5.97951 130
      vertex 139.505 -5.97951 200
      vertex 140 -5.93845 131
    endloop
  endfacet
  facet normal 0 0 -1
    outer loop
      vertex 139.505 -5.97951 130
      vertex 140 -5.93845 130
      vertex 140 -10 130
    endloop
  endfacet
  facet normal -0.0826656 0.996577 0
    outer loop
      vertex 139.505 -5.97951 130
      vertex 140 -5.93845 131
      vertex 140 -5.93845 130
    endloop
  endfacet
  facet normal 0 0 -1
    outer loop
      vertex 139.505 -5.97951 200
      vertex 139.505 5.97951 200
      vertex 141.473 5.8164 200
    endloop
  endfacet
  facet normal -0.0825751 0.996585 6.53329e-07
    outer loop
      vertex 139.505 -5.97951 200
      vertex 141.473 -5.8164 131
      vertex 140 -5.93845 131
    endloop
  endfacet
  facet normal -0.0825979 0.996583 0
    outer loop
      vertex 139.505 -5.97951 200
      vertex 141.473 -5.8164 200
      vertex 141.473 -5.8164 131
    endloop
  endfacet
  facet normal 0 0 -1
    outer loop
      vertex 139.505 -5.97951 200
      vertex 141.473 5.8164 200
      vertex 141.473 -5.8164 200
    endloop
  endfacet
  facet normal 0 0 -1
    outer loop
      vertex 139.505 5.97951 130
      vertex 140 10 130
      vertex 140 5.93845 130
    endloop
  endfacet
  facet normal -0.0826656 -0.996577 -0
    outer loop
      vertex 139.505 5.97951 130
      vertex 140 5.93845 130
      vertex 140 5.93845 131
    endloop
  endfacet
  facet normal -0.0826656 -0.996577 0
    outer loop
      vertex 139.505 5.97951 130
      vertex 140 5.93845 131
      vertex 139.505 5.97951 200
    endloop
  endfacet
  facet normal -0.0825979 -0.996583 4.89e-07
    outer loop
      vertex 139.505 5.97951 200
      vertex 140 5.93845 131
      vertex 141.473 5.8164 200
    endloop
  endfacet
  facet normal 1 0 0
    outer loop
      vertex 140 -10 130
      vertex 140 -5.93845 130
      vertex 140 -10 131
    endloop
  endfacet
  facet normal 1 -0 0
    outer loop
      vertex 140 -10 131
      vertex 140 -5.93845 130
      vertex 140 -5.93845 131
    endloop
  endfacet
  facet normal 0 0 -1
    outer loop
      vertex 140 -10 131
      vertex 140 -5.93845 131
      vertex 141.473 -5.8164 131
    endloop
  endfacet
  facet normal 0 0 -1
    outer loop
      vertex 140 -10 131
      vertex 141.473 -5.8164 131
      vertex 143.282 -5.023 131
    endloop
  endfacet
  facet normal 0 0 -1
    outer loop
      vertex 140 -10 131
      vertex 143.282 -5.023 131
      vertex 144.735 -3.68528 131
    endloop
  endfacet
  facet normal 0 0 -1
    outer loop
      vertex 140 -10 131
      vertex 144.735 -3.68528 131
      vertex 200 -10 131
    endloop
  endfacet
  facet normal 0 -1 -0
    outer loop
      vertex 140 -10 131
      vertex 200 -10 131
      vertex 200 -10 260
    endloop
  endfacet
  facet normal 0 0 -1
    outer loop
      vertex 140 10 131
      vertex 143.282 5.023 131
      vertex 141.473 5.8164 131
    endloop
  endfacet
  facet normal 0 0 -1
    outer loop
      vertex 140 10 131
      vertex 144.735 3.68528 131
      vertex 143.282 5.023 131
    endloop
  endfacet
  facet normal 0 0 -1
    outer loop
      vertex 140 10 131
      vertex 200 10 131
      vertex 144.735 3.68528 131
    endloop
  endfacet
  facet normal 0 1 0
    outer loop
      vertex 140 10 131
      vertex 200 10 260
      vertex 200 10 131
    endloop
  endfacet
  facet normal 1 0 0
    outer loop
      vertex 140 5.93845 130
      vertex 140 10 130
      vertex 140 5.93845 131
    endloop
  endfacet
  facet normal 1 -0 0
    outer loop
      vertex 140 5.93845 131
      vertex 140 10 130
      vertex 140 10 131
    endloop
  endfacet
  facet normal 0 0 -1
    outer loop
      vertex 140 5.93845 131
      vertex 140 10 131
      vertex 141.473 5.8164 131
    endloop
  endfacet
  facet normal -0.0825751 -0.996585 -0
    outer loop
      vertex 140 5.93845 131
      vertex 141.473 5.8164 131
      vertex 141.473 5.8164 200
    endloop
  endfacet
  facet normal -0.401653 0.915792 0
    outer loop
      vertex 141.473 -5.8164 131
      vertex 141.473 -5.8164 200
      vertex 143.282 -5.023 131
    endloop
  endfacet
  facet normal 0 0 -1
    outer loop
      vertex 141.473 -5.8164 200
      vertex 141.473 5.8164 200
      vertex 143.282 5.023 200
    endloop
  endfacet
  facet normal -0.401653 0.915792 0
    outer loop
      vertex 141.473 -5.8164 200
      vertex 143.282 -5.023 200
      vertex 143.282 -5.023 131
    endloop
  endfacet
  facet normal 0 0 -1
    outer loop
      vertex 141.473 -5.8164 200
      vertex 143.282 5.023 200
      vertex 143.282 -5.023 200
    endloop
  endfacet
  facet normal -0.401653 -0.915792 -0
    outer loop
      vertex 141.473 5.8164 131
      vertex 143.282 5.023 131
      vertex 143.282 5.023 200
    endloop
  endfacet
  facet normal -0.401653 -0.915792 0
    outer loop
      vertex 141.473 5.8164 131
      vertex 143.282 5.023 200
      vertex 141.473 5.8164 200
    endloop
  endfacet
  facet normal -0.67732 0.735689 0
    outer loop
      vertex 143.282 -5.023 131
      vertex 143.282 -5.023 200
      vertex 144.735 -3.68528 131
    endloop
  endfacet
  facet normal 0 0 -1
    outer loop
      vertex 143.282 -5.023 200
      vertex 143.282 5.023 200
      vertex 144.735 3.68528 200
    endloop
  endfacet
  facet normal -0.67732 0.735689 0
    outer loop
      vertex 143.282 -5.023 200
      vertex 144.735 -3.68528 200
      vertex 144.735 -3.68528 131
    endloop
  endfacet
  facet normal 0 0 -1
    outer loop
      vertex 143.282 -5.023 200
      vertex 144.735 3.68528 200
      vertex 144.735 -3.68528 200
    endloop
  endfacet
  facet normal -0.67732 -0.735689 -0
    outer loop
      vertex 143.282 5.023 131
      vertex 144.735 3.68528 131
      vertex 144.735 3.68528 200
    endloop
  endfacet
  facet normal -0.67732 -0.735689 0
    outer loop
      vertex 143.282 5.023 131
      vertex 144.735 3.68528 200
      vertex 143.282 5.023 200
    endloop
  endfacet
  facet normal -0.879487 0.475924 0
    outer loop
      vertex 144.735 -3.68528 131
      vertex 144.735 -3.68528 200
      vertex 145.675 -1.9482 200
    endloop
  endfacet
  facet normal 0 0 -1
    outer loop
      vertex 144.735 -3.68528 131
      vertex 145.675 -1.9482 131
      vertex 200 -10 131
    endloop
  endfacet
  facet normal -0.879487 0.475924 0
    outer loop
      vertex 144.735 -3.68528 131
      vertex 145.675 -1.9482 200
      vertex 145.675 -1.9482 131
    endloop
  endfacet
  facet normal 0 0 -1
    outer loop
      vertex 144.735 -3.68528 200
      vertex 144.735 3.68528 200
      vertex 145.675 1.9482 200
    endloop
  endfacet
  facet normal 0 0 -1
    outer loop
      vertex 144.735 -3.68528 200
      vertex 145.675 1.9482 200
      vertex 145.675 -1.9482 200
    endloop
  endfacet
  facet normal -0.879487 -0.475924 0
    outer loop
      vertex 144.735 3.68528 131
      vertex 145.675 1.9482 131
      vertex 144.735 3.68528 200
    endloop
  endfacet
  facet normal 0 0 -1
    outer loop
      vertex 144.735 3.68528 131
      vertex 200 10 131
      vertex 145.675 1.9482 131
    endloop
  endfacet
  facet normal -0.879487 -0.475924 0
    outer loop
      vertex 144.735 3.68528 200
      vertex 145.675 1.9482 131
      vertex 145.675 1.9482 200
    endloop
  endfacet
  facet normal -0.986369 0.164547 0
    outer loop
      vertex 145.675 -1.9482 131
      vertex 145.675 -1.9482 200
      vertex 146 0 200
    endloop
  endfacet
  facet normal 0 0 -1
    outer loop
      vertex 145.675 -1.9482 131
      vertex 146 0 131
      vertex 200 -10 131
    endloop
  endfacet
  facet normal -0.986369 0.164547 0
    outer loop
      vertex 145.675 -1.9482 131
      vertex 146 0 200
      vertex 146 0 131
    endloop
  endfacet
  facet normal 0 0 -1
    outer loop
      vertex 145.675 -1.9482 200
      vertex 145.675 1.9482 200
      vertex 146 0 200
    endloop
  endfacet
  facet normal -0.986369 -0.164547 0
    outer loop
      vertex 145.675 1.9482 131
      vertex 146 0 131
      vertex 145.675 1.9482 200
    endloop
  endfacet
  facet normal 0 0 -1
    outer loop
      vertex 145.675 1.9482 131
      vertex 200 10 131
      vertex 146 0 131
    endloop
  endfacet
  facet normal -0.986369 -0.164547 0
    outer loop
      vertex 145.675 1.9482 200
      vertex 146 0 131
      vertex 146 0 200
    endloop
  endfacet
  facet normal 0 0 -1
    outer loop
      vertex 146 0 131
      vertex 200 10 131
      vertex 200 -10 131
    endloop
  endfacet
  facet normal 1 0 0
    outer loop
      vertex 200 -10 131
      vertex 200 10 131
      vertex 200 -10 260
    endloop
  endfacet
  facet normal 1 -0 0
    outer loop
      vertex 200 -10 260
      vertex 200 10 131
      vertex 200 10 260
    endloop
  endfacet
endsolid model
