solid model
  facet normal -0.99693 0.0782977 0
    outer loop
      vertex 136.5 20 -10
      vertex 136.5 20 -8
      vertex 136.543 20.5475 -8
    endloop
  endfacet
  facet normal -0.99693 -0.0782977 0
    outer loop
      vertex 136.5 20 -10
      vertex 136.543 19.4525 -10
      vertex 136.5 20 -8
    endloop
  endfacet
  facet normal 0 0 -1
    outer loop
      vertex 136.5 20 -10
      vertex 136.543 20.5475 -10
      vertex 139 20 -10
    endloop
  endfacet
  facet normal -0.99693 0.0782977 0
    outer loop
      vertex 136.5 20 -10
      vertex 136.543 20.5475 -8
      vertex 136.543 20.5475 -10
    endloop
  endfacet
  facet normal 0 0 -1
    outer loop
      vertex 136.5 20 -10
      vertex 139 20 -10
      vertex 139.012 19.8436 -10
    endloop
  endfacet
  facet normal 0 0 -1
    outer loop
      vertex 136.5 20 -10
      vertex 139.012 19.8436 -10
      vertex 136.543 19.4525 -10
    endloop
  endfacet
  facet normal -0.99693 -0.0782977 0
    outer loop
      vertex 136.5 20 -8
      vertex 136.543 19.4525 -10
      vertex 136.543 19.4525 -8
    endloop
  endfacet
  facet normal 0 0 1
    outer loop
      vertex 136.5 20 -8
      vertex 136.543 19.4525 -8
      vertex 139.012 19.8436 -8
    endloop
  endfacet
  facet normal 0 0 1
    outer loop
      vertex 136.5 20 -8
      vertex 139 20 -8
      vertex 136.543 20.5475 -8
    endloop
  endfacet
  facet normal 0 0 1
    outer loop
      vertex 136.5 20 -8
      vertex 139.012 19.8436 -8
      vertex 139 20 -8
    endloop
  endfacet
  facet normal -0.972463 -0.233056 0
    outer loop
      vertex 136.543 19.4525 -10
      vertex 136.671 18.9184 -10
      vertex 136.543 19.4525 -8
    endloop
  endfacet
  facet normal 0 0 -1
    outer loop
      vertex 136.543 19.4525 -10
      vertex 139.012 19.8436 -10
      vertex 136.671 18.9184 -10
    endloop
  endfacet
  facet normal -0.972463 -0.233056 0
    outer loop
      vertex 136.543 19.4525 -8
      vertex 136.671 18.9184 -10
      vertex 136.671 18.9184 -8
    endloop
  endfacet
  facet normal 0 0 1
    outer loop
      vertex 136.543 19.4525 -8
      vertex 136.671 18.9184 -8
      vertex 139.012 19.8436 -8
    endloop
  endfacet
  facet normal -0.972463 0.233056 0
    outer loop
      vertex 136.543 20.5475 -10
      vertex 136.543 20.5475 -8
      vertex 136.671 21.0816 -8
    endloop
  endfacet
  facet normal 0 0 -1
    outer loop
      vertex 136.543 20.5475 -10
      vertex 136.671 21.0816 -10
      vertex 139.012 20.1564 -10
    endloop
  endfacet
  facet normal -0.972463 0.233056 0
    outer loop
      vertex 136.543 20.5475 -10
      vertex 136.671 21.0816 -8
      vertex 136.671 21.0816 -10
    endloop
  endfacet
  facet normal 0 0 -1
    outer loop
      vertex 136.543 20.5475 -10
      vertex 139.012 20.1564 -10
      vertex 139 20 -10
    endloop
  endfacet
  facet normal 0 0 1
    outer loop
      vertex 136.543 20.5475 -8
      vertex 139 20 -8
      vertex 139.012 20.1564 -8
    endloop
  endfacet
  facet normal -0 0 1
    outer loop
      vertex 136.543 20.5475 -8
      vertex 139.012 20.1564 -8
      vertex 136.671 21.0816 -8
    endloop
  endfacet
  facet normal -0.92399 -0.382416 0
    outer loop
      vertex 136.671 18.9184 -10
      vertex 136.881 18.411 -10
      vertex 136.671 18.9184 -8
    endloop
  endfacet
  facet normal -0 0 -1
    outer loop
      vertex 136.671 18.9184 -10
      vertex 139.012 19.8436 -10
      vertex 139.049 19.691 -10
    endloop
  endfacet
  facet normal 0 0 -1
    outer loop
      vertex 136.671 18.9184 -10
      vertex 139.049 19.691 -10
      vertex 136.881 18.411 -10
    endloop
  endfacet
  facet normal -0.92399 -0.382416 0
    outer loop
      vertex 136.671 18.9184 -8
      vertex 136.881 18.411 -10
      vertex 136.881 18.411 -8
    endloop
  endfacet
  facet normal 0 0 1
    outer loop
      vertex 136.671 18.9184 -8
      vertex 136.881 18.411 -8
      vertex 139.049 19.691 -8
    endloop
  endfacet
  facet normal 0 0 1
    outer loop
      vertex 136.671 18.9184 -8
      vertex 139.049 19.691 -8
      vertex 139.012 19.8436 -8
    endloop
  endfacet
  facet normal -0.92399 0.382416 0
    outer loop
      vertex 136.671 21.0816 -10
      vertex 136.671 21.0816 -8
      vertex 136.881 21.589 -8
    endloop
  endfacet
  facet normal 0 0 -1
    outer loop
      vertex 136.671 21.0816 -10
      vertex 136.881 21.589 -10
      vertex 139.012 20.1564 -10
    endloop
  endfacet
  facet normal -0.92399 0.382416 0
    outer loop
      vertex 136.671 21.0816 -10
      vertex 136.881 21.589 -8
      vertex 136.881 21.589 -10
    endloop
  endfacet
  facet normal 0 0 1
    outer loop
      vertex 136.671 21.0816 -8
      vertex 139.012 20.1564 -8
      vertex 139.049 20.309 -8
    endloop
  endfacet
  facet normal -0 0 1
    outer loop
      vertex 136.671 21.0816 -8
      vertex 139.049 20.309 -8
      vertex 136.881 21.589 -8
    endloop
  endfacet
  facet normal -0 0 -1
    outer loop
      vertex 136.881 18.411 -10
      vertex 139.049 19.691 -10
      vertex 139.109 19.546 -10
    endloop
  endfacet
  facet normal -0 0 -1
    outer loop
      vertex 136.881 18.411 -10
      vertex 139.109 19.546 -10
      vertex 139.191 19.4122 -10
    endloop
  endfacet
  facet normal -0 0 -1
    outer loop
      vertex 136.881 18.411 -10
      vertex 139.191 19.4122 -10
      vertex 139.293 19.2929 -10
    endloop
  endfacet
  facet normal -0 0 -1
    outer loop
      vertex 136.881 18.411 -10
      vertex 139.293 19.2929 -10
      vertex 139.412 19.191 -10
    endloop
  endfacet
  facet normal -0 0 -1
    outer loop
      vertex 136.881 18.411 -10
      vertex 139.412 19.191 -10
      vertex 139.546 19.109 -10
    endloop
  endfacet
  facet normal -0 0 -1
    outer loop
      vertex 136.881 18.411 -10
      vertex 139.546 19.109 -10
      vertex 139.691 19.0489 -10
    endloop
  endfacet
  facet normal -0 0 -1
    outer loop
      vertex 136.881 18.411 -10
      vertex 139.691 19.0489 -10
      vertex 139.844 19.0123 -10
    endloop
  endfacet
  facet normal -0 0 -1
    outer loop
      vertex 136.881 18.411 -10
      vertex 139.844 19.0123 -10
      vertex 140 19 -10
    endloop
  endfacet
  facet normal 0 0 -1
    outer loop
      vertex 136.881 18.411 -10
      vertex 140 19 -10
      vertex 142.563 4.82716 -10
    endloop
  endfacet
  facet normal -0.922544 -0.385892 0
    outer loop
      vertex 136.881 18.411 -10
      vertex 142.563 4.82716 -10
      vertex 136.881 18.411 -8
    endloop
  endfacet
  facet normal 0 0 1
    outer loop
      vertex 136.881 18.411 -8
      vertex 139.109 19.546 -8
      vertex 139.049 19.691 -8
    endloop
  endfacet
  facet normal 0 0 1
    outer loop
      vertex 136.881 18.411 -8
      vertex 139.191 19.4122 -8
      vertex 139.109 19.546 -8
    endloop
  endfacet
  facet normal 0 0 1
    outer loop
      vertex 136.881 18.411 -8
      vertex 139.293 19.2929 -8
      vertex 139.191 19.4122 -8
    endloop
  endfacet
  facet normal 0 0 1
    outer loop
      vertex 136.881 18.411 -8
      vertex 139.412 19.191 -8
      vertex 139.293 19.2929 -8
    endloop
  endfacet
  facet normal 0 0 1
    outer loop
      vertex 136.881 18.411 -8
      vertex 139.546 19.109 -8
      vertex 139.412 19.191 -8
    endloop
  endfacet
  facet normal 0 0 1
    outer loop
      vertex 136.881 18.411 -8
      vertex 139.691 19.0489 -8
      vertex 139.546 19.109 -8
    endloop
  endfacet
  facet normal 0 0 1
    outer loop
      vertex 136.881 18.411 -8
      vertex 139.844 19.0123 -8
      vertex 139.691 19.0489 -8
    endloop
  endfacet
  facet normal 0 0 1
    outer loop
      vertex 136.881 18.411 -8
      vertex 140 19 -8
      vertex 139.844 19.0123 -8
    endloop
  endfacet
  facet normal -0.922544 -0.385892 0
    outer loop
      vertex 136.881 18.411 -8
      vertex 142.563 4.82716 -10
      vertex 142.563 4.82716 -8
    endloop
  endfacet
  facet normal 0 0 1
    outer loop
      vertex 136.881 18.411 -8
      vertex 142.563 4.82716 -8
      vertex 140 19 -8
    endloop
  endfacet
  facet normal -0.85257 0.522613 0
    outer loop
      vertex 136.881 21.589 -10
      vertex 136.881 21.589 -8
      vertex 137.168 22.0572 -8
    endloop
  endfacet
  facet normal 0 0 -1
    outer loop
      vertex 136.881 21.589 -10
      vertex 137.168 22.0572 -10
      vertex 139.012 20.1564 -10
    endloop
  endfacet
  facet normal -0.85257 0.522613 0
    outer loop
      vertex 136.881 21.589 -10
      vertex 137.168 22.0572 -8
      vertex 137.168 22.0572 -10
    endloop
  endfacet
  facet normal 0 0 1
    outer loop
      vertex 136.881 21.589 -8
      vertex 139.049 20.309 -8
      vertex 139.109 20.454 -8
    endloop
  endfacet
  facet normal -0 0 1
    outer loop
      vertex 136.881 21.589 -8
      vertex 139.109 20.454 -8
      vertex 137.168 22.0572 -8
    endloop
  endfacet
  facet normal -0.760181 0.649712 0
    outer loop
      vertex 137.168 22.0572 -10
      vertex 137.168 22.0572 -8
      vertex 137.525 22.4749 -8
    endloop
  endfacet
  facet normal 0 0 -1
    outer loop
      vertex 137.168 22.0572 -10
      vertex 137.525 22.4749 -10
      vertex 139.012 20.1564 -10
    endloop
  endfacet
  facet normal -0.760181 0.649712 0
    outer loop
      vertex 137.168 22.0572 -10
      vertex 137.525 22.4749 -8
      vertex 137.525 22.4749 -10
    endloop
  endfacet
  facet normal 0 0 1
    outer loop
      vertex 137.168 22.0572 -8
      vertex 139.109 20.454 -8
      vertex 139.191 20.5878 -8
    endloop
  endfacet
  facet normal -0 0 1
    outer loop
      vertex 137.168 22.0572 -8
      vertex 139.191 20.5878 -8
      vertex 137.525 22.4749 -8
    endloop
  endfacet
  facet normal -0.998568 0.0534972 0
    outer loop
      vertex 137.5 0 -10
      vertex 137.5 0 129.5
      vertex 137.514 0.261321 129.5
    endloop
  endfacet
  facet normal -0.998568 -0.0534972 0
    outer loop
      vertex 137.5 0 -10
      vertex 137.514 -0.261321 -10
      vertex 137.5 0 129.5
    endloop
  endfacet
  facet normal -0 0 -1
    outer loop
      vertex 137.5 0 -10
      vertex 137.514 0.261321 -10
      vertex 138.707 0.135886 -10
    endloop
  endfacet
  facet normal -0.998568 0.0534972 0
    outer loop
      vertex 137.5 0 -10
      vertex 137.514 0.261321 129.5
      vertex 137.514 0.261321 -10
    endloop
  endfacet
  facet normal 0 0 -1
    outer loop
      vertex 137.5 0 -10
      vertex 138.7 0 -10
      vertex 137.514 -0.261321 -10
    endloop
  endfacet
  facet normal 0 0 -1
    outer loop
      vertex 137.5 0 -10
      vertex 138.707 0.135886 -10
      vertex 138.7 0 -10
    endloop
  endfacet
  facet normal -0.998568 -0.0534972 0
    outer loop
      vertex 137.5 0 129.5
      vertex 137.514 -0.261321 -10
      vertex 137.514 -0.261321 129.5
    endloop
  endfacet
  facet normal 0 0 1
    outer loop
      vertex 137.5 0 129.5
      vertex 137.514 -0.261321 129.5
      vertex 138.707 -0.135886 129.5
    endloop
  endfacet
  facet normal 0 0 1
    outer loop
      vertex 137.5 0 129.5
      vertex 138.7 0 129.5
      vertex 137.514 0.261321 129.5
    endloop
  endfacet
  facet normal 0 0 1
    outer loop
      vertex 137.5 0 129.5
      vertex 138.707 -0.135886 129.5
      vertex 138.7 0 129.5
    endloop
  endfacet
  facet normal -0.98765 -0.156674 0
    outer loop
      vertex 137.514 -0.261321 -10
      vertex 137.555 -0.519779 -10
      vertex 137.514 -0.261321 129.5
    endloop
  endfacet
  facet normal -0 0 -1
    outer loop
      vertex 137.514 -0.261321 -10
      vertex 138.7 0 -10
      vertex 138.707 -0.135886 -10
    endloop
  endfacet
  facet normal 0 0 -1
    outer loop
      vertex 137.514 -0.261321 -10
      vertex 138.707 -0.135886 -10
      vertex 137.555 -0.519779 -10
    endloop
  endfacet
  facet normal -0.98765 -0.156674 0
    outer loop
      vertex 137.514 -0.261321 129.5
      vertex 137.555 -0.519779 -10
      vertex 137.555 -0.519779 129.5
    endloop
  endfacet
  facet normal 0 0 1
    outer loop
      vertex 137.514 -0.261321 129.5
      vertex 137.555 -0.519779 129.5
      vertex 138.707 -0.135886 129.5
    endloop
  endfacet
  facet normal -0.98765 0.156674 0
    outer loop
      vertex 137.514 0.261321 -10
      vertex 137.514 0.261321 129.5
      vertex 137.555 0.519779 129.5
    endloop
  endfacet
  facet normal 0 0 -1
    outer loop
      vertex 137.514 0.261321 -10
      vertex 137.555 0.519779 -10
      vertex 138.707 0.135886 -10
    endloop
  endfacet
  facet normal -0.98765 0.156674 0
    outer loop
      vertex 137.514 0.261321 -10
      vertex 137.555 0.519779 129.5
      vertex 137.555 0.519779 -10
    endloop
  endfacet
  facet normal 0 0 1
    outer loop
      vertex 137.514 0.261321 129.5
      vertex 138.7 0 129.5
      vertex 138.707 0.135886 129.5
    endloop
  endfacet
  facet normal -0 0 1
    outer loop
      vertex 137.514 0.261321 129.5
      vertex 138.707 0.135886 129.5
      vertex 137.555 0.519779 129.5
    endloop
  endfacet
  facet normal -0.649126 0.760681 0
    outer loop
      vertex 137.525 22.4749 -10
      vertex 137.525 22.4749 -8
      vertex 137.943 22.8316 -10
    endloop
  endfacet
  facet normal 0 0 -1
    outer loop
      vertex 137.525 22.4749 -10
      vertex 137.943 22.8316 -10
      vertex 139.012 20.1564 -10
    endloop
  endfacet
  facet normal -0.649126 0.760681 0
    outer loop
      vertex 137.525 22.4749 -8
      vertex 137.943 22.8316 -8
      vertex 137.943 22.8316 -10
    endloop
  endfacet
  facet normal 0 0 1
    outer loop
      vertex 137.525 22.4749 -8
      vertex 139.191 20.5878 -8
      vertex 139.293 20.7071 -8
    endloop
  endfacet
  facet normal -0 0 1
    outer loop
      vertex 137.525 22.4749 -8
      vertex 139.293 20.7071 -8
      vertex 137.943 22.8316 -8
    endloop
  endfacet
  facet normal -0.966618 -0.256222 0
    outer loop
      vertex 137.555 -0.519779 -10
      vertex 137.622 -0.772542 -10
      vertex 137.555 -0.519779 129.5
    endloop
  endfacet
  facet normal -0 0 -1
    outer loop
      vertex 137.555 -0.519779 -10
      vertex 138.707 -0.135886 -10
      vertex 138.728 -0.270285 -10
    endloop
  endfacet
  facet normal 0 0 -1
    outer loop
      vertex 137.555 -0.519779 -10
      vertex 138.728 -0.270285 -10
      vertex 137.622 -0.772542 -10
    endloop
  endfacet
  facet normal -0.966618 -0.256222 0
    outer loop
      vertex 137.555 -0.519779 129.5
      vertex 137.622 -0.772542 -10
      vertex 137.622 -0.772542 129.5
    endloop
  endfacet
  facet normal 0 0 1
    outer loop
      vertex 137.555 -0.519779 129.5
      vertex 137.622 -0.772542 129.5
      vertex 138.728 -0.270285 129.5
    endloop
  endfacet
  facet normal 0 0 1
    outer loop
      vertex 137.555 -0.519779 129.5
      vertex 138.728 -0.270285 129.5
      vertex 138.707 -0.135886 129.5
    endloop
  endfacet
  facet normal -0.966618 0.256222 0
    outer loop
      vertex 137.555 0.519779 -10
      vertex 137.555 0.519779 129.5
      vertex 137.622 0.772542 129.5
    endloop
  endfacet
  facet normal 0 0 -1
    outer loop
      vertex 137.555 0.519779 -10
      vertex 137.622 0.772542 -10
      vertex 138.728 0.270285 -10
    endloop
  endfacet
  facet normal -0.966618 0.256222 0
    outer loop
      vertex 137.555 0.519779 -10
      vertex 137.622 0.772542 129.5
      vertex 137.622 0.772542 -10
    endloop
  endfacet
  facet normal 0 0 -1
    outer loop
      vertex 137.555 0.519779 -10
      vertex 138.728 0.270285 -10
      vertex 138.707 0.135886 -10
    endloop
  endfacet
  facet normal 0 0 1
    outer loop
      vertex 137.555 0.519779 129.5
      vertex 138.707 0.135886 129.5
      vertex 138.728 0.270285 129.5
    endloop
  endfacet
  facet normal -0 0 1
    outer loop
      vertex 137.555 0.519779 129.5
      vertex 138.728 0.270285 129.5
      vertex 137.622 0.772542 129.5
    endloop
  endfacet
  facet normal -0.933295 -0.35911 0
    outer loop
      vertex 137.622 -0.772542 -10
      vertex 137.716 -1.01684 -10
      vertex 137.622 -0.772542 129.5
    endloop
  endfacet
  facet normal -0 0 -1
    outer loop
      vertex 137.622 -0.772542 -10
      vertex 138.728 -0.270285 -10
      vertex 138.764 -0.401722 -10
    endloop
  endfacet
  facet normal 0 0 -1
    outer loop
      vertex 137.622 -0.772542 -10
      vertex 138.764 -0.401722 -10
      vertex 137.716 -1.01684 -10
    endloop
  endfacet
  facet normal -0.933295 -0.35911 0
    outer loop
      vertex 137.622 -0.772542 129.5
      vertex 137.716 -1.01684 -10
      vertex 137.716 -1.01684 129.5
    endloop
  endfacet
  facet normal 0 0 1
    outer loop
      vertex 137.622 -0.772542 129.5
      vertex 137.716 -1.01684 129.5
      vertex 138.764 -0.401722 129.5
    endloop
  endfacet
  facet normal 0 0 1
    outer loop
      vertex 137.622 -0.772542 129.5
      vertex 138.764 -0.401722 129.5
      vertex 138.728 -0.270285 129.5
    endloop
  endfacet
  facet normal -0.933295 0.35911 0
    outer loop
      vertex 137.622 0.772542 -10
      vertex 137.622 0.772542 129.5
      vertex 137.716 1.01684 129.5
    endloop
  endfacet
  facet normal 0 0 -1
    outer loop
      vertex 137.622 0.772542 -10
      vertex 137.716 1.01684 -10
      vertex 138.764 0.401722 -10
    endloop
  endfacet
  facet normal -0.933295 0.35911 0
    outer loop
      vertex 137.622 0.772542 -10
      vertex 137.716 1.01684 129.5
      vertex 137.716 1.01684 -10
    endloop
  endfacet
  facet normal 0 0 -1
    outer loop
      vertex 137.622 0.772542 -10
      vertex 138.764 0.401722 -10
      vertex 138.728 0.270285 -10
    endloop
  endfacet
  facet normal 0 0 1
    outer loop
      vertex 137.622 0.772542 129.5
      vertex 138.728 0.270285 129.5
      vertex 138.764 0.401722 129.5
    endloop
  endfacet
  facet normal -0 0 1
    outer loop
      vertex 137.622 0.772542 129.5
      vertex 138.764 0.401722 129.5
      vertex 137.716 1.01684 129.5
    endloop
  endfacet
  facet normal -0.890699 -0.454594 0
    outer loop
      vertex 137.716 -1.01684 -10
      vertex 137.835 -1.25 -10
      vertex 137.716 -1.01684 129.5
    endloop
  endfacet
  facet normal -0 0 -1
    outer loop
      vertex 137.716 -1.01684 -10
      vertex 138.764 -0.401722 -10
      vertex 138.812 -0.528757 -10
    endloop
  endfacet
  facet normal 0 0 -1
    outer loop
      vertex 137.716 -1.01684 -10
      vertex 138.812 -0.528757 -10
      vertex 137.835 -1.25 -10
    endloop
  endfacet
  facet normal -0.890699 -0.454594 0
    outer loop
      vertex 137.716 -1.01684 129.5
      vertex 137.835 -1.25 -10
      vertex 137.835 -1.25 129.5
    endloop
  endfacet
  facet normal 0 0 1
    outer loop
      vertex 137.716 -1.01684 129.5
      vertex 137.835 -1.25 129.5
      vertex 138.812 -0.528757 129.5
    endloop
  endfacet
  facet normal 0 0 1
    outer loop
      vertex 137.716 -1.01684 129.5
      vertex 138.812 -0.528757 129.5
      vertex 138.764 -0.401722 129.5
    endloop
  endfacet
  facet normal -0.890699 0.454594 0
    outer loop
      vertex 137.716 1.01684 -10
      vertex 137.716 1.01684 129.5
      vertex 137.835 1.25 129.5
    endloop
  endfacet
  facet normal 0 0 -1
    outer loop
      vertex 137.716 1.01684 -10
      vertex 137.835 1.25 -10
      vertex 138.812 0.528757 -10
    endloop
  endfacet
  facet normal -0.890699 0.454594 0
    outer loop
      vertex 137.716 1.01684 -10
      vertex 137.835 1.25 129.5
      vertex 137.835 1.25 -10
    endloop
  endfacet
  facet normal 0 0 -1
    outer loop
      vertex 137.716 1.01684 -10
      vertex 138.812 0.528757 -10
      vertex 138.764 0.401722 -10
    endloop
  endfacet
  facet normal 0 0 1
    outer loop
      vertex 137.716 1.01684 129.5
      vertex 138.764 0.401722 129.5
      vertex 138.812 0.528757 129.5
    endloop
  endfacet
  facet normal -0 0 1
    outer loop
      vertex 137.716 1.01684 129.5
      vertex 138.812 0.528757 129.5
      vertex 137.835 1.25 129.5
    endloop
  endfacet
  facet normal -0.839576 -0.543242 0
    outer loop
      vertex 137.835 -1.25 -10
      vertex 137.977 -1.46946 -10
      vertex 137.835 -1.25 129.5
    endloop
  endfacet
  facet normal -0 0 -1
    outer loop
      vertex 137.835 -1.25 -10
      vertex 138.812 -0.528757 -10
      vertex 138.874 -0.65 -10
    endloop
  endfacet
  facet normal 0 0 -1
    outer loop
      vertex 137.835 -1.25 -10
      vertex 138.874 -0.65 -10
      vertex 137.977 -1.46946 -10
    endloop
  endfacet
  facet normal -0.839576 -0.543242 0
    outer loop
      vertex 137.835 -1.25 129.5
      vertex 137.977 -1.46946 -10
      vertex 137.977 -1.46946 129.5
    endloop
  endfacet
  facet normal 0 0 1
    outer loop
      vertex 137.835 -1.25 129.5
      vertex 137.977 -1.46946 129.5
      vertex 138.874 -0.65 129.5
    endloop
  endfacet
  facet normal 0 0 1
    outer loop
      vertex 137.835 -1.25 129.5
      vertex 138.874 -0.65 129.5
      vertex 138.812 -0.528757 129.5
    endloop
  endfacet
  facet normal -0.839576 0.543242 0
    outer loop
      vertex 137.835 1.25 -10
      vertex 137.835 1.25 129.5
      vertex 137.977 1.46946 129.5
    endloop
  endfacet
  facet normal 0 0 -1
    outer loop
      vertex 137.835 1.25 -10
      vertex 137.977 1.46946 -10
      vertex 138.874 0.65 -10
    endloop
  endfacet
  facet normal -0.839576 0.543242 0
    outer loop
      vertex 137.835 1.25 -10
      vertex 137.977 1.46946 129.5
      vertex 137.977 1.46946 -10
    endloop
  endfacet
  facet normal 0 0 -1
    outer loop
      vertex 137.835 1.25 -10
      vertex 138.874 0.65 -10
      vertex 138.812 0.528757 -10
    endloop
  endfacet
  facet normal 0 0 1
    outer loop
      vertex 137.835 1.25 129.5
      vertex 138.812 0.528757 129.5
      vertex 138.874 0.65 129.5
    endloop
  endfacet
  facet normal -0 0 1
    outer loop
      vertex 137.835 1.25 129.5
      vertex 138.874 0.65 129.5
      vertex 137.977 1.46946 129.5
    endloop
  endfacet
  facet normal -0.522643 0.852552 0
    outer loop
      vertex 137.943 22.8316 -10
      vertex 137.943 22.8316 -8
      vertex 138.411 23.1185 -10
    endloop
  endfacet
  facet normal 0 0 -1
    outer loop
      vertex 137.943 22.8316 -10
      vertex 138.411 23.1185 -10
      vertex 139.012 20.1564 -10
    endloop
  endfacet
  facet normal -0.522643 0.852552 0
    outer loop
      vertex 137.943 22.8316 -8
      vertex 138.411 23.1185 -8
      vertex 138.411 23.1185 -10
    endloop
  endfacet
  facet normal 0 0 1
    outer loop
      vertex 137.943 22.8316 -8
      vertex 139.293 20.7071 -8
      vertex 139.412 20.809 -8
    endloop
  endfacet
  facet normal -0 0 1
    outer loop
      vertex 137.943 22.8316 -8
      vertex 139.412 20.809 -8
      vertex 138.411 23.1185 -8
    endloop
  endfacet
  facet normal -0.776559 -0.630045 0
    outer loop
      vertex 137.977 -1.46946 -10
      vertex 138.142 -1.67283 -10
      vertex 137.977 -1.46946 129.5
    endloop
  endfacet
  facet normal -0 0 -1
    outer loop
      vertex 137.977 -1.46946 -10
      vertex 138.874 -0.65 -10
      vertex 138.948 -0.76412 -10
    endloop
  endfacet
  facet normal 0 0 -1
    outer loop
      vertex 137.977 -1.46946 -10
      vertex 138.948 -0.76412 -10
      vertex 138.142 -1.67283 -10
    endloop
  endfacet
  facet normal -0.776559 -0.630045 0
    outer loop
      vertex 137.977 -1.46946 129.5
      vertex 138.142 -1.67283 -10
      vertex 138.142 -1.67283 129.5
    endloop
  endfacet
  facet normal 0 0 1
    outer loop
      vertex 137.977 -1.46946 129.5
      vertex 138.142 -1.67283 129.5
      vertex 138.948 -0.76412 129.5
    endloop
  endfacet
  facet normal 0 0 1
    outer loop
      vertex 137.977 -1.46946 129.5
      vertex 138.948 -0.76412 129.5
      vertex 138.874 -0.65 129.5
    endloop
  endfacet
  facet normal -0.776559 0.630045 0
    outer loop
      vertex 137.977 1.46946 -10
      vertex 137.977 1.46946 129.5
      vertex 138.142 1.67283 129.5
    endloop
  endfacet
  facet normal 0 0 -1
    outer loop
      vertex 137.977 1.46946 -10
      vertex 138.142 1.67283 -10
      vertex 138.948 0.76412 -10
    endloop
  endfacet
  facet normal -0.776559 0.630045 0
    outer loop
      vertex 137.977 1.46946 -10
      vertex 138.142 1.67283 129.5
      vertex 138.142 1.67283 -10
    endloop
  endfacet
  facet normal 0 0 -1
    outer loop
      vertex 137.977 1.46946 -10
      vertex 138.948 0.76412 -10
      vertex 138.874 0.65 -10
    endloop
  endfacet
  facet normal 0 0 1
    outer loop
      vertex 137.977 1.46946 129.5
      vertex 138.874 0.65 129.5
      vertex 138.948 0.76412 129.5
    endloop
  endfacet
  facet normal -0 0 1
    outer loop
      vertex 137.977 1.46946 129.5
      vertex 138.948 0.76412 129.5
      vertex 138.142 1.67283 129.5
    endloop
  endfacet
  facet normal -0.707164 -0.707049 -0
    outer loop
      vertex 138.142 -1.67283 -10
      vertex 138.327 -1.85786 -10
      vertex 138.327 -1.85786 129.5
    endloop
  endfacet
  facet normal -0.707164 -0.707049 0
    outer loop
      vertex 138.142 -1.67283 -10
      vertex 138.327 -1.85786 129.5
      vertex 138.142 -1.67283 129.5
    endloop
  endfacet
  facet normal -0 0 -1
    outer loop
      vertex 138.142 -1.67283 -10
      vertex 138.948 -0.76412 -10
      vertex 139.034 -0.869869 -10
    endloop
  endfacet
  facet normal 0 0 -1
    outer loop
      vertex 138.142 -1.67283 -10
      vertex 139.034 -0.869869 -10
      vertex 138.327 -1.85786 -10
    endloop
  endfacet
  facet normal 0 0 1
    outer loop
      vertex 138.142 -1.67283 129.5
      vertex 138.327 -1.85786 129.5
      vertex 139.034 -0.869869 129.5
    endloop
  endfacet
  facet normal 0 0 1
    outer loop
      vertex 138.142 -1.67283 129.5
      vertex 139.034 -0.869869 129.5
      vertex 138.948 -0.76412 129.5
    endloop
  endfacet
  facet normal -0.707164 0.707049 0
    outer loop
      vertex 138.142 1.67283 -10
      vertex 138.142 1.67283 129.5
      vertex 138.327 1.85786 -10
    endloop
  endfacet
  facet normal 0 0 -1
    outer loop
      vertex 138.142 1.67283 -10
      vertex 138.327 1.85786 -10
      vertex 139.034 0.869869 -10
    endloop
  endfacet
  facet normal 0 0 -1
    outer loop
      vertex 138.142 1.67283 -10
      vertex 139.034 0.869869 -10
      vertex 138.948 0.76412 -10
    endloop
  endfacet
  facet normal -0.707164 0.707049 0
    outer loop
      vertex 138.142 1.67283 129.5
      vertex 138.327 1.85786 129.5
      vertex 138.327 1.85786 -10
    endloop
  endfacet
  facet normal 0 0 1
    outer loop
      vertex 138.142 1.67283 129.5
      vertex 138.948 0.76412 129.5
      vertex 139.034 0.869869 129.5
    endloop
  endfacet
  facet normal -0 0 1
    outer loop
      vertex 138.142 1.67283 129.5
      vertex 139.034 0.869869 129.5
      vertex 138.327 1.85786 129.5
    endloop
  endfacet
  facet normal -0.628131 -0.778108 -0
    outer loop
      vertex 138.327 -1.85786 -10
      vertex 138.531 -2.02254 -10
      vertex 138.531 -2.02254 129.5
    endloop
  endfacet
  facet normal -0.628131 -0.778108 0
    outer loop
      vertex 138.327 -1.85786 -10
      vertex 138.531 -2.02254 129.5
      vertex 138.327 -1.85786 129.5
    endloop
  endfacet
  facet normal -0 0 -1
    outer loop
      vertex 138.327 -1.85786 -10
      vertex 139.034 -0.869869 -10
      vertex 139.13 -0.966087 -10
    endloop
  endfacet
  facet normal 0 0 -1
    outer loop
      vertex 138.327 -1.85786 -10
      vertex 139.13 -0.966087 -10
      vertex 138.531 -2.02254 -10
    endloop
  endfacet
  facet normal 0 0 1
    outer loop
      vertex 138.327 -1.85786 129.5
      vertex 138.531 -2.02254 129.5
      vertex 139.13 -0.966087 129.5
    endloop
  endfacet
  facet normal 0 0 1
    outer loop
      vertex 138.327 -1.85786 129.5
      vertex 139.13 -0.966087 129.5
      vertex 139.034 -0.869869 129.5
    endloop
  endfacet
  facet normal -0.628131 0.778108 0
    outer loop
      vertex 138.327 1.85786 -10
      vertex 138.327 1.85786 129.5
      vertex 138.531 2.02254 -10
    endloop
  endfacet
  facet normal 0 0 -1
    outer loop
      vertex 138.327 1.85786 -10
      vertex 138.531 2.02254 -10
      vertex 139.13 0.966087 -10
    endloop
  endfacet
  facet normal 0 0 -1
    outer loop
      vertex 138.327 1.85786 -10
      vertex 139.13 0.966087 -10
      vertex 139.034 0.869869 -10
    endloop
  endfacet
  facet normal -0.628131 0.778108 0
    outer loop
      vertex 138.327 1.85786 129.5
      vertex 138.531 2.02254 129.5
      vertex 138.531 2.02254 -10
    endloop
  endfacet
  facet normal 0 0 1
    outer loop
      vertex 138.327 1.85786 129.5
      vertex 139.034 0.869869 129.5
      vertex 139.13 0.966087 129.5
    endloop
  endfacet
  facet normal -0 0 1
    outer loop
      vertex 138.327 1.85786 129.5
      vertex 139.13 0.966087 129.5
      vertex 138.531 2.02254 129.5
    endloop
  endfacet
  facet normal -0.382985 0.923755 0
    outer loop
      vertex 138.411 23.1185 -10
      vertex 138.411 23.1185 -8
      vertex 138.918 23.3287 -10
    endloop
  endfacet
  facet normal 0 0 -1
    outer loop
      vertex 138.411 23.1185 -10
      vertex 138.918 23.3287 -10
      vertex 139.546 20.891 -10
    endloop
  endfacet
  facet normal 0 0 -1
    outer loop
      vertex 138.411 23.1185 -10
      vertex 139.049 20.309 -10
      vertex 139.012 20.1564 -10
    endloop
  endfacet
  facet normal 0 0 -1
    outer loop
      vertex 138.411 23.1185 -10
      vertex 139.109 20.454 -10
      vertex 139.049 20.309 -10
    endloop
  endfacet
  facet normal 0 0 -1
    outer loop
      vertex 138.411 23.1185 -10
      vertex 139.191 20.5878 -10
      vertex 139.109 20.454 -10
    endloop
  endfacet
  facet normal 0 0 -1
    outer loop
      vertex 138.411 23.1185 -10
      vertex 139.293 20.7071 -10
      vertex 139.191 20.5878 -10
    endloop
  endfacet
  facet normal 0 0 -1
    outer loop
      vertex 138.411 23.1185 -10
      vertex 139.412 20.809 -10
      vertex 139.293 20.7071 -10
    endloop
  endfacet
  facet normal 0 0 -1
    outer loop
      vertex 138.411 23.1185 -10
      vertex 139.546 20.891 -10
      vertex 139.412 20.809 -10
    endloop
  endfacet
  facet normal -0.382985 0.923755 0
    outer loop
      vertex 138.411 23.1185 -8
      vertex 138.918 23.3287 -8
      vertex 138.918 23.3287 -10
    endloop
  endfacet
  facet normal 0 0 1
    outer loop
      vertex 138.411 23.1185 -8
      vertex 139.412 20.809 -8
      vertex 139.546 20.891 -8
    endloop
  endfacet
  facet normal -0 0 1
    outer loop
      vertex 138.411 23.1185 -8
      vertex 139.546 20.891 -8
      vertex 138.918 23.3287 -8
    endloop
  endfacet
  facet normal -0 0 -1
    outer loop
      vertex 138.531 -2.02254 -10
      vertex 139.13 -0.966087 -10
      vertex 139.236 -1.05172 -10
    endloop
  endfacet
  facet normal -0 0 -1
    outer loop
      vertex 138.531 -2.02254 -10
      vertex 139.236 -1.05172 -10
      vertex 139.35 -1.12583 -10
    endloop
  endfacet
  facet normal -0 0 -1
    outer loop
      vertex 138.531 -2.02254 -10
      vertex 139.35 -1.12583 -10
      vertex 139.471 -1.18761 -10
    endloop
  endfacet
  facet normal -0 0 -1
    outer loop
      vertex 138.531 -2.02254 -10
      vertex 139.471 -1.18761 -10
      vertex 139.598 -1.23637 -10
    endloop
  endfacet
  facet normal -0 0 -1
    outer loop
      vertex 138.531 -2.02254 -10
      vertex 139.598 -1.23637 -10
      vertex 139.73 -1.27159 -10
    endloop
  endfacet
  facet normal -0 0 -1
    outer loop
      vertex 138.531 -2.02254 -10
      vertex 139.73 -1.27159 -10
      vertex 139.864 -1.29288 -10
    endloop
  endfacet
  facet normal -0 0 -1
    outer loop
      vertex 138.531 -2.02254 -10
      vertex 139.864 -1.29288 -10
      vertex 140 -1.3 -10
    endloop
  endfacet
  facet normal 0 0 -1
    outer loop
      vertex 138.531 -2.02254 -10
      vertex 140 -1.3 -10
      vertex 140.136 -1.29288 -10
    endloop
  endfacet
  facet normal 0 0 -1
    outer loop
      vertex 138.531 -2.02254 -10
      vertex 140.136 -1.29288 -10
      vertex 140.27 -1.27159 -10
    endloop
  endfacet
  facet normal 0 0 -1
    outer loop
      vertex 138.531 -2.02254 -10
      vertex 140.27 -1.27159 -10
      vertex 140.402 -1.23637 -10
    endloop
  endfacet
  facet normal 0 0 -1
    outer loop
      vertex 138.531 -2.02254 -10
      vertex 140.402 -1.23637 -10
      vertex 150 -10 -10
    endloop
  endfacet
  facet normal -0.571017 -0.820938 -0
    outer loop
      vertex 138.531 -2.02254 -10
      vertex 150 -10 -10
      vertex 150 -10 129.5
    endloop
  endfacet
  facet normal -0.571017 -0.820938 0
    outer loop
      vertex 138.531 -2.02254 -10
      vertex 150 -10 129.5
      vertex 138.531 -2.02254 129.5
    endloop
  endfacet
  facet normal 0 0 1
    outer loop
      vertex 138.531 -2.02254 129.5
      vertex 139.236 -1.05172 129.5
      vertex 139.13 -0.966087 129.5
    endloop
  endfacet
  facet normal 0 0 1
    outer loop
      vertex 138.531 -2.02254 129.5
      vertex 139.35 -1.12583 129.5
      vertex 139.236 -1.05172 129.5
    endloop
  endfacet
  facet normal 0 0 1
    outer loop
      vertex 138.531 -2.02254 129.5
      vertex 139.471 -1.18761 129.5
      vertex 139.35 -1.12583 129.5
    endloop
  endfacet
  facet normal 0 0 1
    outer loop
      vertex 138.531 -2.02254 129.5
      vertex 139.598 -1.23637 129.5
      vertex 139.471 -1.18761 129.5
    endloop
  endfacet
  facet normal 0 0 1
    outer loop
      vertex 138.531 -2.02254 129.5
      vertex 139.73 -1.27159 129.5
      vertex 139.598 -1.23637 129.5
    endloop
  endfacet
  facet normal 0 0 1
    outer loop
      vertex 138.531 -2.02254 129.5
      vertex 139.864 -1.29288 129.5
      vertex 139.73 -1.27159 129.5
    endloop
  endfacet
  facet normal 0 0 1
    outer loop
      vertex 138.531 -2.02254 129.5
      vertex 140 -1.3 129.5
      vertex 139.864 -1.29288 129.5
    endloop
  endfacet
  facet normal 0 0 1
    outer loop
      vertex 138.531 -2.02254 129.5
      vertex 140.136 -1.29288 129.5
      vertex 140 -1.3 129.5
    endloop
  endfacet
  facet normal 0 0 1
    outer loop
      vertex 138.531 -2.02254 129.5
      vertex 140.27 -1.27159 129.5
      vertex 140.136 -1.29288 129.5
    endloop
  endfacet
  facet normal 0 0 1
    outer loop
      vertex 138.531 -2.02254 129.5
      vertex 140.402 -1.23637 129.5
      vertex 140.27 -1.27159 129.5
    endloop
  endfacet
  facet normal 0 0 1
    outer loop
      vertex 138.531 -2.02254 129.5
      vertex 150 -10 129.5
      vertex 140.402 -1.23637 129.5
    endloop
  endfacet
  facet normal -0.57103 0.820929 0
    outer loop
      vertex 138.531 2.02254 -10
      vertex 138.531 2.02254 129.5
      vertex 142.563 4.82716 -8
    endloop
  endfacet
  facet normal 0 0 -1
    outer loop
      vertex 138.531 2.02254 -10
      vertex 139.236 1.05172 -10
      vertex 139.13 0.966087 -10
    endloop
  endfacet
  facet normal 0 0 -1
    outer loop
      vertex 138.531 2.02254 -10
      vertex 139.35 1.12583 -10
      vertex 139.236 1.05172 -10
    endloop
  endfacet
  facet normal 0 0 -1
    outer loop
      vertex 138.531 2.02254 -10
      vertex 139.471 1.18761 -10
      vertex 139.35 1.12583 -10
    endloop
  endfacet
  facet normal 0 0 -1
    outer loop
      vertex 138.531 2.02254 -10
      vertex 139.598 1.23637 -10
      vertex 139.471 1.18761 -10
    endloop
  endfacet
  facet normal 0 0 -1
    outer loop
      vertex 138.531 2.02254 -10
      vertex 139.73 1.27159 -10
      vertex 139.598 1.23637 -10
    endloop
  endfacet
  facet normal 0 0 -1
    outer loop
      vertex 138.531 2.02254 -10
      vertex 139.864 1.29288 -10
      vertex 139.73 1.27159 -10
    endloop
  endfacet
  facet normal 0 0 -1
    outer loop
      vertex 138.531 2.02254 -10
      vertex 140 1.3 -10
      vertex 139.864 1.29288 -10
    endloop
  endfacet
  facet normal 0 0 -1
    outer loop
      vertex 138.531 2.02254 -10
      vertex 140.136 1.29288 -10
      vertex 140 1.3 -10
    endloop
  endfacet
  facet normal 0 0 -1
    outer loop
      vertex 138.531 2.02254 -10
      vertex 142.563 4.82716 -10
      vertex 140.136 1.29288 -10
    endloop
  endfacet
  facet normal -0.57103 0.820929 0
    outer loop
      vertex 138.531 2.02254 -10
      vertex 142.563 4.82716 -8
      vertex 142.563 4.82716 -10
    endloop
  endfacet
  facet normal 0 0 1
    outer loop
      vertex 138.531 2.02254 129.5
      vertex 139.13 0.966087 129.5
      vertex 139.236 1.05172 129.5
    endloop
  endfacet
  facet normal 0 0 1
    outer loop
      vertex 138.531 2.02254 129.5
      vertex 139.236 1.05172 129.5
      vertex 139.35 1.12583 129.5
    endloop
  endfacet
  facet normal 0 0 1
    outer loop
      vertex 138.531 2.02254 129.5
      vertex 139.35 1.12583 129.5
      vertex 139.471 1.18761 129.5
    endloop
  endfacet
  facet normal 0 0 1
    outer loop
      vertex 138.531 2.02254 129.5
      vertex 139.471 1.18761 129.5
      vertex 139.598 1.23637 129.5
    endloop
  endfacet
  facet normal 0 0 1
    outer loop
      vertex 138.531 2.02254 129.5
      vertex 139.598 1.23637 129.5
      vertex 139.73 1.27159 129.5
    endloop
  endfacet
  facet normal 0 0 1
    outer loop
      vertex 138.531 2.02254 129.5
      vertex 139.73 1.27159 129.5
      vertex 139.864 1.29288 129.5
    endloop
  endfacet
  facet normal 0 0 1
    outer loop
      vertex 138.531 2.02254 129.5
      vertex 139.864 1.29288 129.5
      vertex 140 1.3 129.5
    endloop
  endfacet
  facet normal 0 0 1
    outer loop
      vertex 138.531 2.02254 129.5
      vertex 140 1.3 129.5
      vertex 140.136 1.29288 129.5
    endloop
  endfacet
  facet normal 0 0 1
    outer loop
      vertex 138.531 2.02254 129.5
      vertex 140.136 1.29288 129.5
      vertex 140.27 1.27159 129.5
    endloop
  endfacet
  facet normal 0 0 1
    outer loop
      vertex 138.531 2.02254 129.5
      vertex 140.27 1.27159 129.5
      vertex 140.402 1.23637 129.5
    endloop
  endfacet
  facet normal -0 0 1
    outer loop
      vertex 138.531 2.02254 129.5
      vertex 140.402 1.23637 129.5
      vertex 150 10 129.5
    endloop
  endfacet
  facet normal -0.571017 0.820938 5.56004e-07
    outer loop
      vertex 138.531 2.02254 129.5
      vertex 150 10 129.5
      vertex 142.563 4.82716 -8
    endloop
  endfacet
  facet normal 0.998676 0.0514456 0
    outer loop
      vertex 138.7 0 -10
      vertex 138.7 0 129.5
      vertex 138.707 -0.135886 129.5
    endloop
  endfacet
  facet normal 0.998676 0.0514456 0
    outer loop
      vertex 138.7 0 -10
      vertex 138.707 -0.135886 129.5
      vertex 138.707 -0.135886 -10
    endloop
  endfacet
  facet normal 0.998676 -0.0514456 0
    outer loop
      vertex 138.7 0 -10
      vertex 138.707 0.135886 -10
      vertex 138.7 0 129.5
    endloop
  endfacet
  facet normal 0.998676 -0.0514456 0
    outer loop
      vertex 138.7 0 129.5
      vertex 138.707 0.135886 -10
      vertex 138.707 0.135886 129.5
    endloop
  endfacet
  facet normal 0.988012 0.154378 0
    outer loop
      vertex 138.707 -0.135886 -10
      vertex 138.707 -0.135886 129.5
      vertex 138.728 -0.270285 129.5
    endloop
  endfacet
  facet normal 0.988012 0.154378 0
    outer loop
      vertex 138.707 -0.135886 -10
      vertex 138.728 -0.270285 129.5
      vertex 138.728 -0.270285 -10
    endloop
  endfacet
  facet normal 0.988012 -0.154378 0
    outer loop
      vertex 138.707 0.135886 -10
      vertex 138.728 0.270285 -10
      vertex 138.707 0.135886 129.5
    endloop
  endfacet
  facet normal 0.988012 -0.154378 0
    outer loop
      vertex 138.707 0.135886 129.5
      vertex 138.728 0.270285 -10
      vertex 138.728 0.270285 129.5
    endloop
  endfacet
  facet normal 0.964477 0.264166 0
    outer loop
      vertex 138.728 -0.270285 -10
      vertex 138.728 -0.270285 129.5
      vertex 138.764 -0.401722 129.5
    endloop
  endfacet
  facet normal 0.964477 0.264166 0
    outer loop
      vertex 138.728 -0.270285 -10
      vertex 138.764 -0.401722 129.5
      vertex 138.764 -0.401722 -10
    endloop
  endfacet
  facet normal 0.964477 -0.264166 0
    outer loop
      vertex 138.728 0.270285 -10
      vertex 138.764 0.401722 -10
      vertex 138.728 0.270285 129.5
    endloop
  endfacet
  facet normal 0.964477 -0.264166 0
    outer loop
      vertex 138.728 0.270285 129.5
      vertex 138.764 0.401722 -10
      vertex 138.764 0.401722 129.5
    endloop
  endfacet
  facet normal 0.93545 0.353459 0
    outer loop
      vertex 138.764 -0.401722 -10
      vertex 138.764 -0.401722 129.5
      vertex 138.812 -0.528757 129.5
    endloop
  endfacet
  facet normal 0.93545 0.353459 0
    outer loop
      vertex 138.764 -0.401722 -10
      vertex 138.812 -0.528757 129.5
      vertex 138.812 -0.528757 -10
    endloop
  endfacet
  facet normal 0.93545 -0.353459 0
    outer loop
      vertex 138.764 0.401722 -10
      vertex 138.812 0.528757 -10
      vertex 138.764 0.401722 129.5
    endloop
  endfacet
  facet normal 0.93545 -0.353459 0
    outer loop
      vertex 138.764 0.401722 129.5
      vertex 138.812 0.528757 -10
      vertex 138.812 0.528757 129.5
    endloop
  endfacet
  facet normal 0.890341 0.455294 0
    outer loop
      vertex 138.812 -0.528757 -10
      vertex 138.812 -0.528757 129.5
      vertex 138.874 -0.65 129.5
    endloop
  endfacet
  facet normal 0.890341 0.455294 0
    outer loop
      vertex 138.812 -0.528757 -10
      vertex 138.874 -0.65 129.5
      vertex 138.874 -0.65 -10
    endloop
  endfacet
  facet normal 0.890341 -0.455294 0
    outer loop
      vertex 138.812 0.528757 -10
      vertex 138.874 0.65 -10
      vertex 138.812 0.528757 129.5
    endloop
  endfacet
  facet normal 0.890341 -0.455294 0
    outer loop
      vertex 138.812 0.528757 129.5
      vertex 138.874 0.65 -10
      vertex 138.874 0.65 129.5
    endloop
  endfacet
  facet normal 0.839041 0.544068 0
    outer loop
      vertex 138.874 -0.65 -10
      vertex 138.874 -0.65 129.5
      vertex 138.948 -0.76412 129.5
    endloop
  endfacet
  facet normal 0.839041 0.544068 0
    outer loop
      vertex 138.874 -0.65 -10
      vertex 138.948 -0.76412 129.5
      vertex 138.948 -0.76412 -10
    endloop
  endfacet
  facet normal 0.839041 -0.544068 0
    outer loop
      vertex 138.874 0.65 -10
      vertex 138.948 0.76412 -10
      vertex 138.874 0.65 129.5
    endloop
  endfacet
  facet normal 0.839041 -0.544068 0
    outer loop
      vertex 138.874 0.65 129.5
      vertex 138.948 0.76412 -10
      vertex 138.948 0.76412 129.5
    endloop
  endfacet
  facet normal -0.233442 0.972371 0
    outer loop
      vertex 138.918 23.3287 -10
      vertex 138.918 23.3287 -8
      vertex 139.452 23.4569 -10
    endloop
  endfacet
  facet normal 0 0 -1
    outer loop
      vertex 138.918 23.3287 -10
      vertex 139.452 23.4569 -10
      vertex 139.691 20.9511 -10
    endloop
  endfacet
  facet normal 0 0 -1
    outer loop
      vertex 138.918 23.3287 -10
      vertex 139.691 20.9511 -10
      vertex 139.546 20.891 -10
    endloop
  endfacet
  facet normal -0.233442 0.972371 0
    outer loop
      vertex 138.918 23.3287 -8
      vertex 139.452 23.4569 -8
      vertex 139.452 23.4569 -10
    endloop
  endfacet
  facet normal 0 0 1
    outer loop
      vertex 138.918 23.3287 -8
      vertex 139.546 20.891 -8
      vertex 139.691 20.9511 -8
    endloop
  endfacet
  facet normal -0 0 1
    outer loop
      vertex 138.918 23.3287 -8
      vertex 139.691 20.9511 -8
      vertex 139.452 23.4569 -8
    endloop
  endfacet
  facet normal 0.77583 0.630941 0
    outer loop
      vertex 138.948 -0.76412 -10
      vertex 138.948 -0.76412 129.5
      vertex 139.034 -0.869869 129.5
    endloop
  endfacet
  facet normal 0.77583 0.630941 0
    outer loop
      vertex 138.948 -0.76412 -10
      vertex 139.034 -0.869869 129.5
      vertex 139.034 -0.869869 -10
    endloop
  endfacet
  facet normal 0.77583 -0.630941 0
    outer loop
      vertex 138.948 0.76412 -10
      vertex 139.034 0.869869 -10
      vertex 138.948 0.76412 129.5
    endloop
  endfacet
  facet normal 0.77583 -0.630941 0
    outer loop
      vertex 138.948 0.76412 129.5
      vertex 139.034 0.869869 -10
      vertex 139.034 0.869869 129.5
    endloop
  endfacet
  facet normal 0.997069 0.0765015 0
    outer loop
      vertex 139 20 -10
      vertex 139 20 -8
      vertex 139.012 19.8436 -8
    endloop
  endfacet
  facet normal 0.997069 0.0765015 0
    outer loop
      vertex 139 20 -10
      vertex 139.012 19.8436 -8
      vertex 139.012 19.8436 -10
    endloop
  endfacet
  facet normal 0.997069 -0.0765015 0
    outer loop
      vertex 139 20 -10
      vertex 139.012 20.1564 -10
      vertex 139 20 -8
    endloop
  endfacet
  facet normal 0.997069 -0.0765015 0
    outer loop
      vertex 139 20 -8
      vertex 139.012 20.1564 -10
      vertex 139.012 20.1564 -8
    endloop
  endfacet
  facet normal 0.971841 0.235636 0
    outer loop
      vertex 139.012 19.8436 -10
      vertex 139.012 19.8436 -8
      vertex 139.049 19.691 -8
    endloop
  endfacet
  facet normal 0.971841 0.235636 0
    outer loop
      vertex 139.012 19.8436 -10
      vertex 139.049 19.691 -8
      vertex 139.049 19.691 -10
    endloop
  endfacet
  facet normal 0.971841 -0.235636 0
    outer loop
      vertex 139.012 20.1564 -10
      vertex 139.049 20.309 -10
      vertex 139.012 20.1564 -8
    endloop
  endfacet
  facet normal 0.971841 -0.235636 0
    outer loop
      vertex 139.012 20.1564 -8
      vertex 139.049 20.309 -10
      vertex 139.049 20.309 -8
    endloop
  endfacet
  facet normal 0.707908 0.706304 0
    outer loop
      vertex 139.034 -0.869869 -10
      vertex 139.034 -0.869869 129.5
      vertex 139.13 -0.966087 -10
    endloop
  endfacet
  facet normal 0.707908 0.706304 -0
    outer loop
      vertex 139.034 -0.869869 129.5
      vertex 139.13 -0.966087 129.5
      vertex 139.13 -0.966087 -10
    endloop
  endfacet
  facet normal 0.707908 -0.706304 0
    outer loop
      vertex 139.034 0.869869 -10
      vertex 139.13 0.966087 -10
      vertex 139.13 0.966087 129.5
    endloop
  endfacet
  facet normal 0.707908 -0.706304 0
    outer loop
      vertex 139.034 0.869869 -10
      vertex 139.13 0.966087 129.5
      vertex 139.034 0.869869 129.5
    endloop
  endfacet
  facet normal 0.924017 0.382352 0
    outer loop
      vertex 139.049 19.691 -10
      vertex 139.049 19.691 -8
      vertex 139.109 19.546 -8
    endloop
  endfacet
  facet normal 0.924017 0.382352 0
    outer loop
      vertex 139.049 19.691 -10
      vertex 139.109 19.546 -8
      vertex 139.109 19.546 -10
    endloop
  endfacet
  facet normal 0.924017 -0.382352 0
    outer loop
      vertex 139.049 20.309 -10
      vertex 139.109 20.454 -10
      vertex 139.049 20.309 -8
    endloop
  endfacet
  facet normal 0.924017 -0.382352 0
    outer loop
      vertex 139.049 20.309 -8
      vertex 139.109 20.454 -10
      vertex 139.109 20.454 -8
    endloop
  endfacet
  facet normal 0.85262 0.522532 0
    outer loop
      vertex 139.109 19.546 -10
      vertex 139.109 19.546 -8
      vertex 139.191 19.4122 -8
    endloop
  endfacet
  facet normal 0.85262 0.522532 0
    outer loop
      vertex 139.109 19.546 -10
      vertex 139.191 19.4122 -8
      vertex 139.191 19.4122 -10
    endloop
  endfacet
  facet normal 0.85262 -0.522532 0
    outer loop
      vertex 139.109 20.454 -10
      vertex 139.191 20.5878 -10
      vertex 139.109 20.454 -8
    endloop
  endfacet
  facet normal 0.85262 -0.522532 0
    outer loop
      vertex 139.109 20.454 -8
      vertex 139.191 20.5878 -10
      vertex 139.191 20.5878 -8
    endloop
  endfacet
  facet normal 0.628415 0.777878 0
    outer loop
      vertex 139.13 -0.966087 -10
      vertex 139.13 -0.966087 129.5
      vertex 139.236 -1.05172 -10
    endloop
  endfacet
  facet normal 0.628415 0.777878 -0
    outer loop
      vertex 139.13 -0.966087 129.5
      vertex 139.236 -1.05172 129.5
      vertex 139.236 -1.05172 -10
    endloop
  endfacet
  facet normal 0.628415 -0.777878 0
    outer loop
      vertex 139.13 0.966087 -10
      vertex 139.236 1.05172 -10
      vertex 139.236 1.05172 129.5
    endloop
  endfacet
  facet normal 0.628415 -0.777878 0
    outer loop
      vertex 139.13 0.966087 -10
      vertex 139.236 1.05172 129.5
      vertex 139.13 0.966087 129.5
    endloop
  endfacet
  facet normal 0.760066 0.649846 0
    outer loop
      vertex 139.191 19.4122 -10
      vertex 139.191 19.4122 -8
      vertex 139.293 19.2929 -8
    endloop
  endfacet
  facet normal 0.760066 0.649846 0
    outer loop
      vertex 139.191 19.4122 -10
      vertex 139.293 19.2929 -8
      vertex 139.293 19.2929 -10
    endloop
  endfacet
  facet normal 0.760066 -0.649846 0
    outer loop
      vertex 139.191 20.5878 -10
      vertex 139.293 20.7071 -10
      vertex 139.191 20.5878 -8
    endloop
  endfacet
  facet normal 0.760066 -0.649846 0
    outer loop
      vertex 139.191 20.5878 -8
      vertex 139.293 20.7071 -10
      vertex 139.293 20.7071 -8
    endloop
  endfacet
  facet normal 0.54504 0.83841 0
    outer loop
      vertex 139.236 -1.05172 -10
      vertex 139.236 -1.05172 129.5
      vertex 139.35 -1.12583 -10
    endloop
  endfacet
  facet normal 0.54504 0.83841 -0
    outer loop
      vertex 139.236 -1.05172 129.5
      vertex 139.35 -1.12583 129.5
      vertex 139.35 -1.12583 -10
    endloop
  endfacet
  facet normal 0.54504 -0.83841 0
    outer loop
      vertex 139.236 1.05172 -10
      vertex 139.35 1.12583 -10
      vertex 139.35 1.12583 129.5
    endloop
  endfacet
  facet normal 0.54504 -0.83841 0
    outer loop
      vertex 139.236 1.05172 -10
      vertex 139.35 1.12583 129.5
      vertex 139.236 1.05172 129.5
    endloop
  endfacet
  facet normal 0.650423 0.759572 0
    outer loop
      vertex 139.293 19.2929 -10
      vertex 139.293 19.2929 -8
      vertex 139.412 19.191 -10
    endloop
  endfacet
  facet normal 0.650423 0.759572 -0
    outer loop
      vertex 139.293 19.2929 -8
      vertex 139.412 19.191 -8
      vertex 139.412 19.191 -10
    endloop
  endfacet
  facet normal 0.650423 -0.759572 0
    outer loop
      vertex 139.293 20.7071 -10
      vertex 139.412 20.809 -10
      vertex 139.412 20.809 -8
    endloop
  endfacet
  facet normal 0.650423 -0.759572 0
    outer loop
      vertex 139.293 20.7071 -10
      vertex 139.412 20.809 -8
      vertex 139.293 20.7071 -8
    endloop
  endfacet
  facet normal 0.454735 0.890627 0
    outer loop
      vertex 139.35 -1.12583 -10
      vertex 139.35 -1.12583 129.5
      vertex 139.471 -1.18761 -10
    endloop
  endfacet
  facet normal 0.454735 0.890627 -0
    outer loop
      vertex 139.35 -1.12583 129.5
      vertex 139.471 -1.18761 129.5
      vertex 139.471 -1.18761 -10
    endloop
  endfacet
  facet normal 0.454735 -0.890627 0
    outer loop
      vertex 139.35 1.12583 -10
      vertex 139.471 1.18761 -10
      vertex 139.471 1.18761 129.5
    endloop
  endfacet
  facet normal 0.454735 -0.890627 0
    outer loop
      vertex 139.35 1.12583 -10
      vertex 139.471 1.18761 129.5
      vertex 139.35 1.12583 129.5
    endloop
  endfacet
  facet normal 0.521965 0.852967 0
    outer loop
      vertex 139.412 19.191 -10
      vertex 139.412 19.191 -8
      vertex 139.546 19.109 -10
    endloop
  endfacet
  facet normal 0.521965 0.852967 -0
    outer loop
      vertex 139.412 19.191 -8
      vertex 139.546 19.109 -8
      vertex 139.546 19.109 -10
    endloop
  endfacet
  facet normal 0.521965 -0.852967 0
    outer loop
      vertex 139.412 20.809 -10
      vertex 139.546 20.891 -10
      vertex 139.546 20.891 -8
    endloop
  endfacet
  facet normal 0.521965 -0.852967 0
    outer loop
      vertex 139.412 20.809 -10
      vertex 139.546 20.891 -8
      vertex 139.412 20.809 -8
    endloop
  endfacet
  facet normal -0.0784075 0.996921 0
    outer loop
      vertex 139.452 23.4569 -10
      vertex 139.452 23.4569 -8
      vertex 140 23.5 -10
    endloop
  endfacet
  facet normal 0 0 -1
    outer loop
      vertex 139.452 23.4569 -10
      vertex 139.844 20.9877 -10
      vertex 139.691 20.9511 -10
    endloop
  endfacet
  facet normal 0 0 -1
    outer loop
      vertex 139.452 23.4569 -10
      vertex 140 23.5 -10
      vertex 139.844 20.9877 -10
    endloop
  endfacet
  facet normal 0 0 1
    outer loop
      vertex 139.452 23.4569 -8
      vertex 139.691 20.9511 -8
      vertex 139.844 20.9877 -8
    endloop
  endfacet
  facet normal -0 0 1
    outer loop
      vertex 139.452 23.4569 -8
      vertex 139.844 20.9877 -8
      vertex 140 23.5 -8
    endloop
  endfacet
  facet normal -0.0784075 0.996921 0
    outer loop
      vertex 139.452 23.4569 -8
      vertex 140 23.5 -8
      vertex 140 23.5 -10
    endloop
  endfacet
  facet normal 0.358427 0.933558 0
    outer loop
      vertex 139.471 -1.18761 -10
      vertex 139.471 -1.18761 129.5
      vertex 139.598 -1.23637 -10
    endloop
  endfacet
  facet normal 0.358427 0.933558 -0
    outer loop
      vertex 139.471 -1.18761 129.5
      vertex 139.598 -1.23637 129.5
      vertex 139.598 -1.23637 -10
    endloop
  endfacet
  facet normal 0.358427 -0.933558 0
    outer loop
      vertex 139.471 1.18761 -10
      vertex 139.598 1.23637 -10
      vertex 139.598 1.23637 129.5
    endloop
  endfacet
  facet normal 0.358427 -0.933558 0
    outer loop
      vertex 139.471 1.18761 -10
      vertex 139.598 1.23637 129.5
      vertex 139.471 1.18761 129.5
    endloop
  endfacet
  facet normal 0.382896 0.923792 0
    outer loop
      vertex 139.546 19.109 -10
      vertex 139.546 19.109 -8
      vertex 139.691 19.0489 -10
    endloop
  endfacet
  facet normal 0.382896 0.923792 -0
    outer loop
      vertex 139.546 19.109 -8
      vertex 139.691 19.0489 -8
      vertex 139.691 19.0489 -10
    endloop
  endfacet
  facet normal 0.382896 -0.923792 0
    outer loop
      vertex 139.546 20.891 -10
      vertex 139.691 20.9511 -10
      vertex 139.691 20.9511 -8
    endloop
  endfacet
  facet normal 0.382896 -0.923792 0
    outer loop
      vertex 139.546 20.891 -10
      vertex 139.691 20.9511 -8
      vertex 139.546 20.891 -8
    endloop
  endfacet
  facet normal 0.257799 0.966198 0
    outer loop
      vertex 139.598 -1.23637 -10
      vertex 139.598 -1.23637 129.5
      vertex 139.73 -1.27159 -10
    endloop
  endfacet
  facet normal 0.257799 0.966198 -0
    outer loop
      vertex 139.598 -1.23637 129.5
      vertex 139.73 -1.27159 129.5
      vertex 139.73 -1.27159 -10
    endloop
  endfacet
  facet normal 0.257799 -0.966198 0
    outer loop
      vertex 139.598 1.23637 -10
      vertex 139.73 1.27159 -10
      vertex 139.73 1.27159 129.5
    endloop
  endfacet
  facet normal 0.257799 -0.966198 0
    outer loop
      vertex 139.598 1.23637 -10
      vertex 139.73 1.27159 129.5
      vertex 139.598 1.23637 129.5
    endloop
  endfacet
  facet normal 0.232652 0.97256 0
    outer loop
      vertex 139.691 19.0489 -10
      vertex 139.691 19.0489 -8
      vertex 139.844 19.0123 -10
    endloop
  endfacet
  facet normal 0.232652 0.97256 -0
    outer loop
      vertex 139.691 19.0489 -8
      vertex 139.844 19.0123 -8
      vertex 139.844 19.0123 -10
    endloop
  endfacet
  facet normal 0.232652 -0.97256 0
    outer loop
      vertex 139.691 20.9511 -10
      vertex 139.844 20.9877 -10
      vertex 139.844 20.9877 -8
    endloop
  endfacet
  facet normal 0.232652 -0.97256 0
    outer loop
      vertex 139.691 20.9511 -10
      vertex 139.844 20.9877 -8
      vertex 139.691 20.9511 -8
    endloop
  endfacet
  facet normal 0.156912 0.987613 0
    outer loop
      vertex 139.73 -1.27159 -10
      vertex 139.73 -1.27159 129.5
      vertex 139.864 -1.29288 -10
    endloop
  endfacet
  facet normal 0.156912 0.987613 -0
    outer loop
      vertex 139.73 -1.27159 129.5
      vertex 139.864 -1.29288 129.5
      vertex 139.864 -1.29288 -10
    endloop
  endfacet
  facet normal 0.156912 -0.987613 0
    outer loop
      vertex 139.73 1.27159 -10
      vertex 139.864 1.29288 -10
      vertex 139.864 1.29288 129.5
    endloop
  endfacet
  facet normal 0.156912 -0.987613 0
    outer loop
      vertex 139.73 1.27159 -10
      vertex 139.864 1.29288 129.5
      vertex 139.73 1.27159 129.5
    endloop
  endfacet
  facet normal 0.0786022 0.996906 0
    outer loop
      vertex 139.844 19.0123 -10
      vertex 139.844 19.0123 -8
      vertex 140 19 -10
    endloop
  endfacet
  facet normal 0.0786022 0.996906 -0
    outer loop
      vertex 139.844 19.0123 -8
      vertex 140 19 -8
      vertex 140 19 -10
    endloop
  endfacet
  facet normal 0.0786022 -0.996906 0
    outer loop
      vertex 139.844 20.9877 -10
      vertex 140 21 -10
      vertex 140 21 -8
    endloop
  endfacet
  facet normal 0.0786022 -0.996906 0
    outer loop
      vertex 139.844 20.9877 -10
      vertex 140 21 -8
      vertex 139.844 20.9877 -8
    endloop
  endfacet
  facet normal 0 0 -1
    outer loop
      vertex 139.844 20.9877 -10
      vertex 140 23.5 -10
      vertex 140 21 -10
    endloop
  endfacet
  facet normal 0 0 1
    outer loop
      vertex 139.844 20.9877 -8
      vertex 140 21 -8
      vertex 140 23.5 -8
    endloop
  endfacet
  facet normal 0.0522813 0.998632 0
    outer loop
      vertex 139.864 -1.29288 -10
      vertex 139.864 -1.29288 129.5
      vertex 140 -1.3 -10
    endloop
  endfacet
  facet normal 0.0522813 0.998632 -0
    outer loop
      vertex 139.864 -1.29288 129.5
      vertex 140 -1.3 129.5
      vertex 140 -1.3 -10
    endloop
  endfacet
  facet normal 0.0522813 -0.998632 0
    outer loop
      vertex 139.864 1.29288 -10
      vertex 140 1.3 -10
      vertex 140 1.3 129.5
    endloop
  endfacet
  facet normal 0.0522813 -0.998632 0
    outer loop
      vertex 139.864 1.29288 -10
      vertex 140 1.3 129.5
      vertex 139.864 1.29288 129.5
    endloop
  endfacet
  facet normal -0.0522813 0.998632 0
    outer loop
      vertex 140 -1.3 -10
      vertex 140 -1.3 129.5
      vertex 140.136 -1.29288 -10
    endloop
  endfacet
  facet normal -0.0522813 0.998632 0
    outer loop
      vertex 140 -1.3 129.5
      vertex 140.136 -1.29288 129.5
      vertex 140.136 -1.29288 -10
    endloop
  endfacet
  facet normal -0.0522813 -0.998632 -0
    outer loop
      vertex 140 1.3 -10
      vertex 140.136 1.29288 -10
      vertex 140.136 1.29288 129.5
    endloop
  endfacet
  facet normal -0.0522813 -0.998632 0
    outer loop
      vertex 140 1.3 -10
      vertex 140.136 1.29288 129.5
      vertex 140 1.3 129.5
    endloop
  endfacet
  facet normal -0.0786022 0.996906 0
    outer loop
      vertex 140 19 -10
      vertex 140 19 -8
      vertex 140.156 19.0123 -10
    endloop
  endfacet
  facet normal 0 0 -1
    outer loop
      vertex 140 19 -10
      vertex 140.156 19.0123 -10
      vertex 142.563 4.82716 -10
    endloop
  endfacet
  facet normal -0.0786022 0.996906 0
    outer loop
      vertex 140 19 -8
      vertex 140.156 19.0123 -8
      vertex 140.156 19.0123 -10
    endloop
  endfacet
  facet normal -0 0 1
    outer loop
      vertex 140 19 -8
      vertex 142.563 4.82716 -8
      vertex 140.156 19.0123 -8
    endloop
  endfacet
  facet normal 0 0 -1
    outer loop
      vertex 140 21 -10
      vertex 140 23.5 -10
      vertex 140.548 23.4569 -10
    endloop
  endfacet
  facet normal -0.0786022 -0.996906 -0
    outer loop
      vertex 140 21 -10
      vertex 140.156 20.9877 -10
      vertex 140.156 20.9877 -8
    endloop
  endfacet
  facet normal -0.0786022 -0.996906 0
    outer loop
      vertex 140 21 -10
      vertex 140.156 20.9877 -8
      vertex 140 21 -8
    endloop
  endfacet
  facet normal 0 0 -1
    outer loop
      vertex 140 21 -10
      vertex 140.548 23.4569 -10
      vertex 140.156 20.9877 -10
    endloop
  endfacet
  facet normal 0 0 1
    outer loop
      vertex 140 21 -8
      vertex 140.156 20.9877 -8
      vertex 140 23.5 -8
    endloop
  endfacet
  facet normal 0.0784075 0.996921 0
    outer loop
      vertex 140 23.5 -10
      vertex 140 23.5 -8
      vertex 140.548 23.4569 -10
    endloop
  endfacet
  facet normal 0 0 1
    outer loop
      vertex 140 23.5 -8
      vertex 140.156 20.9877 -8
      vertex 140.548 23.4569 -8
    endloop
  endfacet
  facet normal 0.0784075 0.996921 -0
    outer loop
      vertex 140 23.5 -8
      vertex 140.548 23.4569 -8
      vertex 140.548 23.4569 -10
    endloop
  endfacet
  facet normal -0.156912 0.987613 0
    outer loop
      vertex 140.136 -1.29288 -10
      vertex 140.136 -1.29288 129.5
      vertex 140.27 -1.27159 -10
    endloop
  endfacet
  facet normal -0.156912 0.987613 0
    outer loop
      vertex 140.136 -1.29288 129.5
      vertex 140.27 -1.27159 129.5
      vertex 140.27 -1.27159 -10
    endloop
  endfacet
  facet normal -0.156912 -0.987613 -0
    outer loop
      vertex 140.136 1.29288 -10
      vertex 140.27 1.27159 -10
      vertex 140.27 1.27159 129.5
    endloop
  endfacet
  facet normal -0.156912 -0.987613 0
    outer loop
      vertex 140.136 1.29288 -10
      vertex 140.27 1.27159 129.5
      vertex 140.136 1.29288 129.5
    endloop
  endfacet
  facet normal 0 0 -1
    outer loop
      vertex 140.136 1.29288 -10
      vertex 142.563 4.82716 -10
      vertex 140.27 1.27159 -10
    endloop
  endfacet
  facet normal -0.232652 0.97256 0
    outer loop
      vertex 140.156 19.0123 -10
      vertex 140.156 19.0123 -8
      vertex 140.309 19.0489 -10
    endloop
  endfacet
  facet normal 0 0 -1
    outer loop
      vertex 140.156 19.0123 -10
      vertex 140.309 19.0489 -10
      vertex 142.563 4.82716 -10
    endloop
  endfacet
  facet normal -0.232652 0.97256 0
    outer loop
      vertex 140.156 19.0123 -8
      vertex 140.309 19.0489 -8
      vertex 140.309 19.0489 -10
    endloop
  endfacet
  facet normal -0 0 1
    outer loop
      vertex 140.156 19.0123 -8
      vertex 142.563 4.82716 -8
      vertex 140.309 19.0489 -8
    endloop
  endfacet
  facet normal -0.232652 -0.97256 -0
    outer loop
      vertex 140.156 20.9877 -10
      vertex 140.309 20.9511 -10
      vertex 140.309 20.9511 -8
    endloop
  endfacet
  facet normal -0.232652 -0.97256 0
    outer loop
      vertex 140.156 20.9877 -10
      vertex 140.309 20.9511 -8
      vertex 140.156 20.9877 -8
    endloop
  endfacet
  facet normal 0 0 -1
    outer loop
      vertex 140.156 20.9877 -10
      vertex 140.548 23.4569 -10
      vertex 140.309 20.9511 -10
    endloop
  endfacet
  facet normal 0 0 1
    outer loop
      vertex 140.156 20.9877 -8
      vertex 140.309 20.9511 -8
      vertex 140.548 23.4569 -8
    endloop
  endfacet
  facet normal -0.257799 0.966198 0
    outer loop
      vertex 140.27 -1.27159 -10
      vertex 140.27 -1.27159 129.5
      vertex 140.402 -1.23637 -10
    endloop
  endfacet
  facet normal -0.257799 0.966198 0
    outer loop
      vertex 140.27 -1.27159 129.5
      vertex 140.402 -1.23637 129.5
      vertex 140.402 -1.23637 -10
    endloop
  endfacet
  facet normal -0.257799 -0.966198 -0
    outer loop
      vertex 140.27 1.27159 -10
      vertex 140.402 1.23637 -10
      vertex 140.402 1.23637 129.5
    endloop
  endfacet
  facet normal -0.257799 -0.966198 0
    outer loop
      vertex 140.27 1.27159 -10
      vertex 140.402 1.23637 129.5
      vertex 140.27 1.27159 129.5
    endloop
  endfacet
  facet normal 0 0 -1
    outer loop
      vertex 140.27 1.27159 -10
      vertex 142.563 4.82716 -10
      vertex 140.402 1.23637 -10
    endloop
  endfacet
  facet normal -0.382896 0.923792 0
    outer loop
      vertex 140.309 19.0489 -10
      vertex 140.309 19.0489 -8
      vertex 140.454 19.109 -10
    endloop
  endfacet
  facet normal 0 0 -1
    outer loop
      vertex 140.309 19.0489 -10
      vertex 140.454 19.109 -10
      vertex 149.862 9.90385 -10
    endloop
  endfacet
  facet normal 0 0 -1
    outer loop
      vertex 140.309 19.0489 -10
      vertex 149.862 9.90385 -10
      vertex 142.563 4.82716 -10
    endloop
  endfacet
  facet normal -0.382896 0.923792 0
    outer loop
      vertex 140.309 19.0489 -8
      vertex 140.454 19.109 -8
      vertex 140.454 19.109 -10
    endloop
  endfacet
  facet normal 0 0 1
    outer loop
      vertex 140.309 19.0489 -8
      vertex 142.563 4.82716 -8
      vertex 149.862 9.90385 -8
    endloop
  endfacet
  facet normal -0 0 1
    outer loop
      vertex 140.309 19.0489 -8
      vertex 149.862 9.90385 -8
      vertex 140.454 19.109 -8
    endloop
  endfacet
  facet normal -0.382896 -0.923792 -0
    outer loop
      vertex 140.309 20.9511 -10
      vertex 140.454 20.891 -10
      vertex 140.454 20.891 -8
    endloop
  endfacet
  facet normal -0.382896 -0.923792 0
    outer loop
      vertex 140.309 20.9511 -10
      vertex 140.454 20.891 -8
      vertex 140.309 20.9511 -8
    endloop
  endfacet
  facet normal -0 0 -1
    outer loop
      vertex 140.309 20.9511 -10
      vertex 140.548 23.4569 -10
      vertex 141.082 23.3287 -10
    endloop
  endfacet
  facet normal 0 0 -1
    outer loop
      vertex 140.309 20.9511 -10
      vertex 141.082 23.3287 -10
      vertex 140.454 20.891 -10
    endloop
  endfacet
  facet normal 0 0 1
    outer loop
      vertex 140.309 20.9511 -8
      vertex 140.454 20.891 -8
      vertex 141.082 23.3287 -8
    endloop
  endfacet
  facet normal 0 0 1
    outer loop
      vertex 140.309 20.9511 -8
      vertex 141.082 23.3287 -8
      vertex 140.548 23.4569 -8
    endloop
  endfacet
  facet normal -0.358427 0.933558 0
    outer loop
      vertex 140.402 -1.23637 -10
      vertex 140.402 -1.23637 129.5
      vertex 140.529 -1.18761 -10
    endloop
  endfacet
  facet normal 0 0 -1
    outer loop
      vertex 140.402 -1.23637 -10
      vertex 140.529 -1.18761 -10
      vertex 150 -10 -10
    endloop
  endfacet
  facet normal -0.358427 0.933558 0
    outer loop
      vertex 140.402 -1.23637 129.5
      vertex 140.529 -1.18761 129.5
      vertex 140.529 -1.18761 -10
    endloop
  endfacet
  facet normal -0 0 1
    outer loop
      vertex 140.402 -1.23637 129.5
      vertex 150 -10 129.5
      vertex 140.529 -1.18761 129.5
    endloop
  endfacet
  facet normal -0.358427 -0.933558 -0
    outer loop
      vertex 140.402 1.23637 -10
      vertex 140.529 1.18761 -10
      vertex 140.529 1.18761 129.5
    endloop
  endfacet
  facet normal -0.358427 -0.933558 0
    outer loop
      vertex 140.402 1.23637 -10
      vertex 140.529 1.18761 129.5
      vertex 140.402 1.23637 129.5
    endloop
  endfacet
  facet normal 0 0 -1
    outer loop
      vertex 140.402 1.23637 -10
      vertex 142.563 4.82716 -10
      vertex 140.529 1.18761 -10
    endloop
  endfacet
  facet normal 0 0 1
    outer loop
      vertex 140.402 1.23637 129.5
      vertex 140.529 1.18761 129.5
      vertex 150 10 129.5
    endloop
  endfacet
  facet normal -0.521965 0.852967 0
    outer loop
      vertex 140.454 19.109 -10
      vertex 140.454 19.109 -8
      vertex 140.588 19.191 -10
    endloop
  endfacet
  facet normal 0 0 -1
    outer loop
      vertex 140.454 19.109 -10
      vertex 140.588 19.191 -10
      vertex 149.862 9.90385 -10
    endloop
  endfacet
  facet normal -0.521965 0.852967 0
    outer loop
      vertex 140.454 19.109 -8
      vertex 140.588 19.191 -8
      vertex 140.588 19.191 -10
    endloop
  endfacet
  facet normal -0 0 1
    outer loop
      vertex 140.454 19.109 -8
      vertex 149.862 9.90385 -8
      vertex 140.588 19.191 -8
    endloop
  endfacet
  facet normal -0.521965 -0.852967 -0
    outer loop
      vertex 140.454 20.891 -10
      vertex 140.588 20.809 -10
      vertex 140.588 20.809 -8
    endloop
  endfacet
  facet normal -0.521965 -0.852967 0
    outer loop
      vertex 140.454 20.891 -10
      vertex 140.588 20.809 -8
      vertex 140.454 20.891 -8
    endloop
  endfacet
  facet normal -0 0 -1
    outer loop
      vertex 140.454 20.891 -10
      vertex 141.082 23.3287 -10
      vertex 141.589 23.1185 -10
    endloop
  endfacet
  facet normal 0 0 -1
    outer loop
      vertex 140.454 20.891 -10
      vertex 141.589 23.1185 -10
      vertex 140.588 20.809 -10
    endloop
  endfacet
  facet normal 0 0 1
    outer loop
      vertex 140.454 20.891 -8
      vertex 140.588 20.809 -8
      vertex 141.589 23.1185 -8
    endloop
  endfacet
  facet normal 0 0 1
    outer loop
      vertex 140.454 20.891 -8
      vertex 141.589 23.1185 -8
      vertex 141.082 23.3287 -8
    endloop
  endfacet
  facet normal -0.454735 0.890627 0
    outer loop
      vertex 140.529 -1.18761 -10
      vertex 140.529 -1.18761 129.5
      vertex 140.65 -1.12583 -10
    endloop
  endfacet
  facet normal 0 0 -1
    outer loop
      vertex 140.529 -1.18761 -10
      vertex 140.65 -1.12583 -10
      vertex 150 -10 -10
    endloop
  endfacet
  facet normal -0.454735 0.890627 0
    outer loop
      vertex 140.529 -1.18761 129.5
      vertex 140.65 -1.12583 129.5
      vertex 140.65 -1.12583 -10
    endloop
  endfacet
  facet normal -0 0 1
    outer loop
      vertex 140.529 -1.18761 129.5
      vertex 150 -10 129.5
      vertex 140.65 -1.12583 129.5
    endloop
  endfacet
  facet normal -0.454735 -0.890627 -0
    outer loop
      vertex 140.529 1.18761 -10
      vertex 140.65 1.12583 -10
      vertex 140.65 1.12583 129.5
    endloop
  endfacet
  facet normal -0.454735 -0.890627 0
    outer loop
      vertex 140.529 1.18761 -10
      vertex 140.65 1.12583 129.5
      vertex 140.529 1.18761 129.5
    endloop
  endfacet
  facet normal 0 0 -1
    outer loop
      vertex 140.529 1.18761 -10
      vertex 142.563 4.82716 -10
      vertex 140.65 1.12583 -10
    endloop
  endfacet
  facet normal 0 0 1
    outer loop
      vertex 140.529 1.18761 129.5
      vertex 140.65 1.12583 129.5
      vertex 150 10 129.5
    endloop
  endfacet
  facet normal 0.233442 0.972371 0
    outer loop
      vertex 140.548 23.4569 -10
      vertex 140.548 23.4569 -8
      vertex 141.082 23.3287 -10
    endloop
  endfacet
  facet normal 0.233442 0.972371 -0
    outer loop
      vertex 140.548 23.4569 -8
      vertex 141.082 23.3287 -8
      vertex 141.082 23.3287 -10
    endloop
  endfacet
  facet normal -0.650423 0.759572 0
    outer loop
      vertex 140.588 19.191 -10
      vertex 140.588 19.191 -8
      vertex 140.707 19.2929 -10
    endloop
  endfacet
  facet normal 0 0 -1
    outer loop
      vertex 140.588 19.191 -10
      vertex 140.707 19.2929 -10
      vertex 149.862 9.90385 -10
    endloop
  endfacet
  facet normal -0.650423 0.759572 0
    outer loop
      vertex 140.588 19.191 -8
      vertex 140.707 19.2929 -8
      vertex 140.707 19.2929 -10
    endloop
  endfacet
  facet normal -0 0 1
    outer loop
      vertex 140.588 19.191 -8
      vertex 149.862 9.90385 -8
      vertex 140.707 19.2929 -8
    endloop
  endfacet
  facet normal -0.650423 -0.759572 -0
    outer loop
      vertex 140.588 20.809 -10
      vertex 140.707 20.7071 -10
      vertex 140.707 20.7071 -8
    endloop
  endfacet
  facet normal -0.650423 -0.759572 0
    outer loop
      vertex 140.588 20.809 -10
      vertex 140.707 20.7071 -8
      vertex 140.588 20.809 -8
    endloop
  endfacet
  facet normal -0 0 -1
    outer loop
      vertex 140.588 20.809 -10
      vertex 141.589 23.1185 -10
      vertex 142.057 22.8316 -10
    endloop
  endfacet
  facet normal 0 0 -1
    outer loop
      vertex 140.588 20.809 -10
      vertex 142.057 22.8316 -10
      vertex 140.707 20.7071 -10
    endloop
  endfacet
  facet normal 0 0 1
    outer loop
      vertex 140.588 20.809 -8
      vertex 140.707 20.7071 -8
      vertex 141.589 23.1185 -8
    endloop
  endfacet
  facet normal -0.54504 0.83841 0
    outer loop
      vertex 140.65 -1.12583 -10
      vertex 140.65 -1.12583 129.5
      vertex 140.764 -1.05172 -10
    endloop
  endfacet
  facet normal 0 0 -1
    outer loop
      vertex 140.65 -1.12583 -10
      vertex 140.764 -1.05172 -10
      vertex 150 -10 -10
    endloop
  endfacet
  facet normal -0.54504 0.83841 0
    outer loop
      vertex 140.65 -1.12583 129.5
      vertex 140.764 -1.05172 129.5
      vertex 140.764 -1.05172 -10
    endloop
  endfacet
  facet normal -0 0 1
    outer loop
      vertex 140.65 -1.12583 129.5
      vertex 150 -10 129.5
      vertex 140.764 -1.05172 129.5
    endloop
  endfacet
  facet normal -0.54504 -0.83841 -0
    outer loop
      vertex 140.65 1.12583 -10
      vertex 140.764 1.05172 -10
      vertex 140.764 1.05172 129.5
    endloop
  endfacet
  facet normal -0.54504 -0.83841 0
    outer loop
      vertex 140.65 1.12583 -10
      vertex 140.764 1.05172 129.5
      vertex 140.65 1.12583 129.5
    endloop
  endfacet
  facet normal 0 0 -1
    outer loop
      vertex 140.65 1.12583 -10
      vertex 142.563 4.82716 -10
      vertex 140.764 1.05172 -10
    endloop
  endfacet
  facet normal 0 0 1
    outer loop
      vertex 140.65 1.12583 129.5
      vertex 140.764 1.05172 129.5
      vertex 150 10 129.5
    endloop
  endfacet
  facet normal -0.760066 0.649846 0
    outer loop
      vertex 140.707 19.2929 -10
      vertex 140.707 19.2929 -8
      vertex 140.809 19.4122 -8
    endloop
  endfacet
  facet normal 0 0 -1
    outer loop
      vertex 140.707 19.2929 -10
      vertex 140.809 19.4122 -10
      vertex 149.862 9.90385 -10
    endloop
  endfacet
  facet normal -0.760066 0.649846 0
    outer loop
      vertex 140.707 19.2929 -10
      vertex 140.809 19.4122 -8
      vertex 140.809 19.4122 -10
    endloop
  endfacet
  facet normal -0 0 1
    outer loop
      vertex 140.707 19.2929 -8
      vertex 149.862 9.90385 -8
      vertex 140.809 19.4122 -8
    endloop
  endfacet
  facet normal -0.760066 -0.649846 0
    outer loop
      vertex 140.707 20.7071 -10
      vertex 140.809 20.5878 -10
      vertex 140.707 20.7071 -8
    endloop
  endfacet
  facet normal -0 0 -1
    outer loop
      vertex 140.707 20.7071 -10
      vertex 142.057 22.8316 -10
      vertex 142.475 22.4749 -10
    endloop
  endfacet
  facet normal 0 0 -1
    outer loop
      vertex 140.707 20.7071 -10
      vertex 142.475 22.4749 -10
      vertex 140.809 20.5878 -10
    endloop
  endfacet
  facet normal -0.760066 -0.649846 0
    outer loop
      vertex 140.707 20.7071 -8
      vertex 140.809 20.5878 -10
      vertex 140.809 20.5878 -8
    endloop
  endfacet
  facet normal 0 0 1
    outer loop
      vertex 140.707 20.7071 -8
      vertex 140.809 20.5878 -8
      vertex 141.589 23.1185 -8
    endloop
  endfacet
  facet normal -0.628415 0.777878 0
    outer loop
      vertex 140.764 -1.05172 -10
      vertex 140.764 -1.05172 129.5
      vertex 140.87 -0.966087 -10
    endloop
  endfacet
  facet normal 0 0 -1
    outer loop
      vertex 140.764 -1.05172 -10
      vertex 140.87 -0.966087 -10
      vertex 150 -10 -10
    endloop
  endfacet
  facet normal -0.628415 0.777878 0
    outer loop
      vertex 140.764 -1.05172 129.5
      vertex 140.87 -0.966087 129.5
      vertex 140.87 -0.966087 -10
    endloop
  endfacet
  facet normal -0 0 1
    outer loop
      vertex 140.764 -1.05172 129.5
      vertex 150 -10 129.5
      vertex 140.87 -0.966087 129.5
    endloop
  endfacet
  facet normal -0.628415 -0.777878 -0
    outer loop
      vertex 140.764 1.05172 -10
      vertex 140.87 0.966087 -10
      vertex 140.87 0.966087 129.5
    endloop
  endfacet
  facet normal -0.628415 -0.777878 0
    outer loop
      vertex 140.764 1.05172 -10
      vertex 140.87 0.966087 129.5
      vertex 140.764 1.05172 129.5
    endloop
  endfacet
  facet normal 0 0 -1
    outer loop
      vertex 140.764 1.05172 -10
      vertex 142.563 4.82716 -10
      vertex 140.87 0.966087 -10
    endloop
  endfacet
  facet normal 0 0 1
    outer loop
      vertex 140.764 1.05172 129.5
      vertex 140.87 0.966087 129.5
      vertex 150 10 129.5
    endloop
  endfacet
  facet normal -0.85262 0.522532 0
    outer loop
      vertex 140.809 19.4122 -10
      vertex 140.809 19.4122 -8
      vertex 140.891 19.546 -8
    endloop
  endfacet
  facet normal 0 0 -1
    outer loop
      vertex 140.809 19.4122 -10
      vertex 140.891 19.546 -10
      vertex 143.119 21.589 -10
    endloop
  endfacet
  facet normal -0.85262 0.522532 0
    outer loop
      vertex 140.809 19.4122 -10
      vertex 140.891 19.546 -8
      vertex 140.891 19.546 -10
    endloop
  endfacet
  facet normal 0 0 -1
    outer loop
      vertex 140.809 19.4122 -10
      vertex 143.119 21.589 -10
      vertex 149.862 9.90385 -10
    endloop
  endfacet
  facet normal 0 0 1
    outer loop
      vertex 140.809 19.4122 -8
      vertex 143.119 21.589 -8
      vertex 140.891 19.546 -8
    endloop
  endfacet
  facet normal 0 0 1
    outer loop
      vertex 140.809 19.4122 -8
      vertex 149.862 9.90385 -8
      vertex 143.119 21.589 -8
    endloop
  endfacet
  facet normal -0.85262 -0.522532 0
    outer loop
      vertex 140.809 20.5878 -10
      vertex 140.891 20.454 -10
      vertex 140.809 20.5878 -8
    endloop
  endfacet
  facet normal -0 0 -1
    outer loop
      vertex 140.809 20.5878 -10
      vertex 142.475 22.4749 -10
      vertex 142.832 22.0572 -10
    endloop
  endfacet
  facet normal 0 0 -1
    outer loop
      vertex 140.809 20.5878 -10
      vertex 142.832 22.0572 -10
      vertex 140.891 20.454 -10
    endloop
  endfacet
  facet normal -0.85262 -0.522532 0
    outer loop
      vertex 140.809 20.5878 -8
      vertex 140.891 20.454 -10
      vertex 140.891 20.454 -8
    endloop
  endfacet
  facet normal 0 0 1
    outer loop
      vertex 140.809 20.5878 -8
      vertex 140.891 20.454 -8
      vertex 141.589 23.1185 -8
    endloop
  endfacet
  facet normal -0.707908 0.706304 0
    outer loop
      vertex 140.87 -0.966087 -10
      vertex 140.87 -0.966087 129.5
      vertex 140.966 -0.869869 -10
    endloop
  endfacet
  facet normal 0 0 -1
    outer loop
      vertex 140.87 -0.966087 -10
      vertex 140.966 -0.869869 -10
      vertex 150 -10 -10
    endloop
  endfacet
  facet normal -0.707908 0.706304 0
    outer loop
      vertex 140.87 -0.966087 129.5
      vertex 140.966 -0.869869 129.5
      vertex 140.966 -0.869869 -10
    endloop
  endfacet
  facet normal -0 0 1
    outer loop
      vertex 140.87 -0.966087 129.5
      vertex 150 -10 129.5
      vertex 140.966 -0.869869 129.5
    endloop
  endfacet
  facet normal -0.707908 -0.706304 -0
    outer loop
      vertex 140.87 0.966087 -10
      vertex 140.966 0.869869 -10
      vertex 140.966 0.869869 129.5
    endloop
  endfacet
  facet normal -0.707908 -0.706304 0
    outer loop
      vertex 140.87 0.966087 -10
      vertex 140.966 0.869869 129.5
      vertex 140.87 0.966087 129.5
    endloop
  endfacet
  facet normal 0 0 -1
    outer loop
      vertex 140.87 0.966087 -10
      vertex 142.563 4.82716 -10
      vertex 140.966 0.869869 -10
    endloop
  endfacet
  facet normal 0 0 1
    outer loop
      vertex 140.87 0.966087 129.5
      vertex 140.966 0.869869 129.5
      vertex 150 10 129.5
    endloop
  endfacet
  facet normal -0.924017 0.382352 0
    outer loop
      vertex 140.891 19.546 -10
      vertex 140.891 19.546 -8
      vertex 140.951 19.691 -8
    endloop
  endfacet
  facet normal 0 -0 -1
    outer loop
      vertex 140.891 19.546 -10
      vertex 140.951 19.691 -10
      vertex 143.119 21.589 -10
    endloop
  endfacet
  facet normal -0.924017 0.382352 0
    outer loop
      vertex 140.891 19.546 -10
      vertex 140.951 19.691 -8
      vertex 140.951 19.691 -10
    endloop
  endfacet
  facet normal 0 0 1
    outer loop
      vertex 140.891 19.546 -8
      vertex 143.119 21.589 -8
      vertex 140.951 19.691 -8
    endloop
  endfacet
  facet normal -0.924017 -0.382352 0
    outer loop
      vertex 140.891 20.454 -10
      vertex 140.951 20.309 -10
      vertex 140.891 20.454 -8
    endloop
  endfacet
  facet normal -0 0 -1
    outer loop
      vertex 140.891 20.454 -10
      vertex 142.832 22.0572 -10
      vertex 143.119 21.589 -10
    endloop
  endfacet
  facet normal 0 0 -1
    outer loop
      vertex 140.891 20.454 -10
      vertex 143.119 21.589 -10
      vertex 140.951 20.309 -10
    endloop
  endfacet
  facet normal -0.924017 -0.382352 0
    outer loop
      vertex 140.891 20.454 -8
      vertex 140.951 20.309 -10
      vertex 140.951 20.309 -8
    endloop
  endfacet
  facet normal 0 0 1
    outer loop
      vertex 140.891 20.454 -8
      vertex 140.951 20.309 -8
      vertex 141.589 23.1185 -8
    endloop
  endfacet
  facet normal -0.971841 0.235636 0
    outer loop
      vertex 140.951 19.691 -10
      vertex 140.951 19.691 -8
      vertex 140.988 19.8436 -8
    endloop
  endfacet
  facet normal 0 -0 -1
    outer loop
      vertex 140.951 19.691 -10
      vertex 140.988 19.8436 -10
      vertex 143.119 21.589 -10
    endloop
  endfacet
  facet normal -0.971841 0.235636 0
    outer loop
      vertex 140.951 19.691 -10
      vertex 140.988 19.8436 -8
      vertex 140.988 19.8436 -10
    endloop
  endfacet
  facet normal 0 0 1
    outer loop
      vertex 140.951 19.691 -8
      vertex 143.119 21.589 -8
      vertex 140.988 19.8436 -8
    endloop
  endfacet
  facet normal -0.971841 -0.235636 0
    outer loop
      vertex 140.951 20.309 -10
      vertex 140.988 20.1564 -10
      vertex 140.951 20.309 -8
    endloop
  endfacet
  facet normal 0 0 -1
    outer loop
      vertex 140.951 20.309 -10
      vertex 143.119 21.589 -10
      vertex 140.988 20.1564 -10
    endloop
  endfacet
  facet normal -0.971841 -0.235636 0
    outer loop
      vertex 140.951 20.309 -8
      vertex 140.988 20.1564 -10
      vertex 140.988 20.1564 -8
    endloop
  endfacet
  facet normal 0 0 1
    outer loop
      vertex 140.951 20.309 -8
      vertex 140.988 20.1564 -8
      vertex 141.589 23.1185 -8
    endloop
  endfacet
  facet normal -0.77583 0.630941 0
    outer loop
      vertex 140.966 -0.869869 -10
      vertex 140.966 -0.869869 129.5
      vertex 141.052 -0.76412 129.5
    endloop
  endfacet
  facet normal 0 0 -1
    outer loop
      vertex 140.966 -0.869869 -10
      vertex 141.052 -0.76412 -10
      vertex 150 -10 -10
    endloop
  endfacet
  facet normal -0.77583 0.630941 0
    outer loop
      vertex 140.966 -0.869869 -10
      vertex 141.052 -0.76412 129.5
      vertex 141.052 -0.76412 -10
    endloop
  endfacet
  facet normal -0 0 1
    outer loop
      vertex 140.966 -0.869869 129.5
      vertex 150 -10 129.5
      vertex 141.052 -0.76412 129.5
    endloop
  endfacet
  facet normal -0.77583 -0.630941 0
    outer loop
      vertex 140.966 0.869869 -10
      vertex 141.052 0.76412 -10
      vertex 140.966 0.869869 129.5
    endloop
  endfacet
  facet normal 0 0 -1
    outer loop
      vertex 140.966 0.869869 -10
      vertex 142.563 4.82716 -10
      vertex 141.052 0.76412 -10
    endloop
  endfacet
  facet normal -0.77583 -0.630941 0
    outer loop
      vertex 140.966 0.869869 129.5
      vertex 141.052 0.76412 -10
      vertex 141.052 0.76412 129.5
    endloop
  endfacet
  facet normal 0 0 1
    outer loop
      vertex 140.966 0.869869 129.5
      vertex 141.052 0.76412 129.5
      vertex 150 10 129.5
    endloop
  endfacet
  facet normal -0.997069 0.0765015 0
    outer loop
      vertex 140.988 19.8436 -10
      vertex 140.988 19.8436 -8
      vertex 141 20 -8
    endloop
  endfacet
  facet normal 0 -0 -1
    outer loop
      vertex 140.988 19.8436 -10
      vertex 141 20 -10
      vertex 143.119 21.589 -10
    endloop
  endfacet
  facet normal -0.997069 0.0765015 0
    outer loop
      vertex 140.988 19.8436 -10
      vertex 141 20 -8
      vertex 141 20 -10
    endloop
  endfacet
  facet normal 0 0 1
    outer loop
      vertex 140.988 19.8436 -8
      vertex 143.119 21.589 -8
      vertex 141 20 -8
    endloop
  endfacet
  facet normal -0.997069 -0.0765015 0
    outer loop
      vertex 140.988 20.1564 -10
      vertex 141 20 -10
      vertex 140.988 20.1564 -8
    endloop
  endfacet
  facet normal 0 0 -1
    outer loop
      vertex 140.988 20.1564 -10
      vertex 143.119 21.589 -10
      vertex 141 20 -10
    endloop
  endfacet
  facet normal -0.997069 -0.0765015 0
    outer loop
      vertex 140.988 20.1564 -8
      vertex 141 20 -10
      vertex 141 20 -8
    endloop
  endfacet
  facet normal 0 0 1
    outer loop
      vertex 140.988 20.1564 -8
      vertex 141 20 -8
      vertex 143.119 21.589 -8
    endloop
  endfacet
  facet normal 0 0 1
    outer loop
      vertex 140.988 20.1564 -8
      vertex 142.057 22.8316 -8
      vertex 141.589 23.1185 -8
    endloop
  endfacet
  facet normal 0 0 1
    outer loop
      vertex 140.988 20.1564 -8
      vertex 142.475 22.4749 -8
      vertex 142.057 22.8316 -8
    endloop
  endfacet
  facet normal 0 0 1
    outer loop
      vertex 140.988 20.1564 -8
      vertex 142.832 22.0572 -8
      vertex 142.475 22.4749 -8
    endloop
  endfacet
  facet normal 0 0 1
    outer loop
      vertex 140.988 20.1564 -8
      vertex 143.119 21.589 -8
      vertex 142.832 22.0572 -8
    endloop
  endfacet
  facet normal -0.839041 0.544068 0
    outer loop
      vertex 141.052 -0.76412 -10
      vertex 141.052 -0.76412 129.5
      vertex 141.126 -0.65 129.5
    endloop
  endfacet
  facet normal 0 0 -1
    outer loop
      vertex 141.052 -0.76412 -10
      vertex 141.126 -0.65 -10
      vertex 150 -10 -10
    endloop
  endfacet
  facet normal -0.839041 0.544068 0
    outer loop
      vertex 141.052 -0.76412 -10
      vertex 141.126 -0.65 129.5
      vertex 141.126 -0.65 -10
    endloop
  endfacet
  facet normal -0 0 1
    outer loop
      vertex 141.052 -0.76412 129.5
      vertex 150 -10 129.5
      vertex 141.126 -0.65 129.5
    endloop
  endfacet
  facet normal -0.839041 -0.544068 0
    outer loop
      vertex 141.052 0.76412 -10
      vertex 141.126 0.65 -10
      vertex 141.052 0.76412 129.5
    endloop
  endfacet
  facet normal 0 0 -1
    outer loop
      vertex 141.052 0.76412 -10
      vertex 142.563 4.82716 -10
      vertex 141.126 0.65 -10
    endloop
  endfacet
  facet normal -0.839041 -0.544068 0
    outer loop
      vertex 141.052 0.76412 129.5
      vertex 141.126 0.65 -10
      vertex 141.126 0.65 129.5
    endloop
  endfacet
  facet normal 0 0 1
    outer loop
      vertex 141.052 0.76412 129.5
      vertex 141.126 0.65 129.5
      vertex 150 10 129.5
    endloop
  endfacet
  facet normal 0.382985 0.923755 0
    outer loop
      vertex 141.082 23.3287 -10
      vertex 141.082 23.3287 -8
      vertex 141.589 23.1185 -10
    endloop
  endfacet
  facet normal 0.382985 0.923755 -0
    outer loop
      vertex 141.082 23.3287 -8
      vertex 141.589 23.1185 -8
      vertex 141.589 23.1185 -10
    endloop
  endfacet
  facet normal -0.890341 0.455294 0
    outer loop
      vertex 141.126 -0.65 -10
      vertex 141.126 -0.65 129.5
      vertex 141.188 -0.528757 129.5
    endloop
  endfacet
  facet normal 0 0 -1
    outer loop
      vertex 141.126 -0.65 -10
      vertex 141.188 -0.528757 -10
      vertex 150 -10 -10
    endloop
  endfacet
  facet normal -0.890341 0.455294 0
    outer loop
      vertex 141.126 -0.65 -10
      vertex 141.188 -0.528757 129.5
      vertex 141.188 -0.528757 -10
    endloop
  endfacet
  facet normal -0 0 1
    outer loop
      vertex 141.126 -0.65 129.5
      vertex 150 -10 129.5
      vertex 141.188 -0.528757 129.5
    endloop
  endfacet
  facet normal -0.890341 -0.455294 0
    outer loop
      vertex 141.126 0.65 -10
      vertex 141.188 0.528757 -10
      vertex 141.126 0.65 129.5
    endloop
  endfacet
  facet normal 0 0 -1
    outer loop
      vertex 141.126 0.65 -10
      vertex 142.563 4.82716 -10
      vertex 141.188 0.528757 -10
    endloop
  endfacet
  facet normal -0.890341 -0.455294 0
    outer loop
      vertex 141.126 0.65 129.5
      vertex 141.188 0.528757 -10
      vertex 141.188 0.528757 129.5
    endloop
  endfacet
  facet normal 0 0 1
    outer loop
      vertex 141.126 0.65 129.5
      vertex 141.188 0.528757 129.5
      vertex 150 10 129.5
    endloop
  endfacet
  facet normal -0.93545 0.353459 0
    outer loop
      vertex 141.188 -0.528757 -10
      vertex 141.188 -0.528757 129.5
      vertex 141.236 -0.401722 129.5
    endloop
  endfacet
  facet normal 0 0 -1
    outer loop
      vertex 141.188 -0.528757 -10
      vertex 141.236 -0.401722 -10
      vertex 150 -10 -10
    endloop
  endfacet
  facet normal -0.93545 0.353459 0
    outer loop
      vertex 141.188 -0.528757 -10
      vertex 141.236 -0.401722 129.5
      vertex 141.236 -0.401722 -10
    endloop
  endfacet
  facet normal -0 0 1
    outer loop
      vertex 141.188 -0.528757 129.5
      vertex 150 -10 129.5
      vertex 141.236 -0.401722 129.5
    endloop
  endfacet
  facet normal -0.93545 -0.353459 0
    outer loop
      vertex 141.188 0.528757 -10
      vertex 141.236 0.401722 -10
      vertex 141.188 0.528757 129.5
    endloop
  endfacet
  facet normal 0 0 -1
    outer loop
      vertex 141.188 0.528757 -10
      vertex 142.563 4.82716 -10
      vertex 141.236 0.401722 -10
    endloop
  endfacet
  facet normal -0.93545 -0.353459 0
    outer loop
      vertex 141.188 0.528757 129.5
      vertex 141.236 0.401722 -10
      vertex 141.236 0.401722 129.5
    endloop
  endfacet
  facet normal 0 0 1
    outer loop
      vertex 141.188 0.528757 129.5
      vertex 141.236 0.401722 129.5
      vertex 150 10 129.5
    endloop
  endfacet
  facet normal -0.964477 0.264166 0
    outer loop
      vertex 141.236 -0.401722 -10
      vertex 141.236 -0.401722 129.5
      vertex 141.272 -0.270285 129.5
    endloop
  endfacet
  facet normal 0 0 -1
    outer loop
      vertex 141.236 -0.401722 -10
      vertex 141.272 -0.270285 -10
      vertex 150 -10 -10
    endloop
  endfacet
  facet normal -0.964477 0.264166 0
    outer loop
      vertex 141.236 -0.401722 -10
      vertex 141.272 -0.270285 129.5
      vertex 141.272 -0.270285 -10
    endloop
  endfacet
  facet normal -0 0 1
    outer loop
      vertex 141.236 -0.401722 129.5
      vertex 150 -10 129.5
      vertex 141.272 -0.270285 129.5
    endloop
  endfacet
  facet normal -0.964477 -0.264166 0
    outer loop
      vertex 141.236 0.401722 -10
      vertex 141.272 0.270285 -10
      vertex 141.236 0.401722 129.5
    endloop
  endfacet
  facet normal 0 0 -1
    outer loop
      vertex 141.236 0.401722 -10
      vertex 142.563 4.82716 -10
      vertex 141.272 0.270285 -10
    endloop
  endfacet
  facet normal -0.964477 -0.264166 0
    outer loop
      vertex 141.236 0.401722 129.5
      vertex 141.272 0.270285 -10
      vertex 141.272 0.270285 129.5
    endloop
  endfacet
  facet normal 0 0 1
    outer loop
      vertex 141.236 0.401722 129.5
      vertex 141.272 0.270285 129.5
      vertex 150 10 129.5
    endloop
  endfacet
  facet normal -0.988012 0.154378 0
    outer loop
      vertex 141.272 -0.270285 -10
      vertex 141.272 -0.270285 129.5
      vertex 141.293 -0.135886 129.5
    endloop
  endfacet
  facet normal 0 0 -1
    outer loop
      vertex 141.272 -0.270285 -10
      vertex 141.293 -0.135886 -10
      vertex 150 -10 -10
    endloop
  endfacet
  facet normal -0.988012 0.154378 0
    outer loop
      vertex 141.272 -0.270285 -10
      vertex 141.293 -0.135886 129.5
      vertex 141.293 -0.135886 -10
    endloop
  endfacet
  facet normal -0 0 1
    outer loop
      vertex 141.272 -0.270285 129.5
      vertex 150 -10 129.5
      vertex 141.293 -0.135886 129.5
    endloop
  endfacet
  facet normal -0.988012 -0.154378 0
    outer loop
      vertex 141.272 0.270285 -10
      vertex 141.293 0.135886 -10
      vertex 141.272 0.270285 129.5
    endloop
  endfacet
  facet normal 0 0 -1
    outer loop
      vertex 141.272 0.270285 -10
      vertex 142.563 4.82716 -10
      vertex 141.293 0.135886 -10
    endloop
  endfacet
  facet normal -0.988012 -0.154378 0
    outer loop
      vertex 141.272 0.270285 129.5
      vertex 141.293 0.135886 -10
      vertex 141.293 0.135886 129.5
    endloop
  endfacet
  facet normal 0 0 1
    outer loop
      vertex 141.272 0.270285 129.5
      vertex 141.293 0.135886 129.5
      vertex 150 10 129.5
    endloop
  endfacet
  facet normal -0.998676 0.0514456 0
    outer loop
      vertex 141.293 -0.135886 -10
      vertex 141.293 -0.135886 129.5
      vertex 141.3 0 129.5
    endloop
  endfacet
  facet normal 0 0 -1
    outer loop
      vertex 141.293 -0.135886 -10
      vertex 141.3 0 -10
      vertex 150 -10 -10
    endloop
  endfacet
  facet normal -0.998676 0.0514456 0
    outer loop
      vertex 141.293 -0.135886 -10
      vertex 141.3 0 129.5
      vertex 141.3 0 -10
    endloop
  endfacet
  facet normal -0 0 1
    outer loop
      vertex 141.293 -0.135886 129.5
      vertex 150 -10 129.5
      vertex 141.3 0 129.5
    endloop
  endfacet
  facet normal -0.998676 -0.0514456 0
    outer loop
      vertex 141.293 0.135886 -10
      vertex 141.3 0 -10
      vertex 141.293 0.135886 129.5
    endloop
  endfacet
  facet normal 0 0 -1
    outer loop
      vertex 141.293 0.135886 -10
      vertex 142.563 4.82716 -10
      vertex 141.3 0 -10
    endloop
  endfacet
  facet normal -0.998676 -0.0514456 0
    outer loop
      vertex 141.293 0.135886 129.5
      vertex 141.3 0 -10
      vertex 141.3 0 129.5
    endloop
  endfacet
  facet normal 0 0 1
    outer loop
      vertex 141.293 0.135886 129.5
      vertex 141.3 0 129.5
      vertex 150 10 129.5
    endloop
  endfacet
  facet normal 0 0 -1
    outer loop
      vertex 141.3 0 -10
      vertex 142.563 4.82716 -10
      vertex 150 -10 -10
    endloop
  endfacet
  facet normal 0 0 1
    outer loop
      vertex 141.3 0 129.5
      vertex 150 -10 129.5
      vertex 150 10 129.5
    endloop
  endfacet
  facet normal 0.522643 0.852552 0
    outer loop
      vertex 141.589 23.1185 -10
      vertex 141.589 23.1185 -8
      vertex 142.057 22.8316 -10
    endloop
  endfacet
  facet normal 0.522643 0.852552 -0
    outer loop
      vertex 141.589 23.1185 -8
      vertex 142.057 22.8316 -8
      vertex 142.057 22.8316 -10
    endloop
  endfacet
  facet normal 0.649126 0.760681 0
    outer loop
      vertex 142.057 22.8316 -10
      vertex 142.057 22.8316 -8
      vertex 142.475 22.4749 -10
    endloop
  endfacet
  facet normal 0.649126 0.760681 -0
    outer loop
      vertex 142.057 22.8316 -8
      vertex 142.475 22.4749 -8
      vertex 142.475 22.4749 -10
    endloop
  endfacet
  facet normal 0.760181 0.649712 0
    outer loop
      vertex 142.475 22.4749 -10
      vertex 142.475 22.4749 -8
      vertex 142.832 22.0572 -8
    endloop
  endfacet
  facet normal 0.760181 0.649712 0
    outer loop
      vertex 142.475 22.4749 -10
      vertex 142.832 22.0572 -8
      vertex 142.832 22.0572 -10
    endloop
  endfacet
  facet normal 0 0 -1
    outer loop
      vertex 142.563 4.82716 -10
      vertex 149.862 9.90385 -10
      vertex 150 -10 -10
    endloop
  endfacet
  facet normal -0.570998 0.820951 -9.94381e-07
    outer loop
      vertex 142.563 4.82716 -8
      vertex 150 10 129.5
      vertex 149.862 9.90385 -8
    endloop
  endfacet
  facet normal 0.85257 0.522613 0
    outer loop
      vertex 142.832 22.0572 -10
      vertex 142.832 22.0572 -8
      vertex 143.119 21.589 -8
    endloop
  endfacet
  facet normal 0.85257 0.522613 0
    outer loop
      vertex 142.832 22.0572 -10
      vertex 143.119 21.589 -8
      vertex 143.119 21.589 -10
    endloop
  endfacet
  facet normal 0.866135 0.49981 0
    outer loop
      vertex 143.119 21.589 -10
      vertex 143.119 21.589 -8
      vertex 149.862 9.90385 -8
    endloop
  endfacet
  facet normal 0.866135 0.49981 0
    outer loop
      vertex 143.119 21.589 -10
      vertex 149.862 9.90385 -8
      vertex 149.862 9.90385 -10
    endloop
  endfacet
  facet normal -0.571665 0.820487 0
    outer loop
      vertex 149.862 9.90385 -10
      vertex 149.862 9.90385 -8
      vertex 150 10 -10
    endloop
  endfacet
  facet normal 0 0 -1
    outer loop
      vertex 149.862 9.90385 -10
      vertex 150 10 -10
      vertex 150 -10 -10
    endloop
  endfacet
  facet normal -0.571665 0.820487 0
    outer loop
      vertex 149.862 9.90385 -8
      vertex 150 10 129.5
      vertex 150 10 -10
    endloop
  endfacet
  facet normal 0 0 -1
    outer loop
      vertex 150 -10 -10
      vertex 150 10 -10
      vertex 197 10 -10
    endloop
  endfacet
  facet normal 0 -1 -0
    outer loop
      vertex 150 -10 -10
      vertex 197 -10 -10
      vertex 197 -10 129.5
    endloop
  endfacet
  facet normal 0 -1 0
    outer loop
      vertex 150 -10 -10
      vertex 197 -10 129.5
      vertex 150 -10 129.5
    endloop
  endfacet
  facet normal 0 0 -1
    outer loop
      vertex 150 -10 -10
      vertex 197 10 -10
      vertex 197 -10 -10
    endloop
  endfacet
  facet normal 0 0 1
    outer loop
      vertex 150 -10 129.5
      vertex 197 -10 129.5
      vertex 150 10 129.5
    endloop
  endfacet
  facet normal 0 1 0
    outer loop
      vertex 150 10 -10
      vertex 150 10 129.5
      vertex 197 10 -10
    endloop
  endfacet
  facet normal -0 0 1
    outer loop
      vertex 150 10 129.5
      vertex 197 -10 129.5
      vertex 197 10 129.5
    endloop
  endfacet
  facet normal 0 1 -0
    outer loop
      vertex 150 10 129.5
      vertex 197 10 129.5
      vertex 197 10 -10
    endloop
  endfacet
  facet normal 1 0 0
    outer loop
      vertex 197 -10 -10
      vertex 197 10 -10
      vertex 197 -10 129.5
    endloop
  endfacet
  facet normal 1 -0 0
    outer loop
      vertex 197 -10 129.5
      vertex 197 10 -10
      vertex 197 10 129.5
    endloop
  endfacet
endsolid model
