solid model
  facet normal 0.156416 0.987691 -0
    outer loop
      vertex -0.494427 14.9783 1.8
      vertex 0 14.9 1.8
      vertex 0 14.9 3.8147e-07
    endloop
  endfacet
  facet normal 0.156416 0.987691 0
    outer loop
      vertex -0.494427 14.9783 3.8147e-07
      vertex -0.494427 14.9783 1.8
      vertex 0 14.9 3.8147e-07
    endloop
  endfacet
  facet normal 0 0 1
    outer loop
      vertex -0.494427 18.0217 1.8
      vertex 0 18.1 1.8
      vertex -0.494427 29.1433 1.8
    endloop
  endfacet
  facet normal 0 0 -1
    outer loop
      vertex -0.494427 18.0217 3.8147e-07
      vertex -0.494427 29.1433 3.8147e-07
      vertex 0 29.065 3.8147e-07
    endloop
  endfacet
  facet normal 0.156416 -0.987691 0
    outer loop
      vertex -0.494427 18.0217 3.8147e-07
      vertex 0 18.1 1.8
      vertex -0.494427 18.0217 1.8
    endloop
  endfacet
  facet normal 0.156416 -0.987691 0
    outer loop
      vertex -0.494427 18.0217 3.8147e-07
      vertex 0 18.1 3.8147e-07
      vertex 0 18.1 1.8
    endloop
  endfacet
  facet normal 0 0 -1
    outer loop
      vertex -0.494427 18.0217 3.8147e-07
      vertex 0 29.065 3.8147e-07
      vertex 0 18.1 3.8147e-07
    endloop
  endfacet
  facet normal 0 0 1
    outer loop
      vertex -0.494427 29.1433 1.8
      vertex 0 18.1 1.8
      vertex 0 29.065 1.8
    endloop
  endfacet
  facet normal 0.156416 0.987691 -0
    outer loop
      vertex -0.494427 29.1433 1.8
      vertex 0 29.065 1.8
      vertex 0 29.065 3.8147e-07
    endloop
  endfacet
  facet normal 0.156416 0.987691 0
    outer loop
      vertex -0.494427 29.1433 3.8147e-07
      vertex -0.494427 29.1433 1.8
      vertex 0 29.065 3.8147e-07
    endloop
  endfacet
  facet normal 0.156416 -0.987691 0
    outer loop
      vertex -0.494427 32.1867 3.8147e-07
      vertex 0 32.265 1.8
      vertex -0.494427 32.1867 1.8
    endloop
  endfacet
  facet normal 0.156416 -0.987691 0
    outer loop
      vertex -0.494427 32.1867 3.8147e-07
      vertex 0 32.265 3.8147e-07
      vertex 0 32.265 1.8
    endloop
  endfacet
  facet normal -1 -0 0
    outer loop
      vertex -0.512863 3 1.3
      vertex -0.512863 3 1.8
      vertex -0.512863 4.08159 1.8
    endloop
  endfacet
  facet normal -1 0 0
    outer loop
      vertex -0.512863 3 1.3
      vertex -0.512863 4.08159 1.8
      vertex -0.512863 4.08159 1.3
    endloop
  endfacet
  facet normal 0 0 1
    outer loop
      vertex -0.512863 3 1.8
      vertex 0.158493 4.08159 1.8
      vertex -0.512863 4.08159 1.8
    endloop
  endfacet
  facet normal 0 0 1
    outer loop
      vertex -0.512863 3 1.8
      vertex 0.629333 3.83504 1.8
      vertex 0.158493 4.08159 1.8
    endloop
  endfacet
  facet normal 0 0 1
    outer loop
      vertex -0.512863 3 1.8
      vertex 0.800568 3.51237 1.8
      vertex 0.629333 3.83504 1.8
    endloop
  endfacet
  facet normal 0 0 1
    outer loop
      vertex -0.512863 3 1.8
      vertex 1.04977 3.2594 1.8
      vertex 0.800568 3.51237 1.8
    endloop
  endfacet
  facet normal 0 0 1
    outer loop
      vertex -0.512863 3 1.8
      vertex 1.37056 3.07762 1.8
      vertex 1.04977 3.2594 1.8
    endloop
  endfacet
  facet normal -0 0 1
    outer loop
      vertex -0.512863 3 1.8
      vertex 1.75653 2.96857 1.8
      vertex 1.37056 3.07762 1.8
    endloop
  endfacet
  facet normal 0 0 1
    outer loop
      vertex -0.512863 3 1.8
      vertex 12 0 1.8
      vertex 2.20767 2.93221 1.8
    endloop
  endfacet
  facet normal 0 0 1
    outer loop
      vertex -0.512863 3 1.8
      vertex 2.20767 2.93221 1.8
      vertex 1.75653 2.96857 1.8
    endloop
  endfacet
  facet normal 0 1 0
    outer loop
      vertex -0.512863 4.08159 1.3
      vertex -0.512863 4.08159 1.8
      vertex 0.158493 4.08159 1.3
    endloop
  endfacet
  facet normal 0 0 1
    outer loop
      vertex -0.512863 4.08159 1.3
      vertex 0.158493 4.08159 1.3
      vertex -0.512863 4.5631 1.3
    endloop
  endfacet
  facet normal 0 1 -0
    outer loop
      vertex -0.512863 4.08159 1.8
      vertex 0.158493 4.08159 1.8
      vertex 0.158493 4.08159 1.3
    endloop
  endfacet
  facet normal -1 -0 0
    outer loop
      vertex -0.512863 4.5631 1.3
      vertex -0.512863 4.5631 1.8
      vertex -0.512863 7.77739 1.8
    endloop
  endfacet
  facet normal -1 0 0
    outer loop
      vertex -0.512863 4.5631 1.3
      vertex -0.512863 7.77739 1.8
      vertex -0.512863 7.77739 1.3
    endloop
  endfacet
  facet normal -0 0 1
    outer loop
      vertex -0.512863 4.5631 1.3
      vertex 0.158493 4.08159 1.3
      vertex 0.158493 4.5631 1.3
    endloop
  endfacet
  facet normal 0 -1 -0
    outer loop
      vertex -0.512863 4.5631 1.3
      vertex 0.158493 4.5631 1.3
      vertex 0.158493 4.5631 1.8
    endloop
  endfacet
  facet normal 0 -1 0
    outer loop
      vertex -0.512863 4.5631 1.3
      vertex 0.158493 4.5631 1.8
      vertex -0.512863 4.5631 1.8
    endloop
  endfacet
  facet normal 0 0 1
    outer loop
      vertex -0.512863 4.5631 1.8
      vertex 0.158493 4.5631 1.8
      vertex 0.617477 6.60425 1.8
    endloop
  endfacet
  facet normal 0 0 1
    outer loop
      vertex -0.512863 4.5631 1.8
      vertex 0.617477 6.60425 1.8
      vertex -0.512863 7.77739 1.8
    endloop
  endfacet
  facet normal 0 0 1
    outer loop
      vertex -0.512863 7.77739 1.8
      vertex 0 14.9 1.8
      vertex -0.494427 14.9783 1.8
    endloop
  endfacet
  facet normal 0 0 1
    outer loop
      vertex -0.512863 7.77739 1.8
      vertex 0.617477 6.60425 1.8
      vertex 0.70166 6.96664 1.8
    endloop
  endfacet
  facet normal 0 0 1
    outer loop
      vertex -0.512863 7.77739 1.8
      vertex 0.70166 6.96664 1.8
      vertex 0.863846 7.2718 1.8
    endloop
  endfacet
  facet normal 0 0 1
    outer loop
      vertex -0.512863 7.77739 1.8
      vertex 0.863846 7.2718 1.8
      vertex 1.10402 7.5197 1.8
    endloop
  endfacet
  facet normal 0 0 1
    outer loop
      vertex -0.512863 7.77739 1.8
      vertex 1.10402 7.5197 1.8
      vertex 1.40974 7.70241 1.8
    endloop
  endfacet
  facet normal 0 0 1
    outer loop
      vertex -0.512863 7.77739 1.8
      vertex 1.40974 7.70241 1.8
      vertex 1.76859 7.81204 1.8
    endloop
  endfacet
  facet normal 0 0 1
    outer loop
      vertex -0.512863 7.77739 1.8
      vertex 1.76859 7.81204 1.8
      vertex 0 14.9 1.8
    endloop
  endfacet
  facet normal 0.454049 0.890977 -0
    outer loop
      vertex -0.940456 15.2056 1.8
      vertex -0.494427 14.9783 1.8
      vertex -0.494427 14.9783 3.8147e-07
    endloop
  endfacet
  facet normal 0.454049 0.890977 0
    outer loop
      vertex -0.940456 15.2056 3.8147e-07
      vertex -0.940456 15.2056 1.8
      vertex -0.494427 14.9783 3.8147e-07
    endloop
  endfacet
  facet normal 0 0 1
    outer loop
      vertex -0.940456 17.7944 1.8
      vertex -0.494427 18.0217 1.8
      vertex -0.940456 29.3706 1.8
    endloop
  endfacet
  facet normal 0.454049 -0.890977 0
    outer loop
      vertex -0.940456 17.7944 3.8147e-07
      vertex -0.494427 18.0217 1.8
      vertex -0.940456 17.7944 1.8
    endloop
  endfacet
  facet normal 0.454049 -0.890977 0
    outer loop
      vertex -0.940456 17.7944 3.8147e-07
      vertex -0.494427 18.0217 3.8147e-07
      vertex -0.494427 18.0217 1.8
    endloop
  endfacet
  facet normal 0 0 -1
    outer loop
      vertex -0.940456 17.7944 3.8147e-07
      vertex -0.494427 29.1433 3.8147e-07
      vertex -0.494427 18.0217 3.8147e-07
    endloop
  endfacet
  facet normal 0 0 -1
    outer loop
      vertex -0.940456 17.7944 3.8147e-07
      vertex -0.940456 29.3706 3.8147e-07
      vertex -0.494427 29.1433 3.8147e-07
    endloop
  endfacet
  facet normal 0 0 1
    outer loop
      vertex -0.940456 29.3706 1.8
      vertex -0.494427 18.0217 1.8
      vertex -0.494427 29.1433 1.8
    endloop
  endfacet
  facet normal 0.454049 0.890977 -0
    outer loop
      vertex -0.940456 29.3706 1.8
      vertex -0.494427 29.1433 1.8
      vertex -0.494427 29.1433 3.8147e-07
    endloop
  endfacet
  facet normal 0.454049 0.890977 0
    outer loop
      vertex -0.940456 29.3706 3.8147e-07
      vertex -0.940456 29.3706 1.8
      vertex -0.494427 29.1433 3.8147e-07
    endloop
  endfacet
  facet normal 0.454049 -0.890977 0
    outer loop
      vertex -0.940456 31.9594 3.8147e-07
      vertex -0.494427 32.1867 1.8
      vertex -0.940456 31.9594 1.8
    endloop
  endfacet
  facet normal 0.454049 -0.890977 0
    outer loop
      vertex -0.940456 31.9594 3.8147e-07
      vertex -0.494427 32.1867 3.8147e-07
      vertex -0.494427 32.1867 1.8
    endloop
  endfacet
  facet normal 0 0 1
    outer loop
      vertex -1.08926 3 1.3
      vertex -0.512863 3 1.3
      vertex -1.08926 4.08159 1.3
    endloop
  endfacet
  facet normal 0 1 0
    outer loop
      vertex -1.08926 3 1.3
      vertex -1.08926 3 1.8
      vertex -0.512863 3 1.3
    endloop
  endfacet
  facet normal 1 0 0
    outer loop
      vertex -1.08926 3 1.3
      vertex -1.08926 4.08159 1.3
      vertex -1.08926 3 1.8
    endloop
  endfacet
  facet normal 0 1 -0
    outer loop
      vertex -1.08926 3 1.8
      vertex -0.512863 3 1.8
      vertex -0.512863 3 1.3
    endloop
  endfacet
  facet normal 1 -0 0
    outer loop
      vertex -1.08926 3 1.8
      vertex -1.08926 4.08159 1.3
      vertex -1.08926 4.08159 1.8
    endloop
  endfacet
  facet normal 0 0 1
    outer loop
      vertex -1.08926 4.08159 1.3
      vertex -0.512863 3 1.3
      vertex -0.512863 4.08159 1.3
    endloop
  endfacet
  facet normal 0 0 1
    outer loop
      vertex -1.08926 4.08159 1.3
      vertex -0.512863 4.08159 1.3
      vertex -1.08926 4.5631 1.3
    endloop
  endfacet
  facet normal 0 0 1
    outer loop
      vertex -1.08926 4.5631 1.3
      vertex -0.512863 4.08159 1.3
      vertex -0.512863 4.5631 1.3
    endloop
  endfacet
  facet normal 0 0 1
    outer loop
      vertex -1.08926 4.5631 1.3
      vertex -0.512863 4.5631 1.3
      vertex -1.08926 7.0891 1.3
    endloop
  endfacet
  facet normal 1 0 0
    outer loop
      vertex -1.08926 4.5631 1.3
      vertex -1.08926 7.0891 1.3
      vertex -1.08926 4.5631 1.8
    endloop
  endfacet
  facet normal 1 -0 0
    outer loop
      vertex -1.08926 4.5631 1.8
      vertex -1.08926 7.0891 1.3
      vertex -1.08926 7.0891 1.8
    endloop
  endfacet
  facet normal -0 0 1
    outer loop
      vertex -1.08926 7.0891 1.3
      vertex -0.512863 4.5631 1.3
      vertex -0.512863 7.77739 1.3
    endloop
  endfacet
  facet normal -0.905912 0.423466 0
    outer loop
      vertex -1.10283 7.06007 1.3
      vertex -1.08926 7.0891 1.8
      vertex -1.08926 7.0891 1.3
    endloop
  endfacet
  facet normal -0.905912 0.423466 0
    outer loop
      vertex -1.10283 7.06007 1.3
      vertex -1.10283 7.06007 1.8
      vertex -1.08926 7.0891 1.8
    endloop
  endfacet
  facet normal -0 0 1
    outer loop
      vertex -1.10283 7.06007 1.8
      vertex -1.08926 4.5631 1.8
      vertex -1.08926 7.0891 1.8
    endloop
  endfacet
  facet normal -0.884132 0.467236 0
    outer loop
      vertex -1.13448 7.00018 1.3
      vertex -1.10283 7.06007 1.8
      vertex -1.10283 7.06007 1.3
    endloop
  endfacet
  facet normal -0.884132 0.467236 0
    outer loop
      vertex -1.13448 7.00018 1.3
      vertex -1.13448 7.00018 1.8
      vertex -1.10283 7.06007 1.8
    endloop
  endfacet
  facet normal -0 0 1
    outer loop
      vertex -1.13448 7.00018 1.8
      vertex -1.08926 4.5631 1.8
      vertex -1.10283 7.06007 1.8
    endloop
  endfacet
  facet normal 0 -1 -0
    outer loop
      vertex -1.1537 7.77739 1.3
      vertex -0.512863 7.77739 1.3
      vertex -0.512863 7.77739 1.8
    endloop
  endfacet
  facet normal 0 -1 0
    outer loop
      vertex -1.1537 7.77739 1.3
      vertex -0.512863 7.77739 1.8
      vertex -1.1537 7.77739 1.8
    endloop
  endfacet
  facet normal -0 0 1
    outer loop
      vertex -1.1537 7.77739 1.3
      vertex -1.08926 7.0891 1.3
      vertex -0.512863 7.77739 1.3
    endloop
  endfacet
  facet normal 0 0 1
    outer loop
      vertex -1.1537 7.77739 1.3
      vertex -1.10283 7.06007 1.3
      vertex -1.08926 7.0891 1.3
    endloop
  endfacet
  facet normal 0 0 1
    outer loop
      vertex -1.1537 7.77739 1.3
      vertex -1.13448 7.00018 1.3
      vertex -1.10283 7.06007 1.3
    endloop
  endfacet
  facet normal 0 0 1
    outer loop
      vertex -1.1537 7.77739 1.8
      vertex -0.494427 14.9783 1.8
      vertex -0.940456 15.2056 1.8
    endloop
  endfacet
  facet normal 0 0 1
    outer loop
      vertex -1.1537 7.77739 1.8
      vertex -0.512863 7.77739 1.8
      vertex -0.494427 14.9783 1.8
    endloop
  endfacet
  facet normal 0 0 1
    outer loop
      vertex -1.1842 6.90939 1.3
      vertex -1.13448 7.00018 1.3
      vertex -1.1537 7.77739 1.3
    endloop
  endfacet
  facet normal -0.877089 0.480327 0
    outer loop
      vertex -1.1842 6.90939 1.3
      vertex -1.13448 7.00018 1.8
      vertex -1.13448 7.00018 1.3
    endloop
  endfacet
  facet normal -0.877089 0.480327 0
    outer loop
      vertex -1.1842 6.90939 1.3
      vertex -1.1842 6.90939 1.8
      vertex -1.13448 7.00018 1.8
    endloop
  endfacet
  facet normal -0 0 1
    outer loop
      vertex -1.1842 6.90939 1.8
      vertex -1.08926 4.5631 1.8
      vertex -1.13448 7.00018 1.8
    endloop
  endfacet
  facet normal 0 0 1
    outer loop
      vertex -1.23808 6.81371 1.3
      vertex -1.1842 6.90939 1.3
      vertex -1.1537 7.77739 1.3
    endloop
  endfacet
  facet normal -0.871342 0.490676 0
    outer loop
      vertex -1.23808 6.81371 1.3
      vertex -1.1842 6.90939 1.8
      vertex -1.1842 6.90939 1.3
    endloop
  endfacet
  facet normal -0.871342 0.490676 0
    outer loop
      vertex -1.23808 6.81371 1.3
      vertex -1.23808 6.81371 1.8
      vertex -1.1842 6.90939 1.8
    endloop
  endfacet
  facet normal -0 0 1
    outer loop
      vertex -1.23808 6.81371 1.8
      vertex -1.08926 4.5631 1.8
      vertex -1.1842 6.90939 1.8
    endloop
  endfacet
  facet normal 0 0 1
    outer loop
      vertex -1.28217 6.73911 1.3
      vertex -1.23808 6.81371 1.3
      vertex -1.1537 7.77739 1.3
    endloop
  endfacet
  facet normal -0.860885 0.508799 0
    outer loop
      vertex -1.28217 6.73911 1.3
      vertex -1.23808 6.81371 1.8
      vertex -1.23808 6.81371 1.3
    endloop
  endfacet
  facet normal -0.860885 0.508799 0
    outer loop
      vertex -1.28217 6.73911 1.3
      vertex -1.28217 6.73911 1.8
      vertex -1.23808 6.81371 1.8
    endloop
  endfacet
  facet normal -0 0 1
    outer loop
      vertex -1.28217 6.73911 1.8
      vertex -1.08926 4.5631 1.8
      vertex -1.23808 6.81371 1.8
    endloop
  endfacet
  facet normal 0 0 1
    outer loop
      vertex -1.29443 15.5595 1.8
      vertex -1.1537 7.77739 1.8
      vertex -0.940456 15.2056 1.8
    endloop
  endfacet
  facet normal 0.707033 0.707181 0
    outer loop
      vertex -1.29443 15.5595 3.8147e-07
      vertex -0.940456 15.2056 1.8
      vertex -0.940456 15.2056 3.8147e-07
    endloop
  endfacet
  facet normal 0.707033 0.707181 0
    outer loop
      vertex -1.29443 15.5595 3.8147e-07
      vertex -1.29443 15.5595 1.8
      vertex -0.940456 15.2056 1.8
    endloop
  endfacet
  facet normal 0.707033 -0.707181 0
    outer loop
      vertex -1.29443 17.4405 1.8
      vertex -0.940456 17.7944 3.8147e-07
      vertex -0.940456 17.7944 1.8
    endloop
  endfacet
  facet normal 0.707033 -0.707181 0
    outer loop
      vertex -1.29443 17.4405 3.8147e-07
      vertex -0.940456 17.7944 3.8147e-07
      vertex -1.29443 17.4405 1.8
    endloop
  endfacet
  facet normal 0.707033 0.707181 -0
    outer loop
      vertex -1.29443 29.7245 1.8
      vertex -0.940456 29.3706 1.8
      vertex -0.940456 29.3706 3.8147e-07
    endloop
  endfacet
  facet normal 0.707033 0.707181 0
    outer loop
      vertex -1.29443 29.7245 3.8147e-07
      vertex -1.29443 29.7245 1.8
      vertex -0.940456 29.3706 3.8147e-07
    endloop
  endfacet
  facet normal 0.707033 -0.707181 0
    outer loop
      vertex -1.29443 31.6055 1.8
      vertex -0.940456 31.9594 3.8147e-07
      vertex -0.940456 31.9594 1.8
    endloop
  endfacet
  facet normal 0.707033 -0.707181 0
    outer loop
      vertex -1.29443 31.6055 3.8147e-07
      vertex -0.940456 31.9594 3.8147e-07
      vertex -1.29443 31.6055 1.8
    endloop
  endfacet
  facet normal 0 0 1
    outer loop
      vertex -1.31645 6.68559 1.3
      vertex -1.28217 6.73911 1.3
      vertex -1.1537 7.77739 1.3
    endloop
  endfacet
  facet normal -0.842077 0.539357 0
    outer loop
      vertex -1.31645 6.68559 1.3
      vertex -1.28217 6.73911 1.8
      vertex -1.28217 6.73911 1.3
    endloop
  endfacet
  facet normal -0.842077 0.539357 0
    outer loop
      vertex -1.31645 6.68559 1.3
      vertex -1.31645 6.68559 1.8
      vertex -1.28217 6.73911 1.8
    endloop
  endfacet
  facet normal -0 0 1
    outer loop
      vertex -1.31645 6.68559 1.8
      vertex -1.08926 4.5631 1.8
      vertex -1.28217 6.73911 1.8
    endloop
  endfacet
  facet normal 0.891038 0.453928 0
    outer loop
      vertex -1.52169 16.0056 3.8147e-07
      vertex -1.29443 15.5595 1.8
      vertex -1.29443 15.5595 3.8147e-07
    endloop
  endfacet
  facet normal 0.891038 0.453928 0
    outer loop
      vertex -1.52169 16.0056 3.8147e-07
      vertex -1.52169 16.0056 1.8
      vertex -1.29443 15.5595 1.8
    endloop
  endfacet
  facet normal 0.891038 -0.453928 0
    outer loop
      vertex -1.52169 16.9944 1.8
      vertex -1.29443 17.4405 3.8147e-07
      vertex -1.29443 17.4405 1.8
    endloop
  endfacet
  facet normal 0.891038 -0.453928 0
    outer loop
      vertex -1.52169 16.9944 3.8147e-07
      vertex -1.29443 17.4405 3.8147e-07
      vertex -1.52169 16.9944 1.8
    endloop
  endfacet
  facet normal 0.891038 0.453928 0
    outer loop
      vertex -1.52169 30.1706 3.8147e-07
      vertex -1.29443 29.7245 1.8
      vertex -1.29443 29.7245 3.8147e-07
    endloop
  endfacet
  facet normal 0.891038 0.453928 0
    outer loop
      vertex -1.52169 30.1706 3.8147e-07
      vertex -1.52169 30.1706 1.8
      vertex -1.29443 29.7245 1.8
    endloop
  endfacet
  facet normal 0.891038 -0.453928 0
    outer loop
      vertex -1.52169 31.1594 1.8
      vertex -1.29443 31.6055 3.8147e-07
      vertex -1.29443 31.6055 1.8
    endloop
  endfacet
  facet normal 0.891038 -0.453928 0
    outer loop
      vertex -1.52169 31.1594 3.8147e-07
      vertex -1.29443 31.6055 3.8147e-07
      vertex -1.52169 31.1594 1.8
    endloop
  endfacet
  facet normal 0.987687 -0.156444 0
    outer loop
      vertex -1.6 16.5 1.8
      vertex -1.52169 16.9944 3.8147e-07
      vertex -1.52169 16.9944 1.8
    endloop
  endfacet
  facet normal 0.987687 0.156444 0
    outer loop
      vertex -1.6 16.5 3.8147e-07
      vertex -1.52169 16.0056 1.8
      vertex -1.52169 16.0056 3.8147e-07
    endloop
  endfacet
  facet normal 0.987687 -0.156444 0
    outer loop
      vertex -1.6 16.5 3.8147e-07
      vertex -1.52169 16.9944 3.8147e-07
      vertex -1.6 16.5 1.8
    endloop
  endfacet
  facet normal 0.987687 0.156444 0
    outer loop
      vertex -1.6 16.5 3.8147e-07
      vertex -1.6 16.5 1.8
      vertex -1.52169 16.0056 1.8
    endloop
  endfacet
  facet normal 0.987687 -0.156444 0
    outer loop
      vertex -1.6 30.665 1.8
      vertex -1.52169 31.1594 3.8147e-07
      vertex -1.52169 31.1594 1.8
    endloop
  endfacet
  facet normal 0.987687 0.156444 0
    outer loop
      vertex -1.6 30.665 3.8147e-07
      vertex -1.52169 30.1706 1.8
      vertex -1.52169 30.1706 3.8147e-07
    endloop
  endfacet
  facet normal 0.987687 -0.156444 0
    outer loop
      vertex -1.6 30.665 3.8147e-07
      vertex -1.52169 31.1594 3.8147e-07
      vertex -1.6 30.665 1.8
    endloop
  endfacet
  facet normal 0.987687 0.156444 0
    outer loop
      vertex -1.6 30.665 3.8147e-07
      vertex -1.6 30.665 1.8
      vertex -1.52169 30.1706 1.8
    endloop
  endfacet
  facet normal 0 0 1
    outer loop
      vertex -11.7874 2.24858 1.8
      vertex -3.34065 4.08159 1.8
      vertex -3.34065 4.55629 1.8
    endloop
  endfacet
  facet normal 0 0 1
    outer loop
      vertex -11.7874 2.24858 1.8
      vertex -3.34065 4.55629 1.8
      vertex -8.5 17.7062 1.8
    endloop
  endfacet
  facet normal -0 0 -1
    outer loop
      vertex -11.7874 2.24858 3.8147e-07
      vertex -0.494427 14.9783 3.8147e-07
      vertex 0 14.9 3.8147e-07
    endloop
  endfacet
  facet normal -0 0 -1
    outer loop
      vertex -11.7874 2.24858 3.8147e-07
      vertex -0.940456 15.2056 3.8147e-07
      vertex -0.494427 14.9783 3.8147e-07
    endloop
  endfacet
  facet normal -0 0 -1
    outer loop
      vertex -11.7874 2.24858 3.8147e-07
      vertex -1.29443 15.5595 3.8147e-07
      vertex -0.940456 15.2056 3.8147e-07
    endloop
  endfacet
  facet normal -0.978125 0.20802 0
    outer loop
      vertex -11.7874 2.24858 3.8147e-07
      vertex -11.7874 2.24858 1.8
      vertex -8.5 17.7062 1.8
    endloop
  endfacet
  facet normal -0.978125 0.20802 0
    outer loop
      vertex -11.7874 2.24858 3.8147e-07
      vertex -8.5 17.7062 1.8
      vertex -8.5 17.7062 3.8147e-07
    endloop
  endfacet
  facet normal -0 0 -1
    outer loop
      vertex -11.7874 2.24858 3.8147e-07
      vertex -8.5 17.7062 3.8147e-07
      vertex -1.29443 15.5595 3.8147e-07
    endloop
  endfacet
  facet normal 0 0 -1
    outer loop
      vertex -11.7874 2.24858 3.8147e-07
      vertex 0 14.9 3.8147e-07
      vertex 11.7874 2.24858 3.8147e-07
    endloop
  endfacet
  facet normal 0 0 -1
    outer loop
      vertex -11.7874 2.24858 3.8147e-07
      vertex 11.7874 2.24858 3.8147e-07
      vertex 12 0 3.8147e-07
    endloop
  endfacet
  facet normal 0 0 1
    outer loop
      vertex -11.9054 1.504 1.8
      vertex -3.34065 4.08159 1.8
      vertex -11.7874 2.24858 1.8
    endloop
  endfacet
  facet normal -0.987674 0.156525 0
    outer loop
      vertex -11.9054 1.504 3.8147e-07
      vertex -11.7874 2.24858 1.8
      vertex -11.7874 2.24858 3.8147e-07
    endloop
  endfacet
  facet normal 0 0 -1
    outer loop
      vertex -11.9054 1.504 3.8147e-07
      vertex -11.7874 2.24858 3.8147e-07
      vertex 12 0 3.8147e-07
    endloop
  endfacet
  facet normal -0.987674 0.156525 0
    outer loop
      vertex -11.9054 1.504 3.8147e-07
      vertex -11.9054 1.504 1.8
      vertex -11.7874 2.24858 1.8
    endloop
  endfacet
  facet normal 0 0 1
    outer loop
      vertex -11.9763 0.753486 1.8
      vertex -3.34065 4.08159 1.8
      vertex -11.9054 1.504 1.8
    endloop
  endfacet
  facet normal -0.995567 0.0940499 0
    outer loop
      vertex -11.9763 0.753486 3.8147e-07
      vertex -11.9054 1.504 1.8
      vertex -11.9054 1.504 3.8147e-07
    endloop
  endfacet
  facet normal 0 0 -1
    outer loop
      vertex -11.9763 0.753486 3.8147e-07
      vertex -11.9054 1.504 3.8147e-07
      vertex 12 0 3.8147e-07
    endloop
  endfacet
  facet normal -0.995567 0.0940499 0
    outer loop
      vertex -11.9763 0.753486 3.8147e-07
      vertex -11.9763 0.753486 1.8
      vertex -11.9054 1.504 1.8
    endloop
  endfacet
  facet normal 0 0 1
    outer loop
      vertex -12 0 1.8
      vertex -0.512863 3 1.8
      vertex -1.08926 3 1.8
    endloop
  endfacet
  facet normal 0 0 1
    outer loop
      vertex -12 0 1.8
      vertex -1.08926 3 1.8
      vertex -3.34065 4.08159 1.8
    endloop
  endfacet
  facet normal 0 0 1
    outer loop
      vertex -12 0 1.8
      vertex -3.34065 4.08159 1.8
      vertex -11.9763 0.753486 1.8
    endloop
  endfacet
  facet normal 0 0 1
    outer loop
      vertex -12 0 1.8
      vertex 12 0 1.8
      vertex -0.512863 3 1.8
    endloop
  endfacet
  facet normal -0.999506 0.0314383 0
    outer loop
      vertex -12 0 3.8147e-07
      vertex -11.9763 0.753486 1.8
      vertex -11.9763 0.753486 3.8147e-07
    endloop
  endfacet
  facet normal 0 -0 -1
    outer loop
      vertex -12 0 3.8147e-07
      vertex -11.9763 0.753486 3.8147e-07
      vertex 12 0 3.8147e-07
    endloop
  endfacet
  facet normal -0.999506 0.0314383 0
    outer loop
      vertex -12 0 3.8147e-07
      vertex -12 0 1.8
      vertex -11.9763 0.753486 1.8
    endloop
  endfacet
  facet normal 0 -1 0
    outer loop
      vertex -12 0 3.8147e-07
      vertex 12 0 1.8
      vertex -12 0 1.8
    endloop
  endfacet
  facet normal 0 -1 -0
    outer loop
      vertex -12 0 3.8147e-07
      vertex 12 0 3.8147e-07
      vertex 12 0 1.8
    endloop
  endfacet
  facet normal -0.827477 0.561499 0
    outer loop
      vertex -2.54045 4.88179 1.3
      vertex -1.31645 6.68559 1.8
      vertex -1.31645 6.68559 1.3
    endloop
  endfacet
  facet normal -0.827477 0.561499 0
    outer loop
      vertex -2.54045 4.88179 1.3
      vertex -2.54045 4.88179 1.8
      vertex -1.31645 6.68559 1.8
    endloop
  endfacet
  facet normal -0 0 1
    outer loop
      vertex -2.54045 4.88179 1.8
      vertex -1.08926 4.5631 1.8
      vertex -1.31645 6.68559 1.8
    endloop
  endfacet
  facet normal -0.807759 0.589513 0
    outer loop
      vertex -2.72356 4.63089 1.3
      vertex -2.54045 4.88179 1.8
      vertex -2.54045 4.88179 1.3
    endloop
  endfacet
  facet normal -0.807759 0.589513 0
    outer loop
      vertex -2.72356 4.63089 1.3
      vertex -2.72356 4.63089 1.8
      vertex -2.54045 4.88179 1.8
    endloop
  endfacet
  facet normal -0 0 1
    outer loop
      vertex -2.72356 4.63089 1.8
      vertex -1.08926 4.5631 1.8
      vertex -2.54045 4.88179 1.8
    endloop
  endfacet
  facet normal -0 0 1
    outer loop
      vertex -2.7778 4.5631 1.3
      vertex -1.08926 4.08159 1.3
      vertex -1.08926 4.5631 1.3
    endloop
  endfacet
  facet normal 0 -1 -0
    outer loop
      vertex -2.7778 4.5631 1.3
      vertex -1.08926 4.5631 1.3
      vertex -1.08926 4.5631 1.8
    endloop
  endfacet
  facet normal 0 -1 0
    outer loop
      vertex -2.7778 4.5631 1.3
      vertex -1.08926 4.5631 1.8
      vertex -2.7778 4.5631 1.8
    endloop
  endfacet
  facet normal -0.780824 0.624751 0
    outer loop
      vertex -2.7778 4.5631 1.3
      vertex -2.72356 4.63089 1.8
      vertex -2.72356 4.63089 1.3
    endloop
  endfacet
  facet normal -0.780824 0.624751 0
    outer loop
      vertex -2.7778 4.5631 1.3
      vertex -2.7778 4.5631 1.8
      vertex -2.72356 4.63089 1.8
    endloop
  endfacet
  facet normal 0 0 1
    outer loop
      vertex -2.7778 4.5631 1.8
      vertex -1.08926 4.5631 1.8
      vertex -2.72356 4.63089 1.8
    endloop
  endfacet
  facet normal 0 0 1
    outer loop
      vertex -3.34065 4.08159 1.3
      vertex -1.08926 4.08159 1.3
      vertex -2.7778 4.5631 1.3
    endloop
  endfacet
  facet normal 0 0 1
    outer loop
      vertex -3.34065 4.08159 1.3
      vertex -2.7778 4.5631 1.3
      vertex -3.34065 4.55629 1.3
    endloop
  endfacet
  facet normal 0 1 0
    outer loop
      vertex -3.34065 4.08159 1.3
      vertex -3.34065 4.08159 1.8
      vertex -1.08926 4.08159 1.3
    endloop
  endfacet
  facet normal 1 0 0
    outer loop
      vertex -3.34065 4.08159 1.3
      vertex -3.34065 4.55629 1.3
      vertex -3.34065 4.08159 1.8
    endloop
  endfacet
  facet normal 0 0 1
    outer loop
      vertex -3.34065 4.08159 1.8
      vertex -1.08926 3 1.8
      vertex -1.08926 4.08159 1.8
    endloop
  endfacet
  facet normal 0 1 -0
    outer loop
      vertex -3.34065 4.08159 1.8
      vertex -1.08926 4.08159 1.8
      vertex -1.08926 4.08159 1.3
    endloop
  endfacet
  facet normal 1 -0 0
    outer loop
      vertex -3.34065 4.08159 1.8
      vertex -3.34065 4.55629 1.3
      vertex -3.34065 4.55629 1.8
    endloop
  endfacet
  facet normal 0.827332 -0.561713 0
    outer loop
      vertex -3.34065 4.55629 1.3
      vertex -1.1537 7.77739 1.3
      vertex -3.34065 4.55629 1.8
    endloop
  endfacet
  facet normal 0 0 1
    outer loop
      vertex -3.34065 4.55629 1.3
      vertex -1.31645 6.68559 1.3
      vertex -1.1537 7.77739 1.3
    endloop
  endfacet
  facet normal 0 0 1
    outer loop
      vertex -3.34065 4.55629 1.3
      vertex -2.54045 4.88179 1.3
      vertex -1.31645 6.68559 1.3
    endloop
  endfacet
  facet normal 0 0 1
    outer loop
      vertex -3.34065 4.55629 1.3
      vertex -2.72356 4.63089 1.3
      vertex -2.54045 4.88179 1.3
    endloop
  endfacet
  facet normal 0 0 1
    outer loop
      vertex -3.34065 4.55629 1.3
      vertex -2.7778 4.5631 1.3
      vertex -2.72356 4.63089 1.3
    endloop
  endfacet
  facet normal 0.827332 -0.561713 0
    outer loop
      vertex -3.34065 4.55629 1.8
      vertex -1.1537 7.77739 1.3
      vertex -1.1537 7.77739 1.8
    endloop
  endfacet
  facet normal 0 0 1
    outer loop
      vertex -8.5 17.7062 1.8
      vertex -0.940456 17.7944 1.8
      vertex -0.940456 29.3706 1.8
    endloop
  endfacet
  facet normal 0 0 1
    outer loop
      vertex -8.5 17.7062 1.8
      vertex -0.940456 29.3706 1.8
      vertex -1.29443 29.7245 1.8
    endloop
  endfacet
  facet normal 0 0 1
    outer loop
      vertex -8.5 17.7062 1.8
      vertex -1.1537 7.77739 1.8
      vertex -1.29443 15.5595 1.8
    endloop
  endfacet
  facet normal 0 0 1
    outer loop
      vertex -8.5 17.7062 1.8
      vertex -1.29443 15.5595 1.8
      vertex -1.52169 16.0056 1.8
    endloop
  endfacet
  facet normal 0 0 1
    outer loop
      vertex -8.5 17.7062 1.8
      vertex -1.29443 17.4405 1.8
      vertex -0.940456 17.7944 1.8
    endloop
  endfacet
  facet normal 0 0 1
    outer loop
      vertex -8.5 17.7062 1.8
      vertex -1.29443 29.7245 1.8
      vertex -1.52169 30.1706 1.8
    endloop
  endfacet
  facet normal 0 0 1
    outer loop
      vertex -8.5 17.7062 1.8
      vertex -1.52169 16.0056 1.8
      vertex -1.6 16.5 1.8
    endloop
  endfacet
  facet normal 0 0 1
    outer loop
      vertex -8.5 17.7062 1.8
      vertex -1.52169 16.9944 1.8
      vertex -1.29443 17.4405 1.8
    endloop
  endfacet
  facet normal 0 0 1
    outer loop
      vertex -8.5 17.7062 1.8
      vertex -1.52169 30.1706 1.8
      vertex -8.5 35 1.8
    endloop
  endfacet
  facet normal 0 0 1
    outer loop
      vertex -8.5 17.7062 1.8
      vertex -1.6 16.5 1.8
      vertex -1.52169 16.9944 1.8
    endloop
  endfacet
  facet normal 0 0 1
    outer loop
      vertex -8.5 17.7062 1.8
      vertex -3.34065 4.55629 1.8
      vertex -1.1537 7.77739 1.8
    endloop
  endfacet
  facet normal 0 0 -1
    outer loop
      vertex -8.5 17.7062 3.8147e-07
      vertex -0.940456 17.7944 3.8147e-07
      vertex -1.29443 17.4405 3.8147e-07
    endloop
  endfacet
  facet normal -0 0 -1
    outer loop
      vertex -8.5 17.7062 3.8147e-07
      vertex -0.940456 29.3706 3.8147e-07
      vertex -0.940456 17.7944 3.8147e-07
    endloop
  endfacet
  facet normal 0 0 -1
    outer loop
      vertex -8.5 17.7062 3.8147e-07
      vertex -1.29443 17.4405 3.8147e-07
      vertex -1.52169 16.9944 3.8147e-07
    endloop
  endfacet
  facet normal -0 0 -1
    outer loop
      vertex -8.5 17.7062 3.8147e-07
      vertex -1.29443 29.7245 3.8147e-07
      vertex -0.940456 29.3706 3.8147e-07
    endloop
  endfacet
  facet normal 0 0 -1
    outer loop
      vertex -8.5 17.7062 3.8147e-07
      vertex -1.52169 16.0056 3.8147e-07
      vertex -1.29443 15.5595 3.8147e-07
    endloop
  endfacet
  facet normal 0 0 -1
    outer loop
      vertex -8.5 17.7062 3.8147e-07
      vertex -1.52169 16.9944 3.8147e-07
      vertex -1.6 16.5 3.8147e-07
    endloop
  endfacet
  facet normal -0 0 -1
    outer loop
      vertex -8.5 17.7062 3.8147e-07
      vertex -1.52169 30.1706 3.8147e-07
      vertex -1.29443 29.7245 3.8147e-07
    endloop
  endfacet
  facet normal 0 0 -1
    outer loop
      vertex -8.5 17.7062 3.8147e-07
      vertex -1.6 16.5 3.8147e-07
      vertex -1.52169 16.0056 3.8147e-07
    endloop
  endfacet
  facet normal -1 -0 0
    outer loop
      vertex -8.5 17.7062 3.8147e-07
      vertex -8.5 17.7062 1.8
      vertex -8.5 35 1.8
    endloop
  endfacet
  facet normal -1 0 0
    outer loop
      vertex -8.5 17.7062 3.8147e-07
      vertex -8.5 35 1.8
      vertex -8.5 35 3.8147e-07
    endloop
  endfacet
  facet normal 0 0 -1
    outer loop
      vertex -8.5 17.7062 3.8147e-07
      vertex -8.5 35 3.8147e-07
      vertex -1.52169 30.1706 3.8147e-07
    endloop
  endfacet
  facet normal 0 0 1
    outer loop
      vertex -8.5 35 1.8
      vertex -0.494427 32.1867 1.8
      vertex 0 32.265 1.8
    endloop
  endfacet
  facet normal 0 0 1
    outer loop
      vertex -8.5 35 1.8
      vertex -0.940456 31.9594 1.8
      vertex -0.494427 32.1867 1.8
    endloop
  endfacet
  facet normal 0 0 1
    outer loop
      vertex -8.5 35 1.8
      vertex -1.29443 31.6055 1.8
      vertex -0.940456 31.9594 1.8
    endloop
  endfacet
  facet normal 0 0 1
    outer loop
      vertex -8.5 35 1.8
      vertex -1.52169 30.1706 1.8
      vertex -1.6 30.665 1.8
    endloop
  endfacet
  facet normal 0 0 1
    outer loop
      vertex -8.5 35 1.8
      vertex -1.52169 31.1594 1.8
      vertex -1.29443 31.6055 1.8
    endloop
  endfacet
  facet normal 0 0 1
    outer loop
      vertex -8.5 35 1.8
      vertex -1.6 30.665 1.8
      vertex -1.52169 31.1594 1.8
    endloop
  endfacet
  facet normal -0 0 1
    outer loop
      vertex -8.5 35 1.8
      vertex 0 32.265 1.8
      vertex 8.5 35 1.8
    endloop
  endfacet
  facet normal 0 1 -0
    outer loop
      vertex -8.5 35 1.8
      vertex 8.5 35 1.8
      vertex 8.5 35 3.8147e-07
    endloop
  endfacet
  facet normal 0 0 -1
    outer loop
      vertex -8.5 35 3.8147e-07
      vertex -0.494427 32.1867 3.8147e-07
      vertex -0.940456 31.9594 3.8147e-07
    endloop
  endfacet
  facet normal 0 0 -1
    outer loop
      vertex -8.5 35 3.8147e-07
      vertex -0.940456 31.9594 3.8147e-07
      vertex -1.29443 31.6055 3.8147e-07
    endloop
  endfacet
  facet normal 0 0 -1
    outer loop
      vertex -8.5 35 3.8147e-07
      vertex -1.29443 31.6055 3.8147e-07
      vertex -1.52169 31.1594 3.8147e-07
    endloop
  endfacet
  facet normal 0 0 -1
    outer loop
      vertex -8.5 35 3.8147e-07
      vertex -1.52169 31.1594 3.8147e-07
      vertex -1.6 30.665 3.8147e-07
    endloop
  endfacet
  facet normal 0 0 -1
    outer loop
      vertex -8.5 35 3.8147e-07
      vertex -1.6 30.665 3.8147e-07
      vertex -1.52169 30.1706 3.8147e-07
    endloop
  endfacet
  facet normal 0 1 0
    outer loop
      vertex -8.5 35 3.8147e-07
      vertex -8.5 35 1.8
      vertex 8.5 35 3.8147e-07
    endloop
  endfacet
  facet normal 0 0 -1
    outer loop
      vertex -8.5 35 3.8147e-07
      vertex 0 32.265 3.8147e-07
      vertex -0.494427 32.1867 3.8147e-07
    endloop
  endfacet
  facet normal 0 0 -1
    outer loop
      vertex -8.5 35 3.8147e-07
      vertex 8.5 35 3.8147e-07
      vertex 0 32.265 3.8147e-07
    endloop
  endfacet
  facet normal -0.156416 0.987691 0
    outer loop
      vertex 0 14.9 1.8
      vertex 0.494427 14.9783 1.8
      vertex 0.494427 14.9783 3.8147e-07
    endloop
  endfacet
  facet normal -0 0 1
    outer loop
      vertex 0 14.9 1.8
      vertex 1.76859 7.81204 1.8
      vertex 0.494427 14.9783 1.8
    endloop
  endfacet
  facet normal -0.156416 0.987691 0
    outer loop
      vertex 0 14.9 3.8147e-07
      vertex 0 14.9 1.8
      vertex 0.494427 14.9783 3.8147e-07
    endloop
  endfacet
  facet normal 0 0 -1
    outer loop
      vertex 0 14.9 3.8147e-07
      vertex 0.494427 14.9783 3.8147e-07
      vertex 11.7874 2.24858 3.8147e-07
    endloop
  endfacet
  facet normal 0 0 1
    outer loop
      vertex 0 18.1 1.8
      vertex 0.494427 18.0217 1.8
      vertex 0 29.065 1.8
    endloop
  endfacet
  facet normal 0 0 -1
    outer loop
      vertex 0 18.1 3.8147e-07
      vertex 0 29.065 3.8147e-07
      vertex 0.494427 29.1433 3.8147e-07
    endloop
  endfacet
  facet normal -0.156416 -0.987691 0
    outer loop
      vertex 0 18.1 3.8147e-07
      vertex 0.494427 18.0217 1.8
      vertex 0 18.1 1.8
    endloop
  endfacet
  facet normal -0.156416 -0.987691 -0
    outer loop
      vertex 0 18.1 3.8147e-07
      vertex 0.494427 18.0217 3.8147e-07
      vertex 0.494427 18.0217 1.8
    endloop
  endfacet
  facet normal 0 0 -1
    outer loop
      vertex 0 18.1 3.8147e-07
      vertex 0.494427 29.1433 3.8147e-07
      vertex 0.494427 18.0217 3.8147e-07
    endloop
  endfacet
  facet normal -0 0 1
    outer loop
      vertex 0 29.065 1.8
      vertex 0.494427 18.0217 1.8
      vertex 0.494427 29.1433 1.8
    endloop
  endfacet
  facet normal -0.156416 0.987691 0
    outer loop
      vertex 0 29.065 1.8
      vertex 0.494427 29.1433 1.8
      vertex 0.494427 29.1433 3.8147e-07
    endloop
  endfacet
  facet normal -0.156416 0.987691 0
    outer loop
      vertex 0 29.065 3.8147e-07
      vertex 0 29.065 1.8
      vertex 0.494427 29.1433 3.8147e-07
    endloop
  endfacet
  facet normal 0 0 1
    outer loop
      vertex 0 32.265 1.8
      vertex 0.494427 32.1867 1.8
      vertex 8.5 35 1.8
    endloop
  endfacet
  facet normal -0.156416 -0.987691 0
    outer loop
      vertex 0 32.265 3.8147e-07
      vertex 0.494427 32.1867 1.8
      vertex 0 32.265 1.8
    endloop
  endfacet
  facet normal -0.156416 -0.987691 -0
    outer loop
      vertex 0 32.265 3.8147e-07
      vertex 0.494427 32.1867 3.8147e-07
      vertex 0.494427 32.1867 1.8
    endloop
  endfacet
  facet normal 0 0 -1
    outer loop
      vertex 0 32.265 3.8147e-07
      vertex 8.5 35 3.8147e-07
      vertex 0.494427 32.1867 3.8147e-07
    endloop
  endfacet
  facet normal -1 -0 0
    outer loop
      vertex 0.158493 4.08159 1.3
      vertex 0.158493 4.08159 1.8
      vertex 0.158493 4.5631 1.8
    endloop
  endfacet
  facet normal -1 0 0
    outer loop
      vertex 0.158493 4.08159 1.3
      vertex 0.158493 4.5631 1.8
      vertex 0.158493 4.5631 1.3
    endloop
  endfacet
  facet normal 0 0 1
    outer loop
      vertex 0.158493 4.08159 1.8
      vertex 0.536072 4.22739 1.8
      vertex 0.158493 4.5631 1.8
    endloop
  endfacet
  facet normal 0 0 1
    outer loop
      vertex 0.158493 4.08159 1.8
      vertex 0.629333 3.83504 1.8
      vertex 0.536072 4.22739 1.8
    endloop
  endfacet
  facet normal 0 0 1
    outer loop
      vertex 0.158493 4.5631 1.8
      vertex 0.536072 4.22739 1.8
      vertex 1.16678 4.28505 1.8
    endloop
  endfacet
  facet normal -0 0 1
    outer loop
      vertex 0.158493 4.5631 1.8
      vertex 1.16678 4.28505 1.8
      vertex 1.68213 5.1666 1.8
    endloop
  endfacet
  facet normal 0 0 1
    outer loop
      vertex 0.158493 4.5631 1.8
      vertex 1.68213 5.1666 1.8
      vertex 1.68213 5.69554 1.8
    endloop
  endfacet
  facet normal 0 0 1
    outer loop
      vertex 0.158493 4.5631 1.8
      vertex 1.68213 5.69554 1.8
      vertex 0.617477 6.60425 1.8
    endloop
  endfacet
  facet normal -0.454049 0.890977 0
    outer loop
      vertex 0.494427 14.9783 1.8
      vertex 0.940456 15.2056 1.8
      vertex 0.940456 15.2056 3.8147e-07
    endloop
  endfacet
  facet normal 0 0 1
    outer loop
      vertex 0.494427 14.9783 1.8
      vertex 1.76859 7.81204 1.8
      vertex 2.18053 7.84859 1.8
    endloop
  endfacet
  facet normal -0 0 1
    outer loop
      vertex 0.494427 14.9783 1.8
      vertex 2.18053 7.84859 1.8
      vertex 0.940456 15.2056 1.8
    endloop
  endfacet
  facet normal -0.454049 0.890977 0
    outer loop
      vertex 0.494427 14.9783 3.8147e-07
      vertex 0.494427 14.9783 1.8
      vertex 0.940456 15.2056 3.8147e-07
    endloop
  endfacet
  facet normal 0 0 -1
    outer loop
      vertex 0.494427 14.9783 3.8147e-07
      vertex 0.940456 15.2056 3.8147e-07
      vertex 11.7874 2.24858 3.8147e-07
    endloop
  endfacet
  facet normal 0 0 1
    outer loop
      vertex 0.494427 18.0217 1.8
      vertex 0.940456 17.7944 1.8
      vertex 0.494427 29.1433 1.8
    endloop
  endfacet
  facet normal 0 0 -1
    outer loop
      vertex 0.494427 18.0217 3.8147e-07
      vertex 0.494427 29.1433 3.8147e-07
      vertex 0.940456 29.3706 3.8147e-07
    endloop
  endfacet
  facet normal -0.454049 -0.890977 0
    outer loop
      vertex 0.494427 18.0217 3.8147e-07
      vertex 0.940456 17.7944 1.8
      vertex 0.494427 18.0217 1.8
    endloop
  endfacet
  facet normal -0.454049 -0.890977 -0
    outer loop
      vertex 0.494427 18.0217 3.8147e-07
      vertex 0.940456 17.7944 3.8147e-07
      vertex 0.940456 17.7944 1.8
    endloop
  endfacet
  facet normal 0 0 -1
    outer loop
      vertex 0.494427 18.0217 3.8147e-07
      vertex 0.940456 29.3706 3.8147e-07
      vertex 0.940456 17.7944 3.8147e-07
    endloop
  endfacet
  facet normal -0 0 1
    outer loop
      vertex 0.494427 29.1433 1.8
      vertex 0.940456 17.7944 1.8
      vertex 0.940456 29.3706 1.8
    endloop
  endfacet
  facet normal -0.454049 0.890977 0
    outer loop
      vertex 0.494427 29.1433 1.8
      vertex 0.940456 29.3706 1.8
      vertex 0.940456 29.3706 3.8147e-07
    endloop
  endfacet
  facet normal -0.454049 0.890977 0
    outer loop
      vertex 0.494427 29.1433 3.8147e-07
      vertex 0.494427 29.1433 1.8
      vertex 0.940456 29.3706 3.8147e-07
    endloop
  endfacet
  facet normal 0 0 1
    outer loop
      vertex 0.494427 32.1867 1.8
      vertex 0.940456 31.9594 1.8
      vertex 8.5 35 1.8
    endloop
  endfacet
  facet normal -0.454049 -0.890977 0
    outer loop
      vertex 0.494427 32.1867 3.8147e-07
      vertex 0.940456 31.9594 1.8
      vertex 0.494427 32.1867 1.8
    endloop
  endfacet
  facet normal -0.454049 -0.890977 -0
    outer loop
      vertex 0.494427 32.1867 3.8147e-07
      vertex 0.940456 31.9594 3.8147e-07
      vertex 0.940456 31.9594 1.8
    endloop
  endfacet
  facet normal 0 0 -1
    outer loop
      vertex 0.494427 32.1867 3.8147e-07
      vertex 8.5 35 3.8147e-07
      vertex 0.940456 31.9594 3.8147e-07
    endloop
  endfacet
  facet normal 0.972893 0.231255 0
    outer loop
      vertex 0.536072 4.22739 1.3
      vertex 0.536072 4.22739 1.8
      vertex 0.629333 3.83504 1.8
    endloop
  endfacet
  facet normal 0 -0 1
    outer loop
      vertex 0.536072 4.22739 1.3
      vertex 0.629333 3.83504 1.3
      vertex 1.16678 4.28505 1.3
    endloop
  endfacet
  facet normal 0.972893 0.231255 0
    outer loop
      vertex 0.536072 4.22739 1.3
      vertex 0.629333 3.83504 1.8
      vertex 0.629333 3.83504 1.3
    endloop
  endfacet
  facet normal 0.0910414 -0.995847 0
    outer loop
      vertex 0.536072 4.22739 1.3
      vertex 1.16678 4.28505 1.3
      vertex 1.16678 4.28505 1.8
    endloop
  endfacet
  facet normal 0.0910414 -0.995847 0
    outer loop
      vertex 0.536072 4.22739 1.3
      vertex 1.16678 4.28505 1.8
      vertex 0.536072 4.22739 1.8
    endloop
  endfacet
  facet normal 0.0771695 0.997018 0
    outer loop
      vertex 0.617477 6.60425 1.3
      vertex 0.617477 6.60425 1.8
      vertex 1.23117 6.55675 1.3
    endloop
  endfacet
  facet normal 0.974064 -0.226274 0
    outer loop
      vertex 0.617477 6.60425 1.3
      vertex 0.70166 6.96664 1.3
      vertex 0.617477 6.60425 1.8
    endloop
  endfacet
  facet normal 0 0 1
    outer loop
      vertex 0.617477 6.60425 1.3
      vertex 1.23117 6.55675 1.3
      vertex 0.70166 6.96664 1.3
    endloop
  endfacet
  facet normal 0.974064 -0.226274 0
    outer loop
      vertex 0.617477 6.60425 1.8
      vertex 0.70166 6.96664 1.3
      vertex 0.70166 6.96664 1.8
    endloop
  endfacet
  facet normal 0.0771695 0.997018 -0
    outer loop
      vertex 0.617477 6.60425 1.8
      vertex 1.23117 6.55675 1.8
      vertex 1.23117 6.55675 1.3
    endloop
  endfacet
  facet normal 0 0 1
    outer loop
      vertex 0.617477 6.60425 1.8
      vertex 1.68213 5.69554 1.8
      vertex 1.23117 6.55675 1.8
    endloop
  endfacet
  facet normal 0.883324 0.468764 0
    outer loop
      vertex 0.629333 3.83504 1.3
      vertex 0.629333 3.83504 1.8
      vertex 0.800568 3.51237 1.8
    endloop
  endfacet
  facet normal 0 0 1
    outer loop
      vertex 0.629333 3.83504 1.3
      vertex 0.800568 3.51237 1.3
      vertex 1.33667 3.81413 1.3
    endloop
  endfacet
  facet normal 0.883324 0.468764 0
    outer loop
      vertex 0.629333 3.83504 1.3
      vertex 0.800568 3.51237 1.8
      vertex 0.800568 3.51237 1.3
    endloop
  endfacet
  facet normal -0 0 1
    outer loop
      vertex 0.629333 3.83504 1.3
      vertex 1.33667 3.81413 1.3
      vertex 1.16678 4.28505 1.3
    endloop
  endfacet
  facet normal 0.883032 -0.469313 0
    outer loop
      vertex 0.70166 6.96664 1.3
      vertex 0.863846 7.2718 1.3
      vertex 0.70166 6.96664 1.8
    endloop
  endfacet
  facet normal 0 0 1
    outer loop
      vertex 0.70166 6.96664 1.3
      vertex 1.23117 6.55675 1.3
      vertex 1.28148 6.78883 1.3
    endloop
  endfacet
  facet normal -0 0 1
    outer loop
      vertex 0.70166 6.96664 1.3
      vertex 1.28148 6.78883 1.3
      vertex 0.863846 7.2718 1.3
    endloop
  endfacet
  facet normal 0.883032 -0.469313 0
    outer loop
      vertex 0.70166 6.96664 1.8
      vertex 0.863846 7.2718 1.3
      vertex 0.863846 7.2718 1.8
    endloop
  endfacet
  facet normal 0.712392 0.701781 0
    outer loop
      vertex 0.800568 3.51237 1.3
      vertex 0.800568 3.51237 1.8
      vertex 1.04977 3.2594 1.8
    endloop
  endfacet
  facet normal 0 0 1
    outer loop
      vertex 0.800568 3.51237 1.3
      vertex 1.04977 3.2594 1.3
      vertex 1.33667 3.81413 1.3
    endloop
  endfacet
  facet normal 0.712392 0.701781 0
    outer loop
      vertex 0.800568 3.51237 1.3
      vertex 1.04977 3.2594 1.8
      vertex 1.04977 3.2594 1.3
    endloop
  endfacet
  facet normal 0.71821 -0.695826 0
    outer loop
      vertex 0.863846 7.2718 1.3
      vertex 1.10402 7.5197 1.3
      vertex 0.863846 7.2718 1.8
    endloop
  endfacet
  facet normal 0 0 1
    outer loop
      vertex 0.863846 7.2718 1.3
      vertex 1.28148 6.78883 1.3
      vertex 1.37811 6.98323 1.3
    endloop
  endfacet
  facet normal -0 0 1
    outer loop
      vertex 0.863846 7.2718 1.3
      vertex 1.37811 6.98323 1.3
      vertex 1.10402 7.5197 1.3
    endloop
  endfacet
  facet normal 0.71821 -0.695826 0
    outer loop
      vertex 0.863846 7.2718 1.8
      vertex 1.10402 7.5197 1.3
      vertex 1.10402 7.5197 1.8
    endloop
  endfacet
  facet normal 0 0 1
    outer loop
      vertex 0.940456 15.2056 1.8
      vertex 2.18053 7.84859 1.8
      vertex 2.62415 7.81148 1.8
    endloop
  endfacet
  facet normal 0 0 1
    outer loop
      vertex 0.940456 15.2056 1.8
      vertex 2.62415 7.81148 1.8
      vertex 2.99657 7.70015 1.8
    endloop
  endfacet
  facet normal -0 0 1
    outer loop
      vertex 0.940456 15.2056 1.8
      vertex 2.99657 7.70015 1.8
      vertex 1.29443 15.5595 1.8
    endloop
  endfacet
  facet normal -0.707033 0.707181 0
    outer loop
      vertex 0.940456 15.2056 3.8147e-07
      vertex 0.940456 15.2056 1.8
      vertex 1.29443 15.5595 1.8
    endloop
  endfacet
  facet normal -0.707033 0.707181 0
    outer loop
      vertex 0.940456 15.2056 3.8147e-07
      vertex 1.29443 15.5595 1.8
      vertex 1.29443 15.5595 3.8147e-07
    endloop
  endfacet
  facet normal 0 0 -1
    outer loop
      vertex 0.940456 15.2056 3.8147e-07
      vertex 1.29443 15.5595 3.8147e-07
      vertex 8.5 17.7062 3.8147e-07
    endloop
  endfacet
  facet normal 0 0 -1
    outer loop
      vertex 0.940456 15.2056 3.8147e-07
      vertex 8.5 17.7062 3.8147e-07
      vertex 11.7874 2.24858 3.8147e-07
    endloop
  endfacet
  facet normal 0 0 1
    outer loop
      vertex 0.940456 17.7944 1.8
      vertex 1.29443 17.4405 1.8
      vertex 8.5 17.7062 1.8
    endloop
  endfacet
  facet normal -0.707033 -0.707181 0
    outer loop
      vertex 0.940456 17.7944 1.8
      vertex 1.29443 17.4405 3.8147e-07
      vertex 1.29443 17.4405 1.8
    endloop
  endfacet
  facet normal -0 0 1
    outer loop
      vertex 0.940456 17.7944 1.8
      vertex 8.5 17.7062 1.8
      vertex 0.940456 29.3706 1.8
    endloop
  endfacet
  facet normal 0 0 -1
    outer loop
      vertex 0.940456 17.7944 3.8147e-07
      vertex 0.940456 29.3706 3.8147e-07
      vertex 8.5 17.7062 3.8147e-07
    endloop
  endfacet
  facet normal -0.707033 -0.707181 0
    outer loop
      vertex 0.940456 17.7944 3.8147e-07
      vertex 1.29443 17.4405 3.8147e-07
      vertex 0.940456 17.7944 1.8
    endloop
  endfacet
  facet normal 0 0 -1
    outer loop
      vertex 0.940456 17.7944 3.8147e-07
      vertex 8.5 17.7062 3.8147e-07
      vertex 1.29443 17.4405 3.8147e-07
    endloop
  endfacet
  facet normal -0.707033 0.707181 0
    outer loop
      vertex 0.940456 29.3706 1.8
      vertex 1.29443 29.7245 1.8
      vertex 1.29443 29.7245 3.8147e-07
    endloop
  endfacet
  facet normal -0 0 1
    outer loop
      vertex 0.940456 29.3706 1.8
      vertex 8.5 17.7062 1.8
      vertex 1.29443 29.7245 1.8
    endloop
  endfacet
  facet normal -0.707033 0.707181 0
    outer loop
      vertex 0.940456 29.3706 3.8147e-07
      vertex 0.940456 29.3706 1.8
      vertex 1.29443 29.7245 3.8147e-07
    endloop
  endfacet
  facet normal 0 0 -1
    outer loop
      vertex 0.940456 29.3706 3.8147e-07
      vertex 1.29443 29.7245 3.8147e-07
      vertex 8.5 17.7062 3.8147e-07
    endloop
  endfacet
  facet normal 0 0 1
    outer loop
      vertex 0.940456 31.9594 1.8
      vertex 1.29443 31.6055 1.8
      vertex 8.5 35 1.8
    endloop
  endfacet
  facet normal -0.707033 -0.707181 0
    outer loop
      vertex 0.940456 31.9594 1.8
      vertex 1.29443 31.6055 3.8147e-07
      vertex 1.29443 31.6055 1.8
    endloop
  endfacet
  facet normal -0.707033 -0.707181 0
    outer loop
      vertex 0.940456 31.9594 3.8147e-07
      vertex 1.29443 31.6055 3.8147e-07
      vertex 0.940456 31.9594 1.8
    endloop
  endfacet
  facet normal 0 0 -1
    outer loop
      vertex 0.940456 31.9594 3.8147e-07
      vertex 8.5 35 3.8147e-07
      vertex 1.29443 31.6055 3.8147e-07
    endloop
  endfacet
  facet normal 0.493011 0.870023 0
    outer loop
      vertex 1.04977 3.2594 1.3
      vertex 1.04977 3.2594 1.8
      vertex 1.37056 3.07762 1.3
    endloop
  endfacet
  facet normal 0 0 1
    outer loop
      vertex 1.04977 3.2594 1.3
      vertex 1.37056 3.07762 1.3
      vertex 1.68364 3.53157 1.3
    endloop
  endfacet
  facet normal 0 0 1
    outer loop
      vertex 1.04977 3.2594 1.3
      vertex 1.68364 3.53157 1.3
      vertex 1.33667 3.81413 1.3
    endloop
  endfacet
  facet normal 0.493011 0.870023 -0
    outer loop
      vertex 1.04977 3.2594 1.8
      vertex 1.37056 3.07762 1.8
      vertex 1.37056 3.07762 1.3
    endloop
  endfacet
  facet normal 0 0 1
    outer loop
      vertex 1.10402 7.5197 1.3
      vertex 1.37811 6.98323 1.3
      vertex 1.52107 7.13994 1.3
    endloop
  endfacet
  facet normal 0.513004 -0.858386 0
    outer loop
      vertex 1.10402 7.5197 1.3
      vertex 1.40974 7.70241 1.3
      vertex 1.40974 7.70241 1.8
    endloop
  endfacet
  facet normal 0.513004 -0.858386 0
    outer loop
      vertex 1.10402 7.5197 1.3
      vertex 1.40974 7.70241 1.8
      vertex 1.10402 7.5197 1.8
    endloop
  endfacet
  facet normal -0 0 1
    outer loop
      vertex 1.10402 7.5197 1.3
      vertex 1.52107 7.13994 1.3
      vertex 1.40974 7.70241 1.3
    endloop
  endfacet
  facet normal -0.940659 -0.339354 0
    outer loop
      vertex 1.16678 4.28505 1.3
      vertex 1.33667 3.81413 1.3
      vertex 1.16678 4.28505 1.8
    endloop
  endfacet
  facet normal -0.940659 -0.339354 0
    outer loop
      vertex 1.16678 4.28505 1.8
      vertex 1.33667 3.81413 1.3
      vertex 1.33667 3.81413 1.8
    endloop
  endfacet
  facet normal 0 -0 1
    outer loop
      vertex 1.16678 4.28505 1.8
      vertex 1.33667 3.81413 1.8
      vertex 2.02797 5.1666 1.8
    endloop
  endfacet
  facet normal 0 0 1
    outer loop
      vertex 1.16678 4.28505 1.8
      vertex 2.02797 5.1666 1.8
      vertex 1.68213 5.1666 1.8
    endloop
  endfacet
  facet normal -0.9773 0.211858 0
    outer loop
      vertex 1.23117 6.55675 1.3
      vertex 1.23117 6.55675 1.8
      vertex 1.28148 6.78883 1.8
    endloop
  endfacet
  facet normal -0.9773 0.211858 0
    outer loop
      vertex 1.23117 6.55675 1.3
      vertex 1.28148 6.78883 1.8
      vertex 1.28148 6.78883 1.3
    endloop
  endfacet
  facet normal 0 0 1
    outer loop
      vertex 1.23117 6.55675 1.8
      vertex 1.52107 7.13994 1.8
      vertex 1.28148 6.78883 1.8
    endloop
  endfacet
  facet normal 0 0 1
    outer loop
      vertex 1.23117 6.55675 1.8
      vertex 1.68213 5.69554 1.8
      vertex 2.01442 5.69554 1.8
    endloop
  endfacet
  facet normal 0 0 1
    outer loop
      vertex 1.23117 6.55675 1.8
      vertex 1.70435 7.25485 1.8
      vertex 1.52107 7.13994 1.8
    endloop
  endfacet
  facet normal -0 0 1
    outer loop
      vertex 1.23117 6.55675 1.8
      vertex 2.01442 5.69554 1.8
      vertex 1.70435 7.25485 1.8
    endloop
  endfacet
  facet normal -0.895475 0.445112 0
    outer loop
      vertex 1.28148 6.78883 1.3
      vertex 1.28148 6.78883 1.8
      vertex 1.37811 6.98323 1.8
    endloop
  endfacet
  facet normal -0.895475 0.445112 0
    outer loop
      vertex 1.28148 6.78883 1.3
      vertex 1.37811 6.98323 1.8
      vertex 1.37811 6.98323 1.3
    endloop
  endfacet
  facet normal 0 0 1
    outer loop
      vertex 1.28148 6.78883 1.8
      vertex 1.52107 7.13994 1.8
      vertex 1.37811 6.98323 1.8
    endloop
  endfacet
  facet normal 0 0 1
    outer loop
      vertex 1.29443 15.5595 1.8
      vertex 2.99657 7.70015 1.8
      vertex 3.29778 7.51459 1.8
    endloop
  endfacet
  facet normal 0 0 1
    outer loop
      vertex 1.29443 15.5595 1.8
      vertex 3.29778 7.51459 1.8
      vertex 8.5 17.7062 1.8
    endloop
  endfacet
  facet normal 0 0 1
    outer loop
      vertex 1.29443 15.5595 1.8
      vertex 8.5 17.7062 1.8
      vertex 1.52169 16.0056 1.8
    endloop
  endfacet
  facet normal -0.891038 0.453928 0
    outer loop
      vertex 1.29443 15.5595 3.8147e-07
      vertex 1.29443 15.5595 1.8
      vertex 1.52169 16.0056 1.8
    endloop
  endfacet
  facet normal -0.891038 0.453928 0
    outer loop
      vertex 1.29443 15.5595 3.8147e-07
      vertex 1.52169 16.0056 1.8
      vertex 1.52169 16.0056 3.8147e-07
    endloop
  endfacet
  facet normal 0 0 -1
    outer loop
      vertex 1.29443 15.5595 3.8147e-07
      vertex 1.52169 16.0056 3.8147e-07
      vertex 8.5 17.7062 3.8147e-07
    endloop
  endfacet
  facet normal 0 0 1
    outer loop
      vertex 1.29443 17.4405 1.8
      vertex 1.52169 16.9944 1.8
      vertex 8.5 17.7062 1.8
    endloop
  endfacet
  facet normal -0.891038 -0.453928 0
    outer loop
      vertex 1.29443 17.4405 1.8
      vertex 1.52169 16.9944 3.8147e-07
      vertex 1.52169 16.9944 1.8
    endloop
  endfacet
  facet normal -0.891038 -0.453928 0
    outer loop
      vertex 1.29443 17.4405 3.8147e-07
      vertex 1.52169 16.9944 3.8147e-07
      vertex 1.29443 17.4405 1.8
    endloop
  endfacet
  facet normal 0 0 -1
    outer loop
      vertex 1.29443 17.4405 3.8147e-07
      vertex 8.5 17.7062 3.8147e-07
      vertex 1.52169 16.9944 3.8147e-07
    endloop
  endfacet
  facet normal -0 0 1
    outer loop
      vertex 1.29443 29.7245 1.8
      vertex 8.5 17.7062 1.8
      vertex 1.52169 30.1706 1.8
    endloop
  endfacet
  facet normal -0.891038 0.453928 0
    outer loop
      vertex 1.29443 29.7245 3.8147e-07
      vertex 1.29443 29.7245 1.8
      vertex 1.52169 30.1706 1.8
    endloop
  endfacet
  facet normal -0.891038 0.453928 0
    outer loop
      vertex 1.29443 29.7245 3.8147e-07
      vertex 1.52169 30.1706 1.8
      vertex 1.52169 30.1706 3.8147e-07
    endloop
  endfacet
  facet normal 0 0 -1
    outer loop
      vertex 1.29443 29.7245 3.8147e-07
      vertex 1.52169 30.1706 3.8147e-07
      vertex 8.5 17.7062 3.8147e-07
    endloop
  endfacet
  facet normal 0 0 1
    outer loop
      vertex 1.29443 31.6055 1.8
      vertex 1.52169 31.1594 1.8
      vertex 8.5 35 1.8
    endloop
  endfacet
  facet normal -0.891038 -0.453928 0
    outer loop
      vertex 1.29443 31.6055 1.8
      vertex 1.52169 31.1594 3.8147e-07
      vertex 1.52169 31.1594 1.8
    endloop
  endfacet
  facet normal -0.891038 -0.453928 0
    outer loop
      vertex 1.29443 31.6055 3.8147e-07
      vertex 1.52169 31.1594 3.8147e-07
      vertex 1.29443 31.6055 1.8
    endloop
  endfacet
  facet normal 0 0 -1
    outer loop
      vertex 1.29443 31.6055 3.8147e-07
      vertex 8.5 35 3.8147e-07
      vertex 1.52169 31.1594 3.8147e-07
    endloop
  endfacet
  facet normal -0.631463 -0.775406 -0
    outer loop
      vertex 1.33667 3.81413 1.3
      vertex 1.68364 3.53157 1.3
      vertex 1.68364 3.53157 1.8
    endloop
  endfacet
  facet normal -0.631463 -0.775406 0
    outer loop
      vertex 1.33667 3.81413 1.3
      vertex 1.68364 3.53157 1.8
      vertex 1.33667 3.81413 1.8
    endloop
  endfacet
  facet normal 0 0 1
    outer loop
      vertex 1.33667 3.81413 1.8
      vertex 1.68364 3.53157 1.8
      vertex 2.02797 5.1666 1.8
    endloop
  endfacet
  facet normal 0.271891 0.962328 0
    outer loop
      vertex 1.37056 3.07762 1.3
      vertex 1.37056 3.07762 1.8
      vertex 1.75653 2.96857 1.3
    endloop
  endfacet
  facet normal 0 0 1
    outer loop
      vertex 1.37056 3.07762 1.3
      vertex 1.75653 2.96857 1.3
      vertex 1.68364 3.53157 1.3
    endloop
  endfacet
  facet normal 0.271891 0.962328 -0
    outer loop
      vertex 1.37056 3.07762 1.8
      vertex 1.75653 2.96857 1.8
      vertex 1.75653 2.96857 1.3
    endloop
  endfacet
  facet normal -0.738774 0.673953 0
    outer loop
      vertex 1.37811 6.98323 1.3
      vertex 1.37811 6.98323 1.8
      vertex 1.52107 7.13994 1.8
    endloop
  endfacet
  facet normal -0.738774 0.673953 0
    outer loop
      vertex 1.37811 6.98323 1.3
      vertex 1.52107 7.13994 1.8
      vertex 1.52107 7.13994 1.3
    endloop
  endfacet
  facet normal 0 0 1
    outer loop
      vertex 1.40974 7.70241 1.3
      vertex 1.52107 7.13994 1.3
      vertex 1.70435 7.25485 1.3
    endloop
  endfacet
  facet normal -0 0 1
    outer loop
      vertex 1.40974 7.70241 1.3
      vertex 1.70435 7.25485 1.3
      vertex 1.76859 7.81204 1.3
    endloop
  endfacet
  facet normal 0.292173 -0.956365 0
    outer loop
      vertex 1.40974 7.70241 1.3
      vertex 1.76859 7.81204 1.3
      vertex 1.76859 7.81204 1.8
    endloop
  endfacet
  facet normal 0.292173 -0.956365 0
    outer loop
      vertex 1.40974 7.70241 1.3
      vertex 1.76859 7.81204 1.8
      vertex 1.40974 7.70241 1.8
    endloop
  endfacet
  facet normal -0.531195 0.84725 0
    outer loop
      vertex 1.52107 7.13994 1.3
      vertex 1.52107 7.13994 1.8
      vertex 1.70435 7.25485 1.3
    endloop
  endfacet
  facet normal -0.531195 0.84725 0
    outer loop
      vertex 1.52107 7.13994 1.8
      vertex 1.70435 7.25485 1.8
      vertex 1.70435 7.25485 1.3
    endloop
  endfacet
  facet normal 0 0 1
    outer loop
      vertex 1.52169 16.0056 1.8
      vertex 8.5 17.7062 1.8
      vertex 1.6 16.5 1.8
    endloop
  endfacet
  facet normal -0.987687 0.156444 0
    outer loop
      vertex 1.52169 16.0056 3.8147e-07
      vertex 1.52169 16.0056 1.8
      vertex 1.6 16.5 1.8
    endloop
  endfacet
  facet normal -0.987687 0.156444 0
    outer loop
      vertex 1.52169 16.0056 3.8147e-07
      vertex 1.6 16.5 1.8
      vertex 1.6 16.5 3.8147e-07
    endloop
  endfacet
  facet normal 0 0 -1
    outer loop
      vertex 1.52169 16.0056 3.8147e-07
      vertex 1.6 16.5 3.8147e-07
      vertex 8.5 17.7062 3.8147e-07
    endloop
  endfacet
  facet normal 0 0 1
    outer loop
      vertex 1.52169 16.9944 1.8
      vertex 1.6 16.5 1.8
      vertex 8.5 17.7062 1.8
    endloop
  endfacet
  facet normal -0.987687 -0.156444 0
    outer loop
      vertex 1.52169 16.9944 1.8
      vertex 1.6 16.5 3.8147e-07
      vertex 1.6 16.5 1.8
    endloop
  endfacet
  facet normal -0.987687 -0.156444 0
    outer loop
      vertex 1.52169 16.9944 3.8147e-07
      vertex 1.6 16.5 3.8147e-07
      vertex 1.52169 16.9944 1.8
    endloop
  endfacet
  facet normal 0 0 -1
    outer loop
      vertex 1.52169 16.9944 3.8147e-07
      vertex 8.5 17.7062 3.8147e-07
      vertex 1.6 16.5 3.8147e-07
    endloop
  endfacet
  facet normal 0 0 1
    outer loop
      vertex 1.52169 30.1706 1.8
      vertex 8.5 17.7062 1.8
      vertex 8.5 35 1.8
    endloop
  endfacet
  facet normal 0 0 1
    outer loop
      vertex 1.52169 30.1706 1.8
      vertex 8.5 35 1.8
      vertex 1.6 30.665 1.8
    endloop
  endfacet
  facet normal -0.987687 0.156444 0
    outer loop
      vertex 1.52169 30.1706 3.8147e-07
      vertex 1.52169 30.1706 1.8
      vertex 1.6 30.665 1.8
    endloop
  endfacet
  facet normal -0.987687 0.156444 0
    outer loop
      vertex 1.52169 30.1706 3.8147e-07
      vertex 1.6 30.665 1.8
      vertex 1.6 30.665 3.8147e-07
    endloop
  endfacet
  facet normal 0 0 -1
    outer loop
      vertex 1.52169 30.1706 3.8147e-07
      vertex 1.6 30.665 3.8147e-07
      vertex 8.5 17.7062 3.8147e-07
    endloop
  endfacet
  facet normal 0 0 1
    outer loop
      vertex 1.52169 31.1594 1.8
      vertex 1.6 30.665 1.8
      vertex 8.5 35 1.8
    endloop
  endfacet
  facet normal -0.987687 -0.156444 0
    outer loop
      vertex 1.52169 31.1594 1.8
      vertex 1.6 30.665 3.8147e-07
      vertex 1.6 30.665 1.8
    endloop
  endfacet
  facet normal -0.987687 -0.156444 0
    outer loop
      vertex 1.52169 31.1594 3.8147e-07
      vertex 1.6 30.665 3.8147e-07
      vertex 1.52169 31.1594 1.8
    endloop
  endfacet
  facet normal 0 0 -1
    outer loop
      vertex 1.52169 31.1594 3.8147e-07
      vertex 8.5 35 3.8147e-07
      vertex 1.6 30.665 3.8147e-07
    endloop
  endfacet
  facet normal 0 0 -1
    outer loop
      vertex 1.6 30.665 3.8147e-07
      vertex 8.5 35 3.8147e-07
      vertex 8.5 17.7062 3.8147e-07
    endloop
  endfacet
  facet normal 0 1 0
    outer loop
      vertex 1.68213 5.1666 1.3
      vertex 1.68213 5.1666 1.8
      vertex 2.02797 5.1666 1.3
    endloop
  endfacet
  facet normal 1 0 0
    outer loop
      vertex 1.68213 5.1666 1.3
      vertex 1.68213 5.69554 1.3
      vertex 1.68213 5.1666 1.8
    endloop
  endfacet
  facet normal 0 0 1
    outer loop
      vertex 1.68213 5.1666 1.3
      vertex 2.01442 5.69554 1.3
      vertex 1.68213 5.69554 1.3
    endloop
  endfacet
  facet normal 0 0 1
    outer loop
      vertex 1.68213 5.1666 1.3
      vertex 2.02797 5.1666 1.3
      vertex 2.01442 5.69554 1.3
    endloop
  endfacet
  facet normal 1 -0 0
    outer loop
      vertex 1.68213 5.1666 1.8
      vertex 1.68213 5.69554 1.3
      vertex 1.68213 5.69554 1.8
    endloop
  endfacet
  facet normal 0 1 -0
    outer loop
      vertex 1.68213 5.1666 1.8
      vertex 2.02797 5.1666 1.8
      vertex 2.02797 5.1666 1.3
    endloop
  endfacet
  facet normal 0 -1 -0
    outer loop
      vertex 1.68213 5.69554 1.3
      vertex 2.01442 5.69554 1.3
      vertex 2.01442 5.69554 1.8
    endloop
  endfacet
  facet normal 0 -1 0
    outer loop
      vertex 1.68213 5.69554 1.3
      vertex 2.01442 5.69554 1.8
      vertex 1.68213 5.69554 1.8
    endloop
  endfacet
  facet normal 0 0 1
    outer loop
      vertex 1.68364 3.53157 1.3
      vertex 1.75653 2.96857 1.3
      vertex 2.20767 3.43739 1.3
    endloop
  endfacet
  facet normal -0.176888 -0.984231 -0
    outer loop
      vertex 1.68364 3.53157 1.3
      vertex 2.20767 3.43739 1.3
      vertex 2.20767 3.43739 1.8
    endloop
  endfacet
  facet normal -0.176888 -0.984231 0
    outer loop
      vertex 1.68364 3.53157 1.3
      vertex 2.20767 3.43739 1.8
      vertex 1.68364 3.53157 1.8
    endloop
  endfacet
  facet normal 0 0 1
    outer loop
      vertex 1.68364 3.53157 1.8
      vertex 2.20767 3.43739 1.8
      vertex 2.02797 5.1666 1.8
    endloop
  endfacet
  facet normal -0.302142 0.953263 0
    outer loop
      vertex 1.70435 7.25485 1.3
      vertex 1.70435 7.25485 1.8
      vertex 1.92192 7.32381 1.3
    endloop
  endfacet
  facet normal 0 0 1
    outer loop
      vertex 1.70435 7.25485 1.3
      vertex 1.92192 7.32381 1.3
      vertex 1.76859 7.81204 1.3
    endloop
  endfacet
  facet normal -0.302142 0.953263 0
    outer loop
      vertex 1.70435 7.25485 1.8
      vertex 1.92192 7.32381 1.8
      vertex 1.92192 7.32381 1.3
    endloop
  endfacet
  facet normal -0 0 1
    outer loop
      vertex 1.70435 7.25485 1.8
      vertex 2.01442 5.69554 1.8
      vertex 1.92192 7.32381 1.8
    endloop
  endfacet
  facet normal 0.0803353 0.996768 0
    outer loop
      vertex 1.75653 2.96857 1.3
      vertex 1.75653 2.96857 1.8
      vertex 2.20767 2.93221 1.3
    endloop
  endfacet
  facet normal 0 0 1
    outer loop
      vertex 1.75653 2.96857 1.3
      vertex 2.20767 2.93221 1.3
      vertex 2.20767 3.43739 1.3
    endloop
  endfacet
  facet normal 0.0803353 0.996768 -0
    outer loop
      vertex 1.75653 2.96857 1.8
      vertex 2.20767 2.93221 1.8
      vertex 2.20767 2.93221 1.3
    endloop
  endfacet
  facet normal -0 0 1
    outer loop
      vertex 1.76859 7.81204 1.3
      vertex 1.92192 7.32381 1.3
      vertex 2.18053 7.84859 1.3
    endloop
  endfacet
  facet normal 0.0883793 -0.996087 0
    outer loop
      vertex 1.76859 7.81204 1.3
      vertex 2.18053 7.84859 1.3
      vertex 2.18053 7.84859 1.8
    endloop
  endfacet
  facet normal 0.0883793 -0.996087 0
    outer loop
      vertex 1.76859 7.81204 1.3
      vertex 2.18053 7.84859 1.8
      vertex 1.76859 7.81204 1.8
    endloop
  endfacet
  facet normal -0.0908673 0.995863 0
    outer loop
      vertex 1.92192 7.32381 1.3
      vertex 1.92192 7.32381 1.8
      vertex 2.17377 7.34679 1.3
    endloop
  endfacet
  facet normal 0 0 1
    outer loop
      vertex 1.92192 7.32381 1.3
      vertex 2.17377 7.34679 1.3
      vertex 2.18053 7.84859 1.3
    endloop
  endfacet
  facet normal 0 0 1
    outer loop
      vertex 1.92192 7.32381 1.8
      vertex 2.01442 5.69554 1.8
      vertex 2.3239 5.71985 1.8
    endloop
  endfacet
  facet normal -0.0908673 0.995863 0
    outer loop
      vertex 1.92192 7.32381 1.8
      vertex 2.17377 7.34679 1.8
      vertex 2.17377 7.34679 1.3
    endloop
  endfacet
  facet normal -0 0 1
    outer loop
      vertex 1.92192 7.32381 1.8
      vertex 2.3239 5.71985 1.8
      vertex 2.17377 7.34679 1.8
    endloop
  endfacet
  facet normal 0.987674 0.156525 0
    outer loop
      vertex 11.7874 2.24858 3.8147e-07
      vertex 11.7874 2.24858 1.8
      vertex 11.9054 1.504 1.8
    endloop
  endfacet
  facet normal 0.987674 0.156525 0
    outer loop
      vertex 11.7874 2.24858 3.8147e-07
      vertex 11.9054 1.504 1.8
      vertex 11.9054 1.504 3.8147e-07
    endloop
  endfacet
  facet normal 0 0 -1
    outer loop
      vertex 11.7874 2.24858 3.8147e-07
      vertex 11.9054 1.504 3.8147e-07
      vertex 12 0 3.8147e-07
    endloop
  endfacet
  facet normal 0.995567 0.0940499 0
    outer loop
      vertex 11.9054 1.504 3.8147e-07
      vertex 11.9054 1.504 1.8
      vertex 11.9763 0.753486 1.8
    endloop
  endfacet
  facet normal 0.995567 0.0940499 0
    outer loop
      vertex 11.9054 1.504 3.8147e-07
      vertex 11.9763 0.753486 1.8
      vertex 11.9763 0.753486 3.8147e-07
    endloop
  endfacet
  facet normal 0 0 -1
    outer loop
      vertex 11.9054 1.504 3.8147e-07
      vertex 11.9763 0.753486 3.8147e-07
      vertex 12 0 3.8147e-07
    endloop
  endfacet
  facet normal 0.999506 0.0314383 0
    outer loop
      vertex 11.9763 0.753486 3.8147e-07
      vertex 11.9763 0.753486 1.8
      vertex 12 0 1.8
    endloop
  endfacet
  facet normal 0.999506 0.0314383 0
    outer loop
      vertex 11.9763 0.753486 3.8147e-07
      vertex 12 0 1.8
      vertex 12 0 3.8147e-07
    endloop
  endfacet
  facet normal -0 0 1
    outer loop
      vertex 2.01442 5.69554 1.3
      vertex 2.02797 5.1666 1.3
      vertex 2.3239 5.71985 1.3
    endloop
  endfacet
  facet normal 0.0783099 -0.996929 0
    outer loop
      vertex 2.01442 5.69554 1.3
      vertex 2.3239 5.71985 1.3
      vertex 2.3239 5.71985 1.8
    endloop
  endfacet
  facet normal 0.0783099 -0.996929 0
    outer loop
      vertex 2.01442 5.69554 1.3
      vertex 2.3239 5.71985 1.8
      vertex 2.01442 5.69554 1.8
    endloop
  endfacet
  facet normal 0.0697004 0.997568 0
    outer loop
      vertex 2.02797 5.1666 1.3
      vertex 2.02797 5.1666 1.8
      vertex 2.3759 5.14229 1.3
    endloop
  endfacet
  facet normal 0 0 1
    outer loop
      vertex 2.02797 5.1666 1.3
      vertex 2.3759 5.14229 1.3
      vertex 2.3239 5.71985 1.3
    endloop
  endfacet
  facet normal 0 0 1
    outer loop
      vertex 2.02797 5.1666 1.8
      vertex 2.20767 3.43739 1.8
      vertex 2.3759 5.14229 1.8
    endloop
  endfacet
  facet normal 0.0697004 0.997568 -0
    outer loop
      vertex 2.02797 5.1666 1.8
      vertex 2.3759 5.14229 1.8
      vertex 2.3759 5.14229 1.3
    endloop
  endfacet
  facet normal 0.09043 0.995903 0
    outer loop
      vertex 2.17377 7.34679 1.3
      vertex 2.17377 7.34679 1.8
      vertex 2.44557 7.32211 1.3
    endloop
  endfacet
  facet normal 0 0 1
    outer loop
      vertex 2.17377 7.34679 1.3
      vertex 2.44557 7.32211 1.3
      vertex 2.18053 7.84859 1.3
    endloop
  endfacet
  facet normal 0 0 1
    outer loop
      vertex 2.17377 7.34679 1.8
      vertex 2.3239 5.71985 1.8
      vertex 2.44557 7.32211 1.8
    endloop
  endfacet
  facet normal 0.09043 0.995903 -0
    outer loop
      vertex 2.17377 7.34679 1.8
      vertex 2.44557 7.32211 1.8
      vertex 2.44557 7.32211 1.3
    endloop
  endfacet
  facet normal 0 0 1
    outer loop
      vertex 2.18053 7.84859 1.3
      vertex 2.44557 7.32211 1.3
      vertex 2.62415 7.81148 1.3
    endloop
  endfacet
  facet normal -0.0833615 -0.996519 -0
    outer loop
      vertex 2.18053 7.84859 1.3
      vertex 2.62415 7.81148 1.3
      vertex 2.62415 7.81148 1.8
    endloop
  endfacet
  facet normal -0.0833615 -0.996519 0
    outer loop
      vertex 2.18053 7.84859 1.3
      vertex 2.62415 7.81148 1.8
      vertex 2.18053 7.84859 1.8
    endloop
  endfacet
  facet normal -0.0836898 0.996492 0
    outer loop
      vertex 2.20767 2.93221 1.3
      vertex 2.20767 2.93221 1.8
      vertex 2.68764 2.97252 1.3
    endloop
  endfacet
  facet normal 0 0 1
    outer loop
      vertex 2.20767 2.93221 1.3
      vertex 2.49303 3.46263 1.3
      vertex 2.20767 3.43739 1.3
    endloop
  endfacet
  facet normal 0 0 1
    outer loop
      vertex 2.20767 2.93221 1.3
      vertex 2.68764 2.97252 1.3
      vertex 2.49303 3.46263 1.3
    endloop
  endfacet
  facet normal -0 0 1
    outer loop
      vertex 2.20767 2.93221 1.8
      vertex 12 0 1.8
      vertex 2.68764 2.97252 1.8
    endloop
  endfacet
  facet normal -0.0836898 0.996492 0
    outer loop
      vertex 2.20767 2.93221 1.8
      vertex 2.68764 2.97252 1.8
      vertex 2.68764 2.97252 1.3
    endloop
  endfacet
  facet normal 0.0881057 -0.996111 0
    outer loop
      vertex 2.20767 3.43739 1.3
      vertex 2.49303 3.46263 1.3
      vertex 2.49303 3.46263 1.8
    endloop
  endfacet
  facet normal 0.0881057 -0.996111 0
    outer loop
      vertex 2.20767 3.43739 1.3
      vertex 2.49303 3.46263 1.8
      vertex 2.20767 3.43739 1.8
    endloop
  endfacet
  facet normal 0 0 1
    outer loop
      vertex 2.20767 3.43739 1.8
      vertex 2.49303 3.46263 1.8
      vertex 2.3759 5.14229 1.8
    endloop
  endfacet
  facet normal 0 0 1
    outer loop
      vertex 2.3239 5.71985 1.3
      vertex 2.3759 5.14229 1.3
      vertex 2.69592 5.43784 1.3
    endloop
  endfacet
  facet normal 0.270547 -0.962707 0
    outer loop
      vertex 2.3239 5.71985 1.3
      vertex 2.58327 5.79274 1.3
      vertex 2.58327 5.79274 1.8
    endloop
  endfacet
  facet normal 0.270547 -0.962707 0
    outer loop
      vertex 2.3239 5.71985 1.3
      vertex 2.58327 5.79274 1.8
      vertex 2.3239 5.71985 1.8
    endloop
  endfacet
  facet normal 0 0 1
    outer loop
      vertex 2.3239 5.71985 1.3
      vertex 2.69592 5.43784 1.3
      vertex 2.69592 5.45139 1.3
    endloop
  endfacet
  facet normal -0 0 1
    outer loop
      vertex 2.3239 5.71985 1.3
      vertex 2.69592 5.45139 1.3
      vertex 2.58327 5.79274 1.3
    endloop
  endfacet
  facet normal 0 0 1
    outer loop
      vertex 2.3239 5.71985 1.8
      vertex 2.58327 5.79274 1.8
      vertex 2.44557 7.32211 1.8
    endloop
  endfacet
  facet normal 0.244747 0.969587 0
    outer loop
      vertex 2.3759 5.14229 1.3
      vertex 2.3759 5.14229 1.8
      vertex 2.66466 5.0694 1.3
    endloop
  endfacet
  facet normal 0 0 1
    outer loop
      vertex 2.3759 5.14229 1.3
      vertex 2.66466 5.0694 1.3
      vertex 2.69592 5.43784 1.3
    endloop
  endfacet
  facet normal 0 0 1
    outer loop
      vertex 2.3759 5.14229 1.8
      vertex 2.49303 3.46263 1.8
      vertex 2.66466 5.0694 1.8
    endloop
  endfacet
  facet normal 0.244747 0.969587 -0
    outer loop
      vertex 2.3759 5.14229 1.8
      vertex 2.66466 5.0694 1.8
      vertex 2.66466 5.0694 1.3
    endloop
  endfacet
  facet normal 0.314799 0.949158 0
    outer loop
      vertex 2.44557 7.32211 1.3
      vertex 2.44557 7.32211 1.8
      vertex 2.66878 7.24808 1.3
    endloop
  endfacet
  facet normal 0 0 1
    outer loop
      vertex 2.44557 7.32211 1.3
      vertex 2.66878 7.24808 1.3
      vertex 2.62415 7.81148 1.3
    endloop
  endfacet
  facet normal 0 0 1
    outer loop
      vertex 2.44557 7.32211 1.8
      vertex 2.58327 5.79274 1.8
      vertex 3.06888 6.51944 1.8
    endloop
  endfacet
  facet normal 0.314799 0.949158 -0
    outer loop
      vertex 2.44557 7.32211 1.8
      vertex 2.66878 7.24808 1.8
      vertex 2.66878 7.24808 1.3
    endloop
  endfacet
  facet normal 0 0 1
    outer loop
      vertex 2.44557 7.32211 1.8
      vertex 2.96866 6.95872 1.8
      vertex 2.66878 7.24808 1.8
    endloop
  endfacet
  facet normal 0 0 1
    outer loop
      vertex 2.44557 7.32211 1.8
      vertex 3.04382 6.75699 1.8
      vertex 2.96866 6.95872 1.8
    endloop
  endfacet
  facet normal 0 0 1
    outer loop
      vertex 2.44557 7.32211 1.8
      vertex 3.06888 6.51944 1.8
      vertex 3.04382 6.75699 1.8
    endloop
  endfacet
  facet normal -0 0 1
    outer loop
      vertex 2.49303 3.46263 1.3
      vertex 2.68764 2.97252 1.3
      vertex 2.73431 3.53835 1.3
    endloop
  endfacet
  facet normal 0.299428 -0.954119 0
    outer loop
      vertex 2.49303 3.46263 1.3
      vertex 2.73431 3.53835 1.3
      vertex 2.73431 3.53835 1.8
    endloop
  endfacet
  facet normal 0.299428 -0.954119 0
    outer loop
      vertex 2.49303 3.46263 1.3
      vertex 2.73431 3.53835 1.8
      vertex 2.49303 3.46263 1.8
    endloop
  endfacet
  facet normal 0 0 1
    outer loop
      vertex 2.49303 3.46263 1.8
      vertex 2.73431 3.53835 1.8
      vertex 3.16513 4.06541 1.8
    endloop
  endfacet
  facet normal 0 0 1
    outer loop
      vertex 2.49303 3.46263 1.8
      vertex 3.16513 4.06541 1.8
      vertex 2.66466 5.0694 1.8
    endloop
  endfacet
  facet normal -0 0 1
    outer loop
      vertex 2.58327 5.79274 1.3
      vertex 2.69592 5.45139 1.3
      vertex 2.79253 5.91425 1.3
    endloop
  endfacet
  facet normal 0.502148 -0.864781 0
    outer loop
      vertex 2.58327 5.79274 1.3
      vertex 2.79253 5.91425 1.3
      vertex 2.79253 5.91425 1.8
    endloop
  endfacet
  facet normal 0.502148 -0.864781 0
    outer loop
      vertex 2.58327 5.79274 1.3
      vertex 2.79253 5.91425 1.8
      vertex 2.58327 5.79274 1.8
    endloop
  endfacet
  facet normal 0 0 1
    outer loop
      vertex 2.58327 5.79274 1.8
      vertex 2.79253 5.91425 1.8
      vertex 3.03816 6.28043 1.8
    endloop
  endfacet
  facet normal 0 0 1
    outer loop
      vertex 2.58327 5.79274 1.8
      vertex 3.03816 6.28043 1.8
      vertex 3.06888 6.51944 1.8
    endloop
  endfacet
  facet normal 0 0 1
    outer loop
      vertex 2.62415 7.81148 1.3
      vertex 2.66878 7.24808 1.3
      vertex 2.99657 7.70015 1.3
    endloop
  endfacet
  facet normal -0.286413 -0.958106 -0
    outer loop
      vertex 2.62415 7.81148 1.3
      vertex 2.99657 7.70015 1.3
      vertex 2.99657 7.70015 1.8
    endloop
  endfacet
  facet normal -0.286413 -0.958106 0
    outer loop
      vertex 2.62415 7.81148 1.3
      vertex 2.99657 7.70015 1.8
      vertex 2.62415 7.81148 1.8
    endloop
  endfacet
  facet normal 0.467743 0.883865 0
    outer loop
      vertex 2.66466 5.0694 1.3
      vertex 2.66466 5.0694 1.8
      vertex 2.89427 4.94789 1.3
    endloop
  endfacet
  facet normal 0 0 1
    outer loop
      vertex 2.66466 5.0694 1.3
      vertex 2.89427 4.94789 1.3
      vertex 3.02669 5.37228 1.3
    endloop
  endfacet
  facet normal 0 0 1
    outer loop
      vertex 2.66466 5.0694 1.3
      vertex 3.02669 5.37228 1.3
      vertex 2.69592 5.43784 1.3
    endloop
  endfacet
  facet normal 0.467743 0.883865 -0
    outer loop
      vertex 2.66466 5.0694 1.8
      vertex 2.89427 4.94789 1.8
      vertex 2.89427 4.94789 1.3
    endloop
  endfacet
  facet normal 0 0 1
    outer loop
      vertex 2.66466 5.0694 1.8
      vertex 3.16513 4.06541 1.8
      vertex 3.19432 4.33929 1.8
    endloop
  endfacet
  facet normal 0 0 1
    outer loop
      vertex 2.66466 5.0694 1.8
      vertex 3.19432 4.33929 1.8
      vertex 2.89427 4.94789 1.8
    endloop
  endfacet
  facet normal 0.577151 0.816637 0
    outer loop
      vertex 2.66878 7.24808 1.3
      vertex 2.66878 7.24808 1.8
      vertex 2.84337 7.12469 1.3
    endloop
  endfacet
  facet normal 0 0 1
    outer loop
      vertex 2.66878 7.24808 1.3
      vertex 2.84337 7.12469 1.3
      vertex 2.99657 7.70015 1.3
    endloop
  endfacet
  facet normal 0.577151 0.816637 -0
    outer loop
      vertex 2.66878 7.24808 1.8
      vertex 2.84337 7.12469 1.8
      vertex 2.84337 7.12469 1.3
    endloop
  endfacet
  facet normal 0 0 1
    outer loop
      vertex 2.66878 7.24808 1.8
      vertex 2.96866 6.95872 1.8
      vertex 2.84337 7.12469 1.8
    endloop
  endfacet
  facet normal -0.289292 0.957241 0
    outer loop
      vertex 2.68764 2.97252 1.3
      vertex 2.68764 2.97252 1.8
      vertex 3.08772 3.09343 1.3
    endloop
  endfacet
  facet normal 0 0 1
    outer loop
      vertex 2.68764 2.97252 1.3
      vertex 3.08772 3.09343 1.3
      vertex 2.73431 3.53835 1.3
    endloop
  endfacet
  facet normal -0 0 1
    outer loop
      vertex 2.68764 2.97252 1.8
      vertex 12 0 1.8
      vertex 3.08772 3.09343 1.8
    endloop
  endfacet
  facet normal -0.289292 0.957241 0
    outer loop
      vertex 2.68764 2.97252 1.8
      vertex 3.08772 3.09343 1.8
      vertex 3.08772 3.09343 1.3
    endloop
  endfacet
  facet normal -1 -0 0
    outer loop
      vertex 2.69592 5.43784 1.3
      vertex 2.69592 5.43784 1.8
      vertex 2.69592 5.45139 1.8
    endloop
  endfacet
  facet normal -1 0 0
    outer loop
      vertex 2.69592 5.43784 1.3
      vertex 2.69592 5.45139 1.8
      vertex 2.69592 5.45139 1.3
    endloop
  endfacet
  facet normal -0.194422 -0.980918 -0
    outer loop
      vertex 2.69592 5.43784 1.3
      vertex 3.02669 5.37228 1.3
      vertex 3.02669 5.37228 1.8
    endloop
  endfacet
  facet normal -0.194422 -0.980918 0
    outer loop
      vertex 2.69592 5.43784 1.3
      vertex 3.02669 5.37228 1.8
      vertex 2.69592 5.43784 1.8
    endloop
  endfacet
  facet normal 0 0 1
    outer loop
      vertex 2.69592 5.43784 1.8
      vertex 2.99562 5.53975 1.8
      vertex 2.69592 5.45139 1.8
    endloop
  endfacet
  facet normal 0 0 1
    outer loop
      vertex 2.69592 5.43784 1.8
      vertex 3.02669 5.37228 1.8
      vertex 2.99562 5.53975 1.8
    endloop
  endfacet
  facet normal -0.282794 0.959181 0
    outer loop
      vertex 2.69592 5.45139 1.3
      vertex 2.69592 5.45139 1.8
      vertex 2.99562 5.53975 1.3
    endloop
  endfacet
  facet normal 0 0 1
    outer loop
      vertex 2.69592 5.45139 1.3
      vertex 2.99562 5.53975 1.3
      vertex 2.79253 5.91425 1.3
    endloop
  endfacet
  facet normal -0.282794 0.959181 0
    outer loop
      vertex 2.69592 5.45139 1.8
      vertex 2.99562 5.53975 1.8
      vertex 2.99562 5.53975 1.3
    endloop
  endfacet
  facet normal 0.53898 -0.842319 0
    outer loop
      vertex 2.73431 3.53835 1.3
      vertex 2.93152 3.66454 1.3
      vertex 2.93152 3.66454 1.8
    endloop
  endfacet
  facet normal 0.53898 -0.842319 0
    outer loop
      vertex 2.73431 3.53835 1.3
      vertex 2.93152 3.66454 1.8
      vertex 2.73431 3.53835 1.8
    endloop
  endfacet
  facet normal -0 0 1
    outer loop
      vertex 2.73431 3.53835 1.3
      vertex 3.08772 3.09343 1.3
      vertex 2.93152 3.66454 1.3
    endloop
  endfacet
  facet normal 0 0 1
    outer loop
      vertex 2.73431 3.53835 1.8
      vertex 2.93152 3.66454 1.8
      vertex 3.07753 3.8405 1.8
    endloop
  endfacet
  facet normal 0 0 1
    outer loop
      vertex 2.73431 3.53835 1.8
      vertex 3.07753 3.8405 1.8
      vertex 3.16513 4.06541 1.8
    endloop
  endfacet
  facet normal 0.730983 -0.682396 0
    outer loop
      vertex 2.79253 5.91425 1.3
      vertex 2.94604 6.07869 1.3
      vertex 2.79253 5.91425 1.8
    endloop
  endfacet
  facet normal 0 0 1
    outer loop
      vertex 2.79253 5.91425 1.3
      vertex 2.99562 5.53975 1.3
      vertex 3.2437 5.66917 1.3
    endloop
  endfacet
  facet normal -0 0 1
    outer loop
      vertex 2.79253 5.91425 1.3
      vertex 3.2437 5.66917 1.3
      vertex 2.94604 6.07869 1.3
    endloop
  endfacet
  facet normal 0.730983 -0.682396 0
    outer loop
      vertex 2.79253 5.91425 1.8
      vertex 2.94604 6.07869 1.3
      vertex 2.94604 6.07869 1.8
    endloop
  endfacet
  facet normal 0 0 1
    outer loop
      vertex 2.79253 5.91425 1.8
      vertex 2.94604 6.07869 1.8
      vertex 3.03816 6.28043 1.8
    endloop
  endfacet
  facet normal 0.798121 0.602498 0
    outer loop
      vertex 2.84337 7.12469 1.3
      vertex 2.84337 7.12469 1.8
      vertex 2.96866 6.95872 1.8
    endloop
  endfacet
  facet normal 0 0 1
    outer loop
      vertex 2.84337 7.12469 1.3
      vertex 2.96866 6.95872 1.3
      vertex 3.29778 7.51459 1.3
    endloop
  endfacet
  facet normal 0.798121 0.602498 0
    outer loop
      vertex 2.84337 7.12469 1.3
      vertex 2.96866 6.95872 1.8
      vertex 2.96866 6.95872 1.3
    endloop
  endfacet
  facet normal 0 0 1
    outer loop
      vertex 2.84337 7.12469 1.3
      vertex 3.29778 7.51459 1.3
      vertex 2.99657 7.70015 1.3
    endloop
  endfacet
  facet normal 0.703086 0.711105 0
    outer loop
      vertex 2.89427 4.94789 1.3
      vertex 2.89427 4.94789 1.8
      vertex 3.06097 4.78307 1.3
    endloop
  endfacet
  facet normal 0 0 1
    outer loop
      vertex 2.89427 4.94789 1.3
      vertex 3.06097 4.78307 1.3
      vertex 3.3047 5.25249 1.3
    endloop
  endfacet
  facet normal 0 0 1
    outer loop
      vertex 2.89427 4.94789 1.3
      vertex 3.3047 5.25249 1.3
      vertex 3.02669 5.37228 1.3
    endloop
  endfacet
  facet normal 0.703086 0.711105 -0
    outer loop
      vertex 2.89427 4.94789 1.8
      vertex 3.06097 4.78307 1.8
      vertex 3.06097 4.78307 1.3
    endloop
  endfacet
  facet normal 0 0 1
    outer loop
      vertex 2.89427 4.94789 1.8
      vertex 3.16098 4.5802 1.8
      vertex 3.06097 4.78307 1.8
    endloop
  endfacet
  facet normal 0 0 1
    outer loop
      vertex 2.89427 4.94789 1.8
      vertex 3.19432 4.33929 1.8
      vertex 3.16098 4.5802 1.8
    endloop
  endfacet
  facet normal 0.76956 -0.638574 0
    outer loop
      vertex 2.93152 3.66454 1.3
      vertex 3.07753 3.8405 1.3
      vertex 2.93152 3.66454 1.8
    endloop
  endfacet
  facet normal 0 0 1
    outer loop
      vertex 2.93152 3.66454 1.3
      vertex 3.08772 3.09343 1.3
      vertex 3.40793 3.295 1.3
    endloop
  endfacet
  facet normal -0 0 1
    outer loop
      vertex 2.93152 3.66454 1.3
      vertex 3.40793 3.295 1.3
      vertex 3.07753 3.8405 1.3
    endloop
  endfacet
  facet normal 0.76956 -0.638574 0
    outer loop
      vertex 2.93152 3.66454 1.8
      vertex 3.07753 3.8405 1.3
      vertex 3.07753 3.8405 1.8
    endloop
  endfacet
  facet normal 0.909652 -0.415372 0
    outer loop
      vertex 2.94604 6.07869 1.3
      vertex 3.03816 6.28043 1.3
      vertex 2.94604 6.07869 1.8
    endloop
  endfacet
  facet normal 0 0 1
    outer loop
      vertex 2.94604 6.07869 1.3
      vertex 3.2437 5.66917 1.3
      vertex 3.44017 5.83965 1.3
    endloop
  endfacet
  facet normal -0 0 1
    outer loop
      vertex 2.94604 6.07869 1.3
      vertex 3.44017 5.83965 1.3
      vertex 3.03816 6.28043 1.3
    endloop
  endfacet
  facet normal 0.909652 -0.415372 0
    outer loop
      vertex 2.94604 6.07869 1.8
      vertex 3.03816 6.28043 1.3
      vertex 3.03816 6.28043 1.8
    endloop
  endfacet
  facet normal 0.937073 0.349132 0
    outer loop
      vertex 2.96866 6.95872 1.3
      vertex 2.96866 6.95872 1.8
      vertex 3.04382 6.75699 1.8
    endloop
  endfacet
  facet normal 0 0 1
    outer loop
      vertex 2.96866 6.95872 1.3
      vertex 3.04382 6.75699 1.3
      vertex 3.6519 6.95253 1.3
    endloop
  endfacet
  facet normal 0.937073 0.349132 0
    outer loop
      vertex 2.96866 6.95872 1.3
      vertex 3.04382 6.75699 1.8
      vertex 3.04382 6.75699 1.3
    endloop
  endfacet
  facet normal 0 0 1
    outer loop
      vertex 2.96866 6.95872 1.3
      vertex 3.5191 7.26276 1.3
      vertex 3.29778 7.51459 1.3
    endloop
  endfacet
  facet normal -0 0 1
    outer loop
      vertex 2.96866 6.95872 1.3
      vertex 3.6519 6.95253 1.3
      vertex 3.5191 7.26276 1.3
    endloop
  endfacet
  facet normal -0.462529 0.886604 0
    outer loop
      vertex 2.99562 5.53975 1.3
      vertex 2.99562 5.53975 1.8
      vertex 3.2437 5.66917 1.3
    endloop
  endfacet
  facet normal -0 0 1
    outer loop
      vertex 2.99562 5.53975 1.8
      vertex 3.02669 5.37228 1.8
      vertex 3.2437 5.66917 1.8
    endloop
  endfacet
  facet normal -0.462529 0.886604 0
    outer loop
      vertex 2.99562 5.53975 1.8
      vertex 3.2437 5.66917 1.8
      vertex 3.2437 5.66917 1.3
    endloop
  endfacet
  facet normal -0.524507 -0.851406 -0
    outer loop
      vertex 2.99657 7.70015 1.3
      vertex 3.29778 7.51459 1.3
      vertex 3.29778 7.51459 1.8
    endloop
  endfacet
  facet normal -0.524507 -0.851406 0
    outer loop
      vertex 2.99657 7.70015 1.3
      vertex 3.29778 7.51459 1.8
      vertex 2.99657 7.70015 1.8
    endloop
  endfacet
  facet normal -0.395713 -0.918374 -0
    outer loop
      vertex 3.02669 5.37228 1.3
      vertex 3.3047 5.25249 1.3
      vertex 3.3047 5.25249 1.8
    endloop
  endfacet
  facet normal -0.395713 -0.918374 0
    outer loop
      vertex 3.02669 5.37228 1.3
      vertex 3.3047 5.25249 1.8
      vertex 3.02669 5.37228 1.8
    endloop
  endfacet
  facet normal 0 0 1
    outer loop
      vertex 3.02669 5.37228 1.8
      vertex 3.3047 5.25249 1.8
      vertex 3.2437 5.66917 1.8
    endloop
  endfacet
  facet normal 0.991841 -0.127482 0
    outer loop
      vertex 3.03816 6.28043 1.3
      vertex 3.06888 6.51944 1.3
      vertex 3.03816 6.28043 1.8
    endloop
  endfacet
  facet normal 0 0 1
    outer loop
      vertex 3.03816 6.28043 1.3
      vertex 3.44017 5.83965 1.3
      vertex 3.5824 6.04967 1.3
    endloop
  endfacet
  facet normal 0 0 1
    outer loop
      vertex 3.03816 6.28043 1.3
      vertex 3.5824 6.04967 1.3
      vertex 3.66772 6.29776 1.3
    endloop
  endfacet
  facet normal 0 0 1
    outer loop
      vertex 3.03816 6.28043 1.3
      vertex 3.66772 6.29776 1.3
      vertex 3.06888 6.51944 1.3
    endloop
  endfacet
  facet normal 0.991841 -0.127482 0
    outer loop
      vertex 3.03816 6.28043 1.8
      vertex 3.06888 6.51944 1.3
      vertex 3.06888 6.51944 1.8
    endloop
  endfacet
  facet normal 0.994482 0.104911 0
    outer loop
      vertex 3.04382 6.75699 1.3
      vertex 3.04382 6.75699 1.8
      vertex 3.06888 6.51944 1.8
    endloop
  endfacet
  facet normal 0 0 1
    outer loop
      vertex 3.04382 6.75699 1.3
      vertex 3.06888 6.51944 1.3
      vertex 3.69617 6.58389 1.3
    endloop
  endfacet
  facet normal 0.994482 0.104911 0
    outer loop
      vertex 3.04382 6.75699 1.3
      vertex 3.06888 6.51944 1.8
      vertex 3.06888 6.51944 1.3
    endloop
  endfacet
  facet normal -0 0 1
    outer loop
      vertex 3.04382 6.75699 1.3
      vertex 3.69617 6.58389 1.3
      vertex 3.6519 6.95253 1.3
    endloop
  endfacet
  facet normal 0.896933 0.442166 0
    outer loop
      vertex 3.06097 4.78307 1.3
      vertex 3.06097 4.78307 1.8
      vertex 3.16098 4.5802 1.8
    endloop
  endfacet
  facet normal 0 0 1
    outer loop
      vertex 3.06097 4.78307 1.3
      vertex 3.16098 4.5802 1.3
      vertex 3.52997 5.07845 1.3
    endloop
  endfacet
  facet normal 0.896933 0.442166 0
    outer loop
      vertex 3.06097 4.78307 1.3
      vertex 3.16098 4.5802 1.8
      vertex 3.16098 4.5802 1.3
    endloop
  endfacet
  facet normal 0 0 1
    outer loop
      vertex 3.06097 4.78307 1.3
      vertex 3.52997 5.07845 1.3
      vertex 3.3047 5.25249 1.3
    endloop
  endfacet
  facet normal 0 0 1
    outer loop
      vertex 3.06888 6.51944 1.3
      vertex 3.66772 6.29776 1.3
      vertex 3.69617 6.58389 1.3
    endloop
  endfacet
  facet normal 0.931816 -0.362932 0
    outer loop
      vertex 3.07753 3.8405 1.3
      vertex 3.16513 4.06541 1.3
      vertex 3.07753 3.8405 1.8
    endloop
  endfacet
  facet normal 0 0 1
    outer loop
      vertex 3.07753 3.8405 1.3
      vertex 3.40793 3.295 1.3
      vertex 3.64151 3.57001 1.3
    endloop
  endfacet
  facet normal -0 0 1
    outer loop
      vertex 3.07753 3.8405 1.3
      vertex 3.64151 3.57001 1.3
      vertex 3.16513 4.06541 1.3
    endloop
  endfacet
  facet normal 0.931816 -0.362932 0
    outer loop
      vertex 3.07753 3.8405 1.8
      vertex 3.16513 4.06541 1.3
      vertex 3.16513 4.06541 1.8
    endloop
  endfacet
  facet normal -0.532731 0.846285 0
    outer loop
      vertex 3.08772 3.09343 1.3
      vertex 3.08772 3.09343 1.8
      vertex 3.40793 3.295 1.3
    endloop
  endfacet
  facet normal -0 0 1
    outer loop
      vertex 3.08772 3.09343 1.8
      vertex 12 0 1.8
      vertex 3.40793 3.295 1.8
    endloop
  endfacet
  facet normal -0.532731 0.846285 0
    outer loop
      vertex 3.08772 3.09343 1.8
      vertex 3.40793 3.295 1.8
      vertex 3.40793 3.295 1.3
    endloop
  endfacet
  facet normal 0.990559 0.137085 0
    outer loop
      vertex 3.16098 4.5802 1.3
      vertex 3.16098 4.5802 1.8
      vertex 3.19432 4.33929 1.8
    endloop
  endfacet
  facet normal 0 0 1
    outer loop
      vertex 3.16098 4.5802 1.3
      vertex 3.19432 4.33929 1.3
      vertex 3.79521 4.60678 1.3
    endloop
  endfacet
  facet normal 0.990559 0.137085 0
    outer loop
      vertex 3.16098 4.5802 1.3
      vertex 3.19432 4.33929 1.8
      vertex 3.19432 4.33929 1.3
    endloop
  endfacet
  facet normal 0 0 1
    outer loop
      vertex 3.16098 4.5802 1.3
      vertex 3.69576 4.85994 1.3
      vertex 3.52997 5.07845 1.3
    endloop
  endfacet
  facet normal 0 0 1
    outer loop
      vertex 3.16098 4.5802 1.3
      vertex 3.79521 4.60678 1.3
      vertex 3.69576 4.85994 1.3
    endloop
  endfacet
  facet normal 0.994368 -0.105979 0
    outer loop
      vertex 3.16513 4.06541 1.3
      vertex 3.19432 4.33929 1.3
      vertex 3.16513 4.06541 1.8
    endloop
  endfacet
  facet normal 0 0 1
    outer loop
      vertex 3.16513 4.06541 1.3
      vertex 3.64151 3.57001 1.3
      vertex 3.78166 3.91133 1.3
    endloop
  endfacet
  facet normal 0 0 1
    outer loop
      vertex 3.16513 4.06541 1.3
      vertex 3.78166 3.91133 1.3
      vertex 3.82837 4.31894 1.3
    endloop
  endfacet
  facet normal 0 0 1
    outer loop
      vertex 3.16513 4.06541 1.3
      vertex 3.82837 4.31894 1.3
      vertex 3.19432 4.33929 1.3
    endloop
  endfacet
  facet normal 0.994368 -0.105979 0
    outer loop
      vertex 3.16513 4.06541 1.8
      vertex 3.19432 4.33929 1.3
      vertex 3.19432 4.33929 1.8
    endloop
  endfacet
  facet normal -0 0 1
    outer loop
      vertex 3.19432 4.33929 1.3
      vertex 3.82837 4.31894 1.3
      vertex 3.79521 4.60678 1.3
    endloop
  endfacet
  facet normal -0.655383 0.755297 0
    outer loop
      vertex 3.2437 5.66917 1.3
      vertex 3.2437 5.66917 1.8
      vertex 3.44017 5.83965 1.3
    endloop
  endfacet
  facet normal -0 0 1
    outer loop
      vertex 3.2437 5.66917 1.8
      vertex 3.3047 5.25249 1.8
      vertex 3.44017 5.83965 1.8
    endloop
  endfacet
  facet normal -0.655383 0.755297 0
    outer loop
      vertex 3.2437 5.66917 1.8
      vertex 3.44017 5.83965 1.8
      vertex 3.44017 5.83965 1.3
    endloop
  endfacet
  facet normal -0.751143 -0.66014 0
    outer loop
      vertex 3.29778 7.51459 1.3
      vertex 3.5191 7.26276 1.3
      vertex 3.29778 7.51459 1.8
    endloop
  endfacet
  facet normal -0.751143 -0.66014 0
    outer loop
      vertex 3.29778 7.51459 1.8
      vertex 3.5191 7.26276 1.3
      vertex 3.5191 7.26276 1.8
    endloop
  endfacet
  facet normal 0 0 1
    outer loop
      vertex 3.29778 7.51459 1.8
      vertex 3.5191 7.26276 1.8
      vertex 8.5 17.7062 1.8
    endloop
  endfacet
  facet normal -0.611377 -0.79134 -0
    outer loop
      vertex 3.3047 5.25249 1.3
      vertex 3.52997 5.07845 1.3
      vertex 3.52997 5.07845 1.8
    endloop
  endfacet
  facet normal -0.611377 -0.79134 0
    outer loop
      vertex 3.3047 5.25249 1.3
      vertex 3.52997 5.07845 1.8
      vertex 3.3047 5.25249 1.8
    endloop
  endfacet
  facet normal 0 0 1
    outer loop
      vertex 3.3047 5.25249 1.8
      vertex 3.52997 5.07845 1.8
      vertex 3.44017 5.83965 1.8
    endloop
  endfacet
  facet normal -0.762183 0.647361 0
    outer loop
      vertex 3.40793 3.295 1.3
      vertex 3.40793 3.295 1.8
      vertex 3.64151 3.57001 1.8
    endloop
  endfacet
  facet normal -0.762183 0.647361 0
    outer loop
      vertex 3.40793 3.295 1.3
      vertex 3.64151 3.57001 1.8
      vertex 3.64151 3.57001 1.3
    endloop
  endfacet
  facet normal -0 0 1
    outer loop
      vertex 3.40793 3.295 1.8
      vertex 11.9763 0.753486 1.8
      vertex 3.64151 3.57001 1.8
    endloop
  endfacet
  facet normal 0 0 1
    outer loop
      vertex 3.40793 3.295 1.8
      vertex 12 0 1.8
      vertex 11.9763 0.753486 1.8
    endloop
  endfacet
  facet normal -0.827995 0.560736 0
    outer loop
      vertex 3.44017 5.83965 1.3
      vertex 3.44017 5.83965 1.8
      vertex 3.5824 6.04967 1.8
    endloop
  endfacet
  facet normal -0.827995 0.560736 0
    outer loop
      vertex 3.44017 5.83965 1.3
      vertex 3.5824 6.04967 1.8
      vertex 3.5824 6.04967 1.3
    endloop
  endfacet
  facet normal -0 0 1
    outer loop
      vertex 3.44017 5.83965 1.8
      vertex 3.52997 5.07845 1.8
      vertex 3.5824 6.04967 1.8
    endloop
  endfacet
  facet normal -0.919312 -0.393529 0
    outer loop
      vertex 3.5191 7.26276 1.3
      vertex 3.6519 6.95253 1.3
      vertex 3.5191 7.26276 1.8
    endloop
  endfacet
  facet normal -0.919312 -0.393529 0
    outer loop
      vertex 3.5191 7.26276 1.8
      vertex 3.6519 6.95253 1.3
      vertex 3.6519 6.95253 1.8
    endloop
  endfacet
  facet normal 0 0 1
    outer loop
      vertex 3.5191 7.26276 1.8
      vertex 3.6519 6.95253 1.8
      vertex 8.5 17.7062 1.8
    endloop
  endfacet
  facet normal -0.79665 -0.604442 0
    outer loop
      vertex 3.52997 5.07845 1.3
      vertex 3.69576 4.85994 1.3
      vertex 3.52997 5.07845 1.8
    endloop
  endfacet
  facet normal -0.79665 -0.604442 0
    outer loop
      vertex 3.52997 5.07845 1.8
      vertex 3.69576 4.85994 1.3
      vertex 3.69576 4.85994 1.8
    endloop
  endfacet
  facet normal 0 0 1
    outer loop
      vertex 3.52997 5.07845 1.8
      vertex 3.69576 4.85994 1.8
      vertex 3.5824 6.04967 1.8
    endloop
  endfacet
  facet normal -0.945641 0.325213 0
    outer loop
      vertex 3.5824 6.04967 1.3
      vertex 3.5824 6.04967 1.8
      vertex 3.66772 6.29776 1.8
    endloop
  endfacet
  facet normal -0.945641 0.325213 0
    outer loop
      vertex 3.5824 6.04967 1.3
      vertex 3.66772 6.29776 1.8
      vertex 3.66772 6.29776 1.3
    endloop
  endfacet
  facet normal -0 0 1
    outer loop
      vertex 3.5824 6.04967 1.8
      vertex 3.69576 4.85994 1.8
      vertex 3.66772 6.29776 1.8
    endloop
  endfacet
  facet normal -0.925053 0.379838 0
    outer loop
      vertex 3.64151 3.57001 1.3
      vertex 3.64151 3.57001 1.8
      vertex 3.78166 3.91133 1.8
    endloop
  endfacet
  facet normal -0.925053 0.379838 0
    outer loop
      vertex 3.64151 3.57001 1.3
      vertex 3.78166 3.91133 1.8
      vertex 3.78166 3.91133 1.3
    endloop
  endfacet
  facet normal -0 0 1
    outer loop
      vertex 3.64151 3.57001 1.8
      vertex 11.7874 2.24858 1.8
      vertex 3.78166 3.91133 1.8
    endloop
  endfacet
  facet normal 0 0 1
    outer loop
      vertex 3.64151 3.57001 1.8
      vertex 11.9054 1.504 1.8
      vertex 11.7874 2.24858 1.8
    endloop
  endfacet
  facet normal 0 0 1
    outer loop
      vertex 3.64151 3.57001 1.8
      vertex 11.9763 0.753486 1.8
      vertex 11.9054 1.504 1.8
    endloop
  endfacet
  facet normal -0.992866 -0.119233 0
    outer loop
      vertex 3.6519 6.95253 1.3
      vertex 3.69617 6.58389 1.3
      vertex 3.6519 6.95253 1.8
    endloop
  endfacet
  facet normal -0.992866 -0.119233 0
    outer loop
      vertex 3.6519 6.95253 1.8
      vertex 3.69617 6.58389 1.3
      vertex 3.69617 6.58389 1.8
    endloop
  endfacet
  facet normal 0 0 1
    outer loop
      vertex 3.6519 6.95253 1.8
      vertex 3.69617 6.58389 1.8
      vertex 8.5 17.7062 1.8
    endloop
  endfacet
  facet normal -0.995093 0.0989424 0
    outer loop
      vertex 3.66772 6.29776 1.3
      vertex 3.66772 6.29776 1.8
      vertex 3.69617 6.58389 1.8
    endloop
  endfacet
  facet normal -0.995093 0.0989424 0
    outer loop
      vertex 3.66772 6.29776 1.3
      vertex 3.69617 6.58389 1.8
      vertex 3.69617 6.58389 1.3
    endloop
  endfacet
  facet normal 0 0 1
    outer loop
      vertex 3.66772 6.29776 1.8
      vertex 3.69576 4.85994 1.8
      vertex 3.79521 4.60678 1.8
    endloop
  endfacet
  facet normal -0 0 1
    outer loop
      vertex 3.66772 6.29776 1.8
      vertex 3.79521 4.60678 1.8
      vertex 3.69617 6.58389 1.8
    endloop
  endfacet
  facet normal -0.930759 -0.365634 0
    outer loop
      vertex 3.69576 4.85994 1.3
      vertex 3.79521 4.60678 1.3
      vertex 3.69576 4.85994 1.8
    endloop
  endfacet
  facet normal -0.930759 -0.365634 0
    outer loop
      vertex 3.69576 4.85994 1.8
      vertex 3.79521 4.60678 1.3
      vertex 3.79521 4.60678 1.8
    endloop
  endfacet
  facet normal 0 0 1
    outer loop
      vertex 3.69617 6.58389 1.8
      vertex 3.79521 4.60678 1.8
      vertex 3.82837 4.31894 1.8
    endloop
  endfacet
  facet normal 0 0 1
    outer loop
      vertex 3.69617 6.58389 1.8
      vertex 3.82837 4.31894 1.8
      vertex 8.5 17.7062 1.8
    endloop
  endfacet
  facet normal -0.993498 0.11385 0
    outer loop
      vertex 3.78166 3.91133 1.3
      vertex 3.78166 3.91133 1.8
      vertex 3.82837 4.31894 1.8
    endloop
  endfacet
  facet normal -0.993498 0.11385 0
    outer loop
      vertex 3.78166 3.91133 1.3
      vertex 3.82837 4.31894 1.8
      vertex 3.82837 4.31894 1.3
    endloop
  endfacet
  facet normal -0 0 1
    outer loop
      vertex 3.78166 3.91133 1.8
      vertex 11.7874 2.24858 1.8
      vertex 3.82837 4.31894 1.8
    endloop
  endfacet
  facet normal -0.993429 -0.114446 0
    outer loop
      vertex 3.79521 4.60678 1.3
      vertex 3.82837 4.31894 1.3
      vertex 3.79521 4.60678 1.8
    endloop
  endfacet
  facet normal -0.993429 -0.114446 0
    outer loop
      vertex 3.79521 4.60678 1.8
      vertex 3.82837 4.31894 1.3
      vertex 3.82837 4.31894 1.8
    endloop
  endfacet
  facet normal -0 0 1
    outer loop
      vertex 3.82837 4.31894 1.8
      vertex 11.7874 2.24858 1.8
      vertex 8.5 17.7062 1.8
    endloop
  endfacet
  facet normal 1 -0 0
    outer loop
      vertex 8.5 17.7062 1.8
      vertex 8.5 35 3.8147e-07
      vertex 8.5 35 1.8
    endloop
  endfacet
  facet normal 0.978125 0.20802 0
    outer loop
      vertex 8.5 17.7062 3.8147e-07
      vertex 11.7874 2.24858 1.8
      vertex 11.7874 2.24858 3.8147e-07
    endloop
  endfacet
  facet normal 0.978125 0.20802 0
    outer loop
      vertex 8.5 17.7062 3.8147e-07
      vertex 8.5 17.7062 1.8
      vertex 11.7874 2.24858 1.8
    endloop
  endfacet
  facet normal 1 0 0
    outer loop
      vertex 8.5 17.7062 3.8147e-07
      vertex 8.5 35 3.8147e-07
      vertex 8.5 17.7062 1.8
    endloop
  endfacet
endsolid model
