solid model
  facet normal -0.0207072 0.999786 0
    outer loop
      vertex -0.508087 -6.59642 0
      vertex -0.508087 -6.59642 140
      vertex 1.79834 -6.54865 0
    endloop
  endfacet
  facet normal 0 0 -1
    outer loop
      vertex -0.508087 -6.59642 0
      vertex 1.79834 -6.54865 0
      vertex 1.81966 -6.94829 0
    endloop
  endfacet
  facet normal -0.0207072 0.999786 0
    outer loop
      vertex -0.508087 -6.59642 140
      vertex 1.79834 -6.54865 140
      vertex 1.79834 -6.54865 0
    endloop
  endfacet
  facet normal 0 0 1
    outer loop
      vertex -0.508087 -6.59642 140
      vertex 1.81966 -6.94829 140
      vertex 1.79834 -6.54865 140
    endloop
  endfacet
  facet normal -0.0207072 -0.999786 0
    outer loop
      vertex -0.508087 6.59642 0
      vertex 1.79834 6.54865 0
      vertex 1.79834 6.54865 140
    endloop
  endfacet
  facet normal -0.0207072 -0.999786 -0
    outer loop
      vertex -0.508087 6.59642 0
      vertex 1.79834 6.54865 140
      vertex -0.508087 6.59642 140
    endloop
  endfacet
  facet normal 0 0 -1
    outer loop
      vertex -0.508087 6.59642 0
      vertex 1.81966 6.94829 0
      vertex 1.79834 6.54865 0
    endloop
  endfacet
  facet normal 0 0 1
    outer loop
      vertex -0.508087 6.59642 140
      vertex 1.79834 6.54865 140
      vertex 1.81966 6.94829 140
    endloop
  endfacet
  facet normal -0 0 -1
    outer loop
      vertex -0.515594 -6.99666 0
      vertex -0.508087 -6.59642 0
      vertex 1.81966 -6.94829 0
    endloop
  endfacet
  facet normal 0.0207085 -0.999786 0
    outer loop
      vertex -0.515594 -6.99666 0
      vertex 1.81966 -6.94829 0
      vertex -0.515594 -6.99666 140
    endloop
  endfacet
  facet normal 0.0207085 -0.999786 0
    outer loop
      vertex -0.515594 -6.99666 140
      vertex 1.81966 -6.94829 0
      vertex 1.81966 -6.94829 140
    endloop
  endfacet
  facet normal 0 0 1
    outer loop
      vertex -0.515594 -6.99666 140
      vertex 1.81966 -6.94829 140
      vertex -0.508087 -6.59642 140
    endloop
  endfacet
  facet normal 0.0207085 0.999786 -0
    outer loop
      vertex -0.515594 6.99666 0
      vertex -0.515594 6.99666 140
      vertex 1.81966 6.94829 140
    endloop
  endfacet
  facet normal 0 0 -1
    outer loop
      vertex -0.515594 6.99666 0
      vertex 1.81966 6.94829 0
      vertex -0.508087 6.59642 0
    endloop
  endfacet
  facet normal 0.0207085 0.999786 0
    outer loop
      vertex -0.515594 6.99666 0
      vertex 1.81966 6.94829 140
      vertex 1.81966 6.94829 0
    endloop
  endfacet
  facet normal 0 0 1
    outer loop
      vertex -0.515594 6.99666 140
      vertex -0.508087 6.59642 140
      vertex 1.81966 6.94829 140
    endloop
  endfacet
  facet normal 0.674993 0.737824 -0
    outer loop
      vertex -10.294 -3.28888 0
      vertex -10.294 -3.28888 140
      vertex -9.28329 -4.21352 0
    endloop
  endfacet
  facet normal 0 0 -1
    outer loop
      vertex -10.294 -3.28888 0
      vertex -9.28329 -4.21352 0
      vertex -9.52614 -4.53349 0
    endloop
  endfacet
  facet normal 0.674993 0.737824 0
    outer loop
      vertex -10.294 -3.28888 140
      vertex -9.28329 -4.21352 140
      vertex -9.28329 -4.21352 0
    endloop
  endfacet
  facet normal 0 0 1
    outer loop
      vertex -10.294 -3.28888 140
      vertex -9.52614 -4.53349 140
      vertex -9.28329 -4.21352 140
    endloop
  endfacet
  facet normal 0.674993 -0.737824 0
    outer loop
      vertex -10.294 3.28888 0
      vertex -9.28329 4.21352 0
      vertex -9.28329 4.21352 140
    endloop
  endfacet
  facet normal 0.674993 -0.737824 0
    outer loop
      vertex -10.294 3.28888 0
      vertex -9.28329 4.21352 140
      vertex -10.294 3.28888 140
    endloop
  endfacet
  facet normal 0 -0 -1
    outer loop
      vertex -10.294 3.28888 0
      vertex -9.52614 4.53349 0
      vertex -9.28329 4.21352 0
    endloop
  endfacet
  facet normal 0 0 1
    outer loop
      vertex -10.294 3.28888 140
      vertex -9.28329 4.21352 140
      vertex -9.52614 4.53349 140
    endloop
  endfacet
  facet normal 0 0 -1
    outer loop
      vertex -10.5955 -3.55516 0
      vertex -10.294 -3.28888 0
      vertex -9.52614 -4.53349 0
    endloop
  endfacet
  facet normal -0.675006 -0.737813 0
    outer loop
      vertex -10.5955 -3.55516 0
      vertex -9.52614 -4.53349 0
      vertex -10.5955 -3.55516 140
    endloop
  endfacet
  facet normal -0.675006 -0.737813 0
    outer loop
      vertex -10.5955 -3.55516 140
      vertex -9.52614 -4.53349 0
      vertex -9.52614 -4.53349 140
    endloop
  endfacet
  facet normal 0 0 1
    outer loop
      vertex -10.5955 -3.55516 140
      vertex -9.52614 -4.53349 140
      vertex -10.294 -3.28888 140
    endloop
  endfacet
  facet normal -0.675006 0.737813 0
    outer loop
      vertex -10.5955 3.55516 0
      vertex -10.5955 3.55516 140
      vertex -9.52614 4.53349 140
    endloop
  endfacet
  facet normal 0 0 -1
    outer loop
      vertex -10.5955 3.55516 0
      vertex -9.52614 4.53349 0
      vertex -10.294 3.28888 0
    endloop
  endfacet
  facet normal -0.675006 0.737813 0
    outer loop
      vertex -10.5955 3.55516 0
      vertex -9.52614 4.53349 140
      vertex -9.52614 4.53349 0
    endloop
  endfacet
  facet normal -0 0 1
    outer loop
      vertex -10.5955 3.55516 140
      vertex -10.294 3.28888 140
      vertex -9.52614 4.53349 140
    endloop
  endfacet
  facet normal 0 0 -1
    outer loop
      vertex -11.0174 -2.2683 0
      vertex -10.294 -3.28888 0
      vertex -10.5955 -3.55516 0
    endloop
  endfacet
  facet normal 0.81584 0.578278 -0
    outer loop
      vertex -11.0174 -2.2683 0
      vertex -11.0174 -2.2683 140
      vertex -10.294 -3.28888 0
    endloop
  endfacet
  facet normal 0.81584 0.578278 0
    outer loop
      vertex -11.0174 -2.2683 140
      vertex -10.294 -3.28888 140
      vertex -10.294 -3.28888 0
    endloop
  endfacet
  facet normal 0 0 1
    outer loop
      vertex -11.0174 -2.2683 140
      vertex -10.5955 -3.55516 140
      vertex -10.294 -3.28888 140
    endloop
  endfacet
  facet normal 0.81584 -0.578278 0
    outer loop
      vertex -11.0174 2.2683 0
      vertex -10.294 3.28888 0
      vertex -10.294 3.28888 140
    endloop
  endfacet
  facet normal 0.81584 -0.578278 0
    outer loop
      vertex -11.0174 2.2683 0
      vertex -10.294 3.28888 140
      vertex -11.0174 2.2683 140
    endloop
  endfacet
  facet normal 0 -0 -1
    outer loop
      vertex -11.0174 2.2683 0
      vertex -10.5955 3.55516 0
      vertex -10.294 3.28888 0
    endloop
  endfacet
  facet normal 0 0 1
    outer loop
      vertex -11.0174 2.2683 140
      vertex -10.294 3.28888 140
      vertex -10.5955 3.55516 140
    endloop
  endfacet
  facet normal -0.8158 -0.578334 0
    outer loop
      vertex -11.3717 -2.46025 0
      vertex -10.5955 -3.55516 0
      vertex -11.3717 -2.46025 140
    endloop
  endfacet
  facet normal 0 0 -1
    outer loop
      vertex -11.3717 -2.46025 0
      vertex -11.0174 -2.2683 0
      vertex -10.5955 -3.55516 0
    endloop
  endfacet
  facet normal -0.8158 -0.578334 0
    outer loop
      vertex -11.3717 -2.46025 140
      vertex -10.5955 -3.55516 0
      vertex -10.5955 -3.55516 140
    endloop
  endfacet
  facet normal 0 0 1
    outer loop
      vertex -11.3717 -2.46025 140
      vertex -10.5955 -3.55516 140
      vertex -11.0174 -2.2683 140
    endloop
  endfacet
  facet normal 0 0 -1
    outer loop
      vertex -11.3717 2.46025 0
      vertex -10.5955 3.55516 0
      vertex -11.0174 2.2683 0
    endloop
  endfacet
  facet normal -0.8158 0.578334 0
    outer loop
      vertex -11.3717 2.46025 0
      vertex -10.5955 3.55516 140
      vertex -10.5955 3.55516 0
    endloop
  endfacet
  facet normal -0.8158 0.578334 0
    outer loop
      vertex -11.3717 2.46025 0
      vertex -11.3717 2.46025 140
      vertex -10.5955 3.55516 140
    endloop
  endfacet
  facet normal -0 0 1
    outer loop
      vertex -11.3717 2.46025 140
      vertex -11.0174 2.2683 140
      vertex -10.5955 3.55516 140
    endloop
  endfacet
  facet normal 0 0 -1
    outer loop
      vertex -11.4516 -1.17009 0
      vertex -11.0174 -2.2683 0
      vertex -11.3717 -2.46025 0
    endloop
  endfacet
  facet normal 0.929954 0.367676 -0
    outer loop
      vertex -11.4516 -1.17009 0
      vertex -11.4516 -1.17009 140
      vertex -11.0174 -2.2683 0
    endloop
  endfacet
  facet normal 0.929954 0.367676 0
    outer loop
      vertex -11.4516 -1.17009 140
      vertex -11.0174 -2.2683 140
      vertex -11.0174 -2.2683 0
    endloop
  endfacet
  facet normal 0 0 1
    outer loop
      vertex -11.4516 -1.17009 140
      vertex -11.3717 -2.46025 140
      vertex -11.0174 -2.2683 140
    endloop
  endfacet
  facet normal 0.929954 -0.367676 0
    outer loop
      vertex -11.4516 1.17009 0
      vertex -11.0174 2.2683 0
      vertex -11.0174 2.2683 140
    endloop
  endfacet
  facet normal 0.929954 -0.367676 0
    outer loop
      vertex -11.4516 1.17009 0
      vertex -11.0174 2.2683 140
      vertex -11.4516 1.17009 140
    endloop
  endfacet
  facet normal -0 0 -1
    outer loop
      vertex -11.4516 1.17009 0
      vertex -11.3717 2.46025 0
      vertex -11.0174 2.2683 0
    endloop
  endfacet
  facet normal 0 0 1
    outer loop
      vertex -11.4516 1.17009 140
      vertex -11.0174 2.2683 140
      vertex -11.3717 2.46025 140
    endloop
  endfacet
  facet normal 0.992378 -0.123232 0
    outer loop
      vertex -11.5969 0 0
      vertex -11.4516 1.17009 0
      vertex -11.4516 1.17009 140
    endloop
  endfacet
  facet normal 0.992378 -0.123232 0
    outer loop
      vertex -11.5969 0 0
      vertex -11.4516 1.17009 140
      vertex -11.5969 0 140
    endloop
  endfacet
  facet normal 0.992378 0.123232 -0
    outer loop
      vertex -11.5969 0 0
      vertex -11.5969 0 140
      vertex -11.4516 -1.17009 0
    endloop
  endfacet
  facet normal 0.992378 0.123232 0
    outer loop
      vertex -11.5969 0 140
      vertex -11.4516 -1.17009 140
      vertex -11.4516 -1.17009 0
    endloop
  endfacet
  facet normal -0.929971 -0.367632 0
    outer loop
      vertex -11.8423 -1.26981 0
      vertex -11.3717 -2.46025 0
      vertex -11.8423 -1.26981 140
    endloop
  endfacet
  facet normal 0 0 -1
    outer loop
      vertex -11.8423 -1.26981 0
      vertex -11.4516 -1.17009 0
      vertex -11.3717 -2.46025 0
    endloop
  endfacet
  facet normal -0.929971 -0.367632 0
    outer loop
      vertex -11.8423 -1.26981 140
      vertex -11.3717 -2.46025 0
      vertex -11.3717 -2.46025 140
    endloop
  endfacet
  facet normal 0 0 1
    outer loop
      vertex -11.8423 -1.26981 140
      vertex -11.3717 -2.46025 140
      vertex -11.4516 -1.17009 140
    endloop
  endfacet
  facet normal 0 0 -1
    outer loop
      vertex -11.8423 1.26981 0
      vertex -11.3717 2.46025 0
      vertex -11.4516 1.17009 0
    endloop
  endfacet
  facet normal -0.929971 0.367632 0
    outer loop
      vertex -11.8423 1.26981 0
      vertex -11.3717 2.46025 140
      vertex -11.3717 2.46025 0
    endloop
  endfacet
  facet normal -0.929971 0.367632 0
    outer loop
      vertex -11.8423 1.26981 0
      vertex -11.8423 1.26981 140
      vertex -11.3717 2.46025 140
    endloop
  endfacet
  facet normal 0 0 1
    outer loop
      vertex -11.8423 1.26981 140
      vertex -11.4516 1.17009 140
      vertex -11.3717 2.46025 140
    endloop
  endfacet
  facet normal -0 0 -1
    outer loop
      vertex -12 0 0
      vertex -11.4516 -1.17009 0
      vertex -11.8423 -1.26981 0
    endloop
  endfacet
  facet normal 0 0 -1
    outer loop
      vertex -12 0 0
      vertex -11.4516 1.17009 0
      vertex -11.5969 0 0
    endloop
  endfacet
  facet normal -0 -0 -1
    outer loop
      vertex -12 0 0
      vertex -11.5969 0 0
      vertex -11.4516 -1.17009 0
    endloop
  endfacet
  facet normal -0.992376 -0.123245 0
    outer loop
      vertex -12 0 0
      vertex -11.8423 -1.26981 0
      vertex -12 0 140
    endloop
  endfacet
  facet normal -0 0 -1
    outer loop
      vertex -12 0 0
      vertex -11.8423 1.26981 0
      vertex -11.4516 1.17009 0
    endloop
  endfacet
  facet normal -0.992376 0.123245 0
    outer loop
      vertex -12 0 0
      vertex -11.8423 1.26981 140
      vertex -11.8423 1.26981 0
    endloop
  endfacet
  facet normal -0.992376 0.123245 0
    outer loop
      vertex -12 0 0
      vertex -12 0 140
      vertex -11.8423 1.26981 140
    endloop
  endfacet
  facet normal -0 0 1
    outer loop
      vertex -12 0 140
      vertex -11.4516 -1.17009 140
      vertex -11.5969 0 140
    endloop
  endfacet
  facet normal 0 0 1
    outer loop
      vertex -12 0 140
      vertex -11.4516 1.17009 140
      vertex -11.8423 1.26981 140
    endloop
  endfacet
  facet normal 0 0 1
    outer loop
      vertex -12 0 140
      vertex -11.5969 0 140
      vertex -11.4516 1.17009 140
    endloop
  endfacet
  facet normal -0.992376 -0.123245 0
    outer loop
      vertex -12 0 140
      vertex -11.8423 -1.26981 0
      vertex -11.8423 -1.26981 140
    endloop
  endfacet
  facet normal 0 0 1
    outer loop
      vertex -12 0 140
      vertex -11.8423 -1.26981 140
      vertex -11.4516 -1.17009 140
    endloop
  endfacet
  facet normal -0 0 -1
    outer loop
      vertex -2.67401 -6.46912 0
      vertex -0.508087 -6.59642 0
      vertex -0.515594 -6.99666 0
    endloop
  endfacet
  facet normal 0.0586728 0.998277 -0
    outer loop
      vertex -2.67401 -6.46912 0
      vertex -2.67401 -6.46912 140
      vertex -0.508087 -6.59642 0
    endloop
  endfacet
  facet normal 0.0586728 0.998277 0
    outer loop
      vertex -2.67401 -6.46912 140
      vertex -0.508087 -6.59642 140
      vertex -0.508087 -6.59642 0
    endloop
  endfacet
  facet normal 0 0 1
    outer loop
      vertex -2.67401 -6.46912 140
      vertex -0.515594 -6.99666 140
      vertex -0.508087 -6.59642 140
    endloop
  endfacet
  facet normal 0.0586728 -0.998277 0
    outer loop
      vertex -2.67401 6.46912 0
      vertex -0.508087 6.59642 0
      vertex -0.508087 6.59642 140
    endloop
  endfacet
  facet normal 0.0586728 -0.998277 0
    outer loop
      vertex -2.67401 6.46912 0
      vertex -0.508087 6.59642 140
      vertex -2.67401 6.46912 140
    endloop
  endfacet
  facet normal 0 0 -1
    outer loop
      vertex -2.67401 6.46912 0
      vertex -0.515594 6.99666 0
      vertex -0.508087 6.59642 0
    endloop
  endfacet
  facet normal 0 0 1
    outer loop
      vertex -2.67401 6.46912 140
      vertex -0.508087 6.59642 140
      vertex -0.515594 6.99666 140
    endloop
  endfacet
  facet normal -0.058669 -0.998277 0
    outer loop
      vertex -2.71654 -6.86731 0
      vertex -0.515594 -6.99666 0
      vertex -2.71654 -6.86731 140
    endloop
  endfacet
  facet normal 0 0 -1
    outer loop
      vertex -2.71654 -6.86731 0
      vertex -2.67401 -6.46912 0
      vertex -0.515594 -6.99666 0
    endloop
  endfacet
  facet normal -0.058669 -0.998277 0
    outer loop
      vertex -2.71654 -6.86731 140
      vertex -0.515594 -6.99666 0
      vertex -0.515594 -6.99666 140
    endloop
  endfacet
  facet normal 0 0 1
    outer loop
      vertex -2.71654 -6.86731 140
      vertex -0.515594 -6.99666 140
      vertex -2.67401 -6.46912 140
    endloop
  endfacet
  facet normal 0 0 -1
    outer loop
      vertex -2.71654 6.86731 0
      vertex -0.515594 6.99666 0
      vertex -2.67401 6.46912 0
    endloop
  endfacet
  facet normal -0.058669 0.998277 0
    outer loop
      vertex -2.71654 6.86731 0
      vertex -0.515594 6.99666 140
      vertex -0.515594 6.99666 0
    endloop
  endfacet
  facet normal -0.058669 0.998277 0
    outer loop
      vertex -2.71654 6.86731 0
      vertex -2.71654 6.86731 140
      vertex -0.515594 6.99666 140
    endloop
  endfacet
  facet normal 0 0 1
    outer loop
      vertex -2.71654 6.86731 140
      vertex -2.67401 6.46912 140
      vertex -0.515594 6.99666 140
    endloop
  endfacet
  facet normal 0 0 -1
    outer loop
      vertex -4.66467 -6.1601 0
      vertex -2.67401 -6.46912 0
      vertex -2.71654 -6.86731 0
    endloop
  endfacet
  facet normal 0.153398 0.988165 -0
    outer loop
      vertex -4.66467 -6.1601 0
      vertex -4.66467 -6.1601 140
      vertex -2.67401 -6.46912 0
    endloop
  endfacet
  facet normal 0.153398 0.988165 0
    outer loop
      vertex -4.66467 -6.1601 140
      vertex -2.67401 -6.46912 140
      vertex -2.67401 -6.46912 0
    endloop
  endfacet
  facet normal 0 0 1
    outer loop
      vertex -4.66467 -6.1601 140
      vertex -2.71654 -6.86731 140
      vertex -2.67401 -6.46912 140
    endloop
  endfacet
  facet normal 0.153398 -0.988165 0
    outer loop
      vertex -4.66467 6.1601 0
      vertex -2.67401 6.46912 0
      vertex -2.67401 6.46912 140
    endloop
  endfacet
  facet normal 0.153398 -0.988165 0
    outer loop
      vertex -4.66467 6.1601 0
      vertex -2.67401 6.46912 140
      vertex -4.66467 6.1601 140
    endloop
  endfacet
  facet normal 0 0 -1
    outer loop
      vertex -4.66467 6.1601 0
      vertex -2.71654 6.86731 0
      vertex -2.67401 6.46912 0
    endloop
  endfacet
  facet normal 0 0 1
    outer loop
      vertex -4.66467 6.1601 140
      vertex -2.67401 6.46912 140
      vertex -2.71654 6.86731 140
    endloop
  endfacet
  facet normal -0.153407 -0.988163 0
    outer loop
      vertex -4.74849 -6.55186 0
      vertex -2.71654 -6.86731 0
      vertex -4.74849 -6.55186 140
    endloop
  endfacet
  facet normal 0 0 -1
    outer loop
      vertex -4.74849 -6.55186 0
      vertex -4.66467 -6.1601 0
      vertex -2.71654 -6.86731 0
    endloop
  endfacet
  facet normal -0.153407 -0.988163 0
    outer loop
      vertex -4.74849 -6.55186 140
      vertex -2.71654 -6.86731 0
      vertex -2.71654 -6.86731 140
    endloop
  endfacet
  facet normal 0 0 1
    outer loop
      vertex -4.74849 -6.55186 140
      vertex -2.71654 -6.86731 140
      vertex -4.66467 -6.1601 140
    endloop
  endfacet
  facet normal 0 0 -1
    outer loop
      vertex -4.74849 6.55186 0
      vertex -2.71654 6.86731 0
      vertex -4.66467 6.1601 0
    endloop
  endfacet
  facet normal -0.153407 0.988163 0
    outer loop
      vertex -4.74849 6.55186 0
      vertex -2.71654 6.86731 140
      vertex -2.71654 6.86731 0
    endloop
  endfacet
  facet normal -0.153407 0.988163 0
    outer loop
      vertex -4.74849 6.55186 0
      vertex -4.74849 6.55186 140
      vertex -2.71654 6.86731 140
    endloop
  endfacet
  facet normal 0 -0 1
    outer loop
      vertex -4.74849 6.55186 140
      vertex -4.66467 6.1601 140
      vertex -2.71654 6.86731 140
    endloop
  endfacet
  facet normal 0 0 -1
    outer loop
      vertex -6.448 -5.67181 0
      vertex -4.66467 -6.1601 0
      vertex -4.74849 -6.55186 0
    endloop
  endfacet
  facet normal 0.264087 0.964499 -0
    outer loop
      vertex -6.448 -5.67181 0
      vertex -6.448 -5.67181 140
      vertex -4.66467 -6.1601 0
    endloop
  endfacet
  facet normal 0.264087 0.964499 0
    outer loop
      vertex -6.448 -5.67181 140
      vertex -4.66467 -6.1601 140
      vertex -4.66467 -6.1601 0
    endloop
  endfacet
  facet normal 0 -0 1
    outer loop
      vertex -6.448 -5.67181 140
      vertex -4.74849 -6.55186 140
      vertex -4.66467 -6.1601 140
    endloop
  endfacet
  facet normal 0.264087 -0.964499 0
    outer loop
      vertex -6.448 5.67181 0
      vertex -4.66467 6.1601 0
      vertex -4.66467 6.1601 140
    endloop
  endfacet
  facet normal 0.264087 -0.964499 0
    outer loop
      vertex -6.448 5.67181 0
      vertex -4.66467 6.1601 140
      vertex -6.448 5.67181 140
    endloop
  endfacet
  facet normal 0 0 -1
    outer loop
      vertex -6.448 5.67181 0
      vertex -4.74849 6.55186 0
      vertex -4.66467 6.1601 0
    endloop
  endfacet
  facet normal 0 0 1
    outer loop
      vertex -6.448 5.67181 140
      vertex -4.66467 6.1601 140
      vertex -4.74849 6.55186 140
    endloop
  endfacet
  facet normal -0.264077 -0.964502 0
    outer loop
      vertex -6.57938 -6.05057 0
      vertex -4.74849 -6.55186 0
      vertex -6.57938 -6.05057 140
    endloop
  endfacet
  facet normal 0 -0 -1
    outer loop
      vertex -6.57938 -6.05057 0
      vertex -6.448 -5.67181 0
      vertex -4.74849 -6.55186 0
    endloop
  endfacet
  facet normal -0.264077 -0.964502 0
    outer loop
      vertex -6.57938 -6.05057 140
      vertex -4.74849 -6.55186 0
      vertex -4.74849 -6.55186 140
    endloop
  endfacet
  facet normal -0 0 1
    outer loop
      vertex -6.57938 -6.05057 140
      vertex -4.74849 -6.55186 140
      vertex -6.448 -5.67181 140
    endloop
  endfacet
  facet normal 0 0 -1
    outer loop
      vertex -6.57938 6.05057 0
      vertex -4.74849 6.55186 0
      vertex -6.448 5.67181 0
    endloop
  endfacet
  facet normal -0.264077 0.964502 0
    outer loop
      vertex -6.57938 6.05057 0
      vertex -4.74849 6.55186 140
      vertex -4.74849 6.55186 0
    endloop
  endfacet
  facet normal -0.264077 0.964502 0
    outer loop
      vertex -6.57938 6.05057 0
      vertex -6.57938 6.05057 140
      vertex -4.74849 6.55186 140
    endloop
  endfacet
  facet normal 0 -0 1
    outer loop
      vertex -6.57938 6.05057 140
      vertex -6.448 5.67181 140
      vertex -4.74849 6.55186 140
    endloop
  endfacet
  facet normal 0 0 -1
    outer loop
      vertex -7.99535 -5.01631 0
      vertex -6.448 -5.67181 0
      vertex -6.57938 -6.05057 0
    endloop
  endfacet
  facet normal 0.39007 0.920785 -0
    outer loop
      vertex -7.99535 -5.01631 0
      vertex -7.99535 -5.01631 140
      vertex -6.448 -5.67181 0
    endloop
  endfacet
  facet normal 0.39007 0.920785 0
    outer loop
      vertex -7.99535 -5.01631 140
      vertex -6.448 -5.67181 140
      vertex -6.448 -5.67181 0
    endloop
  endfacet
  facet normal 0 -0 1
    outer loop
      vertex -7.99535 -5.01631 140
      vertex -6.57938 -6.05057 140
      vertex -6.448 -5.67181 140
    endloop
  endfacet
  facet normal 0.39007 -0.920785 0
    outer loop
      vertex -7.99535 5.01631 0
      vertex -6.448 5.67181 0
      vertex -6.448 5.67181 140
    endloop
  endfacet
  facet normal 0.39007 -0.920785 0
    outer loop
      vertex -7.99535 5.01631 0
      vertex -6.448 5.67181 140
      vertex -7.99535 5.01631 140
    endloop
  endfacet
  facet normal 0 0 -1
    outer loop
      vertex -7.99535 5.01631 0
      vertex -6.57938 6.05057 0
      vertex -6.448 5.67181 0
    endloop
  endfacet
  facet normal 0 0 1
    outer loop
      vertex -7.99535 5.01631 140
      vertex -6.448 5.67181 140
      vertex -6.57938 6.05057 140
    endloop
  endfacet
  facet normal -0.39007 -0.920785 0
    outer loop
      vertex -8.18034 -5.37236 0
      vertex -6.57938 -6.05057 0
      vertex -8.18034 -5.37236 140
    endloop
  endfacet
  facet normal 0 -0 -1
    outer loop
      vertex -8.18034 -5.37236 0
      vertex -7.99535 -5.01631 0
      vertex -6.57938 -6.05057 0
    endloop
  endfacet
  facet normal -0.39007 -0.920785 0
    outer loop
      vertex -8.18034 -5.37236 140
      vertex -6.57938 -6.05057 0
      vertex -6.57938 -6.05057 140
    endloop
  endfacet
  facet normal -0 0 1
    outer loop
      vertex -8.18034 -5.37236 140
      vertex -6.57938 -6.05057 140
      vertex -7.99535 -5.01631 140
    endloop
  endfacet
  facet normal 0 0 -1
    outer loop
      vertex -8.18034 5.37236 0
      vertex -6.57938 6.05057 0
      vertex -7.99535 5.01631 0
    endloop
  endfacet
  facet normal -0.39007 0.920785 0
    outer loop
      vertex -8.18034 5.37236 0
      vertex -6.57938 6.05057 140
      vertex -6.57938 6.05057 0
    endloop
  endfacet
  facet normal -0.39007 0.920785 0
    outer loop
      vertex -8.18034 5.37236 0
      vertex -8.18034 5.37236 140
      vertex -6.57938 6.05057 140
    endloop
  endfacet
  facet normal 0 -0 1
    outer loop
      vertex -8.18034 5.37236 140
      vertex -7.99535 5.01631 140
      vertex -6.57938 6.05057 140
    endloop
  endfacet
  facet normal 0 0 -1
    outer loop
      vertex -9.28329 -4.21352 0
      vertex -7.99535 -5.01631 0
      vertex -8.18034 -5.37236 0
    endloop
  endfacet
  facet normal 0.528969 0.848641 -0
    outer loop
      vertex -9.28329 -4.21352 0
      vertex -9.28329 -4.21352 140
      vertex -7.99535 -5.01631 0
    endloop
  endfacet
  facet normal 0.528969 0.848641 0
    outer loop
      vertex -9.28329 -4.21352 140
      vertex -7.99535 -5.01631 140
      vertex -7.99535 -5.01631 0
    endloop
  endfacet
  facet normal 0 -0 1
    outer loop
      vertex -9.28329 -4.21352 140
      vertex -8.18034 -5.37236 140
      vertex -7.99535 -5.01631 140
    endloop
  endfacet
  facet normal 0.528969 -0.848641 0
    outer loop
      vertex -9.28329 4.21352 0
      vertex -7.99535 5.01631 0
      vertex -7.99535 5.01631 140
    endloop
  endfacet
  facet normal 0.528969 -0.848641 0
    outer loop
      vertex -9.28329 4.21352 0
      vertex -7.99535 5.01631 140
      vertex -9.28329 4.21352 140
    endloop
  endfacet
  facet normal 0 -0 -1
    outer loop
      vertex -9.28329 4.21352 0
      vertex -8.18034 5.37236 0
      vertex -7.99535 5.01631 0
    endloop
  endfacet
  facet normal 0 0 1
    outer loop
      vertex -9.28329 4.21352 140
      vertex -7.99535 5.01631 140
      vertex -8.18034 5.37236 140
    endloop
  endfacet
  facet normal -0.528976 -0.848637 0
    outer loop
      vertex -9.52614 -4.53349 0
      vertex -8.18034 -5.37236 0
      vertex -9.52614 -4.53349 140
    endloop
  endfacet
  facet normal 0 -0 -1
    outer loop
      vertex -9.52614 -4.53349 0
      vertex -9.28329 -4.21352 0
      vertex -8.18034 -5.37236 0
    endloop
  endfacet
  facet normal -0.528976 -0.848637 0
    outer loop
      vertex -9.52614 -4.53349 140
      vertex -8.18034 -5.37236 0
      vertex -8.18034 -5.37236 140
    endloop
  endfacet
  facet normal -0 0 1
    outer loop
      vertex -9.52614 -4.53349 140
      vertex -8.18034 -5.37236 140
      vertex -9.28329 -4.21352 140
    endloop
  endfacet
  facet normal 0 0 -1
    outer loop
      vertex -9.52614 4.53349 0
      vertex -8.18034 5.37236 0
      vertex -9.28329 4.21352 0
    endloop
  endfacet
  facet normal -0.528976 0.848637 0
    outer loop
      vertex -9.52614 4.53349 0
      vertex -8.18034 5.37236 140
      vertex -8.18034 5.37236 0
    endloop
  endfacet
  facet normal -0.528976 0.848637 0
    outer loop
      vertex -9.52614 4.53349 0
      vertex -9.52614 4.53349 140
      vertex -8.18034 5.37236 140
    endloop
  endfacet
  facet normal 0 0 1
    outer loop
      vertex -9.52614 4.53349 140
      vertex -9.28329 4.21352 140
      vertex -8.18034 5.37236 140
    endloop
  endfacet
  facet normal -0.0861127 0.996285 0
    outer loop
      vertex 1.79834 -6.54865 0
      vertex 1.79834 -6.54865 140
      vertex 4.20712 -6.34045 0
    endloop
  endfacet
  facet normal 0 0 -1
    outer loop
      vertex 1.79834 -6.54865 0
      vertex 4.20712 -6.34045 0
      vertex 4.25237 -6.73804 0
    endloop
  endfacet
  facet normal 0 0 -1
    outer loop
      vertex 1.79834 -6.54865 0
      vertex 4.25237 -6.73804 0
      vertex 1.81966 -6.94829 0
    endloop
  endfacet
  facet normal 0 -0 1
    outer loop
      vertex 1.79834 -6.54865 140
      vertex 1.81966 -6.94829 140
      vertex 4.25237 -6.73804 140
    endloop
  endfacet
  facet normal -0.0861127 0.996285 0
    outer loop
      vertex 1.79834 -6.54865 140
      vertex 4.20712 -6.34045 140
      vertex 4.20712 -6.34045 0
    endloop
  endfacet
  facet normal 0 0 1
    outer loop
      vertex 1.79834 -6.54865 140
      vertex 4.25237 -6.73804 140
      vertex 4.20712 -6.34045 140
    endloop
  endfacet
  facet normal 0 -0 -1
    outer loop
      vertex 1.79834 6.54865 0
      vertex 1.81966 6.94829 0
      vertex 4.25237 6.73804 0
    endloop
  endfacet
  facet normal -0.0861127 -0.996285 0
    outer loop
      vertex 1.79834 6.54865 0
      vertex 4.20712 6.34045 0
      vertex 4.20712 6.34045 140
    endloop
  endfacet
  facet normal -0.0861127 -0.996285 -0
    outer loop
      vertex 1.79834 6.54865 0
      vertex 4.20712 6.34045 140
      vertex 1.79834 6.54865 140
    endloop
  endfacet
  facet normal 0 0 -1
    outer loop
      vertex 1.79834 6.54865 0
      vertex 4.25237 6.73804 0
      vertex 4.20712 6.34045 0
    endloop
  endfacet
  facet normal 0 -0 1
    outer loop
      vertex 1.79834 6.54865 140
      vertex 4.20712 6.34045 140
      vertex 4.25237 6.73804 140
    endloop
  endfacet
  facet normal 0 0 1
    outer loop
      vertex 1.79834 6.54865 140
      vertex 4.25237 6.73804 140
      vertex 1.81966 6.94829 140
    endloop
  endfacet
  facet normal 0.0861053 -0.996286 0
    outer loop
      vertex 1.81966 -6.94829 0
      vertex 4.25237 -6.73804 0
      vertex 1.81966 -6.94829 140
    endloop
  endfacet
  facet normal 0.0861053 -0.996286 0
    outer loop
      vertex 1.81966 -6.94829 140
      vertex 4.25237 -6.73804 0
      vertex 4.25237 -6.73804 140
    endloop
  endfacet
  facet normal 0.0861053 0.996286 -0
    outer loop
      vertex 1.81966 6.94829 0
      vertex 1.81966 6.94829 140
      vertex 4.25237 6.73804 140
    endloop
  endfacet
  facet normal 0.0861053 0.996286 0
    outer loop
      vertex 1.81966 6.94829 0
      vertex 4.25237 6.73804 140
      vertex 4.25237 6.73804 0
    endloop
  endfacet
  facet normal -0.246601 0.969117 0
    outer loop
      vertex 11.6546 -4.97667 0
      vertex 11.6546 -4.97667 140
      vertex 14.0766 -4.36037 0
    endloop
  endfacet
  facet normal 0 -0 -1
    outer loop
      vertex 11.6546 -4.97667 0
      vertex 14.0766 -4.36037 0
      vertex 14.1803 -4.74672 0
    endloop
  endfacet
  facet normal 0 0 -1
    outer loop
      vertex 11.6546 -4.97667 0
      vertex 14.1803 -4.74672 0
      vertex 11.7476 -5.36574 0
    endloop
  endfacet
  facet normal 0 -0 1
    outer loop
      vertex 11.6546 -4.97667 140
      vertex 11.7476 -5.36574 140
      vertex 14.1803 -4.74672 140
    endloop
  endfacet
  facet normal -0.246601 0.969117 0
    outer loop
      vertex 11.6546 -4.97667 140
      vertex 14.0766 -4.36037 140
      vertex 14.0766 -4.36037 0
    endloop
  endfacet
  facet normal 0 0 1
    outer loop
      vertex 11.6546 -4.97667 140
      vertex 14.1803 -4.74672 140
      vertex 14.0766 -4.36037 140
    endloop
  endfacet
  facet normal 0 -0 -1
    outer loop
      vertex 11.6546 4.97667 0
      vertex 11.7476 5.36574 0
      vertex 14.1803 4.74672 0
    endloop
  endfacet
  facet normal -0.246601 -0.969117 0
    outer loop
      vertex 11.6546 4.97667 0
      vertex 14.0766 4.36037 0
      vertex 14.0766 4.36037 140
    endloop
  endfacet
  facet normal -0.246601 -0.969117 -0
    outer loop
      vertex 11.6546 4.97667 0
      vertex 14.0766 4.36037 140
      vertex 11.6546 4.97667 140
    endloop
  endfacet
  facet normal -0 0 -1
    outer loop
      vertex 11.6546 4.97667 0
      vertex 14.1803 4.74672 0
      vertex 14.0766 4.36037 0
    endloop
  endfacet
  facet normal 0 0 1
    outer loop
      vertex 11.6546 4.97667 140
      vertex 14.0766 4.36037 140
      vertex 14.1803 4.74672 140
    endloop
  endfacet
  facet normal -0 0 1
    outer loop
      vertex 11.6546 4.97667 140
      vertex 14.1803 4.74672 140
      vertex 11.7476 5.36574 140
    endloop
  endfacet
  facet normal 0.2466 -0.969117 0
    outer loop
      vertex 11.7476 -5.36574 0
      vertex 14.1803 -4.74672 0
      vertex 11.7476 -5.36574 140
    endloop
  endfacet
  facet normal 0.2466 -0.969117 0
    outer loop
      vertex 11.7476 -5.36574 140
      vertex 14.1803 -4.74672 0
      vertex 14.1803 -4.74672 140
    endloop
  endfacet
  facet normal 0.2466 0.969117 -0
    outer loop
      vertex 11.7476 5.36574 0
      vertex 11.7476 5.36574 140
      vertex 14.1803 4.74672 140
    endloop
  endfacet
  facet normal 0.2466 0.969117 0
    outer loop
      vertex 11.7476 5.36574 0
      vertex 14.1803 4.74672 140
      vertex 14.1803 4.74672 0
    endloop
  endfacet
  facet normal -0.271123 0.962545 0
    outer loop
      vertex 14.0766 -4.36037 0
      vertex 14.0766 -4.36037 140
      vertex 16.4032 -3.70503 0
    endloop
  endfacet
  facet normal -0 0 -1
    outer loop
      vertex 14.0766 -4.36037 0
      vertex 16.4032 -3.70503 0
      vertex 16.5156 -4.08894 0
    endloop
  endfacet
  facet normal 0 0 -1
    outer loop
      vertex 14.0766 -4.36037 0
      vertex 16.5156 -4.08894 0
      vertex 14.1803 -4.74672 0
    endloop
  endfacet
  facet normal -0 0 1
    outer loop
      vertex 14.0766 -4.36037 140
      vertex 14.1803 -4.74672 140
      vertex 16.5156 -4.08894 140
    endloop
  endfacet
  facet normal -0.271123 0.962545 0
    outer loop
      vertex 14.0766 -4.36037 140
      vertex 16.4032 -3.70503 140
      vertex 16.4032 -3.70503 0
    endloop
  endfacet
  facet normal 0 0 1
    outer loop
      vertex 14.0766 -4.36037 140
      vertex 16.5156 -4.08894 140
      vertex 16.4032 -3.70503 140
    endloop
  endfacet
  facet normal 0 0 -1
    outer loop
      vertex 14.0766 4.36037 0
      vertex 14.1803 4.74672 0
      vertex 16.5156 4.08894 0
    endloop
  endfacet
  facet normal -0.271123 -0.962545 0
    outer loop
      vertex 14.0766 4.36037 0
      vertex 16.4032 3.70503 0
      vertex 16.4032 3.70503 140
    endloop
  endfacet
  facet normal -0.271123 -0.962545 -0
    outer loop
      vertex 14.0766 4.36037 0
      vertex 16.4032 3.70503 140
      vertex 14.0766 4.36037 140
    endloop
  endfacet
  facet normal -0 0 -1
    outer loop
      vertex 14.0766 4.36037 0
      vertex 16.5156 4.08894 0
      vertex 16.4032 3.70503 0
    endloop
  endfacet
  facet normal 0 0 1
    outer loop
      vertex 14.0766 4.36037 140
      vertex 16.4032 3.70503 140
      vertex 16.5156 4.08894 140
    endloop
  endfacet
  facet normal 0 0 1
    outer loop
      vertex 14.0766 4.36037 140
      vertex 16.5156 4.08894 140
      vertex 14.1803 4.74672 140
    endloop
  endfacet
  facet normal 0.271119 -0.962546 0
    outer loop
      vertex 14.1803 -4.74672 0
      vertex 16.5156 -4.08894 0
      vertex 14.1803 -4.74672 140
    endloop
  endfacet
  facet normal 0.271119 -0.962546 0
    outer loop
      vertex 14.1803 -4.74672 140
      vertex 16.5156 -4.08894 0
      vertex 16.5156 -4.08894 140
    endloop
  endfacet
  facet normal 0.271119 0.962546 -0
    outer loop
      vertex 14.1803 4.74672 0
      vertex 14.1803 4.74672 140
      vertex 16.5156 4.08894 140
    endloop
  endfacet
  facet normal 0.271119 0.962546 0
    outer loop
      vertex 14.1803 4.74672 0
      vertex 16.5156 4.08894 140
      vertex 16.5156 4.08894 0
    endloop
  endfacet
  facet normal -0.29245 0.956281 0
    outer loop
      vertex 16.4032 -3.70503 0
      vertex 16.4032 -3.70503 140
      vertex 18.5957 -3.03452 0
    endloop
  endfacet
  facet normal -0 0 -1
    outer loop
      vertex 16.4032 -3.70503 0
      vertex 18.5957 -3.03452 0
      vertex 18.7165 -3.41583 0
    endloop
  endfacet
  facet normal 0 0 -1
    outer loop
      vertex 16.4032 -3.70503 0
      vertex 18.7165 -3.41583 0
      vertex 16.5156 -4.08894 0
    endloop
  endfacet
  facet normal 0 0 1
    outer loop
      vertex 16.4032 -3.70503 140
      vertex 16.5156 -4.08894 140
      vertex 18.7165 -3.41583 140
    endloop
  endfacet
  facet normal -0.29245 0.956281 0
    outer loop
      vertex 16.4032 -3.70503 140
      vertex 18.5957 -3.03452 140
      vertex 18.5957 -3.03452 0
    endloop
  endfacet
  facet normal 0 0 1
    outer loop
      vertex 16.4032 -3.70503 140
      vertex 18.7165 -3.41583 140
      vertex 18.5957 -3.03452 140
    endloop
  endfacet
  facet normal 0 0 -1
    outer loop
      vertex 16.4032 3.70503 0
      vertex 16.5156 4.08894 0
      vertex 18.7165 3.41583 0
    endloop
  endfacet
  facet normal -0.29245 -0.956281 0
    outer loop
      vertex 16.4032 3.70503 0
      vertex 18.5957 3.03452 0
      vertex 18.5957 3.03452 140
    endloop
  endfacet
  facet normal -0.29245 -0.956281 -0
    outer loop
      vertex 16.4032 3.70503 0
      vertex 18.5957 3.03452 140
      vertex 16.4032 3.70503 140
    endloop
  endfacet
  facet normal -0 0 -1
    outer loop
      vertex 16.4032 3.70503 0
      vertex 18.7165 3.41583 0
      vertex 18.5957 3.03452 0
    endloop
  endfacet
  facet normal 0 0 1
    outer loop
      vertex 16.4032 3.70503 140
      vertex 18.5957 3.03452 140
      vertex 18.7165 3.41583 140
    endloop
  endfacet
  facet normal 0 0 1
    outer loop
      vertex 16.4032 3.70503 140
      vertex 18.7165 3.41583 140
      vertex 16.5156 4.08894 140
    endloop
  endfacet
  facet normal 0.292462 -0.956277 0
    outer loop
      vertex 16.5156 -4.08894 0
      vertex 18.7165 -3.41583 0
      vertex 16.5156 -4.08894 140
    endloop
  endfacet
  facet normal 0.292462 -0.956277 0
    outer loop
      vertex 16.5156 -4.08894 140
      vertex 18.7165 -3.41583 0
      vertex 18.7165 -3.41583 140
    endloop
  endfacet
  facet normal 0.292462 0.956277 -0
    outer loop
      vertex 16.5156 4.08894 0
      vertex 16.5156 4.08894 140
      vertex 18.7165 3.41583 140
    endloop
  endfacet
  facet normal 0.292462 0.956277 0
    outer loop
      vertex 16.5156 4.08894 0
      vertex 18.7165 3.41583 140
      vertex 18.7165 3.41583 0
    endloop
  endfacet
  facet normal -0.31152 0.95024 0
    outer loop
      vertex 18.5957 -3.03452 0
      vertex 18.5957 -3.03452 140
      vertex 20.6203 -2.37079 0
    endloop
  endfacet
  facet normal -0 0 -1
    outer loop
      vertex 18.5957 -3.03452 0
      vertex 20.6203 -2.37079 0
      vertex 20.7485 -2.74973 0
    endloop
  endfacet
  facet normal 0 0 -1
    outer loop
      vertex 18.5957 -3.03452 0
      vertex 20.7485 -2.74973 0
      vertex 18.7165 -3.41583 0
    endloop
  endfacet
  facet normal 0 0 1
    outer loop
      vertex 18.5957 -3.03452 140
      vertex 18.7165 -3.41583 140
      vertex 20.7485 -2.74973 140
    endloop
  endfacet
  facet normal -0.31152 0.95024 0
    outer loop
      vertex 18.5957 -3.03452 140
      vertex 20.6203 -2.37079 140
      vertex 20.6203 -2.37079 0
    endloop
  endfacet
  facet normal 0 0 1
    outer loop
      vertex 18.5957 -3.03452 140
      vertex 20.7485 -2.74973 140
      vertex 20.6203 -2.37079 140
    endloop
  endfacet
  facet normal 0 -0 -1
    outer loop
      vertex 18.5957 3.03452 0
      vertex 18.7165 3.41583 0
      vertex 20.7485 2.74973 0
    endloop
  endfacet
  facet normal -0.31152 -0.95024 0
    outer loop
      vertex 18.5957 3.03452 0
      vertex 20.6203 2.37079 0
      vertex 20.6203 2.37079 140
    endloop
  endfacet
  facet normal -0.31152 -0.95024 -0
    outer loop
      vertex 18.5957 3.03452 0
      vertex 20.6203 2.37079 140
      vertex 18.5957 3.03452 140
    endloop
  endfacet
  facet normal -0 0 -1
    outer loop
      vertex 18.5957 3.03452 0
      vertex 20.7485 2.74973 0
      vertex 20.6203 2.37079 0
    endloop
  endfacet
  facet normal 0 0 1
    outer loop
      vertex 18.5957 3.03452 140
      vertex 20.6203 2.37079 140
      vertex 20.7485 2.74973 140
    endloop
  endfacet
  facet normal -0 0 1
    outer loop
      vertex 18.5957 3.03452 140
      vertex 20.7485 2.74973 140
      vertex 18.7165 3.41583 140
    endloop
  endfacet
  facet normal 0.311496 -0.950247 0
    outer loop
      vertex 18.7165 -3.41583 0
      vertex 20.7485 -2.74973 0
      vertex 18.7165 -3.41583 140
    endloop
  endfacet
  facet normal 0.311496 -0.950247 0
    outer loop
      vertex 18.7165 -3.41583 140
      vertex 20.7485 -2.74973 0
      vertex 20.7485 -2.74973 140
    endloop
  endfacet
  facet normal 0.311496 0.950247 -0
    outer loop
      vertex 18.7165 3.41583 0
      vertex 18.7165 3.41583 140
      vertex 20.7485 2.74973 140
    endloop
  endfacet
  facet normal 0.311496 0.950247 0
    outer loop
      vertex 18.7165 3.41583 0
      vertex 20.7485 2.74973 140
      vertex 20.7485 2.74973 0
    endloop
  endfacet
  facet normal -0.328773 0.944409 0
    outer loop
      vertex 20.6203 -2.37079 0
      vertex 20.6203 -2.37079 140
      vertex 22.4451 -1.73553 0
    endloop
  endfacet
  facet normal -0 0 -1
    outer loop
      vertex 20.6203 -2.37079 0
      vertex 22.4451 -1.73553 0
      vertex 22.5794 -2.11232 0
    endloop
  endfacet
  facet normal 0 0 -1
    outer loop
      vertex 20.6203 -2.37079 0
      vertex 22.5794 -2.11232 0
      vertex 20.7485 -2.74973 0
    endloop
  endfacet
  facet normal 0 0 1
    outer loop
      vertex 20.6203 -2.37079 140
      vertex 20.7485 -2.74973 140
      vertex 22.5794 -2.11232 140
    endloop
  endfacet
  facet normal -0.328773 0.944409 0
    outer loop
      vertex 20.6203 -2.37079 140
      vertex 22.4451 -1.73553 140
      vertex 22.4451 -1.73553 0
    endloop
  endfacet
  facet normal 0 0 1
    outer loop
      vertex 20.6203 -2.37079 140
      vertex 22.5794 -2.11232 140
      vertex 22.4451 -1.73553 140
    endloop
  endfacet
  facet normal 0 -0 -1
    outer loop
      vertex 20.6203 2.37079 0
      vertex 20.7485 2.74973 0
      vertex 22.5794 2.11232 0
    endloop
  endfacet
  facet normal -0.328773 -0.944409 0
    outer loop
      vertex 20.6203 2.37079 0
      vertex 22.4451 1.73553 0
      vertex 22.4451 1.73553 140
    endloop
  endfacet
  facet normal -0.328773 -0.944409 -0
    outer loop
      vertex 20.6203 2.37079 0
      vertex 22.4451 1.73553 140
      vertex 20.6203 2.37079 140
    endloop
  endfacet
  facet normal -0 0 -1
    outer loop
      vertex 20.6203 2.37079 0
      vertex 22.5794 2.11232 0
      vertex 22.4451 1.73553 0
    endloop
  endfacet
  facet normal 0 0 1
    outer loop
      vertex 20.6203 2.37079 140
      vertex 22.4451 1.73553 140
      vertex 22.5794 2.11232 140
    endloop
  endfacet
  facet normal -0 0 1
    outer loop
      vertex 20.6203 2.37079 140
      vertex 22.5794 2.11232 140
      vertex 20.7485 2.74973 140
    endloop
  endfacet
  facet normal 0.328785 -0.944405 0
    outer loop
      vertex 20.7485 -2.74973 0
      vertex 22.5794 -2.11232 0
      vertex 20.7485 -2.74973 140
    endloop
  endfacet
  facet normal 0.328785 -0.944405 0
    outer loop
      vertex 20.7485 -2.74973 140
      vertex 22.5794 -2.11232 0
      vertex 22.5794 -2.11232 140
    endloop
  endfacet
  facet normal 0.328785 0.944405 -0
    outer loop
      vertex 20.7485 2.74973 0
      vertex 20.7485 2.74973 140
      vertex 22.5794 2.11232 140
    endloop
  endfacet
  facet normal 0.328785 0.944405 0
    outer loop
      vertex 20.7485 2.74973 0
      vertex 22.5794 2.11232 140
      vertex 22.5794 2.11232 0
    endloop
  endfacet
  facet normal -0.344445 0.938807 0
    outer loop
      vertex 22.4451 -1.73553 0
      vertex 22.4451 -1.73553 140
      vertex 24.0398 -1.15044 0
    endloop
  endfacet
  facet normal -0 0 -1
    outer loop
      vertex 22.4451 -1.73553 0
      vertex 24.0398 -1.15044 0
      vertex 24.1803 -1.52493 0
    endloop
  endfacet
  facet normal 0 0 -1
    outer loop
      vertex 22.4451 -1.73553 0
      vertex 24.1803 -1.52493 0
      vertex 22.5794 -2.11232 0
    endloop
  endfacet
  facet normal 0 0 1
    outer loop
      vertex 22.4451 -1.73553 140
      vertex 22.5794 -2.11232 140
      vertex 24.1803 -1.52493 140
    endloop
  endfacet
  facet normal -0.344445 0.938807 0
    outer loop
      vertex 22.4451 -1.73553 140
      vertex 24.0398 -1.15044 140
      vertex 24.0398 -1.15044 0
    endloop
  endfacet
  facet normal 0 0 1
    outer loop
      vertex 22.4451 -1.73553 140
      vertex 24.1803 -1.52493 140
      vertex 24.0398 -1.15044 140
    endloop
  endfacet
  facet normal 0 -0 -1
    outer loop
      vertex 22.4451 1.73553 0
      vertex 22.5794 2.11232 0
      vertex 24.1803 1.52493 0
    endloop
  endfacet
  facet normal -0.344445 -0.938807 0
    outer loop
      vertex 22.4451 1.73553 0
      vertex 24.0398 1.15044 0
      vertex 24.0398 1.15044 140
    endloop
  endfacet
  facet normal -0.344445 -0.938807 -0
    outer loop
      vertex 22.4451 1.73553 0
      vertex 24.0398 1.15044 140
      vertex 22.4451 1.73553 140
    endloop
  endfacet
  facet normal -0 0 -1
    outer loop
      vertex 22.4451 1.73553 0
      vertex 24.1803 1.52493 0
      vertex 24.0398 1.15044 0
    endloop
  endfacet
  facet normal 0 0 1
    outer loop
      vertex 22.4451 1.73553 140
      vertex 24.0398 1.15044 140
      vertex 24.1803 1.52493 140
    endloop
  endfacet
  facet normal -0 0 1
    outer loop
      vertex 22.4451 1.73553 140
      vertex 24.1803 1.52493 140
      vertex 22.5794 2.11232 140
    endloop
  endfacet
  facet normal 0.344458 -0.938802 0
    outer loop
      vertex 22.5794 -2.11232 0
      vertex 24.1803 -1.52493 0
      vertex 22.5794 -2.11232 140
    endloop
  endfacet
  facet normal 0.344458 -0.938802 0
    outer loop
      vertex 22.5794 -2.11232 140
      vertex 24.1803 -1.52493 0
      vertex 24.1803 -1.52493 140
    endloop
  endfacet
  facet normal 0.344458 0.938802 -0
    outer loop
      vertex 22.5794 2.11232 0
      vertex 22.5794 2.11232 140
      vertex 24.1803 1.52493 140
    endloop
  endfacet
  facet normal 0.344458 0.938802 0
    outer loop
      vertex 22.5794 2.11232 0
      vertex 24.1803 1.52493 140
      vertex 24.1803 1.52493 0
    endloop
  endfacet
  facet normal -0.358382 0.933575 0
    outer loop
      vertex 24.0398 -1.15044 0
      vertex 24.0398 -1.15044 140
      vertex 25.3797 -0.636078 0
    endloop
  endfacet
  facet normal 0 0 -1
    outer loop
      vertex 24.0398 -1.15044 0
      vertex 25.3797 -0.636078 0
      vertex 24.1803 -1.52493 0
    endloop
  endfacet
  facet normal 0 0 1
    outer loop
      vertex 24.0398 -1.15044 140
      vertex 24.1803 -1.52493 140
      vertex 25.3797 -0.636078 140
    endloop
  endfacet
  facet normal -0.358382 0.933575 0
    outer loop
      vertex 24.0398 -1.15044 140
      vertex 25.3797 -0.636078 140
      vertex 25.3797 -0.636078 0
    endloop
  endfacet
  facet normal 0 -0 -1
    outer loop
      vertex 24.0398 1.15044 0
      vertex 24.1803 1.52493 0
      vertex 25.3797 0.636078 0
    endloop
  endfacet
  facet normal -0.358382 -0.933575 0
    outer loop
      vertex 24.0398 1.15044 0
      vertex 25.3797 0.636078 0
      vertex 25.3797 0.636078 140
    endloop
  endfacet
  facet normal -0.358382 -0.933575 -0
    outer loop
      vertex 24.0398 1.15044 0
      vertex 25.3797 0.636078 140
      vertex 24.0398 1.15044 140
    endloop
  endfacet
  facet normal -0 0 1
    outer loop
      vertex 24.0398 1.15044 140
      vertex 25.3797 0.636078 140
      vertex 24.1803 1.52493 140
    endloop
  endfacet
  facet normal -0 0 -1
    outer loop
      vertex 24.1803 -1.52493 0
      vertex 25.3797 -0.636078 0
      vertex 25.5261 -1.00833 0
    endloop
  endfacet
  facet normal 0.358365 -0.933581 0
    outer loop
      vertex 24.1803 -1.52493 0
      vertex 25.5261 -1.00833 0
      vertex 24.1803 -1.52493 140
    endloop
  endfacet
  facet normal 0.358365 -0.933581 0
    outer loop
      vertex 24.1803 -1.52493 140
      vertex 25.5261 -1.00833 0
      vertex 25.5261 -1.00833 140
    endloop
  endfacet
  facet normal 0 0 1
    outer loop
      vertex 24.1803 -1.52493 140
      vertex 25.5261 -1.00833 140
      vertex 25.3797 -0.636078 140
    endloop
  endfacet
  facet normal 0.358365 0.933581 -0
    outer loop
      vertex 24.1803 1.52493 0
      vertex 24.1803 1.52493 140
      vertex 25.5261 1.00833 140
    endloop
  endfacet
  facet normal 0 0 -1
    outer loop
      vertex 24.1803 1.52493 0
      vertex 25.5261 1.00833 0
      vertex 25.3797 0.636078 0
    endloop
  endfacet
  facet normal 0.358365 0.933581 0
    outer loop
      vertex 24.1803 1.52493 0
      vertex 25.5261 1.00833 140
      vertex 25.5261 1.00833 0
    endloop
  endfacet
  facet normal 0 -0 1
    outer loop
      vertex 24.1803 1.52493 140
      vertex 25.3797 0.636078 140
      vertex 25.5261 1.00833 140
    endloop
  endfacet
  facet normal -0.370214 0.928946 0
    outer loop
      vertex 25.3797 -0.636078 0
      vertex 25.3797 -0.636078 140
      vertex 26.4462 -0.211044 0
    endloop
  endfacet
  facet normal 0 -0 -1
    outer loop
      vertex 25.3797 -0.636078 0
      vertex 26.4462 -0.211044 0
      vertex 26.5955 -0.582138 0
    endloop
  endfacet
  facet normal 0 0 -1
    outer loop
      vertex 25.3797 -0.636078 0
      vertex 26.5955 -0.582138 0
      vertex 25.5261 -1.00833 0
    endloop
  endfacet
  facet normal 0 0 1
    outer loop
      vertex 25.3797 -0.636078 140
      vertex 25.5261 -1.00833 140
      vertex 26.5955 -0.582138 140
    endloop
  endfacet
  facet normal -0.370214 0.928946 0
    outer loop
      vertex 25.3797 -0.636078 140
      vertex 26.4462 -0.211044 140
      vertex 26.4462 -0.211044 0
    endloop
  endfacet
  facet normal 0 0 1
    outer loop
      vertex 25.3797 -0.636078 140
      vertex 26.5955 -0.582138 140
      vertex 26.4462 -0.211044 140
    endloop
  endfacet
  facet normal 0 0 -1
    outer loop
      vertex 25.3797 0.636078 0
      vertex 25.5261 1.00833 0
      vertex 26.5955 0.582138 0
    endloop
  endfacet
  facet normal -0.370214 -0.928946 0
    outer loop
      vertex 25.3797 0.636078 0
      vertex 26.4462 0.211044 0
      vertex 26.4462 0.211044 140
    endloop
  endfacet
  facet normal -0.370214 -0.928946 -0
    outer loop
      vertex 25.3797 0.636078 0
      vertex 26.4462 0.211044 140
      vertex 25.3797 0.636078 140
    endloop
  endfacet
  facet normal 0 0 -1
    outer loop
      vertex 25.3797 0.636078 0
      vertex 26.5955 0.582138 0
      vertex 26.4462 0.211044 0
    endloop
  endfacet
  facet normal 0 -0 1
    outer loop
      vertex 25.3797 0.636078 140
      vertex 26.4462 0.211044 140
      vertex 26.5955 0.582138 140
    endloop
  endfacet
  facet normal 0 0 1
    outer loop
      vertex 25.3797 0.636078 140
      vertex 26.5955 0.582138 140
      vertex 25.5261 1.00833 140
    endloop
  endfacet
  facet normal 0.370216 -0.928946 0
    outer loop
      vertex 25.5261 -1.00833 0
      vertex 26.5955 -0.582138 0
      vertex 25.5261 -1.00833 140
    endloop
  endfacet
  facet normal 0.370216 -0.928946 0
    outer loop
      vertex 25.5261 -1.00833 140
      vertex 26.5955 -0.582138 0
      vertex 26.5955 -0.582138 140
    endloop
  endfacet
  facet normal 0.370216 0.928946 -0
    outer loop
      vertex 25.5261 1.00833 0
      vertex 25.5261 1.00833 140
      vertex 26.5955 0.582138 140
    endloop
  endfacet
  facet normal 0.370216 0.928946 0
    outer loop
      vertex 25.5261 1.00833 0
      vertex 26.5955 0.582138 140
      vertex 26.5955 0.582138 0
    endloop
  endfacet
  facet normal -0.379632 0.925138 0
    outer loop
      vertex 26.4462 -0.211044 0
      vertex 26.4462 -0.211044 140
      vertex 26.9605 0 0
    endloop
  endfacet
  facet normal 0 0 -1
    outer loop
      vertex 26.4462 -0.211044 0
      vertex 26.9605 0 0
      vertex 26.5955 -0.582138 0
    endloop
  endfacet
  facet normal -0 0 1
    outer loop
      vertex 26.4462 -0.211044 140
      vertex 26.5955 -0.582138 140
      vertex 26.9605 0 140
    endloop
  endfacet
  facet normal -0.379632 0.925138 0
    outer loop
      vertex 26.4462 -0.211044 140
      vertex 26.9605 0 140
      vertex 26.9605 0 0
    endloop
  endfacet
  facet normal 0 0 -1
    outer loop
      vertex 26.4462 0.211044 0
      vertex 26.5955 0.582138 0
      vertex 26.9605 0 0
    endloop
  endfacet
  facet normal -0.379632 -0.925138 0
    outer loop
      vertex 26.4462 0.211044 0
      vertex 26.9605 0 0
      vertex 26.9605 0 140
    endloop
  endfacet
  facet normal -0.379632 -0.925138 -0
    outer loop
      vertex 26.4462 0.211044 0
      vertex 26.9605 0 140
      vertex 26.4462 0.211044 140
    endloop
  endfacet
  facet normal 0 0 1
    outer loop
      vertex 26.4462 0.211044 140
      vertex 26.9605 0 140
      vertex 26.5955 0.582138 140
    endloop
  endfacet
  facet normal 0 -0 -1
    outer loop
      vertex 26.5955 -0.582138 0
      vertex 26.9605 0 0
      vertex 27.3717 -0.263672 0
    endloop
  endfacet
  facet normal 0.379582 -0.925158 0
    outer loop
      vertex 26.5955 -0.582138 0
      vertex 27.3717 -0.263672 0
      vertex 26.5955 -0.582138 140
    endloop
  endfacet
  facet normal 0.379582 -0.925158 0
    outer loop
      vertex 26.5955 -0.582138 140
      vertex 27.3717 -0.263672 0
      vertex 27.3717 -0.263672 140
    endloop
  endfacet
  facet normal 0 0 1
    outer loop
      vertex 26.5955 -0.582138 140
      vertex 27.3717 -0.263672 140
      vertex 26.9605 0 140
    endloop
  endfacet
  facet normal 0.379582 0.925158 -0
    outer loop
      vertex 26.5955 0.582138 0
      vertex 26.5955 0.582138 140
      vertex 27.3717 0.263672 140
    endloop
  endfacet
  facet normal 0 0 -1
    outer loop
      vertex 26.5955 0.582138 0
      vertex 27.3717 0.263672 0
      vertex 26.9605 0 0
    endloop
  endfacet
  facet normal 0.379582 0.925158 0
    outer loop
      vertex 26.5955 0.582138 0
      vertex 27.3717 0.263672 140
      vertex 27.3717 0.263672 0
    endloop
  endfacet
  facet normal 0 0 1
    outer loop
      vertex 26.5955 0.582138 140
      vertex 26.9605 0 140
      vertex 27.3717 0.263672 140
    endloop
  endfacet
  facet normal 0 0 -1
    outer loop
      vertex 26.9605 0 0
      vertex 27.3717 0.263672 0
      vertex 27.3717 -0.263672 0
    endloop
  endfacet
  facet normal 0 0 1
    outer loop
      vertex 26.9605 0 140
      vertex 27.3717 -0.263672 140
      vertex 27.3717 0.263672 140
    endloop
  endfacet
  facet normal 0 0 -1
    outer loop
      vertex 27.3717 -0.263672 0
      vertex 27.3717 0.263672 0
      vertex 27.8423 -0.0666809 0
    endloop
  endfacet
  facet normal 0.386131 -0.922444 0
    outer loop
      vertex 27.3717 -0.263672 0
      vertex 27.8423 -0.0666809 0
      vertex 27.3717 -0.263672 140
    endloop
  endfacet
  facet normal 0.386131 -0.922444 0
    outer loop
      vertex 27.3717 -0.263672 140
      vertex 27.8423 -0.0666809 0
      vertex 27.8423 -0.0666809 140
    endloop
  endfacet
  facet normal 0 0 1
    outer loop
      vertex 27.3717 -0.263672 140
      vertex 27.8423 -0.0666809 140
      vertex 27.3717 0.263672 140
    endloop
  endfacet
  facet normal 0.386131 0.922444 -0
    outer loop
      vertex 27.3717 0.263672 0
      vertex 27.3717 0.263672 140
      vertex 27.8423 0.0666809 140
    endloop
  endfacet
  facet normal 0 0 -1
    outer loop
      vertex 27.3717 0.263672 0
      vertex 27.8423 0.0666809 0
      vertex 27.8423 -0.0666809 0
    endloop
  endfacet
  facet normal 0.386131 0.922444 0
    outer loop
      vertex 27.3717 0.263672 0
      vertex 27.8423 0.0666809 140
      vertex 27.8423 0.0666809 0
    endloop
  endfacet
  facet normal 0 -0 1
    outer loop
      vertex 27.3717 0.263672 140
      vertex 27.8423 -0.0666809 140
      vertex 27.8423 0.0666809 140
    endloop
  endfacet
  facet normal 0 0 -1
    outer loop
      vertex 27.8423 -0.0666809 0
      vertex 27.8423 0.0666809 0
      vertex 28 0 0
    endloop
  endfacet
  facet normal 0.38945 -0.921048 0
    outer loop
      vertex 27.8423 -0.0666809 0
      vertex 28 0 0
      vertex 27.8423 -0.0666809 140
    endloop
  endfacet
  facet normal 0.38945 -0.921048 0
    outer loop
      vertex 27.8423 -0.0666809 140
      vertex 28 0 0
      vertex 28 0 140
    endloop
  endfacet
  facet normal 0 0 1
    outer loop
      vertex 27.8423 -0.0666809 140
      vertex 28 0 140
      vertex 27.8423 0.0666809 140
    endloop
  endfacet
  facet normal 0.38945 0.921048 -0
    outer loop
      vertex 27.8423 0.0666809 0
      vertex 27.8423 0.0666809 140
      vertex 28 0 140
    endloop
  endfacet
  facet normal 0.38945 0.921048 0
    outer loop
      vertex 27.8423 0.0666809 0
      vertex 28 0 140
      vertex 28 0 0
    endloop
  endfacet
  facet normal -0.139331 0.990246 0
    outer loop
      vertex 4.20712 -6.34045 0
      vertex 4.20712 -6.34045 140
      vertex 6.67998 -5.99251 0
    endloop
  endfacet
  facet normal 0 -0 -1
    outer loop
      vertex 4.20712 -6.34045 0
      vertex 6.67998 -5.99251 0
      vertex 6.74419 -6.38742 0
    endloop
  endfacet
  facet normal 0 0 -1
    outer loop
      vertex 4.20712 -6.34045 0
      vertex 6.74419 -6.38742 0
      vertex 4.25237 -6.73804 0
    endloop
  endfacet
  facet normal 0 -0 1
    outer loop
      vertex 4.20712 -6.34045 140
      vertex 4.25237 -6.73804 140
      vertex 6.74419 -6.38742 140
    endloop
  endfacet
  facet normal -0.139331 0.990246 0
    outer loop
      vertex 4.20712 -6.34045 140
      vertex 6.67998 -5.99251 140
      vertex 6.67998 -5.99251 0
    endloop
  endfacet
  facet normal -0 0 1
    outer loop
      vertex 4.20712 -6.34045 140
      vertex 6.74419 -6.38742 140
      vertex 6.67998 -5.99251 140
    endloop
  endfacet
  facet normal -0 0 -1
    outer loop
      vertex 4.20712 6.34045 0
      vertex 4.25237 6.73804 0
      vertex 6.74419 6.38742 0
    endloop
  endfacet
  facet normal -0.139331 -0.990246 0
    outer loop
      vertex 4.20712 6.34045 0
      vertex 6.67998 5.99251 0
      vertex 6.67998 5.99251 140
    endloop
  endfacet
  facet normal -0.139331 -0.990246 -0
    outer loop
      vertex 4.20712 6.34045 0
      vertex 6.67998 5.99251 140
      vertex 4.20712 6.34045 140
    endloop
  endfacet
  facet normal 0 0 -1
    outer loop
      vertex 4.20712 6.34045 0
      vertex 6.74419 6.38742 0
      vertex 6.67998 5.99251 0
    endloop
  endfacet
  facet normal -0 0 1
    outer loop
      vertex 4.20712 6.34045 140
      vertex 6.67998 5.99251 140
      vertex 6.74419 6.38742 140
    endloop
  endfacet
  facet normal 0 0 1
    outer loop
      vertex 4.20712 6.34045 140
      vertex 6.74419 6.38742 140
      vertex 4.25237 6.73804 140
    endloop
  endfacet
  facet normal 0.139336 -0.990245 0
    outer loop
      vertex 4.25237 -6.73804 0
      vertex 6.74419 -6.38742 0
      vertex 4.25237 -6.73804 140
    endloop
  endfacet
  facet normal 0.139336 -0.990245 0
    outer loop
      vertex 4.25237 -6.73804 140
      vertex 6.74419 -6.38742 0
      vertex 6.74419 -6.38742 140
    endloop
  endfacet
  facet normal 0.139336 0.990245 -0
    outer loop
      vertex 4.25237 6.73804 0
      vertex 4.25237 6.73804 140
      vertex 6.74419 6.38742 140
    endloop
  endfacet
  facet normal 0.139336 0.990245 0
    outer loop
      vertex 4.25237 6.73804 0
      vertex 6.74419 6.38742 140
      vertex 6.74419 6.38742 0
    endloop
  endfacet
  facet normal -0.182477 0.98321 0
    outer loop
      vertex 6.67998 -5.99251 0
      vertex 6.67998 -5.99251 140
      vertex 9.17581 -5.5293 0
    endloop
  endfacet
  facet normal -0 0 -1
    outer loop
      vertex 6.67998 -5.99251 0
      vertex 9.17581 -5.5293 0
      vertex 9.2558 -5.92128 0
    endloop
  endfacet
  facet normal 0 0 -1
    outer loop
      vertex 6.67998 -5.99251 0
      vertex 9.2558 -5.92128 0
      vertex 6.74419 -6.38742 0
    endloop
  endfacet
  facet normal -0 0 1
    outer loop
      vertex 6.67998 -5.99251 140
      vertex 6.74419 -6.38742 140
      vertex 9.2558 -5.92128 140
    endloop
  endfacet
  facet normal -0.182477 0.98321 0
    outer loop
      vertex 6.67998 -5.99251 140
      vertex 9.17581 -5.5293 140
      vertex 9.17581 -5.5293 0
    endloop
  endfacet
  facet normal 0 0 1
    outer loop
      vertex 6.67998 -5.99251 140
      vertex 9.2558 -5.92128 140
      vertex 9.17581 -5.5293 140
    endloop
  endfacet
  facet normal 0 0 -1
    outer loop
      vertex 6.67998 5.99251 0
      vertex 6.74419 6.38742 0
      vertex 9.2558 5.92128 0
    endloop
  endfacet
  facet normal -0.182477 -0.98321 0
    outer loop
      vertex 6.67998 5.99251 0
      vertex 9.17581 5.5293 0
      vertex 9.17581 5.5293 140
    endloop
  endfacet
  facet normal -0.182477 -0.98321 -0
    outer loop
      vertex 6.67998 5.99251 0
      vertex 9.17581 5.5293 140
      vertex 6.67998 5.99251 140
    endloop
  endfacet
  facet normal 0 0 -1
    outer loop
      vertex 6.67998 5.99251 0
      vertex 9.2558 5.92128 0
      vertex 9.17581 5.5293 0
    endloop
  endfacet
  facet normal 0 0 1
    outer loop
      vertex 6.67998 5.99251 140
      vertex 9.17581 5.5293 140
      vertex 9.2558 5.92128 140
    endloop
  endfacet
  facet normal 0 0 1
    outer loop
      vertex 6.67998 5.99251 140
      vertex 9.2558 5.92128 140
      vertex 6.74419 6.38742 140
    endloop
  endfacet
  facet normal 0.182478 -0.98321 0
    outer loop
      vertex 6.74419 -6.38742 0
      vertex 9.2558 -5.92128 0
      vertex 6.74419 -6.38742 140
    endloop
  endfacet
  facet normal 0.182478 -0.98321 0
    outer loop
      vertex 6.74419 -6.38742 140
      vertex 9.2558 -5.92128 0
      vertex 9.2558 -5.92128 140
    endloop
  endfacet
  facet normal 0.182478 0.98321 -0
    outer loop
      vertex 6.74419 6.38742 0
      vertex 6.74419 6.38742 140
      vertex 9.2558 5.92128 140
    endloop
  endfacet
  facet normal 0.182478 0.98321 0
    outer loop
      vertex 6.74419 6.38742 0
      vertex 9.2558 5.92128 140
      vertex 9.2558 5.92128 0
    endloop
  endfacet
  facet normal 0 0 -1
    outer loop
      vertex 9.17581 -5.5293 0
      vertex 11.6546 -4.97667 0
      vertex 11.7476 -5.36574 0
    endloop
  endfacet
  facet normal 0 0 -1
    outer loop
      vertex 9.17581 -5.5293 0
      vertex 11.7476 -5.36574 0
      vertex 9.2558 -5.92128 0
    endloop
  endfacet
  facet normal -0.217601 0.976038 0
    outer loop
      vertex 9.17581 -5.5293 0
      vertex 9.17581 -5.5293 140
      vertex 11.6546 -4.97667 0
    endloop
  endfacet
  facet normal -0.217601 0.976038 0
    outer loop
      vertex 9.17581 -5.5293 140
      vertex 11.6546 -4.97667 140
      vertex 11.6546 -4.97667 0
    endloop
  endfacet
  facet normal 0 0 1
    outer loop
      vertex 9.17581 -5.5293 140
      vertex 11.7476 -5.36574 140
      vertex 11.6546 -4.97667 140
    endloop
  endfacet
  facet normal 0 0 1
    outer loop
      vertex 9.17581 -5.5293 140
      vertex 9.2558 -5.92128 140
      vertex 11.7476 -5.36574 140
    endloop
  endfacet
  facet normal -0.217601 -0.976038 0
    outer loop
      vertex 9.17581 5.5293 0
      vertex 11.6546 4.97667 0
      vertex 11.6546 4.97667 140
    endloop
  endfacet
  facet normal -0.217601 -0.976038 -0
    outer loop
      vertex 9.17581 5.5293 0
      vertex 11.6546 4.97667 140
      vertex 9.17581 5.5293 140
    endloop
  endfacet
  facet normal 0 0 -1
    outer loop
      vertex 9.17581 5.5293 0
      vertex 11.7476 5.36574 0
      vertex 11.6546 4.97667 0
    endloop
  endfacet
  facet normal 0 -0 -1
    outer loop
      vertex 9.17581 5.5293 0
      vertex 9.2558 5.92128 0
      vertex 11.7476 5.36574 0
    endloop
  endfacet
  facet normal 0 -0 1
    outer loop
      vertex 9.17581 5.5293 140
      vertex 11.6546 4.97667 140
      vertex 11.7476 5.36574 140
    endloop
  endfacet
  facet normal -0 0 1
    outer loop
      vertex 9.17581 5.5293 140
      vertex 11.7476 5.36574 140
      vertex 9.2558 5.92128 140
    endloop
  endfacet
  facet normal 0.217605 -0.976037 0
    outer loop
      vertex 9.2558 -5.92128 0
      vertex 11.7476 -5.36574 0
      vertex 9.2558 -5.92128 140
    endloop
  endfacet
  facet normal 0.217605 -0.976037 0
    outer loop
      vertex 9.2558 -5.92128 140
      vertex 11.7476 -5.36574 0
      vertex 11.7476 -5.36574 140
    endloop
  endfacet
  facet normal 0.217605 0.976037 0
    outer loop
      vertex 9.2558 5.92128 0
      vertex 11.7476 5.36574 140
      vertex 11.7476 5.36574 0
    endloop
  endfacet
  facet normal 0.217605 0.976037 -0
    outer loop
      vertex 9.2558 5.92128 0
      vertex 9.2558 5.92128 140
      vertex 11.7476 5.36574 140
    endloop
  endfacet
endsolid model
