solid OpenSCAD_Model
  facet normal 1 -0 0
    outer loop
      vertex 265 -40 5
      vertex 265 40 -5
      vertex 265 40 5
    endloop
  endfacet
  facet normal 1 0 0
    outer loop
      vertex 265 40 -5
      vertex 265 -40 5
      vertex 265 -40 -5
    endloop
  endfacet
  facet normal -0 0 1
    outer loop
      vertex 255 40 5
      vertex 265 -40 5
      vertex 265 40 5
    endloop
  endfacet
  facet normal 0 0 1
    outer loop
      vertex 265 -40 5
      vertex 255 40 5
      vertex 255 -40 5
    endloop
  endfacet
  facet normal 0 0 -1
    outer loop
      vertex 255 -40 -5
      vertex 265 40 -5
      vertex 265 -40 -5
    endloop
  endfacet
  facet normal -0 0 -1
    outer loop
      vertex 265 40 -5
      vertex 255 -40 -5
      vertex 255 40 -5
    endloop
  endfacet
  facet normal -1 0 0
    outer loop
      vertex 255 -40 -5
      vertex 255 40 5
      vertex 255 40 -5
    endloop
  endfacet
  facet normal -1 -0 0
    outer loop
      vertex 255 40 5
      vertex 255 -40 -5
      vertex 255 -40 5
    endloop
  endfacet
  facet normal 0 1 0
    outer loop
      vertex 265 40 5
      vertex 260.8 40 1.38564
      vertex 255 40 5
    endloop
  endfacet
  facet normal 0 1 0
    outer loop
      vertex 265 40 5
      vertex 261.6 40 0
      vertex 260.8 40 1.38564
    endloop
  endfacet
  facet normal 0 1 -0
    outer loop
      vertex 265 40 -5
      vertex 261.6 40 0
      vertex 265 40 5
    endloop
  endfacet
  facet normal 0 1 0
    outer loop
      vertex 260.8 40 -1.38564
      vertex 265 40 -5
      vertex 259.2 40 -1.38564
    endloop
  endfacet
  facet normal 0 1 0
    outer loop
      vertex 261.6 40 0
      vertex 265 40 -5
      vertex 260.8 40 -1.38564
    endloop
  endfacet
  facet normal 0 1 -0
    outer loop
      vertex 259.2 40 1.38564
      vertex 255 40 5
      vertex 260.8 40 1.38564
    endloop
  endfacet
  facet normal 0 1 -0
    outer loop
      vertex 258.4 40 0
      vertex 255 40 5
      vertex 259.2 40 1.38564
    endloop
  endfacet
  facet normal 0 1 0
    outer loop
      vertex 255 40 -5
      vertex 258.4 40 0
      vertex 259.2 40 -1.38564
    endloop
  endfacet
  facet normal 0 1 0
    outer loop
      vertex 258.4 40 0
      vertex 255 40 -5
      vertex 255 40 5
    endloop
  endfacet
  facet normal 0 1 0
    outer loop
      vertex 255 40 -5
      vertex 259.2 40 -1.38564
      vertex 265 40 -5
    endloop
  endfacet
  facet normal 0 -1 0
    outer loop
      vertex 255 -40 5
      vertex 259.2 -40 1.38564
      vertex 265 -40 5
    endloop
  endfacet
  facet normal 0 -1 0
    outer loop
      vertex 255 -40 5
      vertex 258.4 -40 0
      vertex 259.2 -40 1.38564
    endloop
  endfacet
  facet normal 0 -1 0
    outer loop
      vertex 255 -40 -5
      vertex 258.4 -40 0
      vertex 255 -40 5
    endloop
  endfacet
  facet normal 0 -1 -0
    outer loop
      vertex 259.2 -40 -1.38564
      vertex 255 -40 -5
      vertex 260.8 -40 -1.38564
    endloop
  endfacet
  facet normal 0 -1 -0
    outer loop
      vertex 258.4 -40 0
      vertex 255 -40 -5
      vertex 259.2 -40 -1.38564
    endloop
  endfacet
  facet normal 0 -1 0
    outer loop
      vertex 260.8 -40 1.38564
      vertex 265 -40 5
      vertex 259.2 -40 1.38564
    endloop
  endfacet
  facet normal 0 -1 0
    outer loop
      vertex 261.6 -40 0
      vertex 265 -40 5
      vertex 260.8 -40 1.38564
    endloop
  endfacet
  facet normal 0 -1 0
    outer loop
      vertex 265 -40 -5
      vertex 261.6 -40 0
      vertex 260.8 -40 -1.38564
    endloop
  endfacet
  facet normal 0 -1 0
    outer loop
      vertex 261.6 -40 0
      vertex 265 -40 -5
      vertex 265 -40 5
    endloop
  endfacet
  facet normal 0 -1 0
    outer loop
      vertex 265 -40 -5
      vertex 260.8 -40 -1.38564
      vertex 255 -40 -5
    endloop
  endfacet
  facet normal -0 0 1
    outer loop
      vertex 259.2 40 -1.38564
      vertex 260.8 -40 -1.38564
      vertex 260.8 40 -1.38564
    endloop
  endfacet
  facet normal 0 0 1
    outer loop
      vertex 260.8 -40 -1.38564
      vertex 259.2 40 -1.38564
      vertex 259.2 -40 -1.38564
    endloop
  endfacet
  facet normal 0 0 -1
    outer loop
      vertex 259.2 -40 1.38564
      vertex 260.8 40 1.38564
      vertex 260.8 -40 1.38564
    endloop
  endfacet
  facet normal -0 0 -1
    outer loop
      vertex 260.8 40 1.38564
      vertex 259.2 -40 1.38564
      vertex 259.2 40 1.38564
    endloop
  endfacet
  facet normal -0.866025 0 -0.5
    outer loop
      vertex 261.6 -40 0
      vertex 260.8 40 1.38564
      vertex 261.6 40 0
    endloop
  endfacet
  facet normal -0.866025 -0 -0.5
    outer loop
      vertex 260.8 40 1.38564
      vertex 261.6 -40 0
      vertex 260.8 -40 1.38564
    endloop
  endfacet
  facet normal 0.866025 0 -0.5
    outer loop
      vertex 259.2 -40 1.38564
      vertex 258.4 40 0
      vertex 259.2 40 1.38564
    endloop
  endfacet
  facet normal 0.866025 0 -0.5
    outer loop
      vertex 258.4 40 0
      vertex 259.2 -40 1.38564
      vertex 258.4 -40 0
    endloop
  endfacet
  facet normal 0.866025 -0 0.5
    outer loop
      vertex 258.4 -40 0
      vertex 259.2 40 -1.38564
      vertex 258.4 40 0
    endloop
  endfacet
  facet normal 0.866025 0 0.5
    outer loop
      vertex 259.2 40 -1.38564
      vertex 258.4 -40 0
      vertex 259.2 -40 -1.38564
    endloop
  endfacet
  facet normal -0.866025 0 0.5
    outer loop
      vertex 260.8 -40 -1.38564
      vertex 261.6 40 0
      vertex 260.8 40 -1.38564
    endloop
  endfacet
  facet normal -0.866025 0 0.5
    outer loop
      vertex 261.6 40 0
      vertex 260.8 -40 -1.38564
      vertex 261.6 -40 0
    endloop
  endfacet
  facet normal 1 -0 0
    outer loop
      vertex 200 -50 100
      vertex 200 50 -100
      vertex 200 50 100
    endloop
  endfacet
  facet normal 1 0 0
    outer loop
      vertex 200 50 -100
      vertex 200 -50 100
      vertex 200 -50 -100
    endloop
  endfacet
  facet normal -0 0 1
    outer loop
      vertex -70 50 100
      vertex 200 -50 100
      vertex 200 50 100
    endloop
  endfacet
  facet normal 0 0 1
    outer loop
      vertex 200 -50 100
      vertex -70 50 100
      vertex -70 -50 100
    endloop
  endfacet
  facet normal 0 0 -1
    outer loop
      vertex -70 -50 -100
      vertex 200 50 -100
      vertex 200 -50 -100
    endloop
  endfacet
  facet normal -0 0 -1
    outer loop
      vertex 200 50 -100
      vertex -70 -50 -100
      vertex -70 50 -100
    endloop
  endfacet
  facet normal -1 0 0
    outer loop
      vertex -70 -50 -100
      vertex -70 50 100
      vertex -70 50 -100
    endloop
  endfacet
  facet normal -1 -0 0
    outer loop
      vertex -70 50 100
      vertex -70 -50 -100
      vertex -70 -50 100
    endloop
  endfacet
  facet normal 0 1 -0
    outer loop
      vertex 200 50 -100
      vertex -70 50 100
      vertex 200 50 100
    endloop
  endfacet
  facet normal 0 1 0
    outer loop
      vertex -70 50 100
      vertex 200 50 -100
      vertex -70 50 -100
    endloop
  endfacet
  facet normal 0 -1 0
    outer loop
      vertex -70 -50 -100
      vertex 200 -50 100
      vertex -70 -50 100
    endloop
  endfacet
  facet normal 0 -1 -0
    outer loop
      vertex 200 -50 100
      vertex -70 -50 -100
      vertex 200 -50 -100
    endloop
  endfacet
endsolid OpenSCAD_Model
