solid model
  facet normal -1 -0 0
    outer loop
      vertex 0 0 0
      vertex 0 0 1.97
      vertex 0 14 1.97
    endloop
  endfacet
  facet normal 0 0 -1
    outer loop
      vertex 0 0 0
      vertex 0 14 0
      vertex 4 7 0
    endloop
  endfacet
  facet normal -1 0 0
    outer loop
      vertex 0 0 0
      vertex 0 14 1.97
      vertex 0 14 0
    endloop
  endfacet
  facet normal 0 0 -1
    outer loop
      vertex 0 0 0
      vertex 19.2706 5.47831 0
      vertex 28.84 0 0
    endloop
  endfacet
  facet normal 0 -1 -0
    outer loop
      vertex 0 0 0
      vertex 28.84 0 0
      vertex 28.84 0 1.97
    endloop
  endfacet
  facet normal 0 -1 0
    outer loop
      vertex 0 0 0
      vertex 28.84 0 1.97
      vertex 0 0 1.97
    endloop
  endfacet
  facet normal -0 0 -1
    outer loop
      vertex 0 0 0
      vertex 4 7 0
      vertex 4.07831 6.50557 0
    endloop
  endfacet
  facet normal -0 0 -1
    outer loop
      vertex 0 0 0
      vertex 4.07831 6.50557 0
      vertex 4.30557 6.05954 0
    endloop
  endfacet
  facet normal -0 0 -1
    outer loop
      vertex 0 0 0
      vertex 4.30557 6.05954 0
      vertex 4.65954 5.70557 0
    endloop
  endfacet
  facet normal -0 0 -1
    outer loop
      vertex 0 0 0
      vertex 4.65954 5.70557 0
      vertex 5.10557 5.47831 0
    endloop
  endfacet
  facet normal -0 0 -1
    outer loop
      vertex 0 0 0
      vertex 5.10557 5.47831 0
      vertex 5.6 5.4 0
    endloop
  endfacet
  facet normal 0 0 -1
    outer loop
      vertex 0 0 0
      vertex 5.6 5.4 0
      vertex 6.09443 5.47831 0
    endloop
  endfacet
  facet normal 0 -0 -1
    outer loop
      vertex 0 0 0
      vertex 6.09443 5.47831 0
      vertex 19.2706 5.47831 0
    endloop
  endfacet
  facet normal 0 0 1
    outer loop
      vertex 0 0 1.97
      vertex 0.32 7 1.97
      vertex 0 14 1.97
    endloop
  endfacet
  facet normal 0 0 1
    outer loop
      vertex 0 0 1.97
      vertex 0.385005 6.17403 1.97
      vertex 0.32 7 1.97
    endloop
  endfacet
  facet normal 0 0 1
    outer loop
      vertex 0 0 1.97
      vertex 0.578422 5.36839 1.97
      vertex 0.385005 6.17403 1.97
    endloop
  endfacet
  facet normal 0 0 1
    outer loop
      vertex 0 0 1.97
      vertex 0.895485 4.60293 1.97
      vertex 0.578422 5.36839 1.97
    endloop
  endfacet
  facet normal 0 0 1
    outer loop
      vertex 0 0 1.97
      vertex 1.32839 3.89649 1.97
      vertex 0.895485 4.60293 1.97
    endloop
  endfacet
  facet normal 0 0 1
    outer loop
      vertex 0 0 1.97
      vertex 1.86648 3.26648 1.97
      vertex 1.32839 3.89649 1.97
    endloop
  endfacet
  facet normal 0 0 1
    outer loop
      vertex 0 0 1.97
      vertex 18.939 1.785 1.97
      vertex 6.42597 1.785 1.97
    endloop
  endfacet
  facet normal 0 0 1
    outer loop
      vertex 0 0 1.97
      vertex 2.49649 2.72839 1.97
      vertex 1.86648 3.26648 1.97
    endloop
  endfacet
  facet normal 0 0 1
    outer loop
      vertex 0 0 1.97
      vertex 28.84 0 1.97
      vertex 18.939 1.785 1.97
    endloop
  endfacet
  facet normal 0 0 1
    outer loop
      vertex 0 0 1.97
      vertex 3.20293 2.29549 1.97
      vertex 2.49649 2.72839 1.97
    endloop
  endfacet
  facet normal 0 0 1
    outer loop
      vertex 0 0 1.97
      vertex 3.96839 1.97842 1.97
      vertex 3.20293 2.29549 1.97
    endloop
  endfacet
  facet normal 0 0 1
    outer loop
      vertex 0 0 1.97
      vertex 4.77403 1.785 1.97
      vertex 3.96839 1.97842 1.97
    endloop
  endfacet
  facet normal 0 0 1
    outer loop
      vertex 0 0 1.97
      vertex 5.6 1.72 1.97
      vertex 4.77403 1.785 1.97
    endloop
  endfacet
  facet normal 0 0 1
    outer loop
      vertex 0 0 1.97
      vertex 6.42597 1.785 1.97
      vertex 5.6 1.72 1.97
    endloop
  endfacet
  facet normal 0 1 0
    outer loop
      vertex 0 14 0
      vertex 0 14 1.97
      vertex 26.2 14 0
    endloop
  endfacet
  facet normal 0 0 -1
    outer loop
      vertex 0 14 0
      vertex 19.2706 8.52169 0
      vertex 6.09443 8.52169 0
    endloop
  endfacet
  facet normal 0 0 -1
    outer loop
      vertex 0 14 0
      vertex 26.2 14 0
      vertex 19.2706 8.52169 0
    endloop
  endfacet
  facet normal 0 0 -1
    outer loop
      vertex 0 14 0
      vertex 4.07831 7.49443 0
      vertex 4 7 0
    endloop
  endfacet
  facet normal 0 0 -1
    outer loop
      vertex 0 14 0
      vertex 4.30557 7.94046 0
      vertex 4.07831 7.49443 0
    endloop
  endfacet
  facet normal 0 0 -1
    outer loop
      vertex 0 14 0
      vertex 4.65954 8.29443 0
      vertex 4.30557 7.94046 0
    endloop
  endfacet
  facet normal 0 0 -1
    outer loop
      vertex 0 14 0
      vertex 5.10557 8.52169 0
      vertex 4.65954 8.29443 0
    endloop
  endfacet
  facet normal 0 0 -1
    outer loop
      vertex 0 14 0
      vertex 5.6 8.6 0
      vertex 5.10557 8.52169 0
    endloop
  endfacet
  facet normal 0 0 -1
    outer loop
      vertex 0 14 0
      vertex 6.09443 8.52169 0
      vertex 5.6 8.6 0
    endloop
  endfacet
  facet normal 0 0 1
    outer loop
      vertex 0 14 1.97
      vertex 0.32 7 1.97
      vertex 0.385005 7.82597 1.97
    endloop
  endfacet
  facet normal 0 0 1
    outer loop
      vertex 0 14 1.97
      vertex 0.385005 7.82597 1.97
      vertex 0.578422 8.63161 1.97
    endloop
  endfacet
  facet normal 0 0 1
    outer loop
      vertex 0 14 1.97
      vertex 0.578422 8.63161 1.97
      vertex 0.895485 9.39707 1.97
    endloop
  endfacet
  facet normal 0 0 1
    outer loop
      vertex 0 14 1.97
      vertex 0.895485 9.39707 1.97
      vertex 1.32839 10.1035 1.97
    endloop
  endfacet
  facet normal 0 0 1
    outer loop
      vertex 0 14 1.97
      vertex 1.32839 10.1035 1.97
      vertex 1.86648 10.7335 1.97
    endloop
  endfacet
  facet normal 0 0 1
    outer loop
      vertex 0 14 1.97
      vertex 1.86648 10.7335 1.97
      vertex 2.49649 11.2716 1.97
    endloop
  endfacet
  facet normal -0 0 1
    outer loop
      vertex 0 14 1.97
      vertex 18.939 12.215 1.97
      vertex 26.2 14 1.97
    endloop
  endfacet
  facet normal 0 0 1
    outer loop
      vertex 0 14 1.97
      vertex 2.49649 11.2716 1.97
      vertex 3.20293 11.7045 1.97
    endloop
  endfacet
  facet normal 0 1 -0
    outer loop
      vertex 0 14 1.97
      vertex 26.2 14 1.97
      vertex 26.2 14 0
    endloop
  endfacet
  facet normal 0 0 1
    outer loop
      vertex 0 14 1.97
      vertex 3.20293 11.7045 1.97
      vertex 3.96839 12.0216 1.97
    endloop
  endfacet
  facet normal 0 0 1
    outer loop
      vertex 0 14 1.97
      vertex 3.96839 12.0216 1.97
      vertex 4.77403 12.215 1.97
    endloop
  endfacet
  facet normal 0 0 1
    outer loop
      vertex 0 14 1.97
      vertex 4.77403 12.215 1.97
      vertex 5.6 12.28 1.97
    endloop
  endfacet
  facet normal 0 0 1
    outer loop
      vertex 0 14 1.97
      vertex 5.6 12.28 1.97
      vertex 6.42597 12.215 1.97
    endloop
  endfacet
  facet normal 0 -0 1
    outer loop
      vertex 0 14 1.97
      vertex 6.42597 12.215 1.97
      vertex 18.939 12.215 1.97
    endloop
  endfacet
  facet normal -0.996917 0.0784588 0
    outer loop
      vertex 0.32 7 1.97
      vertex 0.32 7 4.67
      vertex 0.385005 7.82597 4.67
    endloop
  endfacet
  facet normal -0.996917 -0.0784588 0
    outer loop
      vertex 0.32 7 1.97
      vertex 0.385005 6.17403 1.97
      vertex 0.32 7 4.67
    endloop
  endfacet
  facet normal -0.996917 0.0784588 0
    outer loop
      vertex 0.32 7 1.97
      vertex 0.385005 7.82597 4.67
      vertex 0.385005 7.82597 1.97
    endloop
  endfacet
  facet normal -0.996917 -0.0784588 0
    outer loop
      vertex 0.32 7 4.67
      vertex 0.385005 6.17403 1.97
      vertex 0.385005 6.17403 4.67
    endloop
  endfacet
  facet normal 0 0 1
    outer loop
      vertex 0.32 7 4.67
      vertex 0.385005 6.17403 4.67
      vertex 2.3 7 4.67
    endloop
  endfacet
  facet normal 0 0 1
    outer loop
      vertex 0.32 7 4.67
      vertex 2.3 7 4.67
      vertex 0.385005 7.82597 4.67
    endloop
  endfacet
  facet normal -0.97237 -0.233445 0
    outer loop
      vertex 0.385005 6.17403 1.97
      vertex 0.578422 5.36839 1.97
      vertex 0.385005 6.17403 4.67
    endloop
  endfacet
  facet normal -0.97237 -0.233445 0
    outer loop
      vertex 0.385005 6.17403 4.67
      vertex 0.578422 5.36839 1.97
      vertex 0.578422 5.36839 4.67
    endloop
  endfacet
  facet normal 0 0 1
    outer loop
      vertex 0.385005 6.17403 4.67
      vertex 0.578422 5.36839 4.67
      vertex 2.3 7 4.67
    endloop
  endfacet
  facet normal -0.97237 0.233445 0
    outer loop
      vertex 0.385005 7.82597 1.97
      vertex 0.385005 7.82597 4.67
      vertex 0.578422 8.63161 4.67
    endloop
  endfacet
  facet normal -0.97237 0.233445 0
    outer loop
      vertex 0.385005 7.82597 1.97
      vertex 0.578422 8.63161 4.67
      vertex 0.578422 8.63161 1.97
    endloop
  endfacet
  facet normal -0 0 1
    outer loop
      vertex 0.385005 7.82597 4.67
      vertex 2.3 7 4.67
      vertex 0.578422 8.63161 4.67
    endloop
  endfacet
  facet normal -0.92388 -0.382682 0
    outer loop
      vertex 0.578422 5.36839 1.97
      vertex 0.895485 4.60293 1.97
      vertex 0.578422 5.36839 4.67
    endloop
  endfacet
  facet normal -0.92388 -0.382682 0
    outer loop
      vertex 0.578422 5.36839 4.67
      vertex 0.895485 4.60293 1.97
      vertex 0.895485 4.60293 4.67
    endloop
  endfacet
  facet normal 0 0 1
    outer loop
      vertex 0.578422 5.36839 4.67
      vertex 0.895485 4.60293 4.67
      vertex 2.3 7 4.67
    endloop
  endfacet
  facet normal -0.92388 0.382682 0
    outer loop
      vertex 0.578422 8.63161 1.97
      vertex 0.578422 8.63161 4.67
      vertex 0.895485 9.39707 4.67
    endloop
  endfacet
  facet normal -0.92388 0.382682 0
    outer loop
      vertex 0.578422 8.63161 1.97
      vertex 0.895485 9.39707 4.67
      vertex 0.895485 9.39707 1.97
    endloop
  endfacet
  facet normal -0 0 1
    outer loop
      vertex 0.578422 8.63161 4.67
      vertex 2.3 7 4.67
      vertex 0.895485 9.39707 4.67
    endloop
  endfacet
  facet normal -0.852641 -0.522497 0
    outer loop
      vertex 0.895485 4.60293 1.97
      vertex 1.32839 3.89649 1.97
      vertex 0.895485 4.60293 4.67
    endloop
  endfacet
  facet normal -0.852641 -0.522497 0
    outer loop
      vertex 0.895485 4.60293 4.67
      vertex 1.32839 3.89649 1.97
      vertex 1.32839 3.89649 4.67
    endloop
  endfacet
  facet normal 0 0 1
    outer loop
      vertex 0.895485 4.60293 4.67
      vertex 1.32839 3.89649 4.67
      vertex 3.95 4.14212 4.67
    endloop
  endfacet
  facet normal -0 0 1
    outer loop
      vertex 0.895485 4.60293 4.67
      vertex 3.95 4.14212 4.67
      vertex 2.3 7 4.67
    endloop
  endfacet
  facet normal -0.852638 0.522502 0
    outer loop
      vertex 0.895485 9.39707 1.97
      vertex 0.895485 9.39707 4.67
      vertex 1.32839 10.1035 4.67
    endloop
  endfacet
  facet normal -0.852638 0.522502 0
    outer loop
      vertex 0.895485 9.39707 1.97
      vertex 1.32839 10.1035 4.67
      vertex 1.32839 10.1035 1.97
    endloop
  endfacet
  facet normal 0 0 1
    outer loop
      vertex 0.895485 9.39707 4.67
      vertex 2.3 7 4.67
      vertex 3.95 9.85788 4.67
    endloop
  endfacet
  facet normal 0 0 1
    outer loop
      vertex 0.895485 9.39707 4.67
      vertex 3.95 9.85788 4.67
      vertex 1.32839 10.1035 4.67
    endloop
  endfacet
  facet normal -0.760395 0.649461 0
    outer loop
      vertex 1.32839 10.1035 1.97
      vertex 1.32839 10.1035 4.67
      vertex 1.86648 10.7335 4.67
    endloop
  endfacet
  facet normal -0.760395 0.649461 0
    outer loop
      vertex 1.32839 10.1035 1.97
      vertex 1.86648 10.7335 4.67
      vertex 1.86648 10.7335 1.97
    endloop
  endfacet
  facet normal -0 0 1
    outer loop
      vertex 1.32839 10.1035 4.67
      vertex 3.95 9.85788 4.67
      vertex 1.86648 10.7335 4.67
    endloop
  endfacet
  facet normal -0.7604 -0.649455 0
    outer loop
      vertex 1.32839 3.89649 1.97
      vertex 1.86648 3.26648 1.97
      vertex 1.32839 3.89649 4.67
    endloop
  endfacet
  facet normal -0.7604 -0.649455 0
    outer loop
      vertex 1.32839 3.89649 4.67
      vertex 1.86648 3.26648 1.97
      vertex 1.86648 3.26648 4.67
    endloop
  endfacet
  facet normal 0 0 1
    outer loop
      vertex 1.32839 3.89649 4.67
      vertex 1.86648 3.26648 4.67
      vertex 3.95 4.14212 4.67
    endloop
  endfacet
  facet normal -0.649462 0.760394 0
    outer loop
      vertex 1.86648 10.7335 1.97
      vertex 1.86648 10.7335 4.67
      vertex 2.49649 11.2716 1.97
    endloop
  endfacet
  facet normal -0.649462 0.760394 0
    outer loop
      vertex 1.86648 10.7335 4.67
      vertex 2.49649 11.2716 4.67
      vertex 2.49649 11.2716 1.97
    endloop
  endfacet
  facet normal -0 0 1
    outer loop
      vertex 1.86648 10.7335 4.67
      vertex 3.95 9.85788 4.67
      vertex 2.49649 11.2716 4.67
    endloop
  endfacet
  facet normal -0.649455 -0.7604 -0
    outer loop
      vertex 1.86648 3.26648 1.97
      vertex 2.49649 2.72839 1.97
      vertex 2.49649 2.72839 4.67
    endloop
  endfacet
  facet normal -0.649455 -0.7604 0
    outer loop
      vertex 1.86648 3.26648 1.97
      vertex 2.49649 2.72839 4.67
      vertex 1.86648 3.26648 4.67
    endloop
  endfacet
  facet normal 0 0 1
    outer loop
      vertex 1.86648 3.26648 4.67
      vertex 2.49649 2.72839 4.67
      vertex 3.95 4.14212 4.67
    endloop
  endfacet
  facet normal 0.923864 -0.382721 0
    outer loop
      vertex 10.3045 4.60293 1.97
      vertex 10.6216 5.36839 1.97
      vertex 10.3045 4.60293 4.67
    endloop
  endfacet
  facet normal 0 0 1
    outer loop
      vertex 10.3045 4.60293 1.97
      vertex 15.0605 4.60293 1.97
      vertex 10.6216 5.36839 1.97
    endloop
  endfacet
  facet normal 0 0 1
    outer loop
      vertex 10.3045 4.60293 1.97
      vertex 15.4934 3.89649 1.97
      vertex 15.0605 4.60293 1.97
    endloop
  endfacet
  facet normal 0.923864 -0.382721 0
    outer loop
      vertex 10.3045 4.60293 4.67
      vertex 10.6216 5.36839 1.97
      vertex 10.6216 5.36839 4.67
    endloop
  endfacet
  facet normal 0.923864 0.382721 0
    outer loop
      vertex 10.3045 9.39707 1.97
      vertex 10.3045 9.39707 4.67
      vertex 10.6216 8.63161 4.67
    endloop
  endfacet
  facet normal 0 0 1
    outer loop
      vertex 10.3045 9.39707 1.97
      vertex 10.6216 8.63161 1.97
      vertex 15.0605 9.39707 1.97
    endloop
  endfacet
  facet normal 0.923864 0.382721 0
    outer loop
      vertex 10.3045 9.39707 1.97
      vertex 10.6216 8.63161 4.67
      vertex 10.6216 8.63161 1.97
    endloop
  endfacet
  facet normal 0 0 1
    outer loop
      vertex 10.3045 9.39707 1.97
      vertex 15.0605 9.39707 1.97
      vertex 15.4934 10.1035 1.97
    endloop
  endfacet
  facet normal 0.972375 -0.233426 0
    outer loop
      vertex 10.6216 5.36839 1.97
      vertex 10.815 6.17403 1.97
      vertex 10.6216 5.36839 4.67
    endloop
  endfacet
  facet normal 0 0 1
    outer loop
      vertex 10.6216 5.36839 1.97
      vertex 14.7434 5.36839 1.97
      vertex 10.815 6.17403 1.97
    endloop
  endfacet
  facet normal 0 0 1
    outer loop
      vertex 10.6216 5.36839 1.97
      vertex 15.0605 4.60293 1.97
      vertex 14.7434 5.36839 1.97
    endloop
  endfacet
  facet normal 0.972375 -0.233426 0
    outer loop
      vertex 10.6216 5.36839 4.67
      vertex 10.815 6.17403 1.97
      vertex 10.815 6.17403 4.67
    endloop
  endfacet
  facet normal 0.972375 0.233426 0
    outer loop
      vertex 10.6216 8.63161 1.97
      vertex 10.6216 8.63161 4.67
      vertex 10.815 7.82597 4.67
    endloop
  endfacet
  facet normal 0 0 1
    outer loop
      vertex 10.6216 8.63161 1.97
      vertex 10.815 7.82597 1.97
      vertex 14.7434 8.63161 1.97
    endloop
  endfacet
  facet normal 0.972375 0.233426 0
    outer loop
      vertex 10.6216 8.63161 1.97
      vertex 10.815 7.82597 4.67
      vertex 10.815 7.82597 1.97
    endloop
  endfacet
  facet normal 0 0 1
    outer loop
      vertex 10.6216 8.63161 1.97
      vertex 14.7434 8.63161 1.97
      vertex 15.0605 9.39707 1.97
    endloop
  endfacet
  facet normal 0.996918 -0.0784528 0
    outer loop
      vertex 10.815 6.17403 1.97
      vertex 10.88 7 1.97
      vertex 10.815 6.17403 4.67
    endloop
  endfacet
  facet normal 0 0 1
    outer loop
      vertex 10.815 6.17403 1.97
      vertex 14.55 6.17403 1.97
      vertex 10.88 7 1.97
    endloop
  endfacet
  facet normal 0 0 1
    outer loop
      vertex 10.815 6.17403 1.97
      vertex 14.7434 5.36839 1.97
      vertex 14.55 6.17403 1.97
    endloop
  endfacet
  facet normal 0.996918 -0.0784528 0
    outer loop
      vertex 10.815 6.17403 4.67
      vertex 10.88 7 1.97
      vertex 10.88 7 4.67
    endloop
  endfacet
  facet normal 0.996918 0.0784528 0
    outer loop
      vertex 10.815 7.82597 1.97
      vertex 10.815 7.82597 4.67
      vertex 10.88 7 4.67
    endloop
  endfacet
  facet normal 0 0 1
    outer loop
      vertex 10.815 7.82597 1.97
      vertex 10.88 7 1.97
      vertex 14.55 7.82597 1.97
    endloop
  endfacet
  facet normal 0.996918 0.0784528 0
    outer loop
      vertex 10.815 7.82597 1.97
      vertex 10.88 7 4.67
      vertex 10.88 7 1.97
    endloop
  endfacet
  facet normal 0 0 1
    outer loop
      vertex 10.815 7.82597 1.97
      vertex 14.55 7.82597 1.97
      vertex 14.7434 8.63161 1.97
    endloop
  endfacet
  facet normal 0 0 1
    outer loop
      vertex 10.88 7 1.97
      vertex 14.485 7 1.97
      vertex 14.55 7.82597 1.97
    endloop
  endfacet
  facet normal -0 0 1
    outer loop
      vertex 10.88 7 1.97
      vertex 14.55 6.17403 1.97
      vertex 14.485 7 1.97
    endloop
  endfacet
  facet normal -0.996918 0.0784528 0
    outer loop
      vertex 14.485 7 1.97
      vertex 14.485 7 4.67
      vertex 14.55 7.82597 4.67
    endloop
  endfacet
  facet normal -0.996918 -0.0784528 0
    outer loop
      vertex 14.485 7 1.97
      vertex 14.55 6.17403 1.97
      vertex 14.485 7 4.67
    endloop
  endfacet
  facet normal -0.996918 0.0784528 0
    outer loop
      vertex 14.485 7 1.97
      vertex 14.55 7.82597 4.67
      vertex 14.55 7.82597 1.97
    endloop
  endfacet
  facet normal -0.996918 -0.0784528 0
    outer loop
      vertex 14.485 7 4.67
      vertex 14.55 6.17403 1.97
      vertex 14.55 6.17403 4.67
    endloop
  endfacet
  facet normal 0 0 1
    outer loop
      vertex 14.485 7 4.67
      vertex 14.55 6.17403 4.67
      vertex 16.465 7 4.67
    endloop
  endfacet
  facet normal 0 0 1
    outer loop
      vertex 14.485 7 4.67
      vertex 16.465 7 4.67
      vertex 14.55 7.82597 4.67
    endloop
  endfacet
  facet normal -0.972375 -0.233426 0
    outer loop
      vertex 14.55 6.17403 1.97
      vertex 14.7434 5.36839 1.97
      vertex 14.55 6.17403 4.67
    endloop
  endfacet
  facet normal -0.972375 -0.233426 0
    outer loop
      vertex 14.55 6.17403 4.67
      vertex 14.7434 5.36839 1.97
      vertex 14.7434 5.36839 4.67
    endloop
  endfacet
  facet normal 0 0 1
    outer loop
      vertex 14.55 6.17403 4.67
      vertex 14.7434 5.36839 4.67
      vertex 16.465 7 4.67
    endloop
  endfacet
  facet normal -0.972375 0.233426 0
    outer loop
      vertex 14.55 7.82597 1.97
      vertex 14.55 7.82597 4.67
      vertex 14.7434 8.63161 4.67
    endloop
  endfacet
  facet normal -0.972375 0.233426 0
    outer loop
      vertex 14.55 7.82597 1.97
      vertex 14.7434 8.63161 4.67
      vertex 14.7434 8.63161 1.97
    endloop
  endfacet
  facet normal -0 0 1
    outer loop
      vertex 14.55 7.82597 4.67
      vertex 16.465 7 4.67
      vertex 14.7434 8.63161 4.67
    endloop
  endfacet
  facet normal -0.923864 -0.382721 0
    outer loop
      vertex 14.7434 5.36839 1.97
      vertex 15.0605 4.60293 1.97
      vertex 14.7434 5.36839 4.67
    endloop
  endfacet
  facet normal -0.923864 -0.382721 0
    outer loop
      vertex 14.7434 5.36839 4.67
      vertex 15.0605 4.60293 1.97
      vertex 15.0605 4.60293 4.67
    endloop
  endfacet
  facet normal 0 0 1
    outer loop
      vertex 14.7434 5.36839 4.67
      vertex 15.0605 4.60293 4.67
      vertex 16.465 7 4.67
    endloop
  endfacet
  facet normal -0.923864 0.382721 0
    outer loop
      vertex 14.7434 8.63161 1.97
      vertex 14.7434 8.63161 4.67
      vertex 15.0605 9.39707 4.67
    endloop
  endfacet
  facet normal -0.923864 0.382721 0
    outer loop
      vertex 14.7434 8.63161 1.97
      vertex 15.0605 9.39707 4.67
      vertex 15.0605 9.39707 1.97
    endloop
  endfacet
  facet normal -0 0 1
    outer loop
      vertex 14.7434 8.63161 4.67
      vertex 16.465 7 4.67
      vertex 15.0605 9.39707 4.67
    endloop
  endfacet
  facet normal -0.852644 -0.522492 0
    outer loop
      vertex 15.0605 4.60293 1.97
      vertex 15.4934 3.89649 1.97
      vertex 15.0605 4.60293 4.67
    endloop
  endfacet
  facet normal -0.852644 -0.522492 0
    outer loop
      vertex 15.0605 4.60293 4.67
      vertex 15.4934 3.89649 1.97
      vertex 15.4934 3.89649 4.67
    endloop
  endfacet
  facet normal 0 0 1
    outer loop
      vertex 15.0605 4.60293 4.67
      vertex 15.4934 3.89649 4.67
      vertex 18.115 4.14212 4.67
    endloop
  endfacet
  facet normal -0 0 1
    outer loop
      vertex 15.0605 4.60293 4.67
      vertex 18.115 4.14212 4.67
      vertex 16.465 7 4.67
    endloop
  endfacet
  facet normal -0.852641 0.522498 0
    outer loop
      vertex 15.0605 9.39707 1.97
      vertex 15.0605 9.39707 4.67
      vertex 15.4934 10.1035 4.67
    endloop
  endfacet
  facet normal -0.852641 0.522498 0
    outer loop
      vertex 15.0605 9.39707 1.97
      vertex 15.4934 10.1035 4.67
      vertex 15.4934 10.1035 1.97
    endloop
  endfacet
  facet normal 0 0 1
    outer loop
      vertex 15.0605 9.39707 4.67
      vertex 16.465 7 4.67
      vertex 18.115 9.85788 4.67
    endloop
  endfacet
  facet normal 0 0 1
    outer loop
      vertex 15.0605 9.39707 4.67
      vertex 18.115 9.85788 4.67
      vertex 15.4934 10.1035 4.67
    endloop
  endfacet
  facet normal -0.760389 0.649468 0
    outer loop
      vertex 15.4934 10.1035 1.97
      vertex 15.4934 10.1035 4.67
      vertex 16.0315 10.7335 4.67
    endloop
  endfacet
  facet normal -0.760389 0.649468 0
    outer loop
      vertex 15.4934 10.1035 1.97
      vertex 16.0315 10.7335 4.67
      vertex 16.0315 10.7335 1.97
    endloop
  endfacet
  facet normal -0 0 1
    outer loop
      vertex 15.4934 10.1035 4.67
      vertex 18.115 9.85788 4.67
      vertex 16.0315 10.7335 4.67
    endloop
  endfacet
  facet normal -0.760394 -0.649462 0
    outer loop
      vertex 15.4934 3.89649 1.97
      vertex 16.0315 3.26648 1.97
      vertex 15.4934 3.89649 4.67
    endloop
  endfacet
  facet normal -0.760394 -0.649462 0
    outer loop
      vertex 15.4934 3.89649 4.67
      vertex 16.0315 3.26648 1.97
      vertex 16.0315 3.26648 4.67
    endloop
  endfacet
  facet normal 0 0 1
    outer loop
      vertex 15.4934 3.89649 4.67
      vertex 16.0315 3.26648 4.67
      vertex 18.115 4.14212 4.67
    endloop
  endfacet
  facet normal -0.649468 0.760389 0
    outer loop
      vertex 16.0315 10.7335 1.97
      vertex 16.0315 10.7335 4.67
      vertex 16.6615 11.2716 1.97
    endloop
  endfacet
  facet normal -0.649468 0.760389 0
    outer loop
      vertex 16.0315 10.7335 4.67
      vertex 16.6615 11.2716 4.67
      vertex 16.6615 11.2716 1.97
    endloop
  endfacet
  facet normal -0 0 1
    outer loop
      vertex 16.0315 10.7335 4.67
      vertex 18.115 9.85788 4.67
      vertex 16.6615 11.2716 4.67
    endloop
  endfacet
  facet normal -0.649461 -0.760395 -0
    outer loop
      vertex 16.0315 3.26648 1.97
      vertex 16.6615 2.72839 1.97
      vertex 16.6615 2.72839 4.67
    endloop
  endfacet
  facet normal -0.649461 -0.760395 0
    outer loop
      vertex 16.0315 3.26648 1.97
      vertex 16.6615 2.72839 4.67
      vertex 16.0315 3.26648 4.67
    endloop
  endfacet
  facet normal 0 0 1
    outer loop
      vertex 16.0315 3.26648 4.67
      vertex 16.6615 2.72839 4.67
      vertex 18.115 4.14212 4.67
    endloop
  endfacet
  facet normal 0.866025 0.500001 0
    outer loop
      vertex 16.465 7 1.97
      vertex 16.465 7 4.67
      vertex 18.115 4.14212 4.67
    endloop
  endfacet
  facet normal 0 0 1
    outer loop
      vertex 16.465 7 1.97
      vertex 18.115 4.14212 1.97
      vertex 18.4706 6.05954 1.97
    endloop
  endfacet
  facet normal 0.866025 0.500001 0
    outer loop
      vertex 16.465 7 1.97
      vertex 18.115 4.14212 4.67
      vertex 18.115 4.14212 1.97
    endloop
  endfacet
  facet normal 0.866025 -0.500001 0
    outer loop
      vertex 16.465 7 1.97
      vertex 18.115 9.85788 1.97
      vertex 16.465 7 4.67
    endloop
  endfacet
  facet normal 0 0 1
    outer loop
      vertex 16.465 7 1.97
      vertex 18.165 7 1.97
      vertex 18.2433 7.49443 1.97
    endloop
  endfacet
  facet normal -0 0 1
    outer loop
      vertex 16.465 7 1.97
      vertex 18.2433 6.50557 1.97
      vertex 18.165 7 1.97
    endloop
  endfacet
  facet normal 0 0 1
    outer loop
      vertex 16.465 7 1.97
      vertex 18.2433 7.49443 1.97
      vertex 18.4706 7.94046 1.97
    endloop
  endfacet
  facet normal 0 0 1
    outer loop
      vertex 16.465 7 1.97
      vertex 18.4706 6.05954 1.97
      vertex 18.2433 6.50557 1.97
    endloop
  endfacet
  facet normal 0 0 1
    outer loop
      vertex 16.465 7 1.97
      vertex 18.4706 7.94046 1.97
      vertex 18.115 9.85788 1.97
    endloop
  endfacet
  facet normal 0.866025 -0.500001 0
    outer loop
      vertex 16.465 7 4.67
      vertex 18.115 9.85788 1.97
      vertex 18.115 9.85788 4.67
    endloop
  endfacet
  facet normal -0.522514 0.852631 0
    outer loop
      vertex 16.6615 11.2716 1.97
      vertex 16.6615 11.2716 4.67
      vertex 17.3679 11.7045 1.97
    endloop
  endfacet
  facet normal -0.522514 0.852631 0
    outer loop
      vertex 16.6615 11.2716 4.67
      vertex 17.3679 11.7045 4.67
      vertex 17.3679 11.7045 1.97
    endloop
  endfacet
  facet normal -0 0 1
    outer loop
      vertex 16.6615 11.2716 4.67
      vertex 18.115 9.85788 4.67
      vertex 17.3679 11.7045 4.67
    endloop
  endfacet
  facet normal -0.522514 -0.852631 -0
    outer loop
      vertex 16.6615 2.72839 1.97
      vertex 17.3679 2.29549 1.97
      vertex 17.3679 2.29549 4.67
    endloop
  endfacet
  facet normal -0.522514 -0.852631 0
    outer loop
      vertex 16.6615 2.72839 1.97
      vertex 17.3679 2.29549 4.67
      vertex 16.6615 2.72839 4.67
    endloop
  endfacet
  facet normal 0 0 1
    outer loop
      vertex 16.6615 2.72839 4.67
      vertex 17.3679 2.29549 4.67
      vertex 18.115 4.14212 4.67
    endloop
  endfacet
  facet normal -0.382704 0.923871 0
    outer loop
      vertex 17.3679 11.7045 1.97
      vertex 17.3679 11.7045 4.67
      vertex 18.1334 12.0216 1.97
    endloop
  endfacet
  facet normal -0 0 1
    outer loop
      vertex 17.3679 11.7045 4.67
      vertex 18.115 9.85788 4.67
      vertex 18.1334 12.0216 4.67
    endloop
  endfacet
  facet normal -0.382704 0.923871 0
    outer loop
      vertex 17.3679 11.7045 4.67
      vertex 18.1334 12.0216 4.67
      vertex 18.1334 12.0216 1.97
    endloop
  endfacet
  facet normal -0.382673 -0.923884 -0
    outer loop
      vertex 17.3679 2.29549 1.97
      vertex 18.1334 1.97842 1.97
      vertex 18.1334 1.97842 4.67
    endloop
  endfacet
  facet normal -0.382673 -0.923884 0
    outer loop
      vertex 17.3679 2.29549 1.97
      vertex 18.1334 1.97842 4.67
      vertex 17.3679 2.29549 4.67
    endloop
  endfacet
  facet normal 0 0 1
    outer loop
      vertex 17.3679 2.29549 4.67
      vertex 18.1334 1.97842 4.67
      vertex 18.115 4.14212 4.67
    endloop
  endfacet
  facet normal 0 1 0
    outer loop
      vertex 18.115 4.14212 1.97
      vertex 18.115 4.14212 4.67
      vertex 21.415 4.14212 1.97
    endloop
  endfacet
  facet normal 0 0 1
    outer loop
      vertex 18.115 4.14212 1.97
      vertex 18.8245 5.70557 1.97
      vertex 18.4706 6.05954 1.97
    endloop
  endfacet
  facet normal 0 0 1
    outer loop
      vertex 18.115 4.14212 1.97
      vertex 19.2706 5.47831 1.97
      vertex 18.8245 5.70557 1.97
    endloop
  endfacet
  facet normal 0 0 1
    outer loop
      vertex 18.115 4.14212 1.97
      vertex 19.765 5.4 1.97
      vertex 19.2706 5.47831 1.97
    endloop
  endfacet
  facet normal 0 0 1
    outer loop
      vertex 18.115 4.14212 1.97
      vertex 21.415 4.14212 1.97
      vertex 19.765 5.4 1.97
    endloop
  endfacet
  facet normal 0 0 1
    outer loop
      vertex 18.115 4.14212 4.67
      vertex 18.1334 1.97842 4.67
      vertex 18.939 1.785 4.67
    endloop
  endfacet
  facet normal 0 0 1
    outer loop
      vertex 18.115 4.14212 4.67
      vertex 18.939 1.785 4.67
      vertex 19.765 1.72 4.67
    endloop
  endfacet
  facet normal -0 0 1
    outer loop
      vertex 18.115 4.14212 4.67
      vertex 19.765 1.72 4.67
      vertex 21.415 4.14212 4.67
    endloop
  endfacet
  facet normal 0 1 -0
    outer loop
      vertex 18.115 4.14212 4.67
      vertex 21.415 4.14212 4.67
      vertex 21.415 4.14212 1.97
    endloop
  endfacet
  facet normal 0 0 1
    outer loop
      vertex 18.115 9.85788 1.97
      vertex 18.4706 7.94046 1.97
      vertex 18.8245 8.29443 1.97
    endloop
  endfacet
  facet normal 0 0 1
    outer loop
      vertex 18.115 9.85788 1.97
      vertex 18.8245 8.29443 1.97
      vertex 19.2706 8.52169 1.97
    endloop
  endfacet
  facet normal 0 0 1
    outer loop
      vertex 18.115 9.85788 1.97
      vertex 19.2706 8.52169 1.97
      vertex 19.765 8.6 1.97
    endloop
  endfacet
  facet normal -0 0 1
    outer loop
      vertex 18.115 9.85788 1.97
      vertex 19.765 8.6 1.97
      vertex 21.415 9.85788 1.97
    endloop
  endfacet
  facet normal 0 -1 -0
    outer loop
      vertex 18.115 9.85788 1.97
      vertex 21.415 9.85788 1.97
      vertex 21.415 9.85788 4.67
    endloop
  endfacet
  facet normal 0 -1 0
    outer loop
      vertex 18.115 9.85788 1.97
      vertex 21.415 9.85788 4.67
      vertex 18.115 9.85788 4.67
    endloop
  endfacet
  facet normal 0 0 1
    outer loop
      vertex 18.115 9.85788 4.67
      vertex 18.939 12.215 4.67
      vertex 18.1334 12.0216 4.67
    endloop
  endfacet
  facet normal 0 0 1
    outer loop
      vertex 18.115 9.85788 4.67
      vertex 19.765 12.28 4.67
      vertex 18.939 12.215 4.67
    endloop
  endfacet
  facet normal 0 0 1
    outer loop
      vertex 18.115 9.85788 4.67
      vertex 21.415 9.85788 4.67
      vertex 19.765 12.28 4.67
    endloop
  endfacet
  facet normal -0.23346 -0.972366 -0
    outer loop
      vertex 18.1334 1.97842 1.97
      vertex 18.939 1.785 1.97
      vertex 18.939 1.785 4.67
    endloop
  endfacet
  facet normal -0.23346 -0.972366 0
    outer loop
      vertex 18.1334 1.97842 1.97
      vertex 18.939 1.785 4.67
      vertex 18.1334 1.97842 4.67
    endloop
  endfacet
  facet normal -0.233437 0.972372 0
    outer loop
      vertex 18.1334 12.0216 1.97
      vertex 18.1334 12.0216 4.67
      vertex 18.939 12.215 1.97
    endloop
  endfacet
  facet normal -0.233437 0.972372 0
    outer loop
      vertex 18.1334 12.0216 4.67
      vertex 18.939 12.215 4.67
      vertex 18.939 12.215 1.97
    endloop
  endfacet
  facet normal 0.987691 0.156415 0
    outer loop
      vertex 18.165 7 0
      vertex 18.165 7 1.97
      vertex 18.2433 6.50557 1.97
    endloop
  endfacet
  facet normal 0.987691 0.156415 0
    outer loop
      vertex 18.165 7 0
      vertex 18.2433 6.50557 1.97
      vertex 18.2433 6.50557 0
    endloop
  endfacet
  facet normal 0.987691 -0.156415 0
    outer loop
      vertex 18.165 7 0
      vertex 18.2433 7.49443 0
      vertex 18.165 7 1.97
    endloop
  endfacet
  facet normal 0.987691 -0.156415 0
    outer loop
      vertex 18.165 7 1.97
      vertex 18.2433 7.49443 0
      vertex 18.2433 7.49443 1.97
    endloop
  endfacet
  facet normal 0.890977 0.454048 0
    outer loop
      vertex 18.2433 6.50557 0
      vertex 18.2433 6.50557 1.97
      vertex 18.4706 6.05954 1.97
    endloop
  endfacet
  facet normal 0.890977 0.454048 0
    outer loop
      vertex 18.2433 6.50557 0
      vertex 18.4706 6.05954 1.97
      vertex 18.4706 6.05954 0
    endloop
  endfacet
  facet normal 0.890977 -0.454048 0
    outer loop
      vertex 18.2433 7.49443 0
      vertex 18.4706 7.94046 0
      vertex 18.2433 7.49443 1.97
    endloop
  endfacet
  facet normal 0.890977 -0.454048 0
    outer loop
      vertex 18.2433 7.49443 1.97
      vertex 18.4706 7.94046 0
      vertex 18.4706 7.94046 1.97
    endloop
  endfacet
  facet normal 0.707177 0.707037 0
    outer loop
      vertex 18.4706 6.05954 0
      vertex 18.4706 6.05954 1.97
      vertex 18.8245 5.70557 1.97
    endloop
  endfacet
  facet normal 0.707177 0.707037 0
    outer loop
      vertex 18.4706 6.05954 0
      vertex 18.8245 5.70557 1.97
      vertex 18.8245 5.70557 0
    endloop
  endfacet
  facet normal 0.707177 -0.707037 0
    outer loop
      vertex 18.4706 7.94046 0
      vertex 18.8245 8.29443 0
      vertex 18.4706 7.94046 1.97
    endloop
  endfacet
  facet normal 0.707177 -0.707037 0
    outer loop
      vertex 18.4706 7.94046 1.97
      vertex 18.8245 8.29443 0
      vertex 18.8245 8.29443 1.97
    endloop
  endfacet
  facet normal 0.453928 0.891038 0
    outer loop
      vertex 18.8245 5.70557 0
      vertex 18.8245 5.70557 1.97
      vertex 19.2706 5.47831 0
    endloop
  endfacet
  facet normal 0.453928 0.891038 -0
    outer loop
      vertex 18.8245 5.70557 1.97
      vertex 19.2706 5.47831 1.97
      vertex 19.2706 5.47831 0
    endloop
  endfacet
  facet normal 0.453928 -0.891038 0
    outer loop
      vertex 18.8245 8.29443 0
      vertex 19.2706 8.52169 0
      vertex 19.2706 8.52169 1.97
    endloop
  endfacet
  facet normal 0.453928 -0.891038 0
    outer loop
      vertex 18.8245 8.29443 0
      vertex 19.2706 8.52169 1.97
      vertex 18.8245 8.29443 1.97
    endloop
  endfacet
  facet normal -0.07845 -0.996918 -0
    outer loop
      vertex 18.939 1.785 1.97
      vertex 19.765 1.72 1.97
      vertex 19.765 1.72 4.67
    endloop
  endfacet
  facet normal -0.07845 -0.996918 0
    outer loop
      vertex 18.939 1.785 1.97
      vertex 19.765 1.72 4.67
      vertex 18.939 1.785 4.67
    endloop
  endfacet
  facet normal 0 0 1
    outer loop
      vertex 18.939 1.785 1.97
      vertex 28.84 0 1.97
      vertex 19.765 1.72 1.97
    endloop
  endfacet
  facet normal -0.07845 0.996918 0
    outer loop
      vertex 18.939 12.215 1.97
      vertex 18.939 12.215 4.67
      vertex 19.765 12.28 1.97
    endloop
  endfacet
  facet normal 0 0 1
    outer loop
      vertex 18.939 12.215 1.97
      vertex 19.765 12.28 1.97
      vertex 26.2 14 1.97
    endloop
  endfacet
  facet normal -0.07845 0.996918 0
    outer loop
      vertex 18.939 12.215 4.67
      vertex 19.765 12.28 4.67
      vertex 19.765 12.28 1.97
    endloop
  endfacet
  facet normal 0.156444 0.987687 0
    outer loop
      vertex 19.2706 5.47831 0
      vertex 19.2706 5.47831 1.97
      vertex 19.765 5.4 0
    endloop
  endfacet
  facet normal 0 0 -1
    outer loop
      vertex 19.2706 5.47831 0
      vertex 19.765 5.4 0
      vertex 28.84 0 0
    endloop
  endfacet
  facet normal 0.156444 0.987687 -0
    outer loop
      vertex 19.2706 5.47831 1.97
      vertex 19.765 5.4 1.97
      vertex 19.765 5.4 0
    endloop
  endfacet
  facet normal 0.156444 -0.987687 0
    outer loop
      vertex 19.2706 8.52169 0
      vertex 19.765 8.6 0
      vertex 19.765 8.6 1.97
    endloop
  endfacet
  facet normal 0.156444 -0.987687 0
    outer loop
      vertex 19.2706 8.52169 0
      vertex 19.765 8.6 1.97
      vertex 19.2706 8.52169 1.97
    endloop
  endfacet
  facet normal 0 0 -1
    outer loop
      vertex 19.2706 8.52169 0
      vertex 26.2 14 0
      vertex 19.765 8.6 0
    endloop
  endfacet
  facet normal 0.07845 -0.996918 0
    outer loop
      vertex 19.765 1.72 1.97
      vertex 20.591 1.785 1.97
      vertex 20.591 1.785 4.67
    endloop
  endfacet
  facet normal 0.07845 -0.996918 0
    outer loop
      vertex 19.765 1.72 1.97
      vertex 20.591 1.785 4.67
      vertex 19.765 1.72 4.67
    endloop
  endfacet
  facet normal -0 0 1
    outer loop
      vertex 19.765 1.72 1.97
      vertex 28.84 0 1.97
      vertex 20.591 1.785 1.97
    endloop
  endfacet
  facet normal 0 0 1
    outer loop
      vertex 19.765 1.72 4.67
      vertex 20.591 1.785 4.67
      vertex 21.415 4.14212 4.67
    endloop
  endfacet
  facet normal 0.07845 0.996918 0
    outer loop
      vertex 19.765 12.28 1.97
      vertex 19.765 12.28 4.67
      vertex 20.591 12.215 1.97
    endloop
  endfacet
  facet normal 0 0 1
    outer loop
      vertex 19.765 12.28 1.97
      vertex 20.591 12.215 1.97
      vertex 26.2 14 1.97
    endloop
  endfacet
  facet normal 0.07845 0.996918 -0
    outer loop
      vertex 19.765 12.28 4.67
      vertex 20.591 12.215 4.67
      vertex 20.591 12.215 1.97
    endloop
  endfacet
  facet normal 0 0 1
    outer loop
      vertex 19.765 12.28 4.67
      vertex 21.415 9.85788 4.67
      vertex 20.591 12.215 4.67
    endloop
  endfacet
  facet normal -0.156444 0.987687 0
    outer loop
      vertex 19.765 5.4 0
      vertex 19.765 5.4 1.97
      vertex 20.2594 5.47831 0
    endloop
  endfacet
  facet normal 0 0 -1
    outer loop
      vertex 19.765 5.4 0
      vertex 20.2594 5.47831 0
      vertex 28.84 0 0
    endloop
  endfacet
  facet normal -0.156444 0.987687 0
    outer loop
      vertex 19.765 5.4 1.97
      vertex 20.2594 5.47831 1.97
      vertex 20.2594 5.47831 0
    endloop
  endfacet
  facet normal -0 0 1
    outer loop
      vertex 19.765 5.4 1.97
      vertex 21.415 4.14212 1.97
      vertex 20.2594 5.47831 1.97
    endloop
  endfacet
  facet normal -0.156444 -0.987687 -0
    outer loop
      vertex 19.765 8.6 0
      vertex 20.2594 8.52169 0
      vertex 20.2594 8.52169 1.97
    endloop
  endfacet
  facet normal -0.156444 -0.987687 0
    outer loop
      vertex 19.765 8.6 0
      vertex 20.2594 8.52169 1.97
      vertex 19.765 8.6 1.97
    endloop
  endfacet
  facet normal 0 0 -1
    outer loop
      vertex 19.765 8.6 0
      vertex 26.2 14 0
      vertex 20.2594 8.52169 0
    endloop
  endfacet
  facet normal 0 0 1
    outer loop
      vertex 19.765 8.6 1.97
      vertex 20.2594 8.52169 1.97
      vertex 21.415 9.85788 1.97
    endloop
  endfacet
  facet normal 0.866025 0.500001 0
    outer loop
      vertex 2.3 7 1.97
      vertex 2.3 7 4.67
      vertex 3.95 4.14212 4.67
    endloop
  endfacet
  facet normal 0 0 1
    outer loop
      vertex 2.3 7 1.97
      vertex 3.95 4.14212 1.97
      vertex 4.30557 6.05954 1.97
    endloop
  endfacet
  facet normal 0.866025 0.500001 0
    outer loop
      vertex 2.3 7 1.97
      vertex 3.95 4.14212 4.67
      vertex 3.95 4.14212 1.97
    endloop
  endfacet
  facet normal 0.866025 -0.500001 0
    outer loop
      vertex 2.3 7 1.97
      vertex 3.95 9.85788 1.97
      vertex 2.3 7 4.67
    endloop
  endfacet
  facet normal 0 0 1
    outer loop
      vertex 2.3 7 1.97
      vertex 4 7 1.97
      vertex 4.07831 7.49443 1.97
    endloop
  endfacet
  facet normal -0 0 1
    outer loop
      vertex 2.3 7 1.97
      vertex 4.07831 6.50557 1.97
      vertex 4 7 1.97
    endloop
  endfacet
  facet normal 0 0 1
    outer loop
      vertex 2.3 7 1.97
      vertex 4.07831 7.49443 1.97
      vertex 4.30557 7.94046 1.97
    endloop
  endfacet
  facet normal 0 0 1
    outer loop
      vertex 2.3 7 1.97
      vertex 4.30557 6.05954 1.97
      vertex 4.07831 6.50557 1.97
    endloop
  endfacet
  facet normal 0 0 1
    outer loop
      vertex 2.3 7 1.97
      vertex 4.30557 7.94046 1.97
      vertex 3.95 9.85788 1.97
    endloop
  endfacet
  facet normal 0.866025 -0.500001 0
    outer loop
      vertex 2.3 7 4.67
      vertex 3.95 9.85788 1.97
      vertex 3.95 9.85788 4.67
    endloop
  endfacet
  facet normal -0.522492 0.852644 0
    outer loop
      vertex 2.49649 11.2716 1.97
      vertex 2.49649 11.2716 4.67
      vertex 3.20293 11.7045 1.97
    endloop
  endfacet
  facet normal -0.522492 0.852644 0
    outer loop
      vertex 2.49649 11.2716 4.67
      vertex 3.20293 11.7045 4.67
      vertex 3.20293 11.7045 1.97
    endloop
  endfacet
  facet normal -0 0 1
    outer loop
      vertex 2.49649 11.2716 4.67
      vertex 3.95 9.85788 4.67
      vertex 3.20293 11.7045 4.67
    endloop
  endfacet
  facet normal -0.522492 -0.852644 -0
    outer loop
      vertex 2.49649 2.72839 1.97
      vertex 3.20293 2.29549 1.97
      vertex 3.20293 2.29549 4.67
    endloop
  endfacet
  facet normal -0.522492 -0.852644 0
    outer loop
      vertex 2.49649 2.72839 1.97
      vertex 3.20293 2.29549 4.67
      vertex 2.49649 2.72839 4.67
    endloop
  endfacet
  facet normal 0 0 1
    outer loop
      vertex 2.49649 2.72839 4.67
      vertex 3.20293 2.29549 4.67
      vertex 3.95 4.14212 4.67
    endloop
  endfacet
  facet normal -0.453928 0.891038 0
    outer loop
      vertex 20.2594 5.47831 0
      vertex 20.2594 5.47831 1.97
      vertex 20.7055 5.70557 0
    endloop
  endfacet
  facet normal 0 0 -1
    outer loop
      vertex 20.2594 5.47831 0
      vertex 20.7055 5.70557 0
      vertex 28.84 0 0
    endloop
  endfacet
  facet normal -0.453928 0.891038 0
    outer loop
      vertex 20.2594 5.47831 1.97
      vertex 20.7055 5.70557 1.97
      vertex 20.7055 5.70557 0
    endloop
  endfacet
  facet normal -0 0 1
    outer loop
      vertex 20.2594 5.47831 1.97
      vertex 21.415 4.14212 1.97
      vertex 20.7055 5.70557 1.97
    endloop
  endfacet
  facet normal -0.453928 -0.891038 -0
    outer loop
      vertex 20.2594 8.52169 0
      vertex 20.7055 8.29443 0
      vertex 20.7055 8.29443 1.97
    endloop
  endfacet
  facet normal -0.453928 -0.891038 0
    outer loop
      vertex 20.2594 8.52169 0
      vertex 20.7055 8.29443 1.97
      vertex 20.2594 8.52169 1.97
    endloop
  endfacet
  facet normal 0 0 -1
    outer loop
      vertex 20.2594 8.52169 0
      vertex 26.2 14 0
      vertex 20.7055 8.29443 0
    endloop
  endfacet
  facet normal 0 0 1
    outer loop
      vertex 20.2594 8.52169 1.97
      vertex 20.7055 8.29443 1.97
      vertex 21.415 9.85788 1.97
    endloop
  endfacet
  facet normal 0.23346 -0.972366 0
    outer loop
      vertex 20.591 1.785 1.97
      vertex 21.3966 1.97842 1.97
      vertex 21.3966 1.97842 4.67
    endloop
  endfacet
  facet normal 0.23346 -0.972366 0
    outer loop
      vertex 20.591 1.785 1.97
      vertex 21.3966 1.97842 4.67
      vertex 20.591 1.785 4.67
    endloop
  endfacet
  facet normal -0 0 1
    outer loop
      vertex 20.591 1.785 1.97
      vertex 28.84 0 1.97
      vertex 21.3966 1.97842 1.97
    endloop
  endfacet
  facet normal 0 0 1
    outer loop
      vertex 20.591 1.785 4.67
      vertex 21.3966 1.97842 4.67
      vertex 21.415 4.14212 4.67
    endloop
  endfacet
  facet normal 0.233437 0.972372 0
    outer loop
      vertex 20.591 12.215 1.97
      vertex 20.591 12.215 4.67
      vertex 21.3966 12.0216 1.97
    endloop
  endfacet
  facet normal 0 0 1
    outer loop
      vertex 20.591 12.215 1.97
      vertex 21.3966 12.0216 1.97
      vertex 26.2 14 1.97
    endloop
  endfacet
  facet normal 0.233437 0.972372 -0
    outer loop
      vertex 20.591 12.215 4.67
      vertex 21.3966 12.0216 4.67
      vertex 21.3966 12.0216 1.97
    endloop
  endfacet
  facet normal 0 0 1
    outer loop
      vertex 20.591 12.215 4.67
      vertex 21.415 9.85788 4.67
      vertex 21.3966 12.0216 4.67
    endloop
  endfacet
  facet normal -0.707177 0.707037 0
    outer loop
      vertex 20.7055 5.70557 0
      vertex 20.7055 5.70557 1.97
      vertex 21.0594 6.05954 1.97
    endloop
  endfacet
  facet normal 0 0 -1
    outer loop
      vertex 20.7055 5.70557 0
      vertex 21.0594 6.05954 0
      vertex 28.84 0 0
    endloop
  endfacet
  facet normal -0.707177 0.707037 0
    outer loop
      vertex 20.7055 5.70557 0
      vertex 21.0594 6.05954 1.97
      vertex 21.0594 6.05954 0
    endloop
  endfacet
  facet normal -0 0 1
    outer loop
      vertex 20.7055 5.70557 1.97
      vertex 21.415 4.14212 1.97
      vertex 21.0594 6.05954 1.97
    endloop
  endfacet
  facet normal -0.707177 -0.707037 0
    outer loop
      vertex 20.7055 8.29443 0
      vertex 21.0594 7.94046 0
      vertex 20.7055 8.29443 1.97
    endloop
  endfacet
  facet normal 0 0 -1
    outer loop
      vertex 20.7055 8.29443 0
      vertex 26.2 14 0
      vertex 21.0594 7.94046 0
    endloop
  endfacet
  facet normal -0.707177 -0.707037 0
    outer loop
      vertex 20.7055 8.29443 1.97
      vertex 21.0594 7.94046 0
      vertex 21.0594 7.94046 1.97
    endloop
  endfacet
  facet normal 0 0 1
    outer loop
      vertex 20.7055 8.29443 1.97
      vertex 21.0594 7.94046 1.97
      vertex 21.415 9.85788 1.97
    endloop
  endfacet
  facet normal -0.890977 0.454048 0
    outer loop
      vertex 21.0594 6.05954 0
      vertex 21.0594 6.05954 1.97
      vertex 21.2867 6.50557 1.97
    endloop
  endfacet
  facet normal 0 0 -1
    outer loop
      vertex 21.0594 6.05954 0
      vertex 21.2867 6.50557 0
      vertex 28.84 0 0
    endloop
  endfacet
  facet normal -0.890977 0.454048 0
    outer loop
      vertex 21.0594 6.05954 0
      vertex 21.2867 6.50557 1.97
      vertex 21.2867 6.50557 0
    endloop
  endfacet
  facet normal 0 0 1
    outer loop
      vertex 21.0594 6.05954 1.97
      vertex 21.415 4.14212 1.97
      vertex 23.065 7 1.97
    endloop
  endfacet
  facet normal 0 0 1
    outer loop
      vertex 21.0594 6.05954 1.97
      vertex 23.065 7 1.97
      vertex 21.2867 6.50557 1.97
    endloop
  endfacet
  facet normal -0.890977 -0.454048 0
    outer loop
      vertex 21.0594 7.94046 0
      vertex 21.2867 7.49443 0
      vertex 21.0594 7.94046 1.97
    endloop
  endfacet
  facet normal 0 0 -1
    outer loop
      vertex 21.0594 7.94046 0
      vertex 26.2 14 0
      vertex 21.2867 7.49443 0
    endloop
  endfacet
  facet normal -0.890977 -0.454048 0
    outer loop
      vertex 21.0594 7.94046 1.97
      vertex 21.2867 7.49443 0
      vertex 21.2867 7.49443 1.97
    endloop
  endfacet
  facet normal 0 0 1
    outer loop
      vertex 21.0594 7.94046 1.97
      vertex 21.2867 7.49443 1.97
      vertex 23.065 7 1.97
    endloop
  endfacet
  facet normal -0 0 1
    outer loop
      vertex 21.0594 7.94046 1.97
      vertex 23.065 7 1.97
      vertex 21.415 9.85788 1.97
    endloop
  endfacet
  facet normal -0.987691 0.156415 0
    outer loop
      vertex 21.2867 6.50557 0
      vertex 21.2867 6.50557 1.97
      vertex 21.365 7 1.97
    endloop
  endfacet
  facet normal 0 0 -1
    outer loop
      vertex 21.2867 6.50557 0
      vertex 21.365 7 0
      vertex 28.84 0 0
    endloop
  endfacet
  facet normal -0.987691 0.156415 0
    outer loop
      vertex 21.2867 6.50557 0
      vertex 21.365 7 1.97
      vertex 21.365 7 0
    endloop
  endfacet
  facet normal 0 0 1
    outer loop
      vertex 21.2867 6.50557 1.97
      vertex 23.065 7 1.97
      vertex 21.365 7 1.97
    endloop
  endfacet
  facet normal -0.987691 -0.156415 0
    outer loop
      vertex 21.2867 7.49443 0
      vertex 21.365 7 0
      vertex 21.2867 7.49443 1.97
    endloop
  endfacet
  facet normal 0 0 -1
    outer loop
      vertex 21.2867 7.49443 0
      vertex 26.2 14 0
      vertex 21.365 7 0
    endloop
  endfacet
  facet normal -0.987691 -0.156415 0
    outer loop
      vertex 21.2867 7.49443 1.97
      vertex 21.365 7 0
      vertex 21.365 7 1.97
    endloop
  endfacet
  facet normal 0 0 1
    outer loop
      vertex 21.2867 7.49443 1.97
      vertex 21.365 7 1.97
      vertex 23.065 7 1.97
    endloop
  endfacet
  facet normal 0 0 -1
    outer loop
      vertex 21.365 7 0
      vertex 26.2 14 0
      vertex 28.84 0 0
    endloop
  endfacet
  facet normal 0.382673 -0.923884 0
    outer loop
      vertex 21.3966 1.97842 1.97
      vertex 22.1621 2.29549 1.97
      vertex 22.1621 2.29549 4.67
    endloop
  endfacet
  facet normal 0.382673 -0.923884 0
    outer loop
      vertex 21.3966 1.97842 1.97
      vertex 22.1621 2.29549 4.67
      vertex 21.3966 1.97842 4.67
    endloop
  endfacet
  facet normal -0 0 1
    outer loop
      vertex 21.3966 1.97842 1.97
      vertex 28.84 0 1.97
      vertex 22.1621 2.29549 1.97
    endloop
  endfacet
  facet normal 0 0 1
    outer loop
      vertex 21.3966 1.97842 4.67
      vertex 22.1621 2.29549 4.67
      vertex 21.415 4.14212 4.67
    endloop
  endfacet
  facet normal 0.382704 0.923871 0
    outer loop
      vertex 21.3966 12.0216 1.97
      vertex 21.3966 12.0216 4.67
      vertex 22.1621 11.7045 1.97
    endloop
  endfacet
  facet normal 0 0 1
    outer loop
      vertex 21.3966 12.0216 1.97
      vertex 22.1621 11.7045 1.97
      vertex 26.2 14 1.97
    endloop
  endfacet
  facet normal 0 0 1
    outer loop
      vertex 21.3966 12.0216 4.67
      vertex 21.415 9.85788 4.67
      vertex 22.1621 11.7045 4.67
    endloop
  endfacet
  facet normal 0.382704 0.923871 -0
    outer loop
      vertex 21.3966 12.0216 4.67
      vertex 22.1621 11.7045 4.67
      vertex 22.1621 11.7045 1.97
    endloop
  endfacet
  facet normal -0.866025 0.500001 0
    outer loop
      vertex 21.415 4.14212 1.97
      vertex 21.415 4.14212 4.67
      vertex 23.065 7 4.67
    endloop
  endfacet
  facet normal -0.866025 0.500001 0
    outer loop
      vertex 21.415 4.14212 1.97
      vertex 23.065 7 4.67
      vertex 23.065 7 1.97
    endloop
  endfacet
  facet normal 0 0 1
    outer loop
      vertex 21.415 4.14212 4.67
      vertex 22.1621 2.29549 4.67
      vertex 22.8685 2.72839 4.67
    endloop
  endfacet
  facet normal 0 0 1
    outer loop
      vertex 21.415 4.14212 4.67
      vertex 22.8685 2.72839 4.67
      vertex 23.4985 3.26648 4.67
    endloop
  endfacet
  facet normal 0 0 1
    outer loop
      vertex 21.415 4.14212 4.67
      vertex 23.4985 3.26648 4.67
      vertex 24.0366 3.89649 4.67
    endloop
  endfacet
  facet normal 0 0 1
    outer loop
      vertex 21.415 4.14212 4.67
      vertex 24.0366 3.89649 4.67
      vertex 24.4695 4.60293 4.67
    endloop
  endfacet
  facet normal 0 0 1
    outer loop
      vertex 21.415 4.14212 4.67
      vertex 24.4695 4.60293 4.67
      vertex 23.065 7 4.67
    endloop
  endfacet
  facet normal -0.866025 -0.500001 0
    outer loop
      vertex 21.415 9.85788 1.97
      vertex 23.065 7 1.97
      vertex 21.415 9.85788 4.67
    endloop
  endfacet
  facet normal 0 0 1
    outer loop
      vertex 21.415 9.85788 4.67
      vertex 22.8685 11.2716 4.67
      vertex 22.1621 11.7045 4.67
    endloop
  endfacet
  facet normal -0.866025 -0.500001 0
    outer loop
      vertex 21.415 9.85788 4.67
      vertex 23.065 7 1.97
      vertex 23.065 7 4.67
    endloop
  endfacet
  facet normal 0 0 1
    outer loop
      vertex 21.415 9.85788 4.67
      vertex 23.065 7 4.67
      vertex 24.4695 9.39707 4.67
    endloop
  endfacet
  facet normal 0 0 1
    outer loop
      vertex 21.415 9.85788 4.67
      vertex 23.4985 10.7335 4.67
      vertex 22.8685 11.2716 4.67
    endloop
  endfacet
  facet normal 0 0 1
    outer loop
      vertex 21.415 9.85788 4.67
      vertex 24.0366 10.1035 4.67
      vertex 23.4985 10.7335 4.67
    endloop
  endfacet
  facet normal -0 0 1
    outer loop
      vertex 21.415 9.85788 4.67
      vertex 24.4695 9.39707 4.67
      vertex 24.0366 10.1035 4.67
    endloop
  endfacet
  facet normal 0.522514 0.852631 0
    outer loop
      vertex 22.1621 11.7045 1.97
      vertex 22.1621 11.7045 4.67
      vertex 22.8685 11.2716 1.97
    endloop
  endfacet
  facet normal 0 0 1
    outer loop
      vertex 22.1621 11.7045 1.97
      vertex 22.8685 11.2716 1.97
      vertex 26.2 14 1.97
    endloop
  endfacet
  facet normal 0.522514 0.852631 -0
    outer loop
      vertex 22.1621 11.7045 4.67
      vertex 22.8685 11.2716 4.67
      vertex 22.8685 11.2716 1.97
    endloop
  endfacet
  facet normal 0.522514 -0.852631 0
    outer loop
      vertex 22.1621 2.29549 1.97
      vertex 22.8685 2.72839 1.97
      vertex 22.8685 2.72839 4.67
    endloop
  endfacet
  facet normal 0.522514 -0.852631 0
    outer loop
      vertex 22.1621 2.29549 1.97
      vertex 22.8685 2.72839 4.67
      vertex 22.1621 2.29549 4.67
    endloop
  endfacet
  facet normal -0 0 1
    outer loop
      vertex 22.1621 2.29549 1.97
      vertex 28.84 0 1.97
      vertex 22.8685 2.72839 1.97
    endloop
  endfacet
  facet normal 0.649468 0.760389 0
    outer loop
      vertex 22.8685 11.2716 1.97
      vertex 22.8685 11.2716 4.67
      vertex 23.4985 10.7335 1.97
    endloop
  endfacet
  facet normal 0 0 1
    outer loop
      vertex 22.8685 11.2716 1.97
      vertex 23.4985 10.7335 1.97
      vertex 26.2 14 1.97
    endloop
  endfacet
  facet normal 0.649468 0.760389 -0
    outer loop
      vertex 22.8685 11.2716 4.67
      vertex 23.4985 10.7335 4.67
      vertex 23.4985 10.7335 1.97
    endloop
  endfacet
  facet normal 0.649461 -0.760395 0
    outer loop
      vertex 22.8685 2.72839 1.97
      vertex 23.4985 3.26648 1.97
      vertex 23.4985 3.26648 4.67
    endloop
  endfacet
  facet normal 0.649461 -0.760395 0
    outer loop
      vertex 22.8685 2.72839 1.97
      vertex 23.4985 3.26648 4.67
      vertex 22.8685 2.72839 4.67
    endloop
  endfacet
  facet normal -0 0 1
    outer loop
      vertex 22.8685 2.72839 1.97
      vertex 28.84 0 1.97
      vertex 23.4985 3.26648 1.97
    endloop
  endfacet
  facet normal 0 0 1
    outer loop
      vertex 23.065 7 4.67
      vertex 24.4695 4.60293 4.67
      vertex 24.7866 5.36839 4.67
    endloop
  endfacet
  facet normal 0 0 1
    outer loop
      vertex 23.065 7 4.67
      vertex 24.7866 5.36839 4.67
      vertex 24.98 6.17403 4.67
    endloop
  endfacet
  facet normal 0 0 1
    outer loop
      vertex 23.065 7 4.67
      vertex 24.7866 8.63161 4.67
      vertex 24.4695 9.39707 4.67
    endloop
  endfacet
  facet normal 0 0 1
    outer loop
      vertex 23.065 7 4.67
      vertex 24.98 6.17403 4.67
      vertex 25.045 7 4.67
    endloop
  endfacet
  facet normal 0 0 1
    outer loop
      vertex 23.065 7 4.67
      vertex 24.98 7.82597 4.67
      vertex 24.7866 8.63161 4.67
    endloop
  endfacet
  facet normal 0 0 1
    outer loop
      vertex 23.065 7 4.67
      vertex 25.045 7 4.67
      vertex 24.98 7.82597 4.67
    endloop
  endfacet
  facet normal 0.760389 0.649468 0
    outer loop
      vertex 23.4985 10.7335 1.97
      vertex 23.4985 10.7335 4.67
      vertex 24.0366 10.1035 4.67
    endloop
  endfacet
  facet normal 0 0 1
    outer loop
      vertex 23.4985 10.7335 1.97
      vertex 24.0366 10.1035 1.97
      vertex 26.2 14 1.97
    endloop
  endfacet
  facet normal 0.760389 0.649468 0
    outer loop
      vertex 23.4985 10.7335 1.97
      vertex 24.0366 10.1035 4.67
      vertex 24.0366 10.1035 1.97
    endloop
  endfacet
  facet normal 0.760394 -0.649462 0
    outer loop
      vertex 23.4985 3.26648 1.97
      vertex 24.0366 3.89649 1.97
      vertex 23.4985 3.26648 4.67
    endloop
  endfacet
  facet normal -0 0 1
    outer loop
      vertex 23.4985 3.26648 1.97
      vertex 28.84 0 1.97
      vertex 24.0366 3.89649 1.97
    endloop
  endfacet
  facet normal 0.760394 -0.649462 0
    outer loop
      vertex 23.4985 3.26648 4.67
      vertex 24.0366 3.89649 1.97
      vertex 24.0366 3.89649 4.67
    endloop
  endfacet
  facet normal 0.852641 0.522498 0
    outer loop
      vertex 24.0366 10.1035 1.97
      vertex 24.0366 10.1035 4.67
      vertex 24.4695 9.39707 4.67
    endloop
  endfacet
  facet normal 0 0 1
    outer loop
      vertex 24.0366 10.1035 1.97
      vertex 24.4695 9.39707 1.97
      vertex 26.2 14 1.97
    endloop
  endfacet
  facet normal 0.852641 0.522498 0
    outer loop
      vertex 24.0366 10.1035 1.97
      vertex 24.4695 9.39707 4.67
      vertex 24.4695 9.39707 1.97
    endloop
  endfacet
  facet normal 0.852644 -0.522492 0
    outer loop
      vertex 24.0366 3.89649 1.97
      vertex 24.4695 4.60293 1.97
      vertex 24.0366 3.89649 4.67
    endloop
  endfacet
  facet normal -0 0 1
    outer loop
      vertex 24.0366 3.89649 1.97
      vertex 28.84 0 1.97
      vertex 24.4695 4.60293 1.97
    endloop
  endfacet
  facet normal 0.852644 -0.522492 0
    outer loop
      vertex 24.0366 3.89649 4.67
      vertex 24.4695 4.60293 1.97
      vertex 24.4695 4.60293 4.67
    endloop
  endfacet
  facet normal 0.923864 -0.382721 0
    outer loop
      vertex 24.4695 4.60293 1.97
      vertex 24.7866 5.36839 1.97
      vertex 24.4695 4.60293 4.67
    endloop
  endfacet
  facet normal -0 0 1
    outer loop
      vertex 24.4695 4.60293 1.97
      vertex 28.84 0 1.97
      vertex 24.7866 5.36839 1.97
    endloop
  endfacet
  facet normal 0.923864 -0.382721 0
    outer loop
      vertex 24.4695 4.60293 4.67
      vertex 24.7866 5.36839 1.97
      vertex 24.7866 5.36839 4.67
    endloop
  endfacet
  facet normal 0.923864 0.382721 0
    outer loop
      vertex 24.4695 9.39707 1.97
      vertex 24.4695 9.39707 4.67
      vertex 24.7866 8.63161 4.67
    endloop
  endfacet
  facet normal 0 0 1
    outer loop
      vertex 24.4695 9.39707 1.97
      vertex 24.7866 8.63161 1.97
      vertex 26.2 14 1.97
    endloop
  endfacet
  facet normal 0.923864 0.382721 0
    outer loop
      vertex 24.4695 9.39707 1.97
      vertex 24.7866 8.63161 4.67
      vertex 24.7866 8.63161 1.97
    endloop
  endfacet
  facet normal 0.972375 -0.233426 0
    outer loop
      vertex 24.7866 5.36839 1.97
      vertex 24.98 6.17403 1.97
      vertex 24.7866 5.36839 4.67
    endloop
  endfacet
  facet normal -0 0 1
    outer loop
      vertex 24.7866 5.36839 1.97
      vertex 28.84 0 1.97
      vertex 24.98 6.17403 1.97
    endloop
  endfacet
  facet normal 0.972375 -0.233426 0
    outer loop
      vertex 24.7866 5.36839 4.67
      vertex 24.98 6.17403 1.97
      vertex 24.98 6.17403 4.67
    endloop
  endfacet
  facet normal 0.972375 0.233426 0
    outer loop
      vertex 24.7866 8.63161 1.97
      vertex 24.7866 8.63161 4.67
      vertex 24.98 7.82597 4.67
    endloop
  endfacet
  facet normal 0 0 1
    outer loop
      vertex 24.7866 8.63161 1.97
      vertex 24.98 7.82597 1.97
      vertex 26.2 14 1.97
    endloop
  endfacet
  facet normal 0.972375 0.233426 0
    outer loop
      vertex 24.7866 8.63161 1.97
      vertex 24.98 7.82597 4.67
      vertex 24.98 7.82597 1.97
    endloop
  endfacet
  facet normal 0.996918 -0.0784528 0
    outer loop
      vertex 24.98 6.17403 1.97
      vertex 25.045 7 1.97
      vertex 24.98 6.17403 4.67
    endloop
  endfacet
  facet normal -0 0 1
    outer loop
      vertex 24.98 6.17403 1.97
      vertex 28.84 0 1.97
      vertex 25.045 7 1.97
    endloop
  endfacet
  facet normal 0.996918 -0.0784528 0
    outer loop
      vertex 24.98 6.17403 4.67
      vertex 25.045 7 1.97
      vertex 25.045 7 4.67
    endloop
  endfacet
  facet normal 0.996918 0.0784528 0
    outer loop
      vertex 24.98 7.82597 1.97
      vertex 24.98 7.82597 4.67
      vertex 25.045 7 4.67
    endloop
  endfacet
  facet normal 0 0 1
    outer loop
      vertex 24.98 7.82597 1.97
      vertex 25.045 7 1.97
      vertex 28.84 0 1.97
    endloop
  endfacet
  facet normal 0.996918 0.0784528 0
    outer loop
      vertex 24.98 7.82597 1.97
      vertex 25.045 7 4.67
      vertex 25.045 7 1.97
    endloop
  endfacet
  facet normal -0 0 1
    outer loop
      vertex 24.98 7.82597 1.97
      vertex 28.84 0 1.97
      vertex 26.2 14 1.97
    endloop
  endfacet
  facet normal 0.982681 0.185306 0
    outer loop
      vertex 26.2 14 0
      vertex 26.2 14 1.97
      vertex 28.84 0 1.97
    endloop
  endfacet
  facet normal 0.982681 0.185306 0
    outer loop
      vertex 26.2 14 0
      vertex 28.84 0 1.97
      vertex 28.84 0 0
    endloop
  endfacet
  facet normal -0.382721 0.923864 0
    outer loop
      vertex 3.20293 11.7045 1.97
      vertex 3.20293 11.7045 4.67
      vertex 3.96839 12.0216 1.97
    endloop
  endfacet
  facet normal -0 0 1
    outer loop
      vertex 3.20293 11.7045 4.67
      vertex 3.95 9.85788 4.67
      vertex 3.96839 12.0216 4.67
    endloop
  endfacet
  facet normal -0.382721 0.923864 0
    outer loop
      vertex 3.20293 11.7045 4.67
      vertex 3.96839 12.0216 4.67
      vertex 3.96839 12.0216 1.97
    endloop
  endfacet
  facet normal -0.38269 -0.923877 -0
    outer loop
      vertex 3.20293 2.29549 1.97
      vertex 3.96839 1.97842 1.97
      vertex 3.96839 1.97842 4.67
    endloop
  endfacet
  facet normal -0.38269 -0.923877 0
    outer loop
      vertex 3.20293 2.29549 1.97
      vertex 3.96839 1.97842 4.67
      vertex 3.20293 2.29549 4.67
    endloop
  endfacet
  facet normal 0 0 1
    outer loop
      vertex 3.20293 2.29549 4.67
      vertex 3.96839 1.97842 4.67
      vertex 3.95 4.14212 4.67
    endloop
  endfacet
  facet normal 0 1 0
    outer loop
      vertex 3.95 4.14212 1.97
      vertex 3.95 4.14212 4.67
      vertex 7.25 4.14212 1.97
    endloop
  endfacet
  facet normal 0 0 1
    outer loop
      vertex 3.95 4.14212 1.97
      vertex 4.65954 5.70557 1.97
      vertex 4.30557 6.05954 1.97
    endloop
  endfacet
  facet normal 0 0 1
    outer loop
      vertex 3.95 4.14212 1.97
      vertex 5.10557 5.47831 1.97
      vertex 4.65954 5.70557 1.97
    endloop
  endfacet
  facet normal 0 0 1
    outer loop
      vertex 3.95 4.14212 1.97
      vertex 5.6 5.4 1.97
      vertex 5.10557 5.47831 1.97
    endloop
  endfacet
  facet normal 0 0 1
    outer loop
      vertex 3.95 4.14212 1.97
      vertex 7.25 4.14212 1.97
      vertex 5.6 5.4 1.97
    endloop
  endfacet
  facet normal 0 0 1
    outer loop
      vertex 3.95 4.14212 4.67
      vertex 3.96839 1.97842 4.67
      vertex 4.77403 1.785 4.67
    endloop
  endfacet
  facet normal 0 0 1
    outer loop
      vertex 3.95 4.14212 4.67
      vertex 4.77403 1.785 4.67
      vertex 5.6 1.72 4.67
    endloop
  endfacet
  facet normal -0 0 1
    outer loop
      vertex 3.95 4.14212 4.67
      vertex 5.6 1.72 4.67
      vertex 7.25 4.14212 4.67
    endloop
  endfacet
  facet normal 0 1 -0
    outer loop
      vertex 3.95 4.14212 4.67
      vertex 7.25 4.14212 4.67
      vertex 7.25 4.14212 1.97
    endloop
  endfacet
  facet normal 0 0 1
    outer loop
      vertex 3.95 9.85788 1.97
      vertex 4.30557 7.94046 1.97
      vertex 4.65954 8.29443 1.97
    endloop
  endfacet
  facet normal 0 0 1
    outer loop
      vertex 3.95 9.85788 1.97
      vertex 4.65954 8.29443 1.97
      vertex 5.10557 8.52169 1.97
    endloop
  endfacet
  facet normal 0 0 1
    outer loop
      vertex 3.95 9.85788 1.97
      vertex 5.10557 8.52169 1.97
      vertex 5.6 8.6 1.97
    endloop
  endfacet
  facet normal -0 0 1
    outer loop
      vertex 3.95 9.85788 1.97
      vertex 5.6 8.6 1.97
      vertex 7.25 9.85788 1.97
    endloop
  endfacet
  facet normal 0 -1 -0
    outer loop
      vertex 3.95 9.85788 1.97
      vertex 7.25 9.85788 1.97
      vertex 7.25 9.85788 4.67
    endloop
  endfacet
  facet normal 0 -1 0
    outer loop
      vertex 3.95 9.85788 1.97
      vertex 7.25 9.85788 4.67
      vertex 3.95 9.85788 4.67
    endloop
  endfacet
  facet normal 0 0 1
    outer loop
      vertex 3.95 9.85788 4.67
      vertex 4.77403 12.215 4.67
      vertex 3.96839 12.0216 4.67
    endloop
  endfacet
  facet normal 0 0 1
    outer loop
      vertex 3.95 9.85788 4.67
      vertex 5.6 12.28 4.67
      vertex 4.77403 12.215 4.67
    endloop
  endfacet
  facet normal 0 0 1
    outer loop
      vertex 3.95 9.85788 4.67
      vertex 7.25 9.85788 4.67
      vertex 5.6 12.28 4.67
    endloop
  endfacet
  facet normal -0.233449 -0.972369 -0
    outer loop
      vertex 3.96839 1.97842 1.97
      vertex 4.77403 1.785 1.97
      vertex 4.77403 1.785 4.67
    endloop
  endfacet
  facet normal -0.233449 -0.972369 0
    outer loop
      vertex 3.96839 1.97842 1.97
      vertex 4.77403 1.785 4.67
      vertex 3.96839 1.97842 4.67
    endloop
  endfacet
  facet normal -0.233426 0.972375 0
    outer loop
      vertex 3.96839 12.0216 1.97
      vertex 3.96839 12.0216 4.67
      vertex 4.77403 12.215 1.97
    endloop
  endfacet
  facet normal -0.233426 0.972375 0
    outer loop
      vertex 3.96839 12.0216 4.67
      vertex 4.77403 12.215 4.67
      vertex 4.77403 12.215 1.97
    endloop
  endfacet
  facet normal 0.987688 0.156434 0
    outer loop
      vertex 4 7 0
      vertex 4 7 1.97
      vertex 4.07831 6.50557 1.97
    endloop
  endfacet
  facet normal 0.987688 0.156434 0
    outer loop
      vertex 4 7 0
      vertex 4.07831 6.50557 1.97
      vertex 4.07831 6.50557 0
    endloop
  endfacet
  facet normal 0.987688 -0.156434 0
    outer loop
      vertex 4 7 0
      vertex 4.07831 7.49443 0
      vertex 4 7 1.97
    endloop
  endfacet
  facet normal 0.987688 -0.156434 0
    outer loop
      vertex 4 7 1.97
      vertex 4.07831 7.49443 0
      vertex 4.07831 7.49443 1.97
    endloop
  endfacet
  facet normal 0.891009 0.453985 0
    outer loop
      vertex 4.07831 6.50557 0
      vertex 4.07831 6.50557 1.97
      vertex 4.30557 6.05954 1.97
    endloop
  endfacet
  facet normal 0.891009 0.453985 0
    outer loop
      vertex 4.07831 6.50557 0
      vertex 4.30557 6.05954 1.97
      vertex 4.30557 6.05954 0
    endloop
  endfacet
  facet normal 0.891009 -0.453985 0
    outer loop
      vertex 4.07831 7.49443 0
      vertex 4.30557 7.94046 0
      vertex 4.07831 7.49443 1.97
    endloop
  endfacet
  facet normal 0.891009 -0.453985 0
    outer loop
      vertex 4.07831 7.49443 1.97
      vertex 4.30557 7.94046 0
      vertex 4.30557 7.94046 1.97
    endloop
  endfacet
  facet normal 0.707107 0.707107 0
    outer loop
      vertex 4.30557 6.05954 0
      vertex 4.30557 6.05954 1.97
      vertex 4.65954 5.70557 1.97
    endloop
  endfacet
  facet normal 0.707107 0.707107 0
    outer loop
      vertex 4.30557 6.05954 0
      vertex 4.65954 5.70557 1.97
      vertex 4.65954 5.70557 0
    endloop
  endfacet
  facet normal 0.707107 -0.707107 0
    outer loop
      vertex 4.30557 7.94046 0
      vertex 4.65954 8.29443 0
      vertex 4.30557 7.94046 1.97
    endloop
  endfacet
  facet normal 0.707107 -0.707107 0
    outer loop
      vertex 4.30557 7.94046 1.97
      vertex 4.65954 8.29443 0
      vertex 4.65954 8.29443 1.97
    endloop
  endfacet
  facet normal 0.453985 0.891009 0
    outer loop
      vertex 4.65954 5.70557 0
      vertex 4.65954 5.70557 1.97
      vertex 5.10557 5.47831 0
    endloop
  endfacet
  facet normal 0.453985 0.891009 -0
    outer loop
      vertex 4.65954 5.70557 1.97
      vertex 5.10557 5.47831 1.97
      vertex 5.10557 5.47831 0
    endloop
  endfacet
  facet normal 0.453985 -0.891009 0
    outer loop
      vertex 4.65954 8.29443 0
      vertex 5.10557 8.52169 0
      vertex 5.10557 8.52169 1.97
    endloop
  endfacet
  facet normal 0.453985 -0.891009 0
    outer loop
      vertex 4.65954 8.29443 0
      vertex 5.10557 8.52169 1.97
      vertex 4.65954 8.29443 1.97
    endloop
  endfacet
  facet normal -0.0784528 -0.996918 -0
    outer loop
      vertex 4.77403 1.785 1.97
      vertex 5.6 1.72 1.97
      vertex 5.6 1.72 4.67
    endloop
  endfacet
  facet normal -0.0784528 -0.996918 0
    outer loop
      vertex 4.77403 1.785 1.97
      vertex 5.6 1.72 4.67
      vertex 4.77403 1.785 4.67
    endloop
  endfacet
  facet normal -0.0784528 0.996918 0
    outer loop
      vertex 4.77403 12.215 1.97
      vertex 4.77403 12.215 4.67
      vertex 5.6 12.28 1.97
    endloop
  endfacet
  facet normal -0.0784528 0.996918 0
    outer loop
      vertex 4.77403 12.215 4.67
      vertex 5.6 12.28 4.67
      vertex 5.6 12.28 1.97
    endloop
  endfacet
  facet normal 0.156434 0.987688 0
    outer loop
      vertex 5.10557 5.47831 0
      vertex 5.10557 5.47831 1.97
      vertex 5.6 5.4 0
    endloop
  endfacet
  facet normal 0.156434 0.987688 -0
    outer loop
      vertex 5.10557 5.47831 1.97
      vertex 5.6 5.4 1.97
      vertex 5.6 5.4 0
    endloop
  endfacet
  facet normal 0.156434 -0.987688 0
    outer loop
      vertex 5.10557 8.52169 0
      vertex 5.6 8.6 0
      vertex 5.6 8.6 1.97
    endloop
  endfacet
  facet normal 0.156434 -0.987688 0
    outer loop
      vertex 5.10557 8.52169 0
      vertex 5.6 8.6 1.97
      vertex 5.10557 8.52169 1.97
    endloop
  endfacet
  facet normal 0.0784528 -0.996918 0
    outer loop
      vertex 5.6 1.72 1.97
      vertex 6.42597 1.785 1.97
      vertex 6.42597 1.785 4.67
    endloop
  endfacet
  facet normal 0.0784528 -0.996918 0
    outer loop
      vertex 5.6 1.72 1.97
      vertex 6.42597 1.785 4.67
      vertex 5.6 1.72 4.67
    endloop
  endfacet
  facet normal 0 0 1
    outer loop
      vertex 5.6 1.72 4.67
      vertex 6.42597 1.785 4.67
      vertex 7.25 4.14212 4.67
    endloop
  endfacet
  facet normal 0.0784528 0.996918 0
    outer loop
      vertex 5.6 12.28 1.97
      vertex 5.6 12.28 4.67
      vertex 6.42597 12.215 1.97
    endloop
  endfacet
  facet normal 0.0784528 0.996918 -0
    outer loop
      vertex 5.6 12.28 4.67
      vertex 6.42597 12.215 4.67
      vertex 6.42597 12.215 1.97
    endloop
  endfacet
  facet normal 0 0 1
    outer loop
      vertex 5.6 12.28 4.67
      vertex 7.25 9.85788 4.67
      vertex 6.42597 12.215 4.67
    endloop
  endfacet
  facet normal -0.156434 0.987688 0
    outer loop
      vertex 5.6 5.4 0
      vertex 5.6 5.4 1.97
      vertex 6.09443 5.47831 0
    endloop
  endfacet
  facet normal -0.156434 0.987688 0
    outer loop
      vertex 5.6 5.4 1.97
      vertex 6.09443 5.47831 1.97
      vertex 6.09443 5.47831 0
    endloop
  endfacet
  facet normal -0 0 1
    outer loop
      vertex 5.6 5.4 1.97
      vertex 7.25 4.14212 1.97
      vertex 6.09443 5.47831 1.97
    endloop
  endfacet
  facet normal -0.156434 -0.987688 -0
    outer loop
      vertex 5.6 8.6 0
      vertex 6.09443 8.52169 0
      vertex 6.09443 8.52169 1.97
    endloop
  endfacet
  facet normal -0.156434 -0.987688 0
    outer loop
      vertex 5.6 8.6 0
      vertex 6.09443 8.52169 1.97
      vertex 5.6 8.6 1.97
    endloop
  endfacet
  facet normal 0 0 1
    outer loop
      vertex 5.6 8.6 1.97
      vertex 6.09443 8.52169 1.97
      vertex 7.25 9.85788 1.97
    endloop
  endfacet
  facet normal 0 0 -1
    outer loop
      vertex 6.09443 5.47831 0
      vertex 18.8245 5.70557 0
      vertex 19.2706 5.47831 0
    endloop
  endfacet
  facet normal -0.453985 0.891009 0
    outer loop
      vertex 6.09443 5.47831 0
      vertex 6.09443 5.47831 1.97
      vertex 6.54046 5.70557 0
    endloop
  endfacet
  facet normal -0 0 -1
    outer loop
      vertex 6.09443 5.47831 0
      vertex 6.54046 5.70557 0
      vertex 18.8245 5.70557 0
    endloop
  endfacet
  facet normal -0.453985 0.891009 0
    outer loop
      vertex 6.09443 5.47831 1.97
      vertex 6.54046 5.70557 1.97
      vertex 6.54046 5.70557 0
    endloop
  endfacet
  facet normal -0 0 1
    outer loop
      vertex 6.09443 5.47831 1.97
      vertex 7.25 4.14212 1.97
      vertex 6.54046 5.70557 1.97
    endloop
  endfacet
  facet normal 0 0 -1
    outer loop
      vertex 6.09443 8.52169 0
      vertex 18.8245 8.29443 0
      vertex 6.54046 8.29443 0
    endloop
  endfacet
  facet normal 0 0 -1
    outer loop
      vertex 6.09443 8.52169 0
      vertex 19.2706 8.52169 0
      vertex 18.8245 8.29443 0
    endloop
  endfacet
  facet normal -0.453985 -0.891009 -0
    outer loop
      vertex 6.09443 8.52169 0
      vertex 6.54046 8.29443 0
      vertex 6.54046 8.29443 1.97
    endloop
  endfacet
  facet normal -0.453985 -0.891009 0
    outer loop
      vertex 6.09443 8.52169 0
      vertex 6.54046 8.29443 1.97
      vertex 6.09443 8.52169 1.97
    endloop
  endfacet
  facet normal 0 0 1
    outer loop
      vertex 6.09443 8.52169 1.97
      vertex 6.54046 8.29443 1.97
      vertex 7.25 9.85788 1.97
    endloop
  endfacet
  facet normal 0 0 1
    outer loop
      vertex 6.42597 1.785 1.97
      vertex 18.939 1.785 1.97
      vertex 7.23161 1.97842 1.97
    endloop
  endfacet
  facet normal 0.233449 -0.972369 0
    outer loop
      vertex 6.42597 1.785 1.97
      vertex 7.23161 1.97842 1.97
      vertex 7.23161 1.97842 4.67
    endloop
  endfacet
  facet normal 0.233449 -0.972369 0
    outer loop
      vertex 6.42597 1.785 1.97
      vertex 7.23161 1.97842 4.67
      vertex 6.42597 1.785 4.67
    endloop
  endfacet
  facet normal 0 0 1
    outer loop
      vertex 6.42597 1.785 4.67
      vertex 7.23161 1.97842 4.67
      vertex 7.25 4.14212 4.67
    endloop
  endfacet
  facet normal 0 0 1
    outer loop
      vertex 6.42597 12.215 1.97
      vertex 18.1334 12.0216 1.97
      vertex 18.939 12.215 1.97
    endloop
  endfacet
  facet normal 0.233426 0.972375 0
    outer loop
      vertex 6.42597 12.215 1.97
      vertex 6.42597 12.215 4.67
      vertex 7.23161 12.0216 1.97
    endloop
  endfacet
  facet normal 0 0 1
    outer loop
      vertex 6.42597 12.215 1.97
      vertex 7.23161 12.0216 1.97
      vertex 18.1334 12.0216 1.97
    endloop
  endfacet
  facet normal 0.233426 0.972375 -0
    outer loop
      vertex 6.42597 12.215 4.67
      vertex 7.23161 12.0216 4.67
      vertex 7.23161 12.0216 1.97
    endloop
  endfacet
  facet normal 0 0 1
    outer loop
      vertex 6.42597 12.215 4.67
      vertex 7.25 9.85788 4.67
      vertex 7.23161 12.0216 4.67
    endloop
  endfacet
  facet normal -0.707107 0.707107 0
    outer loop
      vertex 6.54046 5.70557 0
      vertex 6.54046 5.70557 1.97
      vertex 6.89443 6.05954 1.97
    endloop
  endfacet
  facet normal 0 0 -1
    outer loop
      vertex 6.54046 5.70557 0
      vertex 6.89443 6.05954 0
      vertex 18.8245 5.70557 0
    endloop
  endfacet
  facet normal -0.707107 0.707107 0
    outer loop
      vertex 6.54046 5.70557 0
      vertex 6.89443 6.05954 1.97
      vertex 6.89443 6.05954 0
    endloop
  endfacet
  facet normal -0 0 1
    outer loop
      vertex 6.54046 5.70557 1.97
      vertex 7.25 4.14212 1.97
      vertex 6.89443 6.05954 1.97
    endloop
  endfacet
  facet normal 0 0 -1
    outer loop
      vertex 6.54046 8.29443 0
      vertex 18.8245 8.29443 0
      vertex 6.89443 7.94046 0
    endloop
  endfacet
  facet normal -0.707107 -0.707107 0
    outer loop
      vertex 6.54046 8.29443 0
      vertex 6.89443 7.94046 0
      vertex 6.54046 8.29443 1.97
    endloop
  endfacet
  facet normal -0.707107 -0.707107 0
    outer loop
      vertex 6.54046 8.29443 1.97
      vertex 6.89443 7.94046 0
      vertex 6.89443 7.94046 1.97
    endloop
  endfacet
  facet normal 0 0 1
    outer loop
      vertex 6.54046 8.29443 1.97
      vertex 6.89443 7.94046 1.97
      vertex 7.25 9.85788 1.97
    endloop
  endfacet
  facet normal 0 0 -1
    outer loop
      vertex 6.89443 6.05954 0
      vertex 18.4706 6.05954 0
      vertex 18.8245 5.70557 0
    endloop
  endfacet
  facet normal -0.891009 0.453985 0
    outer loop
      vertex 6.89443 6.05954 0
      vertex 6.89443 6.05954 1.97
      vertex 7.12169 6.50557 1.97
    endloop
  endfacet
  facet normal 0 0 -1
    outer loop
      vertex 6.89443 6.05954 0
      vertex 7.12169 6.50557 0
      vertex 18.4706 6.05954 0
    endloop
  endfacet
  facet normal -0.891009 0.453985 0
    outer loop
      vertex 6.89443 6.05954 0
      vertex 7.12169 6.50557 1.97
      vertex 7.12169 6.50557 0
    endloop
  endfacet
  facet normal 0 0 1
    outer loop
      vertex 6.89443 6.05954 1.97
      vertex 7.25 4.14212 1.97
      vertex 8.9 7 1.97
    endloop
  endfacet
  facet normal 0 0 1
    outer loop
      vertex 6.89443 6.05954 1.97
      vertex 8.9 7 1.97
      vertex 7.12169 6.50557 1.97
    endloop
  endfacet
  facet normal 0 0 -1
    outer loop
      vertex 6.89443 7.94046 0
      vertex 18.4706 7.94046 0
      vertex 7.12169 7.49443 0
    endloop
  endfacet
  facet normal 0 0 -1
    outer loop
      vertex 6.89443 7.94046 0
      vertex 18.8245 8.29443 0
      vertex 18.4706 7.94046 0
    endloop
  endfacet
  facet normal -0.891009 -0.453985 0
    outer loop
      vertex 6.89443 7.94046 0
      vertex 7.12169 7.49443 0
      vertex 6.89443 7.94046 1.97
    endloop
  endfacet
  facet normal -0.891009 -0.453985 0
    outer loop
      vertex 6.89443 7.94046 1.97
      vertex 7.12169 7.49443 0
      vertex 7.12169 7.49443 1.97
    endloop
  endfacet
  facet normal 0 0 1
    outer loop
      vertex 6.89443 7.94046 1.97
      vertex 7.12169 7.49443 1.97
      vertex 8.9 7 1.97
    endloop
  endfacet
  facet normal -0 0 1
    outer loop
      vertex 6.89443 7.94046 1.97
      vertex 8.9 7 1.97
      vertex 7.25 9.85788 1.97
    endloop
  endfacet
  facet normal 0 0 -1
    outer loop
      vertex 7.12169 6.50557 0
      vertex 18.2433 6.50557 0
      vertex 18.4706 6.05954 0
    endloop
  endfacet
  facet normal -0.987688 0.156434 0
    outer loop
      vertex 7.12169 6.50557 0
      vertex 7.12169 6.50557 1.97
      vertex 7.2 7 1.97
    endloop
  endfacet
  facet normal 0 0 -1
    outer loop
      vertex 7.12169 6.50557 0
      vertex 7.2 7 0
      vertex 18.2433 6.50557 0
    endloop
  endfacet
  facet normal -0.987688 0.156434 0
    outer loop
      vertex 7.12169 6.50557 0
      vertex 7.2 7 1.97
      vertex 7.2 7 0
    endloop
  endfacet
  facet normal 0 0 1
    outer loop
      vertex 7.12169 6.50557 1.97
      vertex 8.9 7 1.97
      vertex 7.2 7 1.97
    endloop
  endfacet
  facet normal 0 0 -1
    outer loop
      vertex 7.12169 7.49443 0
      vertex 18.2433 7.49443 0
      vertex 7.2 7 0
    endloop
  endfacet
  facet normal 0 0 -1
    outer loop
      vertex 7.12169 7.49443 0
      vertex 18.4706 7.94046 0
      vertex 18.2433 7.49443 0
    endloop
  endfacet
  facet normal -0.987688 -0.156434 0
    outer loop
      vertex 7.12169 7.49443 0
      vertex 7.2 7 0
      vertex 7.12169 7.49443 1.97
    endloop
  endfacet
  facet normal -0.987688 -0.156434 0
    outer loop
      vertex 7.12169 7.49443 1.97
      vertex 7.2 7 0
      vertex 7.2 7 1.97
    endloop
  endfacet
  facet normal 0 0 1
    outer loop
      vertex 7.12169 7.49443 1.97
      vertex 7.2 7 1.97
      vertex 8.9 7 1.97
    endloop
  endfacet
  facet normal 0 0 -1
    outer loop
      vertex 7.2 7 0
      vertex 18.165 7 0
      vertex 18.2433 6.50557 0
    endloop
  endfacet
  facet normal 0 0 -1
    outer loop
      vertex 7.2 7 0
      vertex 18.2433 7.49443 0
      vertex 18.165 7 0
    endloop
  endfacet
  facet normal 0 0 1
    outer loop
      vertex 7.23161 1.97842 1.97
      vertex 18.1334 1.97842 1.97
      vertex 7.99707 2.29549 1.97
    endloop
  endfacet
  facet normal 0 0 1
    outer loop
      vertex 7.23161 1.97842 1.97
      vertex 18.939 1.785 1.97
      vertex 18.1334 1.97842 1.97
    endloop
  endfacet
  facet normal 0.38269 -0.923877 0
    outer loop
      vertex 7.23161 1.97842 1.97
      vertex 7.99707 2.29549 1.97
      vertex 7.99707 2.29549 4.67
    endloop
  endfacet
  facet normal 0.38269 -0.923877 0
    outer loop
      vertex 7.23161 1.97842 1.97
      vertex 7.99707 2.29549 4.67
      vertex 7.23161 1.97842 4.67
    endloop
  endfacet
  facet normal 0 0 1
    outer loop
      vertex 7.23161 1.97842 4.67
      vertex 7.99707 2.29549 4.67
      vertex 7.25 4.14212 4.67
    endloop
  endfacet
  facet normal 0.382721 0.923864 0
    outer loop
      vertex 7.23161 12.0216 1.97
      vertex 7.23161 12.0216 4.67
      vertex 7.99707 11.7045 1.97
    endloop
  endfacet
  facet normal 0 0 1
    outer loop
      vertex 7.23161 12.0216 1.97
      vertex 7.99707 11.7045 1.97
      vertex 18.1334 12.0216 1.97
    endloop
  endfacet
  facet normal 0 0 1
    outer loop
      vertex 7.23161 12.0216 4.67
      vertex 7.25 9.85788 4.67
      vertex 7.99707 11.7045 4.67
    endloop
  endfacet
  facet normal 0.382721 0.923864 -0
    outer loop
      vertex 7.23161 12.0216 4.67
      vertex 7.99707 11.7045 4.67
      vertex 7.99707 11.7045 1.97
    endloop
  endfacet
  facet normal -0.866025 0.500001 0
    outer loop
      vertex 7.25 4.14212 1.97
      vertex 7.25 4.14212 4.67
      vertex 8.9 7 4.67
    endloop
  endfacet
  facet normal -0.866025 0.500001 0
    outer loop
      vertex 7.25 4.14212 1.97
      vertex 8.9 7 4.67
      vertex 8.9 7 1.97
    endloop
  endfacet
  facet normal 0 0 1
    outer loop
      vertex 7.25 4.14212 4.67
      vertex 10.3045 4.60293 4.67
      vertex 8.9 7 4.67
    endloop
  endfacet
  facet normal 0 0 1
    outer loop
      vertex 7.25 4.14212 4.67
      vertex 7.99707 2.29549 4.67
      vertex 8.70351 2.72839 4.67
    endloop
  endfacet
  facet normal 0 0 1
    outer loop
      vertex 7.25 4.14212 4.67
      vertex 8.70351 2.72839 4.67
      vertex 9.33352 3.26648 4.67
    endloop
  endfacet
  facet normal 0 0 1
    outer loop
      vertex 7.25 4.14212 4.67
      vertex 9.33352 3.26648 4.67
      vertex 9.87161 3.89649 4.67
    endloop
  endfacet
  facet normal 0 0 1
    outer loop
      vertex 7.25 4.14212 4.67
      vertex 9.87161 3.89649 4.67
      vertex 10.3045 4.60293 4.67
    endloop
  endfacet
  facet normal -0.866025 -0.500001 0
    outer loop
      vertex 7.25 9.85788 1.97
      vertex 8.9 7 1.97
      vertex 7.25 9.85788 4.67
    endloop
  endfacet
  facet normal -0 0 1
    outer loop
      vertex 7.25 9.85788 4.67
      vertex 10.3045 9.39707 4.67
      vertex 9.87161 10.1035 4.67
    endloop
  endfacet
  facet normal 0 0 1
    outer loop
      vertex 7.25 9.85788 4.67
      vertex 8.70351 11.2716 4.67
      vertex 7.99707 11.7045 4.67
    endloop
  endfacet
  facet normal -0.866025 -0.500001 0
    outer loop
      vertex 7.25 9.85788 4.67
      vertex 8.9 7 1.97
      vertex 8.9 7 4.67
    endloop
  endfacet
  facet normal 0 0 1
    outer loop
      vertex 7.25 9.85788 4.67
      vertex 8.9 7 4.67
      vertex 10.3045 9.39707 4.67
    endloop
  endfacet
  facet normal 0 0 1
    outer loop
      vertex 7.25 9.85788 4.67
      vertex 9.33352 10.7335 4.67
      vertex 8.70351 11.2716 4.67
    endloop
  endfacet
  facet normal 0 0 1
    outer loop
      vertex 7.25 9.85788 4.67
      vertex 9.87161 10.1035 4.67
      vertex 9.33352 10.7335 4.67
    endloop
  endfacet
  facet normal 0 0 1
    outer loop
      vertex 7.99707 11.7045 1.97
      vertex 17.3679 11.7045 1.97
      vertex 18.1334 12.0216 1.97
    endloop
  endfacet
  facet normal 0.522492 0.852644 0
    outer loop
      vertex 7.99707 11.7045 1.97
      vertex 7.99707 11.7045 4.67
      vertex 8.70351 11.2716 1.97
    endloop
  endfacet
  facet normal 0 0 1
    outer loop
      vertex 7.99707 11.7045 1.97
      vertex 8.70351 11.2716 1.97
      vertex 17.3679 11.7045 1.97
    endloop
  endfacet
  facet normal 0.522492 0.852644 -0
    outer loop
      vertex 7.99707 11.7045 4.67
      vertex 8.70351 11.2716 4.67
      vertex 8.70351 11.2716 1.97
    endloop
  endfacet
  facet normal 0 0 1
    outer loop
      vertex 7.99707 2.29549 1.97
      vertex 17.3679 2.29549 1.97
      vertex 8.70351 2.72839 1.97
    endloop
  endfacet
  facet normal 0 0 1
    outer loop
      vertex 7.99707 2.29549 1.97
      vertex 18.1334 1.97842 1.97
      vertex 17.3679 2.29549 1.97
    endloop
  endfacet
  facet normal 0.522492 -0.852644 0
    outer loop
      vertex 7.99707 2.29549 1.97
      vertex 8.70351 2.72839 1.97
      vertex 8.70351 2.72839 4.67
    endloop
  endfacet
  facet normal 0.522492 -0.852644 0
    outer loop
      vertex 7.99707 2.29549 1.97
      vertex 8.70351 2.72839 4.67
      vertex 7.99707 2.29549 4.67
    endloop
  endfacet
  facet normal 0 0 1
    outer loop
      vertex 8.70351 11.2716 1.97
      vertex 16.6615 11.2716 1.97
      vertex 17.3679 11.7045 1.97
    endloop
  endfacet
  facet normal 0.649462 0.760394 0
    outer loop
      vertex 8.70351 11.2716 1.97
      vertex 8.70351 11.2716 4.67
      vertex 9.33352 10.7335 1.97
    endloop
  endfacet
  facet normal 0 0 1
    outer loop
      vertex 8.70351 11.2716 1.97
      vertex 9.33352 10.7335 1.97
      vertex 16.6615 11.2716 1.97
    endloop
  endfacet
  facet normal 0.649462 0.760394 -0
    outer loop
      vertex 8.70351 11.2716 4.67
      vertex 9.33352 10.7335 4.67
      vertex 9.33352 10.7335 1.97
    endloop
  endfacet
  facet normal 0 0 1
    outer loop
      vertex 8.70351 2.72839 1.97
      vertex 16.6615 2.72839 1.97
      vertex 9.33352 3.26648 1.97
    endloop
  endfacet
  facet normal 0 0 1
    outer loop
      vertex 8.70351 2.72839 1.97
      vertex 17.3679 2.29549 1.97
      vertex 16.6615 2.72839 1.97
    endloop
  endfacet
  facet normal 0.649455 -0.7604 0
    outer loop
      vertex 8.70351 2.72839 1.97
      vertex 9.33352 3.26648 1.97
      vertex 9.33352 3.26648 4.67
    endloop
  endfacet
  facet normal 0.649455 -0.7604 0
    outer loop
      vertex 8.70351 2.72839 1.97
      vertex 9.33352 3.26648 4.67
      vertex 8.70351 2.72839 4.67
    endloop
  endfacet
  facet normal 0 0 1
    outer loop
      vertex 8.9 7 4.67
      vertex 10.3045 4.60293 4.67
      vertex 10.6216 5.36839 4.67
    endloop
  endfacet
  facet normal 0 0 1
    outer loop
      vertex 8.9 7 4.67
      vertex 10.6216 5.36839 4.67
      vertex 10.815 6.17403 4.67
    endloop
  endfacet
  facet normal 0 0 1
    outer loop
      vertex 8.9 7 4.67
      vertex 10.6216 8.63161 4.67
      vertex 10.3045 9.39707 4.67
    endloop
  endfacet
  facet normal 0 0 1
    outer loop
      vertex 8.9 7 4.67
      vertex 10.815 6.17403 4.67
      vertex 10.88 7 4.67
    endloop
  endfacet
  facet normal 0 0 1
    outer loop
      vertex 8.9 7 4.67
      vertex 10.815 7.82597 4.67
      vertex 10.6216 8.63161 4.67
    endloop
  endfacet
  facet normal 0 0 1
    outer loop
      vertex 8.9 7 4.67
      vertex 10.88 7 4.67
      vertex 10.815 7.82597 4.67
    endloop
  endfacet
  facet normal 0 0 1
    outer loop
      vertex 9.33352 10.7335 1.97
      vertex 16.0315 10.7335 1.97
      vertex 16.6615 11.2716 1.97
    endloop
  endfacet
  facet normal 0.760395 0.649461 0
    outer loop
      vertex 9.33352 10.7335 1.97
      vertex 9.33352 10.7335 4.67
      vertex 9.87161 10.1035 4.67
    endloop
  endfacet
  facet normal 0 0 1
    outer loop
      vertex 9.33352 10.7335 1.97
      vertex 9.87161 10.1035 1.97
      vertex 16.0315 10.7335 1.97
    endloop
  endfacet
  facet normal 0.760395 0.649461 0
    outer loop
      vertex 9.33352 10.7335 1.97
      vertex 9.87161 10.1035 4.67
      vertex 9.87161 10.1035 1.97
    endloop
  endfacet
  facet normal 0 0 1
    outer loop
      vertex 9.33352 3.26648 1.97
      vertex 16.0315 3.26648 1.97
      vertex 9.87161 3.89649 1.97
    endloop
  endfacet
  facet normal 0 0 1
    outer loop
      vertex 9.33352 3.26648 1.97
      vertex 16.6615 2.72839 1.97
      vertex 16.0315 3.26648 1.97
    endloop
  endfacet
  facet normal 0.7604 -0.649455 0
    outer loop
      vertex 9.33352 3.26648 1.97
      vertex 9.87161 3.89649 1.97
      vertex 9.33352 3.26648 4.67
    endloop
  endfacet
  facet normal 0.7604 -0.649455 0
    outer loop
      vertex 9.33352 3.26648 4.67
      vertex 9.87161 3.89649 1.97
      vertex 9.87161 3.89649 4.67
    endloop
  endfacet
  facet normal 0 0 1
    outer loop
      vertex 9.87161 10.1035 1.97
      vertex 10.3045 9.39707 1.97
      vertex 15.4934 10.1035 1.97
    endloop
  endfacet
  facet normal 0.852646 0.522489 0
    outer loop
      vertex 9.87161 10.1035 1.97
      vertex 10.3045 9.39707 4.67
      vertex 10.3045 9.39707 1.97
    endloop
  endfacet
  facet normal 0 0 1
    outer loop
      vertex 9.87161 10.1035 1.97
      vertex 15.4934 10.1035 1.97
      vertex 16.0315 10.7335 1.97
    endloop
  endfacet
  facet normal 0.852646 0.522489 0
    outer loop
      vertex 9.87161 10.1035 1.97
      vertex 9.87161 10.1035 4.67
      vertex 10.3045 9.39707 4.67
    endloop
  endfacet
  facet normal 0.852649 -0.522484 0
    outer loop
      vertex 9.87161 3.89649 1.97
      vertex 10.3045 4.60293 1.97
      vertex 9.87161 3.89649 4.67
    endloop
  endfacet
  facet normal 0 0 1
    outer loop
      vertex 9.87161 3.89649 1.97
      vertex 15.4934 3.89649 1.97
      vertex 10.3045 4.60293 1.97
    endloop
  endfacet
  facet normal 0 0 1
    outer loop
      vertex 9.87161 3.89649 1.97
      vertex 16.0315 3.26648 1.97
      vertex 15.4934 3.89649 1.97
    endloop
  endfacet
  facet normal 0.852649 -0.522484 0
    outer loop
      vertex 9.87161 3.89649 4.67
      vertex 10.3045 4.60293 1.97
      vertex 10.3045 4.60293 4.67
    endloop
  endfacet
endsolid model
