solid model
  facet normal -1 -0 0
    outer loop
      vertex 0 0 0
      vertex 0 0 2.18399
      vertex 0 14 1.81738
    endloop
  endfacet
  facet normal 0 0 -1
    outer loop
      vertex 0 0 0
      vertex 0 14 0
      vertex 4 7 0
    endloop
  endfacet
  facet normal -1 0 0
    outer loop
      vertex 0 0 0
      vertex 0 14 1.81738
      vertex 0 14 0
    endloop
  endfacet
  facet normal 0 0 -1
    outer loop
      vertex 0 0 0
      vertex 19.2706 5.47831 0
      vertex 26.15 0 0
    endloop
  endfacet
  facet normal 0 -1 0
    outer loop
      vertex 0 0 0
      vertex 25.8988 0 2.18399
      vertex 0 0 2.18399
    endloop
  endfacet
  facet normal 0 -1 -0
    outer loop
      vertex 0 0 0
      vertex 26.15 0 0
      vertex 25.8988 0 2.18399
    endloop
  endfacet
  facet normal -0 0 -1
    outer loop
      vertex 0 0 0
      vertex 4 7 0
      vertex 4.07831 6.50557 0
    endloop
  endfacet
  facet normal -0 0 -1
    outer loop
      vertex 0 0 0
      vertex 4.07831 6.50557 0
      vertex 4.30557 6.05954 0
    endloop
  endfacet
  facet normal -0 0 -1
    outer loop
      vertex 0 0 0
      vertex 4.30557 6.05954 0
      vertex 4.65954 5.70557 0
    endloop
  endfacet
  facet normal -0 0 -1
    outer loop
      vertex 0 0 0
      vertex 4.65954 5.70557 0
      vertex 5.10557 5.47831 0
    endloop
  endfacet
  facet normal -0 0 -1
    outer loop
      vertex 0 0 0
      vertex 5.10557 5.47831 0
      vertex 5.6 5.4 0
    endloop
  endfacet
  facet normal 0 0 -1
    outer loop
      vertex 0 0 0
      vertex 5.6 5.4 0
      vertex 6.09443 5.47831 0
    endloop
  endfacet
  facet normal 0 -0 -1
    outer loop
      vertex 0 0 0
      vertex 6.09443 5.47831 0
      vertex 19.2706 5.47831 0
    endloop
  endfacet
  facet normal 5.68059e-07 0.0261775 0.999657
    outer loop
      vertex 0 0 2.18399
      vertex 10.9991 2.72178 2.11271
      vertex 5.6 5.4 2.04258
    endloop
  endfacet
  facet normal 0 0.0261798 0.999657
    outer loop
      vertex 0 0 2.18399
      vertex 11.5755 2.72178 2.11271
      vertex 10.9991 2.72178 2.11271
    endloop
  endfacet
  facet normal -3.07039e-07 0.0261811 0.999657
    outer loop
      vertex 0 0 2.18399
      vertex 14.4813 2.58283 2.11635
      vertex 11.5755 2.72178 2.11271
    endloop
  endfacet
  facet normal 0 0.0261794 0.999657
    outer loop
      vertex 0 0 2.18399
      vertex 25.8988 0 2.18399
      vertex 14.4813 2.58283 2.11635
    endloop
  endfacet
  facet normal -1.24957e-06 0.0261775 0.999657
    outer loop
      vertex 0 0 2.18399
      vertex 4 7 2.00069
      vertex 0 14 1.81738
    endloop
  endfacet
  facet normal 1.94e-05 0.0261657 0.999658
    outer loop
      vertex 0 0 2.18399
      vertex 4.07831 6.50557 2.01363
      vertex 4 7 2.00069
    endloop
  endfacet
  facet normal 1.85895e-07 0.0261777 0.999657
    outer loop
      vertex 0 0 2.18399
      vertex 4.30557 6.05954 2.02531
      vertex 4.07831 6.50557 2.01363
    endloop
  endfacet
  facet normal -1.08338e-06 0.0261786 0.999657
    outer loop
      vertex 0 0 2.18399
      vertex 4.65954 5.70557 2.03458
      vertex 4.30557 6.05954 2.02531
    endloop
  endfacet
  facet normal 1.87935e-06 0.0261762 0.999657
    outer loop
      vertex 0 0 2.18399
      vertex 5.10557 5.47831 2.04053
      vertex 4.65954 5.70557 2.03458
    endloop
  endfacet
  facet normal 1.22755e-06 0.0261768 0.999657
    outer loop
      vertex 0 0 2.18399
      vertex 5.6 5.4 2.04258
      vertex 5.10557 5.47831 2.04053
    endloop
  endfacet
  facet normal 0 1 0
    outer loop
      vertex 0 14 0
      vertex 0 14 1.81738
      vertex 28.5456 14 1.81738
    endloop
  endfacet
  facet normal 0 0 -1
    outer loop
      vertex 0 14 0
      vertex 19.2706 8.52169 0
      vertex 6.09443 8.52169 0
    endloop
  endfacet
  facet normal 0 1 0
    outer loop
      vertex 0 14 0
      vertex 28.5456 14 1.81738
      vertex 28.8 14 0
    endloop
  endfacet
  facet normal 0 0 -1
    outer loop
      vertex 0 14 0
      vertex 28.8 14 0
      vertex 19.2706 8.52169 0
    endloop
  endfacet
  facet normal 0 0 -1
    outer loop
      vertex 0 14 0
      vertex 4.07831 7.49443 0
      vertex 4 7 0
    endloop
  endfacet
  facet normal 0 0 -1
    outer loop
      vertex 0 14 0
      vertex 4.30557 7.94046 0
      vertex 4.07831 7.49443 0
    endloop
  endfacet
  facet normal 0 0 -1
    outer loop
      vertex 0 14 0
      vertex 4.65954 8.29443 0
      vertex 4.30557 7.94046 0
    endloop
  endfacet
  facet normal 0 0 -1
    outer loop
      vertex 0 14 0
      vertex 5.10557 8.52169 0
      vertex 4.65954 8.29443 0
    endloop
  endfacet
  facet normal 0 0 -1
    outer loop
      vertex 0 14 0
      vertex 5.6 8.6 0
      vertex 5.10557 8.52169 0
    endloop
  endfacet
  facet normal 0 0 -1
    outer loop
      vertex 0 14 0
      vertex 6.09443 8.52169 0
      vertex 5.6 8.6 0
    endloop
  endfacet
  facet normal 2.75612e-06 0.0261892 0.999657
    outer loop
      vertex 0 14 1.81738
      vertex 10.2226 10.9991 1.89597
      vertex 13.0285 11.2305 1.8899
    endloop
  endfacet
  facet normal -1.61223e-05 0.0261005 0.999659
    outer loop
      vertex 0 14 1.81738
      vertex 13.0285 11.2305 1.8899
      vertex 13.4437 11.2771 1.88869
    endloop
  endfacet
  facet normal -0 0.02618 0.999657
    outer loop
      vertex 0 14 1.81738
      vertex 13.4437 11.2771 1.88869
      vertex 28.5456 14 1.81738
    endloop
  endfacet
  facet normal 6.34675e-06 0.0261818 0.999657
    outer loop
      vertex 0 14 1.81738
      vertex 4 7 2.00069
      vertex 4.07831 7.49443 1.98774
    endloop
  endfacet
  facet normal -1.85895e-07 0.0261777 0.999657
    outer loop
      vertex 0 14 1.81738
      vertex 4.07831 7.49443 1.98774
      vertex 4.30557 7.94046 1.97606
    endloop
  endfacet
  facet normal 1.08338e-06 0.0261786 0.999657
    outer loop
      vertex 0 14 1.81738
      vertex 4.30557 7.94046 1.97606
      vertex 4.65954 8.29443 1.96679
    endloop
  endfacet
  facet normal -1.87935e-06 0.0261762 0.999657
    outer loop
      vertex 0 14 1.81738
      vertex 4.65954 8.29443 1.96679
      vertex 5.10557 8.52169 1.96084
    endloop
  endfacet
  facet normal -1.22755e-06 0.0261768 0.999657
    outer loop
      vertex 0 14 1.81738
      vertex 5.10557 8.52169 1.96084
      vertex 5.6 8.6 1.95879
    endloop
  endfacet
  facet normal -7.48005e-07 0.0261773 0.999657
    outer loop
      vertex 0 14 1.81738
      vertex 5.6 8.6 1.95879
      vertex 10.2226 10.9991 1.89597
    endloop
  endfacet
  facet normal 0 -0.999662 0.025999
    outer loop
      vertex 10.2226 10.9939 1.69603
      vertex 10.7414 10.9939 1.69603
      vertex 10.7414 10.9991 1.89597
    endloop
  endfacet
  facet normal 0 -0.999662 0.025999
    outer loop
      vertex 10.2226 10.9939 1.69603
      vertex 10.7414 10.9991 1.89597
      vertex 10.2226 10.9991 1.89597
    endloop
  endfacet
  facet normal 0 0.0261774 0.999657
    outer loop
      vertex 10.2226 10.9939 1.69603
      vertex 10.7414 8.83476 1.75257
      vertex 10.7414 10.9939 1.69603
    endloop
  endfacet
  facet normal 0 0.0262226 0.999656
    outer loop
      vertex 10.2226 10.9991 1.89597
      vertex 10.7414 10.9991 1.89597
      vertex 13.0285 11.2305 1.8899
    endloop
  endfacet
  facet normal 0.823958 0.566457 -0.014818
    outer loop
      vertex 10.2226 3.84526 1.88323
      vertex 10.2226 3.85049 2.08316
      vertex 10.9991 2.72178 2.11271
    endloop
  endfacet
  facet normal 1 0 0
    outer loop
      vertex 10.2226 3.84526 1.88323
      vertex 10.2226 4.40792 1.86849
      vertex 10.2226 3.85049 2.08316
    endloop
  endfacet
  facet normal 5.42504e-06 0.026188 0.999657
    outer loop
      vertex 10.2226 3.84526 1.88323
      vertex 10.8058 3.79437 1.88456
      vertex 10.2226 4.40792 1.86849
    endloop
  endfacet
  facet normal 4.20363e-06 0.026174 0.999657
    outer loop
      vertex 10.2226 3.84526 1.88323
      vertex 10.9991 2.71654 1.91278
      vertex 10.8058 3.79437 1.88456
    endloop
  endfacet
  facet normal 0.82396 0.566453 -0.0148463
    outer loop
      vertex 10.2226 3.84526 1.88323
      vertex 10.9991 2.72178 2.11271
      vertex 10.9991 2.71654 1.91278
    endloop
  endfacet
  facet normal 1 0 0
    outer loop
      vertex 10.2226 3.85049 2.08316
      vertex 10.2226 4.40792 1.86849
      vertex 10.2226 4.41315 2.06842
    endloop
  endfacet
  facet normal 0 0.0261829 0.999657
    outer loop
      vertex 10.2226 4.40792 1.86849
      vertex 10.8058 3.79437 1.88456
      vertex 14.4813 4.40792 1.86849
    endloop
  endfacet
  facet normal 0 -0.999658 0.0261502
    outer loop
      vertex 10.2226 4.40792 1.86849
      vertex 14.4813 4.40792 1.86849
      vertex 14.4813 4.41315 2.06842
    endloop
  endfacet
  facet normal 0 -0.999658 0.0261502
    outer loop
      vertex 10.2226 4.40792 1.86849
      vertex 14.4813 4.41315 2.06842
      vertex 10.2226 4.41315 2.06842
    endloop
  endfacet
  facet normal 5.66033e-07 0.0261755 0.999657
    outer loop
      vertex 10.2226 4.41315 2.06842
      vertex 12.7927 8.12483 1.97123
      vertex 10.2226 8.28414 1.96706
    endloop
  endfacet
  facet normal -8.85687e-08 0.026176 0.999657
    outer loop
      vertex 10.2226 4.41315 2.06842
      vertex 14.2575 6.45823 2.01487
      vertex 12.7927 8.12483 1.97123
    endloop
  endfacet
  facet normal 0 0.0261748 0.999657
    outer loop
      vertex 10.2226 4.41315 2.06842
      vertex 14.4813 4.41315 2.06842
      vertex 14.4813 5.5757 2.03798
    endloop
  endfacet
  facet normal -5.76445e-07 0.026177 0.999657
    outer loop
      vertex 10.2226 4.41315 2.06842
      vertex 14.4813 5.5757 2.03798
      vertex 14.2575 6.45823 2.01487
    endloop
  endfacet
  facet normal 1 0 0
    outer loop
      vertex 10.2226 8.2789 1.76713
      vertex 10.2226 10.9939 1.69603
      vertex 10.2226 8.28414 1.96706
    endloop
  endfacet
  facet normal 0.0618844 0.997741 -0.02615
    outer loop
      vertex 10.2226 8.2789 1.76713
      vertex 10.2226 8.28414 1.96706
      vertex 12.7927 8.1196 1.7713
    endloop
  endfacet
  facet normal 6.21281e-06 0.0261789 0.999657
    outer loop
      vertex 10.2226 8.2789 1.76713
      vertex 10.7414 8.83476 1.75257
      vertex 10.2226 10.9939 1.69603
    endloop
  endfacet
  facet normal -1.72177e-06 0.0261863 0.999657
    outer loop
      vertex 10.2226 8.2789 1.76713
      vertex 12.257 8.74324 1.75497
      vertex 10.7414 8.83476 1.75257
    endloop
  endfacet
  facet normal 5.20553e-07 0.0261765 0.999657
    outer loop
      vertex 10.2226 8.2789 1.76713
      vertex 12.7927 8.1196 1.7713
      vertex 12.257 8.74324 1.75497
    endloop
  endfacet
  facet normal 1 0 0
    outer loop
      vertex 10.2226 8.28414 1.96706
      vertex 10.2226 10.9939 1.69603
      vertex 10.2226 10.9991 1.89597
    endloop
  endfacet
  facet normal 0.0618883 0.997742 -0.0261001
    outer loop
      vertex 10.2226 8.28414 1.96706
      vertex 12.7927 8.12483 1.97123
      vertex 12.7927 8.1196 1.7713
    endloop
  endfacet
  facet normal -3.82256e-06 0.0261685 0.999658
    outer loop
      vertex 10.7414 10.9991 1.89597
      vertex 11.9519 9.73483 1.92907
      vertex 11.9978 10.173 1.9176
    endloop
  endfacet
  facet normal 2.46765e-06 0.0261781 0.999657
    outer loop
      vertex 10.7414 10.9991 1.89597
      vertex 11.9978 10.173 1.9176
      vertex 12.1357 10.5476 1.90779
    endloop
  endfacet
  facet normal 6.92187e-07 0.0261726 0.999657
    outer loop
      vertex 10.7414 10.9991 1.89597
      vertex 12.1357 10.5476 1.90779
      vertex 12.3655 10.8585 1.89965
    endloop
  endfacet
  facet normal 1.55549e-06 0.0261825 0.999657
    outer loop
      vertex 10.7414 10.9991 1.89597
      vertex 12.3655 10.8585 1.89965
      vertex 12.6692 11.091 1.89356
    endloop
  endfacet
  facet normal -6.73758e-07 0.0262293 0.999656
    outer loop
      vertex 10.7414 10.9991 1.89597
      vertex 12.6692 11.091 1.89356
      vertex 13.0285 11.2305 1.8899
    endloop
  endfacet
  facet normal -1 0 -0
    outer loop
      vertex 10.7414 8.83476 1.75257
      vertex 10.7414 8.83999 1.9525
      vertex 10.7414 10.9939 1.69603
    endloop
  endfacet
  facet normal -0.0602962 -0.997839 0.0261026
    outer loop
      vertex 10.7414 8.83476 1.75257
      vertex 12.257 8.74324 1.75497
      vertex 10.7414 8.83999 1.9525
    endloop
  endfacet
  facet normal -1 0 0
    outer loop
      vertex 10.7414 8.83999 1.9525
      vertex 10.7414 10.9991 1.89597
      vertex 10.7414 10.9939 1.69603
    endloop
  endfacet
  facet normal 1.01056e-06 0.0261731 0.999657
    outer loop
      vertex 10.7414 8.83999 1.9525
      vertex 11.9519 9.73483 1.92907
      vertex 10.7414 10.9991 1.89597
    endloop
  endfacet
  facet normal 4.44965e-06 0.0261685 0.999658
    outer loop
      vertex 10.7414 8.83999 1.9525
      vertex 11.9858 9.36313 1.9388
      vertex 11.9519 9.73483 1.92907
    endloop
  endfacet
  facet normal 4.05615e-07 0.0261781 0.999657
    outer loop
      vertex 10.7414 8.83999 1.9525
      vertex 12.0875 9.03434 1.94741
      vertex 11.9858 9.36313 1.9388
    endloop
  endfacet
  facet normal -0.0602962 -0.997839 0.0261026
    outer loop
      vertex 10.7414 8.83999 1.9525
      vertex 12.257 8.74324 1.75497
      vertex 12.257 8.74847 1.9549
    endloop
  endfacet
  facet normal -1.44342e-06 0.0261909 0.999657
    outer loop
      vertex 10.7414 8.83999 1.9525
      vertex 12.257 8.74847 1.9549
      vertex 12.0875 9.03434 1.94741
    endloop
  endfacet
  facet normal 0 0.999657 -0.0262002
    outer loop
      vertex 10.8058 3.79437 1.88456
      vertex 10.8058 3.79961 2.08449
      vertex 14.4813 3.79437 1.88456
    endloop
  endfacet
  facet normal 0 0.0261733 0.999657
    outer loop
      vertex 10.8058 3.79437 1.88456
      vertex 10.9991 2.71654 1.91278
      vertex 11.5755 2.71654 1.91278
    endloop
  endfacet
  facet normal -0.813891 -0.580818 0.0152227
    outer loop
      vertex 10.8058 3.79437 1.88456
      vertex 11.5755 2.71654 1.91278
      vertex 11.5755 2.72178 2.11271
    endloop
  endfacet
  facet normal -0.813891 -0.580818 0.0152227
    outer loop
      vertex 10.8058 3.79437 1.88456
      vertex 11.5755 2.72178 2.11271
      vertex 10.8058 3.79961 2.08449
    endloop
  endfacet
  facet normal 0 0.0261829 0.999657
    outer loop
      vertex 10.8058 3.79437 1.88456
      vertex 14.4813 3.79437 1.88456
      vertex 14.4813 4.40792 1.86849
    endloop
  endfacet
  facet normal 0 0.0261733 0.999657
    outer loop
      vertex 10.8058 3.79961 2.08449
      vertex 11.5755 2.72178 2.11271
      vertex 14.4813 3.79961 2.08449
    endloop
  endfacet
  facet normal 0 0.999657 -0.0262002
    outer loop
      vertex 10.8058 3.79961 2.08449
      vertex 14.4813 3.79961 2.08449
      vertex 14.4813 3.79437 1.88456
    endloop
  endfacet
  facet normal 0 0.999657 -0.0262002
    outer loop
      vertex 10.9991 2.71654 1.91278
      vertex 10.9991 2.72178 2.11271
      vertex 11.5755 2.71654 1.91278
    endloop
  endfacet
  facet normal 0 0.999657 -0.0262002
    outer loop
      vertex 10.9991 2.72178 2.11271
      vertex 11.5755 2.72178 2.11271
      vertex 11.5755 2.71654 1.91278
    endloop
  endfacet
  facet normal -6.02839e-07 0.0261749 0.999657
    outer loop
      vertex 11.5755 2.72178 2.11271
      vertex 14.4813 2.58283 2.11635
      vertex 14.4813 3.79961 2.08449
    endloop
  endfacet
  facet normal 0.99587 0.0907636 -0.00237884
    outer loop
      vertex 11.9519 9.72959 1.72914
      vertex 11.9519 9.73483 1.92907
      vertex 11.9858 9.36313 1.9388
    endloop
  endfacet
  facet normal 5.51637e-06 0.0261693 0.999658
    outer loop
      vertex 11.9519 9.72959 1.72914
      vertex 11.9858 9.3579 1.73887
      vertex 12.4503 9.60419 1.73242
    endloop
  endfacet
  facet normal 0.995869 0.0907661 -0.00237437
    outer loop
      vertex 11.9519 9.72959 1.72914
      vertex 11.9858 9.36313 1.9388
      vertex 11.9858 9.3579 1.73887
    endloop
  endfacet
  facet normal 0.994563 -0.104103 0.00272846
    outer loop
      vertex 11.9519 9.72959 1.72914
      vertex 11.9978 10.1678 1.71766
      vertex 11.9519 9.73483 1.92907
    endloop
  endfacet
  facet normal 1.44558e-06 0.0261531 0.999658
    outer loop
      vertex 11.9519 9.72959 1.72914
      vertex 12.4503 9.60419 1.73242
      vertex 12.4812 9.89889 1.72471
    endloop
  endfacet
  facet normal -1.02283e-05 0.0261896 0.999657
    outer loop
      vertex 11.9519 9.72959 1.72914
      vertex 12.4812 9.89889 1.72471
      vertex 11.9978 10.1678 1.71766
    endloop
  endfacet
  facet normal 0.994562 -0.104113 0.00270776
    outer loop
      vertex 11.9519 9.73483 1.92907
      vertex 11.9978 10.1678 1.71766
      vertex 11.9978 10.173 1.9176
    endloop
  endfacet
  facet normal 0.955371 0.295309 -0.00772504
    outer loop
      vertex 11.9858 9.3579 1.73887
      vertex 11.9858 9.36313 1.9388
      vertex 12.0875 9.03434 1.94741
    endloop
  endfacet
  facet normal 2.46313e-06 0.0261787 0.999657
    outer loop
      vertex 11.9858 9.3579 1.73887
      vertex 12.0875 9.02911 1.74748
      vertex 12.4589 9.44301 1.73664
    endloop
  endfacet
  facet normal 0.955371 0.295309 -0.00772504
    outer loop
      vertex 11.9858 9.3579 1.73887
      vertex 12.0875 9.03434 1.94741
      vertex 12.0875 9.02911 1.74748
    endloop
  endfacet
  facet normal 3.46956e-06 0.0261731 0.999657
    outer loop
      vertex 11.9858 9.3579 1.73887
      vertex 12.4589 9.44301 1.73664
      vertex 12.4503 9.60419 1.73242
    endloop
  endfacet
  facet normal 0.938441 -0.345322 0.00898106
    outer loop
      vertex 11.9978 10.1678 1.71766
      vertex 12.1357 10.5423 1.70786
      vertex 11.9978 10.173 1.9176
    endloop
  endfacet
  facet normal -2.20913e-06 0.026204 0.999657
    outer loop
      vertex 11.9978 10.1678 1.71766
      vertex 12.4812 9.89889 1.72471
      vertex 12.5738 10.1503 1.71812
    endloop
  endfacet
  facet normal -3.52887e-06 0.0261606 0.999658
    outer loop
      vertex 11.9978 10.1678 1.71766
      vertex 12.5738 10.1503 1.71812
      vertex 12.1357 10.5423 1.70786
    endloop
  endfacet
  facet normal 0.938471 -0.345236 0.00915196
    outer loop
      vertex 11.9978 10.173 1.9176
      vertex 12.1357 10.5423 1.70786
      vertex 12.1357 10.5476 1.90779
    endloop
  endfacet
  facet normal 0.860242 0.509711 -0.0133336
    outer loop
      vertex 12.0875 9.02911 1.74748
      vertex 12.0875 9.03434 1.94741
      vertex 12.257 8.74847 1.9549
    endloop
  endfacet
  facet normal 1.49381e-06 0.0261926 0.999657
    outer loop
      vertex 12.0875 9.02911 1.74748
      vertex 12.257 8.74324 1.75497
      vertex 12.5283 9.1432 1.74449
    endloop
  endfacet
  facet normal 0.860242 0.509711 -0.0133336
    outer loop
      vertex 12.0875 9.02911 1.74748
      vertex 12.257 8.74847 1.9549
      vertex 12.257 8.74324 1.75497
    endloop
  endfacet
  facet normal -3.45241e-05 0.0262119 0.999656
    outer loop
      vertex 12.0875 9.02911 1.74748
      vertex 12.4849 9.28935 1.74067
      vertex 12.4589 9.44301 1.73664
    endloop
  endfacet
  facet normal 1.67829e-05 0.0261336 0.999658
    outer loop
      vertex 12.0875 9.02911 1.74748
      vertex 12.5283 9.1432 1.74449
      vertex 12.4849 9.28935 1.74067
    endloop
  endfacet
  facet normal 0.804268 -0.594058 0.015748
    outer loop
      vertex 12.1357 10.5423 1.70786
      vertex 12.3655 10.8532 1.69972
      vertex 12.1357 10.5476 1.90779
    endloop
  endfacet
  facet normal -1.05443e-05 0.0261527 0.999658
    outer loop
      vertex 12.1357 10.5423 1.70786
      vertex 12.5738 10.1503 1.71812
      vertex 12.7283 10.3583 1.71268
    endloop
  endfacet
  facet normal -3.43336e-06 0.0261756 0.999657
    outer loop
      vertex 12.1357 10.5423 1.70786
      vertex 12.7283 10.3583 1.71268
      vertex 12.3655 10.8532 1.69972
    endloop
  endfacet
  facet normal 0.804268 -0.594058 0.015748
    outer loop
      vertex 12.1357 10.5476 1.90779
      vertex 12.3655 10.8532 1.69972
      vertex 12.3655 10.8585 1.89965
    endloop
  endfacet
  facet normal -1.98642e-06 0.026195 0.999657
    outer loop
      vertex 12.257 8.74324 1.75497
      vertex 12.5923 9.00086 1.74822
      vertex 12.5283 9.1432 1.74449
    endloop
  endfacet
  facet normal 1.06306e-06 0.026191 0.999657
    outer loop
      vertex 12.257 8.74324 1.75497
      vertex 12.6804 8.85849 1.75195
      vertex 12.5923 9.00086 1.74822
    endloop
  endfacet
  facet normal -1.26595e-06 0.0261749 0.999657
    outer loop
      vertex 12.257 8.74324 1.75497
      vertex 12.7927 8.1196 1.7713
      vertex 12.7927 8.71615 1.75568
    endloop
  endfacet
  facet normal -2.1438e-07 0.0261957 0.999657
    outer loop
      vertex 12.257 8.74324 1.75497
      vertex 12.7927 8.71615 1.75568
      vertex 12.6804 8.85849 1.75195
    endloop
  endfacet
  facet normal 0.608173 -0.793536 0.0206392
    outer loop
      vertex 12.3655 10.8532 1.69972
      vertex 12.6692 11.0858 1.69363
      vertex 12.6692 11.091 1.89356
    endloop
  endfacet
  facet normal 0.608008 -0.793652 0.0210391
    outer loop
      vertex 12.3655 10.8532 1.69972
      vertex 12.6692 11.091 1.89356
      vertex 12.3655 10.8585 1.89965
    endloop
  endfacet
  facet normal 1.64247e-06 0.0261793 0.999657
    outer loop
      vertex 12.3655 10.8532 1.69972
      vertex 12.7283 10.3583 1.71268
      vertex 12.9329 10.5137 1.70861
    endloop
  endfacet
  facet normal -1.10136e-06 0.0261748 0.999657
    outer loop
      vertex 12.3655 10.8532 1.69972
      vertex 12.9329 10.5137 1.70861
      vertex 12.6692 11.0858 1.69363
    endloop
  endfacet
  facet normal -0.994552 0.10421 -0.00273111
    outer loop
      vertex 12.4503 9.60419 1.73242
      vertex 12.4503 9.60943 1.93236
      vertex 12.4812 9.89889 1.72471
    endloop
  endfacet
  facet normal -0.998581 -0.0532442 0.00139542
    outer loop
      vertex 12.4503 9.60419 1.73242
      vertex 12.4589 9.44301 1.73664
      vertex 12.4589 9.44825 1.93658
    endloop
  endfacet
  facet normal -0.998581 -0.0532442 0.00139542
    outer loop
      vertex 12.4503 9.60419 1.73242
      vertex 12.4589 9.44825 1.93658
      vertex 12.4503 9.60943 1.93236
    endloop
  endfacet
  facet normal 1.31089e-05 0.0261736 0.999657
    outer loop
      vertex 12.4503 9.60943 1.93236
      vertex 12.4589 9.44825 1.93658
      vertex 13.4573 10.6432 1.90528
    endloop
  endfacet
  facet normal -0.994552 0.10421 -0.00273125
    outer loop
      vertex 12.4503 9.60943 1.93236
      vertex 12.4812 9.90413 1.92464
      vertex 12.4812 9.89889 1.72471
    endloop
  endfacet
  facet normal -8.62179e-07 0.0261872 0.999657
    outer loop
      vertex 12.4503 9.60943 1.93236
      vertex 13.4573 10.6432 1.90528
      vertex 12.4812 9.90413 1.92464
    endloop
  endfacet
  facet normal -0.985995 -0.166721 0.00436127
    outer loop
      vertex 12.4589 9.44301 1.73664
      vertex 12.4849 9.28935 1.74067
      vertex 12.4849 9.29458 1.9406
    endloop
  endfacet
  facet normal -0.985996 -0.16671 0.00436912
    outer loop
      vertex 12.4589 9.44301 1.73664
      vertex 12.4849 9.29458 1.9406
      vertex 12.4589 9.44825 1.93658
    endloop
  endfacet
  facet normal -1.76949e-05 0.026148 0.999658
    outer loop
      vertex 12.4589 9.44825 1.93658
      vertex 12.4849 9.29458 1.9406
      vertex 13.8608 8.60277 1.95872
    endloop
  endfacet
  facet normal 2.90891e-06 0.0261822 0.999657
    outer loop
      vertex 12.4589 9.44825 1.93658
      vertex 13.8608 8.60277 1.95872
      vertex 13.4573 10.6432 1.90528
    endloop
  endfacet
  facet normal -0.938412 0.345401 -0.00905267
    outer loop
      vertex 12.4812 9.89889 1.72471
      vertex 12.4812 9.90413 1.92464
      vertex 12.5738 10.1503 1.71812
    endloop
  endfacet
  facet normal -0.938394 0.345451 -0.00898443
    outer loop
      vertex 12.4812 9.90413 1.92464
      vertex 12.5738 10.1555 1.91806
      vertex 12.5738 10.1503 1.71812
    endloop
  endfacet
  facet normal 3.41537e-05 0.026155 0.999658
    outer loop
      vertex 12.4812 9.90413 1.92464
      vertex 12.7283 10.3636 1.91261
      vertex 12.5738 10.1555 1.91806
    endloop
  endfacet
  facet normal 3.20546e-05 0.0261561 0.999658
    outer loop
      vertex 12.4812 9.90413 1.92464
      vertex 12.9329 10.5189 1.90854
      vertex 12.7283 10.3636 1.91261
    endloop
  endfacet
  facet normal -1.95037e-05 0.026194 0.999657
    outer loop
      vertex 12.4812 9.90413 1.92464
      vertex 13.1758 10.6122 1.9061
      vertex 12.9329 10.5189 1.90854
    endloop
  endfacet
  facet normal 3.3047e-05 0.0261425 0.999658
    outer loop
      vertex 12.4812 9.90413 1.92464
      vertex 13.4573 10.6432 1.90528
      vertex 13.1758 10.6122 1.9061
    endloop
  endfacet
  facet normal -0.958652 -0.284482 0.00745566
    outer loop
      vertex 12.4849 9.28935 1.74067
      vertex 12.5283 9.1432 1.74449
      vertex 12.5283 9.14844 1.94443
    endloop
  endfacet
  facet normal -0.958647 -0.2845 0.00744227
    outer loop
      vertex 12.4849 9.28935 1.74067
      vertex 12.5283 9.14844 1.94443
      vertex 12.4849 9.29458 1.9406
    endloop
  endfacet
  facet normal 9.20762e-06 0.0262015 0.999657
    outer loop
      vertex 12.4849 9.29458 1.9406
      vertex 12.5283 9.14844 1.94443
      vertex 13.8608 8.60277 1.95872
    endloop
  endfacet
  facet normal -0.912101 -0.409825 0.0107207
    outer loop
      vertex 12.5283 9.1432 1.74449
      vertex 12.5923 9.00086 1.74822
      vertex 12.5923 9.00609 1.94815
    endloop
  endfacet
  facet normal -0.912112 -0.409801 0.01074
    outer loop
      vertex 12.5283 9.1432 1.74449
      vertex 12.5923 9.00609 1.94815
      vertex 12.5283 9.14844 1.94443
    endloop
  endfacet
  facet normal -2.77053e-05 0.0261114 0.999659
    outer loop
      vertex 12.5283 9.14844 1.94443
      vertex 12.5923 9.00609 1.94815
      vertex 13.8608 8.60277 1.95872
    endloop
  endfacet
  facet normal -0.802868 0.595956 -0.0154995
    outer loop
      vertex 12.5738 10.1503 1.71812
      vertex 12.5738 10.1555 1.91806
      vertex 12.7283 10.3583 1.71268
    endloop
  endfacet
  facet normal -0.803005 0.595763 -0.0157932
    outer loop
      vertex 12.5738 10.1555 1.91806
      vertex 12.7283 10.3636 1.91261
      vertex 12.7283 10.3583 1.71268
    endloop
  endfacet
  facet normal -0.850436 -0.525897 0.0137833
    outer loop
      vertex 12.5923 9.00086 1.74822
      vertex 12.6804 8.85849 1.75195
      vertex 12.6804 8.86373 1.95188
    endloop
  endfacet
  facet normal -0.85042 -0.525925 0.0137578
    outer loop
      vertex 12.5923 9.00086 1.74822
      vertex 12.6804 8.86373 1.95188
      vertex 12.5923 9.00609 1.94815
    endloop
  endfacet
  facet normal -2.49206e-06 0.0261906 0.999657
    outer loop
      vertex 12.5923 9.00609 1.94815
      vertex 12.6804 8.86373 1.95188
      vertex 13.8608 8.60277 1.95872
    endloop
  endfacet
  facet normal -1.29588e-06 0.0261747 0.999657
    outer loop
      vertex 12.6692 11.0858 1.69363
      vertex 12.9329 10.5137 1.70861
      vertex 13.1758 10.6069 1.70617
    endloop
  endfacet
  facet normal 0.362041 -0.931847 0.0242365
    outer loop
      vertex 12.6692 11.0858 1.69363
      vertex 13.0285 11.2253 1.68997
      vertex 13.0285 11.2305 1.8899
    endloop
  endfacet
  facet normal 0.362041 -0.931847 0.0242365
    outer loop
      vertex 12.6692 11.0858 1.69363
      vertex 13.0285 11.2305 1.8899
      vertex 12.6692 11.091 1.89356
    endloop
  endfacet
  facet normal 1.41832e-05 0.026191 0.999657
    outer loop
      vertex 12.6692 11.0858 1.69363
      vertex 13.1758 10.6069 1.70617
      vertex 13.0285 11.2253 1.68997
    endloop
  endfacet
  facet normal -0.785184 -0.619051 0.0161939
    outer loop
      vertex 12.6804 8.85849 1.75195
      vertex 12.7927 8.71615 1.75568
      vertex 12.7927 8.72138 1.95561
    endloop
  endfacet
  facet normal -0.785205 -0.619023 0.0162241
    outer loop
      vertex 12.6804 8.85849 1.75195
      vertex 12.7927 8.72138 1.95561
      vertex 12.6804 8.86373 1.95188
    endloop
  endfacet
  facet normal -2.11282e-06 0.0261924 0.999657
    outer loop
      vertex 12.6804 8.86373 1.95188
      vertex 12.7927 8.72138 1.95561
      vertex 13.8608 8.60277 1.95872
    endloop
  endfacet
  facet normal -0.604731 0.79615 -0.0211054
    outer loop
      vertex 12.7283 10.3583 1.71268
      vertex 12.7283 10.3636 1.91261
      vertex 12.9329 10.5189 1.90854
    endloop
  endfacet
  facet normal -0.604978 0.795973 -0.0207025
    outer loop
      vertex 12.7283 10.3583 1.71268
      vertex 12.9329 10.5189 1.90854
      vertex 12.9329 10.5137 1.70861
    endloop
  endfacet
  facet normal -1 0 -0
    outer loop
      vertex 12.7927 8.1196 1.7713
      vertex 12.7927 8.12483 1.97123
      vertex 12.7927 8.71615 1.75568
    endloop
  endfacet
  facet normal -1 0 0
    outer loop
      vertex 12.7927 8.12483 1.97123
      vertex 12.7927 8.72138 1.95561
      vertex 12.7927 8.71615 1.75568
    endloop
  endfacet
  facet normal -4.05134e-06 0.0261749 0.999657
    outer loop
      vertex 12.7927 8.12483 1.97123
      vertex 13.8608 8.60277 1.95872
      vertex 12.7927 8.72138 1.95561
    endloop
  endfacet
  facet normal -2.25375e-06 0.0261709 0.999657
    outer loop
      vertex 12.7927 8.12483 1.97123
      vertex 13.932 7.98589 1.97487
      vertex 13.8608 8.60277 1.95872
    endloop
  endfacet
  facet normal -1.07066e-05 0.0261667 0.999658
    outer loop
      vertex 12.7927 8.12483 1.97123
      vertex 14.2575 6.45823 2.01487
      vertex 14.2575 7.11915 1.99757
    endloop
  endfacet
  facet normal -1.05626e-06 0.0261807 0.999657
    outer loop
      vertex 12.7927 8.12483 1.97123
      vertex 14.2575 7.11915 1.99757
      vertex 13.932 7.98589 1.97487
    endloop
  endfacet
  facet normal -0.358674 0.933147 -0.0242703
    outer loop
      vertex 12.9329 10.5137 1.70861
      vertex 12.9329 10.5189 1.90854
      vertex 13.1758 10.6122 1.9061
    endloop
  endfacet
  facet normal -0.358339 0.933264 -0.0247401
    outer loop
      vertex 12.9329 10.5137 1.70861
      vertex 13.1758 10.6122 1.9061
      vertex 13.1758 10.6069 1.70617
    endloop
  endfacet
  facet normal 4.35344e-06 0.0261887 0.999657
    outer loop
      vertex 13.0285 11.2253 1.68997
      vertex 13.1758 10.6069 1.70617
      vertex 13.4437 11.2718 1.68875
    endloop
  endfacet
  facet normal 0.111336 -0.993434 0.0263339
    outer loop
      vertex 13.0285 11.2253 1.68997
      vertex 13.4437 11.2718 1.68875
      vertex 13.4437 11.2771 1.88869
    endloop
  endfacet
  facet normal 0.111572 -0.99342 0.025838
    outer loop
      vertex 13.0285 11.2253 1.68997
      vertex 13.4437 11.2771 1.88869
      vertex 13.0285 11.2305 1.8899
    endloop
  endfacet
  facet normal -0.1095 0.993638 -0.0263406
    outer loop
      vertex 13.1758 10.6069 1.70617
      vertex 13.1758 10.6122 1.9061
      vertex 13.4573 10.6432 1.90528
    endloop
  endfacet
  facet normal 1.93182e-05 0.0261827 0.999657
    outer loop
      vertex 13.1758 10.6069 1.70617
      vertex 13.4573 10.638 1.70535
      vertex 13.4437 11.2718 1.68875
    endloop
  endfacet
  facet normal -0.109849 0.993612 -0.025843
    outer loop
      vertex 13.1758 10.6069 1.70617
      vertex 13.4573 10.6432 1.90528
      vertex 13.4573 10.638 1.70535
    endloop
  endfacet
  facet normal -6.54218e-06 0.0261821 0.999657
    outer loop
      vertex 13.4437 11.2718 1.68875
      vertex 13.4573 10.638 1.70535
      vertex 13.912 11.2219 1.69006
    endloop
  endfacet
  facet normal -0.105992 -0.994018 0.0263494
    outer loop
      vertex 13.4437 11.2718 1.68875
      vertex 13.912 11.2219 1.69006
      vertex 13.4437 11.2771 1.88869
    endloop
  endfacet
  facet normal -0.106201 -0.994009 0.0258533
    outer loop
      vertex 13.4437 11.2771 1.88869
      vertex 13.912 11.2219 1.69006
      vertex 13.912 11.2271 1.88999
    endloop
  endfacet
  facet normal 1.26691e-05 0.0261098 0.999659
    outer loop
      vertex 13.4437 11.2771 1.88869
      vertex 13.912 11.2271 1.88999
      vertex 28.5456 14 1.81738
    endloop
  endfacet
  facet normal 0.0958218 0.995062 -0.0258807
    outer loop
      vertex 13.4573 10.638 1.70535
      vertex 13.4573 10.6432 1.90528
      vertex 13.7784 10.6071 1.70616
    endloop
  endfacet
  facet normal -2.47012e-06 0.0261789 0.999657
    outer loop
      vertex 13.4573 10.638 1.70535
      vertex 13.7784 10.6071 1.70616
      vertex 13.912 11.2219 1.69006
    endloop
  endfacet
  facet normal 0.0958218 0.995062 -0.0258807
    outer loop
      vertex 13.4573 10.6432 1.90528
      vertex 13.7784 10.6123 1.90609
      vertex 13.7784 10.6071 1.70616
    endloop
  endfacet
  facet normal -2.25886e-06 0.0261811 0.999657
    outer loop
      vertex 13.4573 10.6432 1.90528
      vertex 13.8608 8.60277 1.95872
      vertex 13.7784 10.6123 1.90609
    endloop
  endfacet
  facet normal 0.322483 0.946255 -0.0246113
    outer loop
      vertex 13.7784 10.6071 1.70616
      vertex 13.7784 10.6123 1.90609
      vertex 14.0503 10.5145 1.70859
    endloop
  endfacet
  facet normal -1.32383e-05 0.026194 0.999657
    outer loop
      vertex 13.7784 10.6071 1.70616
      vertex 14.0503 10.5145 1.70859
      vertex 14.3087 11.0722 1.69398
    endloop
  endfacet
  facet normal 5.83374e-07 0.0261783 0.999657
    outer loop
      vertex 13.7784 10.6071 1.70616
      vertex 14.3087 11.0722 1.69398
      vertex 13.912 11.2219 1.69006
    endloop
  endfacet
  facet normal -2.01155e-08 0.0261812 0.999657
    outer loop
      vertex 13.7784 10.6123 1.90609
      vertex 13.8608 8.60277 1.95872
      vertex 14.5694 9.59589 1.93271
    endloop
  endfacet
  facet normal 0.322483 0.946255 -0.0246113
    outer loop
      vertex 13.7784 10.6123 1.90609
      vertex 14.0503 10.5197 1.90852
      vertex 14.0503 10.5145 1.70859
    endloop
  endfacet
  facet normal -2.83841e-05 0.0261496 0.999658
    outer loop
      vertex 13.7784 10.6123 1.90609
      vertex 14.5365 9.89978 1.92475
      vertex 14.0503 10.5197 1.90852
    endloop
  endfacet
  facet normal 5.17758e-06 0.0261853 0.999657
    outer loop
      vertex 13.7784 10.6123 1.90609
      vertex 14.5694 9.59589 1.93271
      vertex 14.5365 9.89978 1.92475
    endloop
  endfacet
  facet normal 0.993409 0.11458 -0.00299718
    outer loop
      vertex 13.8608 8.59754 1.75878
      vertex 13.8608 8.60277 1.95872
      vertex 13.932 7.98589 1.97487
    endloop
  endfacet
  facet normal -6.57889e-06 0.0261862 0.999657
    outer loop
      vertex 13.8608 8.59754 1.75878
      vertex 13.932 7.98065 1.77494
      vertex 14.2714 8.08648 1.77217
    endloop
  endfacet
  facet normal 0.99341 0.114578 -0.003003
    outer loop
      vertex 13.8608 8.59754 1.75878
      vertex 13.932 7.98589 1.97487
      vertex 13.932 7.98065 1.77494
    endloop
  endfacet
  facet normal 0.446153 -0.894649 0.023448
    outer loop
      vertex 13.8608 8.59754 1.75878
      vertex 14.2545 8.79374 1.75365
      vertex 14.2545 8.79898 1.95358
    endloop
  endfacet
  facet normal 0.446172 -0.894641 0.0234019
    outer loop
      vertex 13.8608 8.59754 1.75878
      vertex 14.2545 8.79898 1.95358
      vertex 13.8608 8.60277 1.95872
    endloop
  endfacet
  facet normal -1.90882e-05 0.0261761 0.999657
    outer loop
      vertex 13.8608 8.59754 1.75878
      vertex 14.2714 8.08648 1.77217
      vertex 14.2545 8.79374 1.75365
    endloop
  endfacet
  facet normal 4.20781e-06 0.026179 0.999657
    outer loop
      vertex 13.8608 8.60277 1.95872
      vertex 14.2545 8.79898 1.95358
      vertex 14.4907 9.13001 1.94491
    endloop
  endfacet
  facet normal 5.85121e-06 0.026177 0.999657
    outer loop
      vertex 13.8608 8.60277 1.95872
      vertex 14.4907 9.13001 1.94491
      vertex 14.5694 9.59589 1.93271
    endloop
  endfacet
  facet normal -0.353167 -0.935244 0.0243249
    outer loop
      vertex 13.912 11.2219 1.69006
      vertex 14.3087 11.0722 1.69398
      vertex 13.912 11.2271 1.88999
    endloop
  endfacet
  facet normal -0.353167 -0.935244 0.0243249
    outer loop
      vertex 13.912 11.2271 1.88999
      vertex 14.3087 11.0722 1.69398
      vertex 14.3087 11.0774 1.89391
    endloop
  endfacet
  facet normal -1.54931e-08 0.0261767 0.999657
    outer loop
      vertex 13.912 11.2271 1.88999
      vertex 14.3087 11.0774 1.89391
      vertex 28.5456 14 1.81738
    endloop
  endfacet
  facet normal -0.297772 0.954309 -0.0250117
    outer loop
      vertex 13.932 7.98065 1.77494
      vertex 13.932 7.98589 1.97487
      vertex 14.2714 8.09172 1.9721
    endloop
  endfacet
  facet normal -0.297772 0.954309 -0.0250117
    outer loop
      vertex 13.932 7.98065 1.77494
      vertex 14.2714 8.09172 1.9721
      vertex 14.2714 8.08648 1.77217
    endloop
  endfacet
  facet normal -4.47538e-06 0.0261794 0.999657
    outer loop
      vertex 13.932 7.98589 1.97487
      vertex 14.2575 7.11915 1.99757
      vertex 14.2714 8.09172 1.9721
    endloop
  endfacet
  facet normal 0.570493 0.821025 -0.0213541
    outer loop
      vertex 14.0503 10.5145 1.70859
      vertex 14.0503 10.5197 1.90852
      vertex 14.2728 10.36 1.71263
    endloop
  endfacet
  facet normal 1.06248e-05 0.0261552 0.999658
    outer loop
      vertex 14.0503 10.5145 1.70859
      vertex 14.2728 10.36 1.71263
      vertex 14.6338 10.8227 1.70052
    endloop
  endfacet
  facet normal -8.79757e-06 0.026192 0.999657
    outer loop
      vertex 14.0503 10.5145 1.70859
      vertex 14.6338 10.8227 1.70052
      vertex 14.3087 11.0722 1.69398
    endloop
  endfacet
  facet normal 0.570244 0.821187 -0.0217691
    outer loop
      vertex 14.0503 10.5197 1.90852
      vertex 14.2728 10.3653 1.91256
      vertex 14.2728 10.36 1.71263
    endloop
  endfacet
  facet normal 8.31725e-05 0.0262766 0.999655
    outer loop
      vertex 14.0503 10.5197 1.90852
      vertex 14.4376 10.1563 1.91804
      vertex 14.2728 10.3653 1.91256
    endloop
  endfacet
  facet normal -5.76432e-05 0.0261267 0.999659
    outer loop
      vertex 14.0503 10.5197 1.90852
      vertex 14.5365 9.89978 1.92475
      vertex 14.4376 10.1563 1.91804
    endloop
  endfacet
  facet normal 1.33942e-05 0.0261769 0.999657
    outer loop
      vertex 14.2545 8.79374 1.75365
      vertex 14.2714 8.08648 1.77217
      vertex 14.5528 8.25933 1.76764
    endloop
  endfacet
  facet normal 0.814127 -0.580488 0.0152141
    outer loop
      vertex 14.2545 8.79374 1.75365
      vertex 14.4907 9.12478 1.74498
      vertex 14.2545 8.79898 1.95358
    endloop
  endfacet
  facet normal -5.55978e-07 0.0261691 0.999658
    outer loop
      vertex 14.2545 8.79374 1.75365
      vertex 14.5528 8.25933 1.76764
      vertex 14.7762 8.49923 1.76136
    endloop
  endfacet
  facet normal 4.86937e-06 0.0261787 0.999657
    outer loop
      vertex 14.2545 8.79374 1.75365
      vertex 14.7762 8.49923 1.76136
      vertex 14.9382 8.80125 1.75345
    endloop
  endfacet
  facet normal 4.88036e-06 0.0261777 0.999657
    outer loop
      vertex 14.2545 8.79374 1.75365
      vertex 14.9382 8.80125 1.75345
      vertex 14.4907 9.12478 1.74498
    endloop
  endfacet
  facet normal 0.814118 -0.5805 0.0151854
    outer loop
      vertex 14.2545 8.79898 1.95358
      vertex 14.4907 9.12478 1.74498
      vertex 14.4907 9.13001 1.94491
    endloop
  endfacet
  facet normal 0 0.999657 -0.0262002
    outer loop
      vertex 14.2575 6.45299 1.81494
      vertex 14.2575 6.45823 2.01487
      vertex 15 6.45299 1.81494
    endloop
  endfacet
  facet normal 1 0 0
    outer loop
      vertex 14.2575 6.45299 1.81494
      vertex 14.2575 7.11391 1.79763
      vertex 14.2575 6.45823 2.01487
    endloop
  endfacet
  facet normal 0 0.0261818 0.999657
    outer loop
      vertex 14.2575 6.45299 1.81494
      vertex 15 6.45299 1.81494
      vertex 14.2575 7.11391 1.79763
    endloop
  endfacet
  facet normal 1 0 0
    outer loop
      vertex 14.2575 6.45823 2.01487
      vertex 14.2575 7.11391 1.79763
      vertex 14.2575 7.11915 1.99757
    endloop
  endfacet
  facet normal -0 0.0261771 0.999657
    outer loop
      vertex 14.2575 6.45823 2.01487
      vertex 14.4813 5.5757 2.03798
      vertex 15 6.45823 2.01487
    endloop
  endfacet
  facet normal 0 0.999657 -0.0262002
    outer loop
      vertex 14.2575 6.45823 2.01487
      vertex 15 6.45823 2.01487
      vertex 15 6.45299 1.81494
    endloop
  endfacet
  facet normal -0 0.0261818 0.999657
    outer loop
      vertex 14.2575 7.11391 1.79763
      vertex 15 6.45299 1.81494
      vertex 15 7.11391 1.79763
    endloop
  endfacet
  facet normal 0 -0.999657 0.0261989
    outer loop
      vertex 14.2575 7.11391 1.79763
      vertex 15 7.11391 1.79763
      vertex 15 7.11915 1.99757
    endloop
  endfacet
  facet normal 0 -0.999657 0.0261989
    outer loop
      vertex 14.2575 7.11391 1.79763
      vertex 15 7.11915 1.99757
      vertex 14.2575 7.11915 1.99757
    endloop
  endfacet
  facet normal 0 0.0261794 0.999657
    outer loop
      vertex 14.2575 7.11915 1.99757
      vertex 15 7.11915 1.99757
      vertex 14.2714 8.09172 1.9721
    endloop
  endfacet
  facet normal -0.523527 0.851717 -0.0223228
    outer loop
      vertex 14.2714 8.08648 1.77217
      vertex 14.2714 8.09172 1.9721
      vertex 14.5528 8.26457 1.96757
    endloop
  endfacet
  facet normal -0.523527 0.851717 -0.0223228
    outer loop
      vertex 14.2714 8.08648 1.77217
      vertex 14.5528 8.26457 1.96757
      vertex 14.5528 8.25933 1.76764
    endloop
  endfacet
  facet normal 8.13645e-06 0.0261855 0.999657
    outer loop
      vertex 14.2714 8.09172 1.9721
      vertex 15 7.11915 1.99757
      vertex 14.5528 8.26457 1.96757
    endloop
  endfacet
  facet normal 0.785352 0.618833 -0.0164048
    outer loop
      vertex 14.2728 10.36 1.71263
      vertex 14.2728 10.3653 1.91256
      vertex 14.4376 10.1563 1.91804
    endloop
  endfacet
  facet normal -5.25131e-06 0.0261592 0.999658
    outer loop
      vertex 14.2728 10.36 1.71263
      vertex 14.4376 10.151 1.7181
      vertex 14.8749 10.4847 1.70937
    endloop
  endfacet
  facet normal 0.785351 0.618833 -0.016404
    outer loop
      vertex 14.2728 10.36 1.71263
      vertex 14.4376 10.1563 1.91804
      vertex 14.4376 10.151 1.7181
    endloop
  endfacet
  facet normal -7.33988e-06 0.0261692 0.999658
    outer loop
      vertex 14.2728 10.36 1.71263
      vertex 14.8749 10.4847 1.70937
      vertex 14.6338 10.8227 1.70052
    endloop
  endfacet
  facet normal -0.608958 -0.792935 0.0206235
    outer loop
      vertex 14.3087 11.0722 1.69398
      vertex 14.6338 10.8227 1.70052
      vertex 14.3087 11.0774 1.89391
    endloop
  endfacet
  facet normal -0.608958 -0.792935 0.0206235
    outer loop
      vertex 14.3087 11.0774 1.89391
      vertex 14.6338 10.8227 1.70052
      vertex 14.6338 10.8279 1.90045
    endloop
  endfacet
  facet normal -4.34501e-06 0.0261978 0.999657
    outer loop
      vertex 14.3087 11.0774 1.89391
      vertex 14.6338 10.8279 1.90045
      vertex 28.5456 14 1.81738
    endloop
  endfacet
  facet normal 0.933096 0.359501 -0.00952964
    outer loop
      vertex 14.4376 10.151 1.7181
      vertex 14.4376 10.1563 1.91804
      vertex 14.5365 9.89978 1.92475
    endloop
  endfacet
  facet normal -2.51759e-05 0.0261852 0.999657
    outer loop
      vertex 14.4376 10.151 1.7181
      vertex 14.5365 9.89455 1.72482
      vertex 14.8749 10.4847 1.70937
    endloop
  endfacet
  facet normal 0.933063 0.35959 -0.00940656
    outer loop
      vertex 14.4376 10.151 1.7181
      vertex 14.5365 9.89978 1.92475
      vertex 14.5365 9.89455 1.72482
    endloop
  endfacet
  facet normal 0 0.999658 -0.0261502
    outer loop
      vertex 14.4813 2.5776 1.91642
      vertex 14.4813 2.58283 2.11635
      vertex 15 2.5776 1.91642
    endloop
  endfacet
  facet normal 1 0 0
    outer loop
      vertex 14.4813 2.5776 1.91642
      vertex 14.4813 3.79437 1.88456
      vertex 14.4813 2.58283 2.11635
    endloop
  endfacet
  facet normal 0 0.0261751 0.999657
    outer loop
      vertex 14.4813 2.5776 1.91642
      vertex 15 2.5776 1.91642
      vertex 14.4813 3.79437 1.88456
    endloop
  endfacet
  facet normal 1 0 0
    outer loop
      vertex 14.4813 2.58283 2.11635
      vertex 14.4813 3.79437 1.88456
      vertex 14.4813 3.79961 2.08449
    endloop
  endfacet
  facet normal 0 0.999658 -0.0261502
    outer loop
      vertex 14.4813 2.58283 2.11635
      vertex 15 2.58283 2.11635
      vertex 15 2.5776 1.91642
    endloop
  endfacet
  facet normal -0 0.0261794 0.999657
    outer loop
      vertex 14.4813 2.58283 2.11635
      vertex 25.8988 0 2.18399
      vertex 15 2.58283 2.11635
    endloop
  endfacet
  facet normal 3.49448e-06 0.0261766 0.999657
    outer loop
      vertex 14.4813 3.79437 1.88456
      vertex 15 2.5776 1.91642
      vertex 15 5.57047 1.83805
    endloop
  endfacet
  facet normal -1.79562e-05 0.0261829 0.999657
    outer loop
      vertex 14.4813 3.79437 1.88456
      vertex 15 5.57047 1.83805
      vertex 14.4813 4.40792 1.86849
    endloop
  endfacet
  facet normal 1 0 0
    outer loop
      vertex 14.4813 4.40792 1.86849
      vertex 14.4813 5.57047 1.83805
      vertex 14.4813 4.41315 2.06842
    endloop
  endfacet
  facet normal 0 0.0261748 0.999657
    outer loop
      vertex 14.4813 4.40792 1.86849
      vertex 15 5.57047 1.83805
      vertex 14.4813 5.57047 1.83805
    endloop
  endfacet
  facet normal 1 0 0
    outer loop
      vertex 14.4813 4.41315 2.06842
      vertex 14.4813 5.57047 1.83805
      vertex 14.4813 5.5757 2.03798
    endloop
  endfacet
  facet normal 0 -0.999658 0.0261502
    outer loop
      vertex 14.4813 5.57047 1.83805
      vertex 15 5.57047 1.83805
      vertex 15 5.5757 2.03798
    endloop
  endfacet
  facet normal 0 -0.999658 0.0261502
    outer loop
      vertex 14.4813 5.57047 1.83805
      vertex 15 5.5757 2.03798
      vertex 14.4813 5.5757 2.03798
    endloop
  endfacet
  facet normal 0 0.0261771 0.999657
    outer loop
      vertex 14.4813 5.5757 2.03798
      vertex 15 5.5757 2.03798
      vertex 15 6.45823 2.01487
    endloop
  endfacet
  facet normal 0.986039 -0.166459 0.00435442
    outer loop
      vertex 14.4907 9.12478 1.74498
      vertex 14.5694 9.59065 1.73278
      vertex 14.4907 9.13001 1.94491
    endloop
  endfacet
  facet normal 6.84224e-06 0.0261804 0.999657
    outer loop
      vertex 14.4907 9.12478 1.74498
      vertex 14.9382 8.80125 1.75345
      vertex 15.0354 9.16053 1.74404
    endloop
  endfacet
  facet normal 7.04213e-06 0.0261774 0.999657
    outer loop
      vertex 14.4907 9.12478 1.74498
      vertex 15.0354 9.16053 1.74404
      vertex 14.5694 9.59065 1.73278
    endloop
  endfacet
  facet normal 0.986039 -0.166455 0.00436265
    outer loop
      vertex 14.4907 9.13001 1.94491
      vertex 14.5694 9.59065 1.73278
      vertex 14.5694 9.59589 1.93271
    endloop
  endfacet
  facet normal 0.994195 0.107561 -0.0028137
    outer loop
      vertex 14.5365 9.89455 1.72482
      vertex 14.5365 9.89978 1.92475
      vertex 14.5694 9.59589 1.93271
    endloop
  endfacet
  facet normal 1.19906e-05 0.0261851 0.999657
    outer loop
      vertex 14.5365 9.89455 1.72482
      vertex 14.5694 9.59065 1.73278
      vertex 15.0678 9.57706 1.73313
    endloop
  endfacet
  facet normal 0.994195 0.107557 -0.00281898
    outer loop
      vertex 14.5365 9.89455 1.72482
      vertex 14.5694 9.59589 1.93271
      vertex 14.5694 9.59065 1.73278
    endloop
  endfacet
  facet normal -4.00485e-07 0.026171 0.999657
    outer loop
      vertex 14.5365 9.89455 1.72482
      vertex 15.0196 10.0695 1.72024
      vertex 14.8749 10.4847 1.70937
    endloop
  endfacet
  facet normal 1.0945e-06 0.0261669 0.999658
    outer loop
      vertex 14.5365 9.89455 1.72482
      vertex 15.0678 9.57706 1.73313
      vertex 15.0196 10.0695 1.72024
    endloop
  endfacet
  facet normal -0.731942 0.681133 -0.0178519
    outer loop
      vertex 14.5528 8.25933 1.76764
      vertex 14.5528 8.26457 1.96757
      vertex 14.7762 8.49923 1.76136
    endloop
  endfacet
  facet normal -0.731928 0.681149 -0.0178183
    outer loop
      vertex 14.5528 8.26457 1.96757
      vertex 14.7762 8.50446 1.96129
      vertex 14.7762 8.49923 1.76136
    endloop
  endfacet
  facet normal -9.53067e-06 0.0261786 0.999657
    outer loop
      vertex 14.5528 8.26457 1.96757
      vertex 15 7.11915 1.99757
      vertex 14.7762 8.50446 1.96129
    endloop
  endfacet
  facet normal 1.19235e-05 0.0261827 0.999657
    outer loop
      vertex 14.5694 9.59065 1.73278
      vertex 15.0354 9.16053 1.74404
      vertex 15.0678 9.57706 1.73313
    endloop
  endfacet
  facet normal -0.814202 -0.580386 0.0150953
    outer loop
      vertex 14.6338 10.8227 1.70052
      vertex 14.8749 10.4847 1.70937
      vertex 14.8749 10.4899 1.9093
    endloop
  endfacet
  facet normal -0.814202 -0.580386 0.0150953
    outer loop
      vertex 14.6338 10.8227 1.70052
      vertex 14.8749 10.4899 1.9093
      vertex 14.6338 10.8279 1.90045
    endloop
  endfacet
  facet normal -1.67417e-06 0.0261733 0.999657
    outer loop
      vertex 14.6338 10.8279 1.90045
      vertex 14.8749 10.4899 1.9093
      vertex 19.765 8.6 1.95879
    endloop
  endfacet
  facet normal 2.39791e-07 0.0261777 0.999657
    outer loop
      vertex 14.6338 10.8279 1.90045
      vertex 19.765 8.6 1.95879
      vertex 28.5456 14 1.81738
    endloop
  endfacet
  facet normal -0.8813 0.472395 -0.0123575
    outer loop
      vertex 14.7762 8.49923 1.76136
      vertex 14.7762 8.50446 1.96129
      vertex 14.9382 8.80125 1.75345
    endloop
  endfacet
  facet normal -0.8813 0.472395 -0.0123575
    outer loop
      vertex 14.7762 8.50446 1.96129
      vertex 14.9382 8.80648 1.95338
      vertex 14.9382 8.80125 1.75345
    endloop
  endfacet
  facet normal 1.76815e-06 0.0261804 0.999657
    outer loop
      vertex 14.7762 8.50446 1.96129
      vertex 15 7.11915 1.99757
      vertex 14.9382 8.80648 1.95338
    endloop
  endfacet
  facet normal -0.944332 -0.328882 0.00855393
    outer loop
      vertex 14.8749 10.4847 1.70937
      vertex 15.0196 10.0695 1.72024
      vertex 15.0196 10.0747 1.92017
    endloop
  endfacet
  facet normal -0.944332 -0.328882 0.00855393
    outer loop
      vertex 14.8749 10.4847 1.70937
      vertex 15.0196 10.0747 1.92017
      vertex 14.8749 10.4899 1.9093
    endloop
  endfacet
  facet normal -3.2225e-06 0.0261701 0.999658
    outer loop
      vertex 14.8749 10.4899 1.9093
      vertex 15.0196 10.0747 1.92017
      vertex 19.2706 8.52169 1.96084
    endloop
  endfacet
  facet normal -9.61403e-07 0.0261751 0.999657
    outer loop
      vertex 14.8749 10.4899 1.9093
      vertex 19.2706 8.52169 1.96084
      vertex 19.765 8.6 1.95879
    endloop
  endfacet
  facet normal -0.96532 0.26098 -0.00682701
    outer loop
      vertex 14.9382 8.80125 1.75345
      vertex 14.9382 8.80648 1.95338
      vertex 15.0354 9.16053 1.74404
    endloop
  endfacet
  facet normal 5.14898e-07 0.0261803 0.999657
    outer loop
      vertex 14.9382 8.80648 1.95338
      vertex 15 7.11915 1.99757
      vertex 18.2433 7.49443 1.98774
    endloop
  endfacet
  facet normal -0.96532 0.26098 -0.00682701
    outer loop
      vertex 14.9382 8.80648 1.95338
      vertex 15.0354 9.16576 1.94397
      vertex 15.0354 9.16053 1.74404
    endloop
  endfacet
  facet normal 1.16288e-06 0.026182 0.999657
    outer loop
      vertex 14.9382 8.80648 1.95338
      vertex 18.2433 7.49443 1.98774
      vertex 15.0354 9.16576 1.94397
    endloop
  endfacet
  facet normal -1 0 -0
    outer loop
      vertex 15 2.5776 1.91642
      vertex 15 2.58283 2.11635
      vertex 15 5.57047 1.83805
    endloop
  endfacet
  facet normal -1 0 0
    outer loop
      vertex 15 2.58283 2.11635
      vertex 15 5.5757 2.03798
      vertex 15 5.57047 1.83805
    endloop
  endfacet
  facet normal -1.88111e-07 0.0261766 0.999657
    outer loop
      vertex 15 2.58283 2.11635
      vertex 18.8245 5.70557 2.03458
      vertex 15 5.5757 2.03798
    endloop
  endfacet
  facet normal 1.21397e-06 0.0261749 0.999657
    outer loop
      vertex 15 2.58283 2.11635
      vertex 19.2706 5.47831 2.04053
      vertex 18.8245 5.70557 2.03458
    endloop
  endfacet
  facet normal 9.79417e-07 0.0261752 0.999657
    outer loop
      vertex 15 2.58283 2.11635
      vertex 19.765 5.4 2.04258
      vertex 19.2706 5.47831 2.04053
    endloop
  endfacet
  facet normal -4.1858e-07 0.0261776 0.999657
    outer loop
      vertex 15 2.58283 2.11635
      vertex 25.8988 0 2.18399
      vertex 19.765 5.4 2.04258
    endloop
  endfacet
  facet normal 1.08197e-07 0.0261771 0.999657
    outer loop
      vertex 15 5.5757 2.03798
      vertex 18.2433 6.50557 2.01363
      vertex 15 6.45823 2.01487
    endloop
  endfacet
  facet normal -3.08103e-08 0.0261776 0.999657
    outer loop
      vertex 15 5.5757 2.03798
      vertex 18.4706 6.05954 2.02531
      vertex 18.2433 6.50557 2.01363
    endloop
  endfacet
  facet normal -2.8346e-07 0.0261794 0.999657
    outer loop
      vertex 15 5.5757 2.03798
      vertex 18.8245 5.70557 2.03458
      vertex 18.4706 6.05954 2.02531
    endloop
  endfacet
  facet normal -1 0 -0
    outer loop
      vertex 15 6.45299 1.81494
      vertex 15 6.45823 2.01487
      vertex 15 7.11391 1.79763
    endloop
  endfacet
  facet normal -1 0 0
    outer loop
      vertex 15 6.45823 2.01487
      vertex 15 7.11915 1.99757
      vertex 15 7.11391 1.79763
    endloop
  endfacet
  facet normal -3.70557e-07 0.0261667 0.999658
    outer loop
      vertex 15 6.45823 2.01487
      vertex 18.165 7 2.00069
      vertex 15 7.11915 1.99757
    endloop
  endfacet
  facet normal 3.19434e-07 0.0261626 0.999658
    outer loop
      vertex 15 6.45823 2.01487
      vertex 18.2433 6.50557 2.01363
      vertex 18.165 7 2.00069
    endloop
  endfacet
  facet normal 2.35531e-07 0.0261828 0.999657
    outer loop
      vertex 15 7.11915 1.99757
      vertex 18.165 7 2.00069
      vertex 18.2433 7.49443 1.98774
    endloop
  endfacet
  facet normal -0.995247 -0.0973481 0.00254642
    outer loop
      vertex 15.0196 10.0695 1.72024
      vertex 15.0678 9.57706 1.73313
      vertex 15.0678 9.58229 1.93307
    endloop
  endfacet
  facet normal -0.995247 -0.0973543 0.0025321
    outer loop
      vertex 15.0196 10.0695 1.72024
      vertex 15.0678 9.58229 1.93307
      vertex 15.0196 10.0747 1.92017
    endloop
  endfacet
  facet normal 5.21636e-06 0.0261892 0.999657
    outer loop
      vertex 15.0196 10.0747 1.92017
      vertex 15.0678 9.58229 1.93307
      vertex 18.8245 8.29443 1.96679
    endloop
  endfacet
  facet normal -1.3587e-06 0.0261752 0.999657
    outer loop
      vertex 15.0196 10.0747 1.92017
      vertex 18.8245 8.29443 1.96679
      vertex 19.2706 8.52169 1.96084
    endloop
  endfacet
  facet normal -0.99699 0.0774983 -0.00202729
    outer loop
      vertex 15.0354 9.16053 1.74404
      vertex 15.0354 9.16576 1.94397
      vertex 15.0678 9.57706 1.73313
    endloop
  endfacet
  facet normal -0.99699 0.0774984 -0.00202719
    outer loop
      vertex 15.0354 9.16576 1.94397
      vertex 15.0678 9.58229 1.93307
      vertex 15.0678 9.57706 1.73313
    endloop
  endfacet
  facet normal -8.82609e-07 0.0261781 0.999657
    outer loop
      vertex 15.0354 9.16576 1.94397
      vertex 18.2433 7.49443 1.98774
      vertex 18.4706 7.94046 1.97606
    endloop
  endfacet
  facet normal -7.25847e-06 0.0261602 0.999658
    outer loop
      vertex 15.0354 9.16576 1.94397
      vertex 18.4706 7.94046 1.97606
      vertex 15.0678 9.58229 1.93307
    endloop
  endfacet
  facet normal 1.45218e-06 0.0261782 0.999657
    outer loop
      vertex 15.0678 9.58229 1.93307
      vertex 18.4706 7.94046 1.97606
      vertex 18.8245 8.29443 1.96679
    endloop
  endfacet
  facet normal 0.987691 0.156415 0
    outer loop
      vertex 18.165 7 0
      vertex 18.165 7 2.00069
      vertex 18.2433 6.50557 0
    endloop
  endfacet
  facet normal 0.987691 -0.156415 0
    outer loop
      vertex 18.165 7 0
      vertex 18.2433 7.49443 0
      vertex 18.2433 7.49443 1.98774
    endloop
  endfacet
  facet normal 0.987691 -0.156415 0
    outer loop
      vertex 18.165 7 0
      vertex 18.2433 7.49443 1.98774
      vertex 18.165 7 2.00069
    endloop
  endfacet
  facet normal 0.987691 0.156415 -0
    outer loop
      vertex 18.165 7 2.00069
      vertex 18.2433 6.50557 2.01363
      vertex 18.2433 6.50557 0
    endloop
  endfacet
  facet normal 0.890977 0.454048 0
    outer loop
      vertex 18.2433 6.50557 0
      vertex 18.2433 6.50557 2.01363
      vertex 18.4706 6.05954 0
    endloop
  endfacet
  facet normal 0.890977 0.454048 -0
    outer loop
      vertex 18.2433 6.50557 2.01363
      vertex 18.4706 6.05954 2.02531
      vertex 18.4706 6.05954 0
    endloop
  endfacet
  facet normal 0.890977 -0.454048 0
    outer loop
      vertex 18.2433 7.49443 0
      vertex 18.4706 7.94046 0
      vertex 18.4706 7.94046 1.97606
    endloop
  endfacet
  facet normal 0.890977 -0.454048 0
    outer loop
      vertex 18.2433 7.49443 0
      vertex 18.4706 7.94046 1.97606
      vertex 18.2433 7.49443 1.98774
    endloop
  endfacet
  facet normal 0.707177 0.707037 0
    outer loop
      vertex 18.4706 6.05954 0
      vertex 18.4706 6.05954 2.02531
      vertex 18.8245 5.70557 0
    endloop
  endfacet
  facet normal 0.707177 0.707037 -0
    outer loop
      vertex 18.4706 6.05954 2.02531
      vertex 18.8245 5.70557 2.03458
      vertex 18.8245 5.70557 0
    endloop
  endfacet
  facet normal 0.707177 -0.707037 0
    outer loop
      vertex 18.4706 7.94046 0
      vertex 18.8245 8.29443 0
      vertex 18.8245 8.29443 1.96679
    endloop
  endfacet
  facet normal 0.707177 -0.707037 0
    outer loop
      vertex 18.4706 7.94046 0
      vertex 18.8245 8.29443 1.96679
      vertex 18.4706 7.94046 1.97606
    endloop
  endfacet
  facet normal 0.453928 0.891038 0
    outer loop
      vertex 18.8245 5.70557 0
      vertex 18.8245 5.70557 2.03458
      vertex 19.2706 5.47831 0
    endloop
  endfacet
  facet normal 0.453928 0.891038 -0
    outer loop
      vertex 18.8245 5.70557 2.03458
      vertex 19.2706 5.47831 2.04053
      vertex 19.2706 5.47831 0
    endloop
  endfacet
  facet normal 0.453928 -0.891038 0
    outer loop
      vertex 18.8245 8.29443 0
      vertex 19.2706 8.52169 0
      vertex 19.2706 8.52169 1.96084
    endloop
  endfacet
  facet normal 0.453928 -0.891038 0
    outer loop
      vertex 18.8245 8.29443 0
      vertex 19.2706 8.52169 1.96084
      vertex 18.8245 8.29443 1.96679
    endloop
  endfacet
  facet normal 0.156444 0.987687 0
    outer loop
      vertex 19.2706 5.47831 0
      vertex 19.2706 5.47831 2.04053
      vertex 19.765 5.4 0
    endloop
  endfacet
  facet normal 0 0 -1
    outer loop
      vertex 19.2706 5.47831 0
      vertex 19.765 5.4 0
      vertex 26.15 0 0
    endloop
  endfacet
  facet normal 0.156444 0.987687 -0
    outer loop
      vertex 19.2706 5.47831 2.04053
      vertex 19.765 5.4 2.04258
      vertex 19.765 5.4 0
    endloop
  endfacet
  facet normal 0.156444 -0.987687 0
    outer loop
      vertex 19.2706 8.52169 0
      vertex 19.765 8.6 0
      vertex 19.765 8.6 1.95879
    endloop
  endfacet
  facet normal 0.156444 -0.987687 0
    outer loop
      vertex 19.2706 8.52169 0
      vertex 19.765 8.6 1.95879
      vertex 19.2706 8.52169 1.96084
    endloop
  endfacet
  facet normal 0 0 -1
    outer loop
      vertex 19.2706 8.52169 0
      vertex 28.8 14 0
      vertex 19.765 8.6 0
    endloop
  endfacet
  facet normal -0.156444 0.987687 0
    outer loop
      vertex 19.765 5.4 0
      vertex 19.765 5.4 2.04258
      vertex 20.2594 5.47831 0
    endloop
  endfacet
  facet normal 0 0 -1
    outer loop
      vertex 19.765 5.4 0
      vertex 20.2594 5.47831 0
      vertex 26.15 0 0
    endloop
  endfacet
  facet normal -0.156444 0.987687 0
    outer loop
      vertex 19.765 5.4 2.04258
      vertex 20.2594 5.47831 2.04053
      vertex 20.2594 5.47831 0
    endloop
  endfacet
  facet normal -1.21132e-06 0.0261767 0.999657
    outer loop
      vertex 19.765 5.4 2.04258
      vertex 25.8988 0 2.18399
      vertex 20.2594 5.47831 2.04053
    endloop
  endfacet
  facet normal -0.156444 -0.987687 -0
    outer loop
      vertex 19.765 8.6 0
      vertex 20.2594 8.52169 0
      vertex 20.2594 8.52169 1.96084
    endloop
  endfacet
  facet normal -0.156444 -0.987687 0
    outer loop
      vertex 19.765 8.6 0
      vertex 20.2594 8.52169 1.96084
      vertex 19.765 8.6 1.95879
    endloop
  endfacet
  facet normal 0 0 -1
    outer loop
      vertex 19.765 8.6 0
      vertex 28.8 14 0
      vertex 20.2594 8.52169 0
    endloop
  endfacet
  facet normal 1.13654e-06 0.0261762 0.999657
    outer loop
      vertex 19.765 8.6 1.95879
      vertex 20.2594 8.52169 1.96084
      vertex 28.5456 14 1.81738
    endloop
  endfacet
  facet normal -0.453928 0.891038 0
    outer loop
      vertex 20.2594 5.47831 0
      vertex 20.2594 5.47831 2.04053
      vertex 20.7055 5.70557 2.03458
    endloop
  endfacet
  facet normal 0 0 -1
    outer loop
      vertex 20.2594 5.47831 0
      vertex 20.7055 5.70557 0
      vertex 26.15 0 0
    endloop
  endfacet
  facet normal -0.453928 0.891038 0
    outer loop
      vertex 20.2594 5.47831 0
      vertex 20.7055 5.70557 2.03458
      vertex 20.7055 5.70557 0
    endloop
  endfacet
  facet normal -1.81796e-06 0.0261761 0.999657
    outer loop
      vertex 20.2594 5.47831 2.04053
      vertex 25.8988 0 2.18399
      vertex 20.7055 5.70557 2.03458
    endloop
  endfacet
  facet normal -0.453928 -0.891038 0
    outer loop
      vertex 20.2594 8.52169 0
      vertex 20.7055 8.29443 0
      vertex 20.2594 8.52169 1.96084
    endloop
  endfacet
  facet normal 0 0 -1
    outer loop
      vertex 20.2594 8.52169 0
      vertex 28.8 14 0
      vertex 20.7055 8.29443 0
    endloop
  endfacet
  facet normal -0.453928 -0.891038 0
    outer loop
      vertex 20.2594 8.52169 1.96084
      vertex 20.7055 8.29443 0
      vertex 20.7055 8.29443 1.96679
    endloop
  endfacet
  facet normal 7.68846e-07 0.026174 0.999657
    outer loop
      vertex 20.2594 8.52169 1.96084
      vertex 20.7055 8.29443 1.96679
      vertex 28.0831 11.3588 1.88655
    endloop
  endfacet
  facet normal -1.45418e-06 0.0261801 0.999657
    outer loop
      vertex 20.2594 8.52169 1.96084
      vertex 28.0831 11.3588 1.88655
      vertex 28.5456 14 1.81738
    endloop
  endfacet
  facet normal -0.707177 0.707037 0
    outer loop
      vertex 20.7055 5.70557 0
      vertex 20.7055 5.70557 2.03458
      vertex 21.0594 6.05954 2.02531
    endloop
  endfacet
  facet normal 0 0 -1
    outer loop
      vertex 20.7055 5.70557 0
      vertex 21.0594 6.05954 0
      vertex 26.15 0 0
    endloop
  endfacet
  facet normal -0.707177 0.707037 0
    outer loop
      vertex 20.7055 5.70557 0
      vertex 21.0594 6.05954 2.02531
      vertex 21.0594 6.05954 0
    endloop
  endfacet
  facet normal 1.03043e-06 0.0261787 0.999657
    outer loop
      vertex 20.7055 5.70557 2.03458
      vertex 25.8988 0 2.18399
      vertex 21.0594 6.05954 2.02531
    endloop
  endfacet
  facet normal -0.707177 -0.707037 0
    outer loop
      vertex 20.7055 8.29443 0
      vertex 21.0594 7.94046 0
      vertex 20.7055 8.29443 1.96679
    endloop
  endfacet
  facet normal 0 0 -1
    outer loop
      vertex 20.7055 8.29443 0
      vertex 28.8 14 0
      vertex 21.0594 7.94046 0
    endloop
  endfacet
  facet normal -0.707177 -0.707037 0
    outer loop
      vertex 20.7055 8.29443 1.96679
      vertex 21.0594 7.94046 0
      vertex 21.0594 7.94046 1.97606
    endloop
  endfacet
  facet normal -1.12439e-06 0.0261786 0.999657
    outer loop
      vertex 20.7055 8.29443 1.96679
      vertex 21.0594 7.94046 1.97606
      vertex 28.0831 11.3588 1.88655
    endloop
  endfacet
  facet normal -0.890977 0.454048 0
    outer loop
      vertex 21.0594 6.05954 0
      vertex 21.0594 6.05954 2.02531
      vertex 21.2867 6.50557 2.01363
    endloop
  endfacet
  facet normal 0 0 -1
    outer loop
      vertex 21.0594 6.05954 0
      vertex 21.2867 6.50557 0
      vertex 26.15 0 0
    endloop
  endfacet
  facet normal -0.890977 0.454048 0
    outer loop
      vertex 21.0594 6.05954 0
      vertex 21.2867 6.50557 2.01363
      vertex 21.2867 6.50557 0
    endloop
  endfacet
  facet normal -1.73364e-07 0.0261777 0.999657
    outer loop
      vertex 21.0594 6.05954 2.02531
      vertex 25.8988 0 2.18399
      vertex 21.2867 6.50557 2.01363
    endloop
  endfacet
  facet normal -0.890977 -0.454048 0
    outer loop
      vertex 21.0594 7.94046 0
      vertex 21.2867 7.49443 0
      vertex 21.0594 7.94046 1.97606
    endloop
  endfacet
  facet normal 0 0 -1
    outer loop
      vertex 21.0594 7.94046 0
      vertex 28.8 14 0
      vertex 21.2867 7.49443 0
    endloop
  endfacet
  facet normal -0.890977 -0.454048 0
    outer loop
      vertex 21.0594 7.94046 1.97606
      vertex 21.2867 7.49443 0
      vertex 21.2867 7.49443 1.98774
    endloop
  endfacet
  facet normal -5.28213e-07 0.0261773 0.999657
    outer loop
      vertex 21.0594 7.94046 1.97606
      vertex 21.2867 7.49443 1.98774
      vertex 28.0831 11.3588 1.88655
    endloop
  endfacet
  facet normal -0.987691 0.156415 0
    outer loop
      vertex 21.2867 6.50557 0
      vertex 21.2867 6.50557 2.01363
      vertex 21.365 7 2.00069
    endloop
  endfacet
  facet normal 0 0 -1
    outer loop
      vertex 21.2867 6.50557 0
      vertex 21.365 7 0
      vertex 26.15 0 0
    endloop
  endfacet
  facet normal -0.987691 0.156415 0
    outer loop
      vertex 21.2867 6.50557 0
      vertex 21.365 7 2.00069
      vertex 21.365 7 0
    endloop
  endfacet
  facet normal -1.02711e-06 0.0261771 0.999657
    outer loop
      vertex 21.2867 6.50557 2.01363
      vertex 25.8988 0 2.18399
      vertex 28.0831 11.3588 1.88655
    endloop
  endfacet
  facet normal 1.05215e-05 0.0261609 0.999658
    outer loop
      vertex 21.2867 6.50557 2.01363
      vertex 28.0831 11.3588 1.88655
      vertex 21.365 7 2.00069
    endloop
  endfacet
  facet normal -0.987691 -0.156415 0
    outer loop
      vertex 21.2867 7.49443 0
      vertex 21.365 7 0
      vertex 21.2867 7.49443 1.98774
    endloop
  endfacet
  facet normal 0 0 -1
    outer loop
      vertex 21.2867 7.49443 0
      vertex 28.8 14 0
      vertex 21.365 7 0
    endloop
  endfacet
  facet normal -0.987691 -0.156415 0
    outer loop
      vertex 21.2867 7.49443 1.98774
      vertex 21.365 7 0
      vertex 21.365 7 2.00069
    endloop
  endfacet
  facet normal -3.33493e-06 0.0261823 0.999657
    outer loop
      vertex 21.2867 7.49443 1.98774
      vertex 21.365 7 2.00069
      vertex 28.0831 11.3588 1.88655
    endloop
  endfacet
  facet normal 0 0 -1
    outer loop
      vertex 21.365 7 0
      vertex 28.8 14 0
      vertex 26.15 0 0
    endloop
  endfacet
  facet normal 0.976337 -0.184809 0.112297
    outer loop
      vertex 25.8988 0 2.18399
      vertex 26.15 0 0
      vertex 28.0831 11.3588 1.88655
    endloop
  endfacet
  facet normal 0.97634 -0.184807 0.112282
    outer loop
      vertex 26.15 0 0
      vertex 28.8 14 0
      vertex 28.0831 11.3588 1.88655
    endloop
  endfacet
  facet normal 0.976371 -0.167393 0.136674
    outer loop
      vertex 28.0831 11.3588 1.88655
      vertex 28.8 14 0
      vertex 28.5456 14 1.81738
    endloop
  endfacet
  facet normal 0.987688 0.156434 0
    outer loop
      vertex 4 7 0
      vertex 4 7 2.00069
      vertex 4.07831 6.50557 0
    endloop
  endfacet
  facet normal 0.987688 -0.156434 0
    outer loop
      vertex 4 7 0
      vertex 4.07831 7.49443 0
      vertex 4.07831 7.49443 1.98774
    endloop
  endfacet
  facet normal 0.987688 -0.156434 0
    outer loop
      vertex 4 7 0
      vertex 4.07831 7.49443 1.98774
      vertex 4 7 2.00069
    endloop
  endfacet
  facet normal 0.987688 0.156434 -0
    outer loop
      vertex 4 7 2.00069
      vertex 4.07831 6.50557 2.01363
      vertex 4.07831 6.50557 0
    endloop
  endfacet
  facet normal 0.891009 0.453985 0
    outer loop
      vertex 4.07831 6.50557 0
      vertex 4.07831 6.50557 2.01363
      vertex 4.30557 6.05954 0
    endloop
  endfacet
  facet normal 0.891009 0.453985 -0
    outer loop
      vertex 4.07831 6.50557 2.01363
      vertex 4.30557 6.05954 2.02531
      vertex 4.30557 6.05954 0
    endloop
  endfacet
  facet normal 0.891009 -0.453985 0
    outer loop
      vertex 4.07831 7.49443 0
      vertex 4.30557 7.94046 0
      vertex 4.30557 7.94046 1.97606
    endloop
  endfacet
  facet normal 0.891009 -0.453985 0
    outer loop
      vertex 4.07831 7.49443 0
      vertex 4.30557 7.94046 1.97606
      vertex 4.07831 7.49443 1.98774
    endloop
  endfacet
  facet normal 0.707107 0.707107 0
    outer loop
      vertex 4.30557 6.05954 0
      vertex 4.30557 6.05954 2.02531
      vertex 4.65954 5.70557 0
    endloop
  endfacet
  facet normal 0.707107 0.707107 -0
    outer loop
      vertex 4.30557 6.05954 2.02531
      vertex 4.65954 5.70557 2.03458
      vertex 4.65954 5.70557 0
    endloop
  endfacet
  facet normal 0.707107 -0.707107 0
    outer loop
      vertex 4.30557 7.94046 0
      vertex 4.65954 8.29443 0
      vertex 4.65954 8.29443 1.96679
    endloop
  endfacet
  facet normal 0.707107 -0.707107 0
    outer loop
      vertex 4.30557 7.94046 0
      vertex 4.65954 8.29443 1.96679
      vertex 4.30557 7.94046 1.97606
    endloop
  endfacet
  facet normal 0.453985 0.891009 0
    outer loop
      vertex 4.65954 5.70557 0
      vertex 4.65954 5.70557 2.03458
      vertex 5.10557 5.47831 0
    endloop
  endfacet
  facet normal 0.453985 0.891009 -0
    outer loop
      vertex 4.65954 5.70557 2.03458
      vertex 5.10557 5.47831 2.04053
      vertex 5.10557 5.47831 0
    endloop
  endfacet
  facet normal 0.453985 -0.891009 0
    outer loop
      vertex 4.65954 8.29443 0
      vertex 5.10557 8.52169 0
      vertex 5.10557 8.52169 1.96084
    endloop
  endfacet
  facet normal 0.453985 -0.891009 0
    outer loop
      vertex 4.65954 8.29443 0
      vertex 5.10557 8.52169 1.96084
      vertex 4.65954 8.29443 1.96679
    endloop
  endfacet
  facet normal 0.156434 0.987688 0
    outer loop
      vertex 5.10557 5.47831 0
      vertex 5.10557 5.47831 2.04053
      vertex 5.6 5.4 0
    endloop
  endfacet
  facet normal 0.156434 0.987688 -0
    outer loop
      vertex 5.10557 5.47831 2.04053
      vertex 5.6 5.4 2.04258
      vertex 5.6 5.4 0
    endloop
  endfacet
  facet normal 0.156434 -0.987688 0
    outer loop
      vertex 5.10557 8.52169 0
      vertex 5.6 8.6 0
      vertex 5.6 8.6 1.95879
    endloop
  endfacet
  facet normal 0.156434 -0.987688 0
    outer loop
      vertex 5.10557 8.52169 0
      vertex 5.6 8.6 1.95879
      vertex 5.10557 8.52169 1.96084
    endloop
  endfacet
  facet normal -0.156434 0.987688 0
    outer loop
      vertex 5.6 5.4 0
      vertex 5.6 5.4 2.04258
      vertex 6.09443 5.47831 0
    endloop
  endfacet
  facet normal -1.1735e-06 0.0261764 0.999657
    outer loop
      vertex 5.6 5.4 2.04258
      vertex 10.2226 3.85049 2.08316
      vertex 6.09443 5.47831 2.04053
    endloop
  endfacet
  facet normal -3.74308e-06 0.0261688 0.999658
    outer loop
      vertex 5.6 5.4 2.04258
      vertex 10.9991 2.72178 2.11271
      vertex 10.2226 3.85049 2.08316
    endloop
  endfacet
  facet normal -0.156434 0.987688 0
    outer loop
      vertex 5.6 5.4 2.04258
      vertex 6.09443 5.47831 2.04053
      vertex 6.09443 5.47831 0
    endloop
  endfacet
  facet normal -0.156434 -0.987688 -0
    outer loop
      vertex 5.6 8.6 0
      vertex 6.09443 8.52169 0
      vertex 6.09443 8.52169 1.96084
    endloop
  endfacet
  facet normal -0.156434 -0.987688 0
    outer loop
      vertex 5.6 8.6 0
      vertex 6.09443 8.52169 1.96084
      vertex 5.6 8.6 1.95879
    endloop
  endfacet
  facet normal 8.25976e-07 0.0261743 0.999657
    outer loop
      vertex 5.6 8.6 1.95879
      vertex 6.09443 8.52169 1.96084
      vertex 10.2226 10.9991 1.89597
    endloop
  endfacet
  facet normal 0 0 -1
    outer loop
      vertex 6.09443 5.47831 0
      vertex 18.8245 5.70557 0
      vertex 19.2706 5.47831 0
    endloop
  endfacet
  facet normal -0.453985 0.891009 0
    outer loop
      vertex 6.09443 5.47831 0
      vertex 6.09443 5.47831 2.04053
      vertex 6.54046 5.70557 2.03458
    endloop
  endfacet
  facet normal -0 0 -1
    outer loop
      vertex 6.09443 5.47831 0
      vertex 6.54046 5.70557 0
      vertex 18.8245 5.70557 0
    endloop
  endfacet
  facet normal -0.453985 0.891009 0
    outer loop
      vertex 6.09443 5.47831 0
      vertex 6.54046 5.70557 2.03458
      vertex 6.54046 5.70557 0
    endloop
  endfacet
  facet normal -1.54061e-06 0.0261755 0.999657
    outer loop
      vertex 6.09443 5.47831 2.04053
      vertex 10.2226 3.85049 2.08316
      vertex 6.54046 5.70557 2.03458
    endloop
  endfacet
  facet normal 0 0 -1
    outer loop
      vertex 6.09443 8.52169 0
      vertex 18.8245 8.29443 0
      vertex 6.54046 8.29443 0
    endloop
  endfacet
  facet normal 0 0 -1
    outer loop
      vertex 6.09443 8.52169 0
      vertex 19.2706 8.52169 0
      vertex 18.8245 8.29443 0
    endloop
  endfacet
  facet normal -0.453985 -0.891009 0
    outer loop
      vertex 6.09443 8.52169 0
      vertex 6.54046 8.29443 0
      vertex 6.09443 8.52169 1.96084
    endloop
  endfacet
  facet normal -0.453985 -0.891009 0
    outer loop
      vertex 6.09443 8.52169 1.96084
      vertex 6.54046 8.29443 0
      vertex 6.54046 8.29443 1.96679
    endloop
  endfacet
  facet normal 8.64391e-07 0.0261742 0.999657
    outer loop
      vertex 6.09443 8.52169 1.96084
      vertex 6.54046 8.29443 1.96679
      vertex 10.2226 10.9991 1.89597
    endloop
  endfacet
  facet normal -0.707107 0.707107 0
    outer loop
      vertex 6.54046 5.70557 0
      vertex 6.54046 5.70557 2.03458
      vertex 6.89443 6.05954 2.02531
    endloop
  endfacet
  facet normal 0 0 -1
    outer loop
      vertex 6.54046 5.70557 0
      vertex 6.89443 6.05954 0
      vertex 18.8245 5.70557 0
    endloop
  endfacet
  facet normal -0.707107 0.707107 0
    outer loop
      vertex 6.54046 5.70557 0
      vertex 6.89443 6.05954 2.02531
      vertex 6.89443 6.05954 0
    endloop
  endfacet
  facet normal 4.75579e-06 0.026188 0.999657
    outer loop
      vertex 6.54046 5.70557 2.03458
      vertex 10.2226 3.85049 2.08316
      vertex 10.2226 4.41315 2.06842
    endloop
  endfacet
  facet normal 1.35604e-06 0.0261783 0.999657
    outer loop
      vertex 6.54046 5.70557 2.03458
      vertex 10.2226 4.41315 2.06842
      vertex 6.89443 6.05954 2.02531
    endloop
  endfacet
  facet normal 0 0 -1
    outer loop
      vertex 6.54046 8.29443 0
      vertex 18.8245 8.29443 0
      vertex 6.89443 7.94046 0
    endloop
  endfacet
  facet normal -0.707107 -0.707107 0
    outer loop
      vertex 6.54046 8.29443 0
      vertex 6.89443 7.94046 0
      vertex 6.54046 8.29443 1.96679
    endloop
  endfacet
  facet normal -0.707107 -0.707107 0
    outer loop
      vertex 6.54046 8.29443 1.96679
      vertex 6.89443 7.94046 0
      vertex 6.89443 7.94046 1.97606
    endloop
  endfacet
  facet normal -1.82864e-06 0.0261779 0.999657
    outer loop
      vertex 6.54046 8.29443 1.96679
      vertex 6.89443 7.94046 1.97606
      vertex 10.2226 10.9991 1.89597
    endloop
  endfacet
  facet normal 0 0 -1
    outer loop
      vertex 6.89443 6.05954 0
      vertex 18.4706 6.05954 0
      vertex 18.8245 5.70557 0
    endloop
  endfacet
  facet normal -0.891009 0.453985 0
    outer loop
      vertex 6.89443 6.05954 0
      vertex 6.89443 6.05954 2.02531
      vertex 7.12169 6.50557 2.01363
    endloop
  endfacet
  facet normal 0 0 -1
    outer loop
      vertex 6.89443 6.05954 0
      vertex 7.12169 6.50557 0
      vertex 18.4706 6.05954 0
    endloop
  endfacet
  facet normal -0.891009 0.453985 0
    outer loop
      vertex 6.89443 6.05954 0
      vertex 7.12169 6.50557 2.01363
      vertex 7.12169 6.50557 0
    endloop
  endfacet
  facet normal 7.97038e-07 0.0261772 0.999657
    outer loop
      vertex 6.89443 6.05954 2.02531
      vertex 10.2226 4.41315 2.06842
      vertex 7.12169 6.50557 2.01363
    endloop
  endfacet
  facet normal 0 0 -1
    outer loop
      vertex 6.89443 7.94046 0
      vertex 18.4706 7.94046 0
      vertex 7.12169 7.49443 0
    endloop
  endfacet
  facet normal 0 0 -1
    outer loop
      vertex 6.89443 7.94046 0
      vertex 18.8245 8.29443 0
      vertex 18.4706 7.94046 0
    endloop
  endfacet
  facet normal -0.891009 -0.453985 0
    outer loop
      vertex 6.89443 7.94046 0
      vertex 7.12169 7.49443 0
      vertex 6.89443 7.94046 1.97606
    endloop
  endfacet
  facet normal 2.68704e-07 0.0261756 0.999657
    outer loop
      vertex 6.89443 7.94046 1.97606
      vertex 10.2226 8.28414 1.96706
      vertex 10.2226 10.9991 1.89597
    endloop
  endfacet
  facet normal -0.891009 -0.453985 0
    outer loop
      vertex 6.89443 7.94046 1.97606
      vertex 7.12169 7.49443 0
      vertex 7.12169 7.49443 1.98774
    endloop
  endfacet
  facet normal 5.60423e-08 0.0261776 0.999657
    outer loop
      vertex 6.89443 7.94046 1.97606
      vertex 7.12169 7.49443 1.98774
      vertex 10.2226 8.28414 1.96706
    endloop
  endfacet
  facet normal 0 0 -1
    outer loop
      vertex 7.12169 6.50557 0
      vertex 18.2433 6.50557 0
      vertex 18.4706 6.05954 0
    endloop
  endfacet
  facet normal -0.987688 0.156434 0
    outer loop
      vertex 7.12169 6.50557 0
      vertex 7.12169 6.50557 2.01363
      vertex 7.2 7 2.00069
    endloop
  endfacet
  facet normal 0 0 -1
    outer loop
      vertex 7.12169 6.50557 0
      vertex 7.2 7 0
      vertex 18.2433 6.50557 0
    endloop
  endfacet
  facet normal -0.987688 0.156434 0
    outer loop
      vertex 7.12169 6.50557 0
      vertex 7.2 7 2.00069
      vertex 7.2 7 0
    endloop
  endfacet
  facet normal -3.20702e-07 0.0261755 0.999657
    outer loop
      vertex 7.12169 6.50557 2.01363
      vertex 10.2226 4.41315 2.06842
      vertex 10.2226 8.28414 1.96706
    endloop
  endfacet
  facet normal 7.82376e-06 0.0261614 0.999658
    outer loop
      vertex 7.12169 6.50557 2.01363
      vertex 10.2226 8.28414 1.96706
      vertex 7.2 7 2.00069
    endloop
  endfacet
  facet normal 0 0 -1
    outer loop
      vertex 7.12169 7.49443 0
      vertex 18.2433 7.49443 0
      vertex 7.2 7 0
    endloop
  endfacet
  facet normal 0 0 -1
    outer loop
      vertex 7.12169 7.49443 0
      vertex 18.4706 7.94046 0
      vertex 18.2433 7.49443 0
    endloop
  endfacet
  facet normal -0.987688 -0.156434 0
    outer loop
      vertex 7.12169 7.49443 0
      vertex 7.2 7 0
      vertex 7.12169 7.49443 1.98774
    endloop
  endfacet
  facet normal -0.987688 -0.156434 0
    outer loop
      vertex 7.12169 7.49443 1.98774
      vertex 7.2 7 0
      vertex 7.2 7 2.00069
    endloop
  endfacet
  facet normal -1.21091e-06 0.0261826 0.999657
    outer loop
      vertex 7.12169 7.49443 1.98774
      vertex 7.2 7 2.00069
      vertex 10.2226 8.28414 1.96706
    endloop
  endfacet
  facet normal 0 0 -1
    outer loop
      vertex 7.2 7 0
      vertex 18.165 7 0
      vertex 18.2433 6.50557 0
    endloop
  endfacet
  facet normal 0 0 -1
    outer loop
      vertex 7.2 7 0
      vertex 18.2433 7.49443 0
      vertex 18.165 7 0
    endloop
  endfacet
endsolid model
