solid model
  facet normal 0.0627828 0.998027 0
    outer loop
      vertex -0.299809 3.62834 -2.6
      vertex -0.299809 3.62834 6.55
      vertex 0.100465 3.60316 -2.6
    endloop
  endfacet
  facet normal 0.0627828 0.998027 -0
    outer loop
      vertex -0.299809 3.62834 6.55
      vertex 0.100465 3.60316 6.55
      vertex 0.100465 3.60316 -2.6
    endloop
  endfacet
  facet normal 0.0627828 -0.998027 0
    outer loop
      vertex -0.299809 6.77166 -2.6
      vertex 0.100465 6.79684 -2.6
      vertex 0.100465 6.79684 6.55
    endloop
  endfacet
  facet normal 0.0627828 -0.998027 0
    outer loop
      vertex -0.299809 6.77166 -2.6
      vertex 0.100465 6.79684 6.55
      vertex -0.299809 6.77166 6.55
    endloop
  endfacet
  facet normal 0 0 -1
    outer loop
      vertex -0.299809 6.77166 -2.6
      vertex 0.257441 9.29191 -2.6
      vertex 0.100465 6.79684 -2.6
    endloop
  endfacet
  facet normal 0.309024 0.951054 0
    outer loop
      vertex -0.681247 3.75228 -2.6
      vertex -0.681247 3.75228 6.55
      vertex -0.299809 3.62834 -2.6
    endloop
  endfacet
  facet normal 0.309024 0.951054 -0
    outer loop
      vertex -0.681247 3.75228 6.55
      vertex -0.299809 3.62834 6.55
      vertex -0.299809 3.62834 -2.6
    endloop
  endfacet
  facet normal 0.309024 -0.951054 0
    outer loop
      vertex -0.681247 6.64772 -2.6
      vertex -0.299809 6.77166 -2.6
      vertex -0.299809 6.77166 6.55
    endloop
  endfacet
  facet normal 0.309024 -0.951054 0
    outer loop
      vertex -0.681247 6.64772 -2.6
      vertex -0.299809 6.77166 6.55
      vertex -0.681247 6.64772 6.55
    endloop
  endfacet
  facet normal 0 0 -1
    outer loop
      vertex -0.768263 9.22738 -2.6
      vertex -0.299809 6.77166 -2.6
      vertex -0.681247 6.64772 -2.6
    endloop
  endfacet
  facet normal -0.0627887 0.998027 0
    outer loop
      vertex -0.768263 9.22738 -2.6
      vertex -0.768263 9.22738 10.6
      vertex 0.257441 9.29191 -2.6
    endloop
  endfacet
  facet normal 0 0 -1
    outer loop
      vertex -0.768263 9.22738 -2.6
      vertex 0.257441 9.29191 -2.6
      vertex -0.299809 6.77166 -2.6
    endloop
  endfacet
  facet normal -0.0627887 0.998027 0
    outer loop
      vertex -0.768263 9.22738 10.6
      vertex 0.257441 9.29191 10.6
      vertex 0.257441 9.29191 -2.6
    endloop
  endfacet
  facet normal 0.535821 0.844331 0
    outer loop
      vertex -1.01988 3.96718 -2.6
      vertex -1.01988 3.96718 6.55
      vertex -0.681247 3.75228 -2.6
    endloop
  endfacet
  facet normal 0.535821 0.844331 -0
    outer loop
      vertex -1.01988 3.96718 6.55
      vertex -0.681247 3.75228 6.55
      vertex -0.681247 3.75228 -2.6
    endloop
  endfacet
  facet normal 0.535821 -0.844331 0
    outer loop
      vertex -1.01988 6.43282 -2.6
      vertex -0.681247 6.64772 -2.6
      vertex -0.681247 6.64772 6.55
    endloop
  endfacet
  facet normal 0.535821 -0.844331 0
    outer loop
      vertex -1.01988 6.43282 -2.6
      vertex -0.681247 6.64772 6.55
      vertex -1.01988 6.43282 6.55
    endloop
  endfacet
  facet normal 0.728962 0.684555 0
    outer loop
      vertex -1.29443 4.25954 -2.6
      vertex -1.01988 3.96718 6.55
      vertex -1.01988 3.96718 -2.6
    endloop
  endfacet
  facet normal 0.728962 0.684555 0
    outer loop
      vertex -1.29443 4.25954 -2.6
      vertex -1.29443 4.25954 6.55
      vertex -1.01988 3.96718 6.55
    endloop
  endfacet
  facet normal 0.728962 -0.684555 0
    outer loop
      vertex -1.29443 6.14046 -2.6
      vertex -1.01988 6.43282 -2.6
      vertex -1.29443 6.14046 6.55
    endloop
  endfacet
  facet normal 0.728962 -0.684555 0
    outer loop
      vertex -1.29443 6.14046 6.55
      vertex -1.01988 6.43282 -2.6
      vertex -1.01988 6.43282 6.55
    endloop
  endfacet
  facet normal 0.876314 0.481741 0
    outer loop
      vertex -1.48764 4.611 -2.6
      vertex -1.29443 4.25954 6.55
      vertex -1.29443 4.25954 -2.6
    endloop
  endfacet
  facet normal 0.876314 0.481741 0
    outer loop
      vertex -1.48764 4.611 -2.6
      vertex -1.48764 4.611 6.55
      vertex -1.29443 4.25954 6.55
    endloop
  endfacet
  facet normal 0.876314 -0.481741 0
    outer loop
      vertex -1.48764 5.789 -2.6
      vertex -1.29443 6.14046 -2.6
      vertex -1.48764 5.789 6.55
    endloop
  endfacet
  facet normal 0.876314 -0.481741 0
    outer loop
      vertex -1.48764 5.789 6.55
      vertex -1.29443 6.14046 -2.6
      vertex -1.29443 6.14046 6.55
    endloop
  endfacet
  facet normal 0.968584 0.248685 0
    outer loop
      vertex -1.58738 4.99947 -2.6
      vertex -1.48764 4.611 6.55
      vertex -1.48764 4.611 -2.6
    endloop
  endfacet
  facet normal 0.968584 0.248685 0
    outer loop
      vertex -1.58738 4.99947 -2.6
      vertex -1.58738 4.99947 6.55
      vertex -1.48764 4.611 6.55
    endloop
  endfacet
  facet normal 1 0 0
    outer loop
      vertex -1.58738 4.99947 -2.6
      vertex -1.58738 5.40053 -2.6
      vertex -1.58738 4.99947 6.55
    endloop
  endfacet
  facet normal 1 -0 0
    outer loop
      vertex -1.58738 4.99947 6.55
      vertex -1.58738 5.40053 -2.6
      vertex -1.58738 5.40053 6.55
    endloop
  endfacet
  facet normal 0.968584 -0.248685 0
    outer loop
      vertex -1.58738 5.40053 -2.6
      vertex -1.48764 5.789 -2.6
      vertex -1.58738 5.40053 6.55
    endloop
  endfacet
  facet normal 0.968584 -0.248685 0
    outer loop
      vertex -1.58738 5.40053 6.55
      vertex -1.48764 5.789 -2.6
      vertex -1.48764 5.789 6.55
    endloop
  endfacet
  facet normal 0 0 1
    outer loop
      vertex -1.65 2.34212 10.6
      vertex -0.768263 1.17262 10.6
      vertex 0.257441 1.10809 10.6
    endloop
  endfacet
  facet normal -0 0 1
    outer loop
      vertex -1.65 2.34212 10.6
      vertex 0.257441 1.10809 10.6
      vertex 1.65 2.34212 10.6
    endloop
  endfacet
  facet normal 0 1 -0
    outer loop
      vertex -1.65 2.34212 10.6
      vertex 1.65 2.34212 10.6
      vertex 1.65 2.34212 6.55
    endloop
  endfacet
  facet normal 0 0 1
    outer loop
      vertex -1.65 2.34212 6.55
      vertex -0.299809 3.62834 6.55
      vertex -0.681247 3.75228 6.55
    endloop
  endfacet
  facet normal 0 0 1
    outer loop
      vertex -1.65 2.34212 6.55
      vertex -0.681247 3.75228 6.55
      vertex -1.01988 3.96718 6.55
    endloop
  endfacet
  facet normal 0 0 1
    outer loop
      vertex -1.65 2.34212 6.55
      vertex -1.01988 3.96718 6.55
      vertex -1.29443 4.25954 6.55
    endloop
  endfacet
  facet normal 0 1 0
    outer loop
      vertex -1.65 2.34212 6.55
      vertex -1.65 2.34212 10.6
      vertex 1.65 2.34212 6.55
    endloop
  endfacet
  facet normal 0 0 1
    outer loop
      vertex -1.65 2.34212 6.55
      vertex 0.100465 3.60316 6.55
      vertex -0.299809 3.62834 6.55
    endloop
  endfacet
  facet normal 0 0 1
    outer loop
      vertex -1.65 2.34212 6.55
      vertex 1.65 2.34212 6.55
      vertex 0.100465 3.60316 6.55
    endloop
  endfacet
  facet normal 0 0 1
    outer loop
      vertex -1.65 8.05788 10.6
      vertex 0.257441 9.29191 10.6
      vertex -0.768263 9.22738 10.6
    endloop
  endfacet
  facet normal 0 0 1
    outer loop
      vertex -1.65 8.05788 10.6
      vertex 1.65 8.05788 10.6
      vertex 0.257441 9.29191 10.6
    endloop
  endfacet
  facet normal 0 0 1
    outer loop
      vertex -1.65 8.05788 6.55
      vertex -0.299809 6.77166 6.55
      vertex 0.100465 6.79684 6.55
    endloop
  endfacet
  facet normal 0 0 1
    outer loop
      vertex -1.65 8.05788 6.55
      vertex -0.681247 6.64772 6.55
      vertex -0.299809 6.77166 6.55
    endloop
  endfacet
  facet normal 0 0 1
    outer loop
      vertex -1.65 8.05788 6.55
      vertex -1.01988 6.43282 6.55
      vertex -0.681247 6.64772 6.55
    endloop
  endfacet
  facet normal 0 0 1
    outer loop
      vertex -1.65 8.05788 6.55
      vertex -1.29443 6.14046 6.55
      vertex -1.01988 6.43282 6.55
    endloop
  endfacet
  facet normal -0 0 1
    outer loop
      vertex -1.65 8.05788 6.55
      vertex 0.100465 6.79684 6.55
      vertex 1.65 8.05788 6.55
    endloop
  endfacet
  facet normal 0 -1 0
    outer loop
      vertex -1.65 8.05788 6.55
      vertex 1.65 8.05788 10.6
      vertex -1.65 8.05788 10.6
    endloop
  endfacet
  facet normal 0 -1 -0
    outer loop
      vertex -1.65 8.05788 6.55
      vertex 1.65 8.05788 6.55
      vertex 1.65 8.05788 10.6
    endloop
  endfacet
  facet normal 0 0 1
    outer loop
      vertex -1.74569 1.49021 10.6
      vertex -0.768263 1.17262 10.6
      vertex -1.65 2.34212 10.6
    endloop
  endfacet
  facet normal 0 0 -1
    outer loop
      vertex -1.74569 8.90979 -2.6
      vertex -0.681247 6.64772 -2.6
      vertex -1.01988 6.43282 -2.6
    endloop
  endfacet
  facet normal 0 0 -1
    outer loop
      vertex -1.74569 8.90979 -2.6
      vertex -0.768263 9.22738 -2.6
      vertex -0.681247 6.64772 -2.6
    endloop
  endfacet
  facet normal 0 0 -1
    outer loop
      vertex -1.74569 8.90979 -2.6
      vertex -1.01988 6.43282 -2.6
      vertex -1.29443 6.14046 -2.6
    endloop
  endfacet
  facet normal 0 0 -1
    outer loop
      vertex -1.74569 8.90979 -2.6
      vertex -1.29443 6.14046 -2.6
      vertex -1.48764 5.789 -2.6
    endloop
  endfacet
  facet normal 0 0 -1
    outer loop
      vertex -1.74569 8.90979 -2.6
      vertex -1.48764 5.789 -2.6
      vertex -1.58738 5.40053 -2.6
    endloop
  endfacet
  facet normal -0.309021 0.951055 0
    outer loop
      vertex -1.74569 8.90979 -2.6
      vertex -1.74569 8.90979 10.6
      vertex -0.768263 9.22738 -2.6
    endloop
  endfacet
  facet normal -0.309021 0.951055 0
    outer loop
      vertex -1.74569 8.90979 10.6
      vertex -0.768263 9.22738 10.6
      vertex -0.768263 9.22738 -2.6
    endloop
  endfacet
  facet normal -0 0 1
    outer loop
      vertex -1.74569 8.90979 10.6
      vertex -1.65 8.05788 10.6
      vertex -0.768263 9.22738 10.6
    endloop
  endfacet
  facet normal -0 0 -1
    outer loop
      vertex -13.875 -0.200533 1.58738
      vertex -13.875 0.200533 1.58738
      vertex 13.875 0.200533 1.58738
    endloop
  endfacet
  facet normal -1 0 0
    outer loop
      vertex -13.875 -0.200533 1.58738
      vertex -13.875 2.6 2.6
      vertex -13.875 0.200533 1.58738
    endloop
  endfacet
  facet normal 0 0 -1
    outer loop
      vertex -13.875 -0.200533 1.58738
      vertex 13.875 0.200533 1.58738
      vertex 13.875 -0.200533 1.58738
    endloop
  endfacet
  facet normal 0 0.125341 0.992114
    outer loop
      vertex -13.875 -0.397903 -1.54973
      vertex 13.875 -0.397903 -1.54973
      vertex -13.875 0 -1.6
    endloop
  endfacet
  facet normal -0 0.368119 0.929778
    outer loop
      vertex -13.875 -0.397903 -1.54973
      vertex 13.875 -0.770805 -1.40209
      vertex 13.875 -0.397903 -1.54973
    endloop
  endfacet
  facet normal 0 0.248687 -0.968584
    outer loop
      vertex -13.875 -0.588999 1.48764
      vertex -13.875 -0.200533 1.58738
      vertex 13.875 -0.200533 1.58738
    endloop
  endfacet
  facet normal 0 0.248687 -0.968584
    outer loop
      vertex -13.875 -0.588999 1.48764
      vertex 13.875 -0.200533 1.58738
      vertex 13.875 -0.588999 1.48764
    endloop
  endfacet
  facet normal 0 0.368119 0.929778
    outer loop
      vertex -13.875 -0.770805 -1.40209
      vertex 13.875 -0.770805 -1.40209
      vertex -13.875 -0.397903 -1.54973
    endloop
  endfacet
  facet normal -0 0.587789 0.809014
    outer loop
      vertex -13.875 -0.770805 -1.40209
      vertex 13.875 -1.09527 -1.16635
      vertex 13.875 -0.770805 -1.40209
    endloop
  endfacet
  facet normal 0 0.481744 -0.876312
    outer loop
      vertex -13.875 -0.940456 1.29443
      vertex -13.875 -0.588999 1.48764
      vertex 13.875 -0.588999 1.48764
    endloop
  endfacet
  facet normal 0 0.481744 -0.876312
    outer loop
      vertex -13.875 -0.940456 1.29443
      vertex 13.875 -0.588999 1.48764
      vertex 13.875 -0.940456 1.29443
    endloop
  endfacet
  facet normal 0 0.587789 0.809014
    outer loop
      vertex -13.875 -1.09527 -1.16635
      vertex 13.875 -1.09527 -1.16635
      vertex -13.875 -0.770805 -1.40209
    endloop
  endfacet
  facet normal 0 0.68455 -0.728966
    outer loop
      vertex -13.875 -1.23282 1.01988
      vertex -13.875 -0.940456 1.29443
      vertex 13.875 -0.940456 1.29443
    endloop
  endfacet
  facet normal 0 0.68455 -0.728966
    outer loop
      vertex -13.875 -1.23282 1.01988
      vertex 13.875 -0.940456 1.29443
      vertex 13.875 -1.23282 1.01988
    endloop
  endfacet
  facet normal 0 0.844332 -0.53582
    outer loop
      vertex -13.875 -1.23282 1.01988
      vertex 13.875 -1.23282 1.01988
      vertex 13.875 -1.44772 0.681246
    endloop
  endfacet
  facet normal 0 0.770512 0.637425
    outer loop
      vertex -13.875 -1.35092 -0.857323
      vertex 13.875 -1.09527 -1.16635
      vertex -13.875 -1.09527 -1.16635
    endloop
  endfacet
  facet normal 0 0.770512 0.637425
    outer loop
      vertex -13.875 -1.35092 -0.857323
      vertex 13.875 -1.35092 -0.857323
      vertex 13.875 -1.09527 -1.16635
    endloop
  endfacet
  facet normal 0 0.844332 -0.53582
    outer loop
      vertex -13.875 -1.44772 0.681246
      vertex -13.875 -1.23282 1.01988
      vertex 13.875 -1.44772 0.681246
    endloop
  endfacet
  facet normal 0 0.951054 -0.309026
    outer loop
      vertex -13.875 -1.44772 0.681246
      vertex 13.875 -1.44772 0.681246
      vertex 13.875 -1.57166 0.29981
    endloop
  endfacet
  facet normal 0 0.904823 0.425788
    outer loop
      vertex -13.875 -1.52169 -0.494427
      vertex 13.875 -1.35092 -0.857323
      vertex -13.875 -1.35092 -0.857323
    endloop
  endfacet
  facet normal 0 0.904823 0.425788
    outer loop
      vertex -13.875 -1.52169 -0.494427
      vertex 13.875 -1.52169 -0.494427
      vertex 13.875 -1.35092 -0.857323
    endloop
  endfacet
  facet normal 0 0.951054 -0.309026
    outer loop
      vertex -13.875 -1.57166 0.29981
      vertex -13.875 -1.44772 0.681246
      vertex 13.875 -1.57166 0.29981
    endloop
  endfacet
  facet normal 0 0.998027 -0.0627827
    outer loop
      vertex -13.875 -1.57166 0.29981
      vertex 13.875 -1.57166 0.29981
      vertex 13.875 -1.59684 -0.100465
    endloop
  endfacet
  facet normal 0 0.998027 -0.0627827
    outer loop
      vertex -13.875 -1.59684 -0.100465
      vertex -13.875 -1.57166 0.29981
      vertex 13.875 -1.59684 -0.100465
    endloop
  endfacet
  facet normal 0 0.982288 0.187376
    outer loop
      vertex -13.875 -1.59684 -0.100465
      vertex 13.875 -1.52169 -0.494427
      vertex -13.875 -1.52169 -0.494427
    endloop
  endfacet
  facet normal 0 0.982288 0.187376
    outer loop
      vertex -13.875 -1.59684 -0.100465
      vertex 13.875 -1.59684 -0.100465
      vertex 13.875 -1.52169 -0.494427
    endloop
  endfacet
  facet normal -0 0 -1
    outer loop
      vertex -13.875 -2.6 -2.6
      vertex -0.299809 3.62834 -2.6
      vertex 0.100465 3.60316 -2.6
    endloop
  endfacet
  facet normal -0 0 -1
    outer loop
      vertex -13.875 -2.6 -2.6
      vertex -0.681247 3.75228 -2.6
      vertex -0.299809 3.62834 -2.6
    endloop
  endfacet
  facet normal 0 0 -1
    outer loop
      vertex -13.875 -2.6 -2.6
      vertex -1.01988 3.96718 -2.6
      vertex -0.681247 3.75228 -2.6
    endloop
  endfacet
  facet normal 0 0 -1
    outer loop
      vertex -13.875 -2.6 -2.6
      vertex -1.29443 4.25954 -2.6
      vertex -1.01988 3.96718 -2.6
    endloop
  endfacet
  facet normal -1 -0 0
    outer loop
      vertex -13.875 -2.6 -2.6
      vertex -13.875 -0.397903 -1.54973
      vertex -13.875 0 -1.6
    endloop
  endfacet
  facet normal -1 -0 0
    outer loop
      vertex -13.875 -2.6 -2.6
      vertex -13.875 -0.770805 -1.40209
      vertex -13.875 -0.397903 -1.54973
    endloop
  endfacet
  facet normal -1 -0 0
    outer loop
      vertex -13.875 -2.6 -2.6
      vertex -13.875 -1.09527 -1.16635
      vertex -13.875 -0.770805 -1.40209
    endloop
  endfacet
  facet normal -1 -0 0
    outer loop
      vertex -13.875 -2.6 -2.6
      vertex -13.875 -1.35092 -0.857323
      vertex -13.875 -1.09527 -1.16635
    endloop
  endfacet
  facet normal -1 -0 0
    outer loop
      vertex -13.875 -2.6 -2.6
      vertex -13.875 -1.52169 -0.494427
      vertex -13.875 -1.35092 -0.857323
    endloop
  endfacet
  facet normal -1 -0 0
    outer loop
      vertex -13.875 -2.6 -2.6
      vertex -13.875 -1.59684 -0.100465
      vertex -13.875 -1.52169 -0.494427
    endloop
  endfacet
  facet normal -1 0 0
    outer loop
      vertex -13.875 -2.6 -2.6
      vertex -13.875 -2.6 2.6
      vertex -13.875 -1.59684 -0.100465
    endloop
  endfacet
  facet normal -1 0 0
    outer loop
      vertex -13.875 -2.6 -2.6
      vertex -13.875 0 -1.6
      vertex -13.875 2.6 -2.6
    endloop
  endfacet
  facet normal 0 0 -1
    outer loop
      vertex -13.875 -2.6 -2.6
      vertex -13.875 2.6 -2.6
      vertex -1.29443 4.25954 -2.6
    endloop
  endfacet
  facet normal 0 0 -1
    outer loop
      vertex -13.875 -2.6 -2.6
      vertex 0.100465 3.60316 -2.6
      vertex 13.875 -2.6 -2.6
    endloop
  endfacet
  facet normal 0 -1 -0
    outer loop
      vertex -13.875 -2.6 -2.6
      vertex 13.875 -2.6 -2.6
      vertex 13.875 -2.6 2.6
    endloop
  endfacet
  facet normal 0 -1 0
    outer loop
      vertex -13.875 -2.6 -2.6
      vertex 13.875 -2.6 2.6
      vertex -13.875 -2.6 2.6
    endloop
  endfacet
  facet normal -0.223506 -0.687871 0.690564
    outer loop
      vertex -13.875 -2.6 2.6
      vertex -0.768263 1.17262 10.6
      vertex -1.74569 1.49021 10.6
    endloop
  endfacet
  facet normal -0.335696 -0.528973 0.779421
    outer loop
      vertex -13.875 -2.6 2.6
      vertex -1.74569 1.49021 10.6
      vertex -2.61344 2.0409 10.6
    endloop
  endfacet
  facet normal -1 0 0
    outer loop
      vertex -13.875 -2.6 2.6
      vertex -13.875 -0.200533 1.58738
      vertex -13.875 -0.588999 1.48764
    endloop
  endfacet
  facet normal -1 0 0
    outer loop
      vertex -13.875 -2.6 2.6
      vertex -13.875 -0.588999 1.48764
      vertex -13.875 -0.940456 1.29443
    endloop
  endfacet
  facet normal -1 0 0
    outer loop
      vertex -13.875 -2.6 2.6
      vertex -13.875 -0.940456 1.29443
      vertex -13.875 -1.23282 1.01988
    endloop
  endfacet
  facet normal -1 0 0
    outer loop
      vertex -13.875 -2.6 2.6
      vertex -13.875 -1.23282 1.01988
      vertex -13.875 -1.44772 0.681246
    endloop
  endfacet
  facet normal -1 0 0
    outer loop
      vertex -13.875 -2.6 2.6
      vertex -13.875 -1.44772 0.681246
      vertex -13.875 -1.57166 0.29981
    endloop
  endfacet
  facet normal -1 0 0
    outer loop
      vertex -13.875 -2.6 2.6
      vertex -13.875 -1.57166 0.29981
      vertex -13.875 -1.59684 -0.100465
    endloop
  endfacet
  facet normal -1 0 0
    outer loop
      vertex -13.875 -2.6 2.6
      vertex -13.875 2.6 2.6
      vertex -13.875 -0.200533 1.58738
    endloop
  endfacet
  facet normal -0.419077 -0.393541 0.81823
    outer loop
      vertex -13.875 -2.6 2.6
      vertex -2.61344 2.0409 10.6
      vertex -3.31697 2.79008 10.6
    endloop
  endfacet
  facet normal -0.490359 -0.269574 0.828781
    outer loop
      vertex -13.875 -2.6 2.6
      vertex -3.31697 2.79008 10.6
      vertex -3.81208 3.69069 10.6
    endloop
  endfacet
  facet normal -0.559293 -0.143605 0.816437
    outer loop
      vertex -13.875 -2.6 2.6
      vertex -3.81208 3.69069 10.6
      vertex -4.06767 4.68613 10.6
    endloop
  endfacet
  facet normal -0.632093 0 0.774893
    outer loop
      vertex -13.875 -2.6 2.6
      vertex -4.06767 4.68613 10.6
      vertex -13.875 2.6 2.6
    endloop
  endfacet
  facet normal -0.0544668 -0.86575 0.497504
    outer loop
      vertex -13.875 -2.6 2.6
      vertex 0.257441 1.10809 10.6
      vertex -0.768263 1.17262 10.6
    endloop
  endfacet
  facet normal 0 -0.907277 0.420533
    outer loop
      vertex -13.875 -2.6 2.6
      vertex 13.875 -2.6 2.6
      vertex 0.257441 1.10809 10.6
    endloop
  endfacet
  facet normal -1 0 0
    outer loop
      vertex -13.875 0 -1.6
      vertex -13.875 0.397903 -1.54973
      vertex -13.875 2.6 -2.6
    endloop
  endfacet
  facet normal -0 0.125341 0.992114
    outer loop
      vertex -13.875 0 -1.6
      vertex 13.875 -0.397903 -1.54973
      vertex 13.875 0 -1.6
    endloop
  endfacet
  facet normal 0 -0.125341 0.992114
    outer loop
      vertex -13.875 0 -1.6
      vertex 13.875 0 -1.6
      vertex -13.875 0.397903 -1.54973
    endloop
  endfacet
  facet normal -0 -0.248687 -0.968584
    outer loop
      vertex -13.875 0.200533 1.58738
      vertex -13.875 0.588999 1.48764
      vertex 13.875 0.588999 1.48764
    endloop
  endfacet
  facet normal -1 0 0
    outer loop
      vertex -13.875 0.200533 1.58738
      vertex -13.875 2.6 2.6
      vertex -13.875 0.588999 1.48764
    endloop
  endfacet
  facet normal 0 -0.248687 -0.968584
    outer loop
      vertex -13.875 0.200533 1.58738
      vertex 13.875 0.588999 1.48764
      vertex 13.875 0.200533 1.58738
    endloop
  endfacet
  facet normal -1 0 0
    outer loop
      vertex -13.875 0.397903 -1.54973
      vertex -13.875 0.770805 -1.40209
      vertex -13.875 2.6 -2.6
    endloop
  endfacet
  facet normal 0 -0.125341 0.992114
    outer loop
      vertex -13.875 0.397903 -1.54973
      vertex 13.875 0 -1.6
      vertex 13.875 0.397903 -1.54973
    endloop
  endfacet
  facet normal 0 -0.368119 0.929778
    outer loop
      vertex -13.875 0.397903 -1.54973
      vertex 13.875 0.397903 -1.54973
      vertex -13.875 0.770805 -1.40209
    endloop
  endfacet
  facet normal -0 -0.481744 -0.876312
    outer loop
      vertex -13.875 0.588999 1.48764
      vertex -13.875 0.940456 1.29443
      vertex 13.875 0.940456 1.29443
    endloop
  endfacet
  facet normal -1 0 0
    outer loop
      vertex -13.875 0.588999 1.48764
      vertex -13.875 2.6 2.6
      vertex -13.875 0.940456 1.29443
    endloop
  endfacet
  facet normal 0 -0.481744 -0.876312
    outer loop
      vertex -13.875 0.588999 1.48764
      vertex 13.875 0.940456 1.29443
      vertex 13.875 0.588999 1.48764
    endloop
  endfacet
  facet normal -1 0 0
    outer loop
      vertex -13.875 0.770805 -1.40209
      vertex -13.875 1.09527 -1.16635
      vertex -13.875 2.6 -2.6
    endloop
  endfacet
  facet normal 0 -0.368119 0.929778
    outer loop
      vertex -13.875 0.770805 -1.40209
      vertex 13.875 0.397903 -1.54973
      vertex 13.875 0.770805 -1.40209
    endloop
  endfacet
  facet normal 0 -0.587789 0.809014
    outer loop
      vertex -13.875 0.770805 -1.40209
      vertex 13.875 0.770805 -1.40209
      vertex -13.875 1.09527 -1.16635
    endloop
  endfacet
  facet normal -0 -0.68455 -0.728966
    outer loop
      vertex -13.875 0.940456 1.29443
      vertex -13.875 1.23282 1.01988
      vertex 13.875 1.23282 1.01988
    endloop
  endfacet
  facet normal -1 0 0
    outer loop
      vertex -13.875 0.940456 1.29443
      vertex -13.875 2.6 2.6
      vertex -13.875 1.23282 1.01988
    endloop
  endfacet
  facet normal 0 -0.68455 -0.728966
    outer loop
      vertex -13.875 0.940456 1.29443
      vertex 13.875 1.23282 1.01988
      vertex 13.875 0.940456 1.29443
    endloop
  endfacet
  facet normal -1 0 0
    outer loop
      vertex -13.875 1.09527 -1.16635
      vertex -13.875 1.35092 -0.857323
      vertex -13.875 2.6 -2.6
    endloop
  endfacet
  facet normal 0 -0.587789 0.809014
    outer loop
      vertex -13.875 1.09527 -1.16635
      vertex 13.875 0.770805 -1.40209
      vertex 13.875 1.09527 -1.16635
    endloop
  endfacet
  facet normal 0 -0.770512 0.637425
    outer loop
      vertex -13.875 1.09527 -1.16635
      vertex 13.875 1.09527 -1.16635
      vertex 13.875 1.35092 -0.857323
    endloop
  endfacet
  facet normal 0 -0.770512 0.637425
    outer loop
      vertex -13.875 1.09527 -1.16635
      vertex 13.875 1.35092 -0.857323
      vertex -13.875 1.35092 -0.857323
    endloop
  endfacet
  facet normal 0 -0.844332 -0.53582
    outer loop
      vertex -13.875 1.23282 1.01988
      vertex -13.875 1.44772 0.681246
      vertex 13.875 1.23282 1.01988
    endloop
  endfacet
  facet normal -1 0 0
    outer loop
      vertex -13.875 1.23282 1.01988
      vertex -13.875 2.6 2.6
      vertex -13.875 1.44772 0.681246
    endloop
  endfacet
  facet normal -1 0 0
    outer loop
      vertex -13.875 1.35092 -0.857323
      vertex -13.875 1.52169 -0.494427
      vertex -13.875 2.6 -2.6
    endloop
  endfacet
  facet normal 0 -0.904823 0.425788
    outer loop
      vertex -13.875 1.35092 -0.857323
      vertex 13.875 1.35092 -0.857323
      vertex 13.875 1.52169 -0.494427
    endloop
  endfacet
  facet normal 0 -0.904823 0.425788
    outer loop
      vertex -13.875 1.35092 -0.857323
      vertex 13.875 1.52169 -0.494427
      vertex -13.875 1.52169 -0.494427
    endloop
  endfacet
  facet normal 0 -0.951054 -0.309026
    outer loop
      vertex -13.875 1.44772 0.681246
      vertex -13.875 1.57166 0.29981
      vertex 13.875 1.44772 0.681246
    endloop
  endfacet
  facet normal -1 0 0
    outer loop
      vertex -13.875 1.44772 0.681246
      vertex -13.875 2.6 2.6
      vertex -13.875 1.57166 0.29981
    endloop
  endfacet
  facet normal 0 -0.844332 -0.53582
    outer loop
      vertex -13.875 1.44772 0.681246
      vertex 13.875 1.44772 0.681246
      vertex 13.875 1.23282 1.01988
    endloop
  endfacet
  facet normal -1 0 0
    outer loop
      vertex -13.875 1.52169 -0.494427
      vertex -13.875 1.59684 -0.100465
      vertex -13.875 2.6 -2.6
    endloop
  endfacet
  facet normal 0 -0.982288 0.187376
    outer loop
      vertex -13.875 1.52169 -0.494427
      vertex 13.875 1.52169 -0.494427
      vertex 13.875 1.59684 -0.100465
    endloop
  endfacet
  facet normal 0 -0.982288 0.187376
    outer loop
      vertex -13.875 1.52169 -0.494427
      vertex 13.875 1.59684 -0.100465
      vertex -13.875 1.59684 -0.100465
    endloop
  endfacet
  facet normal 0 -0.998027 -0.0627827
    outer loop
      vertex -13.875 1.57166 0.29981
      vertex -13.875 1.59684 -0.100465
      vertex 13.875 1.57166 0.29981
    endloop
  endfacet
  facet normal -1 0 0
    outer loop
      vertex -13.875 1.57166 0.29981
      vertex -13.875 2.6 2.6
      vertex -13.875 1.59684 -0.100465
    endloop
  endfacet
  facet normal 0 -0.951054 -0.309026
    outer loop
      vertex -13.875 1.57166 0.29981
      vertex 13.875 1.57166 0.29981
      vertex 13.875 1.44772 0.681246
    endloop
  endfacet
  facet normal -1 0 0
    outer loop
      vertex -13.875 1.59684 -0.100465
      vertex -13.875 2.6 2.6
      vertex -13.875 2.6 -2.6
    endloop
  endfacet
  facet normal 0 -0.998027 -0.0627827
    outer loop
      vertex -13.875 1.59684 -0.100465
      vertex 13.875 1.59684 -0.100465
      vertex 13.875 1.57166 0.29981
    endloop
  endfacet
  facet normal -0 0 -1
    outer loop
      vertex -13.875 2.6 -2.6
      vertex -1.48764 4.611 -2.6
      vertex -1.29443 4.25954 -2.6
    endloop
  endfacet
  facet normal -0 0 -1
    outer loop
      vertex -13.875 2.6 -2.6
      vertex -1.58738 4.99947 -2.6
      vertex -1.48764 4.611 -2.6
    endloop
  endfacet
  facet normal 0 0 -1
    outer loop
      vertex -13.875 2.6 -2.6
      vertex -1.58738 5.40053 -2.6
      vertex -1.58738 4.99947 -2.6
    endloop
  endfacet
  facet normal -0 0 -1
    outer loop
      vertex -13.875 2.6 -2.6
      vertex -1.74569 8.90979 -2.6
      vertex -1.58738 5.40053 -2.6
    endloop
  endfacet
  facet normal -0.461499 0.88714 0
    outer loop
      vertex -13.875 2.6 -2.6
      vertex -13.875 2.6 2.6
      vertex -1.74569 8.90979 -2.6
    endloop
  endfacet
  facet normal -0.461499 0.88714 0
    outer loop
      vertex -13.875 2.6 2.6
      vertex -1.74569 8.90979 10.6
      vertex -1.74569 8.90979 -2.6
    endloop
  endfacet
  facet normal -0.53017 0.835416 0.144912
    outer loop
      vertex -13.875 2.6 2.6
      vertex -2.61344 8.3591 10.6
      vertex -1.74569 8.90979 10.6
    endloop
  endfacet
  facet normal -0.643198 0.604006 0.47061
    outer loop
      vertex -13.875 2.6 2.6
      vertex -3.31697 7.60992 10.6
      vertex -2.61344 8.3591 10.6
    endloop
  endfacet
  facet normal -0.666107 0.366192 0.649773
    outer loop
      vertex -13.875 2.6 2.6
      vertex -3.81208 6.70931 10.6
      vertex -3.31697 7.60992 10.6
    endloop
  endfacet
  facet normal -0.632093 0 0.774893
    outer loop
      vertex -13.875 2.6 2.6
      vertex -4.06767 4.68613 10.6
      vertex -4.06767 5.71387 10.6
    endloop
  endfacet
  facet normal -0.654595 0.168074 0.737059
    outer loop
      vertex -13.875 2.6 2.6
      vertex -4.06767 5.71387 10.6
      vertex -3.81208 6.70931 10.6
    endloop
  endfacet
  facet normal 0 0 1
    outer loop
      vertex -2.61344 2.0409 10.6
      vertex -1.74569 1.49021 10.6
      vertex -1.65 2.34212 10.6
    endloop
  endfacet
  facet normal -0 0 1
    outer loop
      vertex -2.61344 8.3591 10.6
      vertex -1.65 8.05788 10.6
      vertex -1.74569 8.90979 10.6
    endloop
  endfacet
  facet normal 0.866025 -0.500001 0
    outer loop
      vertex -3.3 5.2 10.6
      vertex -1.65 8.05788 6.55
      vertex -1.65 8.05788 10.6
    endloop
  endfacet
  facet normal 0 0 1
    outer loop
      vertex -3.3 5.2 6.55
      vertex -1.29443 4.25954 6.55
      vertex -1.48764 4.611 6.55
    endloop
  endfacet
  facet normal 0 0 1
    outer loop
      vertex -3.3 5.2 6.55
      vertex -1.29443 6.14046 6.55
      vertex -1.65 8.05788 6.55
    endloop
  endfacet
  facet normal 0 0 1
    outer loop
      vertex -3.3 5.2 6.55
      vertex -1.48764 4.611 6.55
      vertex -1.58738 4.99947 6.55
    endloop
  endfacet
  facet normal 0 0 1
    outer loop
      vertex -3.3 5.2 6.55
      vertex -1.48764 5.789 6.55
      vertex -1.29443 6.14046 6.55
    endloop
  endfacet
  facet normal 0 0 1
    outer loop
      vertex -3.3 5.2 6.55
      vertex -1.58738 4.99947 6.55
      vertex -1.58738 5.40053 6.55
    endloop
  endfacet
  facet normal 0 0 1
    outer loop
      vertex -3.3 5.2 6.55
      vertex -1.58738 5.40053 6.55
      vertex -1.48764 5.789 6.55
    endloop
  endfacet
  facet normal 0.866025 0.500001 0
    outer loop
      vertex -3.3 5.2 6.55
      vertex -1.65 2.34212 10.6
      vertex -1.65 2.34212 6.55
    endloop
  endfacet
  facet normal 0 0 1
    outer loop
      vertex -3.3 5.2 6.55
      vertex -1.65 2.34212 6.55
      vertex -1.29443 4.25954 6.55
    endloop
  endfacet
  facet normal 0.866025 -0.500001 0
    outer loop
      vertex -3.3 5.2 6.55
      vertex -1.65 8.05788 6.55
      vertex -3.3 5.2 10.6
    endloop
  endfacet
  facet normal 0.866025 0.500001 0
    outer loop
      vertex -3.3 5.2 6.55
      vertex -3.3 5.2 10.6
      vertex -1.65 2.34212 10.6
    endloop
  endfacet
  facet normal -0 0 1
    outer loop
      vertex -3.31697 2.79008 10.6
      vertex -1.65 2.34212 10.6
      vertex -3.3 5.2 10.6
    endloop
  endfacet
  facet normal 0 0 1
    outer loop
      vertex -3.31697 2.79008 10.6
      vertex -2.61344 2.0409 10.6
      vertex -1.65 2.34212 10.6
    endloop
  endfacet
  facet normal 0 0 1
    outer loop
      vertex -3.31697 7.60992 10.6
      vertex -1.65 8.05788 10.6
      vertex -2.61344 8.3591 10.6
    endloop
  endfacet
  facet normal 0 0 1
    outer loop
      vertex -3.31697 7.60992 10.6
      vertex -3.3 5.2 10.6
      vertex -1.65 8.05788 10.6
    endloop
  endfacet
  facet normal 0 0 1
    outer loop
      vertex -3.81208 3.69069 10.6
      vertex -3.31697 2.79008 10.6
      vertex -3.3 5.2 10.6
    endloop
  endfacet
  facet normal -0 0 1
    outer loop
      vertex -3.81208 6.70931 10.6
      vertex -3.3 5.2 10.6
      vertex -3.31697 7.60992 10.6
    endloop
  endfacet
  facet normal 0 0 1
    outer loop
      vertex -4.06767 4.68613 10.6
      vertex -3.3 5.2 10.6
      vertex -4.06767 5.71387 10.6
    endloop
  endfacet
  facet normal 0 0 1
    outer loop
      vertex -4.06767 4.68613 10.6
      vertex -3.81208 3.69069 10.6
      vertex -3.3 5.2 10.6
    endloop
  endfacet
  facet normal -0 0 1
    outer loop
      vertex -4.06767 5.71387 10.6
      vertex -3.3 5.2 10.6
      vertex -3.81208 6.70931 10.6
    endloop
  endfacet
  facet normal -0.187376 0.982288 0
    outer loop
      vertex 0.100465 3.60316 -2.6
      vertex 0.100465 3.60316 6.55
      vertex 0.494427 3.67831 -2.6
    endloop
  endfacet
  facet normal 0 0 -1
    outer loop
      vertex 0.100465 3.60316 -2.6
      vertex 0.494427 3.67831 -2.6
      vertex 13.875 -2.6 -2.6
    endloop
  endfacet
  facet normal -0.187376 0.982288 0
    outer loop
      vertex 0.100465 3.60316 6.55
      vertex 0.494427 3.67831 6.55
      vertex 0.494427 3.67831 -2.6
    endloop
  endfacet
  facet normal -0 0 1
    outer loop
      vertex 0.100465 3.60316 6.55
      vertex 1.65 2.34212 6.55
      vertex 0.494427 3.67831 6.55
    endloop
  endfacet
  facet normal 0 0 -1
    outer loop
      vertex 0.100465 6.79684 -2.6
      vertex 0.257441 9.29191 -2.6
      vertex 0.494427 6.72169 -2.6
    endloop
  endfacet
  facet normal -0.187376 -0.982288 -0
    outer loop
      vertex 0.100465 6.79684 -2.6
      vertex 0.494427 6.72169 -2.6
      vertex 0.494427 6.72169 6.55
    endloop
  endfacet
  facet normal -0.187376 -0.982288 0
    outer loop
      vertex 0.100465 6.79684 -2.6
      vertex 0.494427 6.72169 6.55
      vertex 0.100465 6.79684 6.55
    endloop
  endfacet
  facet normal 0 0 1
    outer loop
      vertex 0.100465 6.79684 6.55
      vertex 0.494427 6.72169 6.55
      vertex 1.65 8.05788 6.55
    endloop
  endfacet
  facet normal 0 0 1
    outer loop
      vertex 0.257441 1.10809 10.6
      vertex 1.26697 1.30067 10.6
      vertex 1.65 2.34212 10.6
    endloop
  endfacet
  facet normal 0.148163 -0.776691 0.612208
    outer loop
      vertex 0.257441 1.10809 10.6
      vertex 13.875 -2.6 2.6
      vertex 1.26697 1.30067 10.6
    endloop
  endfacet
  facet normal 0.187383 0.982287 0
    outer loop
      vertex 0.257441 9.29191 -2.6
      vertex 0.257441 9.29191 10.6
      vertex 1.26697 9.09933 -2.6
    endloop
  endfacet
  facet normal 0 0 -1
    outer loop
      vertex 0.257441 9.29191 -2.6
      vertex 1.26697 9.09933 -2.6
      vertex 0.494427 6.72169 -2.6
    endloop
  endfacet
  facet normal 0.187383 0.982287 -0
    outer loop
      vertex 0.257441 9.29191 10.6
      vertex 1.26697 9.09933 10.6
      vertex 1.26697 9.09933 -2.6
    endloop
  endfacet
  facet normal 0 0 1
    outer loop
      vertex 0.257441 9.29191 10.6
      vertex 1.65 8.05788 10.6
      vertex 1.26697 9.09933 10.6
    endloop
  endfacet
  facet normal -0.425788 0.904823 0
    outer loop
      vertex 0.494427 3.67831 -2.6
      vertex 0.494427 3.67831 6.55
      vertex 0.857323 3.84908 -2.6
    endloop
  endfacet
  facet normal 0 0 -1
    outer loop
      vertex 0.494427 3.67831 -2.6
      vertex 0.857323 3.84908 -2.6
      vertex 13.875 -2.6 -2.6
    endloop
  endfacet
  facet normal -0.425788 0.904823 0
    outer loop
      vertex 0.494427 3.67831 6.55
      vertex 0.857323 3.84908 6.55
      vertex 0.857323 3.84908 -2.6
    endloop
  endfacet
  facet normal -0 0 1
    outer loop
      vertex 0.494427 3.67831 6.55
      vertex 1.65 2.34212 6.55
      vertex 0.857323 3.84908 6.55
    endloop
  endfacet
  facet normal -0.425788 -0.904823 -0
    outer loop
      vertex 0.494427 6.72169 -2.6
      vertex 0.857323 6.55092 -2.6
      vertex 0.857323 6.55092 6.55
    endloop
  endfacet
  facet normal -0.425788 -0.904823 0
    outer loop
      vertex 0.494427 6.72169 -2.6
      vertex 0.857323 6.55092 6.55
      vertex 0.494427 6.72169 6.55
    endloop
  endfacet
  facet normal 0 0 -1
    outer loop
      vertex 0.494427 6.72169 -2.6
      vertex 1.26697 9.09933 -2.6
      vertex 0.857323 6.55092 -2.6
    endloop
  endfacet
  facet normal 0 0 1
    outer loop
      vertex 0.494427 6.72169 6.55
      vertex 0.857323 6.55092 6.55
      vertex 1.65 8.05788 6.55
    endloop
  endfacet
  facet normal -0.63741 0.770525 0
    outer loop
      vertex 0.857323 3.84908 -2.6
      vertex 0.857323 3.84908 6.55
      vertex 1.16635 4.10472 -2.6
    endloop
  endfacet
  facet normal 0 0 -1
    outer loop
      vertex 0.857323 3.84908 -2.6
      vertex 1.16635 4.10472 -2.6
      vertex 13.875 -2.6 -2.6
    endloop
  endfacet
  facet normal -0.63741 0.770525 0
    outer loop
      vertex 0.857323 3.84908 6.55
      vertex 1.16635 4.10472 6.55
      vertex 1.16635 4.10472 -2.6
    endloop
  endfacet
  facet normal -0 0 1
    outer loop
      vertex 0.857323 3.84908 6.55
      vertex 1.65 2.34212 6.55
      vertex 1.16635 4.10472 6.55
    endloop
  endfacet
  facet normal -0.637425 -0.770512 -0
    outer loop
      vertex 0.857323 6.55092 -2.6
      vertex 1.16635 6.29527 -2.6
      vertex 1.16635 6.29527 6.55
    endloop
  endfacet
  facet normal -0.637425 -0.770512 0
    outer loop
      vertex 0.857323 6.55092 -2.6
      vertex 1.16635 6.29527 6.55
      vertex 0.857323 6.55092 6.55
    endloop
  endfacet
  facet normal -0 0 -1
    outer loop
      vertex 0.857323 6.55092 -2.6
      vertex 1.26697 9.09933 -2.6
      vertex 2.19689 8.66174 -2.6
    endloop
  endfacet
  facet normal 0 0 -1
    outer loop
      vertex 0.857323 6.55092 -2.6
      vertex 2.19689 8.66174 -2.6
      vertex 1.16635 6.29527 -2.6
    endloop
  endfacet
  facet normal 0 0 1
    outer loop
      vertex 0.857323 6.55092 6.55
      vertex 1.16635 6.29527 6.55
      vertex 1.65 8.05788 6.55
    endloop
  endfacet
  facet normal -0.809018 0.587783 0
    outer loop
      vertex 1.16635 4.10472 -2.6
      vertex 1.16635 4.10472 6.55
      vertex 1.40209 4.42919 6.55
    endloop
  endfacet
  facet normal 0 0 -1
    outer loop
      vertex 1.16635 4.10472 -2.6
      vertex 1.40209 4.42919 -2.6
      vertex 13.875 -2.6 -2.6
    endloop
  endfacet
  facet normal -0.809018 0.587783 0
    outer loop
      vertex 1.16635 4.10472 -2.6
      vertex 1.40209 4.42919 6.55
      vertex 1.40209 4.42919 -2.6
    endloop
  endfacet
  facet normal -0 0 1
    outer loop
      vertex 1.16635 4.10472 6.55
      vertex 1.65 2.34212 6.55
      vertex 1.40209 4.42919 6.55
    endloop
  endfacet
  facet normal -0.80901 -0.587795 0
    outer loop
      vertex 1.16635 6.29527 -2.6
      vertex 1.40209 5.97081 -2.6
      vertex 1.16635 6.29527 6.55
    endloop
  endfacet
  facet normal 0 0 -1
    outer loop
      vertex 1.16635 6.29527 -2.6
      vertex 2.19689 8.66174 -2.6
      vertex 1.40209 5.97081 -2.6
    endloop
  endfacet
  facet normal -0.80901 -0.587795 0
    outer loop
      vertex 1.16635 6.29527 6.55
      vertex 1.40209 5.97081 -2.6
      vertex 1.40209 5.97081 6.55
    endloop
  endfacet
  facet normal 0 0 1
    outer loop
      vertex 1.16635 6.29527 6.55
      vertex 1.40209 5.97081 6.55
      vertex 1.65 8.05788 6.55
    endloop
  endfacet
  facet normal 0.284677 -0.604965 0.743623
    outer loop
      vertex 1.26697 1.30067 10.6
      vertex 13.875 -2.6 2.6
      vertex 2.19689 1.73826 10.6
    endloop
  endfacet
  facet normal 0 0 1
    outer loop
      vertex 1.26697 1.30067 10.6
      vertex 2.19689 1.73826 10.6
      vertex 1.65 2.34212 10.6
    endloop
  endfacet
  facet normal 0.425782 0.904826 0
    outer loop
      vertex 1.26697 9.09933 -2.6
      vertex 1.26697 9.09933 10.6
      vertex 2.19689 8.66174 -2.6
    endloop
  endfacet
  facet normal 0 0 1
    outer loop
      vertex 1.26697 9.09933 10.6
      vertex 1.65 8.05788 10.6
      vertex 2.19689 8.66174 10.6
    endloop
  endfacet
  facet normal 0.425782 0.904826 -0
    outer loop
      vertex 1.26697 9.09933 10.6
      vertex 2.19689 8.66174 10.6
      vertex 2.19689 8.66174 -2.6
    endloop
  endfacet
  facet normal -0.929781 0.368113 0
    outer loop
      vertex 1.40209 4.42919 -2.6
      vertex 1.40209 4.42919 6.55
      vertex 1.54973 4.8021 6.55
    endloop
  endfacet
  facet normal 0 0 -1
    outer loop
      vertex 1.40209 4.42919 -2.6
      vertex 1.54973 4.8021 -2.6
      vertex 13.875 2.6 -2.6
    endloop
  endfacet
  facet normal -0.929781 0.368113 0
    outer loop
      vertex 1.40209 4.42919 -2.6
      vertex 1.54973 4.8021 6.55
      vertex 1.54973 4.8021 -2.6
    endloop
  endfacet
  facet normal 0 0 -1
    outer loop
      vertex 1.40209 4.42919 -2.6
      vertex 13.875 2.6 -2.6
      vertex 13.875 -2.6 -2.6
    endloop
  endfacet
  facet normal 0 0 1
    outer loop
      vertex 1.40209 4.42919 6.55
      vertex 1.65 2.34212 6.55
      vertex 3.3 5.2 6.55
    endloop
  endfacet
  facet normal 0 0 1
    outer loop
      vertex 1.40209 4.42919 6.55
      vertex 3.3 5.2 6.55
      vertex 1.54973 4.8021 6.55
    endloop
  endfacet
  facet normal -0.929781 -0.368113 0
    outer loop
      vertex 1.40209 5.97081 -2.6
      vertex 1.54973 5.5979 -2.6
      vertex 1.40209 5.97081 6.55
    endloop
  endfacet
  facet normal 0 0 -1
    outer loop
      vertex 1.40209 5.97081 -2.6
      vertex 2.19689 8.66174 -2.6
      vertex 1.54973 5.5979 -2.6
    endloop
  endfacet
  facet normal -0.929781 -0.368113 0
    outer loop
      vertex 1.40209 5.97081 6.55
      vertex 1.54973 5.5979 -2.6
      vertex 1.54973 5.5979 6.55
    endloop
  endfacet
  facet normal 0 0 1
    outer loop
      vertex 1.40209 5.97081 6.55
      vertex 1.54973 5.5979 6.55
      vertex 3.3 5.2 6.55
    endloop
  endfacet
  facet normal -0 0 1
    outer loop
      vertex 1.40209 5.97081 6.55
      vertex 3.3 5.2 6.55
      vertex 1.65 8.05788 6.55
    endloop
  endfacet
  facet normal -0.992114 0.125342 0
    outer loop
      vertex 1.54973 4.8021 -2.6
      vertex 1.54973 4.8021 6.55
      vertex 1.6 5.2 6.55
    endloop
  endfacet
  facet normal 0 0 -1
    outer loop
      vertex 1.54973 4.8021 -2.6
      vertex 1.6 5.2 -2.6
      vertex 13.875 2.6 -2.6
    endloop
  endfacet
  facet normal -0.992114 0.125342 0
    outer loop
      vertex 1.54973 4.8021 -2.6
      vertex 1.6 5.2 6.55
      vertex 1.6 5.2 -2.6
    endloop
  endfacet
  facet normal 0 0 1
    outer loop
      vertex 1.54973 4.8021 6.55
      vertex 3.3 5.2 6.55
      vertex 1.6 5.2 6.55
    endloop
  endfacet
  facet normal -0.992114 -0.125342 0
    outer loop
      vertex 1.54973 5.5979 -2.6
      vertex 1.6 5.2 -2.6
      vertex 1.54973 5.5979 6.55
    endloop
  endfacet
  facet normal 0 0 -1
    outer loop
      vertex 1.54973 5.5979 -2.6
      vertex 2.19689 8.66174 -2.6
      vertex 1.6 5.2 -2.6
    endloop
  endfacet
  facet normal -0.992114 -0.125342 0
    outer loop
      vertex 1.54973 5.5979 6.55
      vertex 1.6 5.2 -2.6
      vertex 1.6 5.2 6.55
    endloop
  endfacet
  facet normal 0 0 1
    outer loop
      vertex 1.54973 5.5979 6.55
      vertex 1.6 5.2 6.55
      vertex 3.3 5.2 6.55
    endloop
  endfacet
  facet normal 0 0 -1
    outer loop
      vertex 1.6 5.2 -2.6
      vertex 2.19689 8.66174 -2.6
      vertex 13.875 2.6 -2.6
    endloop
  endfacet
  facet normal 0 0 1
    outer loop
      vertex 1.65 2.34212 10.6
      vertex 2.19689 1.73826 10.6
      vertex 2.98877 2.39336 10.6
    endloop
  endfacet
  facet normal 0 0 1
    outer loop
      vertex 1.65 2.34212 10.6
      vertex 2.98877 2.39336 10.6
      vertex 3.59286 3.22481 10.6
    endloop
  endfacet
  facet normal 0 0 1
    outer loop
      vertex 1.65 2.34212 10.6
      vertex 3.59286 3.22481 10.6
      vertex 3.3 5.2 10.6
    endloop
  endfacet
  facet normal -0.866025 0.500001 0
    outer loop
      vertex 1.65 2.34212 6.55
      vertex 1.65 2.34212 10.6
      vertex 3.3 5.2 10.6
    endloop
  endfacet
  facet normal -0.866025 0.500001 0
    outer loop
      vertex 1.65 2.34212 6.55
      vertex 3.3 5.2 10.6
      vertex 3.3 5.2 6.55
    endloop
  endfacet
  facet normal -0 0 1
    outer loop
      vertex 1.65 8.05788 10.6
      vertex 2.98877 8.00664 10.6
      vertex 2.19689 8.66174 10.6
    endloop
  endfacet
  facet normal 0 0 1
    outer loop
      vertex 1.65 8.05788 10.6
      vertex 3.3 5.2 10.6
      vertex 3.59286 7.17519 10.6
    endloop
  endfacet
  facet normal -0.866025 -0.500001 0
    outer loop
      vertex 1.65 8.05788 10.6
      vertex 3.3 5.2 6.55
      vertex 3.3 5.2 10.6
    endloop
  endfacet
  facet normal 0 0 1
    outer loop
      vertex 1.65 8.05788 10.6
      vertex 3.59286 7.17519 10.6
      vertex 2.98877 8.00664 10.6
    endloop
  endfacet
  facet normal -0.866025 -0.500001 0
    outer loop
      vertex 1.65 8.05788 6.55
      vertex 3.3 5.2 6.55
      vertex 1.65 8.05788 10.6
    endloop
  endfacet
  facet normal 1 0 0
    outer loop
      vertex 13.875 -0.200533 1.58738
      vertex 13.875 0.200533 1.58738
      vertex 13.875 2.6 2.6
    endloop
  endfacet
  facet normal 1 0 0
    outer loop
      vertex 13.875 -2.6 -2.6
      vertex 13.875 -0.397903 -1.54973
      vertex 13.875 -0.770805 -1.40209
    endloop
  endfacet
  facet normal 1 0 0
    outer loop
      vertex 13.875 -2.6 -2.6
      vertex 13.875 -0.770805 -1.40209
      vertex 13.875 -1.09527 -1.16635
    endloop
  endfacet
  facet normal 1 0 0
    outer loop
      vertex 13.875 -2.6 -2.6
      vertex 13.875 -1.09527 -1.16635
      vertex 13.875 -1.35092 -0.857323
    endloop
  endfacet
  facet normal 1 0 0
    outer loop
      vertex 13.875 -2.6 -2.6
      vertex 13.875 -1.35092 -0.857323
      vertex 13.875 -1.52169 -0.494427
    endloop
  endfacet
  facet normal 1 0 0
    outer loop
      vertex 13.875 -2.6 -2.6
      vertex 13.875 -1.52169 -0.494427
      vertex 13.875 -1.59684 -0.100465
    endloop
  endfacet
  facet normal 1 0 0
    outer loop
      vertex 13.875 -2.6 -2.6
      vertex 13.875 -1.59684 -0.100465
      vertex 13.875 -2.6 2.6
    endloop
  endfacet
  facet normal 1 0 0
    outer loop
      vertex 13.875 -2.6 -2.6
      vertex 13.875 0 -1.6
      vertex 13.875 -0.397903 -1.54973
    endloop
  endfacet
  facet normal 1 0 0
    outer loop
      vertex 13.875 -2.6 -2.6
      vertex 13.875 2.6 -2.6
      vertex 13.875 0 -1.6
    endloop
  endfacet
  facet normal 1 -0 0
    outer loop
      vertex 13.875 -2.6 2.6
      vertex 13.875 -0.200533 1.58738
      vertex 13.875 2.6 2.6
    endloop
  endfacet
  facet normal 1 0 0
    outer loop
      vertex 13.875 -2.6 2.6
      vertex 13.875 -0.588999 1.48764
      vertex 13.875 -0.200533 1.58738
    endloop
  endfacet
  facet normal 1 0 0
    outer loop
      vertex 13.875 -2.6 2.6
      vertex 13.875 -0.940456 1.29443
      vertex 13.875 -0.588999 1.48764
    endloop
  endfacet
  facet normal 1 0 0
    outer loop
      vertex 13.875 -2.6 2.6
      vertex 13.875 -1.23282 1.01988
      vertex 13.875 -0.940456 1.29443
    endloop
  endfacet
  facet normal 1 0 0
    outer loop
      vertex 13.875 -2.6 2.6
      vertex 13.875 -1.44772 0.681246
      vertex 13.875 -1.23282 1.01988
    endloop
  endfacet
  facet normal 1 0 0
    outer loop
      vertex 13.875 -2.6 2.6
      vertex 13.875 -1.57166 0.29981
      vertex 13.875 -1.44772 0.681246
    endloop
  endfacet
  facet normal 1 0 0
    outer loop
      vertex 13.875 -2.6 2.6
      vertex 13.875 -1.59684 -0.100465
      vertex 13.875 -1.57166 0.29981
    endloop
  endfacet
  facet normal 1 -0 0
    outer loop
      vertex 13.875 0 -1.6
      vertex 13.875 2.6 -2.6
      vertex 13.875 0.397903 -1.54973
    endloop
  endfacet
  facet normal 1 0 0
    outer loop
      vertex 13.875 0.200533 1.58738
      vertex 13.875 0.588999 1.48764
      vertex 13.875 2.6 2.6
    endloop
  endfacet
  facet normal 1 -0 0
    outer loop
      vertex 13.875 0.397903 -1.54973
      vertex 13.875 2.6 -2.6
      vertex 13.875 0.770805 -1.40209
    endloop
  endfacet
  facet normal 1 0 0
    outer loop
      vertex 13.875 0.588999 1.48764
      vertex 13.875 0.940456 1.29443
      vertex 13.875 2.6 2.6
    endloop
  endfacet
  facet normal 1 -0 0
    outer loop
      vertex 13.875 0.770805 -1.40209
      vertex 13.875 2.6 -2.6
      vertex 13.875 1.09527 -1.16635
    endloop
  endfacet
  facet normal 1 0 0
    outer loop
      vertex 13.875 0.940456 1.29443
      vertex 13.875 1.23282 1.01988
      vertex 13.875 2.6 2.6
    endloop
  endfacet
  facet normal 1 -0 0
    outer loop
      vertex 13.875 1.09527 -1.16635
      vertex 13.875 2.6 -2.6
      vertex 13.875 1.35092 -0.857323
    endloop
  endfacet
  facet normal 1 0 0
    outer loop
      vertex 13.875 1.23282 1.01988
      vertex 13.875 1.44772 0.681246
      vertex 13.875 2.6 2.6
    endloop
  endfacet
  facet normal 1 -0 0
    outer loop
      vertex 13.875 1.35092 -0.857323
      vertex 13.875 2.6 -2.6
      vertex 13.875 1.52169 -0.494427
    endloop
  endfacet
  facet normal 1 0 0
    outer loop
      vertex 13.875 1.44772 0.681246
      vertex 13.875 1.57166 0.29981
      vertex 13.875 2.6 2.6
    endloop
  endfacet
  facet normal 1 -0 0
    outer loop
      vertex 13.875 1.52169 -0.494427
      vertex 13.875 2.6 -2.6
      vertex 13.875 1.59684 -0.100465
    endloop
  endfacet
  facet normal 1 0 0
    outer loop
      vertex 13.875 1.57166 0.29981
      vertex 13.875 1.59684 -0.100465
      vertex 13.875 2.6 2.6
    endloop
  endfacet
  facet normal 1 0 0
    outer loop
      vertex 13.875 1.59684 -0.100465
      vertex 13.875 2.6 -2.6
      vertex 13.875 2.6 2.6
    endloop
  endfacet
  facet normal 0.379717 -0.458999 0.803203
    outer loop
      vertex 2.19689 1.73826 10.6
      vertex 13.875 -2.6 2.6
      vertex 2.98877 2.39336 10.6
    endloop
  endfacet
  facet normal 0.460702 0.887555 0
    outer loop
      vertex 2.19689 8.66174 -2.6
      vertex 13.875 2.6 2.6
      vertex 13.875 2.6 -2.6
    endloop
  endfacet
  facet normal 0.460702 0.887555 0
    outer loop
      vertex 2.19689 8.66174 -2.6
      vertex 2.19689 8.66174 10.6
      vertex 13.875 2.6 2.6
    endloop
  endfacet
  facet normal 0.602263 0.728011 0.327535
    outer loop
      vertex 2.19689 8.66174 10.6
      vertex 2.98877 8.00664 10.6
      vertex 13.875 2.6 2.6
    endloop
  endfacet
  facet normal 0.455514 -0.330953 0.826424
    outer loop
      vertex 2.98877 2.39336 10.6
      vertex 13.875 -2.6 2.6
      vertex 3.59286 3.22481 10.6
    endloop
  endfacet
  facet normal 0.661636 0.480711 0.575461
    outer loop
      vertex 2.98877 8.00664 10.6
      vertex 3.59286 7.17519 10.6
      vertex 13.875 2.6 2.6
    endloop
  endfacet
  facet normal 0 0 1
    outer loop
      vertex 3.3 5.2 10.6
      vertex 3.59286 3.22481 10.6
      vertex 3.97119 4.18037 10.6
    endloop
  endfacet
  facet normal 0 0 1
    outer loop
      vertex 3.3 5.2 10.6
      vertex 3.97119 4.18037 10.6
      vertex 4.1 5.2 10.6
    endloop
  endfacet
  facet normal 0 0 1
    outer loop
      vertex 3.3 5.2 10.6
      vertex 3.97119 6.21963 10.6
      vertex 3.59286 7.17519 10.6
    endloop
  endfacet
  facet normal 0 0 1
    outer loop
      vertex 3.3 5.2 10.6
      vertex 4.1 5.2 10.6
      vertex 3.97119 6.21963 10.6
    endloop
  endfacet
  facet normal 0.524662 -0.207727 0.825578
    outer loop
      vertex 3.59286 3.22481 10.6
      vertex 13.875 -2.6 2.6
      vertex 3.97119 4.18037 10.6
    endloop
  endfacet
  facet normal 0.662572 0.262329 0.701557
    outer loop
      vertex 3.59286 7.17519 10.6
      vertex 3.97119 6.21963 10.6
      vertex 13.875 2.6 2.6
    endloop
  endfacet
  facet normal 0.594952 -0.0751604 0.800239
    outer loop
      vertex 3.97119 4.18037 10.6
      vertex 13.875 -2.6 2.6
      vertex 4.1 5.2 10.6
    endloop
  endfacet
  facet normal 0.644118 0.0813715 0.760586
    outer loop
      vertex 3.97119 6.21963 10.6
      vertex 4.1 5.2 10.6
      vertex 13.875 2.6 2.6
    endloop
  endfacet
  facet normal 0.633346 0 0.773869
    outer loop
      vertex 4.1 5.2 10.6
      vertex 13.875 -2.6 2.6
      vertex 13.875 2.6 2.6
    endloop
  endfacet
endsolid model
