solid model
  facet normal -0.99693 0.0782977 0
    outer loop
      vertex 136.5 20 0
      vertex 136.5 20 2
      vertex 136.543 20.5475 2
    endloop
  endfacet
  facet normal -0.99693 -0.0782977 0
    outer loop
      vertex 136.5 20 0
      vertex 136.543 19.4525 0
      vertex 136.5 20 2
    endloop
  endfacet
  facet normal 0 0 -1
    outer loop
      vertex 136.5 20 0
      vertex 136.543 20.5475 0
      vertex 139 20 0
    endloop
  endfacet
  facet normal -0.99693 0.0782977 0
    outer loop
      vertex 136.5 20 0
      vertex 136.543 20.5475 2
      vertex 136.543 20.5475 0
    endloop
  endfacet
  facet normal 0 0 -1
    outer loop
      vertex 136.5 20 0
      vertex 139 20 0
      vertex 139.012 19.8436 0
    endloop
  endfacet
  facet normal -0 0 -1
    outer loop
      vertex 136.5 20 0
      vertex 139.012 19.8436 0
      vertex 136.543 19.4525 0
    endloop
  endfacet
  facet normal -0.99693 -0.0782977 0
    outer loop
      vertex 136.5 20 2
      vertex 136.543 19.4525 0
      vertex 136.543 19.4525 2
    endloop
  endfacet
  facet normal 0 -0 1
    outer loop
      vertex 136.5 20 2
      vertex 136.543 19.4525 2
      vertex 139.012 19.8436 2
    endloop
  endfacet
  facet normal 0 0 1
    outer loop
      vertex 136.5 20 2
      vertex 139 20 2
      vertex 136.543 20.5475 2
    endloop
  endfacet
  facet normal 0 0 1
    outer loop
      vertex 136.5 20 2
      vertex 139.012 19.8436 2
      vertex 139 20 2
    endloop
  endfacet
  facet normal -0.972463 -0.233056 0
    outer loop
      vertex 136.543 19.4525 0
      vertex 136.671 18.9184 0
      vertex 136.543 19.4525 2
    endloop
  endfacet
  facet normal 0 0 -1
    outer loop
      vertex 136.543 19.4525 0
      vertex 139.012 19.8436 0
      vertex 139.049 19.691 0
    endloop
  endfacet
  facet normal 0 0 -1
    outer loop
      vertex 136.543 19.4525 0
      vertex 139.049 19.691 0
      vertex 136.671 18.9184 0
    endloop
  endfacet
  facet normal -0.972463 -0.233056 0
    outer loop
      vertex 136.543 19.4525 2
      vertex 136.671 18.9184 0
      vertex 136.671 18.9184 2
    endloop
  endfacet
  facet normal 0 0 1
    outer loop
      vertex 136.543 19.4525 2
      vertex 136.671 18.9184 2
      vertex 139.049 19.691 2
    endloop
  endfacet
  facet normal 0 0 1
    outer loop
      vertex 136.543 19.4525 2
      vertex 139.049 19.691 2
      vertex 139.012 19.8436 2
    endloop
  endfacet
  facet normal -0.972463 0.233056 0
    outer loop
      vertex 136.543 20.5475 0
      vertex 136.543 20.5475 2
      vertex 136.671 21.0816 2
    endloop
  endfacet
  facet normal 0 0 -1
    outer loop
      vertex 136.543 20.5475 0
      vertex 136.671 21.0816 0
      vertex 139.012 20.1564 0
    endloop
  endfacet
  facet normal -0.972463 0.233056 0
    outer loop
      vertex 136.543 20.5475 0
      vertex 136.671 21.0816 2
      vertex 136.671 21.0816 0
    endloop
  endfacet
  facet normal 0 0 -1
    outer loop
      vertex 136.543 20.5475 0
      vertex 139.012 20.1564 0
      vertex 139 20 0
    endloop
  endfacet
  facet normal 0 0 1
    outer loop
      vertex 136.543 20.5475 2
      vertex 139 20 2
      vertex 139.012 20.1564 2
    endloop
  endfacet
  facet normal -0 0 1
    outer loop
      vertex 136.543 20.5475 2
      vertex 139.012 20.1564 2
      vertex 136.671 21.0816 2
    endloop
  endfacet
  facet normal -0.92399 -0.382416 0
    outer loop
      vertex 136.671 18.9184 0
      vertex 136.881 18.411 0
      vertex 136.671 18.9184 2
    endloop
  endfacet
  facet normal 0 0 -1
    outer loop
      vertex 136.671 18.9184 0
      vertex 139.049 19.691 0
      vertex 136.881 18.411 0
    endloop
  endfacet
  facet normal -0.92399 -0.382416 0
    outer loop
      vertex 136.671 18.9184 2
      vertex 136.881 18.411 0
      vertex 136.881 18.411 2
    endloop
  endfacet
  facet normal 0 0 1
    outer loop
      vertex 136.671 18.9184 2
      vertex 136.881 18.411 2
      vertex 139.049 19.691 2
    endloop
  endfacet
  facet normal -0.92399 0.382416 0
    outer loop
      vertex 136.671 21.0816 0
      vertex 136.671 21.0816 2
      vertex 136.881 21.589 2
    endloop
  endfacet
  facet normal 0 0 -1
    outer loop
      vertex 136.671 21.0816 0
      vertex 136.881 21.589 0
      vertex 139.012 20.1564 0
    endloop
  endfacet
  facet normal -0.92399 0.382416 0
    outer loop
      vertex 136.671 21.0816 0
      vertex 136.881 21.589 2
      vertex 136.881 21.589 0
    endloop
  endfacet
  facet normal 0 0 1
    outer loop
      vertex 136.671 21.0816 2
      vertex 139.012 20.1564 2
      vertex 139.049 20.309 2
    endloop
  endfacet
  facet normal -0 0 1
    outer loop
      vertex 136.671 21.0816 2
      vertex 139.049 20.309 2
      vertex 136.881 21.589 2
    endloop
  endfacet
  facet normal -0 0 -1
    outer loop
      vertex 136.881 18.411 0
      vertex 139.049 19.691 0
      vertex 139.109 19.546 0
    endloop
  endfacet
  facet normal -0 0 -1
    outer loop
      vertex 136.881 18.411 0
      vertex 139.109 19.546 0
      vertex 139.191 19.4122 0
    endloop
  endfacet
  facet normal -0 0 -1
    outer loop
      vertex 136.881 18.411 0
      vertex 139.191 19.4122 0
      vertex 139.293 19.2929 0
    endloop
  endfacet
  facet normal -0 0 -1
    outer loop
      vertex 136.881 18.411 0
      vertex 139.293 19.2929 0
      vertex 139.412 19.191 0
    endloop
  endfacet
  facet normal -0 0 -1
    outer loop
      vertex 136.881 18.411 0
      vertex 139.412 19.191 0
      vertex 139.546 19.109 0
    endloop
  endfacet
  facet normal -0 0 -1
    outer loop
      vertex 136.881 18.411 0
      vertex 139.546 19.109 0
      vertex 139.691 19.0489 0
    endloop
  endfacet
  facet normal -0 0 -1
    outer loop
      vertex 136.881 18.411 0
      vertex 139.691 19.0489 0
      vertex 139.844 19.0123 0
    endloop
  endfacet
  facet normal -0 0 -1
    outer loop
      vertex 136.881 18.411 0
      vertex 139.844 19.0123 0
      vertex 140 19 0
    endloop
  endfacet
  facet normal 0 0 -1
    outer loop
      vertex 136.881 18.411 0
      vertex 140 19 0
      vertex 145 -1 0
    endloop
  endfacet
  facet normal -0.922552 -0.385874 0
    outer loop
      vertex 136.881 18.411 0
      vertex 145 -1 0
      vertex 136.881 18.411 2
    endloop
  endfacet
  facet normal 0 0 1
    outer loop
      vertex 136.881 18.411 2
      vertex 139.109 19.546 2
      vertex 139.049 19.691 2
    endloop
  endfacet
  facet normal 0 0 1
    outer loop
      vertex 136.881 18.411 2
      vertex 139.191 19.4122 2
      vertex 139.109 19.546 2
    endloop
  endfacet
  facet normal 0 0 1
    outer loop
      vertex 136.881 18.411 2
      vertex 139.293 19.2929 2
      vertex 139.191 19.4122 2
    endloop
  endfacet
  facet normal 0 0 1
    outer loop
      vertex 136.881 18.411 2
      vertex 139.412 19.191 2
      vertex 139.293 19.2929 2
    endloop
  endfacet
  facet normal 0 0 1
    outer loop
      vertex 136.881 18.411 2
      vertex 139.546 19.109 2
      vertex 139.412 19.191 2
    endloop
  endfacet
  facet normal 0 0 1
    outer loop
      vertex 136.881 18.411 2
      vertex 139.691 19.0489 2
      vertex 139.546 19.109 2
    endloop
  endfacet
  facet normal 0 0 1
    outer loop
      vertex 136.881 18.411 2
      vertex 139.844 19.0123 2
      vertex 139.691 19.0489 2
    endloop
  endfacet
  facet normal 0 0 1
    outer loop
      vertex 136.881 18.411 2
      vertex 140 19 2
      vertex 139.844 19.0123 2
    endloop
  endfacet
  facet normal -0.922552 -0.385874 0
    outer loop
      vertex 136.881 18.411 2
      vertex 145 -1 0
      vertex 145 -1 2
    endloop
  endfacet
  facet normal 0 0 1
    outer loop
      vertex 136.881 18.411 2
      vertex 145 -1 2
      vertex 140 19 2
    endloop
  endfacet
  facet normal -0.85257 0.522613 0
    outer loop
      vertex 136.881 21.589 0
      vertex 136.881 21.589 2
      vertex 137.168 22.0572 2
    endloop
  endfacet
  facet normal 0 0 -1
    outer loop
      vertex 136.881 21.589 0
      vertex 137.168 22.0572 0
      vertex 139.012 20.1564 0
    endloop
  endfacet
  facet normal -0.85257 0.522613 0
    outer loop
      vertex 136.881 21.589 0
      vertex 137.168 22.0572 2
      vertex 137.168 22.0572 0
    endloop
  endfacet
  facet normal 0 0 1
    outer loop
      vertex 136.881 21.589 2
      vertex 139.049 20.309 2
      vertex 139.109 20.454 2
    endloop
  endfacet
  facet normal -0 0 1
    outer loop
      vertex 136.881 21.589 2
      vertex 139.109 20.454 2
      vertex 137.168 22.0572 2
    endloop
  endfacet
  facet normal -0.760181 0.649712 0
    outer loop
      vertex 137.168 22.0572 0
      vertex 137.168 22.0572 2
      vertex 137.525 22.4749 2
    endloop
  endfacet
  facet normal 0 0 -1
    outer loop
      vertex 137.168 22.0572 0
      vertex 137.525 22.4749 0
      vertex 139.012 20.1564 0
    endloop
  endfacet
  facet normal -0.760181 0.649712 0
    outer loop
      vertex 137.168 22.0572 0
      vertex 137.525 22.4749 2
      vertex 137.525 22.4749 0
    endloop
  endfacet
  facet normal 0 0 1
    outer loop
      vertex 137.168 22.0572 2
      vertex 139.109 20.454 2
      vertex 139.191 20.5878 2
    endloop
  endfacet
  facet normal -0 0 1
    outer loop
      vertex 137.168 22.0572 2
      vertex 139.191 20.5878 2
      vertex 137.525 22.4749 2
    endloop
  endfacet
  facet normal -0.649126 0.760681 0
    outer loop
      vertex 137.525 22.4749 0
      vertex 137.525 22.4749 2
      vertex 137.943 22.8316 0
    endloop
  endfacet
  facet normal 0 0 -1
    outer loop
      vertex 137.525 22.4749 0
      vertex 137.943 22.8316 0
      vertex 139.012 20.1564 0
    endloop
  endfacet
  facet normal -0.649126 0.760681 0
    outer loop
      vertex 137.525 22.4749 2
      vertex 137.943 22.8316 2
      vertex 137.943 22.8316 0
    endloop
  endfacet
  facet normal 0 0 1
    outer loop
      vertex 137.525 22.4749 2
      vertex 139.191 20.5878 2
      vertex 139.293 20.7071 2
    endloop
  endfacet
  facet normal -0 0 1
    outer loop
      vertex 137.525 22.4749 2
      vertex 139.293 20.7071 2
      vertex 137.943 22.8316 2
    endloop
  endfacet
  facet normal -0.522643 0.852552 0
    outer loop
      vertex 137.943 22.8316 0
      vertex 137.943 22.8316 2
      vertex 138.411 23.1185 0
    endloop
  endfacet
  facet normal 0 0 -1
    outer loop
      vertex 137.943 22.8316 0
      vertex 138.411 23.1185 0
      vertex 139.012 20.1564 0
    endloop
  endfacet
  facet normal -0.522643 0.852552 0
    outer loop
      vertex 137.943 22.8316 2
      vertex 138.411 23.1185 2
      vertex 138.411 23.1185 0
    endloop
  endfacet
  facet normal 0 0 1
    outer loop
      vertex 137.943 22.8316 2
      vertex 139.293 20.7071 2
      vertex 139.412 20.809 2
    endloop
  endfacet
  facet normal -0 0 1
    outer loop
      vertex 137.943 22.8316 2
      vertex 139.412 20.809 2
      vertex 138.411 23.1185 2
    endloop
  endfacet
  facet normal -0.382985 0.923755 0
    outer loop
      vertex 138.411 23.1185 0
      vertex 138.411 23.1185 2
      vertex 138.918 23.3287 0
    endloop
  endfacet
  facet normal 0 0 -1
    outer loop
      vertex 138.411 23.1185 0
      vertex 138.918 23.3287 0
      vertex 139.546 20.891 0
    endloop
  endfacet
  facet normal 0 0 -1
    outer loop
      vertex 138.411 23.1185 0
      vertex 139.049 20.309 0
      vertex 139.012 20.1564 0
    endloop
  endfacet
  facet normal 0 0 -1
    outer loop
      vertex 138.411 23.1185 0
      vertex 139.109 20.454 0
      vertex 139.049 20.309 0
    endloop
  endfacet
  facet normal 0 0 -1
    outer loop
      vertex 138.411 23.1185 0
      vertex 139.191 20.5878 0
      vertex 139.109 20.454 0
    endloop
  endfacet
  facet normal 0 0 -1
    outer loop
      vertex 138.411 23.1185 0
      vertex 139.293 20.7071 0
      vertex 139.191 20.5878 0
    endloop
  endfacet
  facet normal 0 0 -1
    outer loop
      vertex 138.411 23.1185 0
      vertex 139.412 20.809 0
      vertex 139.293 20.7071 0
    endloop
  endfacet
  facet normal 0 0 -1
    outer loop
      vertex 138.411 23.1185 0
      vertex 139.546 20.891 0
      vertex 139.412 20.809 0
    endloop
  endfacet
  facet normal -0.382985 0.923755 0
    outer loop
      vertex 138.411 23.1185 2
      vertex 138.918 23.3287 2
      vertex 138.918 23.3287 0
    endloop
  endfacet
  facet normal 0 0 1
    outer loop
      vertex 138.411 23.1185 2
      vertex 139.412 20.809 2
      vertex 139.546 20.891 2
    endloop
  endfacet
  facet normal -0 0 1
    outer loop
      vertex 138.411 23.1185 2
      vertex 139.546 20.891 2
      vertex 138.918 23.3287 2
    endloop
  endfacet
  facet normal -0.233442 0.972371 0
    outer loop
      vertex 138.918 23.3287 0
      vertex 138.918 23.3287 2
      vertex 139.452 23.4569 0
    endloop
  endfacet
  facet normal 0 0 -1
    outer loop
      vertex 138.918 23.3287 0
      vertex 139.452 23.4569 0
      vertex 139.691 20.9511 0
    endloop
  endfacet
  facet normal 0 0 -1
    outer loop
      vertex 138.918 23.3287 0
      vertex 139.691 20.9511 0
      vertex 139.546 20.891 0
    endloop
  endfacet
  facet normal -0.233442 0.972371 0
    outer loop
      vertex 138.918 23.3287 2
      vertex 139.452 23.4569 2
      vertex 139.452 23.4569 0
    endloop
  endfacet
  facet normal 0 0 1
    outer loop
      vertex 138.918 23.3287 2
      vertex 139.546 20.891 2
      vertex 139.691 20.9511 2
    endloop
  endfacet
  facet normal -0 0 1
    outer loop
      vertex 138.918 23.3287 2
      vertex 139.691 20.9511 2
      vertex 139.452 23.4569 2
    endloop
  endfacet
  facet normal 0.997069 0.0765015 0
    outer loop
      vertex 139 20 0
      vertex 139 20 2
      vertex 139.012 19.8436 2
    endloop
  endfacet
  facet normal 0.997069 0.0765015 0
    outer loop
      vertex 139 20 0
      vertex 139.012 19.8436 2
      vertex 139.012 19.8436 0
    endloop
  endfacet
  facet normal 0.997069 -0.0765015 0
    outer loop
      vertex 139 20 0
      vertex 139.012 20.1564 0
      vertex 139 20 2
    endloop
  endfacet
  facet normal 0.997069 -0.0765015 0
    outer loop
      vertex 139 20 2
      vertex 139.012 20.1564 0
      vertex 139.012 20.1564 2
    endloop
  endfacet
  facet normal 0.971841 0.235636 0
    outer loop
      vertex 139.012 19.8436 0
      vertex 139.012 19.8436 2
      vertex 139.049 19.691 2
    endloop
  endfacet
  facet normal 0.971841 0.235636 0
    outer loop
      vertex 139.012 19.8436 0
      vertex 139.049 19.691 2
      vertex 139.049 19.691 0
    endloop
  endfacet
  facet normal 0.971841 -0.235636 0
    outer loop
      vertex 139.012 20.1564 0
      vertex 139.049 20.309 0
      vertex 139.012 20.1564 2
    endloop
  endfacet
  facet normal 0.971841 -0.235636 0
    outer loop
      vertex 139.012 20.1564 2
      vertex 139.049 20.309 0
      vertex 139.049 20.309 2
    endloop
  endfacet
  facet normal 0.924017 0.382352 0
    outer loop
      vertex 139.049 19.691 0
      vertex 139.049 19.691 2
      vertex 139.109 19.546 2
    endloop
  endfacet
  facet normal 0.924017 0.382352 0
    outer loop
      vertex 139.049 19.691 0
      vertex 139.109 19.546 2
      vertex 139.109 19.546 0
    endloop
  endfacet
  facet normal 0.924017 -0.382352 0
    outer loop
      vertex 139.049 20.309 0
      vertex 139.109 20.454 0
      vertex 139.049 20.309 2
    endloop
  endfacet
  facet normal 0.924017 -0.382352 0
    outer loop
      vertex 139.049 20.309 2
      vertex 139.109 20.454 0
      vertex 139.109 20.454 2
    endloop
  endfacet
  facet normal 0.85262 0.522532 0
    outer loop
      vertex 139.109 19.546 0
      vertex 139.109 19.546 2
      vertex 139.191 19.4122 2
    endloop
  endfacet
  facet normal 0.85262 0.522532 0
    outer loop
      vertex 139.109 19.546 0
      vertex 139.191 19.4122 2
      vertex 139.191 19.4122 0
    endloop
  endfacet
  facet normal 0.85262 -0.522532 0
    outer loop
      vertex 139.109 20.454 0
      vertex 139.191 20.5878 0
      vertex 139.109 20.454 2
    endloop
  endfacet
  facet normal 0.85262 -0.522532 0
    outer loop
      vertex 139.109 20.454 2
      vertex 139.191 20.5878 0
      vertex 139.191 20.5878 2
    endloop
  endfacet
  facet normal 0.760066 0.649846 0
    outer loop
      vertex 139.191 19.4122 0
      vertex 139.191 19.4122 2
      vertex 139.293 19.2929 2
    endloop
  endfacet
  facet normal 0.760066 0.649846 0
    outer loop
      vertex 139.191 19.4122 0
      vertex 139.293 19.2929 2
      vertex 139.293 19.2929 0
    endloop
  endfacet
  facet normal 0.760066 -0.649846 0
    outer loop
      vertex 139.191 20.5878 0
      vertex 139.293 20.7071 0
      vertex 139.191 20.5878 2
    endloop
  endfacet
  facet normal 0.760066 -0.649846 0
    outer loop
      vertex 139.191 20.5878 2
      vertex 139.293 20.7071 0
      vertex 139.293 20.7071 2
    endloop
  endfacet
  facet normal 0.650423 0.759572 0
    outer loop
      vertex 139.293 19.2929 0
      vertex 139.293 19.2929 2
      vertex 139.412 19.191 0
    endloop
  endfacet
  facet normal 0.650423 0.759572 -0
    outer loop
      vertex 139.293 19.2929 2
      vertex 139.412 19.191 2
      vertex 139.412 19.191 0
    endloop
  endfacet
  facet normal 0.650423 -0.759572 0
    outer loop
      vertex 139.293 20.7071 0
      vertex 139.412 20.809 0
      vertex 139.412 20.809 2
    endloop
  endfacet
  facet normal 0.650423 -0.759572 0
    outer loop
      vertex 139.293 20.7071 0
      vertex 139.412 20.809 2
      vertex 139.293 20.7071 2
    endloop
  endfacet
  facet normal 0.521965 0.852967 0
    outer loop
      vertex 139.412 19.191 0
      vertex 139.412 19.191 2
      vertex 139.546 19.109 0
    endloop
  endfacet
  facet normal 0.521965 0.852967 -0
    outer loop
      vertex 139.412 19.191 2
      vertex 139.546 19.109 2
      vertex 139.546 19.109 0
    endloop
  endfacet
  facet normal 0.521965 -0.852967 0
    outer loop
      vertex 139.412 20.809 0
      vertex 139.546 20.891 0
      vertex 139.546 20.891 2
    endloop
  endfacet
  facet normal 0.521965 -0.852967 0
    outer loop
      vertex 139.412 20.809 0
      vertex 139.546 20.891 2
      vertex 139.412 20.809 2
    endloop
  endfacet
  facet normal -0.0784075 0.996921 0
    outer loop
      vertex 139.452 23.4569 0
      vertex 139.452 23.4569 2
      vertex 140 23.5 0
    endloop
  endfacet
  facet normal 0 0 -1
    outer loop
      vertex 139.452 23.4569 0
      vertex 139.844 20.9877 0
      vertex 139.691 20.9511 0
    endloop
  endfacet
  facet normal 0 0 -1
    outer loop
      vertex 139.452 23.4569 0
      vertex 140 23.5 0
      vertex 139.844 20.9877 0
    endloop
  endfacet
  facet normal 0 0 1
    outer loop
      vertex 139.452 23.4569 2
      vertex 139.691 20.9511 2
      vertex 139.844 20.9877 2
    endloop
  endfacet
  facet normal -0 0 1
    outer loop
      vertex 139.452 23.4569 2
      vertex 139.844 20.9877 2
      vertex 140 23.5 2
    endloop
  endfacet
  facet normal -0.0784075 0.996921 0
    outer loop
      vertex 139.452 23.4569 2
      vertex 140 23.5 2
      vertex 140 23.5 0
    endloop
  endfacet
  facet normal 0.382896 0.923792 0
    outer loop
      vertex 139.546 19.109 0
      vertex 139.546 19.109 2
      vertex 139.691 19.0489 0
    endloop
  endfacet
  facet normal 0.382896 0.923792 -0
    outer loop
      vertex 139.546 19.109 2
      vertex 139.691 19.0489 2
      vertex 139.691 19.0489 0
    endloop
  endfacet
  facet normal 0.382896 -0.923792 0
    outer loop
      vertex 139.546 20.891 0
      vertex 139.691 20.9511 0
      vertex 139.691 20.9511 2
    endloop
  endfacet
  facet normal 0.382896 -0.923792 0
    outer loop
      vertex 139.546 20.891 0
      vertex 139.691 20.9511 2
      vertex 139.546 20.891 2
    endloop
  endfacet
  facet normal 0.232652 0.97256 0
    outer loop
      vertex 139.691 19.0489 0
      vertex 139.691 19.0489 2
      vertex 139.844 19.0123 0
    endloop
  endfacet
  facet normal 0.232652 0.97256 -0
    outer loop
      vertex 139.691 19.0489 2
      vertex 139.844 19.0123 2
      vertex 139.844 19.0123 0
    endloop
  endfacet
  facet normal 0.232652 -0.97256 0
    outer loop
      vertex 139.691 20.9511 0
      vertex 139.844 20.9877 0
      vertex 139.844 20.9877 2
    endloop
  endfacet
  facet normal 0.232652 -0.97256 0
    outer loop
      vertex 139.691 20.9511 0
      vertex 139.844 20.9877 2
      vertex 139.691 20.9511 2
    endloop
  endfacet
  facet normal 0.0786022 0.996906 0
    outer loop
      vertex 139.844 19.0123 0
      vertex 139.844 19.0123 2
      vertex 140 19 0
    endloop
  endfacet
  facet normal 0.0786022 0.996906 -0
    outer loop
      vertex 139.844 19.0123 2
      vertex 140 19 2
      vertex 140 19 0
    endloop
  endfacet
  facet normal 0.0786022 -0.996906 0
    outer loop
      vertex 139.844 20.9877 0
      vertex 140 21 0
      vertex 140 21 2
    endloop
  endfacet
  facet normal 0.0786022 -0.996906 0
    outer loop
      vertex 139.844 20.9877 0
      vertex 140 21 2
      vertex 139.844 20.9877 2
    endloop
  endfacet
  facet normal 0 0 -1
    outer loop
      vertex 139.844 20.9877 0
      vertex 140 23.5 0
      vertex 140 21 0
    endloop
  endfacet
  facet normal 0 0 1
    outer loop
      vertex 139.844 20.9877 2
      vertex 140 21 2
      vertex 140 23.5 2
    endloop
  endfacet
  facet normal -0.0786022 0.996906 0
    outer loop
      vertex 140 19 0
      vertex 140 19 2
      vertex 140.156 19.0123 0
    endloop
  endfacet
  facet normal 0 0 -1
    outer loop
      vertex 140 19 0
      vertex 140.156 19.0123 0
      vertex 145 -1 0
    endloop
  endfacet
  facet normal -0.0786022 0.996906 0
    outer loop
      vertex 140 19 2
      vertex 140.156 19.0123 2
      vertex 140.156 19.0123 0
    endloop
  endfacet
  facet normal -0 0 1
    outer loop
      vertex 140 19 2
      vertex 145 -1 2
      vertex 140.156 19.0123 2
    endloop
  endfacet
  facet normal 0 0 -1
    outer loop
      vertex 140 21 0
      vertex 140 23.5 0
      vertex 140.548 23.4569 0
    endloop
  endfacet
  facet normal -0.0786022 -0.996906 -0
    outer loop
      vertex 140 21 0
      vertex 140.156 20.9877 0
      vertex 140.156 20.9877 2
    endloop
  endfacet
  facet normal -0.0786022 -0.996906 0
    outer loop
      vertex 140 21 0
      vertex 140.156 20.9877 2
      vertex 140 21 2
    endloop
  endfacet
  facet normal 0 0 -1
    outer loop
      vertex 140 21 0
      vertex 140.548 23.4569 0
      vertex 140.156 20.9877 0
    endloop
  endfacet
  facet normal 0 0 1
    outer loop
      vertex 140 21 2
      vertex 140.156 20.9877 2
      vertex 140 23.5 2
    endloop
  endfacet
  facet normal 0.0784075 0.996921 0
    outer loop
      vertex 140 23.5 0
      vertex 140 23.5 2
      vertex 140.548 23.4569 0
    endloop
  endfacet
  facet normal 0 0 1
    outer loop
      vertex 140 23.5 2
      vertex 140.156 20.9877 2
      vertex 140.548 23.4569 2
    endloop
  endfacet
  facet normal 0.0784075 0.996921 -0
    outer loop
      vertex 140 23.5 2
      vertex 140.548 23.4569 2
      vertex 140.548 23.4569 0
    endloop
  endfacet
  facet normal -0.232652 0.97256 0
    outer loop
      vertex 140.156 19.0123 0
      vertex 140.156 19.0123 2
      vertex 140.309 19.0489 0
    endloop
  endfacet
  facet normal 0 0 -1
    outer loop
      vertex 140.156 19.0123 0
      vertex 140.309 19.0489 0
      vertex 145 -1 0
    endloop
  endfacet
  facet normal -0.232652 0.97256 0
    outer loop
      vertex 140.156 19.0123 2
      vertex 140.309 19.0489 2
      vertex 140.309 19.0489 0
    endloop
  endfacet
  facet normal -0 0 1
    outer loop
      vertex 140.156 19.0123 2
      vertex 145 -1 2
      vertex 140.309 19.0489 2
    endloop
  endfacet
  facet normal -0.232652 -0.97256 -0
    outer loop
      vertex 140.156 20.9877 0
      vertex 140.309 20.9511 0
      vertex 140.309 20.9511 2
    endloop
  endfacet
  facet normal -0.232652 -0.97256 0
    outer loop
      vertex 140.156 20.9877 0
      vertex 140.309 20.9511 2
      vertex 140.156 20.9877 2
    endloop
  endfacet
  facet normal 0 0 -1
    outer loop
      vertex 140.156 20.9877 0
      vertex 140.548 23.4569 0
      vertex 140.309 20.9511 0
    endloop
  endfacet
  facet normal 0 0 1
    outer loop
      vertex 140.156 20.9877 2
      vertex 140.309 20.9511 2
      vertex 140.548 23.4569 2
    endloop
  endfacet
  facet normal -0.382896 0.923792 0
    outer loop
      vertex 140.309 19.0489 0
      vertex 140.309 19.0489 2
      vertex 140.454 19.109 0
    endloop
  endfacet
  facet normal 0 0 -1
    outer loop
      vertex 140.309 19.0489 0
      vertex 140.454 19.109 0
      vertex 145 -1 0
    endloop
  endfacet
  facet normal -0.382896 0.923792 0
    outer loop
      vertex 140.309 19.0489 2
      vertex 140.454 19.109 2
      vertex 140.454 19.109 0
    endloop
  endfacet
  facet normal -0 0 1
    outer loop
      vertex 140.309 19.0489 2
      vertex 145 -1 2
      vertex 140.454 19.109 2
    endloop
  endfacet
  facet normal -0.382896 -0.923792 -0
    outer loop
      vertex 140.309 20.9511 0
      vertex 140.454 20.891 0
      vertex 140.454 20.891 2
    endloop
  endfacet
  facet normal -0.382896 -0.923792 0
    outer loop
      vertex 140.309 20.9511 0
      vertex 140.454 20.891 2
      vertex 140.309 20.9511 2
    endloop
  endfacet
  facet normal -0 0 -1
    outer loop
      vertex 140.309 20.9511 0
      vertex 140.548 23.4569 0
      vertex 141.082 23.3287 0
    endloop
  endfacet
  facet normal 0 0 -1
    outer loop
      vertex 140.309 20.9511 0
      vertex 141.082 23.3287 0
      vertex 140.454 20.891 0
    endloop
  endfacet
  facet normal 0 0 1
    outer loop
      vertex 140.309 20.9511 2
      vertex 140.454 20.891 2
      vertex 141.082 23.3287 2
    endloop
  endfacet
  facet normal 0 0 1
    outer loop
      vertex 140.309 20.9511 2
      vertex 141.082 23.3287 2
      vertex 140.548 23.4569 2
    endloop
  endfacet
  facet normal -0.521965 0.852967 0
    outer loop
      vertex 140.454 19.109 0
      vertex 140.454 19.109 2
      vertex 140.588 19.191 0
    endloop
  endfacet
  facet normal 0 0 -1
    outer loop
      vertex 140.454 19.109 0
      vertex 140.588 19.191 0
      vertex 145 -1 0
    endloop
  endfacet
  facet normal -0.521965 0.852967 0
    outer loop
      vertex 140.454 19.109 2
      vertex 140.588 19.191 2
      vertex 140.588 19.191 0
    endloop
  endfacet
  facet normal -0 0 1
    outer loop
      vertex 140.454 19.109 2
      vertex 145 -1 2
      vertex 140.588 19.191 2
    endloop
  endfacet
  facet normal -0.521965 -0.852967 -0
    outer loop
      vertex 140.454 20.891 0
      vertex 140.588 20.809 0
      vertex 140.588 20.809 2
    endloop
  endfacet
  facet normal -0.521965 -0.852967 0
    outer loop
      vertex 140.454 20.891 0
      vertex 140.588 20.809 2
      vertex 140.454 20.891 2
    endloop
  endfacet
  facet normal -0 0 -1
    outer loop
      vertex 140.454 20.891 0
      vertex 141.082 23.3287 0
      vertex 141.589 23.1185 0
    endloop
  endfacet
  facet normal 0 0 -1
    outer loop
      vertex 140.454 20.891 0
      vertex 141.589 23.1185 0
      vertex 140.588 20.809 0
    endloop
  endfacet
  facet normal 0 0 1
    outer loop
      vertex 140.454 20.891 2
      vertex 140.588 20.809 2
      vertex 141.589 23.1185 2
    endloop
  endfacet
  facet normal 0 0 1
    outer loop
      vertex 140.454 20.891 2
      vertex 141.589 23.1185 2
      vertex 141.082 23.3287 2
    endloop
  endfacet
  facet normal 0.233442 0.972371 0
    outer loop
      vertex 140.548 23.4569 0
      vertex 140.548 23.4569 2
      vertex 141.082 23.3287 0
    endloop
  endfacet
  facet normal 0.233442 0.972371 -0
    outer loop
      vertex 140.548 23.4569 2
      vertex 141.082 23.3287 2
      vertex 141.082 23.3287 0
    endloop
  endfacet
  facet normal -0.650423 0.759572 0
    outer loop
      vertex 140.588 19.191 0
      vertex 140.588 19.191 2
      vertex 140.707 19.2929 0
    endloop
  endfacet
  facet normal 0 0 -1
    outer loop
      vertex 140.588 19.191 0
      vertex 140.707 19.2929 0
      vertex 155 1 0
    endloop
  endfacet
  facet normal 0 0 -1
    outer loop
      vertex 140.588 19.191 0
      vertex 155 1 0
      vertex 145 -1 0
    endloop
  endfacet
  facet normal -0.650423 0.759572 0
    outer loop
      vertex 140.588 19.191 2
      vertex 140.707 19.2929 2
      vertex 140.707 19.2929 0
    endloop
  endfacet
  facet normal 0 0 1
    outer loop
      vertex 140.588 19.191 2
      vertex 145 -1 2
      vertex 155 1 2
    endloop
  endfacet
  facet normal -0 0 1
    outer loop
      vertex 140.588 19.191 2
      vertex 155 1 2
      vertex 140.707 19.2929 2
    endloop
  endfacet
  facet normal -0.650423 -0.759572 -0
    outer loop
      vertex 140.588 20.809 0
      vertex 140.707 20.7071 0
      vertex 140.707 20.7071 2
    endloop
  endfacet
  facet normal -0.650423 -0.759572 0
    outer loop
      vertex 140.588 20.809 0
      vertex 140.707 20.7071 2
      vertex 140.588 20.809 2
    endloop
  endfacet
  facet normal -0 0 -1
    outer loop
      vertex 140.588 20.809 0
      vertex 141.589 23.1185 0
      vertex 142.057 22.8316 0
    endloop
  endfacet
  facet normal 0 0 -1
    outer loop
      vertex 140.588 20.809 0
      vertex 142.057 22.8316 0
      vertex 140.707 20.7071 0
    endloop
  endfacet
  facet normal 0 0 1
    outer loop
      vertex 140.588 20.809 2
      vertex 140.707 20.7071 2
      vertex 141.589 23.1185 2
    endloop
  endfacet
  facet normal -0.760066 0.649846 0
    outer loop
      vertex 140.707 19.2929 0
      vertex 140.707 19.2929 2
      vertex 140.809 19.4122 2
    endloop
  endfacet
  facet normal 0 0 -1
    outer loop
      vertex 140.707 19.2929 0
      vertex 140.809 19.4122 0
      vertex 155 1 0
    endloop
  endfacet
  facet normal -0.760066 0.649846 0
    outer loop
      vertex 140.707 19.2929 0
      vertex 140.809 19.4122 2
      vertex 140.809 19.4122 0
    endloop
  endfacet
  facet normal -0 0 1
    outer loop
      vertex 140.707 19.2929 2
      vertex 155 1 2
      vertex 140.809 19.4122 2
    endloop
  endfacet
  facet normal -0.760066 -0.649846 0
    outer loop
      vertex 140.707 20.7071 0
      vertex 140.809 20.5878 0
      vertex 140.707 20.7071 2
    endloop
  endfacet
  facet normal -0 0 -1
    outer loop
      vertex 140.707 20.7071 0
      vertex 142.057 22.8316 0
      vertex 142.475 22.4749 0
    endloop
  endfacet
  facet normal 0 0 -1
    outer loop
      vertex 140.707 20.7071 0
      vertex 142.475 22.4749 0
      vertex 140.809 20.5878 0
    endloop
  endfacet
  facet normal -0.760066 -0.649846 0
    outer loop
      vertex 140.707 20.7071 2
      vertex 140.809 20.5878 0
      vertex 140.809 20.5878 2
    endloop
  endfacet
  facet normal 0 0 1
    outer loop
      vertex 140.707 20.7071 2
      vertex 140.809 20.5878 2
      vertex 141.589 23.1185 2
    endloop
  endfacet
  facet normal -0.85262 0.522532 0
    outer loop
      vertex 140.809 19.4122 0
      vertex 140.809 19.4122 2
      vertex 140.891 19.546 2
    endloop
  endfacet
  facet normal 0 0 -1
    outer loop
      vertex 140.809 19.4122 0
      vertex 140.891 19.546 0
      vertex 143.119 21.589 0
    endloop
  endfacet
  facet normal -0.85262 0.522532 0
    outer loop
      vertex 140.809 19.4122 0
      vertex 140.891 19.546 2
      vertex 140.891 19.546 0
    endloop
  endfacet
  facet normal 0 0 -1
    outer loop
      vertex 140.809 19.4122 0
      vertex 143.119 21.589 0
      vertex 155 1 0
    endloop
  endfacet
  facet normal 0 0 1
    outer loop
      vertex 140.809 19.4122 2
      vertex 143.119 21.589 2
      vertex 140.891 19.546 2
    endloop
  endfacet
  facet normal -0 0 1
    outer loop
      vertex 140.809 19.4122 2
      vertex 155 1 2
      vertex 143.119 21.589 2
    endloop
  endfacet
  facet normal -0.85262 -0.522532 0
    outer loop
      vertex 140.809 20.5878 0
      vertex 140.891 20.454 0
      vertex 140.809 20.5878 2
    endloop
  endfacet
  facet normal -0 0 -1
    outer loop
      vertex 140.809 20.5878 0
      vertex 142.475 22.4749 0
      vertex 142.832 22.0572 0
    endloop
  endfacet
  facet normal 0 0 -1
    outer loop
      vertex 140.809 20.5878 0
      vertex 142.832 22.0572 0
      vertex 140.891 20.454 0
    endloop
  endfacet
  facet normal -0.85262 -0.522532 0
    outer loop
      vertex 140.809 20.5878 2
      vertex 140.891 20.454 0
      vertex 140.891 20.454 2
    endloop
  endfacet
  facet normal 0 0 1
    outer loop
      vertex 140.809 20.5878 2
      vertex 140.891 20.454 2
      vertex 141.589 23.1185 2
    endloop
  endfacet
  facet normal -0.924017 0.382352 0
    outer loop
      vertex 140.891 19.546 0
      vertex 140.891 19.546 2
      vertex 140.951 19.691 2
    endloop
  endfacet
  facet normal 0 -0 -1
    outer loop
      vertex 140.891 19.546 0
      vertex 140.951 19.691 0
      vertex 143.119 21.589 0
    endloop
  endfacet
  facet normal -0.924017 0.382352 0
    outer loop
      vertex 140.891 19.546 0
      vertex 140.951 19.691 2
      vertex 140.951 19.691 0
    endloop
  endfacet
  facet normal 0 0 1
    outer loop
      vertex 140.891 19.546 2
      vertex 143.119 21.589 2
      vertex 140.951 19.691 2
    endloop
  endfacet
  facet normal -0.924017 -0.382352 0
    outer loop
      vertex 140.891 20.454 0
      vertex 140.951 20.309 0
      vertex 140.891 20.454 2
    endloop
  endfacet
  facet normal -0 0 -1
    outer loop
      vertex 140.891 20.454 0
      vertex 142.832 22.0572 0
      vertex 143.119 21.589 0
    endloop
  endfacet
  facet normal 0 0 -1
    outer loop
      vertex 140.891 20.454 0
      vertex 143.119 21.589 0
      vertex 140.951 20.309 0
    endloop
  endfacet
  facet normal -0.924017 -0.382352 0
    outer loop
      vertex 140.891 20.454 2
      vertex 140.951 20.309 0
      vertex 140.951 20.309 2
    endloop
  endfacet
  facet normal 0 0 1
    outer loop
      vertex 140.891 20.454 2
      vertex 140.951 20.309 2
      vertex 141.589 23.1185 2
    endloop
  endfacet
  facet normal -0.971841 0.235636 0
    outer loop
      vertex 140.951 19.691 0
      vertex 140.951 19.691 2
      vertex 140.988 19.8436 2
    endloop
  endfacet
  facet normal 0 -0 -1
    outer loop
      vertex 140.951 19.691 0
      vertex 140.988 19.8436 0
      vertex 143.119 21.589 0
    endloop
  endfacet
  facet normal -0.971841 0.235636 0
    outer loop
      vertex 140.951 19.691 0
      vertex 140.988 19.8436 2
      vertex 140.988 19.8436 0
    endloop
  endfacet
  facet normal 0 0 1
    outer loop
      vertex 140.951 19.691 2
      vertex 143.119 21.589 2
      vertex 140.988 19.8436 2
    endloop
  endfacet
  facet normal -0.971841 -0.235636 0
    outer loop
      vertex 140.951 20.309 0
      vertex 140.988 20.1564 0
      vertex 140.951 20.309 2
    endloop
  endfacet
  facet normal 0 0 -1
    outer loop
      vertex 140.951 20.309 0
      vertex 143.119 21.589 0
      vertex 140.988 20.1564 0
    endloop
  endfacet
  facet normal -0.971841 -0.235636 0
    outer loop
      vertex 140.951 20.309 2
      vertex 140.988 20.1564 0
      vertex 140.988 20.1564 2
    endloop
  endfacet
  facet normal 0 0 1
    outer loop
      vertex 140.951 20.309 2
      vertex 140.988 20.1564 2
      vertex 141.589 23.1185 2
    endloop
  endfacet
  facet normal -0.997069 0.0765015 0
    outer loop
      vertex 140.988 19.8436 0
      vertex 140.988 19.8436 2
      vertex 141 20 2
    endloop
  endfacet
  facet normal 0 -0 -1
    outer loop
      vertex 140.988 19.8436 0
      vertex 141 20 0
      vertex 143.119 21.589 0
    endloop
  endfacet
  facet normal -0.997069 0.0765015 0
    outer loop
      vertex 140.988 19.8436 0
      vertex 141 20 2
      vertex 141 20 0
    endloop
  endfacet
  facet normal 0 0 1
    outer loop
      vertex 140.988 19.8436 2
      vertex 143.119 21.589 2
      vertex 141 20 2
    endloop
  endfacet
  facet normal -0.997069 -0.0765015 0
    outer loop
      vertex 140.988 20.1564 0
      vertex 141 20 0
      vertex 140.988 20.1564 2
    endloop
  endfacet
  facet normal 0 0 -1
    outer loop
      vertex 140.988 20.1564 0
      vertex 143.119 21.589 0
      vertex 141 20 0
    endloop
  endfacet
  facet normal -0.997069 -0.0765015 0
    outer loop
      vertex 140.988 20.1564 2
      vertex 141 20 0
      vertex 141 20 2
    endloop
  endfacet
  facet normal 0 0 1
    outer loop
      vertex 140.988 20.1564 2
      vertex 141 20 2
      vertex 143.119 21.589 2
    endloop
  endfacet
  facet normal 0 0 1
    outer loop
      vertex 140.988 20.1564 2
      vertex 142.057 22.8316 2
      vertex 141.589 23.1185 2
    endloop
  endfacet
  facet normal 0 0 1
    outer loop
      vertex 140.988 20.1564 2
      vertex 142.475 22.4749 2
      vertex 142.057 22.8316 2
    endloop
  endfacet
  facet normal 0 0 1
    outer loop
      vertex 140.988 20.1564 2
      vertex 142.832 22.0572 2
      vertex 142.475 22.4749 2
    endloop
  endfacet
  facet normal 0 0 1
    outer loop
      vertex 140.988 20.1564 2
      vertex 143.119 21.589 2
      vertex 142.832 22.0572 2
    endloop
  endfacet
  facet normal 0.382985 0.923755 0
    outer loop
      vertex 141.082 23.3287 0
      vertex 141.082 23.3287 2
      vertex 141.589 23.1185 0
    endloop
  endfacet
  facet normal 0.382985 0.923755 -0
    outer loop
      vertex 141.082 23.3287 2
      vertex 141.589 23.1185 2
      vertex 141.589 23.1185 0
    endloop
  endfacet
  facet normal 0.522643 0.852552 0
    outer loop
      vertex 141.589 23.1185 0
      vertex 141.589 23.1185 2
      vertex 142.057 22.8316 0
    endloop
  endfacet
  facet normal 0.522643 0.852552 -0
    outer loop
      vertex 141.589 23.1185 2
      vertex 142.057 22.8316 2
      vertex 142.057 22.8316 0
    endloop
  endfacet
  facet normal 0.649126 0.760681 0
    outer loop
      vertex 142.057 22.8316 0
      vertex 142.057 22.8316 2
      vertex 142.475 22.4749 0
    endloop
  endfacet
  facet normal 0.649126 0.760681 -0
    outer loop
      vertex 142.057 22.8316 2
      vertex 142.475 22.4749 2
      vertex 142.475 22.4749 0
    endloop
  endfacet
  facet normal 0.760181 0.649712 0
    outer loop
      vertex 142.475 22.4749 0
      vertex 142.475 22.4749 2
      vertex 142.832 22.0572 2
    endloop
  endfacet
  facet normal 0.760181 0.649712 0
    outer loop
      vertex 142.475 22.4749 0
      vertex 142.832 22.0572 2
      vertex 142.832 22.0572 0
    endloop
  endfacet
  facet normal 0.85257 0.522613 0
    outer loop
      vertex 142.832 22.0572 0
      vertex 142.832 22.0572 2
      vertex 143.119 21.589 2
    endloop
  endfacet
  facet normal 0.85257 0.522613 0
    outer loop
      vertex 142.832 22.0572 0
      vertex 143.119 21.589 2
      vertex 143.119 21.589 0
    endloop
  endfacet
  facet normal 0.866136 0.499809 0
    outer loop
      vertex 143.119 21.589 0
      vertex 143.119 21.589 2
      vertex 155 1 2
    endloop
  endfacet
  facet normal 0.866136 0.499809 0
    outer loop
      vertex 143.119 21.589 0
      vertex 155 1 2
      vertex 155 1 0
    endloop
  endfacet
  facet normal 0 -1 -0
    outer loop
      vertex 145 -1 0
      vertex 155 -1 0
      vertex 155 -1 2
    endloop
  endfacet
  facet normal 0 -1 0
    outer loop
      vertex 145 -1 0
      vertex 155 -1 2
      vertex 145 -1 2
    endloop
  endfacet
  facet normal 0 0 -1
    outer loop
      vertex 145 -1 0
      vertex 155 1 0
      vertex 155 -1 0
    endloop
  endfacet
  facet normal 0 0 1
    outer loop
      vertex 145 -1 2
      vertex 155 -1 2
      vertex 155 1 2
    endloop
  endfacet
  facet normal 1 0 0
    outer loop
      vertex 155 -1 0
      vertex 155 1 0
      vertex 155 -1 2
    endloop
  endfacet
  facet normal 1 -0 0
    outer loop
      vertex 155 -1 2
      vertex 155 1 0
      vertex 155 1 2
    endloop
  endfacet
endsolid model
