solid model
  facet normal 0.156416 0.987691 -0
    outer loop
      vertex -0.494427 14.9783 1.8
      vertex 0 14.9 1.8
      vertex 0 14.9 3.8147e-07
    endloop
  endfacet
  facet normal 0.156416 0.987691 0
    outer loop
      vertex -0.494427 14.9783 3.8147e-07
      vertex -0.494427 14.9783 1.8
      vertex 0 14.9 3.8147e-07
    endloop
  endfacet
  facet normal 0 0 1
    outer loop
      vertex -0.494427 18.0217 1.8
      vertex 0 18.1 1.8
      vertex -0.494427 29.1433 1.8
    endloop
  endfacet
  facet normal 0 0 -1
    outer loop
      vertex -0.494427 18.0217 3.8147e-07
      vertex -0.494427 29.1433 3.8147e-07
      vertex 0 29.065 3.8147e-07
    endloop
  endfacet
  facet normal 0.156416 -0.987691 0
    outer loop
      vertex -0.494427 18.0217 3.8147e-07
      vertex 0 18.1 1.8
      vertex -0.494427 18.0217 1.8
    endloop
  endfacet
  facet normal 0.156416 -0.987691 0
    outer loop
      vertex -0.494427 18.0217 3.8147e-07
      vertex 0 18.1 3.8147e-07
      vertex 0 18.1 1.8
    endloop
  endfacet
  facet normal 0 0 -1
    outer loop
      vertex -0.494427 18.0217 3.8147e-07
      vertex 0 29.065 3.8147e-07
      vertex 0 18.1 3.8147e-07
    endloop
  endfacet
  facet normal 0 0 1
    outer loop
      vertex -0.494427 29.1433 1.8
      vertex 0 18.1 1.8
      vertex 0 29.065 1.8
    endloop
  endfacet
  facet normal 0.156416 0.987691 -0
    outer loop
      vertex -0.494427 29.1433 1.8
      vertex 0 29.065 1.8
      vertex 0 29.065 3.8147e-07
    endloop
  endfacet
  facet normal 0.156416 0.987691 0
    outer loop
      vertex -0.494427 29.1433 3.8147e-07
      vertex -0.494427 29.1433 1.8
      vertex 0 29.065 3.8147e-07
    endloop
  endfacet
  facet normal 0.156416 -0.987691 0
    outer loop
      vertex -0.494427 32.1867 3.8147e-07
      vertex 0 32.265 1.8
      vertex -0.494427 32.1867 1.8
    endloop
  endfacet
  facet normal 0.156416 -0.987691 0
    outer loop
      vertex -0.494427 32.1867 3.8147e-07
      vertex 0 32.265 3.8147e-07
      vertex 0 32.265 1.8
    endloop
  endfacet
  facet normal -1 -0 0
    outer loop
      vertex -0.512863 3 1.3
      vertex -0.512863 3 1.8
      vertex -0.512863 4.08159 1.8
    endloop
  endfacet
  facet normal -1 0 0
    outer loop
      vertex -0.512863 3 1.3
      vertex -0.512863 4.08159 1.8
      vertex -0.512863 4.08159 1.3
    endloop
  endfacet
  facet normal 0 0 1
    outer loop
      vertex -0.512863 3 1.8
      vertex 0.158493 4.08159 1.8
      vertex -0.512863 4.08159 1.8
    endloop
  endfacet
  facet normal 0 0 1
    outer loop
      vertex -0.512863 3 1.8
      vertex 0.956528 3.55945 1.8
      vertex 0.158493 4.08159 1.8
    endloop
  endfacet
  facet normal 0 0 1
    outer loop
      vertex -0.512863 3 1.8
      vertex 1.27788 3.21097 1.8
      vertex 0.956528 3.55945 1.8
    endloop
  endfacet
  facet normal 0 0 1
    outer loop
      vertex -0.512863 3 1.8
      vertex 1.69041 3.00189 1.8
      vertex 1.27788 3.21097 1.8
    endloop
  endfacet
  facet normal 0 0 1
    outer loop
      vertex -0.512863 3 1.8
      vertex 12 0 1.8
      vertex 2.19412 2.93221 1.8
    endloop
  endfacet
  facet normal -0 0 1
    outer loop
      vertex -0.512863 3 1.8
      vertex 2.19412 2.93221 1.8
      vertex 1.69041 3.00189 1.8
    endloop
  endfacet
  facet normal 0 1 0
    outer loop
      vertex -0.512863 4.08159 1.3
      vertex -0.512863 4.08159 1.8
      vertex 0.158493 4.08159 1.3
    endloop
  endfacet
  facet normal 0 0 1
    outer loop
      vertex -0.512863 4.08159 1.3
      vertex 0.158493 4.08159 1.3
      vertex -0.512863 4.5631 1.3
    endloop
  endfacet
  facet normal 0 1 -0
    outer loop
      vertex -0.512863 4.08159 1.8
      vertex 0.158493 4.08159 1.8
      vertex 0.158493 4.08159 1.3
    endloop
  endfacet
  facet normal -1 -0 0
    outer loop
      vertex -0.512863 4.5631 1.3
      vertex -0.512863 4.5631 1.8
      vertex -0.512863 7.77739 1.8
    endloop
  endfacet
  facet normal -1 0 0
    outer loop
      vertex -0.512863 4.5631 1.3
      vertex -0.512863 7.77739 1.8
      vertex -0.512863 7.77739 1.3
    endloop
  endfacet
  facet normal -0 0 1
    outer loop
      vertex -0.512863 4.5631 1.3
      vertex 0.158493 4.08159 1.3
      vertex 0.158493 4.5631 1.3
    endloop
  endfacet
  facet normal 0 -1 -0
    outer loop
      vertex -0.512863 4.5631 1.3
      vertex 0.158493 4.5631 1.3
      vertex 0.158493 4.5631 1.8
    endloop
  endfacet
  facet normal 0 -1 0
    outer loop
      vertex -0.512863 4.5631 1.3
      vertex 0.158493 4.5631 1.8
      vertex -0.512863 4.5631 1.8
    endloop
  endfacet
  facet normal 0 0 1
    outer loop
      vertex -0.512863 4.5631 1.8
      vertex 0.158493 4.5631 1.8
      vertex 0.587524 6.14236 1.8
    endloop
  endfacet
  facet normal 0 0 1
    outer loop
      vertex -0.512863 4.5631 1.8
      vertex 0.587524 6.14236 1.8
      vertex -0.512863 7.77739 1.8
    endloop
  endfacet
  facet normal 0 0 1
    outer loop
      vertex -0.512863 7.77739 1.8
      vertex 0 14.9 1.8
      vertex -0.494427 14.9783 1.8
    endloop
  endfacet
  facet normal 0 0 1
    outer loop
      vertex -0.512863 7.77739 1.8
      vertex 0.587524 6.14236 1.8
      vertex 0.721451 6.75719 1.8
    endloop
  endfacet
  facet normal 0 0 1
    outer loop
      vertex -0.512863 7.77739 1.8
      vertex 0.721451 6.75719 1.8
      vertex 0.944672 7.23489 1.8
    endloop
  endfacet
  facet normal 0 0 1
    outer loop
      vertex -0.512863 7.77739 1.8
      vertex 0.944672 7.23489 1.8
      vertex 1.26434 7.57584 1.8
    endloop
  endfacet
  facet normal 0 0 1
    outer loop
      vertex -0.512863 7.77739 1.8
      vertex 1.26434 7.57584 1.8
      vertex 1.68761 7.78041 1.8
    endloop
  endfacet
  facet normal 0 0 1
    outer loop
      vertex -0.512863 7.77739 1.8
      vertex 1.68761 7.78041 1.8
      vertex 0 14.9 1.8
    endloop
  endfacet
  facet normal 0.454049 0.890977 -0
    outer loop
      vertex -0.940456 15.2056 1.8
      vertex -0.494427 14.9783 1.8
      vertex -0.494427 14.9783 3.8147e-07
    endloop
  endfacet
  facet normal 0.454049 0.890977 0
    outer loop
      vertex -0.940456 15.2056 3.8147e-07
      vertex -0.940456 15.2056 1.8
      vertex -0.494427 14.9783 3.8147e-07
    endloop
  endfacet
  facet normal 0 0 1
    outer loop
      vertex -0.940456 17.7944 1.8
      vertex -0.494427 18.0217 1.8
      vertex -0.940456 29.3706 1.8
    endloop
  endfacet
  facet normal 0.454049 -0.890977 0
    outer loop
      vertex -0.940456 17.7944 3.8147e-07
      vertex -0.494427 18.0217 1.8
      vertex -0.940456 17.7944 1.8
    endloop
  endfacet
  facet normal 0.454049 -0.890977 0
    outer loop
      vertex -0.940456 17.7944 3.8147e-07
      vertex -0.494427 18.0217 3.8147e-07
      vertex -0.494427 18.0217 1.8
    endloop
  endfacet
  facet normal 0 0 -1
    outer loop
      vertex -0.940456 17.7944 3.8147e-07
      vertex -0.494427 29.1433 3.8147e-07
      vertex -0.494427 18.0217 3.8147e-07
    endloop
  endfacet
  facet normal 0 0 -1
    outer loop
      vertex -0.940456 17.7944 3.8147e-07
      vertex -0.940456 29.3706 3.8147e-07
      vertex -0.494427 29.1433 3.8147e-07
    endloop
  endfacet
  facet normal 0 0 1
    outer loop
      vertex -0.940456 29.3706 1.8
      vertex -0.494427 18.0217 1.8
      vertex -0.494427 29.1433 1.8
    endloop
  endfacet
  facet normal 0.454049 0.890977 -0
    outer loop
      vertex -0.940456 29.3706 1.8
      vertex -0.494427 29.1433 1.8
      vertex -0.494427 29.1433 3.8147e-07
    endloop
  endfacet
  facet normal 0.454049 0.890977 0
    outer loop
      vertex -0.940456 29.3706 3.8147e-07
      vertex -0.940456 29.3706 1.8
      vertex -0.494427 29.1433 3.8147e-07
    endloop
  endfacet
  facet normal 0.454049 -0.890977 0
    outer loop
      vertex -0.940456 31.9594 3.8147e-07
      vertex -0.494427 32.1867 1.8
      vertex -0.940456 31.9594 1.8
    endloop
  endfacet
  facet normal 0.454049 -0.890977 0
    outer loop
      vertex -0.940456 31.9594 3.8147e-07
      vertex -0.494427 32.1867 3.8147e-07
      vertex -0.494427 32.1867 1.8
    endloop
  endfacet
  facet normal 0 0 1
    outer loop
      vertex -1.08926 3 1.3
      vertex -0.512863 3 1.3
      vertex -1.08926 4.08159 1.3
    endloop
  endfacet
  facet normal 0 1 0
    outer loop
      vertex -1.08926 3 1.3
      vertex -1.08926 3 1.8
      vertex -0.512863 3 1.3
    endloop
  endfacet
  facet normal 1 0 0
    outer loop
      vertex -1.08926 3 1.3
      vertex -1.08926 4.08159 1.3
      vertex -1.08926 3 1.8
    endloop
  endfacet
  facet normal 0 1 -0
    outer loop
      vertex -1.08926 3 1.8
      vertex -0.512863 3 1.8
      vertex -0.512863 3 1.3
    endloop
  endfacet
  facet normal 1 -0 0
    outer loop
      vertex -1.08926 3 1.8
      vertex -1.08926 4.08159 1.3
      vertex -1.08926 4.08159 1.8
    endloop
  endfacet
  facet normal 0 0 1
    outer loop
      vertex -1.08926 4.08159 1.3
      vertex -0.512863 3 1.3
      vertex -0.512863 4.08159 1.3
    endloop
  endfacet
  facet normal 0 0 1
    outer loop
      vertex -1.08926 4.08159 1.3
      vertex -0.512863 4.08159 1.3
      vertex -1.08926 4.5631 1.3
    endloop
  endfacet
  facet normal 0 0 1
    outer loop
      vertex -1.08926 4.5631 1.3
      vertex -0.512863 4.08159 1.3
      vertex -0.512863 4.5631 1.3
    endloop
  endfacet
  facet normal 0 0 1
    outer loop
      vertex -1.08926 4.5631 1.3
      vertex -0.512863 4.5631 1.3
      vertex -1.08926 7.0891 1.3
    endloop
  endfacet
  facet normal 1 0 0
    outer loop
      vertex -1.08926 4.5631 1.3
      vertex -1.08926 7.0891 1.3
      vertex -1.08926 4.5631 1.8
    endloop
  endfacet
  facet normal 1 -0 0
    outer loop
      vertex -1.08926 4.5631 1.8
      vertex -1.08926 7.0891 1.3
      vertex -1.08926 7.0891 1.8
    endloop
  endfacet
  facet normal -0 0 1
    outer loop
      vertex -1.08926 7.0891 1.3
      vertex -0.512863 4.5631 1.3
      vertex -0.512863 7.77739 1.3
    endloop
  endfacet
  facet normal -0.905912 0.423466 0
    outer loop
      vertex -1.10283 7.06007 1.3
      vertex -1.08926 7.0891 1.8
      vertex -1.08926 7.0891 1.3
    endloop
  endfacet
  facet normal -0.905912 0.423466 0
    outer loop
      vertex -1.10283 7.06007 1.3
      vertex -1.10283 7.06007 1.8
      vertex -1.08926 7.0891 1.8
    endloop
  endfacet
  facet normal -0 0 1
    outer loop
      vertex -1.10283 7.06007 1.8
      vertex -1.08926 4.5631 1.8
      vertex -1.08926 7.0891 1.8
    endloop
  endfacet
  facet normal -0.884132 0.467236 0
    outer loop
      vertex -1.13448 7.00018 1.3
      vertex -1.10283 7.06007 1.8
      vertex -1.10283 7.06007 1.3
    endloop
  endfacet
  facet normal -0.884132 0.467236 0
    outer loop
      vertex -1.13448 7.00018 1.3
      vertex -1.13448 7.00018 1.8
      vertex -1.10283 7.06007 1.8
    endloop
  endfacet
  facet normal -0 0 1
    outer loop
      vertex -1.13448 7.00018 1.8
      vertex -1.08926 4.5631 1.8
      vertex -1.10283 7.06007 1.8
    endloop
  endfacet
  facet normal 0 -1 -0
    outer loop
      vertex -1.1537 7.77739 1.3
      vertex -0.512863 7.77739 1.3
      vertex -0.512863 7.77739 1.8
    endloop
  endfacet
  facet normal 0 -1 0
    outer loop
      vertex -1.1537 7.77739 1.3
      vertex -0.512863 7.77739 1.8
      vertex -1.1537 7.77739 1.8
    endloop
  endfacet
  facet normal -0 0 1
    outer loop
      vertex -1.1537 7.77739 1.3
      vertex -1.08926 7.0891 1.3
      vertex -0.512863 7.77739 1.3
    endloop
  endfacet
  facet normal 0 0 1
    outer loop
      vertex -1.1537 7.77739 1.3
      vertex -1.10283 7.06007 1.3
      vertex -1.08926 7.0891 1.3
    endloop
  endfacet
  facet normal 0 0 1
    outer loop
      vertex -1.1537 7.77739 1.3
      vertex -1.13448 7.00018 1.3
      vertex -1.10283 7.06007 1.3
    endloop
  endfacet
  facet normal 0 0 1
    outer loop
      vertex -1.1537 7.77739 1.8
      vertex -0.494427 14.9783 1.8
      vertex -0.940456 15.2056 1.8
    endloop
  endfacet
  facet normal 0 0 1
    outer loop
      vertex -1.1537 7.77739 1.8
      vertex -0.512863 7.77739 1.8
      vertex -0.494427 14.9783 1.8
    endloop
  endfacet
  facet normal 0 0 1
    outer loop
      vertex -1.1842 6.90939 1.3
      vertex -1.13448 7.00018 1.3
      vertex -1.1537 7.77739 1.3
    endloop
  endfacet
  facet normal -0.877089 0.480327 0
    outer loop
      vertex -1.1842 6.90939 1.3
      vertex -1.13448 7.00018 1.8
      vertex -1.13448 7.00018 1.3
    endloop
  endfacet
  facet normal -0.877089 0.480327 0
    outer loop
      vertex -1.1842 6.90939 1.3
      vertex -1.1842 6.90939 1.8
      vertex -1.13448 7.00018 1.8
    endloop
  endfacet
  facet normal -0 0 1
    outer loop
      vertex -1.1842 6.90939 1.8
      vertex -1.08926 4.5631 1.8
      vertex -1.13448 7.00018 1.8
    endloop
  endfacet
  facet normal 0 0 1
    outer loop
      vertex -1.23808 6.81371 1.3
      vertex -1.1842 6.90939 1.3
      vertex -1.1537 7.77739 1.3
    endloop
  endfacet
  facet normal -0.871342 0.490676 0
    outer loop
      vertex -1.23808 6.81371 1.3
      vertex -1.1842 6.90939 1.8
      vertex -1.1842 6.90939 1.3
    endloop
  endfacet
  facet normal -0.871342 0.490676 0
    outer loop
      vertex -1.23808 6.81371 1.3
      vertex -1.23808 6.81371 1.8
      vertex -1.1842 6.90939 1.8
    endloop
  endfacet
  facet normal -0 0 1
    outer loop
      vertex -1.23808 6.81371 1.8
      vertex -1.08926 4.5631 1.8
      vertex -1.1842 6.90939 1.8
    endloop
  endfacet
  facet normal 0 0 1
    outer loop
      vertex -1.28217 6.73911 1.3
      vertex -1.23808 6.81371 1.3
      vertex -1.1537 7.77739 1.3
    endloop
  endfacet
  facet normal -0.860885 0.508799 0
    outer loop
      vertex -1.28217 6.73911 1.3
      vertex -1.23808 6.81371 1.8
      vertex -1.23808 6.81371 1.3
    endloop
  endfacet
  facet normal -0.860885 0.508799 0
    outer loop
      vertex -1.28217 6.73911 1.3
      vertex -1.28217 6.73911 1.8
      vertex -1.23808 6.81371 1.8
    endloop
  endfacet
  facet normal -0 0 1
    outer loop
      vertex -1.28217 6.73911 1.8
      vertex -1.08926 4.5631 1.8
      vertex -1.23808 6.81371 1.8
    endloop
  endfacet
  facet normal 0 0 1
    outer loop
      vertex -1.29443 15.5595 1.8
      vertex -1.1537 7.77739 1.8
      vertex -0.940456 15.2056 1.8
    endloop
  endfacet
  facet normal 0.707033 0.707181 0
    outer loop
      vertex -1.29443 15.5595 3.8147e-07
      vertex -0.940456 15.2056 1.8
      vertex -0.940456 15.2056 3.8147e-07
    endloop
  endfacet
  facet normal 0.707033 0.707181 0
    outer loop
      vertex -1.29443 15.5595 3.8147e-07
      vertex -1.29443 15.5595 1.8
      vertex -0.940456 15.2056 1.8
    endloop
  endfacet
  facet normal 0.707033 -0.707181 0
    outer loop
      vertex -1.29443 17.4405 1.8
      vertex -0.940456 17.7944 3.8147e-07
      vertex -0.940456 17.7944 1.8
    endloop
  endfacet
  facet normal 0.707033 -0.707181 0
    outer loop
      vertex -1.29443 17.4405 3.8147e-07
      vertex -0.940456 17.7944 3.8147e-07
      vertex -1.29443 17.4405 1.8
    endloop
  endfacet
  facet normal 0.707033 0.707181 -0
    outer loop
      vertex -1.29443 29.7245 1.8
      vertex -0.940456 29.3706 1.8
      vertex -0.940456 29.3706 3.8147e-07
    endloop
  endfacet
  facet normal 0.707033 0.707181 0
    outer loop
      vertex -1.29443 29.7245 3.8147e-07
      vertex -1.29443 29.7245 1.8
      vertex -0.940456 29.3706 3.8147e-07
    endloop
  endfacet
  facet normal 0.707033 -0.707181 0
    outer loop
      vertex -1.29443 31.6055 1.8
      vertex -0.940456 31.9594 3.8147e-07
      vertex -0.940456 31.9594 1.8
    endloop
  endfacet
  facet normal 0.707033 -0.707181 0
    outer loop
      vertex -1.29443 31.6055 3.8147e-07
      vertex -0.940456 31.9594 3.8147e-07
      vertex -1.29443 31.6055 1.8
    endloop
  endfacet
  facet normal 0 0 1
    outer loop
      vertex -1.31645 6.68559 1.3
      vertex -1.28217 6.73911 1.3
      vertex -1.1537 7.77739 1.3
    endloop
  endfacet
  facet normal -0.842077 0.539357 0
    outer loop
      vertex -1.31645 6.68559 1.3
      vertex -1.28217 6.73911 1.8
      vertex -1.28217 6.73911 1.3
    endloop
  endfacet
  facet normal -0.842077 0.539357 0
    outer loop
      vertex -1.31645 6.68559 1.3
      vertex -1.31645 6.68559 1.8
      vertex -1.28217 6.73911 1.8
    endloop
  endfacet
  facet normal -0 0 1
    outer loop
      vertex -1.31645 6.68559 1.8
      vertex -1.08926 4.5631 1.8
      vertex -1.28217 6.73911 1.8
    endloop
  endfacet
  facet normal 0.891038 0.453928 0
    outer loop
      vertex -1.52169 16.0056 3.8147e-07
      vertex -1.29443 15.5595 1.8
      vertex -1.29443 15.5595 3.8147e-07
    endloop
  endfacet
  facet normal 0.891038 0.453928 0
    outer loop
      vertex -1.52169 16.0056 3.8147e-07
      vertex -1.52169 16.0056 1.8
      vertex -1.29443 15.5595 1.8
    endloop
  endfacet
  facet normal 0.891038 -0.453928 0
    outer loop
      vertex -1.52169 16.9944 1.8
      vertex -1.29443 17.4405 3.8147e-07
      vertex -1.29443 17.4405 1.8
    endloop
  endfacet
  facet normal 0.891038 -0.453928 0
    outer loop
      vertex -1.52169 16.9944 3.8147e-07
      vertex -1.29443 17.4405 3.8147e-07
      vertex -1.52169 16.9944 1.8
    endloop
  endfacet
  facet normal 0.891038 0.453928 0
    outer loop
      vertex -1.52169 30.1706 3.8147e-07
      vertex -1.29443 29.7245 1.8
      vertex -1.29443 29.7245 3.8147e-07
    endloop
  endfacet
  facet normal 0.891038 0.453928 0
    outer loop
      vertex -1.52169 30.1706 3.8147e-07
      vertex -1.52169 30.1706 1.8
      vertex -1.29443 29.7245 1.8
    endloop
  endfacet
  facet normal 0.891038 -0.453928 0
    outer loop
      vertex -1.52169 31.1594 1.8
      vertex -1.29443 31.6055 3.8147e-07
      vertex -1.29443 31.6055 1.8
    endloop
  endfacet
  facet normal 0.891038 -0.453928 0
    outer loop
      vertex -1.52169 31.1594 3.8147e-07
      vertex -1.29443 31.6055 3.8147e-07
      vertex -1.52169 31.1594 1.8
    endloop
  endfacet
  facet normal 0.987687 -0.156444 0
    outer loop
      vertex -1.6 16.5 1.8
      vertex -1.52169 16.9944 3.8147e-07
      vertex -1.52169 16.9944 1.8
    endloop
  endfacet
  facet normal 0.987687 0.156444 0
    outer loop
      vertex -1.6 16.5 3.8147e-07
      vertex -1.52169 16.0056 1.8
      vertex -1.52169 16.0056 3.8147e-07
    endloop
  endfacet
  facet normal 0.987687 -0.156444 0
    outer loop
      vertex -1.6 16.5 3.8147e-07
      vertex -1.52169 16.9944 3.8147e-07
      vertex -1.6 16.5 1.8
    endloop
  endfacet
  facet normal 0.987687 0.156444 0
    outer loop
      vertex -1.6 16.5 3.8147e-07
      vertex -1.6 16.5 1.8
      vertex -1.52169 16.0056 1.8
    endloop
  endfacet
  facet normal 0.987687 -0.156444 0
    outer loop
      vertex -1.6 30.665 1.8
      vertex -1.52169 31.1594 3.8147e-07
      vertex -1.52169 31.1594 1.8
    endloop
  endfacet
  facet normal 0.987687 0.156444 0
    outer loop
      vertex -1.6 30.665 3.8147e-07
      vertex -1.52169 30.1706 1.8
      vertex -1.52169 30.1706 3.8147e-07
    endloop
  endfacet
  facet normal 0.987687 -0.156444 0
    outer loop
      vertex -1.6 30.665 3.8147e-07
      vertex -1.52169 31.1594 3.8147e-07
      vertex -1.6 30.665 1.8
    endloop
  endfacet
  facet normal 0.987687 0.156444 0
    outer loop
      vertex -1.6 30.665 3.8147e-07
      vertex -1.6 30.665 1.8
      vertex -1.52169 30.1706 1.8
    endloop
  endfacet
  facet normal 0 0 1
    outer loop
      vertex -11.7874 2.24858 1.8
      vertex -3.34065 4.08159 1.8
      vertex -3.34065 4.55629 1.8
    endloop
  endfacet
  facet normal 0 0 1
    outer loop
      vertex -11.7874 2.24858 1.8
      vertex -3.34065 4.55629 1.8
      vertex -8.5 17.7062 1.8
    endloop
  endfacet
  facet normal -0 0 -1
    outer loop
      vertex -11.7874 2.24858 3.8147e-07
      vertex -0.494427 14.9783 3.8147e-07
      vertex 0 14.9 3.8147e-07
    endloop
  endfacet
  facet normal -0 0 -1
    outer loop
      vertex -11.7874 2.24858 3.8147e-07
      vertex -0.940456 15.2056 3.8147e-07
      vertex -0.494427 14.9783 3.8147e-07
    endloop
  endfacet
  facet normal -0 0 -1
    outer loop
      vertex -11.7874 2.24858 3.8147e-07
      vertex -1.29443 15.5595 3.8147e-07
      vertex -0.940456 15.2056 3.8147e-07
    endloop
  endfacet
  facet normal -0.978125 0.20802 0
    outer loop
      vertex -11.7874 2.24858 3.8147e-07
      vertex -11.7874 2.24858 1.8
      vertex -8.5 17.7062 1.8
    endloop
  endfacet
  facet normal -0.978125 0.20802 0
    outer loop
      vertex -11.7874 2.24858 3.8147e-07
      vertex -8.5 17.7062 1.8
      vertex -8.5 17.7062 3.8147e-07
    endloop
  endfacet
  facet normal -0 0 -1
    outer loop
      vertex -11.7874 2.24858 3.8147e-07
      vertex -8.5 17.7062 3.8147e-07
      vertex -1.29443 15.5595 3.8147e-07
    endloop
  endfacet
  facet normal 0 0 -1
    outer loop
      vertex -11.7874 2.24858 3.8147e-07
      vertex 0 14.9 3.8147e-07
      vertex 11.7874 2.24858 3.8147e-07
    endloop
  endfacet
  facet normal 0 0 -1
    outer loop
      vertex -11.7874 2.24858 3.8147e-07
      vertex 11.7874 2.24858 3.8147e-07
      vertex 12 0 3.8147e-07
    endloop
  endfacet
  facet normal 0 0 1
    outer loop
      vertex -11.9054 1.504 1.8
      vertex -3.34065 4.08159 1.8
      vertex -11.7874 2.24858 1.8
    endloop
  endfacet
  facet normal -0.987674 0.156525 0
    outer loop
      vertex -11.9054 1.504 3.8147e-07
      vertex -11.7874 2.24858 1.8
      vertex -11.7874 2.24858 3.8147e-07
    endloop
  endfacet
  facet normal 0 0 -1
    outer loop
      vertex -11.9054 1.504 3.8147e-07
      vertex -11.7874 2.24858 3.8147e-07
      vertex 12 0 3.8147e-07
    endloop
  endfacet
  facet normal -0.987674 0.156525 0
    outer loop
      vertex -11.9054 1.504 3.8147e-07
      vertex -11.9054 1.504 1.8
      vertex -11.7874 2.24858 1.8
    endloop
  endfacet
  facet normal 0 0 1
    outer loop
      vertex -11.9763 0.753486 1.8
      vertex -3.34065 4.08159 1.8
      vertex -11.9054 1.504 1.8
    endloop
  endfacet
  facet normal -0.995567 0.0940499 0
    outer loop
      vertex -11.9763 0.753486 3.8147e-07
      vertex -11.9054 1.504 1.8
      vertex -11.9054 1.504 3.8147e-07
    endloop
  endfacet
  facet normal 0 0 -1
    outer loop
      vertex -11.9763 0.753486 3.8147e-07
      vertex -11.9054 1.504 3.8147e-07
      vertex 12 0 3.8147e-07
    endloop
  endfacet
  facet normal -0.995567 0.0940499 0
    outer loop
      vertex -11.9763 0.753486 3.8147e-07
      vertex -11.9763 0.753486 1.8
      vertex -11.9054 1.504 1.8
    endloop
  endfacet
  facet normal 0 0 1
    outer loop
      vertex -12 0 1.8
      vertex -0.512863 3 1.8
      vertex -1.08926 3 1.8
    endloop
  endfacet
  facet normal 0 0 1
    outer loop
      vertex -12 0 1.8
      vertex -1.08926 3 1.8
      vertex -3.34065 4.08159 1.8
    endloop
  endfacet
  facet normal 0 0 1
    outer loop
      vertex -12 0 1.8
      vertex -3.34065 4.08159 1.8
      vertex -11.9763 0.753486 1.8
    endloop
  endfacet
  facet normal 0 0 1
    outer loop
      vertex -12 0 1.8
      vertex 12 0 1.8
      vertex -0.512863 3 1.8
    endloop
  endfacet
  facet normal -0.999506 0.0314383 0
    outer loop
      vertex -12 0 3.8147e-07
      vertex -11.9763 0.753486 1.8
      vertex -11.9763 0.753486 3.8147e-07
    endloop
  endfacet
  facet normal 0 -0 -1
    outer loop
      vertex -12 0 3.8147e-07
      vertex -11.9763 0.753486 3.8147e-07
      vertex 12 0 3.8147e-07
    endloop
  endfacet
  facet normal -0.999506 0.0314383 0
    outer loop
      vertex -12 0 3.8147e-07
      vertex -12 0 1.8
      vertex -11.9763 0.753486 1.8
    endloop
  endfacet
  facet normal 0 -1 0
    outer loop
      vertex -12 0 3.8147e-07
      vertex 12 0 1.8
      vertex -12 0 1.8
    endloop
  endfacet
  facet normal 0 -1 -0
    outer loop
      vertex -12 0 3.8147e-07
      vertex 12 0 3.8147e-07
      vertex 12 0 1.8
    endloop
  endfacet
  facet normal -0.827477 0.561499 0
    outer loop
      vertex -2.54045 4.88179 1.3
      vertex -1.31645 6.68559 1.8
      vertex -1.31645 6.68559 1.3
    endloop
  endfacet
  facet normal -0.827477 0.561499 0
    outer loop
      vertex -2.54045 4.88179 1.3
      vertex -2.54045 4.88179 1.8
      vertex -1.31645 6.68559 1.8
    endloop
  endfacet
  facet normal -0 0 1
    outer loop
      vertex -2.54045 4.88179 1.8
      vertex -1.08926 4.5631 1.8
      vertex -1.31645 6.68559 1.8
    endloop
  endfacet
  facet normal -0.807759 0.589513 0
    outer loop
      vertex -2.72356 4.63089 1.3
      vertex -2.54045 4.88179 1.8
      vertex -2.54045 4.88179 1.3
    endloop
  endfacet
  facet normal -0.807759 0.589513 0
    outer loop
      vertex -2.72356 4.63089 1.3
      vertex -2.72356 4.63089 1.8
      vertex -2.54045 4.88179 1.8
    endloop
  endfacet
  facet normal -0 0 1
    outer loop
      vertex -2.72356 4.63089 1.8
      vertex -1.08926 4.5631 1.8
      vertex -2.54045 4.88179 1.8
    endloop
  endfacet
  facet normal -0 0 1
    outer loop
      vertex -2.7778 4.5631 1.3
      vertex -1.08926 4.08159 1.3
      vertex -1.08926 4.5631 1.3
    endloop
  endfacet
  facet normal 0 -1 -0
    outer loop
      vertex -2.7778 4.5631 1.3
      vertex -1.08926 4.5631 1.3
      vertex -1.08926 4.5631 1.8
    endloop
  endfacet
  facet normal 0 -1 0
    outer loop
      vertex -2.7778 4.5631 1.3
      vertex -1.08926 4.5631 1.8
      vertex -2.7778 4.5631 1.8
    endloop
  endfacet
  facet normal -0.780824 0.624751 0
    outer loop
      vertex -2.7778 4.5631 1.3
      vertex -2.72356 4.63089 1.8
      vertex -2.72356 4.63089 1.3
    endloop
  endfacet
  facet normal -0.780824 0.624751 0
    outer loop
      vertex -2.7778 4.5631 1.3
      vertex -2.7778 4.5631 1.8
      vertex -2.72356 4.63089 1.8
    endloop
  endfacet
  facet normal 0 0 1
    outer loop
      vertex -2.7778 4.5631 1.8
      vertex -1.08926 4.5631 1.8
      vertex -2.72356 4.63089 1.8
    endloop
  endfacet
  facet normal 0 0 1
    outer loop
      vertex -3.34065 4.08159 1.3
      vertex -1.08926 4.08159 1.3
      vertex -2.7778 4.5631 1.3
    endloop
  endfacet
  facet normal 0 0 1
    outer loop
      vertex -3.34065 4.08159 1.3
      vertex -2.7778 4.5631 1.3
      vertex -3.34065 4.55629 1.3
    endloop
  endfacet
  facet normal 0 1 0
    outer loop
      vertex -3.34065 4.08159 1.3
      vertex -3.34065 4.08159 1.8
      vertex -1.08926 4.08159 1.3
    endloop
  endfacet
  facet normal 1 0 0
    outer loop
      vertex -3.34065 4.08159 1.3
      vertex -3.34065 4.55629 1.3
      vertex -3.34065 4.08159 1.8
    endloop
  endfacet
  facet normal 0 0 1
    outer loop
      vertex -3.34065 4.08159 1.8
      vertex -1.08926 3 1.8
      vertex -1.08926 4.08159 1.8
    endloop
  endfacet
  facet normal 0 1 -0
    outer loop
      vertex -3.34065 4.08159 1.8
      vertex -1.08926 4.08159 1.8
      vertex -1.08926 4.08159 1.3
    endloop
  endfacet
  facet normal 1 -0 0
    outer loop
      vertex -3.34065 4.08159 1.8
      vertex -3.34065 4.55629 1.3
      vertex -3.34065 4.55629 1.8
    endloop
  endfacet
  facet normal 0.827332 -0.561713 0
    outer loop
      vertex -3.34065 4.55629 1.3
      vertex -1.1537 7.77739 1.3
      vertex -3.34065 4.55629 1.8
    endloop
  endfacet
  facet normal 0 0 1
    outer loop
      vertex -3.34065 4.55629 1.3
      vertex -1.31645 6.68559 1.3
      vertex -1.1537 7.77739 1.3
    endloop
  endfacet
  facet normal 0 0 1
    outer loop
      vertex -3.34065 4.55629 1.3
      vertex -2.54045 4.88179 1.3
      vertex -1.31645 6.68559 1.3
    endloop
  endfacet
  facet normal 0 0 1
    outer loop
      vertex -3.34065 4.55629 1.3
      vertex -2.72356 4.63089 1.3
      vertex -2.54045 4.88179 1.3
    endloop
  endfacet
  facet normal 0 0 1
    outer loop
      vertex -3.34065 4.55629 1.3
      vertex -2.7778 4.5631 1.3
      vertex -2.72356 4.63089 1.3
    endloop
  endfacet
  facet normal 0.827332 -0.561713 0
    outer loop
      vertex -3.34065 4.55629 1.8
      vertex -1.1537 7.77739 1.3
      vertex -1.1537 7.77739 1.8
    endloop
  endfacet
  facet normal 0 0 1
    outer loop
      vertex -8.5 17.7062 1.8
      vertex -0.940456 17.7944 1.8
      vertex -0.940456 29.3706 1.8
    endloop
  endfacet
  facet normal 0 0 1
    outer loop
      vertex -8.5 17.7062 1.8
      vertex -0.940456 29.3706 1.8
      vertex -1.29443 29.7245 1.8
    endloop
  endfacet
  facet normal 0 0 1
    outer loop
      vertex -8.5 17.7062 1.8
      vertex -1.1537 7.77739 1.8
      vertex -1.29443 15.5595 1.8
    endloop
  endfacet
  facet normal 0 0 1
    outer loop
      vertex -8.5 17.7062 1.8
      vertex -1.29443 15.5595 1.8
      vertex -1.52169 16.0056 1.8
    endloop
  endfacet
  facet normal 0 0 1
    outer loop
      vertex -8.5 17.7062 1.8
      vertex -1.29443 17.4405 1.8
      vertex -0.940456 17.7944 1.8
    endloop
  endfacet
  facet normal 0 0 1
    outer loop
      vertex -8.5 17.7062 1.8
      vertex -1.29443 29.7245 1.8
      vertex -1.52169 30.1706 1.8
    endloop
  endfacet
  facet normal 0 0 1
    outer loop
      vertex -8.5 17.7062 1.8
      vertex -1.52169 16.0056 1.8
      vertex -1.6 16.5 1.8
    endloop
  endfacet
  facet normal 0 0 1
    outer loop
      vertex -8.5 17.7062 1.8
      vertex -1.52169 16.9944 1.8
      vertex -1.29443 17.4405 1.8
    endloop
  endfacet
  facet normal 0 0 1
    outer loop
      vertex -8.5 17.7062 1.8
      vertex -1.52169 30.1706 1.8
      vertex -8.5 35 1.8
    endloop
  endfacet
  facet normal 0 0 1
    outer loop
      vertex -8.5 17.7062 1.8
      vertex -1.6 16.5 1.8
      vertex -1.52169 16.9944 1.8
    endloop
  endfacet
  facet normal 0 0 1
    outer loop
      vertex -8.5 17.7062 1.8
      vertex -3.34065 4.55629 1.8
      vertex -1.1537 7.77739 1.8
    endloop
  endfacet
  facet normal 0 0 -1
    outer loop
      vertex -8.5 17.7062 3.8147e-07
      vertex -0.940456 17.7944 3.8147e-07
      vertex -1.29443 17.4405 3.8147e-07
    endloop
  endfacet
  facet normal -0 0 -1
    outer loop
      vertex -8.5 17.7062 3.8147e-07
      vertex -0.940456 29.3706 3.8147e-07
      vertex -0.940456 17.7944 3.8147e-07
    endloop
  endfacet
  facet normal 0 0 -1
    outer loop
      vertex -8.5 17.7062 3.8147e-07
      vertex -1.29443 17.4405 3.8147e-07
      vertex -1.52169 16.9944 3.8147e-07
    endloop
  endfacet
  facet normal -0 0 -1
    outer loop
      vertex -8.5 17.7062 3.8147e-07
      vertex -1.29443 29.7245 3.8147e-07
      vertex -0.940456 29.3706 3.8147e-07
    endloop
  endfacet
  facet normal 0 0 -1
    outer loop
      vertex -8.5 17.7062 3.8147e-07
      vertex -1.52169 16.0056 3.8147e-07
      vertex -1.29443 15.5595 3.8147e-07
    endloop
  endfacet
  facet normal 0 0 -1
    outer loop
      vertex -8.5 17.7062 3.8147e-07
      vertex -1.52169 16.9944 3.8147e-07
      vertex -1.6 16.5 3.8147e-07
    endloop
  endfacet
  facet normal -0 0 -1
    outer loop
      vertex -8.5 17.7062 3.8147e-07
      vertex -1.52169 30.1706 3.8147e-07
      vertex -1.29443 29.7245 3.8147e-07
    endloop
  endfacet
  facet normal 0 0 -1
    outer loop
      vertex -8.5 17.7062 3.8147e-07
      vertex -1.6 16.5 3.8147e-07
      vertex -1.52169 16.0056 3.8147e-07
    endloop
  endfacet
  facet normal -1 -0 0
    outer loop
      vertex -8.5 17.7062 3.8147e-07
      vertex -8.5 17.7062 1.8
      vertex -8.5 35 1.8
    endloop
  endfacet
  facet normal -1 0 0
    outer loop
      vertex -8.5 17.7062 3.8147e-07
      vertex -8.5 35 1.8
      vertex -8.5 35 3.8147e-07
    endloop
  endfacet
  facet normal 0 0 -1
    outer loop
      vertex -8.5 17.7062 3.8147e-07
      vertex -8.5 35 3.8147e-07
      vertex -1.52169 30.1706 3.8147e-07
    endloop
  endfacet
  facet normal 0 0 1
    outer loop
      vertex -8.5 35 1.8
      vertex -0.494427 32.1867 1.8
      vertex 0 32.265 1.8
    endloop
  endfacet
  facet normal 0 0 1
    outer loop
      vertex -8.5 35 1.8
      vertex -0.940456 31.9594 1.8
      vertex -0.494427 32.1867 1.8
    endloop
  endfacet
  facet normal 0 0 1
    outer loop
      vertex -8.5 35 1.8
      vertex -1.29443 31.6055 1.8
      vertex -0.940456 31.9594 1.8
    endloop
  endfacet
  facet normal 0 0 1
    outer loop
      vertex -8.5 35 1.8
      vertex -1.52169 30.1706 1.8
      vertex -1.6 30.665 1.8
    endloop
  endfacet
  facet normal 0 0 1
    outer loop
      vertex -8.5 35 1.8
      vertex -1.52169 31.1594 1.8
      vertex -1.29443 31.6055 1.8
    endloop
  endfacet
  facet normal 0 0 1
    outer loop
      vertex -8.5 35 1.8
      vertex -1.6 30.665 1.8
      vertex -1.52169 31.1594 1.8
    endloop
  endfacet
  facet normal -0 0 1
    outer loop
      vertex -8.5 35 1.8
      vertex 0 32.265 1.8
      vertex 8.5 35 1.8
    endloop
  endfacet
  facet normal 0 1 -0
    outer loop
      vertex -8.5 35 1.8
      vertex 8.5 35 1.8
      vertex 8.5 35 3.8147e-07
    endloop
  endfacet
  facet normal 0 0 -1
    outer loop
      vertex -8.5 35 3.8147e-07
      vertex -0.494427 32.1867 3.8147e-07
      vertex -0.940456 31.9594 3.8147e-07
    endloop
  endfacet
  facet normal 0 0 -1
    outer loop
      vertex -8.5 35 3.8147e-07
      vertex -0.940456 31.9594 3.8147e-07
      vertex -1.29443 31.6055 3.8147e-07
    endloop
  endfacet
  facet normal 0 0 -1
    outer loop
      vertex -8.5 35 3.8147e-07
      vertex -1.29443 31.6055 3.8147e-07
      vertex -1.52169 31.1594 3.8147e-07
    endloop
  endfacet
  facet normal 0 0 -1
    outer loop
      vertex -8.5 35 3.8147e-07
      vertex -1.52169 31.1594 3.8147e-07
      vertex -1.6 30.665 3.8147e-07
    endloop
  endfacet
  facet normal 0 0 -1
    outer loop
      vertex -8.5 35 3.8147e-07
      vertex -1.6 30.665 3.8147e-07
      vertex -1.52169 30.1706 3.8147e-07
    endloop
  endfacet
  facet normal 0 1 0
    outer loop
      vertex -8.5 35 3.8147e-07
      vertex -8.5 35 1.8
      vertex 8.5 35 3.8147e-07
    endloop
  endfacet
  facet normal 0 0 -1
    outer loop
      vertex -8.5 35 3.8147e-07
      vertex 0 32.265 3.8147e-07
      vertex -0.494427 32.1867 3.8147e-07
    endloop
  endfacet
  facet normal 0 0 -1
    outer loop
      vertex -8.5 35 3.8147e-07
      vertex 8.5 35 3.8147e-07
      vertex 0 32.265 3.8147e-07
    endloop
  endfacet
  facet normal -0.156416 0.987691 0
    outer loop
      vertex 0 14.9 1.8
      vertex 0.494427 14.9783 1.8
      vertex 0.494427 14.9783 3.8147e-07
    endloop
  endfacet
  facet normal -0 0 1
    outer loop
      vertex 0 14.9 1.8
      vertex 1.68761 7.78041 1.8
      vertex 0.494427 14.9783 1.8
    endloop
  endfacet
  facet normal -0.156416 0.987691 0
    outer loop
      vertex 0 14.9 3.8147e-07
      vertex 0 14.9 1.8
      vertex 0.494427 14.9783 3.8147e-07
    endloop
  endfacet
  facet normal 0 0 -1
    outer loop
      vertex 0 14.9 3.8147e-07
      vertex 0.494427 14.9783 3.8147e-07
      vertex 11.7874 2.24858 3.8147e-07
    endloop
  endfacet
  facet normal 0 0 1
    outer loop
      vertex 0 18.1 1.8
      vertex 0.494427 18.0217 1.8
      vertex 0 29.065 1.8
    endloop
  endfacet
  facet normal 0 0 -1
    outer loop
      vertex 0 18.1 3.8147e-07
      vertex 0 29.065 3.8147e-07
      vertex 0.494427 29.1433 3.8147e-07
    endloop
  endfacet
  facet normal -0.156416 -0.987691 0
    outer loop
      vertex 0 18.1 3.8147e-07
      vertex 0.494427 18.0217 1.8
      vertex 0 18.1 1.8
    endloop
  endfacet
  facet normal -0.156416 -0.987691 -0
    outer loop
      vertex 0 18.1 3.8147e-07
      vertex 0.494427 18.0217 3.8147e-07
      vertex 0.494427 18.0217 1.8
    endloop
  endfacet
  facet normal 0 0 -1
    outer loop
      vertex 0 18.1 3.8147e-07
      vertex 0.494427 29.1433 3.8147e-07
      vertex 0.494427 18.0217 3.8147e-07
    endloop
  endfacet
  facet normal -0 0 1
    outer loop
      vertex 0 29.065 1.8
      vertex 0.494427 18.0217 1.8
      vertex 0.494427 29.1433 1.8
    endloop
  endfacet
  facet normal -0.156416 0.987691 0
    outer loop
      vertex 0 29.065 1.8
      vertex 0.494427 29.1433 1.8
      vertex 0.494427 29.1433 3.8147e-07
    endloop
  endfacet
  facet normal -0.156416 0.987691 0
    outer loop
      vertex 0 29.065 3.8147e-07
      vertex 0 29.065 1.8
      vertex 0.494427 29.1433 3.8147e-07
    endloop
  endfacet
  facet normal 0 0 1
    outer loop
      vertex 0 32.265 1.8
      vertex 0.494427 32.1867 1.8
      vertex 8.5 35 1.8
    endloop
  endfacet
  facet normal -0.156416 -0.987691 0
    outer loop
      vertex 0 32.265 3.8147e-07
      vertex 0.494427 32.1867 1.8
      vertex 0 32.265 1.8
    endloop
  endfacet
  facet normal -0.156416 -0.987691 -0
    outer loop
      vertex 0 32.265 3.8147e-07
      vertex 0.494427 32.1867 3.8147e-07
      vertex 0.494427 32.1867 1.8
    endloop
  endfacet
  facet normal 0 0 -1
    outer loop
      vertex 0 32.265 3.8147e-07
      vertex 8.5 35 3.8147e-07
      vertex 0.494427 32.1867 3.8147e-07
    endloop
  endfacet
  facet normal -1 -0 0
    outer loop
      vertex 0.158493 4.08159 1.3
      vertex 0.158493 4.08159 1.8
      vertex 0.158493 4.5631 1.8
    endloop
  endfacet
  facet normal -1 0 0
    outer loop
      vertex 0.158493 4.08159 1.3
      vertex 0.158493 4.5631 1.8
      vertex 0.158493 4.5631 1.3
    endloop
  endfacet
  facet normal 0 0 1
    outer loop
      vertex 0.158493 4.08159 1.8
      vertex 0.588837 4.65198 1.8
      vertex 0.158493 4.5631 1.8
    endloop
  endfacet
  facet normal 0 0 1
    outer loop
      vertex 0.158493 4.08159 1.8
      vertex 0.726715 4.04166 1.8
      vertex 0.588837 4.65198 1.8
    endloop
  endfacet
  facet normal 0 0 1
    outer loop
      vertex 0.158493 4.08159 1.8
      vertex 0.956528 3.55945 1.8
      vertex 0.726715 4.04166 1.8
    endloop
  endfacet
  facet normal 0 0 1
    outer loop
      vertex 0.158493 4.5631 1.8
      vertex 0.542877 5.3904 1.8
      vertex 0.587524 6.14236 1.8
    endloop
  endfacet
  facet normal 0 0 1
    outer loop
      vertex 0.158493 4.5631 1.8
      vertex 0.588837 4.65198 1.8
      vertex 0.542877 5.3904 1.8
    endloop
  endfacet
  facet normal -0.454049 0.890977 0
    outer loop
      vertex 0.494427 14.9783 1.8
      vertex 0.940456 15.2056 1.8
      vertex 0.940456 15.2056 3.8147e-07
    endloop
  endfacet
  facet normal 0 0 1
    outer loop
      vertex 0.494427 14.9783 1.8
      vertex 1.68761 7.78041 1.8
      vertex 2.21448 7.84859 1.8
    endloop
  endfacet
  facet normal -0 0 1
    outer loop
      vertex 0.494427 14.9783 1.8
      vertex 2.21448 7.84859 1.8
      vertex 0.940456 15.2056 1.8
    endloop
  endfacet
  facet normal -0.454049 0.890977 0
    outer loop
      vertex 0.494427 14.9783 3.8147e-07
      vertex 0.494427 14.9783 1.8
      vertex 0.940456 15.2056 3.8147e-07
    endloop
  endfacet
  facet normal 0 0 -1
    outer loop
      vertex 0.494427 14.9783 3.8147e-07
      vertex 0.940456 15.2056 3.8147e-07
      vertex 11.7874 2.24858 3.8147e-07
    endloop
  endfacet
  facet normal 0 0 1
    outer loop
      vertex 0.494427 18.0217 1.8
      vertex 0.940456 17.7944 1.8
      vertex 0.494427 29.1433 1.8
    endloop
  endfacet
  facet normal 0 0 -1
    outer loop
      vertex 0.494427 18.0217 3.8147e-07
      vertex 0.494427 29.1433 3.8147e-07
      vertex 0.940456 29.3706 3.8147e-07
    endloop
  endfacet
  facet normal -0.454049 -0.890977 0
    outer loop
      vertex 0.494427 18.0217 3.8147e-07
      vertex 0.940456 17.7944 1.8
      vertex 0.494427 18.0217 1.8
    endloop
  endfacet
  facet normal -0.454049 -0.890977 -0
    outer loop
      vertex 0.494427 18.0217 3.8147e-07
      vertex 0.940456 17.7944 3.8147e-07
      vertex 0.940456 17.7944 1.8
    endloop
  endfacet
  facet normal 0 0 -1
    outer loop
      vertex 0.494427 18.0217 3.8147e-07
      vertex 0.940456 29.3706 3.8147e-07
      vertex 0.940456 17.7944 3.8147e-07
    endloop
  endfacet
  facet normal -0 0 1
    outer loop
      vertex 0.494427 29.1433 1.8
      vertex 0.940456 17.7944 1.8
      vertex 0.940456 29.3706 1.8
    endloop
  endfacet
  facet normal -0.454049 0.890977 0
    outer loop
      vertex 0.494427 29.1433 1.8
      vertex 0.940456 29.3706 1.8
      vertex 0.940456 29.3706 3.8147e-07
    endloop
  endfacet
  facet normal -0.454049 0.890977 0
    outer loop
      vertex 0.494427 29.1433 3.8147e-07
      vertex 0.494427 29.1433 1.8
      vertex 0.940456 29.3706 3.8147e-07
    endloop
  endfacet
  facet normal 0 0 1
    outer loop
      vertex 0.494427 32.1867 1.8
      vertex 0.940456 31.9594 1.8
      vertex 8.5 35 1.8
    endloop
  endfacet
  facet normal -0.454049 -0.890977 0
    outer loop
      vertex 0.494427 32.1867 3.8147e-07
      vertex 0.940456 31.9594 1.8
      vertex 0.494427 32.1867 1.8
    endloop
  endfacet
  facet normal -0.454049 -0.890977 -0
    outer loop
      vertex 0.494427 32.1867 3.8147e-07
      vertex 0.940456 31.9594 3.8147e-07
      vertex 0.940456 31.9594 1.8
    endloop
  endfacet
  facet normal 0 0 -1
    outer loop
      vertex 0.494427 32.1867 3.8147e-07
      vertex 8.5 35 3.8147e-07
      vertex 0.940456 31.9594 3.8147e-07
    endloop
  endfacet
  facet normal 0.998069 0.0621208 0
    outer loop
      vertex 0.542877 5.3904 1.3
      vertex 0.542877 5.3904 1.8
      vertex 0.588837 4.65198 1.8
    endloop
  endfacet
  facet normal 0.998242 -0.0592698 0
    outer loop
      vertex 0.542877 5.3904 1.3
      vertex 0.587524 6.14236 1.3
      vertex 0.542877 5.3904 1.8
    endloop
  endfacet
  facet normal 0 0 1
    outer loop
      vertex 0.542877 5.3904 1.3
      vertex 0.588837 4.65198 1.3
      vertex 1.15997 5.3904 1.3
    endloop
  endfacet
  facet normal 0.998069 0.0621208 0
    outer loop
      vertex 0.542877 5.3904 1.3
      vertex 0.588837 4.65198 1.8
      vertex 0.588837 4.65198 1.3
    endloop
  endfacet
  facet normal 0 0 1
    outer loop
      vertex 0.542877 5.3904 1.3
      vertex 1.15997 5.3904 1.3
      vertex 1.18729 6.0233 1.3
    endloop
  endfacet
  facet normal 0 0 1
    outer loop
      vertex 0.542877 5.3904 1.3
      vertex 1.18729 6.0233 1.3
      vertex 0.587524 6.14236 1.3
    endloop
  endfacet
  facet normal 0.998242 -0.0592698 0
    outer loop
      vertex 0.542877 5.3904 1.8
      vertex 0.587524 6.14236 1.3
      vertex 0.587524 6.14236 1.8
    endloop
  endfacet
  facet normal 0.977088 -0.212837 0
    outer loop
      vertex 0.587524 6.14236 1.3
      vertex 0.721451 6.75719 1.3
      vertex 0.587524 6.14236 1.8
    endloop
  endfacet
  facet normal 0 0 1
    outer loop
      vertex 0.587524 6.14236 1.3
      vertex 1.18729 6.0233 1.3
      vertex 1.26921 6.5251 1.3
    endloop
  endfacet
  facet normal 0 0 1
    outer loop
      vertex 0.587524 6.14236 1.3
      vertex 1.26921 6.5251 1.3
      vertex 0.721451 6.75719 1.3
    endloop
  endfacet
  facet normal 0.977088 -0.212837 0
    outer loop
      vertex 0.587524 6.14236 1.8
      vertex 0.721451 6.75719 1.3
      vertex 0.721451 6.75719 1.8
    endloop
  endfacet
  facet normal 0.975419 0.220358 0
    outer loop
      vertex 0.588837 4.65198 1.3
      vertex 0.588837 4.65198 1.8
      vertex 0.726715 4.04166 1.8
    endloop
  endfacet
  facet normal 0 0 1
    outer loop
      vertex 0.588837 4.65198 1.3
      vertex 0.726715 4.04166 1.3
      vertex 1.15997 5.3904 1.3
    endloop
  endfacet
  facet normal 0.975419 0.220358 0
    outer loop
      vertex 0.588837 4.65198 1.3
      vertex 0.726715 4.04166 1.8
      vertex 0.726715 4.04166 1.3
    endloop
  endfacet
  facet normal 0.905969 -0.423344 0
    outer loop
      vertex 0.721451 6.75719 1.3
      vertex 0.944672 7.23489 1.3
      vertex 0.721451 6.75719 1.8
    endloop
  endfacet
  facet normal 0 0 1
    outer loop
      vertex 0.721451 6.75719 1.3
      vertex 1.26921 6.5251 1.3
      vertex 1.40578 6.8958 1.3
    endloop
  endfacet
  facet normal 0 0 1
    outer loop
      vertex 0.721451 6.75719 1.3
      vertex 1.40578 6.8958 1.3
      vertex 0.944672 7.23489 1.3
    endloop
  endfacet
  facet normal 0.905969 -0.423344 0
    outer loop
      vertex 0.721451 6.75719 1.8
      vertex 0.944672 7.23489 1.3
      vertex 0.944672 7.23489 1.8
    endloop
  endfacet
  facet normal 0.902723 0.430222 0
    outer loop
      vertex 0.726715 4.04166 1.3
      vertex 0.726715 4.04166 1.8
      vertex 0.956528 3.55945 1.8
    endloop
  endfacet
  facet normal 0 0 1
    outer loop
      vertex 0.726715 4.04166 1.3
      vertex 0.956528 3.55945 1.3
      vertex 1.15997 5.3904 1.3
    endloop
  endfacet
  facet normal 0.902723 0.430222 0
    outer loop
      vertex 0.726715 4.04166 1.3
      vertex 0.956528 3.55945 1.8
      vertex 0.956528 3.55945 1.3
    endloop
  endfacet
  facet normal 0 0 1
    outer loop
      vertex 0.940456 15.2056 1.8
      vertex 2.21448 7.84859 1.8
      vertex 2.72813 7.77965 1.8
    endloop
  endfacet
  facet normal -0 0 1
    outer loop
      vertex 0.940456 15.2056 1.8
      vertex 2.72813 7.77965 1.8
      vertex 1.29443 15.5595 1.8
    endloop
  endfacet
  facet normal -0.707033 0.707181 0
    outer loop
      vertex 0.940456 15.2056 3.8147e-07
      vertex 0.940456 15.2056 1.8
      vertex 1.29443 15.5595 1.8
    endloop
  endfacet
  facet normal -0.707033 0.707181 0
    outer loop
      vertex 0.940456 15.2056 3.8147e-07
      vertex 1.29443 15.5595 1.8
      vertex 1.29443 15.5595 3.8147e-07
    endloop
  endfacet
  facet normal 0 0 -1
    outer loop
      vertex 0.940456 15.2056 3.8147e-07
      vertex 1.29443 15.5595 3.8147e-07
      vertex 8.5 17.7062 3.8147e-07
    endloop
  endfacet
  facet normal 0 0 -1
    outer loop
      vertex 0.940456 15.2056 3.8147e-07
      vertex 8.5 17.7062 3.8147e-07
      vertex 11.7874 2.24858 3.8147e-07
    endloop
  endfacet
  facet normal 0 0 1
    outer loop
      vertex 0.940456 17.7944 1.8
      vertex 1.29443 17.4405 1.8
      vertex 8.5 17.7062 1.8
    endloop
  endfacet
  facet normal -0.707033 -0.707181 0
    outer loop
      vertex 0.940456 17.7944 1.8
      vertex 1.29443 17.4405 3.8147e-07
      vertex 1.29443 17.4405 1.8
    endloop
  endfacet
  facet normal -0 0 1
    outer loop
      vertex 0.940456 17.7944 1.8
      vertex 8.5 17.7062 1.8
      vertex 0.940456 29.3706 1.8
    endloop
  endfacet
  facet normal 0 0 -1
    outer loop
      vertex 0.940456 17.7944 3.8147e-07
      vertex 0.940456 29.3706 3.8147e-07
      vertex 8.5 17.7062 3.8147e-07
    endloop
  endfacet
  facet normal -0.707033 -0.707181 0
    outer loop
      vertex 0.940456 17.7944 3.8147e-07
      vertex 1.29443 17.4405 3.8147e-07
      vertex 0.940456 17.7944 1.8
    endloop
  endfacet
  facet normal 0 0 -1
    outer loop
      vertex 0.940456 17.7944 3.8147e-07
      vertex 8.5 17.7062 3.8147e-07
      vertex 1.29443 17.4405 3.8147e-07
    endloop
  endfacet
  facet normal -0.707033 0.707181 0
    outer loop
      vertex 0.940456 29.3706 1.8
      vertex 1.29443 29.7245 1.8
      vertex 1.29443 29.7245 3.8147e-07
    endloop
  endfacet
  facet normal -0 0 1
    outer loop
      vertex 0.940456 29.3706 1.8
      vertex 8.5 17.7062 1.8
      vertex 1.29443 29.7245 1.8
    endloop
  endfacet
  facet normal -0.707033 0.707181 0
    outer loop
      vertex 0.940456 29.3706 3.8147e-07
      vertex 0.940456 29.3706 1.8
      vertex 1.29443 29.7245 3.8147e-07
    endloop
  endfacet
  facet normal 0 0 -1
    outer loop
      vertex 0.940456 29.3706 3.8147e-07
      vertex 1.29443 29.7245 3.8147e-07
      vertex 8.5 17.7062 3.8147e-07
    endloop
  endfacet
  facet normal 0 0 1
    outer loop
      vertex 0.940456 31.9594 1.8
      vertex 1.29443 31.6055 1.8
      vertex 8.5 35 1.8
    endloop
  endfacet
  facet normal -0.707033 -0.707181 0
    outer loop
      vertex 0.940456 31.9594 1.8
      vertex 1.29443 31.6055 3.8147e-07
      vertex 1.29443 31.6055 1.8
    endloop
  endfacet
  facet normal -0.707033 -0.707181 0
    outer loop
      vertex 0.940456 31.9594 3.8147e-07
      vertex 1.29443 31.6055 3.8147e-07
      vertex 0.940456 31.9594 1.8
    endloop
  endfacet
  facet normal 0 0 -1
    outer loop
      vertex 0.940456 31.9594 3.8147e-07
      vertex 8.5 35 3.8147e-07
      vertex 1.29443 31.6055 3.8147e-07
    endloop
  endfacet
  facet normal 0.729508 -0.683972 0
    outer loop
      vertex 0.944672 7.23489 1.3
      vertex 1.26434 7.57584 1.3
      vertex 0.944672 7.23489 1.8
    endloop
  endfacet
  facet normal 0 0 1
    outer loop
      vertex 0.944672 7.23489 1.3
      vertex 1.40578 6.8958 1.3
      vertex 1.60489 7.1501 1.3
    endloop
  endfacet
  facet normal -0 0 1
    outer loop
      vertex 0.944672 7.23489 1.3
      vertex 1.60489 7.1501 1.3
      vertex 1.26434 7.57584 1.3
    endloop
  endfacet
  facet normal 0.729508 -0.683972 0
    outer loop
      vertex 0.944672 7.23489 1.8
      vertex 1.26434 7.57584 1.3
      vertex 1.26434 7.57584 1.8
    endloop
  endfacet
  facet normal 0.735142 0.677913 0
    outer loop
      vertex 0.956528 3.55945 1.3
      vertex 0.956528 3.55945 1.8
      vertex 1.27788 3.21097 1.8
    endloop
  endfacet
  facet normal 0 0 1
    outer loop
      vertex 0.956528 3.55945 1.3
      vertex 1.18767 4.77292 1.3
      vertex 1.15997 5.3904 1.3
    endloop
  endfacet
  facet normal 0 0 1
    outer loop
      vertex 0.956528 3.55945 1.3
      vertex 1.27072 4.27675 1.3
      vertex 1.18767 4.77292 1.3
    endloop
  endfacet
  facet normal 0 0 1
    outer loop
      vertex 0.956528 3.55945 1.3
      vertex 1.27788 3.21097 1.3
      vertex 1.60789 3.64006 1.3
    endloop
  endfacet
  facet normal 0.735142 0.677913 0
    outer loop
      vertex 0.956528 3.55945 1.3
      vertex 1.27788 3.21097 1.8
      vertex 1.27788 3.21097 1.3
    endloop
  endfacet
  facet normal 0 0 1
    outer loop
      vertex 0.956528 3.55945 1.3
      vertex 1.40918 3.90189 1.3
      vertex 1.27072 4.27675 1.3
    endloop
  endfacet
  facet normal 0 0 1
    outer loop
      vertex 0.956528 3.55945 1.3
      vertex 1.60789 3.64006 1.3
      vertex 1.40918 3.90189 1.3
    endloop
  endfacet
  facet normal -0.99907 0.0431262 0
    outer loop
      vertex 1.15997 5.3904 1.3
      vertex 1.15997 5.3904 1.8
      vertex 1.18729 6.0233 1.8
    endloop
  endfacet
  facet normal -0.99907 0.0431262 0
    outer loop
      vertex 1.15997 5.3904 1.3
      vertex 1.18729 6.0233 1.8
      vertex 1.18729 6.0233 1.3
    endloop
  endfacet
  facet normal -0.998995 -0.0448147 0
    outer loop
      vertex 1.15997 5.3904 1.3
      vertex 1.18767 4.77292 1.3
      vertex 1.15997 5.3904 1.8
    endloop
  endfacet
  facet normal -0.998995 -0.0448147 0
    outer loop
      vertex 1.15997 5.3904 1.8
      vertex 1.18767 4.77292 1.3
      vertex 1.18767 4.77292 1.8
    endloop
  endfacet
  facet normal 0 -0 1
    outer loop
      vertex 1.15997 5.3904 1.8
      vertex 1.18767 4.77292 1.8
      vertex 3.21394 4.78308 1.8
    endloop
  endfacet
  facet normal 0 0 1
    outer loop
      vertex 1.15997 5.3904 1.8
      vertex 3.21394 4.78308 1.8
      vertex 3.24182 5.3904 1.8
    endloop
  endfacet
  facet normal 0 0 1
    outer loop
      vertex 1.15997 5.3904 1.8
      vertex 3.21526 6.01653 1.8
      vertex 1.18729 6.0233 1.8
    endloop
  endfacet
  facet normal 0 0 1
    outer loop
      vertex 1.15997 5.3904 1.8
      vertex 3.24182 5.3904 1.8
      vertex 3.21526 6.01653 1.8
    endloop
  endfacet
  facet normal -0.986935 0.161119 0
    outer loop
      vertex 1.18729 6.0233 1.3
      vertex 1.18729 6.0233 1.8
      vertex 1.26921 6.5251 1.8
    endloop
  endfacet
  facet normal -0.986935 0.161119 0
    outer loop
      vertex 1.18729 6.0233 1.3
      vertex 1.26921 6.5251 1.8
      vertex 1.26921 6.5251 1.3
    endloop
  endfacet
  facet normal 0 0 1
    outer loop
      vertex 1.18729 6.0233 1.8
      vertex 3.13557 6.51608 1.8
      vertex 1.26921 6.5251 1.8
    endloop
  endfacet
  facet normal -0 0 1
    outer loop
      vertex 1.18729 6.0233 1.8
      vertex 3.21526 6.01653 1.8
      vertex 3.13557 6.51608 1.8
    endloop
  endfacet
  facet normal -0.986279 -0.165086 0
    outer loop
      vertex 1.18767 4.77292 1.3
      vertex 1.27072 4.27675 1.3
      vertex 1.18767 4.77292 1.8
    endloop
  endfacet
  facet normal -0.986279 -0.165086 0
    outer loop
      vertex 1.18767 4.77292 1.8
      vertex 1.27072 4.27675 1.3
      vertex 1.27072 4.27675 1.8
    endloop
  endfacet
  facet normal 0 -0 1
    outer loop
      vertex 1.18767 4.77292 1.8
      vertex 1.27072 4.27675 1.8
      vertex 3.13031 4.2903 1.8
    endloop
  endfacet
  facet normal 0 0 1
    outer loop
      vertex 1.18767 4.77292 1.8
      vertex 3.13031 4.2903 1.8
      vertex 3.21394 4.78308 1.8
    endloop
  endfacet
  facet normal -0 0 1
    outer loop
      vertex 1.26434 7.57584 1.3
      vertex 1.60489 7.1501 1.3
      vertex 1.68761 7.78041 1.3
    endloop
  endfacet
  facet normal 0.435151 -0.900358 0
    outer loop
      vertex 1.26434 7.57584 1.3
      vertex 1.68761 7.78041 1.3
      vertex 1.68761 7.78041 1.8
    endloop
  endfacet
  facet normal 0.435151 -0.900358 0
    outer loop
      vertex 1.26434 7.57584 1.3
      vertex 1.68761 7.78041 1.8
      vertex 1.26434 7.57584 1.8
    endloop
  endfacet
  facet normal -0.938346 0.345697 0
    outer loop
      vertex 1.26921 6.5251 1.3
      vertex 1.26921 6.5251 1.8
      vertex 1.40578 6.8958 1.8
    endloop
  endfacet
  facet normal -0.938346 0.345697 0
    outer loop
      vertex 1.26921 6.5251 1.3
      vertex 1.40578 6.8958 1.8
      vertex 1.40578 6.8958 1.3
    endloop
  endfacet
  facet normal 0 0 1
    outer loop
      vertex 1.26921 6.5251 1.8
      vertex 3.00278 6.88904 1.8
      vertex 1.40578 6.8958 1.8
    endloop
  endfacet
  facet normal -0 0 1
    outer loop
      vertex 1.26921 6.5251 1.8
      vertex 3.13557 6.51608 1.8
      vertex 3.00278 6.88904 1.8
    endloop
  endfacet
  facet normal -0.938056 -0.346485 0
    outer loop
      vertex 1.27072 4.27675 1.3
      vertex 1.40918 3.90189 1.3
      vertex 1.27072 4.27675 1.8
    endloop
  endfacet
  facet normal -0.938056 -0.346485 0
    outer loop
      vertex 1.27072 4.27675 1.8
      vertex 1.40918 3.90189 1.3
      vertex 1.40918 3.90189 1.8
    endloop
  endfacet
  facet normal 0 -0 1
    outer loop
      vertex 1.27072 4.27675 1.8
      vertex 1.40918 3.90189 1.8
      vertex 2.99092 3.91205 1.8
    endloop
  endfacet
  facet normal 0 0 1
    outer loop
      vertex 1.27072 4.27675 1.8
      vertex 2.99092 3.91205 1.8
      vertex 3.13031 4.2903 1.8
    endloop
  endfacet
  facet normal 0.452076 0.891979 0
    outer loop
      vertex 1.27788 3.21097 1.3
      vertex 1.27788 3.21097 1.8
      vertex 1.69041 3.00189 1.3
    endloop
  endfacet
  facet normal 0 0 1
    outer loop
      vertex 1.27788 3.21097 1.3
      vertex 1.69041 3.00189 1.3
      vertex 1.60789 3.64006 1.3
    endloop
  endfacet
  facet normal 0.452076 0.891979 -0
    outer loop
      vertex 1.27788 3.21097 1.8
      vertex 1.69041 3.00189 1.8
      vertex 1.69041 3.00189 1.3
    endloop
  endfacet
  facet normal 0 0 1
    outer loop
      vertex 1.29443 15.5595 1.8
      vertex 2.72813 7.77965 1.8
      vertex 3.14348 7.57281 1.8
    endloop
  endfacet
  facet normal 0 0 1
    outer loop
      vertex 1.29443 15.5595 1.8
      vertex 3.14348 7.57281 1.8
      vertex 8.5 17.7062 1.8
    endloop
  endfacet
  facet normal 0 0 1
    outer loop
      vertex 1.29443 15.5595 1.8
      vertex 8.5 17.7062 1.8
      vertex 1.52169 16.0056 1.8
    endloop
  endfacet
  facet normal -0.891038 0.453928 0
    outer loop
      vertex 1.29443 15.5595 3.8147e-07
      vertex 1.29443 15.5595 1.8
      vertex 1.52169 16.0056 1.8
    endloop
  endfacet
  facet normal -0.891038 0.453928 0
    outer loop
      vertex 1.29443 15.5595 3.8147e-07
      vertex 1.52169 16.0056 1.8
      vertex 1.52169 16.0056 3.8147e-07
    endloop
  endfacet
  facet normal 0 0 -1
    outer loop
      vertex 1.29443 15.5595 3.8147e-07
      vertex 1.52169 16.0056 3.8147e-07
      vertex 8.5 17.7062 3.8147e-07
    endloop
  endfacet
  facet normal 0 0 1
    outer loop
      vertex 1.29443 17.4405 1.8
      vertex 1.52169 16.9944 1.8
      vertex 8.5 17.7062 1.8
    endloop
  endfacet
  facet normal -0.891038 -0.453928 0
    outer loop
      vertex 1.29443 17.4405 1.8
      vertex 1.52169 16.9944 3.8147e-07
      vertex 1.52169 16.9944 1.8
    endloop
  endfacet
  facet normal -0.891038 -0.453928 0
    outer loop
      vertex 1.29443 17.4405 3.8147e-07
      vertex 1.52169 16.9944 3.8147e-07
      vertex 1.29443 17.4405 1.8
    endloop
  endfacet
  facet normal 0 0 -1
    outer loop
      vertex 1.29443 17.4405 3.8147e-07
      vertex 8.5 17.7062 3.8147e-07
      vertex 1.52169 16.9944 3.8147e-07
    endloop
  endfacet
  facet normal -0 0 1
    outer loop
      vertex 1.29443 29.7245 1.8
      vertex 8.5 17.7062 1.8
      vertex 1.52169 30.1706 1.8
    endloop
  endfacet
  facet normal -0.891038 0.453928 0
    outer loop
      vertex 1.29443 29.7245 3.8147e-07
      vertex 1.29443 29.7245 1.8
      vertex 1.52169 30.1706 1.8
    endloop
  endfacet
  facet normal -0.891038 0.453928 0
    outer loop
      vertex 1.29443 29.7245 3.8147e-07
      vertex 1.52169 30.1706 1.8
      vertex 1.52169 30.1706 3.8147e-07
    endloop
  endfacet
  facet normal 0 0 -1
    outer loop
      vertex 1.29443 29.7245 3.8147e-07
      vertex 1.52169 30.1706 3.8147e-07
      vertex 8.5 17.7062 3.8147e-07
    endloop
  endfacet
  facet normal 0 0 1
    outer loop
      vertex 1.29443 31.6055 1.8
      vertex 1.52169 31.1594 1.8
      vertex 8.5 35 1.8
    endloop
  endfacet
  facet normal -0.891038 -0.453928 0
    outer loop
      vertex 1.29443 31.6055 1.8
      vertex 1.52169 31.1594 3.8147e-07
      vertex 1.52169 31.1594 1.8
    endloop
  endfacet
  facet normal -0.891038 -0.453928 0
    outer loop
      vertex 1.29443 31.6055 3.8147e-07
      vertex 1.52169 31.1594 3.8147e-07
      vertex 1.29443 31.6055 1.8
    endloop
  endfacet
  facet normal 0 0 -1
    outer loop
      vertex 1.29443 31.6055 3.8147e-07
      vertex 8.5 35 3.8147e-07
      vertex 1.52169 31.1594 3.8147e-07
    endloop
  endfacet
  facet normal -0.787366 0.616486 0
    outer loop
      vertex 1.40578 6.8958 1.3
      vertex 1.40578 6.8958 1.8
      vertex 1.60489 7.1501 1.8
    endloop
  endfacet
  facet normal -0.787366 0.616486 0
    outer loop
      vertex 1.40578 6.8958 1.3
      vertex 1.60489 7.1501 1.8
      vertex 1.60489 7.1501 1.3
    endloop
  endfacet
  facet normal 0 0 1
    outer loop
      vertex 1.40578 6.8958 1.8
      vertex 1.87447 7.30269 1.8
      vertex 1.60489 7.1501 1.8
    endloop
  endfacet
  facet normal 0 0 1
    outer loop
      vertex 1.40578 6.8958 1.8
      vertex 2.21448 7.35355 1.8
      vertex 1.87447 7.30269 1.8
    endloop
  endfacet
  facet normal 0 0 1
    outer loop
      vertex 1.40578 6.8958 1.8
      vertex 3.00278 6.88904 1.8
      vertex 2.21448 7.35355 1.8
    endloop
  endfacet
  facet normal -0.796574 -0.604542 0
    outer loop
      vertex 1.40918 3.90189 1.3
      vertex 1.60789 3.64006 1.3
      vertex 1.40918 3.90189 1.8
    endloop
  endfacet
  facet normal -0.796574 -0.604542 0
    outer loop
      vertex 1.40918 3.90189 1.8
      vertex 1.60789 3.64006 1.3
      vertex 1.60789 3.64006 1.8
    endloop
  endfacet
  facet normal 0 0 1
    outer loop
      vertex 1.40918 3.90189 1.8
      vertex 1.60789 3.64006 1.8
      vertex 1.8718 3.48296 1.8
    endloop
  endfacet
  facet normal 0 0 1
    outer loop
      vertex 1.40918 3.90189 1.8
      vertex 1.8718 3.48296 1.8
      vertex 2.20087 3.43059 1.8
    endloop
  endfacet
  facet normal 0 -0 1
    outer loop
      vertex 1.40918 3.90189 1.8
      vertex 2.20087 3.43059 1.8
      vertex 2.99092 3.91205 1.8
    endloop
  endfacet
  facet normal 0 0 1
    outer loop
      vertex 1.52169 16.0056 1.8
      vertex 8.5 17.7062 1.8
      vertex 1.6 16.5 1.8
    endloop
  endfacet
  facet normal -0.987687 0.156444 0
    outer loop
      vertex 1.52169 16.0056 3.8147e-07
      vertex 1.52169 16.0056 1.8
      vertex 1.6 16.5 1.8
    endloop
  endfacet
  facet normal -0.987687 0.156444 0
    outer loop
      vertex 1.52169 16.0056 3.8147e-07
      vertex 1.6 16.5 1.8
      vertex 1.6 16.5 3.8147e-07
    endloop
  endfacet
  facet normal 0 0 -1
    outer loop
      vertex 1.52169 16.0056 3.8147e-07
      vertex 1.6 16.5 3.8147e-07
      vertex 8.5 17.7062 3.8147e-07
    endloop
  endfacet
  facet normal 0 0 1
    outer loop
      vertex 1.52169 16.9944 1.8
      vertex 1.6 16.5 1.8
      vertex 8.5 17.7062 1.8
    endloop
  endfacet
  facet normal -0.987687 -0.156444 0
    outer loop
      vertex 1.52169 16.9944 1.8
      vertex 1.6 16.5 3.8147e-07
      vertex 1.6 16.5 1.8
    endloop
  endfacet
  facet normal -0.987687 -0.156444 0
    outer loop
      vertex 1.52169 16.9944 3.8147e-07
      vertex 1.6 16.5 3.8147e-07
      vertex 1.52169 16.9944 1.8
    endloop
  endfacet
  facet normal 0 0 -1
    outer loop
      vertex 1.52169 16.9944 3.8147e-07
      vertex 8.5 17.7062 3.8147e-07
      vertex 1.6 16.5 3.8147e-07
    endloop
  endfacet
  facet normal 0 0 1
    outer loop
      vertex 1.52169 30.1706 1.8
      vertex 8.5 17.7062 1.8
      vertex 8.5 35 1.8
    endloop
  endfacet
  facet normal 0 0 1
    outer loop
      vertex 1.52169 30.1706 1.8
      vertex 8.5 35 1.8
      vertex 1.6 30.665 1.8
    endloop
  endfacet
  facet normal -0.987687 0.156444 0
    outer loop
      vertex 1.52169 30.1706 3.8147e-07
      vertex 1.52169 30.1706 1.8
      vertex 1.6 30.665 1.8
    endloop
  endfacet
  facet normal -0.987687 0.156444 0
    outer loop
      vertex 1.52169 30.1706 3.8147e-07
      vertex 1.6 30.665 1.8
      vertex 1.6 30.665 3.8147e-07
    endloop
  endfacet
  facet normal 0 0 -1
    outer loop
      vertex 1.52169 30.1706 3.8147e-07
      vertex 1.6 30.665 3.8147e-07
      vertex 8.5 17.7062 3.8147e-07
    endloop
  endfacet
  facet normal 0 0 1
    outer loop
      vertex 1.52169 31.1594 1.8
      vertex 1.6 30.665 1.8
      vertex 8.5 35 1.8
    endloop
  endfacet
  facet normal -0.987687 -0.156444 0
    outer loop
      vertex 1.52169 31.1594 1.8
      vertex 1.6 30.665 3.8147e-07
      vertex 1.6 30.665 1.8
    endloop
  endfacet
  facet normal -0.987687 -0.156444 0
    outer loop
      vertex 1.52169 31.1594 3.8147e-07
      vertex 1.6 30.665 3.8147e-07
      vertex 1.52169 31.1594 1.8
    endloop
  endfacet
  facet normal 0 0 -1
    outer loop
      vertex 1.52169 31.1594 3.8147e-07
      vertex 8.5 35 3.8147e-07
      vertex 1.6 30.665 3.8147e-07
    endloop
  endfacet
  facet normal 0 0 -1
    outer loop
      vertex 1.6 30.665 3.8147e-07
      vertex 8.5 35 3.8147e-07
      vertex 8.5 17.7062 3.8147e-07
    endloop
  endfacet
  facet normal -0.492592 0.87026 0
    outer loop
      vertex 1.60489 7.1501 1.3
      vertex 1.60489 7.1501 1.8
      vertex 1.87447 7.30269 1.3
    endloop
  endfacet
  facet normal 0 0 1
    outer loop
      vertex 1.60489 7.1501 1.3
      vertex 1.87447 7.30269 1.3
      vertex 1.68761 7.78041 1.3
    endloop
  endfacet
  facet normal -0.492592 0.87026 0
    outer loop
      vertex 1.60489 7.1501 1.8
      vertex 1.87447 7.30269 1.8
      vertex 1.87447 7.30269 1.3
    endloop
  endfacet
  facet normal 0 0 1
    outer loop
      vertex 1.60789 3.64006 1.3
      vertex 1.69041 3.00189 1.3
      vertex 1.8718 3.48296 1.3
    endloop
  endfacet
  facet normal -0.51151 -0.859278 -0
    outer loop
      vertex 1.60789 3.64006 1.3
      vertex 1.8718 3.48296 1.3
      vertex 1.8718 3.48296 1.8
    endloop
  endfacet
  facet normal -0.51151 -0.859278 0
    outer loop
      vertex 1.60789 3.64006 1.3
      vertex 1.8718 3.48296 1.8
      vertex 1.60789 3.64006 1.8
    endloop
  endfacet
  facet normal -0 0 1
    outer loop
      vertex 1.68761 7.78041 1.3
      vertex 1.87447 7.30269 1.3
      vertex 2.21448 7.84859 1.3
    endloop
  endfacet
  facet normal 0.128336 -0.991731 0
    outer loop
      vertex 1.68761 7.78041 1.3
      vertex 2.21448 7.84859 1.3
      vertex 2.21448 7.84859 1.8
    endloop
  endfacet
  facet normal 0.128336 -0.991731 0
    outer loop
      vertex 1.68761 7.78041 1.3
      vertex 2.21448 7.84859 1.8
      vertex 1.68761 7.78041 1.8
    endloop
  endfacet
  facet normal 0.137029 0.990567 0
    outer loop
      vertex 1.69041 3.00189 1.3
      vertex 1.69041 3.00189 1.8
      vertex 2.19412 2.93221 1.3
    endloop
  endfacet
  facet normal 0 0 1
    outer loop
      vertex 1.69041 3.00189 1.3
      vertex 2.19412 2.93221 1.3
      vertex 1.8718 3.48296 1.3
    endloop
  endfacet
  facet normal 0.137029 0.990567 -0
    outer loop
      vertex 1.69041 3.00189 1.8
      vertex 2.19412 2.93221 1.8
      vertex 2.19412 2.93221 1.3
    endloop
  endfacet
  facet normal 0 0 1
    outer loop
      vertex 1.8718 3.48296 1.3
      vertex 2.19412 2.93221 1.3
      vertex 2.20087 3.43059 1.3
    endloop
  endfacet
  facet normal -0.157168 -0.987572 -0
    outer loop
      vertex 1.8718 3.48296 1.3
      vertex 2.20087 3.43059 1.3
      vertex 2.20087 3.43059 1.8
    endloop
  endfacet
  facet normal -0.157168 -0.987572 0
    outer loop
      vertex 1.8718 3.48296 1.3
      vertex 2.20087 3.43059 1.8
      vertex 1.8718 3.48296 1.8
    endloop
  endfacet
  facet normal -0.147938 0.988997 0
    outer loop
      vertex 1.87447 7.30269 1.3
      vertex 1.87447 7.30269 1.8
      vertex 2.21448 7.35355 1.3
    endloop
  endfacet
  facet normal 0 0 1
    outer loop
      vertex 1.87447 7.30269 1.3
      vertex 2.21448 7.35355 1.3
      vertex 2.21448 7.84859 1.3
    endloop
  endfacet
  facet normal -0.147938 0.988997 0
    outer loop
      vertex 1.87447 7.30269 1.8
      vertex 2.21448 7.35355 1.8
      vertex 2.21448 7.35355 1.3
    endloop
  endfacet
  facet normal 0.987674 0.156525 0
    outer loop
      vertex 11.7874 2.24858 3.8147e-07
      vertex 11.7874 2.24858 1.8
      vertex 11.9054 1.504 1.8
    endloop
  endfacet
  facet normal 0.987674 0.156525 0
    outer loop
      vertex 11.7874 2.24858 3.8147e-07
      vertex 11.9054 1.504 1.8
      vertex 11.9054 1.504 3.8147e-07
    endloop
  endfacet
  facet normal 0 0 -1
    outer loop
      vertex 11.7874 2.24858 3.8147e-07
      vertex 11.9054 1.504 3.8147e-07
      vertex 12 0 3.8147e-07
    endloop
  endfacet
  facet normal 0.995567 0.0940499 0
    outer loop
      vertex 11.9054 1.504 3.8147e-07
      vertex 11.9054 1.504 1.8
      vertex 11.9763 0.753486 1.8
    endloop
  endfacet
  facet normal 0.995567 0.0940499 0
    outer loop
      vertex 11.9054 1.504 3.8147e-07
      vertex 11.9763 0.753486 1.8
      vertex 11.9763 0.753486 3.8147e-07
    endloop
  endfacet
  facet normal 0 0 -1
    outer loop
      vertex 11.9054 1.504 3.8147e-07
      vertex 11.9763 0.753486 3.8147e-07
      vertex 12 0 3.8147e-07
    endloop
  endfacet
  facet normal 0.999506 0.0314383 0
    outer loop
      vertex 11.9763 0.753486 3.8147e-07
      vertex 11.9763 0.753486 1.8
      vertex 12 0 1.8
    endloop
  endfacet
  facet normal 0.999506 0.0314383 0
    outer loop
      vertex 11.9763 0.753486 3.8147e-07
      vertex 12 0 1.8
      vertex 12 0 3.8147e-07
    endloop
  endfacet
  facet normal -0.137496 0.990502 0
    outer loop
      vertex 2.19412 2.93221 1.3
      vertex 2.19412 2.93221 1.8
      vertex 2.69875 3.00226 1.3
    endloop
  endfacet
  facet normal 0 0 1
    outer loop
      vertex 2.19412 2.93221 1.3
      vertex 2.52827 3.48409 1.3
      vertex 2.20087 3.43059 1.3
    endloop
  endfacet
  facet normal 0 0 1
    outer loop
      vertex 2.19412 2.93221 1.3
      vertex 2.69875 3.00226 1.3
      vertex 2.52827 3.48409 1.3
    endloop
  endfacet
  facet normal -0 0 1
    outer loop
      vertex 2.19412 2.93221 1.8
      vertex 12 0 1.8
      vertex 2.69875 3.00226 1.8
    endloop
  endfacet
  facet normal -0.137496 0.990502 0
    outer loop
      vertex 2.19412 2.93221 1.8
      vertex 2.69875 3.00226 1.8
      vertex 2.69875 3.00226 1.3
    endloop
  endfacet
  facet normal 0.16127 -0.98691 0
    outer loop
      vertex 2.20087 3.43059 1.3
      vertex 2.52827 3.48409 1.3
      vertex 2.52827 3.48409 1.8
    endloop
  endfacet
  facet normal 0.16127 -0.98691 0
    outer loop
      vertex 2.20087 3.43059 1.3
      vertex 2.52827 3.48409 1.8
      vertex 2.20087 3.43059 1.8
    endloop
  endfacet
  facet normal 0 0 1
    outer loop
      vertex 2.20087 3.43059 1.8
      vertex 2.52827 3.48409 1.8
      vertex 2.79163 3.64458 1.8
    endloop
  endfacet
  facet normal 0 0 1
    outer loop
      vertex 2.20087 3.43059 1.8
      vertex 2.79163 3.64458 1.8
      vertex 2.99092 3.91205 1.8
    endloop
  endfacet
  facet normal 0.153776 0.988106 0
    outer loop
      vertex 2.21448 7.35355 1.3
      vertex 2.21448 7.35355 1.8
      vertex 2.54617 7.30193 1.3
    endloop
  endfacet
  facet normal 0 0 1
    outer loop
      vertex 2.21448 7.35355 1.3
      vertex 2.54617 7.30193 1.3
      vertex 2.21448 7.84859 1.3
    endloop
  endfacet
  facet normal 0.153776 0.988106 -0
    outer loop
      vertex 2.21448 7.35355 1.8
      vertex 2.54617 7.30193 1.8
      vertex 2.54617 7.30193 1.3
    endloop
  endfacet
  facet normal 0 0 1
    outer loop
      vertex 2.21448 7.35355 1.8
      vertex 3.00278 6.88904 1.8
      vertex 2.54617 7.30193 1.8
    endloop
  endfacet
  facet normal 0 0 1
    outer loop
      vertex 2.21448 7.84859 1.3
      vertex 2.54617 7.30193 1.3
      vertex 2.72813 7.77965 1.3
    endloop
  endfacet
  facet normal -0.133023 -0.991113 -0
    outer loop
      vertex 2.21448 7.84859 1.3
      vertex 2.72813 7.77965 1.3
      vertex 2.72813 7.77965 1.8
    endloop
  endfacet
  facet normal -0.133023 -0.991113 0
    outer loop
      vertex 2.21448 7.84859 1.3
      vertex 2.72813 7.77965 1.8
      vertex 2.21448 7.84859 1.8
    endloop
  endfacet
  facet normal 0 0 1
    outer loop
      vertex 2.52827 3.48409 1.3
      vertex 2.69875 3.00226 1.3
      vertex 3.11407 3.21248 1.3
    endloop
  endfacet
  facet normal 0.520382 -0.853934 0
    outer loop
      vertex 2.52827 3.48409 1.3
      vertex 2.79163 3.64458 1.3
      vertex 2.79163 3.64458 1.8
    endloop
  endfacet
  facet normal 0.520382 -0.853934 0
    outer loop
      vertex 2.52827 3.48409 1.3
      vertex 2.79163 3.64458 1.8
      vertex 2.52827 3.48409 1.8
    endloop
  endfacet
  facet normal -0 0 1
    outer loop
      vertex 2.52827 3.48409 1.3
      vertex 3.11407 3.21248 1.3
      vertex 2.79163 3.64458 1.3
    endloop
  endfacet
  facet normal 0.507676 0.861548 0
    outer loop
      vertex 2.54617 7.30193 1.3
      vertex 2.54617 7.30193 1.8
      vertex 2.80894 7.14709 1.3
    endloop
  endfacet
  facet normal 0 0 1
    outer loop
      vertex 2.54617 7.30193 1.3
      vertex 2.80894 7.14709 1.3
      vertex 2.72813 7.77965 1.3
    endloop
  endfacet
  facet normal 0.507676 0.861548 -0
    outer loop
      vertex 2.54617 7.30193 1.8
      vertex 2.80894 7.14709 1.8
      vertex 2.80894 7.14709 1.3
    endloop
  endfacet
  facet normal 0 0 1
    outer loop
      vertex 2.54617 7.30193 1.8
      vertex 3.00278 6.88904 1.8
      vertex 2.80894 7.14709 1.8
    endloop
  endfacet
  facet normal -0.451608 0.892217 0
    outer loop
      vertex 2.69875 3.00226 1.3
      vertex 2.69875 3.00226 1.8
      vertex 3.11407 3.21248 1.3
    endloop
  endfacet
  facet normal -0 0 1
    outer loop
      vertex 2.69875 3.00226 1.8
      vertex 12 0 1.8
      vertex 3.11407 3.21248 1.8
    endloop
  endfacet
  facet normal -0.451608 0.892217 0
    outer loop
      vertex 2.69875 3.00226 1.8
      vertex 3.11407 3.21248 1.8
      vertex 3.11407 3.21248 1.3
    endloop
  endfacet
  facet normal 0 0 1
    outer loop
      vertex 2.72813 7.77965 1.3
      vertex 2.80894 7.14709 1.3
      vertex 3.14348 7.57281 1.3
    endloop
  endfacet
  facet normal -0.445773 -0.895146 -0
    outer loop
      vertex 2.72813 7.77965 1.3
      vertex 3.14348 7.57281 1.3
      vertex 3.14348 7.57281 1.8
    endloop
  endfacet
  facet normal -0.445773 -0.895146 0
    outer loop
      vertex 2.72813 7.77965 1.3
      vertex 3.14348 7.57281 1.8
      vertex 2.72813 7.77965 1.8
    endloop
  endfacet
  facet normal 0.801885 -0.597479 0
    outer loop
      vertex 2.79163 3.64458 1.3
      vertex 2.99092 3.91205 1.3
      vertex 2.79163 3.64458 1.8
    endloop
  endfacet
  facet normal 0 0 1
    outer loop
      vertex 2.79163 3.64458 1.3
      vertex 3.11407 3.21248 1.3
      vertex 3.44012 3.56284 1.3
    endloop
  endfacet
  facet normal -0 0 1
    outer loop
      vertex 2.79163 3.64458 1.3
      vertex 3.44012 3.56284 1.3
      vertex 2.99092 3.91205 1.3
    endloop
  endfacet
  facet normal 0.801885 -0.597479 0
    outer loop
      vertex 2.79163 3.64458 1.8
      vertex 2.99092 3.91205 1.3
      vertex 2.99092 3.91205 1.8
    endloop
  endfacet
  facet normal 0.79955 0.6006 0
    outer loop
      vertex 2.80894 7.14709 1.3
      vertex 2.80894 7.14709 1.8
      vertex 3.00278 6.88904 1.8
    endloop
  endfacet
  facet normal 0 0 1
    outer loop
      vertex 2.80894 7.14709 1.3
      vertex 3.00278 6.88904 1.3
      vertex 3.46048 7.22809 1.3
    endloop
  endfacet
  facet normal 0.79955 0.6006 0
    outer loop
      vertex 2.80894 7.14709 1.3
      vertex 3.00278 6.88904 1.8
      vertex 3.00278 6.88904 1.3
    endloop
  endfacet
  facet normal 0 0 1
    outer loop
      vertex 2.80894 7.14709 1.3
      vertex 3.46048 7.22809 1.3
      vertex 3.14348 7.57281 1.3
    endloop
  endfacet
  facet normal 0.938315 -0.345781 0
    outer loop
      vertex 2.99092 3.91205 1.3
      vertex 3.13031 4.2903 1.3
      vertex 2.99092 3.91205 1.8
    endloop
  endfacet
  facet normal 0 0 1
    outer loop
      vertex 2.99092 3.91205 1.3
      vertex 3.44012 3.56284 1.3
      vertex 3.67465 4.04619 1.3
    endloop
  endfacet
  facet normal 0 0 1
    outer loop
      vertex 2.99092 3.91205 1.3
      vertex 3.67465 4.04619 1.3
      vertex 3.13031 4.2903 1.3
    endloop
  endfacet
  facet normal 0.938315 -0.345781 0
    outer loop
      vertex 2.99092 3.91205 1.8
      vertex 3.13031 4.2903 1.3
      vertex 3.13031 4.2903 1.8
    endloop
  endfacet
  facet normal 0.942069 0.335418 0
    outer loop
      vertex 3.00278 6.88904 1.3
      vertex 3.00278 6.88904 1.8
      vertex 3.13557 6.51608 1.8
    endloop
  endfacet
  facet normal 0 0 1
    outer loop
      vertex 3.00278 6.88904 1.3
      vertex 3.13557 6.51608 1.3
      vertex 3.6837 6.74815 1.3
    endloop
  endfacet
  facet normal 0.942069 0.335418 0
    outer loop
      vertex 3.00278 6.88904 1.3
      vertex 3.13557 6.51608 1.8
      vertex 3.13557 6.51608 1.3
    endloop
  endfacet
  facet normal -0 0 1
    outer loop
      vertex 3.00278 6.88904 1.3
      vertex 3.6837 6.74815 1.3
      vertex 3.46048 7.22809 1.3
    endloop
  endfacet
  facet normal -0.732047 0.681254 0
    outer loop
      vertex 3.11407 3.21248 1.3
      vertex 3.11407 3.21248 1.8
      vertex 3.44012 3.56284 1.8
    endloop
  endfacet
  facet normal -0.732047 0.681254 0
    outer loop
      vertex 3.11407 3.21248 1.3
      vertex 3.44012 3.56284 1.8
      vertex 3.44012 3.56284 1.3
    endloop
  endfacet
  facet normal -0 0 1
    outer loop
      vertex 3.11407 3.21248 1.8
      vertex 12 0 1.8
      vertex 3.44012 3.56284 1.8
    endloop
  endfacet
  facet normal 0.985903 -0.167318 0
    outer loop
      vertex 3.13031 4.2903 1.3
      vertex 3.21394 4.78308 1.3
      vertex 3.13031 4.2903 1.8
    endloop
  endfacet
  facet normal 0 0 1
    outer loop
      vertex 3.13031 4.2903 1.3
      vertex 3.67465 4.04619 1.3
      vertex 3.81537 4.65538 1.3
    endloop
  endfacet
  facet normal 0 0 1
    outer loop
      vertex 3.13031 4.2903 1.3
      vertex 3.81537 4.65538 1.3
      vertex 3.21394 4.78308 1.3
    endloop
  endfacet
  facet normal 0.985903 -0.167318 0
    outer loop
      vertex 3.13031 4.2903 1.8
      vertex 3.21394 4.78308 1.3
      vertex 3.21394 4.78308 1.8
    endloop
  endfacet
  facet normal 0.987514 0.157532 0
    outer loop
      vertex 3.13557 6.51608 1.3
      vertex 3.13557 6.51608 1.8
      vertex 3.21526 6.01653 1.8
    endloop
  endfacet
  facet normal 0 0 1
    outer loop
      vertex 3.13557 6.51608 1.3
      vertex 3.21526 6.01653 1.3
      vertex 3.81763 6.13557 1.3
    endloop
  endfacet
  facet normal 0.987514 0.157532 0
    outer loop
      vertex 3.13557 6.51608 1.3
      vertex 3.21526 6.01653 1.8
      vertex 3.21526 6.01653 1.3
    endloop
  endfacet
  facet normal -0 0 1
    outer loop
      vertex 3.13557 6.51608 1.3
      vertex 3.81763 6.13557 1.3
      vertex 3.6837 6.74815 1.3
    endloop
  endfacet
  facet normal -0.736083 -0.676892 0
    outer loop
      vertex 3.14348 7.57281 1.3
      vertex 3.46048 7.22809 1.3
      vertex 3.14348 7.57281 1.8
    endloop
  endfacet
  facet normal -0.736083 -0.676892 0
    outer loop
      vertex 3.14348 7.57281 1.8
      vertex 3.46048 7.22809 1.3
      vertex 3.46048 7.22809 1.8
    endloop
  endfacet
  facet normal 0 0 1
    outer loop
      vertex 3.14348 7.57281 1.8
      vertex 3.46048 7.22809 1.8
      vertex 8.5 17.7062 1.8
    endloop
  endfacet
  facet normal 0.998948 -0.0458583 0
    outer loop
      vertex 3.21394 4.78308 1.3
      vertex 3.24182 5.3904 1.3
      vertex 3.21394 4.78308 1.8
    endloop
  endfacet
  facet normal 0 0 1
    outer loop
      vertex 3.21394 4.78308 1.3
      vertex 3.81537 4.65538 1.3
      vertex 3.86227 5.3904 1.3
    endloop
  endfacet
  facet normal 0 0 1
    outer loop
      vertex 3.21394 4.78308 1.3
      vertex 3.86227 5.3904 1.3
      vertex 3.24182 5.3904 1.3
    endloop
  endfacet
  facet normal 0.998948 -0.0458583 0
    outer loop
      vertex 3.21394 4.78308 1.8
      vertex 3.24182 5.3904 1.3
      vertex 3.24182 5.3904 1.8
    endloop
  endfacet
  facet normal 0.999102 0.0423812 0
    outer loop
      vertex 3.21526 6.01653 1.3
      vertex 3.21526 6.01653 1.8
      vertex 3.24182 5.3904 1.8
    endloop
  endfacet
  facet normal 0 0 1
    outer loop
      vertex 3.21526 6.01653 1.3
      vertex 3.24182 5.3904 1.3
      vertex 3.86227 5.3904 1.3
    endloop
  endfacet
  facet normal 0.999102 0.0423812 0
    outer loop
      vertex 3.21526 6.01653 1.3
      vertex 3.24182 5.3904 1.8
      vertex 3.24182 5.3904 1.3
    endloop
  endfacet
  facet normal -0 0 1
    outer loop
      vertex 3.21526 6.01653 1.3
      vertex 3.86227 5.3904 1.3
      vertex 3.81763 6.13557 1.3
    endloop
  endfacet
  facet normal -0.899684 0.436542 0
    outer loop
      vertex 3.44012 3.56284 1.3
      vertex 3.44012 3.56284 1.8
      vertex 3.67465 4.04619 1.8
    endloop
  endfacet
  facet normal -0.899684 0.436542 0
    outer loop
      vertex 3.44012 3.56284 1.3
      vertex 3.67465 4.04619 1.8
      vertex 3.67465 4.04619 1.3
    endloop
  endfacet
  facet normal -0 0 1
    outer loop
      vertex 3.44012 3.56284 1.8
      vertex 11.7874 2.24858 1.8
      vertex 3.67465 4.04619 1.8
    endloop
  endfacet
  facet normal 0 0 1
    outer loop
      vertex 3.44012 3.56284 1.8
      vertex 11.9054 1.504 1.8
      vertex 11.7874 2.24858 1.8
    endloop
  endfacet
  facet normal 0 0 1
    outer loop
      vertex 3.44012 3.56284 1.8
      vertex 11.9763 0.753486 1.8
      vertex 11.9054 1.504 1.8
    endloop
  endfacet
  facet normal 0 0 1
    outer loop
      vertex 3.44012 3.56284 1.8
      vertex 12 0 1.8
      vertex 11.9763 0.753486 1.8
    endloop
  endfacet
  facet normal -0.906727 -0.421718 0
    outer loop
      vertex 3.46048 7.22809 1.3
      vertex 3.6837 6.74815 1.3
      vertex 3.46048 7.22809 1.8
    endloop
  endfacet
  facet normal -0.906727 -0.421718 0
    outer loop
      vertex 3.46048 7.22809 1.8
      vertex 3.6837 6.74815 1.3
      vertex 3.6837 6.74815 1.8
    endloop
  endfacet
  facet normal 0 0 1
    outer loop
      vertex 3.46048 7.22809 1.8
      vertex 3.6837 6.74815 1.8
      vertex 8.5 17.7062 1.8
    endloop
  endfacet
  facet normal -0.974343 0.225069 0
    outer loop
      vertex 3.67465 4.04619 1.3
      vertex 3.67465 4.04619 1.8
      vertex 3.81537 4.65538 1.8
    endloop
  endfacet
  facet normal -0.974343 0.225069 0
    outer loop
      vertex 3.67465 4.04619 1.3
      vertex 3.81537 4.65538 1.8
      vertex 3.81537 4.65538 1.3
    endloop
  endfacet
  facet normal -0 0 1
    outer loop
      vertex 3.67465 4.04619 1.8
      vertex 11.7874 2.24858 1.8
      vertex 3.81537 4.65538 1.8
    endloop
  endfacet
  facet normal -0.976924 -0.213587 0
    outer loop
      vertex 3.6837 6.74815 1.3
      vertex 3.81763 6.13557 1.3
      vertex 3.6837 6.74815 1.8
    endloop
  endfacet
  facet normal -0.976924 -0.213587 0
    outer loop
      vertex 3.6837 6.74815 1.8
      vertex 3.81763 6.13557 1.3
      vertex 3.81763 6.13557 1.8
    endloop
  endfacet
  facet normal 0 0 1
    outer loop
      vertex 3.6837 6.74815 1.8
      vertex 3.81763 6.13557 1.8
      vertex 8.5 17.7062 1.8
    endloop
  endfacet
  facet normal -0.99797 0.0636783 0
    outer loop
      vertex 3.81537 4.65538 1.3
      vertex 3.81537 4.65538 1.8
      vertex 3.86227 5.3904 1.8
    endloop
  endfacet
  facet normal -0.99797 0.0636783 0
    outer loop
      vertex 3.81537 4.65538 1.3
      vertex 3.86227 5.3904 1.8
      vertex 3.86227 5.3904 1.3
    endloop
  endfacet
  facet normal -0 0 1
    outer loop
      vertex 3.81537 4.65538 1.8
      vertex 11.7874 2.24858 1.8
      vertex 3.86227 5.3904 1.8
    endloop
  endfacet
  facet normal -0.99821 -0.0597986 0
    outer loop
      vertex 3.81763 6.13557 1.3
      vertex 3.86227 5.3904 1.3
      vertex 3.81763 6.13557 1.8
    endloop
  endfacet
  facet normal -0.99821 -0.0597986 0
    outer loop
      vertex 3.81763 6.13557 1.8
      vertex 3.86227 5.3904 1.3
      vertex 3.86227 5.3904 1.8
    endloop
  endfacet
  facet normal 0 0 1
    outer loop
      vertex 3.81763 6.13557 1.8
      vertex 3.86227 5.3904 1.8
      vertex 8.5 17.7062 1.8
    endloop
  endfacet
  facet normal -0 0 1
    outer loop
      vertex 3.86227 5.3904 1.8
      vertex 11.7874 2.24858 1.8
      vertex 8.5 17.7062 1.8
    endloop
  endfacet
  facet normal 1 -0 0
    outer loop
      vertex 8.5 17.7062 1.8
      vertex 8.5 35 3.8147e-07
      vertex 8.5 35 1.8
    endloop
  endfacet
  facet normal 0.978125 0.20802 0
    outer loop
      vertex 8.5 17.7062 3.8147e-07
      vertex 11.7874 2.24858 1.8
      vertex 11.7874 2.24858 3.8147e-07
    endloop
  endfacet
  facet normal 0.978125 0.20802 0
    outer loop
      vertex 8.5 17.7062 3.8147e-07
      vertex 8.5 17.7062 1.8
      vertex 11.7874 2.24858 1.8
    endloop
  endfacet
  facet normal 1 0 0
    outer loop
      vertex 8.5 17.7062 3.8147e-07
      vertex 8.5 35 3.8147e-07
      vertex 8.5 17.7062 1.8
    endloop
  endfacet
endsolid model
