solid model
  facet normal 0 0.236768 -0.971566
    outer loop
      vertex -2.5 -14.4392 24.3231
      vertex -2.5 -7.38086 26.0432
      vertex 2.5 -7.38086 26.0432
    endloop
  endfacet
  facet normal -1 0 0
    outer loop
      vertex -2.5 -14.4392 24.3231
      vertex -2.5 -8.0046 28.244
      vertex -2.5 -7.38086 26.0432
    endloop
  endfacet
  facet normal 0 0.236768 -0.971566
    outer loop
      vertex -2.5 -14.4392 24.3231
      vertex 2.5 -7.38086 26.0432
      vertex 2.5 -14.4392 24.3231
    endloop
  endfacet
  facet normal -1 0 0
    outer loop
      vertex -2.5 -15.6594 26.3786
      vertex -2.5 -8.0046 28.244
      vertex -2.5 -14.4392 24.3231
    endloop
  endfacet
  facet normal 0 -0.236762 0.971568
    outer loop
      vertex -2.5 -15.6594 26.3786
      vertex 2.5 -15.6594 26.3786
      vertex -2.5 -8.0046 28.244
    endloop
  endfacet
  facet normal 0 -0.397357 0.917664
    outer loop
      vertex -2.5 -15.6594 26.3786
      vertex 2.5 -22.6297 23.3604
      vertex 2.5 -15.6594 26.3786
    endloop
  endfacet
  facet normal 0 0.397353 -0.917666
    outer loop
      vertex -2.5 -20.8664 21.5401
      vertex -2.5 -14.4392 24.3231
      vertex 2.5 -14.4392 24.3231
    endloop
  endfacet
  facet normal -1 0 0
    outer loop
      vertex -2.5 -20.8664 21.5401
      vertex -2.5 -15.6594 26.3786
      vertex -2.5 -14.4392 24.3231
    endloop
  endfacet
  facet normal 0 0.397353 -0.917666
    outer loop
      vertex -2.5 -20.8664 21.5401
      vertex 2.5 -14.4392 24.3231
      vertex 2.5 -20.8664 21.5401
    endloop
  endfacet
  facet normal -1 0 0
    outer loop
      vertex -2.5 -22.6297 23.3604
      vertex -2.5 -15.6594 26.3786
      vertex -2.5 -20.8664 21.5401
    endloop
  endfacet
  facet normal 0 -0.397357 0.917664
    outer loop
      vertex -2.5 -22.6297 23.3604
      vertex 2.5 -22.6297 23.3604
      vertex -2.5 -15.6594 26.3786
    endloop
  endfacet
  facet normal 0 -0.559649 0.828729
    outer loop
      vertex -2.5 -22.6297 23.3604
      vertex 2.5 -28.6111 19.3211
      vertex 2.5 -22.6297 23.3604
    endloop
  endfacet
  facet normal 0 0.559652 -0.828727
    outer loop
      vertex -2.5 -26.3816 17.8156
      vertex -2.5 -20.8664 21.5401
      vertex 2.5 -20.8664 21.5401
    endloop
  endfacet
  facet normal -1 0 0
    outer loop
      vertex -2.5 -26.3816 17.8156
      vertex -2.5 -22.6297 23.3604
      vertex -2.5 -20.8664 21.5401
    endloop
  endfacet
  facet normal 0 0.559652 -0.828727
    outer loop
      vertex -2.5 -26.3816 17.8156
      vertex 2.5 -20.8664 21.5401
      vertex 2.5 -26.3816 17.8156
    endloop
  endfacet
  facet normal 0 0.718246 -0.695789
    outer loop
      vertex -2.5 -26.3816 17.8156
      vertex 2.5 -26.3816 17.8156
      vertex 2.5 -30.7439 13.3125
    endloop
  endfacet
  facet normal -1 0 0
    outer loop
      vertex -2.5 -28.6111 19.3211
      vertex -2.5 -22.6297 23.3604
      vertex -2.5 -26.3816 17.8156
    endloop
  endfacet
  facet normal 0 -0.559649 0.828729
    outer loop
      vertex -2.5 -28.6111 19.3211
      vertex 2.5 -28.6111 19.3211
      vertex -2.5 -22.6297 23.3604
    endloop
  endfacet
  facet normal 0 0.718246 -0.695789
    outer loop
      vertex -2.5 -30.7439 13.3125
      vertex -2.5 -26.3816 17.8156
      vertex 2.5 -30.7439 13.3125
    endloop
  endfacet
  facet normal -1 0 0
    outer loop
      vertex -2.5 -30.7439 13.3125
      vertex -2.5 -28.6111 19.3211
      vertex -2.5 -26.3816 17.8156
    endloop
  endfacet
  facet normal 0 0.859897 -0.510467
    outer loop
      vertex -2.5 -30.7439 13.3125
      vertex 2.5 -30.7439 13.3125
      vertex 2.5 -33.7625 8.22758
    endloop
  endfacet
  facet normal -1 0 0
    outer loop
      vertex -2.5 -33.342 14.4375
      vertex -2.5 -28.6111 19.3211
      vertex -2.5 -30.7439 13.3125
    endloop
  endfacet
  facet normal 0 -0.718247 0.695789
    outer loop
      vertex -2.5 -33.342 14.4375
      vertex 2.5 -28.6111 19.3211
      vertex -2.5 -28.6111 19.3211
    endloop
  endfacet
  facet normal 0 -0.718247 0.695789
    outer loop
      vertex -2.5 -33.342 14.4375
      vertex 2.5 -33.342 14.4375
      vertex 2.5 -28.6111 19.3211
    endloop
  endfacet
  facet normal 0 0.859897 -0.510467
    outer loop
      vertex -2.5 -33.7625 8.22758
      vertex -2.5 -30.7439 13.3125
      vertex 2.5 -33.7625 8.22758
    endloop
  endfacet
  facet normal -1 0 0
    outer loop
      vertex -2.5 -33.7625 8.22758
      vertex -2.5 -33.342 14.4375
      vertex -2.5 -30.7439 13.3125
    endloop
  endfacet
  facet normal 0 0.962109 -0.272666
    outer loop
      vertex -2.5 -33.7625 8.22758
      vertex 2.5 -33.7625 8.22758
      vertex 2.5 -35.3055 2.78307
    endloop
  endfacet
  facet normal 0 1 0
    outer loop
      vertex -2.5 -35.3055 0
      vertex -2.5 -35.3055 2.78307
      vertex 2.5 -35.3055 0
    endloop
  endfacet
  facet normal 0 0.962109 -0.272666
    outer loop
      vertex -2.5 -35.3055 2.78307
      vertex -2.5 -33.7625 8.22758
      vertex 2.5 -35.3055 2.78307
    endloop
  endfacet
  facet normal 0 1 -0
    outer loop
      vertex -2.5 -35.3055 2.78307
      vertex 2.5 -35.3055 2.78307
      vertex 2.5 -35.3055 0
    endloop
  endfacet
  facet normal -1 0 0
    outer loop
      vertex -2.5 -36.6157 8.92286
      vertex -2.5 -33.342 14.4375
      vertex -2.5 -33.7625 8.22758
    endloop
  endfacet
  facet normal -1 0 0
    outer loop
      vertex -2.5 -36.6157 8.92286
      vertex -2.5 -33.7625 8.22758
      vertex -2.5 -35.3055 2.78307
    endloop
  endfacet
  facet normal 0 -0.859897 0.510468
    outer loop
      vertex -2.5 -36.6157 8.92286
      vertex 2.5 -33.342 14.4375
      vertex -2.5 -33.342 14.4375
    endloop
  endfacet
  facet normal 0 -0.859897 0.510468
    outer loop
      vertex -2.5 -36.6157 8.92286
      vertex 2.5 -36.6157 8.92286
      vertex 2.5 -33.342 14.4375
    endloop
  endfacet
  facet normal 0 1 0
    outer loop
      vertex -2.5 -36.7 -4
      vertex -2.5 -36.7 0
      vertex 2.5 -36.7 -4
    endloop
  endfacet
  facet normal -0 0 -1
    outer loop
      vertex -2.5 -36.7 0
      vertex -2.5 -35.3055 0
      vertex 2.5 -35.3055 0
    endloop
  endfacet
  facet normal -1 0 0
    outer loop
      vertex -2.5 -36.7 0
      vertex -2.5 -35.3055 2.78307
      vertex -2.5 -35.3055 0
    endloop
  endfacet
  facet normal 0 0 -1
    outer loop
      vertex -2.5 -36.7 0
      vertex 2.5 -35.3055 0
      vertex 2.5 -36.7 0
    endloop
  endfacet
  facet normal 0 1 -0
    outer loop
      vertex -2.5 -36.7 0
      vertex 2.5 -36.7 0
      vertex 2.5 -36.7 -4
    endloop
  endfacet
  facet normal -1 0 0
    outer loop
      vertex -2.5 -38.2891 0
      vertex -2.5 -36.7 0
      vertex -2.5 -36.7 -4
    endloop
  endfacet
  facet normal -1 0 0
    outer loop
      vertex -2.5 -38.2891 0
      vertex -2.5 -38.2891 3.01826
      vertex -2.5 -36.7 0
    endloop
  endfacet
  facet normal 0 -1 -0
    outer loop
      vertex -2.5 -38.2891 0
      vertex 2.5 -38.2891 0
      vertex 2.5 -38.2891 3.01826
    endloop
  endfacet
  facet normal 0 -1 0
    outer loop
      vertex -2.5 -38.2891 0
      vertex 2.5 -38.2891 3.01826
      vertex -2.5 -38.2891 3.01826
    endloop
  endfacet
  facet normal -0 0 1
    outer loop
      vertex -2.5 -38.2891 0
      vertex 2.5 -38.5 0
      vertex 2.5 -38.2891 0
    endloop
  endfacet
  facet normal -1 -0 0
    outer loop
      vertex -2.5 -38.2891 3.01826
      vertex -2.5 -35.3055 2.78307
      vertex -2.5 -36.7 0
    endloop
  endfacet
  facet normal -1 0 0
    outer loop
      vertex -2.5 -38.2891 3.01826
      vertex -2.5 -36.6157 8.92286
      vertex -2.5 -35.3055 2.78307
    endloop
  endfacet
  facet normal 0 -0.962108 0.272667
    outer loop
      vertex -2.5 -38.2891 3.01826
      vertex 2.5 -36.6157 8.92286
      vertex -2.5 -36.6157 8.92286
    endloop
  endfacet
  facet normal 0 -0.962108 0.272667
    outer loop
      vertex -2.5 -38.2891 3.01826
      vertex 2.5 -38.2891 3.01826
      vertex 2.5 -36.6157 8.92286
    endloop
  endfacet
  facet normal -0 0 -1
    outer loop
      vertex -2.5 -38.5 -4
      vertex -2.5 -36.7 -4
      vertex 2.5 -36.7 -4
    endloop
  endfacet
  facet normal -1 0 0
    outer loop
      vertex -2.5 -38.5 -4
      vertex -2.5 -38.2891 0
      vertex -2.5 -36.7 -4
    endloop
  endfacet
  facet normal -1 -0 0
    outer loop
      vertex -2.5 -38.5 -4
      vertex -2.5 -38.5 0
      vertex -2.5 -38.2891 0
    endloop
  endfacet
  facet normal 0 0 -1
    outer loop
      vertex -2.5 -38.5 -4
      vertex 2.5 -36.7 -4
      vertex 2.5 -38.5 -4
    endloop
  endfacet
  facet normal 0 -1 -0
    outer loop
      vertex -2.5 -38.5 -4
      vertex 2.5 -38.5 -4
      vertex 2.5 -38.5 0
    endloop
  endfacet
  facet normal 0 -1 0
    outer loop
      vertex -2.5 -38.5 -4
      vertex 2.5 -38.5 0
      vertex -2.5 -38.5 0
    endloop
  endfacet
  facet normal 0 0 1
    outer loop
      vertex -2.5 -38.5 0
      vertex 2.5 -38.5 0
      vertex -2.5 -38.2891 0
    endloop
  endfacet
  facet normal 0 0.0785817 -0.996908
    outer loop
      vertex -2.5 -7.38086 26.0432
      vertex -2.5 0 26.625
      vertex 2.5 0 26.625
    endloop
  endfacet
  facet normal -1 0 0
    outer loop
      vertex -2.5 -7.38086 26.0432
      vertex -2.5 0 28.875
      vertex -2.5 0 26.625
    endloop
  endfacet
  facet normal 0 0.0785817 -0.996908
    outer loop
      vertex -2.5 -7.38086 26.0432
      vertex 2.5 0 26.625
      vertex 2.5 -7.38086 26.0432
    endloop
  endfacet
  facet normal -1 0 0
    outer loop
      vertex -2.5 -8.0046 28.244
      vertex -2.5 0 28.875
      vertex -2.5 -7.38086 26.0432
    endloop
  endfacet
  facet normal 0 -0.236762 0.971568
    outer loop
      vertex -2.5 -8.0046 28.244
      vertex 2.5 -15.6594 26.3786
      vertex 2.5 -8.0046 28.244
    endloop
  endfacet
  facet normal 0 -0.0785859 0.996907
    outer loop
      vertex -2.5 -8.0046 28.244
      vertex 2.5 -8.0046 28.244
      vertex -2.5 0 28.875
    endloop
  endfacet
  facet normal -1 0 0
    outer loop
      vertex -2.5 0 26.625
      vertex -2.5 0 28.875
      vertex -2.5 7.38086 26.0432
    endloop
  endfacet
  facet normal -0 -0.0785817 -0.996908
    outer loop
      vertex -2.5 0 26.625
      vertex -2.5 7.38086 26.0432
      vertex 2.5 7.38086 26.0432
    endloop
  endfacet
  facet normal 0 -0.0785817 -0.996908
    outer loop
      vertex -2.5 0 26.625
      vertex 2.5 7.38086 26.0432
      vertex 2.5 0 26.625
    endloop
  endfacet
  facet normal -1 0 0
    outer loop
      vertex -2.5 0 28.875
      vertex -2.5 8.0046 28.244
      vertex -2.5 7.38086 26.0432
    endloop
  endfacet
  facet normal 0 -0.0785859 0.996907
    outer loop
      vertex -2.5 0 28.875
      vertex 2.5 -8.0046 28.244
      vertex 2.5 0 28.875
    endloop
  endfacet
  facet normal 0 0.0785859 0.996907
    outer loop
      vertex -2.5 0 28.875
      vertex 2.5 0 28.875
      vertex -2.5 8.0046 28.244
    endloop
  endfacet
  facet normal -1 0 0
    outer loop
      vertex -2.5 14.4392 24.3231
      vertex -2.5 15.6594 26.3786
      vertex -2.5 20.8664 21.5401
    endloop
  endfacet
  facet normal -0 -0.397353 -0.917666
    outer loop
      vertex -2.5 14.4392 24.3231
      vertex -2.5 20.8664 21.5401
      vertex 2.5 20.8664 21.5401
    endloop
  endfacet
  facet normal 0 -0.397353 -0.917666
    outer loop
      vertex -2.5 14.4392 24.3231
      vertex 2.5 20.8664 21.5401
      vertex 2.5 14.4392 24.3231
    endloop
  endfacet
  facet normal -1 0 0
    outer loop
      vertex -2.5 15.6594 26.3786
      vertex -2.5 22.6297 23.3604
      vertex -2.5 20.8664 21.5401
    endloop
  endfacet
  facet normal 0 0.397357 0.917664
    outer loop
      vertex -2.5 15.6594 26.3786
      vertex 2.5 15.6594 26.3786
      vertex -2.5 22.6297 23.3604
    endloop
  endfacet
  facet normal -0 0.236762 0.971568
    outer loop
      vertex -2.5 15.6594 26.3786
      vertex 2.5 8.0046 28.244
      vertex 2.5 15.6594 26.3786
    endloop
  endfacet
  facet normal -1 0 0
    outer loop
      vertex -2.5 20.8664 21.5401
      vertex -2.5 22.6297 23.3604
      vertex -2.5 26.3816 17.8156
    endloop
  endfacet
  facet normal -0 -0.559652 -0.828727
    outer loop
      vertex -2.5 20.8664 21.5401
      vertex -2.5 26.3816 17.8156
      vertex 2.5 26.3816 17.8156
    endloop
  endfacet
  facet normal 0 -0.559652 -0.828727
    outer loop
      vertex -2.5 20.8664 21.5401
      vertex 2.5 26.3816 17.8156
      vertex 2.5 20.8664 21.5401
    endloop
  endfacet
  facet normal -1 0 0
    outer loop
      vertex -2.5 22.6297 23.3604
      vertex -2.5 28.6111 19.3211
      vertex -2.5 26.3816 17.8156
    endloop
  endfacet
  facet normal -0 0.397357 0.917664
    outer loop
      vertex -2.5 22.6297 23.3604
      vertex 2.5 15.6594 26.3786
      vertex 2.5 22.6297 23.3604
    endloop
  endfacet
  facet normal 0 0.559649 0.828729
    outer loop
      vertex -2.5 22.6297 23.3604
      vertex 2.5 22.6297 23.3604
      vertex -2.5 28.6111 19.3211
    endloop
  endfacet
  facet normal -1 0 0
    outer loop
      vertex -2.5 26.3816 17.8156
      vertex -2.5 28.6111 19.3211
      vertex -2.5 30.7439 13.3125
    endloop
  endfacet
  facet normal 0 -0.718246 -0.695789
    outer loop
      vertex -2.5 26.3816 17.8156
      vertex -2.5 30.7439 13.3125
      vertex 2.5 26.3816 17.8156
    endloop
  endfacet
  facet normal -1 0 0
    outer loop
      vertex -2.5 28.6111 19.3211
      vertex -2.5 33.342 14.4375
      vertex -2.5 30.7439 13.3125
    endloop
  endfacet
  facet normal -0 0.559649 0.828729
    outer loop
      vertex -2.5 28.6111 19.3211
      vertex 2.5 22.6297 23.3604
      vertex 2.5 28.6111 19.3211
    endloop
  endfacet
  facet normal 0 0.718247 0.695789
    outer loop
      vertex -2.5 28.6111 19.3211
      vertex 2.5 28.6111 19.3211
      vertex 2.5 33.342 14.4375
    endloop
  endfacet
  facet normal 0 0.718247 0.695789
    outer loop
      vertex -2.5 28.6111 19.3211
      vertex 2.5 33.342 14.4375
      vertex -2.5 33.342 14.4375
    endloop
  endfacet
  facet normal -1 0 0
    outer loop
      vertex -2.5 30.7439 13.3125
      vertex -2.5 33.342 14.4375
      vertex -2.5 33.7625 8.22758
    endloop
  endfacet
  facet normal 0 -0.859897 -0.510467
    outer loop
      vertex -2.5 30.7439 13.3125
      vertex -2.5 33.7625 8.22758
      vertex 2.5 30.7439 13.3125
    endloop
  endfacet
  facet normal 0 -0.718246 -0.695789
    outer loop
      vertex -2.5 30.7439 13.3125
      vertex 2.5 30.7439 13.3125
      vertex 2.5 26.3816 17.8156
    endloop
  endfacet
  facet normal -1 0 0
    outer loop
      vertex -2.5 33.342 14.4375
      vertex -2.5 36.6157 8.92286
      vertex -2.5 33.7625 8.22758
    endloop
  endfacet
  facet normal 0 0.859897 0.510468
    outer loop
      vertex -2.5 33.342 14.4375
      vertex 2.5 33.342 14.4375
      vertex 2.5 36.6157 8.92286
    endloop
  endfacet
  facet normal 0 0.859897 0.510468
    outer loop
      vertex -2.5 33.342 14.4375
      vertex 2.5 36.6157 8.92286
      vertex -2.5 36.6157 8.92286
    endloop
  endfacet
  facet normal 0 -0.962109 -0.272666
    outer loop
      vertex -2.5 33.7625 8.22758
      vertex -2.5 35.3055 2.78307
      vertex 2.5 33.7625 8.22758
    endloop
  endfacet
  facet normal -1 0 0
    outer loop
      vertex -2.5 33.7625 8.22758
      vertex -2.5 36.6157 8.92286
      vertex -2.5 35.3055 2.78307
    endloop
  endfacet
  facet normal 0 -0.859897 -0.510467
    outer loop
      vertex -2.5 33.7625 8.22758
      vertex 2.5 33.7625 8.22758
      vertex 2.5 30.7439 13.3125
    endloop
  endfacet
  facet normal -1 0 0
    outer loop
      vertex -2.5 35.3055 0
      vertex -2.5 35.3055 2.78307
      vertex -2.5 36.7 0
    endloop
  endfacet
  facet normal -0 0 -1
    outer loop
      vertex -2.5 35.3055 0
      vertex -2.5 36.7 0
      vertex 2.5 36.7 0
    endloop
  endfacet
  facet normal 0 -1 -0
    outer loop
      vertex -2.5 35.3055 0
      vertex 2.5 35.3055 0
      vertex 2.5 35.3055 2.78307
    endloop
  endfacet
  facet normal 0 -1 0
    outer loop
      vertex -2.5 35.3055 0
      vertex 2.5 35.3055 2.78307
      vertex -2.5 35.3055 2.78307
    endloop
  endfacet
  facet normal 0 0 -1
    outer loop
      vertex -2.5 35.3055 0
      vertex 2.5 36.7 0
      vertex 2.5 35.3055 0
    endloop
  endfacet
  facet normal -1 -0 0
    outer loop
      vertex -2.5 35.3055 2.78307
      vertex -2.5 36.6157 8.92286
      vertex -2.5 38.2891 3.01826
    endloop
  endfacet
  facet normal -1 0 0
    outer loop
      vertex -2.5 35.3055 2.78307
      vertex -2.5 38.2891 3.01826
      vertex -2.5 36.7 0
    endloop
  endfacet
  facet normal 0 -0.962109 -0.272666
    outer loop
      vertex -2.5 35.3055 2.78307
      vertex 2.5 35.3055 2.78307
      vertex 2.5 33.7625 8.22758
    endloop
  endfacet
  facet normal 0 0.962108 0.272667
    outer loop
      vertex -2.5 36.6157 8.92286
      vertex 2.5 36.6157 8.92286
      vertex 2.5 38.2891 3.01826
    endloop
  endfacet
  facet normal 0 0.962108 0.272667
    outer loop
      vertex -2.5 36.6157 8.92286
      vertex 2.5 38.2891 3.01826
      vertex -2.5 38.2891 3.01826
    endloop
  endfacet
  facet normal -1 0 0
    outer loop
      vertex -2.5 36.7 -4
      vertex -2.5 36.7 0
      vertex -2.5 38.2891 0
    endloop
  endfacet
  facet normal -1 0 0
    outer loop
      vertex -2.5 36.7 -4
      vertex -2.5 38.2891 0
      vertex -2.5 38.5 -4
    endloop
  endfacet
  facet normal -0 0 -1
    outer loop
      vertex -2.5 36.7 -4
      vertex -2.5 38.5 -4
      vertex 2.5 38.5 -4
    endloop
  endfacet
  facet normal 0 -1 -0
    outer loop
      vertex -2.5 36.7 -4
      vertex 2.5 36.7 -4
      vertex 2.5 36.7 0
    endloop
  endfacet
  facet normal 0 -1 0
    outer loop
      vertex -2.5 36.7 -4
      vertex 2.5 36.7 0
      vertex -2.5 36.7 0
    endloop
  endfacet
  facet normal 0 0 -1
    outer loop
      vertex -2.5 36.7 -4
      vertex 2.5 38.5 -4
      vertex 2.5 36.7 -4
    endloop
  endfacet
  facet normal -1 0 0
    outer loop
      vertex -2.5 36.7 0
      vertex -2.5 38.2891 3.01826
      vertex -2.5 38.2891 0
    endloop
  endfacet
  facet normal 0 1 0
    outer loop
      vertex -2.5 38.2891 0
      vertex -2.5 38.2891 3.01826
      vertex 2.5 38.2891 0
    endloop
  endfacet
  facet normal -1 0 0
    outer loop
      vertex -2.5 38.2891 0
      vertex -2.5 38.5 0
      vertex -2.5 38.5 -4
    endloop
  endfacet
  facet normal 0 0 1
    outer loop
      vertex -2.5 38.2891 0
      vertex 2.5 38.2891 0
      vertex -2.5 38.5 0
    endloop
  endfacet
  facet normal 0 1 -0
    outer loop
      vertex -2.5 38.2891 3.01826
      vertex 2.5 38.2891 3.01826
      vertex 2.5 38.2891 0
    endloop
  endfacet
  facet normal 0 1 0
    outer loop
      vertex -2.5 38.5 -4
      vertex -2.5 38.5 0
      vertex 2.5 38.5 -4
    endloop
  endfacet
  facet normal -0 0 1
    outer loop
      vertex -2.5 38.5 0
      vertex 2.5 38.2891 0
      vertex 2.5 38.5 0
    endloop
  endfacet
  facet normal 0 1 -0
    outer loop
      vertex -2.5 38.5 0
      vertex 2.5 38.5 0
      vertex 2.5 38.5 -4
    endloop
  endfacet
  facet normal -0 -0.236768 -0.971566
    outer loop
      vertex -2.5 7.38086 26.0432
      vertex -2.5 14.4392 24.3231
      vertex 2.5 14.4392 24.3231
    endloop
  endfacet
  facet normal -1 0 0
    outer loop
      vertex -2.5 7.38086 26.0432
      vertex -2.5 8.0046 28.244
      vertex -2.5 14.4392 24.3231
    endloop
  endfacet
  facet normal 0 -0.236768 -0.971566
    outer loop
      vertex -2.5 7.38086 26.0432
      vertex 2.5 14.4392 24.3231
      vertex 2.5 7.38086 26.0432
    endloop
  endfacet
  facet normal -1 0 0
    outer loop
      vertex -2.5 8.0046 28.244
      vertex -2.5 15.6594 26.3786
      vertex -2.5 14.4392 24.3231
    endloop
  endfacet
  facet normal -0 0.0785859 0.996907
    outer loop
      vertex -2.5 8.0046 28.244
      vertex 2.5 0 28.875
      vertex 2.5 8.0046 28.244
    endloop
  endfacet
  facet normal 0 0.236762 0.971568
    outer loop
      vertex -2.5 8.0046 28.244
      vertex 2.5 8.0046 28.244
      vertex -2.5 15.6594 26.3786
    endloop
  endfacet
  facet normal 1 0 0
    outer loop
      vertex 2.5 -14.4392 24.3231
      vertex 2.5 -7.38086 26.0432
      vertex 2.5 -8.0046 28.244
    endloop
  endfacet
  facet normal 1 -0 0
    outer loop
      vertex 2.5 -15.6594 26.3786
      vertex 2.5 -14.4392 24.3231
      vertex 2.5 -8.0046 28.244
    endloop
  endfacet
  facet normal 1 0 0
    outer loop
      vertex 2.5 -20.8664 21.5401
      vertex 2.5 -14.4392 24.3231
      vertex 2.5 -15.6594 26.3786
    endloop
  endfacet
  facet normal 1 -0 0
    outer loop
      vertex 2.5 -22.6297 23.3604
      vertex 2.5 -20.8664 21.5401
      vertex 2.5 -15.6594 26.3786
    endloop
  endfacet
  facet normal 1 0 0
    outer loop
      vertex 2.5 -26.3816 17.8156
      vertex 2.5 -20.8664 21.5401
      vertex 2.5 -22.6297 23.3604
    endloop
  endfacet
  facet normal 1 -0 0
    outer loop
      vertex 2.5 -28.6111 19.3211
      vertex 2.5 -26.3816 17.8156
      vertex 2.5 -22.6297 23.3604
    endloop
  endfacet
  facet normal 1 0 0
    outer loop
      vertex 2.5 -30.7439 13.3125
      vertex 2.5 -26.3816 17.8156
      vertex 2.5 -28.6111 19.3211
    endloop
  endfacet
  facet normal 1 -0 0
    outer loop
      vertex 2.5 -33.342 14.4375
      vertex 2.5 -30.7439 13.3125
      vertex 2.5 -28.6111 19.3211
    endloop
  endfacet
  facet normal 1 0 0
    outer loop
      vertex 2.5 -33.7625 8.22758
      vertex 2.5 -30.7439 13.3125
      vertex 2.5 -33.342 14.4375
    endloop
  endfacet
  facet normal 1 -0 0
    outer loop
      vertex 2.5 -36.6157 8.92286
      vertex 2.5 -33.7625 8.22758
      vertex 2.5 -33.342 14.4375
    endloop
  endfacet
  facet normal 1 0 0
    outer loop
      vertex 2.5 -36.6157 8.92286
      vertex 2.5 -35.3055 2.78307
      vertex 2.5 -33.7625 8.22758
    endloop
  endfacet
  facet normal 1 0 0
    outer loop
      vertex 2.5 -36.7 0
      vertex 2.5 -35.3055 0
      vertex 2.5 -35.3055 2.78307
    endloop
  endfacet
  facet normal 1 0 0
    outer loop
      vertex 2.5 -38.2891 0
      vertex 2.5 -36.7 -4
      vertex 2.5 -36.7 0
    endloop
  endfacet
  facet normal 1 0 0
    outer loop
      vertex 2.5 -38.2891 0
      vertex 2.5 -36.7 0
      vertex 2.5 -38.2891 3.01826
    endloop
  endfacet
  facet normal 1 -0 0
    outer loop
      vertex 2.5 -38.2891 3.01826
      vertex 2.5 -35.3055 2.78307
      vertex 2.5 -36.6157 8.92286
    endloop
  endfacet
  facet normal 1 0 -0
    outer loop
      vertex 2.5 -38.2891 3.01826
      vertex 2.5 -36.7 0
      vertex 2.5 -35.3055 2.78307
    endloop
  endfacet
  facet normal 1 0 0
    outer loop
      vertex 2.5 -38.5 -4
      vertex 2.5 -36.7 -4
      vertex 2.5 -38.2891 0
    endloop
  endfacet
  facet normal 1 0 0
    outer loop
      vertex 2.5 -38.5 -4
      vertex 2.5 -38.2891 0
      vertex 2.5 -38.5 0
    endloop
  endfacet
  facet normal 1 0 0
    outer loop
      vertex 2.5 -7.38086 26.0432
      vertex 2.5 0 26.625
      vertex 2.5 0 28.875
    endloop
  endfacet
  facet normal 1 -0 0
    outer loop
      vertex 2.5 -8.0046 28.244
      vertex 2.5 -7.38086 26.0432
      vertex 2.5 0 28.875
    endloop
  endfacet
  facet normal 1 0 0
    outer loop
      vertex 2.5 0 26.625
      vertex 2.5 7.38086 26.0432
      vertex 2.5 0 28.875
    endloop
  endfacet
  facet normal 1 0 0
    outer loop
      vertex 2.5 0 28.875
      vertex 2.5 7.38086 26.0432
      vertex 2.5 8.0046 28.244
    endloop
  endfacet
  facet normal 1 0 0
    outer loop
      vertex 2.5 14.4392 24.3231
      vertex 2.5 20.8664 21.5401
      vertex 2.5 15.6594 26.3786
    endloop
  endfacet
  facet normal 1 0 0
    outer loop
      vertex 2.5 15.6594 26.3786
      vertex 2.5 20.8664 21.5401
      vertex 2.5 22.6297 23.3604
    endloop
  endfacet
  facet normal 1 0 0
    outer loop
      vertex 2.5 20.8664 21.5401
      vertex 2.5 26.3816 17.8156
      vertex 2.5 22.6297 23.3604
    endloop
  endfacet
  facet normal 1 0 0
    outer loop
      vertex 2.5 22.6297 23.3604
      vertex 2.5 26.3816 17.8156
      vertex 2.5 28.6111 19.3211
    endloop
  endfacet
  facet normal 1 0 0
    outer loop
      vertex 2.5 26.3816 17.8156
      vertex 2.5 30.7439 13.3125
      vertex 2.5 28.6111 19.3211
    endloop
  endfacet
  facet normal 1 0 0
    outer loop
      vertex 2.5 28.6111 19.3211
      vertex 2.5 30.7439 13.3125
      vertex 2.5 33.342 14.4375
    endloop
  endfacet
  facet normal 1 0 0
    outer loop
      vertex 2.5 30.7439 13.3125
      vertex 2.5 33.7625 8.22758
      vertex 2.5 33.342 14.4375
    endloop
  endfacet
  facet normal 1 0 0
    outer loop
      vertex 2.5 33.342 14.4375
      vertex 2.5 33.7625 8.22758
      vertex 2.5 36.6157 8.92286
    endloop
  endfacet
  facet normal 1 0 0
    outer loop
      vertex 2.5 33.7625 8.22758
      vertex 2.5 35.3055 2.78307
      vertex 2.5 36.6157 8.92286
    endloop
  endfacet
  facet normal 1 0 0
    outer loop
      vertex 2.5 35.3055 0
      vertex 2.5 36.7 0
      vertex 2.5 35.3055 2.78307
    endloop
  endfacet
  facet normal 1 0 0
    outer loop
      vertex 2.5 35.3055 2.78307
      vertex 2.5 36.7 0
      vertex 2.5 38.2891 3.01826
    endloop
  endfacet
  facet normal 1 0 0
    outer loop
      vertex 2.5 35.3055 2.78307
      vertex 2.5 38.2891 3.01826
      vertex 2.5 36.6157 8.92286
    endloop
  endfacet
  facet normal 1 0 0
    outer loop
      vertex 2.5 36.7 -4
      vertex 2.5 38.2891 0
      vertex 2.5 36.7 0
    endloop
  endfacet
  facet normal 1 0 0
    outer loop
      vertex 2.5 36.7 -4
      vertex 2.5 38.5 -4
      vertex 2.5 38.2891 0
    endloop
  endfacet
  facet normal 1 0 0
    outer loop
      vertex 2.5 36.7 0
      vertex 2.5 38.2891 0
      vertex 2.5 38.2891 3.01826
    endloop
  endfacet
  facet normal 1 -0 0
    outer loop
      vertex 2.5 38.2891 0
      vertex 2.5 38.5 -4
      vertex 2.5 38.5 0
    endloop
  endfacet
  facet normal 1 0 0
    outer loop
      vertex 2.5 7.38086 26.0432
      vertex 2.5 14.4392 24.3231
      vertex 2.5 8.0046 28.244
    endloop
  endfacet
  facet normal 1 0 0
    outer loop
      vertex 2.5 8.0046 28.244
      vertex 2.5 14.4392 24.3231
      vertex 2.5 15.6594 26.3786
    endloop
  endfacet
endsolid model
