solid model
  facet normal 0.156416 0.987691 -0
    outer loop
      vertex -0.494427 14.9783 1.8
      vertex 0 14.9 1.8
      vertex 0 14.9 3.8147e-07
    endloop
  endfacet
  facet normal 0.156416 0.987691 0
    outer loop
      vertex -0.494427 14.9783 3.8147e-07
      vertex -0.494427 14.9783 1.8
      vertex 0 14.9 3.8147e-07
    endloop
  endfacet
  facet normal 0 0 1
    outer loop
      vertex -0.494427 18.0217 1.8
      vertex 0 18.1 1.8
      vertex -0.494427 29.1433 1.8
    endloop
  endfacet
  facet normal 0 0 -1
    outer loop
      vertex -0.494427 18.0217 3.8147e-07
      vertex -0.494427 29.1433 3.8147e-07
      vertex 0 29.065 3.8147e-07
    endloop
  endfacet
  facet normal 0.156416 -0.987691 0
    outer loop
      vertex -0.494427 18.0217 3.8147e-07
      vertex 0 18.1 1.8
      vertex -0.494427 18.0217 1.8
    endloop
  endfacet
  facet normal 0.156416 -0.987691 0
    outer loop
      vertex -0.494427 18.0217 3.8147e-07
      vertex 0 18.1 3.8147e-07
      vertex 0 18.1 1.8
    endloop
  endfacet
  facet normal 0 0 -1
    outer loop
      vertex -0.494427 18.0217 3.8147e-07
      vertex 0 29.065 3.8147e-07
      vertex 0 18.1 3.8147e-07
    endloop
  endfacet
  facet normal 0 0 1
    outer loop
      vertex -0.494427 29.1433 1.8
      vertex 0 18.1 1.8
      vertex 0 29.065 1.8
    endloop
  endfacet
  facet normal 0.156416 0.987691 -0
    outer loop
      vertex -0.494427 29.1433 1.8
      vertex 0 29.065 1.8
      vertex 0 29.065 3.8147e-07
    endloop
  endfacet
  facet normal 0.156416 0.987691 0
    outer loop
      vertex -0.494427 29.1433 3.8147e-07
      vertex -0.494427 29.1433 1.8
      vertex 0 29.065 3.8147e-07
    endloop
  endfacet
  facet normal 0.156416 -0.987691 0
    outer loop
      vertex -0.494427 32.1867 3.8147e-07
      vertex 0 32.265 1.8
      vertex -0.494427 32.1867 1.8
    endloop
  endfacet
  facet normal 0.156416 -0.987691 0
    outer loop
      vertex -0.494427 32.1867 3.8147e-07
      vertex 0 32.265 3.8147e-07
      vertex 0 32.265 1.8
    endloop
  endfacet
  facet normal 0.454049 0.890977 -0
    outer loop
      vertex -0.940456 15.2056 1.8
      vertex -0.494427 14.9783 1.8
      vertex -0.494427 14.9783 3.8147e-07
    endloop
  endfacet
  facet normal 0.454049 0.890977 0
    outer loop
      vertex -0.940456 15.2056 3.8147e-07
      vertex -0.940456 15.2056 1.8
      vertex -0.494427 14.9783 3.8147e-07
    endloop
  endfacet
  facet normal 0 0 1
    outer loop
      vertex -0.940456 17.7944 1.8
      vertex -0.494427 18.0217 1.8
      vertex -0.940456 29.3706 1.8
    endloop
  endfacet
  facet normal 0.454049 -0.890977 0
    outer loop
      vertex -0.940456 17.7944 3.8147e-07
      vertex -0.494427 18.0217 1.8
      vertex -0.940456 17.7944 1.8
    endloop
  endfacet
  facet normal 0.454049 -0.890977 0
    outer loop
      vertex -0.940456 17.7944 3.8147e-07
      vertex -0.494427 18.0217 3.8147e-07
      vertex -0.494427 18.0217 1.8
    endloop
  endfacet
  facet normal 0 0 -1
    outer loop
      vertex -0.940456 17.7944 3.8147e-07
      vertex -0.494427 29.1433 3.8147e-07
      vertex -0.494427 18.0217 3.8147e-07
    endloop
  endfacet
  facet normal 0 0 -1
    outer loop
      vertex -0.940456 17.7944 3.8147e-07
      vertex -0.940456 29.3706 3.8147e-07
      vertex -0.494427 29.1433 3.8147e-07
    endloop
  endfacet
  facet normal 0 0 1
    outer loop
      vertex -0.940456 29.3706 1.8
      vertex -0.494427 18.0217 1.8
      vertex -0.494427 29.1433 1.8
    endloop
  endfacet
  facet normal 0.454049 0.890977 -0
    outer loop
      vertex -0.940456 29.3706 1.8
      vertex -0.494427 29.1433 1.8
      vertex -0.494427 29.1433 3.8147e-07
    endloop
  endfacet
  facet normal 0.454049 0.890977 0
    outer loop
      vertex -0.940456 29.3706 3.8147e-07
      vertex -0.940456 29.3706 1.8
      vertex -0.494427 29.1433 3.8147e-07
    endloop
  endfacet
  facet normal 0.454049 -0.890977 0
    outer loop
      vertex -0.940456 31.9594 3.8147e-07
      vertex -0.494427 32.1867 1.8
      vertex -0.940456 31.9594 1.8
    endloop
  endfacet
  facet normal 0.454049 -0.890977 0
    outer loop
      vertex -0.940456 31.9594 3.8147e-07
      vertex -0.494427 32.1867 3.8147e-07
      vertex -0.494427 32.1867 1.8
    endloop
  endfacet
  facet normal -1 -0 0
    outer loop
      vertex -1.14011 3.51874 1.3
      vertex -1.14011 3.51874 1.8
      vertex -1.14011 7.77739 1.8
    endloop
  endfacet
  facet normal -1 0 0
    outer loop
      vertex -1.14011 3.51874 1.3
      vertex -1.14011 7.77739 1.8
      vertex -1.14011 7.77739 1.3
    endloop
  endfacet
  facet normal -0 0 1
    outer loop
      vertex -1.14011 3.51874 1.3
      vertex 0.0228424 3 1.3
      vertex 0.0228424 3.51874 1.3
    endloop
  endfacet
  facet normal 0 -1 -0
    outer loop
      vertex -1.14011 3.51874 1.3
      vertex 0.0228424 3.51874 1.3
      vertex 0.0228424 3.51874 1.8
    endloop
  endfacet
  facet normal 0 -1 0
    outer loop
      vertex -1.14011 3.51874 1.3
      vertex 0.0228424 3.51874 1.8
      vertex -1.14011 3.51874 1.8
    endloop
  endfacet
  facet normal 0 0 1
    outer loop
      vertex -1.14011 3.51874 1.8
      vertex 0.0228424 3.51874 1.8
      vertex 0.67363 6.04175 1.8
    endloop
  endfacet
  facet normal 0 0 1
    outer loop
      vertex -1.14011 3.51874 1.8
      vertex 0.67363 6.04175 1.8
      vertex -1.14011 7.77739 1.8
    endloop
  endfacet
  facet normal 0 0 1
    outer loop
      vertex -1.14011 7.77739 1.8
      vertex -0.494427 14.9783 1.8
      vertex -0.940456 15.2056 1.8
    endloop
  endfacet
  facet normal 0 0 1
    outer loop
      vertex -1.14011 7.77739 1.8
      vertex 0 14.9 1.8
      vertex -0.494427 14.9783 1.8
    endloop
  endfacet
  facet normal 0 0 1
    outer loop
      vertex -1.14011 7.77739 1.8
      vertex 0.67363 6.04175 1.8
      vertex 0.821671 6.67691 1.8
    endloop
  endfacet
  facet normal 0 0 1
    outer loop
      vertex -1.14011 7.77739 1.8
      vertex 0.821671 6.67691 1.8
      vertex 1.06842 7.18399 1.8
    endloop
  endfacet
  facet normal 0 0 1
    outer loop
      vertex -1.14011 7.77739 1.8
      vertex 1.06842 7.18399 1.8
      vertex 1.40634 7.55321 1.8
    endloop
  endfacet
  facet normal 0 0 1
    outer loop
      vertex -1.14011 7.77739 1.8
      vertex 1.40634 7.55321 1.8
      vertex 1.82791 7.77475 1.8
    endloop
  endfacet
  facet normal -0 0 1
    outer loop
      vertex -1.14011 7.77739 1.8
      vertex 1.82791 7.77475 1.8
      vertex 0 14.9 1.8
    endloop
  endfacet
  facet normal 0.707033 0.707181 0
    outer loop
      vertex -1.29443 15.5595 3.8147e-07
      vertex -0.940456 15.2056 1.8
      vertex -0.940456 15.2056 3.8147e-07
    endloop
  endfacet
  facet normal 0.707033 0.707181 0
    outer loop
      vertex -1.29443 15.5595 3.8147e-07
      vertex -1.29443 15.5595 1.8
      vertex -0.940456 15.2056 1.8
    endloop
  endfacet
  facet normal 0.707033 -0.707181 0
    outer loop
      vertex -1.29443 17.4405 1.8
      vertex -0.940456 17.7944 3.8147e-07
      vertex -0.940456 17.7944 1.8
    endloop
  endfacet
  facet normal 0.707033 -0.707181 0
    outer loop
      vertex -1.29443 17.4405 3.8147e-07
      vertex -0.940456 17.7944 3.8147e-07
      vertex -1.29443 17.4405 1.8
    endloop
  endfacet
  facet normal 0.707033 0.707181 -0
    outer loop
      vertex -1.29443 29.7245 1.8
      vertex -0.940456 29.3706 1.8
      vertex -0.940456 29.3706 3.8147e-07
    endloop
  endfacet
  facet normal 0.707033 0.707181 0
    outer loop
      vertex -1.29443 29.7245 3.8147e-07
      vertex -1.29443 29.7245 1.8
      vertex -0.940456 29.3706 3.8147e-07
    endloop
  endfacet
  facet normal 0.707033 -0.707181 0
    outer loop
      vertex -1.29443 31.6055 1.8
      vertex -0.940456 31.9594 3.8147e-07
      vertex -0.940456 31.9594 1.8
    endloop
  endfacet
  facet normal 0.707033 -0.707181 0
    outer loop
      vertex -1.29443 31.6055 3.8147e-07
      vertex -0.940456 31.9594 3.8147e-07
      vertex -1.29443 31.6055 1.8
    endloop
  endfacet
  facet normal 0.891038 0.453928 0
    outer loop
      vertex -1.52169 16.0056 3.8147e-07
      vertex -1.29443 15.5595 1.8
      vertex -1.29443 15.5595 3.8147e-07
    endloop
  endfacet
  facet normal 0.891038 0.453928 0
    outer loop
      vertex -1.52169 16.0056 3.8147e-07
      vertex -1.52169 16.0056 1.8
      vertex -1.29443 15.5595 1.8
    endloop
  endfacet
  facet normal 0.891038 -0.453928 0
    outer loop
      vertex -1.52169 16.9944 1.8
      vertex -1.29443 17.4405 3.8147e-07
      vertex -1.29443 17.4405 1.8
    endloop
  endfacet
  facet normal 0.891038 -0.453928 0
    outer loop
      vertex -1.52169 16.9944 3.8147e-07
      vertex -1.29443 17.4405 3.8147e-07
      vertex -1.52169 16.9944 1.8
    endloop
  endfacet
  facet normal 0.891038 0.453928 0
    outer loop
      vertex -1.52169 30.1706 3.8147e-07
      vertex -1.29443 29.7245 1.8
      vertex -1.29443 29.7245 3.8147e-07
    endloop
  endfacet
  facet normal 0.891038 0.453928 0
    outer loop
      vertex -1.52169 30.1706 3.8147e-07
      vertex -1.52169 30.1706 1.8
      vertex -1.29443 29.7245 1.8
    endloop
  endfacet
  facet normal 0.891038 -0.453928 0
    outer loop
      vertex -1.52169 31.1594 1.8
      vertex -1.29443 31.6055 3.8147e-07
      vertex -1.29443 31.6055 1.8
    endloop
  endfacet
  facet normal 0.891038 -0.453928 0
    outer loop
      vertex -1.52169 31.1594 3.8147e-07
      vertex -1.29443 31.6055 3.8147e-07
      vertex -1.52169 31.1594 1.8
    endloop
  endfacet
  facet normal 0.987687 -0.156444 0
    outer loop
      vertex -1.6 16.5 1.8
      vertex -1.52169 16.9944 3.8147e-07
      vertex -1.52169 16.9944 1.8
    endloop
  endfacet
  facet normal 0.987687 0.156444 0
    outer loop
      vertex -1.6 16.5 3.8147e-07
      vertex -1.52169 16.0056 1.8
      vertex -1.52169 16.0056 3.8147e-07
    endloop
  endfacet
  facet normal 0.987687 -0.156444 0
    outer loop
      vertex -1.6 16.5 3.8147e-07
      vertex -1.52169 16.9944 3.8147e-07
      vertex -1.6 16.5 1.8
    endloop
  endfacet
  facet normal 0.987687 0.156444 0
    outer loop
      vertex -1.6 16.5 3.8147e-07
      vertex -1.6 16.5 1.8
      vertex -1.52169 16.0056 1.8
    endloop
  endfacet
  facet normal 0.987687 -0.156444 0
    outer loop
      vertex -1.6 30.665 1.8
      vertex -1.52169 31.1594 3.8147e-07
      vertex -1.52169 31.1594 1.8
    endloop
  endfacet
  facet normal 0.987687 0.156444 0
    outer loop
      vertex -1.6 30.665 3.8147e-07
      vertex -1.52169 30.1706 1.8
      vertex -1.52169 30.1706 3.8147e-07
    endloop
  endfacet
  facet normal 0.987687 -0.156444 0
    outer loop
      vertex -1.6 30.665 3.8147e-07
      vertex -1.52169 31.1594 3.8147e-07
      vertex -1.6 30.665 1.8
    endloop
  endfacet
  facet normal 0.987687 0.156444 0
    outer loop
      vertex -1.6 30.665 3.8147e-07
      vertex -1.6 30.665 1.8
      vertex -1.52169 30.1706 1.8
    endloop
  endfacet
  facet normal 0 -1 -0
    outer loop
      vertex -1.70296 7.77739 1.3
      vertex -1.14011 7.77739 1.3
      vertex -1.14011 7.77739 1.8
    endloop
  endfacet
  facet normal 0 -1 0
    outer loop
      vertex -1.70296 7.77739 1.3
      vertex -1.14011 7.77739 1.8
      vertex -1.70296 7.77739 1.8
    endloop
  endfacet
  facet normal 0 0 1
    outer loop
      vertex -1.70296 7.77739 1.8
      vertex -0.940456 15.2056 1.8
      vertex -1.29443 15.5595 1.8
    endloop
  endfacet
  facet normal 0 0 1
    outer loop
      vertex -1.70296 7.77739 1.8
      vertex -1.14011 7.77739 1.8
      vertex -0.940456 15.2056 1.8
    endloop
  endfacet
  facet normal 0 0 1
    outer loop
      vertex -1.75386 3.51874 1.3
      vertex -1.14011 3.51874 1.3
      vertex -1.75386 7.1942 1.3
    endloop
  endfacet
  facet normal 1 0 0
    outer loop
      vertex -1.75386 3.51874 1.3
      vertex -1.75386 7.1942 1.3
      vertex -1.75386 3.51874 1.8
    endloop
  endfacet
  facet normal -0 0 1
    outer loop
      vertex -1.75386 3.51874 1.3
      vertex 0.0228424 3 1.3
      vertex -1.14011 3.51874 1.3
    endloop
  endfacet
  facet normal 1 -0 0
    outer loop
      vertex -1.75386 3.51874 1.8
      vertex -1.75386 7.1942 1.3
      vertex -1.75386 7.1942 1.8
    endloop
  endfacet
  facet normal 0 0 1
    outer loop
      vertex -1.75386 7.1942 1.3
      vertex -1.14011 3.51874 1.3
      vertex -1.14011 7.77739 1.3
    endloop
  endfacet
  facet normal 0 0 1
    outer loop
      vertex -1.75386 7.1942 1.3
      vertex -1.14011 7.77739 1.3
      vertex -1.70296 7.77739 1.3
    endloop
  endfacet
  facet normal 0 0 1
    outer loop
      vertex -11.7874 2.24858 1.8
      vertex -2.83206 6.42455 1.8
      vertex -2.83206 7.00095 1.8
    endloop
  endfacet
  facet normal 0 0 1
    outer loop
      vertex -11.7874 2.24858 1.8
      vertex -2.83206 7.00095 1.8
      vertex -8.5 17.7062 1.8
    endloop
  endfacet
  facet normal 0 0 1
    outer loop
      vertex -11.7874 2.24858 1.8
      vertex -2.97105 3 1.8
      vertex -2.97105 3.51874 1.8
    endloop
  endfacet
  facet normal 0 0 1
    outer loop
      vertex -11.7874 2.24858 1.8
      vertex -2.97105 3.51874 1.8
      vertex -2.83206 6.42455 1.8
    endloop
  endfacet
  facet normal -0 0 -1
    outer loop
      vertex -11.7874 2.24858 3.8147e-07
      vertex -0.494427 14.9783 3.8147e-07
      vertex 0 14.9 3.8147e-07
    endloop
  endfacet
  facet normal -0 0 -1
    outer loop
      vertex -11.7874 2.24858 3.8147e-07
      vertex -0.940456 15.2056 3.8147e-07
      vertex -0.494427 14.9783 3.8147e-07
    endloop
  endfacet
  facet normal -0 0 -1
    outer loop
      vertex -11.7874 2.24858 3.8147e-07
      vertex -1.29443 15.5595 3.8147e-07
      vertex -0.940456 15.2056 3.8147e-07
    endloop
  endfacet
  facet normal -0.978125 0.20802 0
    outer loop
      vertex -11.7874 2.24858 3.8147e-07
      vertex -11.7874 2.24858 1.8
      vertex -8.5 17.7062 1.8
    endloop
  endfacet
  facet normal -0.978125 0.20802 0
    outer loop
      vertex -11.7874 2.24858 3.8147e-07
      vertex -8.5 17.7062 1.8
      vertex -8.5 17.7062 3.8147e-07
    endloop
  endfacet
  facet normal -0 0 -1
    outer loop
      vertex -11.7874 2.24858 3.8147e-07
      vertex -8.5 17.7062 3.8147e-07
      vertex -1.29443 15.5595 3.8147e-07
    endloop
  endfacet
  facet normal 0 0 -1
    outer loop
      vertex -11.7874 2.24858 3.8147e-07
      vertex 0 14.9 3.8147e-07
      vertex 11.7874 2.24858 3.8147e-07
    endloop
  endfacet
  facet normal 0 0 -1
    outer loop
      vertex -11.7874 2.24858 3.8147e-07
      vertex 11.7874 2.24858 3.8147e-07
      vertex 12 0 3.8147e-07
    endloop
  endfacet
  facet normal 0 0 1
    outer loop
      vertex -11.9054 1.504 1.8
      vertex -2.97105 3 1.8
      vertex -11.7874 2.24858 1.8
    endloop
  endfacet
  facet normal -0.987674 0.156525 0
    outer loop
      vertex -11.9054 1.504 3.8147e-07
      vertex -11.7874 2.24858 1.8
      vertex -11.7874 2.24858 3.8147e-07
    endloop
  endfacet
  facet normal 0 0 -1
    outer loop
      vertex -11.9054 1.504 3.8147e-07
      vertex -11.7874 2.24858 3.8147e-07
      vertex 12 0 3.8147e-07
    endloop
  endfacet
  facet normal -0.987674 0.156525 0
    outer loop
      vertex -11.9054 1.504 3.8147e-07
      vertex -11.9054 1.504 1.8
      vertex -11.7874 2.24858 1.8
    endloop
  endfacet
  facet normal 0 0 1
    outer loop
      vertex -11.9763 0.753486 1.8
      vertex -2.97105 3 1.8
      vertex -11.9054 1.504 1.8
    endloop
  endfacet
  facet normal -0.995567 0.0940499 0
    outer loop
      vertex -11.9763 0.753486 3.8147e-07
      vertex -11.9054 1.504 1.8
      vertex -11.9054 1.504 3.8147e-07
    endloop
  endfacet
  facet normal 0 0 -1
    outer loop
      vertex -11.9763 0.753486 3.8147e-07
      vertex -11.9054 1.504 3.8147e-07
      vertex 12 0 3.8147e-07
    endloop
  endfacet
  facet normal -0.995567 0.0940499 0
    outer loop
      vertex -11.9763 0.753486 3.8147e-07
      vertex -11.9763 0.753486 1.8
      vertex -11.9054 1.504 1.8
    endloop
  endfacet
  facet normal 0 0 1
    outer loop
      vertex -12 0 1.8
      vertex -2.97105 3 1.8
      vertex -11.9763 0.753486 1.8
    endloop
  endfacet
  facet normal 0 0 1
    outer loop
      vertex -12 0 1.8
      vertex 0.0228424 3 1.8
      vertex -2.97105 3 1.8
    endloop
  endfacet
  facet normal 0 0 1
    outer loop
      vertex -12 0 1.8
      vertex 12 0 1.8
      vertex 0.0228424 3 1.8
    endloop
  endfacet
  facet normal -0.999506 0.0314383 0
    outer loop
      vertex -12 0 3.8147e-07
      vertex -11.9763 0.753486 1.8
      vertex -11.9763 0.753486 3.8147e-07
    endloop
  endfacet
  facet normal 0 -0 -1
    outer loop
      vertex -12 0 3.8147e-07
      vertex -11.9763 0.753486 3.8147e-07
      vertex 12 0 3.8147e-07
    endloop
  endfacet
  facet normal -0.999506 0.0314383 0
    outer loop
      vertex -12 0 3.8147e-07
      vertex -12 0 1.8
      vertex -11.9763 0.753486 1.8
    endloop
  endfacet
  facet normal 0 -1 0
    outer loop
      vertex -12 0 3.8147e-07
      vertex 12 0 1.8
      vertex -12 0 1.8
    endloop
  endfacet
  facet normal 0 -1 -0
    outer loop
      vertex -12 0 3.8147e-07
      vertex 12 0 3.8147e-07
      vertex 12 0 1.8
    endloop
  endfacet
  facet normal 0 0 1
    outer loop
      vertex -2.83206 6.42455 1.3
      vertex -1.75386 7.1942 1.3
      vertex -2.83206 7.00095 1.3
    endloop
  endfacet
  facet normal -0.580992 0.813909 0
    outer loop
      vertex -2.83206 6.42455 1.3
      vertex -2.83206 6.42455 1.8
      vertex -1.75386 7.1942 1.3
    endloop
  endfacet
  facet normal 1 0 0
    outer loop
      vertex -2.83206 6.42455 1.3
      vertex -2.83206 7.00095 1.3
      vertex -2.83206 6.42455 1.8
    endloop
  endfacet
  facet normal -0 0 1
    outer loop
      vertex -2.83206 6.42455 1.8
      vertex -1.75386 3.51874 1.8
      vertex -1.75386 7.1942 1.8
    endloop
  endfacet
  facet normal -0.580992 0.813909 0
    outer loop
      vertex -2.83206 6.42455 1.8
      vertex -1.75386 7.1942 1.8
      vertex -1.75386 7.1942 1.3
    endloop
  endfacet
  facet normal 1 -0 0
    outer loop
      vertex -2.83206 6.42455 1.8
      vertex -2.83206 7.00095 1.3
      vertex -2.83206 7.00095 1.8
    endloop
  endfacet
  facet normal 0.56662 -0.823979 0
    outer loop
      vertex -2.83206 7.00095 1.3
      vertex -1.70296 7.77739 1.3
      vertex -1.70296 7.77739 1.8
    endloop
  endfacet
  facet normal 0.56662 -0.823979 0
    outer loop
      vertex -2.83206 7.00095 1.3
      vertex -1.70296 7.77739 1.8
      vertex -2.83206 7.00095 1.8
    endloop
  endfacet
  facet normal 0 0 1
    outer loop
      vertex -2.83206 7.00095 1.3
      vertex -1.75386 7.1942 1.3
      vertex -1.70296 7.77739 1.3
    endloop
  endfacet
  facet normal 0 0 1
    outer loop
      vertex -2.83206 7.00095 1.8
      vertex -1.70296 7.77739 1.8
      vertex -1.29443 15.5595 1.8
    endloop
  endfacet
  facet normal 0 0 1
    outer loop
      vertex -2.97105 3 1.3
      vertex -1.75386 3.51874 1.3
      vertex -2.97105 3.51874 1.3
    endloop
  endfacet
  facet normal 0 1 0
    outer loop
      vertex -2.97105 3 1.3
      vertex -2.97105 3 1.8
      vertex 0.0228424 3 1.3
    endloop
  endfacet
  facet normal 1 0 0
    outer loop
      vertex -2.97105 3 1.3
      vertex -2.97105 3.51874 1.3
      vertex -2.97105 3 1.8
    endloop
  endfacet
  facet normal 0 0 1
    outer loop
      vertex -2.97105 3 1.3
      vertex 0.0228424 3 1.3
      vertex -1.75386 3.51874 1.3
    endloop
  endfacet
  facet normal 1 -0 0
    outer loop
      vertex -2.97105 3 1.8
      vertex -2.97105 3.51874 1.3
      vertex -2.97105 3.51874 1.8
    endloop
  endfacet
  facet normal 0 1 -0
    outer loop
      vertex -2.97105 3 1.8
      vertex 0.0228424 3 1.8
      vertex 0.0228424 3 1.3
    endloop
  endfacet
  facet normal 0 -1 -0
    outer loop
      vertex -2.97105 3.51874 1.3
      vertex -1.75386 3.51874 1.3
      vertex -1.75386 3.51874 1.8
    endloop
  endfacet
  facet normal 0 -1 0
    outer loop
      vertex -2.97105 3.51874 1.3
      vertex -1.75386 3.51874 1.8
      vertex -2.97105 3.51874 1.8
    endloop
  endfacet
  facet normal 0 0 1
    outer loop
      vertex -2.97105 3.51874 1.8
      vertex -1.75386 3.51874 1.8
      vertex -2.83206 6.42455 1.8
    endloop
  endfacet
  facet normal 0 0 1
    outer loop
      vertex -8.5 17.7062 1.8
      vertex -0.940456 17.7944 1.8
      vertex -0.940456 29.3706 1.8
    endloop
  endfacet
  facet normal 0 0 1
    outer loop
      vertex -8.5 17.7062 1.8
      vertex -0.940456 29.3706 1.8
      vertex -1.29443 29.7245 1.8
    endloop
  endfacet
  facet normal 0 0 1
    outer loop
      vertex -8.5 17.7062 1.8
      vertex -1.29443 15.5595 1.8
      vertex -1.52169 16.0056 1.8
    endloop
  endfacet
  facet normal 0 0 1
    outer loop
      vertex -8.5 17.7062 1.8
      vertex -1.29443 17.4405 1.8
      vertex -0.940456 17.7944 1.8
    endloop
  endfacet
  facet normal 0 0 1
    outer loop
      vertex -8.5 17.7062 1.8
      vertex -1.29443 29.7245 1.8
      vertex -1.52169 30.1706 1.8
    endloop
  endfacet
  facet normal 0 0 1
    outer loop
      vertex -8.5 17.7062 1.8
      vertex -1.52169 16.0056 1.8
      vertex -1.6 16.5 1.8
    endloop
  endfacet
  facet normal 0 0 1
    outer loop
      vertex -8.5 17.7062 1.8
      vertex -1.52169 16.9944 1.8
      vertex -1.29443 17.4405 1.8
    endloop
  endfacet
  facet normal 0 0 1
    outer loop
      vertex -8.5 17.7062 1.8
      vertex -1.52169 30.1706 1.8
      vertex -8.5 35 1.8
    endloop
  endfacet
  facet normal 0 0 1
    outer loop
      vertex -8.5 17.7062 1.8
      vertex -1.6 16.5 1.8
      vertex -1.52169 16.9944 1.8
    endloop
  endfacet
  facet normal 0 0 1
    outer loop
      vertex -8.5 17.7062 1.8
      vertex -2.83206 7.00095 1.8
      vertex -1.29443 15.5595 1.8
    endloop
  endfacet
  facet normal 0 0 -1
    outer loop
      vertex -8.5 17.7062 3.8147e-07
      vertex -0.940456 17.7944 3.8147e-07
      vertex -1.29443 17.4405 3.8147e-07
    endloop
  endfacet
  facet normal -0 0 -1
    outer loop
      vertex -8.5 17.7062 3.8147e-07
      vertex -0.940456 29.3706 3.8147e-07
      vertex -0.940456 17.7944 3.8147e-07
    endloop
  endfacet
  facet normal 0 0 -1
    outer loop
      vertex -8.5 17.7062 3.8147e-07
      vertex -1.29443 17.4405 3.8147e-07
      vertex -1.52169 16.9944 3.8147e-07
    endloop
  endfacet
  facet normal -0 0 -1
    outer loop
      vertex -8.5 17.7062 3.8147e-07
      vertex -1.29443 29.7245 3.8147e-07
      vertex -0.940456 29.3706 3.8147e-07
    endloop
  endfacet
  facet normal 0 0 -1
    outer loop
      vertex -8.5 17.7062 3.8147e-07
      vertex -1.52169 16.0056 3.8147e-07
      vertex -1.29443 15.5595 3.8147e-07
    endloop
  endfacet
  facet normal 0 0 -1
    outer loop
      vertex -8.5 17.7062 3.8147e-07
      vertex -1.52169 16.9944 3.8147e-07
      vertex -1.6 16.5 3.8147e-07
    endloop
  endfacet
  facet normal -0 0 -1
    outer loop
      vertex -8.5 17.7062 3.8147e-07
      vertex -1.52169 30.1706 3.8147e-07
      vertex -1.29443 29.7245 3.8147e-07
    endloop
  endfacet
  facet normal 0 0 -1
    outer loop
      vertex -8.5 17.7062 3.8147e-07
      vertex -1.6 16.5 3.8147e-07
      vertex -1.52169 16.0056 3.8147e-07
    endloop
  endfacet
  facet normal -1 -0 0
    outer loop
      vertex -8.5 17.7062 3.8147e-07
      vertex -8.5 17.7062 1.8
      vertex -8.5 35 1.8
    endloop
  endfacet
  facet normal -1 0 0
    outer loop
      vertex -8.5 17.7062 3.8147e-07
      vertex -8.5 35 1.8
      vertex -8.5 35 3.8147e-07
    endloop
  endfacet
  facet normal 0 0 -1
    outer loop
      vertex -8.5 17.7062 3.8147e-07
      vertex -8.5 35 3.8147e-07
      vertex -1.52169 30.1706 3.8147e-07
    endloop
  endfacet
  facet normal 0 0 1
    outer loop
      vertex -8.5 35 1.8
      vertex -0.494427 32.1867 1.8
      vertex 0 32.265 1.8
    endloop
  endfacet
  facet normal 0 0 1
    outer loop
      vertex -8.5 35 1.8
      vertex -0.940456 31.9594 1.8
      vertex -0.494427 32.1867 1.8
    endloop
  endfacet
  facet normal 0 0 1
    outer loop
      vertex -8.5 35 1.8
      vertex -1.29443 31.6055 1.8
      vertex -0.940456 31.9594 1.8
    endloop
  endfacet
  facet normal 0 0 1
    outer loop
      vertex -8.5 35 1.8
      vertex -1.52169 30.1706 1.8
      vertex -1.6 30.665 1.8
    endloop
  endfacet
  facet normal 0 0 1
    outer loop
      vertex -8.5 35 1.8
      vertex -1.52169 31.1594 1.8
      vertex -1.29443 31.6055 1.8
    endloop
  endfacet
  facet normal 0 0 1
    outer loop
      vertex -8.5 35 1.8
      vertex -1.6 30.665 1.8
      vertex -1.52169 31.1594 1.8
    endloop
  endfacet
  facet normal -0 0 1
    outer loop
      vertex -8.5 35 1.8
      vertex 0 32.265 1.8
      vertex 8.5 35 1.8
    endloop
  endfacet
  facet normal 0 1 -0
    outer loop
      vertex -8.5 35 1.8
      vertex 8.5 35 1.8
      vertex 8.5 35 3.8147e-07
    endloop
  endfacet
  facet normal 0 0 -1
    outer loop
      vertex -8.5 35 3.8147e-07
      vertex -0.494427 32.1867 3.8147e-07
      vertex -0.940456 31.9594 3.8147e-07
    endloop
  endfacet
  facet normal 0 0 -1
    outer loop
      vertex -8.5 35 3.8147e-07
      vertex -0.940456 31.9594 3.8147e-07
      vertex -1.29443 31.6055 3.8147e-07
    endloop
  endfacet
  facet normal 0 0 -1
    outer loop
      vertex -8.5 35 3.8147e-07
      vertex -1.29443 31.6055 3.8147e-07
      vertex -1.52169 31.1594 3.8147e-07
    endloop
  endfacet
  facet normal 0 0 -1
    outer loop
      vertex -8.5 35 3.8147e-07
      vertex -1.52169 31.1594 3.8147e-07
      vertex -1.6 30.665 3.8147e-07
    endloop
  endfacet
  facet normal 0 0 -1
    outer loop
      vertex -8.5 35 3.8147e-07
      vertex -1.6 30.665 3.8147e-07
      vertex -1.52169 30.1706 3.8147e-07
    endloop
  endfacet
  facet normal 0 1 0
    outer loop
      vertex -8.5 35 3.8147e-07
      vertex -8.5 35 1.8
      vertex 8.5 35 3.8147e-07
    endloop
  endfacet
  facet normal 0 0 -1
    outer loop
      vertex -8.5 35 3.8147e-07
      vertex 0 32.265 3.8147e-07
      vertex -0.494427 32.1867 3.8147e-07
    endloop
  endfacet
  facet normal 0 0 -1
    outer loop
      vertex -8.5 35 3.8147e-07
      vertex 8.5 35 3.8147e-07
      vertex 0 32.265 3.8147e-07
    endloop
  endfacet
  facet normal -0.156416 0.987691 0
    outer loop
      vertex 0 14.9 1.8
      vertex 0.494427 14.9783 1.8
      vertex 0.494427 14.9783 3.8147e-07
    endloop
  endfacet
  facet normal -0 0 1
    outer loop
      vertex 0 14.9 1.8
      vertex 1.82791 7.77475 1.8
      vertex 0.494427 14.9783 1.8
    endloop
  endfacet
  facet normal -0.156416 0.987691 0
    outer loop
      vertex 0 14.9 3.8147e-07
      vertex 0 14.9 1.8
      vertex 0.494427 14.9783 3.8147e-07
    endloop
  endfacet
  facet normal 0 0 -1
    outer loop
      vertex 0 14.9 3.8147e-07
      vertex 0.494427 14.9783 3.8147e-07
      vertex 11.7874 2.24858 3.8147e-07
    endloop
  endfacet
  facet normal 0 0 1
    outer loop
      vertex 0 18.1 1.8
      vertex 0.494427 18.0217 1.8
      vertex 0 29.065 1.8
    endloop
  endfacet
  facet normal 0 0 -1
    outer loop
      vertex 0 18.1 3.8147e-07
      vertex 0 29.065 3.8147e-07
      vertex 0.494427 29.1433 3.8147e-07
    endloop
  endfacet
  facet normal -0.156416 -0.987691 0
    outer loop
      vertex 0 18.1 3.8147e-07
      vertex 0.494427 18.0217 1.8
      vertex 0 18.1 1.8
    endloop
  endfacet
  facet normal -0.156416 -0.987691 -0
    outer loop
      vertex 0 18.1 3.8147e-07
      vertex 0.494427 18.0217 3.8147e-07
      vertex 0.494427 18.0217 1.8
    endloop
  endfacet
  facet normal 0 0 -1
    outer loop
      vertex 0 18.1 3.8147e-07
      vertex 0.494427 29.1433 3.8147e-07
      vertex 0.494427 18.0217 3.8147e-07
    endloop
  endfacet
  facet normal -0 0 1
    outer loop
      vertex 0 29.065 1.8
      vertex 0.494427 18.0217 1.8
      vertex 0.494427 29.1433 1.8
    endloop
  endfacet
  facet normal -0.156416 0.987691 0
    outer loop
      vertex 0 29.065 1.8
      vertex 0.494427 29.1433 1.8
      vertex 0.494427 29.1433 3.8147e-07
    endloop
  endfacet
  facet normal -0.156416 0.987691 0
    outer loop
      vertex 0 29.065 3.8147e-07
      vertex 0 29.065 1.8
      vertex 0.494427 29.1433 3.8147e-07
    endloop
  endfacet
  facet normal 0 0 1
    outer loop
      vertex 0 32.265 1.8
      vertex 0.494427 32.1867 1.8
      vertex 8.5 35 1.8
    endloop
  endfacet
  facet normal -0.156416 -0.987691 0
    outer loop
      vertex 0 32.265 3.8147e-07
      vertex 0.494427 32.1867 1.8
      vertex 0 32.265 1.8
    endloop
  endfacet
  facet normal -0.156416 -0.987691 -0
    outer loop
      vertex 0 32.265 3.8147e-07
      vertex 0.494427 32.1867 3.8147e-07
      vertex 0.494427 32.1867 1.8
    endloop
  endfacet
  facet normal 0 0 -1
    outer loop
      vertex 0 32.265 3.8147e-07
      vertex 8.5 35 3.8147e-07
      vertex 0.494427 32.1867 3.8147e-07
    endloop
  endfacet
  facet normal -1 -0 0
    outer loop
      vertex 0.0228424 3 1.3
      vertex 0.0228424 3 1.8
      vertex 0.0228424 3.51874 1.8
    endloop
  endfacet
  facet normal -1 0 0
    outer loop
      vertex 0.0228424 3 1.3
      vertex 0.0228424 3.51874 1.8
      vertex 0.0228424 3.51874 1.3
    endloop
  endfacet
  facet normal 0 0 1
    outer loop
      vertex 0.0228424 3 1.8
      vertex 1.05147 3.53229 1.8
      vertex 0.0228424 3.51874 1.8
    endloop
  endfacet
  facet normal 0 0 1
    outer loop
      vertex 0.0228424 3 1.8
      vertex 1.37848 3.1989 1.8
      vertex 1.05147 3.53229 1.8
    endloop
  endfacet
  facet normal 0 0 1
    outer loop
      vertex 0.0228424 3 1.8
      vertex 1.78987 2.99889 1.8
      vertex 1.37848 3.1989 1.8
    endloop
  endfacet
  facet normal 0 0 1
    outer loop
      vertex 0.0228424 3 1.8
      vertex 12 0 1.8
      vertex 2.28568 2.93221 1.8
    endloop
  endfacet
  facet normal 0 0 1
    outer loop
      vertex 0.0228424 3 1.8
      vertex 2.28568 2.93221 1.8
      vertex 1.78987 2.99889 1.8
    endloop
  endfacet
  facet normal 0 0 1
    outer loop
      vertex 0.0228424 3.51874 1.8
      vertex 0.624268 5.27849 1.8
      vertex 0.67363 6.04175 1.8
    endloop
  endfacet
  facet normal 0 0 1
    outer loop
      vertex 0.0228424 3.51874 1.8
      vertex 0.671738 4.57512 1.8
      vertex 0.624268 5.27849 1.8
    endloop
  endfacet
  facet normal 0 0 1
    outer loop
      vertex 0.0228424 3.51874 1.8
      vertex 0.814133 3.99304 1.8
      vertex 0.671738 4.57512 1.8
    endloop
  endfacet
  facet normal 0 0 1
    outer loop
      vertex 0.0228424 3.51874 1.8
      vertex 1.05147 3.53229 1.8
      vertex 0.814133 3.99304 1.8
    endloop
  endfacet
  facet normal -0.454049 0.890977 0
    outer loop
      vertex 0.494427 14.9783 1.8
      vertex 0.940456 15.2056 1.8
      vertex 0.940456 15.2056 3.8147e-07
    endloop
  endfacet
  facet normal 0 0 1
    outer loop
      vertex 0.494427 14.9783 1.8
      vertex 1.82791 7.77475 1.8
      vertex 2.33313 7.84859 1.8
    endloop
  endfacet
  facet normal -0 0 1
    outer loop
      vertex 0.494427 14.9783 1.8
      vertex 2.33313 7.84859 1.8
      vertex 0.940456 15.2056 1.8
    endloop
  endfacet
  facet normal -0.454049 0.890977 0
    outer loop
      vertex 0.494427 14.9783 3.8147e-07
      vertex 0.494427 14.9783 1.8
      vertex 0.940456 15.2056 3.8147e-07
    endloop
  endfacet
  facet normal 0 0 -1
    outer loop
      vertex 0.494427 14.9783 3.8147e-07
      vertex 0.940456 15.2056 3.8147e-07
      vertex 11.7874 2.24858 3.8147e-07
    endloop
  endfacet
  facet normal 0 0 1
    outer loop
      vertex 0.494427 18.0217 1.8
      vertex 0.940456 17.7944 1.8
      vertex 0.494427 29.1433 1.8
    endloop
  endfacet
  facet normal 0 0 -1
    outer loop
      vertex 0.494427 18.0217 3.8147e-07
      vertex 0.494427 29.1433 3.8147e-07
      vertex 0.940456 29.3706 3.8147e-07
    endloop
  endfacet
  facet normal -0.454049 -0.890977 0
    outer loop
      vertex 0.494427 18.0217 3.8147e-07
      vertex 0.940456 17.7944 1.8
      vertex 0.494427 18.0217 1.8
    endloop
  endfacet
  facet normal -0.454049 -0.890977 -0
    outer loop
      vertex 0.494427 18.0217 3.8147e-07
      vertex 0.940456 17.7944 3.8147e-07
      vertex 0.940456 17.7944 1.8
    endloop
  endfacet
  facet normal 0 0 -1
    outer loop
      vertex 0.494427 18.0217 3.8147e-07
      vertex 0.940456 29.3706 3.8147e-07
      vertex 0.940456 17.7944 3.8147e-07
    endloop
  endfacet
  facet normal -0 0 1
    outer loop
      vertex 0.494427 29.1433 1.8
      vertex 0.940456 17.7944 1.8
      vertex 0.940456 29.3706 1.8
    endloop
  endfacet
  facet normal -0.454049 0.890977 0
    outer loop
      vertex 0.494427 29.1433 1.8
      vertex 0.940456 29.3706 1.8
      vertex 0.940456 29.3706 3.8147e-07
    endloop
  endfacet
  facet normal -0.454049 0.890977 0
    outer loop
      vertex 0.494427 29.1433 3.8147e-07
      vertex 0.494427 29.1433 1.8
      vertex 0.940456 29.3706 3.8147e-07
    endloop
  endfacet
  facet normal 0 0 1
    outer loop
      vertex 0.494427 32.1867 1.8
      vertex 0.940456 31.9594 1.8
      vertex 8.5 35 1.8
    endloop
  endfacet
  facet normal -0.454049 -0.890977 0
    outer loop
      vertex 0.494427 32.1867 3.8147e-07
      vertex 0.940456 31.9594 1.8
      vertex 0.494427 32.1867 1.8
    endloop
  endfacet
  facet normal -0.454049 -0.890977 -0
    outer loop
      vertex 0.494427 32.1867 3.8147e-07
      vertex 0.940456 31.9594 3.8147e-07
      vertex 0.940456 31.9594 1.8
    endloop
  endfacet
  facet normal 0 0 -1
    outer loop
      vertex 0.494427 32.1867 3.8147e-07
      vertex 8.5 35 3.8147e-07
      vertex 0.940456 31.9594 3.8147e-07
    endloop
  endfacet
  facet normal 0.99773 0.0673362 0
    outer loop
      vertex 0.624268 5.27849 1.3
      vertex 0.624268 5.27849 1.8
      vertex 0.671738 4.57512 1.8
    endloop
  endfacet
  facet normal 0 -0 1
    outer loop
      vertex 0.624268 5.27849 1.3
      vertex 0.671738 4.57512 1.3
      vertex 1.32141 4.95244 1.3
    endloop
  endfacet
  facet normal 0.99773 0.0673362 0
    outer loop
      vertex 0.624268 5.27849 1.3
      vertex 0.671738 4.57512 1.8
      vertex 0.671738 4.57512 1.3
    endloop
  endfacet
  facet normal 0.997915 -0.0645378 0
    outer loop
      vertex 0.624268 5.27849 1.3
      vertex 0.67363 6.04175 1.3
      vertex 0.624268 5.27849 1.8
    endloop
  endfacet
  facet normal 0 0 1
    outer loop
      vertex 0.624268 5.27849 1.3
      vertex 1.23117 5.45819 1.3
      vertex 0.67363 6.04175 1.3
    endloop
  endfacet
  facet normal -0 0 1
    outer loop
      vertex 0.624268 5.27849 1.3
      vertex 1.32141 4.95244 1.3
      vertex 1.23117 5.45819 1.3
    endloop
  endfacet
  facet normal 0.997915 -0.0645378 0
    outer loop
      vertex 0.624268 5.27849 1.8
      vertex 0.67363 6.04175 1.3
      vertex 0.67363 6.04175 1.8
    endloop
  endfacet
  facet normal 0.971357 0.237624 0
    outer loop
      vertex 0.671738 4.57512 1.3
      vertex 0.671738 4.57512 1.8
      vertex 0.814133 3.99304 1.8
    endloop
  endfacet
  facet normal 0 0 1
    outer loop
      vertex 0.671738 4.57512 1.3
      vertex 0.814133 3.99304 1.3
      vertex 1.32254 4.33553 1.3
    endloop
  endfacet
  facet normal 0.971357 0.237624 0
    outer loop
      vertex 0.671738 4.57512 1.3
      vertex 0.814133 3.99304 1.8
      vertex 0.814133 3.99304 1.3
    endloop
  endfacet
  facet normal 0 0 1
    outer loop
      vertex 0.671738 4.57512 1.3
      vertex 1.29222 4.68175 1.3
      vertex 1.32141 4.95244 1.3
    endloop
  endfacet
  facet normal -0 0 1
    outer loop
      vertex 0.671738 4.57512 1.3
      vertex 1.32254 4.33553 1.3
      vertex 1.29222 4.68175 1.3
    endloop
  endfacet
  facet normal 0.973896 -0.226993 0
    outer loop
      vertex 0.67363 6.04175 1.3
      vertex 0.821671 6.67691 1.3
      vertex 0.67363 6.04175 1.8
    endloop
  endfacet
  facet normal 0 0 1
    outer loop
      vertex 0.67363 6.04175 1.3
      vertex 1.23117 5.45819 1.3
      vertex 1.263 6.02461 1.3
    endloop
  endfacet
  facet normal -0 0 1
    outer loop
      vertex 0.67363 6.04175 1.3
      vertex 1.263 6.02461 1.3
      vertex 0.821671 6.67691 1.3
    endloop
  endfacet
  facet normal 0.973896 -0.226993 0
    outer loop
      vertex 0.67363 6.04175 1.8
      vertex 0.821671 6.67691 1.3
      vertex 0.821671 6.67691 1.8
    endloop
  endfacet
  facet normal 0.88899 0.457928 0
    outer loop
      vertex 0.814133 3.99304 1.3
      vertex 0.814133 3.99304 1.8
      vertex 1.05147 3.53229 1.8
    endloop
  endfacet
  facet normal 0 0 1
    outer loop
      vertex 0.814133 3.99304 1.3
      vertex 1.05147 3.53229 1.3
      vertex 1.41351 4.03377 1.3
    endloop
  endfacet
  facet normal 0.88899 0.457928 0
    outer loop
      vertex 0.814133 3.99304 1.3
      vertex 1.05147 3.53229 1.8
      vertex 1.05147 3.53229 1.3
    endloop
  endfacet
  facet normal 0 0 1
    outer loop
      vertex 0.814133 3.99304 1.3
      vertex 1.41351 4.03377 1.3
      vertex 1.32254 4.33553 1.3
    endloop
  endfacet
  facet normal 0.899192 -0.437554 0
    outer loop
      vertex 0.821671 6.67691 1.3
      vertex 1.06842 7.18399 1.3
      vertex 0.821671 6.67691 1.8
    endloop
  endfacet
  facet normal 0 0 1
    outer loop
      vertex 0.821671 6.67691 1.3
      vertex 1.263 6.02461 1.3
      vertex 1.35851 6.49422 1.3
    endloop
  endfacet
  facet normal 0 0 1
    outer loop
      vertex 0.821671 6.67691 1.3
      vertex 1.35851 6.49422 1.3
      vertex 1.51767 6.86699 1.3
    endloop
  endfacet
  facet normal 0 0 1
    outer loop
      vertex 0.821671 6.67691 1.3
      vertex 1.51767 6.86699 1.3
      vertex 1.06842 7.18399 1.3
    endloop
  endfacet
  facet normal 0.899192 -0.437554 0
    outer loop
      vertex 0.821671 6.67691 1.8
      vertex 1.06842 7.18399 1.3
      vertex 1.06842 7.18399 1.8
    endloop
  endfacet
  facet normal 0 0 1
    outer loop
      vertex 0.940456 15.2056 1.8
      vertex 2.33313 7.84859 1.8
      vertex 2.96529 7.74046 1.8
    endloop
  endfacet
  facet normal -0 0 1
    outer loop
      vertex 0.940456 15.2056 1.8
      vertex 2.96529 7.74046 1.8
      vertex 1.29443 15.5595 1.8
    endloop
  endfacet
  facet normal -0.707033 0.707181 0
    outer loop
      vertex 0.940456 15.2056 3.8147e-07
      vertex 0.940456 15.2056 1.8
      vertex 1.29443 15.5595 1.8
    endloop
  endfacet
  facet normal -0.707033 0.707181 0
    outer loop
      vertex 0.940456 15.2056 3.8147e-07
      vertex 1.29443 15.5595 1.8
      vertex 1.29443 15.5595 3.8147e-07
    endloop
  endfacet
  facet normal 0 0 -1
    outer loop
      vertex 0.940456 15.2056 3.8147e-07
      vertex 1.29443 15.5595 3.8147e-07
      vertex 8.5 17.7062 3.8147e-07
    endloop
  endfacet
  facet normal 0 0 -1
    outer loop
      vertex 0.940456 15.2056 3.8147e-07
      vertex 8.5 17.7062 3.8147e-07
      vertex 11.7874 2.24858 3.8147e-07
    endloop
  endfacet
  facet normal 0 0 1
    outer loop
      vertex 0.940456 17.7944 1.8
      vertex 1.29443 17.4405 1.8
      vertex 8.5 17.7062 1.8
    endloop
  endfacet
  facet normal -0.707033 -0.707181 0
    outer loop
      vertex 0.940456 17.7944 1.8
      vertex 1.29443 17.4405 3.8147e-07
      vertex 1.29443 17.4405 1.8
    endloop
  endfacet
  facet normal -0 0 1
    outer loop
      vertex 0.940456 17.7944 1.8
      vertex 8.5 17.7062 1.8
      vertex 0.940456 29.3706 1.8
    endloop
  endfacet
  facet normal 0 0 -1
    outer loop
      vertex 0.940456 17.7944 3.8147e-07
      vertex 0.940456 29.3706 3.8147e-07
      vertex 8.5 17.7062 3.8147e-07
    endloop
  endfacet
  facet normal -0.707033 -0.707181 0
    outer loop
      vertex 0.940456 17.7944 3.8147e-07
      vertex 1.29443 17.4405 3.8147e-07
      vertex 0.940456 17.7944 1.8
    endloop
  endfacet
  facet normal 0 0 -1
    outer loop
      vertex 0.940456 17.7944 3.8147e-07
      vertex 8.5 17.7062 3.8147e-07
      vertex 1.29443 17.4405 3.8147e-07
    endloop
  endfacet
  facet normal -0.707033 0.707181 0
    outer loop
      vertex 0.940456 29.3706 1.8
      vertex 1.29443 29.7245 1.8
      vertex 1.29443 29.7245 3.8147e-07
    endloop
  endfacet
  facet normal -0 0 1
    outer loop
      vertex 0.940456 29.3706 1.8
      vertex 8.5 17.7062 1.8
      vertex 1.29443 29.7245 1.8
    endloop
  endfacet
  facet normal -0.707033 0.707181 0
    outer loop
      vertex 0.940456 29.3706 3.8147e-07
      vertex 0.940456 29.3706 1.8
      vertex 1.29443 29.7245 3.8147e-07
    endloop
  endfacet
  facet normal 0 0 -1
    outer loop
      vertex 0.940456 29.3706 3.8147e-07
      vertex 1.29443 29.7245 3.8147e-07
      vertex 8.5 17.7062 3.8147e-07
    endloop
  endfacet
  facet normal 0 0 1
    outer loop
      vertex 0.940456 31.9594 1.8
      vertex 1.29443 31.6055 1.8
      vertex 8.5 35 1.8
    endloop
  endfacet
  facet normal -0.707033 -0.707181 0
    outer loop
      vertex 0.940456 31.9594 1.8
      vertex 1.29443 31.6055 3.8147e-07
      vertex 1.29443 31.6055 1.8
    endloop
  endfacet
  facet normal -0.707033 -0.707181 0
    outer loop
      vertex 0.940456 31.9594 3.8147e-07
      vertex 1.29443 31.6055 3.8147e-07
      vertex 0.940456 31.9594 1.8
    endloop
  endfacet
  facet normal 0 0 -1
    outer loop
      vertex 0.940456 31.9594 3.8147e-07
      vertex 8.5 35 3.8147e-07
      vertex 1.29443 31.6055 3.8147e-07
    endloop
  endfacet
  facet normal 0.713905 0.700243 0
    outer loop
      vertex 1.05147 3.53229 1.3
      vertex 1.05147 3.53229 1.8
      vertex 1.37848 3.1989 1.8
    endloop
  endfacet
  facet normal 0 0 1
    outer loop
      vertex 1.05147 3.53229 1.3
      vertex 1.37848 3.1989 1.3
      vertex 1.56512 3.77644 1.3
    endloop
  endfacet
  facet normal 0.713905 0.700243 0
    outer loop
      vertex 1.05147 3.53229 1.3
      vertex 1.37848 3.1989 1.8
      vertex 1.37848 3.1989 1.3
    endloop
  endfacet
  facet normal 0 0 1
    outer loop
      vertex 1.05147 3.53229 1.3
      vertex 1.56512 3.77644 1.3
      vertex 1.41351 4.03377 1.3
    endloop
  endfacet
  facet normal 0.737683 -0.675147 0
    outer loop
      vertex 1.06842 7.18399 1.3
      vertex 1.40634 7.55321 1.3
      vertex 1.06842 7.18399 1.8
    endloop
  endfacet
  facet normal 0 0 1
    outer loop
      vertex 1.06842 7.18399 1.3
      vertex 1.51767 6.86699 1.3
      vertex 1.73486 7.1373 1.3
    endloop
  endfacet
  facet normal -0 0 1
    outer loop
      vertex 1.06842 7.18399 1.3
      vertex 1.73486 7.1373 1.3
      vertex 1.40634 7.55321 1.3
    endloop
  endfacet
  facet normal 0.737683 -0.675147 0
    outer loop
      vertex 1.06842 7.18399 1.8
      vertex 1.40634 7.55321 1.3
      vertex 1.40634 7.55321 1.8
    endloop
  endfacet
  facet normal -0.998425 0.0561065 0
    outer loop
      vertex 1.23117 5.45819 1.3
      vertex 1.23117 5.45819 1.8
      vertex 1.263 6.02461 1.8
    endloop
  endfacet
  facet normal -0.998425 0.0561065 0
    outer loop
      vertex 1.23117 5.45819 1.3
      vertex 1.263 6.02461 1.8
      vertex 1.263 6.02461 1.3
    endloop
  endfacet
  facet normal 0 0 1
    outer loop
      vertex 1.23117 5.45819 1.3
      vertex 1.32141 4.95244 1.3
      vertex 1.409 5.1813 1.3
    endloop
  endfacet
  facet normal 0.832807 -0.553563 0
    outer loop
      vertex 1.23117 5.45819 1.3
      vertex 1.35701 5.64751 1.3
      vertex 1.23117 5.45819 1.8
    endloop
  endfacet
  facet normal 0 0 1
    outer loop
      vertex 1.23117 5.45819 1.3
      vertex 1.409 5.1813 1.3
      vertex 1.55498 5.36835 1.3
    endloop
  endfacet
  facet normal -0 0 1
    outer loop
      vertex 1.23117 5.45819 1.3
      vertex 1.55498 5.36835 1.3
      vertex 1.35701 5.64751 1.3
    endloop
  endfacet
  facet normal 0.832807 -0.553563 0
    outer loop
      vertex 1.23117 5.45819 1.8
      vertex 1.35701 5.64751 1.3
      vertex 1.35701 5.64751 1.8
    endloop
  endfacet
  facet normal 0 0 1
    outer loop
      vertex 1.23117 5.45819 1.8
      vertex 1.35701 5.64751 1.8
      vertex 1.263 6.02461 1.8
    endloop
  endfacet
  facet normal -0.979938 0.199301 0
    outer loop
      vertex 1.263 6.02461 1.3
      vertex 1.263 6.02461 1.8
      vertex 1.35851 6.49422 1.8
    endloop
  endfacet
  facet normal -0.979938 0.199301 0
    outer loop
      vertex 1.263 6.02461 1.3
      vertex 1.35851 6.49422 1.8
      vertex 1.35851 6.49422 1.3
    endloop
  endfacet
  facet normal 0 0 1
    outer loop
      vertex 1.263 6.02461 1.8
      vertex 1.35701 5.64751 1.8
      vertex 1.51297 5.80403 1.8
    endloop
  endfacet
  facet normal 0 0 1
    outer loop
      vertex 1.263 6.02461 1.8
      vertex 1.51297 5.80403 1.8
      vertex 1.69907 5.9278 1.8
    endloop
  endfacet
  facet normal -0 0 1
    outer loop
      vertex 1.263 6.02461 1.8
      vertex 1.69907 5.9278 1.8
      vertex 1.35851 6.49422 1.8
    endloop
  endfacet
  facet normal -0.994236 0.107214 0
    outer loop
      vertex 1.29222 4.68175 1.3
      vertex 1.29222 4.68175 1.8
      vertex 1.32141 4.95244 1.8
    endloop
  endfacet
  facet normal -0.994236 0.107214 0
    outer loop
      vertex 1.29222 4.68175 1.3
      vertex 1.32141 4.95244 1.8
      vertex 1.32141 4.95244 1.3
    endloop
  endfacet
  facet normal -0.996187 -0.0872405 0
    outer loop
      vertex 1.29222 4.68175 1.3
      vertex 1.32254 4.33553 1.3
      vertex 1.29222 4.68175 1.8
    endloop
  endfacet
  facet normal -0.996187 -0.0872405 0
    outer loop
      vertex 1.29222 4.68175 1.8
      vertex 1.32254 4.33553 1.3
      vertex 1.32254 4.33553 1.8
    endloop
  endfacet
  facet normal 0 0 1
    outer loop
      vertex 1.29222 4.68175 1.8
      vertex 1.32254 4.33553 1.8
      vertex 3.20792 4.53595 1.8
    endloop
  endfacet
  facet normal 0 0 1
    outer loop
      vertex 1.29222 4.68175 1.8
      vertex 1.97844 5.58986 1.8
      vertex 1.32141 4.95244 1.8
    endloop
  endfacet
  facet normal 0 0 1
    outer loop
      vertex 1.29222 4.68175 1.8
      vertex 2.24498 5.61754 1.8
      vertex 1.97844 5.58986 1.8
    endloop
  endfacet
  facet normal 0 0 1
    outer loop
      vertex 1.29222 4.68175 1.8
      vertex 3.17967 4.85541 1.8
      vertex 2.24498 5.61754 1.8
    endloop
  endfacet
  facet normal -0 0 1
    outer loop
      vertex 1.29222 4.68175 1.8
      vertex 3.20792 4.53595 1.8
      vertex 3.17967 4.85541 1.8
    endloop
  endfacet
  facet normal 0 -0 1
    outer loop
      vertex 1.29443 15.5595 1.8
      vertex 2.96529 7.74046 1.8
      vertex 8.5 17.7062 1.8
    endloop
  endfacet
  facet normal 0 0 1
    outer loop
      vertex 1.29443 15.5595 1.8
      vertex 8.5 17.7062 1.8
      vertex 1.52169 16.0056 1.8
    endloop
  endfacet
  facet normal -0.891038 0.453928 0
    outer loop
      vertex 1.29443 15.5595 3.8147e-07
      vertex 1.29443 15.5595 1.8
      vertex 1.52169 16.0056 1.8
    endloop
  endfacet
  facet normal -0.891038 0.453928 0
    outer loop
      vertex 1.29443 15.5595 3.8147e-07
      vertex 1.52169 16.0056 1.8
      vertex 1.52169 16.0056 3.8147e-07
    endloop
  endfacet
  facet normal 0 0 -1
    outer loop
      vertex 1.29443 15.5595 3.8147e-07
      vertex 1.52169 16.0056 3.8147e-07
      vertex 8.5 17.7062 3.8147e-07
    endloop
  endfacet
  facet normal 0 0 1
    outer loop
      vertex 1.29443 17.4405 1.8
      vertex 1.52169 16.9944 1.8
      vertex 8.5 17.7062 1.8
    endloop
  endfacet
  facet normal -0.891038 -0.453928 0
    outer loop
      vertex 1.29443 17.4405 1.8
      vertex 1.52169 16.9944 3.8147e-07
      vertex 1.52169 16.9944 1.8
    endloop
  endfacet
  facet normal -0.891038 -0.453928 0
    outer loop
      vertex 1.29443 17.4405 3.8147e-07
      vertex 1.52169 16.9944 3.8147e-07
      vertex 1.29443 17.4405 1.8
    endloop
  endfacet
  facet normal 0 0 -1
    outer loop
      vertex 1.29443 17.4405 3.8147e-07
      vertex 8.5 17.7062 3.8147e-07
      vertex 1.52169 16.9944 3.8147e-07
    endloop
  endfacet
  facet normal -0 0 1
    outer loop
      vertex 1.29443 29.7245 1.8
      vertex 8.5 17.7062 1.8
      vertex 1.52169 30.1706 1.8
    endloop
  endfacet
  facet normal -0.891038 0.453928 0
    outer loop
      vertex 1.29443 29.7245 3.8147e-07
      vertex 1.29443 29.7245 1.8
      vertex 1.52169 30.1706 1.8
    endloop
  endfacet
  facet normal -0.891038 0.453928 0
    outer loop
      vertex 1.29443 29.7245 3.8147e-07
      vertex 1.52169 30.1706 1.8
      vertex 1.52169 30.1706 3.8147e-07
    endloop
  endfacet
  facet normal 0 0 -1
    outer loop
      vertex 1.29443 29.7245 3.8147e-07
      vertex 1.52169 30.1706 3.8147e-07
      vertex 8.5 17.7062 3.8147e-07
    endloop
  endfacet
  facet normal 0 0 1
    outer loop
      vertex 1.29443 31.6055 1.8
      vertex 1.52169 31.1594 1.8
      vertex 8.5 35 1.8
    endloop
  endfacet
  facet normal -0.891038 -0.453928 0
    outer loop
      vertex 1.29443 31.6055 1.8
      vertex 1.52169 31.1594 3.8147e-07
      vertex 1.52169 31.1594 1.8
    endloop
  endfacet
  facet normal -0.891038 -0.453928 0
    outer loop
      vertex 1.29443 31.6055 3.8147e-07
      vertex 1.52169 31.1594 3.8147e-07
      vertex 1.29443 31.6055 1.8
    endloop
  endfacet
  facet normal 0 0 -1
    outer loop
      vertex 1.29443 31.6055 3.8147e-07
      vertex 8.5 35 3.8147e-07
      vertex 1.52169 31.1594 3.8147e-07
    endloop
  endfacet
  facet normal -0.933936 0.357439 0
    outer loop
      vertex 1.32141 4.95244 1.3
      vertex 1.32141 4.95244 1.8
      vertex 1.409 5.1813 1.8
    endloop
  endfacet
  facet normal -0.933936 0.357439 0
    outer loop
      vertex 1.32141 4.95244 1.3
      vertex 1.409 5.1813 1.8
      vertex 1.409 5.1813 1.3
    endloop
  endfacet
  facet normal 0 0 1
    outer loop
      vertex 1.32141 4.95244 1.8
      vertex 1.55498 5.36835 1.8
      vertex 1.409 5.1813 1.8
    endloop
  endfacet
  facet normal 0 0 1
    outer loop
      vertex 1.32141 4.95244 1.8
      vertex 1.74844 5.50679 1.8
      vertex 1.55498 5.36835 1.8
    endloop
  endfacet
  facet normal 0 0 1
    outer loop
      vertex 1.32141 4.95244 1.8
      vertex 1.97844 5.58986 1.8
      vertex 1.74844 5.50679 1.8
    endloop
  endfacet
  facet normal -0.957439 -0.288634 0
    outer loop
      vertex 1.32254 4.33553 1.3
      vertex 1.41351 4.03377 1.3
      vertex 1.32254 4.33553 1.8
    endloop
  endfacet
  facet normal -0.957439 -0.288634 0
    outer loop
      vertex 1.32254 4.33553 1.8
      vertex 1.41351 4.03377 1.3
      vertex 1.41351 4.03377 1.8
    endloop
  endfacet
  facet normal 0 -0 1
    outer loop
      vertex 1.32254 4.33553 1.8
      vertex 1.41351 4.03377 1.8
      vertex 3.18004 4.21478 1.8
    endloop
  endfacet
  facet normal 0 0 1
    outer loop
      vertex 1.32254 4.33553 1.8
      vertex 3.18004 4.21478 1.8
      vertex 3.20792 4.53595 1.8
    endloop
  endfacet
  facet normal 0.708373 -0.705838 0
    outer loop
      vertex 1.35701 5.64751 1.3
      vertex 1.51297 5.80403 1.3
      vertex 1.35701 5.64751 1.8
    endloop
  endfacet
  facet normal 0 0 1
    outer loop
      vertex 1.35701 5.64751 1.3
      vertex 1.55498 5.36835 1.3
      vertex 1.74844 5.50679 1.3
    endloop
  endfacet
  facet normal -0 0 1
    outer loop
      vertex 1.35701 5.64751 1.3
      vertex 1.74844 5.50679 1.3
      vertex 1.51297 5.80403 1.3
    endloop
  endfacet
  facet normal 0.708373 -0.705838 0
    outer loop
      vertex 1.35701 5.64751 1.8
      vertex 1.51297 5.80403 1.3
      vertex 1.51297 5.80403 1.8
    endloop
  endfacet
  facet normal -0.919679 0.392671 0
    outer loop
      vertex 1.35851 6.49422 1.3
      vertex 1.35851 6.49422 1.8
      vertex 1.51767 6.86699 1.8
    endloop
  endfacet
  facet normal -0.919679 0.392671 0
    outer loop
      vertex 1.35851 6.49422 1.3
      vertex 1.51767 6.86699 1.8
      vertex 1.51767 6.86699 1.3
    endloop
  endfacet
  facet normal 0 0 1
    outer loop
      vertex 1.35851 6.49422 1.8
      vertex 1.69907 5.9278 1.8
      vertex 1.91003 6.01726 1.8
    endloop
  endfacet
  facet normal -0 0 1
    outer loop
      vertex 1.35851 6.49422 1.8
      vertex 1.91003 6.01726 1.8
      vertex 1.51767 6.86699 1.8
    endloop
  endfacet
  facet normal 0.437244 0.899343 0
    outer loop
      vertex 1.37848 3.1989 1.3
      vertex 1.37848 3.1989 1.8
      vertex 1.78987 2.99889 1.3
    endloop
  endfacet
  facet normal 0 0 1
    outer loop
      vertex 1.37848 3.1989 1.3
      vertex 1.76424 3.58055 1.3
      vertex 1.56512 3.77644 1.3
    endloop
  endfacet
  facet normal 0 0 1
    outer loop
      vertex 1.37848 3.1989 1.3
      vertex 1.78987 2.99889 1.3
      vertex 1.76424 3.58055 1.3
    endloop
  endfacet
  facet normal 0.437244 0.899343 -0
    outer loop
      vertex 1.37848 3.1989 1.8
      vertex 1.78987 2.99889 1.8
      vertex 1.78987 2.99889 1.3
    endloop
  endfacet
  facet normal -0 0 1
    outer loop
      vertex 1.40634 7.55321 1.3
      vertex 1.73486 7.1373 1.3
      vertex 1.82791 7.77475 1.3
    endloop
  endfacet
  facet normal 0.465189 -0.885211 0
    outer loop
      vertex 1.40634 7.55321 1.3
      vertex 1.82791 7.77475 1.3
      vertex 1.82791 7.77475 1.8
    endloop
  endfacet
  facet normal 0.465189 -0.885211 0
    outer loop
      vertex 1.40634 7.55321 1.3
      vertex 1.82791 7.77475 1.8
      vertex 1.40634 7.55321 1.8
    endloop
  endfacet
  facet normal -0.788337 0.615244 0
    outer loop
      vertex 1.409 5.1813 1.3
      vertex 1.409 5.1813 1.8
      vertex 1.55498 5.36835 1.8
    endloop
  endfacet
  facet normal -0.788337 0.615244 0
    outer loop
      vertex 1.409 5.1813 1.3
      vertex 1.55498 5.36835 1.8
      vertex 1.55498 5.36835 1.3
    endloop
  endfacet
  facet normal -0.861584 -0.507616 0
    outer loop
      vertex 1.41351 4.03377 1.3
      vertex 1.56512 3.77644 1.3
      vertex 1.41351 4.03377 1.8
    endloop
  endfacet
  facet normal -0.861584 -0.507616 0
    outer loop
      vertex 1.41351 4.03377 1.8
      vertex 1.56512 3.77644 1.3
      vertex 1.56512 3.77644 1.8
    endloop
  endfacet
  facet normal 0 -0 1
    outer loop
      vertex 1.41351 4.03377 1.8
      vertex 1.56512 3.77644 1.8
      vertex 3.18004 4.21478 1.8
    endloop
  endfacet
  facet normal 0.553781 -0.832662 0
    outer loop
      vertex 1.51297 5.80403 1.3
      vertex 1.69907 5.9278 1.3
      vertex 1.69907 5.9278 1.8
    endloop
  endfacet
  facet normal 0.553781 -0.832662 0
    outer loop
      vertex 1.51297 5.80403 1.3
      vertex 1.69907 5.9278 1.8
      vertex 1.51297 5.80403 1.8
    endloop
  endfacet
  facet normal -0 0 1
    outer loop
      vertex 1.51297 5.80403 1.3
      vertex 1.74844 5.50679 1.3
      vertex 1.69907 5.9278 1.3
    endloop
  endfacet
  facet normal -0.779542 0.62635 0
    outer loop
      vertex 1.51767 6.86699 1.3
      vertex 1.51767 6.86699 1.8
      vertex 1.73486 7.1373 1.8
    endloop
  endfacet
  facet normal -0.779542 0.62635 0
    outer loop
      vertex 1.51767 6.86699 1.3
      vertex 1.73486 7.1373 1.8
      vertex 1.73486 7.1373 1.3
    endloop
  endfacet
  facet normal 0 0 1
    outer loop
      vertex 1.51767 6.86699 1.8
      vertex 1.91003 6.01726 1.8
      vertex 2.14061 6.07095 1.8
    endloop
  endfacet
  facet normal -0 0 1
    outer loop
      vertex 1.51767 6.86699 1.8
      vertex 2.14061 6.07095 1.8
      vertex 1.73486 7.1373 1.8
    endloop
  endfacet
  facet normal 0 0 1
    outer loop
      vertex 1.52169 16.0056 1.8
      vertex 8.5 17.7062 1.8
      vertex 1.6 16.5 1.8
    endloop
  endfacet
  facet normal -0.987687 0.156444 0
    outer loop
      vertex 1.52169 16.0056 3.8147e-07
      vertex 1.52169 16.0056 1.8
      vertex 1.6 16.5 1.8
    endloop
  endfacet
  facet normal -0.987687 0.156444 0
    outer loop
      vertex 1.52169 16.0056 3.8147e-07
      vertex 1.6 16.5 1.8
      vertex 1.6 16.5 3.8147e-07
    endloop
  endfacet
  facet normal 0 0 -1
    outer loop
      vertex 1.52169 16.0056 3.8147e-07
      vertex 1.6 16.5 3.8147e-07
      vertex 8.5 17.7062 3.8147e-07
    endloop
  endfacet
  facet normal 0 0 1
    outer loop
      vertex 1.52169 16.9944 1.8
      vertex 1.6 16.5 1.8
      vertex 8.5 17.7062 1.8
    endloop
  endfacet
  facet normal -0.987687 -0.156444 0
    outer loop
      vertex 1.52169 16.9944 1.8
      vertex 1.6 16.5 3.8147e-07
      vertex 1.6 16.5 1.8
    endloop
  endfacet
  facet normal -0.987687 -0.156444 0
    outer loop
      vertex 1.52169 16.9944 3.8147e-07
      vertex 1.6 16.5 3.8147e-07
      vertex 1.52169 16.9944 1.8
    endloop
  endfacet
  facet normal 0 0 -1
    outer loop
      vertex 1.52169 16.9944 3.8147e-07
      vertex 8.5 17.7062 3.8147e-07
      vertex 1.6 16.5 3.8147e-07
    endloop
  endfacet
  facet normal 0 0 1
    outer loop
      vertex 1.52169 30.1706 1.8
      vertex 8.5 17.7062 1.8
      vertex 8.5 35 1.8
    endloop
  endfacet
  facet normal 0 0 1
    outer loop
      vertex 1.52169 30.1706 1.8
      vertex 8.5 35 1.8
      vertex 1.6 30.665 1.8
    endloop
  endfacet
  facet normal -0.987687 0.156444 0
    outer loop
      vertex 1.52169 30.1706 3.8147e-07
      vertex 1.52169 30.1706 1.8
      vertex 1.6 30.665 1.8
    endloop
  endfacet
  facet normal -0.987687 0.156444 0
    outer loop
      vertex 1.52169 30.1706 3.8147e-07
      vertex 1.6 30.665 1.8
      vertex 1.6 30.665 3.8147e-07
    endloop
  endfacet
  facet normal 0 0 -1
    outer loop
      vertex 1.52169 30.1706 3.8147e-07
      vertex 1.6 30.665 3.8147e-07
      vertex 8.5 17.7062 3.8147e-07
    endloop
  endfacet
  facet normal 0 0 1
    outer loop
      vertex 1.52169 31.1594 1.8
      vertex 1.6 30.665 1.8
      vertex 8.5 35 1.8
    endloop
  endfacet
  facet normal -0.987687 -0.156444 0
    outer loop
      vertex 1.52169 31.1594 1.8
      vertex 1.6 30.665 3.8147e-07
      vertex 1.6 30.665 1.8
    endloop
  endfacet
  facet normal -0.987687 -0.156444 0
    outer loop
      vertex 1.52169 31.1594 3.8147e-07
      vertex 1.6 30.665 3.8147e-07
      vertex 1.52169 31.1594 1.8
    endloop
  endfacet
  facet normal 0 0 -1
    outer loop
      vertex 1.52169 31.1594 3.8147e-07
      vertex 8.5 35 3.8147e-07
      vertex 1.6 30.665 3.8147e-07
    endloop
  endfacet
  facet normal -0.581946 0.813228 0
    outer loop
      vertex 1.55498 5.36835 1.3
      vertex 1.55498 5.36835 1.8
      vertex 1.74844 5.50679 1.3
    endloop
  endfacet
  facet normal -0.581946 0.813228 0
    outer loop
      vertex 1.55498 5.36835 1.8
      vertex 1.74844 5.50679 1.8
      vertex 1.74844 5.50679 1.3
    endloop
  endfacet
  facet normal -0.701301 -0.712865 -0
    outer loop
      vertex 1.56512 3.77644 1.3
      vertex 1.76424 3.58055 1.3
      vertex 1.76424 3.58055 1.8
    endloop
  endfacet
  facet normal -0.701301 -0.712865 0
    outer loop
      vertex 1.56512 3.77644 1.3
      vertex 1.76424 3.58055 1.8
      vertex 1.56512 3.77644 1.8
    endloop
  endfacet
  facet normal -0 -0 1
    outer loop
      vertex 1.56512 3.77644 1.8
      vertex 1.76424 3.58055 1.8
      vertex 2.26532 3.42384 1.8
    endloop
  endfacet
  facet normal 0 -0 1
    outer loop
      vertex 1.56512 3.77644 1.8
      vertex 2.26532 3.42384 1.8
      vertex 3.09639 3.94296 1.8
    endloop
  endfacet
  facet normal 0 0 1
    outer loop
      vertex 1.56512 3.77644 1.8
      vertex 3.09639 3.94296 1.8
      vertex 3.18004 4.21478 1.8
    endloop
  endfacet
  facet normal 0 0 -1
    outer loop
      vertex 1.6 30.665 3.8147e-07
      vertex 8.5 35 3.8147e-07
      vertex 8.5 17.7062 3.8147e-07
    endloop
  endfacet
  facet normal 0 0 1
    outer loop
      vertex 1.69907 5.9278 1.3
      vertex 1.74844 5.50679 1.3
      vertex 1.97844 5.58986 1.3
    endloop
  endfacet
  facet normal 0.390409 -0.920642 0
    outer loop
      vertex 1.69907 5.9278 1.3
      vertex 1.91003 6.01726 1.3
      vertex 1.91003 6.01726 1.8
    endloop
  endfacet
  facet normal 0.390409 -0.920642 0
    outer loop
      vertex 1.69907 5.9278 1.3
      vertex 1.91003 6.01726 1.8
      vertex 1.69907 5.9278 1.8
    endloop
  endfacet
  facet normal -0 0 1
    outer loop
      vertex 1.69907 5.9278 1.3
      vertex 1.97844 5.58986 1.3
      vertex 1.91003 6.01726 1.3
    endloop
  endfacet
  facet normal -0.515547 0.856861 0
    outer loop
      vertex 1.73486 7.1373 1.3
      vertex 1.73486 7.1373 1.8
      vertex 2.00441 7.29948 1.3
    endloop
  endfacet
  facet normal 0 0 1
    outer loop
      vertex 1.73486 7.1373 1.3
      vertex 2.00441 7.29948 1.3
      vertex 1.82791 7.77475 1.3
    endloop
  endfacet
  facet normal -0.515547 0.856861 0
    outer loop
      vertex 1.73486 7.1373 1.8
      vertex 2.00441 7.29948 1.8
      vertex 2.00441 7.29948 1.3
    endloop
  endfacet
  facet normal -0 0 1
    outer loop
      vertex 1.73486 7.1373 1.8
      vertex 2.14061 6.07095 1.8
      vertex 2.00441 7.29948 1.8
    endloop
  endfacet
  facet normal -0.339697 0.940535 0
    outer loop
      vertex 1.74844 5.50679 1.3
      vertex 1.74844 5.50679 1.8
      vertex 1.97844 5.58986 1.3
    endloop
  endfacet
  facet normal -0.339697 0.940535 0
    outer loop
      vertex 1.74844 5.50679 1.8
      vertex 1.97844 5.58986 1.8
      vertex 1.97844 5.58986 1.3
    endloop
  endfacet
  facet normal 0 0 1
    outer loop
      vertex 1.76424 3.58055 1.3
      vertex 1.78987 2.99889 1.3
      vertex 1.99763 3.46301 1.3
    endloop
  endfacet
  facet normal -0.449799 -0.89313 -0
    outer loop
      vertex 1.76424 3.58055 1.3
      vertex 1.99763 3.46301 1.3
      vertex 1.99763 3.46301 1.8
    endloop
  endfacet
  facet normal -0.449799 -0.89313 0
    outer loop
      vertex 1.76424 3.58055 1.3
      vertex 1.99763 3.46301 1.8
      vertex 1.76424 3.58055 1.8
    endloop
  endfacet
  facet normal 0 0 1
    outer loop
      vertex 1.76424 3.58055 1.8
      vertex 1.99763 3.46301 1.8
      vertex 2.26532 3.42384 1.8
    endloop
  endfacet
  facet normal 0.133287 0.991077 0
    outer loop
      vertex 1.78987 2.99889 1.3
      vertex 1.78987 2.99889 1.8
      vertex 2.28568 2.93221 1.3
    endloop
  endfacet
  facet normal 0 0 1
    outer loop
      vertex 1.78987 2.99889 1.3
      vertex 2.28568 2.93221 1.3
      vertex 1.99763 3.46301 1.3
    endloop
  endfacet
  facet normal 0.133287 0.991077 -0
    outer loop
      vertex 1.78987 2.99889 1.8
      vertex 2.28568 2.93221 1.8
      vertex 2.28568 2.93221 1.3
    endloop
  endfacet
  facet normal -0 0 1
    outer loop
      vertex 1.82791 7.77475 1.3
      vertex 2.00441 7.29948 1.3
      vertex 2.33313 7.84859 1.3
    endloop
  endfacet
  facet normal 0.144618 -0.989488 0
    outer loop
      vertex 1.82791 7.77475 1.3
      vertex 2.33313 7.84859 1.3
      vertex 2.33313 7.84859 1.8
    endloop
  endfacet
  facet normal 0.144618 -0.989488 0
    outer loop
      vertex 1.82791 7.77475 1.3
      vertex 2.33313 7.84859 1.8
      vertex 1.82791 7.77475 1.8
    endloop
  endfacet
  facet normal -0 0 1
    outer loop
      vertex 1.91003 6.01726 1.3
      vertex 1.97844 5.58986 1.3
      vertex 2.14061 6.07095 1.3
    endloop
  endfacet
  facet normal 0.226781 -0.973946 0
    outer loop
      vertex 1.91003 6.01726 1.3
      vertex 2.14061 6.07095 1.3
      vertex 2.14061 6.07095 1.8
    endloop
  endfacet
  facet normal 0.226781 -0.973946 0
    outer loop
      vertex 1.91003 6.01726 1.3
      vertex 2.14061 6.07095 1.8
      vertex 1.91003 6.01726 1.8
    endloop
  endfacet
  facet normal -0.103294 0.994651 0
    outer loop
      vertex 1.97844 5.58986 1.3
      vertex 1.97844 5.58986 1.8
      vertex 2.24498 5.61754 1.3
    endloop
  endfacet
  facet normal 0 0 1
    outer loop
      vertex 1.97844 5.58986 1.3
      vertex 2.24498 5.61754 1.3
      vertex 2.14061 6.07095 1.3
    endloop
  endfacet
  facet normal -0.103294 0.994651 0
    outer loop
      vertex 1.97844 5.58986 1.8
      vertex 2.24498 5.61754 1.8
      vertex 2.24498 5.61754 1.3
    endloop
  endfacet
  facet normal -0.144784 -0.989463 -0
    outer loop
      vertex 1.99763 3.46301 1.3
      vertex 2.26532 3.42384 1.3
      vertex 2.26532 3.42384 1.8
    endloop
  endfacet
  facet normal -0.144784 -0.989463 0
    outer loop
      vertex 1.99763 3.46301 1.3
      vertex 2.26532 3.42384 1.8
      vertex 1.99763 3.46301 1.8
    endloop
  endfacet
  facet normal 0 0 1
    outer loop
      vertex 1.99763 3.46301 1.3
      vertex 2.28568 2.93221 1.3
      vertex 2.26532 3.42384 1.3
    endloop
  endfacet
  facet normal 0.987674 0.156525 0
    outer loop
      vertex 11.7874 2.24858 3.8147e-07
      vertex 11.7874 2.24858 1.8
      vertex 11.9054 1.504 1.8
    endloop
  endfacet
  facet normal 0.987674 0.156525 0
    outer loop
      vertex 11.7874 2.24858 3.8147e-07
      vertex 11.9054 1.504 1.8
      vertex 11.9054 1.504 3.8147e-07
    endloop
  endfacet
  facet normal 0 0 -1
    outer loop
      vertex 11.7874 2.24858 3.8147e-07
      vertex 11.9054 1.504 3.8147e-07
      vertex 12 0 3.8147e-07
    endloop
  endfacet
  facet normal 0.995567 0.0940499 0
    outer loop
      vertex 11.9054 1.504 3.8147e-07
      vertex 11.9054 1.504 1.8
      vertex 11.9763 0.753486 1.8
    endloop
  endfacet
  facet normal 0.995567 0.0940499 0
    outer loop
      vertex 11.9054 1.504 3.8147e-07
      vertex 11.9763 0.753486 1.8
      vertex 11.9763 0.753486 3.8147e-07
    endloop
  endfacet
  facet normal 0 0 -1
    outer loop
      vertex 11.9054 1.504 3.8147e-07
      vertex 11.9763 0.753486 3.8147e-07
      vertex 12 0 3.8147e-07
    endloop
  endfacet
  facet normal 0.999506 0.0314383 0
    outer loop
      vertex 11.9763 0.753486 3.8147e-07
      vertex 11.9763 0.753486 1.8
      vertex 12 0 1.8
    endloop
  endfacet
  facet normal 0.999506 0.0314383 0
    outer loop
      vertex 11.9763 0.753486 3.8147e-07
      vertex 12 0 1.8
      vertex 12 0 3.8147e-07
    endloop
  endfacet
  facet normal -0.165646 0.986185 0
    outer loop
      vertex 2.00441 7.29948 1.3
      vertex 2.00441 7.29948 1.8
      vertex 2.32632 7.35355 1.3
    endloop
  endfacet
  facet normal 0 0 1
    outer loop
      vertex 2.00441 7.29948 1.3
      vertex 2.32632 7.35355 1.3
      vertex 2.33313 7.84859 1.3
    endloop
  endfacet
  facet normal 0 0 1
    outer loop
      vertex 2.00441 7.29948 1.8
      vertex 2.14061 6.07095 1.8
      vertex 2.39078 6.08884 1.8
    endloop
  endfacet
  facet normal -0.165646 0.986185 0
    outer loop
      vertex 2.00441 7.29948 1.8
      vertex 2.32632 7.35355 1.8
      vertex 2.32632 7.35355 1.3
    endloop
  endfacet
  facet normal -0 0 1
    outer loop
      vertex 2.00441 7.29948 1.8
      vertex 2.39078 6.08884 1.8
      vertex 2.32632 7.35355 1.8
    endloop
  endfacet
  facet normal -0 0 1
    outer loop
      vertex 2.14061 6.07095 1.3
      vertex 2.24498 5.61754 1.3
      vertex 2.39078 6.08884 1.3
    endloop
  endfacet
  facet normal 0.0713292 -0.997453 0
    outer loop
      vertex 2.14061 6.07095 1.3
      vertex 2.39078 6.08884 1.3
      vertex 2.39078 6.08884 1.8
    endloop
  endfacet
  facet normal 0.0713292 -0.997453 0
    outer loop
      vertex 2.14061 6.07095 1.3
      vertex 2.39078 6.08884 1.8
      vertex 2.14061 6.07095 1.8
    endloop
  endfacet
  facet normal 0.110727 0.993851 0
    outer loop
      vertex 2.24498 5.61754 1.3
      vertex 2.24498 5.61754 1.8
      vertex 2.52565 5.58627 1.3
    endloop
  endfacet
  facet normal 0 0 1
    outer loop
      vertex 2.24498 5.61754 1.3
      vertex 2.52565 5.58627 1.3
      vertex 2.39078 6.08884 1.3
    endloop
  endfacet
  facet normal 0.110727 0.993851 -0
    outer loop
      vertex 2.24498 5.61754 1.8
      vertex 2.52565 5.58627 1.8
      vertex 2.52565 5.58627 1.3
    endloop
  endfacet
  facet normal 0 0 1
    outer loop
      vertex 2.24498 5.61754 1.8
      vertex 3.09489 5.12212 1.8
      vertex 2.52565 5.58627 1.8
    endloop
  endfacet
  facet normal 0 0 1
    outer loop
      vertex 2.24498 5.61754 1.8
      vertex 3.17967 4.85541 1.8
      vertex 3.09489 5.12212 1.8
    endloop
  endfacet
  facet normal -0 0 1
    outer loop
      vertex 2.26532 3.42384 1.3
      vertex 2.28568 2.93221 1.3
      vertex 2.53806 3.4568 1.3
    endloop
  endfacet
  facet normal 0.119975 -0.992777 0
    outer loop
      vertex 2.26532 3.42384 1.3
      vertex 2.53806 3.4568 1.3
      vertex 2.53806 3.4568 1.8
    endloop
  endfacet
  facet normal 0.119975 -0.992777 0
    outer loop
      vertex 2.26532 3.42384 1.3
      vertex 2.53806 3.4568 1.8
      vertex 2.26532 3.42384 1.8
    endloop
  endfacet
  facet normal 0 -0 1
    outer loop
      vertex 2.26532 3.42384 1.8
      vertex 2.53806 3.4568 1.8
      vertex 3.09639 3.94296 1.8
    endloop
  endfacet
  facet normal -0.108114 0.994139 0
    outer loop
      vertex 2.28568 2.93221 1.3
      vertex 2.28568 2.93221 1.8
      vertex 2.73248 2.9808 1.3
    endloop
  endfacet
  facet normal 0 0 1
    outer loop
      vertex 2.28568 2.93221 1.3
      vertex 2.73248 2.9808 1.3
      vertex 2.53806 3.4568 1.3
    endloop
  endfacet
  facet normal -0 0 1
    outer loop
      vertex 2.28568 2.93221 1.8
      vertex 12 0 1.8
      vertex 2.73248 2.9808 1.8
    endloop
  endfacet
  facet normal -0.108114 0.994139 0
    outer loop
      vertex 2.28568 2.93221 1.8
      vertex 2.73248 2.9808 1.8
      vertex 2.73248 2.9808 1.3
    endloop
  endfacet
  facet normal 0.178539 0.983933 0
    outer loop
      vertex 2.32632 7.35355 1.3
      vertex 2.32632 7.35355 1.8
      vertex 2.68349 7.28874 1.3
    endloop
  endfacet
  facet normal 0 0 1
    outer loop
      vertex 2.32632 7.35355 1.3
      vertex 2.68349 7.28874 1.3
      vertex 2.33313 7.84859 1.3
    endloop
  endfacet
  facet normal 0 0 1
    outer loop
      vertex 2.32632 7.35355 1.8
      vertex 2.39078 6.08884 1.8
      vertex 2.68349 7.28874 1.8
    endloop
  endfacet
  facet normal 0.178539 0.983933 -0
    outer loop
      vertex 2.32632 7.35355 1.8
      vertex 2.68349 7.28874 1.8
      vertex 2.68349 7.28874 1.3
    endloop
  endfacet
  facet normal 0 0 1
    outer loop
      vertex 2.33313 7.84859 1.3
      vertex 2.68349 7.28874 1.3
      vertex 2.96529 7.74046 1.3
    endloop
  endfacet
  facet normal -0.1686 -0.985685 -0
    outer loop
      vertex 2.33313 7.84859 1.3
      vertex 2.96529 7.74046 1.3
      vertex 2.96529 7.74046 1.8
    endloop
  endfacet
  facet normal -0.1686 -0.985685 0
    outer loop
      vertex 2.33313 7.84859 1.3
      vertex 2.96529 7.74046 1.8
      vertex 2.33313 7.84859 1.8
    endloop
  endfacet
  facet normal 0 0 1
    outer loop
      vertex 2.39078 6.08884 1.3
      vertex 2.52565 5.58627 1.3
      vertex 2.80121 6.04288 1.3
    endloop
  endfacet
  facet normal -0.111285 -0.993789 -0
    outer loop
      vertex 2.39078 6.08884 1.3
      vertex 2.80121 6.04288 1.3
      vertex 2.80121 6.04288 1.8
    endloop
  endfacet
  facet normal -0.111285 -0.993789 0
    outer loop
      vertex 2.39078 6.08884 1.3
      vertex 2.80121 6.04288 1.8
      vertex 2.39078 6.08884 1.8
    endloop
  endfacet
  facet normal 0 0 1
    outer loop
      vertex 2.39078 6.08884 1.8
      vertex 2.80121 6.04288 1.8
      vertex 3.11298 6.77039 1.8
    endloop
  endfacet
  facet normal 0 0 1
    outer loop
      vertex 2.39078 6.08884 1.8
      vertex 2.94569 7.09436 1.8
      vertex 2.68349 7.28874 1.8
    endloop
  endfacet
  facet normal 0 0 1
    outer loop
      vertex 2.39078 6.08884 1.8
      vertex 3.11298 6.77039 1.8
      vertex 2.94569 7.09436 1.8
    endloop
  endfacet
  facet normal 0.369137 0.929375 0
    outer loop
      vertex 2.52565 5.58627 1.3
      vertex 2.52565 5.58627 1.8
      vertex 2.76186 5.49245 1.3
    endloop
  endfacet
  facet normal 0 0 1
    outer loop
      vertex 2.52565 5.58627 1.3
      vertex 2.76186 5.49245 1.3
      vertex 2.80121 6.04288 1.3
    endloop
  endfacet
  facet normal 0.369137 0.929375 -0
    outer loop
      vertex 2.52565 5.58627 1.8
      vertex 2.76186 5.49245 1.8
      vertex 2.76186 5.49245 1.3
    endloop
  endfacet
  facet normal 0 0 1
    outer loop
      vertex 2.52565 5.58627 1.8
      vertex 2.95363 5.33609 1.8
      vertex 2.76186 5.49245 1.8
    endloop
  endfacet
  facet normal 0 0 1
    outer loop
      vertex 2.52565 5.58627 1.8
      vertex 3.09489 5.12212 1.8
      vertex 2.95363 5.33609 1.8
    endloop
  endfacet
  facet normal -0 0 1
    outer loop
      vertex 2.53806 3.4568 1.3
      vertex 2.73248 2.9808 1.3
      vertex 2.76862 3.55568 1.3
    endloop
  endfacet
  facet normal 0.39415 -0.919046 0
    outer loop
      vertex 2.53806 3.4568 1.3
      vertex 2.76862 3.55568 1.3
      vertex 2.76862 3.55568 1.8
    endloop
  endfacet
  facet normal 0.39415 -0.919046 0
    outer loop
      vertex 2.53806 3.4568 1.3
      vertex 2.76862 3.55568 1.8
      vertex 2.53806 3.4568 1.8
    endloop
  endfacet
  facet normal 0 0 1
    outer loop
      vertex 2.53806 3.4568 1.8
      vertex 2.76862 3.55568 1.8
      vertex 2.95697 3.72049 1.8
    endloop
  endfacet
  facet normal 0 0 1
    outer loop
      vertex 2.53806 3.4568 1.8
      vertex 2.95697 3.72049 1.8
      vertex 3.09639 3.94296 1.8
    endloop
  endfacet
  facet normal 0.59554 0.803326 0
    outer loop
      vertex 2.68349 7.28874 1.3
      vertex 2.68349 7.28874 1.8
      vertex 2.94569 7.09436 1.3
    endloop
  endfacet
  facet normal 0 0 1
    outer loop
      vertex 2.68349 7.28874 1.3
      vertex 2.94569 7.09436 1.3
      vertex 2.96529 7.74046 1.3
    endloop
  endfacet
  facet normal 0.59554 0.803326 -0
    outer loop
      vertex 2.68349 7.28874 1.8
      vertex 2.94569 7.09436 1.8
      vertex 2.94569 7.09436 1.3
    endloop
  endfacet
  facet normal -0.360247 0.932857 0
    outer loop
      vertex 2.73248 2.9808 1.3
      vertex 2.73248 2.9808 1.8
      vertex 3.10995 3.12657 1.3
    endloop
  endfacet
  facet normal 0 0 1
    outer loop
      vertex 2.73248 2.9808 1.3
      vertex 3.10995 3.12657 1.3
      vertex 2.76862 3.55568 1.3
    endloop
  endfacet
  facet normal -0 0 1
    outer loop
      vertex 2.73248 2.9808 1.8
      vertex 12 0 1.8
      vertex 3.10995 3.12657 1.8
    endloop
  endfacet
  facet normal -0.360247 0.932857 0
    outer loop
      vertex 2.73248 2.9808 1.8
      vertex 3.10995 3.12657 1.8
      vertex 3.10995 3.12657 1.3
    endloop
  endfacet
  facet normal 0.631923 0.775031 0
    outer loop
      vertex 2.76186 5.49245 1.3
      vertex 2.76186 5.49245 1.8
      vertex 2.95363 5.33609 1.3
    endloop
  endfacet
  facet normal 0 0 1
    outer loop
      vertex 2.76186 5.49245 1.3
      vertex 2.95363 5.33609 1.3
      vertex 3.151 5.905 1.3
    endloop
  endfacet
  facet normal 0 0 1
    outer loop
      vertex 2.76186 5.49245 1.3
      vertex 3.151 5.905 1.3
      vertex 2.80121 6.04288 1.3
    endloop
  endfacet
  facet normal 0.631923 0.775031 -0
    outer loop
      vertex 2.76186 5.49245 1.8
      vertex 2.95363 5.33609 1.8
      vertex 2.95363 5.33609 1.3
    endloop
  endfacet
  facet normal 0.658513 -0.752569 0
    outer loop
      vertex 2.76862 3.55568 1.3
      vertex 2.95697 3.72049 1.3
      vertex 2.95697 3.72049 1.8
    endloop
  endfacet
  facet normal 0.658513 -0.752569 0
    outer loop
      vertex 2.76862 3.55568 1.3
      vertex 2.95697 3.72049 1.8
      vertex 2.76862 3.55568 1.8
    endloop
  endfacet
  facet normal -0 0 1
    outer loop
      vertex 2.76862 3.55568 1.3
      vertex 3.10995 3.12657 1.3
      vertex 2.95697 3.72049 1.3
    endloop
  endfacet
  facet normal -0.366718 -0.930332 -0
    outer loop
      vertex 2.80121 6.04288 1.3
      vertex 3.151 5.905 1.3
      vertex 3.151 5.905 1.8
    endloop
  endfacet
  facet normal -0.366718 -0.930332 0
    outer loop
      vertex 2.80121 6.04288 1.3
      vertex 3.151 5.905 1.8
      vertex 2.80121 6.04288 1.8
    endloop
  endfacet
  facet normal 0 0 1
    outer loop
      vertex 2.80121 6.04288 1.8
      vertex 3.151 5.905 1.8
      vertex 3.11298 6.77039 1.8
    endloop
  endfacet
  facet normal 0.888532 0.458815 0
    outer loop
      vertex 2.94569 7.09436 1.3
      vertex 2.94569 7.09436 1.8
      vertex 3.11298 6.77039 1.8
    endloop
  endfacet
  facet normal 0 0 1
    outer loop
      vertex 2.94569 7.09436 1.3
      vertex 3.11298 6.77039 1.3
      vertex 3.41963 7.41611 1.3
    endloop
  endfacet
  facet normal 0.888532 0.458815 0
    outer loop
      vertex 2.94569 7.09436 1.3
      vertex 3.11298 6.77039 1.8
      vertex 3.11298 6.77039 1.3
    endloop
  endfacet
  facet normal 0 0 1
    outer loop
      vertex 2.94569 7.09436 1.3
      vertex 3.41963 7.41611 1.3
      vertex 2.96529 7.74046 1.3
    endloop
  endfacet
  facet normal 0.834538 0.55095 0
    outer loop
      vertex 2.95363 5.33609 1.3
      vertex 2.95363 5.33609 1.8
      vertex 3.09489 5.12212 1.8
    endloop
  endfacet
  facet normal 0 0 1
    outer loop
      vertex 2.95363 5.33609 1.3
      vertex 3.09489 5.12212 1.3
      vertex 3.44012 5.67519 1.3
    endloop
  endfacet
  facet normal 0.834538 0.55095 0
    outer loop
      vertex 2.95363 5.33609 1.3
      vertex 3.09489 5.12212 1.8
      vertex 3.09489 5.12212 1.3
    endloop
  endfacet
  facet normal 0 0 1
    outer loop
      vertex 2.95363 5.33609 1.3
      vertex 3.44012 5.67519 1.3
      vertex 3.151 5.905 1.3
    endloop
  endfacet
  facet normal 0.847354 -0.531029 0
    outer loop
      vertex 2.95697 3.72049 1.3
      vertex 3.09639 3.94296 1.3
      vertex 2.95697 3.72049 1.8
    endloop
  endfacet
  facet normal 0 0 1
    outer loop
      vertex 2.95697 3.72049 1.3
      vertex 3.10995 3.12657 1.3
      vertex 3.41812 3.36954 1.3
    endloop
  endfacet
  facet normal -0 0 1
    outer loop
      vertex 2.95697 3.72049 1.3
      vertex 3.41812 3.36954 1.3
      vertex 3.09639 3.94296 1.3
    endloop
  endfacet
  facet normal 0.847354 -0.531029 0
    outer loop
      vertex 2.95697 3.72049 1.8
      vertex 3.09639 3.94296 1.3
      vertex 3.09639 3.94296 1.8
    endloop
  endfacet
  facet normal -0.581026 -0.813885 -0
    outer loop
      vertex 2.96529 7.74046 1.3
      vertex 3.41963 7.41611 1.3
      vertex 3.41963 7.41611 1.8
    endloop
  endfacet
  facet normal -0.581026 -0.813885 0
    outer loop
      vertex 2.96529 7.74046 1.3
      vertex 3.41963 7.41611 1.8
      vertex 2.96529 7.74046 1.8
    endloop
  endfacet
  facet normal 0 0 1
    outer loop
      vertex 2.96529 7.74046 1.8
      vertex 3.41963 7.41611 1.8
      vertex 8.5 17.7062 1.8
    endloop
  endfacet
  facet normal 0.953011 0.302937 0
    outer loop
      vertex 3.09489 5.12212 1.3
      vertex 3.09489 5.12212 1.8
      vertex 3.17967 4.85541 1.8
    endloop
  endfacet
  facet normal 0 0 1
    outer loop
      vertex 3.09489 5.12212 1.3
      vertex 3.17967 4.85541 1.3
      vertex 3.65582 5.36778 1.3
    endloop
  endfacet
  facet normal 0.953011 0.302937 0
    outer loop
      vertex 3.09489 5.12212 1.3
      vertex 3.17967 4.85541 1.8
      vertex 3.17967 4.85541 1.3
    endloop
  endfacet
  facet normal 0 0 1
    outer loop
      vertex 3.09489 5.12212 1.3
      vertex 3.65582 5.36778 1.3
      vertex 3.44012 5.67519 1.3
    endloop
  endfacet
  facet normal 0.955766 -0.294128 0
    outer loop
      vertex 3.09639 3.94296 1.3
      vertex 3.18004 4.21478 1.3
      vertex 3.09639 3.94296 1.8
    endloop
  endfacet
  facet normal 0 0 1
    outer loop
      vertex 3.09639 3.94296 1.3
      vertex 3.41812 3.36954 1.3
      vertex 3.64604 3.69656 1.3
    endloop
  endfacet
  facet normal -0 0 1
    outer loop
      vertex 3.09639 3.94296 1.3
      vertex 3.64604 3.69656 1.3
      vertex 3.18004 4.21478 1.3
    endloop
  endfacet
  facet normal 0.955766 -0.294128 0
    outer loop
      vertex 3.09639 3.94296 1.8
      vertex 3.18004 4.21478 1.3
      vertex 3.18004 4.21478 1.8
    endloop
  endfacet
  facet normal -0.619139 0.785282 0
    outer loop
      vertex 3.10995 3.12657 1.3
      vertex 3.10995 3.12657 1.8
      vertex 3.41812 3.36954 1.3
    endloop
  endfacet
  facet normal -0 0 1
    outer loop
      vertex 3.10995 3.12657 1.8
      vertex 12 0 1.8
      vertex 3.41812 3.36954 1.8
    endloop
  endfacet
  facet normal -0.619139 0.785282 0
    outer loop
      vertex 3.10995 3.12657 1.8
      vertex 3.41812 3.36954 1.8
      vertex 3.41812 3.36954 1.3
    endloop
  endfacet
  facet normal -0.177359 0.984146 0
    outer loop
      vertex 3.11298 6.77039 1.3
      vertex 3.11298 6.77039 1.8
      vertex 3.69617 6.87549 1.3
    endloop
  endfacet
  facet normal 0 0 1
    outer loop
      vertex 3.11298 6.77039 1.3
      vertex 3.69617 6.87549 1.3
      vertex 3.41963 7.41611 1.3
    endloop
  endfacet
  facet normal -0 0 1
    outer loop
      vertex 3.11298 6.77039 1.8
      vertex 3.151 5.905 1.8
      vertex 3.69617 6.87549 1.8
    endloop
  endfacet
  facet normal -0.177359 0.984146 0
    outer loop
      vertex 3.11298 6.77039 1.8
      vertex 3.69617 6.87549 1.8
      vertex 3.69617 6.87549 1.3
    endloop
  endfacet
  facet normal -0.622239 -0.782828 -0
    outer loop
      vertex 3.151 5.905 1.3
      vertex 3.44012 5.67519 1.3
      vertex 3.44012 5.67519 1.8
    endloop
  endfacet
  facet normal -0.622239 -0.782828 0
    outer loop
      vertex 3.151 5.905 1.3
      vertex 3.44012 5.67519 1.8
      vertex 3.151 5.905 1.8
    endloop
  endfacet
  facet normal 0 0 1
    outer loop
      vertex 3.151 5.905 1.8
      vertex 3.44012 5.67519 1.8
      vertex 3.69617 6.87549 1.8
    endloop
  endfacet
  facet normal 0.996113 0.0880867 0
    outer loop
      vertex 3.17967 4.85541 1.3
      vertex 3.17967 4.85541 1.8
      vertex 3.20792 4.53595 1.8
    endloop
  endfacet
  facet normal 0 0 1
    outer loop
      vertex 3.17967 4.85541 1.3
      vertex 3.20792 4.53595 1.3
      vertex 3.82837 4.5631 1.3
    endloop
  endfacet
  facet normal 0.996113 0.0880867 0
    outer loop
      vertex 3.17967 4.85541 1.3
      vertex 3.20792 4.53595 1.8
      vertex 3.20792 4.53595 1.3
    endloop
  endfacet
  facet normal 0 0 1
    outer loop
      vertex 3.17967 4.85541 1.3
      vertex 3.78523 4.99709 1.3
      vertex 3.65582 5.36778 1.3
    endloop
  endfacet
  facet normal -0 0 1
    outer loop
      vertex 3.17967 4.85541 1.3
      vertex 3.82837 4.5631 1.3
      vertex 3.78523 4.99709 1.3
    endloop
  endfacet
  facet normal 0.996253 -0.0864824 0
    outer loop
      vertex 3.18004 4.21478 1.3
      vertex 3.20792 4.53595 1.3
      vertex 3.18004 4.21478 1.8
    endloop
  endfacet
  facet normal 0 0 1
    outer loop
      vertex 3.18004 4.21478 1.3
      vertex 3.64604 3.69656 1.3
      vertex 3.78279 4.09441 1.3
    endloop
  endfacet
  facet normal -0 0 1
    outer loop
      vertex 3.18004 4.21478 1.3
      vertex 3.78279 4.09441 1.3
      vertex 3.20792 4.53595 1.3
    endloop
  endfacet
  facet normal 0.996253 -0.0864824 0
    outer loop
      vertex 3.18004 4.21478 1.8
      vertex 3.20792 4.53595 1.3
      vertex 3.20792 4.53595 1.8
    endloop
  endfacet
  facet normal 0 0 1
    outer loop
      vertex 3.20792 4.53595 1.3
      vertex 3.78279 4.09441 1.3
      vertex 3.82837 4.5631 1.3
    endloop
  endfacet
  facet normal -0.820402 0.571788 0
    outer loop
      vertex 3.41812 3.36954 1.3
      vertex 3.41812 3.36954 1.8
      vertex 3.64604 3.69656 1.8
    endloop
  endfacet
  facet normal -0.820402 0.571788 0
    outer loop
      vertex 3.41812 3.36954 1.3
      vertex 3.64604 3.69656 1.8
      vertex 3.64604 3.69656 1.3
    endloop
  endfacet
  facet normal 0 0 1
    outer loop
      vertex 3.41812 3.36954 1.8
      vertex 11.9054 1.504 1.8
      vertex 3.64604 3.69656 1.8
    endloop
  endfacet
  facet normal 0 0 1
    outer loop
      vertex 3.41812 3.36954 1.8
      vertex 11.9763 0.753486 1.8
      vertex 11.9054 1.504 1.8
    endloop
  endfacet
  facet normal 0 0 1
    outer loop
      vertex 3.41812 3.36954 1.8
      vertex 12 0 1.8
      vertex 11.9763 0.753486 1.8
    endloop
  endfacet
  facet normal -0.890286 -0.455402 0
    outer loop
      vertex 3.41963 7.41611 1.3
      vertex 3.69617 6.87549 1.3
      vertex 3.41963 7.41611 1.8
    endloop
  endfacet
  facet normal -0.890286 -0.455402 0
    outer loop
      vertex 3.41963 7.41611 1.8
      vertex 3.69617 6.87549 1.3
      vertex 3.69617 6.87549 1.8
    endloop
  endfacet
  facet normal 0 0 1
    outer loop
      vertex 3.41963 7.41611 1.8
      vertex 3.69617 6.87549 1.8
      vertex 8.5 17.7062 1.8
    endloop
  endfacet
  facet normal -0.81859 -0.574379 0
    outer loop
      vertex 3.44012 5.67519 1.3
      vertex 3.65582 5.36778 1.3
      vertex 3.44012 5.67519 1.8
    endloop
  endfacet
  facet normal -0.81859 -0.574379 0
    outer loop
      vertex 3.44012 5.67519 1.8
      vertex 3.65582 5.36778 1.3
      vertex 3.65582 5.36778 1.8
    endloop
  endfacet
  facet normal 0 0 1
    outer loop
      vertex 3.44012 5.67519 1.8
      vertex 3.65582 5.36778 1.8
      vertex 3.69617 6.87549 1.8
    endloop
  endfacet
  facet normal -0.945695 0.325057 0
    outer loop
      vertex 3.64604 3.69656 1.3
      vertex 3.64604 3.69656 1.8
      vertex 3.78279 4.09441 1.8
    endloop
  endfacet
  facet normal -0.945695 0.325057 0
    outer loop
      vertex 3.64604 3.69656 1.3
      vertex 3.78279 4.09441 1.8
      vertex 3.78279 4.09441 1.3
    endloop
  endfacet
  facet normal -0 0 1
    outer loop
      vertex 3.64604 3.69656 1.8
      vertex 11.7874 2.24858 1.8
      vertex 3.78279 4.09441 1.8
    endloop
  endfacet
  facet normal 0 0 1
    outer loop
      vertex 3.64604 3.69656 1.8
      vertex 11.9054 1.504 1.8
      vertex 11.7874 2.24858 1.8
    endloop
  endfacet
  facet normal -0.944121 -0.329598 0
    outer loop
      vertex 3.65582 5.36778 1.3
      vertex 3.78523 4.99709 1.3
      vertex 3.65582 5.36778 1.8
    endloop
  endfacet
  facet normal -0.944121 -0.329598 0
    outer loop
      vertex 3.65582 5.36778 1.8
      vertex 3.78523 4.99709 1.3
      vertex 3.78523 4.99709 1.8
    endloop
  endfacet
  facet normal 0 0 1
    outer loop
      vertex 3.65582 5.36778 1.8
      vertex 3.78523 4.99709 1.8
      vertex 3.69617 6.87549 1.8
    endloop
  endfacet
  facet normal 0 -0 1
    outer loop
      vertex 3.69617 6.87549 1.8
      vertex 3.78523 4.99709 1.8
      vertex 8.5 17.7062 1.8
    endloop
  endfacet
  facet normal -0.995305 0.0967931 0
    outer loop
      vertex 3.78279 4.09441 1.3
      vertex 3.78279 4.09441 1.8
      vertex 3.82837 4.5631 1.8
    endloop
  endfacet
  facet normal -0.995305 0.0967931 0
    outer loop
      vertex 3.78279 4.09441 1.3
      vertex 3.82837 4.5631 1.8
      vertex 3.82837 4.5631 1.3
    endloop
  endfacet
  facet normal -0 0 1
    outer loop
      vertex 3.78279 4.09441 1.8
      vertex 11.7874 2.24858 1.8
      vertex 3.82837 4.5631 1.8
    endloop
  endfacet
  facet normal -0.995096 -0.0989157 0
    outer loop
      vertex 3.78523 4.99709 1.3
      vertex 3.82837 4.5631 1.3
      vertex 3.78523 4.99709 1.8
    endloop
  endfacet
  facet normal -0.995096 -0.0989157 0
    outer loop
      vertex 3.78523 4.99709 1.8
      vertex 3.82837 4.5631 1.3
      vertex 3.82837 4.5631 1.8
    endloop
  endfacet
  facet normal 0 0 1
    outer loop
      vertex 3.78523 4.99709 1.8
      vertex 3.82837 4.5631 1.8
      vertex 8.5 17.7062 1.8
    endloop
  endfacet
  facet normal -0 0 1
    outer loop
      vertex 3.82837 4.5631 1.8
      vertex 11.7874 2.24858 1.8
      vertex 8.5 17.7062 1.8
    endloop
  endfacet
  facet normal 1 -0 0
    outer loop
      vertex 8.5 17.7062 1.8
      vertex 8.5 35 3.8147e-07
      vertex 8.5 35 1.8
    endloop
  endfacet
  facet normal 0.978125 0.20802 0
    outer loop
      vertex 8.5 17.7062 3.8147e-07
      vertex 11.7874 2.24858 1.8
      vertex 11.7874 2.24858 3.8147e-07
    endloop
  endfacet
  facet normal 0.978125 0.20802 0
    outer loop
      vertex 8.5 17.7062 3.8147e-07
      vertex 8.5 17.7062 1.8
      vertex 11.7874 2.24858 1.8
    endloop
  endfacet
  facet normal 1 0 0
    outer loop
      vertex 8.5 17.7062 3.8147e-07
      vertex 8.5 35 3.8147e-07
      vertex 8.5 17.7062 1.8
    endloop
  endfacet
endsolid model
