solid model
  facet normal -1 -0 0
    outer loop
      vertex 0 -10 0
      vertex 0 -10 130
      vertex 0 10 130
    endloop
  endfacet
  facet normal 0 0 -1
    outer loop
      vertex 0 -10 0
      vertex 0 10 0
      vertex 138.75 0 0
    endloop
  endfacet
  facet normal -1 0 0
    outer loop
      vertex 0 -10 0
      vertex 0 10 130
      vertex 0 10 0
    endloop
  endfacet
  facet normal -0 0 -1
    outer loop
      vertex 0 -10 0
      vertex 138.75 0 0
      vertex 138.811 -0.386271 0
    endloop
  endfacet
  facet normal -0 0 -1
    outer loop
      vertex 0 -10 0
      vertex 138.811 -0.386271 0
      vertex 138.989 -0.734731 0
    endloop
  endfacet
  facet normal -0 0 -1
    outer loop
      vertex 0 -10 0
      vertex 138.989 -0.734731 0
      vertex 139.265 -1.01127 0
    endloop
  endfacet
  facet normal -0 0 -1
    outer loop
      vertex 0 -10 0
      vertex 139.265 -1.01127 0
      vertex 139.614 -1.18882 0
    endloop
  endfacet
  facet normal -0 0 -1
    outer loop
      vertex 0 -10 0
      vertex 139.614 -1.18882 0
      vertex 140 -1.25 0
    endloop
  endfacet
  facet normal 0 0 -1
    outer loop
      vertex 0 -10 0
      vertex 140 -1.25 0
      vertex 198 -10 0
    endloop
  endfacet
  facet normal 0 -1 -0
    outer loop
      vertex 0 -10 0
      vertex 198 -10 0
      vertex 198 -10 130
    endloop
  endfacet
  facet normal 0 -1 0
    outer loop
      vertex 0 -10 0
      vertex 198 -10 130
      vertex 0 -10 130
    endloop
  endfacet
  facet normal 0 0 1
    outer loop
      vertex 0 -10 130
      vertex 138.75 0 130
      vertex 0 10 130
    endloop
  endfacet
  facet normal 0 0 1
    outer loop
      vertex 0 -10 130
      vertex 138.811 -0.386271 130
      vertex 138.75 0 130
    endloop
  endfacet
  facet normal 0 0 1
    outer loop
      vertex 0 -10 130
      vertex 138.989 -0.734731 130
      vertex 138.811 -0.386271 130
    endloop
  endfacet
  facet normal 0 0 1
    outer loop
      vertex 0 -10 130
      vertex 139.265 -1.01127 130
      vertex 138.989 -0.734731 130
    endloop
  endfacet
  facet normal 0 0 1
    outer loop
      vertex 0 -10 130
      vertex 139.614 -1.18882 130
      vertex 139.265 -1.01127 130
    endloop
  endfacet
  facet normal 0 0 1
    outer loop
      vertex 0 -10 130
      vertex 140 -1.25 130
      vertex 139.614 -1.18882 130
    endloop
  endfacet
  facet normal 0 0 1
    outer loop
      vertex 0 -10 130
      vertex 198 -10 130
      vertex 140 -1.25 130
    endloop
  endfacet
  facet normal 0 1 0
    outer loop
      vertex 0 10 0
      vertex 0 10 130
      vertex 198 10 0
    endloop
  endfacet
  facet normal 0 0 -1
    outer loop
      vertex 0 10 0
      vertex 138.811 0.386271 0
      vertex 138.75 0 0
    endloop
  endfacet
  facet normal 0 0 -1
    outer loop
      vertex 0 10 0
      vertex 138.989 0.734731 0
      vertex 138.811 0.386271 0
    endloop
  endfacet
  facet normal 0 0 -1
    outer loop
      vertex 0 10 0
      vertex 139.265 1.01127 0
      vertex 138.989 0.734731 0
    endloop
  endfacet
  facet normal 0 0 -1
    outer loop
      vertex 0 10 0
      vertex 139.614 1.18882 0
      vertex 139.265 1.01127 0
    endloop
  endfacet
  facet normal 0 0 -1
    outer loop
      vertex 0 10 0
      vertex 140 1.25 0
      vertex 139.614 1.18882 0
    endloop
  endfacet
  facet normal 0 0 -1
    outer loop
      vertex 0 10 0
      vertex 198 10 0
      vertex 140 1.25 0
    endloop
  endfacet
  facet normal 0 0 1
    outer loop
      vertex 0 10 130
      vertex 138.75 0 130
      vertex 138.811 0.386271 130
    endloop
  endfacet
  facet normal 0 0 1
    outer loop
      vertex 0 10 130
      vertex 138.811 0.386271 130
      vertex 138.989 0.734731 130
    endloop
  endfacet
  facet normal 0 0 1
    outer loop
      vertex 0 10 130
      vertex 138.989 0.734731 130
      vertex 139.265 1.01127 130
    endloop
  endfacet
  facet normal 0 0 1
    outer loop
      vertex 0 10 130
      vertex 139.265 1.01127 130
      vertex 139.614 1.18882 130
    endloop
  endfacet
  facet normal 0 0 1
    outer loop
      vertex 0 10 130
      vertex 139.614 1.18882 130
      vertex 140 1.25 130
    endloop
  endfacet
  facet normal -0 0 1
    outer loop
      vertex 0 10 130
      vertex 140 1.25 130
      vertex 198 10 130
    endloop
  endfacet
  facet normal 0 1 -0
    outer loop
      vertex 0 10 130
      vertex 198 10 130
      vertex 198 10 0
    endloop
  endfacet
  facet normal 0.987759 0.155987 0
    outer loop
      vertex 138.75 0 0
      vertex 138.75 0 130
      vertex 138.811 -0.386271 130
    endloop
  endfacet
  facet normal 0.987759 0.155987 0
    outer loop
      vertex 138.75 0 0
      vertex 138.811 -0.386271 130
      vertex 138.811 -0.386271 0
    endloop
  endfacet
  facet normal 0.987759 -0.155987 0
    outer loop
      vertex 138.75 0 0
      vertex 138.811 0.386271 0
      vertex 138.75 0 130
    endloop
  endfacet
  facet normal 0.987759 -0.155987 0
    outer loop
      vertex 138.75 0 130
      vertex 138.811 0.386271 0
      vertex 138.811 0.386271 130
    endloop
  endfacet
  facet normal 0.89054 0.454905 0
    outer loop
      vertex 138.811 -0.386271 0
      vertex 138.811 -0.386271 130
      vertex 138.989 -0.734731 130
    endloop
  endfacet
  facet normal 0.89054 0.454905 0
    outer loop
      vertex 138.811 -0.386271 0
      vertex 138.989 -0.734731 130
      vertex 138.989 -0.734731 0
    endloop
  endfacet
  facet normal 0.89054 -0.454905 0
    outer loop
      vertex 138.811 0.386271 0
      vertex 138.989 0.734731 0
      vertex 138.811 0.386271 130
    endloop
  endfacet
  facet normal 0.89054 -0.454905 0
    outer loop
      vertex 138.811 0.386271 130
      vertex 138.989 0.734731 0
      vertex 138.989 0.734731 130
    endloop
  endfacet
  facet normal 0.707796 0.706417 0
    outer loop
      vertex 138.989 -0.734731 0
      vertex 138.989 -0.734731 130
      vertex 139.265 -1.01127 0
    endloop
  endfacet
  facet normal 0.707796 0.706417 -0
    outer loop
      vertex 138.989 -0.734731 130
      vertex 139.265 -1.01127 130
      vertex 139.265 -1.01127 0
    endloop
  endfacet
  facet normal 0.707796 -0.706417 0
    outer loop
      vertex 138.989 0.734731 0
      vertex 139.265 1.01127 0
      vertex 139.265 1.01127 130
    endloop
  endfacet
  facet normal 0.707796 -0.706417 0
    outer loop
      vertex 138.989 0.734731 0
      vertex 139.265 1.01127 130
      vertex 138.989 0.734731 130
    endloop
  endfacet
  facet normal 0.453434 0.89129 0
    outer loop
      vertex 139.265 -1.01127 0
      vertex 139.265 -1.01127 130
      vertex 139.614 -1.18882 0
    endloop
  endfacet
  facet normal 0.453434 0.89129 -0
    outer loop
      vertex 139.265 -1.01127 130
      vertex 139.614 -1.18882 130
      vertex 139.614 -1.18882 0
    endloop
  endfacet
  facet normal 0.453434 -0.89129 0
    outer loop
      vertex 139.265 1.01127 0
      vertex 139.614 1.18882 0
      vertex 139.614 1.18882 130
    endloop
  endfacet
  facet normal 0.453434 -0.89129 0
    outer loop
      vertex 139.265 1.01127 0
      vertex 139.614 1.18882 130
      vertex 139.265 1.01127 130
    endloop
  endfacet
  facet normal 0.156543 0.987671 0
    outer loop
      vertex 139.614 -1.18882 0
      vertex 139.614 -1.18882 130
      vertex 140 -1.25 0
    endloop
  endfacet
  facet normal 0.156543 0.987671 -0
    outer loop
      vertex 139.614 -1.18882 130
      vertex 140 -1.25 130
      vertex 140 -1.25 0
    endloop
  endfacet
  facet normal 0.156543 -0.987671 0
    outer loop
      vertex 139.614 1.18882 0
      vertex 140 1.25 0
      vertex 140 1.25 130
    endloop
  endfacet
  facet normal 0.156543 -0.987671 0
    outer loop
      vertex 139.614 1.18882 0
      vertex 140 1.25 130
      vertex 139.614 1.18882 130
    endloop
  endfacet
  facet normal -0.156543 0.987671 0
    outer loop
      vertex 140 -1.25 0
      vertex 140 -1.25 130
      vertex 140.386 -1.18882 0
    endloop
  endfacet
  facet normal 0 0 -1
    outer loop
      vertex 140 -1.25 0
      vertex 140.386 -1.18882 0
      vertex 198 -10 0
    endloop
  endfacet
  facet normal -0.156543 0.987671 0
    outer loop
      vertex 140 -1.25 130
      vertex 140.386 -1.18882 130
      vertex 140.386 -1.18882 0
    endloop
  endfacet
  facet normal -0 0 1
    outer loop
      vertex 140 -1.25 130
      vertex 198 -10 130
      vertex 140.386 -1.18882 130
    endloop
  endfacet
  facet normal -0.156543 -0.987671 -0
    outer loop
      vertex 140 1.25 0
      vertex 140.386 1.18882 0
      vertex 140.386 1.18882 130
    endloop
  endfacet
  facet normal -0.156543 -0.987671 0
    outer loop
      vertex 140 1.25 0
      vertex 140.386 1.18882 130
      vertex 140 1.25 130
    endloop
  endfacet
  facet normal 0 0 -1
    outer loop
      vertex 140 1.25 0
      vertex 198 10 0
      vertex 140.386 1.18882 0
    endloop
  endfacet
  facet normal 0 0 1
    outer loop
      vertex 140 1.25 130
      vertex 140.386 1.18882 130
      vertex 198 10 130
    endloop
  endfacet
  facet normal -0.453434 0.89129 0
    outer loop
      vertex 140.386 -1.18882 0
      vertex 140.386 -1.18882 130
      vertex 140.735 -1.01127 0
    endloop
  endfacet
  facet normal 0 0 -1
    outer loop
      vertex 140.386 -1.18882 0
      vertex 140.735 -1.01127 0
      vertex 198 -10 0
    endloop
  endfacet
  facet normal -0.453434 0.89129 0
    outer loop
      vertex 140.386 -1.18882 130
      vertex 140.735 -1.01127 130
      vertex 140.735 -1.01127 0
    endloop
  endfacet
  facet normal -0 0 1
    outer loop
      vertex 140.386 -1.18882 130
      vertex 198 -10 130
      vertex 140.735 -1.01127 130
    endloop
  endfacet
  facet normal -0.453434 -0.89129 -0
    outer loop
      vertex 140.386 1.18882 0
      vertex 140.735 1.01127 0
      vertex 140.735 1.01127 130
    endloop
  endfacet
  facet normal -0.453434 -0.89129 0
    outer loop
      vertex 140.386 1.18882 0
      vertex 140.735 1.01127 130
      vertex 140.386 1.18882 130
    endloop
  endfacet
  facet normal 0 0 -1
    outer loop
      vertex 140.386 1.18882 0
      vertex 198 10 0
      vertex 140.735 1.01127 0
    endloop
  endfacet
  facet normal 0 0 1
    outer loop
      vertex 140.386 1.18882 130
      vertex 140.735 1.01127 130
      vertex 198 10 130
    endloop
  endfacet
  facet normal -0.707796 0.706417 0
    outer loop
      vertex 140.735 -1.01127 0
      vertex 140.735 -1.01127 130
      vertex 141.011 -0.734731 0
    endloop
  endfacet
  facet normal 0 0 -1
    outer loop
      vertex 140.735 -1.01127 0
      vertex 141.011 -0.734731 0
      vertex 198 -10 0
    endloop
  endfacet
  facet normal -0.707796 0.706417 0
    outer loop
      vertex 140.735 -1.01127 130
      vertex 141.011 -0.734731 130
      vertex 141.011 -0.734731 0
    endloop
  endfacet
  facet normal -0 0 1
    outer loop
      vertex 140.735 -1.01127 130
      vertex 198 -10 130
      vertex 141.011 -0.734731 130
    endloop
  endfacet
  facet normal -0.707796 -0.706417 -0
    outer loop
      vertex 140.735 1.01127 0
      vertex 141.011 0.734731 0
      vertex 141.011 0.734731 130
    endloop
  endfacet
  facet normal -0.707796 -0.706417 0
    outer loop
      vertex 140.735 1.01127 0
      vertex 141.011 0.734731 130
      vertex 140.735 1.01127 130
    endloop
  endfacet
  facet normal 0 0 -1
    outer loop
      vertex 140.735 1.01127 0
      vertex 198 10 0
      vertex 141.011 0.734731 0
    endloop
  endfacet
  facet normal 0 0 1
    outer loop
      vertex 140.735 1.01127 130
      vertex 141.011 0.734731 130
      vertex 198 10 130
    endloop
  endfacet
  facet normal -0.89054 0.454905 0
    outer loop
      vertex 141.011 -0.734731 0
      vertex 141.011 -0.734731 130
      vertex 141.189 -0.386271 130
    endloop
  endfacet
  facet normal 0 0 -1
    outer loop
      vertex 141.011 -0.734731 0
      vertex 141.189 -0.386271 0
      vertex 198 -10 0
    endloop
  endfacet
  facet normal -0.89054 0.454905 0
    outer loop
      vertex 141.011 -0.734731 0
      vertex 141.189 -0.386271 130
      vertex 141.189 -0.386271 0
    endloop
  endfacet
  facet normal -0 0 1
    outer loop
      vertex 141.011 -0.734731 130
      vertex 198 -10 130
      vertex 141.189 -0.386271 130
    endloop
  endfacet
  facet normal -0.89054 -0.454905 0
    outer loop
      vertex 141.011 0.734731 0
      vertex 141.189 0.386271 0
      vertex 141.011 0.734731 130
    endloop
  endfacet
  facet normal 0 0 -1
    outer loop
      vertex 141.011 0.734731 0
      vertex 198 10 0
      vertex 141.189 0.386271 0
    endloop
  endfacet
  facet normal -0.89054 -0.454905 0
    outer loop
      vertex 141.011 0.734731 130
      vertex 141.189 0.386271 0
      vertex 141.189 0.386271 130
    endloop
  endfacet
  facet normal 0 0 1
    outer loop
      vertex 141.011 0.734731 130
      vertex 141.189 0.386271 130
      vertex 198 10 130
    endloop
  endfacet
  facet normal -0.987759 0.155987 0
    outer loop
      vertex 141.189 -0.386271 0
      vertex 141.189 -0.386271 130
      vertex 141.25 0 130
    endloop
  endfacet
  facet normal 0 0 -1
    outer loop
      vertex 141.189 -0.386271 0
      vertex 141.25 0 0
      vertex 198 -10 0
    endloop
  endfacet
  facet normal -0.987759 0.155987 0
    outer loop
      vertex 141.189 -0.386271 0
      vertex 141.25 0 130
      vertex 141.25 0 0
    endloop
  endfacet
  facet normal -0 0 1
    outer loop
      vertex 141.189 -0.386271 130
      vertex 198 -10 130
      vertex 141.25 0 130
    endloop
  endfacet
  facet normal -0.987759 -0.155987 0
    outer loop
      vertex 141.189 0.386271 0
      vertex 141.25 0 0
      vertex 141.189 0.386271 130
    endloop
  endfacet
  facet normal 0 0 -1
    outer loop
      vertex 141.189 0.386271 0
      vertex 198 10 0
      vertex 141.25 0 0
    endloop
  endfacet
  facet normal -0.987759 -0.155987 0
    outer loop
      vertex 141.189 0.386271 130
      vertex 141.25 0 0
      vertex 141.25 0 130
    endloop
  endfacet
  facet normal 0 0 1
    outer loop
      vertex 141.189 0.386271 130
      vertex 141.25 0 130
      vertex 198 10 130
    endloop
  endfacet
  facet normal 0 0 -1
    outer loop
      vertex 141.25 0 0
      vertex 198 10 0
      vertex 198 -10 0
    endloop
  endfacet
  facet normal 0 0 1
    outer loop
      vertex 141.25 0 130
      vertex 198 -10 130
      vertex 198 10 130
    endloop
  endfacet
  facet normal 1 0 0
    outer loop
      vertex 198 -10 0
      vertex 198 10 0
      vertex 198 -10 130
    endloop
  endfacet
  facet normal 1 -0 0
    outer loop
      vertex 198 -10 130
      vertex 198 10 0
      vertex 198 10 130
    endloop
  endfacet
endsolid model
