solid model
  facet normal -1 -0 0
    outer loop
      vertex 0 0 0
      vertex 0 0 1.97
      vertex 0 17 1.97
    endloop
  endfacet
  facet normal 0 0 -1
    outer loop
      vertex 0 0 0
      vertex 0 17 0
      vertex 4 8.5 0
    endloop
  endfacet
  facet normal -1 0 0
    outer loop
      vertex 0 0 0
      vertex 0 17 1.97
      vertex 0 17 0
    endloop
  endfacet
  facet normal 0 -1 -0
    outer loop
      vertex 0 0 0
      vertex 18.2938 0 0
      vertex 18.2938 0 1.97
    endloop
  endfacet
  facet normal 0 -1 0
    outer loop
      vertex 0 0 0
      vertex 18.2938 0 1.97
      vertex 0 0 1.97
    endloop
  endfacet
  facet normal -0 0 -1
    outer loop
      vertex 0 0 0
      vertex 4 8.5 0
      vertex 4.07831 8.00557 0
    endloop
  endfacet
  facet normal -0 0 -1
    outer loop
      vertex 0 0 0
      vertex 4.07831 8.00557 0
      vertex 4.30557 7.55954 0
    endloop
  endfacet
  facet normal -0 0 -1
    outer loop
      vertex 0 0 0
      vertex 4.30557 7.55954 0
      vertex 4.65954 7.20557 0
    endloop
  endfacet
  facet normal -0 0 -1
    outer loop
      vertex 0 0 0
      vertex 4.65954 7.20557 0
      vertex 5.10557 6.97831 0
    endloop
  endfacet
  facet normal -0 0 -1
    outer loop
      vertex 0 0 0
      vertex 5.10557 6.97831 0
      vertex 5.6 6.9 0
    endloop
  endfacet
  facet normal 0 0 -1
    outer loop
      vertex 0 0 0
      vertex 5.6 6.9 0
      vertex 6.09443 6.97831 0
    endloop
  endfacet
  facet normal 0 0 -1
    outer loop
      vertex 0 0 0
      vertex 6.09443 6.97831 0
      vertex 18.2938 0 0
    endloop
  endfacet
  facet normal 0 0 1
    outer loop
      vertex 0 0 1.97
      vertex 0.32 8.5 1.97
      vertex 0 17 1.97
    endloop
  endfacet
  facet normal 0 0 1
    outer loop
      vertex 0 0 1.97
      vertex 0.385005 7.67403 1.97
      vertex 0.32 8.5 1.97
    endloop
  endfacet
  facet normal 0 0 1
    outer loop
      vertex 0 0 1.97
      vertex 0.578422 6.86839 1.97
      vertex 0.385005 7.67403 1.97
    endloop
  endfacet
  facet normal 0 0 1
    outer loop
      vertex 0 0 1.97
      vertex 0.895485 6.10293 1.97
      vertex 0.578422 6.86839 1.97
    endloop
  endfacet
  facet normal 0 0 1
    outer loop
      vertex 0 0 1.97
      vertex 1.32839 5.39649 1.97
      vertex 0.895485 6.10293 1.97
    endloop
  endfacet
  facet normal 0 0 1
    outer loop
      vertex 0 0 1.97
      vertex 1.86648 4.76648 1.97
      vertex 1.32839 5.39649 1.97
    endloop
  endfacet
  facet normal 0 0 1
    outer loop
      vertex 0 0 1.97
      vertex 18.2938 0 1.97
      vertex 6.42597 3.285 1.97
    endloop
  endfacet
  facet normal 0 0 1
    outer loop
      vertex 0 0 1.97
      vertex 2.49649 4.22839 1.97
      vertex 1.86648 4.76648 1.97
    endloop
  endfacet
  facet normal 0 0 1
    outer loop
      vertex 0 0 1.97
      vertex 3.20293 3.79549 1.97
      vertex 2.49649 4.22839 1.97
    endloop
  endfacet
  facet normal 0 0 1
    outer loop
      vertex 0 0 1.97
      vertex 3.96839 3.47842 1.97
      vertex 3.20293 3.79549 1.97
    endloop
  endfacet
  facet normal 0 0 1
    outer loop
      vertex 0 0 1.97
      vertex 4.77403 3.285 1.97
      vertex 3.96839 3.47842 1.97
    endloop
  endfacet
  facet normal 0 0 1
    outer loop
      vertex 0 0 1.97
      vertex 5.6 3.22 1.97
      vertex 4.77403 3.285 1.97
    endloop
  endfacet
  facet normal 0 0 1
    outer loop
      vertex 0 0 1.97
      vertex 6.42597 3.285 1.97
      vertex 5.6 3.22 1.97
    endloop
  endfacet
  facet normal 0 1 0
    outer loop
      vertex 0 17 0
      vertex 0 17 1.97
      vertex 18.2938 17 0
    endloop
  endfacet
  facet normal 0 0 -1
    outer loop
      vertex 0 17 0
      vertex 18.2938 17 0
      vertex 6.09443 10.0217 0
    endloop
  endfacet
  facet normal 0 0 -1
    outer loop
      vertex 0 17 0
      vertex 4.07831 8.99443 0
      vertex 4 8.5 0
    endloop
  endfacet
  facet normal 0 0 -1
    outer loop
      vertex 0 17 0
      vertex 4.30557 9.44046 0
      vertex 4.07831 8.99443 0
    endloop
  endfacet
  facet normal 0 0 -1
    outer loop
      vertex 0 17 0
      vertex 4.65954 9.79443 0
      vertex 4.30557 9.44046 0
    endloop
  endfacet
  facet normal 0 0 -1
    outer loop
      vertex 0 17 0
      vertex 5.10557 10.0217 0
      vertex 4.65954 9.79443 0
    endloop
  endfacet
  facet normal 0 0 -1
    outer loop
      vertex 0 17 0
      vertex 5.6 10.1 0
      vertex 5.10557 10.0217 0
    endloop
  endfacet
  facet normal 0 0 -1
    outer loop
      vertex 0 17 0
      vertex 6.09443 10.0217 0
      vertex 5.6 10.1 0
    endloop
  endfacet
  facet normal 0 0 1
    outer loop
      vertex 0 17 1.97
      vertex 0.32 8.5 1.97
      vertex 0.385005 9.32597 1.97
    endloop
  endfacet
  facet normal 0 0 1
    outer loop
      vertex 0 17 1.97
      vertex 0.385005 9.32597 1.97
      vertex 0.578422 10.1316 1.97
    endloop
  endfacet
  facet normal 0 0 1
    outer loop
      vertex 0 17 1.97
      vertex 0.578422 10.1316 1.97
      vertex 0.895485 10.8971 1.97
    endloop
  endfacet
  facet normal 0 0 1
    outer loop
      vertex 0 17 1.97
      vertex 0.895485 10.8971 1.97
      vertex 1.32839 11.6035 1.97
    endloop
  endfacet
  facet normal 0 0 1
    outer loop
      vertex 0 17 1.97
      vertex 1.32839 11.6035 1.97
      vertex 1.86648 12.2335 1.97
    endloop
  endfacet
  facet normal 0 0 1
    outer loop
      vertex 0 17 1.97
      vertex 1.86648 12.2335 1.97
      vertex 2.49649 12.7716 1.97
    endloop
  endfacet
  facet normal 0 1 -0
    outer loop
      vertex 0 17 1.97
      vertex 18.2938 17 1.97
      vertex 18.2938 17 0
    endloop
  endfacet
  facet normal 0 0 1
    outer loop
      vertex 0 17 1.97
      vertex 2.49649 12.7716 1.97
      vertex 3.20293 13.2045 1.97
    endloop
  endfacet
  facet normal 0 0 1
    outer loop
      vertex 0 17 1.97
      vertex 3.20293 13.2045 1.97
      vertex 3.96839 13.5216 1.97
    endloop
  endfacet
  facet normal 0 0 1
    outer loop
      vertex 0 17 1.97
      vertex 3.96839 13.5216 1.97
      vertex 4.77403 13.715 1.97
    endloop
  endfacet
  facet normal 0 0 1
    outer loop
      vertex 0 17 1.97
      vertex 4.77403 13.715 1.97
      vertex 5.6 13.78 1.97
    endloop
  endfacet
  facet normal 0 0 1
    outer loop
      vertex 0 17 1.97
      vertex 5.6 13.78 1.97
      vertex 6.42597 13.715 1.97
    endloop
  endfacet
  facet normal -0 0 1
    outer loop
      vertex 0 17 1.97
      vertex 6.42597 13.715 1.97
      vertex 18.2938 17 1.97
    endloop
  endfacet
  facet normal -0.996917 0.0784588 0
    outer loop
      vertex 0.32 8.5 1.97
      vertex 0.32 8.5 4.67
      vertex 0.385005 9.32597 4.67
    endloop
  endfacet
  facet normal -0.996917 -0.0784588 0
    outer loop
      vertex 0.32 8.5 1.97
      vertex 0.385005 7.67403 1.97
      vertex 0.32 8.5 4.67
    endloop
  endfacet
  facet normal -0.996917 0.0784588 0
    outer loop
      vertex 0.32 8.5 1.97
      vertex 0.385005 9.32597 4.67
      vertex 0.385005 9.32597 1.97
    endloop
  endfacet
  facet normal -0.996917 -0.0784588 0
    outer loop
      vertex 0.32 8.5 4.67
      vertex 0.385005 7.67403 1.97
      vertex 0.385005 7.67403 4.67
    endloop
  endfacet
  facet normal 0 0 1
    outer loop
      vertex 0.32 8.5 4.67
      vertex 0.385005 7.67403 4.67
      vertex 2.3 8.5 4.67
    endloop
  endfacet
  facet normal 0 0 1
    outer loop
      vertex 0.32 8.5 4.67
      vertex 2.3 8.5 4.67
      vertex 0.385005 9.32597 4.67
    endloop
  endfacet
  facet normal -0.97237 -0.233445 0
    outer loop
      vertex 0.385005 7.67403 1.97
      vertex 0.578422 6.86839 1.97
      vertex 0.385005 7.67403 4.67
    endloop
  endfacet
  facet normal -0.97237 -0.233445 0
    outer loop
      vertex 0.385005 7.67403 4.67
      vertex 0.578422 6.86839 1.97
      vertex 0.578422 6.86839 4.67
    endloop
  endfacet
  facet normal 0 0 1
    outer loop
      vertex 0.385005 7.67403 4.67
      vertex 0.578422 6.86839 4.67
      vertex 2.3 8.5 4.67
    endloop
  endfacet
  facet normal -0.972369 0.233448 0
    outer loop
      vertex 0.385005 9.32597 1.97
      vertex 0.385005 9.32597 4.67
      vertex 0.578422 10.1316 4.67
    endloop
  endfacet
  facet normal -0.972369 0.233448 0
    outer loop
      vertex 0.385005 9.32597 1.97
      vertex 0.578422 10.1316 4.67
      vertex 0.578422 10.1316 1.97
    endloop
  endfacet
  facet normal -0 0 1
    outer loop
      vertex 0.385005 9.32597 4.67
      vertex 2.3 8.5 4.67
      vertex 0.578422 10.1316 4.67
    endloop
  endfacet
  facet normal -0.923887 0.382665 0
    outer loop
      vertex 0.578422 10.1316 1.97
      vertex 0.578422 10.1316 4.67
      vertex 0.895485 10.8971 4.67
    endloop
  endfacet
  facet normal -0.923887 0.382665 0
    outer loop
      vertex 0.578422 10.1316 1.97
      vertex 0.895485 10.8971 4.67
      vertex 0.895485 10.8971 1.97
    endloop
  endfacet
  facet normal -0 0 1
    outer loop
      vertex 0.578422 10.1316 4.67
      vertex 2.3 8.5 4.67
      vertex 0.895485 10.8971 4.67
    endloop
  endfacet
  facet normal -0.92388 -0.382682 0
    outer loop
      vertex 0.578422 6.86839 1.97
      vertex 0.895485 6.10293 1.97
      vertex 0.578422 6.86839 4.67
    endloop
  endfacet
  facet normal -0.92388 -0.382682 0
    outer loop
      vertex 0.578422 6.86839 4.67
      vertex 0.895485 6.10293 1.97
      vertex 0.895485 6.10293 4.67
    endloop
  endfacet
  facet normal 0 0 1
    outer loop
      vertex 0.578422 6.86839 4.67
      vertex 0.895485 6.10293 4.67
      vertex 2.3 8.5 4.67
    endloop
  endfacet
  facet normal -0.852628 0.522518 0
    outer loop
      vertex 0.895485 10.8971 1.97
      vertex 0.895485 10.8971 4.67
      vertex 1.32839 11.6035 4.67
    endloop
  endfacet
  facet normal -0.852628 0.522518 0
    outer loop
      vertex 0.895485 10.8971 1.97
      vertex 1.32839 11.6035 4.67
      vertex 1.32839 11.6035 1.97
    endloop
  endfacet
  facet normal 0 0 1
    outer loop
      vertex 0.895485 10.8971 4.67
      vertex 2.3 8.5 4.67
      vertex 3.95 11.3579 4.67
    endloop
  endfacet
  facet normal 0 0 1
    outer loop
      vertex 0.895485 10.8971 4.67
      vertex 3.95 11.3579 4.67
      vertex 1.32839 11.6035 4.67
    endloop
  endfacet
  facet normal -0.852641 -0.522497 0
    outer loop
      vertex 0.895485 6.10293 1.97
      vertex 1.32839 5.39649 1.97
      vertex 0.895485 6.10293 4.67
    endloop
  endfacet
  facet normal -0.852641 -0.522497 0
    outer loop
      vertex 0.895485 6.10293 4.67
      vertex 1.32839 5.39649 1.97
      vertex 1.32839 5.39649 4.67
    endloop
  endfacet
  facet normal 0 0 1
    outer loop
      vertex 0.895485 6.10293 4.67
      vertex 1.32839 5.39649 4.67
      vertex 3.95 5.64212 4.67
    endloop
  endfacet
  facet normal -0 0 1
    outer loop
      vertex 0.895485 6.10293 4.67
      vertex 3.95 5.64212 4.67
      vertex 2.3 8.5 4.67
    endloop
  endfacet
  facet normal -0.760395 0.649461 0
    outer loop
      vertex 1.32839 11.6035 1.97
      vertex 1.32839 11.6035 4.67
      vertex 1.86648 12.2335 4.67
    endloop
  endfacet
  facet normal -0.760395 0.649461 0
    outer loop
      vertex 1.32839 11.6035 1.97
      vertex 1.86648 12.2335 4.67
      vertex 1.86648 12.2335 1.97
    endloop
  endfacet
  facet normal -0 0 1
    outer loop
      vertex 1.32839 11.6035 4.67
      vertex 3.95 11.3579 4.67
      vertex 1.86648 12.2335 4.67
    endloop
  endfacet
  facet normal -0.7604 -0.649455 0
    outer loop
      vertex 1.32839 5.39649 1.97
      vertex 1.86648 4.76648 1.97
      vertex 1.32839 5.39649 4.67
    endloop
  endfacet
  facet normal -0.7604 -0.649455 0
    outer loop
      vertex 1.32839 5.39649 4.67
      vertex 1.86648 4.76648 1.97
      vertex 1.86648 4.76648 4.67
    endloop
  endfacet
  facet normal 0 0 1
    outer loop
      vertex 1.32839 5.39649 4.67
      vertex 1.86648 4.76648 4.67
      vertex 3.95 5.64212 4.67
    endloop
  endfacet
  facet normal -0.649462 0.760394 0
    outer loop
      vertex 1.86648 12.2335 1.97
      vertex 1.86648 12.2335 4.67
      vertex 2.49649 12.7716 1.97
    endloop
  endfacet
  facet normal -0.649462 0.760394 0
    outer loop
      vertex 1.86648 12.2335 4.67
      vertex 2.49649 12.7716 4.67
      vertex 2.49649 12.7716 1.97
    endloop
  endfacet
  facet normal -0 0 1
    outer loop
      vertex 1.86648 12.2335 4.67
      vertex 3.95 11.3579 4.67
      vertex 2.49649 12.7716 4.67
    endloop
  endfacet
  facet normal -0.649455 -0.7604 -0
    outer loop
      vertex 1.86648 4.76648 1.97
      vertex 2.49649 4.22839 1.97
      vertex 2.49649 4.22839 4.67
    endloop
  endfacet
  facet normal -0.649455 -0.7604 0
    outer loop
      vertex 1.86648 4.76648 1.97
      vertex 2.49649 4.22839 4.67
      vertex 1.86648 4.76648 4.67
    endloop
  endfacet
  facet normal 0 0 1
    outer loop
      vertex 1.86648 4.76648 4.67
      vertex 2.49649 4.22839 4.67
      vertex 3.95 5.64212 4.67
    endloop
  endfacet
  facet normal 0.923871 0.382704 0
    outer loop
      vertex 10.3045 10.8971 1.97
      vertex 10.3045 10.8971 4.67
      vertex 10.6216 10.1316 4.67
    endloop
  endfacet
  facet normal 0 0 1
    outer loop
      vertex 10.3045 10.8971 1.97
      vertex 10.6216 10.1316 1.97
      vertex 15.0605 10.8971 1.97
    endloop
  endfacet
  facet normal 0.923871 0.382704 0
    outer loop
      vertex 10.3045 10.8971 1.97
      vertex 10.6216 10.1316 4.67
      vertex 10.6216 10.1316 1.97
    endloop
  endfacet
  facet normal 0.923864 -0.382721 0
    outer loop
      vertex 10.3045 6.10293 1.97
      vertex 10.6216 6.86839 1.97
      vertex 10.3045 6.10293 4.67
    endloop
  endfacet
  facet normal 0 0 1
    outer loop
      vertex 10.3045 6.10293 1.97
      vertex 15.0605 6.10293 1.97
      vertex 10.6216 6.86839 1.97
    endloop
  endfacet
  facet normal 0.923864 -0.382721 0
    outer loop
      vertex 10.3045 6.10293 4.67
      vertex 10.6216 6.86839 1.97
      vertex 10.6216 6.86839 4.67
    endloop
  endfacet
  facet normal 0.972374 0.233429 0
    outer loop
      vertex 10.6216 10.1316 1.97
      vertex 10.6216 10.1316 4.67
      vertex 10.815 9.32597 4.67
    endloop
  endfacet
  facet normal 0 0 1
    outer loop
      vertex 10.6216 10.1316 1.97
      vertex 10.815 9.32597 1.97
      vertex 14.7434 10.1316 1.97
    endloop
  endfacet
  facet normal 0.972374 0.233429 0
    outer loop
      vertex 10.6216 10.1316 1.97
      vertex 10.815 9.32597 4.67
      vertex 10.815 9.32597 1.97
    endloop
  endfacet
  facet normal 0 0 1
    outer loop
      vertex 10.6216 10.1316 1.97
      vertex 14.7434 10.1316 1.97
      vertex 15.0605 10.8971 1.97
    endloop
  endfacet
  facet normal 0.972375 -0.233426 0
    outer loop
      vertex 10.6216 6.86839 1.97
      vertex 10.815 7.67403 1.97
      vertex 10.6216 6.86839 4.67
    endloop
  endfacet
  facet normal 0 0 1
    outer loop
      vertex 10.6216 6.86839 1.97
      vertex 14.7434 6.86839 1.97
      vertex 10.815 7.67403 1.97
    endloop
  endfacet
  facet normal 0 0 1
    outer loop
      vertex 10.6216 6.86839 1.97
      vertex 15.0605 6.10293 1.97
      vertex 14.7434 6.86839 1.97
    endloop
  endfacet
  facet normal 0.972375 -0.233426 0
    outer loop
      vertex 10.6216 6.86839 4.67
      vertex 10.815 7.67403 1.97
      vertex 10.815 7.67403 4.67
    endloop
  endfacet
  facet normal 0.996918 -0.0784528 0
    outer loop
      vertex 10.815 7.67403 1.97
      vertex 10.88 8.5 1.97
      vertex 10.815 7.67403 4.67
    endloop
  endfacet
  facet normal 0 0 1
    outer loop
      vertex 10.815 7.67403 1.97
      vertex 14.55 7.67403 1.97
      vertex 10.88 8.5 1.97
    endloop
  endfacet
  facet normal 0 0 1
    outer loop
      vertex 10.815 7.67403 1.97
      vertex 14.7434 6.86839 1.97
      vertex 14.55 7.67403 1.97
    endloop
  endfacet
  facet normal 0.996918 -0.0784528 0
    outer loop
      vertex 10.815 7.67403 4.67
      vertex 10.88 8.5 1.97
      vertex 10.88 8.5 4.67
    endloop
  endfacet
  facet normal 0.996918 0.0784528 0
    outer loop
      vertex 10.815 9.32597 1.97
      vertex 10.815 9.32597 4.67
      vertex 10.88 8.5 4.67
    endloop
  endfacet
  facet normal 0 0 1
    outer loop
      vertex 10.815 9.32597 1.97
      vertex 10.88 8.5 1.97
      vertex 14.55 9.32597 1.97
    endloop
  endfacet
  facet normal 0.996918 0.0784528 0
    outer loop
      vertex 10.815 9.32597 1.97
      vertex 10.88 8.5 4.67
      vertex 10.88 8.5 1.97
    endloop
  endfacet
  facet normal 0 0 1
    outer loop
      vertex 10.815 9.32597 1.97
      vertex 14.55 9.32597 1.97
      vertex 14.7434 10.1316 1.97
    endloop
  endfacet
  facet normal 0 0 1
    outer loop
      vertex 10.88 8.5 1.97
      vertex 14.485 8.5 1.97
      vertex 14.55 9.32597 1.97
    endloop
  endfacet
  facet normal -0 0 1
    outer loop
      vertex 10.88 8.5 1.97
      vertex 14.55 7.67403 1.97
      vertex 14.485 8.5 1.97
    endloop
  endfacet
  facet normal -0.996918 0.0784528 0
    outer loop
      vertex 14.485 8.5 1.97
      vertex 14.485 8.5 4.67
      vertex 14.55 9.32597 4.67
    endloop
  endfacet
  facet normal -0.996918 -0.0784528 0
    outer loop
      vertex 14.485 8.5 1.97
      vertex 14.55 7.67403 1.97
      vertex 14.485 8.5 4.67
    endloop
  endfacet
  facet normal -0.996918 0.0784528 0
    outer loop
      vertex 14.485 8.5 1.97
      vertex 14.55 9.32597 4.67
      vertex 14.55 9.32597 1.97
    endloop
  endfacet
  facet normal -0.996918 -0.0784528 0
    outer loop
      vertex 14.485 8.5 4.67
      vertex 14.55 7.67403 1.97
      vertex 14.55 7.67403 4.67
    endloop
  endfacet
  facet normal 0 0 1
    outer loop
      vertex 14.485 8.5 4.67
      vertex 14.55 7.67403 4.67
      vertex 16.465 8.5 4.67
    endloop
  endfacet
  facet normal 0 0 1
    outer loop
      vertex 14.485 8.5 4.67
      vertex 16.465 8.5 4.67
      vertex 14.55 9.32597 4.67
    endloop
  endfacet
  facet normal -0.972375 -0.233426 0
    outer loop
      vertex 14.55 7.67403 1.97
      vertex 14.7434 6.86839 1.97
      vertex 14.55 7.67403 4.67
    endloop
  endfacet
  facet normal -0.972375 -0.233426 0
    outer loop
      vertex 14.55 7.67403 4.67
      vertex 14.7434 6.86839 1.97
      vertex 14.7434 6.86839 4.67
    endloop
  endfacet
  facet normal 0 0 1
    outer loop
      vertex 14.55 7.67403 4.67
      vertex 14.7434 6.86839 4.67
      vertex 16.465 8.5 4.67
    endloop
  endfacet
  facet normal -0.972374 0.233429 0
    outer loop
      vertex 14.55 9.32597 1.97
      vertex 14.55 9.32597 4.67
      vertex 14.7434 10.1316 4.67
    endloop
  endfacet
  facet normal -0.972374 0.233429 0
    outer loop
      vertex 14.55 9.32597 1.97
      vertex 14.7434 10.1316 4.67
      vertex 14.7434 10.1316 1.97
    endloop
  endfacet
  facet normal -0 0 1
    outer loop
      vertex 14.55 9.32597 4.67
      vertex 16.465 8.5 4.67
      vertex 14.7434 10.1316 4.67
    endloop
  endfacet
  facet normal -0.923871 0.382704 0
    outer loop
      vertex 14.7434 10.1316 1.97
      vertex 14.7434 10.1316 4.67
      vertex 15.0605 10.8971 4.67
    endloop
  endfacet
  facet normal -0.923871 0.382704 0
    outer loop
      vertex 14.7434 10.1316 1.97
      vertex 15.0605 10.8971 4.67
      vertex 15.0605 10.8971 1.97
    endloop
  endfacet
  facet normal -0 0 1
    outer loop
      vertex 14.7434 10.1316 4.67
      vertex 16.465 8.5 4.67
      vertex 15.0605 10.8971 4.67
    endloop
  endfacet
  facet normal -0.923864 -0.382721 0
    outer loop
      vertex 14.7434 6.86839 1.97
      vertex 15.0605 6.10293 1.97
      vertex 14.7434 6.86839 4.67
    endloop
  endfacet
  facet normal -0.923864 -0.382721 0
    outer loop
      vertex 14.7434 6.86839 4.67
      vertex 15.0605 6.10293 1.97
      vertex 15.0605 6.10293 4.67
    endloop
  endfacet
  facet normal 0 0 1
    outer loop
      vertex 14.7434 6.86839 4.67
      vertex 15.0605 6.10293 4.67
      vertex 16.465 8.5 4.67
    endloop
  endfacet
  facet normal -0.852631 0.522514 0
    outer loop
      vertex 15.0605 10.8971 1.97
      vertex 15.0605 10.8971 4.67
      vertex 15.4934 11.6035 4.67
    endloop
  endfacet
  facet normal -0.852631 0.522514 0
    outer loop
      vertex 15.0605 10.8971 1.97
      vertex 15.4934 11.6035 4.67
      vertex 15.4934 11.6035 1.97
    endloop
  endfacet
  facet normal 0 0 1
    outer loop
      vertex 15.0605 10.8971 4.67
      vertex 16.465 8.5 4.67
      vertex 18.115 11.3579 4.67
    endloop
  endfacet
  facet normal 0 0 1
    outer loop
      vertex 15.0605 10.8971 4.67
      vertex 18.115 11.3579 4.67
      vertex 15.4934 11.6035 4.67
    endloop
  endfacet
  facet normal -0.852644 -0.522492 0
    outer loop
      vertex 15.0605 6.10293 1.97
      vertex 15.4934 5.39649 1.97
      vertex 15.0605 6.10293 4.67
    endloop
  endfacet
  facet normal -0.852644 -0.522492 0
    outer loop
      vertex 15.0605 6.10293 4.67
      vertex 15.4934 5.39649 1.97
      vertex 15.4934 5.39649 4.67
    endloop
  endfacet
  facet normal 0 0 1
    outer loop
      vertex 15.0605 6.10293 4.67
      vertex 15.4934 5.39649 4.67
      vertex 18.115 5.64212 4.67
    endloop
  endfacet
  facet normal -0 0 1
    outer loop
      vertex 15.0605 6.10293 4.67
      vertex 18.115 5.64212 4.67
      vertex 16.465 8.5 4.67
    endloop
  endfacet
  facet normal -0.760389 0.649468 0
    outer loop
      vertex 15.4934 11.6035 1.97
      vertex 15.4934 11.6035 4.67
      vertex 16.0315 12.2335 4.67
    endloop
  endfacet
  facet normal -0.760389 0.649468 0
    outer loop
      vertex 15.4934 11.6035 1.97
      vertex 16.0315 12.2335 4.67
      vertex 16.0315 12.2335 1.97
    endloop
  endfacet
  facet normal -0 0 1
    outer loop
      vertex 15.4934 11.6035 4.67
      vertex 18.115 11.3579 4.67
      vertex 16.0315 12.2335 4.67
    endloop
  endfacet
  facet normal -0.760394 -0.649462 0
    outer loop
      vertex 15.4934 5.39649 1.97
      vertex 16.0315 4.76648 1.97
      vertex 15.4934 5.39649 4.67
    endloop
  endfacet
  facet normal -0.760394 -0.649462 0
    outer loop
      vertex 15.4934 5.39649 4.67
      vertex 16.0315 4.76648 1.97
      vertex 16.0315 4.76648 4.67
    endloop
  endfacet
  facet normal 0 0 1
    outer loop
      vertex 15.4934 5.39649 4.67
      vertex 16.0315 4.76648 4.67
      vertex 18.115 5.64212 4.67
    endloop
  endfacet
  facet normal -0.649468 0.760389 0
    outer loop
      vertex 16.0315 12.2335 1.97
      vertex 16.0315 12.2335 4.67
      vertex 16.6615 12.7716 1.97
    endloop
  endfacet
  facet normal 0 0 1
    outer loop
      vertex 16.0315 12.2335 1.97
      vertex 16.6615 12.7716 1.97
      vertex 18.2938 17 1.97
    endloop
  endfacet
  facet normal -0.649468 0.760389 0
    outer loop
      vertex 16.0315 12.2335 4.67
      vertex 16.6615 12.7716 4.67
      vertex 16.6615 12.7716 1.97
    endloop
  endfacet
  facet normal -0 0 1
    outer loop
      vertex 16.0315 12.2335 4.67
      vertex 18.115 11.3579 4.67
      vertex 16.6615 12.7716 4.67
    endloop
  endfacet
  facet normal -0.649461 -0.760395 -0
    outer loop
      vertex 16.0315 4.76648 1.97
      vertex 16.6615 4.22839 1.97
      vertex 16.6615 4.22839 4.67
    endloop
  endfacet
  facet normal -0.649461 -0.760395 0
    outer loop
      vertex 16.0315 4.76648 1.97
      vertex 16.6615 4.22839 4.67
      vertex 16.0315 4.76648 4.67
    endloop
  endfacet
  facet normal 0 0 1
    outer loop
      vertex 16.0315 4.76648 1.97
      vertex 18.2938 0 1.97
      vertex 16.6615 4.22839 1.97
    endloop
  endfacet
  facet normal 0 0 1
    outer loop
      vertex 16.0315 4.76648 4.67
      vertex 16.6615 4.22839 4.67
      vertex 18.115 5.64212 4.67
    endloop
  endfacet
  facet normal 0.866025 0.500001 0
    outer loop
      vertex 16.465 8.5 1.97
      vertex 16.465 8.5 4.67
      vertex 18.115 5.64212 4.67
    endloop
  endfacet
  facet normal 0.866027 -0.499998 0
    outer loop
      vertex 16.465 8.5 1.97
      vertex 18.115 11.3579 1.97
      vertex 16.465 8.5 4.67
    endloop
  endfacet
  facet normal 0 0 1
    outer loop
      vertex 16.465 8.5 1.97
      vertex 18.115 5.64212 1.97
      vertex 18.4706 7.55954 1.97
    endloop
  endfacet
  facet normal 0.866025 0.500001 0
    outer loop
      vertex 16.465 8.5 1.97
      vertex 18.115 5.64212 4.67
      vertex 18.115 5.64212 1.97
    endloop
  endfacet
  facet normal 0 0 1
    outer loop
      vertex 16.465 8.5 1.97
      vertex 18.165 8.5 1.97
      vertex 18.2433 8.99443 1.97
    endloop
  endfacet
  facet normal -0 0 1
    outer loop
      vertex 16.465 8.5 1.97
      vertex 18.2433 8.00557 1.97
      vertex 18.165 8.5 1.97
    endloop
  endfacet
  facet normal 0 0 1
    outer loop
      vertex 16.465 8.5 1.97
      vertex 18.2433 8.99443 1.97
      vertex 18.4706 9.44046 1.97
    endloop
  endfacet
  facet normal 0 0 1
    outer loop
      vertex 16.465 8.5 1.97
      vertex 18.4706 7.55954 1.97
      vertex 18.2433 8.00557 1.97
    endloop
  endfacet
  facet normal 0 0 1
    outer loop
      vertex 16.465 8.5 1.97
      vertex 18.4706 9.44046 1.97
      vertex 18.115 11.3579 1.97
    endloop
  endfacet
  facet normal 0.866027 -0.499998 0
    outer loop
      vertex 16.465 8.5 4.67
      vertex 18.115 11.3579 1.97
      vertex 18.115 11.3579 4.67
    endloop
  endfacet
  facet normal -0.522514 0.852631 0
    outer loop
      vertex 16.6615 12.7716 1.97
      vertex 16.6615 12.7716 4.67
      vertex 17.3679 13.2045 1.97
    endloop
  endfacet
  facet normal 0 0 1
    outer loop
      vertex 16.6615 12.7716 1.97
      vertex 17.3679 13.2045 1.97
      vertex 18.2938 17 1.97
    endloop
  endfacet
  facet normal -0.522514 0.852631 0
    outer loop
      vertex 16.6615 12.7716 4.67
      vertex 17.3679 13.2045 4.67
      vertex 17.3679 13.2045 1.97
    endloop
  endfacet
  facet normal -0 0 1
    outer loop
      vertex 16.6615 12.7716 4.67
      vertex 18.115 11.3579 4.67
      vertex 17.3679 13.2045 4.67
    endloop
  endfacet
  facet normal -0.522514 -0.852631 -0
    outer loop
      vertex 16.6615 4.22839 1.97
      vertex 17.3679 3.79549 1.97
      vertex 17.3679 3.79549 4.67
    endloop
  endfacet
  facet normal -0.522514 -0.852631 0
    outer loop
      vertex 16.6615 4.22839 1.97
      vertex 17.3679 3.79549 4.67
      vertex 16.6615 4.22839 4.67
    endloop
  endfacet
  facet normal 0 0 1
    outer loop
      vertex 16.6615 4.22839 1.97
      vertex 18.2938 0 1.97
      vertex 17.3679 3.79549 1.97
    endloop
  endfacet
  facet normal 0 0 1
    outer loop
      vertex 16.6615 4.22839 4.67
      vertex 17.3679 3.79549 4.67
      vertex 18.115 5.64212 4.67
    endloop
  endfacet
  facet normal -0.382704 0.923871 0
    outer loop
      vertex 17.3679 13.2045 1.97
      vertex 17.3679 13.2045 4.67
      vertex 18.1334 13.5216 1.97
    endloop
  endfacet
  facet normal 0 0 1
    outer loop
      vertex 17.3679 13.2045 1.97
      vertex 18.1334 13.5216 1.97
      vertex 18.2938 17 1.97
    endloop
  endfacet
  facet normal -0 0 1
    outer loop
      vertex 17.3679 13.2045 4.67
      vertex 18.115 11.3579 4.67
      vertex 18.1334 13.5216 4.67
    endloop
  endfacet
  facet normal -0.382704 0.923871 0
    outer loop
      vertex 17.3679 13.2045 4.67
      vertex 18.1334 13.5216 4.67
      vertex 18.1334 13.5216 1.97
    endloop
  endfacet
  facet normal -0.382673 -0.923884 -0
    outer loop
      vertex 17.3679 3.79549 1.97
      vertex 18.1334 3.47842 1.97
      vertex 18.1334 3.47842 4.67
    endloop
  endfacet
  facet normal -0.382673 -0.923884 0
    outer loop
      vertex 17.3679 3.79549 1.97
      vertex 18.1334 3.47842 4.67
      vertex 17.3679 3.79549 4.67
    endloop
  endfacet
  facet normal 0 0 1
    outer loop
      vertex 17.3679 3.79549 1.97
      vertex 18.2938 0 1.97
      vertex 18.1334 3.47842 1.97
    endloop
  endfacet
  facet normal 0 0 1
    outer loop
      vertex 17.3679 3.79549 4.67
      vertex 18.1334 3.47842 4.67
      vertex 18.115 5.64212 4.67
    endloop
  endfacet
  facet normal 0 0 1
    outer loop
      vertex 18.115 11.3579 1.97
      vertex 18.4706 9.44046 1.97
      vertex 18.8245 9.79443 1.97
    endloop
  endfacet
  facet normal 0 0 1
    outer loop
      vertex 18.115 11.3579 1.97
      vertex 18.8245 9.79443 1.97
      vertex 19.2706 10.0217 1.97
    endloop
  endfacet
  facet normal 0 0 1
    outer loop
      vertex 18.115 11.3579 1.97
      vertex 19.2706 10.0217 1.97
      vertex 19.765 10.1 1.97
    endloop
  endfacet
  facet normal -0 0 1
    outer loop
      vertex 18.115 11.3579 1.97
      vertex 19.765 10.1 1.97
      vertex 21.415 11.3579 1.97
    endloop
  endfacet
  facet normal 0 -1 -0
    outer loop
      vertex 18.115 11.3579 1.97
      vertex 21.415 11.3579 1.97
      vertex 21.415 11.3579 4.67
    endloop
  endfacet
  facet normal 0 -1 0
    outer loop
      vertex 18.115 11.3579 1.97
      vertex 21.415 11.3579 4.67
      vertex 18.115 11.3579 4.67
    endloop
  endfacet
  facet normal 0 0 1
    outer loop
      vertex 18.115 11.3579 4.67
      vertex 18.939 13.715 4.67
      vertex 18.1334 13.5216 4.67
    endloop
  endfacet
  facet normal 0 0 1
    outer loop
      vertex 18.115 11.3579 4.67
      vertex 19.765 13.78 4.67
      vertex 18.939 13.715 4.67
    endloop
  endfacet
  facet normal 0 0 1
    outer loop
      vertex 18.115 11.3579 4.67
      vertex 21.415 11.3579 4.67
      vertex 19.765 13.78 4.67
    endloop
  endfacet
  facet normal 0 1 0
    outer loop
      vertex 18.115 5.64212 1.97
      vertex 18.115 5.64212 4.67
      vertex 21.415 5.64212 1.97
    endloop
  endfacet
  facet normal 0 0 1
    outer loop
      vertex 18.115 5.64212 1.97
      vertex 18.8245 7.20557 1.97
      vertex 18.4706 7.55954 1.97
    endloop
  endfacet
  facet normal 0 0 1
    outer loop
      vertex 18.115 5.64212 1.97
      vertex 19.2706 6.97831 1.97
      vertex 18.8245 7.20557 1.97
    endloop
  endfacet
  facet normal 0 0 1
    outer loop
      vertex 18.115 5.64212 1.97
      vertex 19.765 6.9 1.97
      vertex 19.2706 6.97831 1.97
    endloop
  endfacet
  facet normal 0 0 1
    outer loop
      vertex 18.115 5.64212 1.97
      vertex 21.415 5.64212 1.97
      vertex 19.765 6.9 1.97
    endloop
  endfacet
  facet normal 0 0 1
    outer loop
      vertex 18.115 5.64212 4.67
      vertex 18.1334 3.47842 4.67
      vertex 18.939 3.285 4.67
    endloop
  endfacet
  facet normal 0 0 1
    outer loop
      vertex 18.115 5.64212 4.67
      vertex 18.939 3.285 4.67
      vertex 19.765 3.22 4.67
    endloop
  endfacet
  facet normal -0 0 1
    outer loop
      vertex 18.115 5.64212 4.67
      vertex 19.765 3.22 4.67
      vertex 21.415 5.64212 4.67
    endloop
  endfacet
  facet normal 0 1 -0
    outer loop
      vertex 18.115 5.64212 4.67
      vertex 21.415 5.64212 4.67
      vertex 21.415 5.64212 1.97
    endloop
  endfacet
  facet normal -0.233437 0.972372 0
    outer loop
      vertex 18.1334 13.5216 1.97
      vertex 18.1334 13.5216 4.67
      vertex 18.939 13.715 1.97
    endloop
  endfacet
  facet normal 0 0 1
    outer loop
      vertex 18.1334 13.5216 1.97
      vertex 18.939 13.715 1.97
      vertex 18.2938 17 1.97
    endloop
  endfacet
  facet normal -0.233437 0.972372 0
    outer loop
      vertex 18.1334 13.5216 4.67
      vertex 18.939 13.715 4.67
      vertex 18.939 13.715 1.97
    endloop
  endfacet
  facet normal 0 0 1
    outer loop
      vertex 18.1334 3.47842 1.97
      vertex 18.2938 0 1.97
      vertex 18.939 3.285 1.97
    endloop
  endfacet
  facet normal -0.23346 -0.972366 -0
    outer loop
      vertex 18.1334 3.47842 1.97
      vertex 18.939 3.285 1.97
      vertex 18.939 3.285 4.67
    endloop
  endfacet
  facet normal -0.23346 -0.972366 0
    outer loop
      vertex 18.1334 3.47842 1.97
      vertex 18.939 3.285 4.67
      vertex 18.1334 3.47842 4.67
    endloop
  endfacet
  facet normal 0.987691 0.156415 0
    outer loop
      vertex 18.165 8.5 0
      vertex 18.165 8.5 1.97
      vertex 18.2433 8.00557 1.97
    endloop
  endfacet
  facet normal 0.987691 0.156415 0
    outer loop
      vertex 18.165 8.5 0
      vertex 18.2433 8.00557 1.97
      vertex 18.2433 8.00557 0
    endloop
  endfacet
  facet normal 0.987691 -0.156415 0
    outer loop
      vertex 18.165 8.5 0
      vertex 18.2433 8.99443 0
      vertex 18.165 8.5 1.97
    endloop
  endfacet
  facet normal 0.987691 -0.156415 0
    outer loop
      vertex 18.165 8.5 1.97
      vertex 18.2433 8.99443 0
      vertex 18.2433 8.99443 1.97
    endloop
  endfacet
  facet normal 0.890977 0.454048 0
    outer loop
      vertex 18.2433 8.00557 0
      vertex 18.2433 8.00557 1.97
      vertex 18.4706 7.55954 1.97
    endloop
  endfacet
  facet normal 0.890977 0.454048 0
    outer loop
      vertex 18.2433 8.00557 0
      vertex 18.4706 7.55954 1.97
      vertex 18.4706 7.55954 0
    endloop
  endfacet
  facet normal 0.890977 -0.454048 0
    outer loop
      vertex 18.2433 8.99443 0
      vertex 18.4706 9.44046 0
      vertex 18.2433 8.99443 1.97
    endloop
  endfacet
  facet normal 0.890977 -0.454048 0
    outer loop
      vertex 18.2433 8.99443 1.97
      vertex 18.4706 9.44046 0
      vertex 18.4706 9.44046 1.97
    endloop
  endfacet
  facet normal 0 0 -1
    outer loop
      vertex 18.2938 0 0
      vertex 18.4706 7.55954 0
      vertex 18.8245 7.20557 0
    endloop
  endfacet
  facet normal -0 0 -1
    outer loop
      vertex 18.2938 0 0
      vertex 18.8245 7.20557 0
      vertex 19.2706 6.97831 0
    endloop
  endfacet
  facet normal -0 0 -1
    outer loop
      vertex 18.2938 0 0
      vertex 19.2706 6.97831 0
      vertex 19.765 6.9 0
    endloop
  endfacet
  facet normal 0 0 -1
    outer loop
      vertex 18.2938 0 0
      vertex 19.765 6.9 0
      vertex 20.2594 6.97831 0
    endloop
  endfacet
  facet normal 0 0 -1
    outer loop
      vertex 18.2938 0 0
      vertex 20.2594 6.97831 0
      vertex 20.7055 7.20557 0
    endloop
  endfacet
  facet normal 0 0 -1
    outer loop
      vertex 18.2938 0 0
      vertex 20.7055 7.20557 0
      vertex 31.0589 -2.71482 0
    endloop
  endfacet
  facet normal -0.208023 -0.978124 -0
    outer loop
      vertex 18.2938 0 0
      vertex 31.0589 -2.71482 0
      vertex 31.0589 -2.71482 1.97
    endloop
  endfacet
  facet normal -0.208023 -0.978124 0
    outer loop
      vertex 18.2938 0 0
      vertex 31.0589 -2.71482 1.97
      vertex 18.2938 0 1.97
    endloop
  endfacet
  facet normal 0 0 1
    outer loop
      vertex 18.2938 0 1.97
      vertex 19.765 3.22 1.97
      vertex 18.939 3.285 1.97
    endloop
  endfacet
  facet normal 0 0 1
    outer loop
      vertex 18.2938 0 1.97
      vertex 20.591 3.285 1.97
      vertex 19.765 3.22 1.97
    endloop
  endfacet
  facet normal 0 0 1
    outer loop
      vertex 18.2938 0 1.97
      vertex 21.3966 3.47842 1.97
      vertex 20.591 3.285 1.97
    endloop
  endfacet
  facet normal 0 0 1
    outer loop
      vertex 18.2938 0 1.97
      vertex 22.1621 3.79549 1.97
      vertex 21.3966 3.47842 1.97
    endloop
  endfacet
  facet normal 0 0 1
    outer loop
      vertex 18.2938 0 1.97
      vertex 31.0589 -2.71482 1.97
      vertex 22.1621 3.79549 1.97
    endloop
  endfacet
  facet normal -0.20802 0.978125 0
    outer loop
      vertex 18.2938 17 0
      vertex 18.2938 17 1.97
      vertex 26.6348 18.7739 0
    endloop
  endfacet
  facet normal 0 0 -1
    outer loop
      vertex 18.2938 17 0
      vertex 18.8245 9.79443 0
      vertex 18.4706 9.44046 0
    endloop
  endfacet
  facet normal 0 0 -1
    outer loop
      vertex 18.2938 17 0
      vertex 19.2706 10.0217 0
      vertex 18.8245 9.79443 0
    endloop
  endfacet
  facet normal 0 0 -1
    outer loop
      vertex 18.2938 17 0
      vertex 19.765 10.1 0
      vertex 19.2706 10.0217 0
    endloop
  endfacet
  facet normal 0 0 -1
    outer loop
      vertex 18.2938 17 0
      vertex 20.2594 10.0217 0
      vertex 19.765 10.1 0
    endloop
  endfacet
  facet normal 0 0 -1
    outer loop
      vertex 18.2938 17 0
      vertex 20.7055 9.79443 0
      vertex 20.2594 10.0217 0
    endloop
  endfacet
  facet normal 0 0 -1
    outer loop
      vertex 18.2938 17 0
      vertex 26.6348 18.7739 0
      vertex 20.7055 9.79443 0
    endloop
  endfacet
  facet normal 0 0 1
    outer loop
      vertex 18.2938 17 1.97
      vertex 18.939 13.715 1.97
      vertex 19.765 13.78 1.97
    endloop
  endfacet
  facet normal 0 0 1
    outer loop
      vertex 18.2938 17 1.97
      vertex 19.765 13.78 1.97
      vertex 20.591 13.715 1.97
    endloop
  endfacet
  facet normal 0 0 1
    outer loop
      vertex 18.2938 17 1.97
      vertex 20.591 13.715 1.97
      vertex 21.3966 13.5216 1.97
    endloop
  endfacet
  facet normal -0 0 1
    outer loop
      vertex 18.2938 17 1.97
      vertex 21.3966 13.5216 1.97
      vertex 26.6348 18.7739 1.97
    endloop
  endfacet
  facet normal -0.20802 0.978125 0
    outer loop
      vertex 18.2938 17 1.97
      vertex 26.6348 18.7739 1.97
      vertex 26.6348 18.7739 0
    endloop
  endfacet
  facet normal 0.707177 0.707037 0
    outer loop
      vertex 18.4706 7.55954 0
      vertex 18.4706 7.55954 1.97
      vertex 18.8245 7.20557 1.97
    endloop
  endfacet
  facet normal 0.707177 0.707037 0
    outer loop
      vertex 18.4706 7.55954 0
      vertex 18.8245 7.20557 1.97
      vertex 18.8245 7.20557 0
    endloop
  endfacet
  facet normal 0.707177 -0.707037 0
    outer loop
      vertex 18.4706 9.44046 0
      vertex 18.8245 9.79443 0
      vertex 18.4706 9.44046 1.97
    endloop
  endfacet
  facet normal 0.707177 -0.707037 0
    outer loop
      vertex 18.4706 9.44046 1.97
      vertex 18.8245 9.79443 0
      vertex 18.8245 9.79443 1.97
    endloop
  endfacet
  facet normal 0.453928 0.891038 0
    outer loop
      vertex 18.8245 7.20557 0
      vertex 18.8245 7.20557 1.97
      vertex 19.2706 6.97831 0
    endloop
  endfacet
  facet normal 0.453928 0.891038 -0
    outer loop
      vertex 18.8245 7.20557 1.97
      vertex 19.2706 6.97831 1.97
      vertex 19.2706 6.97831 0
    endloop
  endfacet
  facet normal 0.453944 -0.89103 0
    outer loop
      vertex 18.8245 9.79443 0
      vertex 19.2706 10.0217 0
      vertex 19.2706 10.0217 1.97
    endloop
  endfacet
  facet normal 0.453944 -0.89103 0
    outer loop
      vertex 18.8245 9.79443 0
      vertex 19.2706 10.0217 1.97
      vertex 18.8245 9.79443 1.97
    endloop
  endfacet
  facet normal -0.07845 0.996918 0
    outer loop
      vertex 18.939 13.715 1.97
      vertex 18.939 13.715 4.67
      vertex 19.765 13.78 1.97
    endloop
  endfacet
  facet normal -0.07845 0.996918 0
    outer loop
      vertex 18.939 13.715 4.67
      vertex 19.765 13.78 4.67
      vertex 19.765 13.78 1.97
    endloop
  endfacet
  facet normal -0.07845 -0.996918 -0
    outer loop
      vertex 18.939 3.285 1.97
      vertex 19.765 3.22 1.97
      vertex 19.765 3.22 4.67
    endloop
  endfacet
  facet normal -0.07845 -0.996918 0
    outer loop
      vertex 18.939 3.285 1.97
      vertex 19.765 3.22 4.67
      vertex 18.939 3.285 4.67
    endloop
  endfacet
  facet normal 0.156424 -0.98769 0
    outer loop
      vertex 19.2706 10.0217 0
      vertex 19.765 10.1 0
      vertex 19.765 10.1 1.97
    endloop
  endfacet
  facet normal 0.156424 -0.98769 0
    outer loop
      vertex 19.2706 10.0217 0
      vertex 19.765 10.1 1.97
      vertex 19.2706 10.0217 1.97
    endloop
  endfacet
  facet normal 0.156444 0.987687 0
    outer loop
      vertex 19.2706 6.97831 0
      vertex 19.2706 6.97831 1.97
      vertex 19.765 6.9 0
    endloop
  endfacet
  facet normal 0.156444 0.987687 -0
    outer loop
      vertex 19.2706 6.97831 1.97
      vertex 19.765 6.9 1.97
      vertex 19.765 6.9 0
    endloop
  endfacet
  facet normal -0.156424 -0.98769 -0
    outer loop
      vertex 19.765 10.1 0
      vertex 20.2594 10.0217 0
      vertex 20.2594 10.0217 1.97
    endloop
  endfacet
  facet normal -0.156424 -0.98769 0
    outer loop
      vertex 19.765 10.1 0
      vertex 20.2594 10.0217 1.97
      vertex 19.765 10.1 1.97
    endloop
  endfacet
  facet normal 0 0 1
    outer loop
      vertex 19.765 10.1 1.97
      vertex 20.2594 10.0217 1.97
      vertex 21.415 11.3579 1.97
    endloop
  endfacet
  facet normal 0.07845 0.996918 0
    outer loop
      vertex 19.765 13.78 1.97
      vertex 19.765 13.78 4.67
      vertex 20.591 13.715 1.97
    endloop
  endfacet
  facet normal 0.07845 0.996918 -0
    outer loop
      vertex 19.765 13.78 4.67
      vertex 20.591 13.715 4.67
      vertex 20.591 13.715 1.97
    endloop
  endfacet
  facet normal 0 0 1
    outer loop
      vertex 19.765 13.78 4.67
      vertex 21.415 11.3579 4.67
      vertex 20.591 13.715 4.67
    endloop
  endfacet
  facet normal 0.07845 -0.996918 0
    outer loop
      vertex 19.765 3.22 1.97
      vertex 20.591 3.285 1.97
      vertex 20.591 3.285 4.67
    endloop
  endfacet
  facet normal 0.07845 -0.996918 0
    outer loop
      vertex 19.765 3.22 1.97
      vertex 20.591 3.285 4.67
      vertex 19.765 3.22 4.67
    endloop
  endfacet
  facet normal 0 0 1
    outer loop
      vertex 19.765 3.22 4.67
      vertex 20.591 3.285 4.67
      vertex 21.415 5.64212 4.67
    endloop
  endfacet
  facet normal -0.156444 0.987687 0
    outer loop
      vertex 19.765 6.9 0
      vertex 19.765 6.9 1.97
      vertex 20.2594 6.97831 0
    endloop
  endfacet
  facet normal -0.156444 0.987687 0
    outer loop
      vertex 19.765 6.9 1.97
      vertex 20.2594 6.97831 1.97
      vertex 20.2594 6.97831 0
    endloop
  endfacet
  facet normal -0 0 1
    outer loop
      vertex 19.765 6.9 1.97
      vertex 21.415 5.64212 1.97
      vertex 20.2594 6.97831 1.97
    endloop
  endfacet
  facet normal 0.866025 0.500001 0
    outer loop
      vertex 2.3 8.5 1.97
      vertex 2.3 8.5 4.67
      vertex 3.95 5.64212 4.67
    endloop
  endfacet
  facet normal 0.866027 -0.499998 0
    outer loop
      vertex 2.3 8.5 1.97
      vertex 3.95 11.3579 1.97
      vertex 2.3 8.5 4.67
    endloop
  endfacet
  facet normal 0 0 1
    outer loop
      vertex 2.3 8.5 1.97
      vertex 3.95 5.64212 1.97
      vertex 4.30557 7.55954 1.97
    endloop
  endfacet
  facet normal 0.866025 0.500001 0
    outer loop
      vertex 2.3 8.5 1.97
      vertex 3.95 5.64212 4.67
      vertex 3.95 5.64212 1.97
    endloop
  endfacet
  facet normal 0 0 1
    outer loop
      vertex 2.3 8.5 1.97
      vertex 4 8.5 1.97
      vertex 4.07831 8.99443 1.97
    endloop
  endfacet
  facet normal -0 0 1
    outer loop
      vertex 2.3 8.5 1.97
      vertex 4.07831 8.00557 1.97
      vertex 4 8.5 1.97
    endloop
  endfacet
  facet normal 0 0 1
    outer loop
      vertex 2.3 8.5 1.97
      vertex 4.07831 8.99443 1.97
      vertex 4.30557 9.44046 1.97
    endloop
  endfacet
  facet normal 0 0 1
    outer loop
      vertex 2.3 8.5 1.97
      vertex 4.30557 7.55954 1.97
      vertex 4.07831 8.00557 1.97
    endloop
  endfacet
  facet normal 0 0 1
    outer loop
      vertex 2.3 8.5 1.97
      vertex 4.30557 9.44046 1.97
      vertex 3.95 11.3579 1.97
    endloop
  endfacet
  facet normal 0.866027 -0.499998 0
    outer loop
      vertex 2.3 8.5 4.67
      vertex 3.95 11.3579 1.97
      vertex 3.95 11.3579 4.67
    endloop
  endfacet
  facet normal -0.522492 0.852644 0
    outer loop
      vertex 2.49649 12.7716 1.97
      vertex 2.49649 12.7716 4.67
      vertex 3.20293 13.2045 1.97
    endloop
  endfacet
  facet normal -0.522492 0.852644 0
    outer loop
      vertex 2.49649 12.7716 4.67
      vertex 3.20293 13.2045 4.67
      vertex 3.20293 13.2045 1.97
    endloop
  endfacet
  facet normal -0 0 1
    outer loop
      vertex 2.49649 12.7716 4.67
      vertex 3.95 11.3579 4.67
      vertex 3.20293 13.2045 4.67
    endloop
  endfacet
  facet normal -0.522492 -0.852644 -0
    outer loop
      vertex 2.49649 4.22839 1.97
      vertex 3.20293 3.79549 1.97
      vertex 3.20293 3.79549 4.67
    endloop
  endfacet
  facet normal -0.522492 -0.852644 0
    outer loop
      vertex 2.49649 4.22839 1.97
      vertex 3.20293 3.79549 4.67
      vertex 2.49649 4.22839 4.67
    endloop
  endfacet
  facet normal 0 0 1
    outer loop
      vertex 2.49649 4.22839 4.67
      vertex 3.20293 3.79549 4.67
      vertex 3.95 5.64212 4.67
    endloop
  endfacet
  facet normal -0.453944 -0.89103 -0
    outer loop
      vertex 20.2594 10.0217 0
      vertex 20.7055 9.79443 0
      vertex 20.7055 9.79443 1.97
    endloop
  endfacet
  facet normal -0.453944 -0.89103 0
    outer loop
      vertex 20.2594 10.0217 0
      vertex 20.7055 9.79443 1.97
      vertex 20.2594 10.0217 1.97
    endloop
  endfacet
  facet normal 0 0 1
    outer loop
      vertex 20.2594 10.0217 1.97
      vertex 20.7055 9.79443 1.97
      vertex 21.415 11.3579 1.97
    endloop
  endfacet
  facet normal -0.453928 0.891038 0
    outer loop
      vertex 20.2594 6.97831 0
      vertex 20.2594 6.97831 1.97
      vertex 20.7055 7.20557 0
    endloop
  endfacet
  facet normal -0.453928 0.891038 0
    outer loop
      vertex 20.2594 6.97831 1.97
      vertex 20.7055 7.20557 1.97
      vertex 20.7055 7.20557 0
    endloop
  endfacet
  facet normal -0 0 1
    outer loop
      vertex 20.2594 6.97831 1.97
      vertex 21.415 5.64212 1.97
      vertex 20.7055 7.20557 1.97
    endloop
  endfacet
  facet normal 0.233437 0.972372 0
    outer loop
      vertex 20.591 13.715 1.97
      vertex 20.591 13.715 4.67
      vertex 21.3966 13.5216 1.97
    endloop
  endfacet
  facet normal 0.233437 0.972372 -0
    outer loop
      vertex 20.591 13.715 4.67
      vertex 21.3966 13.5216 4.67
      vertex 21.3966 13.5216 1.97
    endloop
  endfacet
  facet normal 0 0 1
    outer loop
      vertex 20.591 13.715 4.67
      vertex 21.415 11.3579 4.67
      vertex 21.3966 13.5216 4.67
    endloop
  endfacet
  facet normal 0.23346 -0.972366 0
    outer loop
      vertex 20.591 3.285 1.97
      vertex 21.3966 3.47842 1.97
      vertex 21.3966 3.47842 4.67
    endloop
  endfacet
  facet normal 0.23346 -0.972366 0
    outer loop
      vertex 20.591 3.285 1.97
      vertex 21.3966 3.47842 4.67
      vertex 20.591 3.285 4.67
    endloop
  endfacet
  facet normal 0 0 1
    outer loop
      vertex 20.591 3.285 4.67
      vertex 21.3966 3.47842 4.67
      vertex 21.415 5.64212 4.67
    endloop
  endfacet
  facet normal -0.707177 0.707037 0
    outer loop
      vertex 20.7055 7.20557 0
      vertex 20.7055 7.20557 1.97
      vertex 21.0594 7.55954 1.97
    endloop
  endfacet
  facet normal 0 0 -1
    outer loop
      vertex 20.7055 7.20557 0
      vertex 21.0594 7.55954 0
      vertex 31.0589 -2.71482 0
    endloop
  endfacet
  facet normal -0.707177 0.707037 0
    outer loop
      vertex 20.7055 7.20557 0
      vertex 21.0594 7.55954 1.97
      vertex 21.0594 7.55954 0
    endloop
  endfacet
  facet normal -0 0 1
    outer loop
      vertex 20.7055 7.20557 1.97
      vertex 21.415 5.64212 1.97
      vertex 21.0594 7.55954 1.97
    endloop
  endfacet
  facet normal -0.707177 -0.707037 0
    outer loop
      vertex 20.7055 9.79443 0
      vertex 21.0594 9.44046 0
      vertex 20.7055 9.79443 1.97
    endloop
  endfacet
  facet normal 0 0 -1
    outer loop
      vertex 20.7055 9.79443 0
      vertex 26.6348 18.7739 0
      vertex 21.0594 9.44046 0
    endloop
  endfacet
  facet normal -0.707177 -0.707037 0
    outer loop
      vertex 20.7055 9.79443 1.97
      vertex 21.0594 9.44046 0
      vertex 21.0594 9.44046 1.97
    endloop
  endfacet
  facet normal 0 0 1
    outer loop
      vertex 20.7055 9.79443 1.97
      vertex 21.0594 9.44046 1.97
      vertex 21.415 11.3579 1.97
    endloop
  endfacet
  facet normal -0.890977 0.454048 0
    outer loop
      vertex 21.0594 7.55954 0
      vertex 21.0594 7.55954 1.97
      vertex 21.2867 8.00557 1.97
    endloop
  endfacet
  facet normal 0 0 -1
    outer loop
      vertex 21.0594 7.55954 0
      vertex 21.2867 8.00557 0
      vertex 31.0589 -2.71482 0
    endloop
  endfacet
  facet normal -0.890977 0.454048 0
    outer loop
      vertex 21.0594 7.55954 0
      vertex 21.2867 8.00557 1.97
      vertex 21.2867 8.00557 0
    endloop
  endfacet
  facet normal 0 0 1
    outer loop
      vertex 21.0594 7.55954 1.97
      vertex 21.415 5.64212 1.97
      vertex 23.065 8.5 1.97
    endloop
  endfacet
  facet normal 0 0 1
    outer loop
      vertex 21.0594 7.55954 1.97
      vertex 23.065 8.5 1.97
      vertex 21.2867 8.00557 1.97
    endloop
  endfacet
  facet normal -0.890977 -0.454048 0
    outer loop
      vertex 21.0594 9.44046 0
      vertex 21.2867 8.99443 0
      vertex 21.0594 9.44046 1.97
    endloop
  endfacet
  facet normal 0 0 -1
    outer loop
      vertex 21.0594 9.44046 0
      vertex 26.6348 18.7739 0
      vertex 21.2867 8.99443 0
    endloop
  endfacet
  facet normal -0.890977 -0.454048 0
    outer loop
      vertex 21.0594 9.44046 1.97
      vertex 21.2867 8.99443 0
      vertex 21.2867 8.99443 1.97
    endloop
  endfacet
  facet normal 0 0 1
    outer loop
      vertex 21.0594 9.44046 1.97
      vertex 21.2867 8.99443 1.97
      vertex 23.065 8.5 1.97
    endloop
  endfacet
  facet normal -0 0 1
    outer loop
      vertex 21.0594 9.44046 1.97
      vertex 23.065 8.5 1.97
      vertex 21.415 11.3579 1.97
    endloop
  endfacet
  facet normal -0.987691 0.156415 0
    outer loop
      vertex 21.2867 8.00557 0
      vertex 21.2867 8.00557 1.97
      vertex 21.365 8.5 1.97
    endloop
  endfacet
  facet normal 0 0 -1
    outer loop
      vertex 21.2867 8.00557 0
      vertex 21.365 8.5 0
      vertex 31.0589 -2.71482 0
    endloop
  endfacet
  facet normal -0.987691 0.156415 0
    outer loop
      vertex 21.2867 8.00557 0
      vertex 21.365 8.5 1.97
      vertex 21.365 8.5 0
    endloop
  endfacet
  facet normal 0 0 1
    outer loop
      vertex 21.2867 8.00557 1.97
      vertex 23.065 8.5 1.97
      vertex 21.365 8.5 1.97
    endloop
  endfacet
  facet normal -0.987691 -0.156415 0
    outer loop
      vertex 21.2867 8.99443 0
      vertex 21.365 8.5 0
      vertex 21.2867 8.99443 1.97
    endloop
  endfacet
  facet normal 0 0 -1
    outer loop
      vertex 21.2867 8.99443 0
      vertex 26.6348 18.7739 0
      vertex 21.365 8.5 0
    endloop
  endfacet
  facet normal -0.987691 -0.156415 0
    outer loop
      vertex 21.2867 8.99443 1.97
      vertex 21.365 8.5 0
      vertex 21.365 8.5 1.97
    endloop
  endfacet
  facet normal 0 0 1
    outer loop
      vertex 21.2867 8.99443 1.97
      vertex 21.365 8.5 1.97
      vertex 23.065 8.5 1.97
    endloop
  endfacet
  facet normal 0 0 -1
    outer loop
      vertex 21.365 8.5 0
      vertex 26.6348 18.7739 0
      vertex 31.0589 -2.71482 0
    endloop
  endfacet
  facet normal 0.382704 0.923871 0
    outer loop
      vertex 21.3966 13.5216 1.97
      vertex 21.3966 13.5216 4.67
      vertex 22.1621 13.2045 1.97
    endloop
  endfacet
  facet normal 0 0 1
    outer loop
      vertex 21.3966 13.5216 1.97
      vertex 22.1621 13.2045 1.97
      vertex 26.6348 18.7739 1.97
    endloop
  endfacet
  facet normal 0 0 1
    outer loop
      vertex 21.3966 13.5216 4.67
      vertex 21.415 11.3579 4.67
      vertex 22.1621 13.2045 4.67
    endloop
  endfacet
  facet normal 0.382704 0.923871 -0
    outer loop
      vertex 21.3966 13.5216 4.67
      vertex 22.1621 13.2045 4.67
      vertex 22.1621 13.2045 1.97
    endloop
  endfacet
  facet normal 0.382673 -0.923884 0
    outer loop
      vertex 21.3966 3.47842 1.97
      vertex 22.1621 3.79549 1.97
      vertex 22.1621 3.79549 4.67
    endloop
  endfacet
  facet normal 0.382673 -0.923884 0
    outer loop
      vertex 21.3966 3.47842 1.97
      vertex 22.1621 3.79549 4.67
      vertex 21.3966 3.47842 4.67
    endloop
  endfacet
  facet normal 0 0 1
    outer loop
      vertex 21.3966 3.47842 4.67
      vertex 22.1621 3.79549 4.67
      vertex 21.415 5.64212 4.67
    endloop
  endfacet
  facet normal -0.866027 -0.499998 0
    outer loop
      vertex 21.415 11.3579 1.97
      vertex 23.065 8.5 1.97
      vertex 21.415 11.3579 4.67
    endloop
  endfacet
  facet normal 0 0 1
    outer loop
      vertex 21.415 11.3579 4.67
      vertex 22.8685 12.7716 4.67
      vertex 22.1621 13.2045 4.67
    endloop
  endfacet
  facet normal -0.866027 -0.499998 0
    outer loop
      vertex 21.415 11.3579 4.67
      vertex 23.065 8.5 1.97
      vertex 23.065 8.5 4.67
    endloop
  endfacet
  facet normal 0 0 1
    outer loop
      vertex 21.415 11.3579 4.67
      vertex 23.065 8.5 4.67
      vertex 24.4695 10.8971 4.67
    endloop
  endfacet
  facet normal 0 0 1
    outer loop
      vertex 21.415 11.3579 4.67
      vertex 23.4985 12.2335 4.67
      vertex 22.8685 12.7716 4.67
    endloop
  endfacet
  facet normal 0 0 1
    outer loop
      vertex 21.415 11.3579 4.67
      vertex 24.0366 11.6035 4.67
      vertex 23.4985 12.2335 4.67
    endloop
  endfacet
  facet normal -0 0 1
    outer loop
      vertex 21.415 11.3579 4.67
      vertex 24.4695 10.8971 4.67
      vertex 24.0366 11.6035 4.67
    endloop
  endfacet
  facet normal -0.866025 0.500001 0
    outer loop
      vertex 21.415 5.64212 1.97
      vertex 21.415 5.64212 4.67
      vertex 23.065 8.5 4.67
    endloop
  endfacet
  facet normal -0.866025 0.500001 0
    outer loop
      vertex 21.415 5.64212 1.97
      vertex 23.065 8.5 4.67
      vertex 23.065 8.5 1.97
    endloop
  endfacet
  facet normal 0 0 1
    outer loop
      vertex 21.415 5.64212 4.67
      vertex 22.1621 3.79549 4.67
      vertex 22.8685 4.22839 4.67
    endloop
  endfacet
  facet normal 0 0 1
    outer loop
      vertex 21.415 5.64212 4.67
      vertex 22.8685 4.22839 4.67
      vertex 23.4985 4.76648 4.67
    endloop
  endfacet
  facet normal 0 0 1
    outer loop
      vertex 21.415 5.64212 4.67
      vertex 23.4985 4.76648 4.67
      vertex 24.0366 5.39649 4.67
    endloop
  endfacet
  facet normal 0 0 1
    outer loop
      vertex 21.415 5.64212 4.67
      vertex 24.0366 5.39649 4.67
      vertex 24.4695 6.10293 4.67
    endloop
  endfacet
  facet normal 0 0 1
    outer loop
      vertex 21.415 5.64212 4.67
      vertex 24.4695 6.10293 4.67
      vertex 23.065 8.5 4.67
    endloop
  endfacet
  facet normal 0.522514 0.852631 0
    outer loop
      vertex 22.1621 13.2045 1.97
      vertex 22.1621 13.2045 4.67
      vertex 22.8685 12.7716 1.97
    endloop
  endfacet
  facet normal 0 0 1
    outer loop
      vertex 22.1621 13.2045 1.97
      vertex 22.8685 12.7716 1.97
      vertex 26.6348 18.7739 1.97
    endloop
  endfacet
  facet normal 0.522514 0.852631 -0
    outer loop
      vertex 22.1621 13.2045 4.67
      vertex 22.8685 12.7716 4.67
      vertex 22.8685 12.7716 1.97
    endloop
  endfacet
  facet normal 0.522514 -0.852631 0
    outer loop
      vertex 22.1621 3.79549 1.97
      vertex 22.8685 4.22839 1.97
      vertex 22.8685 4.22839 4.67
    endloop
  endfacet
  facet normal 0.522514 -0.852631 0
    outer loop
      vertex 22.1621 3.79549 1.97
      vertex 22.8685 4.22839 4.67
      vertex 22.1621 3.79549 4.67
    endloop
  endfacet
  facet normal -0 0 1
    outer loop
      vertex 22.1621 3.79549 1.97
      vertex 31.0589 -2.71482 1.97
      vertex 22.8685 4.22839 1.97
    endloop
  endfacet
  facet normal 0.649468 0.760389 0
    outer loop
      vertex 22.8685 12.7716 1.97
      vertex 22.8685 12.7716 4.67
      vertex 23.4985 12.2335 1.97
    endloop
  endfacet
  facet normal 0 0 1
    outer loop
      vertex 22.8685 12.7716 1.97
      vertex 23.4985 12.2335 1.97
      vertex 26.6348 18.7739 1.97
    endloop
  endfacet
  facet normal 0.649468 0.760389 -0
    outer loop
      vertex 22.8685 12.7716 4.67
      vertex 23.4985 12.2335 4.67
      vertex 23.4985 12.2335 1.97
    endloop
  endfacet
  facet normal 0.649461 -0.760395 0
    outer loop
      vertex 22.8685 4.22839 1.97
      vertex 23.4985 4.76648 1.97
      vertex 23.4985 4.76648 4.67
    endloop
  endfacet
  facet normal 0.649461 -0.760395 0
    outer loop
      vertex 22.8685 4.22839 1.97
      vertex 23.4985 4.76648 4.67
      vertex 22.8685 4.22839 4.67
    endloop
  endfacet
  facet normal -0 0 1
    outer loop
      vertex 22.8685 4.22839 1.97
      vertex 31.0589 -2.71482 1.97
      vertex 23.4985 4.76648 1.97
    endloop
  endfacet
  facet normal 0 0 1
    outer loop
      vertex 23.065 8.5 4.67
      vertex 24.4695 6.10293 4.67
      vertex 24.7866 6.86839 4.67
    endloop
  endfacet
  facet normal 0 0 1
    outer loop
      vertex 23.065 8.5 4.67
      vertex 24.7866 10.1316 4.67
      vertex 24.4695 10.8971 4.67
    endloop
  endfacet
  facet normal 0 0 1
    outer loop
      vertex 23.065 8.5 4.67
      vertex 24.7866 6.86839 4.67
      vertex 24.98 7.67403 4.67
    endloop
  endfacet
  facet normal 0 0 1
    outer loop
      vertex 23.065 8.5 4.67
      vertex 24.98 7.67403 4.67
      vertex 25.045 8.5 4.67
    endloop
  endfacet
  facet normal 0 0 1
    outer loop
      vertex 23.065 8.5 4.67
      vertex 24.98 9.32597 4.67
      vertex 24.7866 10.1316 4.67
    endloop
  endfacet
  facet normal 0 0 1
    outer loop
      vertex 23.065 8.5 4.67
      vertex 25.045 8.5 4.67
      vertex 24.98 9.32597 4.67
    endloop
  endfacet
  facet normal 0.760389 0.649468 0
    outer loop
      vertex 23.4985 12.2335 1.97
      vertex 23.4985 12.2335 4.67
      vertex 24.0366 11.6035 4.67
    endloop
  endfacet
  facet normal 0 0 1
    outer loop
      vertex 23.4985 12.2335 1.97
      vertex 24.0366 11.6035 1.97
      vertex 26.6348 18.7739 1.97
    endloop
  endfacet
  facet normal 0.760389 0.649468 0
    outer loop
      vertex 23.4985 12.2335 1.97
      vertex 24.0366 11.6035 4.67
      vertex 24.0366 11.6035 1.97
    endloop
  endfacet
  facet normal 0.760394 -0.649462 0
    outer loop
      vertex 23.4985 4.76648 1.97
      vertex 24.0366 5.39649 1.97
      vertex 23.4985 4.76648 4.67
    endloop
  endfacet
  facet normal -0 0 1
    outer loop
      vertex 23.4985 4.76648 1.97
      vertex 31.0589 -2.71482 1.97
      vertex 24.0366 5.39649 1.97
    endloop
  endfacet
  facet normal 0.760394 -0.649462 0
    outer loop
      vertex 23.4985 4.76648 4.67
      vertex 24.0366 5.39649 1.97
      vertex 24.0366 5.39649 4.67
    endloop
  endfacet
  facet normal 0.852631 0.522514 0
    outer loop
      vertex 24.0366 11.6035 1.97
      vertex 24.0366 11.6035 4.67
      vertex 24.4695 10.8971 4.67
    endloop
  endfacet
  facet normal 0 0 1
    outer loop
      vertex 24.0366 11.6035 1.97
      vertex 24.4695 10.8971 1.97
      vertex 26.6348 18.7739 1.97
    endloop
  endfacet
  facet normal 0.852631 0.522514 0
    outer loop
      vertex 24.0366 11.6035 1.97
      vertex 24.4695 10.8971 4.67
      vertex 24.4695 10.8971 1.97
    endloop
  endfacet
  facet normal 0.852644 -0.522492 0
    outer loop
      vertex 24.0366 5.39649 1.97
      vertex 24.4695 6.10293 1.97
      vertex 24.0366 5.39649 4.67
    endloop
  endfacet
  facet normal -0 0 1
    outer loop
      vertex 24.0366 5.39649 1.97
      vertex 31.0589 -2.71482 1.97
      vertex 24.4695 6.10293 1.97
    endloop
  endfacet
  facet normal 0.852644 -0.522492 0
    outer loop
      vertex 24.0366 5.39649 4.67
      vertex 24.4695 6.10293 1.97
      vertex 24.4695 6.10293 4.67
    endloop
  endfacet
  facet normal 0.923871 0.382704 0
    outer loop
      vertex 24.4695 10.8971 1.97
      vertex 24.4695 10.8971 4.67
      vertex 24.7866 10.1316 4.67
    endloop
  endfacet
  facet normal 0 0 1
    outer loop
      vertex 24.4695 10.8971 1.97
      vertex 24.7866 10.1316 1.97
      vertex 26.6348 18.7739 1.97
    endloop
  endfacet
  facet normal 0.923871 0.382704 0
    outer loop
      vertex 24.4695 10.8971 1.97
      vertex 24.7866 10.1316 4.67
      vertex 24.7866 10.1316 1.97
    endloop
  endfacet
  facet normal 0.923864 -0.382721 0
    outer loop
      vertex 24.4695 6.10293 1.97
      vertex 24.7866 6.86839 1.97
      vertex 24.4695 6.10293 4.67
    endloop
  endfacet
  facet normal -0 0 1
    outer loop
      vertex 24.4695 6.10293 1.97
      vertex 31.0589 -2.71482 1.97
      vertex 24.7866 6.86839 1.97
    endloop
  endfacet
  facet normal 0.923864 -0.382721 0
    outer loop
      vertex 24.4695 6.10293 4.67
      vertex 24.7866 6.86839 1.97
      vertex 24.7866 6.86839 4.67
    endloop
  endfacet
  facet normal 0.972374 0.233429 0
    outer loop
      vertex 24.7866 10.1316 1.97
      vertex 24.7866 10.1316 4.67
      vertex 24.98 9.32597 4.67
    endloop
  endfacet
  facet normal 0 0 1
    outer loop
      vertex 24.7866 10.1316 1.97
      vertex 24.98 9.32597 1.97
      vertex 26.6348 18.7739 1.97
    endloop
  endfacet
  facet normal 0.972374 0.233429 0
    outer loop
      vertex 24.7866 10.1316 1.97
      vertex 24.98 9.32597 4.67
      vertex 24.98 9.32597 1.97
    endloop
  endfacet
  facet normal 0.972375 -0.233426 0
    outer loop
      vertex 24.7866 6.86839 1.97
      vertex 24.98 7.67403 1.97
      vertex 24.7866 6.86839 4.67
    endloop
  endfacet
  facet normal -0 0 1
    outer loop
      vertex 24.7866 6.86839 1.97
      vertex 31.0589 -2.71482 1.97
      vertex 24.98 7.67403 1.97
    endloop
  endfacet
  facet normal 0.972375 -0.233426 0
    outer loop
      vertex 24.7866 6.86839 4.67
      vertex 24.98 7.67403 1.97
      vertex 24.98 7.67403 4.67
    endloop
  endfacet
  facet normal 0.996918 -0.0784528 0
    outer loop
      vertex 24.98 7.67403 1.97
      vertex 25.045 8.5 1.97
      vertex 24.98 7.67403 4.67
    endloop
  endfacet
  facet normal -0 0 1
    outer loop
      vertex 24.98 7.67403 1.97
      vertex 31.0589 -2.71482 1.97
      vertex 25.045 8.5 1.97
    endloop
  endfacet
  facet normal 0.996918 -0.0784528 0
    outer loop
      vertex 24.98 7.67403 4.67
      vertex 25.045 8.5 1.97
      vertex 25.045 8.5 4.67
    endloop
  endfacet
  facet normal 0.996918 0.0784528 0
    outer loop
      vertex 24.98 9.32597 1.97
      vertex 24.98 9.32597 4.67
      vertex 25.045 8.5 4.67
    endloop
  endfacet
  facet normal 0 0 1
    outer loop
      vertex 24.98 9.32597 1.97
      vertex 25.045 8.5 1.97
      vertex 31.0589 -2.71482 1.97
    endloop
  endfacet
  facet normal 0.996918 0.0784528 0
    outer loop
      vertex 24.98 9.32597 1.97
      vertex 25.045 8.5 4.67
      vertex 25.045 8.5 1.97
    endloop
  endfacet
  facet normal -0 0 1
    outer loop
      vertex 24.98 9.32597 1.97
      vertex 31.0589 -2.71482 1.97
      vertex 26.6348 18.7739 1.97
    endloop
  endfacet
  facet normal 0.979457 0.201651 0
    outer loop
      vertex 26.6348 18.7739 0
      vertex 26.6348 18.7739 1.97
      vertex 31.0589 -2.71482 1.97
    endloop
  endfacet
  facet normal 0.979457 0.201651 0
    outer loop
      vertex 26.6348 18.7739 0
      vertex 31.0589 -2.71482 1.97
      vertex 31.0589 -2.71482 0
    endloop
  endfacet
  facet normal -0.382721 0.923864 0
    outer loop
      vertex 3.20293 13.2045 1.97
      vertex 3.20293 13.2045 4.67
      vertex 3.96839 13.5216 1.97
    endloop
  endfacet
  facet normal -0 0 1
    outer loop
      vertex 3.20293 13.2045 4.67
      vertex 3.95 11.3579 4.67
      vertex 3.96839 13.5216 4.67
    endloop
  endfacet
  facet normal -0.382721 0.923864 0
    outer loop
      vertex 3.20293 13.2045 4.67
      vertex 3.96839 13.5216 4.67
      vertex 3.96839 13.5216 1.97
    endloop
  endfacet
  facet normal -0.38269 -0.923877 -0
    outer loop
      vertex 3.20293 3.79549 1.97
      vertex 3.96839 3.47842 1.97
      vertex 3.96839 3.47842 4.67
    endloop
  endfacet
  facet normal -0.38269 -0.923877 0
    outer loop
      vertex 3.20293 3.79549 1.97
      vertex 3.96839 3.47842 4.67
      vertex 3.20293 3.79549 4.67
    endloop
  endfacet
  facet normal 0 0 1
    outer loop
      vertex 3.20293 3.79549 4.67
      vertex 3.96839 3.47842 4.67
      vertex 3.95 5.64212 4.67
    endloop
  endfacet
  facet normal 0 0 1
    outer loop
      vertex 3.95 11.3579 1.97
      vertex 4.30557 9.44046 1.97
      vertex 4.65954 9.79443 1.97
    endloop
  endfacet
  facet normal 0 0 1
    outer loop
      vertex 3.95 11.3579 1.97
      vertex 4.65954 9.79443 1.97
      vertex 5.10557 10.0217 1.97
    endloop
  endfacet
  facet normal 0 0 1
    outer loop
      vertex 3.95 11.3579 1.97
      vertex 5.10557 10.0217 1.97
      vertex 5.6 10.1 1.97
    endloop
  endfacet
  facet normal -0 0 1
    outer loop
      vertex 3.95 11.3579 1.97
      vertex 5.6 10.1 1.97
      vertex 7.25 11.3579 1.97
    endloop
  endfacet
  facet normal 0 -1 -0
    outer loop
      vertex 3.95 11.3579 1.97
      vertex 7.25 11.3579 1.97
      vertex 7.25 11.3579 4.67
    endloop
  endfacet
  facet normal 0 -1 0
    outer loop
      vertex 3.95 11.3579 1.97
      vertex 7.25 11.3579 4.67
      vertex 3.95 11.3579 4.67
    endloop
  endfacet
  facet normal 0 0 1
    outer loop
      vertex 3.95 11.3579 4.67
      vertex 4.77403 13.715 4.67
      vertex 3.96839 13.5216 4.67
    endloop
  endfacet
  facet normal 0 0 1
    outer loop
      vertex 3.95 11.3579 4.67
      vertex 5.6 13.78 4.67
      vertex 4.77403 13.715 4.67
    endloop
  endfacet
  facet normal 0 0 1
    outer loop
      vertex 3.95 11.3579 4.67
      vertex 7.25 11.3579 4.67
      vertex 5.6 13.78 4.67
    endloop
  endfacet
  facet normal 0 1 0
    outer loop
      vertex 3.95 5.64212 1.97
      vertex 3.95 5.64212 4.67
      vertex 7.25 5.64212 1.97
    endloop
  endfacet
  facet normal 0 0 1
    outer loop
      vertex 3.95 5.64212 1.97
      vertex 4.65954 7.20557 1.97
      vertex 4.30557 7.55954 1.97
    endloop
  endfacet
  facet normal 0 0 1
    outer loop
      vertex 3.95 5.64212 1.97
      vertex 5.10557 6.97831 1.97
      vertex 4.65954 7.20557 1.97
    endloop
  endfacet
  facet normal 0 0 1
    outer loop
      vertex 3.95 5.64212 1.97
      vertex 5.6 6.9 1.97
      vertex 5.10557 6.97831 1.97
    endloop
  endfacet
  facet normal 0 0 1
    outer loop
      vertex 3.95 5.64212 1.97
      vertex 7.25 5.64212 1.97
      vertex 5.6 6.9 1.97
    endloop
  endfacet
  facet normal 0 0 1
    outer loop
      vertex 3.95 5.64212 4.67
      vertex 3.96839 3.47842 4.67
      vertex 4.77403 3.285 4.67
    endloop
  endfacet
  facet normal 0 0 1
    outer loop
      vertex 3.95 5.64212 4.67
      vertex 4.77403 3.285 4.67
      vertex 5.6 3.22 4.67
    endloop
  endfacet
  facet normal -0 0 1
    outer loop
      vertex 3.95 5.64212 4.67
      vertex 5.6 3.22 4.67
      vertex 7.25 5.64212 4.67
    endloop
  endfacet
  facet normal 0 1 -0
    outer loop
      vertex 3.95 5.64212 4.67
      vertex 7.25 5.64212 4.67
      vertex 7.25 5.64212 1.97
    endloop
  endfacet
  facet normal -0.233426 0.972375 0
    outer loop
      vertex 3.96839 13.5216 1.97
      vertex 3.96839 13.5216 4.67
      vertex 4.77403 13.715 1.97
    endloop
  endfacet
  facet normal -0.233426 0.972375 0
    outer loop
      vertex 3.96839 13.5216 4.67
      vertex 4.77403 13.715 4.67
      vertex 4.77403 13.715 1.97
    endloop
  endfacet
  facet normal -0.233449 -0.972369 -0
    outer loop
      vertex 3.96839 3.47842 1.97
      vertex 4.77403 3.285 1.97
      vertex 4.77403 3.285 4.67
    endloop
  endfacet
  facet normal -0.233449 -0.972369 0
    outer loop
      vertex 3.96839 3.47842 1.97
      vertex 4.77403 3.285 4.67
      vertex 3.96839 3.47842 4.67
    endloop
  endfacet
  facet normal 0.987688 0.156434 0
    outer loop
      vertex 4 8.5 0
      vertex 4 8.5 1.97
      vertex 4.07831 8.00557 1.97
    endloop
  endfacet
  facet normal 0.987688 0.156434 0
    outer loop
      vertex 4 8.5 0
      vertex 4.07831 8.00557 1.97
      vertex 4.07831 8.00557 0
    endloop
  endfacet
  facet normal 0.987688 -0.156434 0
    outer loop
      vertex 4 8.5 0
      vertex 4.07831 8.99443 0
      vertex 4 8.5 1.97
    endloop
  endfacet
  facet normal 0.987688 -0.156434 0
    outer loop
      vertex 4 8.5 1.97
      vertex 4.07831 8.99443 0
      vertex 4.07831 8.99443 1.97
    endloop
  endfacet
  facet normal 0.891009 0.453985 0
    outer loop
      vertex 4.07831 8.00557 0
      vertex 4.07831 8.00557 1.97
      vertex 4.30557 7.55954 1.97
    endloop
  endfacet
  facet normal 0.891009 0.453985 0
    outer loop
      vertex 4.07831 8.00557 0
      vertex 4.30557 7.55954 1.97
      vertex 4.30557 7.55954 0
    endloop
  endfacet
  facet normal 0.891009 -0.453985 0
    outer loop
      vertex 4.07831 8.99443 0
      vertex 4.30557 9.44046 0
      vertex 4.07831 8.99443 1.97
    endloop
  endfacet
  facet normal 0.891009 -0.453985 0
    outer loop
      vertex 4.07831 8.99443 1.97
      vertex 4.30557 9.44046 0
      vertex 4.30557 9.44046 1.97
    endloop
  endfacet
  facet normal 0.707107 0.707107 0
    outer loop
      vertex 4.30557 7.55954 0
      vertex 4.30557 7.55954 1.97
      vertex 4.65954 7.20557 1.97
    endloop
  endfacet
  facet normal 0.707107 0.707107 0
    outer loop
      vertex 4.30557 7.55954 0
      vertex 4.65954 7.20557 1.97
      vertex 4.65954 7.20557 0
    endloop
  endfacet
  facet normal 0.707107 -0.707107 0
    outer loop
      vertex 4.30557 9.44046 0
      vertex 4.65954 9.79443 0
      vertex 4.30557 9.44046 1.97
    endloop
  endfacet
  facet normal 0.707107 -0.707107 0
    outer loop
      vertex 4.30557 9.44046 1.97
      vertex 4.65954 9.79443 0
      vertex 4.65954 9.79443 1.97
    endloop
  endfacet
  facet normal 0.453985 0.891009 0
    outer loop
      vertex 4.65954 7.20557 0
      vertex 4.65954 7.20557 1.97
      vertex 5.10557 6.97831 0
    endloop
  endfacet
  facet normal 0.453985 0.891009 -0
    outer loop
      vertex 4.65954 7.20557 1.97
      vertex 5.10557 6.97831 1.97
      vertex 5.10557 6.97831 0
    endloop
  endfacet
  facet normal 0.454001 -0.891001 0
    outer loop
      vertex 4.65954 9.79443 0
      vertex 5.10557 10.0217 0
      vertex 5.10557 10.0217 1.97
    endloop
  endfacet
  facet normal 0.454001 -0.891001 0
    outer loop
      vertex 4.65954 9.79443 0
      vertex 5.10557 10.0217 1.97
      vertex 4.65954 9.79443 1.97
    endloop
  endfacet
  facet normal -0.0784528 0.996918 0
    outer loop
      vertex 4.77403 13.715 1.97
      vertex 4.77403 13.715 4.67
      vertex 5.6 13.78 1.97
    endloop
  endfacet
  facet normal -0.0784528 0.996918 0
    outer loop
      vertex 4.77403 13.715 4.67
      vertex 5.6 13.78 4.67
      vertex 5.6 13.78 1.97
    endloop
  endfacet
  facet normal -0.0784528 -0.996918 -0
    outer loop
      vertex 4.77403 3.285 1.97
      vertex 5.6 3.22 1.97
      vertex 5.6 3.22 4.67
    endloop
  endfacet
  facet normal -0.0784528 -0.996918 0
    outer loop
      vertex 4.77403 3.285 1.97
      vertex 5.6 3.22 4.67
      vertex 4.77403 3.285 4.67
    endloop
  endfacet
  facet normal 0.156415 -0.987691 0
    outer loop
      vertex 5.10557 10.0217 0
      vertex 5.6 10.1 0
      vertex 5.6 10.1 1.97
    endloop
  endfacet
  facet normal 0.156415 -0.987691 0
    outer loop
      vertex 5.10557 10.0217 0
      vertex 5.6 10.1 1.97
      vertex 5.10557 10.0217 1.97
    endloop
  endfacet
  facet normal 0.156434 0.987688 0
    outer loop
      vertex 5.10557 6.97831 0
      vertex 5.10557 6.97831 1.97
      vertex 5.6 6.9 0
    endloop
  endfacet
  facet normal 0.156434 0.987688 -0
    outer loop
      vertex 5.10557 6.97831 1.97
      vertex 5.6 6.9 1.97
      vertex 5.6 6.9 0
    endloop
  endfacet
  facet normal -0.156415 -0.987691 -0
    outer loop
      vertex 5.6 10.1 0
      vertex 6.09443 10.0217 0
      vertex 6.09443 10.0217 1.97
    endloop
  endfacet
  facet normal -0.156415 -0.987691 0
    outer loop
      vertex 5.6 10.1 0
      vertex 6.09443 10.0217 1.97
      vertex 5.6 10.1 1.97
    endloop
  endfacet
  facet normal 0 0 1
    outer loop
      vertex 5.6 10.1 1.97
      vertex 6.09443 10.0217 1.97
      vertex 7.25 11.3579 1.97
    endloop
  endfacet
  facet normal 0.0784528 0.996918 0
    outer loop
      vertex 5.6 13.78 1.97
      vertex 5.6 13.78 4.67
      vertex 6.42597 13.715 1.97
    endloop
  endfacet
  facet normal 0.0784528 0.996918 -0
    outer loop
      vertex 5.6 13.78 4.67
      vertex 6.42597 13.715 4.67
      vertex 6.42597 13.715 1.97
    endloop
  endfacet
  facet normal 0 0 1
    outer loop
      vertex 5.6 13.78 4.67
      vertex 7.25 11.3579 4.67
      vertex 6.42597 13.715 4.67
    endloop
  endfacet
  facet normal 0.0784528 -0.996918 0
    outer loop
      vertex 5.6 3.22 1.97
      vertex 6.42597 3.285 1.97
      vertex 6.42597 3.285 4.67
    endloop
  endfacet
  facet normal 0.0784528 -0.996918 0
    outer loop
      vertex 5.6 3.22 1.97
      vertex 6.42597 3.285 4.67
      vertex 5.6 3.22 4.67
    endloop
  endfacet
  facet normal 0 0 1
    outer loop
      vertex 5.6 3.22 4.67
      vertex 6.42597 3.285 4.67
      vertex 7.25 5.64212 4.67
    endloop
  endfacet
  facet normal -0.156434 0.987688 0
    outer loop
      vertex 5.6 6.9 0
      vertex 5.6 6.9 1.97
      vertex 6.09443 6.97831 0
    endloop
  endfacet
  facet normal -0.156434 0.987688 0
    outer loop
      vertex 5.6 6.9 1.97
      vertex 6.09443 6.97831 1.97
      vertex 6.09443 6.97831 0
    endloop
  endfacet
  facet normal -0 0 1
    outer loop
      vertex 5.6 6.9 1.97
      vertex 7.25 5.64212 1.97
      vertex 6.09443 6.97831 1.97
    endloop
  endfacet
  facet normal 0 0 -1
    outer loop
      vertex 6.09443 10.0217 0
      vertex 18.2938 17 0
      vertex 6.54046 9.79443 0
    endloop
  endfacet
  facet normal -0.454001 -0.891001 -0
    outer loop
      vertex 6.09443 10.0217 0
      vertex 6.54046 9.79443 0
      vertex 6.54046 9.79443 1.97
    endloop
  endfacet
  facet normal -0.454001 -0.891001 0
    outer loop
      vertex 6.09443 10.0217 0
      vertex 6.54046 9.79443 1.97
      vertex 6.09443 10.0217 1.97
    endloop
  endfacet
  facet normal 0 0 1
    outer loop
      vertex 6.09443 10.0217 1.97
      vertex 6.54046 9.79443 1.97
      vertex 7.25 11.3579 1.97
    endloop
  endfacet
  facet normal -0.453985 0.891009 0
    outer loop
      vertex 6.09443 6.97831 0
      vertex 6.09443 6.97831 1.97
      vertex 6.54046 7.20557 0
    endloop
  endfacet
  facet normal 0 0 -1
    outer loop
      vertex 6.09443 6.97831 0
      vertex 6.54046 7.20557 0
      vertex 18.2938 0 0
    endloop
  endfacet
  facet normal -0.453985 0.891009 0
    outer loop
      vertex 6.09443 6.97831 1.97
      vertex 6.54046 7.20557 1.97
      vertex 6.54046 7.20557 0
    endloop
  endfacet
  facet normal -0 0 1
    outer loop
      vertex 6.09443 6.97831 1.97
      vertex 7.25 5.64212 1.97
      vertex 6.54046 7.20557 1.97
    endloop
  endfacet
  facet normal 0.233426 0.972375 0
    outer loop
      vertex 6.42597 13.715 1.97
      vertex 6.42597 13.715 4.67
      vertex 7.23161 13.5216 1.97
    endloop
  endfacet
  facet normal 0 0 1
    outer loop
      vertex 6.42597 13.715 1.97
      vertex 7.23161 13.5216 1.97
      vertex 18.2938 17 1.97
    endloop
  endfacet
  facet normal 0.233426 0.972375 -0
    outer loop
      vertex 6.42597 13.715 4.67
      vertex 7.23161 13.5216 4.67
      vertex 7.23161 13.5216 1.97
    endloop
  endfacet
  facet normal 0 0 1
    outer loop
      vertex 6.42597 13.715 4.67
      vertex 7.25 11.3579 4.67
      vertex 7.23161 13.5216 4.67
    endloop
  endfacet
  facet normal -0 0 1
    outer loop
      vertex 6.42597 3.285 1.97
      vertex 18.2938 0 1.97
      vertex 7.23161 3.47842 1.97
    endloop
  endfacet
  facet normal 0.233449 -0.972369 0
    outer loop
      vertex 6.42597 3.285 1.97
      vertex 7.23161 3.47842 1.97
      vertex 7.23161 3.47842 4.67
    endloop
  endfacet
  facet normal 0.233449 -0.972369 0
    outer loop
      vertex 6.42597 3.285 1.97
      vertex 7.23161 3.47842 4.67
      vertex 6.42597 3.285 4.67
    endloop
  endfacet
  facet normal 0 0 1
    outer loop
      vertex 6.42597 3.285 4.67
      vertex 7.23161 3.47842 4.67
      vertex 7.25 5.64212 4.67
    endloop
  endfacet
  facet normal -0.707107 0.707107 0
    outer loop
      vertex 6.54046 7.20557 0
      vertex 6.54046 7.20557 1.97
      vertex 6.89443 7.55954 1.97
    endloop
  endfacet
  facet normal 0 0 -1
    outer loop
      vertex 6.54046 7.20557 0
      vertex 6.89443 7.55954 0
      vertex 18.2938 0 0
    endloop
  endfacet
  facet normal -0.707107 0.707107 0
    outer loop
      vertex 6.54046 7.20557 0
      vertex 6.89443 7.55954 1.97
      vertex 6.89443 7.55954 0
    endloop
  endfacet
  facet normal -0 0 1
    outer loop
      vertex 6.54046 7.20557 1.97
      vertex 7.25 5.64212 1.97
      vertex 6.89443 7.55954 1.97
    endloop
  endfacet
  facet normal 0 0 -1
    outer loop
      vertex 6.54046 9.79443 0
      vertex 18.2938 17 0
      vertex 6.89443 9.44046 0
    endloop
  endfacet
  facet normal -0.707107 -0.707107 0
    outer loop
      vertex 6.54046 9.79443 0
      vertex 6.89443 9.44046 0
      vertex 6.54046 9.79443 1.97
    endloop
  endfacet
  facet normal -0.707107 -0.707107 0
    outer loop
      vertex 6.54046 9.79443 1.97
      vertex 6.89443 9.44046 0
      vertex 6.89443 9.44046 1.97
    endloop
  endfacet
  facet normal 0 0 1
    outer loop
      vertex 6.54046 9.79443 1.97
      vertex 6.89443 9.44046 1.97
      vertex 7.25 11.3579 1.97
    endloop
  endfacet
  facet normal 0 0 -1
    outer loop
      vertex 6.89443 7.55954 0
      vertex 18.2433 8.00557 0
      vertex 18.4706 7.55954 0
    endloop
  endfacet
  facet normal 0 0 -1
    outer loop
      vertex 6.89443 7.55954 0
      vertex 18.4706 7.55954 0
      vertex 18.2938 0 0
    endloop
  endfacet
  facet normal -0.891009 0.453985 0
    outer loop
      vertex 6.89443 7.55954 0
      vertex 6.89443 7.55954 1.97
      vertex 7.12169 8.00557 1.97
    endloop
  endfacet
  facet normal 0 -0 -1
    outer loop
      vertex 6.89443 7.55954 0
      vertex 7.12169 8.00557 0
      vertex 18.2433 8.00557 0
    endloop
  endfacet
  facet normal -0.891009 0.453985 0
    outer loop
      vertex 6.89443 7.55954 0
      vertex 7.12169 8.00557 1.97
      vertex 7.12169 8.00557 0
    endloop
  endfacet
  facet normal 0 0 1
    outer loop
      vertex 6.89443 7.55954 1.97
      vertex 7.25 5.64212 1.97
      vertex 8.9 8.5 1.97
    endloop
  endfacet
  facet normal 0 0 1
    outer loop
      vertex 6.89443 7.55954 1.97
      vertex 8.9 8.5 1.97
      vertex 7.12169 8.00557 1.97
    endloop
  endfacet
  facet normal 0 0 -1
    outer loop
      vertex 6.89443 9.44046 0
      vertex 18.2433 8.99443 0
      vertex 7.12169 8.99443 0
    endloop
  endfacet
  facet normal 0 0 -1
    outer loop
      vertex 6.89443 9.44046 0
      vertex 18.2938 17 0
      vertex 18.4706 9.44046 0
    endloop
  endfacet
  facet normal 0 0 -1
    outer loop
      vertex 6.89443 9.44046 0
      vertex 18.4706 9.44046 0
      vertex 18.2433 8.99443 0
    endloop
  endfacet
  facet normal -0.891009 -0.453985 0
    outer loop
      vertex 6.89443 9.44046 0
      vertex 7.12169 8.99443 0
      vertex 6.89443 9.44046 1.97
    endloop
  endfacet
  facet normal -0.891009 -0.453985 0
    outer loop
      vertex 6.89443 9.44046 1.97
      vertex 7.12169 8.99443 0
      vertex 7.12169 8.99443 1.97
    endloop
  endfacet
  facet normal 0 0 1
    outer loop
      vertex 6.89443 9.44046 1.97
      vertex 7.12169 8.99443 1.97
      vertex 8.9 8.5 1.97
    endloop
  endfacet
  facet normal -0 0 1
    outer loop
      vertex 6.89443 9.44046 1.97
      vertex 8.9 8.5 1.97
      vertex 7.25 11.3579 1.97
    endloop
  endfacet
  facet normal 0 0 -1
    outer loop
      vertex 7.12169 8.00557 0
      vertex 18.165 8.5 0
      vertex 18.2433 8.00557 0
    endloop
  endfacet
  facet normal -0.987688 0.156434 0
    outer loop
      vertex 7.12169 8.00557 0
      vertex 7.12169 8.00557 1.97
      vertex 7.2 8.5 1.97
    endloop
  endfacet
  facet normal -0 0 -1
    outer loop
      vertex 7.12169 8.00557 0
      vertex 7.2 8.5 0
      vertex 18.165 8.5 0
    endloop
  endfacet
  facet normal -0.987688 0.156434 0
    outer loop
      vertex 7.12169 8.00557 0
      vertex 7.2 8.5 1.97
      vertex 7.2 8.5 0
    endloop
  endfacet
  facet normal 0 0 1
    outer loop
      vertex 7.12169 8.00557 1.97
      vertex 8.9 8.5 1.97
      vertex 7.2 8.5 1.97
    endloop
  endfacet
  facet normal 0 0 -1
    outer loop
      vertex 7.12169 8.99443 0
      vertex 18.165 8.5 0
      vertex 7.2 8.5 0
    endloop
  endfacet
  facet normal 0 0 -1
    outer loop
      vertex 7.12169 8.99443 0
      vertex 18.2433 8.99443 0
      vertex 18.165 8.5 0
    endloop
  endfacet
  facet normal -0.987688 -0.156434 0
    outer loop
      vertex 7.12169 8.99443 0
      vertex 7.2 8.5 0
      vertex 7.12169 8.99443 1.97
    endloop
  endfacet
  facet normal -0.987688 -0.156434 0
    outer loop
      vertex 7.12169 8.99443 1.97
      vertex 7.2 8.5 0
      vertex 7.2 8.5 1.97
    endloop
  endfacet
  facet normal 0 0 1
    outer loop
      vertex 7.12169 8.99443 1.97
      vertex 7.2 8.5 1.97
      vertex 8.9 8.5 1.97
    endloop
  endfacet
  facet normal 0.382721 0.923864 0
    outer loop
      vertex 7.23161 13.5216 1.97
      vertex 7.23161 13.5216 4.67
      vertex 7.99707 13.2045 1.97
    endloop
  endfacet
  facet normal 0 0 1
    outer loop
      vertex 7.23161 13.5216 1.97
      vertex 7.99707 13.2045 1.97
      vertex 18.2938 17 1.97
    endloop
  endfacet
  facet normal 0 0 1
    outer loop
      vertex 7.23161 13.5216 4.67
      vertex 7.25 11.3579 4.67
      vertex 7.99707 13.2045 4.67
    endloop
  endfacet
  facet normal 0.382721 0.923864 -0
    outer loop
      vertex 7.23161 13.5216 4.67
      vertex 7.99707 13.2045 4.67
      vertex 7.99707 13.2045 1.97
    endloop
  endfacet
  facet normal -0 0 1
    outer loop
      vertex 7.23161 3.47842 1.97
      vertex 18.2938 0 1.97
      vertex 7.99707 3.79549 1.97
    endloop
  endfacet
  facet normal 0.38269 -0.923877 0
    outer loop
      vertex 7.23161 3.47842 1.97
      vertex 7.99707 3.79549 1.97
      vertex 7.99707 3.79549 4.67
    endloop
  endfacet
  facet normal 0.38269 -0.923877 0
    outer loop
      vertex 7.23161 3.47842 1.97
      vertex 7.99707 3.79549 4.67
      vertex 7.23161 3.47842 4.67
    endloop
  endfacet
  facet normal 0 0 1
    outer loop
      vertex 7.23161 3.47842 4.67
      vertex 7.99707 3.79549 4.67
      vertex 7.25 5.64212 4.67
    endloop
  endfacet
  facet normal -0.866027 -0.499998 0
    outer loop
      vertex 7.25 11.3579 1.97
      vertex 8.9 8.5 1.97
      vertex 7.25 11.3579 4.67
    endloop
  endfacet
  facet normal -0 0 1
    outer loop
      vertex 7.25 11.3579 4.67
      vertex 10.3045 10.8971 4.67
      vertex 9.87161 11.6035 4.67
    endloop
  endfacet
  facet normal 0 0 1
    outer loop
      vertex 7.25 11.3579 4.67
      vertex 8.70351 12.7716 4.67
      vertex 7.99707 13.2045 4.67
    endloop
  endfacet
  facet normal -0.866027 -0.499998 0
    outer loop
      vertex 7.25 11.3579 4.67
      vertex 8.9 8.5 1.97
      vertex 8.9 8.5 4.67
    endloop
  endfacet
  facet normal 0 0 1
    outer loop
      vertex 7.25 11.3579 4.67
      vertex 8.9 8.5 4.67
      vertex 10.3045 10.8971 4.67
    endloop
  endfacet
  facet normal 0 0 1
    outer loop
      vertex 7.25 11.3579 4.67
      vertex 9.33352 12.2335 4.67
      vertex 8.70351 12.7716 4.67
    endloop
  endfacet
  facet normal 0 0 1
    outer loop
      vertex 7.25 11.3579 4.67
      vertex 9.87161 11.6035 4.67
      vertex 9.33352 12.2335 4.67
    endloop
  endfacet
  facet normal -0.866025 0.500001 0
    outer loop
      vertex 7.25 5.64212 1.97
      vertex 7.25 5.64212 4.67
      vertex 8.9 8.5 4.67
    endloop
  endfacet
  facet normal -0.866025 0.500001 0
    outer loop
      vertex 7.25 5.64212 1.97
      vertex 8.9 8.5 4.67
      vertex 8.9 8.5 1.97
    endloop
  endfacet
  facet normal 0 0 1
    outer loop
      vertex 7.25 5.64212 4.67
      vertex 10.3045 6.10293 4.67
      vertex 8.9 8.5 4.67
    endloop
  endfacet
  facet normal 0 0 1
    outer loop
      vertex 7.25 5.64212 4.67
      vertex 7.99707 3.79549 4.67
      vertex 8.70351 4.22839 4.67
    endloop
  endfacet
  facet normal 0 0 1
    outer loop
      vertex 7.25 5.64212 4.67
      vertex 8.70351 4.22839 4.67
      vertex 9.33352 4.76648 4.67
    endloop
  endfacet
  facet normal 0 0 1
    outer loop
      vertex 7.25 5.64212 4.67
      vertex 9.33352 4.76648 4.67
      vertex 9.87161 5.39649 4.67
    endloop
  endfacet
  facet normal 0 0 1
    outer loop
      vertex 7.25 5.64212 4.67
      vertex 9.87161 5.39649 4.67
      vertex 10.3045 6.10293 4.67
    endloop
  endfacet
  facet normal 0.522492 0.852644 0
    outer loop
      vertex 7.99707 13.2045 1.97
      vertex 7.99707 13.2045 4.67
      vertex 8.70351 12.7716 1.97
    endloop
  endfacet
  facet normal 0 0 1
    outer loop
      vertex 7.99707 13.2045 1.97
      vertex 8.70351 12.7716 1.97
      vertex 18.2938 17 1.97
    endloop
  endfacet
  facet normal 0.522492 0.852644 -0
    outer loop
      vertex 7.99707 13.2045 4.67
      vertex 8.70351 12.7716 4.67
      vertex 8.70351 12.7716 1.97
    endloop
  endfacet
  facet normal -0 0 1
    outer loop
      vertex 7.99707 3.79549 1.97
      vertex 18.2938 0 1.97
      vertex 8.70351 4.22839 1.97
    endloop
  endfacet
  facet normal 0.522492 -0.852644 0
    outer loop
      vertex 7.99707 3.79549 1.97
      vertex 8.70351 4.22839 1.97
      vertex 8.70351 4.22839 4.67
    endloop
  endfacet
  facet normal 0.522492 -0.852644 0
    outer loop
      vertex 7.99707 3.79549 1.97
      vertex 8.70351 4.22839 4.67
      vertex 7.99707 3.79549 4.67
    endloop
  endfacet
  facet normal 0.649462 0.760394 0
    outer loop
      vertex 8.70351 12.7716 1.97
      vertex 8.70351 12.7716 4.67
      vertex 9.33352 12.2335 1.97
    endloop
  endfacet
  facet normal 0 0 1
    outer loop
      vertex 8.70351 12.7716 1.97
      vertex 9.33352 12.2335 1.97
      vertex 18.2938 17 1.97
    endloop
  endfacet
  facet normal 0.649462 0.760394 -0
    outer loop
      vertex 8.70351 12.7716 4.67
      vertex 9.33352 12.2335 4.67
      vertex 9.33352 12.2335 1.97
    endloop
  endfacet
  facet normal -0 0 1
    outer loop
      vertex 8.70351 4.22839 1.97
      vertex 18.2938 0 1.97
      vertex 9.33352 4.76648 1.97
    endloop
  endfacet
  facet normal 0.649455 -0.7604 0
    outer loop
      vertex 8.70351 4.22839 1.97
      vertex 9.33352 4.76648 1.97
      vertex 9.33352 4.76648 4.67
    endloop
  endfacet
  facet normal 0.649455 -0.7604 0
    outer loop
      vertex 8.70351 4.22839 1.97
      vertex 9.33352 4.76648 4.67
      vertex 8.70351 4.22839 4.67
    endloop
  endfacet
  facet normal 0 0 1
    outer loop
      vertex 8.9 8.5 4.67
      vertex 10.3045 6.10293 4.67
      vertex 10.6216 6.86839 4.67
    endloop
  endfacet
  facet normal 0 0 1
    outer loop
      vertex 8.9 8.5 4.67
      vertex 10.6216 10.1316 4.67
      vertex 10.3045 10.8971 4.67
    endloop
  endfacet
  facet normal 0 0 1
    outer loop
      vertex 8.9 8.5 4.67
      vertex 10.6216 6.86839 4.67
      vertex 10.815 7.67403 4.67
    endloop
  endfacet
  facet normal 0 0 1
    outer loop
      vertex 8.9 8.5 4.67
      vertex 10.815 7.67403 4.67
      vertex 10.88 8.5 4.67
    endloop
  endfacet
  facet normal 0 0 1
    outer loop
      vertex 8.9 8.5 4.67
      vertex 10.815 9.32597 4.67
      vertex 10.6216 10.1316 4.67
    endloop
  endfacet
  facet normal 0 0 1
    outer loop
      vertex 8.9 8.5 4.67
      vertex 10.88 8.5 4.67
      vertex 10.815 9.32597 4.67
    endloop
  endfacet
  facet normal 0 0 1
    outer loop
      vertex 9.33352 12.2335 1.97
      vertex 15.4934 11.6035 1.97
      vertex 16.0315 12.2335 1.97
    endloop
  endfacet
  facet normal 0 0 1
    outer loop
      vertex 9.33352 12.2335 1.97
      vertex 16.0315 12.2335 1.97
      vertex 18.2938 17 1.97
    endloop
  endfacet
  facet normal 0.760395 0.649461 0
    outer loop
      vertex 9.33352 12.2335 1.97
      vertex 9.33352 12.2335 4.67
      vertex 9.87161 11.6035 4.67
    endloop
  endfacet
  facet normal 0 -0 1
    outer loop
      vertex 9.33352 12.2335 1.97
      vertex 9.87161 11.6035 1.97
      vertex 15.4934 11.6035 1.97
    endloop
  endfacet
  facet normal 0.760395 0.649461 0
    outer loop
      vertex 9.33352 12.2335 1.97
      vertex 9.87161 11.6035 4.67
      vertex 9.87161 11.6035 1.97
    endloop
  endfacet
  facet normal 0 0 1
    outer loop
      vertex 9.33352 4.76648 1.97
      vertex 15.4934 5.39649 1.97
      vertex 9.87161 5.39649 1.97
    endloop
  endfacet
  facet normal 0 0 1
    outer loop
      vertex 9.33352 4.76648 1.97
      vertex 16.0315 4.76648 1.97
      vertex 15.4934 5.39649 1.97
    endloop
  endfacet
  facet normal 0 0 1
    outer loop
      vertex 9.33352 4.76648 1.97
      vertex 18.2938 0 1.97
      vertex 16.0315 4.76648 1.97
    endloop
  endfacet
  facet normal 0.7604 -0.649455 0
    outer loop
      vertex 9.33352 4.76648 1.97
      vertex 9.87161 5.39649 1.97
      vertex 9.33352 4.76648 4.67
    endloop
  endfacet
  facet normal 0.7604 -0.649455 0
    outer loop
      vertex 9.33352 4.76648 4.67
      vertex 9.87161 5.39649 1.97
      vertex 9.87161 5.39649 4.67
    endloop
  endfacet
  facet normal 0 0 1
    outer loop
      vertex 9.87161 11.6035 1.97
      vertex 10.3045 10.8971 1.97
      vertex 15.0605 10.8971 1.97
    endloop
  endfacet
  facet normal 0.852636 0.522505 0
    outer loop
      vertex 9.87161 11.6035 1.97
      vertex 10.3045 10.8971 4.67
      vertex 10.3045 10.8971 1.97
    endloop
  endfacet
  facet normal 0 0 1
    outer loop
      vertex 9.87161 11.6035 1.97
      vertex 15.0605 10.8971 1.97
      vertex 15.4934 11.6035 1.97
    endloop
  endfacet
  facet normal 0.852636 0.522505 0
    outer loop
      vertex 9.87161 11.6035 1.97
      vertex 9.87161 11.6035 4.67
      vertex 10.3045 10.8971 4.67
    endloop
  endfacet
  facet normal 0.852649 -0.522484 0
    outer loop
      vertex 9.87161 5.39649 1.97
      vertex 10.3045 6.10293 1.97
      vertex 9.87161 5.39649 4.67
    endloop
  endfacet
  facet normal 0 0 1
    outer loop
      vertex 9.87161 5.39649 1.97
      vertex 15.0605 6.10293 1.97
      vertex 10.3045 6.10293 1.97
    endloop
  endfacet
  facet normal 0 0 1
    outer loop
      vertex 9.87161 5.39649 1.97
      vertex 15.4934 5.39649 1.97
      vertex 15.0605 6.10293 1.97
    endloop
  endfacet
  facet normal 0.852649 -0.522484 0
    outer loop
      vertex 9.87161 5.39649 4.67
      vertex 10.3045 6.10293 1.97
      vertex 10.3045 6.10293 4.67
    endloop
  endfacet
endsolid model
