solid model
  facet normal -1 -0 0
    outer loop
      vertex 0 0 0
      vertex 0 0 2
      vertex 0 27 2
    endloop
  endfacet
  facet normal 0 0 -1
    outer loop
      vertex 0 0 0
      vertex 0 27 0
      vertex 3.78647 23.1183 0
    endloop
  endfacet
  facet normal -1 0 0
    outer loop
      vertex 0 0 0
      vertex 0 27 2
      vertex 0 27 0
    endloop
  endfacet
  facet normal 0 -1 -0
    outer loop
      vertex 0 0 0
      vertex 10 0 0
      vertex 10 0 2
    endloop
  endfacet
  facet normal 0 -1 0
    outer loop
      vertex 0 0 0
      vertex 10 0 2
      vertex 0 0 2
    endloop
  endfacet
  facet normal -0 0 -1
    outer loop
      vertex 0 0 0
      vertex 3.5 3 0
      vertex 3.53278 2.68813 0
    endloop
  endfacet
  facet normal -0 0 -1
    outer loop
      vertex 0 0 0
      vertex 3.53278 2.68813 0
      vertex 3.62968 2.38989 0
    endloop
  endfacet
  facet normal 0 0 -1
    outer loop
      vertex 0 0 0
      vertex 3.53278 3.31187 0
      vertex 3.5 3 0
    endloop
  endfacet
  facet normal -0 0 -1
    outer loop
      vertex 0 0 0
      vertex 3.62968 2.38989 0
      vertex 3.78647 2.11832 0
    endloop
  endfacet
  facet normal 0 0 -1
    outer loop
      vertex 0 0 0
      vertex 3.62968 3.6101 0
      vertex 3.53278 3.31187 0
    endloop
  endfacet
  facet normal -0 0 -1
    outer loop
      vertex 0 0 0
      vertex 3.78647 2.11832 0
      vertex 3.9963 1.88528 0
    endloop
  endfacet
  facet normal -0 0 -1
    outer loop
      vertex 0 0 0
      vertex 3.78647 23.1183 0
      vertex 3.78647 3.88168 0
    endloop
  endfacet
  facet normal 0 0 -1
    outer loop
      vertex 0 0 0
      vertex 3.78647 3.88168 0
      vertex 3.62968 3.6101 0
    endloop
  endfacet
  facet normal -0 0 -1
    outer loop
      vertex 0 0 0
      vertex 3.9963 1.88528 0
      vertex 4.25 1.70096 0
    endloop
  endfacet
  facet normal -0 0 -1
    outer loop
      vertex 0 0 0
      vertex 4.25 1.70096 0
      vertex 4.53647 1.57341 0
    endloop
  endfacet
  facet normal -0 0 -1
    outer loop
      vertex 0 0 0
      vertex 4.53647 1.57341 0
      vertex 4.84321 1.50822 0
    endloop
  endfacet
  facet normal 0 0 -1
    outer loop
      vertex 0 0 0
      vertex 4.84321 1.50822 0
      vertex 10 0 0
    endloop
  endfacet
  facet normal 0 0 1
    outer loop
      vertex 0 0 2
      vertex 10 0 2
      vertex 4.84321 1.50822 2
    endloop
  endfacet
  facet normal 0 0 1
    outer loop
      vertex 0 0 2
      vertex 3.5 3 2
      vertex 3.53278 3.31187 2
    endloop
  endfacet
  facet normal 0 0 1
    outer loop
      vertex 0 0 2
      vertex 3.53278 2.68813 2
      vertex 3.5 3 2
    endloop
  endfacet
  facet normal 0 0 1
    outer loop
      vertex 0 0 2
      vertex 3.53278 3.31187 2
      vertex 3.62968 3.6101 2
    endloop
  endfacet
  facet normal 0 0 1
    outer loop
      vertex 0 0 2
      vertex 3.62968 2.38989 2
      vertex 3.53278 2.68813 2
    endloop
  endfacet
  facet normal 0 0 1
    outer loop
      vertex 0 0 2
      vertex 3.62968 3.6101 2
      vertex 3.78647 3.88168 2
    endloop
  endfacet
  facet normal 0 0 1
    outer loop
      vertex 0 0 2
      vertex 3.78647 2.11832 2
      vertex 3.62968 2.38989 2
    endloop
  endfacet
  facet normal 0 0 1
    outer loop
      vertex 0 0 2
      vertex 3.78647 3.88168 2
      vertex 0 27 2
    endloop
  endfacet
  facet normal 0 0 1
    outer loop
      vertex 0 0 2
      vertex 3.9963 1.88528 2
      vertex 3.78647 2.11832 2
    endloop
  endfacet
  facet normal 0 0 1
    outer loop
      vertex 0 0 2
      vertex 4.25 1.70096 2
      vertex 3.9963 1.88528 2
    endloop
  endfacet
  facet normal 0 0 1
    outer loop
      vertex 0 0 2
      vertex 4.53647 1.57341 2
      vertex 4.25 1.70096 2
    endloop
  endfacet
  facet normal 0 0 1
    outer loop
      vertex 0 0 2
      vertex 4.84321 1.50822 2
      vertex 4.53647 1.57341 2
    endloop
  endfacet
  facet normal 0 1 0
    outer loop
      vertex 0 27 0
      vertex 0 27 2
      vertex 10 27 0
    endloop
  endfacet
  facet normal 0 0 -1
    outer loop
      vertex 0 27 0
      vertex 10 27 0
      vertex 4.84321 25.4918 0
    endloop
  endfacet
  facet normal 0 0 -1
    outer loop
      vertex 0 27 0
      vertex 3.5 24 0
      vertex 3.53278 23.6881 0
    endloop
  endfacet
  facet normal 0 0 -1
    outer loop
      vertex 0 27 0
      vertex 3.53278 23.6881 0
      vertex 3.62968 23.3899 0
    endloop
  endfacet
  facet normal 0 0 -1
    outer loop
      vertex 0 27 0
      vertex 3.53278 24.3119 0
      vertex 3.5 24 0
    endloop
  endfacet
  facet normal 0 0 -1
    outer loop
      vertex 0 27 0
      vertex 3.62968 23.3899 0
      vertex 3.78647 23.1183 0
    endloop
  endfacet
  facet normal 0 0 -1
    outer loop
      vertex 0 27 0
      vertex 3.62968 24.6101 0
      vertex 3.53278 24.3119 0
    endloop
  endfacet
  facet normal 0 0 -1
    outer loop
      vertex 0 27 0
      vertex 3.78647 24.8817 0
      vertex 3.62968 24.6101 0
    endloop
  endfacet
  facet normal 0 0 -1
    outer loop
      vertex 0 27 0
      vertex 3.9963 25.1147 0
      vertex 3.78647 24.8817 0
    endloop
  endfacet
  facet normal 0 0 -1
    outer loop
      vertex 0 27 0
      vertex 4.25 25.299 0
      vertex 3.9963 25.1147 0
    endloop
  endfacet
  facet normal 0 0 -1
    outer loop
      vertex 0 27 0
      vertex 4.53647 25.4266 0
      vertex 4.25 25.299 0
    endloop
  endfacet
  facet normal 0 0 -1
    outer loop
      vertex 0 27 0
      vertex 4.84321 25.4918 0
      vertex 4.53647 25.4266 0
    endloop
  endfacet
  facet normal 0 1 -0
    outer loop
      vertex 0 27 2
      vertex 10 27 2
      vertex 10 27 0
    endloop
  endfacet
  facet normal 0 0 1
    outer loop
      vertex 0 27 2
      vertex 3.5 24 2
      vertex 3.53278 24.3119 2
    endloop
  endfacet
  facet normal 0 0 1
    outer loop
      vertex 0 27 2
      vertex 3.53278 23.6881 2
      vertex 3.5 24 2
    endloop
  endfacet
  facet normal 0 0 1
    outer loop
      vertex 0 27 2
      vertex 3.53278 24.3119 2
      vertex 3.62968 24.6101 2
    endloop
  endfacet
  facet normal 0 0 1
    outer loop
      vertex 0 27 2
      vertex 3.62968 23.3899 2
      vertex 3.53278 23.6881 2
    endloop
  endfacet
  facet normal 0 0 1
    outer loop
      vertex 0 27 2
      vertex 3.62968 24.6101 2
      vertex 3.78647 24.8817 2
    endloop
  endfacet
  facet normal 0 0 1
    outer loop
      vertex 0 27 2
      vertex 3.78647 23.1183 2
      vertex 3.62968 23.3899 2
    endloop
  endfacet
  facet normal 0 0 1
    outer loop
      vertex 0 27 2
      vertex 3.78647 24.8817 2
      vertex 3.9963 25.1147 2
    endloop
  endfacet
  facet normal 0 0 1
    outer loop
      vertex 0 27 2
      vertex 3.78647 3.88168 2
      vertex 3.78647 23.1183 2
    endloop
  endfacet
  facet normal 0 0 1
    outer loop
      vertex 0 27 2
      vertex 3.9963 25.1147 2
      vertex 4.25 25.299 2
    endloop
  endfacet
  facet normal 0 0 1
    outer loop
      vertex 0 27 2
      vertex 4.25 25.299 2
      vertex 4.53647 25.4266 2
    endloop
  endfacet
  facet normal 0 0 1
    outer loop
      vertex 0 27 2
      vertex 4.53647 25.4266 2
      vertex 4.84321 25.4918 2
    endloop
  endfacet
  facet normal -0 0 1
    outer loop
      vertex 0 27 2
      vertex 4.84321 25.4918 2
      vertex 10 27 2
    endloop
  endfacet
  facet normal 1 0 0
    outer loop
      vertex 10 0 0
      vertex 10 27 0
      vertex 10 0 2
    endloop
  endfacet
  facet normal 1 -0 0
    outer loop
      vertex 10 0 2
      vertex 10 27 0
      vertex 10 27 2
    endloop
  endfacet
  facet normal 0.994523 0.104522 0
    outer loop
      vertex 3.5 24 0
      vertex 3.5 24 2
      vertex 3.53278 23.6881 2
    endloop
  endfacet
  facet normal 0.994523 0.104522 0
    outer loop
      vertex 3.5 24 0
      vertex 3.53278 23.6881 2
      vertex 3.53278 23.6881 0
    endloop
  endfacet
  facet normal 0.994523 -0.104522 0
    outer loop
      vertex 3.5 24 0
      vertex 3.53278 24.3119 0
      vertex 3.5 24 2
    endloop
  endfacet
  facet normal 0.994523 -0.104522 0
    outer loop
      vertex 3.5 24 2
      vertex 3.53278 24.3119 0
      vertex 3.53278 24.3119 2
    endloop
  endfacet
  facet normal 0.994522 0.104532 0
    outer loop
      vertex 3.5 3 0
      vertex 3.5 3 2
      vertex 3.53278 2.68813 2
    endloop
  endfacet
  facet normal 0.994522 0.104532 0
    outer loop
      vertex 3.5 3 0
      vertex 3.53278 2.68813 2
      vertex 3.53278 2.68813 0
    endloop
  endfacet
  facet normal 0.994522 -0.104532 0
    outer loop
      vertex 3.5 3 0
      vertex 3.53278 3.31187 0
      vertex 3.5 3 2
    endloop
  endfacet
  facet normal 0.994522 -0.104532 0
    outer loop
      vertex 3.5 3 2
      vertex 3.53278 3.31187 0
      vertex 3.53278 3.31187 2
    endloop
  endfacet
  facet normal 0.95106 0.309005 0
    outer loop
      vertex 3.53278 2.68813 0
      vertex 3.53278 2.68813 2
      vertex 3.62968 2.38989 2
    endloop
  endfacet
  facet normal 0.95106 0.309005 0
    outer loop
      vertex 3.53278 2.68813 0
      vertex 3.62968 2.38989 2
      vertex 3.62968 2.38989 0
    endloop
  endfacet
  facet normal 0.951048 0.309043 0
    outer loop
      vertex 3.53278 23.6881 0
      vertex 3.53278 23.6881 2
      vertex 3.62968 23.3899 2
    endloop
  endfacet
  facet normal 0.951048 0.309043 0
    outer loop
      vertex 3.53278 23.6881 0
      vertex 3.62968 23.3899 2
      vertex 3.62968 23.3899 0
    endloop
  endfacet
  facet normal 0.951048 -0.309043 0
    outer loop
      vertex 3.53278 24.3119 0
      vertex 3.62968 24.6101 0
      vertex 3.53278 24.3119 2
    endloop
  endfacet
  facet normal 0.951048 -0.309043 0
    outer loop
      vertex 3.53278 24.3119 2
      vertex 3.62968 24.6101 0
      vertex 3.62968 24.6101 2
    endloop
  endfacet
  facet normal 0.951057 -0.309015 0
    outer loop
      vertex 3.53278 3.31187 0
      vertex 3.62968 3.6101 0
      vertex 3.53278 3.31187 2
    endloop
  endfacet
  facet normal 0.951057 -0.309015 0
    outer loop
      vertex 3.53278 3.31187 2
      vertex 3.62968 3.6101 0
      vertex 3.62968 3.6101 2
    endloop
  endfacet
  facet normal 0.866027 0.499998 0
    outer loop
      vertex 3.62968 2.38989 0
      vertex 3.62968 2.38989 2
      vertex 3.78647 2.11832 2
    endloop
  endfacet
  facet normal 0.866027 0.499998 0
    outer loop
      vertex 3.62968 2.38989 0
      vertex 3.78647 2.11832 2
      vertex 3.78647 2.11832 0
    endloop
  endfacet
  facet normal 0.866051 0.499956 0
    outer loop
      vertex 3.62968 23.3899 0
      vertex 3.62968 23.3899 2
      vertex 3.78647 23.1183 2
    endloop
  endfacet
  facet normal 0.866051 0.499956 0
    outer loop
      vertex 3.62968 23.3899 0
      vertex 3.78647 23.1183 2
      vertex 3.78647 23.1183 0
    endloop
  endfacet
  facet normal 0.866051 -0.499956 0
    outer loop
      vertex 3.62968 24.6101 0
      vertex 3.78647 24.8817 0
      vertex 3.62968 24.6101 2
    endloop
  endfacet
  facet normal 0.866051 -0.499956 0
    outer loop
      vertex 3.62968 24.6101 2
      vertex 3.78647 24.8817 0
      vertex 3.78647 24.8817 2
    endloop
  endfacet
  facet normal 0.866035 -0.499984 0
    outer loop
      vertex 3.62968 3.6101 0
      vertex 3.78647 3.88168 0
      vertex 3.62968 3.6101 2
    endloop
  endfacet
  facet normal 0.866035 -0.499984 0
    outer loop
      vertex 3.62968 3.6101 2
      vertex 3.78647 3.88168 0
      vertex 3.78647 3.88168 2
    endloop
  endfacet
  facet normal 0.743145 0.66913 0
    outer loop
      vertex 3.78647 2.11832 0
      vertex 3.78647 2.11832 2
      vertex 3.9963 1.88528 2
    endloop
  endfacet
  facet normal 0.743145 0.66913 0
    outer loop
      vertex 3.78647 2.11832 0
      vertex 3.9963 1.88528 2
      vertex 3.9963 1.88528 0
    endloop
  endfacet
  facet normal 0.743088 0.669194 0
    outer loop
      vertex 3.78647 23.1183 0
      vertex 3.78647 23.1183 2
      vertex 3.9963 22.8853 2
    endloop
  endfacet
  facet normal 0.743088 0.669194 0
    outer loop
      vertex 3.78647 23.1183 0
      vertex 3.9963 22.8853 2
      vertex 3.9963 22.8853 0
    endloop
  endfacet
  facet normal 0 0 1
    outer loop
      vertex 3.78647 23.1183 2
      vertex 3.9963 4.11472 2
      vertex 3.9963 22.8853 2
    endloop
  endfacet
  facet normal 0.743088 -0.669194 0
    outer loop
      vertex 3.78647 24.8817 0
      vertex 3.9963 25.1147 0
      vertex 3.78647 24.8817 2
    endloop
  endfacet
  facet normal 0.743088 -0.669194 0
    outer loop
      vertex 3.78647 24.8817 2
      vertex 3.9963 25.1147 0
      vertex 3.9963 25.1147 2
    endloop
  endfacet
  facet normal 0 0 -1
    outer loop
      vertex 3.78647 3.88168 0
      vertex 3.78647 23.1183 0
      vertex 3.9963 22.8853 0
    endloop
  endfacet
  facet normal 0 0 -1
    outer loop
      vertex 3.78647 3.88168 0
      vertex 3.9963 22.8853 0
      vertex 3.9963 4.11472 0
    endloop
  endfacet
  facet normal 0.743145 -0.66913 0
    outer loop
      vertex 3.78647 3.88168 0
      vertex 3.9963 4.11472 0
      vertex 3.78647 3.88168 2
    endloop
  endfacet
  facet normal 0.743145 -0.66913 0
    outer loop
      vertex 3.78647 3.88168 2
      vertex 3.9963 4.11472 0
      vertex 3.9963 4.11472 2
    endloop
  endfacet
  facet normal 0 0 1
    outer loop
      vertex 3.78647 3.88168 2
      vertex 3.9963 4.11472 2
      vertex 3.78647 23.1183 2
    endloop
  endfacet
  facet normal 0.587777 0.809023 0
    outer loop
      vertex 3.9963 1.88528 0
      vertex 3.9963 1.88528 2
      vertex 4.25 1.70096 0
    endloop
  endfacet
  facet normal 0.587777 0.809023 -0
    outer loop
      vertex 3.9963 1.88528 2
      vertex 4.25 1.70096 2
      vertex 4.25 1.70096 0
    endloop
  endfacet
  facet normal 0.587735 0.809053 0
    outer loop
      vertex 3.9963 22.8853 0
      vertex 3.9963 22.8853 2
      vertex 4.25 22.701 0
    endloop
  endfacet
  facet normal 0.587735 0.809053 -0
    outer loop
      vertex 3.9963 22.8853 2
      vertex 4.25 22.701 2
      vertex 4.25 22.701 0
    endloop
  endfacet
  facet normal 0 0 1
    outer loop
      vertex 3.9963 22.8853 2
      vertex 4.25 4.29904 2
      vertex 4.25 22.701 2
    endloop
  endfacet
  facet normal 0.587735 -0.809053 0
    outer loop
      vertex 3.9963 25.1147 0
      vertex 4.25 25.299 0
      vertex 4.25 25.299 2
    endloop
  endfacet
  facet normal 0.587735 -0.809053 0
    outer loop
      vertex 3.9963 25.1147 0
      vertex 4.25 25.299 2
      vertex 3.9963 25.1147 2
    endloop
  endfacet
  facet normal 0 0 -1
    outer loop
      vertex 3.9963 4.11472 0
      vertex 3.9963 22.8853 0
      vertex 4.25 22.701 0
    endloop
  endfacet
  facet normal 0 0 -1
    outer loop
      vertex 3.9963 4.11472 0
      vertex 4.25 22.701 0
      vertex 4.25 4.29904 0
    endloop
  endfacet
  facet normal 0.587777 -0.809023 0
    outer loop
      vertex 3.9963 4.11472 0
      vertex 4.25 4.29904 0
      vertex 4.25 4.29904 2
    endloop
  endfacet
  facet normal 0.587777 -0.809023 0
    outer loop
      vertex 3.9963 4.11472 0
      vertex 4.25 4.29904 2
      vertex 3.9963 4.11472 2
    endloop
  endfacet
  facet normal 0 0 1
    outer loop
      vertex 3.9963 4.11472 2
      vertex 4.25 4.29904 2
      vertex 3.9963 22.8853 2
    endloop
  endfacet
  facet normal 0.406751 0.913539 0
    outer loop
      vertex 4.25 1.70096 0
      vertex 4.25 1.70096 2
      vertex 4.53647 1.57341 0
    endloop
  endfacet
  facet normal 0.406751 0.913539 -0
    outer loop
      vertex 4.25 1.70096 2
      vertex 4.53647 1.57341 2
      vertex 4.53647 1.57341 0
    endloop
  endfacet
  facet normal 0.406884 0.91348 0
    outer loop
      vertex 4.25 22.701 0
      vertex 4.25 22.701 2
      vertex 4.53647 22.5734 0
    endloop
  endfacet
  facet normal 0.406884 0.91348 -0
    outer loop
      vertex 4.25 22.701 2
      vertex 4.53647 22.5734 2
      vertex 4.53647 22.5734 0
    endloop
  endfacet
  facet normal 0 0 1
    outer loop
      vertex 4.25 22.701 2
      vertex 4.53647 4.42658 2
      vertex 4.53647 22.5734 2
    endloop
  endfacet
  facet normal 0.406884 -0.91348 0
    outer loop
      vertex 4.25 25.299 0
      vertex 4.53647 25.4266 0
      vertex 4.53647 25.4266 2
    endloop
  endfacet
  facet normal 0.406884 -0.91348 0
    outer loop
      vertex 4.25 25.299 0
      vertex 4.53647 25.4266 2
      vertex 4.25 25.299 2
    endloop
  endfacet
  facet normal 0 0 -1
    outer loop
      vertex 4.25 4.29904 0
      vertex 4.25 22.701 0
      vertex 4.53647 22.5734 0
    endloop
  endfacet
  facet normal 0 0 -1
    outer loop
      vertex 4.25 4.29904 0
      vertex 4.53647 22.5734 0
      vertex 4.53647 4.42658 0
    endloop
  endfacet
  facet normal 0.406724 -0.913551 0
    outer loop
      vertex 4.25 4.29904 0
      vertex 4.53647 4.42658 0
      vertex 4.53647 4.42658 2
    endloop
  endfacet
  facet normal 0.406724 -0.913551 0
    outer loop
      vertex 4.25 4.29904 0
      vertex 4.53647 4.42658 2
      vertex 4.25 4.29904 2
    endloop
  endfacet
  facet normal 0 0 1
    outer loop
      vertex 4.25 4.29904 2
      vertex 4.53647 4.42658 2
      vertex 4.25 22.701 2
    endloop
  endfacet
  facet normal 0.207882 0.978154 0
    outer loop
      vertex 4.53647 1.57341 0
      vertex 4.53647 1.57341 2
      vertex 4.84321 1.50822 0
    endloop
  endfacet
  facet normal 0.207882 0.978154 -0
    outer loop
      vertex 4.53647 1.57341 2
      vertex 4.84321 1.50822 2
      vertex 4.84321 1.50822 0
    endloop
  endfacet
  facet normal 0.207913 0.978147 0
    outer loop
      vertex 4.53647 22.5734 0
      vertex 4.53647 22.5734 2
      vertex 4.84321 22.5082 0
    endloop
  endfacet
  facet normal 0.207913 0.978147 -0
    outer loop
      vertex 4.53647 22.5734 2
      vertex 4.84321 22.5082 2
      vertex 4.84321 22.5082 0
    endloop
  endfacet
  facet normal 0 0 1
    outer loop
      vertex 4.53647 22.5734 2
      vertex 4.84321 4.49178 2
      vertex 4.84321 22.5082 2
    endloop
  endfacet
  facet normal 0.207913 -0.978147 0
    outer loop
      vertex 4.53647 25.4266 0
      vertex 4.84321 25.4918 0
      vertex 4.84321 25.4918 2
    endloop
  endfacet
  facet normal 0.207913 -0.978147 0
    outer loop
      vertex 4.53647 25.4266 0
      vertex 4.84321 25.4918 2
      vertex 4.53647 25.4266 2
    endloop
  endfacet
  facet normal 0 0 -1
    outer loop
      vertex 4.53647 4.42658 0
      vertex 4.53647 22.5734 0
      vertex 4.84321 22.5082 0
    endloop
  endfacet
  facet normal 0 0 -1
    outer loop
      vertex 4.53647 4.42658 0
      vertex 4.84321 22.5082 0
      vertex 4.84321 4.49178 0
    endloop
  endfacet
  facet normal 0.207913 -0.978147 0
    outer loop
      vertex 4.53647 4.42658 0
      vertex 4.84321 4.49178 0
      vertex 4.84321 4.49178 2
    endloop
  endfacet
  facet normal 0.207913 -0.978147 0
    outer loop
      vertex 4.53647 4.42658 0
      vertex 4.84321 4.49178 2
      vertex 4.53647 4.42658 2
    endloop
  endfacet
  facet normal 0 0 1
    outer loop
      vertex 4.53647 4.42658 2
      vertex 4.84321 4.49178 2
      vertex 4.53647 22.5734 2
    endloop
  endfacet
  facet normal 0 1 0
    outer loop
      vertex 4.84321 1.50822 0
      vertex 4.84321 1.50822 2
      vertex 5.15679 1.50822 0
    endloop
  endfacet
  facet normal 0 0 -1
    outer loop
      vertex 4.84321 1.50822 0
      vertex 5.15679 1.50822 0
      vertex 10 0 0
    endloop
  endfacet
  facet normal -0 0 1
    outer loop
      vertex 4.84321 1.50822 2
      vertex 10 0 2
      vertex 5.15679 1.50822 2
    endloop
  endfacet
  facet normal 0 1 -0
    outer loop
      vertex 4.84321 1.50822 2
      vertex 5.15679 1.50822 2
      vertex 5.15679 1.50822 0
    endloop
  endfacet
  facet normal 0 1 0
    outer loop
      vertex 4.84321 22.5082 0
      vertex 4.84321 22.5082 2
      vertex 5.15679 22.5082 0
    endloop
  endfacet
  facet normal 0 1 -0
    outer loop
      vertex 4.84321 22.5082 2
      vertex 5.15679 22.5082 2
      vertex 5.15679 22.5082 0
    endloop
  endfacet
  facet normal -0 0 1
    outer loop
      vertex 4.84321 22.5082 2
      vertex 5.15679 4.49178 2
      vertex 5.15679 22.5082 2
    endloop
  endfacet
  facet normal 0 0 -1
    outer loop
      vertex 4.84321 25.4918 0
      vertex 10 27 0
      vertex 5.15679 25.4918 0
    endloop
  endfacet
  facet normal 0 -1 -0
    outer loop
      vertex 4.84321 25.4918 0
      vertex 5.15679 25.4918 0
      vertex 5.15679 25.4918 2
    endloop
  endfacet
  facet normal 0 -1 0
    outer loop
      vertex 4.84321 25.4918 0
      vertex 5.15679 25.4918 2
      vertex 4.84321 25.4918 2
    endloop
  endfacet
  facet normal 0 0 1
    outer loop
      vertex 4.84321 25.4918 2
      vertex 5.15679 25.4918 2
      vertex 10 27 2
    endloop
  endfacet
  facet normal 0 0 -1
    outer loop
      vertex 4.84321 4.49178 0
      vertex 4.84321 22.5082 0
      vertex 5.15679 22.5082 0
    endloop
  endfacet
  facet normal 0 0 -1
    outer loop
      vertex 4.84321 4.49178 0
      vertex 5.15679 22.5082 0
      vertex 5.15679 4.49178 0
    endloop
  endfacet
  facet normal 0 -1 -0
    outer loop
      vertex 4.84321 4.49178 0
      vertex 5.15679 4.49178 0
      vertex 5.15679 4.49178 2
    endloop
  endfacet
  facet normal 0 -1 0
    outer loop
      vertex 4.84321 4.49178 0
      vertex 5.15679 4.49178 2
      vertex 4.84321 4.49178 2
    endloop
  endfacet
  facet normal 0 0 1
    outer loop
      vertex 4.84321 4.49178 2
      vertex 5.15679 4.49178 2
      vertex 4.84321 22.5082 2
    endloop
  endfacet
  facet normal -0.207889 0.978152 0
    outer loop
      vertex 5.15679 1.50822 0
      vertex 5.15679 1.50822 2
      vertex 5.46352 1.57341 0
    endloop
  endfacet
  facet normal 0 0 -1
    outer loop
      vertex 5.15679 1.50822 0
      vertex 5.46352 1.57341 0
      vertex 10 0 0
    endloop
  endfacet
  facet normal -0 0 1
    outer loop
      vertex 5.15679 1.50822 2
      vertex 10 0 2
      vertex 5.46352 1.57341 2
    endloop
  endfacet
  facet normal -0.207889 0.978152 0
    outer loop
      vertex 5.15679 1.50822 2
      vertex 5.46352 1.57341 2
      vertex 5.46352 1.57341 0
    endloop
  endfacet
  facet normal -0.207919 0.978146 0
    outer loop
      vertex 5.15679 22.5082 0
      vertex 5.15679 22.5082 2
      vertex 5.46352 22.5734 0
    endloop
  endfacet
  facet normal -0.207919 0.978146 0
    outer loop
      vertex 5.15679 22.5082 2
      vertex 5.46352 22.5734 2
      vertex 5.46352 22.5734 0
    endloop
  endfacet
  facet normal -0 0 1
    outer loop
      vertex 5.15679 22.5082 2
      vertex 5.46352 4.42658 2
      vertex 5.46352 22.5734 2
    endloop
  endfacet
  facet normal 0 0 -1
    outer loop
      vertex 5.15679 25.4918 0
      vertex 10 27 0
      vertex 5.46352 25.4266 0
    endloop
  endfacet
  facet normal -0.207919 -0.978146 -0
    outer loop
      vertex 5.15679 25.4918 0
      vertex 5.46352 25.4266 0
      vertex 5.46352 25.4266 2
    endloop
  endfacet
  facet normal -0.207919 -0.978146 0
    outer loop
      vertex 5.15679 25.4918 0
      vertex 5.46352 25.4266 2
      vertex 5.15679 25.4918 2
    endloop
  endfacet
  facet normal 0 0 1
    outer loop
      vertex 5.15679 25.4918 2
      vertex 5.46352 25.4266 2
      vertex 10 27 2
    endloop
  endfacet
  facet normal 0 0 -1
    outer loop
      vertex 5.15679 4.49178 0
      vertex 5.15679 22.5082 0
      vertex 5.46352 22.5734 0
    endloop
  endfacet
  facet normal 0 0 -1
    outer loop
      vertex 5.15679 4.49178 0
      vertex 5.46352 22.5734 0
      vertex 5.46352 4.42658 0
    endloop
  endfacet
  facet normal -0.207919 -0.978146 -0
    outer loop
      vertex 5.15679 4.49178 0
      vertex 5.46352 4.42658 0
      vertex 5.46352 4.42658 2
    endloop
  endfacet
  facet normal -0.207919 -0.978146 0
    outer loop
      vertex 5.15679 4.49178 0
      vertex 5.46352 4.42658 2
      vertex 5.15679 4.49178 2
    endloop
  endfacet
  facet normal 0 0 1
    outer loop
      vertex 5.15679 4.49178 2
      vertex 5.46352 4.42658 2
      vertex 5.15679 22.5082 2
    endloop
  endfacet
  facet normal -0.406739 0.913544 0
    outer loop
      vertex 5.46352 1.57341 0
      vertex 5.46352 1.57341 2
      vertex 5.75 1.70096 0
    endloop
  endfacet
  facet normal 0 0 -1
    outer loop
      vertex 5.46352 1.57341 0
      vertex 5.75 1.70096 0
      vertex 10 0 0
    endloop
  endfacet
  facet normal -0 0 1
    outer loop
      vertex 5.46352 1.57341 2
      vertex 10 0 2
      vertex 5.75 1.70096 2
    endloop
  endfacet
  facet normal -0.406739 0.913544 0
    outer loop
      vertex 5.46352 1.57341 2
      vertex 5.75 1.70096 2
      vertex 5.75 1.70096 0
    endloop
  endfacet
  facet normal -0.406872 0.913485 0
    outer loop
      vertex 5.46352 22.5734 0
      vertex 5.46352 22.5734 2
      vertex 5.75 22.701 0
    endloop
  endfacet
  facet normal -0.406872 0.913485 0
    outer loop
      vertex 5.46352 22.5734 2
      vertex 5.75 22.701 2
      vertex 5.75 22.701 0
    endloop
  endfacet
  facet normal -0 0 1
    outer loop
      vertex 5.46352 22.5734 2
      vertex 5.75 4.29904 2
      vertex 5.75 22.701 2
    endloop
  endfacet
  facet normal 0 0 -1
    outer loop
      vertex 5.46352 25.4266 0
      vertex 10 27 0
      vertex 5.75 25.299 0
    endloop
  endfacet
  facet normal -0.406872 -0.913485 -0
    outer loop
      vertex 5.46352 25.4266 0
      vertex 5.75 25.299 0
      vertex 5.75 25.299 2
    endloop
  endfacet
  facet normal -0.406872 -0.913485 0
    outer loop
      vertex 5.46352 25.4266 0
      vertex 5.75 25.299 2
      vertex 5.46352 25.4266 2
    endloop
  endfacet
  facet normal 0 0 1
    outer loop
      vertex 5.46352 25.4266 2
      vertex 5.75 25.299 2
      vertex 10 27 2
    endloop
  endfacet
  facet normal 0 0 -1
    outer loop
      vertex 5.46352 4.42658 0
      vertex 5.46352 22.5734 0
      vertex 5.75 22.701 0
    endloop
  endfacet
  facet normal 0 0 -1
    outer loop
      vertex 5.46352 4.42658 0
      vertex 5.75 22.701 0
      vertex 5.75 4.29904 0
    endloop
  endfacet
  facet normal -0.406712 -0.913556 -0
    outer loop
      vertex 5.46352 4.42658 0
      vertex 5.75 4.29904 0
      vertex 5.75 4.29904 2
    endloop
  endfacet
  facet normal -0.406712 -0.913556 0
    outer loop
      vertex 5.46352 4.42658 0
      vertex 5.75 4.29904 2
      vertex 5.46352 4.42658 2
    endloop
  endfacet
  facet normal 0 0 1
    outer loop
      vertex 5.46352 4.42658 2
      vertex 5.75 4.29904 2
      vertex 5.46352 22.5734 2
    endloop
  endfacet
  facet normal -0.587777 0.809023 0
    outer loop
      vertex 5.75 1.70096 0
      vertex 5.75 1.70096 2
      vertex 6.0037 1.88528 0
    endloop
  endfacet
  facet normal 0 0 -1
    outer loop
      vertex 5.75 1.70096 0
      vertex 6.0037 1.88528 0
      vertex 10 0 0
    endloop
  endfacet
  facet normal -0 0 1
    outer loop
      vertex 5.75 1.70096 2
      vertex 10 0 2
      vertex 6.0037 1.88528 2
    endloop
  endfacet
  facet normal -0.587777 0.809023 0
    outer loop
      vertex 5.75 1.70096 2
      vertex 6.0037 1.88528 2
      vertex 6.0037 1.88528 0
    endloop
  endfacet
  facet normal -0.587735 0.809053 0
    outer loop
      vertex 5.75 22.701 0
      vertex 5.75 22.701 2
      vertex 6.0037 22.8853 0
    endloop
  endfacet
  facet normal -0.587735 0.809053 0
    outer loop
      vertex 5.75 22.701 2
      vertex 6.0037 22.8853 2
      vertex 6.0037 22.8853 0
    endloop
  endfacet
  facet normal -0 0 1
    outer loop
      vertex 5.75 22.701 2
      vertex 6.0037 4.11472 2
      vertex 6.0037 22.8853 2
    endloop
  endfacet
  facet normal 0 0 -1
    outer loop
      vertex 5.75 25.299 0
      vertex 10 27 0
      vertex 6.0037 25.1147 0
    endloop
  endfacet
  facet normal -0.587735 -0.809053 -0
    outer loop
      vertex 5.75 25.299 0
      vertex 6.0037 25.1147 0
      vertex 6.0037 25.1147 2
    endloop
  endfacet
  facet normal -0.587735 -0.809053 0
    outer loop
      vertex 5.75 25.299 0
      vertex 6.0037 25.1147 2
      vertex 5.75 25.299 2
    endloop
  endfacet
  facet normal 0 0 1
    outer loop
      vertex 5.75 25.299 2
      vertex 6.0037 25.1147 2
      vertex 10 27 2
    endloop
  endfacet
  facet normal 0 0 -1
    outer loop
      vertex 5.75 4.29904 0
      vertex 5.75 22.701 0
      vertex 6.0037 22.8853 0
    endloop
  endfacet
  facet normal 0 0 -1
    outer loop
      vertex 5.75 4.29904 0
      vertex 6.0037 22.8853 0
      vertex 6.0037 4.11472 0
    endloop
  endfacet
  facet normal -0.587777 -0.809023 -0
    outer loop
      vertex 5.75 4.29904 0
      vertex 6.0037 4.11472 0
      vertex 6.0037 4.11472 2
    endloop
  endfacet
  facet normal -0.587777 -0.809023 0
    outer loop
      vertex 5.75 4.29904 0
      vertex 6.0037 4.11472 2
      vertex 5.75 4.29904 2
    endloop
  endfacet
  facet normal 0 0 1
    outer loop
      vertex 5.75 4.29904 2
      vertex 6.0037 4.11472 2
      vertex 5.75 22.701 2
    endloop
  endfacet
  facet normal -0.743161 0.669113 0
    outer loop
      vertex 6.0037 1.88528 0
      vertex 6.0037 1.88528 2
      vertex 6.21352 2.11832 2
    endloop
  endfacet
  facet normal 0 0 -1
    outer loop
      vertex 6.0037 1.88528 0
      vertex 6.21352 2.11832 0
      vertex 10 0 0
    endloop
  endfacet
  facet normal -0.743161 0.669113 0
    outer loop
      vertex 6.0037 1.88528 0
      vertex 6.21352 2.11832 2
      vertex 6.21352 2.11832 0
    endloop
  endfacet
  facet normal -0 0 1
    outer loop
      vertex 6.0037 1.88528 2
      vertex 10 0 2
      vertex 6.21352 2.11832 2
    endloop
  endfacet
  facet normal -0.743104 0.669176 0
    outer loop
      vertex 6.0037 22.8853 0
      vertex 6.0037 22.8853 2
      vertex 6.21352 23.1183 2
    endloop
  endfacet
  facet normal -0.743104 0.669176 0
    outer loop
      vertex 6.0037 22.8853 0
      vertex 6.21352 23.1183 2
      vertex 6.21352 23.1183 0
    endloop
  endfacet
  facet normal -0 0 1
    outer loop
      vertex 6.0037 22.8853 2
      vertex 6.21352 3.88168 2
      vertex 6.21352 23.1183 2
    endloop
  endfacet
  facet normal 0 0 -1
    outer loop
      vertex 6.0037 25.1147 0
      vertex 10 27 0
      vertex 6.21352 24.8817 0
    endloop
  endfacet
  facet normal -0.743104 -0.669176 0
    outer loop
      vertex 6.0037 25.1147 0
      vertex 6.21352 24.8817 0
      vertex 6.0037 25.1147 2
    endloop
  endfacet
  facet normal -0.743104 -0.669176 0
    outer loop
      vertex 6.0037 25.1147 2
      vertex 6.21352 24.8817 0
      vertex 6.21352 24.8817 2
    endloop
  endfacet
  facet normal 0 0 1
    outer loop
      vertex 6.0037 25.1147 2
      vertex 6.21352 24.8817 2
      vertex 10 27 2
    endloop
  endfacet
  facet normal 0 0 -1
    outer loop
      vertex 6.0037 4.11472 0
      vertex 6.0037 22.8853 0
      vertex 6.21352 23.1183 0
    endloop
  endfacet
  facet normal 0 0 -1
    outer loop
      vertex 6.0037 4.11472 0
      vertex 6.21352 23.1183 0
      vertex 6.21352 3.88168 0
    endloop
  endfacet
  facet normal -0.743161 -0.669113 0
    outer loop
      vertex 6.0037 4.11472 0
      vertex 6.21352 3.88168 0
      vertex 6.0037 4.11472 2
    endloop
  endfacet
  facet normal -0.743161 -0.669113 0
    outer loop
      vertex 6.0037 4.11472 2
      vertex 6.21352 3.88168 0
      vertex 6.21352 3.88168 2
    endloop
  endfacet
  facet normal 0 0 1
    outer loop
      vertex 6.0037 4.11472 2
      vertex 6.21352 3.88168 2
      vertex 6.0037 22.8853 2
    endloop
  endfacet
  facet normal -0.866013 0.500021 0
    outer loop
      vertex 6.21352 2.11832 0
      vertex 6.21352 2.11832 2
      vertex 6.37032 2.38989 2
    endloop
  endfacet
  facet normal 0 0 -1
    outer loop
      vertex 6.21352 2.11832 0
      vertex 6.37032 2.38989 0
      vertex 10 0 0
    endloop
  endfacet
  facet normal -0.866013 0.500021 0
    outer loop
      vertex 6.21352 2.11832 0
      vertex 6.37032 2.38989 2
      vertex 6.37032 2.38989 0
    endloop
  endfacet
  facet normal -0 0 1
    outer loop
      vertex 6.21352 2.11832 2
      vertex 10 0 2
      vertex 6.37032 2.38989 2
    endloop
  endfacet
  facet normal -0.866037 0.49998 0
    outer loop
      vertex 6.21352 23.1183 0
      vertex 6.21352 23.1183 2
      vertex 6.37032 23.3899 2
    endloop
  endfacet
  facet normal 0 0 -1
    outer loop
      vertex 6.21352 23.1183 0
      vertex 6.37032 23.3899 0
      vertex 10 27 0
    endloop
  endfacet
  facet normal -0.866037 0.49998 0
    outer loop
      vertex 6.21352 23.1183 0
      vertex 6.37032 23.3899 2
      vertex 6.37032 23.3899 0
    endloop
  endfacet
  facet normal 0 0 1
    outer loop
      vertex 6.21352 23.1183 2
      vertex 10 0 2
      vertex 10 27 2
    endloop
  endfacet
  facet normal 0 0 1
    outer loop
      vertex 6.21352 23.1183 2
      vertex 10 27 2
      vertex 6.37032 23.3899 2
    endloop
  endfacet
  facet normal 0 0 -1
    outer loop
      vertex 6.21352 24.8817 0
      vertex 10 27 0
      vertex 6.37032 24.6101 0
    endloop
  endfacet
  facet normal -0.866037 -0.49998 0
    outer loop
      vertex 6.21352 24.8817 0
      vertex 6.37032 24.6101 0
      vertex 6.21352 24.8817 2
    endloop
  endfacet
  facet normal -0.866037 -0.49998 0
    outer loop
      vertex 6.21352 24.8817 2
      vertex 6.37032 24.6101 0
      vertex 6.37032 24.6101 2
    endloop
  endfacet
  facet normal 0 0 1
    outer loop
      vertex 6.21352 24.8817 2
      vertex 6.37032 24.6101 2
      vertex 10 27 2
    endloop
  endfacet
  facet normal 0 0 -1
    outer loop
      vertex 6.21352 3.88168 0
      vertex 10 0 0
      vertex 6.37032 3.6101 0
    endloop
  endfacet
  facet normal 0 0 -1
    outer loop
      vertex 6.21352 3.88168 0
      vertex 10 27 0
      vertex 10 0 0
    endloop
  endfacet
  facet normal 0 0 -1
    outer loop
      vertex 6.21352 3.88168 0
      vertex 6.21352 23.1183 0
      vertex 10 27 0
    endloop
  endfacet
  facet normal -0.866021 -0.500008 0
    outer loop
      vertex 6.21352 3.88168 0
      vertex 6.37032 3.6101 0
      vertex 6.21352 3.88168 2
    endloop
  endfacet
  facet normal -0 0 1
    outer loop
      vertex 6.21352 3.88168 2
      vertex 10 0 2
      vertex 6.21352 23.1183 2
    endloop
  endfacet
  facet normal -0.866021 -0.500008 0
    outer loop
      vertex 6.21352 3.88168 2
      vertex 6.37032 3.6101 0
      vertex 6.37032 3.6101 2
    endloop
  endfacet
  facet normal 0 0 1
    outer loop
      vertex 6.21352 3.88168 2
      vertex 6.37032 3.6101 2
      vertex 10 0 2
    endloop
  endfacet
  facet normal -0.95106 0.309005 0
    outer loop
      vertex 6.37032 2.38989 0
      vertex 6.37032 2.38989 2
      vertex 6.46722 2.68813 2
    endloop
  endfacet
  facet normal 0 0 -1
    outer loop
      vertex 6.37032 2.38989 0
      vertex 6.46722 2.68813 0
      vertex 10 0 0
    endloop
  endfacet
  facet normal -0.95106 0.309005 0
    outer loop
      vertex 6.37032 2.38989 0
      vertex 6.46722 2.68813 2
      vertex 6.46722 2.68813 0
    endloop
  endfacet
  facet normal -0 0 1
    outer loop
      vertex 6.37032 2.38989 2
      vertex 10 0 2
      vertex 6.46722 2.68813 2
    endloop
  endfacet
  facet normal -0.951048 0.309043 0
    outer loop
      vertex 6.37032 23.3899 0
      vertex 6.37032 23.3899 2
      vertex 6.46722 23.6881 2
    endloop
  endfacet
  facet normal 0 0 -1
    outer loop
      vertex 6.37032 23.3899 0
      vertex 6.46722 23.6881 0
      vertex 10 27 0
    endloop
  endfacet
  facet normal -0.951048 0.309043 0
    outer loop
      vertex 6.37032 23.3899 0
      vertex 6.46722 23.6881 2
      vertex 6.46722 23.6881 0
    endloop
  endfacet
  facet normal 0 0 1
    outer loop
      vertex 6.37032 23.3899 2
      vertex 10 27 2
      vertex 6.46722 23.6881 2
    endloop
  endfacet
  facet normal 0 0 -1
    outer loop
      vertex 6.37032 24.6101 0
      vertex 10 27 0
      vertex 6.46722 24.3119 0
    endloop
  endfacet
  facet normal -0.951048 -0.309043 0
    outer loop
      vertex 6.37032 24.6101 0
      vertex 6.46722 24.3119 0
      vertex 6.37032 24.6101 2
    endloop
  endfacet
  facet normal -0.951048 -0.309043 0
    outer loop
      vertex 6.37032 24.6101 2
      vertex 6.46722 24.3119 0
      vertex 6.46722 24.3119 2
    endloop
  endfacet
  facet normal 0 0 1
    outer loop
      vertex 6.37032 24.6101 2
      vertex 6.46722 24.3119 2
      vertex 10 27 2
    endloop
  endfacet
  facet normal 0 0 -1
    outer loop
      vertex 6.37032 3.6101 0
      vertex 10 0 0
      vertex 6.46722 3.31187 0
    endloop
  endfacet
  facet normal -0.951057 -0.309015 0
    outer loop
      vertex 6.37032 3.6101 0
      vertex 6.46722 3.31187 0
      vertex 6.37032 3.6101 2
    endloop
  endfacet
  facet normal -0.951057 -0.309015 0
    outer loop
      vertex 6.37032 3.6101 2
      vertex 6.46722 3.31187 0
      vertex 6.46722 3.31187 2
    endloop
  endfacet
  facet normal 0 0 1
    outer loop
      vertex 6.37032 3.6101 2
      vertex 6.46722 3.31187 2
      vertex 10 0 2
    endloop
  endfacet
  facet normal -0.994522 0.104532 0
    outer loop
      vertex 6.46722 2.68813 0
      vertex 6.46722 2.68813 2
      vertex 6.5 3 2
    endloop
  endfacet
  facet normal 0 0 -1
    outer loop
      vertex 6.46722 2.68813 0
      vertex 6.5 3 0
      vertex 10 0 0
    endloop
  endfacet
  facet normal -0.994522 0.104532 0
    outer loop
      vertex 6.46722 2.68813 0
      vertex 6.5 3 2
      vertex 6.5 3 0
    endloop
  endfacet
  facet normal -0 0 1
    outer loop
      vertex 6.46722 2.68813 2
      vertex 10 0 2
      vertex 6.5 3 2
    endloop
  endfacet
  facet normal -0.994523 0.104522 0
    outer loop
      vertex 6.46722 23.6881 0
      vertex 6.46722 23.6881 2
      vertex 6.5 24 2
    endloop
  endfacet
  facet normal 0 0 -1
    outer loop
      vertex 6.46722 23.6881 0
      vertex 6.5 24 0
      vertex 10 27 0
    endloop
  endfacet
  facet normal -0.994523 0.104522 0
    outer loop
      vertex 6.46722 23.6881 0
      vertex 6.5 24 2
      vertex 6.5 24 0
    endloop
  endfacet
  facet normal 0 0 1
    outer loop
      vertex 6.46722 23.6881 2
      vertex 10 27 2
      vertex 6.5 24 2
    endloop
  endfacet
  facet normal 0 0 -1
    outer loop
      vertex 6.46722 24.3119 0
      vertex 10 27 0
      vertex 6.5 24 0
    endloop
  endfacet
  facet normal -0.994523 -0.104522 0
    outer loop
      vertex 6.46722 24.3119 0
      vertex 6.5 24 0
      vertex 6.46722 24.3119 2
    endloop
  endfacet
  facet normal -0.994523 -0.104522 0
    outer loop
      vertex 6.46722 24.3119 2
      vertex 6.5 24 0
      vertex 6.5 24 2
    endloop
  endfacet
  facet normal 0 0 1
    outer loop
      vertex 6.46722 24.3119 2
      vertex 6.5 24 2
      vertex 10 27 2
    endloop
  endfacet
  facet normal 0 0 -1
    outer loop
      vertex 6.46722 3.31187 0
      vertex 10 0 0
      vertex 6.5 3 0
    endloop
  endfacet
  facet normal -0.994522 -0.104532 0
    outer loop
      vertex 6.46722 3.31187 0
      vertex 6.5 3 0
      vertex 6.46722 3.31187 2
    endloop
  endfacet
  facet normal -0.994522 -0.104532 0
    outer loop
      vertex 6.46722 3.31187 2
      vertex 6.5 3 0
      vertex 6.5 3 2
    endloop
  endfacet
  facet normal 0 0 1
    outer loop
      vertex 6.46722 3.31187 2
      vertex 6.5 3 2
      vertex 10 0 2
    endloop
  endfacet
endsolid model
