solid model
  facet normal -1 -0 0
    outer loop
      vertex -70 -50 -100
      vertex -70 -50 100
      vertex -70 50 100
    endloop
  endfacet
  facet normal -0 0 -1
    outer loop
      vertex -70 -50 -100
      vertex -70 50 -100
      vertex 200 50 -100
    endloop
  endfacet
  facet normal -1 0 0
    outer loop
      vertex -70 -50 -100
      vertex -70 50 100
      vertex -70 50 -100
    endloop
  endfacet
  facet normal 0 -1 -0
    outer loop
      vertex -70 -50 -100
      vertex 200 -50 -100
      vertex 200 -50 100
    endloop
  endfacet
  facet normal 0 -1 0
    outer loop
      vertex -70 -50 -100
      vertex 200 -50 100
      vertex -70 -50 100
    endloop
  endfacet
  facet normal 0 0 -1
    outer loop
      vertex -70 -50 -100
      vertex 200 50 -100
      vertex 200 -50 -100
    endloop
  endfacet
  facet normal 0 0 1
    outer loop
      vertex -70 -50 100
      vertex 200 -50 100
      vertex -70 50 100
    endloop
  endfacet
  facet normal 0 1 0
    outer loop
      vertex -70 50 -100
      vertex -70 50 100
      vertex 200 50 -100
    endloop
  endfacet
  facet normal -0 0 1
    outer loop
      vertex -70 50 100
      vertex 200 -50 100
      vertex 200 50 100
    endloop
  endfacet
  facet normal 0 1 -0
    outer loop
      vertex -70 50 100
      vertex 200 50 100
      vertex 200 50 -100
    endloop
  endfacet
  facet normal 1 0 0
    outer loop
      vertex 200 -50 -100
      vertex 200 50 -100
      vertex 200 -50 100
    endloop
  endfacet
  facet normal 1 -0 0
    outer loop
      vertex 200 -50 100
      vertex 200 50 -100
      vertex 200 50 100
    endloop
  endfacet
endsolid model
