solid model
  facet normal -1 -0 0
    outer loop
      vertex 0 0 0
      vertex 0 0 2.22327
      vertex 0 17 1.77811
    endloop
  endfacet
  facet normal 0 0 -1
    outer loop
      vertex 0 0 0
      vertex 0 17 0
      vertex 4 8.51309 0
    endloop
  endfacet
  facet normal -1 0 0
    outer loop
      vertex 0 0 0
      vertex 0 17 1.77811
      vertex 0 17 0
    endloop
  endfacet
  facet normal 0 -1 -0
    outer loop
      vertex 0 0 0
      vertex 18.2938 0 0
      vertex 18.2938 0 2.22327
    endloop
  endfacet
  facet normal 0 -1 0
    outer loop
      vertex 0 0 0
      vertex 18.2938 0 2.22327
      vertex 0 0 2.22327
    endloop
  endfacet
  facet normal -0 0 -1
    outer loop
      vertex 0 0 0
      vertex 4 8.51309 0
      vertex 4.07831 8.0185 0
    endloop
  endfacet
  facet normal -0 0 -1
    outer loop
      vertex 0 0 0
      vertex 4.07831 8.0185 0
      vertex 4.27847 7.62551 0
    endloop
  endfacet
  facet normal -0 0 -1
    outer loop
      vertex 0 0 0
      vertex 4.27847 7.62551 0
      vertex 4.30557 7.57231 0
    endloop
  endfacet
  facet normal -0 0 -1
    outer loop
      vertex 0 0 0
      vertex 4.30557 7.57231 0
      vertex 4.65954 7.21822 0
    endloop
  endfacet
  facet normal -0 0 -1
    outer loop
      vertex 0 0 0
      vertex 4.65954 7.21822 0
      vertex 5.10557 6.99088 0
    endloop
  endfacet
  facet normal -0 0 -1
    outer loop
      vertex 0 0 0
      vertex 5.10557 6.99088 0
      vertex 5.16244 6.98187 0
    endloop
  endfacet
  facet normal -0 0 -1
    outer loop
      vertex 0 0 0
      vertex 5.16244 6.98187 0
      vertex 5.6 6.91254 0
    endloop
  endfacet
  facet normal 0 0 -1
    outer loop
      vertex 0 0 0
      vertex 5.6 6.91254 0
      vertex 6.03756 6.98187 0
    endloop
  endfacet
  facet normal 0 0 -1
    outer loop
      vertex 0 0 0
      vertex 6.03756 6.98187 0
      vertex 6.09443 6.99088 0
    endloop
  endfacet
  facet normal 0 0 -1
    outer loop
      vertex 0 0 0
      vertex 6.09443 6.99088 0
      vertex 18.2938 0 0
    endloop
  endfacet
  facet normal 1.22584e-06 0.0261758 0.999657
    outer loop
      vertex 0 0 2.22327
      vertex 10.9991 4.22178 2.11271
      vertex 5.6 6.96599 2.04086
    endloop
  endfacet
  facet normal 0 0.026179 0.999657
    outer loop
      vertex 0 0 2.22327
      vertex 18.2938 0 2.22327
      vertex 10.9991 4.22178 2.11271
    endloop
  endfacet
  facet normal 1.59842e-06 0.0261769 0.999657
    outer loop
      vertex 0 0 2.22327
      vertex 4 8.56544 1.99897
      vertex 0 17 1.77811
    endloop
  endfacet
  facet normal 9.71206e-06 0.0261731 0.999657
    outer loop
      vertex 0 0 2.22327
      vertex 4.07831 8.07118 2.01191
      vertex 4 8.56544 1.99897
    endloop
  endfacet
  facet normal -5.9468e-06 0.026181 0.999657
    outer loop
      vertex 0 0 2.22327
      vertex 4.16354 7.90396 2.01629
      vertex 4.07831 8.07118 2.01191
    endloop
  endfacet
  facet normal -9.57315e-06 0.0261829 0.999657
    outer loop
      vertex 0 0 2.22327
      vertex 4.30557 7.6253 2.02359
      vertex 4.16354 7.90396 2.01629
    endloop
  endfacet
  facet normal -7.046e-06 0.0261815 0.999657
    outer loop
      vertex 0 0 2.22327
      vertex 4.65954 7.27145 2.03286
      vertex 4.30557 7.6253 2.02359
    endloop
  endfacet
  facet normal -1.80877e-06 0.0261782 0.999657
    outer loop
      vertex 0 0 2.22327
      vertex 5.10557 7.04427 2.03881
      vertex 4.65954 7.27145 2.03286
    endloop
  endfacet
  facet normal 2.93234e-06 0.0261747 0.999657
    outer loop
      vertex 0 0 2.22327
      vertex 5.41457 6.99535 2.04009
      vertex 5.10557 7.04427 2.03881
    endloop
  endfacet
  facet normal -5.66703e-06 0.0261814 0.999657
    outer loop
      vertex 0 0 2.22327
      vertex 5.6 6.96599 2.04086
      vertex 5.41457 6.99535 2.04009
    endloop
  endfacet
  facet normal 0 1 0
    outer loop
      vertex 0 17 0
      vertex 0 17 1.77811
      vertex 18.2938 17 0
    endloop
  endfacet
  facet normal 0 0 -1
    outer loop
      vertex 0 17 0
      vertex 18.2938 17 0
      vertex 6.09443 10.0353 0
    endloop
  endfacet
  facet normal 0 0 -1
    outer loop
      vertex 0 17 0
      vertex 4.07831 9.00769 0
      vertex 4 8.51309 0
    endloop
  endfacet
  facet normal 0 0 -1
    outer loop
      vertex 0 17 0
      vertex 4.30557 9.45387 0
      vertex 4.07831 9.00769 0
    endloop
  endfacet
  facet normal 0 0 -1
    outer loop
      vertex 0 17 0
      vertex 4.65954 9.80796 0
      vertex 4.30557 9.45387 0
    endloop
  endfacet
  facet normal 0 0 -1
    outer loop
      vertex 0 17 0
      vertex 5.10557 10.0353 0
      vertex 4.65954 9.80796 0
    endloop
  endfacet
  facet normal 0 0 -1
    outer loop
      vertex 0 17 0
      vertex 5.6 10.1136 0
      vertex 5.10557 10.0353 0
    endloop
  endfacet
  facet normal 0 0 -1
    outer loop
      vertex 0 17 0
      vertex 6.09443 10.0353 0
      vertex 5.6 10.1136 0
    endloop
  endfacet
  facet normal -0 0.0261769 0.999657
    outer loop
      vertex 0 17 1.77811
      vertex 10.2226 12.4991 1.89597
      vertex 18.2938 17 1.77811
    endloop
  endfacet
  facet normal 0 1 -0
    outer loop
      vertex 0 17 1.77811
      vertex 18.2938 17 1.77811
      vertex 18.2938 17 0
    endloop
  endfacet
  facet normal -7.22287e-06 0.0261727 0.999657
    outer loop
      vertex 0 17 1.77811
      vertex 4 8.56544 1.99897
      vertex 4.07831 9.0597 1.98603
    endloop
  endfacet
  facet normal 1.03234e-05 0.0261817 0.999657
    outer loop
      vertex 0 17 1.77811
      vertex 4.07831 9.0597 1.98603
      vertex 4.30557 9.50557 1.97435
    endloop
  endfacet
  facet normal -9.83833e-06 0.0261702 0.999658
    outer loop
      vertex 0 17 1.77811
      vertex 4.30557 9.50557 1.97435
      vertex 4.65954 9.85942 1.96509
    endloop
  endfacet
  facet normal 1.96343e-06 0.0261779 0.999657
    outer loop
      vertex 0 17 1.77811
      vertex 4.65954 9.85942 1.96509
      vertex 5.10557 10.0866 1.95914
    endloop
  endfacet
  facet normal -5.70528e-07 0.026176 0.999657
    outer loop
      vertex 0 17 1.77811
      vertex 5.10557 10.0866 1.95914
      vertex 5.6 10.1649 1.95709
    endloop
  endfacet
  facet normal -3.08933e-07 0.0261762 0.999657
    outer loop
      vertex 0 17 1.77811
      vertex 5.6 10.1649 1.95709
      vertex 10.2226 12.4991 1.89597
    endloop
  endfacet
  facet normal 0 0.0261779 0.999657
    outer loop
      vertex 10.2226 12.4939 1.69603
      vertex 10.7414 10.3348 1.75257
      vertex 10.7414 12.4939 1.69603
    endloop
  endfacet
  facet normal 0 -0.999662 0.025999
    outer loop
      vertex 10.2226 12.4939 1.69603
      vertex 10.7414 12.4939 1.69603
      vertex 10.7414 12.4991 1.89597
    endloop
  endfacet
  facet normal 0 -0.999662 0.025999
    outer loop
      vertex 10.2226 12.4939 1.69603
      vertex 10.7414 12.4991 1.89597
      vertex 10.2226 12.4991 1.89597
    endloop
  endfacet
  facet normal 0 0.0261769 0.999657
    outer loop
      vertex 10.2226 12.4991 1.89597
      vertex 10.7414 12.4991 1.89597
      vertex 18.2938 17 1.77811
    endloop
  endfacet
  facet normal 0.823958 0.566457 -0.014818
    outer loop
      vertex 10.2226 5.34526 1.88323
      vertex 10.2226 5.35049 2.08316
      vertex 10.9991 4.22178 2.11271
    endloop
  endfacet
  facet normal 1 0 0
    outer loop
      vertex 10.2226 5.34526 1.88323
      vertex 10.2226 5.90792 1.86849
      vertex 10.2226 5.35049 2.08316
    endloop
  endfacet
  facet normal 5.42504e-06 0.026188 0.999657
    outer loop
      vertex 10.2226 5.34526 1.88323
      vertex 10.8058 5.29437 1.88456
      vertex 10.2226 5.90792 1.86849
    endloop
  endfacet
  facet normal 4.20363e-06 0.026174 0.999657
    outer loop
      vertex 10.2226 5.34526 1.88323
      vertex 10.9991 4.21654 1.91278
      vertex 10.8058 5.29437 1.88456
    endloop
  endfacet
  facet normal 0.82396 0.566453 -0.0148463
    outer loop
      vertex 10.2226 5.34526 1.88323
      vertex 10.9991 4.22178 2.11271
      vertex 10.9991 4.21654 1.91278
    endloop
  endfacet
  facet normal 1 0 0
    outer loop
      vertex 10.2226 5.35049 2.08316
      vertex 10.2226 5.90792 1.86849
      vertex 10.2226 5.91315 2.06842
    endloop
  endfacet
  facet normal 0 0.0261829 0.999657
    outer loop
      vertex 10.2226 5.90792 1.86849
      vertex 10.8058 5.29437 1.88456
      vertex 14.4813 5.90792 1.86849
    endloop
  endfacet
  facet normal 0 -0.999658 0.0261502
    outer loop
      vertex 10.2226 5.90792 1.86849
      vertex 14.4813 5.90792 1.86849
      vertex 14.4813 5.91315 2.06842
    endloop
  endfacet
  facet normal 0 -0.999658 0.0261502
    outer loop
      vertex 10.2226 5.90792 1.86849
      vertex 14.4813 5.91315 2.06842
      vertex 10.2226 5.91315 2.06842
    endloop
  endfacet
  facet normal 5.66033e-07 0.0261755 0.999657
    outer loop
      vertex 10.2226 5.91315 2.06842
      vertex 12.7927 9.62483 1.97123
      vertex 10.2226 9.78414 1.96706
    endloop
  endfacet
  facet normal -8.85687e-08 0.026176 0.999657
    outer loop
      vertex 10.2226 5.91315 2.06842
      vertex 14.2575 7.95823 2.01487
      vertex 12.7927 9.62483 1.97123
    endloop
  endfacet
  facet normal 0 0.0261748 0.999657
    outer loop
      vertex 10.2226 5.91315 2.06842
      vertex 14.4813 5.91315 2.06842
      vertex 14.4813 7.0757 2.03798
    endloop
  endfacet
  facet normal -5.76445e-07 0.026177 0.999657
    outer loop
      vertex 10.2226 5.91315 2.06842
      vertex 14.4813 7.0757 2.03798
      vertex 14.2575 7.95823 2.01487
    endloop
  endfacet
  facet normal 1 0 0
    outer loop
      vertex 10.2226 9.7789 1.76713
      vertex 10.2226 12.4939 1.69603
      vertex 10.2226 9.78414 1.96706
    endloop
  endfacet
  facet normal 0.0618844 0.997741 -0.02615
    outer loop
      vertex 10.2226 9.7789 1.76713
      vertex 10.2226 9.78414 1.96706
      vertex 12.7927 9.6196 1.7713
    endloop
  endfacet
  facet normal 4.19439e-06 0.0261789 0.999657
    outer loop
      vertex 10.2226 9.7789 1.76713
      vertex 10.7414 10.3348 1.75257
      vertex 10.2226 12.4939 1.69603
    endloop
  endfacet
  facet normal -5.21144e-07 0.0261833 0.999657
    outer loop
      vertex 10.2226 9.7789 1.76713
      vertex 12.257 10.2432 1.75497
      vertex 10.7414 10.3348 1.75257
    endloop
  endfacet
  facet normal 6.30477e-07 0.0261782 0.999657
    outer loop
      vertex 10.2226 9.7789 1.76713
      vertex 12.7927 9.6196 1.7713
      vertex 12.257 10.2432 1.75497
    endloop
  endfacet
  facet normal 1 0 0
    outer loop
      vertex 10.2226 9.78414 1.96706
      vertex 10.2226 12.4939 1.69603
      vertex 10.2226 12.4991 1.89597
    endloop
  endfacet
  facet normal 0.0618883 0.997742 -0.0261001
    outer loop
      vertex 10.2226 9.78414 1.96706
      vertex 12.7927 9.62483 1.97123
      vertex 12.7927 9.6196 1.7713
    endloop
  endfacet
  facet normal -1 0 -0
    outer loop
      vertex 10.7414 10.3348 1.75257
      vertex 10.7414 10.34 1.9525
      vertex 10.7414 12.4939 1.69603
    endloop
  endfacet
  facet normal -0.0603487 -0.99784 0.0259529
    outer loop
      vertex 10.7414 10.3348 1.75257
      vertex 12.257 10.2432 1.75497
      vertex 10.7414 10.34 1.9525
    endloop
  endfacet
  facet normal -1 0 0
    outer loop
      vertex 10.7414 10.34 1.9525
      vertex 10.7414 12.4991 1.89597
      vertex 10.7414 12.4939 1.69603
    endloop
  endfacet
  facet normal 1.78582e-06 0.0261732 0.999657
    outer loop
      vertex 10.7414 10.34 1.9525
      vertex 11.9519 11.2348 1.92907
      vertex 10.7414 12.4991 1.89597
    endloop
  endfacet
  facet normal 5.25975e-06 0.0261685 0.999658
    outer loop
      vertex 10.7414 10.34 1.9525
      vertex 11.9858 10.8631 1.9388
      vertex 11.9519 11.2348 1.92907
    endloop
  endfacet
  facet normal 1.44643e-06 0.0261776 0.999657
    outer loop
      vertex 10.7414 10.34 1.9525
      vertex 12.0875 10.5343 1.94741
      vertex 11.9858 10.8631 1.9388
    endloop
  endfacet
  facet normal -0.0602831 -0.997831 0.0264518
    outer loop
      vertex 10.7414 10.34 1.9525
      vertex 12.257 10.2432 1.75497
      vertex 12.257 10.2485 1.9549
    endloop
  endfacet
  facet normal -1.40022e-06 0.0261973 0.999657
    outer loop
      vertex 10.7414 10.34 1.9525
      vertex 12.257 10.2485 1.9549
      vertex 12.0875 10.5343 1.94741
    endloop
  endfacet
  facet normal -4.92463e-06 0.0261668 0.999658
    outer loop
      vertex 10.7414 12.4991 1.89597
      vertex 11.9519 11.2348 1.92907
      vertex 11.9978 11.673 1.9176
    endloop
  endfacet
  facet normal 2.46765e-06 0.0261781 0.999657
    outer loop
      vertex 10.7414 12.4991 1.89597
      vertex 11.9978 11.673 1.9176
      vertex 12.1357 12.0476 1.90779
    endloop
  endfacet
  facet normal 6.92187e-07 0.0261726 0.999657
    outer loop
      vertex 10.7414 12.4991 1.89597
      vertex 12.1357 12.0476 1.90779
      vertex 12.3655 12.3585 1.89965
    endloop
  endfacet
  facet normal 1.55549e-06 0.0261825 0.999657
    outer loop
      vertex 10.7414 12.4991 1.89597
      vertex 12.3655 12.3585 1.89965
      vertex 12.6692 12.591 1.89356
    endloop
  endfacet
  facet normal -6.73758e-07 0.0262293 0.999656
    outer loop
      vertex 10.7414 12.4991 1.89597
      vertex 12.6692 12.591 1.89356
      vertex 13.0285 12.7305 1.8899
    endloop
  endfacet
  facet normal 5.5746e-06 0.0261676 0.999658
    outer loop
      vertex 10.7414 12.4991 1.89597
      vertex 13.0285 12.7305 1.8899
      vertex 18.2938 17 1.77811
    endloop
  endfacet
  facet normal 0 0.999657 -0.0262002
    outer loop
      vertex 10.8058 5.29437 1.88456
      vertex 10.8058 5.29961 2.08449
      vertex 14.4813 5.29437 1.88456
    endloop
  endfacet
  facet normal 0 0.0261733 0.999657
    outer loop
      vertex 10.8058 5.29437 1.88456
      vertex 10.9991 4.21654 1.91278
      vertex 11.5755 4.21654 1.91278
    endloop
  endfacet
  facet normal -0.813891 -0.580818 0.0152227
    outer loop
      vertex 10.8058 5.29437 1.88456
      vertex 11.5755 4.21654 1.91278
      vertex 11.5755 4.22178 2.11271
    endloop
  endfacet
  facet normal -0.813891 -0.580818 0.0152227
    outer loop
      vertex 10.8058 5.29437 1.88456
      vertex 11.5755 4.22178 2.11271
      vertex 10.8058 5.29961 2.08449
    endloop
  endfacet
  facet normal 0 0.0261829 0.999657
    outer loop
      vertex 10.8058 5.29437 1.88456
      vertex 14.4813 5.29437 1.88456
      vertex 14.4813 5.90792 1.86849
    endloop
  endfacet
  facet normal 0 0.0261733 0.999657
    outer loop
      vertex 10.8058 5.29961 2.08449
      vertex 11.5755 4.22178 2.11271
      vertex 14.4813 5.29961 2.08449
    endloop
  endfacet
  facet normal 0 0.999657 -0.0262002
    outer loop
      vertex 10.8058 5.29961 2.08449
      vertex 14.4813 5.29961 2.08449
      vertex 14.4813 5.29437 1.88456
    endloop
  endfacet
  facet normal 0 0.999657 -0.0262002
    outer loop
      vertex 10.9991 4.21654 1.91278
      vertex 10.9991 4.22178 2.11271
      vertex 11.5755 4.21654 1.91278
    endloop
  endfacet
  facet normal 0 0.999657 -0.0262002
    outer loop
      vertex 10.9991 4.22178 2.11271
      vertex 11.5755 4.22178 2.11271
      vertex 11.5755 4.21654 1.91278
    endloop
  endfacet
  facet normal -0 0.026179 0.999657
    outer loop
      vertex 10.9991 4.22178 2.11271
      vertex 18.2938 0 2.22327
      vertex 11.5755 4.22178 2.11271
    endloop
  endfacet
  facet normal -6.02839e-07 0.0261749 0.999657
    outer loop
      vertex 11.5755 4.22178 2.11271
      vertex 14.4813 4.08283 2.11635
      vertex 14.4813 5.29961 2.08449
    endloop
  endfacet
  facet normal -4.38101e-07 0.0261783 0.999657
    outer loop
      vertex 11.5755 4.22178 2.11271
      vertex 18.2938 0 2.22327
      vertex 14.4813 4.08283 2.11635
    endloop
  endfacet
  facet normal 0.99587 0.0907641 -0.00236069
    outer loop
      vertex 11.9519 11.2296 1.72914
      vertex 11.9519 11.2348 1.92907
      vertex 11.9858 10.8631 1.9388
    endloop
  endfacet
  facet normal 5.33506e-06 0.0261685 0.999658
    outer loop
      vertex 11.9519 11.2296 1.72914
      vertex 11.9858 10.8579 1.73887
      vertex 12.4503 11.1042 1.73242
    endloop
  endfacet
  facet normal 0.99587 0.0907641 -0.00236069
    outer loop
      vertex 11.9519 11.2296 1.72914
      vertex 11.9858 10.8631 1.9388
      vertex 11.9858 10.8579 1.73887
    endloop
  endfacet
  facet normal 0.994563 -0.104106 0.00270771
    outer loop
      vertex 11.9519 11.2296 1.72914
      vertex 11.9978 11.6678 1.71766
      vertex 11.9519 11.2348 1.92907
    endloop
  endfacet
  facet normal 1.44558e-06 0.0261531 0.999658
    outer loop
      vertex 11.9519 11.2296 1.72914
      vertex 12.4503 11.1042 1.73242
      vertex 12.4812 11.3989 1.72471
    endloop
  endfacet
  facet normal -1.04261e-05 0.0261902 0.999657
    outer loop
      vertex 11.9519 11.2296 1.72914
      vertex 12.4812 11.3989 1.72471
      vertex 11.9978 11.6678 1.71766
    endloop
  endfacet
  facet normal 0.994562 -0.104106 0.00270758
    outer loop
      vertex 11.9519 11.2348 1.92907
      vertex 11.9978 11.6678 1.71766
      vertex 11.9978 11.673 1.9176
    endloop
  endfacet
  facet normal 0.955373 0.295302 -0.00768054
    outer loop
      vertex 11.9858 10.8579 1.73887
      vertex 11.9858 10.8631 1.9388
      vertex 12.0875 10.5343 1.94741
    endloop
  endfacet
  facet normal 3.12298e-06 0.0261781 0.999657
    outer loop
      vertex 11.9858 10.8579 1.73887
      vertex 12.0875 10.5291 1.74748
      vertex 12.4589 10.943 1.73664
    endloop
  endfacet
  facet normal 0.955373 0.295302 -0.00768054
    outer loop
      vertex 11.9858 10.8579 1.73887
      vertex 12.0875 10.5343 1.94741
      vertex 12.0875 10.5291 1.74748
    endloop
  endfacet
  facet normal 4.59609e-06 0.0261699 0.999658
    outer loop
      vertex 11.9858 10.8579 1.73887
      vertex 12.4589 10.943 1.73664
      vertex 12.4503 11.1042 1.73242
    endloop
  endfacet
  facet normal 0.938441 -0.345322 0.00898106
    outer loop
      vertex 11.9978 11.6678 1.71766
      vertex 12.1357 12.0423 1.70786
      vertex 11.9978 11.673 1.9176
    endloop
  endfacet
  facet normal -2.17781e-06 0.026205 0.999657
    outer loop
      vertex 11.9978 11.6678 1.71766
      vertex 12.4812 11.3989 1.72471
      vertex 12.5738 11.6503 1.71812
    endloop
  endfacet
  facet normal -3.52887e-06 0.0261606 0.999658
    outer loop
      vertex 11.9978 11.6678 1.71766
      vertex 12.5738 11.6503 1.71812
      vertex 12.1357 12.0423 1.70786
    endloop
  endfacet
  facet normal 0.938471 -0.345236 0.00915196
    outer loop
      vertex 11.9978 11.673 1.9176
      vertex 12.1357 12.0423 1.70786
      vertex 12.1357 12.0476 1.90779
    endloop
  endfacet
  facet normal 0.860187 0.509806 -0.0132596
    outer loop
      vertex 12.0875 10.5291 1.74748
      vertex 12.0875 10.5343 1.94741
      vertex 12.257 10.2485 1.9549
    endloop
  endfacet
  facet normal 1.59544e-06 0.0261899 0.999657
    outer loop
      vertex 12.0875 10.5291 1.74748
      vertex 12.257 10.2432 1.75497
      vertex 12.5283 10.6432 1.74449
    endloop
  endfacet
  facet normal 0.860266 0.509667 -0.0135109
    outer loop
      vertex 12.0875 10.5291 1.74748
      vertex 12.257 10.2485 1.9549
      vertex 12.257 10.2432 1.75497
    endloop
  endfacet
  facet normal -2.81278e-05 0.0262061 0.999657
    outer loop
      vertex 12.0875 10.5291 1.74748
      vertex 12.4849 10.7893 1.74067
      vertex 12.4589 10.943 1.73664
    endloop
  endfacet
  facet normal 1.40826e-05 0.0261417 0.999658
    outer loop
      vertex 12.0875 10.5291 1.74748
      vertex 12.5283 10.6432 1.74449
      vertex 12.4849 10.7893 1.74067
    endloop
  endfacet
  facet normal 0.804268 -0.594058 0.015748
    outer loop
      vertex 12.1357 12.0423 1.70786
      vertex 12.3655 12.3532 1.69972
      vertex 12.1357 12.0476 1.90779
    endloop
  endfacet
  facet normal -1.05443e-05 0.0261527 0.999658
    outer loop
      vertex 12.1357 12.0423 1.70786
      vertex 12.5738 11.6503 1.71812
      vertex 12.7283 11.8583 1.71268
    endloop
  endfacet
  facet normal -3.43336e-06 0.0261756 0.999657
    outer loop
      vertex 12.1357 12.0423 1.70786
      vertex 12.7283 11.8583 1.71268
      vertex 12.3655 12.3532 1.69972
    endloop
  endfacet
  facet normal 0.804268 -0.594058 0.015748
    outer loop
      vertex 12.1357 12.0476 1.90779
      vertex 12.3655 12.3532 1.69972
      vertex 12.3655 12.3585 1.89965
    endloop
  endfacet
  facet normal -1.08364e-05 0.0261984 0.999657
    outer loop
      vertex 12.257 10.2432 1.75497
      vertex 12.5923 10.5009 1.74822
      vertex 12.5283 10.6432 1.74449
    endloop
  endfacet
  facet normal -2.97981e-07 0.0261847 0.999657
    outer loop
      vertex 12.257 10.2432 1.75497
      vertex 12.6804 10.3585 1.75195
      vertex 12.5923 10.5009 1.74822
    endloop
  endfacet
  facet normal -2.86629e-07 0.0261846 0.999657
    outer loop
      vertex 12.257 10.2432 1.75497
      vertex 12.7927 10.2161 1.75568
      vertex 12.6804 10.3585 1.75195
    endloop
  endfacet
  facet normal -6.66344e-07 0.0261771 0.999657
    outer loop
      vertex 12.257 10.2432 1.75497
      vertex 12.7927 9.6196 1.7713
      vertex 12.7927 10.2161 1.75568
    endloop
  endfacet
  facet normal 0.608173 -0.793536 0.0206392
    outer loop
      vertex 12.3655 12.3532 1.69972
      vertex 12.6692 12.5858 1.69363
      vertex 12.6692 12.591 1.89356
    endloop
  endfacet
  facet normal 0.608008 -0.793652 0.0210391
    outer loop
      vertex 12.3655 12.3532 1.69972
      vertex 12.6692 12.591 1.89356
      vertex 12.3655 12.3585 1.89965
    endloop
  endfacet
  facet normal 1.64247e-06 0.0261793 0.999657
    outer loop
      vertex 12.3655 12.3532 1.69972
      vertex 12.7283 11.8583 1.71268
      vertex 12.9329 12.0137 1.70861
    endloop
  endfacet
  facet normal -1.10136e-06 0.0261748 0.999657
    outer loop
      vertex 12.3655 12.3532 1.69972
      vertex 12.9329 12.0137 1.70861
      vertex 12.6692 12.5858 1.69363
    endloop
  endfacet
  facet normal -0.994552 0.10421 -0.00271028
    outer loop
      vertex 12.4503 11.1042 1.73242
      vertex 12.4503 11.1094 1.93236
      vertex 12.4812 11.3989 1.72471
    endloop
  endfacet
  facet normal -0.998581 -0.0532379 0.0013846
    outer loop
      vertex 12.4503 11.1042 1.73242
      vertex 12.4589 10.943 1.73664
      vertex 12.4589 10.9482 1.93658
    endloop
  endfacet
  facet normal -0.998581 -0.0532379 0.0013846
    outer loop
      vertex 12.4503 11.1042 1.73242
      vertex 12.4589 10.9482 1.93658
      vertex 12.4503 11.1094 1.93236
    endloop
  endfacet
  facet normal 1.55303e-05 0.0261705 0.999657
    outer loop
      vertex 12.4503 11.1094 1.93236
      vertex 12.4589 10.9482 1.93658
      vertex 13.4573 12.1432 1.90528
    endloop
  endfacet
  facet normal -0.994552 0.10421 -0.00271041
    outer loop
      vertex 12.4503 11.1094 1.93236
      vertex 12.4812 11.4041 1.92464
      vertex 12.4812 11.3989 1.72471
    endloop
  endfacet
  facet normal -1.73644e-06 0.0261873 0.999657
    outer loop
      vertex 12.4503 11.1094 1.93236
      vertex 13.4573 12.1432 1.90528
      vertex 12.4812 11.4041 1.92464
    endloop
  endfacet
  facet normal -0.986002 -0.166677 0.00441848
    outer loop
      vertex 12.4589 10.943 1.73664
      vertex 12.4849 10.7893 1.74067
      vertex 12.4849 10.7946 1.9406
    endloop
  endfacet
  facet normal -0.985984 -0.166785 0.00433771
    outer loop
      vertex 12.4589 10.943 1.73664
      vertex 12.4849 10.7946 1.9406
      vertex 12.4589 10.9482 1.93658
    endloop
  endfacet
  facet normal -1.13537e-05 0.026161 0.999658
    outer loop
      vertex 12.4589 10.9482 1.93658
      vertex 12.4849 10.7946 1.9406
      vertex 13.8608 10.1028 1.95872
    endloop
  endfacet
  facet normal 1.47608e-06 0.0261823 0.999657
    outer loop
      vertex 12.4589 10.9482 1.93658
      vertex 13.8608 10.1028 1.95872
      vertex 13.4573 12.1432 1.90528
    endloop
  endfacet
  facet normal -0.938407 0.345415 -0.00898393
    outer loop
      vertex 12.4812 11.3989 1.72471
      vertex 12.4812 11.4041 1.92464
      vertex 12.5738 11.6503 1.71812
    endloop
  endfacet
  facet normal -0.938407 0.345415 -0.00898349
    outer loop
      vertex 12.4812 11.4041 1.92464
      vertex 12.5738 11.6555 1.91806
      vertex 12.5738 11.6503 1.71812
    endloop
  endfacet
  facet normal 4.24968e-05 0.0261488 0.999658
    outer loop
      vertex 12.4812 11.4041 1.92464
      vertex 12.7283 11.8636 1.91261
      vertex 12.5738 11.6555 1.91806
    endloop
  endfacet
  facet normal 3.42448e-05 0.0261533 0.999658
    outer loop
      vertex 12.4812 11.4041 1.92464
      vertex 12.9329 12.0189 1.90854
      vertex 12.7283 11.8636 1.91261
    endloop
  endfacet
  facet normal -1.88197e-05 0.0261922 0.999657
    outer loop
      vertex 12.4812 11.4041 1.92464
      vertex 13.1758 12.1122 1.9061
      vertex 12.9329 12.0189 1.90854
    endloop
  endfacet
  facet normal 3.31837e-05 0.0261412 0.999658
    outer loop
      vertex 12.4812 11.4041 1.92464
      vertex 13.4573 12.1432 1.90528
      vertex 13.1758 12.1122 1.9061
    endloop
  endfacet
  facet normal -0.958626 -0.284573 0.00740111
    outer loop
      vertex 12.4849 10.7893 1.74067
      vertex 12.5283 10.6432 1.74449
      vertex 12.5283 10.6484 1.94443
    endloop
  endfacet
  facet normal -0.958679 -0.28439 0.00753897
    outer loop
      vertex 12.4849 10.7893 1.74067
      vertex 12.5283 10.6484 1.94443
      vertex 12.4849 10.7946 1.9406
    endloop
  endfacet
  facet normal 2.62864e-06 0.0261888 0.999657
    outer loop
      vertex 12.4849 10.7946 1.9406
      vertex 12.5283 10.6484 1.94443
      vertex 13.8608 10.1028 1.95872
    endloop
  endfacet
  facet normal -0.912058 -0.409922 0.0106617
    outer loop
      vertex 12.5283 10.6432 1.74449
      vertex 12.5923 10.5009 1.74822
      vertex 12.5923 10.5061 1.94815
    endloop
  endfacet
  facet normal -0.912058 -0.409923 0.0106612
    outer loop
      vertex 12.5283 10.6432 1.74449
      vertex 12.5923 10.5061 1.94815
      vertex 12.5283 10.6484 1.94443
    endloop
  endfacet
  facet normal -2.4782e-05 0.0261219 0.999659
    outer loop
      vertex 12.5283 10.6484 1.94443
      vertex 12.5923 10.5061 1.94815
      vertex 13.8608 10.1028 1.95872
    endloop
  endfacet
  facet normal -0.802868 0.595956 -0.0154995
    outer loop
      vertex 12.5738 11.6503 1.71812
      vertex 12.5738 11.6555 1.91806
      vertex 12.7283 11.8583 1.71268
    endloop
  endfacet
  facet normal -0.803005 0.595763 -0.0157932
    outer loop
      vertex 12.5738 11.6555 1.91806
      vertex 12.7283 11.8636 1.91261
      vertex 12.7283 11.8583 1.71268
    endloop
  endfacet
  facet normal -0.850486 -0.52582 0.0136761
    outer loop
      vertex 12.5923 10.5009 1.74822
      vertex 12.6804 10.3585 1.75195
      vertex 12.6804 10.3637 1.95188
    endloop
  endfacet
  facet normal -0.850486 -0.52582 0.0136761
    outer loop
      vertex 12.5923 10.5009 1.74822
      vertex 12.6804 10.3637 1.95188
      vertex 12.5923 10.5061 1.94815
    endloop
  endfacet
  facet normal -5.91788e-06 0.0261812 0.999657
    outer loop
      vertex 12.5923 10.5061 1.94815
      vertex 12.6804 10.3637 1.95188
      vertex 13.8608 10.1028 1.95872
    endloop
  endfacet
  facet normal -1.29588e-06 0.0261747 0.999657
    outer loop
      vertex 12.6692 12.5858 1.69363
      vertex 12.9329 12.0137 1.70861
      vertex 13.1758 12.1069 1.70617
    endloop
  endfacet
  facet normal 0.362041 -0.931847 0.0242365
    outer loop
      vertex 12.6692 12.5858 1.69363
      vertex 13.0285 12.7253 1.68997
      vertex 13.0285 12.7305 1.8899
    endloop
  endfacet
  facet normal 0.362041 -0.931847 0.0242365
    outer loop
      vertex 12.6692 12.5858 1.69363
      vertex 13.0285 12.7305 1.8899
      vertex 12.6692 12.591 1.89356
    endloop
  endfacet
  facet normal 1.41832e-05 0.026191 0.999657
    outer loop
      vertex 12.6692 12.5858 1.69363
      vertex 13.1758 12.1069 1.70617
      vertex 13.0285 12.7253 1.68997
    endloop
  endfacet
  facet normal -0.785311 -0.618885 0.0164062
    outer loop
      vertex 12.6804 10.3585 1.75195
      vertex 12.7927 10.2161 1.75568
      vertex 12.7927 10.2214 1.95561
    endloop
  endfacet
  facet normal -0.785099 -0.619161 0.0161038
    outer loop
      vertex 12.6804 10.3585 1.75195
      vertex 12.7927 10.2214 1.95561
      vertex 12.6804 10.3637 1.95188
    endloop
  endfacet
  facet normal -1.26154e-06 0.0262022 0.999657
    outer loop
      vertex 12.6804 10.3637 1.95188
      vertex 12.7927 10.2214 1.95561
      vertex 13.8608 10.1028 1.95872
    endloop
  endfacet
  facet normal -0.604731 0.79615 -0.0211054
    outer loop
      vertex 12.7283 11.8583 1.71268
      vertex 12.7283 11.8636 1.91261
      vertex 12.9329 12.0189 1.90854
    endloop
  endfacet
  facet normal -0.604978 0.795973 -0.0207025
    outer loop
      vertex 12.7283 11.8583 1.71268
      vertex 12.9329 12.0189 1.90854
      vertex 12.9329 12.0137 1.70861
    endloop
  endfacet
  facet normal -1 0 -0
    outer loop
      vertex 12.7927 9.6196 1.7713
      vertex 12.7927 9.62483 1.97123
      vertex 12.7927 10.2161 1.75568
    endloop
  endfacet
  facet normal -1 0 0
    outer loop
      vertex 12.7927 9.62483 1.97123
      vertex 12.7927 10.2214 1.95561
      vertex 12.7927 10.2161 1.75568
    endloop
  endfacet
  facet normal -4.39384e-06 0.026174 0.999657
    outer loop
      vertex 12.7927 9.62483 1.97123
      vertex 13.8608 10.1028 1.95872
      vertex 12.7927 10.2214 1.95561
    endloop
  endfacet
  facet normal -2.41117e-06 0.0261696 0.999658
    outer loop
      vertex 12.7927 9.62483 1.97123
      vertex 13.932 9.48589 1.97487
      vertex 13.8608 10.1028 1.95872
    endloop
  endfacet
  facet normal -1.07066e-05 0.0261667 0.999658
    outer loop
      vertex 12.7927 9.62483 1.97123
      vertex 14.2575 7.95823 2.01487
      vertex 14.2575 8.61915 1.99757
    endloop
  endfacet
  facet normal -1.05626e-06 0.0261807 0.999657
    outer loop
      vertex 12.7927 9.62483 1.97123
      vertex 14.2575 8.61915 1.99757
      vertex 13.932 9.48589 1.97487
    endloop
  endfacet
  facet normal -0.358674 0.933147 -0.0242703
    outer loop
      vertex 12.9329 12.0137 1.70861
      vertex 12.9329 12.0189 1.90854
      vertex 13.1758 12.1122 1.9061
    endloop
  endfacet
  facet normal -0.358339 0.933264 -0.0247401
    outer loop
      vertex 12.9329 12.0137 1.70861
      vertex 13.1758 12.1122 1.9061
      vertex 13.1758 12.1069 1.70617
    endloop
  endfacet
  facet normal 4.35344e-06 0.0261887 0.999657
    outer loop
      vertex 13.0285 12.7253 1.68997
      vertex 13.1758 12.1069 1.70617
      vertex 13.4437 12.7718 1.68875
    endloop
  endfacet
  facet normal 0.111336 -0.993434 0.0263339
    outer loop
      vertex 13.0285 12.7253 1.68997
      vertex 13.4437 12.7718 1.68875
      vertex 13.4437 12.7771 1.88869
    endloop
  endfacet
  facet normal 0.111572 -0.99342 0.025838
    outer loop
      vertex 13.0285 12.7253 1.68997
      vertex 13.4437 12.7771 1.88869
      vertex 13.0285 12.7305 1.8899
    endloop
  endfacet
  facet normal -2.83528e-05 0.0262094 0.999656
    outer loop
      vertex 13.0285 12.7305 1.8899
      vertex 13.4437 12.7771 1.88869
      vertex 18.2938 17 1.77811
    endloop
  endfacet
  facet normal -0.1095 0.993638 -0.0263406
    outer loop
      vertex 13.1758 12.1069 1.70617
      vertex 13.1758 12.1122 1.9061
      vertex 13.4573 12.1432 1.90528
    endloop
  endfacet
  facet normal 1.93182e-05 0.0261827 0.999657
    outer loop
      vertex 13.1758 12.1069 1.70617
      vertex 13.4573 12.138 1.70535
      vertex 13.4437 12.7718 1.68875
    endloop
  endfacet
  facet normal -0.109849 0.993612 -0.025843
    outer loop
      vertex 13.1758 12.1069 1.70617
      vertex 13.4573 12.1432 1.90528
      vertex 13.4573 12.138 1.70535
    endloop
  endfacet
  facet normal -6.54218e-06 0.0261821 0.999657
    outer loop
      vertex 13.4437 12.7718 1.68875
      vertex 13.4573 12.138 1.70535
      vertex 13.912 12.7219 1.69006
    endloop
  endfacet
  facet normal -0.105992 -0.994018 0.0263494
    outer loop
      vertex 13.4437 12.7718 1.68875
      vertex 13.912 12.7219 1.69006
      vertex 13.4437 12.7771 1.88869
    endloop
  endfacet
  facet normal -0.106201 -0.994009 0.0258533
    outer loop
      vertex 13.4437 12.7771 1.88869
      vertex 13.912 12.7219 1.69006
      vertex 13.912 12.7271 1.88999
    endloop
  endfacet
  facet normal 1.76644e-05 0.0261565 0.999658
    outer loop
      vertex 13.4437 12.7771 1.88869
      vertex 13.912 12.7271 1.88999
      vertex 18.2938 17 1.77811
    endloop
  endfacet
  facet normal 0.0958218 0.995062 -0.0258807
    outer loop
      vertex 13.4573 12.138 1.70535
      vertex 13.4573 12.1432 1.90528
      vertex 13.7784 12.1071 1.70616
    endloop
  endfacet
  facet normal -2.47012e-06 0.0261789 0.999657
    outer loop
      vertex 13.4573 12.138 1.70535
      vertex 13.7784 12.1071 1.70616
      vertex 13.912 12.7219 1.69006
    endloop
  endfacet
  facet normal 0.0958218 0.995062 -0.0258807
    outer loop
      vertex 13.4573 12.1432 1.90528
      vertex 13.7784 12.1123 1.90609
      vertex 13.7784 12.1071 1.70616
    endloop
  endfacet
  facet normal -2.2211e-06 0.0261815 0.999657
    outer loop
      vertex 13.4573 12.1432 1.90528
      vertex 13.8608 10.1028 1.95872
      vertex 13.7784 12.1123 1.90609
    endloop
  endfacet
  facet normal 0.322483 0.946255 -0.0246113
    outer loop
      vertex 13.7784 12.1071 1.70616
      vertex 13.7784 12.1123 1.90609
      vertex 14.0503 12.0145 1.70859
    endloop
  endfacet
  facet normal -1.32383e-05 0.026194 0.999657
    outer loop
      vertex 13.7784 12.1071 1.70616
      vertex 14.0503 12.0145 1.70859
      vertex 14.3087 12.5722 1.69398
    endloop
  endfacet
  facet normal 5.83374e-07 0.0261783 0.999657
    outer loop
      vertex 13.7784 12.1071 1.70616
      vertex 14.3087 12.5722 1.69398
      vertex 13.912 12.7219 1.69006
    endloop
  endfacet
  facet normal 1.60661e-07 0.0261816 0.999657
    outer loop
      vertex 13.7784 12.1123 1.90609
      vertex 13.8608 10.1028 1.95872
      vertex 14.5694 11.0959 1.93271
    endloop
  endfacet
  facet normal 0.322483 0.946255 -0.0246113
    outer loop
      vertex 13.7784 12.1123 1.90609
      vertex 14.0503 12.0197 1.90852
      vertex 14.0503 12.0145 1.70859
    endloop
  endfacet
  facet normal -2.7992e-05 0.0261507 0.999658
    outer loop
      vertex 13.7784 12.1123 1.90609
      vertex 14.5365 11.3998 1.92475
      vertex 14.0503 12.0197 1.90852
    endloop
  endfacet
  facet normal 3.50697e-06 0.0261842 0.999657
    outer loop
      vertex 13.7784 12.1123 1.90609
      vertex 14.5694 11.0959 1.93271
      vertex 14.5365 11.3998 1.92475
    endloop
  endfacet
  facet normal 0.99341 0.114574 -0.00303712
    outer loop
      vertex 13.8608 10.0975 1.75878
      vertex 13.8608 10.1028 1.95872
      vertex 13.932 9.48589 1.97487
    endloop
  endfacet
  facet normal -7.08997e-06 0.0261878 0.999657
    outer loop
      vertex 13.8608 10.0975 1.75878
      vertex 13.932 9.48065 1.77494
      vertex 14.2714 9.58648 1.77217
    endloop
  endfacet
  facet normal 0.993409 0.114586 -0.0030032
    outer loop
      vertex 13.8608 10.0975 1.75878
      vertex 13.932 9.48589 1.97487
      vertex 13.932 9.48065 1.77494
    endloop
  endfacet
  facet normal 0.446153 -0.894642 0.0237163
    outer loop
      vertex 13.8608 10.0975 1.75878
      vertex 14.2545 10.2937 1.75365
      vertex 14.2545 10.299 1.95358
    endloop
  endfacet
  facet normal 0.446154 -0.894642 0.0237151
    outer loop
      vertex 13.8608 10.0975 1.75878
      vertex 14.2545 10.299 1.95358
      vertex 13.8608 10.1028 1.95872
    endloop
  endfacet
  facet normal -1.98173e-05 0.0261776 0.999657
    outer loop
      vertex 13.8608 10.0975 1.75878
      vertex 14.2714 9.58648 1.77217
      vertex 14.2545 10.2937 1.75365
    endloop
  endfacet
  facet normal 3.40472e-06 0.0261819 0.999657
    outer loop
      vertex 13.8608 10.1028 1.95872
      vertex 14.2545 10.299 1.95358
      vertex 14.4907 10.63 1.94491
    endloop
  endfacet
  facet normal 8.88259e-06 0.0261754 0.999657
    outer loop
      vertex 13.8608 10.1028 1.95872
      vertex 14.4907 10.63 1.94491
      vertex 14.5694 11.0959 1.93271
    endloop
  endfacet
  facet normal -0.353167 -0.935244 0.0243249
    outer loop
      vertex 13.912 12.7219 1.69006
      vertex 14.3087 12.5722 1.69398
      vertex 13.912 12.7271 1.88999
    endloop
  endfacet
  facet normal -0.353167 -0.935244 0.0243249
    outer loop
      vertex 13.912 12.7271 1.88999
      vertex 14.3087 12.5722 1.69398
      vertex 14.3087 12.5774 1.89391
    endloop
  endfacet
  facet normal -5.6637e-07 0.0261752 0.999657
    outer loop
      vertex 13.912 12.7271 1.88999
      vertex 14.3087 12.5774 1.89391
      vertex 18.2938 17 1.77811
    endloop
  endfacet
  facet normal -0.297772 0.954309 -0.0250117
    outer loop
      vertex 13.932 9.48065 1.77494
      vertex 13.932 9.48589 1.97487
      vertex 14.2714 9.59172 1.9721
    endloop
  endfacet
  facet normal -0.297772 0.954309 -0.0250117
    outer loop
      vertex 13.932 9.48065 1.77494
      vertex 14.2714 9.59172 1.9721
      vertex 14.2714 9.58648 1.77217
    endloop
  endfacet
  facet normal -4.47538e-06 0.0261794 0.999657
    outer loop
      vertex 13.932 9.48589 1.97487
      vertex 14.2575 8.61915 1.99757
      vertex 14.2714 9.59172 1.9721
    endloop
  endfacet
  facet normal 0.570493 0.821025 -0.0213541
    outer loop
      vertex 14.0503 12.0145 1.70859
      vertex 14.0503 12.0197 1.90852
      vertex 14.2728 11.86 1.71263
    endloop
  endfacet
  facet normal 1.06248e-05 0.0261552 0.999658
    outer loop
      vertex 14.0503 12.0145 1.70859
      vertex 14.2728 11.86 1.71263
      vertex 14.6338 12.3227 1.70052
    endloop
  endfacet
  facet normal -8.79757e-06 0.026192 0.999657
    outer loop
      vertex 14.0503 12.0145 1.70859
      vertex 14.6338 12.3227 1.70052
      vertex 14.3087 12.5722 1.69398
    endloop
  endfacet
  facet normal 0.570244 0.821187 -0.0217691
    outer loop
      vertex 14.0503 12.0197 1.90852
      vertex 14.2728 11.8653 1.91256
      vertex 14.2728 11.86 1.71263
    endloop
  endfacet
  facet normal 8.31725e-05 0.0262766 0.999655
    outer loop
      vertex 14.0503 12.0197 1.90852
      vertex 14.4376 11.6563 1.91804
      vertex 14.2728 11.8653 1.91256
    endloop
  endfacet
  facet normal -5.46482e-05 0.0261298 0.999659
    outer loop
      vertex 14.0503 12.0197 1.90852
      vertex 14.5365 11.3998 1.92475
      vertex 14.4376 11.6563 1.91804
    endloop
  endfacet
  facet normal 1.24979e-05 0.0261784 0.999657
    outer loop
      vertex 14.2545 10.2937 1.75365
      vertex 14.2714 9.58648 1.77217
      vertex 14.5528 9.75933 1.76764
    endloop
  endfacet
  facet normal 0.814176 -0.580414 0.0153864
    outer loop
      vertex 14.2545 10.2937 1.75365
      vertex 14.4907 10.6248 1.74498
      vertex 14.2545 10.299 1.95358
    endloop
  endfacet
  facet normal -1.87115e-06 0.0261704 0.999657
    outer loop
      vertex 14.2545 10.2937 1.75365
      vertex 14.5528 9.75933 1.76764
      vertex 14.7762 9.99923 1.76136
    endloop
  endfacet
  facet normal 5.2067e-06 0.0261829 0.999657
    outer loop
      vertex 14.2545 10.2937 1.75365
      vertex 14.7762 9.99923 1.76136
      vertex 14.9382 10.3012 1.75345
    endloop
  endfacet
  facet normal 5.31871e-06 0.0261727 0.999657
    outer loop
      vertex 14.2545 10.2937 1.75365
      vertex 14.9382 10.3012 1.75345
      vertex 14.4907 10.6248 1.74498
    endloop
  endfacet
  facet normal 0.814093 -0.580538 0.0150993
    outer loop
      vertex 14.2545 10.299 1.95358
      vertex 14.4907 10.6248 1.74498
      vertex 14.4907 10.63 1.94491
    endloop
  endfacet
  facet normal 0 0.999657 -0.0262002
    outer loop
      vertex 14.2575 7.95299 1.81494
      vertex 14.2575 7.95823 2.01487
      vertex 15 7.95299 1.81494
    endloop
  endfacet
  facet normal 1 0 0
    outer loop
      vertex 14.2575 7.95299 1.81494
      vertex 14.2575 8.61391 1.79763
      vertex 14.2575 7.95823 2.01487
    endloop
  endfacet
  facet normal 0 0.0261818 0.999657
    outer loop
      vertex 14.2575 7.95299 1.81494
      vertex 15 7.95299 1.81494
      vertex 14.2575 8.61391 1.79763
    endloop
  endfacet
  facet normal 1 0 0
    outer loop
      vertex 14.2575 7.95823 2.01487
      vertex 14.2575 8.61391 1.79763
      vertex 14.2575 8.61915 1.99757
    endloop
  endfacet
  facet normal -0 0.0261771 0.999657
    outer loop
      vertex 14.2575 7.95823 2.01487
      vertex 14.4813 7.0757 2.03798
      vertex 15 7.95823 2.01487
    endloop
  endfacet
  facet normal 0 0.999657 -0.0262002
    outer loop
      vertex 14.2575 7.95823 2.01487
      vertex 15 7.95823 2.01487
      vertex 15 7.95299 1.81494
    endloop
  endfacet
  facet normal -0 0.0261818 0.999657
    outer loop
      vertex 14.2575 8.61391 1.79763
      vertex 15 7.95299 1.81494
      vertex 15 8.61391 1.79763
    endloop
  endfacet
  facet normal 0 -0.999657 0.0261989
    outer loop
      vertex 14.2575 8.61391 1.79763
      vertex 15 8.61391 1.79763
      vertex 15 8.61915 1.99757
    endloop
  endfacet
  facet normal 0 -0.999657 0.0261989
    outer loop
      vertex 14.2575 8.61391 1.79763
      vertex 15 8.61915 1.99757
      vertex 14.2575 8.61915 1.99757
    endloop
  endfacet
  facet normal 0 0.0261794 0.999657
    outer loop
      vertex 14.2575 8.61915 1.99757
      vertex 15 8.61915 1.99757
      vertex 14.2714 9.59172 1.9721
    endloop
  endfacet
  facet normal -0.523527 0.851717 -0.0223228
    outer loop
      vertex 14.2714 9.58648 1.77217
      vertex 14.2714 9.59172 1.9721
      vertex 14.5528 9.76457 1.96757
    endloop
  endfacet
  facet normal -0.523527 0.851717 -0.0223228
    outer loop
      vertex 14.2714 9.58648 1.77217
      vertex 14.5528 9.76457 1.96757
      vertex 14.5528 9.75933 1.76764
    endloop
  endfacet
  facet normal 8.13645e-06 0.0261855 0.999657
    outer loop
      vertex 14.2714 9.59172 1.9721
      vertex 15 8.61915 1.99757
      vertex 14.5528 9.76457 1.96757
    endloop
  endfacet
  facet normal 0.785352 0.618833 -0.0164048
    outer loop
      vertex 14.2728 11.86 1.71263
      vertex 14.2728 11.8653 1.91256
      vertex 14.4376 11.6563 1.91804
    endloop
  endfacet
  facet normal -5.25131e-06 0.0261592 0.999658
    outer loop
      vertex 14.2728 11.86 1.71263
      vertex 14.4376 11.651 1.7181
      vertex 14.8749 11.9847 1.70937
    endloop
  endfacet
  facet normal 0.785351 0.618833 -0.016404
    outer loop
      vertex 14.2728 11.86 1.71263
      vertex 14.4376 11.6563 1.91804
      vertex 14.4376 11.651 1.7181
    endloop
  endfacet
  facet normal -7.33988e-06 0.0261692 0.999658
    outer loop
      vertex 14.2728 11.86 1.71263
      vertex 14.8749 11.9847 1.70937
      vertex 14.6338 12.3227 1.70052
    endloop
  endfacet
  facet normal -0.608958 -0.792935 0.0206235
    outer loop
      vertex 14.3087 12.5722 1.69398
      vertex 14.6338 12.3227 1.70052
      vertex 14.3087 12.5774 1.89391
    endloop
  endfacet
  facet normal -0.608958 -0.792935 0.0206235
    outer loop
      vertex 14.3087 12.5774 1.89391
      vertex 14.6338 12.3227 1.70052
      vertex 14.6338 12.3279 1.90045
    endloop
  endfacet
  facet normal -1.30313e-05 0.0261865 0.999657
    outer loop
      vertex 14.3087 12.5774 1.89391
      vertex 14.6338 12.3279 1.90045
      vertex 18.2938 17 1.77811
    endloop
  endfacet
  facet normal 0.933087 0.359526 -0.00953029
    outer loop
      vertex 14.4376 11.651 1.7181
      vertex 14.4376 11.6563 1.91804
      vertex 14.5365 11.3998 1.92475
    endloop
  endfacet
  facet normal -2.21663e-05 0.0261813 0.999657
    outer loop
      vertex 14.4376 11.651 1.7181
      vertex 14.5365 11.3945 1.72482
      vertex 14.8749 11.9847 1.70937
    endloop
  endfacet
  facet normal 0.933087 0.359525 -0.00953075
    outer loop
      vertex 14.4376 11.651 1.7181
      vertex 14.5365 11.3998 1.92475
      vertex 14.5365 11.3945 1.72482
    endloop
  endfacet
  facet normal 0 0.999658 -0.0261502
    outer loop
      vertex 14.4813 4.0776 1.91642
      vertex 14.4813 4.08283 2.11635
      vertex 15 4.0776 1.91642
    endloop
  endfacet
  facet normal 1 0 0
    outer loop
      vertex 14.4813 4.0776 1.91642
      vertex 14.4813 5.29437 1.88456
      vertex 14.4813 4.08283 2.11635
    endloop
  endfacet
  facet normal 0 0.0261751 0.999657
    outer loop
      vertex 14.4813 4.0776 1.91642
      vertex 15 4.0776 1.91642
      vertex 14.4813 5.29437 1.88456
    endloop
  endfacet
  facet normal 1 0 0
    outer loop
      vertex 14.4813 4.08283 2.11635
      vertex 14.4813 5.29437 1.88456
      vertex 14.4813 5.29961 2.08449
    endloop
  endfacet
  facet normal 0 0.999658 -0.0261502
    outer loop
      vertex 14.4813 4.08283 2.11635
      vertex 15 4.08283 2.11635
      vertex 15 4.0776 1.91642
    endloop
  endfacet
  facet normal -0 0.0261787 0.999657
    outer loop
      vertex 14.4813 4.08283 2.11635
      vertex 18.2938 0 2.22327
      vertex 15 4.08283 2.11635
    endloop
  endfacet
  facet normal 3.49448e-06 0.0261766 0.999657
    outer loop
      vertex 14.4813 5.29437 1.88456
      vertex 15 4.0776 1.91642
      vertex 15 7.07047 1.83805
    endloop
  endfacet
  facet normal -1.79562e-05 0.0261829 0.999657
    outer loop
      vertex 14.4813 5.29437 1.88456
      vertex 15 7.07047 1.83805
      vertex 14.4813 5.90792 1.86849
    endloop
  endfacet
  facet normal 1 0 0
    outer loop
      vertex 14.4813 5.90792 1.86849
      vertex 14.4813 7.07047 1.83805
      vertex 14.4813 5.91315 2.06842
    endloop
  endfacet
  facet normal 0 0.0261748 0.999657
    outer loop
      vertex 14.4813 5.90792 1.86849
      vertex 15 7.07047 1.83805
      vertex 14.4813 7.07047 1.83805
    endloop
  endfacet
  facet normal 1 0 0
    outer loop
      vertex 14.4813 5.91315 2.06842
      vertex 14.4813 7.07047 1.83805
      vertex 14.4813 7.0757 2.03798
    endloop
  endfacet
  facet normal 0 -0.999658 0.0261502
    outer loop
      vertex 14.4813 7.07047 1.83805
      vertex 15 7.07047 1.83805
      vertex 15 7.0757 2.03798
    endloop
  endfacet
  facet normal 0 -0.999658 0.0261502
    outer loop
      vertex 14.4813 7.07047 1.83805
      vertex 15 7.0757 2.03798
      vertex 14.4813 7.0757 2.03798
    endloop
  endfacet
  facet normal 0 0.0261771 0.999657
    outer loop
      vertex 14.4813 7.0757 2.03798
      vertex 15 7.0757 2.03798
      vertex 15 7.95823 2.01487
    endloop
  endfacet
  facet normal 0.986035 -0.166484 0.00433009
    outer loop
      vertex 14.4907 10.6248 1.74498
      vertex 14.5694 11.0906 1.73278
      vertex 14.4907 10.63 1.94491
    endloop
  endfacet
  facet normal 9.38605e-06 0.0261783 0.999657
    outer loop
      vertex 14.4907 10.6248 1.74498
      vertex 14.9382 10.3012 1.75345
      vertex 15.0354 10.6605 1.74404
    endloop
  endfacet
  facet normal 9.21124e-06 0.026181 0.999657
    outer loop
      vertex 14.4907 10.6248 1.74498
      vertex 15.0354 10.6605 1.74404
      vertex 14.5694 11.0906 1.73278
    endloop
  endfacet
  facet normal 0.986041 -0.166447 0.00441238
    outer loop
      vertex 14.4907 10.63 1.94491
      vertex 14.5694 11.0906 1.73278
      vertex 14.5694 11.0959 1.93271
    endloop
  endfacet
  facet normal 0.994195 0.107556 -0.00285124
    outer loop
      vertex 14.5365 11.3945 1.72482
      vertex 14.5365 11.3998 1.92475
      vertex 14.5694 11.0959 1.93271
    endloop
  endfacet
  facet normal 7.24823e-06 0.0261846 0.999657
    outer loop
      vertex 14.5365 11.3945 1.72482
      vertex 14.5694 11.0906 1.73278
      vertex 15.0678 11.0771 1.73313
    endloop
  endfacet
  facet normal 0.994195 0.107556 -0.00285124
    outer loop
      vertex 14.5365 11.3945 1.72482
      vertex 14.5694 11.0959 1.93271
      vertex 14.5694 11.0906 1.73278
    endloop
  endfacet
  facet normal -2.80552e-06 0.0261702 0.999658
    outer loop
      vertex 14.5365 11.3945 1.72482
      vertex 15.0196 11.5695 1.72024
      vertex 14.8749 11.9847 1.70937
    endloop
  endfacet
  facet normal -2.26463e-06 0.0261687 0.999658
    outer loop
      vertex 14.5365 11.3945 1.72482
      vertex 15.0678 11.0771 1.73313
      vertex 15.0196 11.5695 1.72024
    endloop
  endfacet
  facet normal -0.731942 0.681133 -0.0178519
    outer loop
      vertex 14.5528 9.75933 1.76764
      vertex 14.5528 9.76457 1.96757
      vertex 14.7762 9.99923 1.76136
    endloop
  endfacet
  facet normal -0.731985 0.681085 -0.0179529
    outer loop
      vertex 14.5528 9.76457 1.96757
      vertex 14.7762 10.0045 1.96129
      vertex 14.7762 9.99923 1.76136
    endloop
  endfacet
  facet normal -1.28332e-05 0.0261773 0.999657
    outer loop
      vertex 14.5528 9.76457 1.96757
      vertex 15 8.61915 1.99757
      vertex 14.7762 10.0045 1.96129
    endloop
  endfacet
  facet normal 7.0865e-06 0.0261787 0.999657
    outer loop
      vertex 14.5694 11.0906 1.73278
      vertex 15.0354 10.6605 1.74404
      vertex 15.0678 11.0771 1.73313
    endloop
  endfacet
  facet normal -0.814202 -0.580386 0.0150953
    outer loop
      vertex 14.6338 12.3227 1.70052
      vertex 14.8749 11.9847 1.70937
      vertex 14.8749 11.9899 1.9093
    endloop
  endfacet
  facet normal -0.814202 -0.580386 0.0150953
    outer loop
      vertex 14.6338 12.3227 1.70052
      vertex 14.8749 11.9899 1.9093
      vertex 14.6338 12.3279 1.90045
    endloop
  endfacet
  facet normal 1.19907e-06 0.0261753 0.999657
    outer loop
      vertex 14.6338 12.3279 1.90045
      vertex 14.8749 11.9899 1.9093
      vertex 18.2938 17 1.77811
    endloop
  endfacet
  facet normal -0.881287 0.472415 -0.0125234
    outer loop
      vertex 14.7762 10.0045 1.96129
      vertex 14.9382 10.3065 1.95338
      vertex 14.9382 10.3012 1.75345
    endloop
  endfacet
  facet normal 5.33524e-06 0.0261802 0.999657
    outer loop
      vertex 14.7762 10.0045 1.96129
      vertex 15 8.61915 1.99757
      vertex 14.9382 10.3065 1.95338
    endloop
  endfacet
  facet normal -0.881268 0.472454 -0.0124535
    outer loop
      vertex 14.7762 9.99923 1.76136
      vertex 14.7762 10.0045 1.96129
      vertex 14.9382 10.3012 1.75345
    endloop
  endfacet
  facet normal -0.944332 -0.328882 0.00855393
    outer loop
      vertex 14.8749 11.9847 1.70937
      vertex 15.0196 11.5695 1.72024
      vertex 15.0196 11.5747 1.92017
    endloop
  endfacet
  facet normal -0.944332 -0.328882 0.00855393
    outer loop
      vertex 14.8749 11.9847 1.70937
      vertex 15.0196 11.5747 1.92017
      vertex 14.8749 11.9899 1.9093
    endloop
  endfacet
  facet normal -3.0299e-06 0.0261701 0.999658
    outer loop
      vertex 14.8749 11.9899 1.9093
      vertex 15.0196 11.5747 1.92017
      vertex 19.2706 10.0866 1.95914
    endloop
  endfacet
  facet normal -3.31361e-07 0.0261764 0.999657
    outer loop
      vertex 14.8749 11.9899 1.9093
      vertex 19.2706 10.0866 1.95914
      vertex 18.2938 17 1.77811
    endloop
  endfacet
  facet normal -0.965324 0.260964 -0.00691797
    outer loop
      vertex 14.9382 10.3012 1.75345
      vertex 14.9382 10.3065 1.95338
      vertex 15.0354 10.6605 1.74404
    endloop
  endfacet
  facet normal 7.47861e-07 0.02618 0.999657
    outer loop
      vertex 14.9382 10.3065 1.95338
      vertex 15 8.61915 1.99757
      vertex 18.2433 9.0597 1.98603
    endloop
  endfacet
  facet normal -0.965324 0.260964 -0.00691797
    outer loop
      vertex 14.9382 10.3065 1.95338
      vertex 15.0354 10.6658 1.94397
      vertex 15.0354 10.6605 1.74404
    endloop
  endfacet
  facet normal 9.49464e-07 0.0261806 0.999657
    outer loop
      vertex 14.9382 10.3065 1.95338
      vertex 18.2433 9.0597 1.98603
      vertex 15.0354 10.6658 1.94397
    endloop
  endfacet
  facet normal -1 0 -0
    outer loop
      vertex 15 4.0776 1.91642
      vertex 15 4.08283 2.11635
      vertex 15 7.07047 1.83805
    endloop
  endfacet
  facet normal -1 0 0
    outer loop
      vertex 15 4.08283 2.11635
      vertex 15 7.0757 2.03798
      vertex 15 7.07047 1.83805
    endloop
  endfacet
  facet normal -2.00467e-06 0.0261771 0.999657
    outer loop
      vertex 15 4.08283 2.11635
      vertex 18.2938 0 2.22327
      vertex 19.2706 7.04427 2.03881
    endloop
  endfacet
  facet normal -1.52252e-06 0.0261766 0.999657
    outer loop
      vertex 15 4.08283 2.11635
      vertex 18.8245 7.27145 2.03286
      vertex 15 7.0757 2.03798
    endloop
  endfacet
  facet normal -2.19486e-06 0.0261774 0.999657
    outer loop
      vertex 15 4.08283 2.11635
      vertex 19.2706 7.04427 2.03881
      vertex 18.8245 7.27145 2.03286
    endloop
  endfacet
  facet normal 7.03491e-07 0.0261771 0.999657
    outer loop
      vertex 15 7.0757 2.03798
      vertex 18.2433 8.07118 2.01191
      vertex 15 7.95823 2.01487
    endloop
  endfacet
  facet normal -1.23849e-06 0.0261834 0.999657
    outer loop
      vertex 15 7.0757 2.03798
      vertex 18.3285 7.90396 2.01629
      vertex 18.2433 8.07118 2.01191
    endloop
  endfacet
  facet normal -2.06834e-06 0.0261868 0.999657
    outer loop
      vertex 15 7.0757 2.03798
      vertex 18.4706 7.6253 2.02359
      vertex 18.3285 7.90396 2.01629
    endloop
  endfacet
  facet normal -2.03118e-06 0.0261865 0.999657
    outer loop
      vertex 15 7.0757 2.03798
      vertex 18.8245 7.27145 2.03286
      vertex 18.4706 7.6253 2.02359
    endloop
  endfacet
  facet normal -1 0 -0
    outer loop
      vertex 15 7.95299 1.81494
      vertex 15 7.95823 2.01487
      vertex 15 8.61391 1.79763
    endloop
  endfacet
  facet normal -1 0 0
    outer loop
      vertex 15 7.95823 2.01487
      vertex 15 8.61915 1.99757
      vertex 15 8.61391 1.79763
    endloop
  endfacet
  facet normal 1.86138e-06 0.0261667 0.999658
    outer loop
      vertex 15 7.95823 2.01487
      vertex 18.165 8.56544 1.99897
      vertex 15 8.61915 1.99757
    endloop
  endfacet
  facet normal 8.90954e-07 0.0261717 0.999657
    outer loop
      vertex 15 7.95823 2.01487
      vertex 18.2433 8.07118 2.01191
      vertex 18.165 8.56544 1.99897
    endloop
  endfacet
  facet normal 1.93961e-06 0.0261713 0.999657
    outer loop
      vertex 15 8.61915 1.99757
      vertex 18.165 8.56544 1.99897
      vertex 18.2433 9.0597 1.98603
    endloop
  endfacet
  facet normal -0.995246 -0.0973563 0.00253202
    outer loop
      vertex 15.0196 11.5695 1.72024
      vertex 15.0678 11.0771 1.73313
      vertex 15.0678 11.0823 1.93307
    endloop
  endfacet
  facet normal -0.995246 -0.0973562 0.00253215
    outer loop
      vertex 15.0196 11.5695 1.72024
      vertex 15.0678 11.0823 1.93307
      vertex 15.0196 11.5747 1.92017
    endloop
  endfacet
  facet normal 4.74694e-06 0.0261897 0.999657
    outer loop
      vertex 15.0196 11.5747 1.92017
      vertex 15.0678 11.0823 1.93307
      vertex 18.8245 9.85942 1.96509
    endloop
  endfacet
  facet normal 6.07554e-07 0.0261805 0.999657
    outer loop
      vertex 15.0196 11.5747 1.92017
      vertex 18.8245 9.85942 1.96509
      vertex 19.2706 10.0866 1.95914
    endloop
  endfacet
  facet normal -0.996991 0.0774847 -0.00205406
    outer loop
      vertex 15.0354 10.6605 1.74404
      vertex 15.0354 10.6658 1.94397
      vertex 15.0678 11.0771 1.73313
    endloop
  endfacet
  facet normal -0.99699 0.0775042 -0.00201571
    outer loop
      vertex 15.0354 10.6658 1.94397
      vertex 15.0678 11.0823 1.93307
      vertex 15.0678 11.0771 1.73313
    endloop
  endfacet
  facet normal 3.31617e-06 0.0261853 0.999657
    outer loop
      vertex 15.0354 10.6658 1.94397
      vertex 18.2433 9.0597 1.98603
      vertex 18.4706 9.50557 1.97435
    endloop
  endfacet
  facet normal -4.60427e-06 0.0261619 0.999658
    outer loop
      vertex 15.0354 10.6658 1.94397
      vertex 18.4706 9.50557 1.97435
      vertex 15.0678 11.0823 1.93307
    endloop
  endfacet
  facet normal -3.63547e-06 0.026164 0.999658
    outer loop
      vertex 15.0678 11.0823 1.93307
      vertex 18.4706 9.50557 1.97435
      vertex 18.8245 9.85942 1.96509
    endloop
  endfacet
  facet normal 0.987691 0.156362 -0.00409487
    outer loop
      vertex 18.165 8.51309 0
      vertex 18.165 8.56544 1.99897
      vertex 18.2433 8.07118 2.01191
    endloop
  endfacet
  facet normal 0.987691 0.156364 -0.00409425
    outer loop
      vertex 18.165 8.51309 0
      vertex 18.2433 8.07118 2.01191
      vertex 18.2433 8.0185 0
    endloop
  endfacet
  facet normal 0.987691 -0.156361 0.00409486
    outer loop
      vertex 18.165 8.51309 0
      vertex 18.2433 9.00769 0
      vertex 18.165 8.56544 1.99897
    endloop
  endfacet
  facet normal 0.987691 -0.156362 0.00409478
    outer loop
      vertex 18.165 8.56544 1.99897
      vertex 18.2433 9.00769 0
      vertex 18.2433 9.0597 1.98603
    endloop
  endfacet
  facet normal 0.891076 0.453699 -0.0118797
    outer loop
      vertex 18.2433 8.0185 0
      vertex 18.2433 8.07118 2.01191
      vertex 18.3285 7.90396 2.01629
    endloop
  endfacet
  facet normal 0.890979 0.453889 -0.0118648
    outer loop
      vertex 18.2433 8.0185 0
      vertex 18.3285 7.90396 2.01629
      vertex 18.4435 7.62551 0
    endloop
  endfacet
  facet normal 0.890976 -0.453895 0.0118866
    outer loop
      vertex 18.2433 9.00769 0
      vertex 18.4706 9.45387 0
      vertex 18.2433 9.0597 1.98603
    endloop
  endfacet
  facet normal 0.890974 -0.453898 0.0118857
    outer loop
      vertex 18.2433 9.0597 1.98603
      vertex 18.4706 9.45387 0
      vertex 18.4706 9.50557 1.97435
    endloop
  endfacet
  facet normal -0 0 -1
    outer loop
      vertex 18.2938 0 0
      vertex 18.4706 7.57231 0
      vertex 18.8245 7.21822 0
    endloop
  endfacet
  facet normal -0 0 -1
    outer loop
      vertex 18.2938 0 0
      vertex 18.8245 7.21822 0
      vertex 19.2706 6.99088 0
    endloop
  endfacet
  facet normal -0 0 -1
    outer loop
      vertex 18.2938 0 0
      vertex 19.2706 6.99088 0
      vertex 19.3274 6.98187 0
    endloop
  endfacet
  facet normal -0 0 -1
    outer loop
      vertex 18.2938 0 0
      vertex 19.3274 6.98187 0
      vertex 19.765 6.91254 0
    endloop
  endfacet
  facet normal 0 0 -1
    outer loop
      vertex 18.2938 0 0
      vertex 19.765 6.91254 0
      vertex 20.2026 6.98187 0
    endloop
  endfacet
  facet normal 0 0 -1
    outer loop
      vertex 18.2938 0 0
      vertex 20.2026 6.98187 0
      vertex 20.2594 6.99088 0
    endloop
  endfacet
  facet normal 0 0 -1
    outer loop
      vertex 18.2938 0 0
      vertex 20.2594 6.99088 0
      vertex 20.7055 7.21822 0
    endloop
  endfacet
  facet normal 0 0 -1
    outer loop
      vertex 18.2938 0 0
      vertex 20.7055 7.21822 0
      vertex 26.2851 -1.69955 0
    endloop
  endfacet
  facet normal -0.208023 -0.978124 0
    outer loop
      vertex 18.2938 0 0
      vertex 25.9194 -1.62178 2.26573
      vertex 18.2938 0 2.22327
    endloop
  endfacet
  facet normal -0.208023 -0.978124 -2.27075e-06
    outer loop
      vertex 18.2938 0 0
      vertex 26.2851 -1.69955 0
      vertex 25.9194 -1.62178 2.26573
    endloop
  endfacet
  facet normal 3.1986e-06 0.0261764 0.999657
    outer loop
      vertex 18.2938 0 2.22327
      vertex 19.5796 6.99535 2.04009
      vertex 19.2706 7.04427 2.03881
    endloop
  endfacet
  facet normal -6.18262e-06 0.0261781 0.999657
    outer loop
      vertex 18.2938 0 2.22327
      vertex 19.765 6.96599 2.04086
      vertex 19.5796 6.99535 2.04009
    endloop
  endfacet
  facet normal 6.61049e-06 0.0261754 0.999657
    outer loop
      vertex 18.2938 0 2.22327
      vertex 19.9504 6.99535 2.04009
      vertex 19.765 6.96599 2.04086
    endloop
  endfacet
  facet normal -3.41989e-06 0.0261778 0.999657
    outer loop
      vertex 18.2938 0 2.22327
      vertex 20.2594 7.04427 2.03881
      vertex 19.9504 6.99535 2.04009
    endloop
  endfacet
  facet normal 9.45727e-07 0.0261766 0.999657
    outer loop
      vertex 18.2938 0 2.22327
      vertex 25.9194 -1.62178 2.26573
      vertex 20.2594 7.04427 2.03881
    endloop
  endfacet
  facet normal -0.208023 0.978124 0
    outer loop
      vertex 18.2938 17 0
      vertex 18.2938 17 1.77811
      vertex 30.5721 19.6113 1.70973
    endloop
  endfacet
  facet normal 0 0 -1
    outer loop
      vertex 18.2938 17 0
      vertex 18.8245 9.80796 0
      vertex 18.4706 9.45387 0
    endloop
  endfacet
  facet normal 0 0 -1
    outer loop
      vertex 18.2938 17 0
      vertex 19.2706 10.0353 0
      vertex 18.8245 9.80796 0
    endloop
  endfacet
  facet normal 0 0 -1
    outer loop
      vertex 18.2938 17 0
      vertex 19.765 10.1136 0
      vertex 19.2706 10.0353 0
    endloop
  endfacet
  facet normal 0 0 -1
    outer loop
      vertex 18.2938 17 0
      vertex 20.2594 10.0353 0
      vertex 19.765 10.1136 0
    endloop
  endfacet
  facet normal 0 0 -1
    outer loop
      vertex 18.2938 17 0
      vertex 20.7055 9.80796 0
      vertex 20.2594 10.0353 0
    endloop
  endfacet
  facet normal -0.208023 0.978124 -7.38632e-06
    outer loop
      vertex 18.2938 17 0
      vertex 30.5721 19.6113 1.70973
      vertex 30.8745 19.6756 0
    endloop
  endfacet
  facet normal 0 0 -1
    outer loop
      vertex 18.2938 17 0
      vertex 30.8745 19.6756 0
      vertex 20.7055 9.80796 0
    endloop
  endfacet
  facet normal -6.23343e-07 0.0261763 0.999657
    outer loop
      vertex 18.2938 17 1.77811
      vertex 19.2706 10.0866 1.95914
      vertex 19.765 10.1649 1.95709
    endloop
  endfacet
  facet normal 6.67341e-07 0.0261766 0.999657
    outer loop
      vertex 18.2938 17 1.77811
      vertex 19.765 10.1649 1.95709
      vertex 20.2594 10.0866 1.95914
    endloop
  endfacet
  facet normal -3.15893e-06 0.0261755 0.999657
    outer loop
      vertex 18.2938 17 1.77811
      vertex 20.2594 10.0866 1.95914
      vertex 20.7055 9.85942 1.96509
    endloop
  endfacet
  facet normal 1.27509e-07 0.0261766 0.999657
    outer loop
      vertex 18.2938 17 1.77811
      vertex 20.7055 9.85942 1.96509
      vertex 30.5721 19.6113 1.70973
    endloop
  endfacet
  facet normal 0.89092 0.454005 -0.0118841
    outer loop
      vertex 18.3285 7.90396 2.01629
      vertex 18.4706 7.6253 2.02359
      vertex 18.4435 7.62551 0
    endloop
  endfacet
  facet normal 0.890989 0.453869 -0.0118851
    outer loop
      vertex 18.4435 7.62551 0
      vertex 18.4706 7.6253 2.02359
      vertex 18.4706 7.57231 0
    endloop
  endfacet
  facet normal 0.707178 0.706793 -0.0185082
    outer loop
      vertex 18.4706 7.57231 0
      vertex 18.4706 7.6253 2.02359
      vertex 18.8245 7.27145 2.03286
    endloop
  endfacet
  facet normal 0.707175 0.706796 -0.0185073
    outer loop
      vertex 18.4706 7.57231 0
      vertex 18.8245 7.27145 2.03286
      vertex 18.8245 7.21822 0
    endloop
  endfacet
  facet normal 0.707175 -0.706796 0.018508
    outer loop
      vertex 18.4706 9.45387 0
      vertex 18.8245 9.80796 0
      vertex 18.4706 9.50557 1.97435
    endloop
  endfacet
  facet normal 0.707178 -0.706793 0.0185089
    outer loop
      vertex 18.4706 9.50557 1.97435
      vertex 18.8245 9.80796 0
      vertex 18.8245 9.85942 1.96509
    endloop
  endfacet
  facet normal 0.453932 0.890731 -0.0233236
    outer loop
      vertex 18.8245 7.21822 0
      vertex 18.8245 7.27145 2.03286
      vertex 19.2706 6.99088 0
    endloop
  endfacet
  facet normal 0.453925 0.890735 -0.0233255
    outer loop
      vertex 18.8245 7.27145 2.03286
      vertex 19.2706 7.04427 2.03881
      vertex 19.2706 6.99088 0
    endloop
  endfacet
  facet normal 0.453932 -0.890731 0.0233238
    outer loop
      vertex 18.8245 9.80796 0
      vertex 19.2706 10.0353 0
      vertex 19.2706 10.0866 1.95914
    endloop
  endfacet
  facet normal 0.453925 -0.890735 0.0233258
    outer loop
      vertex 18.8245 9.80796 0
      vertex 19.2706 10.0866 1.95914
      vertex 18.8245 9.85942 1.96509
    endloop
  endfacet
  facet normal 0.156372 -0.987359 0.025881
    outer loop
      vertex 19.2706 10.0353 0
      vertex 19.765 10.1136 0
      vertex 19.765 10.1649 1.95709
    endloop
  endfacet
  facet normal 0.156476 -0.987343 0.0258535
    outer loop
      vertex 19.2706 10.0353 0
      vertex 19.765 10.1649 1.95709
      vertex 19.2706 10.0866 1.95914
    endloop
  endfacet
  facet normal 0.156616 0.987321 -0.0258548
    outer loop
      vertex 19.2706 6.99088 0
      vertex 19.2706 7.04427 2.03881
      vertex 19.3274 6.98187 0
    endloop
  endfacet
  facet normal 0.156422 0.987352 -0.0258612
    outer loop
      vertex 19.2706 7.04427 2.03881
      vertex 19.5796 6.99535 2.04009
      vertex 19.3274 6.98187 0
    endloop
  endfacet
  facet normal 0.156428 0.987351 -0.0258619
    outer loop
      vertex 19.3274 6.98187 0
      vertex 19.5796 6.99535 2.04009
      vertex 19.765 6.91254 0
    endloop
  endfacet
  facet normal 0.156464 0.987345 -0.0258585
    outer loop
      vertex 19.5796 6.99535 2.04009
      vertex 19.765 6.96599 2.04086
      vertex 19.765 6.91254 0
    endloop
  endfacet
  facet normal -0.156372 -0.98736 0.025854
    outer loop
      vertex 19.765 10.1136 0
      vertex 20.2594 10.0353 0
      vertex 20.2594 10.0866 1.95914
    endloop
  endfacet
  facet normal -0.156476 -0.987343 0.0258806
    outer loop
      vertex 19.765 10.1136 0
      vertex 20.2594 10.0866 1.95914
      vertex 19.765 10.1649 1.95709
    endloop
  endfacet
  facet normal -0.156464 0.987345 -0.0258585
    outer loop
      vertex 19.765 6.91254 0
      vertex 19.765 6.96599 2.04086
      vertex 19.9504 6.99535 2.04009
    endloop
  endfacet
  facet normal -0.156428 0.987351 -0.0258619
    outer loop
      vertex 19.765 6.91254 0
      vertex 19.9504 6.99535 2.04009
      vertex 20.2026 6.98187 0
    endloop
  endfacet
  facet normal -0.156422 0.987352 -0.0258612
    outer loop
      vertex 19.9504 6.99535 2.04009
      vertex 20.2594 7.04427 2.03881
      vertex 20.2026 6.98187 0
    endloop
  endfacet
  facet normal -0.156616 0.987321 -0.0258548
    outer loop
      vertex 20.2026 6.98187 0
      vertex 20.2594 7.04427 2.03881
      vertex 20.2594 6.99088 0
    endloop
  endfacet
  facet normal -0.453932 -0.890731 0.0233238
    outer loop
      vertex 20.2594 10.0353 0
      vertex 20.7055 9.80796 0
      vertex 20.2594 10.0866 1.95914
    endloop
  endfacet
  facet normal -0.453925 -0.890735 0.0233258
    outer loop
      vertex 20.2594 10.0866 1.95914
      vertex 20.7055 9.80796 0
      vertex 20.7055 9.85942 1.96509
    endloop
  endfacet
  facet normal -0.453925 0.890735 -0.0233255
    outer loop
      vertex 20.2594 6.99088 0
      vertex 20.2594 7.04427 2.03881
      vertex 20.7055 7.27145 2.03286
    endloop
  endfacet
  facet normal -0.453932 0.890731 -0.0233236
    outer loop
      vertex 20.2594 6.99088 0
      vertex 20.7055 7.27145 2.03286
      vertex 20.7055 7.21822 0
    endloop
  endfacet
  facet normal 2.19498e-06 0.0261774 0.999657
    outer loop
      vertex 20.2594 7.04427 2.03881
      vertex 25.9194 -1.62178 2.26573
      vertex 20.7055 7.27145 2.03286
    endloop
  endfacet
  facet normal -0.707175 0.706796 -0.0185073
    outer loop
      vertex 20.7055 7.21822 0
      vertex 20.7055 7.27145 2.03286
      vertex 21.0594 7.57231 0
    endloop
  endfacet
  facet normal 0 0 -1
    outer loop
      vertex 20.7055 7.21822 0
      vertex 21.0594 7.57231 0
      vertex 26.2851 -1.69955 0
    endloop
  endfacet
  facet normal -0.707178 0.706793 -0.0185082
    outer loop
      vertex 20.7055 7.27145 2.03286
      vertex 21.0594 7.6253 2.02359
      vertex 21.0594 7.57231 0
    endloop
  endfacet
  facet normal 7.84799e-06 0.0261807 0.999657
    outer loop
      vertex 20.7055 7.27145 2.03286
      vertex 25.9194 -1.62178 2.26573
      vertex 21.0594 7.6253 2.02359
    endloop
  endfacet
  facet normal -0.707175 -0.706796 0.018508
    outer loop
      vertex 20.7055 9.80796 0
      vertex 21.0594 9.45387 0
      vertex 21.0594 9.50557 1.97435
    endloop
  endfacet
  facet normal -0.707178 -0.706793 0.0185089
    outer loop
      vertex 20.7055 9.80796 0
      vertex 21.0594 9.50557 1.97435
      vertex 20.7055 9.85942 1.96509
    endloop
  endfacet
  facet normal 0 0 -1
    outer loop
      vertex 20.7055 9.80796 0
      vertex 30.8745 19.6756 0
      vertex 21.0594 9.45387 0
    endloop
  endfacet
  facet normal 8.16822e-06 0.0261685 0.999658
    outer loop
      vertex 20.7055 9.85942 1.96509
      vertex 21.0594 9.50557 1.97435
      vertex 30.5721 19.6113 1.70973
    endloop
  endfacet
  facet normal -0.890989 0.453869 -0.0118851
    outer loop
      vertex 21.0594 7.57231 0
      vertex 21.0594 7.6253 2.02359
      vertex 21.0865 7.62551 0
    endloop
  endfacet
  facet normal 0 0 -1
    outer loop
      vertex 21.0594 7.57231 0
      vertex 21.0865 7.62551 0
      vertex 26.2851 -1.69955 0
    endloop
  endfacet
  facet normal -0.89092 0.454005 -0.0118841
    outer loop
      vertex 21.0594 7.6253 2.02359
      vertex 21.2015 7.90396 2.01629
      vertex 21.0865 7.62551 0
    endloop
  endfacet
  facet normal 1.08465e-05 0.0261823 0.999657
    outer loop
      vertex 21.0594 7.6253 2.02359
      vertex 25.9194 -1.62178 2.26573
      vertex 21.2015 7.90396 2.01629
    endloop
  endfacet
  facet normal -0.890976 -0.453895 0.0118866
    outer loop
      vertex 21.0594 9.45387 0
      vertex 21.2867 9.00769 0
      vertex 21.2867 9.0597 1.98603
    endloop
  endfacet
  facet normal -0.890974 -0.453898 0.0118857
    outer loop
      vertex 21.0594 9.45387 0
      vertex 21.2867 9.0597 1.98603
      vertex 21.0594 9.50557 1.97435
    endloop
  endfacet
  facet normal 0 0 -1
    outer loop
      vertex 21.0594 9.45387 0
      vertex 30.8745 19.6756 0
      vertex 21.2867 9.00769 0
    endloop
  endfacet
  facet normal -7.46204e-06 0.0261832 0.999657
    outer loop
      vertex 21.0594 9.50557 1.97435
      vertex 21.2867 9.0597 1.98603
      vertex 30.5721 19.6113 1.70973
    endloop
  endfacet
  facet normal -0.890979 0.453889 -0.0118648
    outer loop
      vertex 21.0865 7.62551 0
      vertex 21.2015 7.90396 2.01629
      vertex 21.2867 8.0185 0
    endloop
  endfacet
  facet normal 0 0 -1
    outer loop
      vertex 21.0865 7.62551 0
      vertex 21.2867 8.0185 0
      vertex 26.2851 -1.69955 0
    endloop
  endfacet
  facet normal -0.891076 0.453699 -0.0118797
    outer loop
      vertex 21.2015 7.90396 2.01629
      vertex 21.2867 8.07118 2.01191
      vertex 21.2867 8.0185 0
    endloop
  endfacet
  facet normal 7.1105e-06 0.0261804 0.999657
    outer loop
      vertex 21.2015 7.90396 2.01629
      vertex 25.9194 -1.62178 2.26573
      vertex 21.2867 8.07118 2.01191
    endloop
  endfacet
  facet normal -0.987691 0.156364 -0.00409425
    outer loop
      vertex 21.2867 8.0185 0
      vertex 21.2867 8.07118 2.01191
      vertex 21.365 8.51309 0
    endloop
  endfacet
  facet normal 0 0 -1
    outer loop
      vertex 21.2867 8.0185 0
      vertex 21.365 8.51309 0
      vertex 26.2851 -1.69955 0
    endloop
  endfacet
  facet normal -0.987691 0.156362 -0.00409487
    outer loop
      vertex 21.2867 8.07118 2.01191
      vertex 21.365 8.56544 1.99897
      vertex 21.365 8.51309 0
    endloop
  endfacet
  facet normal -8.58126e-06 0.0261729 0.999657
    outer loop
      vertex 21.2867 8.07118 2.01191
      vertex 25.9194 -1.62178 2.26573
      vertex 21.365 8.56544 1.99897
    endloop
  endfacet
  facet normal -0.987691 -0.156361 0.00409486
    outer loop
      vertex 21.2867 9.00769 0
      vertex 21.365 8.51309 0
      vertex 21.365 8.56544 1.99897
    endloop
  endfacet
  facet normal -0.987691 -0.156362 0.00409478
    outer loop
      vertex 21.2867 9.00769 0
      vertex 21.365 8.56544 1.99897
      vertex 21.2867 9.0597 1.98603
    endloop
  endfacet
  facet normal 0 0 -1
    outer loop
      vertex 21.2867 9.00769 0
      vertex 30.8745 19.6756 0
      vertex 21.365 8.51309 0
    endloop
  endfacet
  facet normal 4.86096e-06 0.0261724 0.999657
    outer loop
      vertex 21.2867 9.0597 1.98603
      vertex 21.365 8.56544 1.99897
      vertex 30.5721 19.6113 1.70973
    endloop
  endfacet
  facet normal 0 0 -1
    outer loop
      vertex 21.365 8.51309 0
      vertex 30.8745 19.6756 0
      vertex 26.2851 -1.69955 0
    endloop
  endfacet
  facet normal -2.9206e-07 0.0261766 0.999657
    outer loop
      vertex 21.365 8.56544 1.99897
      vertex 25.9194 -1.62178 2.26573
      vertex 30.5721 19.6113 1.70973
    endloop
  endfacet
  facet normal 0.964673 -0.207121 0.162812
    outer loop
      vertex 25.9194 -1.62178 2.26573
      vertex 26.2851 -1.69955 0
      vertex 30.5721 19.6113 1.70973
    endloop
  endfacet
  facet normal 0.964669 -0.207121 0.162832
    outer loop
      vertex 26.2851 -1.69955 0
      vertex 30.8745 19.6756 0
      vertex 30.5721 19.6113 1.70973
    endloop
  endfacet
  facet normal 0.987688 0.156381 -0.00409538
    outer loop
      vertex 4 8.51309 0
      vertex 4 8.56544 1.99897
      vertex 4.07831 8.07118 2.01191
    endloop
  endfacet
  facet normal 0.987688 0.156384 -0.00409476
    outer loop
      vertex 4 8.51309 0
      vertex 4.07831 8.07118 2.01191
      vertex 4.07831 8.0185 0
    endloop
  endfacet
  facet normal 0.987688 -0.156381 0.00409537
    outer loop
      vertex 4 8.51309 0
      vertex 4.07831 9.00769 0
      vertex 4 8.56544 1.99897
    endloop
  endfacet
  facet normal 0.987688 -0.156381 0.00409529
    outer loop
      vertex 4 8.56544 1.99897
      vertex 4.07831 9.00769 0
      vertex 4.07831 9.0597 1.98603
    endloop
  endfacet
  facet normal 0.891011 0.453826 -0.011883
    outer loop
      vertex 4.07831 8.0185 0
      vertex 4.07831 8.07118 2.01191
      vertex 4.16354 7.90396 2.01629
    endloop
  endfacet
  facet normal 0.891016 0.453817 -0.0118837
    outer loop
      vertex 4.07831 8.0185 0
      vertex 4.16354 7.90396 2.01629
      vertex 4.27847 7.62551 0
    endloop
  endfacet
  facet normal 0.891008 -0.453831 0.0118849
    outer loop
      vertex 4.07831 9.00769 0
      vertex 4.30557 9.45387 0
      vertex 4.07831 9.0597 1.98603
    endloop
  endfacet
  facet normal 0.891007 -0.453835 0.011884
    outer loop
      vertex 4.07831 9.0597 1.98603
      vertex 4.30557 9.45387 0
      vertex 4.30557 9.50557 1.97435
    endloop
  endfacet
  facet normal 0.89101 0.453827 -0.0118854
    outer loop
      vertex 4.16354 7.90396 2.01629
      vertex 4.30557 7.6253 2.02359
      vertex 4.27847 7.62551 0
    endloop
  endfacet
  facet normal 0.890989 0.453869 -0.0118851
    outer loop
      vertex 4.27847 7.62551 0
      vertex 4.30557 7.6253 2.02359
      vertex 4.30557 7.57231 0
    endloop
  endfacet
  facet normal 0.707108 0.706863 -0.01851
    outer loop
      vertex 4.30557 7.57231 0
      vertex 4.30557 7.6253 2.02359
      vertex 4.65954 7.27145 2.03286
    endloop
  endfacet
  facet normal 0.707105 0.706866 -0.0185091
    outer loop
      vertex 4.30557 7.57231 0
      vertex 4.65954 7.27145 2.03286
      vertex 4.65954 7.21822 0
    endloop
  endfacet
  facet normal 0.707105 -0.706866 0.0185099
    outer loop
      vertex 4.30557 9.45387 0
      vertex 4.65954 9.80796 0
      vertex 4.30557 9.50557 1.97435
    endloop
  endfacet
  facet normal 0.707108 -0.706863 0.0185107
    outer loop
      vertex 4.30557 9.50557 1.97435
      vertex 4.65954 9.80796 0
      vertex 4.65954 9.85942 1.96509
    endloop
  endfacet
  facet normal 0.453988 0.890702 -0.0233229
    outer loop
      vertex 4.65954 7.21822 0
      vertex 4.65954 7.27145 2.03286
      vertex 5.10557 6.99088 0
    endloop
  endfacet
  facet normal 0.453981 0.890706 -0.0233248
    outer loop
      vertex 4.65954 7.27145 2.03286
      vertex 5.10557 7.04427 2.03881
      vertex 5.10557 6.99088 0
    endloop
  endfacet
  facet normal 0.453988 -0.890702 0.023323
    outer loop
      vertex 4.65954 9.80796 0
      vertex 5.10557 10.0353 0
      vertex 5.10557 10.0866 1.95914
    endloop
  endfacet
  facet normal 0.453981 -0.890706 0.023325
    outer loop
      vertex 4.65954 9.80796 0
      vertex 5.10557 10.0866 1.95914
      vertex 4.65954 9.85942 1.96509
    endloop
  endfacet
  facet normal 0.156363 -0.987361 0.0258811
    outer loop
      vertex 5.10557 10.0353 0
      vertex 5.6 10.1136 0
      vertex 5.6 10.1649 1.95709
    endloop
  endfacet
  facet normal 0.156467 -0.987345 0.0258536
    outer loop
      vertex 5.10557 10.0353 0
      vertex 5.6 10.1649 1.95709
      vertex 5.10557 10.0866 1.95914
    endloop
  endfacet
  facet normal 0.156428 0.987351 -0.0258556
    outer loop
      vertex 5.10557 6.99088 0
      vertex 5.10557 7.04427 2.03881
      vertex 5.16244 6.98187 0
    endloop
  endfacet
  facet normal 0.156422 0.987352 -0.0258558
    outer loop
      vertex 5.10557 7.04427 2.03881
      vertex 5.41457 6.99535 2.04009
      vertex 5.16244 6.98187 0
    endloop
  endfacet
  facet normal 0.156442 0.987349 -0.0258583
    outer loop
      vertex 5.16244 6.98187 0
      vertex 5.41457 6.99535 2.04009
      vertex 5.6 6.91254 0
    endloop
  endfacet
  facet normal 0.156439 0.987349 -0.0258586
    outer loop
      vertex 5.41457 6.99535 2.04009
      vertex 5.6 6.96599 2.04086
      vertex 5.6 6.91254 0
    endloop
  endfacet
  facet normal -0.156363 -0.987361 0.025854
    outer loop
      vertex 5.6 10.1136 0
      vertex 6.09443 10.0353 0
      vertex 6.09443 10.0866 1.95914
    endloop
  endfacet
  facet normal -0.156467 -0.987344 0.0258806
    outer loop
      vertex 5.6 10.1136 0
      vertex 6.09443 10.0866 1.95914
      vertex 5.6 10.1649 1.95709
    endloop
  endfacet
  facet normal 3.86399e-07 0.0261748 0.999657
    outer loop
      vertex 5.6 10.1649 1.95709
      vertex 6.09443 10.0866 1.95914
      vertex 10.2226 12.4991 1.89597
    endloop
  endfacet
  facet normal -0.156439 0.987349 -0.0258586
    outer loop
      vertex 5.6 6.91254 0
      vertex 5.6 6.96599 2.04086
      vertex 5.78543 6.99535 2.04009
    endloop
  endfacet
  facet normal -0.156442 0.987349 -0.0258583
    outer loop
      vertex 5.6 6.91254 0
      vertex 5.78543 6.99535 2.04009
      vertex 6.03756 6.98187 0
    endloop
  endfacet
  facet normal 4.60923e-06 0.0261881 0.999657
    outer loop
      vertex 5.6 6.96599 2.04086
      vertex 10.2226 5.35049 2.08316
      vertex 5.78543 6.99535 2.04009
    endloop
  endfacet
  facet normal -1.61635e-06 0.0261703 0.999658
    outer loop
      vertex 5.6 6.96599 2.04086
      vertex 10.9991 4.22178 2.11271
      vertex 10.2226 5.35049 2.08316
    endloop
  endfacet
  facet normal -2.15498e-06 0.0261698 0.999658
    outer loop
      vertex 5.78543 6.99535 2.04009
      vertex 10.2226 5.35049 2.08316
      vertex 6.09443 7.04427 2.03881
    endloop
  endfacet
  facet normal -0.156422 0.987352 -0.0258558
    outer loop
      vertex 5.78543 6.99535 2.04009
      vertex 6.09443 7.04427 2.03881
      vertex 6.03756 6.98187 0
    endloop
  endfacet
  facet normal -0.156428 0.987351 -0.0258556
    outer loop
      vertex 6.03756 6.98187 0
      vertex 6.09443 7.04427 2.03881
      vertex 6.09443 6.99088 0
    endloop
  endfacet
  facet normal 0 0 -1
    outer loop
      vertex 6.09443 10.0353 0
      vertex 18.2938 17 0
      vertex 6.54046 9.80796 0
    endloop
  endfacet
  facet normal -0.453988 -0.890702 0.023323
    outer loop
      vertex 6.09443 10.0353 0
      vertex 6.54046 9.80796 0
      vertex 6.09443 10.0866 1.95914
    endloop
  endfacet
  facet normal -0.453981 -0.890706 0.023325
    outer loop
      vertex 6.09443 10.0866 1.95914
      vertex 6.54046 9.80796 0
      vertex 6.54046 9.85942 1.96509
    endloop
  endfacet
  facet normal -1.69485e-06 0.0261784 0.999657
    outer loop
      vertex 6.09443 10.0866 1.95914
      vertex 6.54046 9.85942 1.96509
      vertex 10.2226 12.4991 1.89597
    endloop
  endfacet
  facet normal -0.453981 0.890706 -0.0233248
    outer loop
      vertex 6.09443 6.99088 0
      vertex 6.09443 7.04427 2.03881
      vertex 6.54046 7.27145 2.03286
    endloop
  endfacet
  facet normal 0 0 -1
    outer loop
      vertex 6.09443 6.99088 0
      vertex 6.54046 7.21822 0
      vertex 18.2938 0 0
    endloop
  endfacet
  facet normal -0.453988 0.890702 -0.0233229
    outer loop
      vertex 6.09443 6.99088 0
      vertex 6.54046 7.27145 2.03286
      vertex 6.54046 7.21822 0
    endloop
  endfacet
  facet normal 1.51013e-06 0.0261787 0.999657
    outer loop
      vertex 6.09443 7.04427 2.03881
      vertex 10.2226 5.35049 2.08316
      vertex 6.54046 7.27145 2.03286
    endloop
  endfacet
  facet normal -0.707105 0.706866 -0.0185091
    outer loop
      vertex 6.54046 7.21822 0
      vertex 6.54046 7.27145 2.03286
      vertex 6.89443 7.57231 0
    endloop
  endfacet
  facet normal 0 0 -1
    outer loop
      vertex 6.54046 7.21822 0
      vertex 6.89443 7.57231 0
      vertex 18.2938 0 0
    endloop
  endfacet
  facet normal 6.34614e-06 0.026188 0.999657
    outer loop
      vertex 6.54046 7.27145 2.03286
      vertex 10.2226 5.35049 2.08316
      vertex 10.2226 5.91315 2.06842
    endloop
  endfacet
  facet normal 4.7833e-06 0.0261838 0.999657
    outer loop
      vertex 6.54046 7.27145 2.03286
      vertex 10.2226 5.91315 2.06842
      vertex 6.89443 7.6253 2.02359
    endloop
  endfacet
  facet normal -0.707108 0.706863 -0.01851
    outer loop
      vertex 6.54046 7.27145 2.03286
      vertex 6.89443 7.6253 2.02359
      vertex 6.89443 7.57231 0
    endloop
  endfacet
  facet normal 0 0 -1
    outer loop
      vertex 6.54046 9.80796 0
      vertex 18.2938 17 0
      vertex 6.89443 9.45387 0
    endloop
  endfacet
  facet normal -0.707105 -0.706866 0.0185099
    outer loop
      vertex 6.54046 9.80796 0
      vertex 6.89443 9.45387 0
      vertex 6.89443 9.50557 1.97435
    endloop
  endfacet
  facet normal -0.707108 -0.706863 0.0185107
    outer loop
      vertex 6.54046 9.80796 0
      vertex 6.89443 9.50557 1.97435
      vertex 6.54046 9.85942 1.96509
    endloop
  endfacet
  facet normal 6.55711e-06 0.0261669 0.999658
    outer loop
      vertex 6.54046 9.85942 1.96509
      vertex 6.89443 9.50557 1.97435
      vertex 10.2226 12.4991 1.89597
    endloop
  endfacet
  facet normal 0 0 -1
    outer loop
      vertex 6.89443 7.57231 0
      vertex 18.4435 7.62551 0
      vertex 18.4706 7.57231 0
    endloop
  endfacet
  facet normal 0 0 -1
    outer loop
      vertex 6.89443 7.57231 0
      vertex 18.4706 7.57231 0
      vertex 18.2938 0 0
    endloop
  endfacet
  facet normal -0.891057 0.453736 -0.0118816
    outer loop
      vertex 6.89443 7.57231 0
      vertex 6.89443 7.6253 2.02359
      vertex 6.92152 7.62551 0
    endloop
  endfacet
  facet normal 0 -0 -1
    outer loop
      vertex 6.89443 7.57231 0
      vertex 6.92152 7.62551 0
      vertex 18.4435 7.62551 0
    endloop
  endfacet
  facet normal 5.43738e-06 0.026185 0.999657
    outer loop
      vertex 6.89443 7.6253 2.02359
      vertex 10.2226 5.91315 2.06842
      vertex 7.03646 7.90396 2.01629
    endloop
  endfacet
  facet normal -0.89101 0.453827 -0.0118809
    outer loop
      vertex 6.89443 7.6253 2.02359
      vertex 7.03646 7.90396 2.01629
      vertex 6.92152 7.62551 0
    endloop
  endfacet
  facet normal 0 0 -1
    outer loop
      vertex 6.89443 9.45387 0
      vertex 18.2433 9.00769 0
      vertex 7.12169 9.00769 0
    endloop
  endfacet
  facet normal 0 0 -1
    outer loop
      vertex 6.89443 9.45387 0
      vertex 18.2938 17 0
      vertex 18.4706 9.45387 0
    endloop
  endfacet
  facet normal 0 0 -1
    outer loop
      vertex 6.89443 9.45387 0
      vertex 18.4706 9.45387 0
      vertex 18.2433 9.00769 0
    endloop
  endfacet
  facet normal -0.891008 -0.453831 0.0118849
    outer loop
      vertex 6.89443 9.45387 0
      vertex 7.12169 9.00769 0
      vertex 7.12169 9.0597 1.98603
    endloop
  endfacet
  facet normal -0.891007 -0.453835 0.011884
    outer loop
      vertex 6.89443 9.45387 0
      vertex 7.12169 9.0597 1.98603
      vertex 6.89443 9.50557 1.97435
    endloop
  endfacet
  facet normal -1.27038e-06 0.0261756 0.999657
    outer loop
      vertex 6.89443 9.50557 1.97435
      vertex 10.2226 9.78414 1.96706
      vertex 10.2226 12.4991 1.89597
    endloop
  endfacet
  facet normal -2.13552e-06 0.0261859 0.999657
    outer loop
      vertex 6.89443 9.50557 1.97435
      vertex 7.12169 9.0597 1.98603
      vertex 10.2226 9.78414 1.96706
    endloop
  endfacet
  facet normal 0 0 -1
    outer loop
      vertex 6.92152 7.62551 0
      vertex 18.2433 8.0185 0
      vertex 18.4435 7.62551 0
    endloop
  endfacet
  facet normal -0.891006 0.453835 -0.0118823
    outer loop
      vertex 6.92152 7.62551 0
      vertex 7.03646 7.90396 2.01629
      vertex 7.12169 8.0185 0
    endloop
  endfacet
  facet normal 0 -0 -1
    outer loop
      vertex 6.92152 7.62551 0
      vertex 7.12169 8.0185 0
      vertex 18.2433 8.0185 0
    endloop
  endfacet
  facet normal 3.65616e-06 0.0261822 0.999657
    outer loop
      vertex 7.03646 7.90396 2.01629
      vertex 10.2226 5.91315 2.06842
      vertex 7.12169 8.07118 2.01191
    endloop
  endfacet
  facet normal -0.891011 0.453826 -0.011883
    outer loop
      vertex 7.03646 7.90396 2.01629
      vertex 7.12169 8.07118 2.01191
      vertex 7.12169 8.0185 0
    endloop
  endfacet
  facet normal 0 0 -1
    outer loop
      vertex 7.12169 8.0185 0
      vertex 18.165 8.51309 0
      vertex 18.2433 8.0185 0
    endloop
  endfacet
  facet normal -0.987688 0.156384 -0.00409476
    outer loop
      vertex 7.12169 8.0185 0
      vertex 7.12169 8.07118 2.01191
      vertex 7.2 8.51309 0
    endloop
  endfacet
  facet normal -0 0 -1
    outer loop
      vertex 7.12169 8.0185 0
      vertex 7.2 8.51309 0
      vertex 18.165 8.51309 0
    endloop
  endfacet
  facet normal -9.76381e-07 0.0261755 0.999657
    outer loop
      vertex 7.12169 8.07118 2.01191
      vertex 10.2226 5.91315 2.06842
      vertex 10.2226 9.78414 1.96706
    endloop
  endfacet
  facet normal 1.32853e-06 0.0261714 0.999657
    outer loop
      vertex 7.12169 8.07118 2.01191
      vertex 10.2226 9.78414 1.96706
      vertex 7.2 8.56544 1.99897
    endloop
  endfacet
  facet normal -0.987688 0.156381 -0.00409538
    outer loop
      vertex 7.12169 8.07118 2.01191
      vertex 7.2 8.56544 1.99897
      vertex 7.2 8.51309 0
    endloop
  endfacet
  facet normal 0 0 -1
    outer loop
      vertex 7.12169 9.00769 0
      vertex 18.165 8.51309 0
      vertex 7.2 8.51309 0
    endloop
  endfacet
  facet normal 0 0 -1
    outer loop
      vertex 7.12169 9.00769 0
      vertex 18.2433 9.00769 0
      vertex 18.165 8.51309 0
    endloop
  endfacet
  facet normal -0.987688 -0.156381 0.00409537
    outer loop
      vertex 7.12169 9.00769 0
      vertex 7.2 8.51309 0
      vertex 7.2 8.56544 1.99897
    endloop
  endfacet
  facet normal -0.987688 -0.156381 0.00409529
    outer loop
      vertex 7.12169 9.00769 0
      vertex 7.2 8.56544 1.99897
      vertex 7.12169 9.0597 1.98603
    endloop
  endfacet
  facet normal 1.16898e-06 0.0261718 0.999657
    outer loop
      vertex 7.12169 9.0597 1.98603
      vertex 7.2 8.56544 1.99897
      vertex 10.2226 9.78414 1.96706
    endloop
  endfacet
endsolid model
