solid model
  facet normal -0.000986366 0.999997 0.00222081
    outer loop
      vertex -1.74056 -3.11349 -18.7433
      vertex 10.2 -3.15 3
      vertex 4.48614 -3.13035 -8.38591
    endloop
  endfacet
  facet normal 0.765041 0.451499 -0.459196
    outer loop
      vertex -1.74056 -3.11349 -18.7433
      vertex 4.48614 -3.13035 -8.38591
      vertex 26.5 -32.322 -0.412155
    endloop
  endfacet
  facet normal 0.765041 0.4515 0.459195
    outer loop
      vertex -1.74056 -3.11349 -51.2567
      vertex 26.5 -32.322 -69.5878
      vertex 4.48614 -3.13035 -61.6141
    endloop
  endfacet
  facet normal -0.000986407 0.999997 -0.00222083
    outer loop
      vertex -1.74056 -3.11349 -51.2567
      vertex 4.48614 -3.13035 -61.6141
      vertex 10.2 -3.15 -73
    endloop
  endfacet
  facet normal 0 1 -0
    outer loop
      vertex -10.0787 -3.1 -31.136
      vertex -8.59813 -3.1 -30.2187
      vertex -9.19377 -3.1 -32.0519
    endloop
  endfacet
  facet normal 0 1 0
    outer loop
      vertex -10.0787 -3.1 -31.136
      vertex -9.08566 -3.1 -29.416
      vertex -8.59813 -3.1 -30.2187
    endloop
  endfacet
  facet normal 0 1 0
    outer loop
      vertex -10.0787 -3.1 -38.864
      vertex -8.59813 -3.1 -39.7813
      vertex -9.08566 -3.1 -40.584
    endloop
  endfacet
  facet normal -0.866026 0 -0.499999
    outer loop
      vertex -10.0787 -3.1 -38.864
      vertex -9.08566 -3.1 -40.584
      vertex -9.08566 -3.2 -40.584
    endloop
  endfacet
  facet normal 0 1 0
    outer loop
      vertex -10.0787 -3.1 -38.864
      vertex -9.19377 -3.1 -37.9481
      vertex -8.59813 -3.1 -39.7813
    endloop
  endfacet
  facet normal -0.866026 0 0.499999
    outer loop
      vertex -10.0787 -3.2 -31.136
      vertex -9.08566 -3.1 -29.416
      vertex -10.0787 -3.1 -31.136
    endloop
  endfacet
  facet normal -0.866026 0 0.499999
    outer loop
      vertex -10.0787 -3.2 -31.136
      vertex -9.08566 -3.2 -29.416
      vertex -9.08566 -3.1 -29.416
    endloop
  endfacet
  facet normal -0.803064 -0.374324 0.463648
    outer loop
      vertex -10.0787 -3.2 -31.136
      vertex 26.5 -33.2 8
      vertex -9.08566 -3.2 -29.416
    endloop
  endfacet
  facet normal -0.866026 -0 -0.499999
    outer loop
      vertex -10.0787 -3.2 -38.864
      vertex -10.0787 -3.1 -38.864
      vertex -9.08566 -3.2 -40.584
    endloop
  endfacet
  facet normal -0.803064 -0.374324 -0.463648
    outer loop
      vertex -10.0787 -3.2 -38.864
      vertex -9.08566 -3.2 -40.584
      vertex 26.5 -33.2 -78
    endloop
  endfacet
  facet normal 0 1 0
    outer loop
      vertex -10.6924 -3.1 -33.0248
      vertex -10.0787 -3.1 -31.136
      vertex -9.19377 -3.1 -32.0519
    endloop
  endfacet
  facet normal 0 1 -0
    outer loop
      vertex -10.6924 -3.1 -33.0248
      vertex -9.19377 -3.1 -32.0519
      vertex -9.39525 -3.1 -33.9689
    endloop
  endfacet
  facet normal -0.951058 0 -0.309013
    outer loop
      vertex -10.6924 -3.1 -36.9752
      vertex -10.0787 -3.1 -38.864
      vertex -10.0787 -3.2 -38.864
    endloop
  endfacet
  facet normal 0 1 0
    outer loop
      vertex -10.6924 -3.1 -36.9752
      vertex -9.19377 -3.1 -37.9481
      vertex -10.0787 -3.1 -38.864
    endloop
  endfacet
  facet normal 0 1 0
    outer loop
      vertex -10.6924 -3.1 -36.9752
      vertex -9.39525 -3.1 -36.0311
      vertex -9.19377 -3.1 -37.9481
    endloop
  endfacet
  facet normal -0.951058 0 0.309013
    outer loop
      vertex -10.6924 -3.2 -33.0248
      vertex -10.0787 -3.1 -31.136
      vertex -10.6924 -3.1 -33.0248
    endloop
  endfacet
  facet normal -0.951058 0 0.309013
    outer loop
      vertex -10.6924 -3.2 -33.0248
      vertex -10.0787 -3.2 -31.136
      vertex -10.0787 -3.1 -31.136
    endloop
  endfacet
  facet normal -0.758474 -0.603311 0.24644
    outer loop
      vertex -10.6924 -3.2 -33.0248
      vertex 26.5 -33.2 8
      vertex -10.0787 -3.2 -31.136
    endloop
  endfacet
  facet normal -0.758474 -0.603311 -0.24644
    outer loop
      vertex -10.6924 -3.2 -36.9752
      vertex -10.0787 -3.2 -38.864
      vertex 26.5 -33.2 -78
    endloop
  endfacet
  facet normal -0.951058 -0 -0.309013
    outer loop
      vertex -10.6924 -3.2 -36.9752
      vertex -10.6924 -3.1 -36.9752
      vertex -10.0787 -3.2 -38.864
    endloop
  endfacet
  facet normal 0 1 0
    outer loop
      vertex -10.9 -3.1 -35
      vertex -10.6924 -3.1 -33.0248
      vertex -9.39525 -3.1 -33.9689
    endloop
  endfacet
  facet normal -0.994522 0 -0.104528
    outer loop
      vertex -10.9 -3.1 -35
      vertex -10.6924 -3.1 -36.9752
      vertex -10.6924 -3.2 -36.9752
    endloop
  endfacet
  facet normal 0 1 -0
    outer loop
      vertex -10.9 -3.1 -35
      vertex -9.39525 -3.1 -33.9689
      vertex -9.39525 -3.1 -36.0311
    endloop
  endfacet
  facet normal 0 1 0
    outer loop
      vertex -10.9 -3.1 -35
      vertex -9.39525 -3.1 -36.0311
      vertex -10.6924 -3.1 -36.9752
    endloop
  endfacet
  facet normal -0.994522 0 0.104528
    outer loop
      vertex -10.9 -3.2 -35
      vertex -10.6924 -3.1 -33.0248
      vertex -10.9 -3.1 -35
    endloop
  endfacet
  facet normal -0.994522 0 0.104528
    outer loop
      vertex -10.9 -3.2 -35
      vertex -10.6924 -3.2 -33.0248
      vertex -10.6924 -3.1 -33.0248
    endloop
  endfacet
  facet normal -0.672322 -0.736878 -0.0706633
    outer loop
      vertex -10.9 -3.2 -35
      vertex -10.6924 -3.2 -36.9752
      vertex 26.5 -33.2 -78
    endloop
  endfacet
  facet normal -0.994522 -0 -0.104528
    outer loop
      vertex -10.9 -3.2 -35
      vertex -10.9 -3.1 -35
      vertex -10.6924 -3.2 -36.9752
    endloop
  endfacet
  facet normal -0.625712 -0.780054 -0
    outer loop
      vertex -10.9 -3.2 -35
      vertex 26.5 -33.2 -78
      vertex 26.5 -33.2 8
    endloop
  endfacet
  facet normal -0.672322 -0.736878 0.0706633
    outer loop
      vertex -10.9 -3.2 -35
      vertex 26.5 -33.2 8
      vertex -10.6924 -3.2 -33.0248
    endloop
  endfacet
  facet normal 0.765042 0.451503 -0.45919
    outer loop
      vertex -6.89117 -3.1 -27.3113
      vertex -1.74056 -3.11349 -18.7433
      vertex 26.5 -32.322 -0.412155
    endloop
  endfacet
  facet normal 0.765042 0.451504 0.45919
    outer loop
      vertex -6.89117 -3.1 -42.6887
      vertex 26.5 -32.322 -69.5878
      vertex -1.74056 -3.11349 -51.2567
    endloop
  endfacet
  facet normal 0.765041 0.451467 -0.459228
    outer loop
      vertex -7.63436 -3.1 -28.5494
      vertex -6.89117 -3.1 -27.3113
      vertex 26.5 -32.322 -0.412155
    endloop
  endfacet
  facet normal 0.765128 0.470115 -0.439967
    outer loop
      vertex -7.63436 -3.1 -28.5494
      vertex 26.5 -32.322 -0.412155
      vertex 26.5 -32.3335 -0.424443
    endloop
  endfacet
  facet normal 0.76504 0.451467 0.459228
    outer loop
      vertex -7.63436 -3.1 -41.4506
      vertex 26.5 -32.322 -69.5878
      vertex -6.89117 -3.1 -42.6887
    endloop
  endfacet
  facet normal 0.765142 0.468522 0.441639
    outer loop
      vertex -7.63436 -3.1 -41.4506
      vertex 26.5 -32.3335 -69.5756
      vertex 26.5 -32.322 -69.5878
    endloop
  endfacet
  facet normal -0.00203051 0.999994 0.00279509
    outer loop
      vertex -7.75674 -3.1 -27.9401
      vertex -1.74056 -3.11349 -18.7433
      vertex -6.89117 -3.1 -27.3113
    endloop
  endfacet
  facet normal 0 1 -0
    outer loop
      vertex -7.75674 -3.1 -27.9401
      vertex -6.89117 -3.1 -27.3113
      vertex -7.63436 -3.1 -28.5494
    endloop
  endfacet
  facet normal -0.00202212 0.999994 0.0027896
    outer loop
      vertex -7.75674 -3.1 -27.9401
      vertex 10.2 -3.15 3
      vertex -1.74056 -3.11349 -18.7433
    endloop
  endfacet
  facet normal -0.00202212 0.999994 -0.0027896
    outer loop
      vertex -7.75674 -3.1 -42.0599
      vertex -1.74056 -3.11349 -51.2567
      vertex 10.2 -3.15 -73
    endloop
  endfacet
  facet normal -0.00203051 0.999994 -0.00279509
    outer loop
      vertex -7.75674 -3.1 -42.0599
      vertex -6.89117 -3.1 -42.6887
      vertex -1.74056 -3.11349 -51.2567
    endloop
  endfacet
  facet normal -0 1 0
    outer loop
      vertex -7.75674 -3.1 -42.0599
      vertex -7.63436 -3.1 -41.4506
      vertex -6.89117 -3.1 -42.6887
    endloop
  endfacet
  facet normal 0.765143 0.468412 -0.441755
    outer loop
      vertex -8.59813 -3.1 -30.2187
      vertex -7.63436 -3.1 -28.5494
      vertex 26.5 -32.3335 -0.424443
    endloop
  endfacet
  facet normal 0.733286 0.636368 -0.239432
    outer loop
      vertex -8.59813 -3.1 -30.2187
      vertex 26.5 -32.3335 -0.424443
      vertex 26.5 -32.3404 -0.442782
    endloop
  endfacet
  facet normal 0.765143 0.468411 0.441755
    outer loop
      vertex -8.59813 -3.1 -39.7813
      vertex 26.5 -32.3335 -69.5756
      vertex -7.63436 -3.1 -41.4506
    endloop
  endfacet
  facet normal 0.733113 0.636803 0.238801
    outer loop
      vertex -8.59813 -3.1 -39.7813
      vertex 26.5 -32.3404 -69.5572
      vertex 26.5 -32.3335 -69.5756
    endloop
  endfacet
  facet normal 0 1 -0
    outer loop
      vertex -9.08566 -3.1 -29.416
      vertex -7.63436 -3.1 -28.5494
      vertex -8.59813 -3.1 -30.2187
    endloop
  endfacet
  facet normal 0 1 0
    outer loop
      vertex -9.08566 -3.1 -29.416
      vertex -7.75674 -3.1 -27.9401
      vertex -7.63436 -3.1 -28.5494
    endloop
  endfacet
  facet normal -0.0050493 0.999977 0.00454646
    outer loop
      vertex -9.08566 -3.1 -29.416
      vertex 10.2 -3.15 3
      vertex -7.75674 -3.1 -27.9401
    endloop
  endfacet
  facet normal 0 1 0
    outer loop
      vertex -9.08566 -3.1 -40.584
      vertex -7.63436 -3.1 -41.4506
      vertex -7.75674 -3.1 -42.0599
    endloop
  endfacet
  facet normal -0.0050493 0.999977 -0.00454646
    outer loop
      vertex -9.08566 -3.1 -40.584
      vertex -7.75674 -3.1 -42.0599
      vertex 10.2 -3.15 -73
    endloop
  endfacet
  facet normal 0 1 0
    outer loop
      vertex -9.08566 -3.1 -40.584
      vertex -8.59813 -3.1 -39.7813
      vertex -7.63436 -3.1 -41.4506
    endloop
  endfacet
  facet normal -0.859404 0 0.511296
    outer loop
      vertex -9.08566 -3.2 -29.416
      vertex 10.2 -3.15 3
      vertex -9.08566 -3.1 -29.416
    endloop
  endfacet
  facet normal -0.859404 0 0.511296
    outer loop
      vertex -9.08566 -3.2 -29.416
      vertex 10.2 -3.25 3
      vertex 10.2 -3.15 3
    endloop
  endfacet
  facet normal -0.80291 -0.357321 0.477134
    outer loop
      vertex -9.08566 -3.2 -29.416
      vertex 26.5 -33.2 8
      vertex 10.2 -3.25 3
    endloop
  endfacet
  facet normal -0.859404 0 -0.511296
    outer loop
      vertex -9.08566 -3.2 -40.584
      vertex -9.08566 -3.1 -40.584
      vertex 10.2 -3.15 -73
    endloop
  endfacet
  facet normal -0.859404 0 -0.511296
    outer loop
      vertex -9.08566 -3.2 -40.584
      vertex 10.2 -3.15 -73
      vertex 10.2 -3.25 -73
    endloop
  endfacet
  facet normal -0.80291 -0.357321 -0.477134
    outer loop
      vertex -9.08566 -3.2 -40.584
      vertex 10.2 -3.25 -73
      vertex 26.5 -33.2 -78
    endloop
  endfacet
  facet normal 0.732933 0.637257 -0.238143
    outer loop
      vertex -9.19377 -3.1 -32.0519
      vertex -8.59813 -3.1 -30.2187
      vertex 26.5 -32.3404 -0.442782
    endloop
  endfacet
  facet normal 0.669093 0.739757 -0.0712347
    outer loop
      vertex -9.19377 -3.1 -32.0519
      vertex 26.5 -32.3404 -0.442782
      vertex 26.5 -32.3427 -0.466667
    endloop
  endfacet
  facet normal 0.732933 0.637257 0.238143
    outer loop
      vertex -9.19377 -3.1 -37.9481
      vertex 26.5 -32.3404 -69.5572
      vertex -8.59813 -3.1 -39.7813
    endloop
  endfacet
  facet normal 0.669073 0.739779 0.0711921
    outer loop
      vertex -9.19377 -3.1 -37.9481
      vertex 26.5 -32.3427 -69.5333
      vertex 26.5 -32.3404 -69.5572
    endloop
  endfacet
  facet normal 0.668649 0.74025 -0.0702761
    outer loop
      vertex -9.39525 -3.1 -33.9689
      vertex -9.19377 -3.1 -32.0519
      vertex 26.5 -32.3427 -0.466667
    endloop
  endfacet
  facet normal 0.631604 0.775291 0
    outer loop
      vertex -9.39525 -3.1 -36.0311
      vertex -9.39525 -3.1 -33.9689
      vertex 26.5 -32.3427 -0.466667
    endloop
  endfacet
  facet normal 0.631604 0.775291 0
    outer loop
      vertex -9.39525 -3.1 -36.0311
      vertex 26.5 -32.3427 -0.466667
      vertex 26.5 -32.3427 -69.5333
    endloop
  endfacet
  facet normal 0.668649 0.74025 0.0702761
    outer loop
      vertex -9.39525 -3.1 -36.0311
      vertex 26.5 -32.3427 -69.5333
      vertex -9.19377 -3.1 -37.9481
    endloop
  endfacet
  facet normal 0 0.999998 -0.00175
    outer loop
      vertex 10.2 -3.15 -73
      vertex 21.9725 -3.14475 -70
      vertex 24.6 -3.15 -73
    endloop
  endfacet
  facet normal 0 0.207685 -0.978196
    outer loop
      vertex 10.2 -3.15 -73
      vertex 24.6 -3.15 -73
      vertex 26.1 -15.331 -75.5862
    endloop
  endfacet
  facet normal -1.89395e-07 0.207685 -0.978196
    outer loop
      vertex 10.2 -3.15 -73
      vertex 26.1 -15.331 -75.5862
      vertex 26.1 -17.28 -76
    endloop
  endfacet
  facet normal 0 0.207685 -0.978196
    outer loop
      vertex 10.2 -3.15 -73
      vertex 26.1 -17.28 -76
      vertex 26.5 -26.7 -78
    endloop
  endfacet
  facet normal 0 0.999998 0.00175
    outer loop
      vertex 10.2 -3.15 3
      vertex 24.6 -3.15 3
      vertex 21.9725 -3.14475 0
    endloop
  endfacet
  facet normal -0 0.207686 0.978196
    outer loop
      vertex 10.2 -3.15 3
      vertex 26.1 -15.331 5.58621
      vertex 24.6 -3.15 3
    endloop
  endfacet
  facet normal -4.64965e-06 0.20768 0.978197
    outer loop
      vertex 10.2 -3.15 3
      vertex 26.1 -17.28 6
      vertex 26.1 -15.331 5.58621
    endloop
  endfacet
  facet normal 4.82252e-17 0.207685 0.978196
    outer loop
      vertex 10.2 -3.15 3
      vertex 26.5 -26.7 8
      vertex 26.1 -17.28 6
    endloop
  endfacet
  facet normal -0.293261 0 -0.956032
    outer loop
      vertex 10.2 -3.25 -73
      vertex 10.2 -3.15 -73
      vertex 26.5 -26.7 -78
    endloop
  endfacet
  facet normal -0.293261 0 -0.956032
    outer loop
      vertex 10.2 -3.25 -73
      vertex 26.5 -26.7 -78
      vertex 26.5 -33.2 -78
    endloop
  endfacet
  facet normal -0.293261 0 0.956032
    outer loop
      vertex 10.2 -3.25 3
      vertex 26.5 -26.7 8
      vertex 10.2 -3.15 3
    endloop
  endfacet
  facet normal -0.293261 0 0.956032
    outer loop
      vertex 10.2 -3.25 3
      vertex 26.5 -33.2 8
      vertex 26.5 -26.7 8
    endloop
  endfacet
  facet normal -0 0 1
    outer loop
      vertex 11.3311 -6.2 -70
      vertex 26.5 -26.7 -70
      vertex 21.9725 -3.14475 -70
    endloop
  endfacet
  facet normal 0 0 1
    outer loop
      vertex 11.3311 -6.2 -70
      vertex 26.5 -31.9028 -70
      vertex 26.5 -26.7 -70
    endloop
  endfacet
  facet normal 0 0 -1
    outer loop
      vertex 11.3311 -6.2 0
      vertex 21.9725 -3.14475 0
      vertex 26.5 -26.7 0
    endloop
  endfacet
  facet normal 0 0 -1
    outer loop
      vertex 11.3311 -6.2 0
      vertex 26.5 -26.7 0
      vertex 26.5 -31.9028 0
    endloop
  endfacet
  facet normal 0.000293378 0.999999 -0.00149305
    outer loop
      vertex 21.9725 -3.14475 -70
      vertex 22.2111 -3.14482 -70
      vertex 24.6 -3.15 -73
    endloop
  endfacet
  facet normal 0 0 1
    outer loop
      vertex 21.9725 -3.14475 -70
      vertex 26.5 -26.7 -70
      vertex 22.2111 -3.14482 -70
    endloop
  endfacet
  facet normal 0 0 -1
    outer loop
      vertex 21.9725 -3.14475 0
      vertex 22.2111 -3.14482 0
      vertex 26.5 -26.7 0
    endloop
  endfacet
  facet normal 0.000293378 0.999999 0.00149305
    outer loop
      vertex 21.9725 -3.14475 0
      vertex 24.6 -3.15 3
      vertex 22.2111 -3.14482 0
    endloop
  endfacet
  facet normal 0.000565199 0.999999 -0.0012766
    outer loop
      vertex 22.2111 -3.14482 -70
      vertex 22.4588 -3.14496 -70
      vertex 24.6 -3.15 -73
    endloop
  endfacet
  facet normal 0 0 1
    outer loop
      vertex 22.2111 -3.14482 -70
      vertex 26.5 -26.7 -70
      vertex 22.4588 -3.14496 -70
    endloop
  endfacet
  facet normal 0 0 -1
    outer loop
      vertex 22.2111 -3.14482 0
      vertex 22.4588 -3.14496 0
      vertex 26.5 -26.7 0
    endloop
  endfacet
  facet normal 0.000565199 0.999999 0.0012766
    outer loop
      vertex 22.2111 -3.14482 0
      vertex 24.6 -3.15 3
      vertex 22.4588 -3.14496 0
    endloop
  endfacet
  facet normal 0.000803042 0.999999 -0.00110684
    outer loop
      vertex 22.4588 -3.14496 -70
      vertex 22.6954 -3.14515 -70
      vertex 24.6 -3.15 -73
    endloop
  endfacet
  facet normal 0 0 1
    outer loop
      vertex 22.4588 -3.14496 -70
      vertex 26.5 -26.7 -70
      vertex 22.6954 -3.14515 -70
    endloop
  endfacet
  facet normal 0 0 -1
    outer loop
      vertex 22.4588 -3.14496 0
      vertex 22.6954 -3.14515 0
      vertex 26.5 -26.7 0
    endloop
  endfacet
  facet normal 0.000803042 0.999999 0.00110684
    outer loop
      vertex 22.4588 -3.14496 0
      vertex 24.6 -3.15 3
      vertex 22.6954 -3.14515 0
    endloop
  endfacet
  facet normal 0.00104912 0.999999 -0.000950616
    outer loop
      vertex 22.6954 -3.14515 -70
      vertex 22.9051 -3.14537 -70
      vertex 24.6 -3.15 -73
    endloop
  endfacet
  facet normal 0 0 1
    outer loop
      vertex 22.6954 -3.14515 -70
      vertex 26.5 -26.7 -70
      vertex 22.9051 -3.14537 -70
    endloop
  endfacet
  facet normal 0 0 -1
    outer loop
      vertex 22.6954 -3.14515 0
      vertex 22.9051 -3.14537 0
      vertex 26.5 -26.7 0
    endloop
  endfacet
  facet normal 0.00104912 0.999999 0.000950616
    outer loop
      vertex 22.6954 -3.14515 0
      vertex 24.6 -3.15 3
      vertex 22.9051 -3.14537 0
    endloop
  endfacet
  facet normal 0.0013905 0.999999 -0.000757747
    outer loop
      vertex 22.9051 -3.14537 -70
      vertex 23.0777 -3.14561 -70
      vertex 24.6 -3.15 -73
    endloop
  endfacet
  facet normal 0 0 1
    outer loop
      vertex 22.9051 -3.14537 -70
      vertex 26.5 -26.7 -70
      vertex 23.0777 -3.14561 -70
    endloop
  endfacet
  facet normal 0 0 -1
    outer loop
      vertex 22.9051 -3.14537 0
      vertex 23.0777 -3.14561 0
      vertex 26.5 -26.7 0
    endloop
  endfacet
  facet normal 0.0013905 0.999999 0.000757747
    outer loop
      vertex 22.9051 -3.14537 0
      vertex 24.6 -3.15 3
      vertex 23.0777 -3.14561 0
    endloop
  endfacet
  facet normal 0.00175572 0.999998 -0.000572419
    outer loop
      vertex 23.0777 -3.14561 -70
      vertex 23.2087 -3.14584 -70
      vertex 24.6 -3.15 -73
    endloop
  endfacet
  facet normal 0 0 1
    outer loop
      vertex 23.0777 -3.14561 -70
      vertex 26.5 -26.7 -70
      vertex 23.2087 -3.14584 -70
    endloop
  endfacet
  facet normal 0 0 -1
    outer loop
      vertex 23.0777 -3.14561 0
      vertex 23.2087 -3.14584 0
      vertex 26.5 -26.7 0
    endloop
  endfacet
  facet normal 0.00175572 0.999998 0.000572419
    outer loop
      vertex 23.0777 -3.14561 0
      vertex 24.6 -3.15 3
      vertex 23.2087 -3.14584 0
    endloop
  endfacet
  facet normal 0.00236752 0.999997 -0.000288684
    outer loop
      vertex 23.2087 -3.14584 -70
      vertex 23.2974 -3.14605 -70
      vertex 24.6 -3.15 -73
    endloop
  endfacet
  facet normal 0 0 1
    outer loop
      vertex 23.2087 -3.14584 -70
      vertex 26.5 -26.7 -70
      vertex 23.2974 -3.14605 -70
    endloop
  endfacet
  facet normal 0 0 -1
    outer loop
      vertex 23.2087 -3.14584 0
      vertex 23.2974 -3.14605 0
      vertex 26.5 -26.7 0
    endloop
  endfacet
  facet normal 0.00236752 0.999997 0.000288684
    outer loop
      vertex 23.2087 -3.14584 0
      vertex 24.6 -3.15 3
      vertex 23.2974 -3.14605 0
    endloop
  endfacet
  facet normal 0.00303238 0.999995 -0
    outer loop
      vertex 23.2974 -3.14605 -70
      vertex 24.6 -3.15 -70
      vertex 24.6 -3.15 -73
    endloop
  endfacet
  facet normal 0 0 1
    outer loop
      vertex 23.2974 -3.14605 -70
      vertex 26.5 -26.7 -70
      vertex 24.6 -3.15 -70
    endloop
  endfacet
  facet normal 0 0 -1
    outer loop
      vertex 23.2974 -3.14605 0
      vertex 24.6 -3.15 0
      vertex 26.5 -26.7 0
    endloop
  endfacet
  facet normal 0.00303238 0.999995 -0
    outer loop
      vertex 23.2974 -3.14605 0
      vertex 24.6 -3.15 3
      vertex 24.6 -3.15 0
    endloop
  endfacet
  facet normal 0 0 1
    outer loop
      vertex 24.6 -3.15 -70
      vertex 26.5 -26.7 -70
      vertex 27.5 -26.7 -70
    endloop
  endfacet
  facet normal 0.992503 0.122219 3.51204e-06
    outer loop
      vertex 24.6 -3.15 -70
      vertex 27.5 -26.7 -70
      vertex 26.1 -15.331 -71.2
    endloop
  endfacet
  facet normal 0.992503 0.122219 0
    outer loop
      vertex 24.6 -3.15 -73
      vertex 24.6 -3.15 -70
      vertex 26.1 -15.331 -71.2
    endloop
  endfacet
  facet normal 0.992503 0.122219 0
    outer loop
      vertex 24.6 -3.15 -73
      vertex 26.1 -15.331 -71.2
      vertex 26.1 -15.331 -75.5862
    endloop
  endfacet
  facet normal 0.992503 0.122219 0
    outer loop
      vertex 24.6 -3.15 0
      vertex 24.6 -3.15 3
      vertex 26.1 -15.331 1.2
    endloop
  endfacet
  facet normal 0.992503 0.122219 -3.51204e-06
    outer loop
      vertex 24.6 -3.15 0
      vertex 26.1 -15.331 1.2
      vertex 27.5 -26.7 0
    endloop
  endfacet
  facet normal 0 0 -1
    outer loop
      vertex 24.6 -3.15 0
      vertex 27.5 -26.7 0
      vertex 26.5 -26.7 0
    endloop
  endfacet
  facet normal 0.992503 0.122219 -0
    outer loop
      vertex 24.6 -3.15 3
      vertex 26.1 -15.331 5.58621
      vertex 26.1 -15.331 1.2
    endloop
  endfacet
  facet normal 0.992503 0.122219 0
    outer loop
      vertex 26.1 -15.331 -71.2
      vertex 27.5 -26.7 -70
      vertex 27.5 -26.7 -71.2
    endloop
  endfacet
  facet normal 0.992503 0.122219 -0
    outer loop
      vertex 26.1 -15.331 1.2
      vertex 27.5 -26.7 1.2
      vertex 27.5 -26.7 0
    endloop
  endfacet
  facet normal 1 0 0
    outer loop
      vertex 26.1 -17.28 -76
      vertex 26.1 -15.331 -75.5862
      vertex 26.1 -15.331 -71.2
    endloop
  endfacet
  facet normal 0 0.207685 -0.978196
    outer loop
      vertex 26.1 -17.28 -76
      vertex 26.34 -17.28 -76
      vertex 26.5 -26.7 -78
    endloop
  endfacet
  facet normal -0 0 1
    outer loop
      vertex 26.1 -17.28 -76
      vertex 27.5 -26.7 -76
      vertex 26.34 -17.28 -76
    endloop
  endfacet
  facet normal 1 0 0
    outer loop
      vertex 26.1 -17.28 6
      vertex 26.1 -15.331 1.2
      vertex 26.1 -15.331 5.58621
    endloop
  endfacet
  facet normal 0 0 -1
    outer loop
      vertex 26.1 -17.28 6
      vertex 26.34 -17.28 6
      vertex 27.5 -26.7 6
    endloop
  endfacet
  facet normal -0 0.207685 0.978196
    outer loop
      vertex 26.1 -17.28 6
      vertex 26.5 -26.7 8
      vertex 26.34 -17.28 6
    endloop
  endfacet
  facet normal -0 0 -1
    outer loop
      vertex 26.1 -29.5 -71.2
      vertex 26.1 -15.331 -71.2
      vertex 27.5 -26.7 -71.2
    endloop
  endfacet
  facet normal 1 -0 0
    outer loop
      vertex 26.1 -29.5 -71.2
      vertex 26.1 -17.28 -76
      vertex 26.1 -15.331 -71.2
    endloop
  endfacet
  facet normal 0 0 -1
    outer loop
      vertex 26.1 -29.5 -71.2
      vertex 27.5 -26.7 -71.2
      vertex 61.5 -29.5 -71.2
    endloop
  endfacet
  facet normal 0 1 -0
    outer loop
      vertex 26.1 -29.5 -71.2
      vertex 61.5 -29.5 -71.2
      vertex 61.5 -29.5 -76
    endloop
  endfacet
  facet normal 1 0 0
    outer loop
      vertex 26.1 -29.5 -76
      vertex 26.1 -17.28 -76
      vertex 26.1 -29.5 -71.2
    endloop
  endfacet
  facet normal 0 1 0
    outer loop
      vertex 26.1 -29.5 -76
      vertex 26.1 -29.5 -71.2
      vertex 61.5 -29.5 -76
    endloop
  endfacet
  facet normal 0 0 1
    outer loop
      vertex 26.1 -29.5 -76
      vertex 27.5 -26.7 -76
      vertex 26.1 -17.28 -76
    endloop
  endfacet
  facet normal 0 0 1
    outer loop
      vertex 26.1 -29.5 -76
      vertex 61.5 -29.5 -76
      vertex 27.5 -26.7 -76
    endloop
  endfacet
  facet normal 1 0 0
    outer loop
      vertex 26.1 -29.5 1.2
      vertex 26.1 -15.331 1.2
      vertex 26.1 -17.28 6
    endloop
  endfacet
  facet normal 1 0 0
    outer loop
      vertex 26.1 -29.5 1.2
      vertex 26.1 -17.28 6
      vertex 26.1 -29.5 6
    endloop
  endfacet
  facet normal 0 1 0
    outer loop
      vertex 26.1 -29.5 1.2
      vertex 26.1 -29.5 6
      vertex 61.5 -29.5 1.2
    endloop
  endfacet
  facet normal 0 0 1
    outer loop
      vertex 26.1 -29.5 1.2
      vertex 27.5 -26.7 1.2
      vertex 26.1 -15.331 1.2
    endloop
  endfacet
  facet normal 0 0 1
    outer loop
      vertex 26.1 -29.5 1.2
      vertex 61.5 -29.5 1.2
      vertex 27.5 -26.7 1.2
    endloop
  endfacet
  facet normal 0 0 -1
    outer loop
      vertex 26.1 -29.5 6
      vertex 26.1 -17.28 6
      vertex 27.5 -26.7 6
    endloop
  endfacet
  facet normal 0 0 -1
    outer loop
      vertex 26.1 -29.5 6
      vertex 27.5 -26.7 6
      vertex 61.5 -29.5 6
    endloop
  endfacet
  facet normal 0 1 -0
    outer loop
      vertex 26.1 -29.5 6
      vertex 61.5 -29.5 6
      vertex 61.5 -29.5 1.2
    endloop
  endfacet
  facet normal 0.992503 0.122219 -0
    outer loop
      vertex 26.34 -17.28 -76
      vertex 27.5 -26.7 -76
      vertex 27.5 -26.7 -78
    endloop
  endfacet
  facet normal 0 0.207685 -0.978196
    outer loop
      vertex 26.34 -17.28 -76
      vertex 27.5 -26.7 -78
      vertex 26.5 -26.7 -78
    endloop
  endfacet
  facet normal 0 0.207685 0.978196
    outer loop
      vertex 26.34 -17.28 6
      vertex 26.5 -26.7 8
      vertex 27.5 -26.7 8
    endloop
  endfacet
  facet normal 0.992503 0.122219 -0
    outer loop
      vertex 26.34 -17.28 6
      vertex 27.5 -26.7 8
      vertex 27.5 -26.7 6
    endloop
  endfacet
  facet normal 0 1 0
    outer loop
      vertex 26.5 -26.7 -1
      vertex 26.5 -26.7 0
      vertex 27.5 -26.7 0
    endloop
  endfacet
  facet normal 0 1 0
    outer loop
      vertex 26.5 -26.7 -1
      vertex 27.5 -26.7 0
      vertex 61.5 -26.7 -1
    endloop
  endfacet
  facet normal 0 1 0
    outer loop
      vertex 26.5 -26.7 -69
      vertex 61.5 -26.7 -69
      vertex 27.5 -26.7 -70
    endloop
  endfacet
  facet normal -0 0 1
    outer loop
      vertex 26.5 -26.7 -69
      vertex 61.5 -32.2 -69
      vertex 61.5 -26.7 -69
    endloop
  endfacet
  facet normal 0 1 0
    outer loop
      vertex 26.5 -26.7 -70
      vertex 26.5 -26.7 -69
      vertex 27.5 -26.7 -70
    endloop
  endfacet
  facet normal 0 0 0
    outer loop
      vertex 26.5 -26.7 -78
      vertex 27.5 -26.7 -78
      vertex 61.5 -26.7 -78
    endloop
  endfacet
  facet normal 0 0 -1
    outer loop
      vertex 26.5 -26.7 -78
      vertex 61.5 -26.7 -78
      vertex 27.5 -33.2 -78
    endloop
  endfacet
  facet normal -0 0 1
    outer loop
      vertex 26.5 -26.7 8
      vertex 27.5 -33.2 8
      vertex 61.5 -26.7 8
    endloop
  endfacet
  facet normal 0 0 0
    outer loop
      vertex 26.5 -26.7 8
      vertex 61.5 -26.7 8
      vertex 27.5 -26.7 8
    endloop
  endfacet
  facet normal -1 0 0
    outer loop
      vertex 26.5 -31.9028 -70
      vertex 26.5 -26.7 -69
      vertex 26.5 -26.7 -70
    endloop
  endfacet
  facet normal -1 0 0
    outer loop
      vertex 26.5 -31.9028 0
      vertex 26.5 -26.7 0
      vertex 26.5 -26.7 -1
    endloop
  endfacet
  facet normal -0 0 -1
    outer loop
      vertex 26.5 -32.2 -1
      vertex 26.5 -26.7 -1
      vertex 61.5 -26.7 -1
    endloop
  endfacet
  facet normal -1 0 0
    outer loop
      vertex 26.5 -32.2 -1
      vertex 26.5 -31.9028 0
      vertex 26.5 -26.7 -1
    endloop
  endfacet
  facet normal 0 0 -1
    outer loop
      vertex 26.5 -32.2 -1
      vertex 61.5 -26.7 -1
      vertex 61.5 -32.2 -1
    endloop
  endfacet
  facet normal 0 1 -0
    outer loop
      vertex 26.5 -32.2 -1
      vertex 61.5 -32.2 -1
      vertex 61.5 -32.2 -69
    endloop
  endfacet
  facet normal -1 0 0
    outer loop
      vertex 26.5 -32.2 -69
      vertex 26.5 -26.7 -69
      vertex 26.5 -31.9028 -70
    endloop
  endfacet
  facet normal 0 1 0
    outer loop
      vertex 26.5 -32.2 -69
      vertex 26.5 -32.2 -1
      vertex 61.5 -32.2 -69
    endloop
  endfacet
  facet normal 0 0 1
    outer loop
      vertex 26.5 -32.2 -69
      vertex 61.5 -32.2 -69
      vertex 26.5 -26.7 -69
    endloop
  endfacet
  facet normal -1 0 0
    outer loop
      vertex 26.5 -32.322 -0.412155
      vertex 26.5 -31.9028 0
      vertex 26.5 -32.2 -1
    endloop
  endfacet
  facet normal -1 0 0
    outer loop
      vertex 26.5 -32.322 -69.5878
      vertex 26.5 -32.2 -69
      vertex 26.5 -31.9028 -70
    endloop
  endfacet
  facet normal -1 0 0
    outer loop
      vertex 26.5 -32.3404 -0.442782
      vertex 26.5 -32.3335 -0.424443
      vertex 26.5 -32.322 -0.412155
    endloop
  endfacet
  facet normal -1 0 0
    outer loop
      vertex 26.5 -32.3404 -69.5572
      vertex 26.5 -32.322 -69.5878
      vertex 26.5 -32.3335 -69.5756
    endloop
  endfacet
  facet normal -1 0 0
    outer loop
      vertex 26.5 -32.3427 -0.466667
      vertex 26.5 -32.322 -0.412155
      vertex 26.5 -32.2 -1
    endloop
  endfacet
  facet normal -1 0 -0
    outer loop
      vertex 26.5 -32.3427 -0.466667
      vertex 26.5 -32.3404 -0.442782
      vertex 26.5 -32.322 -0.412155
    endloop
  endfacet
  facet normal -1 -0 0
    outer loop
      vertex 26.5 -32.3427 -69.5333
      vertex 26.5 -32.2 -1
      vertex 26.5 -32.2 -69
    endloop
  endfacet
  facet normal -1 0 0
    outer loop
      vertex 26.5 -32.3427 -69.5333
      vertex 26.5 -32.2 -69
      vertex 26.5 -32.322 -69.5878
    endloop
  endfacet
  facet normal -1 0 0
    outer loop
      vertex 26.5 -32.3427 -69.5333
      vertex 26.5 -32.322 -69.5878
      vertex 26.5 -32.3404 -69.5572
    endloop
  endfacet
  facet normal -1 0 0
    outer loop
      vertex 26.5 -32.3427 -69.5333
      vertex 26.5 -32.3427 -0.466667
      vertex 26.5 -32.2 -1
    endloop
  endfacet
  facet normal 0 0 -1
    outer loop
      vertex 26.5 -33.2 -78
      vertex 26.5 -26.7 -78
      vertex 27.5 -33.2 -78
    endloop
  endfacet
  facet normal 0 -1 -0
    outer loop
      vertex 26.5 -33.2 -78
      vertex 27.5 -33.2 -78
      vertex 27.5 -33.2 8
    endloop
  endfacet
  facet normal 0 -1 0
    outer loop
      vertex 26.5 -33.2 -78
      vertex 27.5 -33.2 8
      vertex 26.5 -33.2 8
    endloop
  endfacet
  facet normal 0 0 1
    outer loop
      vertex 26.5 -33.2 8
      vertex 27.5 -33.2 8
      vertex 26.5 -26.7 8
    endloop
  endfacet
  facet normal 0 1 -0
    outer loop
      vertex 27.5 -26.7 -70
      vertex 61.5 -26.7 -69
      vertex 61.5 -26.7 -71.2
    endloop
  endfacet
  facet normal 0 1 0
    outer loop
      vertex 27.5 -26.7 -71.2
      vertex 27.5 -26.7 -70
      vertex 61.5 -26.7 -71.2
    endloop
  endfacet
  facet normal 0 0 -1
    outer loop
      vertex 27.5 -26.7 -71.2
      vertex 61.5 -26.7 -71.2
      vertex 61.5 -29.5 -71.2
    endloop
  endfacet
  facet normal 0 1 -0
    outer loop
      vertex 27.5 -26.7 -76
      vertex 61.5 -26.7 -76
      vertex 61.5 -26.7 -78
    endloop
  endfacet
  facet normal -0 0 1
    outer loop
      vertex 27.5 -26.7 -76
      vertex 61.5 -29.5 -76
      vertex 61.5 -26.7 -76
    endloop
  endfacet
  facet normal 0 1 0
    outer loop
      vertex 27.5 -26.7 -78
      vertex 27.5 -26.7 -76
      vertex 61.5 -26.7 -78
    endloop
  endfacet
  facet normal 0 1 0
    outer loop
      vertex 27.5 -26.7 0
      vertex 27.5 -26.7 1.2
      vertex 61.5 -26.7 1.2
    endloop
  endfacet
  facet normal 0 1 -0
    outer loop
      vertex 27.5 -26.7 0
      vertex 61.5 -26.7 1.2
      vertex 61.5 -26.7 -1
    endloop
  endfacet
  facet normal -0 0 1
    outer loop
      vertex 27.5 -26.7 1.2
      vertex 61.5 -29.5 1.2
      vertex 61.5 -26.7 1.2
    endloop
  endfacet
  facet normal 0 1 0
    outer loop
      vertex 27.5 -26.7 6
      vertex 27.5 -26.7 8
      vertex 61.5 -26.7 6
    endloop
  endfacet
  facet normal 0 0 -1
    outer loop
      vertex 27.5 -26.7 6
      vertex 61.5 -26.7 6
      vertex 61.5 -29.5 6
    endloop
  endfacet
  facet normal 0 1 -0
    outer loop
      vertex 27.5 -26.7 8
      vertex 61.5 -26.7 8
      vertex 61.5 -26.7 6
    endloop
  endfacet
  facet normal 0 0 -1
    outer loop
      vertex 27.5 -33.2 -78
      vertex 61.5 -26.7 -78
      vertex 61.5 -33.2 -78
    endloop
  endfacet
  facet normal 0 -1 -0
    outer loop
      vertex 27.5 -33.2 -78
      vertex 61.5 -33.2 -78
      vertex 61.5 -33.2 8
    endloop
  endfacet
  facet normal 0 -1 0
    outer loop
      vertex 27.5 -33.2 -78
      vertex 61.5 -33.2 8
      vertex 27.5 -33.2 8
    endloop
  endfacet
  facet normal 0 0 1
    outer loop
      vertex 27.5 -33.2 8
      vertex 61.5 -33.2 8
      vertex 61.5 -26.7 8
    endloop
  endfacet
  facet normal 0.76504 0.451498 0.459198
    outer loop
      vertex 4.48614 -3.13035 -61.6141
      vertex 26.5 -32.322 -69.5878
      vertex 9.8 -6.2 -67.449
    endloop
  endfacet
  facet normal -0.000412379 0.999998 -0.00193276
    outer loop
      vertex 4.48614 -3.13035 -61.6141
      vertex 7.08396 -3.13763 -65.935
      vertex 10.2 -3.15 -73
    endloop
  endfacet
  facet normal 0.76504 0.451498 0.459198
    outer loop
      vertex 4.48614 -3.13035 -61.6141
      vertex 9.8 -6.2 -67.449
      vertex 7.08396 -3.13763 -65.935
    endloop
  endfacet
  facet normal -0.000412497 0.999998 0.00193282
    outer loop
      vertex 4.48614 -3.13035 -8.38591
      vertex 10.2 -3.15 3
      vertex 7.08396 -3.13763 -4.06498
    endloop
  endfacet
  facet normal 0.765041 0.451499 -0.459196
    outer loop
      vertex 4.48614 -3.13035 -8.38591
      vertex 7.08396 -3.13763 -4.06498
      vertex 9.8 -6.2 -2.55097
    endloop
  endfacet
  facet normal 0.765041 0.451499 -0.459196
    outer loop
      vertex 4.48614 -3.13035 -8.38591
      vertex 9.8 -6.2 -2.55097
      vertex 26.5 -32.322 -0.412155
    endloop
  endfacet
  facet normal 1 0 0
    outer loop
      vertex 61.5 -29.5 -71.2
      vertex 61.5 -26.7 -71.2
      vertex 61.5 -26.7 -69
    endloop
  endfacet
  facet normal 1 -0 0
    outer loop
      vertex 61.5 -29.5 -76
      vertex 61.5 -26.7 -78
      vertex 61.5 -26.7 -76
    endloop
  endfacet
  facet normal 1 -0 0
    outer loop
      vertex 61.5 -29.5 1.2
      vertex 61.5 -26.7 -1
      vertex 61.5 -26.7 1.2
    endloop
  endfacet
  facet normal 1 0 0
    outer loop
      vertex 61.5 -29.5 6
      vertex 61.5 -26.7 6
      vertex 61.5 -26.7 8
    endloop
  endfacet
  facet normal 1 0 0
    outer loop
      vertex 61.5 -32.2 -1
      vertex 61.5 -26.7 -1
      vertex 61.5 -29.5 1.2
    endloop
  endfacet
  facet normal 1 -0 0
    outer loop
      vertex 61.5 -32.2 -69
      vertex 61.5 -29.5 -71.2
      vertex 61.5 -26.7 -69
    endloop
  endfacet
  facet normal 1 0 0
    outer loop
      vertex 61.5 -33.2 -78
      vertex 61.5 -26.7 -78
      vertex 61.5 -29.5 -76
    endloop
  endfacet
  facet normal 1 0 0
    outer loop
      vertex 61.5 -33.2 -78
      vertex 61.5 -29.5 -71.2
      vertex 61.5 -32.2 -69
    endloop
  endfacet
  facet normal 1 0 0
    outer loop
      vertex 61.5 -33.2 -78
      vertex 61.5 -29.5 -76
      vertex 61.5 -29.5 -71.2
    endloop
  endfacet
  facet normal 1 0 0
    outer loop
      vertex 61.5 -33.2 -78
      vertex 61.5 -32.2 -69
      vertex 61.5 -33.2 8
    endloop
  endfacet
  facet normal 1 0 0
    outer loop
      vertex 61.5 -33.2 8
      vertex 61.5 -29.5 1.2
      vertex 61.5 -29.5 6
    endloop
  endfacet
  facet normal 1 -0 0
    outer loop
      vertex 61.5 -33.2 8
      vertex 61.5 -29.5 6
      vertex 61.5 -26.7 8
    endloop
  endfacet
  facet normal 1 0 0
    outer loop
      vertex 61.5 -33.2 8
      vertex 61.5 -32.2 -1
      vertex 61.5 -29.5 1.2
    endloop
  endfacet
  facet normal 1 0 0
    outer loop
      vertex 61.5 -33.2 8
      vertex 61.5 -32.2 -69
      vertex 61.5 -32.2 -1
    endloop
  endfacet
  facet normal 4.09819e-06 0.999998 0.00174908
    outer loop
      vertex 7.08396 -3.13763 -4.06498
      vertex 10.2 -3.15 3
      vertex 9.52805 -3.14475 0
    endloop
  endfacet
  facet normal 0.76504 0.451503 -0.459193
    outer loop
      vertex 7.08396 -3.13763 -4.06498
      vertex 9.52805 -3.14475 0
      vertex 9.8 -3.60555 0
    endloop
  endfacet
  facet normal 0.765042 0.451499 -0.459195
    outer loop
      vertex 7.08396 -3.13763 -4.06498
      vertex 9.8 -3.60555 0
      vertex 9.8 -6.2 -2.55097
    endloop
  endfacet
  facet normal 4.07538e-06 0.999998 -0.00174908
    outer loop
      vertex 7.08396 -3.13763 -65.935
      vertex 9.52805 -3.14475 -70
      vertex 10.2 -3.15 -73
    endloop
  endfacet
  facet normal 0.765041 0.451504 0.459192
    outer loop
      vertex 7.08396 -3.13763 -65.935
      vertex 9.8 -3.60555 -70
      vertex 9.52805 -3.14475 -70
    endloop
  endfacet
  facet normal 0.765041 0.451502 0.459192
    outer loop
      vertex 7.08396 -3.13763 -65.935
      vertex 9.8 -6.2 -67.449
      vertex 9.8 -3.60555 -70
    endloop
  endfacet
  facet normal 0 0.999998 -0.00175
    outer loop
      vertex 9.52805 -3.14475 -70
      vertex 21.9725 -3.14475 -70
      vertex 10.2 -3.15 -73
    endloop
  endfacet
  facet normal 0 -0 1
    outer loop
      vertex 9.52805 -3.14475 -70
      vertex 9.8 -3.60555 -70
      vertex 21.9725 -3.14475 -70
    endloop
  endfacet
  facet normal -0 0.999998 0.00175
    outer loop
      vertex 9.52805 -3.14475 0
      vertex 10.2 -3.15 3
      vertex 21.9725 -3.14475 0
    endloop
  endfacet
  facet normal -0 0 -1
    outer loop
      vertex 9.52805 -3.14475 0
      vertex 21.9725 -3.14475 0
      vertex 9.8 -3.60555 0
    endloop
  endfacet
  facet normal 0 0 1
    outer loop
      vertex 9.8 -3.60555 -70
      vertex 11.3311 -6.2 -70
      vertex 21.9725 -3.14475 -70
    endloop
  endfacet
  facet normal 0 0 -1
    outer loop
      vertex 9.8 -3.60555 0
      vertex 21.9725 -3.14475 0
      vertex 11.3311 -6.2 0
    endloop
  endfacet
  facet normal 0.765046 0.451504 -0.459183
    outer loop
      vertex 9.8 -6.2 -2.55097
      vertex 11.3311 -6.2 0
      vertex 26.5 -31.9028 0
    endloop
  endfacet
  facet normal 0.765035 0.451494 -0.459211
    outer loop
      vertex 9.8 -6.2 -2.55097
      vertex 26.5 -31.9028 0
      vertex 26.5 -32.322 -0.412155
    endloop
  endfacet
  facet normal 1 0 0
    outer loop
      vertex 9.8 -6.2 -2.55097
      vertex 9.8 -3.60555 0
      vertex 9.8 -6.2 0
    endloop
  endfacet
  facet normal -0 1 0
    outer loop
      vertex 9.8 -6.2 -2.55097
      vertex 9.8 -6.2 0
      vertex 11.3311 -6.2 0
    endloop
  endfacet
  facet normal 0.765048 0.451505 0.459179
    outer loop
      vertex 9.8 -6.2 -67.449
      vertex 26.5 -31.9028 -70
      vertex 11.3311 -6.2 -70
    endloop
  endfacet
  facet normal 0.76505 0.451506 0.459174
    outer loop
      vertex 9.8 -6.2 -67.449
      vertex 26.5 -32.322 -69.5878
      vertex 26.5 -31.9028 -70
    endloop
  endfacet
  facet normal 0 0 1
    outer loop
      vertex 9.8 -6.2 -70
      vertex 11.3311 -6.2 -70
      vertex 9.8 -3.60555 -70
    endloop
  endfacet
  facet normal 1 0 0
    outer loop
      vertex 9.8 -6.2 -70
      vertex 9.8 -3.60555 -70
      vertex 9.8 -6.2 -67.449
    endloop
  endfacet
  facet normal 0 1 0
    outer loop
      vertex 9.8 -6.2 -70
      vertex 9.8 -6.2 -67.449
      vertex 11.3311 -6.2 -70
    endloop
  endfacet
  facet normal 0 0 -1
    outer loop
      vertex 9.8 -6.2 0
      vertex 9.8 -3.60555 0
      vertex 11.3311 -6.2 0
    endloop
  endfacet
endsolid model
