solid model
  facet normal -1 -0 0
    outer loop
      vertex 0 0 0
      vertex 0 0 3
      vertex 0 35 3
    endloop
  endfacet
  facet normal -0 0 -1
    outer loop
      vertex 0 0 0
      vertex 0 35 0
      vertex 30 35 0
    endloop
  endfacet
  facet normal -1 0 0
    outer loop
      vertex 0 0 0
      vertex 0 35 3
      vertex 0 35 0
    endloop
  endfacet
  facet normal 0 -1 -0
    outer loop
      vertex 0 0 0
      vertex 30 0 0
      vertex 30 0 3
    endloop
  endfacet
  facet normal 0 -1 0
    outer loop
      vertex 0 0 0
      vertex 30 0 3
      vertex 0 0 3
    endloop
  endfacet
  facet normal 0 0 -1
    outer loop
      vertex 0 0 0
      vertex 30 35 0
      vertex 30 0 0
    endloop
  endfacet
  facet normal 0 0 1
    outer loop
      vertex 0 0 3
      vertex 30 0 3
      vertex 0 35 3
    endloop
  endfacet
  facet normal 0 1 0
    outer loop
      vertex 0 35 0
      vertex 0 35 3
      vertex 30 35 0
    endloop
  endfacet
  facet normal -0 0 1
    outer loop
      vertex 0 35 3
      vertex 30 0 3
      vertex 30 35 3
    endloop
  endfacet
  facet normal 0 1 -0
    outer loop
      vertex 0 35 3
      vertex 30 35 3
      vertex 30 35 0
    endloop
  endfacet
  facet normal 1 0 0
    outer loop
      vertex 30 0 0
      vertex 30 35 0
      vertex 30 0 3
    endloop
  endfacet
  facet normal 1 -0 0
    outer loop
      vertex 30 0 3
      vertex 30 35 0
      vertex 30 35 3
    endloop
  endfacet
endsolid model
