solid model
  facet normal -1 0 0
    outer loop
      vertex 0 -42.5 5
      vertex 0 42.5 5
      vertex 0 50 0
    endloop
  endfacet
  facet normal 0 0 1
    outer loop
      vertex 0 -42.5 5
      vertex 20 -42.5 5
      vertex 0 42.5 5
    endloop
  endfacet
  facet normal -0 0.156444 0.987687
    outer loop
      vertex 0 -42.5 5
      vertex 20 -43.2725 5.12236
      vertex 20 -42.5 5
    endloop
  endfacet
  facet normal 0 0.156444 0.987687
    outer loop
      vertex 0 -43.2725 5.12236
      vertex 20 -43.2725 5.12236
      vertex 0 -42.5 5
    endloop
  endfacet
  facet normal -0 0.453951 0.891027
    outer loop
      vertex 0 -43.2725 5.12236
      vertex 20 -43.9695 5.47746
      vertex 20 -43.2725 5.12236
    endloop
  endfacet
  facet normal 0 0.453951 0.891027
    outer loop
      vertex 0 -43.9695 5.47746
      vertex 20 -43.9695 5.47746
      vertex 0 -43.2725 5.12236
    endloop
  endfacet
  facet normal 0 0.707158 0.707056
    outer loop
      vertex 0 -44.5225 6.03054
      vertex 20 -43.9695 5.47746
      vertex 0 -43.9695 5.47746
    endloop
  endfacet
  facet normal 0 0.707158 0.707056
    outer loop
      vertex 0 -44.5225 6.03054
      vertex 20 -44.5225 6.03054
      vertex 20 -43.9695 5.47746
    endloop
  endfacet
  facet normal 0 0.891006 0.453992
    outer loop
      vertex 0 -44.8776 6.72746
      vertex 20 -44.5225 6.03054
      vertex 0 -44.5225 6.03054
    endloop
  endfacet
  facet normal 0 0.891006 0.453992
    outer loop
      vertex 0 -44.8776 6.72746
      vertex 20 -44.8776 6.72746
      vertex 20 -44.5225 6.03054
    endloop
  endfacet
  facet normal 0 1 -0
    outer loop
      vertex 0 -45 101
      vertex 20 -45 101
      vertex 20 -45 7.5
    endloop
  endfacet
  facet normal -0 0 1
    outer loop
      vertex 0 -45 101
      vertex 20 -50 101
      vertex 20 -45 101
    endloop
  endfacet
  facet normal 0 1 0
    outer loop
      vertex 0 -45 7.5
      vertex 0 -45 101
      vertex 20 -45 7.5
    endloop
  endfacet
  facet normal 0 0.98768 0.156486
    outer loop
      vertex 0 -45 7.5
      vertex 20 -44.8776 6.72746
      vertex 0 -44.8776 6.72746
    endloop
  endfacet
  facet normal 0 0.98768 0.156486
    outer loop
      vertex 0 -45 7.5
      vertex 20 -45 7.5
      vertex 20 -44.8776 6.72746
    endloop
  endfacet
  facet normal -1 0 0
    outer loop
      vertex 0 -50 0
      vertex 0 -42.5 5
      vertex 0 50 0
    endloop
  endfacet
  facet normal -1 0 0
    outer loop
      vertex 0 -50 0
      vertex 0 -43.2725 5.12236
      vertex 0 -42.5 5
    endloop
  endfacet
  facet normal -1 0 0
    outer loop
      vertex 0 -50 0
      vertex 0 -43.9695 5.47746
      vertex 0 -43.2725 5.12236
    endloop
  endfacet
  facet normal -1 0 0
    outer loop
      vertex 0 -50 0
      vertex 0 -44.5225 6.03054
      vertex 0 -43.9695 5.47746
    endloop
  endfacet
  facet normal -1 0 0
    outer loop
      vertex 0 -50 0
      vertex 0 -44.8776 6.72746
      vertex 0 -44.5225 6.03054
    endloop
  endfacet
  facet normal -1 0 0
    outer loop
      vertex 0 -50 0
      vertex 0 -45 7.5
      vertex 0 -44.8776 6.72746
    endloop
  endfacet
  facet normal -1 0 0
    outer loop
      vertex 0 -50 0
      vertex 0 -50 101
      vertex 0 -45 7.5
    endloop
  endfacet
  facet normal -0 0 -1
    outer loop
      vertex 0 -50 0
      vertex 0 50 0
      vertex 20 50 0
    endloop
  endfacet
  facet normal 0 -1 -0
    outer loop
      vertex 0 -50 0
      vertex 20 -50 0
      vertex 20 -50 101
    endloop
  endfacet
  facet normal 0 -1 0
    outer loop
      vertex 0 -50 0
      vertex 20 -50 101
      vertex 0 -50 101
    endloop
  endfacet
  facet normal 0 0 -1
    outer loop
      vertex 0 -50 0
      vertex 20 50 0
      vertex 20 -50 0
    endloop
  endfacet
  facet normal -1 0 0
    outer loop
      vertex 0 -50 101
      vertex 0 -45 101
      vertex 0 -45 7.5
    endloop
  endfacet
  facet normal 0 0 1
    outer loop
      vertex 0 -50 101
      vertex 20 -50 101
      vertex 0 -45 101
    endloop
  endfacet
  facet normal -1 0 0
    outer loop
      vertex 0 42.5 5
      vertex 0 43.2725 5.12236
      vertex 0 50 0
    endloop
  endfacet
  facet normal -0 0 1
    outer loop
      vertex 0 42.5 5
      vertex 20 -42.5 5
      vertex 20 42.5 5
    endloop
  endfacet
  facet normal 0 -0.156444 0.987687
    outer loop
      vertex 0 42.5 5
      vertex 20 42.5 5
      vertex 0 43.2725 5.12236
    endloop
  endfacet
  facet normal -1 0 0
    outer loop
      vertex 0 43.2725 5.12236
      vertex 0 43.9695 5.47746
      vertex 0 50 0
    endloop
  endfacet
  facet normal 0 -0.156444 0.987687
    outer loop
      vertex 0 43.2725 5.12236
      vertex 20 42.5 5
      vertex 20 43.2725 5.12236
    endloop
  endfacet
  facet normal 0 -0.453951 0.891027
    outer loop
      vertex 0 43.2725 5.12236
      vertex 20 43.2725 5.12236
      vertex 0 43.9695 5.47746
    endloop
  endfacet
  facet normal -1 0 0
    outer loop
      vertex 0 43.9695 5.47746
      vertex 0 44.5225 6.03054
      vertex 0 50 0
    endloop
  endfacet
  facet normal 0 -0.453951 0.891027
    outer loop
      vertex 0 43.9695 5.47746
      vertex 20 43.2725 5.12236
      vertex 20 43.9695 5.47746
    endloop
  endfacet
  facet normal 0 -0.707158 0.707056
    outer loop
      vertex 0 43.9695 5.47746
      vertex 20 43.9695 5.47746
      vertex 20 44.5225 6.03054
    endloop
  endfacet
  facet normal 0 -0.707158 0.707056
    outer loop
      vertex 0 43.9695 5.47746
      vertex 20 44.5225 6.03054
      vertex 0 44.5225 6.03054
    endloop
  endfacet
  facet normal -1 0 0
    outer loop
      vertex 0 44.5225 6.03054
      vertex 0 44.8776 6.72746
      vertex 0 50 0
    endloop
  endfacet
  facet normal 0 -0.891006 0.453992
    outer loop
      vertex 0 44.5225 6.03054
      vertex 20 44.5225 6.03054
      vertex 20 44.8776 6.72746
    endloop
  endfacet
  facet normal 0 -0.891006 0.453992
    outer loop
      vertex 0 44.5225 6.03054
      vertex 20 44.8776 6.72746
      vertex 0 44.8776 6.72746
    endloop
  endfacet
  facet normal -1 0 0
    outer loop
      vertex 0 44.8776 6.72746
      vertex 0 45 7.5
      vertex 0 50 0
    endloop
  endfacet
  facet normal 0 -0.98768 0.156486
    outer loop
      vertex 0 44.8776 6.72746
      vertex 20 44.8776 6.72746
      vertex 20 45 7.5
    endloop
  endfacet
  facet normal 0 -0.98768 0.156486
    outer loop
      vertex 0 44.8776 6.72746
      vertex 20 45 7.5
      vertex 0 45 7.5
    endloop
  endfacet
  facet normal 0 0 1
    outer loop
      vertex 0 45 101
      vertex 20 45 101
      vertex 0 50 101
    endloop
  endfacet
  facet normal -1 -0 0
    outer loop
      vertex 0 45 7.5
      vertex 0 45 101
      vertex 0 50 101
    endloop
  endfacet
  facet normal -1 0 0
    outer loop
      vertex 0 45 7.5
      vertex 0 50 101
      vertex 0 50 0
    endloop
  endfacet
  facet normal 0 -1 0
    outer loop
      vertex 0 45 7.5
      vertex 20 45 101
      vertex 0 45 101
    endloop
  endfacet
  facet normal 0 -1 -0
    outer loop
      vertex 0 45 7.5
      vertex 20 45 7.5
      vertex 20 45 101
    endloop
  endfacet
  facet normal 0 1 0
    outer loop
      vertex 0 50 0
      vertex 0 50 101
      vertex 20 50 0
    endloop
  endfacet
  facet normal -0 0 1
    outer loop
      vertex 0 50 101
      vertex 20 45 101
      vertex 20 50 101
    endloop
  endfacet
  facet normal 0 1 -0
    outer loop
      vertex 0 50 101
      vertex 20 50 101
      vertex 20 50 0
    endloop
  endfacet
  facet normal 1 -0 0
    outer loop
      vertex 20 -42.5 5
      vertex 20 50 0
      vertex 20 42.5 5
    endloop
  endfacet
  facet normal 1 0 0
    outer loop
      vertex 20 -50 0
      vertex 20 -42.5 5
      vertex 20 -43.2725 5.12236
    endloop
  endfacet
  facet normal 1 0 0
    outer loop
      vertex 20 -50 0
      vertex 20 -43.2725 5.12236
      vertex 20 -43.9695 5.47746
    endloop
  endfacet
  facet normal 1 0 0
    outer loop
      vertex 20 -50 0
      vertex 20 -43.9695 5.47746
      vertex 20 -44.5225 6.03054
    endloop
  endfacet
  facet normal 1 0 0
    outer loop
      vertex 20 -50 0
      vertex 20 -44.5225 6.03054
      vertex 20 -44.8776 6.72746
    endloop
  endfacet
  facet normal 1 0 0
    outer loop
      vertex 20 -50 0
      vertex 20 -44.8776 6.72746
      vertex 20 -45 7.5
    endloop
  endfacet
  facet normal 1 0 0
    outer loop
      vertex 20 -50 0
      vertex 20 -45 7.5
      vertex 20 -50 101
    endloop
  endfacet
  facet normal 1 0 0
    outer loop
      vertex 20 -50 0
      vertex 20 50 0
      vertex 20 -42.5 5
    endloop
  endfacet
  facet normal 1 0 0
    outer loop
      vertex 20 -50 101
      vertex 20 -45 7.5
      vertex 20 -45 101
    endloop
  endfacet
  facet normal 1 -0 0
    outer loop
      vertex 20 42.5 5
      vertex 20 50 0
      vertex 20 43.2725 5.12236
    endloop
  endfacet
  facet normal 1 -0 0
    outer loop
      vertex 20 43.2725 5.12236
      vertex 20 50 0
      vertex 20 43.9695 5.47746
    endloop
  endfacet
  facet normal 1 -0 0
    outer loop
      vertex 20 43.9695 5.47746
      vertex 20 50 0
      vertex 20 44.5225 6.03054
    endloop
  endfacet
  facet normal 1 -0 0
    outer loop
      vertex 20 44.5225 6.03054
      vertex 20 50 0
      vertex 20 44.8776 6.72746
    endloop
  endfacet
  facet normal 1 -0 0
    outer loop
      vertex 20 44.8776 6.72746
      vertex 20 50 0
      vertex 20 45 7.5
    endloop
  endfacet
  facet normal 1 0 0
    outer loop
      vertex 20 45 7.5
      vertex 20 50 0
      vertex 20 50 101
    endloop
  endfacet
  facet normal 1 0 0
    outer loop
      vertex 20 45 7.5
      vertex 20 50 101
      vertex 20 45 101
    endloop
  endfacet
endsolid model
