solid model
  facet normal 0 0 1
    outer loop
      vertex -15.3073 -36.9552 -3.4
      vertex -3.0806 -7.43723 -3.4
      vertex -5.69221 -5.69221 -3.4
    endloop
  endfacet
  facet normal 0 0 1
    outer loop
      vertex -15.3073 -36.9552 -3.4
      vertex 0 -40 -3.4
      vertex 5.98873 -14.6347 -3.4
    endloop
  endfacet
  facet normal 0 0 1
    outer loop
      vertex -15.3073 -36.9552 -3.4
      vertex 5.98873 -14.6347 -3.4
      vertex -3.0806 -7.43723 -3.4
    endloop
  endfacet
  facet normal 0 -0 -1
    outer loop
      vertex -15.3073 -36.9552 -5
      vertex -3.0806 -7.43723 -5
      vertex 5.98873 -14.6347 -5
    endloop
  endfacet
  facet normal -0 0 -1
    outer loop
      vertex -15.3073 -36.9552 -5
      vertex -5.69221 -5.69221 -5
      vertex -3.0806 -7.43723 -5
    endloop
  endfacet
  facet normal -0.19509 -0.980785 0
    outer loop
      vertex -15.3073 -36.9552 -5
      vertex 0 -40 -3.4
      vertex -15.3073 -36.9552 -3.4
    endloop
  endfacet
  facet normal -0.19509 -0.980785 -0
    outer loop
      vertex -15.3073 -36.9552 -5
      vertex 0 -40 -5
      vertex 0 -40 -3.4
    endloop
  endfacet
  facet normal 0 0 -1
    outer loop
      vertex -15.3073 -36.9552 -5
      vertex 5.98873 -14.6347 -5
      vertex 0 -40 -5
    endloop
  endfacet
  facet normal 0 -0 1
    outer loop
      vertex -15.3073 36.9552 -3.4
      vertex -3.0806 7.43723 -3.4
      vertex 5.98873 14.6347 -3.4
    endloop
  endfacet
  facet normal 0 0 1
    outer loop
      vertex -15.3073 36.9552 -3.4
      vertex -5.69221 5.69221 -3.4
      vertex -3.0806 7.43723 -3.4
    endloop
  endfacet
  facet normal -0.19509 0.980785 0
    outer loop
      vertex -15.3073 36.9552 -3.4
      vertex 0 40 -3.4
      vertex 0 40 -5
    endloop
  endfacet
  facet normal -0 0 1
    outer loop
      vertex -15.3073 36.9552 -3.4
      vertex 5.98873 14.6347 -3.4
      vertex 0 40 -3.4
    endloop
  endfacet
  facet normal -0.19509 0.980785 0
    outer loop
      vertex -15.3073 36.9552 -5
      vertex -15.3073 36.9552 -3.4
      vertex 0 40 -5
    endloop
  endfacet
  facet normal 0 0 -1
    outer loop
      vertex -15.3073 36.9552 -5
      vertex -3.0806 7.43723 -5
      vertex -5.69221 5.69221 -5
    endloop
  endfacet
  facet normal 0 0 -1
    outer loop
      vertex -15.3073 36.9552 -5
      vertex 0 40 -5
      vertex 5.98873 14.6347 -5
    endloop
  endfacet
  facet normal -0 0 -1
    outer loop
      vertex -15.3073 36.9552 -5
      vertex 5.98873 14.6347 -5
      vertex -3.0806 7.43723 -5
    endloop
  endfacet
  facet normal 0 0 1
    outer loop
      vertex -28.2843 -28.2843 -3.4
      vertex -15.3073 -36.9552 -3.4
      vertex -5.69221 -5.69221 -3.4
    endloop
  endfacet
  facet normal 0 0 1
    outer loop
      vertex -28.2843 -28.2843 -3.4
      vertex -5.69221 -5.69221 -3.4
      vertex -7.43723 -3.0806 -3.4
    endloop
  endfacet
  facet normal -0.555568 -0.831471 0
    outer loop
      vertex -28.2843 -28.2843 -5
      vertex -15.3073 -36.9552 -3.4
      vertex -28.2843 -28.2843 -3.4
    endloop
  endfacet
  facet normal -0.555568 -0.831471 -0
    outer loop
      vertex -28.2843 -28.2843 -5
      vertex -15.3073 -36.9552 -5
      vertex -15.3073 -36.9552 -3.4
    endloop
  endfacet
  facet normal 0 0 -1
    outer loop
      vertex -28.2843 -28.2843 -5
      vertex -5.69221 -5.69221 -5
      vertex -15.3073 -36.9552 -5
    endloop
  endfacet
  facet normal -0 0 -1
    outer loop
      vertex -28.2843 -28.2843 -5
      vertex -7.43723 -3.0806 -5
      vertex -5.69221 -5.69221 -5
    endloop
  endfacet
  facet normal -0.555568 0.831471 0
    outer loop
      vertex -28.2843 28.2843 -3.4
      vertex -15.3073 36.9552 -3.4
      vertex -15.3073 36.9552 -5
    endloop
  endfacet
  facet normal -0 0 1
    outer loop
      vertex -28.2843 28.2843 -3.4
      vertex -5.69221 5.69221 -3.4
      vertex -15.3073 36.9552 -3.4
    endloop
  endfacet
  facet normal 0 0 1
    outer loop
      vertex -28.2843 28.2843 -3.4
      vertex -7.43723 3.0806 -3.4
      vertex -5.69221 5.69221 -3.4
    endloop
  endfacet
  facet normal 0 0 -1
    outer loop
      vertex -28.2843 28.2843 -5
      vertex -15.3073 36.9552 -5
      vertex -5.69221 5.69221 -5
    endloop
  endfacet
  facet normal -0.555568 0.831471 0
    outer loop
      vertex -28.2843 28.2843 -5
      vertex -28.2843 28.2843 -3.4
      vertex -15.3073 36.9552 -5
    endloop
  endfacet
  facet normal 0 0 -1
    outer loop
      vertex -28.2843 28.2843 -5
      vertex -5.69221 5.69221 -5
      vertex -7.43723 3.0806 -5
    endloop
  endfacet
  facet normal 0.19509 0.980785 -0
    outer loop
      vertex -3.0806 -7.43723 -3.4
      vertex 0 -8.05 -3.4
      vertex 0 -8.05 -5
    endloop
  endfacet
  facet normal 0 0 1
    outer loop
      vertex -3.0806 -7.43723 -3.4
      vertex 5.81118 -14.2863 -3.4
      vertex 0 -8.05 -3.4
    endloop
  endfacet
  facet normal 0 0 1
    outer loop
      vertex -3.0806 -7.43723 -3.4
      vertex 5.98873 -14.6347 -3.4
      vertex 5.81118 -14.2863 -3.4
    endloop
  endfacet
  facet normal 0.19509 0.980785 0
    outer loop
      vertex -3.0806 -7.43723 -5
      vertex -3.0806 -7.43723 -3.4
      vertex 0 -8.05 -5
    endloop
  endfacet
  facet normal 0 0 -1
    outer loop
      vertex -3.0806 -7.43723 -5
      vertex 0 -8.05 -5
      vertex 5.81118 -14.2863 -5
    endloop
  endfacet
  facet normal 0 0 -1
    outer loop
      vertex -3.0806 -7.43723 -5
      vertex 5.81118 -14.2863 -5
      vertex 5.98873 -14.6347 -5
    endloop
  endfacet
  facet normal 0 0 1
    outer loop
      vertex -3.0806 7.43723 -3.4
      vertex 0 8.05 -3.4
      vertex 5.81118 14.2863 -3.4
    endloop
  endfacet
  facet normal 0 0 1
    outer loop
      vertex -3.0806 7.43723 -3.4
      vertex 5.81118 14.2863 -3.4
      vertex 5.98873 14.6347 -3.4
    endloop
  endfacet
  facet normal 0.19509 -0.980785 0
    outer loop
      vertex -3.0806 7.43723 -5
      vertex 0 8.05 -3.4
      vertex -3.0806 7.43723 -3.4
    endloop
  endfacet
  facet normal 0.19509 -0.980785 0
    outer loop
      vertex -3.0806 7.43723 -5
      vertex 0 8.05 -5
      vertex 0 8.05 -3.4
    endloop
  endfacet
  facet normal 0 0 -1
    outer loop
      vertex -3.0806 7.43723 -5
      vertex 5.81118 14.2863 -5
      vertex 0 8.05 -5
    endloop
  endfacet
  facet normal 0 0 -1
    outer loop
      vertex -3.0806 7.43723 -5
      vertex 5.98873 14.6347 -5
      vertex 5.81118 14.2863 -5
    endloop
  endfacet
  facet normal 0 0 1
    outer loop
      vertex -36.9552 -15.3073 -3.4
      vertex -28.2843 -28.2843 -3.4
      vertex -7.43723 -3.0806 -3.4
    endloop
  endfacet
  facet normal -0.831471 -0.555568 0
    outer loop
      vertex -36.9552 -15.3073 -3.4
      vertex -28.2843 -28.2843 -5
      vertex -28.2843 -28.2843 -3.4
    endloop
  endfacet
  facet normal 0 0 1
    outer loop
      vertex -36.9552 -15.3073 -3.4
      vertex -7.43723 -3.0806 -3.4
      vertex -8.05 0 -3.4
    endloop
  endfacet
  facet normal -0.831471 -0.555568 0
    outer loop
      vertex -36.9552 -15.3073 -5
      vertex -28.2843 -28.2843 -5
      vertex -36.9552 -15.3073 -3.4
    endloop
  endfacet
  facet normal 0 0 -1
    outer loop
      vertex -36.9552 -15.3073 -5
      vertex -7.43723 -3.0806 -5
      vertex -28.2843 -28.2843 -5
    endloop
  endfacet
  facet normal -0 0 -1
    outer loop
      vertex -36.9552 -15.3073 -5
      vertex -8.05 0 -5
      vertex -7.43723 -3.0806 -5
    endloop
  endfacet
  facet normal -0 0 1
    outer loop
      vertex -36.9552 15.3073 -3.4
      vertex -7.43723 3.0806 -3.4
      vertex -28.2843 28.2843 -3.4
    endloop
  endfacet
  facet normal 0 0 1
    outer loop
      vertex -36.9552 15.3073 -3.4
      vertex -8.05 0 -3.4
      vertex -7.43723 3.0806 -3.4
    endloop
  endfacet
  facet normal -0.831471 0.555568 0
    outer loop
      vertex -36.9552 15.3073 -5
      vertex -28.2843 28.2843 -3.4
      vertex -28.2843 28.2843 -5
    endloop
  endfacet
  facet normal 0 0 -1
    outer loop
      vertex -36.9552 15.3073 -5
      vertex -28.2843 28.2843 -5
      vertex -7.43723 3.0806 -5
    endloop
  endfacet
  facet normal -0.831471 0.555568 0
    outer loop
      vertex -36.9552 15.3073 -5
      vertex -36.9552 15.3073 -3.4
      vertex -28.2843 28.2843 -3.4
    endloop
  endfacet
  facet normal 0 0 -1
    outer loop
      vertex -36.9552 15.3073 -5
      vertex -7.43723 3.0806 -5
      vertex -8.05 0 -5
    endloop
  endfacet
  facet normal 0 0 1
    outer loop
      vertex -40 0 -3.4
      vertex -36.9552 -15.3073 -3.4
      vertex -8.05 0 -3.4
    endloop
  endfacet
  facet normal -0.980785 -0.19509 0
    outer loop
      vertex -40 0 -3.4
      vertex -36.9552 -15.3073 -5
      vertex -36.9552 -15.3073 -3.4
    endloop
  endfacet
  facet normal 0 0 1
    outer loop
      vertex -40 0 -3.4
      vertex -8.05 0 -3.4
      vertex -36.9552 15.3073 -3.4
    endloop
  endfacet
  facet normal -0.980785 -0.19509 0
    outer loop
      vertex -40 0 -5
      vertex -36.9552 -15.3073 -5
      vertex -40 0 -3.4
    endloop
  endfacet
  facet normal -0.980785 0.19509 0
    outer loop
      vertex -40 0 -5
      vertex -36.9552 15.3073 -3.4
      vertex -36.9552 15.3073 -5
    endloop
  endfacet
  facet normal 0 0 -1
    outer loop
      vertex -40 0 -5
      vertex -36.9552 15.3073 -5
      vertex -8.05 0 -5
    endloop
  endfacet
  facet normal -0.980785 0.19509 0
    outer loop
      vertex -40 0 -5
      vertex -40 0 -3.4
      vertex -36.9552 15.3073 -3.4
    endloop
  endfacet
  facet normal 0 0 -1
    outer loop
      vertex -40 0 -5
      vertex -8.05 0 -5
      vertex -36.9552 -15.3073 -5
    endloop
  endfacet
  facet normal 0.55557 0.83147 -0
    outer loop
      vertex -5.69221 -5.69221 -3.4
      vertex -3.0806 -7.43723 -3.4
      vertex -3.0806 -7.43723 -5
    endloop
  endfacet
  facet normal 0.55557 0.83147 0
    outer loop
      vertex -5.69221 -5.69221 -5
      vertex -5.69221 -5.69221 -3.4
      vertex -3.0806 -7.43723 -5
    endloop
  endfacet
  facet normal 0.55557 -0.83147 0
    outer loop
      vertex -5.69221 5.69221 -5
      vertex -3.0806 7.43723 -3.4
      vertex -5.69221 5.69221 -3.4
    endloop
  endfacet
  facet normal 0.55557 -0.83147 0
    outer loop
      vertex -5.69221 5.69221 -5
      vertex -3.0806 7.43723 -5
      vertex -3.0806 7.43723 -3.4
    endloop
  endfacet
  facet normal 0.83147 0.55557 0
    outer loop
      vertex -7.43723 -3.0806 -5
      vertex -5.69221 -5.69221 -3.4
      vertex -5.69221 -5.69221 -5
    endloop
  endfacet
  facet normal 0.83147 0.55557 0
    outer loop
      vertex -7.43723 -3.0806 -5
      vertex -7.43723 -3.0806 -3.4
      vertex -5.69221 -5.69221 -3.4
    endloop
  endfacet
  facet normal 0.83147 -0.55557 0
    outer loop
      vertex -7.43723 3.0806 -3.4
      vertex -5.69221 5.69221 -5
      vertex -5.69221 5.69221 -3.4
    endloop
  endfacet
  facet normal 0.83147 -0.55557 0
    outer loop
      vertex -7.43723 3.0806 -5
      vertex -5.69221 5.69221 -5
      vertex -7.43723 3.0806 -3.4
    endloop
  endfacet
  facet normal 0.980785 -0.19509 0
    outer loop
      vertex -8.05 0 -3.4
      vertex -7.43723 3.0806 -5
      vertex -7.43723 3.0806 -3.4
    endloop
  endfacet
  facet normal 0.980785 0.19509 0
    outer loop
      vertex -8.05 0 -5
      vertex -7.43723 -3.0806 -3.4
      vertex -7.43723 -3.0806 -5
    endloop
  endfacet
  facet normal 0.980785 -0.19509 0
    outer loop
      vertex -8.05 0 -5
      vertex -7.43723 3.0806 -5
      vertex -8.05 0 -3.4
    endloop
  endfacet
  facet normal 0.980785 0.19509 0
    outer loop
      vertex -8.05 0 -5
      vertex -8.05 0 -3.4
      vertex -7.43723 -3.0806 -3.4
    endloop
  endfacet
  facet normal 0 0 1
    outer loop
      vertex 0 -40 -3.4
      vertex 15.3073 -36.9552 -3.4
      vertex 7 -15.15 -3.4
    endloop
  endfacet
  facet normal 0 0 1
    outer loop
      vertex 0 -40 -3.4
      vertex 6.26527 -14.9113 -3.4
      vertex 5.98873 -14.6347 -3.4
    endloop
  endfacet
  facet normal 0 0 1
    outer loop
      vertex 0 -40 -3.4
      vertex 6.61373 -15.0888 -3.4
      vertex 6.26527 -14.9113 -3.4
    endloop
  endfacet
  facet normal 0 0 1
    outer loop
      vertex 0 -40 -3.4
      vertex 7 -15.15 -3.4
      vertex 6.61373 -15.0888 -3.4
    endloop
  endfacet
  facet normal 0.19509 -0.980785 0
    outer loop
      vertex 0 -40 -5
      vertex 15.3073 -36.9552 -3.4
      vertex 0 -40 -3.4
    endloop
  endfacet
  facet normal 0.19509 -0.980785 0
    outer loop
      vertex 0 -40 -5
      vertex 15.3073 -36.9552 -5
      vertex 15.3073 -36.9552 -3.4
    endloop
  endfacet
  facet normal -0 0 -1
    outer loop
      vertex 0 -40 -5
      vertex 5.98873 -14.6347 -5
      vertex 6.26527 -14.9113 -5
    endloop
  endfacet
  facet normal -0 0 -1
    outer loop
      vertex 0 -40 -5
      vertex 6.26527 -14.9113 -5
      vertex 6.61373 -15.0888 -5
    endloop
  endfacet
  facet normal -0 0 -1
    outer loop
      vertex 0 -40 -5
      vertex 6.61373 -15.0888 -5
      vertex 7 -15.15 -5
    endloop
  endfacet
  facet normal 0 0 -1
    outer loop
      vertex 0 -40 -5
      vertex 7 -15.15 -5
      vertex 15.3073 -36.9552 -5
    endloop
  endfacet
  facet normal -0.19509 0.980785 0
    outer loop
      vertex 0 -8.05 -3.4
      vertex 3.0806 -7.43723 -3.4
      vertex 3.0806 -7.43723 -5
    endloop
  endfacet
  facet normal 0 0 1
    outer loop
      vertex 0 -8.05 -3.4
      vertex 5.75 -13.9 -3.4
      vertex 5.81118 -13.5137 -3.4
    endloop
  endfacet
  facet normal -0 0 1
    outer loop
      vertex 0 -8.05 -3.4
      vertex 5.81118 -13.5137 -3.4
      vertex 3.0806 -7.43723 -3.4
    endloop
  endfacet
  facet normal 0 0 1
    outer loop
      vertex 0 -8.05 -3.4
      vertex 5.81118 -14.2863 -3.4
      vertex 5.75 -13.9 -3.4
    endloop
  endfacet
  facet normal -0.19509 0.980785 0
    outer loop
      vertex 0 -8.05 -5
      vertex 0 -8.05 -3.4
      vertex 3.0806 -7.43723 -5
    endloop
  endfacet
  facet normal 0 0 -1
    outer loop
      vertex 0 -8.05 -5
      vertex 3.0806 -7.43723 -5
      vertex 5.81118 -13.5137 -5
    endloop
  endfacet
  facet normal 0 0 -1
    outer loop
      vertex 0 -8.05 -5
      vertex 5.75 -13.9 -5
      vertex 5.81118 -14.2863 -5
    endloop
  endfacet
  facet normal 0 0 -1
    outer loop
      vertex 0 -8.05 -5
      vertex 5.81118 -13.5137 -5
      vertex 5.75 -13.9 -5
    endloop
  endfacet
  facet normal 0.19509 0.980785 -0
    outer loop
      vertex 0 40 -3.4
      vertex 15.3073 36.9552 -3.4
      vertex 15.3073 36.9552 -5
    endloop
  endfacet
  facet normal 0 0 1
    outer loop
      vertex 0 40 -3.4
      vertex 5.98873 14.6347 -3.4
      vertex 6.26527 14.9113 -3.4
    endloop
  endfacet
  facet normal 0 0 1
    outer loop
      vertex 0 40 -3.4
      vertex 6.26527 14.9113 -3.4
      vertex 6.61373 15.0888 -3.4
    endloop
  endfacet
  facet normal 0 0 1
    outer loop
      vertex 0 40 -3.4
      vertex 6.61373 15.0888 -3.4
      vertex 7 15.15 -3.4
    endloop
  endfacet
  facet normal 0 0 1
    outer loop
      vertex 0 40 -3.4
      vertex 7 15.15 -3.4
      vertex 15.3073 36.9552 -3.4
    endloop
  endfacet
  facet normal 0.19509 0.980785 0
    outer loop
      vertex 0 40 -5
      vertex 0 40 -3.4
      vertex 15.3073 36.9552 -5
    endloop
  endfacet
  facet normal 0 0 -1
    outer loop
      vertex 0 40 -5
      vertex 15.3073 36.9552 -5
      vertex 7 15.15 -5
    endloop
  endfacet
  facet normal 0 0 -1
    outer loop
      vertex 0 40 -5
      vertex 6.26527 14.9113 -5
      vertex 5.98873 14.6347 -5
    endloop
  endfacet
  facet normal 0 0 -1
    outer loop
      vertex 0 40 -5
      vertex 6.61373 15.0888 -5
      vertex 6.26527 14.9113 -5
    endloop
  endfacet
  facet normal 0 0 -1
    outer loop
      vertex 0 40 -5
      vertex 7 15.15 -5
      vertex 6.61373 15.0888 -5
    endloop
  endfacet
  facet normal 0 0 1
    outer loop
      vertex 0 8.05 -3.4
      vertex 3.0806 7.43723 -3.4
      vertex 5.81118 13.5137 -3.4
    endloop
  endfacet
  facet normal 0 0 1
    outer loop
      vertex 0 8.05 -3.4
      vertex 5.75 13.9 -3.4
      vertex 5.81118 14.2863 -3.4
    endloop
  endfacet
  facet normal 0 0 1
    outer loop
      vertex 0 8.05 -3.4
      vertex 5.81118 13.5137 -3.4
      vertex 5.75 13.9 -3.4
    endloop
  endfacet
  facet normal -0.19509 -0.980785 0
    outer loop
      vertex 0 8.05 -5
      vertex 3.0806 7.43723 -3.4
      vertex 0 8.05 -3.4
    endloop
  endfacet
  facet normal -0.19509 -0.980785 -0
    outer loop
      vertex 0 8.05 -5
      vertex 3.0806 7.43723 -5
      vertex 3.0806 7.43723 -3.4
    endloop
  endfacet
  facet normal -0 0 -1
    outer loop
      vertex 0 8.05 -5
      vertex 5.75 13.9 -5
      vertex 5.81118 13.5137 -5
    endloop
  endfacet
  facet normal 0 0 -1
    outer loop
      vertex 0 8.05 -5
      vertex 5.81118 13.5137 -5
      vertex 3.0806 7.43723 -5
    endloop
  endfacet
  facet normal -0 0 -1
    outer loop
      vertex 0 8.05 -5
      vertex 5.81118 14.2863 -5
      vertex 5.75 13.9 -5
    endloop
  endfacet
  facet normal 0.555568 -0.831471 0
    outer loop
      vertex 15.3073 -36.9552 -5
      vertex 28.2843 -28.2843 -3.4
      vertex 15.3073 -36.9552 -3.4
    endloop
  endfacet
  facet normal 0.555568 -0.831471 0
    outer loop
      vertex 15.3073 -36.9552 -5
      vertex 28.2843 -28.2843 -5
      vertex 28.2843 -28.2843 -3.4
    endloop
  endfacet
  facet normal 0.555568 0.831471 -0
    outer loop
      vertex 15.3073 36.9552 -3.4
      vertex 28.2843 28.2843 -3.4
      vertex 28.2843 28.2843 -5
    endloop
  endfacet
  facet normal 0.555568 0.831471 0
    outer loop
      vertex 15.3073 36.9552 -5
      vertex 15.3073 36.9552 -3.4
      vertex 28.2843 28.2843 -5
    endloop
  endfacet
  facet normal 0 0 1
    outer loop
      vertex 17.359 -1.95106 -3.4
      vertex 21.8653 -1.01127 -3.4
      vertex 18.05 -1 -3.4
    endloop
  endfacet
  facet normal 0 0 1
    outer loop
      vertex 17.359 -1.95106 -3.4
      vertex 22.2137 -1.18882 -3.4
      vertex 21.8653 -1.01127 -3.4
    endloop
  endfacet
  facet normal 0 0 1
    outer loop
      vertex 17.359 -1.95106 -3.4
      vertex 22.6 -1.25 -3.4
      vertex 22.2137 -1.18882 -3.4
    endloop
  endfacet
  facet normal -0.809011 0.587793 0
    outer loop
      vertex 17.359 -1.95106 -5
      vertex 17.359 -1.95106 -3.4
      vertex 18.05 -1 -3.4
    endloop
  endfacet
  facet normal -0.809011 0.587793 0
    outer loop
      vertex 17.359 -1.95106 -5
      vertex 18.05 -1 -3.4
      vertex 18.05 -1 -5
    endloop
  endfacet
  facet normal 0 -0 -1
    outer loop
      vertex 17.359 -1.95106 -5
      vertex 18.05 -1 -5
      vertex 21.8653 -1.01127 -5
    endloop
  endfacet
  facet normal -0 0 -1
    outer loop
      vertex 17.359 -1.95106 -5
      vertex 21.8653 -1.01127 -5
      vertex 22.2137 -1.18882 -5
    endloop
  endfacet
  facet normal -0 0 -1
    outer loop
      vertex 17.359 -1.95106 -5
      vertex 22.2137 -1.18882 -5
      vertex 22.6 -1.25 -5
    endloop
  endfacet
  facet normal 0 -0 1
    outer loop
      vertex 17.359 1.95106 -3.4
      vertex 18.05 1 -3.4
      vertex 21.8653 1.01127 -3.4
    endloop
  endfacet
  facet normal -0.809011 -0.587793 0
    outer loop
      vertex 17.359 1.95106 -3.4
      vertex 18.05 1 -5
      vertex 18.05 1 -3.4
    endloop
  endfacet
  facet normal 0 0 1
    outer loop
      vertex 17.359 1.95106 -3.4
      vertex 21.8653 1.01127 -3.4
      vertex 22.2137 1.18882 -3.4
    endloop
  endfacet
  facet normal 0 0 1
    outer loop
      vertex 17.359 1.95106 -3.4
      vertex 22.2137 1.18882 -3.4
      vertex 22.6 1.25 -3.4
    endloop
  endfacet
  facet normal -0.809011 -0.587793 0
    outer loop
      vertex 17.359 1.95106 -5
      vertex 18.05 1 -5
      vertex 17.359 1.95106 -3.4
    endloop
  endfacet
  facet normal -0 0 -1
    outer loop
      vertex 17.359 1.95106 -5
      vertex 21.8653 1.01127 -5
      vertex 18.05 1 -5
    endloop
  endfacet
  facet normal 0 0 -1
    outer loop
      vertex 17.359 1.95106 -5
      vertex 22.2137 1.18882 -5
      vertex 21.8653 1.01127 -5
    endloop
  endfacet
  facet normal 0 0 -1
    outer loop
      vertex 17.359 1.95106 -5
      vertex 22.6 1.25 -5
      vertex 22.2137 1.18882 -5
    endloop
  endfacet
  facet normal 0 0 1
    outer loop
      vertex 18.05 -1 -3.4
      vertex 21.35 0 -3.4
      vertex 18.05 1 -3.4
    endloop
  endfacet
  facet normal 0 0 1
    outer loop
      vertex 18.05 -1 -3.4
      vertex 21.4112 -0.386271 -3.4
      vertex 21.35 0 -3.4
    endloop
  endfacet
  facet normal 0 0 1
    outer loop
      vertex 18.05 -1 -3.4
      vertex 21.5887 -0.734731 -3.4
      vertex 21.4112 -0.386271 -3.4
    endloop
  endfacet
  facet normal -0 0 1
    outer loop
      vertex 18.05 -1 -3.4
      vertex 21.8653 -1.01127 -3.4
      vertex 21.5887 -0.734731 -3.4
    endloop
  endfacet
  facet normal -1 -0 0
    outer loop
      vertex 18.05 -1 -5
      vertex 18.05 -1 -3.4
      vertex 18.05 1 -3.4
    endloop
  endfacet
  facet normal -1 0 0
    outer loop
      vertex 18.05 -1 -5
      vertex 18.05 1 -3.4
      vertex 18.05 1 -5
    endloop
  endfacet
  facet normal 0 0 -1
    outer loop
      vertex 18.05 -1 -5
      vertex 18.05 1 -5
      vertex 21.35 0 -5
    endloop
  endfacet
  facet normal -0 0 -1
    outer loop
      vertex 18.05 -1 -5
      vertex 21.35 0 -5
      vertex 21.4112 -0.386271 -5
    endloop
  endfacet
  facet normal -0 0 -1
    outer loop
      vertex 18.05 -1 -5
      vertex 21.4112 -0.386271 -5
      vertex 21.5887 -0.734731 -5
    endloop
  endfacet
  facet normal 0 0 -1
    outer loop
      vertex 18.05 -1 -5
      vertex 21.5887 -0.734731 -5
      vertex 21.8653 -1.01127 -5
    endloop
  endfacet
  facet normal 0 0 1
    outer loop
      vertex 18.05 1 -3.4
      vertex 21.35 0 -3.4
      vertex 21.4112 0.386271 -3.4
    endloop
  endfacet
  facet normal 0 0 1
    outer loop
      vertex 18.05 1 -3.4
      vertex 21.4112 0.386271 -3.4
      vertex 21.5887 0.734731 -3.4
    endloop
  endfacet
  facet normal 0 0 1
    outer loop
      vertex 18.05 1 -3.4
      vertex 21.5887 0.734731 -3.4
      vertex 21.8653 1.01127 -3.4
    endloop
  endfacet
  facet normal 0 0 -1
    outer loop
      vertex 18.05 1 -5
      vertex 21.4112 0.386271 -5
      vertex 21.35 0 -5
    endloop
  endfacet
  facet normal 0 0 -1
    outer loop
      vertex 18.05 1 -5
      vertex 21.5887 0.734731 -5
      vertex 21.4112 0.386271 -5
    endloop
  endfacet
  facet normal 0 0 -1
    outer loop
      vertex 18.05 1 -5
      vertex 21.8653 1.01127 -5
      vertex 21.5887 0.734731 -5
    endloop
  endfacet
  facet normal 0.98768 -0.156486 0
    outer loop
      vertex 21.35 0 -3.4
      vertex 21.4112 0.386271 -5
      vertex 21.4112 0.386271 -3.4
    endloop
  endfacet
  facet normal 0.98768 0.156486 0
    outer loop
      vertex 21.35 0 -5
      vertex 21.35 0 -3.4
      vertex 21.4112 -0.386271 -3.4
    endloop
  endfacet
  facet normal 0.98768 0.156486 0
    outer loop
      vertex 21.35 0 -5
      vertex 21.4112 -0.386271 -3.4
      vertex 21.4112 -0.386271 -5
    endloop
  endfacet
  facet normal 0.98768 -0.156486 0
    outer loop
      vertex 21.35 0 -5
      vertex 21.4112 0.386271 -5
      vertex 21.35 0 -3.4
    endloop
  endfacet
  facet normal 0.891057 0.453891 0
    outer loop
      vertex 21.4112 -0.386271 -5
      vertex 21.4112 -0.386271 -3.4
      vertex 21.5887 -0.734731 -3.4
    endloop
  endfacet
  facet normal 0.891057 0.453891 0
    outer loop
      vertex 21.4112 -0.386271 -5
      vertex 21.5887 -0.734731 -3.4
      vertex 21.5887 -0.734731 -5
    endloop
  endfacet
  facet normal 0.891057 -0.453891 0
    outer loop
      vertex 21.4112 0.386271 -3.4
      vertex 21.5887 0.734731 -5
      vertex 21.5887 0.734731 -3.4
    endloop
  endfacet
  facet normal 0.891057 -0.453891 0
    outer loop
      vertex 21.4112 0.386271 -5
      vertex 21.5887 0.734731 -5
      vertex 21.4112 0.386271 -3.4
    endloop
  endfacet
  facet normal 0.707029 0.707185 -0
    outer loop
      vertex 21.5887 -0.734731 -3.4
      vertex 21.8653 -1.01127 -3.4
      vertex 21.8653 -1.01127 -5
    endloop
  endfacet
  facet normal 0.707029 0.707185 0
    outer loop
      vertex 21.5887 -0.734731 -5
      vertex 21.5887 -0.734731 -3.4
      vertex 21.8653 -1.01127 -5
    endloop
  endfacet
  facet normal 0.707029 -0.707185 0
    outer loop
      vertex 21.5887 0.734731 -5
      vertex 21.8653 1.01127 -3.4
      vertex 21.5887 0.734731 -3.4
    endloop
  endfacet
  facet normal 0.707029 -0.707185 0
    outer loop
      vertex 21.5887 0.734731 -5
      vertex 21.8653 1.01127 -5
      vertex 21.8653 1.01127 -3.4
    endloop
  endfacet
  facet normal 0.454054 0.890974 -0
    outer loop
      vertex 21.8653 -1.01127 -3.4
      vertex 22.2137 -1.18882 -3.4
      vertex 22.2137 -1.18882 -5
    endloop
  endfacet
  facet normal 0.454054 0.890974 0
    outer loop
      vertex 21.8653 -1.01127 -5
      vertex 21.8653 -1.01127 -3.4
      vertex 22.2137 -1.18882 -5
    endloop
  endfacet
  facet normal 0.454054 -0.890974 0
    outer loop
      vertex 21.8653 1.01127 -5
      vertex 22.2137 1.18882 -3.4
      vertex 21.8653 1.01127 -3.4
    endloop
  endfacet
  facet normal 0.454054 -0.890974 0
    outer loop
      vertex 21.8653 1.01127 -5
      vertex 22.2137 1.18882 -5
      vertex 22.2137 1.18882 -3.4
    endloop
  endfacet
  facet normal 0.156425 0.98769 -0
    outer loop
      vertex 22.2137 -1.18882 -3.4
      vertex 22.6 -1.25 -3.4
      vertex 22.6 -1.25 -5
    endloop
  endfacet
  facet normal 0.156425 0.98769 0
    outer loop
      vertex 22.2137 -1.18882 -5
      vertex 22.2137 -1.18882 -3.4
      vertex 22.6 -1.25 -5
    endloop
  endfacet
  facet normal 0.156425 -0.98769 0
    outer loop
      vertex 22.2137 1.18882 -5
      vertex 22.6 1.25 -3.4
      vertex 22.2137 1.18882 -3.4
    endloop
  endfacet
  facet normal 0.156425 -0.98769 0
    outer loop
      vertex 22.2137 1.18882 -5
      vertex 22.6 1.25 -5
      vertex 22.6 1.25 -3.4
    endloop
  endfacet
  facet normal -0.156425 0.98769 0
    outer loop
      vertex 22.6 -1.25 -3.4
      vertex 22.9863 -1.18882 -3.4
      vertex 22.9863 -1.18882 -5
    endloop
  endfacet
  facet normal 0 0 1
    outer loop
      vertex 22.6 -1.25 -3.4
      vertex 28.2843 -28.2843 -3.4
      vertex 36.9552 -15.3073 -3.4
    endloop
  endfacet
  facet normal -0 0 1
    outer loop
      vertex 22.6 -1.25 -3.4
      vertex 36.9552 -15.3073 -3.4
      vertex 22.9863 -1.18882 -3.4
    endloop
  endfacet
  facet normal -0.156425 0.98769 0
    outer loop
      vertex 22.6 -1.25 -5
      vertex 22.6 -1.25 -3.4
      vertex 22.9863 -1.18882 -5
    endloop
  endfacet
  facet normal 0 0 -1
    outer loop
      vertex 22.6 -1.25 -5
      vertex 22.9863 -1.18882 -5
      vertex 36.9552 -15.3073 -5
    endloop
  endfacet
  facet normal 0 0 -1
    outer loop
      vertex 22.6 -1.25 -5
      vertex 36.9552 -15.3073 -5
      vertex 28.2843 -28.2843 -5
    endloop
  endfacet
  facet normal 0 0 1
    outer loop
      vertex 22.6 1.25 -3.4
      vertex 22.9863 1.18882 -3.4
      vertex 36.9552 15.3073 -3.4
    endloop
  endfacet
  facet normal 0 0 1
    outer loop
      vertex 22.6 1.25 -3.4
      vertex 36.9552 15.3073 -3.4
      vertex 28.2843 28.2843 -3.4
    endloop
  endfacet
  facet normal -0.156425 -0.98769 0
    outer loop
      vertex 22.6 1.25 -5
      vertex 22.9863 1.18882 -3.4
      vertex 22.6 1.25 -3.4
    endloop
  endfacet
  facet normal -0.156425 -0.98769 -0
    outer loop
      vertex 22.6 1.25 -5
      vertex 22.9863 1.18882 -5
      vertex 22.9863 1.18882 -3.4
    endloop
  endfacet
  facet normal -0 0 -1
    outer loop
      vertex 22.6 1.25 -5
      vertex 28.2843 28.2843 -5
      vertex 36.9552 15.3073 -5
    endloop
  endfacet
  facet normal 0 0 -1
    outer loop
      vertex 22.6 1.25 -5
      vertex 36.9552 15.3073 -5
      vertex 22.9863 1.18882 -5
    endloop
  endfacet
  facet normal -0.454054 0.890974 0
    outer loop
      vertex 22.9863 -1.18882 -3.4
      vertex 23.3347 -1.01127 -3.4
      vertex 23.3347 -1.01127 -5
    endloop
  endfacet
  facet normal -0 0 1
    outer loop
      vertex 22.9863 -1.18882 -3.4
      vertex 36.9552 -15.3073 -3.4
      vertex 23.3347 -1.01127 -3.4
    endloop
  endfacet
  facet normal -0.454054 0.890974 0
    outer loop
      vertex 22.9863 -1.18882 -5
      vertex 22.9863 -1.18882 -3.4
      vertex 23.3347 -1.01127 -5
    endloop
  endfacet
  facet normal 0 0 -1
    outer loop
      vertex 22.9863 -1.18882 -5
      vertex 23.3347 -1.01127 -5
      vertex 36.9552 -15.3073 -5
    endloop
  endfacet
  facet normal 0 0 1
    outer loop
      vertex 22.9863 1.18882 -3.4
      vertex 23.3347 1.01127 -3.4
      vertex 36.9552 15.3073 -3.4
    endloop
  endfacet
  facet normal -0.454054 -0.890974 0
    outer loop
      vertex 22.9863 1.18882 -5
      vertex 23.3347 1.01127 -3.4
      vertex 22.9863 1.18882 -3.4
    endloop
  endfacet
  facet normal -0.454054 -0.890974 -0
    outer loop
      vertex 22.9863 1.18882 -5
      vertex 23.3347 1.01127 -5
      vertex 23.3347 1.01127 -3.4
    endloop
  endfacet
  facet normal 0 0 -1
    outer loop
      vertex 22.9863 1.18882 -5
      vertex 36.9552 15.3073 -5
      vertex 23.3347 1.01127 -5
    endloop
  endfacet
  facet normal -0 0 1
    outer loop
      vertex 23.3347 -1.01127 -3.4
      vertex 36.9552 -15.3073 -3.4
      vertex 23.6113 -0.734731 -3.4
    endloop
  endfacet
  facet normal -0.707029 0.707185 0
    outer loop
      vertex 23.3347 -1.01127 -5
      vertex 23.3347 -1.01127 -3.4
      vertex 23.6113 -0.734731 -3.4
    endloop
  endfacet
  facet normal -0.707029 0.707185 0
    outer loop
      vertex 23.3347 -1.01127 -5
      vertex 23.6113 -0.734731 -3.4
      vertex 23.6113 -0.734731 -5
    endloop
  endfacet
  facet normal 0 0 -1
    outer loop
      vertex 23.3347 -1.01127 -5
      vertex 23.6113 -0.734731 -5
      vertex 36.9552 -15.3073 -5
    endloop
  endfacet
  facet normal 0 0 1
    outer loop
      vertex 23.3347 1.01127 -3.4
      vertex 23.6113 0.734731 -3.4
      vertex 36.9552 15.3073 -3.4
    endloop
  endfacet
  facet normal -0.707029 -0.707185 0
    outer loop
      vertex 23.3347 1.01127 -3.4
      vertex 23.6113 0.734731 -5
      vertex 23.6113 0.734731 -3.4
    endloop
  endfacet
  facet normal -0.707029 -0.707185 0
    outer loop
      vertex 23.3347 1.01127 -5
      vertex 23.6113 0.734731 -5
      vertex 23.3347 1.01127 -3.4
    endloop
  endfacet
  facet normal 0 0 -1
    outer loop
      vertex 23.3347 1.01127 -5
      vertex 36.9552 15.3073 -5
      vertex 23.6113 0.734731 -5
    endloop
  endfacet
  facet normal 0 0 1
    outer loop
      vertex 23.6113 -0.734731 -3.4
      vertex 36.9552 -15.3073 -3.4
      vertex 40 0 -3.4
    endloop
  endfacet
  facet normal 0 0 1
    outer loop
      vertex 23.6113 -0.734731 -3.4
      vertex 40 0 -3.4
      vertex 23.7888 -0.386271 -3.4
    endloop
  endfacet
  facet normal -0.891057 0.453891 0
    outer loop
      vertex 23.6113 -0.734731 -5
      vertex 23.6113 -0.734731 -3.4
      vertex 23.7888 -0.386271 -3.4
    endloop
  endfacet
  facet normal -0.891057 0.453891 0
    outer loop
      vertex 23.6113 -0.734731 -5
      vertex 23.7888 -0.386271 -3.4
      vertex 23.7888 -0.386271 -5
    endloop
  endfacet
  facet normal 0 0 -1
    outer loop
      vertex 23.6113 -0.734731 -5
      vertex 23.7888 -0.386271 -5
      vertex 40 0 -5
    endloop
  endfacet
  facet normal 0 0 -1
    outer loop
      vertex 23.6113 -0.734731 -5
      vertex 40 0 -5
      vertex 36.9552 -15.3073 -5
    endloop
  endfacet
  facet normal 0 0 1
    outer loop
      vertex 23.6113 0.734731 -3.4
      vertex 23.7888 0.386271 -3.4
      vertex 40 0 -3.4
    endloop
  endfacet
  facet normal -0.891057 -0.453891 0
    outer loop
      vertex 23.6113 0.734731 -3.4
      vertex 23.7888 0.386271 -5
      vertex 23.7888 0.386271 -3.4
    endloop
  endfacet
  facet normal -0 0 1
    outer loop
      vertex 23.6113 0.734731 -3.4
      vertex 40 0 -3.4
      vertex 36.9552 15.3073 -3.4
    endloop
  endfacet
  facet normal -0.891057 -0.453891 0
    outer loop
      vertex 23.6113 0.734731 -5
      vertex 23.7888 0.386271 -5
      vertex 23.6113 0.734731 -3.4
    endloop
  endfacet
  facet normal 0 0 -1
    outer loop
      vertex 23.6113 0.734731 -5
      vertex 36.9552 15.3073 -5
      vertex 40 0 -5
    endloop
  endfacet
  facet normal 0 0 -1
    outer loop
      vertex 23.6113 0.734731 -5
      vertex 40 0 -5
      vertex 23.7888 0.386271 -5
    endloop
  endfacet
  facet normal 0 0 1
    outer loop
      vertex 23.7888 -0.386271 -3.4
      vertex 40 0 -3.4
      vertex 23.85 0 -3.4
    endloop
  endfacet
  facet normal -0.98768 0.156486 0
    outer loop
      vertex 23.7888 -0.386271 -5
      vertex 23.7888 -0.386271 -3.4
      vertex 23.85 0 -3.4
    endloop
  endfacet
  facet normal -0.98768 0.156486 0
    outer loop
      vertex 23.7888 -0.386271 -5
      vertex 23.85 0 -3.4
      vertex 23.85 0 -5
    endloop
  endfacet
  facet normal -0 0 -1
    outer loop
      vertex 23.7888 -0.386271 -5
      vertex 23.85 0 -5
      vertex 40 0 -5
    endloop
  endfacet
  facet normal 0 0 1
    outer loop
      vertex 23.7888 0.386271 -3.4
      vertex 23.85 0 -3.4
      vertex 40 0 -3.4
    endloop
  endfacet
  facet normal -0.98768 -0.156486 0
    outer loop
      vertex 23.7888 0.386271 -3.4
      vertex 23.85 0 -5
      vertex 23.85 0 -3.4
    endloop
  endfacet
  facet normal -0.98768 -0.156486 0
    outer loop
      vertex 23.7888 0.386271 -5
      vertex 23.85 0 -5
      vertex 23.7888 0.386271 -3.4
    endloop
  endfacet
  facet normal 0 0 -1
    outer loop
      vertex 23.7888 0.386271 -5
      vertex 40 0 -5
      vertex 23.85 0 -5
    endloop
  endfacet
  facet normal 0.831471 -0.555568 0
    outer loop
      vertex 28.2843 -28.2843 -3.4
      vertex 36.9552 -15.3073 -5
      vertex 36.9552 -15.3073 -3.4
    endloop
  endfacet
  facet normal 0.831471 -0.555568 0
    outer loop
      vertex 28.2843 -28.2843 -5
      vertex 36.9552 -15.3073 -5
      vertex 28.2843 -28.2843 -3.4
    endloop
  endfacet
  facet normal 0.831471 0.555568 0
    outer loop
      vertex 28.2843 28.2843 -5
      vertex 28.2843 28.2843 -3.4
      vertex 36.9552 15.3073 -3.4
    endloop
  endfacet
  facet normal 0.831471 0.555568 0
    outer loop
      vertex 28.2843 28.2843 -5
      vertex 36.9552 15.3073 -3.4
      vertex 36.9552 15.3073 -5
    endloop
  endfacet
  facet normal -0.55557 0.83147 0
    outer loop
      vertex 3.0806 -7.43723 -3.4
      vertex 5.69221 -5.69221 -3.4
      vertex 5.69221 -5.69221 -5
    endloop
  endfacet
  facet normal 0 0 1
    outer loop
      vertex 3.0806 -7.43723 -3.4
      vertex 5.81118 -13.5137 -3.4
      vertex 5.98873 -13.1653 -3.4
    endloop
  endfacet
  facet normal 0 0 1
    outer loop
      vertex 3.0806 -7.43723 -3.4
      vertex 5.98873 -13.1653 -3.4
      vertex 6.26527 -12.8887 -3.4
    endloop
  endfacet
  facet normal 0 0 1
    outer loop
      vertex 3.0806 -7.43723 -3.4
      vertex 6.26527 -12.8887 -3.4
      vertex 6.61373 -12.7112 -3.4
    endloop
  endfacet
  facet normal -0 0 1
    outer loop
      vertex 3.0806 -7.43723 -3.4
      vertex 6.61373 -12.7112 -3.4
      vertex 5.69221 -5.69221 -3.4
    endloop
  endfacet
  facet normal -0.55557 0.83147 0
    outer loop
      vertex 3.0806 -7.43723 -5
      vertex 3.0806 -7.43723 -3.4
      vertex 5.69221 -5.69221 -5
    endloop
  endfacet
  facet normal 0 0 -1
    outer loop
      vertex 3.0806 -7.43723 -5
      vertex 5.69221 -5.69221 -5
      vertex 6.61373 -12.7112 -5
    endloop
  endfacet
  facet normal 0 0 -1
    outer loop
      vertex 3.0806 -7.43723 -5
      vertex 5.98873 -13.1653 -5
      vertex 5.81118 -13.5137 -5
    endloop
  endfacet
  facet normal 0 0 -1
    outer loop
      vertex 3.0806 -7.43723 -5
      vertex 6.26527 -12.8887 -5
      vertex 5.98873 -13.1653 -5
    endloop
  endfacet
  facet normal 0 0 -1
    outer loop
      vertex 3.0806 -7.43723 -5
      vertex 6.61373 -12.7112 -5
      vertex 6.26527 -12.8887 -5
    endloop
  endfacet
  facet normal 0 0 1
    outer loop
      vertex 3.0806 7.43723 -3.4
      vertex 5.69221 5.69221 -3.4
      vertex 6.61373 12.7112 -3.4
    endloop
  endfacet
  facet normal 0 0 1
    outer loop
      vertex 3.0806 7.43723 -3.4
      vertex 5.98873 13.1653 -3.4
      vertex 5.81118 13.5137 -3.4
    endloop
  endfacet
  facet normal 0 0 1
    outer loop
      vertex 3.0806 7.43723 -3.4
      vertex 6.26527 12.8887 -3.4
      vertex 5.98873 13.1653 -3.4
    endloop
  endfacet
  facet normal 0 0 1
    outer loop
      vertex 3.0806 7.43723 -3.4
      vertex 6.61373 12.7112 -3.4
      vertex 6.26527 12.8887 -3.4
    endloop
  endfacet
  facet normal -0.55557 -0.83147 0
    outer loop
      vertex 3.0806 7.43723 -5
      vertex 5.69221 5.69221 -3.4
      vertex 3.0806 7.43723 -3.4
    endloop
  endfacet
  facet normal -0.55557 -0.83147 -0
    outer loop
      vertex 3.0806 7.43723 -5
      vertex 5.69221 5.69221 -5
      vertex 5.69221 5.69221 -3.4
    endloop
  endfacet
  facet normal -0 0 -1
    outer loop
      vertex 3.0806 7.43723 -5
      vertex 5.81118 13.5137 -5
      vertex 5.98873 13.1653 -5
    endloop
  endfacet
  facet normal -0 0 -1
    outer loop
      vertex 3.0806 7.43723 -5
      vertex 5.98873 13.1653 -5
      vertex 6.26527 12.8887 -5
    endloop
  endfacet
  facet normal -0 0 -1
    outer loop
      vertex 3.0806 7.43723 -5
      vertex 6.26527 12.8887 -5
      vertex 6.61373 12.7112 -5
    endloop
  endfacet
  facet normal 0 0 -1
    outer loop
      vertex 3.0806 7.43723 -5
      vertex 6.61373 12.7112 -5
      vertex 5.69221 5.69221 -5
    endloop
  endfacet
  facet normal 0.980785 -0.19509 0
    outer loop
      vertex 36.9552 -15.3073 -3.4
      vertex 40 0 -5
      vertex 40 0 -3.4
    endloop
  endfacet
  facet normal 0.980785 -0.19509 0
    outer loop
      vertex 36.9552 -15.3073 -5
      vertex 40 0 -5
      vertex 36.9552 -15.3073 -3.4
    endloop
  endfacet
  facet normal 0.980785 0.19509 0
    outer loop
      vertex 36.9552 15.3073 -5
      vertex 36.9552 15.3073 -3.4
      vertex 40 0 -3.4
    endloop
  endfacet
  facet normal 0.980785 0.19509 0
    outer loop
      vertex 36.9552 15.3073 -5
      vertex 40 0 -3.4
      vertex 40 0 -5
    endloop
  endfacet
  facet normal 0 0 1
    outer loop
      vertex 5.69221 -5.69221 -3.4
      vertex 6.61373 -12.7112 -3.4
      vertex 7 -12.65 -3.4
    endloop
  endfacet
  facet normal 0 0 1
    outer loop
      vertex 5.69221 -5.69221 -3.4
      vertex 7 -12.65 -3.4
      vertex 7.38627 -12.7112 -3.4
    endloop
  endfacet
  facet normal 0 0 1
    outer loop
      vertex 5.69221 -5.69221 -3.4
      vertex 7.38627 -12.7112 -3.4
      vertex 7.73473 -12.8887 -3.4
    endloop
  endfacet
  facet normal -0 0 1
    outer loop
      vertex 5.69221 -5.69221 -3.4
      vertex 7.73473 -12.8887 -3.4
      vertex 7.43723 -3.0806 -3.4
    endloop
  endfacet
  facet normal -0.83147 0.55557 0
    outer loop
      vertex 5.69221 -5.69221 -5
      vertex 5.69221 -5.69221 -3.4
      vertex 7.43723 -3.0806 -3.4
    endloop
  endfacet
  facet normal 0 0 -1
    outer loop
      vertex 5.69221 -5.69221 -5
      vertex 7 -12.65 -5
      vertex 6.61373 -12.7112 -5
    endloop
  endfacet
  facet normal 0 0 -1
    outer loop
      vertex 5.69221 -5.69221 -5
      vertex 7.38627 -12.7112 -5
      vertex 7 -12.65 -5
    endloop
  endfacet
  facet normal -0.83147 0.55557 0
    outer loop
      vertex 5.69221 -5.69221 -5
      vertex 7.43723 -3.0806 -3.4
      vertex 7.43723 -3.0806 -5
    endloop
  endfacet
  facet normal 0 0 -1
    outer loop
      vertex 5.69221 -5.69221 -5
      vertex 7.43723 -3.0806 -5
      vertex 7.73473 -12.8887 -5
    endloop
  endfacet
  facet normal 0 0 -1
    outer loop
      vertex 5.69221 -5.69221 -5
      vertex 7.73473 -12.8887 -5
      vertex 7.38627 -12.7112 -5
    endloop
  endfacet
  facet normal 0 0 1
    outer loop
      vertex 5.69221 5.69221 -3.4
      vertex 7 12.65 -3.4
      vertex 6.61373 12.7112 -3.4
    endloop
  endfacet
  facet normal 0 0 1
    outer loop
      vertex 5.69221 5.69221 -3.4
      vertex 7.38627 12.7112 -3.4
      vertex 7 12.65 -3.4
    endloop
  endfacet
  facet normal 0 0 1
    outer loop
      vertex 5.69221 5.69221 -3.4
      vertex 7.43723 3.0806 -3.4
      vertex 7.73473 12.8887 -3.4
    endloop
  endfacet
  facet normal -0.83147 -0.55557 0
    outer loop
      vertex 5.69221 5.69221 -3.4
      vertex 7.43723 3.0806 -5
      vertex 7.43723 3.0806 -3.4
    endloop
  endfacet
  facet normal 0 0 1
    outer loop
      vertex 5.69221 5.69221 -3.4
      vertex 7.73473 12.8887 -3.4
      vertex 7.38627 12.7112 -3.4
    endloop
  endfacet
  facet normal -0 0 -1
    outer loop
      vertex 5.69221 5.69221 -5
      vertex 6.61373 12.7112 -5
      vertex 7 12.65 -5
    endloop
  endfacet
  facet normal 0 0 -1
    outer loop
      vertex 5.69221 5.69221 -5
      vertex 7 12.65 -5
      vertex 7.38627 12.7112 -5
    endloop
  endfacet
  facet normal 0 0 -1
    outer loop
      vertex 5.69221 5.69221 -5
      vertex 7.38627 12.7112 -5
      vertex 7.73473 12.8887 -5
    endloop
  endfacet
  facet normal -0.83147 -0.55557 0
    outer loop
      vertex 5.69221 5.69221 -5
      vertex 7.43723 3.0806 -5
      vertex 5.69221 5.69221 -3.4
    endloop
  endfacet
  facet normal 0 0 -1
    outer loop
      vertex 5.69221 5.69221 -5
      vertex 7.73473 12.8887 -5
      vertex 7.43723 3.0806 -5
    endloop
  endfacet
  facet normal 0.98769 -0.156425 0
    outer loop
      vertex 5.75 -13.9 -3.4
      vertex 5.81118 -13.5137 -5
      vertex 5.81118 -13.5137 -3.4
    endloop
  endfacet
  facet normal 0.98769 0.156425 0
    outer loop
      vertex 5.75 -13.9 -5
      vertex 5.75 -13.9 -3.4
      vertex 5.81118 -14.2863 -3.4
    endloop
  endfacet
  facet normal 0.98769 -0.156425 0
    outer loop
      vertex 5.75 -13.9 -5
      vertex 5.81118 -13.5137 -5
      vertex 5.75 -13.9 -3.4
    endloop
  endfacet
  facet normal 0.98769 0.156425 0
    outer loop
      vertex 5.75 -13.9 -5
      vertex 5.81118 -14.2863 -3.4
      vertex 5.81118 -14.2863 -5
    endloop
  endfacet
  facet normal 0.98769 -0.156425 0
    outer loop
      vertex 5.75 13.9 -3.4
      vertex 5.81118 14.2863 -5
      vertex 5.81118 14.2863 -3.4
    endloop
  endfacet
  facet normal 0.98769 0.156425 0
    outer loop
      vertex 5.75 13.9 -5
      vertex 5.75 13.9 -3.4
      vertex 5.81118 13.5137 -3.4
    endloop
  endfacet
  facet normal 0.98769 0.156425 0
    outer loop
      vertex 5.75 13.9 -5
      vertex 5.81118 13.5137 -3.4
      vertex 5.81118 13.5137 -5
    endloop
  endfacet
  facet normal 0.98769 -0.156425 0
    outer loop
      vertex 5.75 13.9 -5
      vertex 5.81118 14.2863 -5
      vertex 5.75 13.9 -3.4
    endloop
  endfacet
  facet normal 0.890974 -0.454054 0
    outer loop
      vertex 5.81118 -13.5137 -3.4
      vertex 5.98873 -13.1653 -5
      vertex 5.98873 -13.1653 -3.4
    endloop
  endfacet
  facet normal 0.890974 -0.454054 0
    outer loop
      vertex 5.81118 -13.5137 -5
      vertex 5.98873 -13.1653 -5
      vertex 5.81118 -13.5137 -3.4
    endloop
  endfacet
  facet normal 0.890974 0.454054 0
    outer loop
      vertex 5.81118 -14.2863 -5
      vertex 5.81118 -14.2863 -3.4
      vertex 5.98873 -14.6347 -3.4
    endloop
  endfacet
  facet normal 0.890974 0.454054 0
    outer loop
      vertex 5.81118 -14.2863 -5
      vertex 5.98873 -14.6347 -3.4
      vertex 5.98873 -14.6347 -5
    endloop
  endfacet
  facet normal 0.890974 0.454054 0
    outer loop
      vertex 5.81118 13.5137 -5
      vertex 5.81118 13.5137 -3.4
      vertex 5.98873 13.1653 -3.4
    endloop
  endfacet
  facet normal 0.890974 0.454054 0
    outer loop
      vertex 5.81118 13.5137 -5
      vertex 5.98873 13.1653 -3.4
      vertex 5.98873 13.1653 -5
    endloop
  endfacet
  facet normal 0.890974 -0.454054 0
    outer loop
      vertex 5.81118 14.2863 -3.4
      vertex 5.98873 14.6347 -5
      vertex 5.98873 14.6347 -3.4
    endloop
  endfacet
  facet normal 0.890974 -0.454054 0
    outer loop
      vertex 5.81118 14.2863 -5
      vertex 5.98873 14.6347 -5
      vertex 5.81118 14.2863 -3.4
    endloop
  endfacet
  facet normal 0.707183 -0.70703 0
    outer loop
      vertex 5.98873 -13.1653 -3.4
      vertex 6.26527 -12.8887 -5
      vertex 6.26527 -12.8887 -3.4
    endloop
  endfacet
  facet normal 0.707183 -0.70703 0
    outer loop
      vertex 5.98873 -13.1653 -5
      vertex 6.26527 -12.8887 -5
      vertex 5.98873 -13.1653 -3.4
    endloop
  endfacet
  facet normal 0.707183 0.70703 0
    outer loop
      vertex 5.98873 -14.6347 -5
      vertex 5.98873 -14.6347 -3.4
      vertex 6.26527 -14.9113 -3.4
    endloop
  endfacet
  facet normal 0.707183 0.70703 0
    outer loop
      vertex 5.98873 -14.6347 -5
      vertex 6.26527 -14.9113 -3.4
      vertex 6.26527 -14.9113 -5
    endloop
  endfacet
  facet normal 0.707183 0.70703 0
    outer loop
      vertex 5.98873 13.1653 -5
      vertex 5.98873 13.1653 -3.4
      vertex 6.26527 12.8887 -3.4
    endloop
  endfacet
  facet normal 0.707183 0.70703 0
    outer loop
      vertex 5.98873 13.1653 -5
      vertex 6.26527 12.8887 -3.4
      vertex 6.26527 12.8887 -5
    endloop
  endfacet
  facet normal 0.707183 -0.70703 0
    outer loop
      vertex 5.98873 14.6347 -3.4
      vertex 6.26527 14.9113 -5
      vertex 6.26527 14.9113 -3.4
    endloop
  endfacet
  facet normal 0.707183 -0.70703 0
    outer loop
      vertex 5.98873 14.6347 -5
      vertex 6.26527 14.9113 -5
      vertex 5.98873 14.6347 -3.4
    endloop
  endfacet
  facet normal 0.453891 -0.891057 0
    outer loop
      vertex 6.26527 -12.8887 -5
      vertex 6.61373 -12.7112 -3.4
      vertex 6.26527 -12.8887 -3.4
    endloop
  endfacet
  facet normal 0.453891 -0.891057 0
    outer loop
      vertex 6.26527 -12.8887 -5
      vertex 6.61373 -12.7112 -5
      vertex 6.61373 -12.7112 -3.4
    endloop
  endfacet
  facet normal 0.453891 0.891057 -0
    outer loop
      vertex 6.26527 -14.9113 -3.4
      vertex 6.61373 -15.0888 -3.4
      vertex 6.61373 -15.0888 -5
    endloop
  endfacet
  facet normal 0.453891 0.891057 0
    outer loop
      vertex 6.26527 -14.9113 -5
      vertex 6.26527 -14.9113 -3.4
      vertex 6.61373 -15.0888 -5
    endloop
  endfacet
  facet normal 0.453891 0.891057 -0
    outer loop
      vertex 6.26527 12.8887 -3.4
      vertex 6.61373 12.7112 -3.4
      vertex 6.61373 12.7112 -5
    endloop
  endfacet
  facet normal 0.453891 0.891057 0
    outer loop
      vertex 6.26527 12.8887 -5
      vertex 6.26527 12.8887 -3.4
      vertex 6.61373 12.7112 -5
    endloop
  endfacet
  facet normal 0.453891 -0.891057 0
    outer loop
      vertex 6.26527 14.9113 -5
      vertex 6.61373 15.0888 -3.4
      vertex 6.26527 14.9113 -3.4
    endloop
  endfacet
  facet normal 0.453891 -0.891057 0
    outer loop
      vertex 6.26527 14.9113 -5
      vertex 6.61373 15.0888 -5
      vertex 6.61373 15.0888 -3.4
    endloop
  endfacet
  facet normal 0.156486 -0.98768 0
    outer loop
      vertex 6.61373 -12.7112 -5
      vertex 7 -12.65 -3.4
      vertex 6.61373 -12.7112 -3.4
    endloop
  endfacet
  facet normal 0.156486 -0.98768 0
    outer loop
      vertex 6.61373 -12.7112 -5
      vertex 7 -12.65 -5
      vertex 7 -12.65 -3.4
    endloop
  endfacet
  facet normal 0.156486 0.98768 -0
    outer loop
      vertex 6.61373 -15.0888 -3.4
      vertex 7 -15.15 -3.4
      vertex 7 -15.15 -5
    endloop
  endfacet
  facet normal 0.156486 0.98768 0
    outer loop
      vertex 6.61373 -15.0888 -5
      vertex 6.61373 -15.0888 -3.4
      vertex 7 -15.15 -5
    endloop
  endfacet
  facet normal 0.156486 0.98768 -0
    outer loop
      vertex 6.61373 12.7112 -3.4
      vertex 7 12.65 -3.4
      vertex 7 12.65 -5
    endloop
  endfacet
  facet normal 0.156486 0.98768 0
    outer loop
      vertex 6.61373 12.7112 -5
      vertex 6.61373 12.7112 -3.4
      vertex 7 12.65 -5
    endloop
  endfacet
  facet normal 0.156486 -0.98768 0
    outer loop
      vertex 6.61373 15.0888 -5
      vertex 7 15.15 -3.4
      vertex 6.61373 15.0888 -3.4
    endloop
  endfacet
  facet normal 0.156486 -0.98768 0
    outer loop
      vertex 6.61373 15.0888 -5
      vertex 7 15.15 -5
      vertex 7 15.15 -3.4
    endloop
  endfacet
  facet normal -0.156486 -0.98768 0
    outer loop
      vertex 7 -12.65 -5
      vertex 7.38627 -12.7112 -3.4
      vertex 7 -12.65 -3.4
    endloop
  endfacet
  facet normal -0.156486 -0.98768 -0
    outer loop
      vertex 7 -12.65 -5
      vertex 7.38627 -12.7112 -5
      vertex 7.38627 -12.7112 -3.4
    endloop
  endfacet
  facet normal -0 0 1
    outer loop
      vertex 7 -15.15 -3.4
      vertex 15.3073 -36.9552 -3.4
      vertex 7.38627 -15.0888 -3.4
    endloop
  endfacet
  facet normal -0.156486 0.98768 0
    outer loop
      vertex 7 -15.15 -3.4
      vertex 7.38627 -15.0888 -3.4
      vertex 7.38627 -15.0888 -5
    endloop
  endfacet
  facet normal -0.156486 0.98768 0
    outer loop
      vertex 7 -15.15 -5
      vertex 7 -15.15 -3.4
      vertex 7.38627 -15.0888 -5
    endloop
  endfacet
  facet normal 0 0 -1
    outer loop
      vertex 7 -15.15 -5
      vertex 7.38627 -15.0888 -5
      vertex 15.3073 -36.9552 -5
    endloop
  endfacet
  facet normal -0.156486 0.98768 0
    outer loop
      vertex 7 12.65 -3.4
      vertex 7.38627 12.7112 -3.4
      vertex 7.38627 12.7112 -5
    endloop
  endfacet
  facet normal -0.156486 0.98768 0
    outer loop
      vertex 7 12.65 -5
      vertex 7 12.65 -3.4
      vertex 7.38627 12.7112 -5
    endloop
  endfacet
  facet normal 0 0 1
    outer loop
      vertex 7 15.15 -3.4
      vertex 7.38627 15.0888 -3.4
      vertex 15.3073 36.9552 -3.4
    endloop
  endfacet
  facet normal 0 0 -1
    outer loop
      vertex 7 15.15 -5
      vertex 15.3073 36.9552 -5
      vertex 7.38627 15.0888 -5
    endloop
  endfacet
  facet normal -0.156486 -0.98768 0
    outer loop
      vertex 7 15.15 -5
      vertex 7.38627 15.0888 -3.4
      vertex 7 15.15 -3.4
    endloop
  endfacet
  facet normal -0.156486 -0.98768 -0
    outer loop
      vertex 7 15.15 -5
      vertex 7.38627 15.0888 -5
      vertex 7.38627 15.0888 -3.4
    endloop
  endfacet
  facet normal -0.453891 -0.891057 0
    outer loop
      vertex 7.38627 -12.7112 -5
      vertex 7.73473 -12.8887 -3.4
      vertex 7.38627 -12.7112 -3.4
    endloop
  endfacet
  facet normal -0.453891 -0.891057 -0
    outer loop
      vertex 7.38627 -12.7112 -5
      vertex 7.73473 -12.8887 -5
      vertex 7.73473 -12.8887 -3.4
    endloop
  endfacet
  facet normal -0 0 1
    outer loop
      vertex 7.38627 -15.0888 -3.4
      vertex 15.3073 -36.9552 -3.4
      vertex 7.73473 -14.9113 -3.4
    endloop
  endfacet
  facet normal -0.453891 0.891057 0
    outer loop
      vertex 7.38627 -15.0888 -3.4
      vertex 7.73473 -14.9113 -3.4
      vertex 7.73473 -14.9113 -5
    endloop
  endfacet
  facet normal -0.453891 0.891057 0
    outer loop
      vertex 7.38627 -15.0888 -5
      vertex 7.38627 -15.0888 -3.4
      vertex 7.73473 -14.9113 -5
    endloop
  endfacet
  facet normal 0 0 -1
    outer loop
      vertex 7.38627 -15.0888 -5
      vertex 7.73473 -14.9113 -5
      vertex 15.3073 -36.9552 -5
    endloop
  endfacet
  facet normal -0.453891 0.891057 0
    outer loop
      vertex 7.38627 12.7112 -3.4
      vertex 7.73473 12.8887 -3.4
      vertex 7.73473 12.8887 -5
    endloop
  endfacet
  facet normal -0.453891 0.891057 0
    outer loop
      vertex 7.38627 12.7112 -5
      vertex 7.38627 12.7112 -3.4
      vertex 7.73473 12.8887 -5
    endloop
  endfacet
  facet normal 0 0 1
    outer loop
      vertex 7.38627 15.0888 -3.4
      vertex 7.73473 14.9113 -3.4
      vertex 15.3073 36.9552 -3.4
    endloop
  endfacet
  facet normal 0 0 -1
    outer loop
      vertex 7.38627 15.0888 -5
      vertex 15.3073 36.9552 -5
      vertex 7.73473 14.9113 -5
    endloop
  endfacet
  facet normal -0.453891 -0.891057 0
    outer loop
      vertex 7.38627 15.0888 -5
      vertex 7.73473 14.9113 -3.4
      vertex 7.38627 15.0888 -3.4
    endloop
  endfacet
  facet normal -0.453891 -0.891057 -0
    outer loop
      vertex 7.38627 15.0888 -5
      vertex 7.73473 14.9113 -5
      vertex 7.73473 14.9113 -3.4
    endloop
  endfacet
  facet normal 0 0 1
    outer loop
      vertex 7.43723 -3.0806 -3.4
      vertex 7.73473 -12.8887 -3.4
      vertex 8.15902 -2.45106 -3.4
    endloop
  endfacet
  facet normal 0 0 1
    outer loop
      vertex 7.43723 -3.0806 -3.4
      vertex 8.15902 -2.45106 -3.4
      vertex 7.56245 -2.45106 -3.4
    endloop
  endfacet
  facet normal -0.980786 0.195085 0
    outer loop
      vertex 7.43723 -3.0806 -5
      vertex 7.43723 -3.0806 -3.4
      vertex 7.56245 -2.45106 -3.4
    endloop
  endfacet
  facet normal -0.980786 0.195085 0
    outer loop
      vertex 7.43723 -3.0806 -5
      vertex 7.56245 -2.45106 -3.4
      vertex 7.56245 -2.45106 -5
    endloop
  endfacet
  facet normal -0 0 -1
    outer loop
      vertex 7.43723 -3.0806 -5
      vertex 7.56245 -2.45106 -5
      vertex 8.15902 -2.45106 -5
    endloop
  endfacet
  facet normal 0 0 -1
    outer loop
      vertex 7.43723 -3.0806 -5
      vertex 8.15902 -2.45106 -5
      vertex 7.73473 -12.8887 -5
    endloop
  endfacet
  facet normal 0 0 1
    outer loop
      vertex 7.43723 3.0806 -3.4
      vertex 7.56245 2.45106 -3.4
      vertex 8.15902 2.45106 -3.4
    endloop
  endfacet
  facet normal -0.980786 -0.195085 0
    outer loop
      vertex 7.43723 3.0806 -3.4
      vertex 7.56245 2.45106 -5
      vertex 7.56245 2.45106 -3.4
    endloop
  endfacet
  facet normal -0 0 1
    outer loop
      vertex 7.43723 3.0806 -3.4
      vertex 8.15902 2.45106 -3.4
      vertex 7.73473 12.8887 -3.4
    endloop
  endfacet
  facet normal -0.980786 -0.195085 0
    outer loop
      vertex 7.43723 3.0806 -5
      vertex 7.56245 2.45106 -5
      vertex 7.43723 3.0806 -3.4
    endloop
  endfacet
  facet normal 0 0 -1
    outer loop
      vertex 7.43723 3.0806 -5
      vertex 7.73473 12.8887 -5
      vertex 8.15902 2.45106 -5
    endloop
  endfacet
  facet normal 0 0 -1
    outer loop
      vertex 7.43723 3.0806 -5
      vertex 8.15902 2.45106 -5
      vertex 7.56245 2.45106 -5
    endloop
  endfacet
  facet normal 0 1 -0
    outer loop
      vertex 7.56245 -2.45106 -3.4
      vertex 8.15902 -2.45106 -3.4
      vertex 8.15902 -2.45106 -5
    endloop
  endfacet
  facet normal 0 1 0
    outer loop
      vertex 7.56245 -2.45106 -5
      vertex 7.56245 -2.45106 -3.4
      vertex 8.15902 -2.45106 -5
    endloop
  endfacet
  facet normal 0 -1 0
    outer loop
      vertex 7.56245 2.45106 -5
      vertex 8.15902 2.45106 -3.4
      vertex 7.56245 2.45106 -3.4
    endloop
  endfacet
  facet normal 0 -1 -0
    outer loop
      vertex 7.56245 2.45106 -5
      vertex 8.15902 2.45106 -5
      vertex 8.15902 2.45106 -3.4
    endloop
  endfacet
  facet normal 0 0 1
    outer loop
      vertex 7.73473 -12.8887 -3.4
      vertex 8.01127 -13.1653 -3.4
      vertex 8.15902 -2.45106 -3.4
    endloop
  endfacet
  facet normal -0.707183 -0.70703 0
    outer loop
      vertex 7.73473 -12.8887 -3.4
      vertex 8.01127 -13.1653 -5
      vertex 8.01127 -13.1653 -3.4
    endloop
  endfacet
  facet normal -0.707183 -0.70703 0
    outer loop
      vertex 7.73473 -12.8887 -5
      vertex 8.01127 -13.1653 -5
      vertex 7.73473 -12.8887 -3.4
    endloop
  endfacet
  facet normal 0 0 -1
    outer loop
      vertex 7.73473 -12.8887 -5
      vertex 8.15902 -2.45106 -5
      vertex 8.01127 -13.1653 -5
    endloop
  endfacet
  facet normal 0 0 1
    outer loop
      vertex 7.73473 -14.9113 -3.4
      vertex 15.3073 -36.9552 -3.4
      vertex 28.2843 -28.2843 -3.4
    endloop
  endfacet
  facet normal -0 0 1
    outer loop
      vertex 7.73473 -14.9113 -3.4
      vertex 28.2843 -28.2843 -3.4
      vertex 8.01127 -14.6347 -3.4
    endloop
  endfacet
  facet normal 0 0 -1
    outer loop
      vertex 7.73473 -14.9113 -5
      vertex 28.2843 -28.2843 -5
      vertex 15.3073 -36.9552 -5
    endloop
  endfacet
  facet normal -0.707183 0.70703 0
    outer loop
      vertex 7.73473 -14.9113 -5
      vertex 7.73473 -14.9113 -3.4
      vertex 8.01127 -14.6347 -3.4
    endloop
  endfacet
  facet normal -0.707183 0.70703 0
    outer loop
      vertex 7.73473 -14.9113 -5
      vertex 8.01127 -14.6347 -3.4
      vertex 8.01127 -14.6347 -5
    endloop
  endfacet
  facet normal 0 0 -1
    outer loop
      vertex 7.73473 -14.9113 -5
      vertex 8.01127 -14.6347 -5
      vertex 28.2843 -28.2843 -5
    endloop
  endfacet
  facet normal -0 0 1
    outer loop
      vertex 7.73473 12.8887 -3.4
      vertex 8.15902 2.45106 -3.4
      vertex 8.01127 13.1653 -3.4
    endloop
  endfacet
  facet normal -0.707183 0.70703 0
    outer loop
      vertex 7.73473 12.8887 -5
      vertex 7.73473 12.8887 -3.4
      vertex 8.01127 13.1653 -3.4
    endloop
  endfacet
  facet normal -0.707183 0.70703 0
    outer loop
      vertex 7.73473 12.8887 -5
      vertex 8.01127 13.1653 -3.4
      vertex 8.01127 13.1653 -5
    endloop
  endfacet
  facet normal 0 0 -1
    outer loop
      vertex 7.73473 12.8887 -5
      vertex 8.01127 13.1653 -5
      vertex 8.15902 2.45106 -5
    endloop
  endfacet
  facet normal 0 0 1
    outer loop
      vertex 7.73473 14.9113 -3.4
      vertex 28.2843 28.2843 -3.4
      vertex 15.3073 36.9552 -3.4
    endloop
  endfacet
  facet normal 0 0 1
    outer loop
      vertex 7.73473 14.9113 -3.4
      vertex 8.01127 14.6347 -3.4
      vertex 28.2843 28.2843 -3.4
    endloop
  endfacet
  facet normal -0.707183 -0.70703 0
    outer loop
      vertex 7.73473 14.9113 -3.4
      vertex 8.01127 14.6347 -5
      vertex 8.01127 14.6347 -3.4
    endloop
  endfacet
  facet normal -0 0 -1
    outer loop
      vertex 7.73473 14.9113 -5
      vertex 15.3073 36.9552 -5
      vertex 28.2843 28.2843 -5
    endloop
  endfacet
  facet normal 0 0 -1
    outer loop
      vertex 7.73473 14.9113 -5
      vertex 28.2843 28.2843 -5
      vertex 8.01127 14.6347 -5
    endloop
  endfacet
  facet normal -0.707183 -0.70703 0
    outer loop
      vertex 7.73473 14.9113 -5
      vertex 8.01127 14.6347 -5
      vertex 7.73473 14.9113 -3.4
    endloop
  endfacet
  facet normal 0 0 1
    outer loop
      vertex 8.01127 -13.1653 -3.4
      vertex 17.359 -1.95106 -3.4
      vertex 8.15902 -2.45106 -3.4
    endloop
  endfacet
  facet normal 0 0 1
    outer loop
      vertex 8.01127 -13.1653 -3.4
      vertex 8.18882 -13.5137 -3.4
      vertex 17.359 -1.95106 -3.4
    endloop
  endfacet
  facet normal -0.890974 -0.454054 0
    outer loop
      vertex 8.01127 -13.1653 -3.4
      vertex 8.18882 -13.5137 -5
      vertex 8.18882 -13.5137 -3.4
    endloop
  endfacet
  facet normal 0 0 -1
    outer loop
      vertex 8.01127 -13.1653 -5
      vertex 17.359 -1.95106 -5
      vertex 8.18882 -13.5137 -5
    endloop
  endfacet
  facet normal 0 -0 -1
    outer loop
      vertex 8.01127 -13.1653 -5
      vertex 8.15902 -2.45106 -5
      vertex 17.359 -1.95106 -5
    endloop
  endfacet
  facet normal -0.890974 -0.454054 0
    outer loop
      vertex 8.01127 -13.1653 -5
      vertex 8.18882 -13.5137 -5
      vertex 8.01127 -13.1653 -3.4
    endloop
  endfacet
  facet normal -0 0 1
    outer loop
      vertex 8.01127 -14.6347 -3.4
      vertex 28.2843 -28.2843 -3.4
      vertex 8.18882 -14.2863 -3.4
    endloop
  endfacet
  facet normal -0.890974 0.454054 0
    outer loop
      vertex 8.01127 -14.6347 -5
      vertex 8.01127 -14.6347 -3.4
      vertex 8.18882 -14.2863 -3.4
    endloop
  endfacet
  facet normal -0.890974 0.454054 0
    outer loop
      vertex 8.01127 -14.6347 -5
      vertex 8.18882 -14.2863 -3.4
      vertex 8.18882 -14.2863 -5
    endloop
  endfacet
  facet normal 0 0 -1
    outer loop
      vertex 8.01127 -14.6347 -5
      vertex 8.18882 -14.2863 -5
      vertex 28.2843 -28.2843 -5
    endloop
  endfacet
  facet normal -0 0 1
    outer loop
      vertex 8.01127 13.1653 -3.4
      vertex 17.359 1.95106 -3.4
      vertex 8.18882 13.5137 -3.4
    endloop
  endfacet
  facet normal -0 -0 1
    outer loop
      vertex 8.01127 13.1653 -3.4
      vertex 8.15902 2.45106 -3.4
      vertex 17.359 1.95106 -3.4
    endloop
  endfacet
  facet normal 0 0 -1
    outer loop
      vertex 8.01127 13.1653 -5
      vertex 17.359 1.95106 -5
      vertex 8.15902 2.45106 -5
    endloop
  endfacet
  facet normal -0.890974 0.454054 0
    outer loop
      vertex 8.01127 13.1653 -5
      vertex 8.01127 13.1653 -3.4
      vertex 8.18882 13.5137 -3.4
    endloop
  endfacet
  facet normal -0.890974 0.454054 0
    outer loop
      vertex 8.01127 13.1653 -5
      vertex 8.18882 13.5137 -3.4
      vertex 8.18882 13.5137 -5
    endloop
  endfacet
  facet normal 0 0 -1
    outer loop
      vertex 8.01127 13.1653 -5
      vertex 8.18882 13.5137 -5
      vertex 17.359 1.95106 -5
    endloop
  endfacet
  facet normal 0 0 1
    outer loop
      vertex 8.01127 14.6347 -3.4
      vertex 8.18882 14.2863 -3.4
      vertex 28.2843 28.2843 -3.4
    endloop
  endfacet
  facet normal -0.890974 -0.454054 0
    outer loop
      vertex 8.01127 14.6347 -3.4
      vertex 8.18882 14.2863 -5
      vertex 8.18882 14.2863 -3.4
    endloop
  endfacet
  facet normal 0 0 -1
    outer loop
      vertex 8.01127 14.6347 -5
      vertex 28.2843 28.2843 -5
      vertex 8.18882 14.2863 -5
    endloop
  endfacet
  facet normal -0.890974 -0.454054 0
    outer loop
      vertex 8.01127 14.6347 -5
      vertex 8.18882 14.2863 -5
      vertex 8.01127 14.6347 -3.4
    endloop
  endfacet
  facet normal 0 0 1
    outer loop
      vertex 8.15902 -2.45106 -3.4
      vertex 17.359 -1.95106 -3.4
      vertex 8.52229 -1.95106 -3.4
    endloop
  endfacet
  facet normal -0.809018 0.587784 0
    outer loop
      vertex 8.15902 -2.45106 -5
      vertex 8.15902 -2.45106 -3.4
      vertex 8.52229 -1.95106 -3.4
    endloop
  endfacet
  facet normal -0.809018 0.587784 0
    outer loop
      vertex 8.15902 -2.45106 -5
      vertex 8.52229 -1.95106 -3.4
      vertex 8.52229 -1.95106 -5
    endloop
  endfacet
  facet normal -0 0 -1
    outer loop
      vertex 8.15902 -2.45106 -5
      vertex 8.52229 -1.95106 -5
      vertex 17.359 -1.95106 -5
    endloop
  endfacet
  facet normal 0 0 1
    outer loop
      vertex 8.15902 2.45106 -3.4
      vertex 8.52229 1.95106 -3.4
      vertex 17.359 1.95106 -3.4
    endloop
  endfacet
  facet normal -0.809018 -0.587784 0
    outer loop
      vertex 8.15902 2.45106 -3.4
      vertex 8.52229 1.95106 -5
      vertex 8.52229 1.95106 -3.4
    endloop
  endfacet
  facet normal 0 0 -1
    outer loop
      vertex 8.15902 2.45106 -5
      vertex 17.359 1.95106 -5
      vertex 8.52229 1.95106 -5
    endloop
  endfacet
  facet normal -0.809018 -0.587784 0
    outer loop
      vertex 8.15902 2.45106 -5
      vertex 8.52229 1.95106 -5
      vertex 8.15902 2.45106 -3.4
    endloop
  endfacet
  facet normal 0 0 1
    outer loop
      vertex 8.18882 -13.5137 -3.4
      vertex 8.25 -13.9 -3.4
      vertex 17.359 -1.95106 -3.4
    endloop
  endfacet
  facet normal -0.98769 -0.156425 0
    outer loop
      vertex 8.18882 -13.5137 -3.4
      vertex 8.25 -13.9 -5
      vertex 8.25 -13.9 -3.4
    endloop
  endfacet
  facet normal 0 0 -1
    outer loop
      vertex 8.18882 -13.5137 -5
      vertex 17.359 -1.95106 -5
      vertex 8.25 -13.9 -5
    endloop
  endfacet
  facet normal -0.98769 -0.156425 0
    outer loop
      vertex 8.18882 -13.5137 -5
      vertex 8.25 -13.9 -5
      vertex 8.18882 -13.5137 -3.4
    endloop
  endfacet
  facet normal 0 0 1
    outer loop
      vertex 8.18882 -14.2863 -3.4
      vertex 28.2843 -28.2843 -3.4
      vertex 8.25 -13.9 -3.4
    endloop
  endfacet
  facet normal -0.98769 0.156425 0
    outer loop
      vertex 8.18882 -14.2863 -5
      vertex 8.18882 -14.2863 -3.4
      vertex 8.25 -13.9 -3.4
    endloop
  endfacet
  facet normal -0.98769 0.156425 0
    outer loop
      vertex 8.18882 -14.2863 -5
      vertex 8.25 -13.9 -3.4
      vertex 8.25 -13.9 -5
    endloop
  endfacet
  facet normal 0 -0 -1
    outer loop
      vertex 8.18882 -14.2863 -5
      vertex 8.25 -13.9 -5
      vertex 28.2843 -28.2843 -5
    endloop
  endfacet
  facet normal -0 0 1
    outer loop
      vertex 8.18882 13.5137 -3.4
      vertex 17.359 1.95106 -3.4
      vertex 8.25 13.9 -3.4
    endloop
  endfacet
  facet normal -0.98769 0.156425 0
    outer loop
      vertex 8.18882 13.5137 -5
      vertex 8.18882 13.5137 -3.4
      vertex 8.25 13.9 -3.4
    endloop
  endfacet
  facet normal -0.98769 0.156425 0
    outer loop
      vertex 8.18882 13.5137 -5
      vertex 8.25 13.9 -3.4
      vertex 8.25 13.9 -5
    endloop
  endfacet
  facet normal 0 0 -1
    outer loop
      vertex 8.18882 13.5137 -5
      vertex 8.25 13.9 -5
      vertex 17.359 1.95106 -5
    endloop
  endfacet
  facet normal 0 -0 1
    outer loop
      vertex 8.18882 14.2863 -3.4
      vertex 8.25 13.9 -3.4
      vertex 28.2843 28.2843 -3.4
    endloop
  endfacet
  facet normal -0.98769 -0.156425 0
    outer loop
      vertex 8.18882 14.2863 -3.4
      vertex 8.25 13.9 -5
      vertex 8.25 13.9 -3.4
    endloop
  endfacet
  facet normal 0 0 -1
    outer loop
      vertex 8.18882 14.2863 -5
      vertex 28.2843 28.2843 -5
      vertex 8.25 13.9 -5
    endloop
  endfacet
  facet normal -0.98769 -0.156425 0
    outer loop
      vertex 8.18882 14.2863 -5
      vertex 8.25 13.9 -5
      vertex 8.18882 14.2863 -3.4
    endloop
  endfacet
  facet normal 0 0 1
    outer loop
      vertex 8.25 -13.9 -3.4
      vertex 22.6 -1.25 -3.4
      vertex 17.359 -1.95106 -3.4
    endloop
  endfacet
  facet normal 0 0 1
    outer loop
      vertex 8.25 -13.9 -3.4
      vertex 28.2843 -28.2843 -3.4
      vertex 22.6 -1.25 -3.4
    endloop
  endfacet
  facet normal 0 -0 -1
    outer loop
      vertex 8.25 -13.9 -5
      vertex 17.359 -1.95106 -5
      vertex 22.6 -1.25 -5
    endloop
  endfacet
  facet normal 0 0 -1
    outer loop
      vertex 8.25 -13.9 -5
      vertex 22.6 -1.25 -5
      vertex 28.2843 -28.2843 -5
    endloop
  endfacet
  facet normal -0 -0 1
    outer loop
      vertex 8.25 13.9 -3.4
      vertex 17.359 1.95106 -3.4
      vertex 22.6 1.25 -3.4
    endloop
  endfacet
  facet normal -0 0 1
    outer loop
      vertex 8.25 13.9 -3.4
      vertex 22.6 1.25 -3.4
      vertex 28.2843 28.2843 -3.4
    endloop
  endfacet
  facet normal 0 0 -1
    outer loop
      vertex 8.25 13.9 -5
      vertex 22.6 1.25 -5
      vertex 17.359 1.95106 -5
    endloop
  endfacet
  facet normal 0 0 -1
    outer loop
      vertex 8.25 13.9 -5
      vertex 28.2843 28.2843 -5
      vertex 22.6 1.25 -5
    endloop
  endfacet
  facet normal 0 1 -0
    outer loop
      vertex 8.52229 -1.95106 -3.4
      vertex 17.359 -1.95106 -3.4
      vertex 17.359 -1.95106 -5
    endloop
  endfacet
  facet normal 0 1 0
    outer loop
      vertex 8.52229 -1.95106 -5
      vertex 8.52229 -1.95106 -3.4
      vertex 17.359 -1.95106 -5
    endloop
  endfacet
  facet normal 0 -1 0
    outer loop
      vertex 8.52229 1.95106 -5
      vertex 17.359 1.95106 -3.4
      vertex 8.52229 1.95106 -3.4
    endloop
  endfacet
  facet normal 0 -1 -0
    outer loop
      vertex 8.52229 1.95106 -5
      vertex 17.359 1.95106 -5
      vertex 17.359 1.95106 -3.4
    endloop
  endfacet
endsolid model
