solid model
  facet normal 0 1 0
    outer loop
      vertex 0 -13 -11
      vertex 0 -13 11
      vertex 3.01 -13 -11
    endloop
  endfacet
  facet normal 0 1 0
    outer loop
      vertex 0 -13 11
      vertex 40 -13 11
      vertex 3.01 -13 -11
    endloop
  endfacet
  facet normal -0 0 1
    outer loop
      vertex 0 -13 11
      vertex 40 -15 11
      vertex 40 -13 11
    endloop
  endfacet
  facet normal -0 0 -1
    outer loop
      vertex 0 -15 -11
      vertex 0 -13 -11
      vertex 3.01 -13 -11
    endloop
  endfacet
  facet normal -1 0 0
    outer loop
      vertex 0 -15 -11
      vertex 0 -13 11
      vertex 0 -13 -11
    endloop
  endfacet
  facet normal -1 -0 0
    outer loop
      vertex 0 -15 -11
      vertex 0 -15 11
      vertex 0 -13 11
    endloop
  endfacet
  facet normal 0 0 -1
    outer loop
      vertex 0 -15 -11
      vertex 3.01 -13 -11
      vertex 3.01 -15 -11
    endloop
  endfacet
  facet normal 0 -1 0
    outer loop
      vertex 0 -15 -11
      vertex 3.01 -15 -11
      vertex 0 -15 11
    endloop
  endfacet
  facet normal 0 -1 0
    outer loop
      vertex 0 -15 11
      vertex 3.01 -15 -11
      vertex 40 -15 11
    endloop
  endfacet
  facet normal 0 0 1
    outer loop
      vertex 0 -15 11
      vertex 40 -15 11
      vertex 0 -13 11
    endloop
  endfacet
  facet normal -1 -0 0
    outer loop
      vertex 0 13 -11
      vertex 0 13 11
      vertex 0 15 11
    endloop
  endfacet
  facet normal -0 0 -1
    outer loop
      vertex 0 13 -11
      vertex 0 15 -11
      vertex 3.01 15 -11
    endloop
  endfacet
  facet normal -1 0 0
    outer loop
      vertex 0 13 -11
      vertex 0 15 11
      vertex 0 15 -11
    endloop
  endfacet
  facet normal 0 -1 0
    outer loop
      vertex 0 13 -11
      vertex 3.01 13 -11
      vertex 0 13 11
    endloop
  endfacet
  facet normal 0 0 -1
    outer loop
      vertex 0 13 -11
      vertex 3.01 15 -11
      vertex 3.01 13 -11
    endloop
  endfacet
  facet normal 0 -1 0
    outer loop
      vertex 0 13 11
      vertex 3.01 13 -11
      vertex 40 13 11
    endloop
  endfacet
  facet normal 0 0 1
    outer loop
      vertex 0 13 11
      vertex 40 13 11
      vertex 0 15 11
    endloop
  endfacet
  facet normal 0 1 0
    outer loop
      vertex 0 15 -11
      vertex 0 15 11
      vertex 3.01 15 -11
    endloop
  endfacet
  facet normal 0 1 -0
    outer loop
      vertex 0 15 11
      vertex 4 15 -11
      vertex 3.01 15 -11
    endloop
  endfacet
  facet normal -0 0 1
    outer loop
      vertex 0 15 11
      vertex 40 13 11
      vertex 40 15 11
    endloop
  endfacet
  facet normal 0 1 0
    outer loop
      vertex 0 15 11
      vertex 40 15 11
      vertex 4 15 -11
    endloop
  endfacet
  facet normal 0 0.707112 0.707102
    outer loop
      vertex 1.75 -11.818 -44.068
      vertex 2.5 -11.818 -44.068
      vertex 2.5 -8.88604 -47
    endloop
  endfacet
  facet normal 0 -0.707107 0.707107
    outer loop
      vertex 1.75 -11.818 -44.068
      vertex 2.5 -14.75 -47
      vertex 2.5 -11.818 -44.068
    endloop
  endfacet
  facet normal 2.96296e-06 0.707111 0.707102
    outer loop
      vertex 1.75 -11.818 -44.068
      vertex 2.5 -8.88604 -47
      vertex 1.75 -8.63604 -47.25
    endloop
  endfacet
  facet normal -1 0 0
    outer loop
      vertex 1.75 -15 -47.25
      vertex 1.75 -11.818 -44.068
      vertex 1.75 -8.63604 -47.25
    endloop
  endfacet
  facet normal -0 0 -1
    outer loop
      vertex 1.75 -15 -47.25
      vertex 1.75 -8.63604 -47.25
      vertex 40 -8.63604 -47.25
    endloop
  endfacet
  facet normal 1.31581e-16 -0.707107 0.707107
    outer loop
      vertex 1.75 -15 -47.25
      vertex 2.5 -14.75 -47
      vertex 1.75 -11.818 -44.068
    endloop
  endfacet
  facet normal 0 -0.707107 0.707107
    outer loop
      vertex 1.75 -15 -47.25
      vertex 40 -15 -47.25
      vertex 2.5 -14.75 -47
    endloop
  endfacet
  facet normal 0 0 -1
    outer loop
      vertex 1.75 -15 -47.25
      vertex 40 -8.63604 -47.25
      vertex 40 -15 -47.25
    endloop
  endfacet
  facet normal -0 0.707107 0.707107
    outer loop
      vertex 1.75 -8.63604 -47.25
      vertex 2.5 -8.88604 -47
      vertex 40 -8.63604 -47.25
    endloop
  endfacet
  facet normal -1 0 0
    outer loop
      vertex 1.75 10.636 -47.25
      vertex 1.75 13.818 -44.068
      vertex 1.75 17 -47.25
    endloop
  endfacet
  facet normal -0 0 -1
    outer loop
      vertex 1.75 10.636 -47.25
      vertex 1.75 17 -47.25
      vertex 40 17 -47.25
    endloop
  endfacet
  facet normal 1.31581e-16 -0.707107 0.707107
    outer loop
      vertex 1.75 10.636 -47.25
      vertex 2.5 10.886 -47
      vertex 1.75 13.818 -44.068
    endloop
  endfacet
  facet normal 0 -0.707107 0.707107
    outer loop
      vertex 1.75 10.636 -47.25
      vertex 40 10.636 -47.25
      vertex 2.5 10.886 -47
    endloop
  endfacet
  facet normal 0 0 -1
    outer loop
      vertex 1.75 10.636 -47.25
      vertex 40 17 -47.25
      vertex 40 10.636 -47.25
    endloop
  endfacet
  facet normal 0 -0.707107 0.707107
    outer loop
      vertex 1.75 13.818 -44.068
      vertex 2.5 10.886 -47
      vertex 2.5 13.818 -44.068
    endloop
  endfacet
  facet normal 0 0.707107 0.707107
    outer loop
      vertex 1.75 13.818 -44.068
      vertex 2.5 13.818 -44.068
      vertex 2.5 16.75 -47
    endloop
  endfacet
  facet normal 1.31581e-16 0.707107 0.707107
    outer loop
      vertex 1.75 13.818 -44.068
      vertex 2.5 16.75 -47
      vertex 1.75 17 -47.25
    endloop
  endfacet
  facet normal -0 0.707107 0.707107
    outer loop
      vertex 1.75 17 -47.25
      vertex 2.5 16.75 -47
      vertex 40 17 -47.25
    endloop
  endfacet
  facet normal -0 0 -1
    outer loop
      vertex 10.275 -1.51554 -11.5
      vertex 10.5432 -0.440839 -11.5
      vertex 10.775 -0.649519 -11.5
    endloop
  endfacet
  facet normal 0 0 -1
    outer loop
      vertex 10.275 -1.51554 -11.5
      vertex 10.775 -0.649519 -11.5
      vertex 10.9671 -1.74041 -11.5
    endloop
  endfacet
  facet normal 0.309008 0.951059 -0
    outer loop
      vertex 10.275 -1.51554 -11.5
      vertex 10.9671 -1.74041 -11.5
      vertex 10.9671 -1.74041 -14
    endloop
  endfacet
  facet normal 0.309008 0.951059 0
    outer loop
      vertex 10.275 -1.51554 -14
      vertex 10.275 -1.51554 -11.5
      vertex 10.9671 -1.74041 -14
    endloop
  endfacet
  facet normal 0 0 -1
    outer loop
      vertex 10.275 1.51554 -11.5
      vertex 10.775 0.649519 -11.5
      vertex 10.5432 0.440839 -11.5
    endloop
  endfacet
  facet normal 0 0 -1
    outer loop
      vertex 10.275 1.51554 -11.5
      vertex 10.9671 1.74041 -11.5
      vertex 10.775 0.649519 -11.5
    endloop
  endfacet
  facet normal 0.309008 -0.951059 0
    outer loop
      vertex 10.275 1.51554 -14
      vertex 10.9671 1.74041 -11.5
      vertex 10.275 1.51554 -11.5
    endloop
  endfacet
  facet normal 0.309008 -0.951059 0
    outer loop
      vertex 10.275 1.51554 -14
      vertex 10.9671 1.74041 -14
      vertex 10.9671 1.74041 -11.5
    endloop
  endfacet
  facet normal 0.992616 0 0.121298
    outer loop
      vertex 10.3553 -0.168928 -11
      vertex 10.4164 -0.155933 -11.5
      vertex 10.3553 0.168928 -11
    endloop
  endfacet
  facet normal 0.906856 0.403605 0.121307
    outer loop
      vertex 10.3553 -0.168928 -11
      vertex 10.4504 -0.382607 -11
      vertex 10.4164 -0.155933 -11.5
    endloop
  endfacet
  facet normal 0.992616 0 0.121298
    outer loop
      vertex 10.3553 0.168928 -11
      vertex 10.4164 -0.155933 -11.5
      vertex 10.4164 0.155933 -11.5
    endloop
  endfacet
  facet normal 0.906856 -0.403605 0.121307
    outer loop
      vertex 10.3553 0.168928 -11
      vertex 10.4164 0.155933 -11.5
      vertex 10.4504 0.382607 -11
    endloop
  endfacet
  facet normal 0.906856 0.403605 0.121307
    outer loop
      vertex 10.4164 -0.155933 -11.5
      vertex 10.4504 -0.382607 -11
      vertex 10.5432 -0.440839 -11.5
    endloop
  endfacet
  facet normal 0.906856 -0.403605 0.121307
    outer loop
      vertex 10.4164 0.155933 -11.5
      vertex 10.5432 0.440839 -11.5
      vertex 10.4504 0.382607 -11
    endloop
  endfacet
  facet normal 0.906743 0.403875 0.121255
    outer loop
      vertex 10.4504 -0.382607 -11
      vertex 10.4927 -0.477575 -11
      vertex 10.5432 -0.440839 -11.5
    endloop
  endfacet
  facet normal 0.906743 -0.403875 0.121255
    outer loop
      vertex 10.4504 0.382607 -11
      vertex 10.5432 0.440839 -11.5
      vertex 10.4927 0.477575 -11
    endloop
  endfacet
  facet normal 0.664237 0.737617 0.121282
    outer loop
      vertex 10.4927 -0.477575 -11
      vertex 10.6665 -0.634085 -11
      vertex 10.5432 -0.440839 -11.5
    endloop
  endfacet
  facet normal 0.664237 -0.737617 0.121282
    outer loop
      vertex 10.4927 0.477575 -11
      vertex 10.5432 0.440839 -11.5
      vertex 10.6665 0.634085 -11
    endloop
  endfacet
  facet normal 0.664127 0.737707 0.121344
    outer loop
      vertex 10.5432 -0.440839 -11.5
      vertex 10.6665 -0.634085 -11
      vertex 10.775 -0.649519 -11.5
    endloop
  endfacet
  facet normal 0.664127 -0.737707 0.121344
    outer loop
      vertex 10.5432 0.440839 -11.5
      vertex 10.775 0.649519 -11.5
      vertex 10.6665 0.634085 -11
    endloop
  endfacet
  facet normal 0.664437 0.737415 0.12142
    outer loop
      vertex 10.6665 -0.634085 -11
      vertex 10.7437 -0.703645 -11
      vertex 10.775 -0.649519 -11.5
    endloop
  endfacet
  facet normal 0.664437 -0.737415 0.12142
    outer loop
      vertex 10.6665 0.634085 -11
      vertex 10.775 0.649519 -11.5
      vertex 10.7437 0.703645 -11
    endloop
  endfacet
  facet normal 0.306649 0.94405 0.121392
    outer loop
      vertex 10.7437 -0.703645 -11
      vertex 10.8426 -0.73577 -11
      vertex 10.775 -0.649519 -11.5
    endloop
  endfacet
  facet normal 0.306649 -0.94405 0.121392
    outer loop
      vertex 10.7437 0.703645 -11
      vertex 10.775 0.649519 -11.5
      vertex 10.8426 0.73577 -11
    endloop
  endfacet
  facet normal 0.306735 0.944024 0.121376
    outer loop
      vertex 10.775 -0.649519 -11.5
      vertex 10.8426 -0.73577 -11
      vertex 11.0716 -0.745891 -11.5
    endloop
  endfacet
  facet normal 0 0 -1
    outer loop
      vertex 10.775 -0.649519 -11.5
      vertex 11.0716 -0.745891 -11.5
      vertex 10.9671 -1.74041 -11.5
    endloop
  endfacet
  facet normal 0 0 -1
    outer loop
      vertex 10.775 0.649519 -11.5
      vertex 10.9671 1.74041 -11.5
      vertex 11.0716 0.745891 -11.5
    endloop
  endfacet
  facet normal 0.306735 -0.944024 0.121376
    outer loop
      vertex 10.775 0.649519 -11.5
      vertex 11.0716 0.745891 -11.5
      vertex 10.8426 0.73577 -11
    endloop
  endfacet
  facet normal 0.30667 0.944049 0.121345
    outer loop
      vertex 10.8426 -0.73577 -11
      vertex 11.0651 -0.808048 -11
      vertex 11.0716 -0.745891 -11.5
    endloop
  endfacet
  facet normal 0.30667 -0.944049 0.121345
    outer loop
      vertex 10.8426 0.73577 -11
      vertex 11.0716 0.745891 -11.5
      vertex 11.0651 0.808048 -11
    endloop
  endfacet
  facet normal 0 0 -1
    outer loop
      vertex 10.9671 -1.74041 -11.5
      vertex 11.0716 -0.745891 -11.5
      vertex 11.6908 -1.66435 -11.5
    endloop
  endfacet
  facet normal -0.104523 0.994522 0
    outer loop
      vertex 10.9671 -1.74041 -11.5
      vertex 11.6908 -1.66435 -11.5
      vertex 11.6908 -1.66435 -14
    endloop
  endfacet
  facet normal -0.104523 0.994522 0
    outer loop
      vertex 10.9671 -1.74041 -14
      vertex 10.9671 -1.74041 -11.5
      vertex 11.6908 -1.66435 -14
    endloop
  endfacet
  facet normal 0 0 -1
    outer loop
      vertex 10.9671 -1.74041 -14
      vertex 11.6908 -1.66435 -14
      vertex 16.5 -8.15 -14
    endloop
  endfacet
  facet normal 0 0 -1
    outer loop
      vertex 10.9671 1.74041 -11.5
      vertex 11.6908 1.66435 -11.5
      vertex 11.0716 0.745891 -11.5
    endloop
  endfacet
  facet normal -0.104523 -0.994522 0
    outer loop
      vertex 10.9671 1.74041 -14
      vertex 11.6908 1.66435 -11.5
      vertex 10.9671 1.74041 -11.5
    endloop
  endfacet
  facet normal -0.104523 -0.994522 -0
    outer loop
      vertex 10.9671 1.74041 -14
      vertex 11.6908 1.66435 -14
      vertex 11.6908 1.66435 -11.5
    endloop
  endfacet
  facet normal 0 0 -1
    outer loop
      vertex 10.9671 1.74041 -14
      vertex 16.5 8.58205 -14
      vertex 11.6908 1.66435 -14
    endloop
  endfacet
  facet normal -0.103739 0.987171 0.121371
    outer loop
      vertex 11.0651 -0.808048 -11
      vertex 11.1685 -0.797182 -11
      vertex 11.0716 -0.745891 -11.5
    endloop
  endfacet
  facet normal -0 0 1
    outer loop
      vertex 11.0651 -0.808048 -11
      vertex 21.5 -8.15 -11
      vertex 11.1685 -0.797182 -11
    endloop
  endfacet
  facet normal -0.103739 -0.987171 0.121371
    outer loop
      vertex 11.0651 0.808048 -11
      vertex 11.0716 0.745891 -11.5
      vertex 11.1685 0.797182 -11
    endloop
  endfacet
  facet normal -0.103742 0.987171 0.121371
    outer loop
      vertex 11.0716 -0.745891 -11.5
      vertex 11.1685 -0.797182 -11
      vertex 11.3818 -0.713292 -11.5
    endloop
  endfacet
  facet normal 0 0 -1
    outer loop
      vertex 11.0716 -0.745891 -11.5
      vertex 11.3818 -0.713292 -11.5
      vertex 11.6908 -1.66435 -11.5
    endloop
  endfacet
  facet normal -0.103742 -0.987171 0.121371
    outer loop
      vertex 11.0716 0.745891 -11.5
      vertex 11.3818 0.713292 -11.5
      vertex 11.1685 0.797182 -11
    endloop
  endfacet
  facet normal 0 0 -1
    outer loop
      vertex 11.0716 0.745891 -11.5
      vertex 11.6908 1.66435 -11.5
      vertex 11.3818 0.713292 -11.5
    endloop
  endfacet
  facet normal -0.103763 0.98717 0.121362
    outer loop
      vertex 11.1685 -0.797182 -11
      vertex 11.4011 -0.772733 -11
      vertex 11.3818 -0.713292 -11.5
    endloop
  endfacet
  facet normal -0 0 1
    outer loop
      vertex 11.1685 -0.797182 -11
      vertex 21.5 -8.15 -11
      vertex 11.4011 -0.772733 -11
    endloop
  endfacet
  facet normal -0.103763 -0.98717 0.121362
    outer loop
      vertex 11.1685 0.797182 -11
      vertex 11.3818 0.713292 -11.5
      vertex 11.4011 0.772733 -11
    endloop
  endfacet
  facet normal -0.496423 0.859557 0.121348
    outer loop
      vertex 11.3818 -0.713292 -11.5
      vertex 11.4011 -0.772733 -11
      vertex 11.4911 -0.720755 -11
    endloop
  endfacet
  facet normal -0.496423 0.859557 0.121348
    outer loop
      vertex 11.3818 -0.713292 -11.5
      vertex 11.4911 -0.720755 -11
      vertex 11.6518 -0.557358 -11.5
    endloop
  endfacet
  facet normal 0 0 -1
    outer loop
      vertex 11.3818 -0.713292 -11.5
      vertex 11.6518 -0.557358 -11.5
      vertex 11.6908 -1.66435 -11.5
    endloop
  endfacet
  facet normal -0.496423 -0.859557 0.121348
    outer loop
      vertex 11.3818 0.713292 -11.5
      vertex 11.4911 0.720755 -11
      vertex 11.4011 0.772733 -11
    endloop
  endfacet
  facet normal -0.496423 -0.859557 0.121348
    outer loop
      vertex 11.3818 0.713292 -11.5
      vertex 11.6518 0.557358 -11.5
      vertex 11.4911 0.720755 -11
    endloop
  endfacet
  facet normal 0 0 -1
    outer loop
      vertex 11.3818 0.713292 -11.5
      vertex 11.6908 1.66435 -11.5
      vertex 11.6518 0.557358 -11.5
    endloop
  endfacet
  facet normal -0 0 1
    outer loop
      vertex 11.4011 -0.772733 -11
      vertex 21.5 -8.15 -11
      vertex 11.4911 -0.720755 -11
    endloop
  endfacet
  facet normal 0 0 1
    outer loop
      vertex 11.4011 0.772733 -11
      vertex 11.4911 0.720755 -11
      vertex 21.5 6.85 -11
    endloop
  endfacet
  facet normal -0.496235 0.859653 0.121439
    outer loop
      vertex 11.4911 -0.720755 -11
      vertex 11.6937 -0.603804 -11
      vertex 11.6518 -0.557358 -11.5
    endloop
  endfacet
  facet normal -0 0 1
    outer loop
      vertex 11.4911 -0.720755 -11
      vertex 21.5 -8.15 -11
      vertex 11.6937 -0.603804 -11
    endloop
  endfacet
  facet normal -0.496235 -0.859653 0.121439
    outer loop
      vertex 11.4911 0.720755 -11
      vertex 11.6518 0.557358 -11.5
      vertex 11.6937 0.603804 -11
    endloop
  endfacet
  facet normal 0 0 1
    outer loop
      vertex 11.4911 0.720755 -11
      vertex 11.6937 0.603804 -11
      vertex 21.5 6.85 -11
    endloop
  endfacet
  facet normal -0.80299 0.583479 0.121491
    outer loop
      vertex 11.6518 -0.557358 -11.5
      vertex 11.6937 -0.603804 -11
      vertex 11.8312 -0.414575 -11
    endloop
  endfacet
  facet normal -0.802897 0.583622 0.121417
    outer loop
      vertex 11.6518 -0.557358 -11.5
      vertex 11.8312 -0.414575 -11
      vertex 11.8352 -0.305052 -11.5
    endloop
  endfacet
  facet normal 0 0 -1
    outer loop
      vertex 11.6518 -0.557358 -11.5
      vertex 11.8352 -0.305052 -11.5
      vertex 12.321 -1.3005 -11.5
    endloop
  endfacet
  facet normal 0 0 -1
    outer loop
      vertex 11.6518 -0.557358 -11.5
      vertex 12.321 -1.3005 -11.5
      vertex 11.6908 -1.66435 -11.5
    endloop
  endfacet
  facet normal -0 0 -1
    outer loop
      vertex 11.6518 0.557358 -11.5
      vertex 11.6908 1.66435 -11.5
      vertex 12.321 1.3005 -11.5
    endloop
  endfacet
  facet normal -0.80299 -0.583479 0.121491
    outer loop
      vertex 11.6518 0.557358 -11.5
      vertex 11.8312 0.414575 -11
      vertex 11.6937 0.603804 -11
    endloop
  endfacet
  facet normal -0.802897 -0.583622 0.121417
    outer loop
      vertex 11.6518 0.557358 -11.5
      vertex 11.8352 0.305052 -11.5
      vertex 11.8312 0.414575 -11
    endloop
  endfacet
  facet normal 0 0 -1
    outer loop
      vertex 11.6518 0.557358 -11.5
      vertex 12.321 1.3005 -11.5
      vertex 11.8352 0.305052 -11.5
    endloop
  endfacet
  facet normal -0.500004 0.866023 0
    outer loop
      vertex 11.6908 -1.66435 -11.5
      vertex 12.321 -1.3005 -11.5
      vertex 12.321 -1.3005 -14
    endloop
  endfacet
  facet normal -0.500004 0.866023 0
    outer loop
      vertex 11.6908 -1.66435 -14
      vertex 11.6908 -1.66435 -11.5
      vertex 12.321 -1.3005 -14
    endloop
  endfacet
  facet normal 0 0 -1
    outer loop
      vertex 11.6908 -1.66435 -14
      vertex 12.321 -1.3005 -14
      vertex 16.5 -8.15 -14
    endloop
  endfacet
  facet normal -0.500004 -0.866023 0
    outer loop
      vertex 11.6908 1.66435 -14
      vertex 12.321 1.3005 -11.5
      vertex 11.6908 1.66435 -11.5
    endloop
  endfacet
  facet normal -0.500004 -0.866023 -0
    outer loop
      vertex 11.6908 1.66435 -14
      vertex 12.321 1.3005 -14
      vertex 12.321 1.3005 -11.5
    endloop
  endfacet
  facet normal 0 0 -1
    outer loop
      vertex 11.6908 1.66435 -14
      vertex 16.5 8.58205 -14
      vertex 12.321 1.3005 -14
    endloop
  endfacet
  facet normal -0 0 1
    outer loop
      vertex 11.6937 -0.603804 -11
      vertex 21.5 -8.15 -11
      vertex 11.8312 -0.414575 -11
    endloop
  endfacet
  facet normal 0 0 1
    outer loop
      vertex 11.6937 0.603804 -11
      vertex 11.8312 0.414575 -11
      vertex 21.5 6.85 -11
    endloop
  endfacet
  facet normal -0.803053 0.583417 0.121371
    outer loop
      vertex 11.8312 -0.414575 -11
      vertex 11.8923 -0.330473 -11
      vertex 11.8352 -0.305052 -11.5
    endloop
  endfacet
  facet normal -0 0 1
    outer loop
      vertex 11.8312 -0.414575 -11
      vertex 21.5 -8.15 -11
      vertex 11.8923 -0.330473 -11
    endloop
  endfacet
  facet normal -0.803053 -0.583417 0.121371
    outer loop
      vertex 11.8312 0.414575 -11
      vertex 11.8352 0.305052 -11.5
      vertex 11.8923 0.330473 -11
    endloop
  endfacet
  facet normal 0 0 1
    outer loop
      vertex 11.8312 0.414575 -11
      vertex 11.8923 0.330473 -11
      vertex 21.5 6.85 -11
    endloop
  endfacet
  facet normal -0.970943 0.20625 0.121368
    outer loop
      vertex 11.8352 -0.305052 -11.5
      vertex 11.8923 -0.330473 -11
      vertex 11.9139 -0.228789 -11
    endloop
  endfacet
  facet normal 0 0 -1
    outer loop
      vertex 11.8352 -0.305052 -11.5
      vertex 11.9 0 -11.5
      vertex 12.7487 -0.711788 -11.5
    endloop
  endfacet
  facet normal -0.970943 0.20625 0.121368
    outer loop
      vertex 11.8352 -0.305052 -11.5
      vertex 11.9139 -0.228789 -11
      vertex 11.9 0 -11.5
    endloop
  endfacet
  facet normal 0 0 -1
    outer loop
      vertex 11.8352 -0.305052 -11.5
      vertex 12.7487 -0.711788 -11.5
      vertex 12.321 -1.3005 -11.5
    endloop
  endfacet
  facet normal -0.970943 -0.20625 0.121368
    outer loop
      vertex 11.8352 0.305052 -11.5
      vertex 11.9 0 -11.5
      vertex 11.9139 0.228789 -11
    endloop
  endfacet
  facet normal -0.970943 -0.20625 0.121368
    outer loop
      vertex 11.8352 0.305052 -11.5
      vertex 11.9139 0.228789 -11
      vertex 11.8923 0.330473 -11
    endloop
  endfacet
  facet normal -0 0 -1
    outer loop
      vertex 11.8352 0.305052 -11.5
      vertex 12.321 1.3005 -11.5
      vertex 12.7487 0.711788 -11.5
    endloop
  endfacet
  facet normal 0 0 -1
    outer loop
      vertex 11.8352 0.305052 -11.5
      vertex 12.7487 0.711788 -11.5
      vertex 11.9 0 -11.5
    endloop
  endfacet
  facet normal -0 0 1
    outer loop
      vertex 11.8923 -0.330473 -11
      vertex 21.5 -8.15 -11
      vertex 11.9139 -0.228789 -11
    endloop
  endfacet
  facet normal 0 0 1
    outer loop
      vertex 11.8923 0.330473 -11
      vertex 11.9139 0.228789 -11
      vertex 21.5 6.85 -11
    endloop
  endfacet
  facet normal -0.970943 0.20625 0.121368
    outer loop
      vertex 11.9 0 -11.5
      vertex 11.9139 -0.228789 -11
      vertex 11.9625 0 -11
    endloop
  endfacet
  facet normal -0.970943 -0.20625 0.121368
    outer loop
      vertex 11.9 0 -11.5
      vertex 11.9625 0 -11
      vertex 11.9139 0.228789 -11
    endloop
  endfacet
  facet normal 0 0 -1
    outer loop
      vertex 11.9 0 -11.5
      vertex 12.7487 0.711788 -11.5
      vertex 12.9 0 -11.5
    endloop
  endfacet
  facet normal 0 0 -1
    outer loop
      vertex 11.9 0 -11.5
      vertex 12.9 0 -11.5
      vertex 12.7487 -0.711788 -11.5
    endloop
  endfacet
  facet normal -0 0 1
    outer loop
      vertex 11.9139 -0.228789 -11
      vertex 21.5 -8.15 -11
      vertex 11.9625 0 -11
    endloop
  endfacet
  facet normal 0 0 1
    outer loop
      vertex 11.9139 0.228789 -11
      vertex 11.9625 0 -11
      vertex 21.5 6.85 -11
    endloop
  endfacet
  facet normal 0 0 1
    outer loop
      vertex 11.9625 0 -11
      vertex 21.5 -8.15 -11
      vertex 21.5 6.85 -11
    endloop
  endfacet
  facet normal -0.809033 0.587763 0
    outer loop
      vertex 12.321 -1.3005 -14
      vertex 12.321 -1.3005 -11.5
      vertex 12.7487 -0.711788 -11.5
    endloop
  endfacet
  facet normal -0.809033 0.587763 0
    outer loop
      vertex 12.321 -1.3005 -14
      vertex 12.7487 -0.711788 -11.5
      vertex 12.7487 -0.711788 -14
    endloop
  endfacet
  facet normal 0 0 -1
    outer loop
      vertex 12.321 -1.3005 -14
      vertex 12.7487 -0.711788 -14
      vertex 16.5 -8.15 -14
    endloop
  endfacet
  facet normal -0.809033 -0.587763 0
    outer loop
      vertex 12.321 1.3005 -11.5
      vertex 12.7487 0.711788 -14
      vertex 12.7487 0.711788 -11.5
    endloop
  endfacet
  facet normal -0.809033 -0.587763 0
    outer loop
      vertex 12.321 1.3005 -14
      vertex 12.7487 0.711788 -14
      vertex 12.321 1.3005 -11.5
    endloop
  endfacet
  facet normal 0 0 -1
    outer loop
      vertex 12.321 1.3005 -14
      vertex 16.5 8.58205 -14
      vertex 12.7487 0.711788 -14
    endloop
  endfacet
  facet normal -0.978146 0.207918 0
    outer loop
      vertex 12.7487 -0.711788 -14
      vertex 12.7487 -0.711788 -11.5
      vertex 12.9 0 -11.5
    endloop
  endfacet
  facet normal -0.978146 0.207918 0
    outer loop
      vertex 12.7487 -0.711788 -14
      vertex 12.9 0 -11.5
      vertex 12.9 0 -14
    endloop
  endfacet
  facet normal 0 0 -1
    outer loop
      vertex 12.7487 -0.711788 -14
      vertex 12.9 0 -14
      vertex 16.5 -8.15 -14
    endloop
  endfacet
  facet normal -0.978146 -0.207918 0
    outer loop
      vertex 12.7487 0.711788 -11.5
      vertex 12.9 0 -14
      vertex 12.9 0 -11.5
    endloop
  endfacet
  facet normal -0.978146 -0.207918 0
    outer loop
      vertex 12.7487 0.711788 -14
      vertex 12.9 0 -14
      vertex 12.7487 0.711788 -11.5
    endloop
  endfacet
  facet normal 0 0 -1
    outer loop
      vertex 12.7487 0.711788 -14
      vertex 16.5 8.58205 -14
      vertex 12.9 0 -14
    endloop
  endfacet
  facet normal 0 0 -1
    outer loop
      vertex 12.9 0 -14
      vertex 16.5 8.58205 -14
      vertex 16.5 -8.15 -14
    endloop
  endfacet
  facet normal 0.501718 0 -0.865031
    outer loop
      vertex 16.5 -8.15 -14
      vertex 16.5 8.58205 -14
      vertex 21.5 6.90773 -11.1
    endloop
  endfacet
  facet normal 0 1 0
    outer loop
      vertex 16.5 -8.15 -14
      vertex 21.5 -8.15 -11.1
      vertex 40 -8.15 -17
    endloop
  endfacet
  facet normal 0.501718 0 -0.865031
    outer loop
      vertex 16.5 -8.15 -14
      vertex 21.5 6.90773 -11.1
      vertex 21.5 -8.15 -11.1
    endloop
  endfacet
  facet normal -1.56228e-07 -0.866025 -0.500001
    outer loop
      vertex 16.5 8.58205 -14
      vertex 40 10.3141 -17
      vertex 21.5 6.90773 -11.1
    endloop
  endfacet
  facet normal -1 0 0
    outer loop
      vertex 2.5 -11.818 -44.068
      vertex 2.5 13.818 -44.068
      vertex 2.5 -8.88604 -47
    endloop
  endfacet
  facet normal -1 0 0
    outer loop
      vertex 2.5 -11.818 -44.068
      vertex 2.5 30 -41
      vertex 2.5 13.818 -44.068
    endloop
  endfacet
  facet normal 0 -0.707107 0.707107
    outer loop
      vertex 2.5 -14.75 -47
      vertex 40 -15 -47.25
      vertex 40 -14.75 -47
    endloop
  endfacet
  facet normal -1 0 0
    outer loop
      vertex 2.5 -30 -41
      vertex 2.5 -11.818 -44.068
      vertex 2.5 -14.75 -47
    endloop
  endfacet
  facet normal -1 0 0
    outer loop
      vertex 2.5 -30 -41
      vertex 2.5 30 -41
      vertex 2.5 -11.818 -44.068
    endloop
  endfacet
  facet normal 0 0 1
    outer loop
      vertex 2.5 -30 -41
      vertex 40 -30 -41
      vertex 2.5 30 -41
    endloop
  endfacet
  facet normal -0 0 -1
    outer loop
      vertex 2.5 -30 -47
      vertex 2.5 -14.75 -47
      vertex 40 -14.75 -47
    endloop
  endfacet
  facet normal -1 0 0
    outer loop
      vertex 2.5 -30 -47
      vertex 2.5 -30 -41
      vertex 2.5 -14.75 -47
    endloop
  endfacet
  facet normal 0 0 -1
    outer loop
      vertex 2.5 -30 -47
      vertex 40 -14.75 -47
      vertex 40 -30 -47
    endloop
  endfacet
  facet normal 0 -1 0
    outer loop
      vertex 2.5 -30 -47
      vertex 40 -30 -41
      vertex 2.5 -30 -41
    endloop
  endfacet
  facet normal 0 -1 -0
    outer loop
      vertex 2.5 -30 -47
      vertex 40 -30 -47
      vertex 40 -30 -41
    endloop
  endfacet
  facet normal -0 0 -1
    outer loop
      vertex 2.5 -8.88604 -47
      vertex 2.5 10.886 -47
      vertex 40 10.886 -47
    endloop
  endfacet
  facet normal -1 0 0
    outer loop
      vertex 2.5 -8.88604 -47
      vertex 2.5 13.818 -44.068
      vertex 2.5 10.886 -47
    endloop
  endfacet
  facet normal 0 0.707107 0.707107
    outer loop
      vertex 2.5 -8.88604 -47
      vertex 40 -8.88604 -47
      vertex 40 -8.63604 -47.25
    endloop
  endfacet
  facet normal 0 0 -1
    outer loop
      vertex 2.5 -8.88604 -47
      vertex 40 10.886 -47
      vertex 40 -8.88604 -47
    endloop
  endfacet
  facet normal 0 -0.707107 0.707107
    outer loop
      vertex 2.5 10.886 -47
      vertex 40 10.636 -47.25
      vertex 40 10.886 -47
    endloop
  endfacet
  facet normal -1 0 0
    outer loop
      vertex 2.5 13.818 -44.068
      vertex 2.5 30 -41
      vertex 2.5 16.75 -47
    endloop
  endfacet
  facet normal -1 0 0
    outer loop
      vertex 2.5 16.75 -47
      vertex 2.5 30 -41
      vertex 2.5 30 -47
    endloop
  endfacet
  facet normal -0 0 -1
    outer loop
      vertex 2.5 16.75 -47
      vertex 2.5 30 -47
      vertex 40 30 -47
    endloop
  endfacet
  facet normal 0 0.707107 0.707107
    outer loop
      vertex 2.5 16.75 -47
      vertex 40 16.75 -47
      vertex 40 17 -47.25
    endloop
  endfacet
  facet normal 0 0 -1
    outer loop
      vertex 2.5 16.75 -47
      vertex 40 30 -47
      vertex 40 16.75 -47
    endloop
  endfacet
  facet normal -0 0 1
    outer loop
      vertex 2.5 30 -41
      vertex 40 -30 -41
      vertex 40 30 -41
    endloop
  endfacet
  facet normal 0 1 -0
    outer loop
      vertex 2.5 30 -41
      vertex 40 30 -41
      vertex 40 30 -47
    endloop
  endfacet
  facet normal 0 1 0
    outer loop
      vertex 2.5 30 -47
      vertex 2.5 30 -41
      vertex 40 30 -47
    endloop
  endfacet
  facet normal -0 0 1
    outer loop
      vertex 21.5 -8.15 -11
      vertex 40 -13 -11
      vertex 40 -8.15 -11
    endloop
  endfacet
  facet normal 0 1 0
    outer loop
      vertex 21.5 -8.15 -11.1
      vertex 21.5 -8.15 -11
      vertex 40 -8.15 -11
    endloop
  endfacet
  facet normal 1 0 0
    outer loop
      vertex 21.5 -8.15 -11.1
      vertex 21.5 6.85 -11
      vertex 21.5 -8.15 -11
    endloop
  endfacet
  facet normal 1 0 0
    outer loop
      vertex 21.5 -8.15 -11.1
      vertex 21.5 6.90773 -11.1
      vertex 21.5 6.85 -11
    endloop
  endfacet
  facet normal 0 1 -0
    outer loop
      vertex 21.5 -8.15 -11.1
      vertex 40 -8.15 -11
      vertex 40 -8.15 -17
    endloop
  endfacet
  facet normal 0 -0.866044 -0.499967
    outer loop
      vertex 21.5 6.85 -11
      vertex 21.5 6.90773 -11.1
      vertex 40 6.85 -11
    endloop
  endfacet
  facet normal 0 0 1
    outer loop
      vertex 21.5 6.85 -11
      vertex 40 6.85 -11
      vertex 40 13 -11
    endloop
  endfacet
  facet normal 2.34061e-07 -0.866026 -0.5
    outer loop
      vertex 21.5 6.90773 -11.1
      vertex 40 10.3141 -17
      vertex 40 6.85 -11
    endloop
  endfacet
  facet normal 0 -0.707111 -0.707102
    outer loop
      vertex 3.01 -11.818 -13.818
      vertex 3.01 -8.63604 -17
      vertex 40 -11.818 -13.818
    endloop
  endfacet
  facet normal 0 0.707107 -0.707107
    outer loop
      vertex 3.01 -11.818 -13.818
      vertex 40 -11.818 -13.818
      vertex 40 -15 -17
    endloop
  endfacet
  facet normal 0 0 1
    outer loop
      vertex 3.01 -13 -11
      vertex 11.0651 -0.808048 -11
      vertex 7.10108 -0.772733 -11
    endloop
  endfacet
  facet normal 0 0 1
    outer loop
      vertex 3.01 -13 -11
      vertex 21.5 -8.15 -11
      vertex 11.0651 -0.808048 -11
    endloop
  endfacet
  facet normal -1 0 0
    outer loop
      vertex 3.01 -13 -11
      vertex 3.01 -8.63604 -17
      vertex 3.01 -11.818 -13.818
    endloop
  endfacet
  facet normal -1 0 0
    outer loop
      vertex 3.01 -13 -11
      vertex 3.01 13 -11
      vertex 3.01 -8.63604 -17
    endloop
  endfacet
  facet normal 0 0 1
    outer loop
      vertex 3.01 -13 -11
      vertex 40 -13 -11
      vertex 21.5 -8.15 -11
    endloop
  endfacet
  facet normal 0 1 0
    outer loop
      vertex 3.01 -13 -11
      vertex 40 -13 11
      vertex 40 -13 -11
    endloop
  endfacet
  facet normal 0 0 1
    outer loop
      vertex 3.01 -13 -11
      vertex 6.05526 -0.168928 -11
      vertex 3.01 13 -11
    endloop
  endfacet
  facet normal 0 0 1
    outer loop
      vertex 3.01 -13 -11
      vertex 6.15039 -0.382607 -11
      vertex 6.05526 -0.168928 -11
    endloop
  endfacet
  facet normal 0 0 1
    outer loop
      vertex 3.01 -13 -11
      vertex 6.19267 -0.477575 -11
      vertex 6.15039 -0.382607 -11
    endloop
  endfacet
  facet normal 0 0 1
    outer loop
      vertex 3.01 -13 -11
      vertex 6.3665 -0.634085 -11
      vertex 6.19267 -0.477575 -11
    endloop
  endfacet
  facet normal 0 0 1
    outer loop
      vertex 3.01 -13 -11
      vertex 6.44375 -0.703645 -11
      vertex 6.3665 -0.634085 -11
    endloop
  endfacet
  facet normal 0 0 1
    outer loop
      vertex 3.01 -13 -11
      vertex 6.54262 -0.73577 -11
      vertex 6.44375 -0.703645 -11
    endloop
  endfacet
  facet normal 0 0 1
    outer loop
      vertex 3.01 -13 -11
      vertex 6.76507 -0.808048 -11
      vertex 6.54262 -0.73577 -11
    endloop
  endfacet
  facet normal 0 0 1
    outer loop
      vertex 3.01 -13 -11
      vertex 6.86846 -0.797182 -11
      vertex 6.76507 -0.808048 -11
    endloop
  endfacet
  facet normal 0 0 1
    outer loop
      vertex 3.01 -13 -11
      vertex 7.10108 -0.772733 -11
      vertex 6.86846 -0.797182 -11
    endloop
  endfacet
  facet normal -1 0 0
    outer loop
      vertex 3.01 -15 -11
      vertex 3.01 -13 -11
      vertex 3.01 -11.818 -13.818
    endloop
  endfacet
  facet normal 0 -1 0
    outer loop
      vertex 3.01 -15 -11
      vertex 40 -15 -17
      vertex 40 -15 11
    endloop
  endfacet
  facet normal 0 0.707107 -0.707107
    outer loop
      vertex 3.01 -15 -17
      vertex 3.01 -11.818 -13.818
      vertex 40 -15 -17
    endloop
  endfacet
  facet normal -1 0 0
    outer loop
      vertex 3.01 -15 -17
      vertex 3.01 -15 -11
      vertex 3.01 -11.818 -13.818
    endloop
  endfacet
  facet normal 0 -1 0
    outer loop
      vertex 3.01 -15 -17
      vertex 40 -15 -17
      vertex 3.01 -15 -11
    endloop
  endfacet
  facet normal 0 0 -1
    outer loop
      vertex 3.01 -8.63604 -17
      vertex 3.01 10.636 -17
      vertex 4 -8.15 -17
    endloop
  endfacet
  facet normal -1 0 0
    outer loop
      vertex 3.01 -8.63604 -17
      vertex 3.01 13 -11
      vertex 3.01 10.636 -17
    endloop
  endfacet
  facet normal 0 0 -1
    outer loop
      vertex 3.01 -8.63604 -17
      vertex 4 -8.15 -17
      vertex 40 -8.63604 -17
    endloop
  endfacet
  facet normal 0 -0.707111 -0.707102
    outer loop
      vertex 3.01 -8.63604 -17
      vertex 40 -8.63604 -17
      vertex 40 -11.818 -13.818
    endloop
  endfacet
  facet normal -1 0 0
    outer loop
      vertex 3.01 10.636 -17
      vertex 3.01 13 -11
      vertex 3.01 13.818 -13.818
    endloop
  endfacet
  facet normal 0 0.707107 -0.707107
    outer loop
      vertex 3.01 10.636 -17
      vertex 3.01 13.818 -13.818
      vertex 40 10.636 -17
    endloop
  endfacet
  facet normal 0 0 -1
    outer loop
      vertex 3.01 10.636 -17
      vertex 4 10.3141 -17
      vertex 4 -8.15 -17
    endloop
  endfacet
  facet normal 0 0 -1
    outer loop
      vertex 3.01 10.636 -17
      vertex 40 10.636 -17
      vertex 4 10.3141 -17
    endloop
  endfacet
  facet normal 0 0 1
    outer loop
      vertex 3.01 13 -11
      vertex 11.0651 0.808048 -11
      vertex 11.1685 0.797182 -11
    endloop
  endfacet
  facet normal 0 0 1
    outer loop
      vertex 3.01 13 -11
      vertex 11.1685 0.797182 -11
      vertex 11.4011 0.772733 -11
    endloop
  endfacet
  facet normal 0 0 1
    outer loop
      vertex 3.01 13 -11
      vertex 11.4011 0.772733 -11
      vertex 21.5 6.85 -11
    endloop
  endfacet
  facet normal -0 0 1
    outer loop
      vertex 3.01 13 -11
      vertex 21.5 6.85 -11
      vertex 40 13 -11
    endloop
  endfacet
  facet normal -1 0 0
    outer loop
      vertex 3.01 13 -11
      vertex 3.01 15 -11
      vertex 3.01 13.818 -13.818
    endloop
  endfacet
  facet normal 0 -1 -0
    outer loop
      vertex 3.01 13 -11
      vertex 40 13 -11
      vertex 40 13 11
    endloop
  endfacet
  facet normal 0 0 1
    outer loop
      vertex 3.01 13 -11
      vertex 6.05526 -0.168928 -11
      vertex 6.05526 0.168928 -11
    endloop
  endfacet
  facet normal 0 0 1
    outer loop
      vertex 3.01 13 -11
      vertex 6.05526 0.168928 -11
      vertex 6.15039 0.382607 -11
    endloop
  endfacet
  facet normal 0 0 1
    outer loop
      vertex 3.01 13 -11
      vertex 6.15039 0.382607 -11
      vertex 6.19267 0.477575 -11
    endloop
  endfacet
  facet normal 0 0 1
    outer loop
      vertex 3.01 13 -11
      vertex 6.19267 0.477575 -11
      vertex 6.3665 0.634085 -11
    endloop
  endfacet
  facet normal 0 0 1
    outer loop
      vertex 3.01 13 -11
      vertex 6.3665 0.634085 -11
      vertex 6.44375 0.703645 -11
    endloop
  endfacet
  facet normal 0 0 1
    outer loop
      vertex 3.01 13 -11
      vertex 6.44375 0.703645 -11
      vertex 6.54262 0.73577 -11
    endloop
  endfacet
  facet normal 0 0 1
    outer loop
      vertex 3.01 13 -11
      vertex 6.54262 0.73577 -11
      vertex 6.76507 0.808048 -11
    endloop
  endfacet
  facet normal 0 0 1
    outer loop
      vertex 3.01 13 -11
      vertex 6.76507 0.808048 -11
      vertex 6.86846 0.797182 -11
    endloop
  endfacet
  facet normal 0 0 1
    outer loop
      vertex 3.01 13 -11
      vertex 6.86846 0.797182 -11
      vertex 7.10108 0.772733 -11
    endloop
  endfacet
  facet normal 0 -0 1
    outer loop
      vertex 3.01 13 -11
      vertex 7.10108 0.772733 -11
      vertex 11.0651 0.808048 -11
    endloop
  endfacet
  facet normal -1 0 0
    outer loop
      vertex 3.01 13.818 -13.818
      vertex 3.01 15 -11
      vertex 3.01 15 -15
    endloop
  endfacet
  facet normal -0 -0.707107 -0.707107
    outer loop
      vertex 3.01 13.818 -13.818
      vertex 3.01 15 -15
      vertex 4 15 -15
    endloop
  endfacet
  facet normal 0 -0.707107 -0.707107
    outer loop
      vertex 3.01 13.818 -13.818
      vertex 4 15 -15
      vertex 40 13.818 -13.818
    endloop
  endfacet
  facet normal 0 0.707107 -0.707107
    outer loop
      vertex 3.01 13.818 -13.818
      vertex 40 13.818 -13.818
      vertex 40 10.636 -17
    endloop
  endfacet
  facet normal 0 1 -0
    outer loop
      vertex 3.01 15 -11
      vertex 4 15 -11
      vertex 4 15 -15
    endloop
  endfacet
  facet normal 0 1 0
    outer loop
      vertex 3.01 15 -15
      vertex 3.01 15 -11
      vertex 4 15 -15
    endloop
  endfacet
  facet normal 0 0 -1
    outer loop
      vertex 4 -8.15 -14
      vertex 10.9671 -1.74041 -14
      vertex 16.5 -8.15 -14
    endloop
  endfacet
  facet normal 0 0 -1
    outer loop
      vertex 4 -8.15 -14
      vertex 4 8.58205 -14
      vertex 5.13824 0.363845 -14
    endloop
  endfacet
  facet normal -0 0 -1
    outer loop
      vertex 4 -8.15 -14
      vertex 5.13824 -0.363845 -14
      vertex 5.43422 -1.02862 -14
    endloop
  endfacet
  facet normal -0 0 -1
    outer loop
      vertex 4 -8.15 -14
      vertex 5.13824 0.363845 -14
      vertex 5.13824 -0.363845 -14
    endloop
  endfacet
  facet normal -0 0 -1
    outer loop
      vertex 4 -8.15 -14
      vertex 5.43422 -1.02862 -14
      vertex 5.975 -1.51554 -14
    endloop
  endfacet
  facet normal -0 0 -1
    outer loop
      vertex 4 -8.15 -14
      vertex 5.975 -1.51554 -14
      vertex 6.66708 -1.74041 -14
    endloop
  endfacet
  facet normal 0 0 -1
    outer loop
      vertex 4 -8.15 -14
      vertex 6.66708 -1.74041 -14
      vertex 7.39078 -1.66435 -14
    endloop
  endfacet
  facet normal 0 -0 -1
    outer loop
      vertex 4 -8.15 -14
      vertex 7.39078 -1.66435 -14
      vertex 10.9671 -1.74041 -14
    endloop
  endfacet
  facet normal 0 1 0
    outer loop
      vertex 4 -8.15 -17
      vertex 16.5 -8.15 -14
      vertex 40 -8.15 -17
    endloop
  endfacet
  facet normal 0 1 0
    outer loop
      vertex 4 -8.15 -17
      vertex 4 -8.15 -14
      vertex 16.5 -8.15 -14
    endloop
  endfacet
  facet normal 1 0 0
    outer loop
      vertex 4 -8.15 -17
      vertex 4 10.3141 -17
      vertex 4 8.58205 -14
    endloop
  endfacet
  facet normal 1 0 0
    outer loop
      vertex 4 -8.15 -17
      vertex 4 8.58205 -14
      vertex 4 -8.15 -14
    endloop
  endfacet
  facet normal 0 0 -1
    outer loop
      vertex 4 -8.15 -17
      vertex 40 -8.15 -17
      vertex 40 -8.63604 -17
    endloop
  endfacet
  facet normal -0 -0.866026 -0.5
    outer loop
      vertex 4 10.3141 -17
      vertex 40 10.3141 -17
      vertex 16.5 8.58205 -14
    endloop
  endfacet
  facet normal 0 0 -1
    outer loop
      vertex 4 10.3141 -17
      vertex 40 10.636 -17
      vertex 40 10.3141 -17
    endloop
  endfacet
  facet normal 0 0 1
    outer loop
      vertex 4 15 -11
      vertex 40 15 -11
      vertex 4 17 -11
    endloop
  endfacet
  facet normal 0 1 0
    outer loop
      vertex 4 15 -11
      vertex 40 15 11
      vertex 40 15 -11
    endloop
  endfacet
  facet normal -1 -0 0
    outer loop
      vertex 4 15 -15
      vertex 4 15 -11
      vertex 4 17 -11
    endloop
  endfacet
  facet normal -1 0 0
    outer loop
      vertex 4 15 -15
      vertex 4 17 -11
      vertex 4 17 -17
    endloop
  endfacet
  facet normal -0 -0.707107 -0.707107
    outer loop
      vertex 4 15 -15
      vertex 4 17 -17
      vertex 40 17 -17
    endloop
  endfacet
  facet normal 0 -0.707107 -0.707107
    outer loop
      vertex 4 15 -15
      vertex 40 17 -17
      vertex 40 13.818 -13.818
    endloop
  endfacet
  facet normal -0 0 1
    outer loop
      vertex 4 17 -11
      vertex 40 15 -11
      vertex 40 17 -11
    endloop
  endfacet
  facet normal 0 1 -0
    outer loop
      vertex 4 17 -11
      vertex 40 17 -11
      vertex 40 17 -17
    endloop
  endfacet
  facet normal 0 1 0
    outer loop
      vertex 4 17 -17
      vertex 4 17 -11
      vertex 40 17 -17
    endloop
  endfacet
  facet normal -0 0 -1
    outer loop
      vertex 4 8.58205 -14
      vertex 10.9671 1.74041 -14
      vertex 7.39078 1.66435 -14
    endloop
  endfacet
  facet normal 0 0 -1
    outer loop
      vertex 4 8.58205 -14
      vertex 16.5 8.58205 -14
      vertex 10.9671 1.74041 -14
    endloop
  endfacet
  facet normal 0 -0.866026 -0.5
    outer loop
      vertex 4 8.58205 -14
      vertex 4 10.3141 -17
      vertex 16.5 8.58205 -14
    endloop
  endfacet
  facet normal 0 0 -1
    outer loop
      vertex 4 8.58205 -14
      vertex 5.43422 1.02862 -14
      vertex 5.13824 0.363845 -14
    endloop
  endfacet
  facet normal 0 0 -1
    outer loop
      vertex 4 8.58205 -14
      vertex 5.975 1.51554 -14
      vertex 5.43422 1.02862 -14
    endloop
  endfacet
  facet normal 0 0 -1
    outer loop
      vertex 4 8.58205 -14
      vertex 6.66708 1.74041 -14
      vertex 5.975 1.51554 -14
    endloop
  endfacet
  facet normal 0 0 -1
    outer loop
      vertex 4 8.58205 -14
      vertex 7.39078 1.66435 -14
      vertex 6.66708 1.74041 -14
    endloop
  endfacet
  facet normal 1 0 0
    outer loop
      vertex 40 -11.818 -13.818
      vertex 40 -8.63604 -17
      vertex 40 -8.15 -11
    endloop
  endfacet
  facet normal 1 -0 0
    outer loop
      vertex 40 -13 -11
      vertex 40 -11.818 -13.818
      vertex 40 -8.15 -11
    endloop
  endfacet
  facet normal 1 -0 0
    outer loop
      vertex 40 -14.75 -47
      vertex 40 -8.63604 -47.25
      vertex 40 -8.88604 -47
    endloop
  endfacet
  facet normal 1 0 0
    outer loop
      vertex 40 -15 -17
      vertex 40 -11.818 -13.818
      vertex 40 -13 -11
    endloop
  endfacet
  facet normal 1 0 0
    outer loop
      vertex 40 -15 -17
      vertex 40 -13 -11
      vertex 40 -15 11
    endloop
  endfacet
  facet normal 1 0 0
    outer loop
      vertex 40 -15 -47.25
      vertex 40 -8.63604 -47.25
      vertex 40 -14.75 -47
    endloop
  endfacet
  facet normal 1 0 0
    outer loop
      vertex 40 -15 11
      vertex 40 -13 -11
      vertex 40 -13 11
    endloop
  endfacet
  facet normal 1 0 0
    outer loop
      vertex 40 -30 -41
      vertex 40 -14.75 -47
      vertex 40 -8.88604 -47
    endloop
  endfacet
  facet normal 1 -0 0
    outer loop
      vertex 40 -30 -41
      vertex 40 -8.88604 -47
      vertex 40 30 -41
    endloop
  endfacet
  facet normal 1 0 0
    outer loop
      vertex 40 -30 -47
      vertex 40 -14.75 -47
      vertex 40 -30 -41
    endloop
  endfacet
  facet normal 1 0 0
    outer loop
      vertex 40 -8.63604 -17
      vertex 40 -8.15 -17
      vertex 40 -8.15 -11
    endloop
  endfacet
  facet normal 1 0 0
    outer loop
      vertex 40 -8.88604 -47
      vertex 40 10.886 -47
      vertex 40 30 -41
    endloop
  endfacet
  facet normal 1 0 0
    outer loop
      vertex 40 10.3141 -17
      vertex 40 10.636 -17
      vertex 40 13.818 -13.818
    endloop
  endfacet
  facet normal 1 0 0
    outer loop
      vertex 40 10.3141 -17
      vertex 40 13.818 -13.818
      vertex 40 13 -11
    endloop
  endfacet
  facet normal 1 0 0
    outer loop
      vertex 40 10.636 -47.25
      vertex 40 17 -47.25
      vertex 40 10.886 -47
    endloop
  endfacet
  facet normal 1 0 0
    outer loop
      vertex 40 10.886 -47
      vertex 40 16.75 -47
      vertex 40 30 -41
    endloop
  endfacet
  facet normal 1 -0 0
    outer loop
      vertex 40 10.886 -47
      vertex 40 17 -47.25
      vertex 40 16.75 -47
    endloop
  endfacet
  facet normal 1 0 0
    outer loop
      vertex 40 13 -11
      vertex 40 13.818 -13.818
      vertex 40 15 -11
    endloop
  endfacet
  facet normal 1 0 0
    outer loop
      vertex 40 13 -11
      vertex 40 15 -11
      vertex 40 15 11
    endloop
  endfacet
  facet normal 1 0 0
    outer loop
      vertex 40 13 -11
      vertex 40 15 11
      vertex 40 13 11
    endloop
  endfacet
  facet normal 1 0 0
    outer loop
      vertex 40 13.818 -13.818
      vertex 40 17 -11
      vertex 40 15 -11
    endloop
  endfacet
  facet normal 1 0 0
    outer loop
      vertex 40 13.818 -13.818
      vertex 40 17 -17
      vertex 40 17 -11
    endloop
  endfacet
  facet normal 1 0 0
    outer loop
      vertex 40 16.75 -47
      vertex 40 30 -47
      vertex 40 30 -41
    endloop
  endfacet
  facet normal 1 0 -0
    outer loop
      vertex 40 6.85 -11
      vertex 40 10.3141 -17
      vertex 40 13 -11
    endloop
  endfacet
  facet normal 0 0 -1
    outer loop
      vertex 5.13824 -0.363845 -11.5
      vertex 5.13824 0.363845 -11.5
      vertex 6.11639 0.155933 -11.5
    endloop
  endfacet
  facet normal 1 -0 0
    outer loop
      vertex 5.13824 -0.363845 -11.5
      vertex 5.13824 0.363845 -14
      vertex 5.13824 0.363845 -11.5
    endloop
  endfacet
  facet normal 0 0 -1
    outer loop
      vertex 5.13824 -0.363845 -11.5
      vertex 6.11639 -0.155933 -11.5
      vertex 5.43422 -1.02862 -11.5
    endloop
  endfacet
  facet normal -0 0 -1
    outer loop
      vertex 5.13824 -0.363845 -11.5
      vertex 6.11639 0.155933 -11.5
      vertex 6.11639 -0.155933 -11.5
    endloop
  endfacet
  facet normal 0.913544 0.40674 0
    outer loop
      vertex 5.13824 -0.363845 -14
      vertex 5.13824 -0.363845 -11.5
      vertex 5.43422 -1.02862 -11.5
    endloop
  endfacet
  facet normal 1 0 0
    outer loop
      vertex 5.13824 -0.363845 -14
      vertex 5.13824 0.363845 -14
      vertex 5.13824 -0.363845 -11.5
    endloop
  endfacet
  facet normal 0.913544 0.40674 0
    outer loop
      vertex 5.13824 -0.363845 -14
      vertex 5.43422 -1.02862 -11.5
      vertex 5.43422 -1.02862 -14
    endloop
  endfacet
  facet normal 0 0 -1
    outer loop
      vertex 5.13824 0.363845 -11.5
      vertex 5.43422 1.02862 -11.5
      vertex 6.11639 0.155933 -11.5
    endloop
  endfacet
  facet normal 0.913544 -0.40674 0
    outer loop
      vertex 5.13824 0.363845 -11.5
      vertex 5.43422 1.02862 -14
      vertex 5.43422 1.02862 -11.5
    endloop
  endfacet
  facet normal 0.913544 -0.40674 0
    outer loop
      vertex 5.13824 0.363845 -14
      vertex 5.43422 1.02862 -14
      vertex 5.13824 0.363845 -11.5
    endloop
  endfacet
  facet normal 0.66913 0.743145 -0
    outer loop
      vertex 5.43422 -1.02862 -11.5
      vertex 5.975 -1.51554 -11.5
      vertex 5.975 -1.51554 -14
    endloop
  endfacet
  facet normal -0 0 -1
    outer loop
      vertex 5.43422 -1.02862 -11.5
      vertex 6.11639 -0.155933 -11.5
      vertex 6.24324 -0.440839 -11.5
    endloop
  endfacet
  facet normal 0 0 -1
    outer loop
      vertex 5.43422 -1.02862 -11.5
      vertex 6.24324 -0.440839 -11.5
      vertex 5.975 -1.51554 -11.5
    endloop
  endfacet
  facet normal 0.66913 0.743145 0
    outer loop
      vertex 5.43422 -1.02862 -14
      vertex 5.43422 -1.02862 -11.5
      vertex 5.975 -1.51554 -14
    endloop
  endfacet
  facet normal 0 0 -1
    outer loop
      vertex 5.43422 1.02862 -11.5
      vertex 5.975 1.51554 -11.5
      vertex 6.24324 0.440839 -11.5
    endloop
  endfacet
  facet normal 0 0 -1
    outer loop
      vertex 5.43422 1.02862 -11.5
      vertex 6.24324 0.440839 -11.5
      vertex 6.11639 0.155933 -11.5
    endloop
  endfacet
  facet normal 0.66913 -0.743145 0
    outer loop
      vertex 5.43422 1.02862 -14
      vertex 5.975 1.51554 -11.5
      vertex 5.43422 1.02862 -11.5
    endloop
  endfacet
  facet normal 0.66913 -0.743145 0
    outer loop
      vertex 5.43422 1.02862 -14
      vertex 5.975 1.51554 -14
      vertex 5.975 1.51554 -11.5
    endloop
  endfacet
  facet normal -0 0 -1
    outer loop
      vertex 5.975 -1.51554 -11.5
      vertex 6.24324 -0.440839 -11.5
      vertex 6.475 -0.649519 -11.5
    endloop
  endfacet
  facet normal 0 0 -1
    outer loop
      vertex 5.975 -1.51554 -11.5
      vertex 6.475 -0.649519 -11.5
      vertex 6.66708 -1.74041 -11.5
    endloop
  endfacet
  facet normal 0.309016 0.951057 -0
    outer loop
      vertex 5.975 -1.51554 -11.5
      vertex 6.66708 -1.74041 -11.5
      vertex 6.66708 -1.74041 -14
    endloop
  endfacet
  facet normal 0.309016 0.951057 0
    outer loop
      vertex 5.975 -1.51554 -14
      vertex 5.975 -1.51554 -11.5
      vertex 6.66708 -1.74041 -14
    endloop
  endfacet
  facet normal 0 0 -1
    outer loop
      vertex 5.975 1.51554 -11.5
      vertex 6.475 0.649519 -11.5
      vertex 6.24324 0.440839 -11.5
    endloop
  endfacet
  facet normal 0 0 -1
    outer loop
      vertex 5.975 1.51554 -11.5
      vertex 6.66708 1.74041 -11.5
      vertex 6.475 0.649519 -11.5
    endloop
  endfacet
  facet normal 0.309016 -0.951057 0
    outer loop
      vertex 5.975 1.51554 -14
      vertex 6.66708 1.74041 -11.5
      vertex 5.975 1.51554 -11.5
    endloop
  endfacet
  facet normal 0.309016 -0.951057 0
    outer loop
      vertex 5.975 1.51554 -14
      vertex 6.66708 1.74041 -14
      vertex 6.66708 1.74041 -11.5
    endloop
  endfacet
  facet normal 0.992609 0 0.121356
    outer loop
      vertex 6.05526 -0.168928 -11
      vertex 6.11639 -0.155933 -11.5
      vertex 6.05526 0.168928 -11
    endloop
  endfacet
  facet normal 0.906803 0.403709 0.121358
    outer loop
      vertex 6.05526 -0.168928 -11
      vertex 6.15039 -0.382607 -11
      vertex 6.11639 -0.155933 -11.5
    endloop
  endfacet
  facet normal 0.992609 0 0.121356
    outer loop
      vertex 6.05526 0.168928 -11
      vertex 6.11639 -0.155933 -11.5
      vertex 6.11639 0.155933 -11.5
    endloop
  endfacet
  facet normal 0.906803 -0.403709 0.121358
    outer loop
      vertex 6.05526 0.168928 -11
      vertex 6.11639 0.155933 -11.5
      vertex 6.15039 0.382607 -11
    endloop
  endfacet
  facet normal 0.90679 0.403734 0.12137
    outer loop
      vertex 6.11639 -0.155933 -11.5
      vertex 6.15039 -0.382607 -11
      vertex 6.24324 -0.440839 -11.5
    endloop
  endfacet
  facet normal 0.90679 -0.403734 0.12137
    outer loop
      vertex 6.11639 0.155933 -11.5
      vertex 6.24324 0.440839 -11.5
      vertex 6.15039 0.382607 -11
    endloop
  endfacet
  facet normal 0.9068 0.40371 0.121375
    outer loop
      vertex 6.15039 -0.382607 -11
      vertex 6.19267 -0.477575 -11
      vertex 6.24324 -0.440839 -11.5
    endloop
  endfacet
  facet normal 0.9068 -0.40371 0.121375
    outer loop
      vertex 6.15039 0.382607 -11
      vertex 6.24324 0.440839 -11.5
      vertex 6.19267 0.477575 -11
    endloop
  endfacet
  facet normal 0.664167 0.737666 0.121372
    outer loop
      vertex 6.19267 -0.477575 -11
      vertex 6.3665 -0.634085 -11
      vertex 6.24324 -0.440839 -11.5
    endloop
  endfacet
  facet normal 0.664167 -0.737666 0.121372
    outer loop
      vertex 6.19267 0.477575 -11
      vertex 6.24324 0.440839 -11.5
      vertex 6.3665 0.634085 -11
    endloop
  endfacet
  facet normal 0.664189 0.737648 0.121359
    outer loop
      vertex 6.24324 -0.440839 -11.5
      vertex 6.3665 -0.634085 -11
      vertex 6.475 -0.649519 -11.5
    endloop
  endfacet
  facet normal 0.664189 -0.737648 0.121359
    outer loop
      vertex 6.24324 0.440839 -11.5
      vertex 6.475 0.649519 -11.5
      vertex 6.3665 0.634085 -11
    endloop
  endfacet
  facet normal 0.664204 0.737634 0.121363
    outer loop
      vertex 6.3665 -0.634085 -11
      vertex 6.44375 -0.703645 -11
      vertex 6.475 -0.649519 -11.5
    endloop
  endfacet
  facet normal 0.664204 -0.737634 0.121363
    outer loop
      vertex 6.3665 0.634085 -11
      vertex 6.475 0.649519 -11.5
      vertex 6.44375 0.703645 -11
    endloop
  endfacet
  facet normal 0.306734 0.944026 0.121364
    outer loop
      vertex 6.44375 -0.703645 -11
      vertex 6.54262 -0.73577 -11
      vertex 6.475 -0.649519 -11.5
    endloop
  endfacet
  facet normal 0.306734 -0.944026 0.121364
    outer loop
      vertex 6.44375 0.703645 -11
      vertex 6.475 0.649519 -11.5
      vertex 6.54262 0.73577 -11
    endloop
  endfacet
  facet normal 0.306735 0.944026 0.121363
    outer loop
      vertex 6.475 -0.649519 -11.5
      vertex 6.54262 -0.73577 -11
      vertex 6.7716 -0.745891 -11.5
    endloop
  endfacet
  facet normal 0 0 -1
    outer loop
      vertex 6.475 -0.649519 -11.5
      vertex 6.7716 -0.745891 -11.5
      vertex 6.66708 -1.74041 -11.5
    endloop
  endfacet
  facet normal 0 0 -1
    outer loop
      vertex 6.475 0.649519 -11.5
      vertex 6.66708 1.74041 -11.5
      vertex 6.7716 0.745891 -11.5
    endloop
  endfacet
  facet normal 0.306735 -0.944026 0.121363
    outer loop
      vertex 6.475 0.649519 -11.5
      vertex 6.7716 0.745891 -11.5
      vertex 6.54262 0.73577 -11
    endloop
  endfacet
  facet normal 0.306731 0.944027 0.121362
    outer loop
      vertex 6.54262 -0.73577 -11
      vertex 6.76507 -0.808048 -11
      vertex 6.7716 -0.745891 -11.5
    endloop
  endfacet
  facet normal 0.306731 -0.944027 0.121362
    outer loop
      vertex 6.54262 0.73577 -11
      vertex 6.7716 0.745891 -11.5
      vertex 6.76507 0.808048 -11
    endloop
  endfacet
  facet normal 0 0 -1
    outer loop
      vertex 6.66708 -1.74041 -11.5
      vertex 6.7716 -0.745891 -11.5
      vertex 7.39078 -1.66435 -11.5
    endloop
  endfacet
  facet normal -0.104523 0.994522 0
    outer loop
      vertex 6.66708 -1.74041 -11.5
      vertex 7.39078 -1.66435 -11.5
      vertex 7.39078 -1.66435 -14
    endloop
  endfacet
  facet normal -0.104523 0.994522 0
    outer loop
      vertex 6.66708 -1.74041 -14
      vertex 6.66708 -1.74041 -11.5
      vertex 7.39078 -1.66435 -14
    endloop
  endfacet
  facet normal 0 0 -1
    outer loop
      vertex 6.66708 1.74041 -11.5
      vertex 7.39078 1.66435 -11.5
      vertex 6.7716 0.745891 -11.5
    endloop
  endfacet
  facet normal -0.104523 -0.994522 0
    outer loop
      vertex 6.66708 1.74041 -14
      vertex 7.39078 1.66435 -11.5
      vertex 6.66708 1.74041 -11.5
    endloop
  endfacet
  facet normal -0.104523 -0.994522 -0
    outer loop
      vertex 6.66708 1.74041 -14
      vertex 7.39078 1.66435 -14
      vertex 7.39078 1.66435 -11.5
    endloop
  endfacet
  facet normal -0.103749 0.987171 0.121364
    outer loop
      vertex 6.76507 -0.808048 -11
      vertex 6.86846 -0.797182 -11
      vertex 6.7716 -0.745891 -11.5
    endloop
  endfacet
  facet normal -0.103749 -0.987171 0.121364
    outer loop
      vertex 6.76507 0.808048 -11
      vertex 6.7716 0.745891 -11.5
      vertex 6.86846 0.797182 -11
    endloop
  endfacet
  facet normal -0.103755 0.98717 0.121365
    outer loop
      vertex 6.7716 -0.745891 -11.5
      vertex 6.86846 -0.797182 -11
      vertex 7.08176 -0.713292 -11.5
    endloop
  endfacet
  facet normal 0 0 -1
    outer loop
      vertex 6.7716 -0.745891 -11.5
      vertex 7.08176 -0.713292 -11.5
      vertex 7.39078 -1.66435 -11.5
    endloop
  endfacet
  facet normal -0.103755 -0.98717 0.121365
    outer loop
      vertex 6.7716 0.745891 -11.5
      vertex 7.08176 0.713292 -11.5
      vertex 6.86846 0.797182 -11
    endloop
  endfacet
  facet normal 0 0 -1
    outer loop
      vertex 6.7716 0.745891 -11.5
      vertex 7.39078 1.66435 -11.5
      vertex 7.08176 0.713292 -11.5
    endloop
  endfacet
  facet normal -0.103754 0.98717 0.121366
    outer loop
      vertex 6.86846 -0.797182 -11
      vertex 7.10108 -0.772733 -11
      vertex 7.08176 -0.713292 -11.5
    endloop
  endfacet
  facet normal -0.103754 -0.98717 0.121366
    outer loop
      vertex 6.86846 0.797182 -11
      vertex 7.08176 0.713292 -11.5
      vertex 7.10108 0.772733 -11
    endloop
  endfacet
  facet normal -0.496339 0.859603 0.12137
    outer loop
      vertex 7.08176 -0.713292 -11.5
      vertex 7.10108 -0.772733 -11
      vertex 7.1911 -0.720755 -11
    endloop
  endfacet
  facet normal -0.496298 0.859628 0.121361
    outer loop
      vertex 7.08176 -0.713292 -11.5
      vertex 7.1911 -0.720755 -11
      vertex 7.35185 -0.557358 -11.5
    endloop
  endfacet
  facet normal 0 0 -1
    outer loop
      vertex 7.08176 -0.713292 -11.5
      vertex 7.35185 -0.557358 -11.5
      vertex 7.39078 -1.66435 -11.5
    endloop
  endfacet
  facet normal -0.496339 -0.859603 0.12137
    outer loop
      vertex 7.08176 0.713292 -11.5
      vertex 7.1911 0.720755 -11
      vertex 7.10108 0.772733 -11
    endloop
  endfacet
  facet normal -0.496298 -0.859628 0.121361
    outer loop
      vertex 7.08176 0.713292 -11.5
      vertex 7.35185 0.557358 -11.5
      vertex 7.1911 0.720755 -11
    endloop
  endfacet
  facet normal 0 0 -1
    outer loop
      vertex 7.08176 0.713292 -11.5
      vertex 7.39078 1.66435 -11.5
      vertex 7.35185 0.557358 -11.5
    endloop
  endfacet
  facet normal 0 0 1
    outer loop
      vertex 7.10108 -0.772733 -11
      vertex 10.7437 -0.703645 -11
      vertex 7.1911 -0.720755 -11
    endloop
  endfacet
  facet normal 0 0 1
    outer loop
      vertex 7.10108 -0.772733 -11
      vertex 10.8426 -0.73577 -11
      vertex 10.7437 -0.703645 -11
    endloop
  endfacet
  facet normal -0 0 1
    outer loop
      vertex 7.10108 -0.772733 -11
      vertex 11.0651 -0.808048 -11
      vertex 10.8426 -0.73577 -11
    endloop
  endfacet
  facet normal 0 0 1
    outer loop
      vertex 7.10108 0.772733 -11
      vertex 10.7437 0.703645 -11
      vertex 10.8426 0.73577 -11
    endloop
  endfacet
  facet normal 0 0 1
    outer loop
      vertex 7.10108 0.772733 -11
      vertex 10.8426 0.73577 -11
      vertex 11.0651 0.808048 -11
    endloop
  endfacet
  facet normal 0 0 1
    outer loop
      vertex 7.10108 0.772733 -11
      vertex 7.1911 0.720755 -11
      vertex 10.7437 0.703645 -11
    endloop
  endfacet
  facet normal 0 0 1
    outer loop
      vertex 7.1911 -0.720755 -11
      vertex 10.7437 -0.703645 -11
      vertex 7.39367 -0.603804 -11
    endloop
  endfacet
  facet normal -0.496295 0.859629 0.121363
    outer loop
      vertex 7.1911 -0.720755 -11
      vertex 7.39367 -0.603804 -11
      vertex 7.35185 -0.557358 -11.5
    endloop
  endfacet
  facet normal -0.496295 -0.859629 0.121363
    outer loop
      vertex 7.1911 0.720755 -11
      vertex 7.35185 0.557358 -11.5
      vertex 7.39367 0.603804 -11
    endloop
  endfacet
  facet normal 0 0 1
    outer loop
      vertex 7.1911 0.720755 -11
      vertex 7.39367 0.603804 -11
      vertex 10.7437 0.703645 -11
    endloop
  endfacet
  facet normal -0.803043 0.583432 0.121363
    outer loop
      vertex 7.35185 -0.557358 -11.5
      vertex 7.39367 -0.603804 -11
      vertex 7.53115 -0.414575 -11
    endloop
  endfacet
  facet normal -0.803039 0.583439 0.12136
    outer loop
      vertex 7.35185 -0.557358 -11.5
      vertex 7.53115 -0.414575 -11
      vertex 7.53516 -0.305052 -11.5
    endloop
  endfacet
  facet normal 0 0 -1
    outer loop
      vertex 7.35185 -0.557358 -11.5
      vertex 7.53516 -0.305052 -11.5
      vertex 8.02098 -1.3005 -11.5
    endloop
  endfacet
  facet normal 0 0 -1
    outer loop
      vertex 7.35185 -0.557358 -11.5
      vertex 8.02098 -1.3005 -11.5
      vertex 7.39078 -1.66435 -11.5
    endloop
  endfacet
  facet normal -0 0 -1
    outer loop
      vertex 7.35185 0.557358 -11.5
      vertex 7.39078 1.66435 -11.5
      vertex 8.02098 1.3005 -11.5
    endloop
  endfacet
  facet normal -0.803043 -0.583432 0.121363
    outer loop
      vertex 7.35185 0.557358 -11.5
      vertex 7.53115 0.414575 -11
      vertex 7.39367 0.603804 -11
    endloop
  endfacet
  facet normal -0.803039 -0.583439 0.12136
    outer loop
      vertex 7.35185 0.557358 -11.5
      vertex 7.53516 0.305052 -11.5
      vertex 7.53115 0.414575 -11
    endloop
  endfacet
  facet normal 0 0 -1
    outer loop
      vertex 7.35185 0.557358 -11.5
      vertex 8.02098 1.3005 -11.5
      vertex 7.53516 0.305052 -11.5
    endloop
  endfacet
  facet normal -0.500004 0.866023 0
    outer loop
      vertex 7.39078 -1.66435 -11.5
      vertex 8.02098 -1.3005 -11.5
      vertex 8.02098 -1.3005 -14
    endloop
  endfacet
  facet normal 0 0 -1
    outer loop
      vertex 7.39078 -1.66435 -14
      vertex 10.275 -1.51554 -14
      vertex 10.9671 -1.74041 -14
    endloop
  endfacet
  facet normal -0.500004 0.866023 0
    outer loop
      vertex 7.39078 -1.66435 -14
      vertex 7.39078 -1.66435 -11.5
      vertex 8.02098 -1.3005 -14
    endloop
  endfacet
  facet normal 0 -0 -1
    outer loop
      vertex 7.39078 -1.66435 -14
      vertex 8.02098 -1.3005 -14
      vertex 10.275 -1.51554 -14
    endloop
  endfacet
  facet normal -0 0 -1
    outer loop
      vertex 7.39078 1.66435 -14
      vertex 10.275 1.51554 -14
      vertex 8.02098 1.3005 -14
    endloop
  endfacet
  facet normal 0 0 -1
    outer loop
      vertex 7.39078 1.66435 -14
      vertex 10.9671 1.74041 -14
      vertex 10.275 1.51554 -14
    endloop
  endfacet
  facet normal -0.500004 -0.866023 0
    outer loop
      vertex 7.39078 1.66435 -14
      vertex 8.02098 1.3005 -11.5
      vertex 7.39078 1.66435 -11.5
    endloop
  endfacet
  facet normal -0.500004 -0.866023 -0
    outer loop
      vertex 7.39078 1.66435 -14
      vertex 8.02098 1.3005 -14
      vertex 8.02098 1.3005 -11.5
    endloop
  endfacet
  facet normal 0 0 1
    outer loop
      vertex 7.39367 -0.603804 -11
      vertex 10.4927 -0.477575 -11
      vertex 7.53115 -0.414575 -11
    endloop
  endfacet
  facet normal -0 0 1
    outer loop
      vertex 7.39367 -0.603804 -11
      vertex 10.6665 -0.634085 -11
      vertex 10.4927 -0.477575 -11
    endloop
  endfacet
  facet normal 0 0 1
    outer loop
      vertex 7.39367 -0.603804 -11
      vertex 10.7437 -0.703645 -11
      vertex 10.6665 -0.634085 -11
    endloop
  endfacet
  facet normal 0 0 1
    outer loop
      vertex 7.39367 0.603804 -11
      vertex 10.4927 0.477575 -11
      vertex 10.6665 0.634085 -11
    endloop
  endfacet
  facet normal 0 0 1
    outer loop
      vertex 7.39367 0.603804 -11
      vertex 10.6665 0.634085 -11
      vertex 10.7437 0.703645 -11
    endloop
  endfacet
  facet normal 0 0 1
    outer loop
      vertex 7.39367 0.603804 -11
      vertex 7.53115 0.414575 -11
      vertex 10.4927 0.477575 -11
    endloop
  endfacet
  facet normal -0 0 1
    outer loop
      vertex 7.53115 -0.414575 -11
      vertex 10.4927 -0.477575 -11
      vertex 7.59226 -0.330473 -11
    endloop
  endfacet
  facet normal -0.803008 0.58348 0.121369
    outer loop
      vertex 7.53115 -0.414575 -11
      vertex 7.59226 -0.330473 -11
      vertex 7.53516 -0.305052 -11.5
    endloop
  endfacet
  facet normal -0.803008 -0.58348 0.121369
    outer loop
      vertex 7.53115 0.414575 -11
      vertex 7.53516 0.305052 -11.5
      vertex 7.59226 0.330473 -11
    endloop
  endfacet
  facet normal 0 0 1
    outer loop
      vertex 7.53115 0.414575 -11
      vertex 7.59226 0.330473 -11
      vertex 10.4927 0.477575 -11
    endloop
  endfacet
  facet normal -0.970923 0.206342 0.12137
    outer loop
      vertex 7.53516 -0.305052 -11.5
      vertex 7.59226 -0.330473 -11
      vertex 7.61387 -0.228789 -11
    endloop
  endfacet
  facet normal 0 0 -1
    outer loop
      vertex 7.53516 -0.305052 -11.5
      vertex 7.6 0 -11.5
      vertex 8.4487 -0.711788 -11.5
    endloop
  endfacet
  facet normal -0.970918 0.206372 0.121365
    outer loop
      vertex 7.53516 -0.305052 -11.5
      vertex 7.61387 -0.228789 -11
      vertex 7.6 0 -11.5
    endloop
  endfacet
  facet normal 0 0 -1
    outer loop
      vertex 7.53516 -0.305052 -11.5
      vertex 8.4487 -0.711788 -11.5
      vertex 8.02098 -1.3005 -11.5
    endloop
  endfacet
  facet normal -0.970918 -0.206372 0.121365
    outer loop
      vertex 7.53516 0.305052 -11.5
      vertex 7.6 0 -11.5
      vertex 7.61387 0.228789 -11
    endloop
  endfacet
  facet normal -0.970923 -0.206342 0.12137
    outer loop
      vertex 7.53516 0.305052 -11.5
      vertex 7.61387 0.228789 -11
      vertex 7.59226 0.330473 -11
    endloop
  endfacet
  facet normal -0 0 -1
    outer loop
      vertex 7.53516 0.305052 -11.5
      vertex 8.02098 1.3005 -11.5
      vertex 8.4487 0.711788 -11.5
    endloop
  endfacet
  facet normal 0 0 -1
    outer loop
      vertex 7.53516 0.305052 -11.5
      vertex 8.4487 0.711788 -11.5
      vertex 7.6 0 -11.5
    endloop
  endfacet
  facet normal 0 0 1
    outer loop
      vertex 7.59226 -0.330473 -11
      vertex 10.3553 -0.168928 -11
      vertex 7.61387 -0.228789 -11
    endloop
  endfacet
  facet normal 0 0 1
    outer loop
      vertex 7.59226 -0.330473 -11
      vertex 10.4504 -0.382607 -11
      vertex 10.3553 -0.168928 -11
    endloop
  endfacet
  facet normal 0 0 1
    outer loop
      vertex 7.59226 -0.330473 -11
      vertex 10.4927 -0.477575 -11
      vertex 10.4504 -0.382607 -11
    endloop
  endfacet
  facet normal -0 0 1
    outer loop
      vertex 7.59226 0.330473 -11
      vertex 10.3553 0.168928 -11
      vertex 10.4504 0.382607 -11
    endloop
  endfacet
  facet normal 0 0 1
    outer loop
      vertex 7.59226 0.330473 -11
      vertex 10.4504 0.382607 -11
      vertex 10.4927 0.477575 -11
    endloop
  endfacet
  facet normal 0 0 1
    outer loop
      vertex 7.59226 0.330473 -11
      vertex 7.61387 0.228789 -11
      vertex 10.3553 0.168928 -11
    endloop
  endfacet
  facet normal -0.970918 0.206372 0.121365
    outer loop
      vertex 7.6 0 -11.5
      vertex 7.61387 -0.228789 -11
      vertex 7.6625 0 -11
    endloop
  endfacet
  facet normal -0.970918 -0.206372 0.121365
    outer loop
      vertex 7.6 0 -11.5
      vertex 7.6625 0 -11
      vertex 7.61387 0.228789 -11
    endloop
  endfacet
  facet normal 0 0 -1
    outer loop
      vertex 7.6 0 -11.5
      vertex 8.4487 0.711788 -11.5
      vertex 8.6 0 -11.5
    endloop
  endfacet
  facet normal 0 0 -1
    outer loop
      vertex 7.6 0 -11.5
      vertex 8.6 0 -11.5
      vertex 8.4487 -0.711788 -11.5
    endloop
  endfacet
  facet normal 0 0 1
    outer loop
      vertex 7.61387 -0.228789 -11
      vertex 10.3553 -0.168928 -11
      vertex 7.6625 0 -11
    endloop
  endfacet
  facet normal 0 0 1
    outer loop
      vertex 7.61387 0.228789 -11
      vertex 7.6625 0 -11
      vertex 10.3553 0.168928 -11
    endloop
  endfacet
  facet normal 0 0 1
    outer loop
      vertex 7.6625 0 -11
      vertex 10.3553 -0.168928 -11
      vertex 10.3553 0.168928 -11
    endloop
  endfacet
  facet normal -0.80902 0.587781 0
    outer loop
      vertex 8.02098 -1.3005 -14
      vertex 8.02098 -1.3005 -11.5
      vertex 8.4487 -0.711788 -11.5
    endloop
  endfacet
  facet normal -0.80902 0.587781 0
    outer loop
      vertex 8.02098 -1.3005 -14
      vertex 8.4487 -0.711788 -11.5
      vertex 8.4487 -0.711788 -14
    endloop
  endfacet
  facet normal -0 0 -1
    outer loop
      vertex 8.02098 -1.3005 -14
      vertex 8.4487 -0.711788 -14
      vertex 9.73422 -1.02862 -14
    endloop
  endfacet
  facet normal 0 0 -1
    outer loop
      vertex 8.02098 -1.3005 -14
      vertex 9.73422 -1.02862 -14
      vertex 10.275 -1.51554 -14
    endloop
  endfacet
  facet normal -0.80902 -0.587781 0
    outer loop
      vertex 8.02098 1.3005 -11.5
      vertex 8.4487 0.711788 -14
      vertex 8.4487 0.711788 -11.5
    endloop
  endfacet
  facet normal 0 0 -1
    outer loop
      vertex 8.02098 1.3005 -14
      vertex 10.275 1.51554 -14
      vertex 9.73422 1.02862 -14
    endloop
  endfacet
  facet normal -0.80902 -0.587781 0
    outer loop
      vertex 8.02098 1.3005 -14
      vertex 8.4487 0.711788 -14
      vertex 8.02098 1.3005 -11.5
    endloop
  endfacet
  facet normal 0 0 -1
    outer loop
      vertex 8.02098 1.3005 -14
      vertex 9.73422 1.02862 -14
      vertex 8.4487 0.711788 -14
    endloop
  endfacet
  facet normal -0.978146 0.207918 0
    outer loop
      vertex 8.4487 -0.711788 -14
      vertex 8.4487 -0.711788 -11.5
      vertex 8.6 0 -11.5
    endloop
  endfacet
  facet normal -0.978146 0.207918 0
    outer loop
      vertex 8.4487 -0.711788 -14
      vertex 8.6 0 -11.5
      vertex 8.6 0 -14
    endloop
  endfacet
  facet normal -0 0 -1
    outer loop
      vertex 8.4487 -0.711788 -14
      vertex 8.6 0 -14
      vertex 9.43824 -0.363845 -14
    endloop
  endfacet
  facet normal 0 0 -1
    outer loop
      vertex 8.4487 -0.711788 -14
      vertex 9.43824 -0.363845 -14
      vertex 9.73422 -1.02862 -14
    endloop
  endfacet
  facet normal -0.978146 -0.207918 0
    outer loop
      vertex 8.4487 0.711788 -11.5
      vertex 8.6 0 -14
      vertex 8.6 0 -11.5
    endloop
  endfacet
  facet normal -0.978146 -0.207918 0
    outer loop
      vertex 8.4487 0.711788 -14
      vertex 8.6 0 -14
      vertex 8.4487 0.711788 -11.5
    endloop
  endfacet
  facet normal 0 0 -1
    outer loop
      vertex 8.4487 0.711788 -14
      vertex 9.43824 0.363845 -14
      vertex 8.6 0 -14
    endloop
  endfacet
  facet normal 0 0 -1
    outer loop
      vertex 8.4487 0.711788 -14
      vertex 9.73422 1.02862 -14
      vertex 9.43824 0.363845 -14
    endloop
  endfacet
  facet normal 0 0 -1
    outer loop
      vertex 8.6 0 -14
      vertex 9.43824 0.363845 -14
      vertex 9.43824 -0.363845 -14
    endloop
  endfacet
  facet normal 0 0 -1
    outer loop
      vertex 9.43824 -0.363845 -11.5
      vertex 10.4164 -0.155933 -11.5
      vertex 9.73422 -1.02862 -11.5
    endloop
  endfacet
  facet normal -0 0 -1
    outer loop
      vertex 9.43824 -0.363845 -11.5
      vertex 10.4164 0.155933 -11.5
      vertex 10.4164 -0.155933 -11.5
    endloop
  endfacet
  facet normal 0 0 -1
    outer loop
      vertex 9.43824 -0.363845 -11.5
      vertex 9.43824 0.363845 -11.5
      vertex 10.4164 0.155933 -11.5
    endloop
  endfacet
  facet normal 1 -0 0
    outer loop
      vertex 9.43824 -0.363845 -11.5
      vertex 9.43824 0.363845 -14
      vertex 9.43824 0.363845 -11.5
    endloop
  endfacet
  facet normal 0.913544 0.40674 0
    outer loop
      vertex 9.43824 -0.363845 -14
      vertex 9.43824 -0.363845 -11.5
      vertex 9.73422 -1.02862 -11.5
    endloop
  endfacet
  facet normal 1 0 0
    outer loop
      vertex 9.43824 -0.363845 -14
      vertex 9.43824 0.363845 -14
      vertex 9.43824 -0.363845 -11.5
    endloop
  endfacet
  facet normal 0.913544 0.40674 0
    outer loop
      vertex 9.43824 -0.363845 -14
      vertex 9.73422 -1.02862 -11.5
      vertex 9.73422 -1.02862 -14
    endloop
  endfacet
  facet normal 0 0 -1
    outer loop
      vertex 9.43824 0.363845 -11.5
      vertex 9.73422 1.02862 -11.5
      vertex 10.4164 0.155933 -11.5
    endloop
  endfacet
  facet normal 0.913544 -0.40674 0
    outer loop
      vertex 9.43824 0.363845 -11.5
      vertex 9.73422 1.02862 -14
      vertex 9.73422 1.02862 -11.5
    endloop
  endfacet
  facet normal 0.913544 -0.40674 0
    outer loop
      vertex 9.43824 0.363845 -14
      vertex 9.73422 1.02862 -14
      vertex 9.43824 0.363845 -11.5
    endloop
  endfacet
  facet normal 0.66913 0.743145 -0
    outer loop
      vertex 9.73422 -1.02862 -11.5
      vertex 10.275 -1.51554 -11.5
      vertex 10.275 -1.51554 -14
    endloop
  endfacet
  facet normal -0 0 -1
    outer loop
      vertex 9.73422 -1.02862 -11.5
      vertex 10.4164 -0.155933 -11.5
      vertex 10.5432 -0.440839 -11.5
    endloop
  endfacet
  facet normal 0 0 -1
    outer loop
      vertex 9.73422 -1.02862 -11.5
      vertex 10.5432 -0.440839 -11.5
      vertex 10.275 -1.51554 -11.5
    endloop
  endfacet
  facet normal 0.66913 0.743145 0
    outer loop
      vertex 9.73422 -1.02862 -14
      vertex 9.73422 -1.02862 -11.5
      vertex 10.275 -1.51554 -14
    endloop
  endfacet
  facet normal 0 0 -1
    outer loop
      vertex 9.73422 1.02862 -11.5
      vertex 10.275 1.51554 -11.5
      vertex 10.5432 0.440839 -11.5
    endloop
  endfacet
  facet normal 0 0 -1
    outer loop
      vertex 9.73422 1.02862 -11.5
      vertex 10.5432 0.440839 -11.5
      vertex 10.4164 0.155933 -11.5
    endloop
  endfacet
  facet normal 0.66913 -0.743145 0
    outer loop
      vertex 9.73422 1.02862 -14
      vertex 10.275 1.51554 -11.5
      vertex 9.73422 1.02862 -11.5
    endloop
  endfacet
  facet normal 0.66913 -0.743145 0
    outer loop
      vertex 9.73422 1.02862 -14
      vertex 10.275 1.51554 -14
      vertex 10.275 1.51554 -11.5
    endloop
  endfacet
endsolid model
