solid model
  facet normal -0.998019 -0.0629204 0
    outer loop
      vertex -0.0125427 6.20828 1.3
      vertex 0.0330353 5.48534 1.3
      vertex -0.0125427 6.20828 1.8
    endloop
  endfacet
  facet normal -0.998019 -0.0629204 0
    outer loop
      vertex -0.0125427 6.20828 1.8
      vertex 0.0330353 5.48534 1.3
      vertex 0.0330353 5.48534 1.8
    endloop
  endfacet
  facet normal 0 0 1
    outer loop
      vertex -0.0125427 6.20828 1.8
      vertex 0.0330353 5.48534 1.8
      vertex 0.494427 14.9783 1.8
    endloop
  endfacet
  facet normal -0.997835 0.0657697 0
    outer loop
      vertex -0.0168762 4.7281 1.3
      vertex -0.0168762 4.7281 1.8
      vertex 0.0330353 5.48534 1.8
    endloop
  endfacet
  facet normal -0.997835 0.0657697 0
    outer loop
      vertex -0.0168762 4.7281 1.3
      vertex 0.0330353 5.48534 1.8
      vertex 0.0330353 5.48534 1.3
    endloop
  endfacet
  facet normal -0 0 1
    outer loop
      vertex -0.0168762 4.7281 1.8
      vertex 11.7874 2.24858 1.8
      vertex 0.0330353 5.48534 1.8
    endloop
  endfacet
  facet normal -0.974261 -0.225425 0
    outer loop
      vertex -0.149307 6.79936 1.3
      vertex -0.0125427 6.20828 1.3
      vertex -0.149307 6.79936 1.8
    endloop
  endfacet
  facet normal -0.974261 -0.225425 0
    outer loop
      vertex -0.149307 6.79936 1.8
      vertex -0.0125427 6.20828 1.3
      vertex -0.0125427 6.20828 1.8
    endloop
  endfacet
  facet normal 0 0 1
    outer loop
      vertex -0.149307 6.79936 1.8
      vertex -0.0125427 6.20828 1.8
      vertex 0.494427 14.9783 1.8
    endloop
  endfacet
  facet normal -0.972943 0.231044 0
    outer loop
      vertex -0.166641 4.09743 1.3
      vertex -0.0168762 4.7281 1.8
      vertex -0.0168762 4.7281 1.3
    endloop
  endfacet
  facet normal -0.972943 0.231044 0
    outer loop
      vertex -0.166641 4.09743 1.3
      vertex -0.166641 4.09743 1.8
      vertex -0.0168762 4.7281 1.8
    endloop
  endfacet
  facet normal -0 0 1
    outer loop
      vertex -0.166641 4.09743 1.8
      vertex 11.7874 2.24858 1.8
      vertex -0.0168762 4.7281 1.8
    endloop
  endfacet
  facet normal -0.895722 -0.444615 0
    outer loop
      vertex -0.377258 7.25859 1.3
      vertex -0.149307 6.79936 1.3
      vertex -0.377258 7.25859 1.8
    endloop
  endfacet
  facet normal -0.895722 -0.444615 0
    outer loop
      vertex -0.377258 7.25859 1.8
      vertex -0.149307 6.79936 1.3
      vertex -0.149307 6.79936 1.8
    endloop
  endfacet
  facet normal 0 0 1
    outer loop
      vertex -0.377258 7.25859 1.8
      vertex -0.149307 6.79936 1.8
      vertex 0.494427 14.9783 1.8
    endloop
  endfacet
  facet normal -0.896146 0.44376 0
    outer loop
      vertex -0.41626 3.59334 1.3
      vertex -0.166641 4.09743 1.8
      vertex -0.166641 4.09743 1.3
    endloop
  endfacet
  facet normal -0.896146 0.44376 0
    outer loop
      vertex -0.41626 3.59334 1.3
      vertex -0.41626 3.59334 1.8
      vertex -0.166641 4.09743 1.8
    endloop
  endfacet
  facet normal -0 0 1
    outer loop
      vertex -0.41626 3.59334 1.8
      vertex 11.7874 2.24858 1.8
      vertex -0.166641 4.09743 1.8
    endloop
  endfacet
  facet normal 0 0 1
    outer loop
      vertex -0.41626 3.59334 1.8
      vertex 11.9054 1.504 1.8
      vertex 11.7874 2.24858 1.8
    endloop
  endfacet
  facet normal 0 0 1
    outer loop
      vertex -0.41626 3.59334 1.8
      vertex 11.9763 0.753486 1.8
      vertex 11.9054 1.504 1.8
    endloop
  endfacet
  facet normal 0 0 1
    outer loop
      vertex -0.41626 3.59334 1.8
      vertex 12 0 1.8
      vertex 11.9763 0.753486 1.8
    endloop
  endfacet
  facet normal 0.156416 0.987691 -0
    outer loop
      vertex -0.494427 14.9783 1.8
      vertex 0 14.9 1.8
      vertex 0 14.9 3.8147e-07
    endloop
  endfacet
  facet normal 0.156416 0.987691 0
    outer loop
      vertex -0.494427 14.9783 3.8147e-07
      vertex -0.494427 14.9783 1.8
      vertex 0 14.9 3.8147e-07
    endloop
  endfacet
  facet normal 0 0 1
    outer loop
      vertex -0.494427 18.0217 1.8
      vertex 0 18.1 1.8
      vertex -0.494427 29.1433 1.8
    endloop
  endfacet
  facet normal 0 0 -1
    outer loop
      vertex -0.494427 18.0217 3.8147e-07
      vertex -0.494427 29.1433 3.8147e-07
      vertex 0 29.065 3.8147e-07
    endloop
  endfacet
  facet normal 0.156416 -0.987691 0
    outer loop
      vertex -0.494427 18.0217 3.8147e-07
      vertex 0 18.1 1.8
      vertex -0.494427 18.0217 1.8
    endloop
  endfacet
  facet normal 0.156416 -0.987691 0
    outer loop
      vertex -0.494427 18.0217 3.8147e-07
      vertex 0 18.1 3.8147e-07
      vertex 0 18.1 1.8
    endloop
  endfacet
  facet normal 0 0 -1
    outer loop
      vertex -0.494427 18.0217 3.8147e-07
      vertex 0 29.065 3.8147e-07
      vertex 0 18.1 3.8147e-07
    endloop
  endfacet
  facet normal 0 0 1
    outer loop
      vertex -0.494427 29.1433 1.8
      vertex 0 18.1 1.8
      vertex 0 29.065 1.8
    endloop
  endfacet
  facet normal 0.156416 0.987691 -0
    outer loop
      vertex -0.494427 29.1433 1.8
      vertex 0 29.065 1.8
      vertex 0 29.065 3.8147e-07
    endloop
  endfacet
  facet normal 0.156416 0.987691 0
    outer loop
      vertex -0.494427 29.1433 3.8147e-07
      vertex -0.494427 29.1433 1.8
      vertex 0 29.065 3.8147e-07
    endloop
  endfacet
  facet normal 0.156416 -0.987691 0
    outer loop
      vertex -0.494427 32.1867 3.8147e-07
      vertex 0 32.265 1.8
      vertex -0.494427 32.1867 1.8
    endloop
  endfacet
  facet normal 0.156416 -0.987691 0
    outer loop
      vertex -0.494427 32.1867 3.8147e-07
      vertex 0 32.265 3.8147e-07
      vertex 0 32.265 1.8
    endloop
  endfacet
  facet normal 0 0 1
    outer loop
      vertex -0.570511 5.30565 1.3
      vertex -0.0168762 4.7281 1.3
      vertex 0.0330353 5.48534 1.3
    endloop
  endfacet
  facet normal -0 0 1
    outer loop
      vertex -0.610062 4.74844 1.3
      vertex -0.0168762 4.7281 1.3
      vertex -0.570511 5.30565 1.3
    endloop
  endfacet
  facet normal 0 0 1
    outer loop
      vertex -0.610062 4.74844 1.3
      vertex -0.166641 4.09743 1.3
      vertex -0.0168762 4.7281 1.3
    endloop
  endfacet
  facet normal 0.99749 -0.0708023 0
    outer loop
      vertex -0.610062 4.74844 1.3
      vertex -0.570511 5.30565 1.3
      vertex -0.610062 4.74844 1.8
    endloop
  endfacet
  facet normal 0.99749 -0.0708023 0
    outer loop
      vertex -0.610062 4.74844 1.8
      vertex -0.570511 5.30565 1.3
      vertex -0.570511 5.30565 1.8
    endloop
  endfacet
  facet normal 0 0 1
    outer loop
      vertex -0.646057 5.89447 1.3
      vertex -0.0125427 6.20828 1.3
      vertex -0.631561 6.07529 1.3
    endloop
  endfacet
  facet normal 0.996802 -0.0799117 0
    outer loop
      vertex -0.646057 5.89447 1.3
      vertex -0.631561 6.07529 1.3
      vertex -0.646057 5.89447 1.8
    endloop
  endfacet
  facet normal -0 0 1
    outer loop
      vertex -0.646057 5.89447 1.3
      vertex 0.0330353 5.48534 1.3
      vertex -0.0125427 6.20828 1.3
    endloop
  endfacet
  facet normal 0.996802 -0.0799117 0
    outer loop
      vertex -0.646057 5.89447 1.8
      vertex -0.631561 6.07529 1.3
      vertex -0.631561 6.07529 1.8
    endloop
  endfacet
  facet normal -0 0 1
    outer loop
      vertex -0.660934 6.43451 1.3
      vertex -0.0125427 6.20828 1.3
      vertex -0.149307 6.79936 1.3
    endloop
  endfacet
  facet normal 0 0 1
    outer loop
      vertex -0.660934 6.43451 1.3
      vertex -0.631561 6.07529 1.3
      vertex -0.0125427 6.20828 1.3
    endloop
  endfacet
  facet normal 0.996674 0.0814968 0
    outer loop
      vertex -0.660934 6.43451 1.3
      vertex -0.631561 6.07529 1.8
      vertex -0.631561 6.07529 1.3
    endloop
  endfacet
  facet normal 0.996674 0.0814968 0
    outer loop
      vertex -0.660934 6.43451 1.3
      vertex -0.660934 6.43451 1.8
      vertex -0.631561 6.07529 1.8
    endloop
  endfacet
  facet normal -0.861828 0.5072 0
    outer loop
      vertex -0.682388 5.11555 1.3
      vertex -0.570511 5.30565 1.8
      vertex -0.570511 5.30565 1.3
    endloop
  endfacet
  facet normal -0.861828 0.5072 0
    outer loop
      vertex -0.682388 5.11555 1.3
      vertex -0.682388 5.11555 1.8
      vertex -0.570511 5.30565 1.8
    endloop
  endfacet
  facet normal -0 0 1
    outer loop
      vertex -0.682388 5.11555 1.8
      vertex -0.610062 4.74844 1.8
      vertex -0.570511 5.30565 1.8
    endloop
  endfacet
  facet normal 0 0 1
    outer loop
      vertex -0.689575 5.7272 1.3
      vertex -0.570511 5.30565 1.3
      vertex 0.0330353 5.48534 1.3
    endloop
  endfacet
  facet normal 0.967783 -0.251785 0
    outer loop
      vertex -0.689575 5.7272 1.3
      vertex -0.646057 5.89447 1.3
      vertex -0.689575 5.7272 1.8
    endloop
  endfacet
  facet normal 0 0 1
    outer loop
      vertex -0.689575 5.7272 1.3
      vertex 0.0330353 5.48534 1.3
      vertex -0.646057 5.89447 1.3
    endloop
  endfacet
  facet normal 0.967783 -0.251785 0
    outer loop
      vertex -0.689575 5.7272 1.8
      vertex -0.646057 5.89447 1.3
      vertex -0.646057 5.89447 1.8
    endloop
  endfacet
  facet normal -0.719419 -0.694577 0
    outer loop
      vertex -0.69371 7.58636 1.3
      vertex -0.377258 7.25859 1.3
      vertex -0.69371 7.58636 1.8
    endloop
  endfacet
  facet normal -0.719419 -0.694577 0
    outer loop
      vertex -0.69371 7.58636 1.8
      vertex -0.377258 7.25859 1.3
      vertex -0.377258 7.25859 1.8
    endloop
  endfacet
  facet normal 0 0 1
    outer loop
      vertex -0.69371 7.58636 1.8
      vertex -0.377258 7.25859 1.8
      vertex 0.494427 14.9783 1.8
    endloop
  endfacet
  facet normal 0 0 1
    outer loop
      vertex -0.69371 7.58636 1.8
      vertex 0.494427 14.9783 1.8
      vertex 0 14.9 1.8
    endloop
  endfacet
  facet normal -0 0 1
    outer loop
      vertex -0.710648 4.28394 1.3
      vertex -0.166641 4.09743 1.3
      vertex -0.610062 4.74844 1.3
    endloop
  endfacet
  facet normal 0.977347 -0.211641 0
    outer loop
      vertex -0.710648 4.28394 1.3
      vertex -0.610062 4.74844 1.3
      vertex -0.710648 4.28394 1.8
    endloop
  endfacet
  facet normal 0.977347 -0.211641 0
    outer loop
      vertex -0.710648 4.28394 1.8
      vertex -0.610062 4.74844 1.3
      vertex -0.610062 4.74844 1.8
    endloop
  endfacet
  facet normal 0 0 1
    outer loop
      vertex -0.749084 6.74361 1.3
      vertex -0.149307 6.79936 1.3
      vertex -0.377258 7.25859 1.3
    endloop
  endfacet
  facet normal 0 0 1
    outer loop
      vertex -0.749084 6.74361 1.3
      vertex -0.660934 6.43451 1.3
      vertex -0.149307 6.79936 1.3
    endloop
  endfacet
  facet normal 0.961659 0.274249 0
    outer loop
      vertex -0.749084 6.74361 1.3
      vertex -0.660934 6.43451 1.8
      vertex -0.660934 6.43451 1.3
    endloop
  endfacet
  facet normal 0.961659 0.274249 0
    outer loop
      vertex -0.749084 6.74361 1.3
      vertex -0.749084 6.74361 1.8
      vertex -0.660934 6.43451 1.8
    endloop
  endfacet
  facet normal -0.731974 0.681332 0
    outer loop
      vertex -0.758148 3.22604 1.3
      vertex -0.41626 3.59334 1.8
      vertex -0.41626 3.59334 1.3
    endloop
  endfacet
  facet normal -0.731974 0.681332 0
    outer loop
      vertex -0.758148 3.22604 1.3
      vertex -0.758148 3.22604 1.8
      vertex -0.41626 3.59334 1.8
    endloop
  endfacet
  facet normal -0 0 1
    outer loop
      vertex -0.758148 3.22604 1.8
      vertex 12 0 1.8
      vertex -0.41626 3.59334 1.8
    endloop
  endfacet
  facet normal -0 0 1
    outer loop
      vertex -0.7621 5.57349 1.3
      vertex -0.570511 5.30565 1.3
      vertex -0.689575 5.7272 1.3
    endloop
  endfacet
  facet normal 0.904386 -0.426716 0
    outer loop
      vertex -0.7621 5.57349 1.3
      vertex -0.689575 5.7272 1.3
      vertex -0.7621 5.57349 1.8
    endloop
  endfacet
  facet normal 0.904386 -0.426716 0
    outer loop
      vertex -0.7621 5.57349 1.8
      vertex -0.689575 5.7272 1.3
      vertex -0.689575 5.7272 1.8
    endloop
  endfacet
  facet normal -0.725737 0.687972 0
    outer loop
      vertex -0.837219 4.95222 1.3
      vertex -0.682388 5.11555 1.8
      vertex -0.682388 5.11555 1.3
    endloop
  endfacet
  facet normal -0.725737 0.687972 0
    outer loop
      vertex -0.837219 4.95222 1.3
      vertex -0.837219 4.95222 1.8
      vertex -0.682388 5.11555 1.8
    endloop
  endfacet
  facet normal -0 0 1
    outer loop
      vertex -0.837219 4.95222 1.8
      vertex -0.610062 4.74844 1.8
      vertex -0.682388 5.11555 1.8
    endloop
  endfacet
  facet normal -0 0 1
    outer loop
      vertex -0.859848 5.43767 1.3
      vertex -0.570511 5.30565 1.3
      vertex -0.7621 5.57349 1.3
    endloop
  endfacet
  facet normal 0 0 1
    outer loop
      vertex -0.859848 5.43767 1.3
      vertex -0.682388 5.11555 1.3
      vertex -0.570511 5.30565 1.3
    endloop
  endfacet
  facet normal 0.811654 -0.584138 0
    outer loop
      vertex -0.859848 5.43767 1.3
      vertex -0.7621 5.57349 1.3
      vertex -0.859848 5.43767 1.8
    endloop
  endfacet
  facet normal 0.811654 -0.584138 0
    outer loop
      vertex -0.859848 5.43767 1.8
      vertex -0.7621 5.57349 1.3
      vertex -0.7621 5.57349 1.8
    endloop
  endfacet
  facet normal 0 0 1
    outer loop
      vertex -0.872253 3.91209 1.3
      vertex -0.166641 4.09743 1.3
      vertex -0.710648 4.28394 1.3
    endloop
  endfacet
  facet normal 0 0 1
    outer loop
      vertex -0.872253 3.91209 1.3
      vertex -0.41626 3.59334 1.3
      vertex -0.166641 4.09743 1.3
    endloop
  endfacet
  facet normal 0.917132 -0.398583 0
    outer loop
      vertex -0.872253 3.91209 1.3
      vertex -0.710648 4.28394 1.3
      vertex -0.872253 3.91209 1.8
    endloop
  endfacet
  facet normal 0.917132 -0.398583 0
    outer loop
      vertex -0.872253 3.91209 1.8
      vertex -0.710648 4.28394 1.3
      vertex -0.710648 4.28394 1.8
    endloop
  endfacet
  facet normal 0 0 1
    outer loop
      vertex -0.896011 7.00259 1.3
      vertex -0.377258 7.25859 1.3
      vertex -0.69371 7.58636 1.3
    endloop
  endfacet
  facet normal 0 0 1
    outer loop
      vertex -0.896011 7.00259 1.3
      vertex -0.749084 6.74361 1.3
      vertex -0.377258 7.25859 1.3
    endloop
  endfacet
  facet normal 0.869775 0.493449 0
    outer loop
      vertex -0.896011 7.00259 1.3
      vertex -0.749084 6.74361 1.8
      vertex -0.749084 6.74361 1.3
    endloop
  endfacet
  facet normal 0.869775 0.493449 0
    outer loop
      vertex -0.896011 7.00259 1.3
      vertex -0.896011 7.00259 1.8
      vertex -0.749084 6.74361 1.8
    endloop
  endfacet
  facet normal 0.454049 0.890977 -0
    outer loop
      vertex -0.940456 15.2056 1.8
      vertex -0.494427 14.9783 1.8
      vertex -0.494427 14.9783 3.8147e-07
    endloop
  endfacet
  facet normal 0.454049 0.890977 0
    outer loop
      vertex -0.940456 15.2056 3.8147e-07
      vertex -0.940456 15.2056 1.8
      vertex -0.494427 14.9783 3.8147e-07
    endloop
  endfacet
  facet normal 0 0 1
    outer loop
      vertex -0.940456 17.7944 1.8
      vertex -0.494427 18.0217 1.8
      vertex -0.940456 29.3706 1.8
    endloop
  endfacet
  facet normal 0.454049 -0.890977 0
    outer loop
      vertex -0.940456 17.7944 3.8147e-07
      vertex -0.494427 18.0217 1.8
      vertex -0.940456 17.7944 1.8
    endloop
  endfacet
  facet normal 0.454049 -0.890977 0
    outer loop
      vertex -0.940456 17.7944 3.8147e-07
      vertex -0.494427 18.0217 3.8147e-07
      vertex -0.494427 18.0217 1.8
    endloop
  endfacet
  facet normal 0 0 -1
    outer loop
      vertex -0.940456 17.7944 3.8147e-07
      vertex -0.494427 29.1433 3.8147e-07
      vertex -0.494427 18.0217 3.8147e-07
    endloop
  endfacet
  facet normal 0 0 -1
    outer loop
      vertex -0.940456 17.7944 3.8147e-07
      vertex -0.940456 29.3706 3.8147e-07
      vertex -0.494427 29.1433 3.8147e-07
    endloop
  endfacet
  facet normal 0 0 1
    outer loop
      vertex -0.940456 29.3706 1.8
      vertex -0.494427 18.0217 1.8
      vertex -0.494427 29.1433 1.8
    endloop
  endfacet
  facet normal 0.454049 0.890977 -0
    outer loop
      vertex -0.940456 29.3706 1.8
      vertex -0.494427 29.1433 1.8
      vertex -0.494427 29.1433 3.8147e-07
    endloop
  endfacet
  facet normal 0.454049 0.890977 0
    outer loop
      vertex -0.940456 29.3706 3.8147e-07
      vertex -0.940456 29.3706 1.8
      vertex -0.494427 29.1433 3.8147e-07
    endloop
  endfacet
  facet normal 0.454049 -0.890977 0
    outer loop
      vertex -0.940456 31.9594 3.8147e-07
      vertex -0.494427 32.1867 1.8
      vertex -0.940456 31.9594 1.8
    endloop
  endfacet
  facet normal 0.454049 -0.890977 0
    outer loop
      vertex -0.940456 31.9594 3.8147e-07
      vertex -0.494427 32.1867 3.8147e-07
      vertex -0.494427 32.1867 1.8
    endloop
  endfacet
  facet normal -0 0 1
    outer loop
      vertex -0.97908 5.32407 1.3
      vertex -0.682388 5.11555 1.3
      vertex -0.859848 5.43767 1.3
    endloop
  endfacet
  facet normal 0 0 1
    outer loop
      vertex -0.97908 5.32407 1.3
      vertex -0.837219 4.95222 1.3
      vertex -0.682388 5.11555 1.3
    endloop
  endfacet
  facet normal 0.689801 -0.723999 0
    outer loop
      vertex -0.97908 5.32407 1.3
      vertex -0.859848 5.43767 1.3
      vertex -0.859848 5.43767 1.8
    endloop
  endfacet
  facet normal 0.689801 -0.723999 0
    outer loop
      vertex -0.97908 5.32407 1.3
      vertex -0.859848 5.43767 1.8
      vertex -0.97908 5.32407 1.8
    endloop
  endfacet
  facet normal -0.568238 0.822864 0
    outer loop
      vertex -1.035 4.81564 1.3
      vertex -1.035 4.81564 1.8
      vertex -0.837219 4.95222 1.3
    endloop
  endfacet
  facet normal -0 0 1
    outer loop
      vertex -1.035 4.81564 1.8
      vertex -0.610062 4.74844 1.8
      vertex -0.837219 4.95222 1.8
    endloop
  endfacet
  facet normal 0 0 1
    outer loop
      vertex -1.035 4.81564 1.8
      vertex -0.710648 4.28394 1.8
      vertex -0.610062 4.74844 1.8
    endloop
  endfacet
  facet normal -0.568238 0.822864 0
    outer loop
      vertex -1.035 4.81564 1.8
      vertex -0.837219 4.95222 1.8
      vertex -0.837219 4.95222 1.3
    endloop
  endfacet
  facet normal -0 0 1
    outer loop
      vertex -1.09076 3.64084 1.3
      vertex -0.41626 3.59334 1.3
      vertex -0.872253 3.91209 1.3
    endloop
  endfacet
  facet normal 0 0 1
    outer loop
      vertex -1.09076 3.64084 1.3
      vertex -0.758148 3.22604 1.3
      vertex -0.41626 3.59334 1.3
    endloop
  endfacet
  facet normal 0.778754 -0.62733 0
    outer loop
      vertex -1.09076 3.64084 1.3
      vertex -0.872253 3.91209 1.3
      vertex -1.09076 3.64084 1.8
    endloop
  endfacet
  facet normal 0.778754 -0.62733 0
    outer loop
      vertex -1.09076 3.64084 1.8
      vertex -0.872253 3.91209 1.3
      vertex -0.872253 3.91209 1.8
    endloop
  endfacet
  facet normal 0 0 1
    outer loop
      vertex -1.09229 7.19757 1.3
      vertex -0.896011 7.00259 1.3
      vertex -0.69371 7.58636 1.3
    endloop
  endfacet
  facet normal 0.704755 0.709451 0
    outer loop
      vertex -1.09229 7.19757 1.3
      vertex -1.09229 7.19757 1.8
      vertex -0.896011 7.00259 1.3
    endloop
  endfacet
  facet normal 0.704755 0.709451 -0
    outer loop
      vertex -1.09229 7.19757 1.8
      vertex -0.896011 7.00259 1.8
      vertex -0.896011 7.00259 1.3
    endloop
  endfacet
  facet normal -0.439175 -0.898402 -0
    outer loop
      vertex -1.09605 7.78304 1.3
      vertex -0.69371 7.58636 1.3
      vertex -0.69371 7.58636 1.8
    endloop
  endfacet
  facet normal -0.439175 -0.898402 0
    outer loop
      vertex -1.09605 7.78304 1.3
      vertex -0.69371 7.58636 1.8
      vertex -1.09605 7.78304 1.8
    endloop
  endfacet
  facet normal 0 0 1
    outer loop
      vertex -1.09605 7.78304 1.3
      vertex -1.09229 7.19757 1.3
      vertex -0.69371 7.58636 1.3
    endloop
  endfacet
  facet normal 0 0 1
    outer loop
      vertex -1.09605 7.78304 1.8
      vertex -0.69371 7.58636 1.8
      vertex 0 14.9 1.8
    endloop
  endfacet
  facet normal 0 0 1
    outer loop
      vertex -1.09605 7.78304 1.8
      vertex 0 14.9 1.8
      vertex -0.494427 14.9783 1.8
    endloop
  endfacet
  facet normal -0 0 1
    outer loop
      vertex -1.11981 5.2327 1.3
      vertex -0.837219 4.95222 1.3
      vertex -0.97908 5.32407 1.3
    endloop
  endfacet
  facet normal 0.54455 -0.838728 0
    outer loop
      vertex -1.11981 5.2327 1.3
      vertex -0.97908 5.32407 1.3
      vertex -0.97908 5.32407 1.8
    endloop
  endfacet
  facet normal 0.54455 -0.838728 0
    outer loop
      vertex -1.11981 5.2327 1.3
      vertex -0.97908 5.32407 1.8
      vertex -1.11981 5.2327 1.8
    endloop
  endfacet
  facet normal 0 0 1
    outer loop
      vertex -1.11981 5.2327 1.3
      vertex -1.035 4.81564 1.3
      vertex -0.837219 4.95222 1.3
    endloop
  endfacet
  facet normal 0 0 1
    outer loop
      vertex -1.11981 5.2327 1.8
      vertex -0.7621 5.57349 1.8
      vertex -0.689575 5.7272 1.8
    endloop
  endfacet
  facet normal 0 0 1
    outer loop
      vertex -1.11981 5.2327 1.8
      vertex -0.859848 5.43767 1.8
      vertex -0.7621 5.57349 1.8
    endloop
  endfacet
  facet normal 0 0 1
    outer loop
      vertex -1.11981 5.2327 1.8
      vertex -0.97908 5.32407 1.8
      vertex -0.859848 5.43767 1.8
    endloop
  endfacet
  facet normal 0 0 1
    outer loop
      vertex -1.18478 3.00566 1.3
      vertex -0.758148 3.22604 1.3
      vertex -1.09076 3.64084 1.3
    endloop
  endfacet
  facet normal -0.458944 0.888465 0
    outer loop
      vertex -1.18478 3.00566 1.3
      vertex -1.18478 3.00566 1.8
      vertex -0.758148 3.22604 1.3
    endloop
  endfacet
  facet normal -0.458944 0.888465 0
    outer loop
      vertex -1.18478 3.00566 1.8
      vertex -0.758148 3.22604 1.8
      vertex -0.758148 3.22604 1.3
    endloop
  endfacet
  facet normal -0 0 1
    outer loop
      vertex -1.18478 3.00566 1.8
      vertex 12 0 1.8
      vertex -0.758148 3.22604 1.8
    endloop
  endfacet
  facet normal -0.41286 0.910794 0
    outer loop
      vertex -1.26143 4.713 1.3
      vertex -1.26143 4.713 1.8
      vertex -1.035 4.81564 1.3
    endloop
  endfacet
  facet normal -0 0 1
    outer loop
      vertex -1.26143 4.713 1.8
      vertex -0.710648 4.28394 1.8
      vertex -1.035 4.81564 1.8
    endloop
  endfacet
  facet normal 0 0 1
    outer loop
      vertex -1.26143 4.713 1.8
      vertex -0.872253 3.91209 1.8
      vertex -0.710648 4.28394 1.8
    endloop
  endfacet
  facet normal -0.41286 0.910794 0
    outer loop
      vertex -1.26143 4.713 1.8
      vertex -1.035 4.81564 1.8
      vertex -1.035 4.81564 1.3
    endloop
  endfacet
  facet normal -0 0 1
    outer loop
      vertex -1.27539 5.16583 1.3
      vertex -1.035 4.81564 1.3
      vertex -1.11981 5.2327 1.3
    endloop
  endfacet
  facet normal 0.394881 -0.918732 0
    outer loop
      vertex -1.27539 5.16583 1.3
      vertex -1.11981 5.2327 1.3
      vertex -1.11981 5.2327 1.8
    endloop
  endfacet
  facet normal 0.394881 -0.918732 0
    outer loop
      vertex -1.27539 5.16583 1.3
      vertex -1.11981 5.2327 1.8
      vertex -1.27539 5.16583 1.8
    endloop
  endfacet
  facet normal 0 0 1
    outer loop
      vertex -1.27539 5.16583 1.3
      vertex -1.26143 4.713 1.3
      vertex -1.035 4.81564 1.3
    endloop
  endfacet
  facet normal 0 0 1
    outer loop
      vertex -1.27539 5.16583 1.8
      vertex -0.689575 5.7272 1.8
      vertex -0.646057 5.89447 1.8
    endloop
  endfacet
  facet normal 0 0 1
    outer loop
      vertex -1.27539 5.16583 1.8
      vertex -1.11981 5.2327 1.8
      vertex -0.689575 5.7272 1.8
    endloop
  endfacet
  facet normal 0.707033 0.707181 0
    outer loop
      vertex -1.29443 15.5595 3.8147e-07
      vertex -0.940456 15.2056 1.8
      vertex -0.940456 15.2056 3.8147e-07
    endloop
  endfacet
  facet normal 0.707033 0.707181 0
    outer loop
      vertex -1.29443 15.5595 3.8147e-07
      vertex -1.29443 15.5595 1.8
      vertex -0.940456 15.2056 1.8
    endloop
  endfacet
  facet normal 0.707033 -0.707181 0
    outer loop
      vertex -1.29443 17.4405 1.8
      vertex -0.940456 17.7944 3.8147e-07
      vertex -0.940456 17.7944 1.8
    endloop
  endfacet
  facet normal 0.707033 -0.707181 0
    outer loop
      vertex -1.29443 17.4405 3.8147e-07
      vertex -0.940456 17.7944 3.8147e-07
      vertex -1.29443 17.4405 1.8
    endloop
  endfacet
  facet normal 0.707033 0.707181 -0
    outer loop
      vertex -1.29443 29.7245 1.8
      vertex -0.940456 29.3706 1.8
      vertex -0.940456 29.3706 3.8147e-07
    endloop
  endfacet
  facet normal 0.707033 0.707181 0
    outer loop
      vertex -1.29443 29.7245 3.8147e-07
      vertex -1.29443 29.7245 1.8
      vertex -0.940456 29.3706 3.8147e-07
    endloop
  endfacet
  facet normal 0.707033 -0.707181 0
    outer loop
      vertex -1.29443 31.6055 1.8
      vertex -0.940456 31.9594 3.8147e-07
      vertex -0.940456 31.9594 1.8
    endloop
  endfacet
  facet normal 0.707033 -0.707181 0
    outer loop
      vertex -1.29443 31.6055 3.8147e-07
      vertex -0.940456 31.9594 3.8147e-07
      vertex -1.29443 31.6055 1.8
    endloop
  endfacet
  facet normal 0 0 1
    outer loop
      vertex -1.32849 7.31454 1.3
      vertex -1.09229 7.19757 1.3
      vertex -1.09605 7.78304 1.3
    endloop
  endfacet
  facet normal 0.443781 0.896135 0
    outer loop
      vertex -1.32849 7.31454 1.3
      vertex -1.32849 7.31454 1.8
      vertex -1.09229 7.19757 1.3
    endloop
  endfacet
  facet normal 0.443781 0.896135 -0
    outer loop
      vertex -1.32849 7.31454 1.8
      vertex -1.09229 7.19757 1.8
      vertex -1.09229 7.19757 1.3
    endloop
  endfacet
  facet normal 0.514496 -0.857493 0
    outer loop
      vertex -1.36201 3.47809 1.3
      vertex -1.09076 3.64084 1.3
      vertex -1.09076 3.64084 1.8
    endloop
  endfacet
  facet normal 0.514496 -0.857493 0
    outer loop
      vertex -1.36201 3.47809 1.3
      vertex -1.09076 3.64084 1.8
      vertex -1.36201 3.47809 1.8
    endloop
  endfacet
  facet normal -0 0 1
    outer loop
      vertex -1.36201 3.47809 1.3
      vertex -1.18478 3.00566 1.3
      vertex -1.09076 3.64084 1.3
    endloop
  endfacet
  facet normal -0 0 1
    outer loop
      vertex -1.43925 5.12572 1.3
      vertex -1.26143 4.713 1.3
      vertex -1.27539 5.16583 1.3
    endloop
  endfacet
  facet normal 0.237763 -0.971323 0
    outer loop
      vertex -1.43925 5.12572 1.3
      vertex -1.27539 5.16583 1.3
      vertex -1.27539 5.16583 1.8
    endloop
  endfacet
  facet normal 0.237763 -0.971323 0
    outer loop
      vertex -1.43925 5.12572 1.3
      vertex -1.27539 5.16583 1.8
      vertex -1.43925 5.12572 1.8
    endloop
  endfacet
  facet normal 0 0 1
    outer loop
      vertex -1.50217 4.65141 1.3
      vertex -1.26143 4.713 1.3
      vertex -1.43925 5.12572 1.3
    endloop
  endfacet
  facet normal -0.247853 0.968798 0
    outer loop
      vertex -1.50217 4.65141 1.3
      vertex -1.50217 4.65141 1.8
      vertex -1.26143 4.713 1.3
    endloop
  endfacet
  facet normal -0 0 1
    outer loop
      vertex -1.50217 4.65141 1.8
      vertex -0.872253 3.91209 1.8
      vertex -1.26143 4.713 1.8
    endloop
  endfacet
  facet normal 0 0 1
    outer loop
      vertex -1.50217 4.65141 1.8
      vertex -1.09076 3.64084 1.8
      vertex -0.872253 3.91209 1.8
    endloop
  endfacet
  facet normal -0.247853 0.968798 0
    outer loop
      vertex -1.50217 4.65141 1.8
      vertex -1.26143 4.713 1.8
      vertex -1.26143 4.713 1.3
    endloop
  endfacet
  facet normal 0 0 1
    outer loop
      vertex -1.50217 4.65141 1.8
      vertex -1.36201 3.47809 1.8
      vertex -1.09076 3.64084 1.8
    endloop
  endfacet
  facet normal 0.891038 0.453928 0
    outer loop
      vertex -1.52169 16.0056 3.8147e-07
      vertex -1.29443 15.5595 1.8
      vertex -1.29443 15.5595 3.8147e-07
    endloop
  endfacet
  facet normal 0.891038 0.453928 0
    outer loop
      vertex -1.52169 16.0056 3.8147e-07
      vertex -1.52169 16.0056 1.8
      vertex -1.29443 15.5595 1.8
    endloop
  endfacet
  facet normal 0.891038 -0.453928 0
    outer loop
      vertex -1.52169 16.9944 1.8
      vertex -1.29443 17.4405 3.8147e-07
      vertex -1.29443 17.4405 1.8
    endloop
  endfacet
  facet normal 0.891038 -0.453928 0
    outer loop
      vertex -1.52169 16.9944 3.8147e-07
      vertex -1.29443 17.4405 3.8147e-07
      vertex -1.52169 16.9944 1.8
    endloop
  endfacet
  facet normal 0.891038 0.453928 0
    outer loop
      vertex -1.52169 30.1706 3.8147e-07
      vertex -1.29443 29.7245 1.8
      vertex -1.29443 29.7245 3.8147e-07
    endloop
  endfacet
  facet normal 0.891038 0.453928 0
    outer loop
      vertex -1.52169 30.1706 3.8147e-07
      vertex -1.52169 30.1706 1.8
      vertex -1.29443 29.7245 1.8
    endloop
  endfacet
  facet normal 0.891038 -0.453928 0
    outer loop
      vertex -1.52169 31.1594 1.8
      vertex -1.29443 31.6055 3.8147e-07
      vertex -1.29443 31.6055 1.8
    endloop
  endfacet
  facet normal 0.891038 -0.453928 0
    outer loop
      vertex -1.52169 31.1594 3.8147e-07
      vertex -1.29443 31.6055 3.8147e-07
      vertex -1.52169 31.1594 1.8
    endloop
  endfacet
  facet normal -0.133061 -0.991108 -0
    outer loop
      vertex -1.5843 7.84859 1.3
      vertex -1.09605 7.78304 1.3
      vertex -1.09605 7.78304 1.8
    endloop
  endfacet
  facet normal -0.133061 -0.991108 0
    outer loop
      vertex -1.5843 7.84859 1.3
      vertex -1.09605 7.78304 1.8
      vertex -1.5843 7.84859 1.8
    endloop
  endfacet
  facet normal 0 0 1
    outer loop
      vertex -1.5843 7.84859 1.3
      vertex -1.32849 7.31454 1.3
      vertex -1.09605 7.78304 1.3
    endloop
  endfacet
  facet normal 0 0 1
    outer loop
      vertex -1.5843 7.84859 1.8
      vertex -1.09605 7.78304 1.8
      vertex -0.494427 14.9783 1.8
    endloop
  endfacet
  facet normal 0.987687 -0.156444 0
    outer loop
      vertex -1.6 16.5 1.8
      vertex -1.52169 16.9944 3.8147e-07
      vertex -1.52169 16.9944 1.8
    endloop
  endfacet
  facet normal 0.987687 0.156444 0
    outer loop
      vertex -1.6 16.5 3.8147e-07
      vertex -1.52169 16.0056 1.8
      vertex -1.52169 16.0056 3.8147e-07
    endloop
  endfacet
  facet normal 0.987687 -0.156444 0
    outer loop
      vertex -1.6 16.5 3.8147e-07
      vertex -1.52169 16.9944 3.8147e-07
      vertex -1.6 16.5 1.8
    endloop
  endfacet
  facet normal 0.987687 0.156444 0
    outer loop
      vertex -1.6 16.5 3.8147e-07
      vertex -1.6 16.5 1.8
      vertex -1.52169 16.0056 1.8
    endloop
  endfacet
  facet normal 0.987687 -0.156444 0
    outer loop
      vertex -1.6 30.665 1.8
      vertex -1.52169 31.1594 3.8147e-07
      vertex -1.52169 31.1594 1.8
    endloop
  endfacet
  facet normal 0.987687 0.156444 0
    outer loop
      vertex -1.6 30.665 3.8147e-07
      vertex -1.52169 30.1706 1.8
      vertex -1.52169 30.1706 3.8147e-07
    endloop
  endfacet
  facet normal 0.987687 -0.156444 0
    outer loop
      vertex -1.6 30.665 3.8147e-07
      vertex -1.52169 31.1594 3.8147e-07
      vertex -1.6 30.665 1.8
    endloop
  endfacet
  facet normal 0.987687 0.156444 0
    outer loop
      vertex -1.6 30.665 3.8147e-07
      vertex -1.6 30.665 1.8
      vertex -1.52169 30.1706 1.8
    endloop
  endfacet
  facet normal 0 0 1
    outer loop
      vertex -1.60466 7.35355 1.3
      vertex -1.32849 7.31454 1.3
      vertex -1.5843 7.84859 1.3
    endloop
  endfacet
  facet normal 0.139865 0.990171 0
    outer loop
      vertex -1.60466 7.35355 1.3
      vertex -1.60466 7.35355 1.8
      vertex -1.32849 7.31454 1.3
    endloop
  endfacet
  facet normal 0 0 1
    outer loop
      vertex -1.60466 7.35355 1.8
      vertex -0.896011 7.00259 1.8
      vertex -1.09229 7.19757 1.8
    endloop
  endfacet
  facet normal 0 0 1
    outer loop
      vertex -1.60466 7.35355 1.8
      vertex -1.09229 7.19757 1.8
      vertex -1.32849 7.31454 1.8
    endloop
  endfacet
  facet normal 0.139865 0.990171 -0
    outer loop
      vertex -1.60466 7.35355 1.8
      vertex -1.32849 7.31454 1.8
      vertex -1.32849 7.31454 1.3
    endloop
  endfacet
  facet normal 0.0774892 -0.996993 0
    outer loop
      vertex -1.6114 5.11234 1.3
      vertex -1.43925 5.12572 1.3
      vertex -1.43925 5.12572 1.8
    endloop
  endfacet
  facet normal 0.0774892 -0.996993 0
    outer loop
      vertex -1.6114 5.11234 1.3
      vertex -1.43925 5.12572 1.8
      vertex -1.6114 5.11234 1.8
    endloop
  endfacet
  facet normal -0 0 1
    outer loop
      vertex -1.6114 5.11234 1.3
      vertex -1.50217 4.65141 1.3
      vertex -1.43925 5.12572 1.3
    endloop
  endfacet
  facet normal 0.165144 -0.986269 0
    outer loop
      vertex -1.686 3.42384 1.3
      vertex -1.36201 3.47809 1.3
      vertex -1.36201 3.47809 1.8
    endloop
  endfacet
  facet normal 0.165144 -0.986269 0
    outer loop
      vertex -1.686 3.42384 1.3
      vertex -1.36201 3.47809 1.8
      vertex -1.686 3.42384 1.8
    endloop
  endfacet
  facet normal 0 0 1
    outer loop
      vertex -1.69621 2.93221 1.3
      vertex -1.18478 3.00566 1.3
      vertex -1.36201 3.47809 1.3
    endloop
  endfacet
  facet normal 0 0 1
    outer loop
      vertex -1.69621 2.93221 1.3
      vertex -1.36201 3.47809 1.3
      vertex -1.686 3.42384 1.3
    endloop
  endfacet
  facet normal -0.142158 0.989844 0
    outer loop
      vertex -1.69621 2.93221 1.3
      vertex -1.69621 2.93221 1.8
      vertex -1.18478 3.00566 1.3
    endloop
  endfacet
  facet normal -0.142158 0.989844 0
    outer loop
      vertex -1.69621 2.93221 1.8
      vertex -1.18478 3.00566 1.8
      vertex -1.18478 3.00566 1.3
    endloop
  endfacet
  facet normal -0 0 1
    outer loop
      vertex -1.69621 2.93221 1.8
      vertex 12 0 1.8
      vertex -1.18478 3.00566 1.8
    endloop
  endfacet
  facet normal 0 0 1
    outer loop
      vertex -1.7572 4.63089 1.3
      vertex -1.50217 4.65141 1.3
      vertex -1.6114 5.11234 1.3
    endloop
  endfacet
  facet normal -0.0802019 0.996779 0
    outer loop
      vertex -1.7572 4.63089 1.3
      vertex -1.7572 4.63089 1.8
      vertex -1.50217 4.65141 1.3
    endloop
  endfacet
  facet normal -0 0 1
    outer loop
      vertex -1.7572 4.63089 1.8
      vertex -1.36201 3.47809 1.8
      vertex -1.50217 4.65141 1.8
    endloop
  endfacet
  facet normal -0.0802019 0.996779 0
    outer loop
      vertex -1.7572 4.63089 1.8
      vertex -1.50217 4.65141 1.8
      vertex -1.50217 4.65141 1.3
    endloop
  endfacet
  facet normal 0 0 1
    outer loop
      vertex -1.7572 4.63089 1.8
      vertex -1.686 3.42384 1.8
      vertex -1.36201 3.47809 1.8
    endloop
  endfacet
  facet normal 0 0 1
    outer loop
      vertex -1.87778 7.32019 1.3
      vertex -1.60466 7.35355 1.3
      vertex -1.5843 7.84859 1.3
    endloop
  endfacet
  facet normal -0.121243 0.992623 0
    outer loop
      vertex -1.87778 7.32019 1.3
      vertex -1.87778 7.32019 1.8
      vertex -1.60466 7.35355 1.3
    endloop
  endfacet
  facet normal -0.121243 0.992623 0
    outer loop
      vertex -1.87778 7.32019 1.8
      vertex -1.60466 7.35355 1.8
      vertex -1.60466 7.35355 1.3
    endloop
  endfacet
  facet normal -0.124212 -0.992256 -0
    outer loop
      vertex -1.88077 5.14606 1.3
      vertex -1.6114 5.11234 1.3
      vertex -1.6114 5.11234 1.8
    endloop
  endfacet
  facet normal -0.124212 -0.992256 0
    outer loop
      vertex -1.88077 5.14606 1.3
      vertex -1.6114 5.11234 1.8
      vertex -1.88077 5.14606 1.8
    endloop
  endfacet
  facet normal 0 0 1
    outer loop
      vertex -1.88077 5.14606 1.3
      vertex -1.7572 4.63089 1.3
      vertex -1.6114 5.11234 1.3
    endloop
  endfacet
  facet normal 0 0 1
    outer loop
      vertex -11.7874 2.24858 1.8
      vertex -2.95767 3.61089 1.8
      vertex -3.07616 3.92905 1.8
    endloop
  endfacet
  facet normal 0 0 1
    outer loop
      vertex -11.7874 2.24858 1.8
      vertex -2.98764 7.09811 1.8
      vertex -8.5 17.7062 1.8
    endloop
  endfacet
  facet normal 0 0 1
    outer loop
      vertex -11.7874 2.24858 1.8
      vertex -3.07616 3.92905 1.8
      vertex -3.13156 5.78746 1.8
    endloop
  endfacet
  facet normal 0 0 1
    outer loop
      vertex -11.7874 2.24858 1.8
      vertex -3.12779 6.70538 1.8
      vertex -2.98764 7.09811 1.8
    endloop
  endfacet
  facet normal 0 0 1
    outer loop
      vertex -11.7874 2.24858 1.8
      vertex -3.13156 5.78746 1.8
      vertex -3.17451 6.24144 1.8
    endloop
  endfacet
  facet normal 0 0 1
    outer loop
      vertex -11.7874 2.24858 1.8
      vertex -3.17451 6.24144 1.8
      vertex -3.12779 6.70538 1.8
    endloop
  endfacet
  facet normal -0 0 -1
    outer loop
      vertex -11.7874 2.24858 3.8147e-07
      vertex -0.494427 14.9783 3.8147e-07
      vertex 0 14.9 3.8147e-07
    endloop
  endfacet
  facet normal -0 0 -1
    outer loop
      vertex -11.7874 2.24858 3.8147e-07
      vertex -0.940456 15.2056 3.8147e-07
      vertex -0.494427 14.9783 3.8147e-07
    endloop
  endfacet
  facet normal -0 0 -1
    outer loop
      vertex -11.7874 2.24858 3.8147e-07
      vertex -1.29443 15.5595 3.8147e-07
      vertex -0.940456 15.2056 3.8147e-07
    endloop
  endfacet
  facet normal -0.978125 0.20802 0
    outer loop
      vertex -11.7874 2.24858 3.8147e-07
      vertex -11.7874 2.24858 1.8
      vertex -8.5 17.7062 1.8
    endloop
  endfacet
  facet normal -0.978125 0.20802 0
    outer loop
      vertex -11.7874 2.24858 3.8147e-07
      vertex -8.5 17.7062 1.8
      vertex -8.5 17.7062 3.8147e-07
    endloop
  endfacet
  facet normal -0 0 -1
    outer loop
      vertex -11.7874 2.24858 3.8147e-07
      vertex -8.5 17.7062 3.8147e-07
      vertex -1.29443 15.5595 3.8147e-07
    endloop
  endfacet
  facet normal 0 0 -1
    outer loop
      vertex -11.7874 2.24858 3.8147e-07
      vertex 0 14.9 3.8147e-07
      vertex 11.7874 2.24858 3.8147e-07
    endloop
  endfacet
  facet normal 0 0 -1
    outer loop
      vertex -11.7874 2.24858 3.8147e-07
      vertex 11.7874 2.24858 3.8147e-07
      vertex 12 0 3.8147e-07
    endloop
  endfacet
  facet normal 0 0 1
    outer loop
      vertex -11.9054 1.504 1.8
      vertex -2.79663 3.35715 1.8
      vertex -2.95767 3.61089 1.8
    endloop
  endfacet
  facet normal 0 0 1
    outer loop
      vertex -11.9054 1.504 1.8
      vertex -2.95767 3.61089 1.8
      vertex -11.7874 2.24858 1.8
    endloop
  endfacet
  facet normal -0.987674 0.156525 0
    outer loop
      vertex -11.9054 1.504 3.8147e-07
      vertex -11.7874 2.24858 1.8
      vertex -11.7874 2.24858 3.8147e-07
    endloop
  endfacet
  facet normal 0 0 -1
    outer loop
      vertex -11.9054 1.504 3.8147e-07
      vertex -11.7874 2.24858 3.8147e-07
      vertex 12 0 3.8147e-07
    endloop
  endfacet
  facet normal -0.987674 0.156525 0
    outer loop
      vertex -11.9054 1.504 3.8147e-07
      vertex -11.9054 1.504 1.8
      vertex -11.7874 2.24858 1.8
    endloop
  endfacet
  facet normal 0 0 1
    outer loop
      vertex -11.9763 0.753486 1.8
      vertex -2.79663 3.35715 1.8
      vertex -11.9054 1.504 1.8
    endloop
  endfacet
  facet normal -0.995567 0.0940499 0
    outer loop
      vertex -11.9763 0.753486 3.8147e-07
      vertex -11.9054 1.504 1.8
      vertex -11.9054 1.504 3.8147e-07
    endloop
  endfacet
  facet normal 0 0 -1
    outer loop
      vertex -11.9763 0.753486 3.8147e-07
      vertex -11.9054 1.504 3.8147e-07
      vertex 12 0 3.8147e-07
    endloop
  endfacet
  facet normal -0.995567 0.0940499 0
    outer loop
      vertex -11.9763 0.753486 3.8147e-07
      vertex -11.9763 0.753486 1.8
      vertex -11.9054 1.504 1.8
    endloop
  endfacet
  facet normal 0 0 1
    outer loop
      vertex -12 0 1.8
      vertex -1.69621 2.93221 1.8
      vertex -2.04449 2.95839 1.8
    endloop
  endfacet
  facet normal 0 0 1
    outer loop
      vertex -12 0 1.8
      vertex -2.04449 2.95839 1.8
      vertex -2.34343 3.03693 1.8
    endloop
  endfacet
  facet normal 0 0 1
    outer loop
      vertex -12 0 1.8
      vertex -2.34343 3.03693 1.8
      vertex -2.593 3.16785 1.8
    endloop
  endfacet
  facet normal 0 0 1
    outer loop
      vertex -12 0 1.8
      vertex -2.593 3.16785 1.8
      vertex -2.79663 3.35715 1.8
    endloop
  endfacet
  facet normal 0 0 1
    outer loop
      vertex -12 0 1.8
      vertex -2.79663 3.35715 1.8
      vertex -11.9763 0.753486 1.8
    endloop
  endfacet
  facet normal 0 0 1
    outer loop
      vertex -12 0 1.8
      vertex 12 0 1.8
      vertex -1.69621 2.93221 1.8
    endloop
  endfacet
  facet normal -0.999506 0.0314383 0
    outer loop
      vertex -12 0 3.8147e-07
      vertex -11.9763 0.753486 1.8
      vertex -11.9763 0.753486 3.8147e-07
    endloop
  endfacet
  facet normal 0 -0 -1
    outer loop
      vertex -12 0 3.8147e-07
      vertex -11.9763 0.753486 3.8147e-07
      vertex 12 0 3.8147e-07
    endloop
  endfacet
  facet normal -0.999506 0.0314383 0
    outer loop
      vertex -12 0 3.8147e-07
      vertex -12 0 1.8
      vertex -11.9763 0.753486 1.8
    endloop
  endfacet
  facet normal 0 -1 0
    outer loop
      vertex -12 0 3.8147e-07
      vertex 12 0 1.8
      vertex -12 0 1.8
    endloop
  endfacet
  facet normal 0 -1 -0
    outer loop
      vertex -12 0 3.8147e-07
      vertex 12 0 3.8147e-07
      vertex 12 0 1.8
    endloop
  endfacet
  facet normal 0 0 1
    outer loop
      vertex -2.04449 2.95839 1.3
      vertex -1.69621 2.93221 1.3
      vertex -1.686 3.42384 1.3
    endloop
  endfacet
  facet normal 0.0749579 0.997187 0
    outer loop
      vertex -2.04449 2.95839 1.3
      vertex -2.04449 2.95839 1.8
      vertex -1.69621 2.93221 1.3
    endloop
  endfacet
  facet normal 0.0749579 0.997187 -0
    outer loop
      vertex -2.04449 2.95839 1.8
      vertex -1.69621 2.93221 1.8
      vertex -1.69621 2.93221 1.3
    endloop
  endfacet
  facet normal 0.102396 -0.994744 0
    outer loop
      vertex -2.0473 7.80093 1.3
      vertex -1.5843 7.84859 1.3
      vertex -1.5843 7.84859 1.8
    endloop
  endfacet
  facet normal 0.102396 -0.994744 0
    outer loop
      vertex -2.0473 7.80093 1.3
      vertex -1.5843 7.84859 1.8
      vertex -2.0473 7.80093 1.8
    endloop
  endfacet
  facet normal -0 0 1
    outer loop
      vertex -2.0473 7.80093 1.3
      vertex -1.87778 7.32019 1.3
      vertex -1.5843 7.84859 1.3
    endloop
  endfacet
  facet normal 0 0 1
    outer loop
      vertex -2.0473 7.80093 1.8
      vertex -0.494427 14.9783 1.8
      vertex -0.940456 15.2056 1.8
    endloop
  endfacet
  facet normal 0 0 1
    outer loop
      vertex -2.0473 7.80093 1.8
      vertex -1.5843 7.84859 1.8
      vertex -0.494427 14.9783 1.8
    endloop
  endfacet
  facet normal -0.177795 -0.984068 -0
    outer loop
      vertex -2.05296 3.49014 1.3
      vertex -1.686 3.42384 1.3
      vertex -1.686 3.42384 1.8
    endloop
  endfacet
  facet normal -0.177795 -0.984068 0
    outer loop
      vertex -2.05296 3.49014 1.3
      vertex -1.686 3.42384 1.8
      vertex -2.05296 3.49014 1.8
    endloop
  endfacet
  facet normal 0 0 1
    outer loop
      vertex -2.05296 3.49014 1.3
      vertex -2.04449 2.95839 1.3
      vertex -1.686 3.42384 1.3
    endloop
  endfacet
  facet normal 0 0 1
    outer loop
      vertex -2.05296 3.49014 1.8
      vertex -1.686 3.42384 1.8
      vertex -1.7572 4.63089 1.8
    endloop
  endfacet
  facet normal 0 0 1
    outer loop
      vertex -2.10945 7.22017 1.3
      vertex -1.87778 7.32019 1.3
      vertex -2.0473 7.80093 1.3
    endloop
  endfacet
  facet normal -0.396371 0.91809 0
    outer loop
      vertex -2.10945 7.22017 1.3
      vertex -2.10945 7.22017 1.8
      vertex -1.87778 7.32019 1.3
    endloop
  endfacet
  facet normal -0.396371 0.91809 0
    outer loop
      vertex -2.10945 7.22017 1.8
      vertex -1.87778 7.32019 1.8
      vertex -1.87778 7.32019 1.3
    endloop
  endfacet
  facet normal -0.403395 -0.915026 -0
    outer loop
      vertex -2.11021 5.24721 1.3
      vertex -1.88077 5.14606 1.3
      vertex -1.88077 5.14606 1.8
    endloop
  endfacet
  facet normal -0.403395 -0.915026 0
    outer loop
      vertex -2.11021 5.24721 1.3
      vertex -1.88077 5.14606 1.8
      vertex -2.11021 5.24721 1.8
    endloop
  endfacet
  facet normal 0 0 1
    outer loop
      vertex -2.15808 4.67987 1.3
      vertex -1.7572 4.63089 1.3
      vertex -1.88077 5.14606 1.3
    endloop
  endfacet
  facet normal 0 0 1
    outer loop
      vertex -2.15808 4.67987 1.3
      vertex -1.88077 5.14606 1.3
      vertex -2.11021 5.24721 1.3
    endloop
  endfacet
  facet normal 0.121279 0.992618 0
    outer loop
      vertex -2.15808 4.67987 1.3
      vertex -2.15808 4.67987 1.8
      vertex -1.7572 4.63089 1.3
    endloop
  endfacet
  facet normal 0.121279 0.992618 -0
    outer loop
      vertex -2.15808 4.67987 1.8
      vertex -1.7572 4.63089 1.8
      vertex -1.7572 4.63089 1.3
    endloop
  endfacet
  facet normal -0.664662 -0.747144 -0
    outer loop
      vertex -2.29971 5.41579 1.3
      vertex -2.11021 5.24721 1.3
      vertex -2.11021 5.24721 1.8
    endloop
  endfacet
  facet normal -0.664662 -0.747144 0
    outer loop
      vertex -2.29971 5.41579 1.3
      vertex -2.11021 5.24721 1.8
      vertex -2.29971 5.41579 1.8
    endloop
  endfacet
  facet normal 0 0 1
    outer loop
      vertex -2.29971 5.41579 1.8
      vertex -2.11021 5.24721 1.8
      vertex -1.88077 5.14606 1.8
    endloop
  endfacet
  facet normal -0.65907 0.752082 0
    outer loop
      vertex -2.29971 7.05344 1.3
      vertex -2.29971 7.05344 1.8
      vertex -2.10945 7.22017 1.3
    endloop
  endfacet
  facet normal 0 0 1
    outer loop
      vertex -2.29971 7.05344 1.8
      vertex -1.87778 7.32019 1.8
      vertex -2.10945 7.22017 1.8
    endloop
  endfacet
  facet normal -0.65907 0.752082 0
    outer loop
      vertex -2.29971 7.05344 1.8
      vertex -2.10945 7.22017 1.8
      vertex -2.10945 7.22017 1.3
    endloop
  endfacet
  facet normal -0.594592 -0.804028 -0
    outer loop
      vertex -2.32196 3.68907 1.3
      vertex -2.05296 3.49014 1.3
      vertex -2.05296 3.49014 1.8
    endloop
  endfacet
  facet normal -0.594592 -0.804028 0
    outer loop
      vertex -2.32196 3.68907 1.3
      vertex -2.05296 3.49014 1.8
      vertex -2.32196 3.68907 1.8
    endloop
  endfacet
  facet normal 0 0 1
    outer loop
      vertex -2.32196 3.68907 1.8
      vertex -2.05296 3.49014 1.8
      vertex -1.7572 4.63089 1.8
    endloop
  endfacet
  facet normal 0 0 1
    outer loop
      vertex -2.34343 3.03693 1.3
      vertex -2.04449 2.95839 1.3
      vertex -2.05296 3.49014 1.3
    endloop
  endfacet
  facet normal 0.254105 0.967177 0
    outer loop
      vertex -2.34343 3.03693 1.3
      vertex -2.34343 3.03693 1.8
      vertex -2.04449 2.95839 1.3
    endloop
  endfacet
  facet normal 0.254105 0.967177 -0
    outer loop
      vertex -2.34343 3.03693 1.8
      vertex -2.04449 2.95839 1.8
      vertex -2.04449 2.95839 1.3
    endloop
  endfacet
  facet normal 0.344288 -0.938864 0
    outer loop
      vertex -2.43723 7.65794 1.3
      vertex -2.0473 7.80093 1.3
      vertex -2.0473 7.80093 1.8
    endloop
  endfacet
  facet normal 0.344288 -0.938864 0
    outer loop
      vertex -2.43723 7.65794 1.3
      vertex -2.0473 7.80093 1.8
      vertex -2.43723 7.65794 1.8
    endloop
  endfacet
  facet normal -0 0 1
    outer loop
      vertex -2.43723 7.65794 1.3
      vertex -2.10945 7.22017 1.3
      vertex -2.0473 7.80093 1.3
    endloop
  endfacet
  facet normal 0 0 1
    outer loop
      vertex -2.43723 7.65794 1.3
      vertex -2.29971 7.05344 1.3
      vertex -2.10945 7.22017 1.3
    endloop
  endfacet
  facet normal 0 0 1
    outer loop
      vertex -2.43723 7.65794 1.8
      vertex -0.940456 15.2056 1.8
      vertex -1.29443 15.5595 1.8
    endloop
  endfacet
  facet normal 0 0 1
    outer loop
      vertex -2.43723 7.65794 1.8
      vertex -2.0473 7.80093 1.8
      vertex -0.940456 15.2056 1.8
    endloop
  endfacet
  facet normal -0.848637 -0.528975 0
    outer loop
      vertex -2.44098 5.64243 1.3
      vertex -2.29971 5.41579 1.3
      vertex -2.44098 5.64243 1.8
    endloop
  endfacet
  facet normal 0 0 1
    outer loop
      vertex -2.44098 5.64243 1.8
      vertex -1.88077 5.14606 1.8
      vertex -1.6114 5.11234 1.8
    endloop
  endfacet
  facet normal -0.848637 -0.528975 0
    outer loop
      vertex -2.44098 5.64243 1.8
      vertex -2.29971 5.41579 1.3
      vertex -2.29971 5.41579 1.8
    endloop
  endfacet
  facet normal -0 -0 1
    outer loop
      vertex -2.44098 5.64243 1.8
      vertex -2.29971 5.41579 1.8
      vertex -1.88077 5.14606 1.8
    endloop
  endfacet
  facet normal -0.845384 0.534159 0
    outer loop
      vertex -2.44098 6.82986 1.3
      vertex -2.29971 7.05344 1.8
      vertex -2.29971 7.05344 1.3
    endloop
  endfacet
  facet normal -0.845384 0.534159 0
    outer loop
      vertex -2.44098 6.82986 1.3
      vertex -2.44098 6.82986 1.8
      vertex -2.29971 7.05344 1.8
    endloop
  endfacet
  facet normal 0 0 1
    outer loop
      vertex -2.44098 6.82986 1.8
      vertex -0.896011 7.00259 1.8
      vertex -1.60466 7.35355 1.8
    endloop
  endfacet
  facet normal 0 0 1
    outer loop
      vertex -2.44098 6.82986 1.8
      vertex -1.60466 7.35355 1.8
      vertex -1.87778 7.32019 1.8
    endloop
  endfacet
  facet normal 0 0 1
    outer loop
      vertex -2.44098 6.82986 1.8
      vertex -1.87778 7.32019 1.8
      vertex -2.29971 7.05344 1.8
    endloop
  endfacet
  facet normal -0.888689 -0.458511 0
    outer loop
      vertex -2.49301 4.0206 1.3
      vertex -2.32196 3.68907 1.3
      vertex -2.49301 4.0206 1.8
    endloop
  endfacet
  facet normal 0 0 1
    outer loop
      vertex -2.49301 4.0206 1.8
      vertex -1.7572 4.63089 1.8
      vertex -2.15808 4.67987 1.8
    endloop
  endfacet
  facet normal -0.888689 -0.458511 0
    outer loop
      vertex -2.49301 4.0206 1.8
      vertex -2.32196 3.68907 1.3
      vertex -2.32196 3.68907 1.8
    endloop
  endfacet
  facet normal 0 0 1
    outer loop
      vertex -2.49301 4.0206 1.8
      vertex -2.32196 3.68907 1.8
      vertex -1.7572 4.63089 1.8
    endloop
  endfacet
  facet normal 0 0 1
    outer loop
      vertex -2.50168 4.82678 1.3
      vertex -2.11021 5.24721 1.3
      vertex -2.29971 5.41579 1.3
    endloop
  endfacet
  facet normal 0 0 1
    outer loop
      vertex -2.50168 4.82678 1.3
      vertex -2.15808 4.67987 1.3
      vertex -2.11021 5.24721 1.3
    endloop
  endfacet
  facet normal 0.393134 0.919481 0
    outer loop
      vertex -2.50168 4.82678 1.3
      vertex -2.50168 4.82678 1.8
      vertex -2.15808 4.67987 1.3
    endloop
  endfacet
  facet normal 0.393134 0.919481 -0
    outer loop
      vertex -2.50168 4.82678 1.8
      vertex -2.15808 4.67987 1.8
      vertex -2.15808 4.67987 1.3
    endloop
  endfacet
  facet normal 0 0 1
    outer loop
      vertex -2.50168 4.82678 1.8
      vertex -2.49301 4.0206 1.8
      vertex -2.15808 4.67987 1.8
    endloop
  endfacet
  facet normal -0.955678 -0.294413 0
    outer loop
      vertex -2.52576 5.91763 1.3
      vertex -2.44098 5.64243 1.3
      vertex -2.52576 5.91763 1.8
    endloop
  endfacet
  facet normal 0 0 1
    outer loop
      vertex -2.52576 5.91763 1.8
      vertex -0.646057 5.89447 1.8
      vertex -0.631561 6.07529 1.8
    endloop
  endfacet
  facet normal 0 -0 1
    outer loop
      vertex -2.52576 5.91763 1.8
      vertex -1.27539 5.16583 1.8
      vertex -0.646057 5.89447 1.8
    endloop
  endfacet
  facet normal 0 0 1
    outer loop
      vertex -2.52576 5.91763 1.8
      vertex -1.43925 5.12572 1.8
      vertex -1.27539 5.16583 1.8
    endloop
  endfacet
  facet normal 0 0 1
    outer loop
      vertex -2.52576 5.91763 1.8
      vertex -1.6114 5.11234 1.8
      vertex -1.43925 5.12572 1.8
    endloop
  endfacet
  facet normal -0.955678 -0.294413 0
    outer loop
      vertex -2.52576 5.91763 1.8
      vertex -2.44098 5.64243 1.3
      vertex -2.44098 5.64243 1.8
    endloop
  endfacet
  facet normal -0 -0 1
    outer loop
      vertex -2.52576 5.91763 1.8
      vertex -2.44098 5.64243 1.8
      vertex -1.6114 5.11234 1.8
    endloop
  endfacet
  facet normal -0.95428 0.298913 0
    outer loop
      vertex -2.52576 6.5592 1.3
      vertex -2.44098 6.82986 1.8
      vertex -2.44098 6.82986 1.3
    endloop
  endfacet
  facet normal -0.95428 0.298913 0
    outer loop
      vertex -2.52576 6.5592 1.3
      vertex -2.52576 6.5592 1.8
      vertex -2.44098 6.82986 1.8
    endloop
  endfacet
  facet normal -0 0 1
    outer loop
      vertex -2.52576 6.5592 1.8
      vertex -0.660934 6.43451 1.8
      vertex -0.749084 6.74361 1.8
    endloop
  endfacet
  facet normal 0 0 1
    outer loop
      vertex -2.52576 6.5592 1.8
      vertex -0.749084 6.74361 1.8
      vertex -0.896011 7.00259 1.8
    endloop
  endfacet
  facet normal 0 0 1
    outer loop
      vertex -2.52576 6.5592 1.8
      vertex -0.896011 7.00259 1.8
      vertex -2.44098 6.82986 1.8
    endloop
  endfacet
  facet normal -0.996219 -0.0868819 0
    outer loop
      vertex -2.554 6.24144 1.3
      vertex -2.52576 5.91763 1.3
      vertex -2.554 6.24144 1.8
    endloop
  endfacet
  facet normal -0.996074 0.0885232 0
    outer loop
      vertex -2.554 6.24144 1.3
      vertex -2.52576 6.5592 1.8
      vertex -2.52576 6.5592 1.3
    endloop
  endfacet
  facet normal -0.996074 0.0885232 0
    outer loop
      vertex -2.554 6.24144 1.3
      vertex -2.554 6.24144 1.8
      vertex -2.52576 6.5592 1.8
    endloop
  endfacet
  facet normal -0 0 1
    outer loop
      vertex -2.554 6.24144 1.8
      vertex -0.631561 6.07529 1.8
      vertex -0.660934 6.43451 1.8
    endloop
  endfacet
  facet normal 0 0 1
    outer loop
      vertex -2.554 6.24144 1.8
      vertex -0.660934 6.43451 1.8
      vertex -2.52576 6.5592 1.8
    endloop
  endfacet
  facet normal -0.996219 -0.0868819 0
    outer loop
      vertex -2.554 6.24144 1.8
      vertex -2.52576 5.91763 1.3
      vertex -2.52576 5.91763 1.8
    endloop
  endfacet
  facet normal 0 0 1
    outer loop
      vertex -2.554 6.24144 1.8
      vertex -2.52576 5.91763 1.8
      vertex -0.631561 6.07529 1.8
    endloop
  endfacet
  facet normal 0 0 1
    outer loop
      vertex -2.593 3.16785 1.3
      vertex -2.05296 3.49014 1.3
      vertex -2.32196 3.68907 1.3
    endloop
  endfacet
  facet normal 0 0 1
    outer loop
      vertex -2.593 3.16785 1.3
      vertex -2.34343 3.03693 1.3
      vertex -2.05296 3.49014 1.3
    endloop
  endfacet
  facet normal 0.464544 0.88555 0
    outer loop
      vertex -2.593 3.16785 1.3
      vertex -2.593 3.16785 1.8
      vertex -2.34343 3.03693 1.3
    endloop
  endfacet
  facet normal 0.464544 0.88555 -0
    outer loop
      vertex -2.593 3.16785 1.8
      vertex -2.34343 3.03693 1.8
      vertex -2.34343 3.03693 1.3
    endloop
  endfacet
  facet normal -0 0 1
    outer loop
      vertex -2.75406 7.41965 1.3
      vertex -2.29971 7.05344 1.3
      vertex -2.43723 7.65794 1.3
    endloop
  endfacet
  facet normal 0.601077 -0.799191 0
    outer loop
      vertex -2.75406 7.41965 1.3
      vertex -2.43723 7.65794 1.3
      vertex -2.43723 7.65794 1.8
    endloop
  endfacet
  facet normal 0.601077 -0.799191 0
    outer loop
      vertex -2.75406 7.41965 1.3
      vertex -2.43723 7.65794 1.8
      vertex -2.75406 7.41965 1.8
    endloop
  endfacet
  facet normal 0 0 1
    outer loop
      vertex -2.75406 7.41965 1.3
      vertex -2.44098 6.82986 1.3
      vertex -2.29971 7.05344 1.3
    endloop
  endfacet
  facet normal 0 0 1
    outer loop
      vertex -2.75406 7.41965 1.8
      vertex -2.43723 7.65794 1.8
      vertex -1.29443 15.5595 1.8
    endloop
  endfacet
  facet normal 0 0 1
    outer loop
      vertex -2.78801 5.07164 1.3
      vertex -2.29971 5.41579 1.3
      vertex -2.44098 5.64243 1.3
    endloop
  endfacet
  facet normal 0 0 1
    outer loop
      vertex -2.78801 5.07164 1.3
      vertex -2.50168 4.82678 1.3
      vertex -2.29971 5.41579 1.3
    endloop
  endfacet
  facet normal 0.649925 0.759998 0
    outer loop
      vertex -2.78801 5.07164 1.3
      vertex -2.78801 5.07164 1.8
      vertex -2.50168 4.82678 1.3
    endloop
  endfacet
  facet normal 0.649925 0.759998 -0
    outer loop
      vertex -2.78801 5.07164 1.8
      vertex -2.50168 4.82678 1.8
      vertex -2.50168 4.82678 1.3
    endloop
  endfacet
  facet normal 0 0 1
    outer loop
      vertex -2.79663 3.35715 1.3
      vertex -2.593 3.16785 1.3
      vertex -2.32196 3.68907 1.3
    endloop
  endfacet
  facet normal 0.680866 0.732408 0
    outer loop
      vertex -2.79663 3.35715 1.3
      vertex -2.79663 3.35715 1.8
      vertex -2.593 3.16785 1.3
    endloop
  endfacet
  facet normal 0.680866 0.732408 -0
    outer loop
      vertex -2.79663 3.35715 1.8
      vertex -2.593 3.16785 1.8
      vertex -2.593 3.16785 1.3
    endloop
  endfacet
  facet normal 0 0 1
    outer loop
      vertex -2.95767 3.61089 1.3
      vertex -2.32196 3.68907 1.3
      vertex -2.49301 4.0206 1.3
    endloop
  endfacet
  facet normal 0 0 1
    outer loop
      vertex -2.95767 3.61089 1.3
      vertex -2.79663 3.35715 1.3
      vertex -2.32196 3.68907 1.3
    endloop
  endfacet
  facet normal 0.84431 0.535855 0
    outer loop
      vertex -2.95767 3.61089 1.3
      vertex -2.79663 3.35715 1.8
      vertex -2.79663 3.35715 1.3
    endloop
  endfacet
  facet normal 0.84431 0.535855 0
    outer loop
      vertex -2.95767 3.61089 1.3
      vertex -2.95767 3.61089 1.8
      vertex -2.79663 3.35715 1.8
    endloop
  endfacet
  facet normal -0 0 1
    outer loop
      vertex -2.98764 7.09811 1.3
      vertex -2.44098 6.82986 1.3
      vertex -2.75406 7.41965 1.3
    endloop
  endfacet
  facet normal 0.809056 -0.587732 0
    outer loop
      vertex -2.98764 7.09811 1.3
      vertex -2.75406 7.41965 1.3
      vertex -2.98764 7.09811 1.8
    endloop
  endfacet
  facet normal 0.809056 -0.587732 0
    outer loop
      vertex -2.98764 7.09811 1.8
      vertex -2.75406 7.41965 1.3
      vertex -2.75406 7.41965 1.8
    endloop
  endfacet
  facet normal 0 0 1
    outer loop
      vertex -3.00273 5.39754 1.3
      vertex -2.44098 5.64243 1.3
      vertex -2.52576 5.91763 1.3
    endloop
  endfacet
  facet normal 0 0 1
    outer loop
      vertex -3.00273 5.39754 1.3
      vertex -2.78801 5.07164 1.3
      vertex -2.44098 5.64243 1.3
    endloop
  endfacet
  facet normal 0.83505 0.550175 0
    outer loop
      vertex -3.00273 5.39754 1.3
      vertex -2.78801 5.07164 1.8
      vertex -2.78801 5.07164 1.3
    endloop
  endfacet
  facet normal 0.83505 0.550175 0
    outer loop
      vertex -3.00273 5.39754 1.3
      vertex -3.00273 5.39754 1.8
      vertex -2.78801 5.07164 1.8
    endloop
  endfacet
  facet normal 0.155093 -0.9879 0
    outer loop
      vertex -3.07616 3.92905 1.3
      vertex -2.49301 4.0206 1.3
      vertex -2.49301 4.0206 1.8
    endloop
  endfacet
  facet normal 0.155093 -0.9879 0
    outer loop
      vertex -3.07616 3.92905 1.3
      vertex -2.49301 4.0206 1.8
      vertex -3.07616 3.92905 1.8
    endloop
  endfacet
  facet normal 0 -0 1
    outer loop
      vertex -3.07616 3.92905 1.3
      vertex -2.95767 3.61089 1.3
      vertex -2.49301 4.0206 1.3
    endloop
  endfacet
  facet normal 0.937121 0.349005 0
    outer loop
      vertex -3.07616 3.92905 1.3
      vertex -2.95767 3.61089 1.8
      vertex -2.95767 3.61089 1.3
    endloop
  endfacet
  facet normal 0.937121 0.349005 0
    outer loop
      vertex -3.07616 3.92905 1.3
      vertex -3.07616 3.92905 1.8
      vertex -2.95767 3.61089 1.8
    endloop
  endfacet
  facet normal 0 0 1
    outer loop
      vertex -3.07616 3.92905 1.8
      vertex -2.49301 4.0206 1.8
      vertex -2.50168 4.82678 1.8
    endloop
  endfacet
  facet normal 0 0 1
    outer loop
      vertex -3.07616 3.92905 1.8
      vertex -2.50168 4.82678 1.8
      vertex -2.78801 5.07164 1.8
    endloop
  endfacet
  facet normal 0 0 1
    outer loop
      vertex -3.07616 3.92905 1.8
      vertex -2.78801 5.07164 1.8
      vertex -3.00273 5.39754 1.8
    endloop
  endfacet
  facet normal 0 0 1
    outer loop
      vertex -3.12779 6.70538 1.3
      vertex -2.44098 6.82986 1.3
      vertex -2.98764 7.09811 1.3
    endloop
  endfacet
  facet normal 0 0 1
    outer loop
      vertex -3.12779 6.70538 1.3
      vertex -2.52576 6.5592 1.3
      vertex -2.44098 6.82986 1.3
    endloop
  endfacet
  facet normal 0.941826 -0.336101 0
    outer loop
      vertex -3.12779 6.70538 1.3
      vertex -2.98764 7.09811 1.3
      vertex -3.12779 6.70538 1.8
    endloop
  endfacet
  facet normal 0.941826 -0.336101 0
    outer loop
      vertex -3.12779 6.70538 1.8
      vertex -2.98764 7.09811 1.3
      vertex -2.98764 7.09811 1.8
    endloop
  endfacet
  facet normal 0 0 1
    outer loop
      vertex -3.13156 5.78746 1.3
      vertex -3.00273 5.39754 1.3
      vertex -2.52576 5.91763 1.3
    endloop
  endfacet
  facet normal 0.949515 0.313721 0
    outer loop
      vertex -3.13156 5.78746 1.3
      vertex -3.00273 5.39754 1.8
      vertex -3.00273 5.39754 1.3
    endloop
  endfacet
  facet normal 0.949515 0.313721 0
    outer loop
      vertex -3.13156 5.78746 1.3
      vertex -3.13156 5.78746 1.8
      vertex -3.00273 5.39754 1.8
    endloop
  endfacet
  facet normal 0 -0 1
    outer loop
      vertex -3.13156 5.78746 1.8
      vertex -3.07616 3.92905 1.8
      vertex -3.00273 5.39754 1.8
    endloop
  endfacet
  facet normal -0 0 1
    outer loop
      vertex -3.17451 6.24144 1.3
      vertex -2.52576 5.91763 1.3
      vertex -2.554 6.24144 1.3
    endloop
  endfacet
  facet normal 0 0 1
    outer loop
      vertex -3.17451 6.24144 1.3
      vertex -2.52576 6.5592 1.3
      vertex -3.12779 6.70538 1.3
    endloop
  endfacet
  facet normal 0 0 1
    outer loop
      vertex -3.17451 6.24144 1.3
      vertex -2.554 6.24144 1.3
      vertex -2.52576 6.5592 1.3
    endloop
  endfacet
  facet normal 0.994968 -0.100196 0
    outer loop
      vertex -3.17451 6.24144 1.3
      vertex -3.12779 6.70538 1.3
      vertex -3.17451 6.24144 1.8
    endloop
  endfacet
  facet normal 0 0 1
    outer loop
      vertex -3.17451 6.24144 1.3
      vertex -3.13156 5.78746 1.3
      vertex -2.52576 5.91763 1.3
    endloop
  endfacet
  facet normal 0.995555 0.0941871 0
    outer loop
      vertex -3.17451 6.24144 1.3
      vertex -3.13156 5.78746 1.8
      vertex -3.13156 5.78746 1.3
    endloop
  endfacet
  facet normal 0.995555 0.0941871 0
    outer loop
      vertex -3.17451 6.24144 1.3
      vertex -3.17451 6.24144 1.8
      vertex -3.13156 5.78746 1.8
    endloop
  endfacet
  facet normal 0.994968 -0.100196 0
    outer loop
      vertex -3.17451 6.24144 1.8
      vertex -3.12779 6.70538 1.3
      vertex -3.12779 6.70538 1.8
    endloop
  endfacet
  facet normal 0 0 1
    outer loop
      vertex -8.5 17.7062 1.8
      vertex -0.940456 17.7944 1.8
      vertex -0.940456 29.3706 1.8
    endloop
  endfacet
  facet normal 0 0 1
    outer loop
      vertex -8.5 17.7062 1.8
      vertex -0.940456 29.3706 1.8
      vertex -1.29443 29.7245 1.8
    endloop
  endfacet
  facet normal 0 0 1
    outer loop
      vertex -8.5 17.7062 1.8
      vertex -1.29443 15.5595 1.8
      vertex -1.52169 16.0056 1.8
    endloop
  endfacet
  facet normal 0 0 1
    outer loop
      vertex -8.5 17.7062 1.8
      vertex -1.29443 17.4405 1.8
      vertex -0.940456 17.7944 1.8
    endloop
  endfacet
  facet normal 0 0 1
    outer loop
      vertex -8.5 17.7062 1.8
      vertex -1.29443 29.7245 1.8
      vertex -1.52169 30.1706 1.8
    endloop
  endfacet
  facet normal 0 0 1
    outer loop
      vertex -8.5 17.7062 1.8
      vertex -1.52169 16.0056 1.8
      vertex -1.6 16.5 1.8
    endloop
  endfacet
  facet normal 0 0 1
    outer loop
      vertex -8.5 17.7062 1.8
      vertex -1.52169 16.9944 1.8
      vertex -1.29443 17.4405 1.8
    endloop
  endfacet
  facet normal 0 0 1
    outer loop
      vertex -8.5 17.7062 1.8
      vertex -1.52169 30.1706 1.8
      vertex -8.5 35 1.8
    endloop
  endfacet
  facet normal 0 0 1
    outer loop
      vertex -8.5 17.7062 1.8
      vertex -1.6 16.5 1.8
      vertex -1.52169 16.9944 1.8
    endloop
  endfacet
  facet normal 0 -0 1
    outer loop
      vertex -8.5 17.7062 1.8
      vertex -2.75406 7.41965 1.8
      vertex -1.29443 15.5595 1.8
    endloop
  endfacet
  facet normal 0 0 1
    outer loop
      vertex -8.5 17.7062 1.8
      vertex -2.98764 7.09811 1.8
      vertex -2.75406 7.41965 1.8
    endloop
  endfacet
  facet normal 0 0 -1
    outer loop
      vertex -8.5 17.7062 3.8147e-07
      vertex -0.940456 17.7944 3.8147e-07
      vertex -1.29443 17.4405 3.8147e-07
    endloop
  endfacet
  facet normal -0 0 -1
    outer loop
      vertex -8.5 17.7062 3.8147e-07
      vertex -0.940456 29.3706 3.8147e-07
      vertex -0.940456 17.7944 3.8147e-07
    endloop
  endfacet
  facet normal 0 0 -1
    outer loop
      vertex -8.5 17.7062 3.8147e-07
      vertex -1.29443 17.4405 3.8147e-07
      vertex -1.52169 16.9944 3.8147e-07
    endloop
  endfacet
  facet normal -0 0 -1
    outer loop
      vertex -8.5 17.7062 3.8147e-07
      vertex -1.29443 29.7245 3.8147e-07
      vertex -0.940456 29.3706 3.8147e-07
    endloop
  endfacet
  facet normal 0 0 -1
    outer loop
      vertex -8.5 17.7062 3.8147e-07
      vertex -1.52169 16.0056 3.8147e-07
      vertex -1.29443 15.5595 3.8147e-07
    endloop
  endfacet
  facet normal 0 0 -1
    outer loop
      vertex -8.5 17.7062 3.8147e-07
      vertex -1.52169 16.9944 3.8147e-07
      vertex -1.6 16.5 3.8147e-07
    endloop
  endfacet
  facet normal -0 0 -1
    outer loop
      vertex -8.5 17.7062 3.8147e-07
      vertex -1.52169 30.1706 3.8147e-07
      vertex -1.29443 29.7245 3.8147e-07
    endloop
  endfacet
  facet normal 0 0 -1
    outer loop
      vertex -8.5 17.7062 3.8147e-07
      vertex -1.6 16.5 3.8147e-07
      vertex -1.52169 16.0056 3.8147e-07
    endloop
  endfacet
  facet normal -1 -0 0
    outer loop
      vertex -8.5 17.7062 3.8147e-07
      vertex -8.5 17.7062 1.8
      vertex -8.5 35 1.8
    endloop
  endfacet
  facet normal -1 0 0
    outer loop
      vertex -8.5 17.7062 3.8147e-07
      vertex -8.5 35 1.8
      vertex -8.5 35 3.8147e-07
    endloop
  endfacet
  facet normal 0 0 -1
    outer loop
      vertex -8.5 17.7062 3.8147e-07
      vertex -8.5 35 3.8147e-07
      vertex -1.52169 30.1706 3.8147e-07
    endloop
  endfacet
  facet normal 0 0 1
    outer loop
      vertex -8.5 35 1.8
      vertex -0.494427 32.1867 1.8
      vertex 0 32.265 1.8
    endloop
  endfacet
  facet normal 0 0 1
    outer loop
      vertex -8.5 35 1.8
      vertex -0.940456 31.9594 1.8
      vertex -0.494427 32.1867 1.8
    endloop
  endfacet
  facet normal 0 0 1
    outer loop
      vertex -8.5 35 1.8
      vertex -1.29443 31.6055 1.8
      vertex -0.940456 31.9594 1.8
    endloop
  endfacet
  facet normal 0 0 1
    outer loop
      vertex -8.5 35 1.8
      vertex -1.52169 30.1706 1.8
      vertex -1.6 30.665 1.8
    endloop
  endfacet
  facet normal 0 0 1
    outer loop
      vertex -8.5 35 1.8
      vertex -1.52169 31.1594 1.8
      vertex -1.29443 31.6055 1.8
    endloop
  endfacet
  facet normal 0 0 1
    outer loop
      vertex -8.5 35 1.8
      vertex -1.6 30.665 1.8
      vertex -1.52169 31.1594 1.8
    endloop
  endfacet
  facet normal -0 0 1
    outer loop
      vertex -8.5 35 1.8
      vertex 0 32.265 1.8
      vertex 8.5 35 1.8
    endloop
  endfacet
  facet normal 0 1 -0
    outer loop
      vertex -8.5 35 1.8
      vertex 8.5 35 1.8
      vertex 8.5 35 3.8147e-07
    endloop
  endfacet
  facet normal 0 0 -1
    outer loop
      vertex -8.5 35 3.8147e-07
      vertex -0.494427 32.1867 3.8147e-07
      vertex -0.940456 31.9594 3.8147e-07
    endloop
  endfacet
  facet normal 0 0 -1
    outer loop
      vertex -8.5 35 3.8147e-07
      vertex -0.940456 31.9594 3.8147e-07
      vertex -1.29443 31.6055 3.8147e-07
    endloop
  endfacet
  facet normal 0 0 -1
    outer loop
      vertex -8.5 35 3.8147e-07
      vertex -1.29443 31.6055 3.8147e-07
      vertex -1.52169 31.1594 3.8147e-07
    endloop
  endfacet
  facet normal 0 0 -1
    outer loop
      vertex -8.5 35 3.8147e-07
      vertex -1.52169 31.1594 3.8147e-07
      vertex -1.6 30.665 3.8147e-07
    endloop
  endfacet
  facet normal 0 0 -1
    outer loop
      vertex -8.5 35 3.8147e-07
      vertex -1.6 30.665 3.8147e-07
      vertex -1.52169 30.1706 3.8147e-07
    endloop
  endfacet
  facet normal 0 1 0
    outer loop
      vertex -8.5 35 3.8147e-07
      vertex -8.5 35 1.8
      vertex 8.5 35 3.8147e-07
    endloop
  endfacet
  facet normal 0 0 -1
    outer loop
      vertex -8.5 35 3.8147e-07
      vertex 0 32.265 3.8147e-07
      vertex -0.494427 32.1867 3.8147e-07
    endloop
  endfacet
  facet normal 0 0 -1
    outer loop
      vertex -8.5 35 3.8147e-07
      vertex 8.5 35 3.8147e-07
      vertex 0 32.265 3.8147e-07
    endloop
  endfacet
  facet normal -0.156416 0.987691 0
    outer loop
      vertex 0 14.9 1.8
      vertex 0.494427 14.9783 1.8
      vertex 0.494427 14.9783 3.8147e-07
    endloop
  endfacet
  facet normal -0.156416 0.987691 0
    outer loop
      vertex 0 14.9 3.8147e-07
      vertex 0 14.9 1.8
      vertex 0.494427 14.9783 3.8147e-07
    endloop
  endfacet
  facet normal 0 0 -1
    outer loop
      vertex 0 14.9 3.8147e-07
      vertex 0.494427 14.9783 3.8147e-07
      vertex 11.7874 2.24858 3.8147e-07
    endloop
  endfacet
  facet normal 0 0 1
    outer loop
      vertex 0 18.1 1.8
      vertex 0.494427 18.0217 1.8
      vertex 0 29.065 1.8
    endloop
  endfacet
  facet normal 0 0 -1
    outer loop
      vertex 0 18.1 3.8147e-07
      vertex 0 29.065 3.8147e-07
      vertex 0.494427 29.1433 3.8147e-07
    endloop
  endfacet
  facet normal -0.156416 -0.987691 0
    outer loop
      vertex 0 18.1 3.8147e-07
      vertex 0.494427 18.0217 1.8
      vertex 0 18.1 1.8
    endloop
  endfacet
  facet normal -0.156416 -0.987691 -0
    outer loop
      vertex 0 18.1 3.8147e-07
      vertex 0.494427 18.0217 3.8147e-07
      vertex 0.494427 18.0217 1.8
    endloop
  endfacet
  facet normal 0 0 -1
    outer loop
      vertex 0 18.1 3.8147e-07
      vertex 0.494427 29.1433 3.8147e-07
      vertex 0.494427 18.0217 3.8147e-07
    endloop
  endfacet
  facet normal -0 0 1
    outer loop
      vertex 0 29.065 1.8
      vertex 0.494427 18.0217 1.8
      vertex 0.494427 29.1433 1.8
    endloop
  endfacet
  facet normal -0.156416 0.987691 0
    outer loop
      vertex 0 29.065 1.8
      vertex 0.494427 29.1433 1.8
      vertex 0.494427 29.1433 3.8147e-07
    endloop
  endfacet
  facet normal -0.156416 0.987691 0
    outer loop
      vertex 0 29.065 3.8147e-07
      vertex 0 29.065 1.8
      vertex 0.494427 29.1433 3.8147e-07
    endloop
  endfacet
  facet normal 0 0 1
    outer loop
      vertex 0 32.265 1.8
      vertex 0.494427 32.1867 1.8
      vertex 8.5 35 1.8
    endloop
  endfacet
  facet normal -0.156416 -0.987691 0
    outer loop
      vertex 0 32.265 3.8147e-07
      vertex 0.494427 32.1867 1.8
      vertex 0 32.265 1.8
    endloop
  endfacet
  facet normal -0.156416 -0.987691 -0
    outer loop
      vertex 0 32.265 3.8147e-07
      vertex 0.494427 32.1867 3.8147e-07
      vertex 0.494427 32.1867 1.8
    endloop
  endfacet
  facet normal 0 0 -1
    outer loop
      vertex 0 32.265 3.8147e-07
      vertex 8.5 35 3.8147e-07
      vertex 0.494427 32.1867 3.8147e-07
    endloop
  endfacet
  facet normal 0 0 1
    outer loop
      vertex 0.0330353 5.48534 1.8
      vertex 0.940456 15.2056 1.8
      vertex 0.494427 14.9783 1.8
    endloop
  endfacet
  facet normal 0 0 1
    outer loop
      vertex 0.0330353 5.48534 1.8
      vertex 1.29443 15.5595 1.8
      vertex 0.940456 15.2056 1.8
    endloop
  endfacet
  facet normal -0 0 1
    outer loop
      vertex 0.0330353 5.48534 1.8
      vertex 11.7874 2.24858 1.8
      vertex 8.5 17.7062 1.8
    endloop
  endfacet
  facet normal 0 0 1
    outer loop
      vertex 0.0330353 5.48534 1.8
      vertex 8.5 17.7062 1.8
      vertex 1.29443 15.5595 1.8
    endloop
  endfacet
  facet normal -0.454049 0.890977 0
    outer loop
      vertex 0.494427 14.9783 1.8
      vertex 0.940456 15.2056 1.8
      vertex 0.940456 15.2056 3.8147e-07
    endloop
  endfacet
  facet normal -0.454049 0.890977 0
    outer loop
      vertex 0.494427 14.9783 3.8147e-07
      vertex 0.494427 14.9783 1.8
      vertex 0.940456 15.2056 3.8147e-07
    endloop
  endfacet
  facet normal 0 0 -1
    outer loop
      vertex 0.494427 14.9783 3.8147e-07
      vertex 0.940456 15.2056 3.8147e-07
      vertex 11.7874 2.24858 3.8147e-07
    endloop
  endfacet
  facet normal 0 0 1
    outer loop
      vertex 0.494427 18.0217 1.8
      vertex 0.940456 17.7944 1.8
      vertex 0.494427 29.1433 1.8
    endloop
  endfacet
  facet normal 0 0 -1
    outer loop
      vertex 0.494427 18.0217 3.8147e-07
      vertex 0.494427 29.1433 3.8147e-07
      vertex 0.940456 29.3706 3.8147e-07
    endloop
  endfacet
  facet normal -0.454049 -0.890977 0
    outer loop
      vertex 0.494427 18.0217 3.8147e-07
      vertex 0.940456 17.7944 1.8
      vertex 0.494427 18.0217 1.8
    endloop
  endfacet
  facet normal -0.454049 -0.890977 -0
    outer loop
      vertex 0.494427 18.0217 3.8147e-07
      vertex 0.940456 17.7944 3.8147e-07
      vertex 0.940456 17.7944 1.8
    endloop
  endfacet
  facet normal 0 0 -1
    outer loop
      vertex 0.494427 18.0217 3.8147e-07
      vertex 0.940456 29.3706 3.8147e-07
      vertex 0.940456 17.7944 3.8147e-07
    endloop
  endfacet
  facet normal -0 0 1
    outer loop
      vertex 0.494427 29.1433 1.8
      vertex 0.940456 17.7944 1.8
      vertex 0.940456 29.3706 1.8
    endloop
  endfacet
  facet normal -0.454049 0.890977 0
    outer loop
      vertex 0.494427 29.1433 1.8
      vertex 0.940456 29.3706 1.8
      vertex 0.940456 29.3706 3.8147e-07
    endloop
  endfacet
  facet normal -0.454049 0.890977 0
    outer loop
      vertex 0.494427 29.1433 3.8147e-07
      vertex 0.494427 29.1433 1.8
      vertex 0.940456 29.3706 3.8147e-07
    endloop
  endfacet
  facet normal 0 0 1
    outer loop
      vertex 0.494427 32.1867 1.8
      vertex 0.940456 31.9594 1.8
      vertex 8.5 35 1.8
    endloop
  endfacet
  facet normal -0.454049 -0.890977 0
    outer loop
      vertex 0.494427 32.1867 3.8147e-07
      vertex 0.940456 31.9594 1.8
      vertex 0.494427 32.1867 1.8
    endloop
  endfacet
  facet normal -0.454049 -0.890977 -0
    outer loop
      vertex 0.494427 32.1867 3.8147e-07
      vertex 0.940456 31.9594 3.8147e-07
      vertex 0.940456 31.9594 1.8
    endloop
  endfacet
  facet normal 0 0 -1
    outer loop
      vertex 0.494427 32.1867 3.8147e-07
      vertex 8.5 35 3.8147e-07
      vertex 0.940456 31.9594 3.8147e-07
    endloop
  endfacet
  facet normal -0.707033 0.707181 0
    outer loop
      vertex 0.940456 15.2056 3.8147e-07
      vertex 0.940456 15.2056 1.8
      vertex 1.29443 15.5595 1.8
    endloop
  endfacet
  facet normal -0.707033 0.707181 0
    outer loop
      vertex 0.940456 15.2056 3.8147e-07
      vertex 1.29443 15.5595 1.8
      vertex 1.29443 15.5595 3.8147e-07
    endloop
  endfacet
  facet normal 0 0 -1
    outer loop
      vertex 0.940456 15.2056 3.8147e-07
      vertex 1.29443 15.5595 3.8147e-07
      vertex 8.5 17.7062 3.8147e-07
    endloop
  endfacet
  facet normal 0 0 -1
    outer loop
      vertex 0.940456 15.2056 3.8147e-07
      vertex 8.5 17.7062 3.8147e-07
      vertex 11.7874 2.24858 3.8147e-07
    endloop
  endfacet
  facet normal 0 0 1
    outer loop
      vertex 0.940456 17.7944 1.8
      vertex 1.29443 17.4405 1.8
      vertex 8.5 17.7062 1.8
    endloop
  endfacet
  facet normal -0.707033 -0.707181 0
    outer loop
      vertex 0.940456 17.7944 1.8
      vertex 1.29443 17.4405 3.8147e-07
      vertex 1.29443 17.4405 1.8
    endloop
  endfacet
  facet normal -0 0 1
    outer loop
      vertex 0.940456 17.7944 1.8
      vertex 8.5 17.7062 1.8
      vertex 0.940456 29.3706 1.8
    endloop
  endfacet
  facet normal 0 0 -1
    outer loop
      vertex 0.940456 17.7944 3.8147e-07
      vertex 0.940456 29.3706 3.8147e-07
      vertex 8.5 17.7062 3.8147e-07
    endloop
  endfacet
  facet normal -0.707033 -0.707181 0
    outer loop
      vertex 0.940456 17.7944 3.8147e-07
      vertex 1.29443 17.4405 3.8147e-07
      vertex 0.940456 17.7944 1.8
    endloop
  endfacet
  facet normal 0 0 -1
    outer loop
      vertex 0.940456 17.7944 3.8147e-07
      vertex 8.5 17.7062 3.8147e-07
      vertex 1.29443 17.4405 3.8147e-07
    endloop
  endfacet
  facet normal -0.707033 0.707181 0
    outer loop
      vertex 0.940456 29.3706 1.8
      vertex 1.29443 29.7245 1.8
      vertex 1.29443 29.7245 3.8147e-07
    endloop
  endfacet
  facet normal -0 0 1
    outer loop
      vertex 0.940456 29.3706 1.8
      vertex 8.5 17.7062 1.8
      vertex 1.29443 29.7245 1.8
    endloop
  endfacet
  facet normal -0.707033 0.707181 0
    outer loop
      vertex 0.940456 29.3706 3.8147e-07
      vertex 0.940456 29.3706 1.8
      vertex 1.29443 29.7245 3.8147e-07
    endloop
  endfacet
  facet normal 0 0 -1
    outer loop
      vertex 0.940456 29.3706 3.8147e-07
      vertex 1.29443 29.7245 3.8147e-07
      vertex 8.5 17.7062 3.8147e-07
    endloop
  endfacet
  facet normal 0 0 1
    outer loop
      vertex 0.940456 31.9594 1.8
      vertex 1.29443 31.6055 1.8
      vertex 8.5 35 1.8
    endloop
  endfacet
  facet normal -0.707033 -0.707181 0
    outer loop
      vertex 0.940456 31.9594 1.8
      vertex 1.29443 31.6055 3.8147e-07
      vertex 1.29443 31.6055 1.8
    endloop
  endfacet
  facet normal -0.707033 -0.707181 0
    outer loop
      vertex 0.940456 31.9594 3.8147e-07
      vertex 1.29443 31.6055 3.8147e-07
      vertex 0.940456 31.9594 1.8
    endloop
  endfacet
  facet normal 0 0 -1
    outer loop
      vertex 0.940456 31.9594 3.8147e-07
      vertex 8.5 35 3.8147e-07
      vertex 1.29443 31.6055 3.8147e-07
    endloop
  endfacet
  facet normal 0 0 1
    outer loop
      vertex 1.29443 15.5595 1.8
      vertex 8.5 17.7062 1.8
      vertex 1.52169 16.0056 1.8
    endloop
  endfacet
  facet normal -0.891038 0.453928 0
    outer loop
      vertex 1.29443 15.5595 3.8147e-07
      vertex 1.29443 15.5595 1.8
      vertex 1.52169 16.0056 1.8
    endloop
  endfacet
  facet normal -0.891038 0.453928 0
    outer loop
      vertex 1.29443 15.5595 3.8147e-07
      vertex 1.52169 16.0056 1.8
      vertex 1.52169 16.0056 3.8147e-07
    endloop
  endfacet
  facet normal 0 0 -1
    outer loop
      vertex 1.29443 15.5595 3.8147e-07
      vertex 1.52169 16.0056 3.8147e-07
      vertex 8.5 17.7062 3.8147e-07
    endloop
  endfacet
  facet normal 0 0 1
    outer loop
      vertex 1.29443 17.4405 1.8
      vertex 1.52169 16.9944 1.8
      vertex 8.5 17.7062 1.8
    endloop
  endfacet
  facet normal -0.891038 -0.453928 0
    outer loop
      vertex 1.29443 17.4405 1.8
      vertex 1.52169 16.9944 3.8147e-07
      vertex 1.52169 16.9944 1.8
    endloop
  endfacet
  facet normal -0.891038 -0.453928 0
    outer loop
      vertex 1.29443 17.4405 3.8147e-07
      vertex 1.52169 16.9944 3.8147e-07
      vertex 1.29443 17.4405 1.8
    endloop
  endfacet
  facet normal 0 0 -1
    outer loop
      vertex 1.29443 17.4405 3.8147e-07
      vertex 8.5 17.7062 3.8147e-07
      vertex 1.52169 16.9944 3.8147e-07
    endloop
  endfacet
  facet normal -0 0 1
    outer loop
      vertex 1.29443 29.7245 1.8
      vertex 8.5 17.7062 1.8
      vertex 1.52169 30.1706 1.8
    endloop
  endfacet
  facet normal -0.891038 0.453928 0
    outer loop
      vertex 1.29443 29.7245 3.8147e-07
      vertex 1.29443 29.7245 1.8
      vertex 1.52169 30.1706 1.8
    endloop
  endfacet
  facet normal -0.891038 0.453928 0
    outer loop
      vertex 1.29443 29.7245 3.8147e-07
      vertex 1.52169 30.1706 1.8
      vertex 1.52169 30.1706 3.8147e-07
    endloop
  endfacet
  facet normal 0 0 -1
    outer loop
      vertex 1.29443 29.7245 3.8147e-07
      vertex 1.52169 30.1706 3.8147e-07
      vertex 8.5 17.7062 3.8147e-07
    endloop
  endfacet
  facet normal 0 0 1
    outer loop
      vertex 1.29443 31.6055 1.8
      vertex 1.52169 31.1594 1.8
      vertex 8.5 35 1.8
    endloop
  endfacet
  facet normal -0.891038 -0.453928 0
    outer loop
      vertex 1.29443 31.6055 1.8
      vertex 1.52169 31.1594 3.8147e-07
      vertex 1.52169 31.1594 1.8
    endloop
  endfacet
  facet normal -0.891038 -0.453928 0
    outer loop
      vertex 1.29443 31.6055 3.8147e-07
      vertex 1.52169 31.1594 3.8147e-07
      vertex 1.29443 31.6055 1.8
    endloop
  endfacet
  facet normal 0 0 -1
    outer loop
      vertex 1.29443 31.6055 3.8147e-07
      vertex 8.5 35 3.8147e-07
      vertex 1.52169 31.1594 3.8147e-07
    endloop
  endfacet
  facet normal 0 0 1
    outer loop
      vertex 1.52169 16.0056 1.8
      vertex 8.5 17.7062 1.8
      vertex 1.6 16.5 1.8
    endloop
  endfacet
  facet normal -0.987687 0.156444 0
    outer loop
      vertex 1.52169 16.0056 3.8147e-07
      vertex 1.52169 16.0056 1.8
      vertex 1.6 16.5 1.8
    endloop
  endfacet
  facet normal -0.987687 0.156444 0
    outer loop
      vertex 1.52169 16.0056 3.8147e-07
      vertex 1.6 16.5 1.8
      vertex 1.6 16.5 3.8147e-07
    endloop
  endfacet
  facet normal 0 0 -1
    outer loop
      vertex 1.52169 16.0056 3.8147e-07
      vertex 1.6 16.5 3.8147e-07
      vertex 8.5 17.7062 3.8147e-07
    endloop
  endfacet
  facet normal 0 0 1
    outer loop
      vertex 1.52169 16.9944 1.8
      vertex 1.6 16.5 1.8
      vertex 8.5 17.7062 1.8
    endloop
  endfacet
  facet normal -0.987687 -0.156444 0
    outer loop
      vertex 1.52169 16.9944 1.8
      vertex 1.6 16.5 3.8147e-07
      vertex 1.6 16.5 1.8
    endloop
  endfacet
  facet normal -0.987687 -0.156444 0
    outer loop
      vertex 1.52169 16.9944 3.8147e-07
      vertex 1.6 16.5 3.8147e-07
      vertex 1.52169 16.9944 1.8
    endloop
  endfacet
  facet normal 0 0 -1
    outer loop
      vertex 1.52169 16.9944 3.8147e-07
      vertex 8.5 17.7062 3.8147e-07
      vertex 1.6 16.5 3.8147e-07
    endloop
  endfacet
  facet normal 0 0 1
    outer loop
      vertex 1.52169 30.1706 1.8
      vertex 8.5 17.7062 1.8
      vertex 8.5 35 1.8
    endloop
  endfacet
  facet normal 0 0 1
    outer loop
      vertex 1.52169 30.1706 1.8
      vertex 8.5 35 1.8
      vertex 1.6 30.665 1.8
    endloop
  endfacet
  facet normal -0.987687 0.156444 0
    outer loop
      vertex 1.52169 30.1706 3.8147e-07
      vertex 1.52169 30.1706 1.8
      vertex 1.6 30.665 1.8
    endloop
  endfacet
  facet normal -0.987687 0.156444 0
    outer loop
      vertex 1.52169 30.1706 3.8147e-07
      vertex 1.6 30.665 1.8
      vertex 1.6 30.665 3.8147e-07
    endloop
  endfacet
  facet normal 0 0 -1
    outer loop
      vertex 1.52169 30.1706 3.8147e-07
      vertex 1.6 30.665 3.8147e-07
      vertex 8.5 17.7062 3.8147e-07
    endloop
  endfacet
  facet normal 0 0 1
    outer loop
      vertex 1.52169 31.1594 1.8
      vertex 1.6 30.665 1.8
      vertex 8.5 35 1.8
    endloop
  endfacet
  facet normal -0.987687 -0.156444 0
    outer loop
      vertex 1.52169 31.1594 1.8
      vertex 1.6 30.665 3.8147e-07
      vertex 1.6 30.665 1.8
    endloop
  endfacet
  facet normal -0.987687 -0.156444 0
    outer loop
      vertex 1.52169 31.1594 3.8147e-07
      vertex 1.6 30.665 3.8147e-07
      vertex 1.52169 31.1594 1.8
    endloop
  endfacet
  facet normal 0 0 -1
    outer loop
      vertex 1.52169 31.1594 3.8147e-07
      vertex 8.5 35 3.8147e-07
      vertex 1.6 30.665 3.8147e-07
    endloop
  endfacet
  facet normal 0 0 -1
    outer loop
      vertex 1.6 30.665 3.8147e-07
      vertex 8.5 35 3.8147e-07
      vertex 8.5 17.7062 3.8147e-07
    endloop
  endfacet
  facet normal 0.987674 0.156525 0
    outer loop
      vertex 11.7874 2.24858 3.8147e-07
      vertex 11.7874 2.24858 1.8
      vertex 11.9054 1.504 1.8
    endloop
  endfacet
  facet normal 0.987674 0.156525 0
    outer loop
      vertex 11.7874 2.24858 3.8147e-07
      vertex 11.9054 1.504 1.8
      vertex 11.9054 1.504 3.8147e-07
    endloop
  endfacet
  facet normal 0 0 -1
    outer loop
      vertex 11.7874 2.24858 3.8147e-07
      vertex 11.9054 1.504 3.8147e-07
      vertex 12 0 3.8147e-07
    endloop
  endfacet
  facet normal 0.995567 0.0940499 0
    outer loop
      vertex 11.9054 1.504 3.8147e-07
      vertex 11.9054 1.504 1.8
      vertex 11.9763 0.753486 1.8
    endloop
  endfacet
  facet normal 0.995567 0.0940499 0
    outer loop
      vertex 11.9054 1.504 3.8147e-07
      vertex 11.9763 0.753486 1.8
      vertex 11.9763 0.753486 3.8147e-07
    endloop
  endfacet
  facet normal 0 0 -1
    outer loop
      vertex 11.9054 1.504 3.8147e-07
      vertex 11.9763 0.753486 3.8147e-07
      vertex 12 0 3.8147e-07
    endloop
  endfacet
  facet normal 0.999506 0.0314383 0
    outer loop
      vertex 11.9763 0.753486 3.8147e-07
      vertex 11.9763 0.753486 1.8
      vertex 12 0 1.8
    endloop
  endfacet
  facet normal 0.999506 0.0314383 0
    outer loop
      vertex 11.9763 0.753486 3.8147e-07
      vertex 12 0 1.8
      vertex 12 0 3.8147e-07
    endloop
  endfacet
  facet normal 1 -0 0
    outer loop
      vertex 8.5 17.7062 1.8
      vertex 8.5 35 3.8147e-07
      vertex 8.5 35 1.8
    endloop
  endfacet
  facet normal 0.978125 0.20802 0
    outer loop
      vertex 8.5 17.7062 3.8147e-07
      vertex 11.7874 2.24858 1.8
      vertex 11.7874 2.24858 3.8147e-07
    endloop
  endfacet
  facet normal 0.978125 0.20802 0
    outer loop
      vertex 8.5 17.7062 3.8147e-07
      vertex 8.5 17.7062 1.8
      vertex 11.7874 2.24858 1.8
    endloop
  endfacet
  facet normal 1 0 0
    outer loop
      vertex 8.5 17.7062 3.8147e-07
      vertex 8.5 35 3.8147e-07
      vertex 8.5 17.7062 1.8
    endloop
  endfacet
endsolid model
