solid model
  facet normal -0.0625236 -0.993832 0.0915862
    outer loop
      vertex -0.199047 0.303811 1.56087
      vertex 0.0667881 0.287473 1.56506
      vertex 0.257441 1.10809 10.6
    endloop
  endfacet
  facet normal 0.0627828 0.998027 0
    outer loop
      vertex -0.299809 3.62834 -2.6
      vertex -0.299809 3.62834 6.55
      vertex 0.100465 3.60316 -2.6
    endloop
  endfacet
  facet normal 0 0 -1
    outer loop
      vertex -0.299809 3.62834 -2.6
      vertex 0.100465 3.60316 -2.6
      vertex 0 0 -2.6
    endloop
  endfacet
  facet normal 0.0627828 0.998027 -0
    outer loop
      vertex -0.299809 3.62834 6.55
      vertex 0.100465 3.60316 6.55
      vertex 0.100465 3.60316 -2.6
    endloop
  endfacet
  facet normal 0.0627828 -0.998027 0
    outer loop
      vertex -0.299809 6.77166 -2.6
      vertex 0.100465 6.79684 -2.6
      vertex 0.100465 6.79684 6.55
    endloop
  endfacet
  facet normal 0.0627828 -0.998027 0
    outer loop
      vertex -0.299809 6.77166 -2.6
      vertex 0.100465 6.79684 6.55
      vertex -0.299809 6.77166 6.55
    endloop
  endfacet
  facet normal 0 0 -1
    outer loop
      vertex -0.299809 6.77166 -2.6
      vertex 0.257441 9.29191 -2.6
      vertex 0.100465 6.79684 -2.6
    endloop
  endfacet
  facet normal 0 -0.125341 0.992114
    outer loop
      vertex -0.509529 0.397903 -1.54973
      vertex 0 0 -1.6
      vertex 1.33064 0.397903 -1.54973
    endloop
  endfacet
  facet normal -0.615484 -0.788149 0
    outer loop
      vertex -0.509529 0.397903 -1.54973
      vertex 0 0 -2.6
      vertex 0 0 -1.6
    endloop
  endfacet
  facet normal 0 -0.368119 0.929778
    outer loop
      vertex -0.509529 0.397903 -1.54973
      vertex 1.33064 0.397903 -1.54973
      vertex 1.6405 0.770805 -1.40209
    endloop
  endfacet
  facet normal 3.00415e-05 -0.248667 -0.968589
    outer loop
      vertex -0.665245 0.519506 1.50548
      vertex -0.199047 0.303811 1.56087
      vertex -0.449356 0.383592 1.54038
    endloop
  endfacet
  facet normal -2.33707e-05 -0.248775 -0.968561
    outer loop
      vertex -0.665245 0.519506 1.50548
      vertex 0.0667881 0.287473 1.56506
      vertex -0.199047 0.303811 1.56087
    endloop
  endfacet
  facet normal 0.309024 0.951054 0
    outer loop
      vertex -0.681247 3.75228 -2.6
      vertex -0.681247 3.75228 6.55
      vertex -0.299809 3.62834 -2.6
    endloop
  endfacet
  facet normal 0.309024 0.951054 -0
    outer loop
      vertex -0.681247 3.75228 6.55
      vertex -0.299809 3.62834 6.55
      vertex -0.299809 3.62834 -2.6
    endloop
  endfacet
  facet normal 0.309024 -0.951054 0
    outer loop
      vertex -0.681247 6.64772 -2.6
      vertex -0.299809 6.77166 -2.6
      vertex -0.299809 6.77166 6.55
    endloop
  endfacet
  facet normal 0.309024 -0.951054 0
    outer loop
      vertex -0.681247 6.64772 -2.6
      vertex -0.299809 6.77166 6.55
      vertex -0.681247 6.64772 6.55
    endloop
  endfacet
  facet normal 2.96198e-05 -0.248618 -0.968602
    outer loop
      vertex -0.754233 0.588999 1.48764
      vertex 0.0667881 0.287473 1.56506
      vertex -0.665245 0.519506 1.50548
    endloop
  endfacet
  facet normal 0 -0.248694 -0.968582
    outer loop
      vertex -0.754233 0.588999 1.48764
      vertex 1.48311 0.588999 1.48764
      vertex 0.0667881 0.287473 1.56506
    endloop
  endfacet
  facet normal 0 -0.481744 -0.876312
    outer loop
      vertex -0.754233 0.588999 1.48764
      vertex 1.78148 0.940456 1.29443
      vertex 1.48311 0.588999 1.48764
    endloop
  endfacet
  facet normal -0.0625249 -0.993832 0.0915863
    outer loop
      vertex -0.768263 1.17262 10.6
      vertex -0.199047 0.303811 1.56087
      vertex 0.257441 1.10809 10.6
    endloop
  endfacet
  facet normal -0.308223 -0.948603 0.0717668
    outer loop
      vertex -0.768263 1.17262 10.6
      vertex -0.449356 0.383592 1.54038
      vertex -0.199047 0.303811 1.56087
    endloop
  endfacet
  facet normal 0 0 -1
    outer loop
      vertex -0.768263 9.22738 -2.6
      vertex -0.299809 6.77166 -2.6
      vertex -0.681247 6.64772 -2.6
    endloop
  endfacet
  facet normal -0.0627887 0.998027 0
    outer loop
      vertex -0.768263 9.22738 -2.6
      vertex -0.768263 9.22738 10.6
      vertex 0.257441 9.29191 -2.6
    endloop
  endfacet
  facet normal 0 0 -1
    outer loop
      vertex -0.768263 9.22738 -2.6
      vertex 0.257441 9.29191 -2.6
      vertex -0.299809 6.77166 -2.6
    endloop
  endfacet
  facet normal -0.0627887 0.998027 0
    outer loop
      vertex -0.768263 9.22738 10.6
      vertex 0.257441 9.29191 10.6
      vertex 0.257441 9.29191 -2.6
    endloop
  endfacet
  facet normal 0 -0.368119 0.929778
    outer loop
      vertex -0.987043 0.770805 -1.40209
      vertex -0.509529 0.397903 -1.54973
      vertex 1.6405 0.770805 -1.40209
    endloop
  endfacet
  facet normal -0.615484 -0.788149 -2.4038e-07
    outer loop
      vertex -0.987043 0.770805 -1.40209
      vertex 0 0 -2.6
      vertex -0.509529 0.397903 -1.54973
    endloop
  endfacet
  facet normal 0 -0.587789 0.809014
    outer loop
      vertex -0.987043 0.770805 -1.40209
      vertex 1.6405 0.770805 -1.40209
      vertex 1.91012 1.09527 -1.16635
    endloop
  endfacet
  facet normal 0.535821 0.844331 0
    outer loop
      vertex -1.01988 3.96718 -2.6
      vertex -1.01988 3.96718 6.55
      vertex -0.681247 3.75228 -2.6
    endloop
  endfacet
  facet normal 0.535821 0.844331 -0
    outer loop
      vertex -1.01988 3.96718 6.55
      vertex -0.681247 3.75228 6.55
      vertex -0.681247 3.75228 -2.6
    endloop
  endfacet
  facet normal 0.535821 -0.844331 0
    outer loop
      vertex -1.01988 6.43282 -2.6
      vertex -0.681247 6.64772 -2.6
      vertex -0.681247 6.64772 6.55
    endloop
  endfacet
  facet normal 0.535821 -0.844331 0
    outer loop
      vertex -1.01988 6.43282 -2.6
      vertex -0.681247 6.64772 6.55
      vertex -1.01988 6.43282 6.55
    endloop
  endfacet
  facet normal -0 -0.481744 -0.876312
    outer loop
      vertex -1.20429 0.940456 1.29443
      vertex 1.78148 0.940456 1.29443
      vertex -0.754233 0.588999 1.48764
    endloop
  endfacet
  facet normal 0 -0.68455 -0.728966
    outer loop
      vertex -1.20429 0.940456 1.29443
      vertex 2.02442 1.23282 1.01988
      vertex 1.78148 0.940456 1.29443
    endloop
  endfacet
  facet normal 0.728962 0.684555 0
    outer loop
      vertex -1.29443 4.25954 -2.6
      vertex -1.01988 3.96718 6.55
      vertex -1.01988 3.96718 -2.6
    endloop
  endfacet
  facet normal 0.728962 0.684555 0
    outer loop
      vertex -1.29443 4.25954 -2.6
      vertex -1.29443 4.25954 6.55
      vertex -1.01988 3.96718 6.55
    endloop
  endfacet
  facet normal 0.728962 -0.684555 0
    outer loop
      vertex -1.29443 6.14046 -2.6
      vertex -1.01988 6.43282 -2.6
      vertex -1.29443 6.14046 6.55
    endloop
  endfacet
  facet normal 0.728962 -0.684555 0
    outer loop
      vertex -1.29443 6.14046 6.55
      vertex -1.01988 6.43282 -2.6
      vertex -1.01988 6.43282 6.55
    endloop
  endfacet
  facet normal 0 -0.587789 0.809014
    outer loop
      vertex -1.40254 1.09527 -1.16635
      vertex -0.987043 0.770805 -1.40209
      vertex 1.91012 1.09527 -1.16635
    endloop
  endfacet
  facet normal 0 -0.770512 0.637425
    outer loop
      vertex -1.40254 1.09527 -1.16635
      vertex 1.91012 1.09527 -1.16635
      vertex 2.12256 1.35092 -0.857323
    endloop
  endfacet
  facet normal 0.876314 0.481741 0
    outer loop
      vertex -1.48764 4.611 -2.6
      vertex -1.29443 4.25954 6.55
      vertex -1.29443 4.25954 -2.6
    endloop
  endfacet
  facet normal 0.876314 0.481741 0
    outer loop
      vertex -1.48764 4.611 -2.6
      vertex -1.48764 4.611 6.55
      vertex -1.29443 4.25954 6.55
    endloop
  endfacet
  facet normal 0.876314 -0.481741 0
    outer loop
      vertex -1.48764 5.789 -2.6
      vertex -1.29443 6.14046 -2.6
      vertex -1.48764 5.789 6.55
    endloop
  endfacet
  facet normal 0.876314 -0.481741 0
    outer loop
      vertex -1.48764 5.789 6.55
      vertex -1.29443 6.14046 -2.6
      vertex -1.29443 6.14046 6.55
    endloop
  endfacet
  facet normal -0 -0.68455 -0.728966
    outer loop
      vertex -1.57867 1.23282 1.01988
      vertex 2.02442 1.23282 1.01988
      vertex -1.20429 0.940456 1.29443
    endloop
  endfacet
  facet normal 0 -0.844332 -0.53582
    outer loop
      vertex -1.57867 1.23282 1.01988
      vertex 2.20299 1.44772 0.681246
      vertex 2.02442 1.23282 1.01988
    endloop
  endfacet
  facet normal 0.968584 0.248685 0
    outer loop
      vertex -1.58738 4.99947 -2.6
      vertex -1.48764 4.611 6.55
      vertex -1.48764 4.611 -2.6
    endloop
  endfacet
  facet normal 0.968584 0.248685 0
    outer loop
      vertex -1.58738 4.99947 -2.6
      vertex -1.58738 4.99947 6.55
      vertex -1.48764 4.611 6.55
    endloop
  endfacet
  facet normal 1 0 0
    outer loop
      vertex -1.58738 4.99947 -2.6
      vertex -1.58738 5.40053 -2.6
      vertex -1.58738 4.99947 6.55
    endloop
  endfacet
  facet normal 1 -0 0
    outer loop
      vertex -1.58738 4.99947 6.55
      vertex -1.58738 5.40053 -2.6
      vertex -1.58738 5.40053 6.55
    endloop
  endfacet
  facet normal 0.968584 -0.248685 0
    outer loop
      vertex -1.58738 5.40053 -2.6
      vertex -1.48764 5.789 -2.6
      vertex -1.58738 5.40053 6.55
    endloop
  endfacet
  facet normal 0.968584 -0.248685 0
    outer loop
      vertex -1.58738 5.40053 6.55
      vertex -1.48764 5.789 -2.6
      vertex -1.48764 5.789 6.55
    endloop
  endfacet
  facet normal 0 0 1
    outer loop
      vertex -1.65 2.34212 10.6
      vertex -0.768263 1.17262 10.6
      vertex 0.257441 1.10809 10.6
    endloop
  endfacet
  facet normal -0 0 1
    outer loop
      vertex -1.65 2.34212 10.6
      vertex 0.257441 1.10809 10.6
      vertex 1.65 2.34212 10.6
    endloop
  endfacet
  facet normal 0 1 -0
    outer loop
      vertex -1.65 2.34212 10.6
      vertex 1.65 2.34212 10.6
      vertex 1.65 2.34212 6.55
    endloop
  endfacet
  facet normal 0 0 1
    outer loop
      vertex -1.65 2.34212 6.55
      vertex -0.299809 3.62834 6.55
      vertex -0.681247 3.75228 6.55
    endloop
  endfacet
  facet normal 0 0 1
    outer loop
      vertex -1.65 2.34212 6.55
      vertex -0.681247 3.75228 6.55
      vertex -1.01988 3.96718 6.55
    endloop
  endfacet
  facet normal 0 0 1
    outer loop
      vertex -1.65 2.34212 6.55
      vertex -1.01988 3.96718 6.55
      vertex -1.29443 4.25954 6.55
    endloop
  endfacet
  facet normal 0 1 0
    outer loop
      vertex -1.65 2.34212 6.55
      vertex -1.65 2.34212 10.6
      vertex 1.65 2.34212 6.55
    endloop
  endfacet
  facet normal 0 0 1
    outer loop
      vertex -1.65 2.34212 6.55
      vertex 0.100465 3.60316 6.55
      vertex -0.299809 3.62834 6.55
    endloop
  endfacet
  facet normal 0 0 1
    outer loop
      vertex -1.65 2.34212 6.55
      vertex 1.65 2.34212 6.55
      vertex 0.100465 3.60316 6.55
    endloop
  endfacet
  facet normal 0 0 1
    outer loop
      vertex -1.65 8.05788 10.6
      vertex 0.257441 9.29191 10.6
      vertex -0.768263 9.22738 10.6
    endloop
  endfacet
  facet normal 0 0 1
    outer loop
      vertex -1.65 8.05788 10.6
      vertex 1.65 8.05788 10.6
      vertex 0.257441 9.29191 10.6
    endloop
  endfacet
  facet normal 0 0 1
    outer loop
      vertex -1.65 8.05788 6.55
      vertex -0.299809 6.77166 6.55
      vertex 0.100465 6.79684 6.55
    endloop
  endfacet
  facet normal 0 0 1
    outer loop
      vertex -1.65 8.05788 6.55
      vertex -0.681247 6.64772 6.55
      vertex -0.299809 6.77166 6.55
    endloop
  endfacet
  facet normal 0 0 1
    outer loop
      vertex -1.65 8.05788 6.55
      vertex -1.01988 6.43282 6.55
      vertex -0.681247 6.64772 6.55
    endloop
  endfacet
  facet normal 0 0 1
    outer loop
      vertex -1.65 8.05788 6.55
      vertex -1.29443 6.14046 6.55
      vertex -1.01988 6.43282 6.55
    endloop
  endfacet
  facet normal -0 0 1
    outer loop
      vertex -1.65 8.05788 6.55
      vertex 0.100465 6.79684 6.55
      vertex 1.65 8.05788 6.55
    endloop
  endfacet
  facet normal 0 -1 0
    outer loop
      vertex -1.65 8.05788 6.55
      vertex 1.65 8.05788 10.6
      vertex -1.65 8.05788 10.6
    endloop
  endfacet
  facet normal 0 -1 -0
    outer loop
      vertex -1.65 8.05788 6.55
      vertex 1.65 8.05788 6.55
      vertex 1.65 8.05788 10.6
    endloop
  endfacet
  facet normal 0 -0.770512 0.637425
    outer loop
      vertex -1.72991 1.35092 -0.857323
      vertex -1.40254 1.09527 -1.16635
      vertex 2.12256 1.35092 -0.857323
    endloop
  endfacet
  facet normal 0 -0.904823 0.425788
    outer loop
      vertex -1.72991 1.35092 -0.857323
      vertex 2.12256 1.35092 -0.857323
      vertex 2.26446 1.52169 -0.494427
    endloop
  endfacet
  facet normal -0.308224 -0.948603 0.0717667
    outer loop
      vertex -1.74569 1.49021 10.6
      vertex -0.449356 0.383592 1.54038
      vertex -0.768263 1.17262 10.6
    endloop
  endfacet
  facet normal -0.535641 -0.844032 0.0264527
    outer loop
      vertex -1.74569 1.49021 10.6
      vertex -0.665245 0.519506 1.50548
      vertex -0.449356 0.383592 1.54038
    endloop
  endfacet
  facet normal 0 0 1
    outer loop
      vertex -1.74569 1.49021 10.6
      vertex -0.768263 1.17262 10.6
      vertex -1.65 2.34212 10.6
    endloop
  endfacet
  facet normal 0 0 -1
    outer loop
      vertex -1.74569 8.90979 -2.6
      vertex -0.681247 6.64772 -2.6
      vertex -1.01988 6.43282 -2.6
    endloop
  endfacet
  facet normal 0 0 -1
    outer loop
      vertex -1.74569 8.90979 -2.6
      vertex -0.768263 9.22738 -2.6
      vertex -0.681247 6.64772 -2.6
    endloop
  endfacet
  facet normal 0 0 -1
    outer loop
      vertex -1.74569 8.90979 -2.6
      vertex -1.01988 6.43282 -2.6
      vertex -1.29443 6.14046 -2.6
    endloop
  endfacet
  facet normal 0 0 -1
    outer loop
      vertex -1.74569 8.90979 -2.6
      vertex -1.29443 6.14046 -2.6
      vertex -1.48764 5.789 -2.6
    endloop
  endfacet
  facet normal 0 0 -1
    outer loop
      vertex -1.74569 8.90979 -2.6
      vertex -1.48764 5.789 -2.6
      vertex -1.58738 5.40053 -2.6
    endloop
  endfacet
  facet normal -0.309021 0.951055 0
    outer loop
      vertex -1.74569 8.90979 -2.6
      vertex -1.74569 8.90979 10.6
      vertex -0.768263 9.22738 -2.6
    endloop
  endfacet
  facet normal -0.309021 0.951055 0
    outer loop
      vertex -1.74569 8.90979 10.6
      vertex -0.768263 9.22738 10.6
      vertex -0.768263 9.22738 -2.6
    endloop
  endfacet
  facet normal -0 0 1
    outer loop
      vertex -1.74569 8.90979 10.6
      vertex -1.65 8.05788 10.6
      vertex -0.768263 9.22738 10.6
    endloop
  endfacet
  facet normal -0 -0.844332 -0.53582
    outer loop
      vertex -1.85386 1.44772 0.681246
      vertex 2.20299 1.44772 0.681246
      vertex -1.57867 1.23282 1.01988
    endloop
  endfacet
  facet normal 0 -0.951054 -0.309026
    outer loop
      vertex -1.85386 1.44772 0.681246
      vertex 2.30598 1.57166 0.29981
      vertex 2.20299 1.44772 0.681246
    endloop
  endfacet
  facet normal 0 -0.904823 0.425788
    outer loop
      vertex -1.94858 1.52169 -0.494427
      vertex -1.72991 1.35092 -0.857323
      vertex 2.26446 1.52169 -0.494427
    endloop
  endfacet
  facet normal 0 -0.982288 0.187376
    outer loop
      vertex -1.94858 1.52169 -0.494427
      vertex 2.26446 1.52169 -0.494427
      vertex 2.3269 1.59684 -0.100465
    endloop
  endfacet
  facet normal -0 -0.951054 -0.309026
    outer loop
      vertex -2.01256 1.57166 0.29981
      vertex 2.30598 1.57166 0.29981
      vertex -1.85386 1.44772 0.681246
    endloop
  endfacet
  facet normal 0 -0.998027 -0.0627827
    outer loop
      vertex -2.01256 1.57166 0.29981
      vertex 2.3269 1.59684 -0.100465
      vertex 2.30598 1.57166 0.29981
    endloop
  endfacet
  facet normal 0 -0.982288 0.187376
    outer loop
      vertex -2.04481 1.59684 -0.100465
      vertex -1.94858 1.52169 -0.494427
      vertex 2.3269 1.59684 -0.100465
    endloop
  endfacet
  facet normal -0 -0.998027 -0.0627827
    outer loop
      vertex -2.04481 1.59684 -0.100465
      vertex 2.3269 1.59684 -0.100465
      vertex -2.01256 1.57166 0.29981
    endloop
  endfacet
  facet normal 0 0 -1
    outer loop
      vertex -2.61344 2.0409 -2.6
      vertex -0.299809 3.62834 -2.6
      vertex 0 0 -2.6
    endloop
  endfacet
  facet normal -0 0 -1
    outer loop
      vertex -2.61344 2.0409 -2.6
      vertex -0.681247 3.75228 -2.6
      vertex -0.299809 3.62834 -2.6
    endloop
  endfacet
  facet normal -0.61548 -0.788152 -1.05187e-05
    outer loop
      vertex -2.61344 2.0409 -2.6
      vertex -0.987043 0.770805 -1.40209
      vertex -1.40254 1.09527 -1.16635
    endloop
  endfacet
  facet normal -0 0 -1
    outer loop
      vertex -2.61344 2.0409 -2.6
      vertex -1.01988 3.96718 -2.6
      vertex -0.681247 3.75228 -2.6
    endloop
  endfacet
  facet normal -0 0 -1
    outer loop
      vertex -2.61344 2.0409 -2.6
      vertex -1.29443 4.25954 -2.6
      vertex -1.01988 3.96718 -2.6
    endloop
  endfacet
  facet normal -0.615485 -0.788148 -4.02523e-06
    outer loop
      vertex -2.61344 2.0409 -2.6
      vertex -1.40254 1.09527 -1.16635
      vertex -1.72991 1.35092 -0.857323
    endloop
  endfacet
  facet normal -0.615494 -0.788142 2.79842e-06
    outer loop
      vertex -2.61344 2.0409 -2.6
      vertex -1.72991 1.35092 -0.857323
      vertex -1.94858 1.52169 -0.494427
    endloop
  endfacet
  facet normal -0.61549 -0.788145 1.10396e-06
    outer loop
      vertex -2.61344 2.0409 -2.6
      vertex -1.94858 1.52169 -0.494427
      vertex -2.04481 1.59684 -0.100465
    endloop
  endfacet
  facet normal -0.615483 -0.78815 0
    outer loop
      vertex -2.61344 2.0409 -2.6
      vertex -2.01256 1.57166 0.29981
      vertex -2.61344 2.0409 10.6
    endloop
  endfacet
  facet normal -0.615529 -0.788114 1.51813e-05
    outer loop
      vertex -2.61344 2.0409 -2.6
      vertex -2.04481 1.59684 -0.100465
      vertex -2.01256 1.57166 0.29981
    endloop
  endfacet
  facet normal -0.615485 -0.788149 -8.65898e-07
    outer loop
      vertex -2.61344 2.0409 -2.6
      vertex 0 0 -2.6
      vertex -0.987043 0.770805 -1.40209
    endloop
  endfacet
  facet normal -0.535639 -0.844033 0.0264531
    outer loop
      vertex -2.61344 2.0409 10.6
      vertex -0.665245 0.519506 1.50548
      vertex -1.74569 1.49021 10.6
    endloop
  endfacet
  facet normal -0.615485 -0.788148 -9.88506e-08
    outer loop
      vertex -2.61344 2.0409 10.6
      vertex -0.754233 0.588999 1.48764
      vertex -0.665245 0.519506 1.50548
    endloop
  endfacet
  facet normal -0.615481 -0.788152 1.21815e-06
    outer loop
      vertex -2.61344 2.0409 10.6
      vertex -1.20429 0.940456 1.29443
      vertex -0.754233 0.588999 1.48764
    endloop
  endfacet
  facet normal -0.615487 -0.788147 -1.03007e-07
    outer loop
      vertex -2.61344 2.0409 10.6
      vertex -1.57867 1.23282 1.01988
      vertex -1.20429 0.940456 1.29443
    endloop
  endfacet
  facet normal 0 0 1
    outer loop
      vertex -2.61344 2.0409 10.6
      vertex -1.74569 1.49021 10.6
      vertex -1.65 2.34212 10.6
    endloop
  endfacet
  facet normal -0.615481 -0.788152 9.13611e-07
    outer loop
      vertex -2.61344 2.0409 10.6
      vertex -1.85386 1.44772 0.681246
      vertex -1.57867 1.23282 1.01988
    endloop
  endfacet
  facet normal -0.615504 -0.788134 -1.97862e-06
    outer loop
      vertex -2.61344 2.0409 10.6
      vertex -2.01256 1.57166 0.29981
      vertex -1.85386 1.44772 0.681246
    endloop
  endfacet
  facet normal 0 0 -1
    outer loop
      vertex -2.61344 8.3591 -2.6
      vertex -1.74569 8.90979 -2.6
      vertex -1.58738 5.40053 -2.6
    endloop
  endfacet
  facet normal -0.535826 0.844328 0
    outer loop
      vertex -2.61344 8.3591 -2.6
      vertex -2.61344 8.3591 10.6
      vertex -1.74569 8.90979 -2.6
    endloop
  endfacet
  facet normal -0 0 1
    outer loop
      vertex -2.61344 8.3591 10.6
      vertex -1.65 8.05788 10.6
      vertex -1.74569 8.90979 10.6
    endloop
  endfacet
  facet normal -0.535826 0.844328 0
    outer loop
      vertex -2.61344 8.3591 10.6
      vertex -1.74569 8.90979 10.6
      vertex -1.74569 8.90979 -2.6
    endloop
  endfacet
  facet normal 0.866025 -0.500001 0
    outer loop
      vertex -3.3 5.2 10.6
      vertex -1.65 8.05788 6.55
      vertex -1.65 8.05788 10.6
    endloop
  endfacet
  facet normal 0 0 1
    outer loop
      vertex -3.3 5.2 6.55
      vertex -1.29443 4.25954 6.55
      vertex -1.48764 4.611 6.55
    endloop
  endfacet
  facet normal 0 0 1
    outer loop
      vertex -3.3 5.2 6.55
      vertex -1.29443 6.14046 6.55
      vertex -1.65 8.05788 6.55
    endloop
  endfacet
  facet normal 0 0 1
    outer loop
      vertex -3.3 5.2 6.55
      vertex -1.48764 4.611 6.55
      vertex -1.58738 4.99947 6.55
    endloop
  endfacet
  facet normal 0 0 1
    outer loop
      vertex -3.3 5.2 6.55
      vertex -1.48764 5.789 6.55
      vertex -1.29443 6.14046 6.55
    endloop
  endfacet
  facet normal 0 0 1
    outer loop
      vertex -3.3 5.2 6.55
      vertex -1.58738 4.99947 6.55
      vertex -1.58738 5.40053 6.55
    endloop
  endfacet
  facet normal 0 0 1
    outer loop
      vertex -3.3 5.2 6.55
      vertex -1.58738 5.40053 6.55
      vertex -1.48764 5.789 6.55
    endloop
  endfacet
  facet normal 0.866025 0.500001 0
    outer loop
      vertex -3.3 5.2 6.55
      vertex -1.65 2.34212 10.6
      vertex -1.65 2.34212 6.55
    endloop
  endfacet
  facet normal 0 0 1
    outer loop
      vertex -3.3 5.2 6.55
      vertex -1.65 2.34212 6.55
      vertex -1.29443 4.25954 6.55
    endloop
  endfacet
  facet normal 0.866025 -0.500001 0
    outer loop
      vertex -3.3 5.2 6.55
      vertex -1.65 8.05788 6.55
      vertex -3.3 5.2 10.6
    endloop
  endfacet
  facet normal 0.866025 0.500001 0
    outer loop
      vertex -3.3 5.2 6.55
      vertex -3.3 5.2 10.6
      vertex -1.65 2.34212 10.6
    endloop
  endfacet
  facet normal 0 0 -1
    outer loop
      vertex -3.31697 2.79008 -2.6
      vertex -1.29443 4.25954 -2.6
      vertex -2.61344 2.0409 -2.6
    endloop
  endfacet
  facet normal -0 0 -1
    outer loop
      vertex -3.31697 2.79008 -2.6
      vertex -1.48764 4.611 -2.6
      vertex -1.29443 4.25954 -2.6
    endloop
  endfacet
  facet normal -0.728967 -0.684549 0
    outer loop
      vertex -3.31697 2.79008 -2.6
      vertex -2.61344 2.0409 -2.6
      vertex -3.31697 2.79008 10.6
    endloop
  endfacet
  facet normal -0 0 1
    outer loop
      vertex -3.31697 2.79008 10.6
      vertex -1.65 2.34212 10.6
      vertex -3.3 5.2 10.6
    endloop
  endfacet
  facet normal -0.728967 -0.684549 0
    outer loop
      vertex -3.31697 2.79008 10.6
      vertex -2.61344 2.0409 -2.6
      vertex -2.61344 2.0409 10.6
    endloop
  endfacet
  facet normal 0 0 1
    outer loop
      vertex -3.31697 2.79008 10.6
      vertex -2.61344 2.0409 10.6
      vertex -1.65 2.34212 10.6
    endloop
  endfacet
  facet normal 0 0 -1
    outer loop
      vertex -3.31697 7.60992 -2.6
      vertex -2.61344 8.3591 -2.6
      vertex -1.58738 5.40053 -2.6
    endloop
  endfacet
  facet normal -0.728967 0.684549 0
    outer loop
      vertex -3.31697 7.60992 -2.6
      vertex -2.61344 8.3591 10.6
      vertex -2.61344 8.3591 -2.6
    endloop
  endfacet
  facet normal -0.728967 0.684549 0
    outer loop
      vertex -3.31697 7.60992 -2.6
      vertex -3.31697 7.60992 10.6
      vertex -2.61344 8.3591 10.6
    endloop
  endfacet
  facet normal 0 0 1
    outer loop
      vertex -3.31697 7.60992 10.6
      vertex -1.65 8.05788 10.6
      vertex -2.61344 8.3591 10.6
    endloop
  endfacet
  facet normal 0 0 1
    outer loop
      vertex -3.31697 7.60992 10.6
      vertex -3.3 5.2 10.6
      vertex -1.65 8.05788 10.6
    endloop
  endfacet
  facet normal 0 0 -1
    outer loop
      vertex -3.81208 3.69069 -2.6
      vertex -1.48764 4.611 -2.6
      vertex -3.31697 2.79008 -2.6
    endloop
  endfacet
  facet normal -0 0 -1
    outer loop
      vertex -3.81208 3.69069 -2.6
      vertex -1.58738 4.99947 -2.6
      vertex -1.48764 4.611 -2.6
    endloop
  endfacet
  facet normal -0.876309 -0.48175 0
    outer loop
      vertex -3.81208 3.69069 -2.6
      vertex -3.31697 2.79008 -2.6
      vertex -3.81208 3.69069 10.6
    endloop
  endfacet
  facet normal -0.876309 -0.48175 0
    outer loop
      vertex -3.81208 3.69069 10.6
      vertex -3.31697 2.79008 -2.6
      vertex -3.31697 2.79008 10.6
    endloop
  endfacet
  facet normal 0 0 1
    outer loop
      vertex -3.81208 3.69069 10.6
      vertex -3.31697 2.79008 10.6
      vertex -3.3 5.2 10.6
    endloop
  endfacet
  facet normal 0 0 -1
    outer loop
      vertex -3.81208 6.70931 -2.6
      vertex -3.31697 7.60992 -2.6
      vertex -1.58738 5.40053 -2.6
    endloop
  endfacet
  facet normal -0.876309 0.48175 0
    outer loop
      vertex -3.81208 6.70931 -2.6
      vertex -3.31697 7.60992 10.6
      vertex -3.31697 7.60992 -2.6
    endloop
  endfacet
  facet normal -0.876309 0.48175 0
    outer loop
      vertex -3.81208 6.70931 -2.6
      vertex -3.81208 6.70931 10.6
      vertex -3.31697 7.60992 10.6
    endloop
  endfacet
  facet normal -0 0 1
    outer loop
      vertex -3.81208 6.70931 10.6
      vertex -3.3 5.2 10.6
      vertex -3.31697 7.60992 10.6
    endloop
  endfacet
  facet normal 0 0 -1
    outer loop
      vertex -4.06767 4.68613 -2.6
      vertex -1.58738 4.99947 -2.6
      vertex -3.81208 3.69069 -2.6
    endloop
  endfacet
  facet normal -0.968582 -0.248694 0
    outer loop
      vertex -4.06767 4.68613 -2.6
      vertex -3.81208 3.69069 -2.6
      vertex -4.06767 4.68613 10.6
    endloop
  endfacet
  facet normal -1 -0 0
    outer loop
      vertex -4.06767 4.68613 -2.6
      vertex -4.06767 4.68613 10.6
      vertex -4.06767 5.71387 10.6
    endloop
  endfacet
  facet normal 0 0 -1
    outer loop
      vertex -4.06767 4.68613 -2.6
      vertex -4.06767 5.71387 -2.6
      vertex -1.58738 4.99947 -2.6
    endloop
  endfacet
  facet normal -1 0 0
    outer loop
      vertex -4.06767 4.68613 -2.6
      vertex -4.06767 5.71387 10.6
      vertex -4.06767 5.71387 -2.6
    endloop
  endfacet
  facet normal 0 0 1
    outer loop
      vertex -4.06767 4.68613 10.6
      vertex -3.3 5.2 10.6
      vertex -4.06767 5.71387 10.6
    endloop
  endfacet
  facet normal -0.968582 -0.248694 0
    outer loop
      vertex -4.06767 4.68613 10.6
      vertex -3.81208 3.69069 -2.6
      vertex -3.81208 3.69069 10.6
    endloop
  endfacet
  facet normal 0 0 1
    outer loop
      vertex -4.06767 4.68613 10.6
      vertex -3.81208 3.69069 10.6
      vertex -3.3 5.2 10.6
    endloop
  endfacet
  facet normal 0 0 -1
    outer loop
      vertex -4.06767 5.71387 -2.6
      vertex -1.58738 5.40053 -2.6
      vertex -1.58738 4.99947 -2.6
    endloop
  endfacet
  facet normal 0 0 -1
    outer loop
      vertex -4.06767 5.71387 -2.6
      vertex -3.81208 6.70931 -2.6
      vertex -1.58738 5.40053 -2.6
    endloop
  endfacet
  facet normal -0.968582 0.248694 0
    outer loop
      vertex -4.06767 5.71387 -2.6
      vertex -3.81208 6.70931 10.6
      vertex -3.81208 6.70931 -2.6
    endloop
  endfacet
  facet normal -0.968582 0.248694 0
    outer loop
      vertex -4.06767 5.71387 -2.6
      vertex -4.06767 5.71387 10.6
      vertex -3.81208 6.70931 10.6
    endloop
  endfacet
  facet normal -0 0 1
    outer loop
      vertex -4.06767 5.71387 10.6
      vertex -3.3 5.2 10.6
      vertex -3.81208 6.70931 10.6
    endloop
  endfacet
  facet normal 0 -0.125341 0.992114
    outer loop
      vertex 0 0 -1.6
      vertex 1 0 -1.6
      vertex 1.33064 0.397903 -1.54973
    endloop
  endfacet
  facet normal 0 0 -1
    outer loop
      vertex 0 0 -2.6
      vertex 0.100465 3.60316 -2.6
      vertex 1 0 -2.6
    endloop
  endfacet
  facet normal 0 -1 0
    outer loop
      vertex 0 0 -2.6
      vertex 1 0 -1.6
      vertex 0 0 -1.6
    endloop
  endfacet
  facet normal 0 -1 -0
    outer loop
      vertex 0 0 -2.6
      vertex 1 0 -2.6
      vertex 1 0 -1.6
    endloop
  endfacet
  facet normal 0 -0.995901 0.0904547
    outer loop
      vertex 0.0667881 0.287473 1.56506
      vertex 0.807357 0.287473 1.56506
      vertex 0.257441 1.10809 10.6
    endloop
  endfacet
  facet normal 0 -0.248694 -0.968582
    outer loop
      vertex 0.0667881 0.287473 1.56506
      vertex 1.48311 0.588999 1.48764
      vertex 0.807357 0.287473 1.56506
    endloop
  endfacet
  facet normal -0.187376 0.982288 0
    outer loop
      vertex 0.100465 3.60316 -2.6
      vertex 0.100465 3.60316 6.55
      vertex 0.494427 3.67831 -2.6
    endloop
  endfacet
  facet normal 0 0 -1
    outer loop
      vertex 0.100465 3.60316 -2.6
      vertex 0.494427 3.67831 -2.6
      vertex 1 0 -2.6
    endloop
  endfacet
  facet normal -0.187376 0.982288 0
    outer loop
      vertex 0.100465 3.60316 6.55
      vertex 0.494427 3.67831 6.55
      vertex 0.494427 3.67831 -2.6
    endloop
  endfacet
  facet normal -0 0 1
    outer loop
      vertex 0.100465 3.60316 6.55
      vertex 1.65 2.34212 6.55
      vertex 0.494427 3.67831 6.55
    endloop
  endfacet
  facet normal 0 0 -1
    outer loop
      vertex 0.100465 6.79684 -2.6
      vertex 0.257441 9.29191 -2.6
      vertex 0.494427 6.72169 -2.6
    endloop
  endfacet
  facet normal -0.187376 -0.982288 -0
    outer loop
      vertex 0.100465 6.79684 -2.6
      vertex 0.494427 6.72169 -2.6
      vertex 0.494427 6.72169 6.55
    endloop
  endfacet
  facet normal -0.187376 -0.982288 0
    outer loop
      vertex 0.100465 6.79684 -2.6
      vertex 0.494427 6.72169 6.55
      vertex 0.100465 6.79684 6.55
    endloop
  endfacet
  facet normal 0 0 1
    outer loop
      vertex 0.100465 6.79684 6.55
      vertex 0.494427 6.72169 6.55
      vertex 1.65 8.05788 6.55
    endloop
  endfacet
  facet normal 0.186442 -0.977351 0.100118
    outer loop
      vertex 0.257441 1.10809 10.6
      vertex 0.807357 0.287473 1.56506
      vertex 1.26697 1.30067 10.6
    endloop
  endfacet
  facet normal 0 0 1
    outer loop
      vertex 0.257441 1.10809 10.6
      vertex 1.26697 1.30067 10.6
      vertex 1.65 2.34212 10.6
    endloop
  endfacet
  facet normal 0.187383 0.982287 0
    outer loop
      vertex 0.257441 9.29191 -2.6
      vertex 0.257441 9.29191 10.6
      vertex 1.26697 9.09933 -2.6
    endloop
  endfacet
  facet normal 0 0 -1
    outer loop
      vertex 0.257441 9.29191 -2.6
      vertex 1.26697 9.09933 -2.6
      vertex 0.494427 6.72169 -2.6
    endloop
  endfacet
  facet normal 0.187383 0.982287 -0
    outer loop
      vertex 0.257441 9.29191 10.6
      vertex 1.26697 9.09933 10.6
      vertex 1.26697 9.09933 -2.6
    endloop
  endfacet
  facet normal 0 0 1
    outer loop
      vertex 0.257441 9.29191 10.6
      vertex 1.65 8.05788 10.6
      vertex 1.26697 9.09933 10.6
    endloop
  endfacet
  facet normal -0.425788 0.904823 0
    outer loop
      vertex 0.494427 3.67831 -2.6
      vertex 0.494427 3.67831 6.55
      vertex 0.857323 3.84908 -2.6
    endloop
  endfacet
  facet normal 0 0 -1
    outer loop
      vertex 0.494427 3.67831 -2.6
      vertex 0.857323 3.84908 -2.6
      vertex 2.98877 2.39336 -2.6
    endloop
  endfacet
  facet normal 0 0 -1
    outer loop
      vertex 0.494427 3.67831 -2.6
      vertex 2.98877 2.39336 -2.6
      vertex 1 0 -2.6
    endloop
  endfacet
  facet normal -0.425788 0.904823 0
    outer loop
      vertex 0.494427 3.67831 6.55
      vertex 0.857323 3.84908 6.55
      vertex 0.857323 3.84908 -2.6
    endloop
  endfacet
  facet normal -0 0 1
    outer loop
      vertex 0.494427 3.67831 6.55
      vertex 1.65 2.34212 6.55
      vertex 0.857323 3.84908 6.55
    endloop
  endfacet
  facet normal -0.425788 -0.904823 -0
    outer loop
      vertex 0.494427 6.72169 -2.6
      vertex 0.857323 6.55092 -2.6
      vertex 0.857323 6.55092 6.55
    endloop
  endfacet
  facet normal -0.425788 -0.904823 0
    outer loop
      vertex 0.494427 6.72169 -2.6
      vertex 0.857323 6.55092 6.55
      vertex 0.494427 6.72169 6.55
    endloop
  endfacet
  facet normal 0 0 -1
    outer loop
      vertex 0.494427 6.72169 -2.6
      vertex 1.26697 9.09933 -2.6
      vertex 0.857323 6.55092 -2.6
    endloop
  endfacet
  facet normal 0 0 1
    outer loop
      vertex 0.494427 6.72169 6.55
      vertex 0.857323 6.55092 6.55
      vertex 1.65 8.05788 6.55
    endloop
  endfacet
  facet normal 0.186441 -0.977352 0.100118
    outer loop
      vertex 0.807357 0.287473 1.56506
      vertex 1.06899 0.336103 1.55257
      vertex 1.26697 1.30067 10.6
    endloop
  endfacet
  facet normal -2.36774e-05 -0.248644 -0.968595
    outer loop
      vertex 0.807357 0.287473 1.56506
      vertex 1.48311 0.588999 1.48764
      vertex 1.06899 0.336103 1.55257
    endloop
  endfacet
  facet normal -0.63741 0.770525 0
    outer loop
      vertex 0.857323 3.84908 -2.6
      vertex 0.857323 3.84908 6.55
      vertex 1.16635 4.10472 -2.6
    endloop
  endfacet
  facet normal 0 0 -1
    outer loop
      vertex 0.857323 3.84908 -2.6
      vertex 1.16635 4.10472 -2.6
      vertex 2.98877 2.39336 -2.6
    endloop
  endfacet
  facet normal -0.63741 0.770525 0
    outer loop
      vertex 0.857323 3.84908 6.55
      vertex 1.16635 4.10472 6.55
      vertex 1.16635 4.10472 -2.6
    endloop
  endfacet
  facet normal -0 0 1
    outer loop
      vertex 0.857323 3.84908 6.55
      vertex 1.65 2.34212 6.55
      vertex 1.16635 4.10472 6.55
    endloop
  endfacet
  facet normal -0.637425 -0.770512 -0
    outer loop
      vertex 0.857323 6.55092 -2.6
      vertex 1.16635 6.29527 -2.6
      vertex 1.16635 6.29527 6.55
    endloop
  endfacet
  facet normal -0.637425 -0.770512 0
    outer loop
      vertex 0.857323 6.55092 -2.6
      vertex 1.16635 6.29527 6.55
      vertex 0.857323 6.55092 6.55
    endloop
  endfacet
  facet normal -0 0 -1
    outer loop
      vertex 0.857323 6.55092 -2.6
      vertex 1.26697 9.09933 -2.6
      vertex 2.19689 8.66174 -2.6
    endloop
  endfacet
  facet normal 0 0 -1
    outer loop
      vertex 0.857323 6.55092 -2.6
      vertex 2.19689 8.66174 -2.6
      vertex 1.16635 6.29527 -2.6
    endloop
  endfacet
  facet normal 0 0 1
    outer loop
      vertex 0.857323 6.55092 6.55
      vertex 1.16635 6.29527 6.55
      vertex 1.65 8.05788 6.55
    endloop
  endfacet
  facet normal 0.76912 -0.639105 0
    outer loop
      vertex 1 0 -2.6
      vertex 1.33064 0.397903 -1.54973
      vertex 1 0 -1.6
    endloop
  endfacet
  facet normal 0.769126 -0.639097 -4.83723e-06
    outer loop
      vertex 1 0 -2.6
      vertex 1.6405 0.770805 -1.40209
      vertex 1.33064 0.397903 -1.54973
    endloop
  endfacet
  facet normal 0.769121 -0.639103 1.81879e-06
    outer loop
      vertex 1 0 -2.6
      vertex 2.98877 2.39336 -2.6
      vertex 1.6405 0.770805 -1.40209
    endloop
  endfacet
  facet normal 0.424169 -0.901411 0.0868202
    outer loop
      vertex 1.06899 0.336103 1.55257
      vertex 1.30654 0.445188 1.52457
      vertex 2.19689 1.73826 10.6
    endloop
  endfacet
  facet normal 0.000117064 -0.24886 -0.968539
    outer loop
      vertex 1.06899 0.336103 1.55257
      vertex 1.48311 0.588999 1.48764
      vertex 1.30654 0.445188 1.52457
    endloop
  endfacet
  facet normal 0.424174 -0.901409 0.0868193
    outer loop
      vertex 1.06899 0.336103 1.55257
      vertex 2.19689 1.73826 10.6
      vertex 1.26697 1.30067 10.6
    endloop
  endfacet
  facet normal -0.809018 0.587783 0
    outer loop
      vertex 1.16635 4.10472 -2.6
      vertex 1.16635 4.10472 6.55
      vertex 1.40209 4.42919 6.55
    endloop
  endfacet
  facet normal 0 0 -1
    outer loop
      vertex 1.16635 4.10472 -2.6
      vertex 1.40209 4.42919 -2.6
      vertex 2.98877 2.39336 -2.6
    endloop
  endfacet
  facet normal -0.809018 0.587783 0
    outer loop
      vertex 1.16635 4.10472 -2.6
      vertex 1.40209 4.42919 6.55
      vertex 1.40209 4.42919 -2.6
    endloop
  endfacet
  facet normal -0 0 1
    outer loop
      vertex 1.16635 4.10472 6.55
      vertex 1.65 2.34212 6.55
      vertex 1.40209 4.42919 6.55
    endloop
  endfacet
  facet normal -0.80901 -0.587795 0
    outer loop
      vertex 1.16635 6.29527 -2.6
      vertex 1.40209 5.97081 -2.6
      vertex 1.16635 6.29527 6.55
    endloop
  endfacet
  facet normal -0 0 -1
    outer loop
      vertex 1.16635 6.29527 -2.6
      vertex 2.19689 8.66174 -2.6
      vertex 2.98877 8.00664 -2.6
    endloop
  endfacet
  facet normal 0 0 -1
    outer loop
      vertex 1.16635 6.29527 -2.6
      vertex 2.98877 8.00664 -2.6
      vertex 1.40209 5.97081 -2.6
    endloop
  endfacet
  facet normal -0.80901 -0.587795 0
    outer loop
      vertex 1.16635 6.29527 6.55
      vertex 1.40209 5.97081 -2.6
      vertex 1.40209 5.97081 6.55
    endloop
  endfacet
  facet normal 0 0 1
    outer loop
      vertex 1.16635 6.29527 6.55
      vertex 1.40209 5.97081 6.55
      vertex 1.65 8.05788 6.55
    endloop
  endfacet
  facet normal 0 0 1
    outer loop
      vertex 1.26697 1.30067 10.6
      vertex 2.19689 1.73826 10.6
      vertex 1.65 2.34212 10.6
    endloop
  endfacet
  facet normal 0.425782 0.904826 0
    outer loop
      vertex 1.26697 9.09933 -2.6
      vertex 1.26697 9.09933 10.6
      vertex 2.19689 8.66174 -2.6
    endloop
  endfacet
  facet normal 0 0 1
    outer loop
      vertex 1.26697 9.09933 10.6
      vertex 1.65 8.05788 10.6
      vertex 2.19689 8.66174 10.6
    endloop
  endfacet
  facet normal 0.425782 0.904826 -0
    outer loop
      vertex 1.26697 9.09933 10.6
      vertex 2.19689 8.66174 10.6
      vertex 2.19689 8.66174 -2.6
    endloop
  endfacet
  facet normal 0.636724 -0.769646 0.0471934
    outer loop
      vertex 1.30654 0.445188 1.52457
      vertex 1.48311 0.588999 1.48764
      vertex 2.19689 1.73826 10.6
    endloop
  endfacet
  facet normal -0.929781 0.368113 0
    outer loop
      vertex 1.40209 4.42919 -2.6
      vertex 1.40209 4.42919 6.55
      vertex 1.54973 4.8021 6.55
    endloop
  endfacet
  facet normal 0 0 -1
    outer loop
      vertex 1.40209 4.42919 -2.6
      vertex 1.54973 4.8021 -2.6
      vertex 3.59286 3.22481 -2.6
    endloop
  endfacet
  facet normal -0.929781 0.368113 0
    outer loop
      vertex 1.40209 4.42919 -2.6
      vertex 1.54973 4.8021 6.55
      vertex 1.54973 4.8021 -2.6
    endloop
  endfacet
  facet normal 0 0 -1
    outer loop
      vertex 1.40209 4.42919 -2.6
      vertex 3.59286 3.22481 -2.6
      vertex 2.98877 2.39336 -2.6
    endloop
  endfacet
  facet normal 0 0 1
    outer loop
      vertex 1.40209 4.42919 6.55
      vertex 1.65 2.34212 6.55
      vertex 3.3 5.2 6.55
    endloop
  endfacet
  facet normal 0 0 1
    outer loop
      vertex 1.40209 4.42919 6.55
      vertex 3.3 5.2 6.55
      vertex 1.54973 4.8021 6.55
    endloop
  endfacet
  facet normal -0.929781 -0.368113 0
    outer loop
      vertex 1.40209 5.97081 -2.6
      vertex 1.54973 5.5979 -2.6
      vertex 1.40209 5.97081 6.55
    endloop
  endfacet
  facet normal -0 0 -1
    outer loop
      vertex 1.40209 5.97081 -2.6
      vertex 2.98877 8.00664 -2.6
      vertex 3.59286 7.17519 -2.6
    endloop
  endfacet
  facet normal 0 0 -1
    outer loop
      vertex 1.40209 5.97081 -2.6
      vertex 3.59286 7.17519 -2.6
      vertex 1.54973 5.5979 -2.6
    endloop
  endfacet
  facet normal -0.929781 -0.368113 0
    outer loop
      vertex 1.40209 5.97081 6.55
      vertex 1.54973 5.5979 -2.6
      vertex 1.54973 5.5979 6.55
    endloop
  endfacet
  facet normal 0 0 1
    outer loop
      vertex 1.40209 5.97081 6.55
      vertex 1.54973 5.5979 6.55
      vertex 3.3 5.2 6.55
    endloop
  endfacet
  facet normal -0 0 1
    outer loop
      vertex 1.40209 5.97081 6.55
      vertex 3.3 5.2 6.55
      vertex 1.65 8.05788 6.55
    endloop
  endfacet
  facet normal 0.636585 -0.769759 0.0472373
    outer loop
      vertex 1.48311 0.588999 1.48764
      vertex 1.50198 0.604095 1.47934
      vertex 2.98877 2.39336 10.6
    endloop
  endfacet
  facet normal -0.000162663 -0.481638 -0.87637
    outer loop
      vertex 1.48311 0.588999 1.48764
      vertex 1.78148 0.940456 1.29443
      vertex 1.50198 0.604095 1.47934
    endloop
  endfacet
  facet normal 0.636714 -0.769655 0.0471953
    outer loop
      vertex 1.48311 0.588999 1.48764
      vertex 2.98877 2.39336 10.6
      vertex 2.19689 1.73826 10.6
    endloop
  endfacet
  facet normal 0.769121 -0.639103 3.15984e-07
    outer loop
      vertex 1.50198 0.604095 1.47934
      vertex 1.78148 0.940456 1.29443
      vertex 2.98877 2.39336 10.6
    endloop
  endfacet
  facet normal -0.992114 0.125342 0
    outer loop
      vertex 1.54973 4.8021 -2.6
      vertex 1.54973 4.8021 6.55
      vertex 1.6 5.2 6.55
    endloop
  endfacet
  facet normal 0 0 -1
    outer loop
      vertex 1.54973 4.8021 -2.6
      vertex 1.6 5.2 -2.6
      vertex 3.97119 4.18037 -2.6
    endloop
  endfacet
  facet normal -0.992114 0.125342 0
    outer loop
      vertex 1.54973 4.8021 -2.6
      vertex 1.6 5.2 6.55
      vertex 1.6 5.2 -2.6
    endloop
  endfacet
  facet normal 0 0 -1
    outer loop
      vertex 1.54973 4.8021 -2.6
      vertex 3.97119 4.18037 -2.6
      vertex 3.59286 3.22481 -2.6
    endloop
  endfacet
  facet normal 0 0 1
    outer loop
      vertex 1.54973 4.8021 6.55
      vertex 3.3 5.2 6.55
      vertex 1.6 5.2 6.55
    endloop
  endfacet
  facet normal -0.992114 -0.125342 0
    outer loop
      vertex 1.54973 5.5979 -2.6
      vertex 1.6 5.2 -2.6
      vertex 1.54973 5.5979 6.55
    endloop
  endfacet
  facet normal -0 0 -1
    outer loop
      vertex 1.54973 5.5979 -2.6
      vertex 3.59286 7.17519 -2.6
      vertex 3.97119 6.21963 -2.6
    endloop
  endfacet
  facet normal 0 0 -1
    outer loop
      vertex 1.54973 5.5979 -2.6
      vertex 3.97119 6.21963 -2.6
      vertex 1.6 5.2 -2.6
    endloop
  endfacet
  facet normal -0.992114 -0.125342 0
    outer loop
      vertex 1.54973 5.5979 6.55
      vertex 1.6 5.2 -2.6
      vertex 1.6 5.2 6.55
    endloop
  endfacet
  facet normal 0 0 1
    outer loop
      vertex 1.54973 5.5979 6.55
      vertex 1.6 5.2 6.55
      vertex 3.3 5.2 6.55
    endloop
  endfacet
  facet normal 0 0 -1
    outer loop
      vertex 1.6 5.2 -2.6
      vertex 3.97119 6.21963 -2.6
      vertex 4.1 5.2 -2.6
    endloop
  endfacet
  facet normal 0 0 -1
    outer loop
      vertex 1.6 5.2 -2.6
      vertex 4.1 5.2 -2.6
      vertex 3.97119 4.18037 -2.6
    endloop
  endfacet
  facet normal 0.769118 -0.639107 -6.83521e-06
    outer loop
      vertex 1.6405 0.770805 -1.40209
      vertex 2.98877 2.39336 -2.6
      vertex 1.91012 1.09527 -1.16635
    endloop
  endfacet
  facet normal 0 0 1
    outer loop
      vertex 1.65 2.34212 10.6
      vertex 2.19689 1.73826 10.6
      vertex 2.98877 2.39336 10.6
    endloop
  endfacet
  facet normal 0 0 1
    outer loop
      vertex 1.65 2.34212 10.6
      vertex 2.98877 2.39336 10.6
      vertex 3.59286 3.22481 10.6
    endloop
  endfacet
  facet normal 0 0 1
    outer loop
      vertex 1.65 2.34212 10.6
      vertex 3.59286 3.22481 10.6
      vertex 3.3 5.2 10.6
    endloop
  endfacet
  facet normal -0.866025 0.500001 0
    outer loop
      vertex 1.65 2.34212 6.55
      vertex 1.65 2.34212 10.6
      vertex 3.3 5.2 10.6
    endloop
  endfacet
  facet normal -0.866025 0.500001 0
    outer loop
      vertex 1.65 2.34212 6.55
      vertex 3.3 5.2 10.6
      vertex 3.3 5.2 6.55
    endloop
  endfacet
  facet normal -0 0 1
    outer loop
      vertex 1.65 8.05788 10.6
      vertex 2.98877 8.00664 10.6
      vertex 2.19689 8.66174 10.6
    endloop
  endfacet
  facet normal 0 0 1
    outer loop
      vertex 1.65 8.05788 10.6
      vertex 3.3 5.2 10.6
      vertex 3.59286 7.17519 10.6
    endloop
  endfacet
  facet normal -0.866025 -0.500001 0
    outer loop
      vertex 1.65 8.05788 10.6
      vertex 3.3 5.2 6.55
      vertex 3.3 5.2 10.6
    endloop
  endfacet
  facet normal 0 0 1
    outer loop
      vertex 1.65 8.05788 10.6
      vertex 3.59286 7.17519 10.6
      vertex 2.98877 8.00664 10.6
    endloop
  endfacet
  facet normal -0.866025 -0.500001 0
    outer loop
      vertex 1.65 8.05788 6.55
      vertex 3.3 5.2 6.55
      vertex 1.65 8.05788 10.6
    endloop
  endfacet
  facet normal 0.769122 -0.639102 8.97943e-08
    outer loop
      vertex 1.78148 0.940456 1.29443
      vertex 2.02442 1.23282 1.01988
      vertex 2.98877 2.39336 10.6
    endloop
  endfacet
  facet normal 0.769116 -0.639109 -9.3849e-06
    outer loop
      vertex 1.91012 1.09527 -1.16635
      vertex 2.98877 2.39336 -2.6
      vertex 2.12256 1.35092 -0.857323
    endloop
  endfacet
  facet normal 0.769124 -0.6391 -3.72427e-07
    outer loop
      vertex 2.02442 1.23282 1.01988
      vertex 2.20299 1.44772 0.681246
      vertex 2.98877 2.39336 10.6
    endloop
  endfacet
  facet normal 0.769124 -0.639099 5.07178e-07
    outer loop
      vertex 2.12256 1.35092 -0.857323
      vertex 2.98877 2.39336 -2.6
      vertex 2.26446 1.52169 -0.494427
    endloop
  endfacet
  facet normal 0.637424 0.770513 0
    outer loop
      vertex 2.19689 8.66174 -2.6
      vertex 2.19689 8.66174 10.6
      vertex 2.98877 8.00664 -2.6
    endloop
  endfacet
  facet normal 0.637424 0.770513 -0
    outer loop
      vertex 2.19689 8.66174 10.6
      vertex 2.98877 8.00664 10.6
      vertex 2.98877 8.00664 -2.6
    endloop
  endfacet
  facet normal 0.769117 -0.639108 9.14409e-07
    outer loop
      vertex 2.20299 1.44772 0.681246
      vertex 2.30598 1.57166 0.29981
      vertex 2.98877 2.39336 10.6
    endloop
  endfacet
  facet normal 0.769133 -0.639089 7.39282e-06
    outer loop
      vertex 2.26446 1.52169 -0.494427
      vertex 2.98877 2.39336 -2.6
      vertex 2.3269 1.59684 -0.100465
    endloop
  endfacet
  facet normal 0.769109 -0.639118 -8.07975e-06
    outer loop
      vertex 2.30598 1.57166 0.29981
      vertex 2.3269 1.59684 -0.100465
      vertex 2.98877 2.39336 -2.6
    endloop
  endfacet
  facet normal 0.769123 -0.639101 0
    outer loop
      vertex 2.30598 1.57166 0.29981
      vertex 2.98877 2.39336 -2.6
      vertex 2.98877 2.39336 10.6
    endloop
  endfacet
  facet normal 0.809014 -0.587789 0
    outer loop
      vertex 2.98877 2.39336 -2.6
      vertex 3.59286 3.22481 -2.6
      vertex 2.98877 2.39336 10.6
    endloop
  endfacet
  facet normal 0.809014 -0.587789 0
    outer loop
      vertex 2.98877 2.39336 10.6
      vertex 3.59286 3.22481 -2.6
      vertex 3.59286 3.22481 10.6
    endloop
  endfacet
  facet normal 0.809014 0.587789 0
    outer loop
      vertex 2.98877 8.00664 -2.6
      vertex 2.98877 8.00664 10.6
      vertex 3.59286 7.17519 10.6
    endloop
  endfacet
  facet normal 0.809014 0.587789 0
    outer loop
      vertex 2.98877 8.00664 -2.6
      vertex 3.59286 7.17519 10.6
      vertex 3.59286 7.17519 -2.6
    endloop
  endfacet
  facet normal 0 0 1
    outer loop
      vertex 3.3 5.2 10.6
      vertex 3.59286 3.22481 10.6
      vertex 3.97119 4.18037 10.6
    endloop
  endfacet
  facet normal 0 0 1
    outer loop
      vertex 3.3 5.2 10.6
      vertex 3.97119 4.18037 10.6
      vertex 4.1 5.2 10.6
    endloop
  endfacet
  facet normal 0 0 1
    outer loop
      vertex 3.3 5.2 10.6
      vertex 3.97119 6.21963 10.6
      vertex 3.59286 7.17519 10.6
    endloop
  endfacet
  facet normal 0 0 1
    outer loop
      vertex 3.3 5.2 10.6
      vertex 4.1 5.2 10.6
      vertex 3.97119 6.21963 10.6
    endloop
  endfacet
  facet normal 0.929777 -0.368122 0
    outer loop
      vertex 3.59286 3.22481 -2.6
      vertex 3.97119 4.18037 -2.6
      vertex 3.59286 3.22481 10.6
    endloop
  endfacet
  facet normal 0.929777 -0.368122 0
    outer loop
      vertex 3.59286 3.22481 10.6
      vertex 3.97119 4.18037 -2.6
      vertex 3.97119 4.18037 10.6
    endloop
  endfacet
  facet normal 0.929777 0.368122 0
    outer loop
      vertex 3.59286 7.17519 -2.6
      vertex 3.59286 7.17519 10.6
      vertex 3.97119 6.21963 10.6
    endloop
  endfacet
  facet normal 0.929777 0.368122 0
    outer loop
      vertex 3.59286 7.17519 -2.6
      vertex 3.97119 6.21963 10.6
      vertex 3.97119 6.21963 -2.6
    endloop
  endfacet
  facet normal 0.992115 -0.125334 0
    outer loop
      vertex 3.97119 4.18037 -2.6
      vertex 4.1 5.2 -2.6
      vertex 3.97119 4.18037 10.6
    endloop
  endfacet
  facet normal 0.992115 -0.125334 0
    outer loop
      vertex 3.97119 4.18037 10.6
      vertex 4.1 5.2 -2.6
      vertex 4.1 5.2 10.6
    endloop
  endfacet
  facet normal 0.992115 0.125334 0
    outer loop
      vertex 3.97119 6.21963 -2.6
      vertex 3.97119 6.21963 10.6
      vertex 4.1 5.2 10.6
    endloop
  endfacet
  facet normal 0.992115 0.125334 0
    outer loop
      vertex 3.97119 6.21963 -2.6
      vertex 4.1 5.2 10.6
      vertex 4.1 5.2 -2.6
    endloop
  endfacet
endsolid model
