solid model
  facet normal 0.156416 0.987691 -0
    outer loop
      vertex -0.494427 14.9783 1.8
      vertex 0 14.9 1.8
      vertex 0 14.9 3.8147e-07
    endloop
  endfacet
  facet normal 0.156416 0.987691 0
    outer loop
      vertex -0.494427 14.9783 3.8147e-07
      vertex -0.494427 14.9783 1.8
      vertex 0 14.9 3.8147e-07
    endloop
  endfacet
  facet normal 0 0 1
    outer loop
      vertex -0.494427 18.0217 1.8
      vertex 0 18.1 1.8
      vertex -0.494427 29.1433 1.8
    endloop
  endfacet
  facet normal 0 0 -1
    outer loop
      vertex -0.494427 18.0217 3.8147e-07
      vertex -0.494427 29.1433 3.8147e-07
      vertex 0 29.065 3.8147e-07
    endloop
  endfacet
  facet normal 0.156416 -0.987691 0
    outer loop
      vertex -0.494427 18.0217 3.8147e-07
      vertex 0 18.1 1.8
      vertex -0.494427 18.0217 1.8
    endloop
  endfacet
  facet normal 0.156416 -0.987691 0
    outer loop
      vertex -0.494427 18.0217 3.8147e-07
      vertex 0 18.1 3.8147e-07
      vertex 0 18.1 1.8
    endloop
  endfacet
  facet normal 0 0 -1
    outer loop
      vertex -0.494427 18.0217 3.8147e-07
      vertex 0 29.065 3.8147e-07
      vertex 0 18.1 3.8147e-07
    endloop
  endfacet
  facet normal 0 0 1
    outer loop
      vertex -0.494427 29.1433 1.8
      vertex 0 18.1 1.8
      vertex 0 29.065 1.8
    endloop
  endfacet
  facet normal 0.156416 0.987691 -0
    outer loop
      vertex -0.494427 29.1433 1.8
      vertex 0 29.065 1.8
      vertex 0 29.065 3.8147e-07
    endloop
  endfacet
  facet normal 0.156416 0.987691 0
    outer loop
      vertex -0.494427 29.1433 3.8147e-07
      vertex -0.494427 29.1433 1.8
      vertex 0 29.065 3.8147e-07
    endloop
  endfacet
  facet normal 0.156416 -0.987691 0
    outer loop
      vertex -0.494427 32.1867 3.8147e-07
      vertex 0 32.265 1.8
      vertex -0.494427 32.1867 1.8
    endloop
  endfacet
  facet normal 0.156416 -0.987691 0
    outer loop
      vertex -0.494427 32.1867 3.8147e-07
      vertex 0 32.265 3.8147e-07
      vertex 0 32.265 1.8
    endloop
  endfacet
  facet normal 0.454049 0.890977 -0
    outer loop
      vertex -0.940456 15.2056 1.8
      vertex -0.494427 14.9783 1.8
      vertex -0.494427 14.9783 3.8147e-07
    endloop
  endfacet
  facet normal 0.454049 0.890977 0
    outer loop
      vertex -0.940456 15.2056 3.8147e-07
      vertex -0.940456 15.2056 1.8
      vertex -0.494427 14.9783 3.8147e-07
    endloop
  endfacet
  facet normal 0 0 1
    outer loop
      vertex -0.940456 17.7944 1.8
      vertex -0.494427 18.0217 1.8
      vertex -0.940456 29.3706 1.8
    endloop
  endfacet
  facet normal 0.454049 -0.890977 0
    outer loop
      vertex -0.940456 17.7944 3.8147e-07
      vertex -0.494427 18.0217 1.8
      vertex -0.940456 17.7944 1.8
    endloop
  endfacet
  facet normal 0.454049 -0.890977 0
    outer loop
      vertex -0.940456 17.7944 3.8147e-07
      vertex -0.494427 18.0217 3.8147e-07
      vertex -0.494427 18.0217 1.8
    endloop
  endfacet
  facet normal 0 0 -1
    outer loop
      vertex -0.940456 17.7944 3.8147e-07
      vertex -0.494427 29.1433 3.8147e-07
      vertex -0.494427 18.0217 3.8147e-07
    endloop
  endfacet
  facet normal 0 0 -1
    outer loop
      vertex -0.940456 17.7944 3.8147e-07
      vertex -0.940456 29.3706 3.8147e-07
      vertex -0.494427 29.1433 3.8147e-07
    endloop
  endfacet
  facet normal 0 0 1
    outer loop
      vertex -0.940456 29.3706 1.8
      vertex -0.494427 18.0217 1.8
      vertex -0.494427 29.1433 1.8
    endloop
  endfacet
  facet normal 0.454049 0.890977 -0
    outer loop
      vertex -0.940456 29.3706 1.8
      vertex -0.494427 29.1433 1.8
      vertex -0.494427 29.1433 3.8147e-07
    endloop
  endfacet
  facet normal 0.454049 0.890977 0
    outer loop
      vertex -0.940456 29.3706 3.8147e-07
      vertex -0.940456 29.3706 1.8
      vertex -0.494427 29.1433 3.8147e-07
    endloop
  endfacet
  facet normal 0.454049 -0.890977 0
    outer loop
      vertex -0.940456 31.9594 3.8147e-07
      vertex -0.494427 32.1867 1.8
      vertex -0.940456 31.9594 1.8
    endloop
  endfacet
  facet normal 0.454049 -0.890977 0
    outer loop
      vertex -0.940456 31.9594 3.8147e-07
      vertex -0.494427 32.1867 3.8147e-07
      vertex -0.494427 32.1867 1.8
    endloop
  endfacet
  facet normal -1 -0 0
    outer loop
      vertex -1.14011 3.51874 1.3
      vertex -1.14011 3.51874 1.8
      vertex -1.14011 7.77739 1.8
    endloop
  endfacet
  facet normal -1 0 0
    outer loop
      vertex -1.14011 3.51874 1.3
      vertex -1.14011 7.77739 1.8
      vertex -1.14011 7.77739 1.3
    endloop
  endfacet
  facet normal -0 0 1
    outer loop
      vertex -1.14011 3.51874 1.3
      vertex 0.0228424 3 1.3
      vertex 0.0228424 3.51874 1.3
    endloop
  endfacet
  facet normal 0 -1 -0
    outer loop
      vertex -1.14011 3.51874 1.3
      vertex 0.0228424 3.51874 1.3
      vertex 0.0228424 3.51874 1.8
    endloop
  endfacet
  facet normal 0 -1 0
    outer loop
      vertex -1.14011 3.51874 1.3
      vertex 0.0228424 3.51874 1.8
      vertex -1.14011 3.51874 1.8
    endloop
  endfacet
  facet normal 0 0 1
    outer loop
      vertex -1.14011 3.51874 1.8
      vertex 0.0228424 3.51874 1.8
      vertex -1.14011 7.77739 1.8
    endloop
  endfacet
  facet normal 0 0 1
    outer loop
      vertex -1.14011 7.77739 1.8
      vertex -0.494427 14.9783 1.8
      vertex -0.940456 15.2056 1.8
    endloop
  endfacet
  facet normal 0 0 1
    outer loop
      vertex -1.14011 7.77739 1.8
      vertex 0 14.9 1.8
      vertex -0.494427 14.9783 1.8
    endloop
  endfacet
  facet normal 0 0 1
    outer loop
      vertex -1.14011 7.77739 1.8
      vertex 0.0228424 3.51874 1.8
      vertex 0.848022 7.77739 1.8
    endloop
  endfacet
  facet normal 0 0 1
    outer loop
      vertex -1.14011 7.77739 1.8
      vertex 0.848022 7.77739 1.8
      vertex 0 14.9 1.8
    endloop
  endfacet
  facet normal 0.707033 0.707181 0
    outer loop
      vertex -1.29443 15.5595 3.8147e-07
      vertex -0.940456 15.2056 1.8
      vertex -0.940456 15.2056 3.8147e-07
    endloop
  endfacet
  facet normal 0.707033 0.707181 0
    outer loop
      vertex -1.29443 15.5595 3.8147e-07
      vertex -1.29443 15.5595 1.8
      vertex -0.940456 15.2056 1.8
    endloop
  endfacet
  facet normal 0.707033 -0.707181 0
    outer loop
      vertex -1.29443 17.4405 1.8
      vertex -0.940456 17.7944 3.8147e-07
      vertex -0.940456 17.7944 1.8
    endloop
  endfacet
  facet normal 0.707033 -0.707181 0
    outer loop
      vertex -1.29443 17.4405 3.8147e-07
      vertex -0.940456 17.7944 3.8147e-07
      vertex -1.29443 17.4405 1.8
    endloop
  endfacet
  facet normal 0.707033 0.707181 -0
    outer loop
      vertex -1.29443 29.7245 1.8
      vertex -0.940456 29.3706 1.8
      vertex -0.940456 29.3706 3.8147e-07
    endloop
  endfacet
  facet normal 0.707033 0.707181 0
    outer loop
      vertex -1.29443 29.7245 3.8147e-07
      vertex -1.29443 29.7245 1.8
      vertex -0.940456 29.3706 3.8147e-07
    endloop
  endfacet
  facet normal 0.707033 -0.707181 0
    outer loop
      vertex -1.29443 31.6055 1.8
      vertex -0.940456 31.9594 3.8147e-07
      vertex -0.940456 31.9594 1.8
    endloop
  endfacet
  facet normal 0.707033 -0.707181 0
    outer loop
      vertex -1.29443 31.6055 3.8147e-07
      vertex -0.940456 31.9594 3.8147e-07
      vertex -1.29443 31.6055 1.8
    endloop
  endfacet
  facet normal 0.891038 0.453928 0
    outer loop
      vertex -1.52169 16.0056 3.8147e-07
      vertex -1.29443 15.5595 1.8
      vertex -1.29443 15.5595 3.8147e-07
    endloop
  endfacet
  facet normal 0.891038 0.453928 0
    outer loop
      vertex -1.52169 16.0056 3.8147e-07
      vertex -1.52169 16.0056 1.8
      vertex -1.29443 15.5595 1.8
    endloop
  endfacet
  facet normal 0.891038 -0.453928 0
    outer loop
      vertex -1.52169 16.9944 1.8
      vertex -1.29443 17.4405 3.8147e-07
      vertex -1.29443 17.4405 1.8
    endloop
  endfacet
  facet normal 0.891038 -0.453928 0
    outer loop
      vertex -1.52169 16.9944 3.8147e-07
      vertex -1.29443 17.4405 3.8147e-07
      vertex -1.52169 16.9944 1.8
    endloop
  endfacet
  facet normal 0.891038 0.453928 0
    outer loop
      vertex -1.52169 30.1706 3.8147e-07
      vertex -1.29443 29.7245 1.8
      vertex -1.29443 29.7245 3.8147e-07
    endloop
  endfacet
  facet normal 0.891038 0.453928 0
    outer loop
      vertex -1.52169 30.1706 3.8147e-07
      vertex -1.52169 30.1706 1.8
      vertex -1.29443 29.7245 1.8
    endloop
  endfacet
  facet normal 0.891038 -0.453928 0
    outer loop
      vertex -1.52169 31.1594 1.8
      vertex -1.29443 31.6055 3.8147e-07
      vertex -1.29443 31.6055 1.8
    endloop
  endfacet
  facet normal 0.891038 -0.453928 0
    outer loop
      vertex -1.52169 31.1594 3.8147e-07
      vertex -1.29443 31.6055 3.8147e-07
      vertex -1.52169 31.1594 1.8
    endloop
  endfacet
  facet normal 0.987687 -0.156444 0
    outer loop
      vertex -1.6 16.5 1.8
      vertex -1.52169 16.9944 3.8147e-07
      vertex -1.52169 16.9944 1.8
    endloop
  endfacet
  facet normal 0.987687 0.156444 0
    outer loop
      vertex -1.6 16.5 3.8147e-07
      vertex -1.52169 16.0056 1.8
      vertex -1.52169 16.0056 3.8147e-07
    endloop
  endfacet
  facet normal 0.987687 -0.156444 0
    outer loop
      vertex -1.6 16.5 3.8147e-07
      vertex -1.52169 16.9944 3.8147e-07
      vertex -1.6 16.5 1.8
    endloop
  endfacet
  facet normal 0.987687 0.156444 0
    outer loop
      vertex -1.6 16.5 3.8147e-07
      vertex -1.6 16.5 1.8
      vertex -1.52169 16.0056 1.8
    endloop
  endfacet
  facet normal 0.987687 -0.156444 0
    outer loop
      vertex -1.6 30.665 1.8
      vertex -1.52169 31.1594 3.8147e-07
      vertex -1.52169 31.1594 1.8
    endloop
  endfacet
  facet normal 0.987687 0.156444 0
    outer loop
      vertex -1.6 30.665 3.8147e-07
      vertex -1.52169 30.1706 1.8
      vertex -1.52169 30.1706 3.8147e-07
    endloop
  endfacet
  facet normal 0.987687 -0.156444 0
    outer loop
      vertex -1.6 30.665 3.8147e-07
      vertex -1.52169 31.1594 3.8147e-07
      vertex -1.6 30.665 1.8
    endloop
  endfacet
  facet normal 0.987687 0.156444 0
    outer loop
      vertex -1.6 30.665 3.8147e-07
      vertex -1.6 30.665 1.8
      vertex -1.52169 30.1706 1.8
    endloop
  endfacet
  facet normal 0 -1 -0
    outer loop
      vertex -1.70296 7.77739 1.3
      vertex -1.14011 7.77739 1.3
      vertex -1.14011 7.77739 1.8
    endloop
  endfacet
  facet normal 0 -1 0
    outer loop
      vertex -1.70296 7.77739 1.3
      vertex -1.14011 7.77739 1.8
      vertex -1.70296 7.77739 1.8
    endloop
  endfacet
  facet normal 0 0 1
    outer loop
      vertex -1.70296 7.77739 1.8
      vertex -0.940456 15.2056 1.8
      vertex -1.29443 15.5595 1.8
    endloop
  endfacet
  facet normal 0 0 1
    outer loop
      vertex -1.70296 7.77739 1.8
      vertex -1.14011 7.77739 1.8
      vertex -0.940456 15.2056 1.8
    endloop
  endfacet
  facet normal 0 0 1
    outer loop
      vertex -1.75386 3.51874 1.3
      vertex -1.14011 3.51874 1.3
      vertex -1.75386 7.1942 1.3
    endloop
  endfacet
  facet normal 1 0 0
    outer loop
      vertex -1.75386 3.51874 1.3
      vertex -1.75386 7.1942 1.3
      vertex -1.75386 3.51874 1.8
    endloop
  endfacet
  facet normal -0 0 1
    outer loop
      vertex -1.75386 3.51874 1.3
      vertex 0.0228424 3 1.3
      vertex -1.14011 3.51874 1.3
    endloop
  endfacet
  facet normal 1 -0 0
    outer loop
      vertex -1.75386 3.51874 1.8
      vertex -1.75386 7.1942 1.3
      vertex -1.75386 7.1942 1.8
    endloop
  endfacet
  facet normal 0 0 1
    outer loop
      vertex -1.75386 7.1942 1.3
      vertex -1.14011 3.51874 1.3
      vertex -1.14011 7.77739 1.3
    endloop
  endfacet
  facet normal 0 0 1
    outer loop
      vertex -1.75386 7.1942 1.3
      vertex -1.14011 7.77739 1.3
      vertex -1.70296 7.77739 1.3
    endloop
  endfacet
  facet normal 0 0 1
    outer loop
      vertex -11.7874 2.24858 1.8
      vertex -2.83206 6.42455 1.8
      vertex -2.83206 7.00095 1.8
    endloop
  endfacet
  facet normal 0 0 1
    outer loop
      vertex -11.7874 2.24858 1.8
      vertex -2.83206 7.00095 1.8
      vertex -8.5 17.7062 1.8
    endloop
  endfacet
  facet normal 0 0 1
    outer loop
      vertex -11.7874 2.24858 1.8
      vertex -2.97105 3 1.8
      vertex -2.97105 3.51874 1.8
    endloop
  endfacet
  facet normal 0 0 1
    outer loop
      vertex -11.7874 2.24858 1.8
      vertex -2.97105 3.51874 1.8
      vertex -2.83206 6.42455 1.8
    endloop
  endfacet
  facet normal -0 0 -1
    outer loop
      vertex -11.7874 2.24858 3.8147e-07
      vertex -0.494427 14.9783 3.8147e-07
      vertex 0 14.9 3.8147e-07
    endloop
  endfacet
  facet normal -0 0 -1
    outer loop
      vertex -11.7874 2.24858 3.8147e-07
      vertex -0.940456 15.2056 3.8147e-07
      vertex -0.494427 14.9783 3.8147e-07
    endloop
  endfacet
  facet normal -0 0 -1
    outer loop
      vertex -11.7874 2.24858 3.8147e-07
      vertex -1.29443 15.5595 3.8147e-07
      vertex -0.940456 15.2056 3.8147e-07
    endloop
  endfacet
  facet normal -0.978125 0.20802 0
    outer loop
      vertex -11.7874 2.24858 3.8147e-07
      vertex -11.7874 2.24858 1.8
      vertex -8.5 17.7062 1.8
    endloop
  endfacet
  facet normal -0.978125 0.20802 0
    outer loop
      vertex -11.7874 2.24858 3.8147e-07
      vertex -8.5 17.7062 1.8
      vertex -8.5 17.7062 3.8147e-07
    endloop
  endfacet
  facet normal -0 0 -1
    outer loop
      vertex -11.7874 2.24858 3.8147e-07
      vertex -8.5 17.7062 3.8147e-07
      vertex -1.29443 15.5595 3.8147e-07
    endloop
  endfacet
  facet normal 0 0 -1
    outer loop
      vertex -11.7874 2.24858 3.8147e-07
      vertex 0 14.9 3.8147e-07
      vertex 11.7874 2.24858 3.8147e-07
    endloop
  endfacet
  facet normal 0 0 -1
    outer loop
      vertex -11.7874 2.24858 3.8147e-07
      vertex 11.7874 2.24858 3.8147e-07
      vertex 12 0 3.8147e-07
    endloop
  endfacet
  facet normal 0 0 1
    outer loop
      vertex -11.9054 1.504 1.8
      vertex -2.97105 3 1.8
      vertex -11.7874 2.24858 1.8
    endloop
  endfacet
  facet normal -0.987674 0.156525 0
    outer loop
      vertex -11.9054 1.504 3.8147e-07
      vertex -11.7874 2.24858 1.8
      vertex -11.7874 2.24858 3.8147e-07
    endloop
  endfacet
  facet normal 0 0 -1
    outer loop
      vertex -11.9054 1.504 3.8147e-07
      vertex -11.7874 2.24858 3.8147e-07
      vertex 12 0 3.8147e-07
    endloop
  endfacet
  facet normal -0.987674 0.156525 0
    outer loop
      vertex -11.9054 1.504 3.8147e-07
      vertex -11.9054 1.504 1.8
      vertex -11.7874 2.24858 1.8
    endloop
  endfacet
  facet normal 0 0 1
    outer loop
      vertex -11.9763 0.753486 1.8
      vertex -2.97105 3 1.8
      vertex -11.9054 1.504 1.8
    endloop
  endfacet
  facet normal -0.995567 0.0940499 0
    outer loop
      vertex -11.9763 0.753486 3.8147e-07
      vertex -11.9054 1.504 1.8
      vertex -11.9054 1.504 3.8147e-07
    endloop
  endfacet
  facet normal 0 0 -1
    outer loop
      vertex -11.9763 0.753486 3.8147e-07
      vertex -11.9054 1.504 3.8147e-07
      vertex 12 0 3.8147e-07
    endloop
  endfacet
  facet normal -0.995567 0.0940499 0
    outer loop
      vertex -11.9763 0.753486 3.8147e-07
      vertex -11.9763 0.753486 1.8
      vertex -11.9054 1.504 1.8
    endloop
  endfacet
  facet normal 0 0 1
    outer loop
      vertex -12 0 1.8
      vertex -2.97105 3 1.8
      vertex -11.9763 0.753486 1.8
    endloop
  endfacet
  facet normal 0 0 1
    outer loop
      vertex -12 0 1.8
      vertex 0.0228424 3 1.8
      vertex -2.97105 3 1.8
    endloop
  endfacet
  facet normal 0 0 1
    outer loop
      vertex -12 0 1.8
      vertex 12 0 1.8
      vertex 0.0228424 3 1.8
    endloop
  endfacet
  facet normal -0.999506 0.0314383 0
    outer loop
      vertex -12 0 3.8147e-07
      vertex -11.9763 0.753486 1.8
      vertex -11.9763 0.753486 3.8147e-07
    endloop
  endfacet
  facet normal 0 -0 -1
    outer loop
      vertex -12 0 3.8147e-07
      vertex -11.9763 0.753486 3.8147e-07
      vertex 12 0 3.8147e-07
    endloop
  endfacet
  facet normal -0.999506 0.0314383 0
    outer loop
      vertex -12 0 3.8147e-07
      vertex -12 0 1.8
      vertex -11.9763 0.753486 1.8
    endloop
  endfacet
  facet normal 0 -1 0
    outer loop
      vertex -12 0 3.8147e-07
      vertex 12 0 1.8
      vertex -12 0 1.8
    endloop
  endfacet
  facet normal 0 -1 -0
    outer loop
      vertex -12 0 3.8147e-07
      vertex 12 0 3.8147e-07
      vertex 12 0 1.8
    endloop
  endfacet
  facet normal 0 0 1
    outer loop
      vertex -2.83206 6.42455 1.3
      vertex -1.75386 7.1942 1.3
      vertex -2.83206 7.00095 1.3
    endloop
  endfacet
  facet normal -0.580992 0.813909 0
    outer loop
      vertex -2.83206 6.42455 1.3
      vertex -2.83206 6.42455 1.8
      vertex -1.75386 7.1942 1.3
    endloop
  endfacet
  facet normal 1 0 0
    outer loop
      vertex -2.83206 6.42455 1.3
      vertex -2.83206 7.00095 1.3
      vertex -2.83206 6.42455 1.8
    endloop
  endfacet
  facet normal -0 0 1
    outer loop
      vertex -2.83206 6.42455 1.8
      vertex -1.75386 3.51874 1.8
      vertex -1.75386 7.1942 1.8
    endloop
  endfacet
  facet normal -0.580992 0.813909 0
    outer loop
      vertex -2.83206 6.42455 1.8
      vertex -1.75386 7.1942 1.8
      vertex -1.75386 7.1942 1.3
    endloop
  endfacet
  facet normal 1 -0 0
    outer loop
      vertex -2.83206 6.42455 1.8
      vertex -2.83206 7.00095 1.3
      vertex -2.83206 7.00095 1.8
    endloop
  endfacet
  facet normal 0.56662 -0.823979 0
    outer loop
      vertex -2.83206 7.00095 1.3
      vertex -1.70296 7.77739 1.3
      vertex -1.70296 7.77739 1.8
    endloop
  endfacet
  facet normal 0.56662 -0.823979 0
    outer loop
      vertex -2.83206 7.00095 1.3
      vertex -1.70296 7.77739 1.8
      vertex -2.83206 7.00095 1.8
    endloop
  endfacet
  facet normal 0 0 1
    outer loop
      vertex -2.83206 7.00095 1.3
      vertex -1.75386 7.1942 1.3
      vertex -1.70296 7.77739 1.3
    endloop
  endfacet
  facet normal 0 0 1
    outer loop
      vertex -2.83206 7.00095 1.8
      vertex -1.70296 7.77739 1.8
      vertex -1.29443 15.5595 1.8
    endloop
  endfacet
  facet normal 0 0 1
    outer loop
      vertex -2.97105 3 1.3
      vertex -1.75386 3.51874 1.3
      vertex -2.97105 3.51874 1.3
    endloop
  endfacet
  facet normal 0 1 0
    outer loop
      vertex -2.97105 3 1.3
      vertex -2.97105 3 1.8
      vertex 0.0228424 3 1.3
    endloop
  endfacet
  facet normal 1 0 0
    outer loop
      vertex -2.97105 3 1.3
      vertex -2.97105 3.51874 1.3
      vertex -2.97105 3 1.8
    endloop
  endfacet
  facet normal 0 0 1
    outer loop
      vertex -2.97105 3 1.3
      vertex 0.0228424 3 1.3
      vertex -1.75386 3.51874 1.3
    endloop
  endfacet
  facet normal 1 -0 0
    outer loop
      vertex -2.97105 3 1.8
      vertex -2.97105 3.51874 1.3
      vertex -2.97105 3.51874 1.8
    endloop
  endfacet
  facet normal 0 1 -0
    outer loop
      vertex -2.97105 3 1.8
      vertex 0.0228424 3 1.8
      vertex 0.0228424 3 1.3
    endloop
  endfacet
  facet normal 0 -1 -0
    outer loop
      vertex -2.97105 3.51874 1.3
      vertex -1.75386 3.51874 1.3
      vertex -1.75386 3.51874 1.8
    endloop
  endfacet
  facet normal 0 -1 0
    outer loop
      vertex -2.97105 3.51874 1.3
      vertex -1.75386 3.51874 1.8
      vertex -2.97105 3.51874 1.8
    endloop
  endfacet
  facet normal 0 0 1
    outer loop
      vertex -2.97105 3.51874 1.8
      vertex -1.75386 3.51874 1.8
      vertex -2.83206 6.42455 1.8
    endloop
  endfacet
  facet normal 0 0 1
    outer loop
      vertex -8.5 17.7062 1.8
      vertex -0.940456 17.7944 1.8
      vertex -0.940456 29.3706 1.8
    endloop
  endfacet
  facet normal 0 0 1
    outer loop
      vertex -8.5 17.7062 1.8
      vertex -0.940456 29.3706 1.8
      vertex -1.29443 29.7245 1.8
    endloop
  endfacet
  facet normal 0 0 1
    outer loop
      vertex -8.5 17.7062 1.8
      vertex -1.29443 15.5595 1.8
      vertex -1.52169 16.0056 1.8
    endloop
  endfacet
  facet normal 0 0 1
    outer loop
      vertex -8.5 17.7062 1.8
      vertex -1.29443 17.4405 1.8
      vertex -0.940456 17.7944 1.8
    endloop
  endfacet
  facet normal 0 0 1
    outer loop
      vertex -8.5 17.7062 1.8
      vertex -1.29443 29.7245 1.8
      vertex -1.52169 30.1706 1.8
    endloop
  endfacet
  facet normal 0 0 1
    outer loop
      vertex -8.5 17.7062 1.8
      vertex -1.52169 16.0056 1.8
      vertex -1.6 16.5 1.8
    endloop
  endfacet
  facet normal 0 0 1
    outer loop
      vertex -8.5 17.7062 1.8
      vertex -1.52169 16.9944 1.8
      vertex -1.29443 17.4405 1.8
    endloop
  endfacet
  facet normal 0 0 1
    outer loop
      vertex -8.5 17.7062 1.8
      vertex -1.52169 30.1706 1.8
      vertex -8.5 35 1.8
    endloop
  endfacet
  facet normal 0 0 1
    outer loop
      vertex -8.5 17.7062 1.8
      vertex -1.6 16.5 1.8
      vertex -1.52169 16.9944 1.8
    endloop
  endfacet
  facet normal 0 0 1
    outer loop
      vertex -8.5 17.7062 1.8
      vertex -2.83206 7.00095 1.8
      vertex -1.29443 15.5595 1.8
    endloop
  endfacet
  facet normal 0 0 -1
    outer loop
      vertex -8.5 17.7062 3.8147e-07
      vertex -0.940456 17.7944 3.8147e-07
      vertex -1.29443 17.4405 3.8147e-07
    endloop
  endfacet
  facet normal -0 0 -1
    outer loop
      vertex -8.5 17.7062 3.8147e-07
      vertex -0.940456 29.3706 3.8147e-07
      vertex -0.940456 17.7944 3.8147e-07
    endloop
  endfacet
  facet normal 0 0 -1
    outer loop
      vertex -8.5 17.7062 3.8147e-07
      vertex -1.29443 17.4405 3.8147e-07
      vertex -1.52169 16.9944 3.8147e-07
    endloop
  endfacet
  facet normal -0 0 -1
    outer loop
      vertex -8.5 17.7062 3.8147e-07
      vertex -1.29443 29.7245 3.8147e-07
      vertex -0.940456 29.3706 3.8147e-07
    endloop
  endfacet
  facet normal 0 0 -1
    outer loop
      vertex -8.5 17.7062 3.8147e-07
      vertex -1.52169 16.0056 3.8147e-07
      vertex -1.29443 15.5595 3.8147e-07
    endloop
  endfacet
  facet normal 0 0 -1
    outer loop
      vertex -8.5 17.7062 3.8147e-07
      vertex -1.52169 16.9944 3.8147e-07
      vertex -1.6 16.5 3.8147e-07
    endloop
  endfacet
  facet normal -0 0 -1
    outer loop
      vertex -8.5 17.7062 3.8147e-07
      vertex -1.52169 30.1706 3.8147e-07
      vertex -1.29443 29.7245 3.8147e-07
    endloop
  endfacet
  facet normal 0 0 -1
    outer loop
      vertex -8.5 17.7062 3.8147e-07
      vertex -1.6 16.5 3.8147e-07
      vertex -1.52169 16.0056 3.8147e-07
    endloop
  endfacet
  facet normal -1 -0 0
    outer loop
      vertex -8.5 17.7062 3.8147e-07
      vertex -8.5 17.7062 1.8
      vertex -8.5 35 1.8
    endloop
  endfacet
  facet normal -1 0 0
    outer loop
      vertex -8.5 17.7062 3.8147e-07
      vertex -8.5 35 1.8
      vertex -8.5 35 3.8147e-07
    endloop
  endfacet
  facet normal 0 0 -1
    outer loop
      vertex -8.5 17.7062 3.8147e-07
      vertex -8.5 35 3.8147e-07
      vertex -1.52169 30.1706 3.8147e-07
    endloop
  endfacet
  facet normal 0 0 1
    outer loop
      vertex -8.5 35 1.8
      vertex -0.494427 32.1867 1.8
      vertex 0 32.265 1.8
    endloop
  endfacet
  facet normal 0 0 1
    outer loop
      vertex -8.5 35 1.8
      vertex -0.940456 31.9594 1.8
      vertex -0.494427 32.1867 1.8
    endloop
  endfacet
  facet normal 0 0 1
    outer loop
      vertex -8.5 35 1.8
      vertex -1.29443 31.6055 1.8
      vertex -0.940456 31.9594 1.8
    endloop
  endfacet
  facet normal 0 0 1
    outer loop
      vertex -8.5 35 1.8
      vertex -1.52169 30.1706 1.8
      vertex -1.6 30.665 1.8
    endloop
  endfacet
  facet normal 0 0 1
    outer loop
      vertex -8.5 35 1.8
      vertex -1.52169 31.1594 1.8
      vertex -1.29443 31.6055 1.8
    endloop
  endfacet
  facet normal 0 0 1
    outer loop
      vertex -8.5 35 1.8
      vertex -1.6 30.665 1.8
      vertex -1.52169 31.1594 1.8
    endloop
  endfacet
  facet normal -0 0 1
    outer loop
      vertex -8.5 35 1.8
      vertex 0 32.265 1.8
      vertex 8.5 35 1.8
    endloop
  endfacet
  facet normal 0 1 -0
    outer loop
      vertex -8.5 35 1.8
      vertex 8.5 35 1.8
      vertex 8.5 35 3.8147e-07
    endloop
  endfacet
  facet normal 0 0 -1
    outer loop
      vertex -8.5 35 3.8147e-07
      vertex -0.494427 32.1867 3.8147e-07
      vertex -0.940456 31.9594 3.8147e-07
    endloop
  endfacet
  facet normal 0 0 -1
    outer loop
      vertex -8.5 35 3.8147e-07
      vertex -0.940456 31.9594 3.8147e-07
      vertex -1.29443 31.6055 3.8147e-07
    endloop
  endfacet
  facet normal 0 0 -1
    outer loop
      vertex -8.5 35 3.8147e-07
      vertex -1.29443 31.6055 3.8147e-07
      vertex -1.52169 31.1594 3.8147e-07
    endloop
  endfacet
  facet normal 0 0 -1
    outer loop
      vertex -8.5 35 3.8147e-07
      vertex -1.52169 31.1594 3.8147e-07
      vertex -1.6 30.665 3.8147e-07
    endloop
  endfacet
  facet normal 0 0 -1
    outer loop
      vertex -8.5 35 3.8147e-07
      vertex -1.6 30.665 3.8147e-07
      vertex -1.52169 30.1706 3.8147e-07
    endloop
  endfacet
  facet normal 0 1 0
    outer loop
      vertex -8.5 35 3.8147e-07
      vertex -8.5 35 1.8
      vertex 8.5 35 3.8147e-07
    endloop
  endfacet
  facet normal 0 0 -1
    outer loop
      vertex -8.5 35 3.8147e-07
      vertex 0 32.265 3.8147e-07
      vertex -0.494427 32.1867 3.8147e-07
    endloop
  endfacet
  facet normal 0 0 -1
    outer loop
      vertex -8.5 35 3.8147e-07
      vertex 8.5 35 3.8147e-07
      vertex 0 32.265 3.8147e-07
    endloop
  endfacet
  facet normal -0.156416 0.987691 0
    outer loop
      vertex 0 14.9 1.8
      vertex 0.494427 14.9783 1.8
      vertex 0.494427 14.9783 3.8147e-07
    endloop
  endfacet
  facet normal -0 0 1
    outer loop
      vertex 0 14.9 1.8
      vertex 0.848022 7.77739 1.8
      vertex 0.494427 14.9783 1.8
    endloop
  endfacet
  facet normal -0.156416 0.987691 0
    outer loop
      vertex 0 14.9 3.8147e-07
      vertex 0 14.9 1.8
      vertex 0.494427 14.9783 3.8147e-07
    endloop
  endfacet
  facet normal 0 0 -1
    outer loop
      vertex 0 14.9 3.8147e-07
      vertex 0.494427 14.9783 3.8147e-07
      vertex 11.7874 2.24858 3.8147e-07
    endloop
  endfacet
  facet normal 0 0 1
    outer loop
      vertex 0 18.1 1.8
      vertex 0.494427 18.0217 1.8
      vertex 0 29.065 1.8
    endloop
  endfacet
  facet normal 0 0 -1
    outer loop
      vertex 0 18.1 3.8147e-07
      vertex 0 29.065 3.8147e-07
      vertex 0.494427 29.1433 3.8147e-07
    endloop
  endfacet
  facet normal -0.156416 -0.987691 0
    outer loop
      vertex 0 18.1 3.8147e-07
      vertex 0.494427 18.0217 1.8
      vertex 0 18.1 1.8
    endloop
  endfacet
  facet normal -0.156416 -0.987691 -0
    outer loop
      vertex 0 18.1 3.8147e-07
      vertex 0.494427 18.0217 3.8147e-07
      vertex 0.494427 18.0217 1.8
    endloop
  endfacet
  facet normal 0 0 -1
    outer loop
      vertex 0 18.1 3.8147e-07
      vertex 0.494427 29.1433 3.8147e-07
      vertex 0.494427 18.0217 3.8147e-07
    endloop
  endfacet
  facet normal -0 0 1
    outer loop
      vertex 0 29.065 1.8
      vertex 0.494427 18.0217 1.8
      vertex 0.494427 29.1433 1.8
    endloop
  endfacet
  facet normal -0.156416 0.987691 0
    outer loop
      vertex 0 29.065 1.8
      vertex 0.494427 29.1433 1.8
      vertex 0.494427 29.1433 3.8147e-07
    endloop
  endfacet
  facet normal -0.156416 0.987691 0
    outer loop
      vertex 0 29.065 3.8147e-07
      vertex 0 29.065 1.8
      vertex 0.494427 29.1433 3.8147e-07
    endloop
  endfacet
  facet normal 0 0 1
    outer loop
      vertex 0 32.265 1.8
      vertex 0.494427 32.1867 1.8
      vertex 8.5 35 1.8
    endloop
  endfacet
  facet normal -0.156416 -0.987691 0
    outer loop
      vertex 0 32.265 3.8147e-07
      vertex 0.494427 32.1867 1.8
      vertex 0 32.265 1.8
    endloop
  endfacet
  facet normal -0.156416 -0.987691 -0
    outer loop
      vertex 0 32.265 3.8147e-07
      vertex 0.494427 32.1867 3.8147e-07
      vertex 0.494427 32.1867 1.8
    endloop
  endfacet
  facet normal 0 0 -1
    outer loop
      vertex 0 32.265 3.8147e-07
      vertex 8.5 35 3.8147e-07
      vertex 0.494427 32.1867 3.8147e-07
    endloop
  endfacet
  facet normal -1 -0 0
    outer loop
      vertex 0.0228424 3 1.3
      vertex 0.0228424 3 1.8
      vertex 0.0228424 3.51874 1.8
    endloop
  endfacet
  facet normal -1 0 0
    outer loop
      vertex 0.0228424 3 1.3
      vertex 0.0228424 3.51874 1.8
      vertex 0.0228424 3.51874 1.3
    endloop
  endfacet
  facet normal 0 0 1
    outer loop
      vertex 0.0228424 3 1.8
      vertex 0.828445 3.4472 1.8
      vertex 0.0228424 3.51874 1.8
    endloop
  endfacet
  facet normal 0 0 1
    outer loop
      vertex 0.0228424 3 1.8
      vertex 1.06842 3.22379 1.8
      vertex 0.828445 3.4472 1.8
    endloop
  endfacet
  facet normal 0 0 1
    outer loop
      vertex 0.0228424 3 1.8
      vertex 1.37056 3.0618 1.8
      vertex 1.06842 3.22379 1.8
    endloop
  endfacet
  facet normal -0 0 1
    outer loop
      vertex 0.0228424 3 1.8
      vertex 1.72995 2.96461 1.8
      vertex 1.37056 3.0618 1.8
    endloop
  endfacet
  facet normal 0 0 1
    outer loop
      vertex 0.0228424 3 1.8
      vertex 12 0 1.8
      vertex 2.14662 2.93221 1.8
    endloop
  endfacet
  facet normal 0 0 1
    outer loop
      vertex 0.0228424 3 1.8
      vertex 2.14662 2.93221 1.8
      vertex 1.72995 2.96461 1.8
    endloop
  endfacet
  facet normal 0 0 1
    outer loop
      vertex 0.0228424 3.51874 1.8
      vertex 0.549667 4.06804 1.8
      vertex 0.688675 5.20729 1.8
    endloop
  endfacet
  facet normal 0 0 1
    outer loop
      vertex 0.0228424 3.51874 1.8
      vertex 0.655533 3.72861 1.8
      vertex 0.549667 4.06804 1.8
    endloop
  endfacet
  facet normal 0 0 1
    outer loop
      vertex 0.0228424 3.51874 1.8
      vertex 0.688675 5.20729 1.8
      vertex 0.848022 7.77739 1.8
    endloop
  endfacet
  facet normal -0 0 1
    outer loop
      vertex 0.0228424 3.51874 1.8
      vertex 0.828445 3.4472 1.8
      vertex 0.655533 3.72861 1.8
    endloop
  endfacet
  facet normal 0 0 1
    outer loop
      vertex 0.494427 14.9783 1.8
      vertex 0.848022 7.77739 1.8
      vertex 3.56392 7.77739 1.8
    endloop
  endfacet
  facet normal -0.454049 0.890977 0
    outer loop
      vertex 0.494427 14.9783 1.8
      vertex 0.940456 15.2056 1.8
      vertex 0.940456 15.2056 3.8147e-07
    endloop
  endfacet
  facet normal -0 0 1
    outer loop
      vertex 0.494427 14.9783 1.8
      vertex 3.56392 7.77739 1.8
      vertex 0.940456 15.2056 1.8
    endloop
  endfacet
  facet normal -0.454049 0.890977 0
    outer loop
      vertex 0.494427 14.9783 3.8147e-07
      vertex 0.494427 14.9783 1.8
      vertex 0.940456 15.2056 3.8147e-07
    endloop
  endfacet
  facet normal 0 0 -1
    outer loop
      vertex 0.494427 14.9783 3.8147e-07
      vertex 0.940456 15.2056 3.8147e-07
      vertex 11.7874 2.24858 3.8147e-07
    endloop
  endfacet
  facet normal 0 0 1
    outer loop
      vertex 0.494427 18.0217 1.8
      vertex 0.940456 17.7944 1.8
      vertex 0.494427 29.1433 1.8
    endloop
  endfacet
  facet normal 0 0 -1
    outer loop
      vertex 0.494427 18.0217 3.8147e-07
      vertex 0.494427 29.1433 3.8147e-07
      vertex 0.940456 29.3706 3.8147e-07
    endloop
  endfacet
  facet normal -0.454049 -0.890977 0
    outer loop
      vertex 0.494427 18.0217 3.8147e-07
      vertex 0.940456 17.7944 1.8
      vertex 0.494427 18.0217 1.8
    endloop
  endfacet
  facet normal -0.454049 -0.890977 -0
    outer loop
      vertex 0.494427 18.0217 3.8147e-07
      vertex 0.940456 17.7944 3.8147e-07
      vertex 0.940456 17.7944 1.8
    endloop
  endfacet
  facet normal 0 0 -1
    outer loop
      vertex 0.494427 18.0217 3.8147e-07
      vertex 0.940456 29.3706 3.8147e-07
      vertex 0.940456 17.7944 3.8147e-07
    endloop
  endfacet
  facet normal -0 0 1
    outer loop
      vertex 0.494427 29.1433 1.8
      vertex 0.940456 17.7944 1.8
      vertex 0.940456 29.3706 1.8
    endloop
  endfacet
  facet normal -0.454049 0.890977 0
    outer loop
      vertex 0.494427 29.1433 1.8
      vertex 0.940456 29.3706 1.8
      vertex 0.940456 29.3706 3.8147e-07
    endloop
  endfacet
  facet normal -0.454049 0.890977 0
    outer loop
      vertex 0.494427 29.1433 3.8147e-07
      vertex 0.494427 29.1433 1.8
      vertex 0.940456 29.3706 3.8147e-07
    endloop
  endfacet
  facet normal 0 0 1
    outer loop
      vertex 0.494427 32.1867 1.8
      vertex 0.940456 31.9594 1.8
      vertex 8.5 35 1.8
    endloop
  endfacet
  facet normal -0.454049 -0.890977 0
    outer loop
      vertex 0.494427 32.1867 3.8147e-07
      vertex 0.940456 31.9594 1.8
      vertex 0.494427 32.1867 1.8
    endloop
  endfacet
  facet normal -0.454049 -0.890977 -0
    outer loop
      vertex 0.494427 32.1867 3.8147e-07
      vertex 0.940456 31.9594 3.8147e-07
      vertex 0.940456 31.9594 1.8
    endloop
  endfacet
  facet normal 0 0 -1
    outer loop
      vertex 0.494427 32.1867 3.8147e-07
      vertex 8.5 35 3.8147e-07
      vertex 0.940456 31.9594 3.8147e-07
    endloop
  endfacet
  facet normal 0.954645 0.297747 0
    outer loop
      vertex 0.549667 4.06804 1.3
      vertex 0.549667 4.06804 1.8
      vertex 0.655533 3.72861 1.8
    endloop
  endfacet
  facet normal 0 -0 1
    outer loop
      vertex 0.549667 4.06804 1.3
      vertex 0.655533 3.72861 1.3
      vertex 1.16678 4.13924 1.3
    endloop
  endfacet
  facet normal 0.954645 0.297747 0
    outer loop
      vertex 0.549667 4.06804 1.3
      vertex 0.655533 3.72861 1.8
      vertex 0.655533 3.72861 1.3
    endloop
  endfacet
  facet normal 0.114616 -0.99341 0
    outer loop
      vertex 0.549667 4.06804 1.3
      vertex 1.16678 4.13924 1.3
      vertex 1.16678 4.13924 1.8
    endloop
  endfacet
  facet normal 0.114616 -0.99341 0
    outer loop
      vertex 0.549667 4.06804 1.3
      vertex 1.16678 4.13924 1.8
      vertex 0.549667 4.06804 1.8
    endloop
  endfacet
  facet normal 0 0 1
    outer loop
      vertex 0.549667 4.06804 1.8
      vertex 1.16678 4.13924 1.8
      vertex 0.688675 5.20729 1.8
    endloop
  endfacet
  facet normal 0.852014 0.523519 0
    outer loop
      vertex 0.655533 3.72861 1.3
      vertex 0.655533 3.72861 1.8
      vertex 0.828445 3.4472 1.8
    endloop
  endfacet
  facet normal 0 0 1
    outer loop
      vertex 0.655533 3.72861 1.3
      vertex 0.828445 3.4472 1.3
      vertex 1.36305 3.74554 1.3
    endloop
  endfacet
  facet normal 0.852014 0.523519 0
    outer loop
      vertex 0.655533 3.72861 1.3
      vertex 0.828445 3.4472 1.8
      vertex 0.828445 3.4472 1.3
    endloop
  endfacet
  facet normal 0 0 1
    outer loop
      vertex 0.655533 3.72861 1.3
      vertex 1.36305 3.74554 1.3
      vertex 1.16678 4.13924 1.3
    endloop
  endfacet
  facet normal 0 1 0
    outer loop
      vertex 0.688675 5.20729 1.3
      vertex 0.688675 5.20729 1.8
      vertex 1.28542 5.20729 1.3
    endloop
  endfacet
  facet normal 0.998084 -0.0618815 0
    outer loop
      vertex 0.688675 5.20729 1.3
      vertex 0.848022 7.77739 1.3
      vertex 0.688675 5.20729 1.8
    endloop
  endfacet
  facet normal 0 0 1
    outer loop
      vertex 0.688675 5.20729 1.3
      vertex 1.28542 5.20729 1.3
      vertex 1.31253 5.743 1.3
    endloop
  endfacet
  facet normal 0 0 1
    outer loop
      vertex 0.688675 5.20729 1.3
      vertex 1.31253 5.743 1.3
      vertex 0.848022 7.77739 1.3
    endloop
  endfacet
  facet normal 0.998084 -0.0618815 0
    outer loop
      vertex 0.688675 5.20729 1.8
      vertex 0.848022 7.77739 1.3
      vertex 0.848022 7.77739 1.8
    endloop
  endfacet
  facet normal -0 0 1
    outer loop
      vertex 0.688675 5.20729 1.8
      vertex 1.16678 4.13924 1.8
      vertex 1.28542 5.20729 1.8
    endloop
  endfacet
  facet normal 0 1 -0
    outer loop
      vertex 0.688675 5.20729 1.8
      vertex 1.28542 5.20729 1.8
      vertex 1.28542 5.20729 1.3
    endloop
  endfacet
  facet normal 0.681394 0.731917 0
    outer loop
      vertex 0.828445 3.4472 1.3
      vertex 0.828445 3.4472 1.8
      vertex 1.06842 3.22379 1.3
    endloop
  endfacet
  facet normal 0 0 1
    outer loop
      vertex 0.828445 3.4472 1.3
      vertex 1.06842 3.22379 1.3
      vertex 1.36305 3.74554 1.3
    endloop
  endfacet
  facet normal 0.681394 0.731917 -0
    outer loop
      vertex 0.828445 3.4472 1.8
      vertex 1.06842 3.22379 1.8
      vertex 1.06842 3.22379 1.3
    endloop
  endfacet
  facet normal 0 0 1
    outer loop
      vertex 0.848022 7.77739 1.3
      vertex 1.31253 5.743 1.3
      vertex 1.40407 7.25864 1.3
    endloop
  endfacet
  facet normal -0 0 1
    outer loop
      vertex 0.848022 7.77739 1.3
      vertex 1.40407 7.25864 1.3
      vertex 3.56392 7.77739 1.3
    endloop
  endfacet
  facet normal 0 -1 -0
    outer loop
      vertex 0.848022 7.77739 1.3
      vertex 3.56392 7.77739 1.3
      vertex 3.56392 7.77739 1.8
    endloop
  endfacet
  facet normal 0 -1 0
    outer loop
      vertex 0.848022 7.77739 1.3
      vertex 3.56392 7.77739 1.8
      vertex 0.848022 7.77739 1.8
    endloop
  endfacet
  facet normal -0 0 1
    outer loop
      vertex 0.940456 15.2056 1.8
      vertex 3.56392 7.77739 1.8
      vertex 1.29443 15.5595 1.8
    endloop
  endfacet
  facet normal -0.707033 0.707181 0
    outer loop
      vertex 0.940456 15.2056 3.8147e-07
      vertex 0.940456 15.2056 1.8
      vertex 1.29443 15.5595 1.8
    endloop
  endfacet
  facet normal -0.707033 0.707181 0
    outer loop
      vertex 0.940456 15.2056 3.8147e-07
      vertex 1.29443 15.5595 1.8
      vertex 1.29443 15.5595 3.8147e-07
    endloop
  endfacet
  facet normal 0 0 -1
    outer loop
      vertex 0.940456 15.2056 3.8147e-07
      vertex 1.29443 15.5595 3.8147e-07
      vertex 8.5 17.7062 3.8147e-07
    endloop
  endfacet
  facet normal 0 0 -1
    outer loop
      vertex 0.940456 15.2056 3.8147e-07
      vertex 8.5 17.7062 3.8147e-07
      vertex 11.7874 2.24858 3.8147e-07
    endloop
  endfacet
  facet normal 0 0 1
    outer loop
      vertex 0.940456 17.7944 1.8
      vertex 1.29443 17.4405 1.8
      vertex 8.5 17.7062 1.8
    endloop
  endfacet
  facet normal -0.707033 -0.707181 0
    outer loop
      vertex 0.940456 17.7944 1.8
      vertex 1.29443 17.4405 3.8147e-07
      vertex 1.29443 17.4405 1.8
    endloop
  endfacet
  facet normal -0 0 1
    outer loop
      vertex 0.940456 17.7944 1.8
      vertex 8.5 17.7062 1.8
      vertex 0.940456 29.3706 1.8
    endloop
  endfacet
  facet normal 0 0 -1
    outer loop
      vertex 0.940456 17.7944 3.8147e-07
      vertex 0.940456 29.3706 3.8147e-07
      vertex 8.5 17.7062 3.8147e-07
    endloop
  endfacet
  facet normal -0.707033 -0.707181 0
    outer loop
      vertex 0.940456 17.7944 3.8147e-07
      vertex 1.29443 17.4405 3.8147e-07
      vertex 0.940456 17.7944 1.8
    endloop
  endfacet
  facet normal 0 0 -1
    outer loop
      vertex 0.940456 17.7944 3.8147e-07
      vertex 8.5 17.7062 3.8147e-07
      vertex 1.29443 17.4405 3.8147e-07
    endloop
  endfacet
  facet normal -0.707033 0.707181 0
    outer loop
      vertex 0.940456 29.3706 1.8
      vertex 1.29443 29.7245 1.8
      vertex 1.29443 29.7245 3.8147e-07
    endloop
  endfacet
  facet normal -0 0 1
    outer loop
      vertex 0.940456 29.3706 1.8
      vertex 8.5 17.7062 1.8
      vertex 1.29443 29.7245 1.8
    endloop
  endfacet
  facet normal -0.707033 0.707181 0
    outer loop
      vertex 0.940456 29.3706 3.8147e-07
      vertex 0.940456 29.3706 1.8
      vertex 1.29443 29.7245 3.8147e-07
    endloop
  endfacet
  facet normal 0 0 -1
    outer loop
      vertex 0.940456 29.3706 3.8147e-07
      vertex 1.29443 29.7245 3.8147e-07
      vertex 8.5 17.7062 3.8147e-07
    endloop
  endfacet
  facet normal 0 0 1
    outer loop
      vertex 0.940456 31.9594 1.8
      vertex 1.29443 31.6055 1.8
      vertex 8.5 35 1.8
    endloop
  endfacet
  facet normal -0.707033 -0.707181 0
    outer loop
      vertex 0.940456 31.9594 1.8
      vertex 1.29443 31.6055 3.8147e-07
      vertex 1.29443 31.6055 1.8
    endloop
  endfacet
  facet normal -0.707033 -0.707181 0
    outer loop
      vertex 0.940456 31.9594 3.8147e-07
      vertex 1.29443 31.6055 3.8147e-07
      vertex 0.940456 31.9594 1.8
    endloop
  endfacet
  facet normal 0 0 -1
    outer loop
      vertex 0.940456 31.9594 3.8147e-07
      vertex 8.5 35 3.8147e-07
      vertex 1.29443 31.6055 3.8147e-07
    endloop
  endfacet
  facet normal 0.472514 0.881323 0
    outer loop
      vertex 1.06842 3.22379 1.3
      vertex 1.06842 3.22379 1.8
      vertex 1.37056 3.0618 1.3
    endloop
  endfacet
  facet normal 0 0 1
    outer loop
      vertex 1.06842 3.22379 1.3
      vertex 1.37056 3.0618 1.3
      vertex 1.36305 3.74554 1.3
    endloop
  endfacet
  facet normal 0.472514 0.881323 -0
    outer loop
      vertex 1.06842 3.22379 1.8
      vertex 1.37056 3.0618 1.8
      vertex 1.37056 3.0618 1.3
    endloop
  endfacet
  facet normal -0.894954 -0.446159 0
    outer loop
      vertex 1.16678 4.13924 1.3
      vertex 1.36305 3.74554 1.3
      vertex 1.16678 4.13924 1.8
    endloop
  endfacet
  facet normal -0.894954 -0.446159 0
    outer loop
      vertex 1.16678 4.13924 1.8
      vertex 1.36305 3.74554 1.3
      vertex 1.36305 3.74554 1.8
    endloop
  endfacet
  facet normal 0 0 1
    outer loop
      vertex 1.16678 4.13924 1.8
      vertex 1.36305 3.74554 1.8
      vertex 1.6942 3.50934 1.8
    endloop
  endfacet
  facet normal 0 0 1
    outer loop
      vertex 1.16678 4.13924 1.8
      vertex 1.42783 5.31956 1.8
      vertex 1.28542 5.20729 1.8
    endloop
  endfacet
  facet normal 0 0 1
    outer loop
      vertex 1.16678 4.13924 1.8
      vertex 1.57022 5.40771 1.8
      vertex 1.42783 5.31956 1.8
    endloop
  endfacet
  facet normal 0 0 1
    outer loop
      vertex 1.16678 4.13924 1.8
      vertex 1.6942 3.50934 1.8
      vertex 2.16022 3.43059 1.8
    endloop
  endfacet
  facet normal 0 0 1
    outer loop
      vertex 1.16678 4.13924 1.8
      vertex 1.71262 5.47174 1.8
      vertex 1.57022 5.40771 1.8
    endloop
  endfacet
  facet normal 0 0 1
    outer loop
      vertex 1.16678 4.13924 1.8
      vertex 1.85881 5.51508 1.8
      vertex 1.71262 5.47174 1.8
    endloop
  endfacet
  facet normal 0 0 1
    outer loop
      vertex 1.16678 4.13924 1.8
      vertex 2.01253 5.54108 1.8
      vertex 1.85881 5.51508 1.8
    endloop
  endfacet
  facet normal 0 0 1
    outer loop
      vertex 1.16678 4.13924 1.8
      vertex 2.16022 3.43059 1.8
      vertex 3.17703 4.22156 1.8
    endloop
  endfacet
  facet normal 0 0 1
    outer loop
      vertex 1.16678 4.13924 1.8
      vertex 2.17377 5.54974 1.8
      vertex 2.01253 5.54108 1.8
    endloop
  endfacet
  facet normal 0 0 1
    outer loop
      vertex 1.16678 4.13924 1.8
      vertex 3.17703 4.22156 1.8
      vertex 3.20792 4.54274 1.8
    endloop
  endfacet
  facet normal 0 0 1
    outer loop
      vertex 1.16678 4.13924 1.8
      vertex 3.20792 4.54274 1.8
      vertex 2.17377 5.54974 1.8
    endloop
  endfacet
  facet normal -0.619104 0.785309 0
    outer loop
      vertex 1.28542 5.20729 1.3
      vertex 1.28542 5.20729 1.8
      vertex 1.42783 5.31956 1.3
    endloop
  endfacet
  facet normal 0 0 1
    outer loop
      vertex 1.28542 5.20729 1.3
      vertex 1.42783 5.31956 1.3
      vertex 1.31253 5.743 1.3
    endloop
  endfacet
  facet normal -0.619104 0.785309 0
    outer loop
      vertex 1.28542 5.20729 1.8
      vertex 1.42783 5.31956 1.8
      vertex 1.42783 5.31956 1.3
    endloop
  endfacet
  facet normal 0 0 1
    outer loop
      vertex 1.29443 15.5595 1.8
      vertex 3.56392 7.77739 1.8
      vertex 8.5 17.7062 1.8
    endloop
  endfacet
  facet normal 0 0 1
    outer loop
      vertex 1.29443 15.5595 1.8
      vertex 8.5 17.7062 1.8
      vertex 1.52169 16.0056 1.8
    endloop
  endfacet
  facet normal -0.891038 0.453928 0
    outer loop
      vertex 1.29443 15.5595 3.8147e-07
      vertex 1.29443 15.5595 1.8
      vertex 1.52169 16.0056 1.8
    endloop
  endfacet
  facet normal -0.891038 0.453928 0
    outer loop
      vertex 1.29443 15.5595 3.8147e-07
      vertex 1.52169 16.0056 1.8
      vertex 1.52169 16.0056 3.8147e-07
    endloop
  endfacet
  facet normal 0 0 -1
    outer loop
      vertex 1.29443 15.5595 3.8147e-07
      vertex 1.52169 16.0056 3.8147e-07
      vertex 8.5 17.7062 3.8147e-07
    endloop
  endfacet
  facet normal 0 0 1
    outer loop
      vertex 1.29443 17.4405 1.8
      vertex 1.52169 16.9944 1.8
      vertex 8.5 17.7062 1.8
    endloop
  endfacet
  facet normal -0.891038 -0.453928 0
    outer loop
      vertex 1.29443 17.4405 1.8
      vertex 1.52169 16.9944 3.8147e-07
      vertex 1.52169 16.9944 1.8
    endloop
  endfacet
  facet normal -0.891038 -0.453928 0
    outer loop
      vertex 1.29443 17.4405 3.8147e-07
      vertex 1.52169 16.9944 3.8147e-07
      vertex 1.29443 17.4405 1.8
    endloop
  endfacet
  facet normal 0 0 -1
    outer loop
      vertex 1.29443 17.4405 3.8147e-07
      vertex 8.5 17.7062 3.8147e-07
      vertex 1.52169 16.9944 3.8147e-07
    endloop
  endfacet
  facet normal -0 0 1
    outer loop
      vertex 1.29443 29.7245 1.8
      vertex 8.5 17.7062 1.8
      vertex 1.52169 30.1706 1.8
    endloop
  endfacet
  facet normal -0.891038 0.453928 0
    outer loop
      vertex 1.29443 29.7245 3.8147e-07
      vertex 1.29443 29.7245 1.8
      vertex 1.52169 30.1706 1.8
    endloop
  endfacet
  facet normal -0.891038 0.453928 0
    outer loop
      vertex 1.29443 29.7245 3.8147e-07
      vertex 1.52169 30.1706 1.8
      vertex 1.52169 30.1706 3.8147e-07
    endloop
  endfacet
  facet normal 0 0 -1
    outer loop
      vertex 1.29443 29.7245 3.8147e-07
      vertex 1.52169 30.1706 3.8147e-07
      vertex 8.5 17.7062 3.8147e-07
    endloop
  endfacet
  facet normal 0 0 1
    outer loop
      vertex 1.29443 31.6055 1.8
      vertex 1.52169 31.1594 1.8
      vertex 8.5 35 1.8
    endloop
  endfacet
  facet normal -0.891038 -0.453928 0
    outer loop
      vertex 1.29443 31.6055 1.8
      vertex 1.52169 31.1594 3.8147e-07
      vertex 1.52169 31.1594 1.8
    endloop
  endfacet
  facet normal -0.891038 -0.453928 0
    outer loop
      vertex 1.29443 31.6055 3.8147e-07
      vertex 1.52169 31.1594 3.8147e-07
      vertex 1.29443 31.6055 1.8
    endloop
  endfacet
  facet normal 0 0 -1
    outer loop
      vertex 1.29443 31.6055 3.8147e-07
      vertex 8.5 35 3.8147e-07
      vertex 1.52169 31.1594 3.8147e-07
    endloop
  endfacet
  facet normal -0.998181 0.0602871 0
    outer loop
      vertex 1.31253 5.743 1.3
      vertex 1.31253 5.743 1.8
      vertex 1.40407 7.25864 1.8
    endloop
  endfacet
  facet normal -0.998181 0.0602871 0
    outer loop
      vertex 1.31253 5.743 1.3
      vertex 1.40407 7.25864 1.8
      vertex 1.40407 7.25864 1.3
    endloop
  endfacet
  facet normal 0 0 1
    outer loop
      vertex 1.31253 5.743 1.3
      vertex 1.42783 5.31956 1.3
      vertex 1.57022 5.40771 1.3
    endloop
  endfacet
  facet normal 0 0 1
    outer loop
      vertex 1.31253 5.743 1.3
      vertex 1.57022 5.40771 1.3
      vertex 1.71262 5.47174 1.3
    endloop
  endfacet
  facet normal 0.509928 -0.860217 0
    outer loop
      vertex 1.31253 5.743 1.3
      vertex 1.5985 5.91252 1.3
      vertex 1.5985 5.91252 1.8
    endloop
  endfacet
  facet normal 0.509928 -0.860217 0
    outer loop
      vertex 1.31253 5.743 1.3
      vertex 1.5985 5.91252 1.8
      vertex 1.31253 5.743 1.8
    endloop
  endfacet
  facet normal -0 0 1
    outer loop
      vertex 1.31253 5.743 1.3
      vertex 1.71262 5.47174 1.3
      vertex 1.5985 5.91252 1.3
    endloop
  endfacet
  facet normal 0 0 1
    outer loop
      vertex 1.31253 5.743 1.8
      vertex 1.5985 5.91252 1.8
      vertex 1.40407 7.25864 1.8
    endloop
  endfacet
  facet normal 0 0 1
    outer loop
      vertex 1.36305 3.74554 1.3
      vertex 1.37056 3.0618 1.3
      vertex 1.6942 3.50934 1.3
    endloop
  endfacet
  facet normal -0.580692 -0.814124 -0
    outer loop
      vertex 1.36305 3.74554 1.3
      vertex 1.6942 3.50934 1.3
      vertex 1.6942 3.50934 1.8
    endloop
  endfacet
  facet normal -0.580692 -0.814124 0
    outer loop
      vertex 1.36305 3.74554 1.3
      vertex 1.6942 3.50934 1.8
      vertex 1.36305 3.74554 1.8
    endloop
  endfacet
  facet normal 0.261053 0.965324 0
    outer loop
      vertex 1.37056 3.0618 1.3
      vertex 1.37056 3.0618 1.8
      vertex 1.72995 2.96461 1.3
    endloop
  endfacet
  facet normal 0 0 1
    outer loop
      vertex 1.37056 3.0618 1.3
      vertex 1.72995 2.96461 1.3
      vertex 1.6942 3.50934 1.3
    endloop
  endfacet
  facet normal 0.261053 0.965324 -0
    outer loop
      vertex 1.37056 3.0618 1.8
      vertex 1.72995 2.96461 1.8
      vertex 1.72995 2.96461 1.3
    endloop
  endfacet
  facet normal 0 1 0
    outer loop
      vertex 1.40407 7.25864 1.3
      vertex 1.40407 7.25864 1.8
      vertex 3.56392 7.25864 1.3
    endloop
  endfacet
  facet normal 0 0 1
    outer loop
      vertex 1.40407 7.25864 1.3
      vertex 3.56392 7.25864 1.3
      vertex 3.56392 7.77739 1.3
    endloop
  endfacet
  facet normal 0 0 1
    outer loop
      vertex 1.40407 7.25864 1.8
      vertex 1.5985 5.91252 1.8
      vertex 1.92738 6.01424 1.8
    endloop
  endfacet
  facet normal 0 0 1
    outer loop
      vertex 1.40407 7.25864 1.8
      vertex 1.92738 6.01424 1.8
      vertex 2.29922 6.04814 1.8
    endloop
  endfacet
  facet normal -0 0 1
    outer loop
      vertex 1.40407 7.25864 1.8
      vertex 2.29922 6.04814 1.8
      vertex 3.56392 7.25864 1.8
    endloop
  endfacet
  facet normal 0 1 -0
    outer loop
      vertex 1.40407 7.25864 1.8
      vertex 3.56392 7.25864 1.8
      vertex 3.56392 7.25864 1.3
    endloop
  endfacet
  facet normal -0.526371 0.850255 0
    outer loop
      vertex 1.42783 5.31956 1.3
      vertex 1.42783 5.31956 1.8
      vertex 1.57022 5.40771 1.3
    endloop
  endfacet
  facet normal -0.526371 0.850255 0
    outer loop
      vertex 1.42783 5.31956 1.8
      vertex 1.57022 5.40771 1.8
      vertex 1.57022 5.40771 1.3
    endloop
  endfacet
  facet normal 0 0 1
    outer loop
      vertex 1.52169 16.0056 1.8
      vertex 8.5 17.7062 1.8
      vertex 1.6 16.5 1.8
    endloop
  endfacet
  facet normal -0.987687 0.156444 0
    outer loop
      vertex 1.52169 16.0056 3.8147e-07
      vertex 1.52169 16.0056 1.8
      vertex 1.6 16.5 1.8
    endloop
  endfacet
  facet normal -0.987687 0.156444 0
    outer loop
      vertex 1.52169 16.0056 3.8147e-07
      vertex 1.6 16.5 1.8
      vertex 1.6 16.5 3.8147e-07
    endloop
  endfacet
  facet normal 0 0 -1
    outer loop
      vertex 1.52169 16.0056 3.8147e-07
      vertex 1.6 16.5 3.8147e-07
      vertex 8.5 17.7062 3.8147e-07
    endloop
  endfacet
  facet normal 0 0 1
    outer loop
      vertex 1.52169 16.9944 1.8
      vertex 1.6 16.5 1.8
      vertex 8.5 17.7062 1.8
    endloop
  endfacet
  facet normal -0.987687 -0.156444 0
    outer loop
      vertex 1.52169 16.9944 1.8
      vertex 1.6 16.5 3.8147e-07
      vertex 1.6 16.5 1.8
    endloop
  endfacet
  facet normal -0.987687 -0.156444 0
    outer loop
      vertex 1.52169 16.9944 3.8147e-07
      vertex 1.6 16.5 3.8147e-07
      vertex 1.52169 16.9944 1.8
    endloop
  endfacet
  facet normal 0 0 -1
    outer loop
      vertex 1.52169 16.9944 3.8147e-07
      vertex 8.5 17.7062 3.8147e-07
      vertex 1.6 16.5 3.8147e-07
    endloop
  endfacet
  facet normal 0 0 1
    outer loop
      vertex 1.52169 30.1706 1.8
      vertex 8.5 17.7062 1.8
      vertex 8.5 35 1.8
    endloop
  endfacet
  facet normal 0 0 1
    outer loop
      vertex 1.52169 30.1706 1.8
      vertex 8.5 35 1.8
      vertex 1.6 30.665 1.8
    endloop
  endfacet
  facet normal -0.987687 0.156444 0
    outer loop
      vertex 1.52169 30.1706 3.8147e-07
      vertex 1.52169 30.1706 1.8
      vertex 1.6 30.665 1.8
    endloop
  endfacet
  facet normal -0.987687 0.156444 0
    outer loop
      vertex 1.52169 30.1706 3.8147e-07
      vertex 1.6 30.665 1.8
      vertex 1.6 30.665 3.8147e-07
    endloop
  endfacet
  facet normal 0 0 -1
    outer loop
      vertex 1.52169 30.1706 3.8147e-07
      vertex 1.6 30.665 3.8147e-07
      vertex 8.5 17.7062 3.8147e-07
    endloop
  endfacet
  facet normal 0 0 1
    outer loop
      vertex 1.52169 31.1594 1.8
      vertex 1.6 30.665 1.8
      vertex 8.5 35 1.8
    endloop
  endfacet
  facet normal -0.987687 -0.156444 0
    outer loop
      vertex 1.52169 31.1594 1.8
      vertex 1.6 30.665 3.8147e-07
      vertex 1.6 30.665 1.8
    endloop
  endfacet
  facet normal -0.987687 -0.156444 0
    outer loop
      vertex 1.52169 31.1594 3.8147e-07
      vertex 1.6 30.665 3.8147e-07
      vertex 1.52169 31.1594 1.8
    endloop
  endfacet
  facet normal 0 0 -1
    outer loop
      vertex 1.52169 31.1594 3.8147e-07
      vertex 8.5 35 3.8147e-07
      vertex 1.6 30.665 3.8147e-07
    endloop
  endfacet
  facet normal -0.410098 0.912041 0
    outer loop
      vertex 1.57022 5.40771 1.3
      vertex 1.57022 5.40771 1.8
      vertex 1.71262 5.47174 1.3
    endloop
  endfacet
  facet normal -0.410098 0.912041 0
    outer loop
      vertex 1.57022 5.40771 1.8
      vertex 1.71262 5.47174 1.8
      vertex 1.71262 5.47174 1.3
    endloop
  endfacet
  facet normal 0 0 1
    outer loop
      vertex 1.5985 5.91252 1.3
      vertex 1.71262 5.47174 1.3
      vertex 1.85881 5.51508 1.3
    endloop
  endfacet
  facet normal -0 0 1
    outer loop
      vertex 1.5985 5.91252 1.3
      vertex 1.85881 5.51508 1.3
      vertex 1.92738 6.01424 1.3
    endloop
  endfacet
  facet normal 0.295482 -0.955348 0
    outer loop
      vertex 1.5985 5.91252 1.3
      vertex 1.92738 6.01424 1.3
      vertex 1.92738 6.01424 1.8
    endloop
  endfacet
  facet normal 0.295482 -0.955348 0
    outer loop
      vertex 1.5985 5.91252 1.3
      vertex 1.92738 6.01424 1.8
      vertex 1.5985 5.91252 1.8
    endloop
  endfacet
  facet normal 0 0 -1
    outer loop
      vertex 1.6 30.665 3.8147e-07
      vertex 8.5 35 3.8147e-07
      vertex 8.5 17.7062 3.8147e-07
    endloop
  endfacet
  facet normal 0 0 1
    outer loop
      vertex 1.6942 3.50934 1.3
      vertex 1.72995 2.96461 1.3
      vertex 2.16022 3.43059 1.3
    endloop
  endfacet
  facet normal -0.166622 -0.986021 -0
    outer loop
      vertex 1.6942 3.50934 1.3
      vertex 2.16022 3.43059 1.3
      vertex 2.16022 3.43059 1.8
    endloop
  endfacet
  facet normal -0.166622 -0.986021 0
    outer loop
      vertex 1.6942 3.50934 1.3
      vertex 2.16022 3.43059 1.8
      vertex 1.6942 3.50934 1.8
    endloop
  endfacet
  facet normal -0.284236 0.958754 0
    outer loop
      vertex 1.71262 5.47174 1.3
      vertex 1.71262 5.47174 1.8
      vertex 1.85881 5.51508 1.3
    endloop
  endfacet
  facet normal -0.284236 0.958754 0
    outer loop
      vertex 1.71262 5.47174 1.8
      vertex 1.85881 5.51508 1.8
      vertex 1.85881 5.51508 1.3
    endloop
  endfacet
  facet normal 0.0775254 0.99699 0
    outer loop
      vertex 1.72995 2.96461 1.3
      vertex 1.72995 2.96461 1.8
      vertex 2.14662 2.93221 1.3
    endloop
  endfacet
  facet normal 0 0 1
    outer loop
      vertex 1.72995 2.96461 1.3
      vertex 2.14662 2.93221 1.3
      vertex 2.16022 3.43059 1.3
    endloop
  endfacet
  facet normal 0.0775254 0.99699 -0
    outer loop
      vertex 1.72995 2.96461 1.8
      vertex 2.14662 2.93221 1.8
      vertex 2.14662 2.93221 1.3
    endloop
  endfacet
  facet normal -0.16677 0.985996 0
    outer loop
      vertex 1.85881 5.51508 1.3
      vertex 1.85881 5.51508 1.8
      vertex 2.01253 5.54108 1.3
    endloop
  endfacet
  facet normal 0 0 1
    outer loop
      vertex 1.85881 5.51508 1.3
      vertex 2.01253 5.54108 1.3
      vertex 1.92738 6.01424 1.3
    endloop
  endfacet
  facet normal -0.16677 0.985996 0
    outer loop
      vertex 1.85881 5.51508 1.8
      vertex 2.01253 5.54108 1.8
      vertex 2.01253 5.54108 1.3
    endloop
  endfacet
  facet normal 0 0 1
    outer loop
      vertex 1.92738 6.01424 1.3
      vertex 2.01253 5.54108 1.3
      vertex 2.17377 5.54974 1.3
    endloop
  endfacet
  facet normal -0 0 1
    outer loop
      vertex 1.92738 6.01424 1.3
      vertex 2.17377 5.54974 1.3
      vertex 2.29922 6.04814 1.3
    endloop
  endfacet
  facet normal 0.0907917 -0.99587 0
    outer loop
      vertex 1.92738 6.01424 1.3
      vertex 2.29922 6.04814 1.3
      vertex 2.29922 6.04814 1.8
    endloop
  endfacet
  facet normal 0.0907917 -0.99587 0
    outer loop
      vertex 1.92738 6.01424 1.3
      vertex 2.29922 6.04814 1.8
      vertex 1.92738 6.01424 1.8
    endloop
  endfacet
  facet normal 0.987674 0.156525 0
    outer loop
      vertex 11.7874 2.24858 3.8147e-07
      vertex 11.7874 2.24858 1.8
      vertex 11.9054 1.504 1.8
    endloop
  endfacet
  facet normal 0.987674 0.156525 0
    outer loop
      vertex 11.7874 2.24858 3.8147e-07
      vertex 11.9054 1.504 1.8
      vertex 11.9054 1.504 3.8147e-07
    endloop
  endfacet
  facet normal 0 0 -1
    outer loop
      vertex 11.7874 2.24858 3.8147e-07
      vertex 11.9054 1.504 3.8147e-07
      vertex 12 0 3.8147e-07
    endloop
  endfacet
  facet normal 0.995567 0.0940499 0
    outer loop
      vertex 11.9054 1.504 3.8147e-07
      vertex 11.9054 1.504 1.8
      vertex 11.9763 0.753486 1.8
    endloop
  endfacet
  facet normal 0.995567 0.0940499 0
    outer loop
      vertex 11.9054 1.504 3.8147e-07
      vertex 11.9763 0.753486 1.8
      vertex 11.9763 0.753486 3.8147e-07
    endloop
  endfacet
  facet normal 0 0 -1
    outer loop
      vertex 11.9054 1.504 3.8147e-07
      vertex 11.9763 0.753486 3.8147e-07
      vertex 12 0 3.8147e-07
    endloop
  endfacet
  facet normal 0.999506 0.0314383 0
    outer loop
      vertex 11.9763 0.753486 3.8147e-07
      vertex 11.9763 0.753486 1.8
      vertex 12 0 1.8
    endloop
  endfacet
  facet normal 0.999506 0.0314383 0
    outer loop
      vertex 11.9763 0.753486 3.8147e-07
      vertex 12 0 1.8
      vertex 12 0 3.8147e-07
    endloop
  endfacet
  facet normal -0.0536315 0.998561 0
    outer loop
      vertex 2.01253 5.54108 1.3
      vertex 2.01253 5.54108 1.8
      vertex 2.17377 5.54974 1.3
    endloop
  endfacet
  facet normal -0.0536315 0.998561 0
    outer loop
      vertex 2.01253 5.54108 1.8
      vertex 2.17377 5.54974 1.8
      vertex 2.17377 5.54974 1.3
    endloop
  endfacet
  facet normal -0.097405 0.995245 0
    outer loop
      vertex 2.14662 2.93221 1.3
      vertex 2.14662 2.93221 1.8
      vertex 2.63921 2.98042 1.3
    endloop
  endfacet
  facet normal 0 0 1
    outer loop
      vertex 2.14662 2.93221 1.3
      vertex 2.46423 3.46355 1.3
      vertex 2.16022 3.43059 1.3
    endloop
  endfacet
  facet normal 0 0 1
    outer loop
      vertex 2.14662 2.93221 1.3
      vertex 2.63921 2.98042 1.3
      vertex 2.46423 3.46355 1.3
    endloop
  endfacet
  facet normal -0 0 1
    outer loop
      vertex 2.14662 2.93221 1.8
      vertex 12 0 1.8
      vertex 2.63921 2.98042 1.8
    endloop
  endfacet
  facet normal -0.097405 0.995245 0
    outer loop
      vertex 2.14662 2.93221 1.8
      vertex 2.63921 2.98042 1.8
      vertex 2.63921 2.98042 1.3
    endloop
  endfacet
  facet normal 0.107786 -0.994174 0
    outer loop
      vertex 2.16022 3.43059 1.3
      vertex 2.46423 3.46355 1.3
      vertex 2.46423 3.46355 1.8
    endloop
  endfacet
  facet normal 0.107786 -0.994174 0
    outer loop
      vertex 2.16022 3.43059 1.3
      vertex 2.46423 3.46355 1.8
      vertex 2.16022 3.43059 1.8
    endloop
  endfacet
  facet normal 0 -0 1
    outer loop
      vertex 2.16022 3.43059 1.8
      vertex 2.46423 3.46355 1.8
      vertex 3.17703 4.22156 1.8
    endloop
  endfacet
  facet normal 0.104246 0.994552 0
    outer loop
      vertex 2.17377 5.54974 1.3
      vertex 2.17377 5.54974 1.8
      vertex 2.46857 5.51884 1.3
    endloop
  endfacet
  facet normal 0 0 1
    outer loop
      vertex 2.17377 5.54974 1.3
      vertex 2.46857 5.51884 1.3
      vertex 2.29922 6.04814 1.3
    endloop
  endfacet
  facet normal 0.104246 0.994552 -0
    outer loop
      vertex 2.17377 5.54974 1.8
      vertex 2.46857 5.51884 1.8
      vertex 2.46857 5.51884 1.3
    endloop
  endfacet
  facet normal 0 0 1
    outer loop
      vertex 2.17377 5.54974 1.8
      vertex 3.20792 4.54274 1.8
      vertex 2.46857 5.51884 1.8
    endloop
  endfacet
  facet normal 0 0 1
    outer loop
      vertex 2.29922 6.04814 1.3
      vertex 2.46857 5.51884 1.3
      vertex 2.73756 6.00218 1.3
    endloop
  endfacet
  facet normal -0.104278 -0.994548 -0
    outer loop
      vertex 2.29922 6.04814 1.3
      vertex 2.73756 6.00218 1.3
      vertex 2.73756 6.00218 1.8
    endloop
  endfacet
  facet normal -0.104278 -0.994548 0
    outer loop
      vertex 2.29922 6.04814 1.3
      vertex 2.73756 6.00218 1.8
      vertex 2.29922 6.04814 1.8
    endloop
  endfacet
  facet normal 0 0 1
    outer loop
      vertex 2.29922 6.04814 1.8
      vertex 2.73756 6.00218 1.8
      vertex 3.56392 7.25864 1.8
    endloop
  endfacet
  facet normal -0 0 1
    outer loop
      vertex 2.46423 3.46355 1.3
      vertex 2.63921 2.98042 1.3
      vertex 2.72078 3.56244 1.3
    endloop
  endfacet
  facet normal 0.359666 -0.933081 0
    outer loop
      vertex 2.46423 3.46355 1.3
      vertex 2.72078 3.56244 1.3
      vertex 2.72078 3.56244 1.8
    endloop
  endfacet
  facet normal 0.359666 -0.933081 0
    outer loop
      vertex 2.46423 3.46355 1.3
      vertex 2.72078 3.56244 1.8
      vertex 2.46423 3.46355 1.8
    endloop
  endfacet
  facet normal 0 0 1
    outer loop
      vertex 2.46423 3.46355 1.8
      vertex 2.72078 3.56244 1.8
      vertex 2.92987 3.72725 1.8
    endloop
  endfacet
  facet normal 0 0 1
    outer loop
      vertex 2.46423 3.46355 1.8
      vertex 2.92987 3.72725 1.8
      vertex 3.08435 3.94972 1.8
    endloop
  endfacet
  facet normal 0 0 1
    outer loop
      vertex 2.46423 3.46355 1.8
      vertex 3.08435 3.94972 1.8
      vertex 3.17703 4.22156 1.8
    endloop
  endfacet
  facet normal 0.345802 0.938307 0
    outer loop
      vertex 2.46857 5.51884 1.3
      vertex 2.46857 5.51884 1.8
      vertex 2.72005 5.42616 1.3
    endloop
  endfacet
  facet normal 0 0 1
    outer loop
      vertex 2.46857 5.51884 1.3
      vertex 2.72005 5.42616 1.3
      vertex 2.73756 6.00218 1.3
    endloop
  endfacet
  facet normal 0.345802 0.938307 -0
    outer loop
      vertex 2.46857 5.51884 1.8
      vertex 2.72005 5.42616 1.8
      vertex 2.72005 5.42616 1.3
    endloop
  endfacet
  facet normal 0 0 1
    outer loop
      vertex 2.46857 5.51884 1.8
      vertex 2.92818 5.2717 1.8
      vertex 2.72005 5.42616 1.8
    endloop
  endfacet
  facet normal 0 0 1
    outer loop
      vertex 2.46857 5.51884 1.8
      vertex 3.08359 5.06714 1.8
      vertex 2.92818 5.2717 1.8
    endloop
  endfacet
  facet normal 0 0 1
    outer loop
      vertex 2.46857 5.51884 1.8
      vertex 3.17683 4.82416 1.8
      vertex 3.08359 5.06714 1.8
    endloop
  endfacet
  facet normal 0 0 1
    outer loop
      vertex 2.46857 5.51884 1.8
      vertex 3.20792 4.54274 1.8
      vertex 3.17683 4.82416 1.8
    endloop
  endfacet
  facet normal -0.328914 0.94436 0
    outer loop
      vertex 2.63921 2.98042 1.3
      vertex 2.63921 2.98042 1.8
      vertex 3.05455 3.12508 1.3
    endloop
  endfacet
  facet normal 0 0 1
    outer loop
      vertex 2.63921 2.98042 1.3
      vertex 3.05455 3.12508 1.3
      vertex 2.72078 3.56244 1.3
    endloop
  endfacet
  facet normal -0 0 1
    outer loop
      vertex 2.63921 2.98042 1.8
      vertex 12 0 1.8
      vertex 3.05455 3.12508 1.8
    endloop
  endfacet
  facet normal -0.328914 0.94436 0
    outer loop
      vertex 2.63921 2.98042 1.8
      vertex 3.05455 3.12508 1.8
      vertex 3.05455 3.12508 1.3
    endloop
  endfacet
  facet normal 0.595949 0.803022 0
    outer loop
      vertex 2.72005 5.42616 1.3
      vertex 2.72005 5.42616 1.8
      vertex 2.92818 5.2717 1.3
    endloop
  endfacet
  facet normal 0 0 1
    outer loop
      vertex 2.72005 5.42616 1.3
      vertex 2.92818 5.2717 1.3
      vertex 3.11223 5.8643 1.3
    endloop
  endfacet
  facet normal 0 0 1
    outer loop
      vertex 2.72005 5.42616 1.3
      vertex 3.11223 5.8643 1.3
      vertex 2.73756 6.00218 1.3
    endloop
  endfacet
  facet normal 0.595949 0.803022 -0
    outer loop
      vertex 2.72005 5.42616 1.8
      vertex 2.92818 5.2717 1.8
      vertex 2.92818 5.2717 1.3
    endloop
  endfacet
  facet normal 0.61904 -0.785359 0
    outer loop
      vertex 2.72078 3.56244 1.3
      vertex 2.92987 3.72725 1.3
      vertex 2.92987 3.72725 1.8
    endloop
  endfacet
  facet normal 0.61904 -0.785359 0
    outer loop
      vertex 2.72078 3.56244 1.3
      vertex 2.92987 3.72725 1.8
      vertex 2.72078 3.56244 1.8
    endloop
  endfacet
  facet normal -0 0 1
    outer loop
      vertex 2.72078 3.56244 1.3
      vertex 3.05455 3.12508 1.3
      vertex 2.92987 3.72725 1.3
    endloop
  endfacet
  facet normal -0.345361 -0.93847 -0
    outer loop
      vertex 2.73756 6.00218 1.3
      vertex 3.11223 5.8643 1.3
      vertex 3.11223 5.8643 1.8
    endloop
  endfacet
  facet normal -0.345361 -0.93847 0
    outer loop
      vertex 2.73756 6.00218 1.3
      vertex 3.11223 5.8643 1.8
      vertex 2.73756 6.00218 1.8
    endloop
  endfacet
  facet normal 0 0 1
    outer loop
      vertex 2.73756 6.00218 1.8
      vertex 3.11223 5.8643 1.8
      vertex 3.56392 7.25864 1.8
    endloop
  endfacet
  facet normal 0.796266 0.604946 0
    outer loop
      vertex 2.92818 5.2717 1.3
      vertex 2.92818 5.2717 1.8
      vertex 3.08359 5.06714 1.8
    endloop
  endfacet
  facet normal 0 0 1
    outer loop
      vertex 2.92818 5.2717 1.3
      vertex 3.08359 5.06714 1.3
      vertex 3.42322 5.63449 1.3
    endloop
  endfacet
  facet normal 0.796266 0.604946 0
    outer loop
      vertex 2.92818 5.2717 1.3
      vertex 3.08359 5.06714 1.8
      vertex 3.08359 5.06714 1.3
    endloop
  endfacet
  facet normal 0 0 1
    outer loop
      vertex 2.92818 5.2717 1.3
      vertex 3.42322 5.63449 1.3
      vertex 3.11223 5.8643 1.3
    endloop
  endfacet
  facet normal 0 0 1
    outer loop
      vertex 2.92987 3.72725 1.3
      vertex 3.05455 3.12508 1.3
      vertex 3.39267 3.3662 1.3
    endloop
  endfacet
  facet normal 0.821393 -0.570363 0
    outer loop
      vertex 2.92987 3.72725 1.3
      vertex 3.08435 3.94972 1.3
      vertex 2.92987 3.72725 1.8
    endloop
  endfacet
  facet normal -0 0 1
    outer loop
      vertex 2.92987 3.72725 1.3
      vertex 3.39267 3.3662 1.3
      vertex 3.08435 3.94972 1.3
    endloop
  endfacet
  facet normal 0.821393 -0.570363 0
    outer loop
      vertex 2.92987 3.72725 1.8
      vertex 3.08435 3.94972 1.3
      vertex 3.08435 3.94972 1.8
    endloop
  endfacet
  facet normal -0.580609 0.814182 0
    outer loop
      vertex 3.05455 3.12508 1.3
      vertex 3.05455 3.12508 1.8
      vertex 3.39267 3.3662 1.3
    endloop
  endfacet
  facet normal -0 0 1
    outer loop
      vertex 3.05455 3.12508 1.8
      vertex 12 0 1.8
      vertex 3.39267 3.3662 1.8
    endloop
  endfacet
  facet normal -0.580609 0.814182 0
    outer loop
      vertex 3.05455 3.12508 1.8
      vertex 3.39267 3.3662 1.8
      vertex 3.39267 3.3662 1.3
    endloop
  endfacet
  facet normal 0.933621 0.358263 0
    outer loop
      vertex 3.08359 5.06714 1.3
      vertex 3.08359 5.06714 1.8
      vertex 3.17683 4.82416 1.8
    endloop
  endfacet
  facet normal 0 0 1
    outer loop
      vertex 3.08359 5.06714 1.3
      vertex 3.17683 4.82416 1.3
      vertex 3.65587 5.33084 1.3
    endloop
  endfacet
  facet normal 0.933621 0.358263 0
    outer loop
      vertex 3.08359 5.06714 1.3
      vertex 3.17683 4.82416 1.8
      vertex 3.17683 4.82416 1.3
    endloop
  endfacet
  facet normal 0 0 1
    outer loop
      vertex 3.08359 5.06714 1.3
      vertex 3.65587 5.33084 1.3
      vertex 3.42322 5.63449 1.3
    endloop
  endfacet
  facet normal 0.946502 -0.322697 0
    outer loop
      vertex 3.08435 3.94972 1.3
      vertex 3.17703 4.22156 1.3
      vertex 3.08435 3.94972 1.8
    endloop
  endfacet
  facet normal 0 0 1
    outer loop
      vertex 3.08435 3.94972 1.3
      vertex 3.39267 3.3662 1.3
      vertex 3.64229 3.69131 1.3
    endloop
  endfacet
  facet normal -0 0 1
    outer loop
      vertex 3.08435 3.94972 1.3
      vertex 3.64229 3.69131 1.3
      vertex 3.17703 4.22156 1.3
    endloop
  endfacet
  facet normal 0.946502 -0.322697 0
    outer loop
      vertex 3.08435 3.94972 1.8
      vertex 3.17703 4.22156 1.3
      vertex 3.17703 4.22156 1.8
    endloop
  endfacet
  facet normal -0.594304 -0.804241 -0
    outer loop
      vertex 3.11223 5.8643 1.3
      vertex 3.42322 5.63449 1.3
      vertex 3.42322 5.63449 1.8
    endloop
  endfacet
  facet normal -0.594304 -0.804241 0
    outer loop
      vertex 3.11223 5.8643 1.3
      vertex 3.42322 5.63449 1.8
      vertex 3.11223 5.8643 1.8
    endloop
  endfacet
  facet normal 0 0 1
    outer loop
      vertex 3.11223 5.8643 1.8
      vertex 3.42322 5.63449 1.8
      vertex 3.56392 7.25864 1.8
    endloop
  endfacet
  facet normal 0.993953 0.109807 0
    outer loop
      vertex 3.17683 4.82416 1.3
      vertex 3.17683 4.82416 1.8
      vertex 3.20792 4.54274 1.8
    endloop
  endfacet
  facet normal 0 0 1
    outer loop
      vertex 3.17683 4.82416 1.3
      vertex 3.20792 4.54274 1.3
      vertex 3.84198 4.55629 1.3
    endloop
  endfacet
  facet normal 0.993953 0.109807 0
    outer loop
      vertex 3.17683 4.82416 1.3
      vertex 3.20792 4.54274 1.8
      vertex 3.20792 4.54274 1.3
    endloop
  endfacet
  facet normal 0 0 1
    outer loop
      vertex 3.17683 4.82416 1.3
      vertex 3.79544 4.97145 1.3
      vertex 3.65587 5.33084 1.3
    endloop
  endfacet
  facet normal -0 0 1
    outer loop
      vertex 3.17683 4.82416 1.3
      vertex 3.84198 4.55629 1.3
      vertex 3.79544 4.97145 1.3
    endloop
  endfacet
  facet normal 0.995407 -0.0957348 0
    outer loop
      vertex 3.17703 4.22156 1.3
      vertex 3.20792 4.54274 1.3
      vertex 3.17703 4.22156 1.8
    endloop
  endfacet
  facet normal 0 0 1
    outer loop
      vertex 3.17703 4.22156 1.3
      vertex 3.64229 3.69131 1.3
      vertex 3.79205 4.08801 1.3
    endloop
  endfacet
  facet normal -0 0 1
    outer loop
      vertex 3.17703 4.22156 1.3
      vertex 3.79205 4.08801 1.3
      vertex 3.20792 4.54274 1.3
    endloop
  endfacet
  facet normal 0.995407 -0.0957348 0
    outer loop
      vertex 3.17703 4.22156 1.8
      vertex 3.20792 4.54274 1.3
      vertex 3.20792 4.54274 1.8
    endloop
  endfacet
  facet normal 0 0 1
    outer loop
      vertex 3.20792 4.54274 1.3
      vertex 3.79205 4.08801 1.3
      vertex 3.84198 4.55629 1.3
    endloop
  endfacet
  facet normal -0.793171 0.608998 0
    outer loop
      vertex 3.39267 3.3662 1.3
      vertex 3.39267 3.3662 1.8
      vertex 3.64229 3.69131 1.8
    endloop
  endfacet
  facet normal -0.793171 0.608998 0
    outer loop
      vertex 3.39267 3.3662 1.3
      vertex 3.64229 3.69131 1.8
      vertex 3.64229 3.69131 1.3
    endloop
  endfacet
  facet normal -0 0 1
    outer loop
      vertex 3.39267 3.3662 1.8
      vertex 11.9054 1.504 1.8
      vertex 3.64229 3.69131 1.8
    endloop
  endfacet
  facet normal 0 0 1
    outer loop
      vertex 3.39267 3.3662 1.8
      vertex 11.9763 0.753486 1.8
      vertex 11.9054 1.504 1.8
    endloop
  endfacet
  facet normal 0 0 1
    outer loop
      vertex 3.39267 3.3662 1.8
      vertex 12 0 1.8
      vertex 11.9763 0.753486 1.8
    endloop
  endfacet
  facet normal -0.793794 -0.608187 0
    outer loop
      vertex 3.42322 5.63449 1.3
      vertex 3.65587 5.33084 1.3
      vertex 3.42322 5.63449 1.8
    endloop
  endfacet
  facet normal -0.793794 -0.608187 0
    outer loop
      vertex 3.42322 5.63449 1.8
      vertex 3.65587 5.33084 1.3
      vertex 3.65587 5.33084 1.8
    endloop
  endfacet
  facet normal 0 0 1
    outer loop
      vertex 3.42322 5.63449 1.8
      vertex 3.65587 5.33084 1.8
      vertex 3.56392 7.25864 1.8
    endloop
  endfacet
  facet normal -1 -0 0
    outer loop
      vertex 3.56392 7.25864 1.3
      vertex 3.56392 7.25864 1.8
      vertex 3.56392 7.77739 1.8
    endloop
  endfacet
  facet normal -1 0 0
    outer loop
      vertex 3.56392 7.25864 1.3
      vertex 3.56392 7.77739 1.8
      vertex 3.56392 7.77739 1.3
    endloop
  endfacet
  facet normal 0 0 1
    outer loop
      vertex 3.56392 7.25864 1.8
      vertex 3.65587 5.33084 1.8
      vertex 3.79544 4.97145 1.8
    endloop
  endfacet
  facet normal -0 0 1
    outer loop
      vertex 3.56392 7.25864 1.8
      vertex 3.79544 4.97145 1.8
      vertex 3.56392 7.77739 1.8
    endloop
  endfacet
  facet normal 0 0 1
    outer loop
      vertex 3.56392 7.77739 1.8
      vertex 3.79544 4.97145 1.8
      vertex 8.5 17.7062 1.8
    endloop
  endfacet
  facet normal -0.935553 0.353185 0
    outer loop
      vertex 3.64229 3.69131 1.3
      vertex 3.64229 3.69131 1.8
      vertex 3.79205 4.08801 1.8
    endloop
  endfacet
  facet normal -0.935553 0.353185 0
    outer loop
      vertex 3.64229 3.69131 1.3
      vertex 3.79205 4.08801 1.8
      vertex 3.79205 4.08801 1.3
    endloop
  endfacet
  facet normal -0 0 1
    outer loop
      vertex 3.64229 3.69131 1.8
      vertex 11.7874 2.24858 1.8
      vertex 3.79205 4.08801 1.8
    endloop
  endfacet
  facet normal 0 0 1
    outer loop
      vertex 3.64229 3.69131 1.8
      vertex 11.9054 1.504 1.8
      vertex 11.7874 2.24858 1.8
    endloop
  endfacet
  facet normal -0.932173 -0.362012 0
    outer loop
      vertex 3.65587 5.33084 1.3
      vertex 3.79544 4.97145 1.3
      vertex 3.65587 5.33084 1.8
    endloop
  endfacet
  facet normal -0.932173 -0.362012 0
    outer loop
      vertex 3.65587 5.33084 1.8
      vertex 3.79544 4.97145 1.3
      vertex 3.79544 4.97145 1.8
    endloop
  endfacet
  facet normal -0.994364 0.106023 0
    outer loop
      vertex 3.79205 4.08801 1.3
      vertex 3.79205 4.08801 1.8
      vertex 3.84198 4.55629 1.8
    endloop
  endfacet
  facet normal -0.994364 0.106023 0
    outer loop
      vertex 3.79205 4.08801 1.3
      vertex 3.84198 4.55629 1.8
      vertex 3.84198 4.55629 1.3
    endloop
  endfacet
  facet normal -0 0 1
    outer loop
      vertex 3.79205 4.08801 1.8
      vertex 11.7874 2.24858 1.8
      vertex 3.84198 4.55629 1.8
    endloop
  endfacet
  facet normal -0.993775 -0.111404 0
    outer loop
      vertex 3.79544 4.97145 1.3
      vertex 3.84198 4.55629 1.3
      vertex 3.79544 4.97145 1.8
    endloop
  endfacet
  facet normal -0.993775 -0.111404 0
    outer loop
      vertex 3.79544 4.97145 1.8
      vertex 3.84198 4.55629 1.3
      vertex 3.84198 4.55629 1.8
    endloop
  endfacet
  facet normal 0 0 1
    outer loop
      vertex 3.79544 4.97145 1.8
      vertex 3.84198 4.55629 1.8
      vertex 8.5 17.7062 1.8
    endloop
  endfacet
  facet normal -0 0 1
    outer loop
      vertex 3.84198 4.55629 1.8
      vertex 11.7874 2.24858 1.8
      vertex 8.5 17.7062 1.8
    endloop
  endfacet
  facet normal 1 -0 0
    outer loop
      vertex 8.5 17.7062 1.8
      vertex 8.5 35 3.8147e-07
      vertex 8.5 35 1.8
    endloop
  endfacet
  facet normal 0.978125 0.20802 0
    outer loop
      vertex 8.5 17.7062 3.8147e-07
      vertex 11.7874 2.24858 1.8
      vertex 11.7874 2.24858 3.8147e-07
    endloop
  endfacet
  facet normal 0.978125 0.20802 0
    outer loop
      vertex 8.5 17.7062 3.8147e-07
      vertex 8.5 17.7062 1.8
      vertex 11.7874 2.24858 1.8
    endloop
  endfacet
  facet normal 1 0 0
    outer loop
      vertex 8.5 17.7062 3.8147e-07
      vertex 8.5 35 3.8147e-07
      vertex 8.5 17.7062 1.8
    endloop
  endfacet
endsolid model
