solid model
  facet normal -0.930731 -0.365705 0
    outer loop
      vertex -0.075882 4.85994 1.3
      vertex 0.0235901 4.60678 1.3
      vertex -0.075882 4.85994 1.8
    endloop
  endfacet
  facet normal -0.930731 -0.365705 0
    outer loop
      vertex -0.075882 4.85994 1.8
      vertex 0.0235901 4.60678 1.3
      vertex 0.0235901 4.60678 1.8
    endloop
  endfacet
  facet normal -0.995096 0.0989159 0
    outer loop
      vertex -0.103897 6.29776 1.3
      vertex -0.0754547 6.58389 1.8
      vertex -0.0754547 6.58389 1.3
    endloop
  endfacet
  facet normal -0.995096 0.0989159 0
    outer loop
      vertex -0.103897 6.29776 1.3
      vertex -0.103897 6.29776 1.8
      vertex -0.0754547 6.58389 1.8
    endloop
  endfacet
  facet normal 0 0 1
    outer loop
      vertex -0.103897 6.29776 1.8
      vertex -0.075882 4.85994 1.8
      vertex 0.0235901 4.60678 1.8
    endloop
  endfacet
  facet normal 0 0 1
    outer loop
      vertex -0.103897 6.29776 1.8
      vertex 0.0235901 4.60678 1.8
      vertex 0.627625 7.77739 1.8
    endloop
  endfacet
  facet normal 0 0 1
    outer loop
      vertex -0.103897 6.29776 1.8
      vertex 0.627625 7.77739 1.8
      vertex -0.0754547 6.58389 1.8
    endloop
  endfacet
  facet normal -0.992868 -0.119221 0
    outer loop
      vertex -0.11972 6.95253 1.3
      vertex -0.0754547 6.58389 1.3
      vertex -0.11972 6.95253 1.8
    endloop
  endfacet
  facet normal -0.992868 -0.119221 0
    outer loop
      vertex -0.11972 6.95253 1.8
      vertex -0.0754547 6.58389 1.3
      vertex -0.0754547 6.58389 1.8
    endloop
  endfacet
  facet normal 0 0 1
    outer loop
      vertex -0.11972 6.95253 1.8
      vertex -0.0754547 6.58389 1.8
      vertex 0.627625 7.77739 1.8
    endloop
  endfacet
  facet normal -0.925051 0.379842 0
    outer loop
      vertex -0.130127 3.57001 1.3
      vertex -0.130127 3.57001 1.8
      vertex 0.010025 3.91133 1.8
    endloop
  endfacet
  facet normal -0.925051 0.379842 0
    outer loop
      vertex -0.130127 3.57001 1.3
      vertex 0.010025 3.91133 1.8
      vertex 0.010025 3.91133 1.3
    endloop
  endfacet
  facet normal 0 0 1
    outer loop
      vertex -0.130127 3.57001 1.8
      vertex 1.50922 3 1.8
      vertex 1.55235 3.62103 1.8
    endloop
  endfacet
  facet normal 0 0 1
    outer loop
      vertex -0.130127 3.57001 1.8
      vertex 1.55235 3.62103 1.8
      vertex 0.010025 3.91133 1.8
    endloop
  endfacet
  facet normal -0.945614 0.325291 0
    outer loop
      vertex -0.18924 6.04967 1.3
      vertex -0.103897 6.29776 1.8
      vertex -0.103897 6.29776 1.3
    endloop
  endfacet
  facet normal -0.945614 0.325291 0
    outer loop
      vertex -0.18924 6.04967 1.3
      vertex -0.18924 6.04967 1.8
      vertex -0.103897 6.29776 1.8
    endloop
  endfacet
  facet normal -0 0 1
    outer loop
      vertex -0.18924 6.04967 1.8
      vertex -0.075882 4.85994 1.8
      vertex -0.103897 6.29776 1.8
    endloop
  endfacet
  facet normal -0.796683 -0.604398 0
    outer loop
      vertex -0.241653 5.07845 1.3
      vertex -0.075882 4.85994 1.3
      vertex -0.241653 5.07845 1.8
    endloop
  endfacet
  facet normal -0.796683 -0.604398 0
    outer loop
      vertex -0.241653 5.07845 1.8
      vertex -0.075882 4.85994 1.3
      vertex -0.075882 4.85994 1.8
    endloop
  endfacet
  facet normal 0 0 1
    outer loop
      vertex -0.241653 5.07845 1.8
      vertex -0.075882 4.85994 1.8
      vertex -0.18924 6.04967 1.8
    endloop
  endfacet
  facet normal -0.919314 -0.393524 0
    outer loop
      vertex -0.252518 7.26276 1.3
      vertex -0.11972 6.95253 1.3
      vertex -0.252518 7.26276 1.8
    endloop
  endfacet
  facet normal -0.919314 -0.393524 0
    outer loop
      vertex -0.252518 7.26276 1.8
      vertex -0.11972 6.95253 1.3
      vertex -0.11972 6.95253 1.8
    endloop
  endfacet
  facet normal 0 0 1
    outer loop
      vertex -0.252518 7.26276 1.8
      vertex -0.11972 6.95253 1.8
      vertex 0.627625 7.77739 1.8
    endloop
  endfacet
  facet normal -0.82803 0.560684 0
    outer loop
      vertex -0.331451 5.83965 1.3
      vertex -0.18924 6.04967 1.8
      vertex -0.18924 6.04967 1.3
    endloop
  endfacet
  facet normal -0.82803 0.560684 0
    outer loop
      vertex -0.331451 5.83965 1.3
      vertex -0.331451 5.83965 1.8
      vertex -0.18924 6.04967 1.8
    endloop
  endfacet
  facet normal -0 0 1
    outer loop
      vertex -0.331451 5.83965 1.8
      vertex -0.241653 5.07845 1.8
      vertex -0.18924 6.04967 1.8
    endloop
  endfacet
  facet normal -0.762182 0.647363 0
    outer loop
      vertex -0.363708 3.295 1.3
      vertex -0.130127 3.57001 1.8
      vertex -0.130127 3.57001 1.3
    endloop
  endfacet
  facet normal -0.762182 0.647363 0
    outer loop
      vertex -0.363708 3.295 1.3
      vertex -0.363708 3.295 1.8
      vertex -0.130127 3.57001 1.8
    endloop
  endfacet
  facet normal -0 0 1
    outer loop
      vertex -0.363708 3.295 1.8
      vertex 1.50922 3 1.8
      vertex -0.130127 3.57001 1.8
    endloop
  endfacet
  facet normal -0.611358 -0.791354 -0
    outer loop
      vertex -0.466934 5.25249 1.3
      vertex -0.241653 5.07845 1.3
      vertex -0.241653 5.07845 1.8
    endloop
  endfacet
  facet normal -0.611358 -0.791354 0
    outer loop
      vertex -0.466934 5.25249 1.3
      vertex -0.241653 5.07845 1.8
      vertex -0.466934 5.25249 1.8
    endloop
  endfacet
  facet normal 0 0 1
    outer loop
      vertex -0.466934 5.25249 1.8
      vertex -0.241653 5.07845 1.8
      vertex -0.331451 5.83965 1.8
    endloop
  endfacet
  facet normal -0.751107 -0.66018 0
    outer loop
      vertex -0.473862 7.51459 1.3
      vertex -0.252518 7.26276 1.3
      vertex -0.473862 7.51459 1.8
    endloop
  endfacet
  facet normal -0.751107 -0.66018 0
    outer loop
      vertex -0.473862 7.51459 1.8
      vertex -0.252518 7.26276 1.3
      vertex -0.252518 7.26276 1.8
    endloop
  endfacet
  facet normal 0 0 1
    outer loop
      vertex -0.473862 7.51459 1.8
      vertex -0.252518 7.26276 1.8
      vertex 0.627625 7.77739 1.8
    endloop
  endfacet
  facet normal 0.156416 0.987691 -0
    outer loop
      vertex -0.494427 14.9783 1.8
      vertex 0 14.9 1.8
      vertex 0 14.9 3.8147e-07
    endloop
  endfacet
  facet normal 0.156416 0.987691 0
    outer loop
      vertex -0.494427 14.9783 3.8147e-07
      vertex -0.494427 14.9783 1.8
      vertex 0 14.9 3.8147e-07
    endloop
  endfacet
  facet normal 0 0 1
    outer loop
      vertex -0.494427 18.0217 1.8
      vertex 0 18.1 1.8
      vertex -0.494427 29.1433 1.8
    endloop
  endfacet
  facet normal 0 0 -1
    outer loop
      vertex -0.494427 18.0217 3.8147e-07
      vertex -0.494427 29.1433 3.8147e-07
      vertex 0 29.065 3.8147e-07
    endloop
  endfacet
  facet normal 0.156416 -0.987691 0
    outer loop
      vertex -0.494427 18.0217 3.8147e-07
      vertex 0 18.1 1.8
      vertex -0.494427 18.0217 1.8
    endloop
  endfacet
  facet normal 0.156416 -0.987691 0
    outer loop
      vertex -0.494427 18.0217 3.8147e-07
      vertex 0 18.1 3.8147e-07
      vertex 0 18.1 1.8
    endloop
  endfacet
  facet normal 0 0 -1
    outer loop
      vertex -0.494427 18.0217 3.8147e-07
      vertex 0 29.065 3.8147e-07
      vertex 0 18.1 3.8147e-07
    endloop
  endfacet
  facet normal 0 0 1
    outer loop
      vertex -0.494427 29.1433 1.8
      vertex 0 18.1 1.8
      vertex 0 29.065 1.8
    endloop
  endfacet
  facet normal 0.156416 0.987691 -0
    outer loop
      vertex -0.494427 29.1433 1.8
      vertex 0 29.065 1.8
      vertex 0 29.065 3.8147e-07
    endloop
  endfacet
  facet normal 0.156416 0.987691 0
    outer loop
      vertex -0.494427 29.1433 3.8147e-07
      vertex -0.494427 29.1433 1.8
      vertex 0 29.065 3.8147e-07
    endloop
  endfacet
  facet normal 0.156416 -0.987691 0
    outer loop
      vertex -0.494427 32.1867 3.8147e-07
      vertex 0 32.265 1.8
      vertex -0.494427 32.1867 1.8
    endloop
  endfacet
  facet normal 0.156416 -0.987691 0
    outer loop
      vertex -0.494427 32.1867 3.8147e-07
      vertex 0 32.265 3.8147e-07
      vertex 0 32.265 1.8
    endloop
  endfacet
  facet normal -0.655377 0.755302 0
    outer loop
      vertex -0.527924 5.66917 1.3
      vertex -0.527924 5.66917 1.8
      vertex -0.331451 5.83965 1.3
    endloop
  endfacet
  facet normal -0.655377 0.755302 0
    outer loop
      vertex -0.527924 5.66917 1.8
      vertex -0.331451 5.83965 1.8
      vertex -0.331451 5.83965 1.3
    endloop
  endfacet
  facet normal -0 0 1
    outer loop
      vertex -0.527924 5.66917 1.8
      vertex -0.466934 5.25249 1.8
      vertex -0.331451 5.83965 1.8
    endloop
  endfacet
  facet normal -0 0 1
    outer loop
      vertex -0.577301 4.33929 1.3
      vertex 0.0567474 4.31894 1.3
      vertex 0.0235901 4.60678 1.3
    endloop
  endfacet
  facet normal 0 0 1
    outer loop
      vertex -0.606506 4.06541 1.3
      vertex -0.130127 3.57001 1.3
      vertex 0.010025 3.91133 1.3
    endloop
  endfacet
  facet normal 0.994363 -0.106033 0
    outer loop
      vertex -0.606506 4.06541 1.3
      vertex -0.577301 4.33929 1.3
      vertex -0.606506 4.06541 1.8
    endloop
  endfacet
  facet normal 0 0 1
    outer loop
      vertex -0.606506 4.06541 1.3
      vertex 0.010025 3.91133 1.3
      vertex 0.0567474 4.31894 1.3
    endloop
  endfacet
  facet normal 0 0 1
    outer loop
      vertex -0.606506 4.06541 1.3
      vertex 0.0567474 4.31894 1.3
      vertex -0.577301 4.33929 1.3
    endloop
  endfacet
  facet normal 0.994363 -0.106033 0
    outer loop
      vertex -0.606506 4.06541 1.8
      vertex -0.577301 4.33929 1.3
      vertex -0.577301 4.33929 1.8
    endloop
  endfacet
  facet normal 0 0 1
    outer loop
      vertex -0.610641 4.5802 1.3
      vertex -0.075882 4.85994 1.3
      vertex -0.241653 5.07845 1.3
    endloop
  endfacet
  facet normal 0 0 1
    outer loop
      vertex -0.610641 4.5802 1.3
      vertex -0.577301 4.33929 1.3
      vertex 0.0235901 4.60678 1.3
    endloop
  endfacet
  facet normal 0.990559 0.137085 0
    outer loop
      vertex -0.610641 4.5802 1.3
      vertex -0.577301 4.33929 1.8
      vertex -0.577301 4.33929 1.3
    endloop
  endfacet
  facet normal 0.990559 0.137085 0
    outer loop
      vertex -0.610641 4.5802 1.3
      vertex -0.610641 4.5802 1.8
      vertex -0.577301 4.33929 1.8
    endloop
  endfacet
  facet normal 0 0 1
    outer loop
      vertex -0.610641 4.5802 1.3
      vertex 0.0235901 4.60678 1.3
      vertex -0.075882 4.85994 1.3
    endloop
  endfacet
  facet normal -0.532735 0.846282 0
    outer loop
      vertex -0.683914 3.09343 1.3
      vertex -0.683914 3.09343 1.8
      vertex -0.363708 3.295 1.3
    endloop
  endfacet
  facet normal -0.532735 0.846282 0
    outer loop
      vertex -0.683914 3.09343 1.8
      vertex -0.363708 3.295 1.8
      vertex -0.363708 3.295 1.3
    endloop
  endfacet
  facet normal -0 0 1
    outer loop
      vertex -0.683914 3.09343 1.8
      vertex 1.50922 3 1.8
      vertex -0.363708 3.295 1.8
    endloop
  endfacet
  facet normal -0 0 1
    outer loop
      vertex -0.694107 3.8405 1.3
      vertex -0.130127 3.57001 1.3
      vertex -0.606506 4.06541 1.3
    endloop
  endfacet
  facet normal 0 0 1
    outer loop
      vertex -0.694107 3.8405 1.3
      vertex -0.363708 3.295 1.3
      vertex -0.130127 3.57001 1.3
    endloop
  endfacet
  facet normal 0.931814 -0.362936 0
    outer loop
      vertex -0.694107 3.8405 1.3
      vertex -0.606506 4.06541 1.3
      vertex -0.694107 3.8405 1.8
    endloop
  endfacet
  facet normal 0.931814 -0.362936 0
    outer loop
      vertex -0.694107 3.8405 1.8
      vertex -0.606506 4.06541 1.3
      vertex -0.606506 4.06541 1.8
    endloop
  endfacet
  facet normal 0 0 1
    outer loop
      vertex -0.702759 6.51944 1.3
      vertex -0.103897 6.29776 1.3
      vertex -0.0754547 6.58389 1.3
    endloop
  endfacet
  facet normal 0 0 1
    outer loop
      vertex -0.710663 4.78307 1.3
      vertex -0.241653 5.07845 1.3
      vertex -0.466934 5.25249 1.3
    endloop
  endfacet
  facet normal 0 0 1
    outer loop
      vertex -0.710663 4.78307 1.3
      vertex -0.610641 4.5802 1.3
      vertex -0.241653 5.07845 1.3
    endloop
  endfacet
  facet normal 0.896912 0.442209 0
    outer loop
      vertex -0.710663 4.78307 1.3
      vertex -0.610641 4.5802 1.8
      vertex -0.610641 4.5802 1.3
    endloop
  endfacet
  facet normal 0.896912 0.442209 0
    outer loop
      vertex -0.710663 4.78307 1.3
      vertex -0.710663 4.78307 1.8
      vertex -0.610641 4.5802 1.8
    endloop
  endfacet
  facet normal -0 0 1
    outer loop
      vertex -0.727814 6.75699 1.3
      vertex -0.0754547 6.58389 1.3
      vertex -0.11972 6.95253 1.3
    endloop
  endfacet
  facet normal 0 0 1
    outer loop
      vertex -0.727814 6.75699 1.3
      vertex -0.702759 6.51944 1.3
      vertex -0.0754547 6.58389 1.3
    endloop
  endfacet
  facet normal 0.994484 0.104891 0
    outer loop
      vertex -0.727814 6.75699 1.3
      vertex -0.702759 6.51944 1.8
      vertex -0.702759 6.51944 1.3
    endloop
  endfacet
  facet normal 0.994484 0.104891 0
    outer loop
      vertex -0.727814 6.75699 1.3
      vertex -0.727814 6.75699 1.8
      vertex -0.702759 6.51944 1.8
    endloop
  endfacet
  facet normal 0 0 1
    outer loop
      vertex -0.733459 6.28043 1.3
      vertex -0.103897 6.29776 1.3
      vertex -0.702759 6.51944 1.3
    endloop
  endfacet
  facet normal 0 0 1
    outer loop
      vertex -0.733459 6.28043 1.3
      vertex -0.18924 6.04967 1.3
      vertex -0.103897 6.29776 1.3
    endloop
  endfacet
  facet normal 0 0 1
    outer loop
      vertex -0.733459 6.28043 1.3
      vertex -0.331451 5.83965 1.3
      vertex -0.18924 6.04967 1.3
    endloop
  endfacet
  facet normal 0.991851 -0.1274 0
    outer loop
      vertex -0.733459 6.28043 1.3
      vertex -0.702759 6.51944 1.3
      vertex -0.733459 6.28043 1.8
    endloop
  endfacet
  facet normal 0.991851 -0.1274 0
    outer loop
      vertex -0.733459 6.28043 1.8
      vertex -0.702759 6.51944 1.3
      vertex -0.702759 6.51944 1.8
    endloop
  endfacet
  facet normal -0.395707 -0.918377 -0
    outer loop
      vertex -0.744949 5.37228 1.3
      vertex -0.466934 5.25249 1.3
      vertex -0.466934 5.25249 1.8
    endloop
  endfacet
  facet normal -0.395707 -0.918377 0
    outer loop
      vertex -0.744949 5.37228 1.3
      vertex -0.466934 5.25249 1.8
      vertex -0.744949 5.37228 1.8
    endloop
  endfacet
  facet normal 0 0 1
    outer loop
      vertex -0.744949 5.37228 1.8
      vertex -0.466934 5.25249 1.8
      vertex -0.527924 5.66917 1.8
    endloop
  endfacet
  facet normal -0.52451 -0.851404 -0
    outer loop
      vertex -0.77507 7.70015 1.3
      vertex -0.473862 7.51459 1.3
      vertex -0.473862 7.51459 1.8
    endloop
  endfacet
  facet normal -0.52451 -0.851404 0
    outer loop
      vertex -0.77507 7.70015 1.3
      vertex -0.473862 7.51459 1.8
      vertex -0.77507 7.70015 1.8
    endloop
  endfacet
  facet normal 0 0 1
    outer loop
      vertex -0.77507 7.70015 1.8
      vertex -0.473862 7.51459 1.8
      vertex 0.627625 7.77739 1.8
    endloop
  endfacet
  facet normal -0.462512 0.886613 0
    outer loop
      vertex -0.776016 5.53975 1.3
      vertex -0.776016 5.53975 1.8
      vertex -0.527924 5.66917 1.3
    endloop
  endfacet
  facet normal -0.462512 0.886613 0
    outer loop
      vertex -0.776016 5.53975 1.8
      vertex -0.527924 5.66917 1.8
      vertex -0.527924 5.66917 1.3
    endloop
  endfacet
  facet normal -0 0 1
    outer loop
      vertex -0.776016 5.53975 1.8
      vertex -0.744949 5.37228 1.8
      vertex -0.527924 5.66917 1.8
    endloop
  endfacet
  facet normal -0 0 1
    outer loop
      vertex -0.802979 6.95872 1.3
      vertex -0.11972 6.95253 1.3
      vertex -0.252518 7.26276 1.3
    endloop
  endfacet
  facet normal 0 0 1
    outer loop
      vertex -0.802979 6.95872 1.3
      vertex -0.252518 7.26276 1.3
      vertex -0.473862 7.51459 1.3
    endloop
  endfacet
  facet normal 0 0 1
    outer loop
      vertex -0.802979 6.95872 1.3
      vertex -0.727814 6.75699 1.3
      vertex -0.11972 6.95253 1.3
    endloop
  endfacet
  facet normal 0.937066 0.349153 0
    outer loop
      vertex -0.802979 6.95872 1.3
      vertex -0.727814 6.75699 1.8
      vertex -0.727814 6.75699 1.3
    endloop
  endfacet
  facet normal 0.937066 0.349153 0
    outer loop
      vertex -0.802979 6.95872 1.3
      vertex -0.802979 6.95872 1.8
      vertex -0.727814 6.75699 1.8
    endloop
  endfacet
  facet normal -0 0 1
    outer loop
      vertex -0.825577 6.07869 1.3
      vertex -0.331451 5.83965 1.3
      vertex -0.733459 6.28043 1.3
    endloop
  endfacet
  facet normal 0 0 1
    outer loop
      vertex -0.825577 6.07869 1.3
      vertex -0.527924 5.66917 1.3
      vertex -0.331451 5.83965 1.3
    endloop
  endfacet
  facet normal 0.909655 -0.415364 0
    outer loop
      vertex -0.825577 6.07869 1.3
      vertex -0.733459 6.28043 1.3
      vertex -0.825577 6.07869 1.8
    endloop
  endfacet
  facet normal 0.909655 -0.415364 0
    outer loop
      vertex -0.825577 6.07869 1.8
      vertex -0.733459 6.28043 1.3
      vertex -0.733459 6.28043 1.8
    endloop
  endfacet
  facet normal -0 0 1
    outer loop
      vertex -0.840103 3.66454 1.3
      vertex -0.363708 3.295 1.3
      vertex -0.694107 3.8405 1.3
    endloop
  endfacet
  facet normal 0 0 1
    outer loop
      vertex -0.840103 3.66454 1.3
      vertex -0.683914 3.09343 1.3
      vertex -0.363708 3.295 1.3
    endloop
  endfacet
  facet normal 0.76959 -0.638538 0
    outer loop
      vertex -0.840103 3.66454 1.3
      vertex -0.694107 3.8405 1.3
      vertex -0.840103 3.66454 1.8
    endloop
  endfacet
  facet normal 0.76959 -0.638538 0
    outer loop
      vertex -0.840103 3.66454 1.8
      vertex -0.694107 3.8405 1.3
      vertex -0.694107 3.8405 1.8
    endloop
  endfacet
  facet normal 0 0 1
    outer loop
      vertex -0.877365 4.94789 1.3
      vertex -0.466934 5.25249 1.3
      vertex -0.744949 5.37228 1.3
    endloop
  endfacet
  facet normal 0 0 1
    outer loop
      vertex -0.877365 4.94789 1.3
      vertex -0.710663 4.78307 1.3
      vertex -0.466934 5.25249 1.3
    endloop
  endfacet
  facet normal 0.703081 0.711109 0
    outer loop
      vertex -0.877365 4.94789 1.3
      vertex -0.877365 4.94789 1.8
      vertex -0.710663 4.78307 1.3
    endloop
  endfacet
  facet normal 0 0 1
    outer loop
      vertex -0.877365 4.94789 1.8
      vertex -0.577301 4.33929 1.8
      vertex -0.610641 4.5802 1.8
    endloop
  endfacet
  facet normal 0 0 1
    outer loop
      vertex -0.877365 4.94789 1.8
      vertex -0.610641 4.5802 1.8
      vertex -0.710663 4.78307 1.8
    endloop
  endfacet
  facet normal 0.703081 0.711109 -0
    outer loop
      vertex -0.877365 4.94789 1.8
      vertex -0.710663 4.78307 1.8
      vertex -0.710663 4.78307 1.3
    endloop
  endfacet
  facet normal 0 0 1
    outer loop
      vertex -0.928253 7.12469 1.3
      vertex -0.473862 7.51459 1.3
      vertex -0.77507 7.70015 1.3
    endloop
  endfacet
  facet normal 0 0 1
    outer loop
      vertex -0.928253 7.12469 1.3
      vertex -0.802979 6.95872 1.3
      vertex -0.473862 7.51459 1.3
    endloop
  endfacet
  facet normal 0.798158 0.602449 0
    outer loop
      vertex -0.928253 7.12469 1.3
      vertex -0.802979 6.95872 1.8
      vertex -0.802979 6.95872 1.3
    endloop
  endfacet
  facet normal 0.798158 0.602449 0
    outer loop
      vertex -0.928253 7.12469 1.3
      vertex -0.928253 7.12469 1.8
      vertex -0.802979 6.95872 1.8
    endloop
  endfacet
  facet normal 0.454049 0.890977 -0
    outer loop
      vertex -0.940456 15.2056 1.8
      vertex -0.494427 14.9783 1.8
      vertex -0.494427 14.9783 3.8147e-07
    endloop
  endfacet
  facet normal 0.454049 0.890977 0
    outer loop
      vertex -0.940456 15.2056 3.8147e-07
      vertex -0.940456 15.2056 1.8
      vertex -0.494427 14.9783 3.8147e-07
    endloop
  endfacet
  facet normal 0 0 1
    outer loop
      vertex -0.940456 17.7944 1.8
      vertex -0.494427 18.0217 1.8
      vertex -0.940456 29.3706 1.8
    endloop
  endfacet
  facet normal 0.454049 -0.890977 0
    outer loop
      vertex -0.940456 17.7944 3.8147e-07
      vertex -0.494427 18.0217 1.8
      vertex -0.940456 17.7944 1.8
    endloop
  endfacet
  facet normal 0.454049 -0.890977 0
    outer loop
      vertex -0.940456 17.7944 3.8147e-07
      vertex -0.494427 18.0217 3.8147e-07
      vertex -0.494427 18.0217 1.8
    endloop
  endfacet
  facet normal 0 0 -1
    outer loop
      vertex -0.940456 17.7944 3.8147e-07
      vertex -0.494427 29.1433 3.8147e-07
      vertex -0.494427 18.0217 3.8147e-07
    endloop
  endfacet
  facet normal 0 0 -1
    outer loop
      vertex -0.940456 17.7944 3.8147e-07
      vertex -0.940456 29.3706 3.8147e-07
      vertex -0.494427 29.1433 3.8147e-07
    endloop
  endfacet
  facet normal 0 0 1
    outer loop
      vertex -0.940456 29.3706 1.8
      vertex -0.494427 18.0217 1.8
      vertex -0.494427 29.1433 1.8
    endloop
  endfacet
  facet normal 0.454049 0.890977 -0
    outer loop
      vertex -0.940456 29.3706 1.8
      vertex -0.494427 29.1433 1.8
      vertex -0.494427 29.1433 3.8147e-07
    endloop
  endfacet
  facet normal 0.454049 0.890977 0
    outer loop
      vertex -0.940456 29.3706 3.8147e-07
      vertex -0.940456 29.3706 1.8
      vertex -0.494427 29.1433 3.8147e-07
    endloop
  endfacet
  facet normal 0.454049 -0.890977 0
    outer loop
      vertex -0.940456 31.9594 3.8147e-07
      vertex -0.494427 32.1867 1.8
      vertex -0.940456 31.9594 1.8
    endloop
  endfacet
  facet normal 0.454049 -0.890977 0
    outer loop
      vertex -0.940456 31.9594 3.8147e-07
      vertex -0.494427 32.1867 3.8147e-07
      vertex -0.494427 32.1867 1.8
    endloop
  endfacet
  facet normal -0 0 1
    outer loop
      vertex -0.979111 5.91425 1.3
      vertex -0.527924 5.66917 1.3
      vertex -0.825577 6.07869 1.3
    endloop
  endfacet
  facet normal 0 0 1
    outer loop
      vertex -0.979111 5.91425 1.3
      vertex -0.776016 5.53975 1.3
      vertex -0.527924 5.66917 1.3
    endloop
  endfacet
  facet normal 0.73093 -0.682453 0
    outer loop
      vertex -0.979111 5.91425 1.3
      vertex -0.825577 6.07869 1.3
      vertex -0.979111 5.91425 1.8
    endloop
  endfacet
  facet normal 0.73093 -0.682453 0
    outer loop
      vertex -0.979111 5.91425 1.8
      vertex -0.825577 6.07869 1.3
      vertex -0.825577 6.07869 1.8
    endloop
  endfacet
  facet normal 0 0 1
    outer loop
      vertex -0.979111 5.91425 1.8
      vertex -0.825577 6.07869 1.8
      vertex -0.733459 6.28043 1.8
    endloop
  endfacet
  facet normal -0 0 1
    outer loop
      vertex -1.03731 3.53835 1.3
      vertex -0.683914 3.09343 1.3
      vertex -0.840103 3.66454 1.3
    endloop
  endfacet
  facet normal 0.538986 -0.842315 0
    outer loop
      vertex -1.03731 3.53835 1.3
      vertex -0.840103 3.66454 1.3
      vertex -0.840103 3.66454 1.8
    endloop
  endfacet
  facet normal 0.538986 -0.842315 0
    outer loop
      vertex -1.03731 3.53835 1.3
      vertex -0.840103 3.66454 1.8
      vertex -1.03731 3.53835 1.8
    endloop
  endfacet
  facet normal 0 0 1
    outer loop
      vertex -1.03731 3.53835 1.8
      vertex -0.694107 3.8405 1.8
      vertex -0.606506 4.06541 1.8
    endloop
  endfacet
  facet normal 0 0 1
    outer loop
      vertex -1.03731 3.53835 1.8
      vertex -0.840103 3.66454 1.8
      vertex -0.694107 3.8405 1.8
    endloop
  endfacet
  facet normal -0.194427 -0.980917 -0
    outer loop
      vertex -1.07571 5.43784 1.3
      vertex -0.744949 5.37228 1.3
      vertex -0.744949 5.37228 1.8
    endloop
  endfacet
  facet normal -0.194427 -0.980917 0
    outer loop
      vertex -1.07571 5.43784 1.3
      vertex -0.744949 5.37228 1.8
      vertex -1.07571 5.43784 1.8
    endloop
  endfacet
  facet normal -1 -0 0
    outer loop
      vertex -1.07571 5.43784 1.3
      vertex -1.07571 5.43784 1.8
      vertex -1.07571 5.45139 1.8
    endloop
  endfacet
  facet normal -1 0 0
    outer loop
      vertex -1.07571 5.43784 1.3
      vertex -1.07571 5.45139 1.8
      vertex -1.07571 5.45139 1.3
    endloop
  endfacet
  facet normal 0 0 1
    outer loop
      vertex -1.07571 5.43784 1.8
      vertex -0.744949 5.37228 1.8
      vertex -0.776016 5.53975 1.8
    endloop
  endfacet
  facet normal 0 0 1
    outer loop
      vertex -1.07571 5.43784 1.8
      vertex -0.776016 5.53975 1.8
      vertex -1.07571 5.45139 1.8
    endloop
  endfacet
  facet normal 0 0 1
    outer loop
      vertex -1.07571 5.45139 1.3
      vertex -0.776016 5.53975 1.3
      vertex -0.979111 5.91425 1.3
    endloop
  endfacet
  facet normal -0.282799 0.959179 0
    outer loop
      vertex -1.07571 5.45139 1.3
      vertex -1.07571 5.45139 1.8
      vertex -0.776016 5.53975 1.3
    endloop
  endfacet
  facet normal -0.282799 0.959179 0
    outer loop
      vertex -1.07571 5.45139 1.8
      vertex -0.776016 5.53975 1.8
      vertex -0.776016 5.53975 1.3
    endloop
  endfacet
  facet normal 0 0 1
    outer loop
      vertex -1.084 2.97252 1.3
      vertex -0.683914 3.09343 1.3
      vertex -1.03731 3.53835 1.3
    endloop
  endfacet
  facet normal -0.289288 0.957242 0
    outer loop
      vertex -1.084 2.97252 1.3
      vertex -1.084 2.97252 1.8
      vertex -0.683914 3.09343 1.3
    endloop
  endfacet
  facet normal -0.289288 0.957242 0
    outer loop
      vertex -1.084 2.97252 1.8
      vertex -0.683914 3.09343 1.8
      vertex -0.683914 3.09343 1.3
    endloop
  endfacet
  facet normal 0 0 1
    outer loop
      vertex -1.084 2.97252 1.8
      vertex 1.50922 3 1.8
      vertex -0.683914 3.09343 1.8
    endloop
  endfacet
  facet normal 0 0 1
    outer loop
      vertex -1.084 2.97252 1.8
      vertex 12 0 1.8
      vertex 1.50922 3 1.8
    endloop
  endfacet
  facet normal 0 0 1
    outer loop
      vertex -1.10286 7.24808 1.3
      vertex -0.928253 7.12469 1.3
      vertex -0.77507 7.70015 1.3
    endloop
  endfacet
  facet normal 0.577114 0.816664 0
    outer loop
      vertex -1.10286 7.24808 1.3
      vertex -1.10286 7.24808 1.8
      vertex -0.928253 7.12469 1.3
    endloop
  endfacet
  facet normal 0 0 1
    outer loop
      vertex -1.10286 7.24808 1.8
      vertex -0.802979 6.95872 1.8
      vertex -0.928253 7.12469 1.8
    endloop
  endfacet
  facet normal 0.577114 0.816664 -0
    outer loop
      vertex -1.10286 7.24808 1.8
      vertex -0.928253 7.12469 1.8
      vertex -0.928253 7.12469 1.3
    endloop
  endfacet
  facet normal 0 0 1
    outer loop
      vertex -1.10696 5.0694 1.3
      vertex -0.744949 5.37228 1.3
      vertex -1.07571 5.43784 1.3
    endloop
  endfacet
  facet normal 0 0 1
    outer loop
      vertex -1.10696 5.0694 1.3
      vertex -0.877365 4.94789 1.3
      vertex -0.744949 5.37228 1.3
    endloop
  endfacet
  facet normal 0.467767 0.883852 0
    outer loop
      vertex -1.10696 5.0694 1.3
      vertex -1.10696 5.0694 1.8
      vertex -0.877365 4.94789 1.3
    endloop
  endfacet
  facet normal 0 0 1
    outer loop
      vertex -1.10696 5.0694 1.8
      vertex -0.577301 4.33929 1.8
      vertex -0.877365 4.94789 1.8
    endloop
  endfacet
  facet normal 0 0 1
    outer loop
      vertex -1.10696 5.0694 1.8
      vertex -0.606506 4.06541 1.8
      vertex -0.577301 4.33929 1.8
    endloop
  endfacet
  facet normal 0.467767 0.883852 -0
    outer loop
      vertex -1.10696 5.0694 1.8
      vertex -0.877365 4.94789 1.8
      vertex -0.877365 4.94789 1.3
    endloop
  endfacet
  facet normal -0.28642 -0.958104 -0
    outer loop
      vertex -1.14748 7.81148 1.3
      vertex -0.77507 7.70015 1.3
      vertex -0.77507 7.70015 1.8
    endloop
  endfacet
  facet normal -0.28642 -0.958104 0
    outer loop
      vertex -1.14748 7.81148 1.3
      vertex -0.77507 7.70015 1.8
      vertex -1.14748 7.81148 1.8
    endloop
  endfacet
  facet normal 0 0 1
    outer loop
      vertex -1.14748 7.81148 1.3
      vertex -1.10286 7.24808 1.3
      vertex -0.77507 7.70015 1.3
    endloop
  endfacet
  facet normal 0 0 1
    outer loop
      vertex -1.14748 7.81148 1.8
      vertex -0.77507 7.70015 1.8
      vertex 0.627625 7.77739 1.8
    endloop
  endfacet
  facet normal 0 0 1
    outer loop
      vertex -1.14748 7.81148 1.8
      vertex 0 14.9 1.8
      vertex -0.494427 14.9783 1.8
    endloop
  endfacet
  facet normal -0 0 1
    outer loop
      vertex -1.14748 7.81148 1.8
      vertex 0.627625 7.77739 1.8
      vertex 0 14.9 1.8
    endloop
  endfacet
  facet normal 0.50215 -0.86478 0
    outer loop
      vertex -1.18837 5.79274 1.3
      vertex -0.979111 5.91425 1.3
      vertex -0.979111 5.91425 1.8
    endloop
  endfacet
  facet normal 0.50215 -0.86478 0
    outer loop
      vertex -1.18837 5.79274 1.3
      vertex -0.979111 5.91425 1.8
      vertex -1.18837 5.79274 1.8
    endloop
  endfacet
  facet normal -0 0 1
    outer loop
      vertex -1.18837 5.79274 1.3
      vertex -1.07571 5.45139 1.3
      vertex -0.979111 5.91425 1.3
    endloop
  endfacet
  facet normal 0 0 1
    outer loop
      vertex -1.18837 5.79274 1.8
      vertex -0.733459 6.28043 1.8
      vertex -0.702759 6.51944 1.8
    endloop
  endfacet
  facet normal 0 0 1
    outer loop
      vertex -1.18837 5.79274 1.8
      vertex -0.979111 5.91425 1.8
      vertex -0.733459 6.28043 1.8
    endloop
  endfacet
  facet normal 0.299428 -0.954119 0
    outer loop
      vertex -1.27859 3.46263 1.3
      vertex -1.03731 3.53835 1.3
      vertex -1.03731 3.53835 1.8
    endloop
  endfacet
  facet normal 0.299428 -0.954119 0
    outer loop
      vertex -1.27859 3.46263 1.3
      vertex -1.03731 3.53835 1.8
      vertex -1.27859 3.46263 1.8
    endloop
  endfacet
  facet normal -0 0 1
    outer loop
      vertex -1.27859 3.46263 1.3
      vertex -1.084 2.97252 1.3
      vertex -1.03731 3.53835 1.3
    endloop
  endfacet
  facet normal 0 0 1
    outer loop
      vertex -1.27859 3.46263 1.8
      vertex -0.606506 4.06541 1.8
      vertex -1.10696 5.0694 1.8
    endloop
  endfacet
  facet normal 0 0 1
    outer loop
      vertex -1.27859 3.46263 1.8
      vertex -1.03731 3.53835 1.8
      vertex -0.606506 4.06541 1.8
    endloop
  endfacet
  facet normal 0.707033 0.707181 0
    outer loop
      vertex -1.29443 15.5595 3.8147e-07
      vertex -0.940456 15.2056 1.8
      vertex -0.940456 15.2056 3.8147e-07
    endloop
  endfacet
  facet normal 0.707033 0.707181 0
    outer loop
      vertex -1.29443 15.5595 3.8147e-07
      vertex -1.29443 15.5595 1.8
      vertex -0.940456 15.2056 1.8
    endloop
  endfacet
  facet normal 0.707033 -0.707181 0
    outer loop
      vertex -1.29443 17.4405 1.8
      vertex -0.940456 17.7944 3.8147e-07
      vertex -0.940456 17.7944 1.8
    endloop
  endfacet
  facet normal 0.707033 -0.707181 0
    outer loop
      vertex -1.29443 17.4405 3.8147e-07
      vertex -0.940456 17.7944 3.8147e-07
      vertex -1.29443 17.4405 1.8
    endloop
  endfacet
  facet normal 0.707033 0.707181 -0
    outer loop
      vertex -1.29443 29.7245 1.8
      vertex -0.940456 29.3706 1.8
      vertex -0.940456 29.3706 3.8147e-07
    endloop
  endfacet
  facet normal 0.707033 0.707181 0
    outer loop
      vertex -1.29443 29.7245 3.8147e-07
      vertex -1.29443 29.7245 1.8
      vertex -0.940456 29.3706 3.8147e-07
    endloop
  endfacet
  facet normal 0.707033 -0.707181 0
    outer loop
      vertex -1.29443 31.6055 1.8
      vertex -0.940456 31.9594 3.8147e-07
      vertex -0.940456 31.9594 1.8
    endloop
  endfacet
  facet normal 0.707033 -0.707181 0
    outer loop
      vertex -1.29443 31.6055 3.8147e-07
      vertex -0.940456 31.9594 3.8147e-07
      vertex -1.29443 31.6055 1.8
    endloop
  endfacet
  facet normal 0 0 1
    outer loop
      vertex -1.32607 7.32211 1.3
      vertex -1.10286 7.24808 1.3
      vertex -1.14748 7.81148 1.3
    endloop
  endfacet
  facet normal 0.314799 0.949158 0
    outer loop
      vertex -1.32607 7.32211 1.3
      vertex -1.32607 7.32211 1.8
      vertex -1.10286 7.24808 1.3
    endloop
  endfacet
  facet normal 0 0 1
    outer loop
      vertex -1.32607 7.32211 1.8
      vertex -0.702759 6.51944 1.8
      vertex -0.727814 6.75699 1.8
    endloop
  endfacet
  facet normal 0 0 1
    outer loop
      vertex -1.32607 7.32211 1.8
      vertex -0.727814 6.75699 1.8
      vertex -0.802979 6.95872 1.8
    endloop
  endfacet
  facet normal 0 0 1
    outer loop
      vertex -1.32607 7.32211 1.8
      vertex -0.802979 6.95872 1.8
      vertex -1.10286 7.24808 1.8
    endloop
  endfacet
  facet normal 0.314799 0.949158 -0
    outer loop
      vertex -1.32607 7.32211 1.8
      vertex -1.10286 7.24808 1.8
      vertex -1.10286 7.24808 1.3
    endloop
  endfacet
  facet normal 0 0 1
    outer loop
      vertex -1.32607 7.32211 1.8
      vertex -1.18837 5.79274 1.8
      vertex -0.702759 6.51944 1.8
    endloop
  endfacet
  facet normal 0 0 1
    outer loop
      vertex -1.39574 5.14229 1.3
      vertex -1.10696 5.0694 1.3
      vertex -1.07571 5.43784 1.3
    endloop
  endfacet
  facet normal 0.244731 0.969591 0
    outer loop
      vertex -1.39574 5.14229 1.3
      vertex -1.39574 5.14229 1.8
      vertex -1.10696 5.0694 1.3
    endloop
  endfacet
  facet normal 0.244731 0.969591 -0
    outer loop
      vertex -1.39574 5.14229 1.8
      vertex -1.10696 5.0694 1.8
      vertex -1.10696 5.0694 1.3
    endloop
  endfacet
  facet normal 0 0 1
    outer loop
      vertex -1.39574 5.14229 1.8
      vertex -1.27859 3.46263 1.8
      vertex -1.10696 5.0694 1.8
    endloop
  endfacet
  facet normal 0 0 1
    outer loop
      vertex -1.44772 5.71985 1.3
      vertex -1.07571 5.43784 1.3
      vertex -1.07571 5.45139 1.3
    endloop
  endfacet
  facet normal -0 0 1
    outer loop
      vertex -1.44772 5.71985 1.3
      vertex -1.07571 5.45139 1.3
      vertex -1.18837 5.79274 1.3
    endloop
  endfacet
  facet normal 0.270566 -0.962701 0
    outer loop
      vertex -1.44772 5.71985 1.3
      vertex -1.18837 5.79274 1.3
      vertex -1.18837 5.79274 1.8
    endloop
  endfacet
  facet normal 0.270566 -0.962701 0
    outer loop
      vertex -1.44772 5.71985 1.3
      vertex -1.18837 5.79274 1.8
      vertex -1.44772 5.71985 1.8
    endloop
  endfacet
  facet normal 0 0 1
    outer loop
      vertex -1.44772 5.71985 1.3
      vertex -1.39574 5.14229 1.3
      vertex -1.07571 5.43784 1.3
    endloop
  endfacet
  facet normal 0 0 1
    outer loop
      vertex -1.44772 5.71985 1.8
      vertex -1.18837 5.79274 1.8
      vertex -1.32607 7.32211 1.8
    endloop
  endfacet
  facet normal 0.891038 0.453928 0
    outer loop
      vertex -1.52169 16.0056 3.8147e-07
      vertex -1.29443 15.5595 1.8
      vertex -1.29443 15.5595 3.8147e-07
    endloop
  endfacet
  facet normal 0.891038 0.453928 0
    outer loop
      vertex -1.52169 16.0056 3.8147e-07
      vertex -1.52169 16.0056 1.8
      vertex -1.29443 15.5595 1.8
    endloop
  endfacet
  facet normal 0.891038 -0.453928 0
    outer loop
      vertex -1.52169 16.9944 1.8
      vertex -1.29443 17.4405 3.8147e-07
      vertex -1.29443 17.4405 1.8
    endloop
  endfacet
  facet normal 0.891038 -0.453928 0
    outer loop
      vertex -1.52169 16.9944 3.8147e-07
      vertex -1.29443 17.4405 3.8147e-07
      vertex -1.52169 16.9944 1.8
    endloop
  endfacet
  facet normal 0.891038 0.453928 0
    outer loop
      vertex -1.52169 30.1706 3.8147e-07
      vertex -1.29443 29.7245 1.8
      vertex -1.29443 29.7245 3.8147e-07
    endloop
  endfacet
  facet normal 0.891038 0.453928 0
    outer loop
      vertex -1.52169 30.1706 3.8147e-07
      vertex -1.52169 30.1706 1.8
      vertex -1.29443 29.7245 1.8
    endloop
  endfacet
  facet normal 0.891038 -0.453928 0
    outer loop
      vertex -1.52169 31.1594 1.8
      vertex -1.29443 31.6055 3.8147e-07
      vertex -1.29443 31.6055 1.8
    endloop
  endfacet
  facet normal 0.891038 -0.453928 0
    outer loop
      vertex -1.52169 31.1594 3.8147e-07
      vertex -1.29443 31.6055 3.8147e-07
      vertex -1.52169 31.1594 1.8
    endloop
  endfacet
  facet normal 0 0 1
    outer loop
      vertex -1.56396 2.93221 1.3
      vertex -1.084 2.97252 1.3
      vertex -1.27859 3.46263 1.3
    endloop
  endfacet
  facet normal 0 0 1
    outer loop
      vertex -1.56396 2.93221 1.3
      vertex -1.27859 3.46263 1.3
      vertex -1.56396 3.43739 1.3
    endloop
  endfacet
  facet normal -0.0836915 0.996492 0
    outer loop
      vertex -1.56396 2.93221 1.3
      vertex -1.56396 2.93221 1.8
      vertex -1.084 2.97252 1.3
    endloop
  endfacet
  facet normal -0.0836915 0.996492 0
    outer loop
      vertex -1.56396 2.93221 1.8
      vertex -1.084 2.97252 1.8
      vertex -1.084 2.97252 1.3
    endloop
  endfacet
  facet normal -0 0 1
    outer loop
      vertex -1.56396 2.93221 1.8
      vertex 12 0 1.8
      vertex -1.084 2.97252 1.8
    endloop
  endfacet
  facet normal 0.0881026 -0.996111 0
    outer loop
      vertex -1.56396 3.43739 1.3
      vertex -1.27859 3.46263 1.3
      vertex -1.27859 3.46263 1.8
    endloop
  endfacet
  facet normal 0.0881026 -0.996111 0
    outer loop
      vertex -1.56396 3.43739 1.3
      vertex -1.27859 3.46263 1.8
      vertex -1.56396 3.43739 1.8
    endloop
  endfacet
  facet normal 0 0 1
    outer loop
      vertex -1.56396 3.43739 1.8
      vertex -1.27859 3.46263 1.8
      vertex -1.39574 5.14229 1.8
    endloop
  endfacet
  facet normal -0.0833596 -0.99652 -0
    outer loop
      vertex -1.59111 7.84859 1.3
      vertex -1.14748 7.81148 1.3
      vertex -1.14748 7.81148 1.8
    endloop
  endfacet
  facet normal -0.0833596 -0.99652 0
    outer loop
      vertex -1.59111 7.84859 1.3
      vertex -1.14748 7.81148 1.8
      vertex -1.59111 7.84859 1.8
    endloop
  endfacet
  facet normal 0 0 1
    outer loop
      vertex -1.59111 7.84859 1.3
      vertex -1.32607 7.32211 1.3
      vertex -1.14748 7.81148 1.3
    endloop
  endfacet
  facet normal 0 0 1
    outer loop
      vertex -1.59111 7.84859 1.8
      vertex -1.14748 7.81148 1.8
      vertex -0.494427 14.9783 1.8
    endloop
  endfacet
  facet normal 0 0 1
    outer loop
      vertex -1.59785 7.34679 1.3
      vertex -1.32607 7.32211 1.3
      vertex -1.59111 7.84859 1.3
    endloop
  endfacet
  facet normal 0.0904366 0.995902 0
    outer loop
      vertex -1.59785 7.34679 1.3
      vertex -1.59785 7.34679 1.8
      vertex -1.32607 7.32211 1.3
    endloop
  endfacet
  facet normal 0.0904366 0.995902 -0
    outer loop
      vertex -1.59785 7.34679 1.8
      vertex -1.32607 7.32211 1.8
      vertex -1.32607 7.32211 1.3
    endloop
  endfacet
  facet normal 0 0 1
    outer loop
      vertex -1.59785 7.34679 1.8
      vertex -1.44772 5.71985 1.8
      vertex -1.32607 7.32211 1.8
    endloop
  endfacet
  facet normal 0.987687 -0.156444 0
    outer loop
      vertex -1.6 16.5 1.8
      vertex -1.52169 16.9944 3.8147e-07
      vertex -1.52169 16.9944 1.8
    endloop
  endfacet
  facet normal 0.987687 0.156444 0
    outer loop
      vertex -1.6 16.5 3.8147e-07
      vertex -1.52169 16.0056 1.8
      vertex -1.52169 16.0056 3.8147e-07
    endloop
  endfacet
  facet normal 0.987687 -0.156444 0
    outer loop
      vertex -1.6 16.5 3.8147e-07
      vertex -1.52169 16.9944 3.8147e-07
      vertex -1.6 16.5 1.8
    endloop
  endfacet
  facet normal 0.987687 0.156444 0
    outer loop
      vertex -1.6 16.5 3.8147e-07
      vertex -1.6 16.5 1.8
      vertex -1.52169 16.0056 1.8
    endloop
  endfacet
  facet normal 0.987687 -0.156444 0
    outer loop
      vertex -1.6 30.665 1.8
      vertex -1.52169 31.1594 3.8147e-07
      vertex -1.52169 31.1594 1.8
    endloop
  endfacet
  facet normal 0.987687 0.156444 0
    outer loop
      vertex -1.6 30.665 3.8147e-07
      vertex -1.52169 30.1706 1.8
      vertex -1.52169 30.1706 3.8147e-07
    endloop
  endfacet
  facet normal 0.987687 -0.156444 0
    outer loop
      vertex -1.6 30.665 3.8147e-07
      vertex -1.52169 31.1594 3.8147e-07
      vertex -1.6 30.665 1.8
    endloop
  endfacet
  facet normal 0.987687 0.156444 0
    outer loop
      vertex -1.6 30.665 3.8147e-07
      vertex -1.6 30.665 1.8
      vertex -1.52169 30.1706 1.8
    endloop
  endfacet
  facet normal 0 0 1
    outer loop
      vertex -1.74365 5.1666 1.3
      vertex -1.39574 5.14229 1.3
      vertex -1.44772 5.71985 1.3
    endloop
  endfacet
  facet normal 0.0697044 0.997568 0
    outer loop
      vertex -1.74365 5.1666 1.3
      vertex -1.74365 5.1666 1.8
      vertex -1.39574 5.14229 1.3
    endloop
  endfacet
  facet normal 0.0697044 0.997568 -0
    outer loop
      vertex -1.74365 5.1666 1.8
      vertex -1.39574 5.14229 1.8
      vertex -1.39574 5.14229 1.3
    endloop
  endfacet
  facet normal 0 0 1
    outer loop
      vertex -1.74365 5.1666 1.8
      vertex -1.56396 3.43739 1.8
      vertex -1.39574 5.14229 1.8
    endloop
  endfacet
  facet normal 0.0783099 -0.996929 0
    outer loop
      vertex -1.7572 5.69554 1.3
      vertex -1.44772 5.71985 1.3
      vertex -1.44772 5.71985 1.8
    endloop
  endfacet
  facet normal 0.0783099 -0.996929 0
    outer loop
      vertex -1.7572 5.69554 1.3
      vertex -1.44772 5.71985 1.8
      vertex -1.7572 5.69554 1.8
    endloop
  endfacet
  facet normal -0 0 1
    outer loop
      vertex -1.7572 5.69554 1.3
      vertex -1.74365 5.1666 1.3
      vertex -1.44772 5.71985 1.3
    endloop
  endfacet
  facet normal 0 0 1
    outer loop
      vertex -1.84972 7.32381 1.3
      vertex -1.59785 7.34679 1.3
      vertex -1.59111 7.84859 1.3
    endloop
  endfacet
  facet normal -0.0908602 0.995864 0
    outer loop
      vertex -1.84972 7.32381 1.3
      vertex -1.84972 7.32381 1.8
      vertex -1.59785 7.34679 1.3
    endloop
  endfacet
  facet normal -0 0 1
    outer loop
      vertex -1.84972 7.32381 1.8
      vertex -1.44772 5.71985 1.8
      vertex -1.59785 7.34679 1.8
    endloop
  endfacet
  facet normal -0.0908602 0.995864 0
    outer loop
      vertex -1.84972 7.32381 1.8
      vertex -1.59785 7.34679 1.8
      vertex -1.59785 7.34679 1.3
    endloop
  endfacet
  facet normal 0 0 1
    outer loop
      vertex -1.84972 7.32381 1.8
      vertex -1.7572 5.69554 1.8
      vertex -1.44772 5.71985 1.8
    endloop
  endfacet
  facet normal 0 0 1
    outer loop
      vertex -11.7874 2.24858 1.8
      vertex -2.97107 3.51237 1.8
      vertex -3.1423 3.83504 1.8
    endloop
  endfacet
  facet normal 0 0 1
    outer loop
      vertex -11.7874 2.24858 1.8
      vertex -3.06996 6.96664 1.8
      vertex -8.5 17.7062 1.8
    endloop
  endfacet
  facet normal 0 0 1
    outer loop
      vertex -11.7874 2.24858 1.8
      vertex -3.1423 3.83504 1.8
      vertex -3.23557 4.22739 1.8
    endloop
  endfacet
  facet normal 0 0 1
    outer loop
      vertex -11.7874 2.24858 1.8
      vertex -3.15416 6.60425 1.8
      vertex -3.06996 6.96664 1.8
    endloop
  endfacet
  facet normal 0 0 1
    outer loop
      vertex -11.7874 2.24858 1.8
      vertex -3.23557 4.22739 1.8
      vertex -3.15416 6.60425 1.8
    endloop
  endfacet
  facet normal -0 0 -1
    outer loop
      vertex -11.7874 2.24858 3.8147e-07
      vertex -0.494427 14.9783 3.8147e-07
      vertex 0 14.9 3.8147e-07
    endloop
  endfacet
  facet normal -0 0 -1
    outer loop
      vertex -11.7874 2.24858 3.8147e-07
      vertex -0.940456 15.2056 3.8147e-07
      vertex -0.494427 14.9783 3.8147e-07
    endloop
  endfacet
  facet normal -0 0 -1
    outer loop
      vertex -11.7874 2.24858 3.8147e-07
      vertex -1.29443 15.5595 3.8147e-07
      vertex -0.940456 15.2056 3.8147e-07
    endloop
  endfacet
  facet normal -0.978125 0.20802 0
    outer loop
      vertex -11.7874 2.24858 3.8147e-07
      vertex -11.7874 2.24858 1.8
      vertex -8.5 17.7062 1.8
    endloop
  endfacet
  facet normal -0.978125 0.20802 0
    outer loop
      vertex -11.7874 2.24858 3.8147e-07
      vertex -8.5 17.7062 1.8
      vertex -8.5 17.7062 3.8147e-07
    endloop
  endfacet
  facet normal -0 0 -1
    outer loop
      vertex -11.7874 2.24858 3.8147e-07
      vertex -8.5 17.7062 3.8147e-07
      vertex -1.29443 15.5595 3.8147e-07
    endloop
  endfacet
  facet normal 0 0 -1
    outer loop
      vertex -11.7874 2.24858 3.8147e-07
      vertex 0 14.9 3.8147e-07
      vertex 11.7874 2.24858 3.8147e-07
    endloop
  endfacet
  facet normal 0 0 -1
    outer loop
      vertex -11.7874 2.24858 3.8147e-07
      vertex 11.7874 2.24858 3.8147e-07
      vertex 12 0 3.8147e-07
    endloop
  endfacet
  facet normal 0 0 1
    outer loop
      vertex -11.9054 1.504 1.8
      vertex -2.97107 3.51237 1.8
      vertex -11.7874 2.24858 1.8
    endloop
  endfacet
  facet normal -0.987674 0.156525 0
    outer loop
      vertex -11.9054 1.504 3.8147e-07
      vertex -11.7874 2.24858 1.8
      vertex -11.7874 2.24858 3.8147e-07
    endloop
  endfacet
  facet normal 0 0 -1
    outer loop
      vertex -11.9054 1.504 3.8147e-07
      vertex -11.7874 2.24858 3.8147e-07
      vertex 12 0 3.8147e-07
    endloop
  endfacet
  facet normal -0.987674 0.156525 0
    outer loop
      vertex -11.9054 1.504 3.8147e-07
      vertex -11.9054 1.504 1.8
      vertex -11.7874 2.24858 1.8
    endloop
  endfacet
  facet normal 0 0 1
    outer loop
      vertex -11.9763 0.753486 1.8
      vertex -2.97107 3.51237 1.8
      vertex -11.9054 1.504 1.8
    endloop
  endfacet
  facet normal -0.995567 0.0940499 0
    outer loop
      vertex -11.9763 0.753486 3.8147e-07
      vertex -11.9054 1.504 1.8
      vertex -11.9054 1.504 3.8147e-07
    endloop
  endfacet
  facet normal 0 0 -1
    outer loop
      vertex -11.9763 0.753486 3.8147e-07
      vertex -11.9054 1.504 3.8147e-07
      vertex 12 0 3.8147e-07
    endloop
  endfacet
  facet normal -0.995567 0.0940499 0
    outer loop
      vertex -11.9763 0.753486 3.8147e-07
      vertex -11.9763 0.753486 1.8
      vertex -11.9054 1.504 1.8
    endloop
  endfacet
  facet normal 0 0 1
    outer loop
      vertex -12 0 1.8
      vertex -1.56396 2.93221 1.8
      vertex -2.01511 2.96857 1.8
    endloop
  endfacet
  facet normal 0 0 1
    outer loop
      vertex -12 0 1.8
      vertex -2.01511 2.96857 1.8
      vertex -2.40106 3.07762 1.8
    endloop
  endfacet
  facet normal 0 0 1
    outer loop
      vertex -12 0 1.8
      vertex -2.40106 3.07762 1.8
      vertex -2.72186 3.2594 1.8
    endloop
  endfacet
  facet normal 0 0 1
    outer loop
      vertex -12 0 1.8
      vertex -2.72186 3.2594 1.8
      vertex -2.97107 3.51237 1.8
    endloop
  endfacet
  facet normal 0 0 1
    outer loop
      vertex -12 0 1.8
      vertex -2.97107 3.51237 1.8
      vertex -11.9763 0.753486 1.8
    endloop
  endfacet
  facet normal 0 0 1
    outer loop
      vertex -12 0 1.8
      vertex 12 0 1.8
      vertex -1.56396 2.93221 1.8
    endloop
  endfacet
  facet normal -0.999506 0.0314383 0
    outer loop
      vertex -12 0 3.8147e-07
      vertex -11.9763 0.753486 1.8
      vertex -11.9763 0.753486 3.8147e-07
    endloop
  endfacet
  facet normal 0 -0 -1
    outer loop
      vertex -12 0 3.8147e-07
      vertex -11.9763 0.753486 3.8147e-07
      vertex 12 0 3.8147e-07
    endloop
  endfacet
  facet normal -0.999506 0.0314383 0
    outer loop
      vertex -12 0 3.8147e-07
      vertex -12 0 1.8
      vertex -11.9763 0.753486 1.8
    endloop
  endfacet
  facet normal 0 -1 0
    outer loop
      vertex -12 0 3.8147e-07
      vertex 12 0 1.8
      vertex -12 0 1.8
    endloop
  endfacet
  facet normal 0 -1 -0
    outer loop
      vertex -12 0 3.8147e-07
      vertex 12 0 3.8147e-07
      vertex 12 0 1.8
    endloop
  endfacet
  facet normal 0.0883793 -0.996087 0
    outer loop
      vertex -2.00305 7.81204 1.3
      vertex -1.59111 7.84859 1.3
      vertex -1.59111 7.84859 1.8
    endloop
  endfacet
  facet normal 0.0883793 -0.996087 0
    outer loop
      vertex -2.00305 7.81204 1.3
      vertex -1.59111 7.84859 1.8
      vertex -2.00305 7.81204 1.8
    endloop
  endfacet
  facet normal -0 0 1
    outer loop
      vertex -2.00305 7.81204 1.3
      vertex -1.84972 7.32381 1.3
      vertex -1.59111 7.84859 1.3
    endloop
  endfacet
  facet normal 0 0 1
    outer loop
      vertex -2.00305 7.81204 1.8
      vertex -0.494427 14.9783 1.8
      vertex -0.940456 15.2056 1.8
    endloop
  endfacet
  facet normal 0 0 1
    outer loop
      vertex -2.00305 7.81204 1.8
      vertex -1.59111 7.84859 1.8
      vertex -0.494427 14.9783 1.8
    endloop
  endfacet
  facet normal 0 0 1
    outer loop
      vertex -2.01511 2.96857 1.3
      vertex -1.56396 2.93221 1.3
      vertex -1.56396 3.43739 1.3
    endloop
  endfacet
  facet normal 0.0803336 0.996768 0
    outer loop
      vertex -2.01511 2.96857 1.3
      vertex -2.01511 2.96857 1.8
      vertex -1.56396 2.93221 1.3
    endloop
  endfacet
  facet normal 0.0803336 0.996768 -0
    outer loop
      vertex -2.01511 2.96857 1.8
      vertex -1.56396 2.93221 1.8
      vertex -1.56396 2.93221 1.3
    endloop
  endfacet
  facet normal 0 0 1
    outer loop
      vertex -2.06728 7.25485 1.3
      vertex -1.84972 7.32381 1.3
      vertex -2.00305 7.81204 1.3
    endloop
  endfacet
  facet normal -0.302155 0.953259 0
    outer loop
      vertex -2.06728 7.25485 1.3
      vertex -2.06728 7.25485 1.8
      vertex -1.84972 7.32381 1.3
    endloop
  endfacet
  facet normal -0 0 1
    outer loop
      vertex -2.06728 7.25485 1.8
      vertex -1.7572 5.69554 1.8
      vertex -1.84972 7.32381 1.8
    endloop
  endfacet
  facet normal -0.302155 0.953259 0
    outer loop
      vertex -2.06728 7.25485 1.8
      vertex -1.84972 7.32381 1.8
      vertex -1.84972 7.32381 1.3
    endloop
  endfacet
  facet normal -0.176885 -0.984231 -0
    outer loop
      vertex -2.088 3.53157 1.3
      vertex -1.56396 3.43739 1.3
      vertex -1.56396 3.43739 1.8
    endloop
  endfacet
  facet normal -0.176885 -0.984231 0
    outer loop
      vertex -2.088 3.53157 1.3
      vertex -1.56396 3.43739 1.8
      vertex -2.088 3.53157 1.8
    endloop
  endfacet
  facet normal 0 0 1
    outer loop
      vertex -2.088 3.53157 1.3
      vertex -2.01511 2.96857 1.3
      vertex -1.56396 3.43739 1.3
    endloop
  endfacet
  facet normal 0 0 1
    outer loop
      vertex -2.088 3.53157 1.8
      vertex -1.56396 3.43739 1.8
      vertex -1.74365 5.1666 1.8
    endloop
  endfacet
  facet normal 0 0 1
    outer loop
      vertex -2.08951 5.1666 1.3
      vertex -1.74365 5.1666 1.3
      vertex -1.7572 5.69554 1.3
    endloop
  endfacet
  facet normal 0 0 1
    outer loop
      vertex -2.08951 5.1666 1.3
      vertex -1.7572 5.69554 1.3
      vertex -2.08951 5.69554 1.3
    endloop
  endfacet
  facet normal 0 1 0
    outer loop
      vertex -2.08951 5.1666 1.3
      vertex -2.08951 5.1666 1.8
      vertex -1.74365 5.1666 1.3
    endloop
  endfacet
  facet normal 1 0 0
    outer loop
      vertex -2.08951 5.1666 1.3
      vertex -2.08951 5.69554 1.3
      vertex -2.08951 5.1666 1.8
    endloop
  endfacet
  facet normal 0 1 -0
    outer loop
      vertex -2.08951 5.1666 1.8
      vertex -1.74365 5.1666 1.8
      vertex -1.74365 5.1666 1.3
    endloop
  endfacet
  facet normal 1 -0 0
    outer loop
      vertex -2.08951 5.1666 1.8
      vertex -2.08951 5.69554 1.3
      vertex -2.08951 5.69554 1.8
    endloop
  endfacet
  facet normal 0 -1 -0
    outer loop
      vertex -2.08951 5.69554 1.3
      vertex -1.7572 5.69554 1.3
      vertex -1.7572 5.69554 1.8
    endloop
  endfacet
  facet normal 0 -1 0
    outer loop
      vertex -2.08951 5.69554 1.3
      vertex -1.7572 5.69554 1.8
      vertex -2.08951 5.69554 1.8
    endloop
  endfacet
  facet normal -0.531195 0.84725 0
    outer loop
      vertex -2.25056 7.13994 1.3
      vertex -2.25056 7.13994 1.8
      vertex -2.06728 7.25485 1.3
    endloop
  endfacet
  facet normal -0.531195 0.84725 0
    outer loop
      vertex -2.25056 7.13994 1.8
      vertex -2.06728 7.25485 1.8
      vertex -2.06728 7.25485 1.3
    endloop
  endfacet
  facet normal 0.292181 -0.956363 0
    outer loop
      vertex -2.36189 7.70241 1.3
      vertex -2.00305 7.81204 1.3
      vertex -2.00305 7.81204 1.8
    endloop
  endfacet
  facet normal 0.292181 -0.956363 0
    outer loop
      vertex -2.36189 7.70241 1.3
      vertex -2.00305 7.81204 1.8
      vertex -2.36189 7.70241 1.8
    endloop
  endfacet
  facet normal -0 0 1
    outer loop
      vertex -2.36189 7.70241 1.3
      vertex -2.06728 7.25485 1.3
      vertex -2.00305 7.81204 1.3
    endloop
  endfacet
  facet normal 0 0 1
    outer loop
      vertex -2.36189 7.70241 1.3
      vertex -2.25056 7.13994 1.3
      vertex -2.06728 7.25485 1.3
    endloop
  endfacet
  facet normal 0 0 1
    outer loop
      vertex -2.36189 7.70241 1.8
      vertex -0.940456 15.2056 1.8
      vertex -1.29443 15.5595 1.8
    endloop
  endfacet
  facet normal 0 0 1
    outer loop
      vertex -2.36189 7.70241 1.8
      vertex -2.00305 7.81204 1.8
      vertex -0.940456 15.2056 1.8
    endloop
  endfacet
  facet normal -0.738774 0.673953 0
    outer loop
      vertex -2.39352 6.98323 1.3
      vertex -2.25056 7.13994 1.8
      vertex -2.25056 7.13994 1.3
    endloop
  endfacet
  facet normal -0.738774 0.673953 0
    outer loop
      vertex -2.39352 6.98323 1.3
      vertex -2.39352 6.98323 1.8
      vertex -2.25056 7.13994 1.8
    endloop
  endfacet
  facet normal 0 0 1
    outer loop
      vertex -2.40106 3.07762 1.3
      vertex -2.01511 2.96857 1.3
      vertex -2.088 3.53157 1.3
    endloop
  endfacet
  facet normal 0.271904 0.962324 0
    outer loop
      vertex -2.40106 3.07762 1.3
      vertex -2.40106 3.07762 1.8
      vertex -2.01511 2.96857 1.3
    endloop
  endfacet
  facet normal 0.271904 0.962324 -0
    outer loop
      vertex -2.40106 3.07762 1.8
      vertex -2.01511 2.96857 1.8
      vertex -2.01511 2.96857 1.3
    endloop
  endfacet
  facet normal -0.631485 -0.775388 -0
    outer loop
      vertex -2.43495 3.81413 1.3
      vertex -2.088 3.53157 1.3
      vertex -2.088 3.53157 1.8
    endloop
  endfacet
  facet normal -0.631485 -0.775388 0
    outer loop
      vertex -2.43495 3.81413 1.3
      vertex -2.088 3.53157 1.8
      vertex -2.43495 3.81413 1.8
    endloop
  endfacet
  facet normal 0 0 1
    outer loop
      vertex -2.43495 3.81413 1.8
      vertex -2.088 3.53157 1.8
      vertex -1.74365 5.1666 1.8
    endloop
  endfacet
  facet normal -0.895457 0.445149 0
    outer loop
      vertex -2.49016 6.78883 1.3
      vertex -2.39352 6.98323 1.8
      vertex -2.39352 6.98323 1.3
    endloop
  endfacet
  facet normal -0.895457 0.445149 0
    outer loop
      vertex -2.49016 6.78883 1.3
      vertex -2.49016 6.78883 1.8
      vertex -2.39352 6.98323 1.8
    endloop
  endfacet
  facet normal 0 0 1
    outer loop
      vertex -2.49016 6.78883 1.8
      vertex -2.25056 7.13994 1.8
      vertex -2.39352 6.98323 1.8
    endloop
  endfacet
  facet normal -0.977318 0.211777 0
    outer loop
      vertex -2.54045 6.55675 1.3
      vertex -2.49016 6.78883 1.8
      vertex -2.49016 6.78883 1.3
    endloop
  endfacet
  facet normal -0.977318 0.211777 0
    outer loop
      vertex -2.54045 6.55675 1.3
      vertex -2.54045 6.55675 1.8
      vertex -2.49016 6.78883 1.8
    endloop
  endfacet
  facet normal -0 0 1
    outer loop
      vertex -2.54045 6.55675 1.8
      vertex -1.7572 5.69554 1.8
      vertex -2.06728 7.25485 1.8
    endloop
  endfacet
  facet normal 0 0 1
    outer loop
      vertex -2.54045 6.55675 1.8
      vertex -2.06728 7.25485 1.8
      vertex -2.25056 7.13994 1.8
    endloop
  endfacet
  facet normal 0 0 1
    outer loop
      vertex -2.54045 6.55675 1.8
      vertex -2.08951 5.69554 1.8
      vertex -1.7572 5.69554 1.8
    endloop
  endfacet
  facet normal 0 0 1
    outer loop
      vertex -2.54045 6.55675 1.8
      vertex -2.25056 7.13994 1.8
      vertex -2.49016 6.78883 1.8
    endloop
  endfacet
  facet normal -0.940646 -0.339389 0
    outer loop
      vertex -2.60486 4.28505 1.3
      vertex -2.43495 3.81413 1.3
      vertex -2.60486 4.28505 1.8
    endloop
  endfacet
  facet normal 0 0 1
    outer loop
      vertex -2.60486 4.28505 1.8
      vertex -1.74365 5.1666 1.8
      vertex -2.08951 5.1666 1.8
    endloop
  endfacet
  facet normal -0.940646 -0.339389 0
    outer loop
      vertex -2.60486 4.28505 1.8
      vertex -2.43495 3.81413 1.3
      vertex -2.43495 3.81413 1.8
    endloop
  endfacet
  facet normal 0 -0 1
    outer loop
      vertex -2.60486 4.28505 1.8
      vertex -2.43495 3.81413 1.8
      vertex -1.74365 5.1666 1.8
    endloop
  endfacet
  facet normal -0 0 1
    outer loop
      vertex -2.6676 7.5197 1.3
      vertex -2.25056 7.13994 1.3
      vertex -2.36189 7.70241 1.3
    endloop
  endfacet
  facet normal 0.513017 -0.858379 0
    outer loop
      vertex -2.6676 7.5197 1.3
      vertex -2.36189 7.70241 1.3
      vertex -2.36189 7.70241 1.8
    endloop
  endfacet
  facet normal 0.513017 -0.858379 0
    outer loop
      vertex -2.6676 7.5197 1.3
      vertex -2.36189 7.70241 1.8
      vertex -2.6676 7.5197 1.8
    endloop
  endfacet
  facet normal 0 0 1
    outer loop
      vertex -2.6676 7.5197 1.3
      vertex -2.39352 6.98323 1.3
      vertex -2.25056 7.13994 1.3
    endloop
  endfacet
  facet normal 0 0 1
    outer loop
      vertex -2.6676 7.5197 1.8
      vertex -2.36189 7.70241 1.8
      vertex -1.29443 15.5595 1.8
    endloop
  endfacet
  facet normal 0 0 1
    outer loop
      vertex -2.72186 3.2594 1.3
      vertex -2.088 3.53157 1.3
      vertex -2.43495 3.81413 1.3
    endloop
  endfacet
  facet normal 0 0 1
    outer loop
      vertex -2.72186 3.2594 1.3
      vertex -2.40106 3.07762 1.3
      vertex -2.088 3.53157 1.3
    endloop
  endfacet
  facet normal 0.492999 0.87003 0
    outer loop
      vertex -2.72186 3.2594 1.3
      vertex -2.72186 3.2594 1.8
      vertex -2.40106 3.07762 1.3
    endloop
  endfacet
  facet normal 0.492999 0.87003 -0
    outer loop
      vertex -2.72186 3.2594 1.8
      vertex -2.40106 3.07762 1.8
      vertex -2.40106 3.07762 1.3
    endloop
  endfacet
  facet normal -0 0 1
    outer loop
      vertex -2.90778 7.2718 1.3
      vertex -2.39352 6.98323 1.3
      vertex -2.6676 7.5197 1.3
    endloop
  endfacet
  facet normal 0 0 1
    outer loop
      vertex -2.90778 7.2718 1.3
      vertex -2.49016 6.78883 1.3
      vertex -2.39352 6.98323 1.3
    endloop
  endfacet
  facet normal 0.718201 -0.695835 0
    outer loop
      vertex -2.90778 7.2718 1.3
      vertex -2.6676 7.5197 1.3
      vertex -2.90778 7.2718 1.8
    endloop
  endfacet
  facet normal 0.718201 -0.695835 0
    outer loop
      vertex -2.90778 7.2718 1.8
      vertex -2.6676 7.5197 1.3
      vertex -2.6676 7.5197 1.8
    endloop
  endfacet
  facet normal 0 0 1
    outer loop
      vertex -2.97107 3.51237 1.3
      vertex -2.72186 3.2594 1.3
      vertex -2.43495 3.81413 1.3
    endloop
  endfacet
  facet normal 0.712381 0.701793 0
    outer loop
      vertex -2.97107 3.51237 1.3
      vertex -2.72186 3.2594 1.8
      vertex -2.72186 3.2594 1.3
    endloop
  endfacet
  facet normal 0.712381 0.701793 0
    outer loop
      vertex -2.97107 3.51237 1.3
      vertex -2.97107 3.51237 1.8
      vertex -2.72186 3.2594 1.8
    endloop
  endfacet
  facet normal -0 0 1
    outer loop
      vertex -3.06996 6.96664 1.3
      vertex -2.49016 6.78883 1.3
      vertex -2.90778 7.2718 1.3
    endloop
  endfacet
  facet normal 0 0 1
    outer loop
      vertex -3.06996 6.96664 1.3
      vertex -2.54045 6.55675 1.3
      vertex -2.49016 6.78883 1.3
    endloop
  endfacet
  facet normal 0.883039 -0.469299 0
    outer loop
      vertex -3.06996 6.96664 1.3
      vertex -2.90778 7.2718 1.3
      vertex -3.06996 6.96664 1.8
    endloop
  endfacet
  facet normal 0.883039 -0.469299 0
    outer loop
      vertex -3.06996 6.96664 1.8
      vertex -2.90778 7.2718 1.3
      vertex -2.90778 7.2718 1.8
    endloop
  endfacet
  facet normal -0 0 1
    outer loop
      vertex -3.1423 3.83504 1.3
      vertex -2.43495 3.81413 1.3
      vertex -2.60486 4.28505 1.3
    endloop
  endfacet
  facet normal 0 0 1
    outer loop
      vertex -3.1423 3.83504 1.3
      vertex -2.97107 3.51237 1.3
      vertex -2.43495 3.81413 1.3
    endloop
  endfacet
  facet normal 0.883329 0.468753 0
    outer loop
      vertex -3.1423 3.83504 1.3
      vertex -2.97107 3.51237 1.8
      vertex -2.97107 3.51237 1.3
    endloop
  endfacet
  facet normal 0.883329 0.468753 0
    outer loop
      vertex -3.1423 3.83504 1.3
      vertex -3.1423 3.83504 1.8
      vertex -2.97107 3.51237 1.8
    endloop
  endfacet
  facet normal 0 0 1
    outer loop
      vertex -3.15416 6.60425 1.3
      vertex -2.54045 6.55675 1.3
      vertex -3.06996 6.96664 1.3
    endloop
  endfacet
  facet normal 0.974054 -0.226318 0
    outer loop
      vertex -3.15416 6.60425 1.3
      vertex -3.06996 6.96664 1.3
      vertex -3.15416 6.60425 1.8
    endloop
  endfacet
  facet normal 0.0771673 0.997018 0
    outer loop
      vertex -3.15416 6.60425 1.3
      vertex -3.15416 6.60425 1.8
      vertex -2.54045 6.55675 1.3
    endloop
  endfacet
  facet normal 0 0 1
    outer loop
      vertex -3.15416 6.60425 1.8
      vertex -2.08951 5.1666 1.8
      vertex -2.08951 5.69554 1.8
    endloop
  endfacet
  facet normal 0 0 1
    outer loop
      vertex -3.15416 6.60425 1.8
      vertex -2.08951 5.69554 1.8
      vertex -2.54045 6.55675 1.8
    endloop
  endfacet
  facet normal 0.0771673 0.997018 -0
    outer loop
      vertex -3.15416 6.60425 1.8
      vertex -2.54045 6.55675 1.8
      vertex -2.54045 6.55675 1.3
    endloop
  endfacet
  facet normal 0.974054 -0.226318 0
    outer loop
      vertex -3.15416 6.60425 1.8
      vertex -3.06996 6.96664 1.3
      vertex -3.06996 6.96664 1.8
    endloop
  endfacet
  facet normal 0.0910411 -0.995847 0
    outer loop
      vertex -3.23557 4.22739 1.3
      vertex -2.60486 4.28505 1.3
      vertex -2.60486 4.28505 1.8
    endloop
  endfacet
  facet normal 0.0910411 -0.995847 0
    outer loop
      vertex -3.23557 4.22739 1.3
      vertex -2.60486 4.28505 1.8
      vertex -3.23557 4.22739 1.8
    endloop
  endfacet
  facet normal 0 -0 1
    outer loop
      vertex -3.23557 4.22739 1.3
      vertex -3.1423 3.83504 1.3
      vertex -2.60486 4.28505 1.3
    endloop
  endfacet
  facet normal 0.972888 0.231276 0
    outer loop
      vertex -3.23557 4.22739 1.3
      vertex -3.1423 3.83504 1.8
      vertex -3.1423 3.83504 1.3
    endloop
  endfacet
  facet normal 0.972888 0.231276 0
    outer loop
      vertex -3.23557 4.22739 1.3
      vertex -3.23557 4.22739 1.8
      vertex -3.1423 3.83504 1.8
    endloop
  endfacet
  facet normal 0 0 1
    outer loop
      vertex -3.23557 4.22739 1.8
      vertex -2.08951 5.1666 1.8
      vertex -3.15416 6.60425 1.8
    endloop
  endfacet
  facet normal 0 0 1
    outer loop
      vertex -3.23557 4.22739 1.8
      vertex -2.60486 4.28505 1.8
      vertex -2.08951 5.1666 1.8
    endloop
  endfacet
  facet normal 0 0 1
    outer loop
      vertex -8.5 17.7062 1.8
      vertex -0.940456 17.7944 1.8
      vertex -0.940456 29.3706 1.8
    endloop
  endfacet
  facet normal 0 0 1
    outer loop
      vertex -8.5 17.7062 1.8
      vertex -0.940456 29.3706 1.8
      vertex -1.29443 29.7245 1.8
    endloop
  endfacet
  facet normal 0 0 1
    outer loop
      vertex -8.5 17.7062 1.8
      vertex -1.29443 15.5595 1.8
      vertex -1.52169 16.0056 1.8
    endloop
  endfacet
  facet normal 0 0 1
    outer loop
      vertex -8.5 17.7062 1.8
      vertex -1.29443 17.4405 1.8
      vertex -0.940456 17.7944 1.8
    endloop
  endfacet
  facet normal 0 0 1
    outer loop
      vertex -8.5 17.7062 1.8
      vertex -1.29443 29.7245 1.8
      vertex -1.52169 30.1706 1.8
    endloop
  endfacet
  facet normal 0 0 1
    outer loop
      vertex -8.5 17.7062 1.8
      vertex -1.52169 16.0056 1.8
      vertex -1.6 16.5 1.8
    endloop
  endfacet
  facet normal 0 0 1
    outer loop
      vertex -8.5 17.7062 1.8
      vertex -1.52169 16.9944 1.8
      vertex -1.29443 17.4405 1.8
    endloop
  endfacet
  facet normal 0 0 1
    outer loop
      vertex -8.5 17.7062 1.8
      vertex -1.52169 30.1706 1.8
      vertex -8.5 35 1.8
    endloop
  endfacet
  facet normal 0 0 1
    outer loop
      vertex -8.5 17.7062 1.8
      vertex -1.6 16.5 1.8
      vertex -1.52169 16.9944 1.8
    endloop
  endfacet
  facet normal 0 0 1
    outer loop
      vertex -8.5 17.7062 1.8
      vertex -2.6676 7.5197 1.8
      vertex -1.29443 15.5595 1.8
    endloop
  endfacet
  facet normal 0 0 1
    outer loop
      vertex -8.5 17.7062 1.8
      vertex -2.90778 7.2718 1.8
      vertex -2.6676 7.5197 1.8
    endloop
  endfacet
  facet normal 0 0 1
    outer loop
      vertex -8.5 17.7062 1.8
      vertex -3.06996 6.96664 1.8
      vertex -2.90778 7.2718 1.8
    endloop
  endfacet
  facet normal 0 0 -1
    outer loop
      vertex -8.5 17.7062 3.8147e-07
      vertex -0.940456 17.7944 3.8147e-07
      vertex -1.29443 17.4405 3.8147e-07
    endloop
  endfacet
  facet normal -0 0 -1
    outer loop
      vertex -8.5 17.7062 3.8147e-07
      vertex -0.940456 29.3706 3.8147e-07
      vertex -0.940456 17.7944 3.8147e-07
    endloop
  endfacet
  facet normal 0 0 -1
    outer loop
      vertex -8.5 17.7062 3.8147e-07
      vertex -1.29443 17.4405 3.8147e-07
      vertex -1.52169 16.9944 3.8147e-07
    endloop
  endfacet
  facet normal -0 0 -1
    outer loop
      vertex -8.5 17.7062 3.8147e-07
      vertex -1.29443 29.7245 3.8147e-07
      vertex -0.940456 29.3706 3.8147e-07
    endloop
  endfacet
  facet normal 0 0 -1
    outer loop
      vertex -8.5 17.7062 3.8147e-07
      vertex -1.52169 16.0056 3.8147e-07
      vertex -1.29443 15.5595 3.8147e-07
    endloop
  endfacet
  facet normal 0 0 -1
    outer loop
      vertex -8.5 17.7062 3.8147e-07
      vertex -1.52169 16.9944 3.8147e-07
      vertex -1.6 16.5 3.8147e-07
    endloop
  endfacet
  facet normal -0 0 -1
    outer loop
      vertex -8.5 17.7062 3.8147e-07
      vertex -1.52169 30.1706 3.8147e-07
      vertex -1.29443 29.7245 3.8147e-07
    endloop
  endfacet
  facet normal 0 0 -1
    outer loop
      vertex -8.5 17.7062 3.8147e-07
      vertex -1.6 16.5 3.8147e-07
      vertex -1.52169 16.0056 3.8147e-07
    endloop
  endfacet
  facet normal -1 -0 0
    outer loop
      vertex -8.5 17.7062 3.8147e-07
      vertex -8.5 17.7062 1.8
      vertex -8.5 35 1.8
    endloop
  endfacet
  facet normal -1 0 0
    outer loop
      vertex -8.5 17.7062 3.8147e-07
      vertex -8.5 35 1.8
      vertex -8.5 35 3.8147e-07
    endloop
  endfacet
  facet normal 0 0 -1
    outer loop
      vertex -8.5 17.7062 3.8147e-07
      vertex -8.5 35 3.8147e-07
      vertex -1.52169 30.1706 3.8147e-07
    endloop
  endfacet
  facet normal 0 0 1
    outer loop
      vertex -8.5 35 1.8
      vertex -0.494427 32.1867 1.8
      vertex 0 32.265 1.8
    endloop
  endfacet
  facet normal 0 0 1
    outer loop
      vertex -8.5 35 1.8
      vertex -0.940456 31.9594 1.8
      vertex -0.494427 32.1867 1.8
    endloop
  endfacet
  facet normal 0 0 1
    outer loop
      vertex -8.5 35 1.8
      vertex -1.29443 31.6055 1.8
      vertex -0.940456 31.9594 1.8
    endloop
  endfacet
  facet normal 0 0 1
    outer loop
      vertex -8.5 35 1.8
      vertex -1.52169 30.1706 1.8
      vertex -1.6 30.665 1.8
    endloop
  endfacet
  facet normal 0 0 1
    outer loop
      vertex -8.5 35 1.8
      vertex -1.52169 31.1594 1.8
      vertex -1.29443 31.6055 1.8
    endloop
  endfacet
  facet normal 0 0 1
    outer loop
      vertex -8.5 35 1.8
      vertex -1.6 30.665 1.8
      vertex -1.52169 31.1594 1.8
    endloop
  endfacet
  facet normal -0 0 1
    outer loop
      vertex -8.5 35 1.8
      vertex 0 32.265 1.8
      vertex 8.5 35 1.8
    endloop
  endfacet
  facet normal 0 1 -0
    outer loop
      vertex -8.5 35 1.8
      vertex 8.5 35 1.8
      vertex 8.5 35 3.8147e-07
    endloop
  endfacet
  facet normal 0 0 -1
    outer loop
      vertex -8.5 35 3.8147e-07
      vertex -0.494427 32.1867 3.8147e-07
      vertex -0.940456 31.9594 3.8147e-07
    endloop
  endfacet
  facet normal 0 0 -1
    outer loop
      vertex -8.5 35 3.8147e-07
      vertex -0.940456 31.9594 3.8147e-07
      vertex -1.29443 31.6055 3.8147e-07
    endloop
  endfacet
  facet normal 0 0 -1
    outer loop
      vertex -8.5 35 3.8147e-07
      vertex -1.29443 31.6055 3.8147e-07
      vertex -1.52169 31.1594 3.8147e-07
    endloop
  endfacet
  facet normal 0 0 -1
    outer loop
      vertex -8.5 35 3.8147e-07
      vertex -1.52169 31.1594 3.8147e-07
      vertex -1.6 30.665 3.8147e-07
    endloop
  endfacet
  facet normal 0 0 -1
    outer loop
      vertex -8.5 35 3.8147e-07
      vertex -1.6 30.665 3.8147e-07
      vertex -1.52169 30.1706 3.8147e-07
    endloop
  endfacet
  facet normal 0 1 0
    outer loop
      vertex -8.5 35 3.8147e-07
      vertex -8.5 35 1.8
      vertex 8.5 35 3.8147e-07
    endloop
  endfacet
  facet normal 0 0 -1
    outer loop
      vertex -8.5 35 3.8147e-07
      vertex 0 32.265 3.8147e-07
      vertex -0.494427 32.1867 3.8147e-07
    endloop
  endfacet
  facet normal 0 0 -1
    outer loop
      vertex -8.5 35 3.8147e-07
      vertex 8.5 35 3.8147e-07
      vertex 0 32.265 3.8147e-07
    endloop
  endfacet
  facet normal -0.156416 0.987691 0
    outer loop
      vertex 0 14.9 1.8
      vertex 0.494427 14.9783 1.8
      vertex 0.494427 14.9783 3.8147e-07
    endloop
  endfacet
  facet normal -0 0 1
    outer loop
      vertex 0 14.9 1.8
      vertex 0.627625 7.77739 1.8
      vertex 0.494427 14.9783 1.8
    endloop
  endfacet
  facet normal -0.156416 0.987691 0
    outer loop
      vertex 0 14.9 3.8147e-07
      vertex 0 14.9 1.8
      vertex 0.494427 14.9783 3.8147e-07
    endloop
  endfacet
  facet normal 0 0 -1
    outer loop
      vertex 0 14.9 3.8147e-07
      vertex 0.494427 14.9783 3.8147e-07
      vertex 11.7874 2.24858 3.8147e-07
    endloop
  endfacet
  facet normal 0 0 1
    outer loop
      vertex 0 18.1 1.8
      vertex 0.494427 18.0217 1.8
      vertex 0 29.065 1.8
    endloop
  endfacet
  facet normal 0 0 -1
    outer loop
      vertex 0 18.1 3.8147e-07
      vertex 0 29.065 3.8147e-07
      vertex 0.494427 29.1433 3.8147e-07
    endloop
  endfacet
  facet normal -0.156416 -0.987691 0
    outer loop
      vertex 0 18.1 3.8147e-07
      vertex 0.494427 18.0217 1.8
      vertex 0 18.1 1.8
    endloop
  endfacet
  facet normal -0.156416 -0.987691 -0
    outer loop
      vertex 0 18.1 3.8147e-07
      vertex 0.494427 18.0217 3.8147e-07
      vertex 0.494427 18.0217 1.8
    endloop
  endfacet
  facet normal 0 0 -1
    outer loop
      vertex 0 18.1 3.8147e-07
      vertex 0.494427 29.1433 3.8147e-07
      vertex 0.494427 18.0217 3.8147e-07
    endloop
  endfacet
  facet normal -0 0 1
    outer loop
      vertex 0 29.065 1.8
      vertex 0.494427 18.0217 1.8
      vertex 0.494427 29.1433 1.8
    endloop
  endfacet
  facet normal -0.156416 0.987691 0
    outer loop
      vertex 0 29.065 1.8
      vertex 0.494427 29.1433 1.8
      vertex 0.494427 29.1433 3.8147e-07
    endloop
  endfacet
  facet normal -0.156416 0.987691 0
    outer loop
      vertex 0 29.065 3.8147e-07
      vertex 0 29.065 1.8
      vertex 0.494427 29.1433 3.8147e-07
    endloop
  endfacet
  facet normal 0 0 1
    outer loop
      vertex 0 32.265 1.8
      vertex 0.494427 32.1867 1.8
      vertex 8.5 35 1.8
    endloop
  endfacet
  facet normal -0.156416 -0.987691 0
    outer loop
      vertex 0 32.265 3.8147e-07
      vertex 0.494427 32.1867 1.8
      vertex 0 32.265 1.8
    endloop
  endfacet
  facet normal -0.156416 -0.987691 -0
    outer loop
      vertex 0 32.265 3.8147e-07
      vertex 0.494427 32.1867 3.8147e-07
      vertex 0.494427 32.1867 1.8
    endloop
  endfacet
  facet normal 0 0 -1
    outer loop
      vertex 0 32.265 3.8147e-07
      vertex 8.5 35 3.8147e-07
      vertex 0.494427 32.1867 3.8147e-07
    endloop
  endfacet
  facet normal -0.993495 0.11388 0
    outer loop
      vertex 0.010025 3.91133 1.3
      vertex 0.010025 3.91133 1.8
      vertex 0.0567474 4.31894 1.8
    endloop
  endfacet
  facet normal -0.993495 0.11388 0
    outer loop
      vertex 0.010025 3.91133 1.3
      vertex 0.0567474 4.31894 1.8
      vertex 0.0567474 4.31894 1.3
    endloop
  endfacet
  facet normal -0 0 1
    outer loop
      vertex 0.010025 3.91133 1.8
      vertex 1.55235 3.62103 1.8
      vertex 0.0567474 4.31894 1.8
    endloop
  endfacet
  facet normal -0.993431 -0.114437 0
    outer loop
      vertex 0.0235901 4.60678 1.3
      vertex 0.0567474 4.31894 1.3
      vertex 0.0235901 4.60678 1.8
    endloop
  endfacet
  facet normal -0.993431 -0.114437 0
    outer loop
      vertex 0.0235901 4.60678 1.8
      vertex 0.0567474 4.31894 1.3
      vertex 0.0567474 4.31894 1.8
    endloop
  endfacet
  facet normal 0 0 1
    outer loop
      vertex 0.0235901 4.60678 1.8
      vertex 0.0567474 4.31894 1.8
      vertex 1.68176 4.26355 1.8
    endloop
  endfacet
  facet normal 0 0 1
    outer loop
      vertex 0.0235901 4.60678 1.8
      vertex 0.627625 7.25864 1.8
      vertex 0.627625 7.77739 1.8
    endloop
  endfacet
  facet normal -0 0 1
    outer loop
      vertex 0.0235901 4.60678 1.8
      vertex 1.68176 4.26355 1.8
      vertex 1.89743 4.92754 1.8
    endloop
  endfacet
  facet normal 0 0 1
    outer loop
      vertex 0.0235901 4.60678 1.8
      vertex 1.89743 4.92754 1.8
      vertex 0.627625 7.25864 1.8
    endloop
  endfacet
  facet normal 0 0 1
    outer loop
      vertex 0.0567474 4.31894 1.8
      vertex 1.55235 3.62103 1.8
      vertex 1.68176 4.26355 1.8
    endloop
  endfacet
  facet normal 0 0 1
    outer loop
      vertex 0.494427 14.9783 1.8
      vertex 0.627625 7.77739 1.8
      vertex 3.78432 7.77739 1.8
    endloop
  endfacet
  facet normal -0.454049 0.890977 0
    outer loop
      vertex 0.494427 14.9783 1.8
      vertex 0.940456 15.2056 1.8
      vertex 0.940456 15.2056 3.8147e-07
    endloop
  endfacet
  facet normal -0 0 1
    outer loop
      vertex 0.494427 14.9783 1.8
      vertex 3.78432 7.77739 1.8
      vertex 0.940456 15.2056 1.8
    endloop
  endfacet
  facet normal -0.454049 0.890977 0
    outer loop
      vertex 0.494427 14.9783 3.8147e-07
      vertex 0.494427 14.9783 1.8
      vertex 0.940456 15.2056 3.8147e-07
    endloop
  endfacet
  facet normal 0 0 -1
    outer loop
      vertex 0.494427 14.9783 3.8147e-07
      vertex 0.940456 15.2056 3.8147e-07
      vertex 11.7874 2.24858 3.8147e-07
    endloop
  endfacet
  facet normal 0 0 1
    outer loop
      vertex 0.494427 18.0217 1.8
      vertex 0.940456 17.7944 1.8
      vertex 0.494427 29.1433 1.8
    endloop
  endfacet
  facet normal 0 0 -1
    outer loop
      vertex 0.494427 18.0217 3.8147e-07
      vertex 0.494427 29.1433 3.8147e-07
      vertex 0.940456 29.3706 3.8147e-07
    endloop
  endfacet
  facet normal -0.454049 -0.890977 0
    outer loop
      vertex 0.494427 18.0217 3.8147e-07
      vertex 0.940456 17.7944 1.8
      vertex 0.494427 18.0217 1.8
    endloop
  endfacet
  facet normal -0.454049 -0.890977 -0
    outer loop
      vertex 0.494427 18.0217 3.8147e-07
      vertex 0.940456 17.7944 3.8147e-07
      vertex 0.940456 17.7944 1.8
    endloop
  endfacet
  facet normal 0 0 -1
    outer loop
      vertex 0.494427 18.0217 3.8147e-07
      vertex 0.940456 29.3706 3.8147e-07
      vertex 0.940456 17.7944 3.8147e-07
    endloop
  endfacet
  facet normal -0 0 1
    outer loop
      vertex 0.494427 29.1433 1.8
      vertex 0.940456 17.7944 1.8
      vertex 0.940456 29.3706 1.8
    endloop
  endfacet
  facet normal -0.454049 0.890977 0
    outer loop
      vertex 0.494427 29.1433 1.8
      vertex 0.940456 29.3706 1.8
      vertex 0.940456 29.3706 3.8147e-07
    endloop
  endfacet
  facet normal -0.454049 0.890977 0
    outer loop
      vertex 0.494427 29.1433 3.8147e-07
      vertex 0.494427 29.1433 1.8
      vertex 0.940456 29.3706 3.8147e-07
    endloop
  endfacet
  facet normal 0 0 1
    outer loop
      vertex 0.494427 32.1867 1.8
      vertex 0.940456 31.9594 1.8
      vertex 8.5 35 1.8
    endloop
  endfacet
  facet normal -0.454049 -0.890977 0
    outer loop
      vertex 0.494427 32.1867 3.8147e-07
      vertex 0.940456 31.9594 1.8
      vertex 0.494427 32.1867 1.8
    endloop
  endfacet
  facet normal -0.454049 -0.890977 -0
    outer loop
      vertex 0.494427 32.1867 3.8147e-07
      vertex 0.940456 31.9594 3.8147e-07
      vertex 0.940456 31.9594 1.8
    endloop
  endfacet
  facet normal 0 0 -1
    outer loop
      vertex 0.494427 32.1867 3.8147e-07
      vertex 8.5 35 3.8147e-07
      vertex 0.940456 31.9594 3.8147e-07
    endloop
  endfacet
  facet normal 0 1 0
    outer loop
      vertex 0.627625 7.25864 1.3
      vertex 0.627625 7.25864 1.8
      vertex 3.19432 7.25864 1.3
    endloop
  endfacet
  facet normal 1 0 0
    outer loop
      vertex 0.627625 7.25864 1.3
      vertex 0.627625 7.77739 1.3
      vertex 0.627625 7.25864 1.8
    endloop
  endfacet
  facet normal 0 0 1
    outer loop
      vertex 0.627625 7.25864 1.3
      vertex 3.19432 7.25864 1.3
      vertex 0.627625 7.77739 1.3
    endloop
  endfacet
  facet normal 1 -0 0
    outer loop
      vertex 0.627625 7.25864 1.8
      vertex 0.627625 7.77739 1.3
      vertex 0.627625 7.77739 1.8
    endloop
  endfacet
  facet normal 0 0 1
    outer loop
      vertex 0.627625 7.25864 1.8
      vertex 1.89743 4.92754 1.8
      vertex 2.21408 5.63638 1.8
    endloop
  endfacet
  facet normal 0 0 1
    outer loop
      vertex 0.627625 7.25864 1.8
      vertex 2.21408 5.63638 1.8
      vertex 2.64638 6.41341 1.8
    endloop
  endfacet
  facet normal -0 0 1
    outer loop
      vertex 0.627625 7.25864 1.8
      vertex 2.64638 6.41341 1.8
      vertex 3.19432 7.25864 1.8
    endloop
  endfacet
  facet normal 0 1 -0
    outer loop
      vertex 0.627625 7.25864 1.8
      vertex 3.19432 7.25864 1.8
      vertex 3.19432 7.25864 1.3
    endloop
  endfacet
  facet normal -0 0 1
    outer loop
      vertex 0.627625 7.77739 1.3
      vertex 3.19432 7.25864 1.3
      vertex 3.78432 7.77739 1.3
    endloop
  endfacet
  facet normal 0 -1 -0
    outer loop
      vertex 0.627625 7.77739 1.3
      vertex 3.78432 7.77739 1.3
      vertex 3.78432 7.77739 1.8
    endloop
  endfacet
  facet normal 0 -1 0
    outer loop
      vertex 0.627625 7.77739 1.3
      vertex 3.78432 7.77739 1.8
      vertex 0.627625 7.77739 1.8
    endloop
  endfacet
  facet normal -0 0 1
    outer loop
      vertex 0.940456 15.2056 1.8
      vertex 3.78432 7.77739 1.8
      vertex 1.29443 15.5595 1.8
    endloop
  endfacet
  facet normal -0.707033 0.707181 0
    outer loop
      vertex 0.940456 15.2056 3.8147e-07
      vertex 0.940456 15.2056 1.8
      vertex 1.29443 15.5595 1.8
    endloop
  endfacet
  facet normal -0.707033 0.707181 0
    outer loop
      vertex 0.940456 15.2056 3.8147e-07
      vertex 1.29443 15.5595 1.8
      vertex 1.29443 15.5595 3.8147e-07
    endloop
  endfacet
  facet normal 0 0 -1
    outer loop
      vertex 0.940456 15.2056 3.8147e-07
      vertex 1.29443 15.5595 3.8147e-07
      vertex 8.5 17.7062 3.8147e-07
    endloop
  endfacet
  facet normal 0 0 -1
    outer loop
      vertex 0.940456 15.2056 3.8147e-07
      vertex 8.5 17.7062 3.8147e-07
      vertex 11.7874 2.24858 3.8147e-07
    endloop
  endfacet
  facet normal 0 0 1
    outer loop
      vertex 0.940456 17.7944 1.8
      vertex 1.29443 17.4405 1.8
      vertex 8.5 17.7062 1.8
    endloop
  endfacet
  facet normal -0.707033 -0.707181 0
    outer loop
      vertex 0.940456 17.7944 1.8
      vertex 1.29443 17.4405 3.8147e-07
      vertex 1.29443 17.4405 1.8
    endloop
  endfacet
  facet normal -0 0 1
    outer loop
      vertex 0.940456 17.7944 1.8
      vertex 8.5 17.7062 1.8
      vertex 0.940456 29.3706 1.8
    endloop
  endfacet
  facet normal 0 0 -1
    outer loop
      vertex 0.940456 17.7944 3.8147e-07
      vertex 0.940456 29.3706 3.8147e-07
      vertex 8.5 17.7062 3.8147e-07
    endloop
  endfacet
  facet normal -0.707033 -0.707181 0
    outer loop
      vertex 0.940456 17.7944 3.8147e-07
      vertex 1.29443 17.4405 3.8147e-07
      vertex 0.940456 17.7944 1.8
    endloop
  endfacet
  facet normal 0 0 -1
    outer loop
      vertex 0.940456 17.7944 3.8147e-07
      vertex 8.5 17.7062 3.8147e-07
      vertex 1.29443 17.4405 3.8147e-07
    endloop
  endfacet
  facet normal -0.707033 0.707181 0
    outer loop
      vertex 0.940456 29.3706 1.8
      vertex 1.29443 29.7245 1.8
      vertex 1.29443 29.7245 3.8147e-07
    endloop
  endfacet
  facet normal -0 0 1
    outer loop
      vertex 0.940456 29.3706 1.8
      vertex 8.5 17.7062 1.8
      vertex 1.29443 29.7245 1.8
    endloop
  endfacet
  facet normal -0.707033 0.707181 0
    outer loop
      vertex 0.940456 29.3706 3.8147e-07
      vertex 0.940456 29.3706 1.8
      vertex 1.29443 29.7245 3.8147e-07
    endloop
  endfacet
  facet normal 0 0 -1
    outer loop
      vertex 0.940456 29.3706 3.8147e-07
      vertex 1.29443 29.7245 3.8147e-07
      vertex 8.5 17.7062 3.8147e-07
    endloop
  endfacet
  facet normal 0 0 1
    outer loop
      vertex 0.940456 31.9594 1.8
      vertex 1.29443 31.6055 1.8
      vertex 8.5 35 1.8
    endloop
  endfacet
  facet normal -0.707033 -0.707181 0
    outer loop
      vertex 0.940456 31.9594 1.8
      vertex 1.29443 31.6055 3.8147e-07
      vertex 1.29443 31.6055 1.8
    endloop
  endfacet
  facet normal -0.707033 -0.707181 0
    outer loop
      vertex 0.940456 31.9594 3.8147e-07
      vertex 1.29443 31.6055 3.8147e-07
      vertex 0.940456 31.9594 1.8
    endloop
  endfacet
  facet normal 0 0 -1
    outer loop
      vertex 0.940456 31.9594 3.8147e-07
      vertex 8.5 35 3.8147e-07
      vertex 1.29443 31.6055 3.8147e-07
    endloop
  endfacet
  facet normal 0 0 1
    outer loop
      vertex 1.29443 15.5595 1.8
      vertex 3.78432 7.77739 1.8
      vertex 8.5 17.7062 1.8
    endloop
  endfacet
  facet normal 0 0 1
    outer loop
      vertex 1.29443 15.5595 1.8
      vertex 8.5 17.7062 1.8
      vertex 1.52169 16.0056 1.8
    endloop
  endfacet
  facet normal -0.891038 0.453928 0
    outer loop
      vertex 1.29443 15.5595 3.8147e-07
      vertex 1.29443 15.5595 1.8
      vertex 1.52169 16.0056 1.8
    endloop
  endfacet
  facet normal -0.891038 0.453928 0
    outer loop
      vertex 1.29443 15.5595 3.8147e-07
      vertex 1.52169 16.0056 1.8
      vertex 1.52169 16.0056 3.8147e-07
    endloop
  endfacet
  facet normal 0 0 -1
    outer loop
      vertex 1.29443 15.5595 3.8147e-07
      vertex 1.52169 16.0056 3.8147e-07
      vertex 8.5 17.7062 3.8147e-07
    endloop
  endfacet
  facet normal 0 0 1
    outer loop
      vertex 1.29443 17.4405 1.8
      vertex 1.52169 16.9944 1.8
      vertex 8.5 17.7062 1.8
    endloop
  endfacet
  facet normal -0.891038 -0.453928 0
    outer loop
      vertex 1.29443 17.4405 1.8
      vertex 1.52169 16.9944 3.8147e-07
      vertex 1.52169 16.9944 1.8
    endloop
  endfacet
  facet normal -0.891038 -0.453928 0
    outer loop
      vertex 1.29443 17.4405 3.8147e-07
      vertex 1.52169 16.9944 3.8147e-07
      vertex 1.29443 17.4405 1.8
    endloop
  endfacet
  facet normal 0 0 -1
    outer loop
      vertex 1.29443 17.4405 3.8147e-07
      vertex 8.5 17.7062 3.8147e-07
      vertex 1.52169 16.9944 3.8147e-07
    endloop
  endfacet
  facet normal -0 0 1
    outer loop
      vertex 1.29443 29.7245 1.8
      vertex 8.5 17.7062 1.8
      vertex 1.52169 30.1706 1.8
    endloop
  endfacet
  facet normal -0.891038 0.453928 0
    outer loop
      vertex 1.29443 29.7245 3.8147e-07
      vertex 1.29443 29.7245 1.8
      vertex 1.52169 30.1706 1.8
    endloop
  endfacet
  facet normal -0.891038 0.453928 0
    outer loop
      vertex 1.29443 29.7245 3.8147e-07
      vertex 1.52169 30.1706 1.8
      vertex 1.52169 30.1706 3.8147e-07
    endloop
  endfacet
  facet normal 0 0 -1
    outer loop
      vertex 1.29443 29.7245 3.8147e-07
      vertex 1.52169 30.1706 3.8147e-07
      vertex 8.5 17.7062 3.8147e-07
    endloop
  endfacet
  facet normal 0 0 1
    outer loop
      vertex 1.29443 31.6055 1.8
      vertex 1.52169 31.1594 1.8
      vertex 8.5 35 1.8
    endloop
  endfacet
  facet normal -0.891038 -0.453928 0
    outer loop
      vertex 1.29443 31.6055 1.8
      vertex 1.52169 31.1594 3.8147e-07
      vertex 1.52169 31.1594 1.8
    endloop
  endfacet
  facet normal -0.891038 -0.453928 0
    outer loop
      vertex 1.29443 31.6055 3.8147e-07
      vertex 1.52169 31.1594 3.8147e-07
      vertex 1.29443 31.6055 1.8
    endloop
  endfacet
  facet normal 0 0 -1
    outer loop
      vertex 1.29443 31.6055 3.8147e-07
      vertex 8.5 35 3.8147e-07
      vertex 1.52169 31.1594 3.8147e-07
    endloop
  endfacet
  facet normal 0 1 0
    outer loop
      vertex 1.50922 3 1.3
      vertex 1.50922 3 1.8
      vertex 2.14662 3 1.3
    endloop
  endfacet
  facet normal 0.997597 -0.0692823 0
    outer loop
      vertex 1.50922 3 1.3
      vertex 1.55235 3.62103 1.3
      vertex 1.50922 3 1.8
    endloop
  endfacet
  facet normal 0 0 1
    outer loop
      vertex 1.50922 3 1.3
      vertex 2.14662 3 1.3
      vertex 2.16339 3.43587 1.3
    endloop
  endfacet
  facet normal 0 0 1
    outer loop
      vertex 1.50922 3 1.3
      vertex 2.16339 3.43587 1.3
      vertex 1.55235 3.62103 1.3
    endloop
  endfacet
  facet normal 0.997597 -0.0692823 0
    outer loop
      vertex 1.50922 3 1.8
      vertex 1.55235 3.62103 1.3
      vertex 1.55235 3.62103 1.8
    endloop
  endfacet
  facet normal -0 0 1
    outer loop
      vertex 1.50922 3 1.8
      vertex 12 0 1.8
      vertex 2.14662 3 1.8
    endloop
  endfacet
  facet normal 0 1 -0
    outer loop
      vertex 1.50922 3 1.8
      vertex 2.14662 3 1.8
      vertex 2.14662 3 1.3
    endloop
  endfacet
  facet normal 0 0 1
    outer loop
      vertex 1.52169 16.0056 1.8
      vertex 8.5 17.7062 1.8
      vertex 1.6 16.5 1.8
    endloop
  endfacet
  facet normal -0.987687 0.156444 0
    outer loop
      vertex 1.52169 16.0056 3.8147e-07
      vertex 1.52169 16.0056 1.8
      vertex 1.6 16.5 1.8
    endloop
  endfacet
  facet normal -0.987687 0.156444 0
    outer loop
      vertex 1.52169 16.0056 3.8147e-07
      vertex 1.6 16.5 1.8
      vertex 1.6 16.5 3.8147e-07
    endloop
  endfacet
  facet normal 0 0 -1
    outer loop
      vertex 1.52169 16.0056 3.8147e-07
      vertex 1.6 16.5 3.8147e-07
      vertex 8.5 17.7062 3.8147e-07
    endloop
  endfacet
  facet normal 0 0 1
    outer loop
      vertex 1.52169 16.9944 1.8
      vertex 1.6 16.5 1.8
      vertex 8.5 17.7062 1.8
    endloop
  endfacet
  facet normal -0.987687 -0.156444 0
    outer loop
      vertex 1.52169 16.9944 1.8
      vertex 1.6 16.5 3.8147e-07
      vertex 1.6 16.5 1.8
    endloop
  endfacet
  facet normal -0.987687 -0.156444 0
    outer loop
      vertex 1.52169 16.9944 3.8147e-07
      vertex 1.6 16.5 3.8147e-07
      vertex 1.52169 16.9944 1.8
    endloop
  endfacet
  facet normal 0 0 -1
    outer loop
      vertex 1.52169 16.9944 3.8147e-07
      vertex 8.5 17.7062 3.8147e-07
      vertex 1.6 16.5 3.8147e-07
    endloop
  endfacet
  facet normal 0 0 1
    outer loop
      vertex 1.52169 30.1706 1.8
      vertex 8.5 17.7062 1.8
      vertex 8.5 35 1.8
    endloop
  endfacet
  facet normal 0 0 1
    outer loop
      vertex 1.52169 30.1706 1.8
      vertex 8.5 35 1.8
      vertex 1.6 30.665 1.8
    endloop
  endfacet
  facet normal -0.987687 0.156444 0
    outer loop
      vertex 1.52169 30.1706 3.8147e-07
      vertex 1.52169 30.1706 1.8
      vertex 1.6 30.665 1.8
    endloop
  endfacet
  facet normal -0.987687 0.156444 0
    outer loop
      vertex 1.52169 30.1706 3.8147e-07
      vertex 1.6 30.665 1.8
      vertex 1.6 30.665 3.8147e-07
    endloop
  endfacet
  facet normal 0 0 -1
    outer loop
      vertex 1.52169 30.1706 3.8147e-07
      vertex 1.6 30.665 3.8147e-07
      vertex 8.5 17.7062 3.8147e-07
    endloop
  endfacet
  facet normal 0 0 1
    outer loop
      vertex 1.52169 31.1594 1.8
      vertex 1.6 30.665 1.8
      vertex 8.5 35 1.8
    endloop
  endfacet
  facet normal -0.987687 -0.156444 0
    outer loop
      vertex 1.52169 31.1594 1.8
      vertex 1.6 30.665 3.8147e-07
      vertex 1.6 30.665 1.8
    endloop
  endfacet
  facet normal -0.987687 -0.156444 0
    outer loop
      vertex 1.52169 31.1594 3.8147e-07
      vertex 1.6 30.665 3.8147e-07
      vertex 1.52169 31.1594 1.8
    endloop
  endfacet
  facet normal 0 0 -1
    outer loop
      vertex 1.52169 31.1594 3.8147e-07
      vertex 8.5 35 3.8147e-07
      vertex 1.6 30.665 3.8147e-07
    endloop
  endfacet
  facet normal 0.980314 -0.197445 0
    outer loop
      vertex 1.55235 3.62103 1.3
      vertex 1.68176 4.26355 1.3
      vertex 1.55235 3.62103 1.8
    endloop
  endfacet
  facet normal 0 0 1
    outer loop
      vertex 1.55235 3.62103 1.3
      vertex 2.16339 3.43587 1.3
      vertex 2.21368 3.86195 1.3
    endloop
  endfacet
  facet normal 0 0 1
    outer loop
      vertex 1.55235 3.62103 1.3
      vertex 2.21368 3.86195 1.3
      vertex 1.68176 4.26355 1.3
    endloop
  endfacet
  facet normal 0.980314 -0.197445 0
    outer loop
      vertex 1.55235 3.62103 1.8
      vertex 1.68176 4.26355 1.3
      vertex 1.68176 4.26355 1.8
    endloop
  endfacet
  facet normal 0 0 -1
    outer loop
      vertex 1.6 30.665 3.8147e-07
      vertex 8.5 35 3.8147e-07
      vertex 8.5 17.7062 3.8147e-07
    endloop
  endfacet
  facet normal 0.951087 -0.308922 0
    outer loop
      vertex 1.68176 4.26355 1.3
      vertex 1.89743 4.92754 1.3
      vertex 1.68176 4.26355 1.8
    endloop
  endfacet
  facet normal 0 0 1
    outer loop
      vertex 1.68176 4.26355 1.3
      vertex 2.21368 3.86195 1.3
      vertex 2.29752 4.27824 1.3
    endloop
  endfacet
  facet normal 0 0 1
    outer loop
      vertex 1.68176 4.26355 1.3
      vertex 2.29752 4.27824 1.3
      vertex 1.89743 4.92754 1.3
    endloop
  endfacet
  facet normal 0.951087 -0.308922 0
    outer loop
      vertex 1.68176 4.26355 1.8
      vertex 1.89743 4.92754 1.3
      vertex 1.89743 4.92754 1.8
    endloop
  endfacet
  facet normal 0.91304 -0.407869 0
    outer loop
      vertex 1.89743 4.92754 1.3
      vertex 2.21408 5.63638 1.3
      vertex 1.89743 4.92754 1.8
    endloop
  endfacet
  facet normal 0 0 1
    outer loop
      vertex 1.89743 4.92754 1.3
      vertex 2.29752 4.27824 1.3
      vertex 2.41489 4.69153 1.3
    endloop
  endfacet
  facet normal 0 0 1
    outer loop
      vertex 1.89743 4.92754 1.3
      vertex 2.41489 4.69153 1.3
      vertex 2.56577 5.10858 1.3
    endloop
  endfacet
  facet normal 0 0 1
    outer loop
      vertex 1.89743 4.92754 1.3
      vertex 2.56577 5.10858 1.3
      vertex 2.21408 5.63638 1.3
    endloop
  endfacet
  facet normal 0.91304 -0.407869 0
    outer loop
      vertex 1.89743 4.92754 1.8
      vertex 2.21408 5.63638 1.3
      vertex 2.21408 5.63638 1.8
    endloop
  endfacet
  facet normal 0.987674 0.156525 0
    outer loop
      vertex 11.7874 2.24858 3.8147e-07
      vertex 11.7874 2.24858 1.8
      vertex 11.9054 1.504 1.8
    endloop
  endfacet
  facet normal 0.987674 0.156525 0
    outer loop
      vertex 11.7874 2.24858 3.8147e-07
      vertex 11.9054 1.504 1.8
      vertex 11.9054 1.504 3.8147e-07
    endloop
  endfacet
  facet normal 0 0 -1
    outer loop
      vertex 11.7874 2.24858 3.8147e-07
      vertex 11.9054 1.504 3.8147e-07
      vertex 12 0 3.8147e-07
    endloop
  endfacet
  facet normal 0.995567 0.0940499 0
    outer loop
      vertex 11.9054 1.504 3.8147e-07
      vertex 11.9054 1.504 1.8
      vertex 11.9763 0.753486 1.8
    endloop
  endfacet
  facet normal 0.995567 0.0940499 0
    outer loop
      vertex 11.9054 1.504 3.8147e-07
      vertex 11.9763 0.753486 1.8
      vertex 11.9763 0.753486 3.8147e-07
    endloop
  endfacet
  facet normal 0 0 -1
    outer loop
      vertex 11.9054 1.504 3.8147e-07
      vertex 11.9763 0.753486 3.8147e-07
      vertex 12 0 3.8147e-07
    endloop
  endfacet
  facet normal 0.999506 0.0314383 0
    outer loop
      vertex 11.9763 0.753486 3.8147e-07
      vertex 11.9763 0.753486 1.8
      vertex 12 0 1.8
    endloop
  endfacet
  facet normal 0.999506 0.0314383 0
    outer loop
      vertex 11.9763 0.753486 3.8147e-07
      vertex 12 0 1.8
      vertex 12 0 3.8147e-07
    endloop
  endfacet
  facet normal -0.999261 0.0384463 0
    outer loop
      vertex 2.14662 3 1.3
      vertex 2.14662 3 1.8
      vertex 2.16339 3.43587 1.8
    endloop
  endfacet
  facet normal -0.999261 0.0384463 0
    outer loop
      vertex 2.14662 3 1.3
      vertex 2.16339 3.43587 1.8
      vertex 2.16339 3.43587 1.3
    endloop
  endfacet
  facet normal -0 0 1
    outer loop
      vertex 2.14662 3 1.8
      vertex 11.7874 2.24858 1.8
      vertex 2.16339 3.43587 1.8
    endloop
  endfacet
  facet normal 0 0 1
    outer loop
      vertex 2.14662 3 1.8
      vertex 11.9054 1.504 1.8
      vertex 11.7874 2.24858 1.8
    endloop
  endfacet
  facet normal 0 0 1
    outer loop
      vertex 2.14662 3 1.8
      vertex 11.9763 0.753486 1.8
      vertex 11.9054 1.504 1.8
    endloop
  endfacet
  facet normal 0 0 1
    outer loop
      vertex 2.14662 3 1.8
      vertex 12 0 1.8
      vertex 11.9763 0.753486 1.8
    endloop
  endfacet
  facet normal -0.993106 0.117216 0
    outer loop
      vertex 2.16339 3.43587 1.3
      vertex 2.16339 3.43587 1.8
      vertex 2.21368 3.86195 1.8
    endloop
  endfacet
  facet normal -0.993106 0.117216 0
    outer loop
      vertex 2.16339 3.43587 1.3
      vertex 2.21368 3.86195 1.8
      vertex 2.21368 3.86195 1.3
    endloop
  endfacet
  facet normal -0 0 1
    outer loop
      vertex 2.16339 3.43587 1.8
      vertex 11.7874 2.24858 1.8
      vertex 2.21368 3.86195 1.8
    endloop
  endfacet
  facet normal -0.980316 0.197434 0
    outer loop
      vertex 2.21368 3.86195 1.3
      vertex 2.21368 3.86195 1.8
      vertex 2.29752 4.27824 1.8
    endloop
  endfacet
  facet normal -0.980316 0.197434 0
    outer loop
      vertex 2.21368 3.86195 1.3
      vertex 2.29752 4.27824 1.8
      vertex 2.29752 4.27824 1.3
    endloop
  endfacet
  facet normal -0 0 1
    outer loop
      vertex 2.21368 3.86195 1.8
      vertex 11.7874 2.24858 1.8
      vertex 2.29752 4.27824 1.8
    endloop
  endfacet
  facet normal 0 0 1
    outer loop
      vertex 2.21408 5.63638 1.3
      vertex 2.56577 5.10858 1.3
      vertex 2.75017 5.52939 1.3
    endloop
  endfacet
  facet normal 0.873863 -0.486173 0
    outer loop
      vertex 2.21408 5.63638 1.3
      vertex 2.64638 6.41341 1.3
      vertex 2.21408 5.63638 1.8
    endloop
  endfacet
  facet normal 0 0 1
    outer loop
      vertex 2.21408 5.63638 1.3
      vertex 2.75017 5.52939 1.3
      vertex 2.99919 6.00597 1.3
    endloop
  endfacet
  facet normal 0 0 1
    outer loop
      vertex 2.21408 5.63638 1.3
      vertex 2.99919 6.00597 1.3
      vertex 2.64638 6.41341 1.3
    endloop
  endfacet
  facet normal 0.873863 -0.486173 0
    outer loop
      vertex 2.21408 5.63638 1.8
      vertex 2.64638 6.41341 1.3
      vertex 2.64638 6.41341 1.8
    endloop
  endfacet
  facet normal -0.961961 0.273187 0
    outer loop
      vertex 2.29752 4.27824 1.3
      vertex 2.29752 4.27824 1.8
      vertex 2.41489 4.69153 1.8
    endloop
  endfacet
  facet normal -0.961961 0.273187 0
    outer loop
      vertex 2.29752 4.27824 1.3
      vertex 2.41489 4.69153 1.8
      vertex 2.41489 4.69153 1.3
    endloop
  endfacet
  facet normal -0 0 1
    outer loop
      vertex 2.29752 4.27824 1.8
      vertex 11.7874 2.24858 1.8
      vertex 2.41489 4.69153 1.8
    endloop
  endfacet
  facet normal -0.940353 0.3402 0
    outer loop
      vertex 2.41489 4.69153 1.3
      vertex 2.41489 4.69153 1.8
      vertex 2.56577 5.10858 1.8
    endloop
  endfacet
  facet normal -0.940353 0.3402 0
    outer loop
      vertex 2.41489 4.69153 1.3
      vertex 2.56577 5.10858 1.8
      vertex 2.56577 5.10858 1.3
    endloop
  endfacet
  facet normal -0 0 1
    outer loop
      vertex 2.41489 4.69153 1.8
      vertex 11.7874 2.24858 1.8
      vertex 2.56577 5.10858 1.8
    endloop
  endfacet
  facet normal -0.915921 0.401359 0
    outer loop
      vertex 2.56577 5.10858 1.3
      vertex 2.56577 5.10858 1.8
      vertex 2.75017 5.52939 1.8
    endloop
  endfacet
  facet normal -0.915921 0.401359 0
    outer loop
      vertex 2.56577 5.10858 1.3
      vertex 2.75017 5.52939 1.8
      vertex 2.75017 5.52939 1.3
    endloop
  endfacet
  facet normal -0 0 1
    outer loop
      vertex 2.56577 5.10858 1.8
      vertex 11.7874 2.24858 1.8
      vertex 2.75017 5.52939 1.8
    endloop
  endfacet
  facet normal 0 0 1
    outer loop
      vertex 2.64638 6.41341 1.3
      vertex 2.99919 6.00597 1.3
      vertex 3.3439 6.59029 1.3
    endloop
  endfacet
  facet normal 0.839105 -0.543969 0
    outer loop
      vertex 2.64638 6.41341 1.3
      vertex 3.19432 7.25864 1.3
      vertex 2.64638 6.41341 1.8
    endloop
  endfacet
  facet normal 0 0 1
    outer loop
      vertex 2.64638 6.41341 1.3
      vertex 3.3439 6.59029 1.3
      vertex 3.19432 7.25864 1.3
    endloop
  endfacet
  facet normal 0.839105 -0.543969 0
    outer loop
      vertex 2.64638 6.41341 1.8
      vertex 3.19432 7.25864 1.3
      vertex 3.19432 7.25864 1.8
    endloop
  endfacet
  facet normal -0.886303 0.463106 0
    outer loop
      vertex 2.75017 5.52939 1.3
      vertex 2.75017 5.52939 1.8
      vertex 2.99919 6.00597 1.8
    endloop
  endfacet
  facet normal -0.886303 0.463106 0
    outer loop
      vertex 2.75017 5.52939 1.3
      vertex 2.99919 6.00597 1.8
      vertex 2.99919 6.00597 1.3
    endloop
  endfacet
  facet normal -0 0 1
    outer loop
      vertex 2.75017 5.52939 1.8
      vertex 11.7874 2.24858 1.8
      vertex 2.99919 6.00597 1.8
    endloop
  endfacet
  facet normal -0.861294 0.508106 0
    outer loop
      vertex 2.99919 6.00597 1.3
      vertex 2.99919 6.00597 1.8
      vertex 3.3439 6.59029 1.8
    endloop
  endfacet
  facet normal -0.861294 0.508106 0
    outer loop
      vertex 2.99919 6.00597 1.3
      vertex 3.3439 6.59029 1.8
      vertex 3.3439 6.59029 1.3
    endloop
  endfacet
  facet normal -0 0 1
    outer loop
      vertex 2.99919 6.00597 1.8
      vertex 11.7874 2.24858 1.8
      vertex 3.3439 6.59029 1.8
    endloop
  endfacet
  facet normal 0 0 1
    outer loop
      vertex 3.19432 7.25864 1.3
      vertex 3.3439 6.59029 1.3
      vertex 3.78432 7.28235 1.3
    endloop
  endfacet
  facet normal 0 0 1
    outer loop
      vertex 3.19432 7.25864 1.3
      vertex 3.78432 7.28235 1.3
      vertex 3.78432 7.77739 1.3
    endloop
  endfacet
  facet normal -0.843651 0.536891 0
    outer loop
      vertex 3.3439 6.59029 1.3
      vertex 3.3439 6.59029 1.8
      vertex 3.78432 7.28235 1.8
    endloop
  endfacet
  facet normal -0.843651 0.536891 0
    outer loop
      vertex 3.3439 6.59029 1.3
      vertex 3.78432 7.28235 1.8
      vertex 3.78432 7.28235 1.3
    endloop
  endfacet
  facet normal -0 0 1
    outer loop
      vertex 3.3439 6.59029 1.8
      vertex 11.7874 2.24858 1.8
      vertex 3.78432 7.28235 1.8
    endloop
  endfacet
  facet normal -1 -0 0
    outer loop
      vertex 3.78432 7.28235 1.3
      vertex 3.78432 7.28235 1.8
      vertex 3.78432 7.77739 1.8
    endloop
  endfacet
  facet normal -1 0 0
    outer loop
      vertex 3.78432 7.28235 1.3
      vertex 3.78432 7.77739 1.8
      vertex 3.78432 7.77739 1.3
    endloop
  endfacet
  facet normal -0 0 1
    outer loop
      vertex 3.78432 7.28235 1.8
      vertex 11.7874 2.24858 1.8
      vertex 3.78432 7.77739 1.8
    endloop
  endfacet
  facet normal -0 0 1
    outer loop
      vertex 3.78432 7.77739 1.8
      vertex 11.7874 2.24858 1.8
      vertex 8.5 17.7062 1.8
    endloop
  endfacet
  facet normal 1 -0 0
    outer loop
      vertex 8.5 17.7062 1.8
      vertex 8.5 35 3.8147e-07
      vertex 8.5 35 1.8
    endloop
  endfacet
  facet normal 0.978125 0.20802 0
    outer loop
      vertex 8.5 17.7062 3.8147e-07
      vertex 11.7874 2.24858 1.8
      vertex 11.7874 2.24858 3.8147e-07
    endloop
  endfacet
  facet normal 0.978125 0.20802 0
    outer loop
      vertex 8.5 17.7062 3.8147e-07
      vertex 8.5 17.7062 1.8
      vertex 11.7874 2.24858 1.8
    endloop
  endfacet
  facet normal 1 0 0
    outer loop
      vertex 8.5 17.7062 3.8147e-07
      vertex 8.5 35 3.8147e-07
      vertex 8.5 17.7062 1.8
    endloop
  endfacet
endsolid model
