solid model
  facet normal -1 -0 0
    outer loop
      vertex 0 0 0
      vertex 0 0 2.22327
      vertex 0 17 1.77811
    endloop
  endfacet
  facet normal 0 0 -1
    outer loop
      vertex 0 0 0
      vertex 0 17 0
      vertex 4 8.50524 0
    endloop
  endfacet
  facet normal -1 0 0
    outer loop
      vertex 0 0 0
      vertex 0 17 1.77811
      vertex 0 17 0
    endloop
  endfacet
  facet normal 0 -1 -0
    outer loop
      vertex 0 0 0
      vertex 18.2938 0 0
      vertex 18.2938 0 2.22327
    endloop
  endfacet
  facet normal 0 -1 0
    outer loop
      vertex 0 0 0
      vertex 18.2938 0 2.22327
      vertex 0 0 2.22327
    endloop
  endfacet
  facet normal -0 0 -1
    outer loop
      vertex 0 0 0
      vertex 4 8.50524 0
      vertex 4.07463 8.03385 0
    endloop
  endfacet
  facet normal -0 0 -1
    outer loop
      vertex 0 0 0
      vertex 4.07463 8.03385 0
      vertex 4.07831 8.01064 0
    endloop
  endfacet
  facet normal -0 0 -1
    outer loop
      vertex 0 0 0
      vertex 4.07831 8.01064 0
      vertex 4.08891 7.98983 0
    endloop
  endfacet
  facet normal 0 0 -1
    outer loop
      vertex 0 0 0
      vertex 4.08891 7.98983 0
      vertex 4.30557 7.56446 0
    endloop
  endfacet
  facet normal -0 0 -1
    outer loop
      vertex 0 0 0
      vertex 4.30557 7.56446 0
      vertex 4.65954 7.21037 0
    endloop
  endfacet
  facet normal -0 0 -1
    outer loop
      vertex 0 0 0
      vertex 4.65954 7.21037 0
      vertex 5.10557 6.98302 0
    endloop
  endfacet
  facet normal -0 0 -1
    outer loop
      vertex 0 0 0
      vertex 5.10557 6.98302 0
      vertex 5.6 6.90469 0
    endloop
  endfacet
  facet normal 0 0 -1
    outer loop
      vertex 0 0 0
      vertex 5.6 6.90469 0
      vertex 6.09443 6.98302 0
    endloop
  endfacet
  facet normal 0 0 -1
    outer loop
      vertex 0 0 0
      vertex 6.09443 6.98302 0
      vertex 18.2938 0 0
    endloop
  endfacet
  facet normal 7.82934e-07 0.026177 0.999657
    outer loop
      vertex 0 0 2.22327
      vertex 10.9991 4.22178 2.11271
      vertex 5.6 6.95814 2.04106
    endloop
  endfacet
  facet normal 0 0.026179 0.999657
    outer loop
      vertex 0 0 2.22327
      vertex 18.2938 0 2.22327
      vertex 10.9991 4.22178 2.11271
    endloop
  endfacet
  facet normal 4.88591e-07 0.0261769 0.999657
    outer loop
      vertex 0 0 2.22327
      vertex 4 8.55759 1.99918
      vertex 0 17 1.77811
    endloop
  endfacet
  facet normal 3.28648e-05 0.0261618 0.999658
    outer loop
      vertex 0 0 2.22327
      vertex 4.03524 8.33516 2.005
      vertex 4 8.55759 1.99918
    endloop
  endfacet
  facet normal -9.61629e-06 0.0261823 0.999657
    outer loop
      vertex 0 0 2.22327
      vertex 4.07831 8.06333 2.01212
      vertex 4.03524 8.33516 2.005
    endloop
  endfacet
  facet normal 6.83838e-06 0.026174 0.999657
    outer loop
      vertex 0 0 2.22327
      vertex 4.2033 7.8181 2.01854
      vertex 4.07831 8.06333 2.01212
    endloop
  endfacet
  facet normal -2.68519e-05 0.0261921 0.999657
    outer loop
      vertex 0 0 2.22327
      vertex 4.30557 7.61745 2.0238
      vertex 4.2033 7.8181 2.01854
    endloop
  endfacet
  facet normal 1.063e-05 0.026171 0.999657
    outer loop
      vertex 0 0 2.22327
      vertex 4.65954 7.2636 2.03306
      vertex 4.30557 7.61745 2.0238
    endloop
  endfacet
  facet normal -1.51453e-06 0.0261787 0.999657
    outer loop
      vertex 0 0 2.22327
      vertex 5.10557 7.03642 2.03901
      vertex 4.65954 7.2636 2.03306
    endloop
  endfacet
  facet normal -2.03144e-07 0.0261778 0.999657
    outer loop
      vertex 0 0 2.22327
      vertex 5.6 6.95814 2.04106
      vertex 5.10557 7.03642 2.03901
    endloop
  endfacet
  facet normal 0 1 0
    outer loop
      vertex 0 17 0
      vertex 0 17 1.77811
      vertex 18.2938 17 0
    endloop
  endfacet
  facet normal 0 0 -1
    outer loop
      vertex 0 17 0
      vertex 18.2938 17 0
      vertex 6.09443 10.0274 0
    endloop
  endfacet
  facet normal 0 0 -1
    outer loop
      vertex 0 17 0
      vertex 4.07831 8.99983 0
      vertex 4 8.50524 0
    endloop
  endfacet
  facet normal 0 0 -1
    outer loop
      vertex 0 17 0
      vertex 4.30557 9.44602 0
      vertex 4.07831 8.99983 0
    endloop
  endfacet
  facet normal 0 0 -1
    outer loop
      vertex 0 17 0
      vertex 4.65954 9.80011 0
      vertex 4.30557 9.44602 0
    endloop
  endfacet
  facet normal 0 0 -1
    outer loop
      vertex 0 17 0
      vertex 5.10557 10.0274 0
      vertex 4.65954 9.80011 0
    endloop
  endfacet
  facet normal 0 0 -1
    outer loop
      vertex 0 17 0
      vertex 5.13524 10.0322 0
      vertex 5.10557 10.0274 0
    endloop
  endfacet
  facet normal 0 0 -1
    outer loop
      vertex 0 17 0
      vertex 5.6 10.1058 0
      vertex 5.13524 10.0322 0
    endloop
  endfacet
  facet normal 0 0 -1
    outer loop
      vertex 0 17 0
      vertex 6.06476 10.0322 0
      vertex 5.6 10.1058 0
    endloop
  endfacet
  facet normal 0 0 -1
    outer loop
      vertex 0 17 0
      vertex 6.09443 10.0274 0
      vertex 6.06476 10.0322 0
    endloop
  endfacet
  facet normal -0 0.0261769 0.999657
    outer loop
      vertex 0 17 1.77811
      vertex 10.2226 12.4991 1.89597
      vertex 18.2938 17 1.77811
    endloop
  endfacet
  facet normal 0 1 -0
    outer loop
      vertex 0 17 1.77811
      vertex 18.2938 17 1.77811
      vertex 18.2938 17 0
    endloop
  endfacet
  facet normal -7.22315e-06 0.0261733 0.999657
    outer loop
      vertex 0 17 1.77811
      vertex 4 8.55759 1.99918
      vertex 4.07831 9.05184 1.98624
    endloop
  endfacet
  facet normal 9.2401e-06 0.0261817 0.999657
    outer loop
      vertex 0 17 1.77811
      vertex 4.07831 9.05184 1.98624
      vertex 4.30557 9.49772 1.97456
    endloop
  endfacet
  facet normal 7.72701e-06 0.0261808 0.999657
    outer loop
      vertex 0 17 1.77811
      vertex 4.30557 9.49772 1.97456
      vertex 4.65954 9.85157 1.96529
    endloop
  endfacet
  facet normal 5.81596e-08 0.0261758 0.999657
    outer loop
      vertex 0 17 1.77811
      vertex 4.65954 9.85157 1.96529
      vertex 5.10557 10.0788 1.95934
    endloop
  endfacet
  facet normal -1.95715e-05 0.0261614 0.999658
    outer loop
      vertex 0 17 1.77811
      vertex 5.10557 10.0788 1.95934
      vertex 5.3775 10.1218 1.95822
    endloop
  endfacet
  facet normal 3.30493e-05 0.0262025 0.999657
    outer loop
      vertex 0 17 1.77811
      vertex 5.3775 10.1218 1.95822
      vertex 5.6 10.157 1.95729
    endloop
  endfacet
  facet normal -9.98982e-07 0.0261746 0.999657
    outer loop
      vertex 0 17 1.77811
      vertex 5.6 10.157 1.95729
      vertex 10.2226 12.4991 1.89597
    endloop
  endfacet
  facet normal 0 0.0261779 0.999657
    outer loop
      vertex 10.2226 12.4939 1.69603
      vertex 10.7414 10.3348 1.75257
      vertex 10.7414 12.4939 1.69603
    endloop
  endfacet
  facet normal 0 -0.999662 0.025999
    outer loop
      vertex 10.2226 12.4939 1.69603
      vertex 10.7414 12.4939 1.69603
      vertex 10.7414 12.4991 1.89597
    endloop
  endfacet
  facet normal 0 -0.999662 0.025999
    outer loop
      vertex 10.2226 12.4939 1.69603
      vertex 10.7414 12.4991 1.89597
      vertex 10.2226 12.4991 1.89597
    endloop
  endfacet
  facet normal 0 0.0261769 0.999657
    outer loop
      vertex 10.2226 12.4991 1.89597
      vertex 10.7414 12.4991 1.89597
      vertex 18.2938 17 1.77811
    endloop
  endfacet
  facet normal 0.823958 0.566457 -0.014818
    outer loop
      vertex 10.2226 5.34526 1.88323
      vertex 10.2226 5.35049 2.08316
      vertex 10.9991 4.22178 2.11271
    endloop
  endfacet
  facet normal 1 0 0
    outer loop
      vertex 10.2226 5.34526 1.88323
      vertex 10.2226 5.90792 1.86849
      vertex 10.2226 5.35049 2.08316
    endloop
  endfacet
  facet normal 5.42504e-06 0.026188 0.999657
    outer loop
      vertex 10.2226 5.34526 1.88323
      vertex 10.8058 5.29437 1.88456
      vertex 10.2226 5.90792 1.86849
    endloop
  endfacet
  facet normal 4.20363e-06 0.026174 0.999657
    outer loop
      vertex 10.2226 5.34526 1.88323
      vertex 10.9991 4.21654 1.91278
      vertex 10.8058 5.29437 1.88456
    endloop
  endfacet
  facet normal 0.82396 0.566453 -0.0148463
    outer loop
      vertex 10.2226 5.34526 1.88323
      vertex 10.9991 4.22178 2.11271
      vertex 10.9991 4.21654 1.91278
    endloop
  endfacet
  facet normal 1 0 0
    outer loop
      vertex 10.2226 5.35049 2.08316
      vertex 10.2226 5.90792 1.86849
      vertex 10.2226 5.91315 2.06842
    endloop
  endfacet
  facet normal 0 0.0261829 0.999657
    outer loop
      vertex 10.2226 5.90792 1.86849
      vertex 10.8058 5.29437 1.88456
      vertex 14.4813 5.90792 1.86849
    endloop
  endfacet
  facet normal 0 -0.999658 0.0261502
    outer loop
      vertex 10.2226 5.90792 1.86849
      vertex 14.4813 5.90792 1.86849
      vertex 14.4813 5.91315 2.06842
    endloop
  endfacet
  facet normal 0 -0.999658 0.0261502
    outer loop
      vertex 10.2226 5.90792 1.86849
      vertex 14.4813 5.91315 2.06842
      vertex 10.2226 5.91315 2.06842
    endloop
  endfacet
  facet normal 5.66033e-07 0.0261755 0.999657
    outer loop
      vertex 10.2226 5.91315 2.06842
      vertex 12.7927 9.62483 1.97123
      vertex 10.2226 9.78414 1.96706
    endloop
  endfacet
  facet normal -8.85687e-08 0.026176 0.999657
    outer loop
      vertex 10.2226 5.91315 2.06842
      vertex 14.2575 7.95823 2.01487
      vertex 12.7927 9.62483 1.97123
    endloop
  endfacet
  facet normal 0 0.0261748 0.999657
    outer loop
      vertex 10.2226 5.91315 2.06842
      vertex 14.4813 5.91315 2.06842
      vertex 14.4813 7.0757 2.03798
    endloop
  endfacet
  facet normal -5.76445e-07 0.026177 0.999657
    outer loop
      vertex 10.2226 5.91315 2.06842
      vertex 14.4813 7.0757 2.03798
      vertex 14.2575 7.95823 2.01487
    endloop
  endfacet
  facet normal 1 0 0
    outer loop
      vertex 10.2226 9.7789 1.76713
      vertex 10.2226 12.4939 1.69603
      vertex 10.2226 9.78414 1.96706
    endloop
  endfacet
  facet normal 0.0618844 0.997741 -0.02615
    outer loop
      vertex 10.2226 9.7789 1.76713
      vertex 10.2226 9.78414 1.96706
      vertex 12.7927 9.6196 1.7713
    endloop
  endfacet
  facet normal 4.19439e-06 0.0261789 0.999657
    outer loop
      vertex 10.2226 9.7789 1.76713
      vertex 10.7414 10.3348 1.75257
      vertex 10.2226 12.4939 1.69603
    endloop
  endfacet
  facet normal -5.21144e-07 0.0261833 0.999657
    outer loop
      vertex 10.2226 9.7789 1.76713
      vertex 12.257 10.2432 1.75497
      vertex 10.7414 10.3348 1.75257
    endloop
  endfacet
  facet normal 6.30477e-07 0.0261782 0.999657
    outer loop
      vertex 10.2226 9.7789 1.76713
      vertex 12.7927 9.6196 1.7713
      vertex 12.257 10.2432 1.75497
    endloop
  endfacet
  facet normal 1 0 0
    outer loop
      vertex 10.2226 9.78414 1.96706
      vertex 10.2226 12.4939 1.69603
      vertex 10.2226 12.4991 1.89597
    endloop
  endfacet
  facet normal 0.0618883 0.997742 -0.0261001
    outer loop
      vertex 10.2226 9.78414 1.96706
      vertex 12.7927 9.62483 1.97123
      vertex 12.7927 9.6196 1.7713
    endloop
  endfacet
  facet normal -1 0 -0
    outer loop
      vertex 10.7414 10.3348 1.75257
      vertex 10.7414 10.34 1.9525
      vertex 10.7414 12.4939 1.69603
    endloop
  endfacet
  facet normal -0.0603487 -0.99784 0.0259529
    outer loop
      vertex 10.7414 10.3348 1.75257
      vertex 12.257 10.2432 1.75497
      vertex 10.7414 10.34 1.9525
    endloop
  endfacet
  facet normal -1 0 0
    outer loop
      vertex 10.7414 10.34 1.9525
      vertex 10.7414 12.4991 1.89597
      vertex 10.7414 12.4939 1.69603
    endloop
  endfacet
  facet normal 1.78582e-06 0.0261732 0.999657
    outer loop
      vertex 10.7414 10.34 1.9525
      vertex 11.9519 11.2348 1.92907
      vertex 10.7414 12.4991 1.89597
    endloop
  endfacet
  facet normal 5.25975e-06 0.0261685 0.999658
    outer loop
      vertex 10.7414 10.34 1.9525
      vertex 11.9858 10.8631 1.9388
      vertex 11.9519 11.2348 1.92907
    endloop
  endfacet
  facet normal 1.44643e-06 0.0261776 0.999657
    outer loop
      vertex 10.7414 10.34 1.9525
      vertex 12.0875 10.5343 1.94741
      vertex 11.9858 10.8631 1.9388
    endloop
  endfacet
  facet normal -0.0602831 -0.997831 0.0264518
    outer loop
      vertex 10.7414 10.34 1.9525
      vertex 12.257 10.2432 1.75497
      vertex 12.257 10.2485 1.9549
    endloop
  endfacet
  facet normal -1.40022e-06 0.0261973 0.999657
    outer loop
      vertex 10.7414 10.34 1.9525
      vertex 12.257 10.2485 1.9549
      vertex 12.0875 10.5343 1.94741
    endloop
  endfacet
  facet normal -4.92463e-06 0.0261668 0.999658
    outer loop
      vertex 10.7414 12.4991 1.89597
      vertex 11.9519 11.2348 1.92907
      vertex 11.9978 11.673 1.9176
    endloop
  endfacet
  facet normal 2.46765e-06 0.0261781 0.999657
    outer loop
      vertex 10.7414 12.4991 1.89597
      vertex 11.9978 11.673 1.9176
      vertex 12.1357 12.0476 1.90779
    endloop
  endfacet
  facet normal 6.92187e-07 0.0261726 0.999657
    outer loop
      vertex 10.7414 12.4991 1.89597
      vertex 12.1357 12.0476 1.90779
      vertex 12.3655 12.3585 1.89965
    endloop
  endfacet
  facet normal 1.55549e-06 0.0261825 0.999657
    outer loop
      vertex 10.7414 12.4991 1.89597
      vertex 12.3655 12.3585 1.89965
      vertex 12.6692 12.591 1.89356
    endloop
  endfacet
  facet normal -6.73758e-07 0.0262293 0.999656
    outer loop
      vertex 10.7414 12.4991 1.89597
      vertex 12.6692 12.591 1.89356
      vertex 13.0285 12.7305 1.8899
    endloop
  endfacet
  facet normal 5.5746e-06 0.0261676 0.999658
    outer loop
      vertex 10.7414 12.4991 1.89597
      vertex 13.0285 12.7305 1.8899
      vertex 18.2938 17 1.77811
    endloop
  endfacet
  facet normal 0 0.999657 -0.0262002
    outer loop
      vertex 10.8058 5.29437 1.88456
      vertex 10.8058 5.29961 2.08449
      vertex 14.4813 5.29437 1.88456
    endloop
  endfacet
  facet normal 0 0.0261733 0.999657
    outer loop
      vertex 10.8058 5.29437 1.88456
      vertex 10.9991 4.21654 1.91278
      vertex 11.5755 4.21654 1.91278
    endloop
  endfacet
  facet normal -0.813891 -0.580818 0.0152227
    outer loop
      vertex 10.8058 5.29437 1.88456
      vertex 11.5755 4.21654 1.91278
      vertex 11.5755 4.22178 2.11271
    endloop
  endfacet
  facet normal -0.813891 -0.580818 0.0152227
    outer loop
      vertex 10.8058 5.29437 1.88456
      vertex 11.5755 4.22178 2.11271
      vertex 10.8058 5.29961 2.08449
    endloop
  endfacet
  facet normal 0 0.0261829 0.999657
    outer loop
      vertex 10.8058 5.29437 1.88456
      vertex 14.4813 5.29437 1.88456
      vertex 14.4813 5.90792 1.86849
    endloop
  endfacet
  facet normal 0 0.0261733 0.999657
    outer loop
      vertex 10.8058 5.29961 2.08449
      vertex 11.5755 4.22178 2.11271
      vertex 14.4813 5.29961 2.08449
    endloop
  endfacet
  facet normal 0 0.999657 -0.0262002
    outer loop
      vertex 10.8058 5.29961 2.08449
      vertex 14.4813 5.29961 2.08449
      vertex 14.4813 5.29437 1.88456
    endloop
  endfacet
  facet normal 0 0.999657 -0.0262002
    outer loop
      vertex 10.9991 4.21654 1.91278
      vertex 10.9991 4.22178 2.11271
      vertex 11.5755 4.21654 1.91278
    endloop
  endfacet
  facet normal 0 0.999657 -0.0262002
    outer loop
      vertex 10.9991 4.22178 2.11271
      vertex 11.5755 4.22178 2.11271
      vertex 11.5755 4.21654 1.91278
    endloop
  endfacet
  facet normal -0 0.026179 0.999657
    outer loop
      vertex 10.9991 4.22178 2.11271
      vertex 18.2938 0 2.22327
      vertex 11.5755 4.22178 2.11271
    endloop
  endfacet
  facet normal -6.02839e-07 0.0261749 0.999657
    outer loop
      vertex 11.5755 4.22178 2.11271
      vertex 14.4813 4.08283 2.11635
      vertex 14.4813 5.29961 2.08449
    endloop
  endfacet
  facet normal -4.38101e-07 0.0261783 0.999657
    outer loop
      vertex 11.5755 4.22178 2.11271
      vertex 18.2938 0 2.22327
      vertex 14.4813 4.08283 2.11635
    endloop
  endfacet
  facet normal 0.99587 0.0907641 -0.00236069
    outer loop
      vertex 11.9519 11.2296 1.72914
      vertex 11.9519 11.2348 1.92907
      vertex 11.9858 10.8631 1.9388
    endloop
  endfacet
  facet normal 5.33506e-06 0.0261685 0.999658
    outer loop
      vertex 11.9519 11.2296 1.72914
      vertex 11.9858 10.8579 1.73887
      vertex 12.4503 11.1042 1.73242
    endloop
  endfacet
  facet normal 0.99587 0.0907641 -0.00236069
    outer loop
      vertex 11.9519 11.2296 1.72914
      vertex 11.9858 10.8631 1.9388
      vertex 11.9858 10.8579 1.73887
    endloop
  endfacet
  facet normal 0.994563 -0.104106 0.00270771
    outer loop
      vertex 11.9519 11.2296 1.72914
      vertex 11.9978 11.6678 1.71766
      vertex 11.9519 11.2348 1.92907
    endloop
  endfacet
  facet normal 1.44558e-06 0.0261531 0.999658
    outer loop
      vertex 11.9519 11.2296 1.72914
      vertex 12.4503 11.1042 1.73242
      vertex 12.4812 11.3989 1.72471
    endloop
  endfacet
  facet normal -1.04261e-05 0.0261902 0.999657
    outer loop
      vertex 11.9519 11.2296 1.72914
      vertex 12.4812 11.3989 1.72471
      vertex 11.9978 11.6678 1.71766
    endloop
  endfacet
  facet normal 0.994562 -0.104106 0.00270758
    outer loop
      vertex 11.9519 11.2348 1.92907
      vertex 11.9978 11.6678 1.71766
      vertex 11.9978 11.673 1.9176
    endloop
  endfacet
  facet normal 0.955373 0.295302 -0.00768054
    outer loop
      vertex 11.9858 10.8579 1.73887
      vertex 11.9858 10.8631 1.9388
      vertex 12.0875 10.5343 1.94741
    endloop
  endfacet
  facet normal 3.12298e-06 0.0261781 0.999657
    outer loop
      vertex 11.9858 10.8579 1.73887
      vertex 12.0875 10.5291 1.74748
      vertex 12.4589 10.943 1.73664
    endloop
  endfacet
  facet normal 0.955373 0.295302 -0.00768054
    outer loop
      vertex 11.9858 10.8579 1.73887
      vertex 12.0875 10.5343 1.94741
      vertex 12.0875 10.5291 1.74748
    endloop
  endfacet
  facet normal 4.59609e-06 0.0261699 0.999658
    outer loop
      vertex 11.9858 10.8579 1.73887
      vertex 12.4589 10.943 1.73664
      vertex 12.4503 11.1042 1.73242
    endloop
  endfacet
  facet normal 0.938441 -0.345322 0.00898106
    outer loop
      vertex 11.9978 11.6678 1.71766
      vertex 12.1357 12.0423 1.70786
      vertex 11.9978 11.673 1.9176
    endloop
  endfacet
  facet normal -2.17781e-06 0.026205 0.999657
    outer loop
      vertex 11.9978 11.6678 1.71766
      vertex 12.4812 11.3989 1.72471
      vertex 12.5738 11.6503 1.71812
    endloop
  endfacet
  facet normal -3.52887e-06 0.0261606 0.999658
    outer loop
      vertex 11.9978 11.6678 1.71766
      vertex 12.5738 11.6503 1.71812
      vertex 12.1357 12.0423 1.70786
    endloop
  endfacet
  facet normal 0.938471 -0.345236 0.00915196
    outer loop
      vertex 11.9978 11.673 1.9176
      vertex 12.1357 12.0423 1.70786
      vertex 12.1357 12.0476 1.90779
    endloop
  endfacet
  facet normal 0.860187 0.509806 -0.0132596
    outer loop
      vertex 12.0875 10.5291 1.74748
      vertex 12.0875 10.5343 1.94741
      vertex 12.257 10.2485 1.9549
    endloop
  endfacet
  facet normal 1.59544e-06 0.0261899 0.999657
    outer loop
      vertex 12.0875 10.5291 1.74748
      vertex 12.257 10.2432 1.75497
      vertex 12.5283 10.6432 1.74449
    endloop
  endfacet
  facet normal 0.860266 0.509667 -0.0135109
    outer loop
      vertex 12.0875 10.5291 1.74748
      vertex 12.257 10.2485 1.9549
      vertex 12.257 10.2432 1.75497
    endloop
  endfacet
  facet normal -2.81278e-05 0.0262061 0.999657
    outer loop
      vertex 12.0875 10.5291 1.74748
      vertex 12.4849 10.7893 1.74067
      vertex 12.4589 10.943 1.73664
    endloop
  endfacet
  facet normal 1.40826e-05 0.0261417 0.999658
    outer loop
      vertex 12.0875 10.5291 1.74748
      vertex 12.5283 10.6432 1.74449
      vertex 12.4849 10.7893 1.74067
    endloop
  endfacet
  facet normal 0.804268 -0.594058 0.015748
    outer loop
      vertex 12.1357 12.0423 1.70786
      vertex 12.3655 12.3532 1.69972
      vertex 12.1357 12.0476 1.90779
    endloop
  endfacet
  facet normal -1.05443e-05 0.0261527 0.999658
    outer loop
      vertex 12.1357 12.0423 1.70786
      vertex 12.5738 11.6503 1.71812
      vertex 12.7283 11.8583 1.71268
    endloop
  endfacet
  facet normal -3.43336e-06 0.0261756 0.999657
    outer loop
      vertex 12.1357 12.0423 1.70786
      vertex 12.7283 11.8583 1.71268
      vertex 12.3655 12.3532 1.69972
    endloop
  endfacet
  facet normal 0.804268 -0.594058 0.015748
    outer loop
      vertex 12.1357 12.0476 1.90779
      vertex 12.3655 12.3532 1.69972
      vertex 12.3655 12.3585 1.89965
    endloop
  endfacet
  facet normal -1.08364e-05 0.0261984 0.999657
    outer loop
      vertex 12.257 10.2432 1.75497
      vertex 12.5923 10.5009 1.74822
      vertex 12.5283 10.6432 1.74449
    endloop
  endfacet
  facet normal -2.97981e-07 0.0261847 0.999657
    outer loop
      vertex 12.257 10.2432 1.75497
      vertex 12.6804 10.3585 1.75195
      vertex 12.5923 10.5009 1.74822
    endloop
  endfacet
  facet normal -2.86629e-07 0.0261846 0.999657
    outer loop
      vertex 12.257 10.2432 1.75497
      vertex 12.7927 10.2161 1.75568
      vertex 12.6804 10.3585 1.75195
    endloop
  endfacet
  facet normal -6.66344e-07 0.0261771 0.999657
    outer loop
      vertex 12.257 10.2432 1.75497
      vertex 12.7927 9.6196 1.7713
      vertex 12.7927 10.2161 1.75568
    endloop
  endfacet
  facet normal 0.608173 -0.793536 0.0206392
    outer loop
      vertex 12.3655 12.3532 1.69972
      vertex 12.6692 12.5858 1.69363
      vertex 12.6692 12.591 1.89356
    endloop
  endfacet
  facet normal 0.608008 -0.793652 0.0210391
    outer loop
      vertex 12.3655 12.3532 1.69972
      vertex 12.6692 12.591 1.89356
      vertex 12.3655 12.3585 1.89965
    endloop
  endfacet
  facet normal 1.64247e-06 0.0261793 0.999657
    outer loop
      vertex 12.3655 12.3532 1.69972
      vertex 12.7283 11.8583 1.71268
      vertex 12.9329 12.0137 1.70861
    endloop
  endfacet
  facet normal -1.10136e-06 0.0261748 0.999657
    outer loop
      vertex 12.3655 12.3532 1.69972
      vertex 12.9329 12.0137 1.70861
      vertex 12.6692 12.5858 1.69363
    endloop
  endfacet
  facet normal -0.994552 0.10421 -0.00271028
    outer loop
      vertex 12.4503 11.1042 1.73242
      vertex 12.4503 11.1094 1.93236
      vertex 12.4812 11.3989 1.72471
    endloop
  endfacet
  facet normal -0.998581 -0.0532379 0.0013846
    outer loop
      vertex 12.4503 11.1042 1.73242
      vertex 12.4589 10.943 1.73664
      vertex 12.4589 10.9482 1.93658
    endloop
  endfacet
  facet normal -0.998581 -0.0532379 0.0013846
    outer loop
      vertex 12.4503 11.1042 1.73242
      vertex 12.4589 10.9482 1.93658
      vertex 12.4503 11.1094 1.93236
    endloop
  endfacet
  facet normal 1.55303e-05 0.0261705 0.999657
    outer loop
      vertex 12.4503 11.1094 1.93236
      vertex 12.4589 10.9482 1.93658
      vertex 13.4573 12.1432 1.90528
    endloop
  endfacet
  facet normal -0.994552 0.10421 -0.00271041
    outer loop
      vertex 12.4503 11.1094 1.93236
      vertex 12.4812 11.4041 1.92464
      vertex 12.4812 11.3989 1.72471
    endloop
  endfacet
  facet normal -1.73644e-06 0.0261873 0.999657
    outer loop
      vertex 12.4503 11.1094 1.93236
      vertex 13.4573 12.1432 1.90528
      vertex 12.4812 11.4041 1.92464
    endloop
  endfacet
  facet normal -0.986002 -0.166677 0.00441848
    outer loop
      vertex 12.4589 10.943 1.73664
      vertex 12.4849 10.7893 1.74067
      vertex 12.4849 10.7946 1.9406
    endloop
  endfacet
  facet normal -0.985984 -0.166785 0.00433771
    outer loop
      vertex 12.4589 10.943 1.73664
      vertex 12.4849 10.7946 1.9406
      vertex 12.4589 10.9482 1.93658
    endloop
  endfacet
  facet normal -1.13537e-05 0.026161 0.999658
    outer loop
      vertex 12.4589 10.9482 1.93658
      vertex 12.4849 10.7946 1.9406
      vertex 13.8608 10.1028 1.95872
    endloop
  endfacet
  facet normal 1.47608e-06 0.0261823 0.999657
    outer loop
      vertex 12.4589 10.9482 1.93658
      vertex 13.8608 10.1028 1.95872
      vertex 13.4573 12.1432 1.90528
    endloop
  endfacet
  facet normal -0.938407 0.345415 -0.00898393
    outer loop
      vertex 12.4812 11.3989 1.72471
      vertex 12.4812 11.4041 1.92464
      vertex 12.5738 11.6503 1.71812
    endloop
  endfacet
  facet normal -0.938407 0.345415 -0.00898349
    outer loop
      vertex 12.4812 11.4041 1.92464
      vertex 12.5738 11.6555 1.91806
      vertex 12.5738 11.6503 1.71812
    endloop
  endfacet
  facet normal 4.24968e-05 0.0261488 0.999658
    outer loop
      vertex 12.4812 11.4041 1.92464
      vertex 12.7283 11.8636 1.91261
      vertex 12.5738 11.6555 1.91806
    endloop
  endfacet
  facet normal 3.42448e-05 0.0261533 0.999658
    outer loop
      vertex 12.4812 11.4041 1.92464
      vertex 12.9329 12.0189 1.90854
      vertex 12.7283 11.8636 1.91261
    endloop
  endfacet
  facet normal -1.88197e-05 0.0261922 0.999657
    outer loop
      vertex 12.4812 11.4041 1.92464
      vertex 13.1758 12.1122 1.9061
      vertex 12.9329 12.0189 1.90854
    endloop
  endfacet
  facet normal 3.31837e-05 0.0261412 0.999658
    outer loop
      vertex 12.4812 11.4041 1.92464
      vertex 13.4573 12.1432 1.90528
      vertex 13.1758 12.1122 1.9061
    endloop
  endfacet
  facet normal -0.958626 -0.284573 0.00740111
    outer loop
      vertex 12.4849 10.7893 1.74067
      vertex 12.5283 10.6432 1.74449
      vertex 12.5283 10.6484 1.94443
    endloop
  endfacet
  facet normal -0.958679 -0.28439 0.00753897
    outer loop
      vertex 12.4849 10.7893 1.74067
      vertex 12.5283 10.6484 1.94443
      vertex 12.4849 10.7946 1.9406
    endloop
  endfacet
  facet normal 2.62864e-06 0.0261888 0.999657
    outer loop
      vertex 12.4849 10.7946 1.9406
      vertex 12.5283 10.6484 1.94443
      vertex 13.8608 10.1028 1.95872
    endloop
  endfacet
  facet normal -0.912058 -0.409922 0.0106617
    outer loop
      vertex 12.5283 10.6432 1.74449
      vertex 12.5923 10.5009 1.74822
      vertex 12.5923 10.5061 1.94815
    endloop
  endfacet
  facet normal -0.912058 -0.409923 0.0106612
    outer loop
      vertex 12.5283 10.6432 1.74449
      vertex 12.5923 10.5061 1.94815
      vertex 12.5283 10.6484 1.94443
    endloop
  endfacet
  facet normal -2.4782e-05 0.0261219 0.999659
    outer loop
      vertex 12.5283 10.6484 1.94443
      vertex 12.5923 10.5061 1.94815
      vertex 13.8608 10.1028 1.95872
    endloop
  endfacet
  facet normal -0.802868 0.595956 -0.0154995
    outer loop
      vertex 12.5738 11.6503 1.71812
      vertex 12.5738 11.6555 1.91806
      vertex 12.7283 11.8583 1.71268
    endloop
  endfacet
  facet normal -0.803005 0.595763 -0.0157932
    outer loop
      vertex 12.5738 11.6555 1.91806
      vertex 12.7283 11.8636 1.91261
      vertex 12.7283 11.8583 1.71268
    endloop
  endfacet
  facet normal -0.850486 -0.52582 0.0136761
    outer loop
      vertex 12.5923 10.5009 1.74822
      vertex 12.6804 10.3585 1.75195
      vertex 12.6804 10.3637 1.95188
    endloop
  endfacet
  facet normal -0.850486 -0.52582 0.0136761
    outer loop
      vertex 12.5923 10.5009 1.74822
      vertex 12.6804 10.3637 1.95188
      vertex 12.5923 10.5061 1.94815
    endloop
  endfacet
  facet normal -5.91788e-06 0.0261812 0.999657
    outer loop
      vertex 12.5923 10.5061 1.94815
      vertex 12.6804 10.3637 1.95188
      vertex 13.8608 10.1028 1.95872
    endloop
  endfacet
  facet normal -1.29588e-06 0.0261747 0.999657
    outer loop
      vertex 12.6692 12.5858 1.69363
      vertex 12.9329 12.0137 1.70861
      vertex 13.1758 12.1069 1.70617
    endloop
  endfacet
  facet normal 0.362041 -0.931847 0.0242365
    outer loop
      vertex 12.6692 12.5858 1.69363
      vertex 13.0285 12.7253 1.68997
      vertex 13.0285 12.7305 1.8899
    endloop
  endfacet
  facet normal 0.362041 -0.931847 0.0242365
    outer loop
      vertex 12.6692 12.5858 1.69363
      vertex 13.0285 12.7305 1.8899
      vertex 12.6692 12.591 1.89356
    endloop
  endfacet
  facet normal 1.41832e-05 0.026191 0.999657
    outer loop
      vertex 12.6692 12.5858 1.69363
      vertex 13.1758 12.1069 1.70617
      vertex 13.0285 12.7253 1.68997
    endloop
  endfacet
  facet normal -0.785311 -0.618885 0.0164062
    outer loop
      vertex 12.6804 10.3585 1.75195
      vertex 12.7927 10.2161 1.75568
      vertex 12.7927 10.2214 1.95561
    endloop
  endfacet
  facet normal -0.785099 -0.619161 0.0161038
    outer loop
      vertex 12.6804 10.3585 1.75195
      vertex 12.7927 10.2214 1.95561
      vertex 12.6804 10.3637 1.95188
    endloop
  endfacet
  facet normal -1.26154e-06 0.0262022 0.999657
    outer loop
      vertex 12.6804 10.3637 1.95188
      vertex 12.7927 10.2214 1.95561
      vertex 13.8608 10.1028 1.95872
    endloop
  endfacet
  facet normal -0.604731 0.79615 -0.0211054
    outer loop
      vertex 12.7283 11.8583 1.71268
      vertex 12.7283 11.8636 1.91261
      vertex 12.9329 12.0189 1.90854
    endloop
  endfacet
  facet normal -0.604978 0.795973 -0.0207025
    outer loop
      vertex 12.7283 11.8583 1.71268
      vertex 12.9329 12.0189 1.90854
      vertex 12.9329 12.0137 1.70861
    endloop
  endfacet
  facet normal -1 0 -0
    outer loop
      vertex 12.7927 9.6196 1.7713
      vertex 12.7927 9.62483 1.97123
      vertex 12.7927 10.2161 1.75568
    endloop
  endfacet
  facet normal -1 0 0
    outer loop
      vertex 12.7927 9.62483 1.97123
      vertex 12.7927 10.2214 1.95561
      vertex 12.7927 10.2161 1.75568
    endloop
  endfacet
  facet normal -4.39384e-06 0.026174 0.999657
    outer loop
      vertex 12.7927 9.62483 1.97123
      vertex 13.8608 10.1028 1.95872
      vertex 12.7927 10.2214 1.95561
    endloop
  endfacet
  facet normal -2.41117e-06 0.0261696 0.999658
    outer loop
      vertex 12.7927 9.62483 1.97123
      vertex 13.932 9.48589 1.97487
      vertex 13.8608 10.1028 1.95872
    endloop
  endfacet
  facet normal -1.07066e-05 0.0261667 0.999658
    outer loop
      vertex 12.7927 9.62483 1.97123
      vertex 14.2575 7.95823 2.01487
      vertex 14.2575 8.61915 1.99757
    endloop
  endfacet
  facet normal -1.05626e-06 0.0261807 0.999657
    outer loop
      vertex 12.7927 9.62483 1.97123
      vertex 14.2575 8.61915 1.99757
      vertex 13.932 9.48589 1.97487
    endloop
  endfacet
  facet normal -0.358674 0.933147 -0.0242703
    outer loop
      vertex 12.9329 12.0137 1.70861
      vertex 12.9329 12.0189 1.90854
      vertex 13.1758 12.1122 1.9061
    endloop
  endfacet
  facet normal -0.358339 0.933264 -0.0247401
    outer loop
      vertex 12.9329 12.0137 1.70861
      vertex 13.1758 12.1122 1.9061
      vertex 13.1758 12.1069 1.70617
    endloop
  endfacet
  facet normal 4.35344e-06 0.0261887 0.999657
    outer loop
      vertex 13.0285 12.7253 1.68997
      vertex 13.1758 12.1069 1.70617
      vertex 13.4437 12.7718 1.68875
    endloop
  endfacet
  facet normal 0.111336 -0.993434 0.0263339
    outer loop
      vertex 13.0285 12.7253 1.68997
      vertex 13.4437 12.7718 1.68875
      vertex 13.4437 12.7771 1.88869
    endloop
  endfacet
  facet normal 0.111572 -0.99342 0.025838
    outer loop
      vertex 13.0285 12.7253 1.68997
      vertex 13.4437 12.7771 1.88869
      vertex 13.0285 12.7305 1.8899
    endloop
  endfacet
  facet normal -2.83528e-05 0.0262094 0.999656
    outer loop
      vertex 13.0285 12.7305 1.8899
      vertex 13.4437 12.7771 1.88869
      vertex 18.2938 17 1.77811
    endloop
  endfacet
  facet normal -0.1095 0.993638 -0.0263406
    outer loop
      vertex 13.1758 12.1069 1.70617
      vertex 13.1758 12.1122 1.9061
      vertex 13.4573 12.1432 1.90528
    endloop
  endfacet
  facet normal 1.93182e-05 0.0261827 0.999657
    outer loop
      vertex 13.1758 12.1069 1.70617
      vertex 13.4573 12.138 1.70535
      vertex 13.4437 12.7718 1.68875
    endloop
  endfacet
  facet normal -0.109849 0.993612 -0.025843
    outer loop
      vertex 13.1758 12.1069 1.70617
      vertex 13.4573 12.1432 1.90528
      vertex 13.4573 12.138 1.70535
    endloop
  endfacet
  facet normal -6.54218e-06 0.0261821 0.999657
    outer loop
      vertex 13.4437 12.7718 1.68875
      vertex 13.4573 12.138 1.70535
      vertex 13.912 12.7219 1.69006
    endloop
  endfacet
  facet normal -0.105992 -0.994018 0.0263494
    outer loop
      vertex 13.4437 12.7718 1.68875
      vertex 13.912 12.7219 1.69006
      vertex 13.4437 12.7771 1.88869
    endloop
  endfacet
  facet normal -0.106201 -0.994009 0.0258533
    outer loop
      vertex 13.4437 12.7771 1.88869
      vertex 13.912 12.7219 1.69006
      vertex 13.912 12.7271 1.88999
    endloop
  endfacet
  facet normal 1.76644e-05 0.0261565 0.999658
    outer loop
      vertex 13.4437 12.7771 1.88869
      vertex 13.912 12.7271 1.88999
      vertex 18.2938 17 1.77811
    endloop
  endfacet
  facet normal 0.0958218 0.995062 -0.0258807
    outer loop
      vertex 13.4573 12.138 1.70535
      vertex 13.4573 12.1432 1.90528
      vertex 13.7784 12.1071 1.70616
    endloop
  endfacet
  facet normal -2.47012e-06 0.0261789 0.999657
    outer loop
      vertex 13.4573 12.138 1.70535
      vertex 13.7784 12.1071 1.70616
      vertex 13.912 12.7219 1.69006
    endloop
  endfacet
  facet normal 0.0958218 0.995062 -0.0258807
    outer loop
      vertex 13.4573 12.1432 1.90528
      vertex 13.7784 12.1123 1.90609
      vertex 13.7784 12.1071 1.70616
    endloop
  endfacet
  facet normal -2.2211e-06 0.0261815 0.999657
    outer loop
      vertex 13.4573 12.1432 1.90528
      vertex 13.8608 10.1028 1.95872
      vertex 13.7784 12.1123 1.90609
    endloop
  endfacet
  facet normal 0.322483 0.946255 -0.0246113
    outer loop
      vertex 13.7784 12.1071 1.70616
      vertex 13.7784 12.1123 1.90609
      vertex 14.0503 12.0145 1.70859
    endloop
  endfacet
  facet normal -1.32383e-05 0.026194 0.999657
    outer loop
      vertex 13.7784 12.1071 1.70616
      vertex 14.0503 12.0145 1.70859
      vertex 14.3087 12.5722 1.69398
    endloop
  endfacet
  facet normal 5.83374e-07 0.0261783 0.999657
    outer loop
      vertex 13.7784 12.1071 1.70616
      vertex 14.3087 12.5722 1.69398
      vertex 13.912 12.7219 1.69006
    endloop
  endfacet
  facet normal 1.60661e-07 0.0261816 0.999657
    outer loop
      vertex 13.7784 12.1123 1.90609
      vertex 13.8608 10.1028 1.95872
      vertex 14.5694 11.0959 1.93271
    endloop
  endfacet
  facet normal 0.322483 0.946255 -0.0246113
    outer loop
      vertex 13.7784 12.1123 1.90609
      vertex 14.0503 12.0197 1.90852
      vertex 14.0503 12.0145 1.70859
    endloop
  endfacet
  facet normal -2.7992e-05 0.0261507 0.999658
    outer loop
      vertex 13.7784 12.1123 1.90609
      vertex 14.5365 11.3998 1.92475
      vertex 14.0503 12.0197 1.90852
    endloop
  endfacet
  facet normal 3.50697e-06 0.0261842 0.999657
    outer loop
      vertex 13.7784 12.1123 1.90609
      vertex 14.5694 11.0959 1.93271
      vertex 14.5365 11.3998 1.92475
    endloop
  endfacet
  facet normal 0.99341 0.114574 -0.00303712
    outer loop
      vertex 13.8608 10.0975 1.75878
      vertex 13.8608 10.1028 1.95872
      vertex 13.932 9.48589 1.97487
    endloop
  endfacet
  facet normal -7.08997e-06 0.0261878 0.999657
    outer loop
      vertex 13.8608 10.0975 1.75878
      vertex 13.932 9.48065 1.77494
      vertex 14.2714 9.58648 1.77217
    endloop
  endfacet
  facet normal 0.993409 0.114586 -0.0030032
    outer loop
      vertex 13.8608 10.0975 1.75878
      vertex 13.932 9.48589 1.97487
      vertex 13.932 9.48065 1.77494
    endloop
  endfacet
  facet normal 0.446153 -0.894642 0.0237163
    outer loop
      vertex 13.8608 10.0975 1.75878
      vertex 14.2545 10.2937 1.75365
      vertex 14.2545 10.299 1.95358
    endloop
  endfacet
  facet normal 0.446154 -0.894642 0.0237151
    outer loop
      vertex 13.8608 10.0975 1.75878
      vertex 14.2545 10.299 1.95358
      vertex 13.8608 10.1028 1.95872
    endloop
  endfacet
  facet normal -1.98173e-05 0.0261776 0.999657
    outer loop
      vertex 13.8608 10.0975 1.75878
      vertex 14.2714 9.58648 1.77217
      vertex 14.2545 10.2937 1.75365
    endloop
  endfacet
  facet normal 3.40472e-06 0.0261819 0.999657
    outer loop
      vertex 13.8608 10.1028 1.95872
      vertex 14.2545 10.299 1.95358
      vertex 14.4907 10.63 1.94491
    endloop
  endfacet
  facet normal 8.88259e-06 0.0261754 0.999657
    outer loop
      vertex 13.8608 10.1028 1.95872
      vertex 14.4907 10.63 1.94491
      vertex 14.5694 11.0959 1.93271
    endloop
  endfacet
  facet normal -0.353167 -0.935244 0.0243249
    outer loop
      vertex 13.912 12.7219 1.69006
      vertex 14.3087 12.5722 1.69398
      vertex 13.912 12.7271 1.88999
    endloop
  endfacet
  facet normal -0.353167 -0.935244 0.0243249
    outer loop
      vertex 13.912 12.7271 1.88999
      vertex 14.3087 12.5722 1.69398
      vertex 14.3087 12.5774 1.89391
    endloop
  endfacet
  facet normal -5.6637e-07 0.0261752 0.999657
    outer loop
      vertex 13.912 12.7271 1.88999
      vertex 14.3087 12.5774 1.89391
      vertex 18.2938 17 1.77811
    endloop
  endfacet
  facet normal -0.297772 0.954309 -0.0250117
    outer loop
      vertex 13.932 9.48065 1.77494
      vertex 13.932 9.48589 1.97487
      vertex 14.2714 9.59172 1.9721
    endloop
  endfacet
  facet normal -0.297772 0.954309 -0.0250117
    outer loop
      vertex 13.932 9.48065 1.77494
      vertex 14.2714 9.59172 1.9721
      vertex 14.2714 9.58648 1.77217
    endloop
  endfacet
  facet normal -4.47538e-06 0.0261794 0.999657
    outer loop
      vertex 13.932 9.48589 1.97487
      vertex 14.2575 8.61915 1.99757
      vertex 14.2714 9.59172 1.9721
    endloop
  endfacet
  facet normal 0.570493 0.821025 -0.0213541
    outer loop
      vertex 14.0503 12.0145 1.70859
      vertex 14.0503 12.0197 1.90852
      vertex 14.2728 11.86 1.71263
    endloop
  endfacet
  facet normal 1.06248e-05 0.0261552 0.999658
    outer loop
      vertex 14.0503 12.0145 1.70859
      vertex 14.2728 11.86 1.71263
      vertex 14.6338 12.3227 1.70052
    endloop
  endfacet
  facet normal -8.79757e-06 0.026192 0.999657
    outer loop
      vertex 14.0503 12.0145 1.70859
      vertex 14.6338 12.3227 1.70052
      vertex 14.3087 12.5722 1.69398
    endloop
  endfacet
  facet normal 0.570244 0.821187 -0.0217691
    outer loop
      vertex 14.0503 12.0197 1.90852
      vertex 14.2728 11.8653 1.91256
      vertex 14.2728 11.86 1.71263
    endloop
  endfacet
  facet normal 8.31725e-05 0.0262766 0.999655
    outer loop
      vertex 14.0503 12.0197 1.90852
      vertex 14.4376 11.6563 1.91804
      vertex 14.2728 11.8653 1.91256
    endloop
  endfacet
  facet normal -5.46482e-05 0.0261298 0.999659
    outer loop
      vertex 14.0503 12.0197 1.90852
      vertex 14.5365 11.3998 1.92475
      vertex 14.4376 11.6563 1.91804
    endloop
  endfacet
  facet normal 1.24979e-05 0.0261784 0.999657
    outer loop
      vertex 14.2545 10.2937 1.75365
      vertex 14.2714 9.58648 1.77217
      vertex 14.5528 9.75933 1.76764
    endloop
  endfacet
  facet normal 0.814176 -0.580414 0.0153864
    outer loop
      vertex 14.2545 10.2937 1.75365
      vertex 14.4907 10.6248 1.74498
      vertex 14.2545 10.299 1.95358
    endloop
  endfacet
  facet normal -1.87115e-06 0.0261704 0.999657
    outer loop
      vertex 14.2545 10.2937 1.75365
      vertex 14.5528 9.75933 1.76764
      vertex 14.7762 9.99923 1.76136
    endloop
  endfacet
  facet normal 5.2067e-06 0.0261829 0.999657
    outer loop
      vertex 14.2545 10.2937 1.75365
      vertex 14.7762 9.99923 1.76136
      vertex 14.9382 10.3012 1.75345
    endloop
  endfacet
  facet normal 5.31871e-06 0.0261727 0.999657
    outer loop
      vertex 14.2545 10.2937 1.75365
      vertex 14.9382 10.3012 1.75345
      vertex 14.4907 10.6248 1.74498
    endloop
  endfacet
  facet normal 0.814093 -0.580538 0.0150993
    outer loop
      vertex 14.2545 10.299 1.95358
      vertex 14.4907 10.6248 1.74498
      vertex 14.4907 10.63 1.94491
    endloop
  endfacet
  facet normal 0 0.999657 -0.0262002
    outer loop
      vertex 14.2575 7.95299 1.81494
      vertex 14.2575 7.95823 2.01487
      vertex 15 7.95299 1.81494
    endloop
  endfacet
  facet normal 1 0 0
    outer loop
      vertex 14.2575 7.95299 1.81494
      vertex 14.2575 8.61391 1.79763
      vertex 14.2575 7.95823 2.01487
    endloop
  endfacet
  facet normal 0 0.0261818 0.999657
    outer loop
      vertex 14.2575 7.95299 1.81494
      vertex 15 7.95299 1.81494
      vertex 14.2575 8.61391 1.79763
    endloop
  endfacet
  facet normal 1 0 0
    outer loop
      vertex 14.2575 7.95823 2.01487
      vertex 14.2575 8.61391 1.79763
      vertex 14.2575 8.61915 1.99757
    endloop
  endfacet
  facet normal -0 0.0261771 0.999657
    outer loop
      vertex 14.2575 7.95823 2.01487
      vertex 14.4813 7.0757 2.03798
      vertex 15 7.95823 2.01487
    endloop
  endfacet
  facet normal 0 0.999657 -0.0262002
    outer loop
      vertex 14.2575 7.95823 2.01487
      vertex 15 7.95823 2.01487
      vertex 15 7.95299 1.81494
    endloop
  endfacet
  facet normal -0 0.0261818 0.999657
    outer loop
      vertex 14.2575 8.61391 1.79763
      vertex 15 7.95299 1.81494
      vertex 15 8.61391 1.79763
    endloop
  endfacet
  facet normal 0 -0.999657 0.0261989
    outer loop
      vertex 14.2575 8.61391 1.79763
      vertex 15 8.61391 1.79763
      vertex 15 8.61915 1.99757
    endloop
  endfacet
  facet normal 0 -0.999657 0.0261989
    outer loop
      vertex 14.2575 8.61391 1.79763
      vertex 15 8.61915 1.99757
      vertex 14.2575 8.61915 1.99757
    endloop
  endfacet
  facet normal 0 0.0261794 0.999657
    outer loop
      vertex 14.2575 8.61915 1.99757
      vertex 15 8.61915 1.99757
      vertex 14.2714 9.59172 1.9721
    endloop
  endfacet
  facet normal -0.523527 0.851717 -0.0223228
    outer loop
      vertex 14.2714 9.58648 1.77217
      vertex 14.2714 9.59172 1.9721
      vertex 14.5528 9.76457 1.96757
    endloop
  endfacet
  facet normal -0.523527 0.851717 -0.0223228
    outer loop
      vertex 14.2714 9.58648 1.77217
      vertex 14.5528 9.76457 1.96757
      vertex 14.5528 9.75933 1.76764
    endloop
  endfacet
  facet normal 8.13645e-06 0.0261855 0.999657
    outer loop
      vertex 14.2714 9.59172 1.9721
      vertex 15 8.61915 1.99757
      vertex 14.5528 9.76457 1.96757
    endloop
  endfacet
  facet normal 0.785352 0.618833 -0.0164048
    outer loop
      vertex 14.2728 11.86 1.71263
      vertex 14.2728 11.8653 1.91256
      vertex 14.4376 11.6563 1.91804
    endloop
  endfacet
  facet normal -5.25131e-06 0.0261592 0.999658
    outer loop
      vertex 14.2728 11.86 1.71263
      vertex 14.4376 11.651 1.7181
      vertex 14.8749 11.9847 1.70937
    endloop
  endfacet
  facet normal 0.785351 0.618833 -0.016404
    outer loop
      vertex 14.2728 11.86 1.71263
      vertex 14.4376 11.6563 1.91804
      vertex 14.4376 11.651 1.7181
    endloop
  endfacet
  facet normal -7.33988e-06 0.0261692 0.999658
    outer loop
      vertex 14.2728 11.86 1.71263
      vertex 14.8749 11.9847 1.70937
      vertex 14.6338 12.3227 1.70052
    endloop
  endfacet
  facet normal -0.608958 -0.792935 0.0206235
    outer loop
      vertex 14.3087 12.5722 1.69398
      vertex 14.6338 12.3227 1.70052
      vertex 14.3087 12.5774 1.89391
    endloop
  endfacet
  facet normal -0.608958 -0.792935 0.0206235
    outer loop
      vertex 14.3087 12.5774 1.89391
      vertex 14.6338 12.3227 1.70052
      vertex 14.6338 12.3279 1.90045
    endloop
  endfacet
  facet normal -1.30313e-05 0.0261865 0.999657
    outer loop
      vertex 14.3087 12.5774 1.89391
      vertex 14.6338 12.3279 1.90045
      vertex 18.2938 17 1.77811
    endloop
  endfacet
  facet normal 0.933087 0.359526 -0.00953029
    outer loop
      vertex 14.4376 11.651 1.7181
      vertex 14.4376 11.6563 1.91804
      vertex 14.5365 11.3998 1.92475
    endloop
  endfacet
  facet normal -2.21663e-05 0.0261813 0.999657
    outer loop
      vertex 14.4376 11.651 1.7181
      vertex 14.5365 11.3945 1.72482
      vertex 14.8749 11.9847 1.70937
    endloop
  endfacet
  facet normal 0.933087 0.359525 -0.00953075
    outer loop
      vertex 14.4376 11.651 1.7181
      vertex 14.5365 11.3998 1.92475
      vertex 14.5365 11.3945 1.72482
    endloop
  endfacet
  facet normal 0 0.999658 -0.0261502
    outer loop
      vertex 14.4813 4.0776 1.91642
      vertex 14.4813 4.08283 2.11635
      vertex 15 4.0776 1.91642
    endloop
  endfacet
  facet normal 1 0 0
    outer loop
      vertex 14.4813 4.0776 1.91642
      vertex 14.4813 5.29437 1.88456
      vertex 14.4813 4.08283 2.11635
    endloop
  endfacet
  facet normal 0 0.0261751 0.999657
    outer loop
      vertex 14.4813 4.0776 1.91642
      vertex 15 4.0776 1.91642
      vertex 14.4813 5.29437 1.88456
    endloop
  endfacet
  facet normal 1 0 0
    outer loop
      vertex 14.4813 4.08283 2.11635
      vertex 14.4813 5.29437 1.88456
      vertex 14.4813 5.29961 2.08449
    endloop
  endfacet
  facet normal 0 0.999658 -0.0261502
    outer loop
      vertex 14.4813 4.08283 2.11635
      vertex 15 4.08283 2.11635
      vertex 15 4.0776 1.91642
    endloop
  endfacet
  facet normal -0 0.0261787 0.999657
    outer loop
      vertex 14.4813 4.08283 2.11635
      vertex 18.2938 0 2.22327
      vertex 15 4.08283 2.11635
    endloop
  endfacet
  facet normal 3.49448e-06 0.0261766 0.999657
    outer loop
      vertex 14.4813 5.29437 1.88456
      vertex 15 4.0776 1.91642
      vertex 15 7.07047 1.83805
    endloop
  endfacet
  facet normal -1.79562e-05 0.0261829 0.999657
    outer loop
      vertex 14.4813 5.29437 1.88456
      vertex 15 7.07047 1.83805
      vertex 14.4813 5.90792 1.86849
    endloop
  endfacet
  facet normal 1 0 0
    outer loop
      vertex 14.4813 5.90792 1.86849
      vertex 14.4813 7.07047 1.83805
      vertex 14.4813 5.91315 2.06842
    endloop
  endfacet
  facet normal 0 0.0261748 0.999657
    outer loop
      vertex 14.4813 5.90792 1.86849
      vertex 15 7.07047 1.83805
      vertex 14.4813 7.07047 1.83805
    endloop
  endfacet
  facet normal 1 0 0
    outer loop
      vertex 14.4813 5.91315 2.06842
      vertex 14.4813 7.07047 1.83805
      vertex 14.4813 7.0757 2.03798
    endloop
  endfacet
  facet normal 0 -0.999658 0.0261502
    outer loop
      vertex 14.4813 7.07047 1.83805
      vertex 15 7.07047 1.83805
      vertex 15 7.0757 2.03798
    endloop
  endfacet
  facet normal 0 -0.999658 0.0261502
    outer loop
      vertex 14.4813 7.07047 1.83805
      vertex 15 7.0757 2.03798
      vertex 14.4813 7.0757 2.03798
    endloop
  endfacet
  facet normal 0 0.0261771 0.999657
    outer loop
      vertex 14.4813 7.0757 2.03798
      vertex 15 7.0757 2.03798
      vertex 15 7.95823 2.01487
    endloop
  endfacet
  facet normal 0.986035 -0.166484 0.00433009
    outer loop
      vertex 14.4907 10.6248 1.74498
      vertex 14.5694 11.0906 1.73278
      vertex 14.4907 10.63 1.94491
    endloop
  endfacet
  facet normal 9.38605e-06 0.0261783 0.999657
    outer loop
      vertex 14.4907 10.6248 1.74498
      vertex 14.9382 10.3012 1.75345
      vertex 15.0354 10.6605 1.74404
    endloop
  endfacet
  facet normal 9.21124e-06 0.026181 0.999657
    outer loop
      vertex 14.4907 10.6248 1.74498
      vertex 15.0354 10.6605 1.74404
      vertex 14.5694 11.0906 1.73278
    endloop
  endfacet
  facet normal 0.986041 -0.166447 0.00441238
    outer loop
      vertex 14.4907 10.63 1.94491
      vertex 14.5694 11.0906 1.73278
      vertex 14.5694 11.0959 1.93271
    endloop
  endfacet
  facet normal 0.994195 0.107556 -0.00285124
    outer loop
      vertex 14.5365 11.3945 1.72482
      vertex 14.5365 11.3998 1.92475
      vertex 14.5694 11.0959 1.93271
    endloop
  endfacet
  facet normal 7.24823e-06 0.0261846 0.999657
    outer loop
      vertex 14.5365 11.3945 1.72482
      vertex 14.5694 11.0906 1.73278
      vertex 15.0678 11.0771 1.73313
    endloop
  endfacet
  facet normal 0.994195 0.107556 -0.00285124
    outer loop
      vertex 14.5365 11.3945 1.72482
      vertex 14.5694 11.0959 1.93271
      vertex 14.5694 11.0906 1.73278
    endloop
  endfacet
  facet normal -2.80552e-06 0.0261702 0.999658
    outer loop
      vertex 14.5365 11.3945 1.72482
      vertex 15.0196 11.5695 1.72024
      vertex 14.8749 11.9847 1.70937
    endloop
  endfacet
  facet normal -2.26463e-06 0.0261687 0.999658
    outer loop
      vertex 14.5365 11.3945 1.72482
      vertex 15.0678 11.0771 1.73313
      vertex 15.0196 11.5695 1.72024
    endloop
  endfacet
  facet normal -0.731942 0.681133 -0.0178519
    outer loop
      vertex 14.5528 9.75933 1.76764
      vertex 14.5528 9.76457 1.96757
      vertex 14.7762 9.99923 1.76136
    endloop
  endfacet
  facet normal -0.731985 0.681085 -0.0179529
    outer loop
      vertex 14.5528 9.76457 1.96757
      vertex 14.7762 10.0045 1.96129
      vertex 14.7762 9.99923 1.76136
    endloop
  endfacet
  facet normal -1.28332e-05 0.0261773 0.999657
    outer loop
      vertex 14.5528 9.76457 1.96757
      vertex 15 8.61915 1.99757
      vertex 14.7762 10.0045 1.96129
    endloop
  endfacet
  facet normal 7.0865e-06 0.0261787 0.999657
    outer loop
      vertex 14.5694 11.0906 1.73278
      vertex 15.0354 10.6605 1.74404
      vertex 15.0678 11.0771 1.73313
    endloop
  endfacet
  facet normal -0.814202 -0.580386 0.0150953
    outer loop
      vertex 14.6338 12.3227 1.70052
      vertex 14.8749 11.9847 1.70937
      vertex 14.8749 11.9899 1.9093
    endloop
  endfacet
  facet normal -0.814202 -0.580386 0.0150953
    outer loop
      vertex 14.6338 12.3227 1.70052
      vertex 14.8749 11.9899 1.9093
      vertex 14.6338 12.3279 1.90045
    endloop
  endfacet
  facet normal 1.19907e-06 0.0261753 0.999657
    outer loop
      vertex 14.6338 12.3279 1.90045
      vertex 14.8749 11.9899 1.9093
      vertex 18.2938 17 1.77811
    endloop
  endfacet
  facet normal -0.881287 0.472415 -0.0125234
    outer loop
      vertex 14.7762 10.0045 1.96129
      vertex 14.9382 10.3065 1.95338
      vertex 14.9382 10.3012 1.75345
    endloop
  endfacet
  facet normal 5.33524e-06 0.0261802 0.999657
    outer loop
      vertex 14.7762 10.0045 1.96129
      vertex 15 8.61915 1.99757
      vertex 14.9382 10.3065 1.95338
    endloop
  endfacet
  facet normal -0.881268 0.472454 -0.0124535
    outer loop
      vertex 14.7762 9.99923 1.76136
      vertex 14.7762 10.0045 1.96129
      vertex 14.9382 10.3012 1.75345
    endloop
  endfacet
  facet normal -0.944332 -0.328882 0.00855393
    outer loop
      vertex 14.8749 11.9847 1.70937
      vertex 15.0196 11.5695 1.72024
      vertex 15.0196 11.5747 1.92017
    endloop
  endfacet
  facet normal -0.944332 -0.328882 0.00855393
    outer loop
      vertex 14.8749 11.9847 1.70937
      vertex 15.0196 11.5747 1.92017
      vertex 14.8749 11.9899 1.9093
    endloop
  endfacet
  facet normal -1.90499e-06 0.0261705 0.999657
    outer loop
      vertex 14.8749 11.9899 1.9093
      vertex 15.0196 11.5747 1.92017
      vertex 19.2706 10.0788 1.95934
    endloop
  endfacet
  facet normal 4.13246e-07 0.0261759 0.999657
    outer loop
      vertex 14.8749 11.9899 1.9093
      vertex 19.2706 10.0788 1.95934
      vertex 18.2938 17 1.77811
    endloop
  endfacet
  facet normal -0.965324 0.260964 -0.00691797
    outer loop
      vertex 14.9382 10.3012 1.75345
      vertex 14.9382 10.3065 1.95338
      vertex 15.0354 10.6605 1.74404
    endloop
  endfacet
  facet normal -5.26357e-07 0.02618 0.999657
    outer loop
      vertex 14.9382 10.3065 1.95338
      vertex 15 8.61915 1.99757
      vertex 18.2433 9.05184 1.98624
    endloop
  endfacet
  facet normal -0.965324 0.260964 -0.00691797
    outer loop
      vertex 14.9382 10.3065 1.95338
      vertex 15.0354 10.6658 1.94397
      vertex 15.0354 10.6605 1.74404
    endloop
  endfacet
  facet normal -1.88866e-07 0.0261809 0.999657
    outer loop
      vertex 14.9382 10.3065 1.95338
      vertex 18.2433 9.05184 1.98624
      vertex 15.0354 10.6658 1.94397
    endloop
  endfacet
  facet normal -1 0 -0
    outer loop
      vertex 15 4.0776 1.91642
      vertex 15 4.08283 2.11635
      vertex 15 7.07047 1.83805
    endloop
  endfacet
  facet normal -1 0 0
    outer loop
      vertex 15 4.08283 2.11635
      vertex 15 7.0757 2.03798
      vertex 15 7.07047 1.83805
    endloop
  endfacet
  facet normal -1.16916e-06 0.0261778 0.999657
    outer loop
      vertex 15 4.08283 2.11635
      vertex 18.2938 0 2.22327
      vertex 19.2706 7.03642 2.03901
    endloop
  endfacet
  facet normal -7.00951e-08 0.0261766 0.999657
    outer loop
      vertex 15 4.08283 2.11635
      vertex 18.8245 7.2636 2.03306
      vertex 15 7.0757 2.03798
    endloop
  endfacet
  facet normal -1.64264e-06 0.0261785 0.999657
    outer loop
      vertex 15 4.08283 2.11635
      vertex 19.2706 7.03642 2.03901
      vertex 18.8245 7.2636 2.03306
    endloop
  endfacet
  facet normal -6.64795e-07 0.0261771 0.999657
    outer loop
      vertex 15 7.0757 2.03798
      vertex 18.2433 8.06333 2.01212
      vertex 15 7.95823 2.01487
    endloop
  endfacet
  facet normal 1.15675e-06 0.0261711 0.999657
    outer loop
      vertex 15 7.0757 2.03798
      vertex 18.3683 7.8181 2.01854
      vertex 18.2433 8.06333 2.01212
    endloop
  endfacet
  facet normal -5.83468e-06 0.0262028 0.999657
    outer loop
      vertex 15 7.0757 2.03798
      vertex 18.4706 7.61745 2.0238
      vertex 18.3683 7.8181 2.01854
    endloop
  endfacet
  facet normal 6.95636e-07 0.026161 0.999658
    outer loop
      vertex 15 7.0757 2.03798
      vertex 18.8245 7.2636 2.03306
      vertex 18.4706 7.61745 2.0238
    endloop
  endfacet
  facet normal -1 0 -0
    outer loop
      vertex 15 7.95299 1.81494
      vertex 15 7.95823 2.01487
      vertex 15 8.61391 1.79763
    endloop
  endfacet
  facet normal -1 0 0
    outer loop
      vertex 15 7.95823 2.01487
      vertex 15 8.61915 1.99757
      vertex 15 8.61391 1.79763
    endloop
  endfacet
  facet normal 4.33351e-07 0.0261667 0.999658
    outer loop
      vertex 15 7.95823 2.01487
      vertex 18.165 8.55759 1.99918
      vertex 15 8.61915 1.99757
    endloop
  endfacet
  facet normal 2.27687e-06 0.0261569 0.999658
    outer loop
      vertex 15 7.95823 2.01487
      vertex 18.2002 8.33516 2.005
      vertex 18.165 8.55759 1.99918
    endloop
  endfacet
  facet normal -8.7934e-07 0.0261837 0.999657
    outer loop
      vertex 15 7.95823 2.01487
      vertex 18.2433 8.06333 2.01212
      vertex 18.2002 8.33516 2.005
    endloop
  endfacet
  facet normal 5.37633e-07 0.026172 0.999657
    outer loop
      vertex 15 8.61915 1.99757
      vertex 18.165 8.55759 1.99918
      vertex 18.2433 9.05184 1.98624
    endloop
  endfacet
  facet normal -0.995246 -0.0973563 0.00253202
    outer loop
      vertex 15.0196 11.5695 1.72024
      vertex 15.0678 11.0771 1.73313
      vertex 15.0678 11.0823 1.93307
    endloop
  endfacet
  facet normal -0.995246 -0.0973562 0.00253215
    outer loop
      vertex 15.0196 11.5695 1.72024
      vertex 15.0678 11.0823 1.93307
      vertex 15.0196 11.5747 1.92017
    endloop
  endfacet
  facet normal 6.30286e-06 0.0261898 0.999657
    outer loop
      vertex 15.0196 11.5747 1.92017
      vertex 15.0678 11.0823 1.93307
      vertex 18.8245 9.85157 1.96529
    endloop
  endfacet
  facet normal 3.61113e-09 0.0261759 0.999657
    outer loop
      vertex 15.0196 11.5747 1.92017
      vertex 18.8245 9.85157 1.96529
      vertex 19.2706 10.0788 1.95934
    endloop
  endfacet
  facet normal -0.996991 0.0774847 -0.00205406
    outer loop
      vertex 15.0354 10.6605 1.74404
      vertex 15.0354 10.6658 1.94397
      vertex 15.0678 11.0771 1.73313
    endloop
  endfacet
  facet normal -0.99699 0.0775042 -0.00201571
    outer loop
      vertex 15.0354 10.6658 1.94397
      vertex 15.0678 11.0823 1.93307
      vertex 15.0678 11.0771 1.73313
    endloop
  endfacet
  facet normal 2.06095e-06 0.0261854 0.999657
    outer loop
      vertex 15.0354 10.6658 1.94397
      vertex 18.2433 9.05184 1.98624
      vertex 18.4706 9.49772 1.97456
    endloop
  endfacet
  facet normal -5.89677e-06 0.026162 0.999658
    outer loop
      vertex 15.0354 10.6658 1.94397
      vertex 18.4706 9.49772 1.97456
      vertex 15.0678 11.0823 1.93307
    endloop
  endfacet
  facet normal 4.42947e-06 0.0261841 0.999657
    outer loop
      vertex 15.0678 11.0823 1.93307
      vertex 18.4706 9.49772 1.97456
      vertex 18.8245 9.85157 1.96529
    endloop
  endfacet
  facet normal 0.987717 0.156201 -0.00409024
    outer loop
      vertex 18.165 8.50524 0
      vertex 18.165 8.55759 1.99918
      vertex 18.2002 8.33516 2.005
    endloop
  endfacet
  facet normal 0.9877 0.156309 -0.00408081
    outer loop
      vertex 18.165 8.50524 0
      vertex 18.2002 8.33516 2.005
      vertex 18.2396 8.03385 0
    endloop
  endfacet
  facet normal 0.987691 -0.156364 0.00409451
    outer loop
      vertex 18.165 8.50524 0
      vertex 18.2433 8.99983 0
      vertex 18.165 8.55759 1.99918
    endloop
  endfacet
  facet normal 0.987691 -0.156365 0.00409443
    outer loop
      vertex 18.165 8.55759 1.99918
      vertex 18.2433 8.99983 0
      vertex 18.2433 9.05184 1.98624
    endloop
  endfacet
  facet normal 0.987671 0.156492 -0.00410899
    outer loop
      vertex 18.2002 8.33516 2.005
      vertex 18.2433 8.06333 2.01212
      vertex 18.2396 8.03385 0
    endloop
  endfacet
  facet normal 0.987522 0.157425 -0.00412238
    outer loop
      vertex 18.2396 8.03385 0
      vertex 18.2433 8.06333 2.01212
      vertex 18.2433 8.01064 0
    endloop
  endfacet
  facet normal 0.890999 0.453849 -0.0118846
    outer loop
      vertex 18.2433 8.01064 0
      vertex 18.2433 8.06333 2.01212
      vertex 18.2539 7.98983 0
    endloop
  endfacet
  facet normal 0.890997 0.453853 -0.0118848
    outer loop
      vertex 18.2433 8.06333 2.01212
      vertex 18.3683 7.8181 2.01854
      vertex 18.2539 7.98983 0
    endloop
  endfacet
  facet normal 0.89098 -0.453887 0.0118851
    outer loop
      vertex 18.2433 8.99983 0
      vertex 18.4706 9.44602 0
      vertex 18.2433 9.05184 1.98624
    endloop
  endfacet
  facet normal 0.890978 -0.45389 0.0118842
    outer loop
      vertex 18.2433 9.05184 1.98624
      vertex 18.4706 9.44602 0
      vertex 18.4706 9.49772 1.97456
    endloop
  endfacet
  facet normal 0.890975 0.453897 -0.0118798
    outer loop
      vertex 18.2539 7.98983 0
      vertex 18.3683 7.8181 2.01854
      vertex 18.4706 7.56446 0
    endloop
  endfacet
  facet normal -0 0 -1
    outer loop
      vertex 18.2938 0 0
      vertex 18.4706 7.56446 0
      vertex 18.8245 7.21037 0
    endloop
  endfacet
  facet normal -0 0 -1
    outer loop
      vertex 18.2938 0 0
      vertex 18.8245 7.21037 0
      vertex 19.2706 6.98302 0
    endloop
  endfacet
  facet normal -0 0 -1
    outer loop
      vertex 18.2938 0 0
      vertex 19.2706 6.98302 0
      vertex 19.765 6.90469 0
    endloop
  endfacet
  facet normal 0 0 -1
    outer loop
      vertex 18.2938 0 0
      vertex 19.765 6.90469 0
      vertex 20.2594 6.98302 0
    endloop
  endfacet
  facet normal 0 0 -1
    outer loop
      vertex 18.2938 0 0
      vertex 20.2594 6.98302 0
      vertex 20.7055 7.21037 0
    endloop
  endfacet
  facet normal 0 0 -1
    outer loop
      vertex 18.2938 0 0
      vertex 20.7055 7.21037 0
      vertex 26.2851 -1.69955 0
    endloop
  endfacet
  facet normal -0.208023 -0.978124 0
    outer loop
      vertex 18.2938 0 0
      vertex 25.9194 -1.62178 2.26573
      vertex 18.2938 0 2.22327
    endloop
  endfacet
  facet normal -0.208023 -0.978124 -2.27075e-06
    outer loop
      vertex 18.2938 0 0
      vertex 26.2851 -1.69955 0
      vertex 25.9194 -1.62178 2.26573
    endloop
  endfacet
  facet normal -2.21623e-07 0.0261777 0.999657
    outer loop
      vertex 18.2938 0 2.22327
      vertex 19.765 6.95814 2.04106
      vertex 19.2706 7.03642 2.03901
    endloop
  endfacet
  facet normal 2.36976e-07 0.0261776 0.999657
    outer loop
      vertex 18.2938 0 2.22327
      vertex 20.2594 7.03642 2.03901
      vertex 19.765 6.95814 2.04106
    endloop
  endfacet
  facet normal 1.1042e-06 0.0261773 0.999657
    outer loop
      vertex 18.2938 0 2.22327
      vertex 25.9194 -1.62178 2.26573
      vertex 20.2594 7.03642 2.03901
    endloop
  endfacet
  facet normal -0.208023 0.978124 0
    outer loop
      vertex 18.2938 17 0
      vertex 18.2938 17 1.77811
      vertex 30.5721 19.6113 1.70973
    endloop
  endfacet
  facet normal 0 0 -1
    outer loop
      vertex 18.2938 17 0
      vertex 18.8245 9.80011 0
      vertex 18.4706 9.44602 0
    endloop
  endfacet
  facet normal 0 0 -1
    outer loop
      vertex 18.2938 17 0
      vertex 19.2706 10.0274 0
      vertex 18.8245 9.80011 0
    endloop
  endfacet
  facet normal 0 0 -1
    outer loop
      vertex 18.2938 17 0
      vertex 19.3002 10.0322 0
      vertex 19.2706 10.0274 0
    endloop
  endfacet
  facet normal 0 0 -1
    outer loop
      vertex 18.2938 17 0
      vertex 19.765 10.1058 0
      vertex 19.3002 10.0322 0
    endloop
  endfacet
  facet normal 0 0 -1
    outer loop
      vertex 18.2938 17 0
      vertex 20.2298 10.0322 0
      vertex 19.765 10.1058 0
    endloop
  endfacet
  facet normal 0 0 -1
    outer loop
      vertex 18.2938 17 0
      vertex 20.2594 10.0274 0
      vertex 20.2298 10.0322 0
    endloop
  endfacet
  facet normal 0 0 -1
    outer loop
      vertex 18.2938 17 0
      vertex 20.7055 9.80011 0
      vertex 20.2594 10.0274 0
    endloop
  endfacet
  facet normal -0.208023 0.978124 -7.38632e-06
    outer loop
      vertex 18.2938 17 0
      vertex 30.5721 19.6113 1.70973
      vertex 30.8745 19.6756 0
    endloop
  endfacet
  facet normal 0 0 -1
    outer loop
      vertex 18.2938 17 0
      vertex 30.8745 19.6756 0
      vertex 20.7055 9.80011 0
    endloop
  endfacet
  facet normal -2.13797e-05 0.0261728 0.999657
    outer loop
      vertex 18.2938 17 1.77811
      vertex 19.2706 10.0788 1.95934
      vertex 19.5425 10.1218 1.95822
    endloop
  endfacet
  facet normal 3.61002e-05 0.0261832 0.999657
    outer loop
      vertex 18.2938 17 1.77811
      vertex 19.5425 10.1218 1.95822
      vertex 19.765 10.157 1.95729
    endloop
  endfacet
  facet normal -3.86424e-05 0.0261671 0.999658
    outer loop
      vertex 18.2938 17 1.77811
      vertex 19.765 10.157 1.95729
      vertex 19.9875 10.1218 1.95822
    endloop
  endfacet
  facet normal 2.28847e-05 0.0261823 0.999657
    outer loop
      vertex 18.2938 17 1.77811
      vertex 19.9875 10.1218 1.95822
      vertex 20.2594 10.0788 1.95934
    endloop
  endfacet
  facet normal -9.35344e-08 0.0261758 0.999657
    outer loop
      vertex 18.2938 17 1.77811
      vertex 20.2594 10.0788 1.95934
      vertex 20.7055 9.85157 1.96529
    endloop
  endfacet
  facet normal 2.81714e-07 0.0261759 0.999657
    outer loop
      vertex 18.2938 17 1.77811
      vertex 20.7055 9.85157 1.96529
      vertex 30.5721 19.6113 1.70973
    endloop
  endfacet
  facet normal 0.890955 0.453936 -0.0118856
    outer loop
      vertex 18.3683 7.8181 2.01854
      vertex 18.4706 7.61745 2.0238
      vertex 18.4706 7.56446 0
    endloop
  endfacet
  facet normal 0.707178 0.706793 -0.0185063
    outer loop
      vertex 18.4706 7.56446 0
      vertex 18.4706 7.61745 2.0238
      vertex 18.8245 7.2636 2.03306
    endloop
  endfacet
  facet normal 0.707175 0.706796 -0.0185055
    outer loop
      vertex 18.4706 7.56446 0
      vertex 18.8245 7.2636 2.03306
      vertex 18.8245 7.21037 0
    endloop
  endfacet
  facet normal 0.707175 -0.706796 0.0185061
    outer loop
      vertex 18.4706 9.44602 0
      vertex 18.8245 9.80011 0
      vertex 18.4706 9.49772 1.97456
    endloop
  endfacet
  facet normal 0.707178 -0.706793 0.018507
    outer loop
      vertex 18.4706 9.49772 1.97456
      vertex 18.8245 9.80011 0
      vertex 18.8245 9.85157 1.96529
    endloop
  endfacet
  facet normal 0.453947 0.890723 -0.0233211
    outer loop
      vertex 18.8245 7.21037 0
      vertex 18.8245 7.2636 2.03306
      vertex 19.2706 6.98302 0
    endloop
  endfacet
  facet normal 0.453925 0.890735 -0.0233276
    outer loop
      vertex 18.8245 7.2636 2.03306
      vertex 19.2706 7.03642 2.03901
      vertex 19.2706 6.98302 0
    endloop
  endfacet
  facet normal 0.453852 -0.890771 0.0233679
    outer loop
      vertex 18.8245 9.80011 0
      vertex 19.2706 10.0274 0
      vertex 19.2706 10.0788 1.95934
    endloop
  endfacet
  facet normal 0.454004 -0.890694 0.0233223
    outer loop
      vertex 18.8245 9.80011 0
      vertex 19.2706 10.0788 1.95934
      vertex 18.8245 9.85157 1.96529
    endloop
  endfacet
  facet normal 0.160018 -0.986775 0.0258864
    outer loop
      vertex 19.2706 10.0274 0
      vertex 19.3002 10.0322 0
      vertex 19.2706 10.0788 1.95934
    endloop
  endfacet
  facet normal 0.156257 -0.987378 0.0258439
    outer loop
      vertex 19.2706 10.0788 1.95934
      vertex 19.3002 10.0322 0
      vertex 19.5425 10.1218 1.95822
    endloop
  endfacet
  facet normal 0.15643 0.98735 -0.0258579
    outer loop
      vertex 19.2706 6.98302 0
      vertex 19.2706 7.03642 2.03901
      vertex 19.765 6.90469 0
    endloop
  endfacet
  facet normal 0.156438 0.987349 -0.0258561
    outer loop
      vertex 19.2706 7.03642 2.03901
      vertex 19.765 6.95814 2.04106
      vertex 19.765 6.90469 0
    endloop
  endfacet
  facet normal 0.156347 -0.987364 0.0258321
    outer loop
      vertex 19.3002 10.0322 0
      vertex 19.765 10.1058 0
      vertex 19.5425 10.1218 1.95822
    endloop
  endfacet
  facet normal 0.156312 -0.98737 0.0258282
    outer loop
      vertex 19.5425 10.1218 1.95822
      vertex 19.765 10.1058 0
      vertex 19.765 10.157 1.95729
    endloop
  endfacet
  facet normal -0.156312 -0.98737 0.0258282
    outer loop
      vertex 19.765 10.1058 0
      vertex 19.9875 10.1218 1.95822
      vertex 19.765 10.157 1.95729
    endloop
  endfacet
  facet normal -0.156347 -0.987364 0.0258321
    outer loop
      vertex 19.765 10.1058 0
      vertex 20.2298 10.0322 0
      vertex 19.9875 10.1218 1.95822
    endloop
  endfacet
  facet normal -0.15643 0.98735 -0.0258561
    outer loop
      vertex 19.765 6.90469 0
      vertex 19.765 6.95814 2.04106
      vertex 20.2594 6.98302 0
    endloop
  endfacet
  facet normal -0.156438 0.987349 -0.0258579
    outer loop
      vertex 19.765 6.95814 2.04106
      vertex 20.2594 7.03642 2.03901
      vertex 20.2594 6.98302 0
    endloop
  endfacet
  facet normal -0.156257 -0.987378 0.0258439
    outer loop
      vertex 19.9875 10.1218 1.95822
      vertex 20.2298 10.0322 0
      vertex 20.2594 10.0788 1.95934
    endloop
  endfacet
  facet normal -0.160018 -0.986775 0.0258864
    outer loop
      vertex 20.2298 10.0322 0
      vertex 20.2594 10.0274 0
      vertex 20.2594 10.0788 1.95934
    endloop
  endfacet
  facet normal -0.453852 -0.890771 0.0233679
    outer loop
      vertex 20.2594 10.0274 0
      vertex 20.7055 9.80011 0
      vertex 20.2594 10.0788 1.95934
    endloop
  endfacet
  facet normal -0.454004 -0.890694 0.0233223
    outer loop
      vertex 20.2594 10.0788 1.95934
      vertex 20.7055 9.80011 0
      vertex 20.7055 9.85157 1.96529
    endloop
  endfacet
  facet normal -0.453925 0.890735 -0.0233276
    outer loop
      vertex 20.2594 6.98302 0
      vertex 20.2594 7.03642 2.03901
      vertex 20.7055 7.2636 2.03306
    endloop
  endfacet
  facet normal -0.453947 0.890723 -0.0233211
    outer loop
      vertex 20.2594 6.98302 0
      vertex 20.7055 7.2636 2.03306
      vertex 20.7055 7.21037 0
    endloop
  endfacet
  facet normal 1.94958e-06 0.0261779 0.999657
    outer loop
      vertex 20.2594 7.03642 2.03901
      vertex 25.9194 -1.62178 2.26573
      vertex 20.7055 7.2636 2.03306
    endloop
  endfacet
  facet normal -0.707175 0.706796 -0.0185055
    outer loop
      vertex 20.7055 7.21037 0
      vertex 20.7055 7.2636 2.03306
      vertex 21.0594 7.56446 0
    endloop
  endfacet
  facet normal 0 0 -1
    outer loop
      vertex 20.7055 7.21037 0
      vertex 21.0594 7.56446 0
      vertex 26.2851 -1.69955 0
    endloop
  endfacet
  facet normal -0.707178 0.706793 -0.0185063
    outer loop
      vertex 20.7055 7.2636 2.03306
      vertex 21.0594 7.61745 2.0238
      vertex 21.0594 7.56446 0
    endloop
  endfacet
  facet normal -1.03504e-05 0.0261707 0.999657
    outer loop
      vertex 20.7055 7.2636 2.03306
      vertex 25.9194 -1.62178 2.26573
      vertex 21.0594 7.61745 2.0238
    endloop
  endfacet
  facet normal -0.707175 -0.706796 0.0185061
    outer loop
      vertex 20.7055 9.80011 0
      vertex 21.0594 9.44602 0
      vertex 21.0594 9.49772 1.97456
    endloop
  endfacet
  facet normal -0.707178 -0.706793 0.018507
    outer loop
      vertex 20.7055 9.80011 0
      vertex 21.0594 9.49772 1.97456
      vertex 20.7055 9.85157 1.96529
    endloop
  endfacet
  facet normal 0 0 -1
    outer loop
      vertex 20.7055 9.80011 0
      vertex 30.8745 19.6756 0
      vertex 21.0594 9.44602 0
    endloop
  endfacet
  facet normal -6.15908e-06 0.0261824 0.999657
    outer loop
      vertex 20.7055 9.85157 1.96529
      vertex 21.0594 9.49772 1.97456
      vertex 30.5721 19.6113 1.70973
    endloop
  endfacet
  facet normal -0.890955 0.453936 -0.0118856
    outer loop
      vertex 21.0594 7.56446 0
      vertex 21.0594 7.61745 2.0238
      vertex 21.1617 7.8181 2.01854
    endloop
  endfacet
  facet normal -0.890975 0.453897 -0.0118798
    outer loop
      vertex 21.0594 7.56446 0
      vertex 21.1617 7.8181 2.01854
      vertex 21.2761 7.98983 0
    endloop
  endfacet
  facet normal 0 0 -1
    outer loop
      vertex 21.0594 7.56446 0
      vertex 21.2761 7.98983 0
      vertex 26.2851 -1.69955 0
    endloop
  endfacet
  facet normal 2.86807e-05 0.0261912 0.999657
    outer loop
      vertex 21.0594 7.61745 2.0238
      vertex 25.9194 -1.62178 2.26573
      vertex 21.1617 7.8181 2.01854
    endloop
  endfacet
  facet normal -0.89098 -0.453887 0.0118851
    outer loop
      vertex 21.0594 9.44602 0
      vertex 21.2867 8.99983 0
      vertex 21.2867 9.05184 1.98624
    endloop
  endfacet
  facet normal -0.890978 -0.45389 0.0118842
    outer loop
      vertex 21.0594 9.44602 0
      vertex 21.2867 9.05184 1.98624
      vertex 21.0594 9.49772 1.97456
    endloop
  endfacet
  facet normal 0 0 -1
    outer loop
      vertex 21.0594 9.44602 0
      vertex 30.8745 19.6756 0
      vertex 21.2867 8.99983 0
    endloop
  endfacet
  facet normal -6.75788e-06 0.026183 0.999657
    outer loop
      vertex 21.0594 9.49772 1.97456
      vertex 21.2867 9.05184 1.98624
      vertex 30.5721 19.6113 1.70973
    endloop
  endfacet
  facet normal -0.890997 0.453853 -0.0118848
    outer loop
      vertex 21.1617 7.8181 2.01854
      vertex 21.2867 8.06333 2.01212
      vertex 21.2761 7.98983 0
    endloop
  endfacet
  facet normal -6.1231e-06 0.0261737 0.999657
    outer loop
      vertex 21.1617 7.8181 2.01854
      vertex 25.9194 -1.62178 2.26573
      vertex 21.2867 8.06333 2.01212
    endloop
  endfacet
  facet normal 0 0 -1
    outer loop
      vertex 21.2761 7.98983 0
      vertex 21.2867 8.01064 0
      vertex 26.2851 -1.69955 0
    endloop
  endfacet
  facet normal -0.890999 0.453849 -0.0118846
    outer loop
      vertex 21.2761 7.98983 0
      vertex 21.2867 8.06333 2.01212
      vertex 21.2867 8.01064 0
    endloop
  endfacet
  facet normal -0.987522 0.157425 -0.00412238
    outer loop
      vertex 21.2867 8.01064 0
      vertex 21.2867 8.06333 2.01212
      vertex 21.2904 8.03385 0
    endloop
  endfacet
  facet normal 0 0 -1
    outer loop
      vertex 21.2867 8.01064 0
      vertex 21.2904 8.03385 0
      vertex 26.2851 -1.69955 0
    endloop
  endfacet
  facet normal -0.987671 0.156492 -0.00410899
    outer loop
      vertex 21.2867 8.06333 2.01212
      vertex 21.3298 8.33516 2.005
      vertex 21.2904 8.03385 0
    endloop
  endfacet
  facet normal 1.14331e-05 0.026182 0.999657
    outer loop
      vertex 21.2867 8.06333 2.01212
      vertex 25.9194 -1.62178 2.26573
      vertex 21.3298 8.33516 2.005
    endloop
  endfacet
  facet normal -0.987691 -0.156364 0.00409451
    outer loop
      vertex 21.2867 8.99983 0
      vertex 21.365 8.50524 0
      vertex 21.365 8.55759 1.99918
    endloop
  endfacet
  facet normal -0.987691 -0.156365 0.00409443
    outer loop
      vertex 21.2867 8.99983 0
      vertex 21.365 8.55759 1.99918
      vertex 21.2867 9.05184 1.98624
    endloop
  endfacet
  facet normal 0 0 -1
    outer loop
      vertex 21.2867 8.99983 0
      vertex 30.8745 19.6756 0
      vertex 21.365 8.50524 0
    endloop
  endfacet
  facet normal 4.73519e-06 0.0261729 0.999657
    outer loop
      vertex 21.2867 9.05184 1.98624
      vertex 21.365 8.55759 1.99918
      vertex 30.5721 19.6113 1.70973
    endloop
  endfacet
  facet normal -0.9877 0.156309 -0.00408081
    outer loop
      vertex 21.2904 8.03385 0
      vertex 21.3298 8.33516 2.005
      vertex 21.365 8.50524 0
    endloop
  endfacet
  facet normal 0 0 -1
    outer loop
      vertex 21.2904 8.03385 0
      vertex 21.365 8.50524 0
      vertex 26.2851 -1.69955 0
    endloop
  endfacet
  facet normal -0.987717 0.156201 -0.00409024
    outer loop
      vertex 21.3298 8.33516 2.005
      vertex 21.365 8.55759 1.99918
      vertex 21.365 8.50524 0
    endloop
  endfacet
  facet normal -3.26451e-05 0.0261617 0.999658
    outer loop
      vertex 21.3298 8.33516 2.005
      vertex 25.9194 -1.62178 2.26573
      vertex 21.365 8.55759 1.99918
    endloop
  endfacet
  facet normal 0 0 -1
    outer loop
      vertex 21.365 8.50524 0
      vertex 30.8745 19.6756 0
      vertex 26.2851 -1.69955 0
    endloop
  endfacet
  facet normal 3.6253e-07 0.0261765 0.999657
    outer loop
      vertex 21.365 8.55759 1.99918
      vertex 25.9194 -1.62178 2.26573
      vertex 30.5721 19.6113 1.70973
    endloop
  endfacet
  facet normal 0.964673 -0.207121 0.162812
    outer loop
      vertex 25.9194 -1.62178 2.26573
      vertex 26.2851 -1.69955 0
      vertex 30.5721 19.6113 1.70973
    endloop
  endfacet
  facet normal 0.964669 -0.207121 0.162832
    outer loop
      vertex 26.2851 -1.69955 0
      vertex 30.8745 19.6756 0
      vertex 30.5721 19.6113 1.70973
    endloop
  endfacet
  facet normal 0.987689 0.156374 -0.00409478
    outer loop
      vertex 4 8.50524 0
      vertex 4 8.55759 1.99918
      vertex 4.03524 8.33516 2.005
    endloop
  endfacet
  facet normal 0.98769 0.15637 -0.00409515
    outer loop
      vertex 4 8.50524 0
      vertex 4.03524 8.33516 2.005
      vertex 4.07463 8.03385 0
    endloop
  endfacet
  facet normal 0.987688 -0.156384 0.00409502
    outer loop
      vertex 4 8.50524 0
      vertex 4.07831 8.99983 0
      vertex 4 8.55759 1.99918
    endloop
  endfacet
  facet normal 0.987688 -0.156384 0.00409494
    outer loop
      vertex 4 8.55759 1.99918
      vertex 4.07831 8.99983 0
      vertex 4.07831 9.05184 1.98624
    endloop
  endfacet
  facet normal 0.987687 0.156386 -0.00409765
    outer loop
      vertex 4.03524 8.33516 2.005
      vertex 4.07831 8.06333 2.01212
      vertex 4.07463 8.03385 0
    endloop
  endfacet
  facet normal 0.987654 0.156595 -0.00410064
    outer loop
      vertex 4.07463 8.03385 0
      vertex 4.07831 8.06333 2.01212
      vertex 4.07831 8.01064 0
    endloop
  endfacet
  facet normal 0.890999 0.453849 -0.0118846
    outer loop
      vertex 4.07831 8.01064 0
      vertex 4.07831 8.06333 2.01212
      vertex 4.08891 7.98983 0
    endloop
  endfacet
  facet normal 0.891012 0.453824 -0.0118837
    outer loop
      vertex 4.07831 8.06333 2.01212
      vertex 4.2033 7.8181 2.01854
      vertex 4.08891 7.98983 0
    endloop
  endfacet
  facet normal 0.891012 -0.453823 0.0118834
    outer loop
      vertex 4.07831 8.99983 0
      vertex 4.30557 9.44602 0
      vertex 4.07831 9.05184 1.98624
    endloop
  endfacet
  facet normal 0.891011 -0.453827 0.0118826
    outer loop
      vertex 4.07831 9.05184 1.98624
      vertex 4.30557 9.44602 0
      vertex 4.30557 9.49772 1.97456
    endloop
  endfacet
  facet normal 0.891009 0.453831 -0.0118829
    outer loop
      vertex 4.08891 7.98983 0
      vertex 4.2033 7.8181 2.01854
      vertex 4.30557 7.56446 0
    endloop
  endfacet
  facet normal 0.891009 0.45383 -0.0118828
    outer loop
      vertex 4.2033 7.8181 2.01854
      vertex 4.30557 7.61745 2.0238
      vertex 4.30557 7.56446 0
    endloop
  endfacet
  facet normal 0.707108 0.706863 -0.0185081
    outer loop
      vertex 4.30557 7.56446 0
      vertex 4.30557 7.61745 2.0238
      vertex 4.65954 7.2636 2.03306
    endloop
  endfacet
  facet normal 0.707105 0.706866 -0.0185073
    outer loop
      vertex 4.30557 7.56446 0
      vertex 4.65954 7.2636 2.03306
      vertex 4.65954 7.21037 0
    endloop
  endfacet
  facet normal 0.707105 -0.706866 0.0185079
    outer loop
      vertex 4.30557 9.44602 0
      vertex 4.65954 9.80011 0
      vertex 4.30557 9.49772 1.97456
    endloop
  endfacet
  facet normal 0.707108 -0.706863 0.0185088
    outer loop
      vertex 4.30557 9.49772 1.97456
      vertex 4.65954 9.80011 0
      vertex 4.65954 9.85157 1.96529
    endloop
  endfacet
  facet normal 0.454004 0.890694 -0.0233203
    outer loop
      vertex 4.65954 7.21037 0
      vertex 4.65954 7.2636 2.03306
      vertex 5.10557 6.98302 0
    endloop
  endfacet
  facet normal 0.453981 0.890706 -0.0233269
    outer loop
      vertex 4.65954 7.2636 2.03306
      vertex 5.10557 7.03642 2.03901
      vertex 5.10557 6.98302 0
    endloop
  endfacet
  facet normal 0.453908 -0.890742 0.0233671
    outer loop
      vertex 4.65954 9.80011 0
      vertex 5.10557 10.0274 0
      vertex 5.10557 10.0788 1.95934
    endloop
  endfacet
  facet normal 0.454061 -0.890665 0.0233216
    outer loop
      vertex 4.65954 9.80011 0
      vertex 5.10557 10.0788 1.95934
      vertex 4.65954 9.85157 1.96529
    endloop
  endfacet
  facet normal 0.15965 -0.986834 0.0258879
    outer loop
      vertex 5.10557 10.0274 0
      vertex 5.13524 10.0322 0
      vertex 5.10557 10.0788 1.95934
    endloop
  endfacet
  facet normal 0.15624 -0.987381 0.0258493
    outer loop
      vertex 5.10557 10.0788 1.95934
      vertex 5.13524 10.0322 0
      vertex 5.3775 10.1218 1.95822
    endloop
  endfacet
  facet normal 0.156421 0.987352 -0.0258579
    outer loop
      vertex 5.10557 6.98302 0
      vertex 5.10557 7.03642 2.03901
      vertex 5.6 6.90469 0
    endloop
  endfacet
  facet normal 0.156428 0.987351 -0.0258561
    outer loop
      vertex 5.10557 7.03642 2.03901
      vertex 5.6 6.95814 2.04106
      vertex 5.6 6.90469 0
    endloop
  endfacet
  facet normal 0.15636 -0.987362 0.0258336
    outer loop
      vertex 5.13524 10.0322 0
      vertex 5.6 10.1058 0
      vertex 5.3775 10.1218 1.95822
    endloop
  endfacet
  facet normal 0.156312 -0.98737 0.0258282
    outer loop
      vertex 5.3775 10.1218 1.95822
      vertex 5.6 10.1058 0
      vertex 5.6 10.157 1.95729
    endloop
  endfacet
  facet normal -0.156312 -0.98737 0.0258282
    outer loop
      vertex 5.6 10.1058 0
      vertex 5.8225 10.1218 1.95822
      vertex 5.6 10.157 1.95729
    endloop
  endfacet
  facet normal -0.15636 -0.987362 0.0258336
    outer loop
      vertex 5.6 10.1058 0
      vertex 6.06476 10.0322 0
      vertex 5.8225 10.1218 1.95822
    endloop
  endfacet
  facet normal -2.87822e-05 0.0262294 0.999656
    outer loop
      vertex 5.6 10.157 1.95729
      vertex 5.8225 10.1218 1.95822
      vertex 10.2226 12.4991 1.89597
    endloop
  endfacet
  facet normal -0.156421 0.987352 -0.0258562
    outer loop
      vertex 5.6 6.90469 0
      vertex 5.6 6.95814 2.04106
      vertex 6.09443 6.98302 0
    endloop
  endfacet
  facet normal 8.1668e-08 0.0261786 0.999657
    outer loop
      vertex 5.6 6.95814 2.04106
      vertex 10.2226 5.35049 2.08316
      vertex 6.09443 7.03642 2.03901
    endloop
  endfacet
  facet normal -3.18177e-06 0.0261692 0.999658
    outer loop
      vertex 5.6 6.95814 2.04106
      vertex 10.9991 4.22178 2.11271
      vertex 10.2226 5.35049 2.08316
    endloop
  endfacet
  facet normal -0.156428 0.987351 -0.0258579
    outer loop
      vertex 5.6 6.95814 2.04106
      vertex 6.09443 7.03642 2.03901
      vertex 6.09443 6.98302 0
    endloop
  endfacet
  facet normal -0.15624 -0.987381 0.0258493
    outer loop
      vertex 5.8225 10.1218 1.95822
      vertex 6.06476 10.0322 0
      vertex 6.09443 10.0788 1.95934
    endloop
  endfacet
  facet normal 1.69556e-05 0.0261448 0.999658
    outer loop
      vertex 5.8225 10.1218 1.95822
      vertex 6.09443 10.0788 1.95934
      vertex 10.2226 12.4991 1.89597
    endloop
  endfacet
  facet normal -0.15965 -0.986834 0.0258879
    outer loop
      vertex 6.06476 10.0322 0
      vertex 6.09443 10.0274 0
      vertex 6.09443 10.0788 1.95934
    endloop
  endfacet
  facet normal 0 0 -1
    outer loop
      vertex 6.09443 10.0274 0
      vertex 18.2938 17 0
      vertex 6.54046 9.80011 0
    endloop
  endfacet
  facet normal -0.453908 -0.890742 0.0233671
    outer loop
      vertex 6.09443 10.0274 0
      vertex 6.54046 9.80011 0
      vertex 6.09443 10.0788 1.95934
    endloop
  endfacet
  facet normal -0.454061 -0.890665 0.0233216
    outer loop
      vertex 6.09443 10.0788 1.95934
      vertex 6.54046 9.80011 0
      vertex 6.54046 9.85157 1.96529
    endloop
  endfacet
  facet normal -6.04431e-07 0.0261748 0.999657
    outer loop
      vertex 6.09443 10.0788 1.95934
      vertex 6.54046 9.85157 1.96529
      vertex 10.2226 12.4991 1.89597
    endloop
  endfacet
  facet normal -0.453981 0.890706 -0.0233269
    outer loop
      vertex 6.09443 6.98302 0
      vertex 6.09443 7.03642 2.03901
      vertex 6.54046 7.2636 2.03306
    endloop
  endfacet
  facet normal 0 0 -1
    outer loop
      vertex 6.09443 6.98302 0
      vertex 6.54046 7.21037 0
      vertex 18.2938 0 0
    endloop
  endfacet
  facet normal -0.454004 0.890694 -0.0233203
    outer loop
      vertex 6.09443 6.98302 0
      vertex 6.54046 7.2636 2.03306
      vertex 6.54046 7.21037 0
    endloop
  endfacet
  facet normal 7.61066e-07 0.0261802 0.999657
    outer loop
      vertex 6.09443 7.03642 2.03901
      vertex 10.2226 5.35049 2.08316
      vertex 6.54046 7.2636 2.03306
    endloop
  endfacet
  facet normal -0.707105 0.706866 -0.0185073
    outer loop
      vertex 6.54046 7.21037 0
      vertex 6.54046 7.2636 2.03306
      vertex 6.89443 7.56446 0
    endloop
  endfacet
  facet normal 0 0 -1
    outer loop
      vertex 6.54046 7.21037 0
      vertex 6.89443 7.56446 0
      vertex 18.2938 0 0
    endloop
  endfacet
  facet normal 4.81321e-06 0.026188 0.999657
    outer loop
      vertex 6.54046 7.2636 2.03306
      vertex 10.2226 5.35049 2.08316
      vertex 10.2226 5.91315 2.06842
    endloop
  endfacet
  facet normal -3.91175e-06 0.0261642 0.999658
    outer loop
      vertex 6.54046 7.2636 2.03306
      vertex 10.2226 5.91315 2.06842
      vertex 6.89443 7.61745 2.0238
    endloop
  endfacet
  facet normal -0.707108 0.706863 -0.0185081
    outer loop
      vertex 6.54046 7.2636 2.03306
      vertex 6.89443 7.61745 2.0238
      vertex 6.89443 7.56446 0
    endloop
  endfacet
  facet normal 0 0 -1
    outer loop
      vertex 6.54046 9.80011 0
      vertex 18.2938 17 0
      vertex 6.89443 9.44602 0
    endloop
  endfacet
  facet normal -0.707105 -0.706866 0.0185079
    outer loop
      vertex 6.54046 9.80011 0
      vertex 6.89443 9.44602 0
      vertex 6.89443 9.49772 1.97456
    endloop
  endfacet
  facet normal -0.707108 -0.706863 0.0185088
    outer loop
      vertex 6.54046 9.80011 0
      vertex 6.89443 9.49772 1.97456
      vertex 6.54046 9.85157 1.96529
    endloop
  endfacet
  facet normal -6.1232e-06 0.0261824 0.999657
    outer loop
      vertex 6.54046 9.85157 1.96529
      vertex 6.89443 9.49772 1.97456
      vertex 10.2226 12.4991 1.89597
    endloop
  endfacet
  facet normal 0 0 -1
    outer loop
      vertex 6.89443 7.56446 0
      vertex 18.2539 7.98983 0
      vertex 18.4706 7.56446 0
    endloop
  endfacet
  facet normal 0 0 -1
    outer loop
      vertex 6.89443 7.56446 0
      vertex 18.4706 7.56446 0
      vertex 18.2938 0 0
    endloop
  endfacet
  facet normal -0.891009 0.45383 -0.0118828
    outer loop
      vertex 6.89443 7.56446 0
      vertex 6.89443 7.61745 2.0238
      vertex 6.9967 7.8181 2.01854
    endloop
  endfacet
  facet normal -0.891009 0.453831 -0.0118829
    outer loop
      vertex 6.89443 7.56446 0
      vertex 6.9967 7.8181 2.01854
      vertex 7.11109 7.98983 0
    endloop
  endfacet
  facet normal 0 -0 -1
    outer loop
      vertex 6.89443 7.56446 0
      vertex 7.11109 7.98983 0
      vertex 18.2539 7.98983 0
    endloop
  endfacet
  facet normal 1.37882e-05 0.0261988 0.999657
    outer loop
      vertex 6.89443 7.61745 2.0238
      vertex 10.2226 5.91315 2.06842
      vertex 6.9967 7.8181 2.01854
    endloop
  endfacet
  facet normal 0 0 -1
    outer loop
      vertex 6.89443 9.44602 0
      vertex 18.2433 8.99983 0
      vertex 7.12169 8.99983 0
    endloop
  endfacet
  facet normal 0 0 -1
    outer loop
      vertex 6.89443 9.44602 0
      vertex 18.2938 17 0
      vertex 18.4706 9.44602 0
    endloop
  endfacet
  facet normal 0 0 -1
    outer loop
      vertex 6.89443 9.44602 0
      vertex 18.4706 9.44602 0
      vertex 18.2433 8.99983 0
    endloop
  endfacet
  facet normal -0.891012 -0.453823 0.0118834
    outer loop
      vertex 6.89443 9.44602 0
      vertex 7.12169 8.99983 0
      vertex 7.12169 9.05184 1.98624
    endloop
  endfacet
  facet normal -0.891011 -0.453827 0.0118826
    outer loop
      vertex 6.89443 9.44602 0
      vertex 7.12169 9.05184 1.98624
      vertex 6.89443 9.49772 1.97456
    endloop
  endfacet
  facet normal 6.66228e-08 0.0261756 0.999657
    outer loop
      vertex 6.89443 9.49772 1.97456
      vertex 10.2226 9.78414 1.96706
      vertex 10.2226 12.4991 1.89597
    endloop
  endfacet
  facet normal -8.2964e-07 0.026186 0.999657
    outer loop
      vertex 6.89443 9.49772 1.97456
      vertex 7.12169 9.05184 1.98624
      vertex 10.2226 9.78414 1.96706
    endloop
  endfacet
  facet normal -2.2276e-06 0.0261717 0.999657
    outer loop
      vertex 6.9967 7.8181 2.01854
      vertex 10.2226 5.91315 2.06842
      vertex 7.12169 8.06333 2.01212
    endloop
  endfacet
  facet normal -0.891012 0.453824 -0.0118837
    outer loop
      vertex 6.9967 7.8181 2.01854
      vertex 7.12169 8.06333 2.01212
      vertex 7.11109 7.98983 0
    endloop
  endfacet
  facet normal 0 0 -1
    outer loop
      vertex 7.11109 7.98983 0
      vertex 18.2433 8.01064 0
      vertex 18.2539 7.98983 0
    endloop
  endfacet
  facet normal 0 -0 -1
    outer loop
      vertex 7.11109 7.98983 0
      vertex 7.12169 8.01064 0
      vertex 18.2433 8.01064 0
    endloop
  endfacet
  facet normal -0.890999 0.453849 -0.0118846
    outer loop
      vertex 7.11109 7.98983 0
      vertex 7.12169 8.06333 2.01212
      vertex 7.12169 8.01064 0
    endloop
  endfacet
  facet normal 0 0 -1
    outer loop
      vertex 7.12169 8.01064 0
      vertex 18.2396 8.03385 0
      vertex 18.2433 8.01064 0
    endloop
  endfacet
  facet normal -0.987654 0.156595 -0.00410064
    outer loop
      vertex 7.12169 8.01064 0
      vertex 7.12169 8.06333 2.01212
      vertex 7.12537 8.03385 0
    endloop
  endfacet
  facet normal 0 -0 -1
    outer loop
      vertex 7.12169 8.01064 0
      vertex 7.12537 8.03385 0
      vertex 18.2396 8.03385 0
    endloop
  endfacet
  facet normal 5.61265e-06 0.026183 0.999657
    outer loop
      vertex 7.12169 8.06333 2.01212
      vertex 10.2226 5.91315 2.06842
      vertex 7.16476 8.33516 2.005
    endloop
  endfacet
  facet normal -0.987687 0.156386 -0.00409765
    outer loop
      vertex 7.12169 8.06333 2.01212
      vertex 7.16476 8.33516 2.005
      vertex 7.12537 8.03385 0
    endloop
  endfacet
  facet normal 0 0 -1
    outer loop
      vertex 7.12169 8.99983 0
      vertex 18.165 8.50524 0
      vertex 7.2 8.50524 0
    endloop
  endfacet
  facet normal 0 0 -1
    outer loop
      vertex 7.12169 8.99983 0
      vertex 18.2433 8.99983 0
      vertex 18.165 8.50524 0
    endloop
  endfacet
  facet normal -0.987688 -0.156384 0.00409502
    outer loop
      vertex 7.12169 8.99983 0
      vertex 7.2 8.50524 0
      vertex 7.2 8.55759 1.99918
    endloop
  endfacet
  facet normal -0.987688 -0.156384 0.00409494
    outer loop
      vertex 7.12169 8.99983 0
      vertex 7.2 8.55759 1.99918
      vertex 7.12169 9.05184 1.98624
    endloop
  endfacet
  facet normal 2.35961e-06 0.0261725 0.999657
    outer loop
      vertex 7.12169 9.05184 1.98624
      vertex 7.2 8.55759 1.99918
      vertex 10.2226 9.78414 1.96706
    endloop
  endfacet
  facet normal 0 0 -1
    outer loop
      vertex 7.12537 8.03385 0
      vertex 18.165 8.50524 0
      vertex 18.2396 8.03385 0
    endloop
  endfacet
  facet normal -0.98769 0.15637 -0.00409515
    outer loop
      vertex 7.12537 8.03385 0
      vertex 7.16476 8.33516 2.005
      vertex 7.2 8.50524 0
    endloop
  endfacet
  facet normal -0 0 -1
    outer loop
      vertex 7.12537 8.03385 0
      vertex 7.2 8.50524 0
      vertex 18.165 8.50524 0
    endloop
  endfacet
  facet normal -2.74658e-07 0.0261755 0.999657
    outer loop
      vertex 7.16476 8.33516 2.005
      vertex 10.2226 5.91315 2.06842
      vertex 10.2226 9.78414 1.96706
    endloop
  endfacet
  facet normal 9.42399e-06 0.0261551 0.999658
    outer loop
      vertex 7.16476 8.33516 2.005
      vertex 10.2226 9.78414 1.96706
      vertex 7.2 8.55759 1.99918
    endloop
  endfacet
  facet normal -0.987689 0.156374 -0.00409478
    outer loop
      vertex 7.16476 8.33516 2.005
      vertex 7.2 8.55759 1.99918
      vertex 7.2 8.50524 0
    endloop
  endfacet
endsolid model
