solid model
  facet normal -0.997095 0.0761708 0
    outer loop
      vertex -0.0760345 6.35483 1.3
      vertex -0.0619049 6.53979 1.8
      vertex -0.0619049 6.53979 1.3
    endloop
  endfacet
  facet normal -0.997095 0.0761708 0
    outer loop
      vertex -0.0760345 6.35483 1.3
      vertex -0.0760345 6.35483 1.8
      vertex -0.0619049 6.53979 1.8
    endloop
  endfacet
  facet normal 0 0 1
    outer loop
      vertex -0.0760345 6.35483 1.8
      vertex 0.627625 7.77739 1.8
      vertex -0.0619049 6.53979 1.8
    endloop
  endfacet
  facet normal -0.993825 -0.110961 0
    outer loop
      vertex -0.105042 6.92615 1.3
      vertex -0.0619049 6.53979 1.3
      vertex -0.105042 6.92615 1.8
    endloop
  endfacet
  facet normal -0.993825 -0.110961 0
    outer loop
      vertex -0.105042 6.92615 1.8
      vertex -0.0619049 6.53979 1.3
      vertex -0.0619049 6.53979 1.8
    endloop
  endfacet
  facet normal 0 0 1
    outer loop
      vertex -0.105042 6.92615 1.8
      vertex -0.0619049 6.53979 1.8
      vertex 0.627625 7.77739 1.8
    endloop
  endfacet
  facet normal -0.974534 0.224238 0
    outer loop
      vertex -0.118423 6.17061 1.3
      vertex -0.0760345 6.35483 1.8
      vertex -0.0760345 6.35483 1.3
    endloop
  endfacet
  facet normal -0.974534 0.224238 0
    outer loop
      vertex -0.118423 6.17061 1.3
      vertex -0.118423 6.17061 1.8
      vertex -0.0760345 6.35483 1.8
    endloop
  endfacet
  facet normal 0 0 1
    outer loop
      vertex -0.118423 6.17061 1.8
      vertex 0.0126953 3.51874 1.8
      vertex 0.627625 7.77739 1.8
    endloop
  endfacet
  facet normal 0 0 1
    outer loop
      vertex -0.118423 6.17061 1.8
      vertex 0.627625 7.77739 1.8
      vertex -0.0760345 6.35483 1.8
    endloop
  endfacet
  facet normal -0.93323 0.359279 0
    outer loop
      vertex -0.189056 5.98714 1.3
      vertex -0.118423 6.17061 1.8
      vertex -0.118423 6.17061 1.3
    endloop
  endfacet
  facet normal -0.93323 0.359279 0
    outer loop
      vertex -0.189056 5.98714 1.3
      vertex -0.189056 5.98714 1.8
      vertex -0.118423 6.17061 1.8
    endloop
  endfacet
  facet normal -0 0 1
    outer loop
      vertex -0.189056 5.98714 1.8
      vertex 0.0126953 3.51874 1.8
      vertex -0.118423 6.17061 1.8
    endloop
  endfacet
  facet normal -0.92813 -0.372256 0
    outer loop
      vertex -0.234467 7.24884 1.3
      vertex -0.105042 6.92615 1.3
      vertex -0.234467 7.24884 1.8
    endloop
  endfacet
  facet normal -0.92813 -0.372256 0
    outer loop
      vertex -0.234467 7.24884 1.8
      vertex -0.105042 6.92615 1.3
      vertex -0.105042 6.92615 1.8
    endloop
  endfacet
  facet normal 0 0 1
    outer loop
      vertex -0.234467 7.24884 1.8
      vertex -0.105042 6.92615 1.8
      vertex 0.627625 7.77739 1.8
    endloop
  endfacet
  facet normal -0.880623 0.473817 0
    outer loop
      vertex -0.287567 5.80405 1.3
      vertex -0.189056 5.98714 1.8
      vertex -0.189056 5.98714 1.3
    endloop
  endfacet
  facet normal -0.880623 0.473817 0
    outer loop
      vertex -0.287567 5.80405 1.3
      vertex -0.287567 5.80405 1.8
      vertex -0.189056 5.98714 1.8
    endloop
  endfacet
  facet normal -0 0 1
    outer loop
      vertex -0.287567 5.80405 1.8
      vertex 0.0126953 3.51874 1.8
      vertex -0.189056 5.98714 1.8
    endloop
  endfacet
  facet normal -0.823761 0.566938 0
    outer loop
      vertex -0.413589 5.62094 1.3
      vertex -0.287567 5.80405 1.8
      vertex -0.287567 5.80405 1.3
    endloop
  endfacet
  facet normal -0.823761 0.566938 0
    outer loop
      vertex -0.413589 5.62094 1.3
      vertex -0.413589 5.62094 1.8
      vertex -0.287567 5.80405 1.8
    endloop
  endfacet
  facet normal -0 0 1
    outer loop
      vertex -0.413589 5.62094 1.8
      vertex 0.0126953 3.51874 1.8
      vertex -0.287567 5.80405 1.8
    endloop
  endfacet
  facet normal -0.768419 -0.639947 0
    outer loop
      vertex -0.450165 7.50784 1.3
      vertex -0.234467 7.24884 1.3
      vertex -0.450165 7.50784 1.8
    endloop
  endfacet
  facet normal -0.768419 -0.639947 0
    outer loop
      vertex -0.450165 7.50784 1.8
      vertex -0.234467 7.24884 1.3
      vertex -0.234467 7.24884 1.8
    endloop
  endfacet
  facet normal 0 0 1
    outer loop
      vertex -0.450165 7.50784 1.8
      vertex -0.234467 7.24884 1.8
      vertex 0.627625 7.77739 1.8
    endloop
  endfacet
  facet normal 0.156416 0.987691 -0
    outer loop
      vertex -0.494427 14.9783 1.8
      vertex 0 14.9 1.8
      vertex 0 14.9 3.8147e-07
    endloop
  endfacet
  facet normal 0.156416 0.987691 0
    outer loop
      vertex -0.494427 14.9783 3.8147e-07
      vertex -0.494427 14.9783 1.8
      vertex 0 14.9 3.8147e-07
    endloop
  endfacet
  facet normal 0 0 1
    outer loop
      vertex -0.494427 18.0217 1.8
      vertex 0 18.1 1.8
      vertex -0.494427 29.1433 1.8
    endloop
  endfacet
  facet normal 0 0 -1
    outer loop
      vertex -0.494427 18.0217 3.8147e-07
      vertex -0.494427 29.1433 3.8147e-07
      vertex 0 29.065 3.8147e-07
    endloop
  endfacet
  facet normal 0.156416 -0.987691 0
    outer loop
      vertex -0.494427 18.0217 3.8147e-07
      vertex 0 18.1 1.8
      vertex -0.494427 18.0217 1.8
    endloop
  endfacet
  facet normal 0.156416 -0.987691 0
    outer loop
      vertex -0.494427 18.0217 3.8147e-07
      vertex 0 18.1 3.8147e-07
      vertex 0 18.1 1.8
    endloop
  endfacet
  facet normal 0 0 -1
    outer loop
      vertex -0.494427 18.0217 3.8147e-07
      vertex 0 29.065 3.8147e-07
      vertex 0 18.1 3.8147e-07
    endloop
  endfacet
  facet normal 0 0 1
    outer loop
      vertex -0.494427 29.1433 1.8
      vertex 0 18.1 1.8
      vertex 0 29.065 1.8
    endloop
  endfacet
  facet normal 0.156416 0.987691 -0
    outer loop
      vertex -0.494427 29.1433 1.8
      vertex 0 29.065 1.8
      vertex 0 29.065 3.8147e-07
    endloop
  endfacet
  facet normal 0.156416 0.987691 0
    outer loop
      vertex -0.494427 29.1433 3.8147e-07
      vertex -0.494427 29.1433 1.8
      vertex 0 29.065 3.8147e-07
    endloop
  endfacet
  facet normal 0.156416 -0.987691 0
    outer loop
      vertex -0.494427 32.1867 3.8147e-07
      vertex 0 32.265 1.8
      vertex -0.494427 32.1867 1.8
    endloop
  endfacet
  facet normal 0.156416 -0.987691 0
    outer loop
      vertex -0.494427 32.1867 3.8147e-07
      vertex 0 32.265 3.8147e-07
      vertex 0 32.265 1.8
    endloop
  endfacet
  facet normal -0.766292 0.642493 0
    outer loop
      vertex -0.567108 5.43784 1.3
      vertex -0.413589 5.62094 1.8
      vertex -0.413589 5.62094 1.3
    endloop
  endfacet
  facet normal -0.766292 0.642493 0
    outer loop
      vertex -0.567108 5.43784 1.3
      vertex -0.567108 5.43784 1.8
      vertex -0.413589 5.62094 1.8
    endloop
  endfacet
  facet normal -0 0 1
    outer loop
      vertex -0.567108 5.43784 1.8
      vertex 0.0126953 3.51874 1.8
      vertex -0.413589 5.62094 1.8
    endloop
  endfacet
  facet normal 0 0 1
    outer loop
      vertex -0.689163 6.51944 1.3
      vertex -0.0760345 6.35483 1.3
      vertex -0.0619049 6.53979 1.3
    endloop
  endfacet
  facet normal 0 0 1
    outer loop
      vertex -0.704041 6.33185 1.3
      vertex -0.0760345 6.35483 1.3
      vertex -0.689163 6.51944 1.3
    endloop
  endfacet
  facet normal 0 0 1
    outer loop
      vertex -0.704041 6.33185 1.3
      vertex -0.118423 6.17061 1.3
      vertex -0.0760345 6.35483 1.3
    endloop
  endfacet
  facet normal 0 0 1
    outer loop
      vertex -0.704041 6.33185 1.3
      vertex -0.189056 5.98714 1.3
      vertex -0.118423 6.17061 1.3
    endloop
  endfacet
  facet normal 0.99687 -0.079063 0
    outer loop
      vertex -0.704041 6.33185 1.3
      vertex -0.689163 6.51944 1.3
      vertex -0.704041 6.33185 1.8
    endloop
  endfacet
  facet normal 0.99687 -0.079063 0
    outer loop
      vertex -0.704041 6.33185 1.8
      vertex -0.689163 6.51944 1.3
      vertex -0.689163 6.51944 1.8
    endloop
  endfacet
  facet normal -0 0 1
    outer loop
      vertex -0.714783 6.76208 1.3
      vertex -0.0619049 6.53979 1.3
      vertex -0.105042 6.92615 1.3
    endloop
  endfacet
  facet normal 0 0 1
    outer loop
      vertex -0.714783 6.76208 1.3
      vertex -0.105042 6.92615 1.3
      vertex -0.234467 7.24884 1.3
    endloop
  endfacet
  facet normal 0 0 1
    outer loop
      vertex -0.714783 6.76208 1.3
      vertex -0.689163 6.51944 1.3
      vertex -0.0619049 6.53979 1.3
    endloop
  endfacet
  facet normal 0.994472 0.105005 0
    outer loop
      vertex -0.714783 6.76208 1.3
      vertex -0.689163 6.51944 1.8
      vertex -0.689163 6.51944 1.3
    endloop
  endfacet
  facet normal 0.994472 0.105005 0
    outer loop
      vertex -0.714783 6.76208 1.3
      vertex -0.714783 6.76208 1.8
      vertex -0.689163 6.51944 1.8
    endloop
  endfacet
  facet normal -0.538903 -0.842368 -0
    outer loop
      vertex -0.746063 7.69714 1.3
      vertex -0.450165 7.50784 1.3
      vertex -0.450165 7.50784 1.8
    endloop
  endfacet
  facet normal -0.538903 -0.842368 0
    outer loop
      vertex -0.746063 7.69714 1.3
      vertex -0.450165 7.50784 1.8
      vertex -0.746063 7.69714 1.8
    endloop
  endfacet
  facet normal 0 0 1
    outer loop
      vertex -0.746063 7.69714 1.8
      vertex -0.450165 7.50784 1.8
      vertex 0.627625 7.77739 1.8
    endloop
  endfacet
  facet normal -0 0 1
    outer loop
      vertex -0.748688 6.15779 1.3
      vertex -0.189056 5.98714 1.3
      vertex -0.704041 6.33185 1.3
    endloop
  endfacet
  facet normal 0 0 1
    outer loop
      vertex -0.748688 6.15779 1.3
      vertex -0.287567 5.80405 1.3
      vertex -0.189056 5.98714 1.3
    endloop
  endfacet
  facet normal 0.968642 -0.24846 0
    outer loop
      vertex -0.748688 6.15779 1.3
      vertex -0.704041 6.33185 1.3
      vertex -0.748688 6.15779 1.8
    endloop
  endfacet
  facet normal 0.968642 -0.24846 0
    outer loop
      vertex -0.748688 6.15779 1.8
      vertex -0.704041 6.33185 1.3
      vertex -0.704041 6.33185 1.8
    endloop
  endfacet
  facet normal -0.704655 0.70955 0
    outer loop
      vertex -0.785233 5.22122 1.3
      vertex -0.785233 5.22122 1.8
      vertex -0.567108 5.43784 1.3
    endloop
  endfacet
  facet normal -0.704655 0.70955 0
    outer loop
      vertex -0.785233 5.22122 1.8
      vertex -0.567108 5.43784 1.8
      vertex -0.567108 5.43784 1.3
    endloop
  endfacet
  facet normal -0 0 1
    outer loop
      vertex -0.785233 5.22122 1.8
      vertex 0.0126953 3.51874 1.8
      vertex -0.567108 5.43784 1.8
    endloop
  endfacet
  facet normal 0 0 1
    outer loop
      vertex -0.791641 6.96553 1.3
      vertex -0.234467 7.24884 1.3
      vertex -0.450165 7.50784 1.3
    endloop
  endfacet
  facet normal 0 0 1
    outer loop
      vertex -0.791641 6.96553 1.3
      vertex -0.714783 6.76208 1.3
      vertex -0.234467 7.24884 1.3
    endloop
  endfacet
  facet normal 0.935473 0.353397 0
    outer loop
      vertex -0.791641 6.96553 1.3
      vertex -0.714783 6.76208 1.8
      vertex -0.714783 6.76208 1.3
    endloop
  endfacet
  facet normal 0.935473 0.353397 0
    outer loop
      vertex -0.791641 6.96553 1.3
      vertex -0.791641 6.96553 1.8
      vertex -0.714783 6.76208 1.8
    endloop
  endfacet
  facet normal -0 0 1
    outer loop
      vertex -0.823105 5.9973 1.3
      vertex -0.287567 5.80405 1.3
      vertex -0.748688 6.15779 1.3
    endloop
  endfacet
  facet normal 0 0 1
    outer loop
      vertex -0.823105 5.9973 1.3
      vertex -0.413589 5.62094 1.3
      vertex -0.287567 5.80405 1.3
    endloop
  endfacet
  facet normal 0.907217 -0.420664 0
    outer loop
      vertex -0.823105 5.9973 1.3
      vertex -0.748688 6.15779 1.3
      vertex -0.823105 5.9973 1.8
    endloop
  endfacet
  facet normal 0.907217 -0.420664 0
    outer loop
      vertex -0.823105 5.9973 1.8
      vertex -0.748688 6.15779 1.3
      vertex -0.748688 6.15779 1.8
    endloop
  endfacet
  facet normal 0 0 1
    outer loop
      vertex -0.919754 7.12979 1.3
      vertex -0.450165 7.50784 1.3
      vertex -0.746063 7.69714 1.3
    endloop
  endfacet
  facet normal 0 0 1
    outer loop
      vertex -0.919754 7.12979 1.3
      vertex -0.791641 6.96553 1.3
      vertex -0.450165 7.50784 1.3
    endloop
  endfacet
  facet normal 0.788525 0.615003 0
    outer loop
      vertex -0.919754 7.12979 1.3
      vertex -0.791641 6.96553 1.8
      vertex -0.791641 6.96553 1.3
    endloop
  endfacet
  facet normal 0.788525 0.615003 0
    outer loop
      vertex -0.919754 7.12979 1.3
      vertex -0.919754 7.12979 1.8
      vertex -0.791641 6.96553 1.8
    endloop
  endfacet
  facet normal -0 0 1
    outer loop
      vertex -0.921631 5.84584 1.3
      vertex -0.413589 5.62094 1.3
      vertex -0.823105 5.9973 1.3
    endloop
  endfacet
  facet normal 0 0 1
    outer loop
      vertex -0.921631 5.84584 1.3
      vertex -0.567108 5.43784 1.3
      vertex -0.413589 5.62094 1.3
    endloop
  endfacet
  facet normal 0.838249 -0.545288 0
    outer loop
      vertex -0.921631 5.84584 1.3
      vertex -0.823105 5.9973 1.3
      vertex -0.921631 5.84584 1.8
    endloop
  endfacet
  facet normal 0.838249 -0.545288 0
    outer loop
      vertex -0.921631 5.84584 1.8
      vertex -0.823105 5.9973 1.3
      vertex -0.823105 5.9973 1.8
    endloop
  endfacet
  facet normal 0.454049 0.890977 -0
    outer loop
      vertex -0.940456 15.2056 1.8
      vertex -0.494427 14.9783 1.8
      vertex -0.494427 14.9783 3.8147e-07
    endloop
  endfacet
  facet normal 0.454049 0.890977 0
    outer loop
      vertex -0.940456 15.2056 3.8147e-07
      vertex -0.940456 15.2056 1.8
      vertex -0.494427 14.9783 3.8147e-07
    endloop
  endfacet
  facet normal 0 0 1
    outer loop
      vertex -0.940456 17.7944 1.8
      vertex -0.494427 18.0217 1.8
      vertex -0.940456 29.3706 1.8
    endloop
  endfacet
  facet normal 0.454049 -0.890977 0
    outer loop
      vertex -0.940456 17.7944 3.8147e-07
      vertex -0.494427 18.0217 1.8
      vertex -0.940456 17.7944 1.8
    endloop
  endfacet
  facet normal 0.454049 -0.890977 0
    outer loop
      vertex -0.940456 17.7944 3.8147e-07
      vertex -0.494427 18.0217 3.8147e-07
      vertex -0.494427 18.0217 1.8
    endloop
  endfacet
  facet normal 0 0 -1
    outer loop
      vertex -0.940456 17.7944 3.8147e-07
      vertex -0.494427 29.1433 3.8147e-07
      vertex -0.494427 18.0217 3.8147e-07
    endloop
  endfacet
  facet normal 0 0 -1
    outer loop
      vertex -0.940456 17.7944 3.8147e-07
      vertex -0.940456 29.3706 3.8147e-07
      vertex -0.494427 29.1433 3.8147e-07
    endloop
  endfacet
  facet normal 0 0 1
    outer loop
      vertex -0.940456 29.3706 1.8
      vertex -0.494427 18.0217 1.8
      vertex -0.494427 29.1433 1.8
    endloop
  endfacet
  facet normal 0.454049 0.890977 -0
    outer loop
      vertex -0.940456 29.3706 1.8
      vertex -0.494427 29.1433 1.8
      vertex -0.494427 29.1433 3.8147e-07
    endloop
  endfacet
  facet normal 0.454049 0.890977 0
    outer loop
      vertex -0.940456 29.3706 3.8147e-07
      vertex -0.940456 29.3706 1.8
      vertex -0.494427 29.1433 3.8147e-07
    endloop
  endfacet
  facet normal 0.454049 -0.890977 0
    outer loop
      vertex -0.940456 31.9594 3.8147e-07
      vertex -0.494427 32.1867 1.8
      vertex -0.940456 31.9594 1.8
    endloop
  endfacet
  facet normal 0.454049 -0.890977 0
    outer loop
      vertex -0.940456 31.9594 3.8147e-07
      vertex -0.494427 32.1867 3.8147e-07
      vertex -0.494427 32.1867 1.8
    endloop
  endfacet
  facet normal -0 0 1
    outer loop
      vertex -1.03862 5.69891 1.3
      vertex -0.567108 5.43784 1.3
      vertex -0.921631 5.84584 1.3
    endloop
  endfacet
  facet normal 0 0 1
    outer loop
      vertex -1.03862 5.69891 1.3
      vertex -0.785233 5.22122 1.3
      vertex -0.567108 5.43784 1.3
    endloop
  endfacet
  facet normal 0.782308 -0.622892 0
    outer loop
      vertex -1.03862 5.69891 1.3
      vertex -0.921631 5.84584 1.3
      vertex -1.03862 5.69891 1.8
    endloop
  endfacet
  facet normal 0.782308 -0.622892 0
    outer loop
      vertex -1.03862 5.69891 1.8
      vertex -0.921631 5.84584 1.3
      vertex -0.921631 5.84584 1.8
    endloop
  endfacet
  facet normal 0 0 1
    outer loop
      vertex -1.09343 7.25035 1.3
      vertex -0.919754 7.12979 1.3
      vertex -0.746063 7.69714 1.3
    endloop
  endfacet
  facet normal 0.570242 0.821477 0
    outer loop
      vertex -1.09343 7.25035 1.3
      vertex -1.09343 7.25035 1.8
      vertex -0.919754 7.12979 1.3
    endloop
  endfacet
  facet normal 0 0 1
    outer loop
      vertex -1.09343 7.25035 1.8
      vertex -0.714783 6.76208 1.8
      vertex -0.791641 6.96553 1.8
    endloop
  endfacet
  facet normal 0 0 1
    outer loop
      vertex -1.09343 7.25035 1.8
      vertex -0.791641 6.96553 1.8
      vertex -0.919754 7.12979 1.8
    endloop
  endfacet
  facet normal 0.570242 0.821477 -0
    outer loop
      vertex -1.09343 7.25035 1.8
      vertex -0.919754 7.12979 1.8
      vertex -0.919754 7.12979 1.3
    endloop
  endfacet
  facet normal -0.663544 0.748137 0
    outer loop
      vertex -1.10509 4.93753 1.3
      vertex -1.10509 4.93753 1.8
      vertex -0.785233 5.22122 1.3
    endloop
  endfacet
  facet normal -0.663544 0.748137 0
    outer loop
      vertex -1.10509 4.93753 1.8
      vertex -0.785233 5.22122 1.8
      vertex -0.785233 5.22122 1.3
    endloop
  endfacet
  facet normal -0 0 1
    outer loop
      vertex -1.10509 4.93753 1.8
      vertex 0.0126953 3.51874 1.8
      vertex -0.785233 5.22122 1.8
    endloop
  endfacet
  facet normal -0.293382 -0.955995 -0
    outer loop
      vertex -1.1162 7.81073 1.3
      vertex -0.746063 7.69714 1.3
      vertex -0.746063 7.69714 1.8
    endloop
  endfacet
  facet normal -0.293382 -0.955995 0
    outer loop
      vertex -1.1162 7.81073 1.3
      vertex -0.746063 7.69714 1.8
      vertex -1.1162 7.81073 1.8
    endloop
  endfacet
  facet normal 0 0 1
    outer loop
      vertex -1.1162 7.81073 1.3
      vertex -1.09343 7.25035 1.3
      vertex -0.746063 7.69714 1.3
    endloop
  endfacet
  facet normal 0 0 1
    outer loop
      vertex -1.1162 7.81073 1.8
      vertex -0.746063 7.69714 1.8
      vertex 0.627625 7.77739 1.8
    endloop
  endfacet
  facet normal 0 0 1
    outer loop
      vertex -1.1162 7.81073 1.8
      vertex 0 14.9 1.8
      vertex -0.494427 14.9783 1.8
    endloop
  endfacet
  facet normal -0 0 1
    outer loop
      vertex -1.1162 7.81073 1.8
      vertex 0.627625 7.77739 1.8
      vertex 0 14.9 1.8
    endloop
  endfacet
  facet normal -0 0 1
    outer loop
      vertex -1.17406 5.55649 1.3
      vertex -0.785233 5.22122 1.3
      vertex -1.03862 5.69891 1.3
    endloop
  endfacet
  facet normal 0.724641 -0.689126 0
    outer loop
      vertex -1.17406 5.55649 1.3
      vertex -1.03862 5.69891 1.3
      vertex -1.17406 5.55649 1.8
    endloop
  endfacet
  facet normal 0.724641 -0.689126 0
    outer loop
      vertex -1.17406 5.55649 1.8
      vertex -1.03862 5.69891 1.3
      vertex -1.03862 5.69891 1.8
    endloop
  endfacet
  facet normal 0.707033 0.707181 0
    outer loop
      vertex -1.29443 15.5595 3.8147e-07
      vertex -0.940456 15.2056 1.8
      vertex -0.940456 15.2056 3.8147e-07
    endloop
  endfacet
  facet normal 0.707033 0.707181 0
    outer loop
      vertex -1.29443 15.5595 3.8147e-07
      vertex -1.29443 15.5595 1.8
      vertex -0.940456 15.2056 1.8
    endloop
  endfacet
  facet normal 0.707033 -0.707181 0
    outer loop
      vertex -1.29443 17.4405 1.8
      vertex -0.940456 17.7944 3.8147e-07
      vertex -0.940456 17.7944 1.8
    endloop
  endfacet
  facet normal 0.707033 -0.707181 0
    outer loop
      vertex -1.29443 17.4405 3.8147e-07
      vertex -0.940456 17.7944 3.8147e-07
      vertex -1.29443 17.4405 1.8
    endloop
  endfacet
  facet normal 0.707033 0.707181 -0
    outer loop
      vertex -1.29443 29.7245 1.8
      vertex -0.940456 29.3706 1.8
      vertex -0.940456 29.3706 3.8147e-07
    endloop
  endfacet
  facet normal 0.707033 0.707181 0
    outer loop
      vertex -1.29443 29.7245 3.8147e-07
      vertex -1.29443 29.7245 1.8
      vertex -0.940456 29.3706 3.8147e-07
    endloop
  endfacet
  facet normal 0.707033 -0.707181 0
    outer loop
      vertex -1.29443 31.6055 1.8
      vertex -0.940456 31.9594 3.8147e-07
      vertex -0.940456 31.9594 1.8
    endloop
  endfacet
  facet normal 0.707033 -0.707181 0
    outer loop
      vertex -1.29443 31.6055 3.8147e-07
      vertex -0.940456 31.9594 3.8147e-07
      vertex -1.29443 31.6055 1.8
    endloop
  endfacet
  facet normal 0 0 1
    outer loop
      vertex -1.30702 7.32268 1.3
      vertex -1.09343 7.25035 1.3
      vertex -1.1162 7.81073 1.3
    endloop
  endfacet
  facet normal 0.320747 0.947165 0
    outer loop
      vertex -1.30702 7.32268 1.3
      vertex -1.30702 7.32268 1.8
      vertex -1.09343 7.25035 1.3
    endloop
  endfacet
  facet normal 0 0 1
    outer loop
      vertex -1.30702 7.32268 1.8
      vertex -0.689163 6.51944 1.8
      vertex -0.714783 6.76208 1.8
    endloop
  endfacet
  facet normal 0 0 1
    outer loop
      vertex -1.30702 7.32268 1.8
      vertex -0.714783 6.76208 1.8
      vertex -1.09343 7.25035 1.8
    endloop
  endfacet
  facet normal 0.320747 0.947165 -0
    outer loop
      vertex -1.30702 7.32268 1.8
      vertex -1.09343 7.25035 1.8
      vertex -1.09343 7.25035 1.3
    endloop
  endfacet
  facet normal -0 0 1
    outer loop
      vertex -1.32457 5.41637 1.3
      vertex -0.785233 5.22122 1.3
      vertex -1.17406 5.55649 1.3
    endloop
  endfacet
  facet normal 0 0 1
    outer loop
      vertex -1.32457 5.41637 1.3
      vertex -1.10509 4.93753 1.3
      vertex -0.785233 5.22122 1.3
    endloop
  endfacet
  facet normal 0.681392 -0.731918 0
    outer loop
      vertex -1.32457 5.41637 1.3
      vertex -1.17406 5.55649 1.3
      vertex -1.17406 5.55649 1.8
    endloop
  endfacet
  facet normal 0.681392 -0.731918 0
    outer loop
      vertex -1.32457 5.41637 1.3
      vertex -1.17406 5.55649 1.8
      vertex -1.32457 5.41637 1.8
    endloop
  endfacet
  facet normal -0 0 1
    outer loop
      vertex -1.48674 5.27623 1.3
      vertex -1.10509 4.93753 1.3
      vertex -1.32457 5.41637 1.3
    endloop
  endfacet
  facet normal 0.653845 -0.756629 0
    outer loop
      vertex -1.48674 5.27623 1.3
      vertex -1.32457 5.41637 1.3
      vertex -1.32457 5.41637 1.8
    endloop
  endfacet
  facet normal 0.653845 -0.756629 0
    outer loop
      vertex -1.48674 5.27623 1.3
      vertex -1.32457 5.41637 1.8
      vertex -1.48674 5.27623 1.8
    endloop
  endfacet
  facet normal 0.891038 0.453928 0
    outer loop
      vertex -1.52169 16.0056 3.8147e-07
      vertex -1.29443 15.5595 1.8
      vertex -1.29443 15.5595 3.8147e-07
    endloop
  endfacet
  facet normal 0.891038 0.453928 0
    outer loop
      vertex -1.52169 16.0056 3.8147e-07
      vertex -1.52169 16.0056 1.8
      vertex -1.29443 15.5595 1.8
    endloop
  endfacet
  facet normal 0.891038 -0.453928 0
    outer loop
      vertex -1.52169 16.9944 1.8
      vertex -1.29443 17.4405 3.8147e-07
      vertex -1.29443 17.4405 1.8
    endloop
  endfacet
  facet normal 0.891038 -0.453928 0
    outer loop
      vertex -1.52169 16.9944 3.8147e-07
      vertex -1.29443 17.4405 3.8147e-07
      vertex -1.52169 16.9944 1.8
    endloop
  endfacet
  facet normal 0.891038 0.453928 0
    outer loop
      vertex -1.52169 30.1706 3.8147e-07
      vertex -1.29443 29.7245 1.8
      vertex -1.29443 29.7245 3.8147e-07
    endloop
  endfacet
  facet normal 0.891038 0.453928 0
    outer loop
      vertex -1.52169 30.1706 3.8147e-07
      vertex -1.52169 30.1706 1.8
      vertex -1.29443 29.7245 1.8
    endloop
  endfacet
  facet normal 0.891038 -0.453928 0
    outer loop
      vertex -1.52169 31.1594 1.8
      vertex -1.29443 31.6055 3.8147e-07
      vertex -1.29443 31.6055 1.8
    endloop
  endfacet
  facet normal 0.891038 -0.453928 0
    outer loop
      vertex -1.52169 31.1594 3.8147e-07
      vertex -1.29443 31.6055 3.8147e-07
      vertex -1.52169 31.1594 1.8
    endloop
  endfacet
  facet normal -0.639573 0.768731 0
    outer loop
      vertex -1.52666 4.58679 1.3
      vertex -1.52666 4.58679 1.8
      vertex -1.10509 4.93753 1.3
    endloop
  endfacet
  facet normal -0.639573 0.768731 0
    outer loop
      vertex -1.52666 4.58679 1.8
      vertex -1.10509 4.93753 1.8
      vertex -1.10509 4.93753 1.3
    endloop
  endfacet
  facet normal -0 0 1
    outer loop
      vertex -1.52666 4.58679 1.8
      vertex 0.0126953 3.51874 1.8
      vertex -1.10509 4.93753 1.8
    endloop
  endfacet
  facet normal 0 0 1
    outer loop
      vertex -1.56056 7.34679 1.3
      vertex -1.30702 7.32268 1.3
      vertex -1.56056 7.84859 1.3
    endloop
  endfacet
  facet normal 0.0946664 0.995509 0
    outer loop
      vertex -1.56056 7.34679 1.3
      vertex -1.56056 7.34679 1.8
      vertex -1.30702 7.32268 1.3
    endloop
  endfacet
  facet normal 0 0 1
    outer loop
      vertex -1.56056 7.34679 1.8
      vertex -0.689163 6.51944 1.8
      vertex -1.30702 7.32268 1.8
    endloop
  endfacet
  facet normal 0 0 1
    outer loop
      vertex -1.56056 7.34679 1.8
      vertex -0.704041 6.33185 1.8
      vertex -0.689163 6.51944 1.8
    endloop
  endfacet
  facet normal 0 0 1
    outer loop
      vertex -1.56056 7.34679 1.8
      vertex -0.748688 6.15779 1.8
      vertex -0.704041 6.33185 1.8
    endloop
  endfacet
  facet normal 0 0 1
    outer loop
      vertex -1.56056 7.34679 1.8
      vertex -0.823105 5.9973 1.8
      vertex -0.748688 6.15779 1.8
    endloop
  endfacet
  facet normal 0.0946664 0.995509 -0
    outer loop
      vertex -1.56056 7.34679 1.8
      vertex -1.30702 7.32268 1.8
      vertex -1.30702 7.32268 1.3
    endloop
  endfacet
  facet normal -0.0848936 -0.99639 -0
    outer loop
      vertex -1.56056 7.84859 1.3
      vertex -1.1162 7.81073 1.3
      vertex -1.1162 7.81073 1.8
    endloop
  endfacet
  facet normal -0.0848936 -0.99639 0
    outer loop
      vertex -1.56056 7.84859 1.3
      vertex -1.1162 7.81073 1.8
      vertex -1.56056 7.84859 1.8
    endloop
  endfacet
  facet normal 0 0 1
    outer loop
      vertex -1.56056 7.84859 1.3
      vertex -1.30702 7.32268 1.3
      vertex -1.1162 7.81073 1.3
    endloop
  endfacet
  facet normal 0 0 1
    outer loop
      vertex -1.56056 7.84859 1.8
      vertex -1.1162 7.81073 1.8
      vertex -0.494427 14.9783 1.8
    endloop
  endfacet
  facet normal 0.987687 -0.156444 0
    outer loop
      vertex -1.6 16.5 1.8
      vertex -1.52169 16.9944 3.8147e-07
      vertex -1.52169 16.9944 1.8
    endloop
  endfacet
  facet normal 0.987687 0.156444 0
    outer loop
      vertex -1.6 16.5 3.8147e-07
      vertex -1.52169 16.0056 1.8
      vertex -1.52169 16.0056 3.8147e-07
    endloop
  endfacet
  facet normal 0.987687 -0.156444 0
    outer loop
      vertex -1.6 16.5 3.8147e-07
      vertex -1.52169 16.9944 3.8147e-07
      vertex -1.6 16.5 1.8
    endloop
  endfacet
  facet normal 0.987687 0.156444 0
    outer loop
      vertex -1.6 16.5 3.8147e-07
      vertex -1.6 16.5 1.8
      vertex -1.52169 16.0056 1.8
    endloop
  endfacet
  facet normal 0.987687 -0.156444 0
    outer loop
      vertex -1.6 30.665 1.8
      vertex -1.52169 31.1594 3.8147e-07
      vertex -1.52169 31.1594 1.8
    endloop
  endfacet
  facet normal 0.987687 0.156444 0
    outer loop
      vertex -1.6 30.665 3.8147e-07
      vertex -1.52169 30.1706 1.8
      vertex -1.52169 30.1706 3.8147e-07
    endloop
  endfacet
  facet normal 0.987687 -0.156444 0
    outer loop
      vertex -1.6 30.665 3.8147e-07
      vertex -1.52169 31.1594 3.8147e-07
      vertex -1.6 30.665 1.8
    endloop
  endfacet
  facet normal 0.987687 0.156444 0
    outer loop
      vertex -1.6 30.665 3.8147e-07
      vertex -1.6 30.665 1.8
      vertex -1.52169 30.1706 1.8
    endloop
  endfacet
  facet normal -0 0 1
    outer loop
      vertex -1.66061 5.13609 1.3
      vertex -1.10509 4.93753 1.3
      vertex -1.48674 5.27623 1.3
    endloop
  endfacet
  facet normal 0.627541 -0.778583 0
    outer loop
      vertex -1.66061 5.13609 1.3
      vertex -1.48674 5.27623 1.3
      vertex -1.48674 5.27623 1.8
    endloop
  endfacet
  facet normal 0.627541 -0.778583 0
    outer loop
      vertex -1.66061 5.13609 1.3
      vertex -1.48674 5.27623 1.8
      vertex -1.66061 5.13609 1.8
    endloop
  endfacet
  facet normal 0 0 1
    outer loop
      vertex -1.66061 5.13609 1.3
      vertex -1.52666 4.58679 1.3
      vertex -1.10509 4.93753 1.3
    endloop
  endfacet
  facet normal -0.646894 0.76258 0
    outer loop
      vertex -1.76891 4.38129 1.3
      vertex -1.76891 4.38129 1.8
      vertex -1.52666 4.58679 1.3
    endloop
  endfacet
  facet normal -0.646894 0.76258 0
    outer loop
      vertex -1.76891 4.38129 1.8
      vertex -1.52666 4.58679 1.8
      vertex -1.52666 4.58679 1.3
    endloop
  endfacet
  facet normal -0 0 1
    outer loop
      vertex -1.76891 4.38129 1.8
      vertex 0.0126953 3.51874 1.8
      vertex -1.52666 4.58679 1.8
    endloop
  endfacet
  facet normal 0 0 1
    outer loop
      vertex -1.80527 7.32324 1.3
      vertex -1.56056 7.34679 1.3
      vertex -1.56056 7.84859 1.3
    endloop
  endfacet
  facet normal -0.0957938 0.995401 0
    outer loop
      vertex -1.80527 7.32324 1.3
      vertex -1.80527 7.32324 1.8
      vertex -1.56056 7.34679 1.3
    endloop
  endfacet
  facet normal -0.0957938 0.995401 0
    outer loop
      vertex -1.80527 7.32324 1.8
      vertex -1.56056 7.34679 1.8
      vertex -1.56056 7.34679 1.3
    endloop
  endfacet
  facet normal -0 0 1
    outer loop
      vertex -1.84088 4.992 1.3
      vertex -1.52666 4.58679 1.3
      vertex -1.66061 5.13609 1.3
    endloop
  endfacet
  facet normal 0.624362 -0.781135 0
    outer loop
      vertex -1.84088 4.992 1.3
      vertex -1.66061 5.13609 1.3
      vertex -1.66061 5.13609 1.8
    endloop
  endfacet
  facet normal 0.624362 -0.781135 0
    outer loop
      vertex -1.84088 4.992 1.3
      vertex -1.66061 5.13609 1.8
      vertex -1.84088 4.992 1.8
    endloop
  endfacet
  facet normal 0.0910828 -0.995843 0
    outer loop
      vertex -1.97253 7.81091 1.3
      vertex -1.56056 7.84859 1.3
      vertex -1.56056 7.84859 1.8
    endloop
  endfacet
  facet normal 0.0910828 -0.995843 0
    outer loop
      vertex -1.97253 7.81091 1.3
      vertex -1.56056 7.84859 1.8
      vertex -1.97253 7.81091 1.8
    endloop
  endfacet
  facet normal -0 0 1
    outer loop
      vertex -1.97253 7.81091 1.3
      vertex -1.80527 7.32324 1.3
      vertex -1.56056 7.84859 1.3
    endloop
  endfacet
  facet normal 0 0 1
    outer loop
      vertex -1.97253 7.81091 1.8
      vertex -0.494427 14.9783 1.8
      vertex -0.940456 15.2056 1.8
    endloop
  endfacet
  facet normal 0 0 1
    outer loop
      vertex -1.97253 7.81091 1.8
      vertex -1.56056 7.84859 1.8
      vertex -0.494427 14.9783 1.8
    endloop
  endfacet
  facet normal -0.679487 0.733687 0
    outer loop
      vertex -1.97575 4.18973 1.3
      vertex -1.97575 4.18973 1.8
      vertex -1.76891 4.38129 1.3
    endloop
  endfacet
  facet normal -0.679487 0.733687 0
    outer loop
      vertex -1.97575 4.18973 1.8
      vertex -1.76891 4.38129 1.8
      vertex -1.76891 4.38129 1.3
    endloop
  endfacet
  facet normal -0 0 1
    outer loop
      vertex -1.97575 4.18973 1.8
      vertex 0.0126953 3.51874 1.8
      vertex -1.76891 4.38129 1.8
    endloop
  endfacet
  facet normal 0 0 1
    outer loop
      vertex -11.7874 2.24858 1.8
      vertex -3.03946 6.95345 1.8
      vertex -8.5 17.7062 1.8
    endloop
  endfacet
  facet normal 0 0 1
    outer loop
      vertex -11.7874 2.24858 1.8
      vertex -3.12366 6.59744 1.8
      vertex -3.03946 6.95345 1.8
    endloop
  endfacet
  facet normal 0 0 1
    outer loop
      vertex -11.7874 2.24858 1.8
      vertex -3.15076 3 1.8
      vertex -3.15076 3.43059 1.8
    endloop
  endfacet
  facet normal 0 0 1
    outer loop
      vertex -11.7874 2.24858 1.8
      vertex -3.15076 3.43059 1.8
      vertex -3.12366 6.59744 1.8
    endloop
  endfacet
  facet normal -0 0 -1
    outer loop
      vertex -11.7874 2.24858 3.8147e-07
      vertex -0.494427 14.9783 3.8147e-07
      vertex 0 14.9 3.8147e-07
    endloop
  endfacet
  facet normal -0 0 -1
    outer loop
      vertex -11.7874 2.24858 3.8147e-07
      vertex -0.940456 15.2056 3.8147e-07
      vertex -0.494427 14.9783 3.8147e-07
    endloop
  endfacet
  facet normal -0 0 -1
    outer loop
      vertex -11.7874 2.24858 3.8147e-07
      vertex -1.29443 15.5595 3.8147e-07
      vertex -0.940456 15.2056 3.8147e-07
    endloop
  endfacet
  facet normal -0.978125 0.20802 0
    outer loop
      vertex -11.7874 2.24858 3.8147e-07
      vertex -11.7874 2.24858 1.8
      vertex -8.5 17.7062 1.8
    endloop
  endfacet
  facet normal -0.978125 0.20802 0
    outer loop
      vertex -11.7874 2.24858 3.8147e-07
      vertex -8.5 17.7062 1.8
      vertex -8.5 17.7062 3.8147e-07
    endloop
  endfacet
  facet normal -0 0 -1
    outer loop
      vertex -11.7874 2.24858 3.8147e-07
      vertex -8.5 17.7062 3.8147e-07
      vertex -1.29443 15.5595 3.8147e-07
    endloop
  endfacet
  facet normal 0 0 -1
    outer loop
      vertex -11.7874 2.24858 3.8147e-07
      vertex 0 14.9 3.8147e-07
      vertex 11.7874 2.24858 3.8147e-07
    endloop
  endfacet
  facet normal 0 0 -1
    outer loop
      vertex -11.7874 2.24858 3.8147e-07
      vertex 11.7874 2.24858 3.8147e-07
      vertex 12 0 3.8147e-07
    endloop
  endfacet
  facet normal 0 0 1
    outer loop
      vertex -11.9054 1.504 1.8
      vertex -3.15076 3 1.8
      vertex -11.7874 2.24858 1.8
    endloop
  endfacet
  facet normal -0.987674 0.156525 0
    outer loop
      vertex -11.9054 1.504 3.8147e-07
      vertex -11.7874 2.24858 1.8
      vertex -11.7874 2.24858 3.8147e-07
    endloop
  endfacet
  facet normal 0 0 -1
    outer loop
      vertex -11.9054 1.504 3.8147e-07
      vertex -11.7874 2.24858 3.8147e-07
      vertex 12 0 3.8147e-07
    endloop
  endfacet
  facet normal -0.987674 0.156525 0
    outer loop
      vertex -11.9054 1.504 3.8147e-07
      vertex -11.9054 1.504 1.8
      vertex -11.7874 2.24858 1.8
    endloop
  endfacet
  facet normal 0 0 1
    outer loop
      vertex -11.9763 0.753486 1.8
      vertex -3.15076 3 1.8
      vertex -11.9054 1.504 1.8
    endloop
  endfacet
  facet normal -0.995567 0.0940499 0
    outer loop
      vertex -11.9763 0.753486 3.8147e-07
      vertex -11.9054 1.504 1.8
      vertex -11.9054 1.504 3.8147e-07
    endloop
  endfacet
  facet normal 0 0 -1
    outer loop
      vertex -11.9763 0.753486 3.8147e-07
      vertex -11.9054 1.504 3.8147e-07
      vertex 12 0 3.8147e-07
    endloop
  endfacet
  facet normal -0.995567 0.0940499 0
    outer loop
      vertex -11.9763 0.753486 3.8147e-07
      vertex -11.9763 0.753486 1.8
      vertex -11.9054 1.504 1.8
    endloop
  endfacet
  facet normal 0 0 1
    outer loop
      vertex -12 0 1.8
      vertex -3.15076 3 1.8
      vertex -11.9763 0.753486 1.8
    endloop
  endfacet
  facet normal 0 0 1
    outer loop
      vertex -12 0 1.8
      vertex 0.0126953 3 1.8
      vertex -3.15076 3 1.8
    endloop
  endfacet
  facet normal 0 0 1
    outer loop
      vertex -12 0 1.8
      vertex 12 0 1.8
      vertex 0.0126953 3 1.8
    endloop
  endfacet
  facet normal -0.999506 0.0314383 0
    outer loop
      vertex -12 0 3.8147e-07
      vertex -11.9763 0.753486 1.8
      vertex -11.9763 0.753486 3.8147e-07
    endloop
  endfacet
  facet normal 0 -0 -1
    outer loop
      vertex -12 0 3.8147e-07
      vertex -11.9763 0.753486 3.8147e-07
      vertex 12 0 3.8147e-07
    endloop
  endfacet
  facet normal -0.999506 0.0314383 0
    outer loop
      vertex -12 0 3.8147e-07
      vertex -12 0 1.8
      vertex -11.9763 0.753486 1.8
    endloop
  endfacet
  facet normal 0 -1 0
    outer loop
      vertex -12 0 3.8147e-07
      vertex 12 0 1.8
      vertex -12 0 1.8
    endloop
  endfacet
  facet normal 0 -1 -0
    outer loop
      vertex -12 0 3.8147e-07
      vertex 12 0 3.8147e-07
      vertex 12 0 1.8
    endloop
  endfacet
  facet normal 0 0 1
    outer loop
      vertex -2.01944 7.25259 1.3
      vertex -1.80527 7.32324 1.3
      vertex -1.97253 7.81091 1.3
    endloop
  endfacet
  facet normal -0.313273 0.949663 0
    outer loop
      vertex -2.01944 7.25259 1.3
      vertex -2.01944 7.25259 1.8
      vertex -1.80527 7.32324 1.3
    endloop
  endfacet
  facet normal -0.313273 0.949663 0
    outer loop
      vertex -2.01944 7.25259 1.8
      vertex -1.80527 7.32324 1.8
      vertex -1.80527 7.32324 1.3
    endloop
  endfacet
  facet normal -0 0 1
    outer loop
      vertex -2.02228 4.83998 1.3
      vertex -1.52666 4.58679 1.3
      vertex -1.84088 4.992 1.3
    endloop
  endfacet
  facet normal 0 0 1
    outer loop
      vertex -2.02228 4.83998 1.3
      vertex -1.76891 4.38129 1.3
      vertex -1.52666 4.58679 1.3
    endloop
  endfacet
  facet normal 0.64231 -0.766445 0
    outer loop
      vertex -2.02228 4.83998 1.3
      vertex -1.84088 4.992 1.3
      vertex -1.84088 4.992 1.8
    endloop
  endfacet
  facet normal 0.64231 -0.766445 0
    outer loop
      vertex -2.02228 4.83998 1.3
      vertex -1.84088 4.992 1.8
      vertex -2.02228 4.83998 1.8
    endloop
  endfacet
  facet normal -0.719632 0.694355 0
    outer loop
      vertex -2.14716 4.01208 1.3
      vertex -1.97575 4.18973 1.8
      vertex -1.97575 4.18973 1.3
    endloop
  endfacet
  facet normal -0.719632 0.694355 0
    outer loop
      vertex -2.14716 4.01208 1.3
      vertex -2.14716 4.01208 1.8
      vertex -1.97575 4.18973 1.8
    endloop
  endfacet
  facet normal -0 0 1
    outer loop
      vertex -2.14716 4.01208 1.8
      vertex 0.0126953 3.51874 1.8
      vertex -1.97575 4.18973 1.8
    endloop
  endfacet
  facet normal -0.539708 0.841852 0
    outer loop
      vertex -2.20311 7.13484 1.3
      vertex -2.20311 7.13484 1.8
      vertex -2.01944 7.25259 1.3
    endloop
  endfacet
  facet normal -0.539708 0.841852 0
    outer loop
      vertex -2.20311 7.13484 1.8
      vertex -2.01944 7.25259 1.8
      vertex -2.01944 7.25259 1.3
    endloop
  endfacet
  facet normal -0 0 1
    outer loop
      vertex -2.2048 4.68004 1.3
      vertex -1.76891 4.38129 1.3
      vertex -2.02228 4.83998 1.3
    endloop
  endfacet
  facet normal 0 0 1
    outer loop
      vertex -2.2048 4.68004 1.3
      vertex -1.97575 4.18973 1.3
      vertex -1.76891 4.38129 1.3
    endloop
  endfacet
  facet normal 0.659053 -0.752097 0
    outer loop
      vertex -2.2048 4.68004 1.3
      vertex -2.02228 4.83998 1.3
      vertex -2.02228 4.83998 1.8
    endloop
  endfacet
  facet normal 0.659053 -0.752097 0
    outer loop
      vertex -2.2048 4.68004 1.3
      vertex -2.02228 4.83998 1.8
      vertex -2.2048 4.68004 1.8
    endloop
  endfacet
  facet normal -0.770715 0.63718 0
    outer loop
      vertex -2.28654 3.84349 1.3
      vertex -2.14716 4.01208 1.8
      vertex -2.14716 4.01208 1.3
    endloop
  endfacet
  facet normal -0.770715 0.63718 0
    outer loop
      vertex -2.28654 3.84349 1.3
      vertex -2.28654 3.84349 1.8
      vertex -2.14716 4.01208 1.8
    endloop
  endfacet
  facet normal -0 0 1
    outer loop
      vertex -2.28654 3.84349 1.8
      vertex 0.0126953 3.51874 1.8
      vertex -2.14716 4.01208 1.8
    endloop
  endfacet
  facet normal 0.300428 -0.953805 0
    outer loop
      vertex -2.33138 7.69788 1.3
      vertex -1.97253 7.81091 1.3
      vertex -1.97253 7.81091 1.8
    endloop
  endfacet
  facet normal 0.300428 -0.953805 0
    outer loop
      vertex -2.33138 7.69788 1.3
      vertex -1.97253 7.81091 1.8
      vertex -2.33138 7.69788 1.8
    endloop
  endfacet
  facet normal -0 0 1
    outer loop
      vertex -2.33138 7.69788 1.3
      vertex -2.01944 7.25259 1.3
      vertex -1.97253 7.81091 1.3
    endloop
  endfacet
  facet normal 0 0 1
    outer loop
      vertex -2.33138 7.69788 1.3
      vertex -2.20311 7.13484 1.3
      vertex -2.01944 7.25259 1.3
    endloop
  endfacet
  facet normal 0 0 1
    outer loop
      vertex -2.33138 7.69788 1.8
      vertex -0.940456 15.2056 1.8
      vertex -1.29443 15.5595 1.8
    endloop
  endfacet
  facet normal 0 0 1
    outer loop
      vertex -2.33138 7.69788 1.8
      vertex -1.97253 7.81091 1.8
      vertex -0.940456 15.2056 1.8
    endloop
  endfacet
  facet normal -0.741062 0.671436 0
    outer loop
      vertex -2.34834 6.97455 1.3
      vertex -2.20311 7.13484 1.8
      vertex -2.20311 7.13484 1.3
    endloop
  endfacet
  facet normal -0.741062 0.671436 0
    outer loop
      vertex -2.34834 6.97455 1.3
      vertex -2.34834 6.97455 1.8
      vertex -2.20311 7.13484 1.8
    endloop
  endfacet
  facet normal -0 0 1
    outer loop
      vertex -2.38506 4.50977 1.3
      vertex -1.97575 4.18973 1.3
      vertex -2.2048 4.68004 1.3
    endloop
  endfacet
  facet normal 0 0 1
    outer loop
      vertex -2.38506 4.50977 1.3
      vertex -2.14716 4.01208 1.3
      vertex -1.97575 4.18973 1.3
    endloop
  endfacet
  facet normal 0.686676 -0.726964 0
    outer loop
      vertex -2.38506 4.50977 1.3
      vertex -2.2048 4.68004 1.3
      vertex -2.2048 4.68004 1.8
    endloop
  endfacet
  facet normal 0.686676 -0.726964 0
    outer loop
      vertex -2.38506 4.50977 1.3
      vertex -2.2048 4.68004 1.8
      vertex -2.38506 4.50977 1.8
    endloop
  endfacet
  facet normal -0.829426 0.558617 0
    outer loop
      vertex -2.39729 3.67905 1.3
      vertex -2.28654 3.84349 1.8
      vertex -2.28654 3.84349 1.3
    endloop
  endfacet
  facet normal -0.829426 0.558617 0
    outer loop
      vertex -2.39729 3.67905 1.3
      vertex -2.39729 3.67905 1.8
      vertex -2.28654 3.84349 1.8
    endloop
  endfacet
  facet normal -0 0 1
    outer loop
      vertex -2.39729 3.67905 1.8
      vertex 0.0126953 3.51874 1.8
      vertex -2.28654 3.84349 1.8
    endloop
  endfacet
  facet normal -0.894959 0.446148 0
    outer loop
      vertex -2.44722 6.7762 1.3
      vertex -2.34834 6.97455 1.8
      vertex -2.34834 6.97455 1.3
    endloop
  endfacet
  facet normal -0.894959 0.446148 0
    outer loop
      vertex -2.44722 6.7762 1.3
      vertex -2.44722 6.7762 1.8
      vertex -2.34834 6.97455 1.8
    endloop
  endfacet
  facet normal 0 0 1
    outer loop
      vertex -2.44722 6.7762 1.8
      vertex -1.80527 7.32324 1.8
      vertex -2.01944 7.25259 1.8
    endloop
  endfacet
  facet normal 0 0 1
    outer loop
      vertex -2.44722 6.7762 1.8
      vertex -2.01944 7.25259 1.8
      vertex -2.20311 7.13484 1.8
    endloop
  endfacet
  facet normal 0 0 1
    outer loop
      vertex -2.44722 6.7762 1.8
      vertex -2.20311 7.13484 1.8
      vertex -2.34834 6.97455 1.8
    endloop
  endfacet
  facet normal -0.890043 0.455876 0
    outer loop
      vertex -2.4794 3.51874 1.3
      vertex -2.39729 3.67905 1.8
      vertex -2.39729 3.67905 1.3
    endloop
  endfacet
  facet normal -0.890043 0.455876 0
    outer loop
      vertex -2.4794 3.51874 1.3
      vertex -2.4794 3.51874 1.8
      vertex -2.39729 3.67905 1.8
    endloop
  endfacet
  facet normal -0 0 1
    outer loop
      vertex -2.4794 3.51874 1.3
      vertex 0.0126953 3 1.3
      vertex 0.0126953 3.51874 1.3
    endloop
  endfacet
  facet normal 0 -1 -0
    outer loop
      vertex -2.4794 3.51874 1.3
      vertex 0.0126953 3.51874 1.3
      vertex 0.0126953 3.51874 1.8
    endloop
  endfacet
  facet normal 0 -1 0
    outer loop
      vertex -2.4794 3.51874 1.3
      vertex 0.0126953 3.51874 1.8
      vertex -2.4794 3.51874 1.8
    endloop
  endfacet
  facet normal 0 0 1
    outer loop
      vertex -2.4794 3.51874 1.8
      vertex 0.0126953 3.51874 1.8
      vertex -2.39729 3.67905 1.8
    endloop
  endfacet
  facet normal -0.976183 0.216948 0
    outer loop
      vertex -2.49976 6.53979 1.3
      vertex -2.44722 6.7762 1.8
      vertex -2.44722 6.7762 1.3
    endloop
  endfacet
  facet normal -0.976183 0.216948 0
    outer loop
      vertex -2.49976 6.53979 1.3
      vertex -2.49976 6.53979 1.8
      vertex -2.44722 6.7762 1.8
    endloop
  endfacet
  facet normal -0 0 1
    outer loop
      vertex -2.49976 6.53979 1.8
      vertex -0.823105 5.9973 1.8
      vertex -1.56056 7.34679 1.8
    endloop
  endfacet
  facet normal 0 0 1
    outer loop
      vertex -2.49976 6.53979 1.8
      vertex -0.921631 5.84584 1.8
      vertex -0.823105 5.9973 1.8
    endloop
  endfacet
  facet normal 0 0 1
    outer loop
      vertex -2.49976 6.53979 1.8
      vertex -1.03862 5.69891 1.8
      vertex -0.921631 5.84584 1.8
    endloop
  endfacet
  facet normal 0 0 1
    outer loop
      vertex -2.49976 6.53979 1.8
      vertex -1.17406 5.55649 1.8
      vertex -1.03862 5.69891 1.8
    endloop
  endfacet
  facet normal 0 0 1
    outer loop
      vertex -2.49976 6.53979 1.8
      vertex -1.32457 5.41637 1.8
      vertex -1.17406 5.55649 1.8
    endloop
  endfacet
  facet normal 0 0 1
    outer loop
      vertex -2.49976 6.53979 1.8
      vertex -1.48674 5.27623 1.8
      vertex -1.32457 5.41637 1.8
    endloop
  endfacet
  facet normal 0 0 1
    outer loop
      vertex -2.49976 6.53979 1.8
      vertex -1.56056 7.34679 1.8
      vertex -1.80527 7.32324 1.8
    endloop
  endfacet
  facet normal 0 0 1
    outer loop
      vertex -2.49976 6.53979 1.8
      vertex -1.66061 5.13609 1.8
      vertex -1.48674 5.27623 1.8
    endloop
  endfacet
  facet normal 0 0 1
    outer loop
      vertex -2.49976 6.53979 1.8
      vertex -1.80527 7.32324 1.8
      vertex -2.44722 6.7762 1.8
    endloop
  endfacet
  facet normal 0 0 1
    outer loop
      vertex -2.49976 6.53979 1.8
      vertex -1.84088 4.992 1.8
      vertex -1.66061 5.13609 1.8
    endloop
  endfacet
  facet normal 0 0 1
    outer loop
      vertex -2.49976 6.53979 1.8
      vertex -2.02228 4.83998 1.8
      vertex -1.84088 4.992 1.8
    endloop
  endfacet
  facet normal 0 0 1
    outer loop
      vertex -2.49976 6.53979 1.8
      vertex -2.2048 4.68004 1.8
      vertex -2.02228 4.83998 1.8
    endloop
  endfacet
  facet normal -0 0 1
    outer loop
      vertex -2.55968 4.32666 1.3
      vertex -2.14716 4.01208 1.3
      vertex -2.38506 4.50977 1.3
    endloop
  endfacet
  facet normal 0 0 1
    outer loop
      vertex -2.55968 4.32666 1.3
      vertex -2.28654 3.84349 1.3
      vertex -2.14716 4.01208 1.3
    endloop
  endfacet
  facet normal 0.723685 -0.690131 0
    outer loop
      vertex -2.55968 4.32666 1.3
      vertex -2.38506 4.50977 1.3
      vertex -2.55968 4.32666 1.8
    endloop
  endfacet
  facet normal 0.723685 -0.690131 0
    outer loop
      vertex -2.55968 4.32666 1.8
      vertex -2.38506 4.50977 1.3
      vertex -2.38506 4.50977 1.8
    endloop
  endfacet
  facet normal -0 0 1
    outer loop
      vertex -2.6371 7.50949 1.3
      vertex -2.20311 7.13484 1.3
      vertex -2.33138 7.69788 1.3
    endloop
  endfacet
  facet normal 0.524612 -0.851342 0
    outer loop
      vertex -2.6371 7.50949 1.3
      vertex -2.33138 7.69788 1.3
      vertex -2.33138 7.69788 1.8
    endloop
  endfacet
  facet normal 0.524612 -0.851342 0
    outer loop
      vertex -2.6371 7.50949 1.3
      vertex -2.33138 7.69788 1.8
      vertex -2.6371 7.50949 1.8
    endloop
  endfacet
  facet normal 0 0 1
    outer loop
      vertex -2.6371 7.50949 1.3
      vertex -2.34834 6.97455 1.3
      vertex -2.20311 7.13484 1.3
    endloop
  endfacet
  facet normal 0 0 1
    outer loop
      vertex -2.6371 7.50949 1.8
      vertex -2.33138 7.69788 1.8
      vertex -1.29443 15.5595 1.8
    endloop
  endfacet
  facet normal -0 0 1
    outer loop
      vertex -2.72865 4.13074 1.3
      vertex -2.28654 3.84349 1.3
      vertex -2.55968 4.32666 1.3
    endloop
  endfacet
  facet normal 0 0 1
    outer loop
      vertex -2.72865 4.13074 1.3
      vertex -2.39729 3.67905 1.3
      vertex -2.28654 3.84349 1.3
    endloop
  endfacet
  facet normal 0.75727 -0.653102 0
    outer loop
      vertex -2.72865 4.13074 1.3
      vertex -2.55968 4.32666 1.3
      vertex -2.72865 4.13074 1.8
    endloop
  endfacet
  facet normal 0.75727 -0.653102 0
    outer loop
      vertex -2.72865 4.13074 1.8
      vertex -2.55968 4.32666 1.3
      vertex -2.55968 4.32666 1.8
    endloop
  endfacet
  facet normal -0 0 1
    outer loop
      vertex -2.87727 7.25746 1.3
      vertex -2.34834 6.97455 1.3
      vertex -2.6371 7.50949 1.3
    endloop
  endfacet
  facet normal 0 0 1
    outer loop
      vertex -2.87727 7.25746 1.3
      vertex -2.44722 6.7762 1.3
      vertex -2.34834 6.97455 1.3
    endloop
  endfacet
  facet normal 0.723935 -0.689868 0
    outer loop
      vertex -2.87727 7.25746 1.3
      vertex -2.6371 7.50949 1.3
      vertex -2.87727 7.25746 1.8
    endloop
  endfacet
  facet normal 0.723935 -0.689868 0
    outer loop
      vertex -2.87727 7.25746 1.8
      vertex -2.6371 7.50949 1.3
      vertex -2.6371 7.50949 1.8
    endloop
  endfacet
  facet normal -0 0 1
    outer loop
      vertex -2.88631 3.91808 1.3
      vertex -2.39729 3.67905 1.3
      vertex -2.72865 4.13074 1.3
    endloop
  endfacet
  facet normal 0 0 1
    outer loop
      vertex -2.88631 3.91808 1.3
      vertex -2.4794 3.51874 1.3
      vertex -2.39729 3.67905 1.3
    endloop
  endfacet
  facet normal 0.803315 -0.595555 0
    outer loop
      vertex -2.88631 3.91808 1.3
      vertex -2.72865 4.13074 1.3
      vertex -2.88631 3.91808 1.8
    endloop
  endfacet
  facet normal 0.803315 -0.595555 0
    outer loop
      vertex -2.88631 3.91808 1.8
      vertex -2.72865 4.13074 1.3
      vertex -2.72865 4.13074 1.8
    endloop
  endfacet
  facet normal -0 0 1
    outer loop
      vertex -3.02701 3.68469 1.3
      vertex -2.4794 3.51874 1.3
      vertex -2.88631 3.91808 1.3
    endloop
  endfacet
  facet normal 0.856413 -0.516292 0
    outer loop
      vertex -3.02701 3.68469 1.3
      vertex -2.88631 3.91808 1.3
      vertex -3.02701 3.68469 1.8
    endloop
  endfacet
  facet normal 0.856413 -0.516292 0
    outer loop
      vertex -3.02701 3.68469 1.8
      vertex -2.88631 3.91808 1.3
      vertex -2.88631 3.91808 1.8
    endloop
  endfacet
  facet normal -0 0 1
    outer loop
      vertex -3.03946 6.95345 1.3
      vertex -2.44722 6.7762 1.3
      vertex -2.87727 7.25746 1.3
    endloop
  endfacet
  facet normal 0 0 1
    outer loop
      vertex -3.03946 6.95345 1.3
      vertex -2.49976 6.53979 1.3
      vertex -2.44722 6.7762 1.3
    endloop
  endfacet
  facet normal 0.882291 -0.470704 0
    outer loop
      vertex -3.03946 6.95345 1.3
      vertex -2.87727 7.25746 1.3
      vertex -3.03946 6.95345 1.8
    endloop
  endfacet
  facet normal 0.882291 -0.470704 0
    outer loop
      vertex -3.03946 6.95345 1.8
      vertex -2.87727 7.25746 1.3
      vertex -2.87727 7.25746 1.8
    endloop
  endfacet
  facet normal 0 0 1
    outer loop
      vertex -3.12366 6.59744 1.3
      vertex -2.49976 6.53979 1.3
      vertex -3.03946 6.95345 1.3
    endloop
  endfacet
  facet normal 0.973153 -0.230161 0
    outer loop
      vertex -3.12366 6.59744 1.3
      vertex -3.03946 6.95345 1.3
      vertex -3.12366 6.59744 1.8
    endloop
  endfacet
  facet normal 0.0920107 0.995758 0
    outer loop
      vertex -3.12366 6.59744 1.3
      vertex -3.12366 6.59744 1.8
      vertex -2.49976 6.53979 1.3
    endloop
  endfacet
  facet normal 0 0 1
    outer loop
      vertex -3.12366 6.59744 1.8
      vertex -2.2048 4.68004 1.8
      vertex -2.49976 6.53979 1.8
    endloop
  endfacet
  facet normal 0 0 1
    outer loop
      vertex -3.12366 6.59744 1.8
      vertex -2.38506 4.50977 1.8
      vertex -2.2048 4.68004 1.8
    endloop
  endfacet
  facet normal 0.0920107 0.995758 -0
    outer loop
      vertex -3.12366 6.59744 1.8
      vertex -2.49976 6.53979 1.8
      vertex -2.49976 6.53979 1.3
    endloop
  endfacet
  facet normal 0 0 1
    outer loop
      vertex -3.12366 6.59744 1.8
      vertex -2.55968 4.32666 1.8
      vertex -2.38506 4.50977 1.8
    endloop
  endfacet
  facet normal 0 0 1
    outer loop
      vertex -3.12366 6.59744 1.8
      vertex -2.72865 4.13074 1.8
      vertex -2.55968 4.32666 1.8
    endloop
  endfacet
  facet normal 0 0 1
    outer loop
      vertex -3.12366 6.59744 1.8
      vertex -2.88631 3.91808 1.8
      vertex -2.72865 4.13074 1.8
    endloop
  endfacet
  facet normal 0 0 1
    outer loop
      vertex -3.12366 6.59744 1.8
      vertex -3.02701 3.68469 1.8
      vertex -2.88631 3.91808 1.8
    endloop
  endfacet
  facet normal 0.973153 -0.230161 0
    outer loop
      vertex -3.12366 6.59744 1.8
      vertex -3.03946 6.95345 1.3
      vertex -3.03946 6.95345 1.8
    endloop
  endfacet
  facet normal 0 0 1
    outer loop
      vertex -3.15076 3 1.3
      vertex -2.4794 3.51874 1.3
      vertex -3.15076 3.43059 1.3
    endloop
  endfacet
  facet normal 0 1 0
    outer loop
      vertex -3.15076 3 1.3
      vertex -3.15076 3 1.8
      vertex 0.0126953 3 1.3
    endloop
  endfacet
  facet normal 1 0 0
    outer loop
      vertex -3.15076 3 1.3
      vertex -3.15076 3.43059 1.3
      vertex -3.15076 3 1.8
    endloop
  endfacet
  facet normal 0 0 1
    outer loop
      vertex -3.15076 3 1.3
      vertex 0.0126953 3 1.3
      vertex -2.4794 3.51874 1.3
    endloop
  endfacet
  facet normal 1 -0 0
    outer loop
      vertex -3.15076 3 1.8
      vertex -3.15076 3.43059 1.3
      vertex -3.15076 3.43059 1.8
    endloop
  endfacet
  facet normal 0 1 -0
    outer loop
      vertex -3.15076 3 1.8
      vertex 0.0126953 3 1.8
      vertex 0.0126953 3 1.3
    endloop
  endfacet
  facet normal 0 0 1
    outer loop
      vertex -3.15076 3.43059 1.3
      vertex -2.4794 3.51874 1.3
      vertex -3.02701 3.68469 1.3
    endloop
  endfacet
  facet normal 0.899049 -0.437848 0
    outer loop
      vertex -3.15076 3.43059 1.3
      vertex -3.02701 3.68469 1.3
      vertex -3.15076 3.43059 1.8
    endloop
  endfacet
  facet normal 0.899049 -0.437848 0
    outer loop
      vertex -3.15076 3.43059 1.8
      vertex -3.02701 3.68469 1.3
      vertex -3.02701 3.68469 1.8
    endloop
  endfacet
  facet normal 0 0 1
    outer loop
      vertex -3.15076 3.43059 1.8
      vertex -3.02701 3.68469 1.8
      vertex -3.12366 6.59744 1.8
    endloop
  endfacet
  facet normal 0 0 1
    outer loop
      vertex -8.5 17.7062 1.8
      vertex -0.940456 17.7944 1.8
      vertex -0.940456 29.3706 1.8
    endloop
  endfacet
  facet normal 0 0 1
    outer loop
      vertex -8.5 17.7062 1.8
      vertex -0.940456 29.3706 1.8
      vertex -1.29443 29.7245 1.8
    endloop
  endfacet
  facet normal 0 0 1
    outer loop
      vertex -8.5 17.7062 1.8
      vertex -1.29443 15.5595 1.8
      vertex -1.52169 16.0056 1.8
    endloop
  endfacet
  facet normal 0 0 1
    outer loop
      vertex -8.5 17.7062 1.8
      vertex -1.29443 17.4405 1.8
      vertex -0.940456 17.7944 1.8
    endloop
  endfacet
  facet normal 0 0 1
    outer loop
      vertex -8.5 17.7062 1.8
      vertex -1.29443 29.7245 1.8
      vertex -1.52169 30.1706 1.8
    endloop
  endfacet
  facet normal 0 0 1
    outer loop
      vertex -8.5 17.7062 1.8
      vertex -1.52169 16.0056 1.8
      vertex -1.6 16.5 1.8
    endloop
  endfacet
  facet normal 0 0 1
    outer loop
      vertex -8.5 17.7062 1.8
      vertex -1.52169 16.9944 1.8
      vertex -1.29443 17.4405 1.8
    endloop
  endfacet
  facet normal 0 0 1
    outer loop
      vertex -8.5 17.7062 1.8
      vertex -1.52169 30.1706 1.8
      vertex -8.5 35 1.8
    endloop
  endfacet
  facet normal 0 0 1
    outer loop
      vertex -8.5 17.7062 1.8
      vertex -1.6 16.5 1.8
      vertex -1.52169 16.9944 1.8
    endloop
  endfacet
  facet normal 0 0 1
    outer loop
      vertex -8.5 17.7062 1.8
      vertex -2.6371 7.50949 1.8
      vertex -1.29443 15.5595 1.8
    endloop
  endfacet
  facet normal 0 0 1
    outer loop
      vertex -8.5 17.7062 1.8
      vertex -2.87727 7.25746 1.8
      vertex -2.6371 7.50949 1.8
    endloop
  endfacet
  facet normal 0 0 1
    outer loop
      vertex -8.5 17.7062 1.8
      vertex -3.03946 6.95345 1.8
      vertex -2.87727 7.25746 1.8
    endloop
  endfacet
  facet normal 0 0 -1
    outer loop
      vertex -8.5 17.7062 3.8147e-07
      vertex -0.940456 17.7944 3.8147e-07
      vertex -1.29443 17.4405 3.8147e-07
    endloop
  endfacet
  facet normal -0 0 -1
    outer loop
      vertex -8.5 17.7062 3.8147e-07
      vertex -0.940456 29.3706 3.8147e-07
      vertex -0.940456 17.7944 3.8147e-07
    endloop
  endfacet
  facet normal 0 0 -1
    outer loop
      vertex -8.5 17.7062 3.8147e-07
      vertex -1.29443 17.4405 3.8147e-07
      vertex -1.52169 16.9944 3.8147e-07
    endloop
  endfacet
  facet normal -0 0 -1
    outer loop
      vertex -8.5 17.7062 3.8147e-07
      vertex -1.29443 29.7245 3.8147e-07
      vertex -0.940456 29.3706 3.8147e-07
    endloop
  endfacet
  facet normal 0 0 -1
    outer loop
      vertex -8.5 17.7062 3.8147e-07
      vertex -1.52169 16.0056 3.8147e-07
      vertex -1.29443 15.5595 3.8147e-07
    endloop
  endfacet
  facet normal 0 0 -1
    outer loop
      vertex -8.5 17.7062 3.8147e-07
      vertex -1.52169 16.9944 3.8147e-07
      vertex -1.6 16.5 3.8147e-07
    endloop
  endfacet
  facet normal -0 0 -1
    outer loop
      vertex -8.5 17.7062 3.8147e-07
      vertex -1.52169 30.1706 3.8147e-07
      vertex -1.29443 29.7245 3.8147e-07
    endloop
  endfacet
  facet normal 0 0 -1
    outer loop
      vertex -8.5 17.7062 3.8147e-07
      vertex -1.6 16.5 3.8147e-07
      vertex -1.52169 16.0056 3.8147e-07
    endloop
  endfacet
  facet normal -1 -0 0
    outer loop
      vertex -8.5 17.7062 3.8147e-07
      vertex -8.5 17.7062 1.8
      vertex -8.5 35 1.8
    endloop
  endfacet
  facet normal -1 0 0
    outer loop
      vertex -8.5 17.7062 3.8147e-07
      vertex -8.5 35 1.8
      vertex -8.5 35 3.8147e-07
    endloop
  endfacet
  facet normal 0 0 -1
    outer loop
      vertex -8.5 17.7062 3.8147e-07
      vertex -8.5 35 3.8147e-07
      vertex -1.52169 30.1706 3.8147e-07
    endloop
  endfacet
  facet normal 0 0 1
    outer loop
      vertex -8.5 35 1.8
      vertex -0.494427 32.1867 1.8
      vertex 0 32.265 1.8
    endloop
  endfacet
  facet normal 0 0 1
    outer loop
      vertex -8.5 35 1.8
      vertex -0.940456 31.9594 1.8
      vertex -0.494427 32.1867 1.8
    endloop
  endfacet
  facet normal 0 0 1
    outer loop
      vertex -8.5 35 1.8
      vertex -1.29443 31.6055 1.8
      vertex -0.940456 31.9594 1.8
    endloop
  endfacet
  facet normal 0 0 1
    outer loop
      vertex -8.5 35 1.8
      vertex -1.52169 30.1706 1.8
      vertex -1.6 30.665 1.8
    endloop
  endfacet
  facet normal 0 0 1
    outer loop
      vertex -8.5 35 1.8
      vertex -1.52169 31.1594 1.8
      vertex -1.29443 31.6055 1.8
    endloop
  endfacet
  facet normal 0 0 1
    outer loop
      vertex -8.5 35 1.8
      vertex -1.6 30.665 1.8
      vertex -1.52169 31.1594 1.8
    endloop
  endfacet
  facet normal -0 0 1
    outer loop
      vertex -8.5 35 1.8
      vertex 0 32.265 1.8
      vertex 8.5 35 1.8
    endloop
  endfacet
  facet normal 0 1 -0
    outer loop
      vertex -8.5 35 1.8
      vertex 8.5 35 1.8
      vertex 8.5 35 3.8147e-07
    endloop
  endfacet
  facet normal 0 0 -1
    outer loop
      vertex -8.5 35 3.8147e-07
      vertex -0.494427 32.1867 3.8147e-07
      vertex -0.940456 31.9594 3.8147e-07
    endloop
  endfacet
  facet normal 0 0 -1
    outer loop
      vertex -8.5 35 3.8147e-07
      vertex -0.940456 31.9594 3.8147e-07
      vertex -1.29443 31.6055 3.8147e-07
    endloop
  endfacet
  facet normal 0 0 -1
    outer loop
      vertex -8.5 35 3.8147e-07
      vertex -1.29443 31.6055 3.8147e-07
      vertex -1.52169 31.1594 3.8147e-07
    endloop
  endfacet
  facet normal 0 0 -1
    outer loop
      vertex -8.5 35 3.8147e-07
      vertex -1.52169 31.1594 3.8147e-07
      vertex -1.6 30.665 3.8147e-07
    endloop
  endfacet
  facet normal 0 0 -1
    outer loop
      vertex -8.5 35 3.8147e-07
      vertex -1.6 30.665 3.8147e-07
      vertex -1.52169 30.1706 3.8147e-07
    endloop
  endfacet
  facet normal 0 1 0
    outer loop
      vertex -8.5 35 3.8147e-07
      vertex -8.5 35 1.8
      vertex 8.5 35 3.8147e-07
    endloop
  endfacet
  facet normal 0 0 -1
    outer loop
      vertex -8.5 35 3.8147e-07
      vertex 0 32.265 3.8147e-07
      vertex -0.494427 32.1867 3.8147e-07
    endloop
  endfacet
  facet normal 0 0 -1
    outer loop
      vertex -8.5 35 3.8147e-07
      vertex 8.5 35 3.8147e-07
      vertex 0 32.265 3.8147e-07
    endloop
  endfacet
  facet normal -0.156416 0.987691 0
    outer loop
      vertex 0 14.9 1.8
      vertex 0.494427 14.9783 1.8
      vertex 0.494427 14.9783 3.8147e-07
    endloop
  endfacet
  facet normal -0 0 1
    outer loop
      vertex 0 14.9 1.8
      vertex 0.627625 7.77739 1.8
      vertex 0.494427 14.9783 1.8
    endloop
  endfacet
  facet normal -0.156416 0.987691 0
    outer loop
      vertex 0 14.9 3.8147e-07
      vertex 0 14.9 1.8
      vertex 0.494427 14.9783 3.8147e-07
    endloop
  endfacet
  facet normal 0 0 -1
    outer loop
      vertex 0 14.9 3.8147e-07
      vertex 0.494427 14.9783 3.8147e-07
      vertex 11.7874 2.24858 3.8147e-07
    endloop
  endfacet
  facet normal 0 0 1
    outer loop
      vertex 0 18.1 1.8
      vertex 0.494427 18.0217 1.8
      vertex 0 29.065 1.8
    endloop
  endfacet
  facet normal 0 0 -1
    outer loop
      vertex 0 18.1 3.8147e-07
      vertex 0 29.065 3.8147e-07
      vertex 0.494427 29.1433 3.8147e-07
    endloop
  endfacet
  facet normal -0.156416 -0.987691 0
    outer loop
      vertex 0 18.1 3.8147e-07
      vertex 0.494427 18.0217 1.8
      vertex 0 18.1 1.8
    endloop
  endfacet
  facet normal -0.156416 -0.987691 -0
    outer loop
      vertex 0 18.1 3.8147e-07
      vertex 0.494427 18.0217 3.8147e-07
      vertex 0.494427 18.0217 1.8
    endloop
  endfacet
  facet normal 0 0 -1
    outer loop
      vertex 0 18.1 3.8147e-07
      vertex 0.494427 29.1433 3.8147e-07
      vertex 0.494427 18.0217 3.8147e-07
    endloop
  endfacet
  facet normal -0 0 1
    outer loop
      vertex 0 29.065 1.8
      vertex 0.494427 18.0217 1.8
      vertex 0.494427 29.1433 1.8
    endloop
  endfacet
  facet normal -0.156416 0.987691 0
    outer loop
      vertex 0 29.065 1.8
      vertex 0.494427 29.1433 1.8
      vertex 0.494427 29.1433 3.8147e-07
    endloop
  endfacet
  facet normal -0.156416 0.987691 0
    outer loop
      vertex 0 29.065 3.8147e-07
      vertex 0 29.065 1.8
      vertex 0.494427 29.1433 3.8147e-07
    endloop
  endfacet
  facet normal 0 0 1
    outer loop
      vertex 0 32.265 1.8
      vertex 0.494427 32.1867 1.8
      vertex 8.5 35 1.8
    endloop
  endfacet
  facet normal -0.156416 -0.987691 0
    outer loop
      vertex 0 32.265 3.8147e-07
      vertex 0.494427 32.1867 1.8
      vertex 0 32.265 1.8
    endloop
  endfacet
  facet normal -0.156416 -0.987691 -0
    outer loop
      vertex 0 32.265 3.8147e-07
      vertex 0.494427 32.1867 3.8147e-07
      vertex 0.494427 32.1867 1.8
    endloop
  endfacet
  facet normal 0 0 -1
    outer loop
      vertex 0 32.265 3.8147e-07
      vertex 8.5 35 3.8147e-07
      vertex 0.494427 32.1867 3.8147e-07
    endloop
  endfacet
  facet normal -1 -0 0
    outer loop
      vertex 0.0126953 3 1.3
      vertex 0.0126953 3 1.8
      vertex 0.0126953 3.51874 1.8
    endloop
  endfacet
  facet normal -1 0 0
    outer loop
      vertex 0.0126953 3 1.3
      vertex 0.0126953 3.51874 1.8
      vertex 0.0126953 3.51874 1.3
    endloop
  endfacet
  facet normal 0 0 1
    outer loop
      vertex 0.0126953 3 1.8
      vertex 1.50922 3 1.8
      vertex 0.0126953 3.51874 1.8
    endloop
  endfacet
  facet normal -0 0 1
    outer loop
      vertex 0.0126953 3 1.8
      vertex 12 0 1.8
      vertex 1.50922 3 1.8
    endloop
  endfacet
  facet normal 0 0 1
    outer loop
      vertex 0.0126953 3.51874 1.8
      vertex 0.627625 7.25864 1.8
      vertex 0.627625 7.77739 1.8
    endloop
  endfacet
  facet normal 0 0 1
    outer loop
      vertex 0.0126953 3.51874 1.8
      vertex 1.50922 3 1.8
      vertex 1.55235 3.62103 1.8
    endloop
  endfacet
  facet normal 0 0 1
    outer loop
      vertex 0.0126953 3.51874 1.8
      vertex 1.55235 3.62103 1.8
      vertex 1.68176 4.26355 1.8
    endloop
  endfacet
  facet normal 0 0 1
    outer loop
      vertex 0.0126953 3.51874 1.8
      vertex 1.68176 4.26355 1.8
      vertex 1.89743 4.92754 1.8
    endloop
  endfacet
  facet normal 0 0 1
    outer loop
      vertex 0.0126953 3.51874 1.8
      vertex 1.89743 4.92754 1.8
      vertex 0.627625 7.25864 1.8
    endloop
  endfacet
  facet normal 0 0 1
    outer loop
      vertex 0.494427 14.9783 1.8
      vertex 0.627625 7.77739 1.8
      vertex 3.78432 7.77739 1.8
    endloop
  endfacet
  facet normal -0.454049 0.890977 0
    outer loop
      vertex 0.494427 14.9783 1.8
      vertex 0.940456 15.2056 1.8
      vertex 0.940456 15.2056 3.8147e-07
    endloop
  endfacet
  facet normal -0 0 1
    outer loop
      vertex 0.494427 14.9783 1.8
      vertex 3.78432 7.77739 1.8
      vertex 0.940456 15.2056 1.8
    endloop
  endfacet
  facet normal -0.454049 0.890977 0
    outer loop
      vertex 0.494427 14.9783 3.8147e-07
      vertex 0.494427 14.9783 1.8
      vertex 0.940456 15.2056 3.8147e-07
    endloop
  endfacet
  facet normal 0 0 -1
    outer loop
      vertex 0.494427 14.9783 3.8147e-07
      vertex 0.940456 15.2056 3.8147e-07
      vertex 11.7874 2.24858 3.8147e-07
    endloop
  endfacet
  facet normal 0 0 1
    outer loop
      vertex 0.494427 18.0217 1.8
      vertex 0.940456 17.7944 1.8
      vertex 0.494427 29.1433 1.8
    endloop
  endfacet
  facet normal 0 0 -1
    outer loop
      vertex 0.494427 18.0217 3.8147e-07
      vertex 0.494427 29.1433 3.8147e-07
      vertex 0.940456 29.3706 3.8147e-07
    endloop
  endfacet
  facet normal -0.454049 -0.890977 0
    outer loop
      vertex 0.494427 18.0217 3.8147e-07
      vertex 0.940456 17.7944 1.8
      vertex 0.494427 18.0217 1.8
    endloop
  endfacet
  facet normal -0.454049 -0.890977 -0
    outer loop
      vertex 0.494427 18.0217 3.8147e-07
      vertex 0.940456 17.7944 3.8147e-07
      vertex 0.940456 17.7944 1.8
    endloop
  endfacet
  facet normal 0 0 -1
    outer loop
      vertex 0.494427 18.0217 3.8147e-07
      vertex 0.940456 29.3706 3.8147e-07
      vertex 0.940456 17.7944 3.8147e-07
    endloop
  endfacet
  facet normal -0 0 1
    outer loop
      vertex 0.494427 29.1433 1.8
      vertex 0.940456 17.7944 1.8
      vertex 0.940456 29.3706 1.8
    endloop
  endfacet
  facet normal -0.454049 0.890977 0
    outer loop
      vertex 0.494427 29.1433 1.8
      vertex 0.940456 29.3706 1.8
      vertex 0.940456 29.3706 3.8147e-07
    endloop
  endfacet
  facet normal -0.454049 0.890977 0
    outer loop
      vertex 0.494427 29.1433 3.8147e-07
      vertex 0.494427 29.1433 1.8
      vertex 0.940456 29.3706 3.8147e-07
    endloop
  endfacet
  facet normal 0 0 1
    outer loop
      vertex 0.494427 32.1867 1.8
      vertex 0.940456 31.9594 1.8
      vertex 8.5 35 1.8
    endloop
  endfacet
  facet normal -0.454049 -0.890977 0
    outer loop
      vertex 0.494427 32.1867 3.8147e-07
      vertex 0.940456 31.9594 1.8
      vertex 0.494427 32.1867 1.8
    endloop
  endfacet
  facet normal -0.454049 -0.890977 -0
    outer loop
      vertex 0.494427 32.1867 3.8147e-07
      vertex 0.940456 31.9594 3.8147e-07
      vertex 0.940456 31.9594 1.8
    endloop
  endfacet
  facet normal 0 0 -1
    outer loop
      vertex 0.494427 32.1867 3.8147e-07
      vertex 8.5 35 3.8147e-07
      vertex 0.940456 31.9594 3.8147e-07
    endloop
  endfacet
  facet normal 0 1 0
    outer loop
      vertex 0.627625 7.25864 1.3
      vertex 0.627625 7.25864 1.8
      vertex 3.19432 7.25864 1.3
    endloop
  endfacet
  facet normal 1 0 0
    outer loop
      vertex 0.627625 7.25864 1.3
      vertex 0.627625 7.77739 1.3
      vertex 0.627625 7.25864 1.8
    endloop
  endfacet
  facet normal 0 0 1
    outer loop
      vertex 0.627625 7.25864 1.3
      vertex 3.19432 7.25864 1.3
      vertex 0.627625 7.77739 1.3
    endloop
  endfacet
  facet normal 1 -0 0
    outer loop
      vertex 0.627625 7.25864 1.8
      vertex 0.627625 7.77739 1.3
      vertex 0.627625 7.77739 1.8
    endloop
  endfacet
  facet normal 0 0 1
    outer loop
      vertex 0.627625 7.25864 1.8
      vertex 1.89743 4.92754 1.8
      vertex 2.21408 5.63638 1.8
    endloop
  endfacet
  facet normal 0 0 1
    outer loop
      vertex 0.627625 7.25864 1.8
      vertex 2.21408 5.63638 1.8
      vertex 2.64638 6.41341 1.8
    endloop
  endfacet
  facet normal -0 0 1
    outer loop
      vertex 0.627625 7.25864 1.8
      vertex 2.64638 6.41341 1.8
      vertex 3.19432 7.25864 1.8
    endloop
  endfacet
  facet normal 0 1 -0
    outer loop
      vertex 0.627625 7.25864 1.8
      vertex 3.19432 7.25864 1.8
      vertex 3.19432 7.25864 1.3
    endloop
  endfacet
  facet normal -0 0 1
    outer loop
      vertex 0.627625 7.77739 1.3
      vertex 3.19432 7.25864 1.3
      vertex 3.78432 7.77739 1.3
    endloop
  endfacet
  facet normal 0 -1 -0
    outer loop
      vertex 0.627625 7.77739 1.3
      vertex 3.78432 7.77739 1.3
      vertex 3.78432 7.77739 1.8
    endloop
  endfacet
  facet normal 0 -1 0
    outer loop
      vertex 0.627625 7.77739 1.3
      vertex 3.78432 7.77739 1.8
      vertex 0.627625 7.77739 1.8
    endloop
  endfacet
  facet normal -0 0 1
    outer loop
      vertex 0.940456 15.2056 1.8
      vertex 3.78432 7.77739 1.8
      vertex 1.29443 15.5595 1.8
    endloop
  endfacet
  facet normal -0.707033 0.707181 0
    outer loop
      vertex 0.940456 15.2056 3.8147e-07
      vertex 0.940456 15.2056 1.8
      vertex 1.29443 15.5595 1.8
    endloop
  endfacet
  facet normal -0.707033 0.707181 0
    outer loop
      vertex 0.940456 15.2056 3.8147e-07
      vertex 1.29443 15.5595 1.8
      vertex 1.29443 15.5595 3.8147e-07
    endloop
  endfacet
  facet normal 0 0 -1
    outer loop
      vertex 0.940456 15.2056 3.8147e-07
      vertex 1.29443 15.5595 3.8147e-07
      vertex 8.5 17.7062 3.8147e-07
    endloop
  endfacet
  facet normal 0 0 -1
    outer loop
      vertex 0.940456 15.2056 3.8147e-07
      vertex 8.5 17.7062 3.8147e-07
      vertex 11.7874 2.24858 3.8147e-07
    endloop
  endfacet
  facet normal 0 0 1
    outer loop
      vertex 0.940456 17.7944 1.8
      vertex 1.29443 17.4405 1.8
      vertex 8.5 17.7062 1.8
    endloop
  endfacet
  facet normal -0.707033 -0.707181 0
    outer loop
      vertex 0.940456 17.7944 1.8
      vertex 1.29443 17.4405 3.8147e-07
      vertex 1.29443 17.4405 1.8
    endloop
  endfacet
  facet normal -0 0 1
    outer loop
      vertex 0.940456 17.7944 1.8
      vertex 8.5 17.7062 1.8
      vertex 0.940456 29.3706 1.8
    endloop
  endfacet
  facet normal 0 0 -1
    outer loop
      vertex 0.940456 17.7944 3.8147e-07
      vertex 0.940456 29.3706 3.8147e-07
      vertex 8.5 17.7062 3.8147e-07
    endloop
  endfacet
  facet normal -0.707033 -0.707181 0
    outer loop
      vertex 0.940456 17.7944 3.8147e-07
      vertex 1.29443 17.4405 3.8147e-07
      vertex 0.940456 17.7944 1.8
    endloop
  endfacet
  facet normal 0 0 -1
    outer loop
      vertex 0.940456 17.7944 3.8147e-07
      vertex 8.5 17.7062 3.8147e-07
      vertex 1.29443 17.4405 3.8147e-07
    endloop
  endfacet
  facet normal -0.707033 0.707181 0
    outer loop
      vertex 0.940456 29.3706 1.8
      vertex 1.29443 29.7245 1.8
      vertex 1.29443 29.7245 3.8147e-07
    endloop
  endfacet
  facet normal -0 0 1
    outer loop
      vertex 0.940456 29.3706 1.8
      vertex 8.5 17.7062 1.8
      vertex 1.29443 29.7245 1.8
    endloop
  endfacet
  facet normal -0.707033 0.707181 0
    outer loop
      vertex 0.940456 29.3706 3.8147e-07
      vertex 0.940456 29.3706 1.8
      vertex 1.29443 29.7245 3.8147e-07
    endloop
  endfacet
  facet normal 0 0 -1
    outer loop
      vertex 0.940456 29.3706 3.8147e-07
      vertex 1.29443 29.7245 3.8147e-07
      vertex 8.5 17.7062 3.8147e-07
    endloop
  endfacet
  facet normal 0 0 1
    outer loop
      vertex 0.940456 31.9594 1.8
      vertex 1.29443 31.6055 1.8
      vertex 8.5 35 1.8
    endloop
  endfacet
  facet normal -0.707033 -0.707181 0
    outer loop
      vertex 0.940456 31.9594 1.8
      vertex 1.29443 31.6055 3.8147e-07
      vertex 1.29443 31.6055 1.8
    endloop
  endfacet
  facet normal -0.707033 -0.707181 0
    outer loop
      vertex 0.940456 31.9594 3.8147e-07
      vertex 1.29443 31.6055 3.8147e-07
      vertex 0.940456 31.9594 1.8
    endloop
  endfacet
  facet normal 0 0 -1
    outer loop
      vertex 0.940456 31.9594 3.8147e-07
      vertex 8.5 35 3.8147e-07
      vertex 1.29443 31.6055 3.8147e-07
    endloop
  endfacet
  facet normal 0 0 1
    outer loop
      vertex 1.29443 15.5595 1.8
      vertex 3.78432 7.77739 1.8
      vertex 8.5 17.7062 1.8
    endloop
  endfacet
  facet normal 0 0 1
    outer loop
      vertex 1.29443 15.5595 1.8
      vertex 8.5 17.7062 1.8
      vertex 1.52169 16.0056 1.8
    endloop
  endfacet
  facet normal -0.891038 0.453928 0
    outer loop
      vertex 1.29443 15.5595 3.8147e-07
      vertex 1.29443 15.5595 1.8
      vertex 1.52169 16.0056 1.8
    endloop
  endfacet
  facet normal -0.891038 0.453928 0
    outer loop
      vertex 1.29443 15.5595 3.8147e-07
      vertex 1.52169 16.0056 1.8
      vertex 1.52169 16.0056 3.8147e-07
    endloop
  endfacet
  facet normal 0 0 -1
    outer loop
      vertex 1.29443 15.5595 3.8147e-07
      vertex 1.52169 16.0056 3.8147e-07
      vertex 8.5 17.7062 3.8147e-07
    endloop
  endfacet
  facet normal 0 0 1
    outer loop
      vertex 1.29443 17.4405 1.8
      vertex 1.52169 16.9944 1.8
      vertex 8.5 17.7062 1.8
    endloop
  endfacet
  facet normal -0.891038 -0.453928 0
    outer loop
      vertex 1.29443 17.4405 1.8
      vertex 1.52169 16.9944 3.8147e-07
      vertex 1.52169 16.9944 1.8
    endloop
  endfacet
  facet normal -0.891038 -0.453928 0
    outer loop
      vertex 1.29443 17.4405 3.8147e-07
      vertex 1.52169 16.9944 3.8147e-07
      vertex 1.29443 17.4405 1.8
    endloop
  endfacet
  facet normal 0 0 -1
    outer loop
      vertex 1.29443 17.4405 3.8147e-07
      vertex 8.5 17.7062 3.8147e-07
      vertex 1.52169 16.9944 3.8147e-07
    endloop
  endfacet
  facet normal -0 0 1
    outer loop
      vertex 1.29443 29.7245 1.8
      vertex 8.5 17.7062 1.8
      vertex 1.52169 30.1706 1.8
    endloop
  endfacet
  facet normal -0.891038 0.453928 0
    outer loop
      vertex 1.29443 29.7245 3.8147e-07
      vertex 1.29443 29.7245 1.8
      vertex 1.52169 30.1706 1.8
    endloop
  endfacet
  facet normal -0.891038 0.453928 0
    outer loop
      vertex 1.29443 29.7245 3.8147e-07
      vertex 1.52169 30.1706 1.8
      vertex 1.52169 30.1706 3.8147e-07
    endloop
  endfacet
  facet normal 0 0 -1
    outer loop
      vertex 1.29443 29.7245 3.8147e-07
      vertex 1.52169 30.1706 3.8147e-07
      vertex 8.5 17.7062 3.8147e-07
    endloop
  endfacet
  facet normal 0 0 1
    outer loop
      vertex 1.29443 31.6055 1.8
      vertex 1.52169 31.1594 1.8
      vertex 8.5 35 1.8
    endloop
  endfacet
  facet normal -0.891038 -0.453928 0
    outer loop
      vertex 1.29443 31.6055 1.8
      vertex 1.52169 31.1594 3.8147e-07
      vertex 1.52169 31.1594 1.8
    endloop
  endfacet
  facet normal -0.891038 -0.453928 0
    outer loop
      vertex 1.29443 31.6055 3.8147e-07
      vertex 1.52169 31.1594 3.8147e-07
      vertex 1.29443 31.6055 1.8
    endloop
  endfacet
  facet normal 0 0 -1
    outer loop
      vertex 1.29443 31.6055 3.8147e-07
      vertex 8.5 35 3.8147e-07
      vertex 1.52169 31.1594 3.8147e-07
    endloop
  endfacet
  facet normal 0 1 0
    outer loop
      vertex 1.50922 3 1.3
      vertex 1.50922 3 1.8
      vertex 2.14662 3 1.3
    endloop
  endfacet
  facet normal 0.997597 -0.0692823 0
    outer loop
      vertex 1.50922 3 1.3
      vertex 1.55235 3.62103 1.3
      vertex 1.50922 3 1.8
    endloop
  endfacet
  facet normal 0 0 1
    outer loop
      vertex 1.50922 3 1.3
      vertex 2.14662 3 1.3
      vertex 2.16339 3.43587 1.3
    endloop
  endfacet
  facet normal 0 0 1
    outer loop
      vertex 1.50922 3 1.3
      vertex 2.16339 3.43587 1.3
      vertex 1.55235 3.62103 1.3
    endloop
  endfacet
  facet normal 0.997597 -0.0692823 0
    outer loop
      vertex 1.50922 3 1.8
      vertex 1.55235 3.62103 1.3
      vertex 1.55235 3.62103 1.8
    endloop
  endfacet
  facet normal -0 0 1
    outer loop
      vertex 1.50922 3 1.8
      vertex 12 0 1.8
      vertex 2.14662 3 1.8
    endloop
  endfacet
  facet normal 0 1 -0
    outer loop
      vertex 1.50922 3 1.8
      vertex 2.14662 3 1.8
      vertex 2.14662 3 1.3
    endloop
  endfacet
  facet normal 0 0 1
    outer loop
      vertex 1.52169 16.0056 1.8
      vertex 8.5 17.7062 1.8
      vertex 1.6 16.5 1.8
    endloop
  endfacet
  facet normal -0.987687 0.156444 0
    outer loop
      vertex 1.52169 16.0056 3.8147e-07
      vertex 1.52169 16.0056 1.8
      vertex 1.6 16.5 1.8
    endloop
  endfacet
  facet normal -0.987687 0.156444 0
    outer loop
      vertex 1.52169 16.0056 3.8147e-07
      vertex 1.6 16.5 1.8
      vertex 1.6 16.5 3.8147e-07
    endloop
  endfacet
  facet normal 0 0 -1
    outer loop
      vertex 1.52169 16.0056 3.8147e-07
      vertex 1.6 16.5 3.8147e-07
      vertex 8.5 17.7062 3.8147e-07
    endloop
  endfacet
  facet normal 0 0 1
    outer loop
      vertex 1.52169 16.9944 1.8
      vertex 1.6 16.5 1.8
      vertex 8.5 17.7062 1.8
    endloop
  endfacet
  facet normal -0.987687 -0.156444 0
    outer loop
      vertex 1.52169 16.9944 1.8
      vertex 1.6 16.5 3.8147e-07
      vertex 1.6 16.5 1.8
    endloop
  endfacet
  facet normal -0.987687 -0.156444 0
    outer loop
      vertex 1.52169 16.9944 3.8147e-07
      vertex 1.6 16.5 3.8147e-07
      vertex 1.52169 16.9944 1.8
    endloop
  endfacet
  facet normal 0 0 -1
    outer loop
      vertex 1.52169 16.9944 3.8147e-07
      vertex 8.5 17.7062 3.8147e-07
      vertex 1.6 16.5 3.8147e-07
    endloop
  endfacet
  facet normal 0 0 1
    outer loop
      vertex 1.52169 30.1706 1.8
      vertex 8.5 17.7062 1.8
      vertex 8.5 35 1.8
    endloop
  endfacet
  facet normal 0 0 1
    outer loop
      vertex 1.52169 30.1706 1.8
      vertex 8.5 35 1.8
      vertex 1.6 30.665 1.8
    endloop
  endfacet
  facet normal -0.987687 0.156444 0
    outer loop
      vertex 1.52169 30.1706 3.8147e-07
      vertex 1.52169 30.1706 1.8
      vertex 1.6 30.665 1.8
    endloop
  endfacet
  facet normal -0.987687 0.156444 0
    outer loop
      vertex 1.52169 30.1706 3.8147e-07
      vertex 1.6 30.665 1.8
      vertex 1.6 30.665 3.8147e-07
    endloop
  endfacet
  facet normal 0 0 -1
    outer loop
      vertex 1.52169 30.1706 3.8147e-07
      vertex 1.6 30.665 3.8147e-07
      vertex 8.5 17.7062 3.8147e-07
    endloop
  endfacet
  facet normal 0 0 1
    outer loop
      vertex 1.52169 31.1594 1.8
      vertex 1.6 30.665 1.8
      vertex 8.5 35 1.8
    endloop
  endfacet
  facet normal -0.987687 -0.156444 0
    outer loop
      vertex 1.52169 31.1594 1.8
      vertex 1.6 30.665 3.8147e-07
      vertex 1.6 30.665 1.8
    endloop
  endfacet
  facet normal -0.987687 -0.156444 0
    outer loop
      vertex 1.52169 31.1594 3.8147e-07
      vertex 1.6 30.665 3.8147e-07
      vertex 1.52169 31.1594 1.8
    endloop
  endfacet
  facet normal 0 0 -1
    outer loop
      vertex 1.52169 31.1594 3.8147e-07
      vertex 8.5 35 3.8147e-07
      vertex 1.6 30.665 3.8147e-07
    endloop
  endfacet
  facet normal 0.980314 -0.197445 0
    outer loop
      vertex 1.55235 3.62103 1.3
      vertex 1.68176 4.26355 1.3
      vertex 1.55235 3.62103 1.8
    endloop
  endfacet
  facet normal 0 0 1
    outer loop
      vertex 1.55235 3.62103 1.3
      vertex 2.16339 3.43587 1.3
      vertex 2.21368 3.86195 1.3
    endloop
  endfacet
  facet normal 0 0 1
    outer loop
      vertex 1.55235 3.62103 1.3
      vertex 2.21368 3.86195 1.3
      vertex 1.68176 4.26355 1.3
    endloop
  endfacet
  facet normal 0.980314 -0.197445 0
    outer loop
      vertex 1.55235 3.62103 1.8
      vertex 1.68176 4.26355 1.3
      vertex 1.68176 4.26355 1.8
    endloop
  endfacet
  facet normal 0 0 -1
    outer loop
      vertex 1.6 30.665 3.8147e-07
      vertex 8.5 35 3.8147e-07
      vertex 8.5 17.7062 3.8147e-07
    endloop
  endfacet
  facet normal 0.951087 -0.308922 0
    outer loop
      vertex 1.68176 4.26355 1.3
      vertex 1.89743 4.92754 1.3
      vertex 1.68176 4.26355 1.8
    endloop
  endfacet
  facet normal 0 0 1
    outer loop
      vertex 1.68176 4.26355 1.3
      vertex 2.21368 3.86195 1.3
      vertex 2.29752 4.27824 1.3
    endloop
  endfacet
  facet normal 0 0 1
    outer loop
      vertex 1.68176 4.26355 1.3
      vertex 2.29752 4.27824 1.3
      vertex 1.89743 4.92754 1.3
    endloop
  endfacet
  facet normal 0.951087 -0.308922 0
    outer loop
      vertex 1.68176 4.26355 1.8
      vertex 1.89743 4.92754 1.3
      vertex 1.89743 4.92754 1.8
    endloop
  endfacet
  facet normal 0.91304 -0.407869 0
    outer loop
      vertex 1.89743 4.92754 1.3
      vertex 2.21408 5.63638 1.3
      vertex 1.89743 4.92754 1.8
    endloop
  endfacet
  facet normal 0 0 1
    outer loop
      vertex 1.89743 4.92754 1.3
      vertex 2.29752 4.27824 1.3
      vertex 2.41489 4.69153 1.3
    endloop
  endfacet
  facet normal 0 0 1
    outer loop
      vertex 1.89743 4.92754 1.3
      vertex 2.41489 4.69153 1.3
      vertex 2.56577 5.10858 1.3
    endloop
  endfacet
  facet normal 0 0 1
    outer loop
      vertex 1.89743 4.92754 1.3
      vertex 2.56577 5.10858 1.3
      vertex 2.21408 5.63638 1.3
    endloop
  endfacet
  facet normal 0.91304 -0.407869 0
    outer loop
      vertex 1.89743 4.92754 1.8
      vertex 2.21408 5.63638 1.3
      vertex 2.21408 5.63638 1.8
    endloop
  endfacet
  facet normal 0.987674 0.156525 0
    outer loop
      vertex 11.7874 2.24858 3.8147e-07
      vertex 11.7874 2.24858 1.8
      vertex 11.9054 1.504 1.8
    endloop
  endfacet
  facet normal 0.987674 0.156525 0
    outer loop
      vertex 11.7874 2.24858 3.8147e-07
      vertex 11.9054 1.504 1.8
      vertex 11.9054 1.504 3.8147e-07
    endloop
  endfacet
  facet normal 0 0 -1
    outer loop
      vertex 11.7874 2.24858 3.8147e-07
      vertex 11.9054 1.504 3.8147e-07
      vertex 12 0 3.8147e-07
    endloop
  endfacet
  facet normal 0.995567 0.0940499 0
    outer loop
      vertex 11.9054 1.504 3.8147e-07
      vertex 11.9054 1.504 1.8
      vertex 11.9763 0.753486 1.8
    endloop
  endfacet
  facet normal 0.995567 0.0940499 0
    outer loop
      vertex 11.9054 1.504 3.8147e-07
      vertex 11.9763 0.753486 1.8
      vertex 11.9763 0.753486 3.8147e-07
    endloop
  endfacet
  facet normal 0 0 -1
    outer loop
      vertex 11.9054 1.504 3.8147e-07
      vertex 11.9763 0.753486 3.8147e-07
      vertex 12 0 3.8147e-07
    endloop
  endfacet
  facet normal 0.999506 0.0314383 0
    outer loop
      vertex 11.9763 0.753486 3.8147e-07
      vertex 11.9763 0.753486 1.8
      vertex 12 0 1.8
    endloop
  endfacet
  facet normal 0.999506 0.0314383 0
    outer loop
      vertex 11.9763 0.753486 3.8147e-07
      vertex 12 0 1.8
      vertex 12 0 3.8147e-07
    endloop
  endfacet
  facet normal -0.999261 0.0384463 0
    outer loop
      vertex 2.14662 3 1.3
      vertex 2.14662 3 1.8
      vertex 2.16339 3.43587 1.8
    endloop
  endfacet
  facet normal -0.999261 0.0384463 0
    outer loop
      vertex 2.14662 3 1.3
      vertex 2.16339 3.43587 1.8
      vertex 2.16339 3.43587 1.3
    endloop
  endfacet
  facet normal -0 0 1
    outer loop
      vertex 2.14662 3 1.8
      vertex 11.7874 2.24858 1.8
      vertex 2.16339 3.43587 1.8
    endloop
  endfacet
  facet normal 0 0 1
    outer loop
      vertex 2.14662 3 1.8
      vertex 11.9054 1.504 1.8
      vertex 11.7874 2.24858 1.8
    endloop
  endfacet
  facet normal 0 0 1
    outer loop
      vertex 2.14662 3 1.8
      vertex 11.9763 0.753486 1.8
      vertex 11.9054 1.504 1.8
    endloop
  endfacet
  facet normal 0 0 1
    outer loop
      vertex 2.14662 3 1.8
      vertex 12 0 1.8
      vertex 11.9763 0.753486 1.8
    endloop
  endfacet
  facet normal -0.993106 0.117216 0
    outer loop
      vertex 2.16339 3.43587 1.3
      vertex 2.16339 3.43587 1.8
      vertex 2.21368 3.86195 1.8
    endloop
  endfacet
  facet normal -0.993106 0.117216 0
    outer loop
      vertex 2.16339 3.43587 1.3
      vertex 2.21368 3.86195 1.8
      vertex 2.21368 3.86195 1.3
    endloop
  endfacet
  facet normal -0 0 1
    outer loop
      vertex 2.16339 3.43587 1.8
      vertex 11.7874 2.24858 1.8
      vertex 2.21368 3.86195 1.8
    endloop
  endfacet
  facet normal -0.980316 0.197434 0
    outer loop
      vertex 2.21368 3.86195 1.3
      vertex 2.21368 3.86195 1.8
      vertex 2.29752 4.27824 1.8
    endloop
  endfacet
  facet normal -0.980316 0.197434 0
    outer loop
      vertex 2.21368 3.86195 1.3
      vertex 2.29752 4.27824 1.8
      vertex 2.29752 4.27824 1.3
    endloop
  endfacet
  facet normal -0 0 1
    outer loop
      vertex 2.21368 3.86195 1.8
      vertex 11.7874 2.24858 1.8
      vertex 2.29752 4.27824 1.8
    endloop
  endfacet
  facet normal 0 0 1
    outer loop
      vertex 2.21408 5.63638 1.3
      vertex 2.56577 5.10858 1.3
      vertex 2.75017 5.52939 1.3
    endloop
  endfacet
  facet normal 0.873863 -0.486173 0
    outer loop
      vertex 2.21408 5.63638 1.3
      vertex 2.64638 6.41341 1.3
      vertex 2.21408 5.63638 1.8
    endloop
  endfacet
  facet normal 0 0 1
    outer loop
      vertex 2.21408 5.63638 1.3
      vertex 2.75017 5.52939 1.3
      vertex 2.99919 6.00597 1.3
    endloop
  endfacet
  facet normal 0 0 1
    outer loop
      vertex 2.21408 5.63638 1.3
      vertex 2.99919 6.00597 1.3
      vertex 2.64638 6.41341 1.3
    endloop
  endfacet
  facet normal 0.873863 -0.486173 0
    outer loop
      vertex 2.21408 5.63638 1.8
      vertex 2.64638 6.41341 1.3
      vertex 2.64638 6.41341 1.8
    endloop
  endfacet
  facet normal -0.961961 0.273187 0
    outer loop
      vertex 2.29752 4.27824 1.3
      vertex 2.29752 4.27824 1.8
      vertex 2.41489 4.69153 1.8
    endloop
  endfacet
  facet normal -0.961961 0.273187 0
    outer loop
      vertex 2.29752 4.27824 1.3
      vertex 2.41489 4.69153 1.8
      vertex 2.41489 4.69153 1.3
    endloop
  endfacet
  facet normal -0 0 1
    outer loop
      vertex 2.29752 4.27824 1.8
      vertex 11.7874 2.24858 1.8
      vertex 2.41489 4.69153 1.8
    endloop
  endfacet
  facet normal -0.940353 0.3402 0
    outer loop
      vertex 2.41489 4.69153 1.3
      vertex 2.41489 4.69153 1.8
      vertex 2.56577 5.10858 1.8
    endloop
  endfacet
  facet normal -0.940353 0.3402 0
    outer loop
      vertex 2.41489 4.69153 1.3
      vertex 2.56577 5.10858 1.8
      vertex 2.56577 5.10858 1.3
    endloop
  endfacet
  facet normal -0 0 1
    outer loop
      vertex 2.41489 4.69153 1.8
      vertex 11.7874 2.24858 1.8
      vertex 2.56577 5.10858 1.8
    endloop
  endfacet
  facet normal -0.915921 0.401359 0
    outer loop
      vertex 2.56577 5.10858 1.3
      vertex 2.56577 5.10858 1.8
      vertex 2.75017 5.52939 1.8
    endloop
  endfacet
  facet normal -0.915921 0.401359 0
    outer loop
      vertex 2.56577 5.10858 1.3
      vertex 2.75017 5.52939 1.8
      vertex 2.75017 5.52939 1.3
    endloop
  endfacet
  facet normal -0 0 1
    outer loop
      vertex 2.56577 5.10858 1.8
      vertex 11.7874 2.24858 1.8
      vertex 2.75017 5.52939 1.8
    endloop
  endfacet
  facet normal 0 0 1
    outer loop
      vertex 2.64638 6.41341 1.3
      vertex 2.99919 6.00597 1.3
      vertex 3.3439 6.59029 1.3
    endloop
  endfacet
  facet normal 0.839105 -0.543969 0
    outer loop
      vertex 2.64638 6.41341 1.3
      vertex 3.19432 7.25864 1.3
      vertex 2.64638 6.41341 1.8
    endloop
  endfacet
  facet normal 0 0 1
    outer loop
      vertex 2.64638 6.41341 1.3
      vertex 3.3439 6.59029 1.3
      vertex 3.19432 7.25864 1.3
    endloop
  endfacet
  facet normal 0.839105 -0.543969 0
    outer loop
      vertex 2.64638 6.41341 1.8
      vertex 3.19432 7.25864 1.3
      vertex 3.19432 7.25864 1.8
    endloop
  endfacet
  facet normal -0.886303 0.463106 0
    outer loop
      vertex 2.75017 5.52939 1.3
      vertex 2.75017 5.52939 1.8
      vertex 2.99919 6.00597 1.8
    endloop
  endfacet
  facet normal -0.886303 0.463106 0
    outer loop
      vertex 2.75017 5.52939 1.3
      vertex 2.99919 6.00597 1.8
      vertex 2.99919 6.00597 1.3
    endloop
  endfacet
  facet normal -0 0 1
    outer loop
      vertex 2.75017 5.52939 1.8
      vertex 11.7874 2.24858 1.8
      vertex 2.99919 6.00597 1.8
    endloop
  endfacet
  facet normal -0.861294 0.508106 0
    outer loop
      vertex 2.99919 6.00597 1.3
      vertex 2.99919 6.00597 1.8
      vertex 3.3439 6.59029 1.8
    endloop
  endfacet
  facet normal -0.861294 0.508106 0
    outer loop
      vertex 2.99919 6.00597 1.3
      vertex 3.3439 6.59029 1.8
      vertex 3.3439 6.59029 1.3
    endloop
  endfacet
  facet normal -0 0 1
    outer loop
      vertex 2.99919 6.00597 1.8
      vertex 11.7874 2.24858 1.8
      vertex 3.3439 6.59029 1.8
    endloop
  endfacet
  facet normal 0 0 1
    outer loop
      vertex 3.19432 7.25864 1.3
      vertex 3.3439 6.59029 1.3
      vertex 3.78432 7.28235 1.3
    endloop
  endfacet
  facet normal 0 0 1
    outer loop
      vertex 3.19432 7.25864 1.3
      vertex 3.78432 7.28235 1.3
      vertex 3.78432 7.77739 1.3
    endloop
  endfacet
  facet normal -0.843651 0.536891 0
    outer loop
      vertex 3.3439 6.59029 1.3
      vertex 3.3439 6.59029 1.8
      vertex 3.78432 7.28235 1.8
    endloop
  endfacet
  facet normal -0.843651 0.536891 0
    outer loop
      vertex 3.3439 6.59029 1.3
      vertex 3.78432 7.28235 1.8
      vertex 3.78432 7.28235 1.3
    endloop
  endfacet
  facet normal -0 0 1
    outer loop
      vertex 3.3439 6.59029 1.8
      vertex 11.7874 2.24858 1.8
      vertex 3.78432 7.28235 1.8
    endloop
  endfacet
  facet normal -1 -0 0
    outer loop
      vertex 3.78432 7.28235 1.3
      vertex 3.78432 7.28235 1.8
      vertex 3.78432 7.77739 1.8
    endloop
  endfacet
  facet normal -1 0 0
    outer loop
      vertex 3.78432 7.28235 1.3
      vertex 3.78432 7.77739 1.8
      vertex 3.78432 7.77739 1.3
    endloop
  endfacet
  facet normal -0 0 1
    outer loop
      vertex 3.78432 7.28235 1.8
      vertex 11.7874 2.24858 1.8
      vertex 3.78432 7.77739 1.8
    endloop
  endfacet
  facet normal -0 0 1
    outer loop
      vertex 3.78432 7.77739 1.8
      vertex 11.7874 2.24858 1.8
      vertex 8.5 17.7062 1.8
    endloop
  endfacet
  facet normal 1 -0 0
    outer loop
      vertex 8.5 17.7062 1.8
      vertex 8.5 35 3.8147e-07
      vertex 8.5 35 1.8
    endloop
  endfacet
  facet normal 0.978125 0.20802 0
    outer loop
      vertex 8.5 17.7062 3.8147e-07
      vertex 11.7874 2.24858 1.8
      vertex 11.7874 2.24858 3.8147e-07
    endloop
  endfacet
  facet normal 0.978125 0.20802 0
    outer loop
      vertex 8.5 17.7062 3.8147e-07
      vertex 8.5 17.7062 1.8
      vertex 11.7874 2.24858 1.8
    endloop
  endfacet
  facet normal 1 0 0
    outer loop
      vertex 8.5 17.7062 3.8147e-07
      vertex 8.5 35 3.8147e-07
      vertex 8.5 17.7062 1.8
    endloop
  endfacet
endsolid model
