solid model
  facet normal 0 0.236749 -0.971571
    outer loop
      vertex -2.5 -12.4055 20.8974
      vertex -2.5 -6.34131 22.3751
      vertex 2.5 -6.34131 22.3751
    endloop
  endfacet
  facet normal -1 0 0
    outer loop
      vertex -2.5 -12.4055 20.8974
      vertex -2.5 -6.96504 24.576
      vertex -2.5 -6.34131 22.3751
    endloop
  endfacet
  facet normal 0 0.236749 -0.971571
    outer loop
      vertex -2.5 -12.4055 20.8974
      vertex 2.5 -6.34131 22.3751
      vertex 2.5 -12.4055 20.8974
    endloop
  endfacet
  facet normal -1 0 0
    outer loop
      vertex -2.5 -13.6257 22.9528
      vertex -2.5 -6.96504 24.576
      vertex -2.5 -12.4055 20.8974
    endloop
  endfacet
  facet normal 0 -0.23677 0.971566
    outer loop
      vertex -2.5 -13.6257 22.9528
      vertex 2.5 -13.6257 22.9528
      vertex -2.5 -6.96504 24.576
    endloop
  endfacet
  facet normal 0 -0.397351 0.917667
    outer loop
      vertex -2.5 -13.6257 22.9528
      vertex 2.5 -19.6908 20.3266
      vertex 2.5 -13.6257 22.9528
    endloop
  endfacet
  facet normal 0 0.39736 -0.917663
    outer loop
      vertex -2.5 -17.9275 18.5063
      vertex -2.5 -12.4055 20.8974
      vertex 2.5 -12.4055 20.8974
    endloop
  endfacet
  facet normal -1 0 0
    outer loop
      vertex -2.5 -17.9275 18.5063
      vertex -2.5 -13.6257 22.9528
      vertex -2.5 -12.4055 20.8974
    endloop
  endfacet
  facet normal 0 0.39736 -0.917663
    outer loop
      vertex -2.5 -17.9275 18.5063
      vertex 2.5 -12.4055 20.8974
      vertex 2.5 -17.9275 18.5063
    endloop
  endfacet
  facet normal -1 0 0
    outer loop
      vertex -2.5 -19.6908 20.3266
      vertex -2.5 -13.6257 22.9528
      vertex -2.5 -17.9275 18.5063
    endloop
  endfacet
  facet normal 0 -0.397351 0.917667
    outer loop
      vertex -2.5 -19.6908 20.3266
      vertex 2.5 -19.6908 20.3266
      vertex -2.5 -13.6257 22.9528
    endloop
  endfacet
  facet normal 0 -0.559647 0.828731
    outer loop
      vertex -2.5 -19.6908 20.3266
      vertex 2.5 -24.8954 16.8119
      vertex 2.5 -19.6908 20.3266
    endloop
  endfacet
  facet normal 0 0.559651 -0.828729
    outer loop
      vertex -2.5 -22.6659 15.3064
      vertex -2.5 -17.9275 18.5063
      vertex 2.5 -17.9275 18.5063
    endloop
  endfacet
  facet normal -1 0 0
    outer loop
      vertex -2.5 -22.6659 15.3064
      vertex -2.5 -19.6908 20.3266
      vertex -2.5 -17.9275 18.5063
    endloop
  endfacet
  facet normal 0 0.559651 -0.828729
    outer loop
      vertex -2.5 -22.6659 15.3064
      vertex 2.5 -17.9275 18.5063
      vertex 2.5 -22.6659 15.3064
    endloop
  endfacet
  facet normal 0 0.718249 -0.695786
    outer loop
      vertex -2.5 -22.6659 15.3064
      vertex 2.5 -22.6659 15.3064
      vertex 2.5 -26.4138 11.4375
    endloop
  endfacet
  facet normal -1 0 0
    outer loop
      vertex -2.5 -24.8954 16.8119
      vertex -2.5 -19.6908 20.3266
      vertex -2.5 -22.6659 15.3064
    endloop
  endfacet
  facet normal 0 -0.559647 0.828731
    outer loop
      vertex -2.5 -24.8954 16.8119
      vertex 2.5 -24.8954 16.8119
      vertex -2.5 -19.6908 20.3266
    endloop
  endfacet
  facet normal 0 0.718249 -0.695786
    outer loop
      vertex -2.5 -26.4138 11.4375
      vertex -2.5 -22.6659 15.3064
      vertex 2.5 -26.4138 11.4375
    endloop
  endfacet
  facet normal -1 0 0
    outer loop
      vertex -2.5 -26.4138 11.4375
      vertex -2.5 -24.8954 16.8119
      vertex -2.5 -22.6659 15.3064
    endloop
  endfacet
  facet normal 0 0.859901 -0.51046
    outer loop
      vertex -2.5 -26.4138 11.4375
      vertex 2.5 -26.4138 11.4375
      vertex 2.5 -29.0072 7.06876
    endloop
  endfacet
  facet normal 0 0.859901 -0.51046
    outer loop
      vertex -2.5 -29.0072 7.06876
      vertex -2.5 -26.4138 11.4375
      vertex 2.5 -29.0072 7.06876
    endloop
  endfacet
  facet normal 0 0.962107 -0.272671
    outer loop
      vertex -2.5 -29.0072 7.06876
      vertex 2.5 -29.0072 7.06876
      vertex 2.5 -30.3329 2.39109
    endloop
  endfacet
  facet normal -1 0 0
    outer loop
      vertex -2.5 -29.0119 12.5625
      vertex -2.5 -24.8954 16.8119
      vertex -2.5 -26.4138 11.4375
    endloop
  endfacet
  facet normal -1 0 0
    outer loop
      vertex -2.5 -29.0119 12.5625
      vertex -2.5 -26.4138 11.4375
      vertex -2.5 -29.0072 7.06876
    endloop
  endfacet
  facet normal 0 -0.718249 0.695786
    outer loop
      vertex -2.5 -29.0119 12.5625
      vertex 2.5 -24.8954 16.8119
      vertex -2.5 -24.8954 16.8119
    endloop
  endfacet
  facet normal 0 -0.718249 0.695786
    outer loop
      vertex -2.5 -29.0119 12.5625
      vertex 2.5 -29.0119 12.5625
      vertex 2.5 -24.8954 16.8119
    endloop
  endfacet
  facet normal 0 1 0
    outer loop
      vertex -2.5 -30.3329 0
      vertex -2.5 -30.3329 2.39109
      vertex 2.5 -30.3329 0
    endloop
  endfacet
  facet normal 0 0.962107 -0.272671
    outer loop
      vertex -2.5 -30.3329 2.39109
      vertex -2.5 -29.0072 7.06876
      vertex 2.5 -30.3329 2.39109
    endloop
  endfacet
  facet normal 0 1 -0
    outer loop
      vertex -2.5 -30.3329 2.39109
      vertex 2.5 -30.3329 2.39109
      vertex 2.5 -30.3329 0
    endloop
  endfacet
  facet normal 0 1 0
    outer loop
      vertex -2.5 -31.7 -4
      vertex -2.5 -31.7 0
      vertex 2.5 -31.7 -4
    endloop
  endfacet
  facet normal -0 0 -1
    outer loop
      vertex -2.5 -31.7 0
      vertex -2.5 -30.3329 0
      vertex 2.5 -30.3329 0
    endloop
  endfacet
  facet normal -1 0 0
    outer loop
      vertex -2.5 -31.7 0
      vertex -2.5 -30.3329 2.39109
      vertex -2.5 -30.3329 0
    endloop
  endfacet
  facet normal 0 0 -1
    outer loop
      vertex -2.5 -31.7 0
      vertex 2.5 -30.3329 0
      vertex 2.5 -31.7 0
    endloop
  endfacet
  facet normal 0 1 -0
    outer loop
      vertex -2.5 -31.7 0
      vertex 2.5 -31.7 0
      vertex 2.5 -31.7 -4
    endloop
  endfacet
  facet normal -1 0 0
    outer loop
      vertex -2.5 -31.8604 7.76405
      vertex -2.5 -29.0072 7.06876
      vertex -2.5 -30.3329 2.39109
    endloop
  endfacet
  facet normal -1 0 0
    outer loop
      vertex -2.5 -31.8604 7.76405
      vertex -2.5 -29.0119 12.5625
      vertex -2.5 -29.0072 7.06876
    endloop
  endfacet
  facet normal 0 -0.8599 0.510462
    outer loop
      vertex -2.5 -31.8604 7.76405
      vertex 2.5 -29.0119 12.5625
      vertex -2.5 -29.0119 12.5625
    endloop
  endfacet
  facet normal 0 -0.8599 0.510462
    outer loop
      vertex -2.5 -31.8604 7.76405
      vertex 2.5 -31.8604 7.76405
      vertex 2.5 -29.0119 12.5625
    endloop
  endfacet
  facet normal -1 0 0
    outer loop
      vertex -2.5 -33.3165 0
      vertex -2.5 -31.7 0
      vertex -2.5 -31.7 -4
    endloop
  endfacet
  facet normal -1 0 0
    outer loop
      vertex -2.5 -33.3165 0
      vertex -2.5 -33.3165 2.62628
      vertex -2.5 -31.7 0
    endloop
  endfacet
  facet normal 0 -1 -0
    outer loop
      vertex -2.5 -33.3165 0
      vertex 2.5 -33.3165 0
      vertex 2.5 -33.3165 2.62628
    endloop
  endfacet
  facet normal 0 -1 0
    outer loop
      vertex -2.5 -33.3165 0
      vertex 2.5 -33.3165 2.62628
      vertex -2.5 -33.3165 2.62628
    endloop
  endfacet
  facet normal -0 0 1
    outer loop
      vertex -2.5 -33.3165 0
      vertex 2.5 -33.5 0
      vertex 2.5 -33.3165 0
    endloop
  endfacet
  facet normal -1 0 0
    outer loop
      vertex -2.5 -33.3165 2.62628
      vertex -2.5 -30.3329 2.39109
      vertex -2.5 -31.7 0
    endloop
  endfacet
  facet normal -1 0 0
    outer loop
      vertex -2.5 -33.3165 2.62628
      vertex -2.5 -31.8604 7.76405
      vertex -2.5 -30.3329 2.39109
    endloop
  endfacet
  facet normal 0 -0.962107 0.272672
    outer loop
      vertex -2.5 -33.3165 2.62628
      vertex 2.5 -31.8604 7.76405
      vertex -2.5 -31.8604 7.76405
    endloop
  endfacet
  facet normal 0 -0.962107 0.272672
    outer loop
      vertex -2.5 -33.3165 2.62628
      vertex 2.5 -33.3165 2.62628
      vertex 2.5 -31.8604 7.76405
    endloop
  endfacet
  facet normal -0 0 -1
    outer loop
      vertex -2.5 -33.5 -4
      vertex -2.5 -31.7 -4
      vertex 2.5 -31.7 -4
    endloop
  endfacet
  facet normal -1 0 0
    outer loop
      vertex -2.5 -33.5 -4
      vertex -2.5 -33.3165 0
      vertex -2.5 -31.7 -4
    endloop
  endfacet
  facet normal -1 -0 0
    outer loop
      vertex -2.5 -33.5 -4
      vertex -2.5 -33.5 0
      vertex -2.5 -33.3165 0
    endloop
  endfacet
  facet normal 0 0 -1
    outer loop
      vertex -2.5 -33.5 -4
      vertex 2.5 -31.7 -4
      vertex 2.5 -33.5 -4
    endloop
  endfacet
  facet normal 0 -1 -0
    outer loop
      vertex -2.5 -33.5 -4
      vertex 2.5 -33.5 -4
      vertex 2.5 -33.5 0
    endloop
  endfacet
  facet normal 0 -1 0
    outer loop
      vertex -2.5 -33.5 -4
      vertex 2.5 -33.5 0
      vertex -2.5 -33.5 0
    endloop
  endfacet
  facet normal 0 0 1
    outer loop
      vertex -2.5 -33.5 0
      vertex 2.5 -33.5 0
      vertex -2.5 -33.3165 0
    endloop
  endfacet
  facet normal 0 0.0785885 -0.996907
    outer loop
      vertex -2.5 -6.34131 22.3751
      vertex -2.5 0 22.875
      vertex 2.5 0 22.875
    endloop
  endfacet
  facet normal -1 0 0
    outer loop
      vertex -2.5 -6.34131 22.3751
      vertex -2.5 0 25.125
      vertex -2.5 0 22.875
    endloop
  endfacet
  facet normal 0 0.0785885 -0.996907
    outer loop
      vertex -2.5 -6.34131 22.3751
      vertex 2.5 0 22.875
      vertex 2.5 -6.34131 22.3751
    endloop
  endfacet
  facet normal -1 0 0
    outer loop
      vertex -2.5 -6.96504 24.576
      vertex -2.5 0 25.125
      vertex -2.5 -6.34131 22.3751
    endloop
  endfacet
  facet normal 0 -0.23677 0.971566
    outer loop
      vertex -2.5 -6.96504 24.576
      vertex 2.5 -13.6257 22.9528
      vertex 2.5 -6.96504 24.576
    endloop
  endfacet
  facet normal 0 -0.0785785 0.996908
    outer loop
      vertex -2.5 -6.96504 24.576
      vertex 2.5 -6.96504 24.576
      vertex -2.5 0 25.125
    endloop
  endfacet
  facet normal -1 0 0
    outer loop
      vertex -2.5 0 22.875
      vertex -2.5 0 25.125
      vertex -2.5 6.34131 22.3751
    endloop
  endfacet
  facet normal -0 -0.0785885 -0.996907
    outer loop
      vertex -2.5 0 22.875
      vertex -2.5 6.34131 22.3751
      vertex 2.5 6.34131 22.3751
    endloop
  endfacet
  facet normal 0 -0.0785885 -0.996907
    outer loop
      vertex -2.5 0 22.875
      vertex 2.5 6.34131 22.3751
      vertex 2.5 0 22.875
    endloop
  endfacet
  facet normal -1 0 0
    outer loop
      vertex -2.5 0 25.125
      vertex -2.5 6.96504 24.576
      vertex -2.5 6.34131 22.3751
    endloop
  endfacet
  facet normal 0 -0.0785785 0.996908
    outer loop
      vertex -2.5 0 25.125
      vertex 2.5 -6.96504 24.576
      vertex 2.5 0 25.125
    endloop
  endfacet
  facet normal 0 0.0785785 0.996908
    outer loop
      vertex -2.5 0 25.125
      vertex 2.5 0 25.125
      vertex -2.5 6.96504 24.576
    endloop
  endfacet
  facet normal -1 0 0
    outer loop
      vertex -2.5 12.4055 20.8974
      vertex -2.5 13.6257 22.9528
      vertex -2.5 17.9275 18.5063
    endloop
  endfacet
  facet normal -0 -0.39736 -0.917663
    outer loop
      vertex -2.5 12.4055 20.8974
      vertex -2.5 17.9275 18.5063
      vertex 2.5 17.9275 18.5063
    endloop
  endfacet
  facet normal 0 -0.39736 -0.917663
    outer loop
      vertex -2.5 12.4055 20.8974
      vertex 2.5 17.9275 18.5063
      vertex 2.5 12.4055 20.8974
    endloop
  endfacet
  facet normal -1 0 0
    outer loop
      vertex -2.5 13.6257 22.9528
      vertex -2.5 19.6908 20.3266
      vertex -2.5 17.9275 18.5063
    endloop
  endfacet
  facet normal 0 0.397351 0.917667
    outer loop
      vertex -2.5 13.6257 22.9528
      vertex 2.5 13.6257 22.9528
      vertex -2.5 19.6908 20.3266
    endloop
  endfacet
  facet normal -0 0.23677 0.971566
    outer loop
      vertex -2.5 13.6257 22.9528
      vertex 2.5 6.96504 24.576
      vertex 2.5 13.6257 22.9528
    endloop
  endfacet
  facet normal -1 0 0
    outer loop
      vertex -2.5 17.9275 18.5063
      vertex -2.5 19.6908 20.3266
      vertex -2.5 22.6659 15.3064
    endloop
  endfacet
  facet normal -0 -0.559651 -0.828729
    outer loop
      vertex -2.5 17.9275 18.5063
      vertex -2.5 22.6659 15.3064
      vertex 2.5 22.6659 15.3064
    endloop
  endfacet
  facet normal 0 -0.559651 -0.828729
    outer loop
      vertex -2.5 17.9275 18.5063
      vertex 2.5 22.6659 15.3064
      vertex 2.5 17.9275 18.5063
    endloop
  endfacet
  facet normal -1 0 0
    outer loop
      vertex -2.5 19.6908 20.3266
      vertex -2.5 24.8954 16.8119
      vertex -2.5 22.6659 15.3064
    endloop
  endfacet
  facet normal -0 0.397351 0.917667
    outer loop
      vertex -2.5 19.6908 20.3266
      vertex 2.5 13.6257 22.9528
      vertex 2.5 19.6908 20.3266
    endloop
  endfacet
  facet normal 0 0.559647 0.828731
    outer loop
      vertex -2.5 19.6908 20.3266
      vertex 2.5 19.6908 20.3266
      vertex -2.5 24.8954 16.8119
    endloop
  endfacet
  facet normal -1 0 0
    outer loop
      vertex -2.5 22.6659 15.3064
      vertex -2.5 24.8954 16.8119
      vertex -2.5 26.4138 11.4375
    endloop
  endfacet
  facet normal 0 -0.718249 -0.695786
    outer loop
      vertex -2.5 22.6659 15.3064
      vertex -2.5 26.4138 11.4375
      vertex 2.5 22.6659 15.3064
    endloop
  endfacet
  facet normal -1 0 0
    outer loop
      vertex -2.5 24.8954 16.8119
      vertex -2.5 29.0119 12.5625
      vertex -2.5 26.4138 11.4375
    endloop
  endfacet
  facet normal -0 0.559647 0.828731
    outer loop
      vertex -2.5 24.8954 16.8119
      vertex 2.5 19.6908 20.3266
      vertex 2.5 24.8954 16.8119
    endloop
  endfacet
  facet normal 0 0.718249 0.695786
    outer loop
      vertex -2.5 24.8954 16.8119
      vertex 2.5 24.8954 16.8119
      vertex 2.5 29.0119 12.5625
    endloop
  endfacet
  facet normal 0 0.718249 0.695786
    outer loop
      vertex -2.5 24.8954 16.8119
      vertex 2.5 29.0119 12.5625
      vertex -2.5 29.0119 12.5625
    endloop
  endfacet
  facet normal 0 -0.859901 -0.51046
    outer loop
      vertex -2.5 26.4138 11.4375
      vertex -2.5 29.0072 7.06876
      vertex 2.5 26.4138 11.4375
    endloop
  endfacet
  facet normal -1 0 0
    outer loop
      vertex -2.5 26.4138 11.4375
      vertex -2.5 29.0119 12.5625
      vertex -2.5 29.0072 7.06876
    endloop
  endfacet
  facet normal 0 -0.718249 -0.695786
    outer loop
      vertex -2.5 26.4138 11.4375
      vertex 2.5 26.4138 11.4375
      vertex 2.5 22.6659 15.3064
    endloop
  endfacet
  facet normal -1 -0 0
    outer loop
      vertex -2.5 29.0072 7.06876
      vertex -2.5 29.0119 12.5625
      vertex -2.5 31.8604 7.76405
    endloop
  endfacet
  facet normal 0 -0.962107 -0.272671
    outer loop
      vertex -2.5 29.0072 7.06876
      vertex -2.5 30.3329 2.39109
      vertex 2.5 29.0072 7.06876
    endloop
  endfacet
  facet normal -1 0 0
    outer loop
      vertex -2.5 29.0072 7.06876
      vertex -2.5 31.8604 7.76405
      vertex -2.5 30.3329 2.39109
    endloop
  endfacet
  facet normal 0 -0.859901 -0.51046
    outer loop
      vertex -2.5 29.0072 7.06876
      vertex 2.5 29.0072 7.06876
      vertex 2.5 26.4138 11.4375
    endloop
  endfacet
  facet normal 0 0.8599 0.510462
    outer loop
      vertex -2.5 29.0119 12.5625
      vertex 2.5 29.0119 12.5625
      vertex 2.5 31.8604 7.76405
    endloop
  endfacet
  facet normal 0 0.8599 0.510462
    outer loop
      vertex -2.5 29.0119 12.5625
      vertex 2.5 31.8604 7.76405
      vertex -2.5 31.8604 7.76405
    endloop
  endfacet
  facet normal -1 0 0
    outer loop
      vertex -2.5 30.3329 0
      vertex -2.5 30.3329 2.39109
      vertex -2.5 31.7 0
    endloop
  endfacet
  facet normal -0 0 -1
    outer loop
      vertex -2.5 30.3329 0
      vertex -2.5 31.7 0
      vertex 2.5 31.7 0
    endloop
  endfacet
  facet normal 0 -1 -0
    outer loop
      vertex -2.5 30.3329 0
      vertex 2.5 30.3329 0
      vertex 2.5 30.3329 2.39109
    endloop
  endfacet
  facet normal 0 -1 0
    outer loop
      vertex -2.5 30.3329 0
      vertex 2.5 30.3329 2.39109
      vertex -2.5 30.3329 2.39109
    endloop
  endfacet
  facet normal 0 0 -1
    outer loop
      vertex -2.5 30.3329 0
      vertex 2.5 31.7 0
      vertex 2.5 30.3329 0
    endloop
  endfacet
  facet normal -1 -0 0
    outer loop
      vertex -2.5 30.3329 2.39109
      vertex -2.5 31.8604 7.76405
      vertex -2.5 33.3165 2.62628
    endloop
  endfacet
  facet normal -1 0 0
    outer loop
      vertex -2.5 30.3329 2.39109
      vertex -2.5 33.3165 2.62628
      vertex -2.5 31.7 0
    endloop
  endfacet
  facet normal 0 -0.962107 -0.272671
    outer loop
      vertex -2.5 30.3329 2.39109
      vertex 2.5 30.3329 2.39109
      vertex 2.5 29.0072 7.06876
    endloop
  endfacet
  facet normal -1 -0 0
    outer loop
      vertex -2.5 31.7 -4
      vertex -2.5 31.7 0
      vertex -2.5 33.3165 0
    endloop
  endfacet
  facet normal -1 0 0
    outer loop
      vertex -2.5 31.7 -4
      vertex -2.5 33.3165 0
      vertex -2.5 33.5 -4
    endloop
  endfacet
  facet normal -0 0 -1
    outer loop
      vertex -2.5 31.7 -4
      vertex -2.5 33.5 -4
      vertex 2.5 33.5 -4
    endloop
  endfacet
  facet normal 0 -1 -0
    outer loop
      vertex -2.5 31.7 -4
      vertex 2.5 31.7 -4
      vertex 2.5 31.7 0
    endloop
  endfacet
  facet normal 0 -1 0
    outer loop
      vertex -2.5 31.7 -4
      vertex 2.5 31.7 0
      vertex -2.5 31.7 0
    endloop
  endfacet
  facet normal 0 0 -1
    outer loop
      vertex -2.5 31.7 -4
      vertex 2.5 33.5 -4
      vertex 2.5 31.7 -4
    endloop
  endfacet
  facet normal -1 0 0
    outer loop
      vertex -2.5 31.7 0
      vertex -2.5 33.3165 2.62628
      vertex -2.5 33.3165 0
    endloop
  endfacet
  facet normal 0 0.962107 0.272672
    outer loop
      vertex -2.5 31.8604 7.76405
      vertex 2.5 31.8604 7.76405
      vertex 2.5 33.3165 2.62628
    endloop
  endfacet
  facet normal 0 0.962107 0.272672
    outer loop
      vertex -2.5 31.8604 7.76405
      vertex 2.5 33.3165 2.62628
      vertex -2.5 33.3165 2.62628
    endloop
  endfacet
  facet normal 0 1 0
    outer loop
      vertex -2.5 33.3165 0
      vertex -2.5 33.3165 2.62628
      vertex 2.5 33.3165 0
    endloop
  endfacet
  facet normal -1 0 0
    outer loop
      vertex -2.5 33.3165 0
      vertex -2.5 33.5 0
      vertex -2.5 33.5 -4
    endloop
  endfacet
  facet normal 0 0 1
    outer loop
      vertex -2.5 33.3165 0
      vertex 2.5 33.3165 0
      vertex -2.5 33.5 0
    endloop
  endfacet
  facet normal 0 1 -0
    outer loop
      vertex -2.5 33.3165 2.62628
      vertex 2.5 33.3165 2.62628
      vertex 2.5 33.3165 0
    endloop
  endfacet
  facet normal 0 1 0
    outer loop
      vertex -2.5 33.5 -4
      vertex -2.5 33.5 0
      vertex 2.5 33.5 -4
    endloop
  endfacet
  facet normal -0 0 1
    outer loop
      vertex -2.5 33.5 0
      vertex 2.5 33.3165 0
      vertex 2.5 33.5 0
    endloop
  endfacet
  facet normal 0 1 -0
    outer loop
      vertex -2.5 33.5 0
      vertex 2.5 33.5 0
      vertex 2.5 33.5 -4
    endloop
  endfacet
  facet normal -0 -0.236749 -0.971571
    outer loop
      vertex -2.5 6.34131 22.3751
      vertex -2.5 12.4055 20.8974
      vertex 2.5 12.4055 20.8974
    endloop
  endfacet
  facet normal -1 0 0
    outer loop
      vertex -2.5 6.34131 22.3751
      vertex -2.5 6.96504 24.576
      vertex -2.5 12.4055 20.8974
    endloop
  endfacet
  facet normal 0 -0.236749 -0.971571
    outer loop
      vertex -2.5 6.34131 22.3751
      vertex 2.5 12.4055 20.8974
      vertex 2.5 6.34131 22.3751
    endloop
  endfacet
  facet normal -1 0 0
    outer loop
      vertex -2.5 6.96504 24.576
      vertex -2.5 13.6257 22.9528
      vertex -2.5 12.4055 20.8974
    endloop
  endfacet
  facet normal -0 0.0785785 0.996908
    outer loop
      vertex -2.5 6.96504 24.576
      vertex 2.5 0 25.125
      vertex 2.5 6.96504 24.576
    endloop
  endfacet
  facet normal 0 0.23677 0.971566
    outer loop
      vertex -2.5 6.96504 24.576
      vertex 2.5 6.96504 24.576
      vertex -2.5 13.6257 22.9528
    endloop
  endfacet
  facet normal 1 0 0
    outer loop
      vertex 2.5 -12.4055 20.8974
      vertex 2.5 -6.34131 22.3751
      vertex 2.5 -6.96504 24.576
    endloop
  endfacet
  facet normal 1 -0 0
    outer loop
      vertex 2.5 -13.6257 22.9528
      vertex 2.5 -12.4055 20.8974
      vertex 2.5 -6.96504 24.576
    endloop
  endfacet
  facet normal 1 0 0
    outer loop
      vertex 2.5 -17.9275 18.5063
      vertex 2.5 -12.4055 20.8974
      vertex 2.5 -13.6257 22.9528
    endloop
  endfacet
  facet normal 1 -0 0
    outer loop
      vertex 2.5 -19.6908 20.3266
      vertex 2.5 -17.9275 18.5063
      vertex 2.5 -13.6257 22.9528
    endloop
  endfacet
  facet normal 1 0 0
    outer loop
      vertex 2.5 -22.6659 15.3064
      vertex 2.5 -17.9275 18.5063
      vertex 2.5 -19.6908 20.3266
    endloop
  endfacet
  facet normal 1 -0 0
    outer loop
      vertex 2.5 -24.8954 16.8119
      vertex 2.5 -22.6659 15.3064
      vertex 2.5 -19.6908 20.3266
    endloop
  endfacet
  facet normal 1 0 0
    outer loop
      vertex 2.5 -26.4138 11.4375
      vertex 2.5 -22.6659 15.3064
      vertex 2.5 -24.8954 16.8119
    endloop
  endfacet
  facet normal 1 -0 0
    outer loop
      vertex 2.5 -29.0119 12.5625
      vertex 2.5 -26.4138 11.4375
      vertex 2.5 -24.8954 16.8119
    endloop
  endfacet
  facet normal 1 0 0
    outer loop
      vertex 2.5 -29.0119 12.5625
      vertex 2.5 -29.0072 7.06876
      vertex 2.5 -26.4138 11.4375
    endloop
  endfacet
  facet normal 1 0 0
    outer loop
      vertex 2.5 -31.7 0
      vertex 2.5 -30.3329 0
      vertex 2.5 -30.3329 2.39109
    endloop
  endfacet
  facet normal 1 -0 0
    outer loop
      vertex 2.5 -31.8604 7.76405
      vertex 2.5 -29.0072 7.06876
      vertex 2.5 -29.0119 12.5625
    endloop
  endfacet
  facet normal 1 0 0
    outer loop
      vertex 2.5 -31.8604 7.76405
      vertex 2.5 -30.3329 2.39109
      vertex 2.5 -29.0072 7.06876
    endloop
  endfacet
  facet normal 1 0 0
    outer loop
      vertex 2.5 -33.3165 0
      vertex 2.5 -31.7 -4
      vertex 2.5 -31.7 0
    endloop
  endfacet
  facet normal 1 0 0
    outer loop
      vertex 2.5 -33.3165 0
      vertex 2.5 -31.7 0
      vertex 2.5 -33.3165 2.62628
    endloop
  endfacet
  facet normal 1 -0 0
    outer loop
      vertex 2.5 -33.3165 2.62628
      vertex 2.5 -30.3329 2.39109
      vertex 2.5 -31.8604 7.76405
    endloop
  endfacet
  facet normal 1 0 0
    outer loop
      vertex 2.5 -33.3165 2.62628
      vertex 2.5 -31.7 0
      vertex 2.5 -30.3329 2.39109
    endloop
  endfacet
  facet normal 1 0 0
    outer loop
      vertex 2.5 -33.5 -4
      vertex 2.5 -31.7 -4
      vertex 2.5 -33.3165 0
    endloop
  endfacet
  facet normal 1 0 0
    outer loop
      vertex 2.5 -33.5 -4
      vertex 2.5 -33.3165 0
      vertex 2.5 -33.5 0
    endloop
  endfacet
  facet normal 1 0 0
    outer loop
      vertex 2.5 -6.34131 22.3751
      vertex 2.5 0 22.875
      vertex 2.5 0 25.125
    endloop
  endfacet
  facet normal 1 -0 0
    outer loop
      vertex 2.5 -6.96504 24.576
      vertex 2.5 -6.34131 22.3751
      vertex 2.5 0 25.125
    endloop
  endfacet
  facet normal 1 0 0
    outer loop
      vertex 2.5 0 22.875
      vertex 2.5 6.34131 22.3751
      vertex 2.5 0 25.125
    endloop
  endfacet
  facet normal 1 0 0
    outer loop
      vertex 2.5 0 25.125
      vertex 2.5 6.34131 22.3751
      vertex 2.5 6.96504 24.576
    endloop
  endfacet
  facet normal 1 0 0
    outer loop
      vertex 2.5 12.4055 20.8974
      vertex 2.5 17.9275 18.5063
      vertex 2.5 13.6257 22.9528
    endloop
  endfacet
  facet normal 1 0 0
    outer loop
      vertex 2.5 13.6257 22.9528
      vertex 2.5 17.9275 18.5063
      vertex 2.5 19.6908 20.3266
    endloop
  endfacet
  facet normal 1 0 0
    outer loop
      vertex 2.5 17.9275 18.5063
      vertex 2.5 22.6659 15.3064
      vertex 2.5 19.6908 20.3266
    endloop
  endfacet
  facet normal 1 0 0
    outer loop
      vertex 2.5 19.6908 20.3266
      vertex 2.5 22.6659 15.3064
      vertex 2.5 24.8954 16.8119
    endloop
  endfacet
  facet normal 1 0 0
    outer loop
      vertex 2.5 22.6659 15.3064
      vertex 2.5 26.4138 11.4375
      vertex 2.5 24.8954 16.8119
    endloop
  endfacet
  facet normal 1 0 0
    outer loop
      vertex 2.5 24.8954 16.8119
      vertex 2.5 26.4138 11.4375
      vertex 2.5 29.0119 12.5625
    endloop
  endfacet
  facet normal 1 0 0
    outer loop
      vertex 2.5 26.4138 11.4375
      vertex 2.5 29.0072 7.06876
      vertex 2.5 29.0119 12.5625
    endloop
  endfacet
  facet normal 1 0 0
    outer loop
      vertex 2.5 29.0072 7.06876
      vertex 2.5 30.3329 2.39109
      vertex 2.5 31.8604 7.76405
    endloop
  endfacet
  facet normal 1 0 0
    outer loop
      vertex 2.5 29.0072 7.06876
      vertex 2.5 31.8604 7.76405
      vertex 2.5 29.0119 12.5625
    endloop
  endfacet
  facet normal 1 0 0
    outer loop
      vertex 2.5 30.3329 0
      vertex 2.5 31.7 0
      vertex 2.5 30.3329 2.39109
    endloop
  endfacet
  facet normal 1 0 -0
    outer loop
      vertex 2.5 30.3329 2.39109
      vertex 2.5 31.7 0
      vertex 2.5 33.3165 2.62628
    endloop
  endfacet
  facet normal 1 0 0
    outer loop
      vertex 2.5 30.3329 2.39109
      vertex 2.5 33.3165 2.62628
      vertex 2.5 31.8604 7.76405
    endloop
  endfacet
  facet normal 1 0 0
    outer loop
      vertex 2.5 31.7 -4
      vertex 2.5 33.3165 0
      vertex 2.5 31.7 0
    endloop
  endfacet
  facet normal 1 0 0
    outer loop
      vertex 2.5 31.7 -4
      vertex 2.5 33.5 -4
      vertex 2.5 33.3165 0
    endloop
  endfacet
  facet normal 1 0 0
    outer loop
      vertex 2.5 31.7 0
      vertex 2.5 33.3165 0
      vertex 2.5 33.3165 2.62628
    endloop
  endfacet
  facet normal 1 -0 0
    outer loop
      vertex 2.5 33.3165 0
      vertex 2.5 33.5 -4
      vertex 2.5 33.5 0
    endloop
  endfacet
  facet normal 1 0 0
    outer loop
      vertex 2.5 6.34131 22.3751
      vertex 2.5 12.4055 20.8974
      vertex 2.5 6.96504 24.576
    endloop
  endfacet
  facet normal 1 0 0
    outer loop
      vertex 2.5 6.96504 24.576
      vertex 2.5 12.4055 20.8974
      vertex 2.5 13.6257 22.9528
    endloop
  endfacet
endsolid model
