solid model
  facet normal 0.0348994 0 -0.999391
    outer loop
      vertex -248.103 -10 -83.6944
      vertex -248.103 10 -83.6944
      vertex 251.593 10 -66.2447
    endloop
  endfacet
  facet normal 0 -1 -0
    outer loop
      vertex -248.103 -10 -83.6944
      vertex 18.7662 -10 -24.7466
      vertex 18.6886 -10 -24.3474
    endloop
  endfacet
  facet normal 0 -1 -0
    outer loop
      vertex -248.103 -10 -83.6944
      vertex 18.9634 -10 -25.1024
      vertex 18.7662 -10 -24.7466
    endloop
  endfacet
  facet normal 0 -1 -0
    outer loop
      vertex -248.103 -10 -83.6944
      vertex 19.2609 -10 -25.3798
      vertex 18.9634 -10 -25.1024
    endloop
  endfacet
  facet normal 0 -1 -0
    outer loop
      vertex -248.103 -10 -83.6944
      vertex 19.6295 -10 -25.5516
      vertex 19.2609 -10 -25.3798
    endloop
  endfacet
  facet normal 0 -1 0
    outer loop
      vertex -248.103 -10 -83.6944
      vertex 20.0332 -10 -25.6012
      vertex 19.6295 -10 -25.5516
    endloop
  endfacet
  facet normal 0 -1 -0
    outer loop
      vertex -248.103 -10 -83.6944
      vertex 251.593 -10 -66.2447
      vertex 20.0332 -10 -25.6012
    endloop
  endfacet
  facet normal 0.0348994 0 -0.999391
    outer loop
      vertex -248.103 -10 -83.6944
      vertex 251.593 10 -66.2447
      vertex 251.593 -10 -66.2447
    endloop
  endfacet
  facet normal 0 1 0
    outer loop
      vertex -248.103 10 -83.6944
      vertex 18.6886 10 -24.3474
      vertex 18.7662 10 -24.7466
    endloop
  endfacet
  facet normal 0 1 0
    outer loop
      vertex -248.103 10 -83.6944
      vertex 18.7662 10 -24.7466
      vertex 18.9634 10 -25.1024
    endloop
  endfacet
  facet normal 0 1 0
    outer loop
      vertex -248.103 10 -83.6944
      vertex 18.9634 10 -25.1024
      vertex 19.2609 10 -25.3798
    endloop
  endfacet
  facet normal 0 1 0
    outer loop
      vertex -248.103 10 -83.6944
      vertex 19.2609 10 -25.3798
      vertex 19.6295 10 -25.5516
    endloop
  endfacet
  facet normal 0 1 0
    outer loop
      vertex -248.103 10 -83.6944
      vertex 19.6295 10 -25.5516
      vertex 20.0332 10 -25.6012
    endloop
  endfacet
  facet normal 0 1 0
    outer loop
      vertex -248.103 10 -83.6944
      vertex 20.0332 10 -25.6012
      vertex 251.593 10 -66.2447
    endloop
  endfacet
  facet normal 0 -1 0
    outer loop
      vertex -251.593 -10 16.2447
      vertex -248.103 -10 -83.6944
      vertex 18.6886 -10 -24.3474
    endloop
  endfacet
  facet normal -0.999391 -0 -0.0349
    outer loop
      vertex -251.593 -10 16.2447
      vertex -251.593 10 16.2447
      vertex -248.103 -10 -83.6944
    endloop
  endfacet
  facet normal 0 -1 0
    outer loop
      vertex -251.593 -10 16.2447
      vertex 18.6886 -10 -24.3474
      vertex 18.7382 -10 -23.9437
    endloop
  endfacet
  facet normal 0 -1 0
    outer loop
      vertex -251.593 -10 16.2447
      vertex 18.7382 -10 -23.9437
      vertex 18.9101 -10 -23.5751
    endloop
  endfacet
  facet normal 0 -1 0
    outer loop
      vertex -251.593 -10 16.2447
      vertex 18.9101 -10 -23.5751
      vertex 19.1875 -10 -23.2776
    endloop
  endfacet
  facet normal 0 -1 0
    outer loop
      vertex -251.593 -10 16.2447
      vertex 19.1875 -10 -23.2776
      vertex 19.5432 -10 -23.0804
    endloop
  endfacet
  facet normal 0 -1 0
    outer loop
      vertex -251.593 -10 16.2447
      vertex 19.5432 -10 -23.0804
      vertex 19.9424 -10 -23.0028
    endloop
  endfacet
  facet normal 0 -1 0
    outer loop
      vertex -251.593 -10 16.2447
      vertex 19.9424 -10 -23.0028
      vertex 248.103 -10 33.6944
    endloop
  endfacet
  facet normal -0.0348994 0 0.999391
    outer loop
      vertex -251.593 -10 16.2447
      vertex 248.103 -10 33.6944
      vertex -251.593 10 16.2447
    endloop
  endfacet
  facet normal -0.999391 0 -0.0349
    outer loop
      vertex -251.593 10 16.2447
      vertex -248.103 10 -83.6944
      vertex -248.103 -10 -83.6944
    endloop
  endfacet
  facet normal 0 1 0
    outer loop
      vertex -251.593 10 16.2447
      vertex 18.6886 10 -24.3474
      vertex -248.103 10 -83.6944
    endloop
  endfacet
  facet normal 0 1 -0
    outer loop
      vertex -251.593 10 16.2447
      vertex 18.7382 10 -23.9437
      vertex 18.6886 10 -24.3474
    endloop
  endfacet
  facet normal 0 1 -0
    outer loop
      vertex -251.593 10 16.2447
      vertex 18.9101 10 -23.5751
      vertex 18.7382 10 -23.9437
    endloop
  endfacet
  facet normal 0 1 -0
    outer loop
      vertex -251.593 10 16.2447
      vertex 19.1875 10 -23.2776
      vertex 18.9101 10 -23.5751
    endloop
  endfacet
  facet normal 0 1 -0
    outer loop
      vertex -251.593 10 16.2447
      vertex 19.5432 10 -23.0804
      vertex 19.1875 10 -23.2776
    endloop
  endfacet
  facet normal 0 1 -0
    outer loop
      vertex -251.593 10 16.2447
      vertex 19.9424 10 -23.0028
      vertex 19.5432 10 -23.0804
    endloop
  endfacet
  facet normal -0.0348994 0 0.999391
    outer loop
      vertex -251.593 10 16.2447
      vertex 248.103 -10 33.6944
      vertex 248.103 10 33.6944
    endloop
  endfacet
  facet normal 0 1 0
    outer loop
      vertex -251.593 10 16.2447
      vertex 248.103 10 33.6944
      vertex 19.9424 10 -23.0028
    endloop
  endfacet
  facet normal 0.0348997 0 -0.999391
    outer loop
      vertex 125.749 -10 -15.6057
      vertex 125.749 10 -15.6057
      vertex 145.737 10 -14.9077
    endloop
  endfacet
  facet normal 0.999391 0 0.0349
    outer loop
      vertex 125.749 -10 -15.6057
      vertex 126.098 -10 -25.5996
      vertex 126.098 10 -25.5996
    endloop
  endfacet
  facet normal 0.999391 -0 0.0349
    outer loop
      vertex 125.749 -10 -15.6057
      vertex 126.098 10 -25.5996
      vertex 125.749 10 -15.6057
    endloop
  endfacet
  facet normal 0 -1 0
    outer loop
      vertex 125.749 -10 -15.6057
      vertex 145.737 -10 -14.9077
      vertex 248.103 -10 33.6944
    endloop
  endfacet
  facet normal 0.0348997 0 -0.999391
    outer loop
      vertex 125.749 -10 -15.6057
      vertex 145.737 10 -14.9077
      vertex 145.737 -10 -14.9077
    endloop
  endfacet
  facet normal 0 1 0
    outer loop
      vertex 125.749 10 -15.6057
      vertex 248.103 10 33.6944
      vertex 145.737 10 -14.9077
    endloop
  endfacet
  facet normal -0.0348997 0 0.999391
    outer loop
      vertex 126.098 -10 -25.5996
      vertex 146.086 -10 -24.9016
      vertex 126.098 10 -25.5996
    endloop
  endfacet
  facet normal 0 -1 0
    outer loop
      vertex 126.098 -10 -25.5996
      vertex 251.593 -10 -66.2447
      vertex 146.086 -10 -24.9016
    endloop
  endfacet
  facet normal -0.0348997 0 0.999391
    outer loop
      vertex 126.098 10 -25.5996
      vertex 146.086 -10 -24.9016
      vertex 146.086 10 -24.9016
    endloop
  endfacet
  facet normal 0 1 0
    outer loop
      vertex 126.098 10 -25.5996
      vertex 146.086 10 -24.9016
      vertex 251.593 10 -66.2447
    endloop
  endfacet
  facet normal -0.999391 -0 -0.0349
    outer loop
      vertex 145.737 -10 -14.9077
      vertex 145.737 10 -14.9077
      vertex 146.086 -10 -24.9016
    endloop
  endfacet
  facet normal 0 -1 0
    outer loop
      vertex 145.737 -10 -14.9077
      vertex 146.086 -10 -24.9016
      vertex 248.103 -10 33.6944
    endloop
  endfacet
  facet normal -0.999391 0 -0.0349
    outer loop
      vertex 145.737 10 -14.9077
      vertex 146.086 10 -24.9016
      vertex 146.086 -10 -24.9016
    endloop
  endfacet
  facet normal 0 1 0
    outer loop
      vertex 145.737 10 -14.9077
      vertex 248.103 10 33.6944
      vertex 146.086 10 -24.9016
    endloop
  endfacet
  facet normal 0 -1 0
    outer loop
      vertex 146.086 -10 -24.9016
      vertex 251.593 -10 -66.2447
      vertex 248.103 -10 33.6944
    endloop
  endfacet
  facet normal 0 1 0
    outer loop
      vertex 146.086 10 -24.9016
      vertex 248.103 10 33.6944
      vertex 251.593 10 -66.2447
    endloop
  endfacet
  facet normal 0.992537 0 -0.121947
    outer loop
      vertex 18.6886 -10 -24.3474
      vertex 18.6886 10 -24.3474
      vertex 18.7382 -10 -23.9437
    endloop
  endfacet
  facet normal 0.981626 0 0.190817
    outer loop
      vertex 18.6886 -10 -24.3474
      vertex 18.7662 -10 -24.7466
      vertex 18.7662 10 -24.7466
    endloop
  endfacet
  facet normal 0.981626 -0 0.190817
    outer loop
      vertex 18.6886 -10 -24.3474
      vertex 18.7662 10 -24.7466
      vertex 18.6886 10 -24.3474
    endloop
  endfacet
  facet normal 0.992537 0 -0.121947
    outer loop
      vertex 18.6886 10 -24.3474
      vertex 18.7382 10 -23.9437
      vertex 18.7382 -10 -23.9437
    endloop
  endfacet
  facet normal 0.90629 0 -0.422657
    outer loop
      vertex 18.7382 -10 -23.9437
      vertex 18.7382 10 -23.9437
      vertex 18.9101 -10 -23.5751
    endloop
  endfacet
  facet normal 0.90629 0 -0.422657
    outer loop
      vertex 18.7382 10 -23.9437
      vertex 18.9101 10 -23.5751
      vertex 18.9101 -10 -23.5751
    endloop
  endfacet
  facet normal 0.874644 0 0.484766
    outer loop
      vertex 18.7662 -10 -24.7466
      vertex 18.9634 -10 -25.1024
      vertex 18.9634 10 -25.1024
    endloop
  endfacet
  facet normal 0.874644 -0 0.484766
    outer loop
      vertex 18.7662 -10 -24.7466
      vertex 18.9634 10 -25.1024
      vertex 18.7662 10 -24.7466
    endloop
  endfacet
  facet normal 0.731382 0 -0.681968
    outer loop
      vertex 18.9101 -10 -23.5751
      vertex 18.9101 10 -23.5751
      vertex 19.1875 -10 -23.2776
    endloop
  endfacet
  facet normal 0.731382 0 -0.681968
    outer loop
      vertex 18.9101 10 -23.5751
      vertex 19.1875 10 -23.2776
      vertex 19.1875 -10 -23.2776
    endloop
  endfacet
  facet normal 0.681968 0 0.731382
    outer loop
      vertex 18.9634 -10 -25.1024
      vertex 19.2609 -10 -25.3798
      vertex 18.9634 10 -25.1024
    endloop
  endfacet
  facet normal 0.681968 0 0.731382
    outer loop
      vertex 18.9634 10 -25.1024
      vertex 19.2609 -10 -25.3798
      vertex 19.2609 10 -25.3798
    endloop
  endfacet
  facet normal 0.48487 0 -0.874586
    outer loop
      vertex 19.1875 -10 -23.2776
      vertex 19.1875 10 -23.2776
      vertex 19.5432 10 -23.0804
    endloop
  endfacet
  facet normal 0.48487 0 -0.874586
    outer loop
      vertex 19.1875 -10 -23.2776
      vertex 19.5432 10 -23.0804
      vertex 19.5432 -10 -23.0804
    endloop
  endfacet
  facet normal 0.422455 0 0.906384
    outer loop
      vertex 19.2609 -10 -25.3798
      vertex 19.6295 -10 -25.5516
      vertex 19.2609 10 -25.3798
    endloop
  endfacet
  facet normal 0.422455 0 0.906384
    outer loop
      vertex 19.2609 10 -25.3798
      vertex 19.6295 -10 -25.5516
      vertex 19.6295 10 -25.5516
    endloop
  endfacet
  facet normal 0.190817 0 -0.981626
    outer loop
      vertex 19.5432 -10 -23.0804
      vertex 19.5432 10 -23.0804
      vertex 19.9424 10 -23.0028
    endloop
  endfacet
  facet normal 0.190817 0 -0.981626
    outer loop
      vertex 19.5432 -10 -23.0804
      vertex 19.9424 10 -23.0028
      vertex 19.9424 -10 -23.0028
    endloop
  endfacet
  facet normal 0.121947 0 0.992537
    outer loop
      vertex 19.6295 -10 -25.5516
      vertex 20.0332 -10 -25.6012
      vertex 19.6295 10 -25.5516
    endloop
  endfacet
  facet normal 0.121947 0 0.992537
    outer loop
      vertex 19.6295 10 -25.5516
      vertex 20.0332 -10 -25.6012
      vertex 20.0332 10 -25.6012
    endloop
  endfacet
  facet normal -0.121947 0 -0.992537
    outer loop
      vertex 19.9424 -10 -23.0028
      vertex 19.9424 10 -23.0028
      vertex 20.3461 10 -23.0524
    endloop
  endfacet
  facet normal 0 -1 0
    outer loop
      vertex 19.9424 -10 -23.0028
      vertex 20.3461 -10 -23.0524
      vertex 79.5066 -10 -20.9864
    endloop
  endfacet
  facet normal -0.121947 0 -0.992537
    outer loop
      vertex 19.9424 -10 -23.0028
      vertex 20.3461 10 -23.0524
      vertex 20.3461 -10 -23.0524
    endloop
  endfacet
  facet normal 0 -1 0
    outer loop
      vertex 19.9424 -10 -23.0028
      vertex 79.5066 -10 -20.9864
      vertex 79.9059 -10 -20.9088
    endloop
  endfacet
  facet normal -0 -1 0
    outer loop
      vertex 19.9424 -10 -23.0028
      vertex 79.9059 -10 -20.9088
      vertex 248.103 -10 33.6944
    endloop
  endfacet
  facet normal 0 1 0
    outer loop
      vertex 19.9424 10 -23.0028
      vertex 248.103 10 33.6944
      vertex 79.9059 10 -20.9088
    endloop
  endfacet
  facet normal 0 1 0
    outer loop
      vertex 19.9424 10 -23.0028
      vertex 78.6521 10 -22.2534
      vertex 78.7297 10 -22.6527
    endloop
  endfacet
  facet normal 0 1 0
    outer loop
      vertex 19.9424 10 -23.0028
      vertex 78.7016 10 -21.8497
      vertex 78.6521 10 -22.2534
    endloop
  endfacet
  facet normal 0 1 0
    outer loop
      vertex 19.9424 10 -23.0028
      vertex 78.7297 10 -22.6527
      vertex 20.3461 10 -23.0524
    endloop
  endfacet
  facet normal 0 1 0
    outer loop
      vertex 19.9424 10 -23.0028
      vertex 78.8735 10 -21.4811
      vertex 78.7016 10 -21.8497
    endloop
  endfacet
  facet normal 0 1 0
    outer loop
      vertex 19.9424 10 -23.0028
      vertex 79.1509 10 -21.1836
      vertex 78.8735 10 -21.4811
    endloop
  endfacet
  facet normal 0 1 0
    outer loop
      vertex 19.9424 10 -23.0028
      vertex 79.5066 10 -20.9864
      vertex 79.1509 10 -21.1836
    endloop
  endfacet
  facet normal 0 1 0
    outer loop
      vertex 19.9424 10 -23.0028
      vertex 79.9059 10 -20.9088
      vertex 79.5066 10 -20.9864
    endloop
  endfacet
  facet normal -0.190817 0 0.981626
    outer loop
      vertex 20.0332 -10 -25.6012
      vertex 20.4324 -10 -25.5236
      vertex 20.0332 10 -25.6012
    endloop
  endfacet
  facet normal 0 -1 0
    outer loop
      vertex 20.0332 -10 -25.6012
      vertex 251.593 -10 -66.2447
      vertex 79.9966 -10 -23.5072
    endloop
  endfacet
  facet normal 0 -1 0
    outer loop
      vertex 20.0332 -10 -25.6012
      vertex 79.9966 -10 -23.5072
      vertex 20.4324 -10 -25.5236
    endloop
  endfacet
  facet normal -0.190817 0 0.981626
    outer loop
      vertex 20.0332 10 -25.6012
      vertex 20.4324 -10 -25.5236
      vertex 20.4324 10 -25.5236
    endloop
  endfacet
  facet normal 0 1 0
    outer loop
      vertex 20.0332 10 -25.6012
      vertex 20.4324 10 -25.5236
      vertex 79.9966 10 -23.5072
    endloop
  endfacet
  facet normal 0 1 0
    outer loop
      vertex 20.0332 10 -25.6012
      vertex 79.9966 10 -23.5072
      vertex 251.593 10 -66.2447
    endloop
  endfacet
  facet normal -0.422562 0 -0.906334
    outer loop
      vertex 20.3461 -10 -23.0524
      vertex 20.3461 10 -23.0524
      vertex 20.7148 10 -23.2243
    endloop
  endfacet
  facet normal 0 -1 0
    outer loop
      vertex 20.3461 -10 -23.0524
      vertex 20.7148 -10 -23.2243
      vertex 79.1509 -10 -21.1836
    endloop
  endfacet
  facet normal -0.422562 0 -0.906334
    outer loop
      vertex 20.3461 -10 -23.0524
      vertex 20.7148 10 -23.2243
      vertex 20.7148 -10 -23.2243
    endloop
  endfacet
  facet normal 0 -1 0
    outer loop
      vertex 20.3461 -10 -23.0524
      vertex 79.1509 -10 -21.1836
      vertex 79.5066 -10 -20.9864
    endloop
  endfacet
  facet normal 0 1 0
    outer loop
      vertex 20.3461 10 -23.0524
      vertex 78.7297 10 -22.6527
      vertex 20.7148 10 -23.2243
    endloop
  endfacet
  facet normal -0.484766 0 0.874644
    outer loop
      vertex 20.4324 -10 -25.5236
      vertex 20.7882 -10 -25.3264
      vertex 20.4324 10 -25.5236
    endloop
  endfacet
  facet normal 0 -1 0
    outer loop
      vertex 20.4324 -10 -25.5236
      vertex 79.5929 -10 -23.4577
      vertex 20.7882 -10 -25.3264
    endloop
  endfacet
  facet normal 0 -1 -0
    outer loop
      vertex 20.4324 -10 -25.5236
      vertex 79.9966 -10 -23.5072
      vertex 79.5929 -10 -23.4577
    endloop
  endfacet
  facet normal -0.484766 0 0.874644
    outer loop
      vertex 20.4324 10 -25.5236
      vertex 20.7882 -10 -25.3264
      vertex 20.7882 10 -25.3264
    endloop
  endfacet
  facet normal 0 1 0
    outer loop
      vertex 20.4324 10 -25.5236
      vertex 20.7882 10 -25.3264
      vertex 79.5929 10 -23.4577
    endloop
  endfacet
  facet normal 0 1 0
    outer loop
      vertex 20.4324 10 -25.5236
      vertex 79.5929 10 -23.4577
      vertex 79.9966 10 -23.5072
    endloop
  endfacet
  facet normal -0.68209 0 -0.731268
    outer loop
      vertex 20.7148 -10 -23.2243
      vertex 20.7148 10 -23.2243
      vertex 21.0122 10 -23.5017
    endloop
  endfacet
  facet normal 0 -1 0
    outer loop
      vertex 20.7148 -10 -23.2243
      vertex 21.0122 -10 -23.5017
      vertex 78.8735 -10 -21.4811
    endloop
  endfacet
  facet normal -0.68209 0 -0.731268
    outer loop
      vertex 20.7148 -10 -23.2243
      vertex 21.0122 10 -23.5017
      vertex 21.0122 -10 -23.5017
    endloop
  endfacet
  facet normal 0 -1 0
    outer loop
      vertex 20.7148 -10 -23.2243
      vertex 78.8735 -10 -21.4811
      vertex 79.1509 -10 -21.1836
    endloop
  endfacet
  facet normal 0 1 0
    outer loop
      vertex 20.7148 10 -23.2243
      vertex 78.7297 10 -22.6527
      vertex 21.0122 10 -23.5017
    endloop
  endfacet
  facet normal -0.731268 0 0.68209
    outer loop
      vertex 20.7882 -10 -25.3264
      vertex 21.0656 -10 -25.029
      vertex 21.0656 10 -25.029
    endloop
  endfacet
  facet normal -0.731268 0 0.68209
    outer loop
      vertex 20.7882 -10 -25.3264
      vertex 21.0656 10 -25.029
      vertex 20.7882 10 -25.3264
    endloop
  endfacet
  facet normal 0 -1 0
    outer loop
      vertex 20.7882 -10 -25.3264
      vertex 79.2243 -10 -23.2858
      vertex 21.0656 -10 -25.029
    endloop
  endfacet
  facet normal 0 -1 -0
    outer loop
      vertex 20.7882 -10 -25.3264
      vertex 79.5929 -10 -23.4577
      vertex 79.2243 -10 -23.2858
    endloop
  endfacet
  facet normal 0 1 0
    outer loop
      vertex 20.7882 10 -25.3264
      vertex 21.0656 10 -25.029
      vertex 79.2243 10 -23.2858
    endloop
  endfacet
  facet normal 0 1 0
    outer loop
      vertex 20.7882 10 -25.3264
      vertex 79.2243 10 -23.2858
      vertex 79.5929 10 -23.4577
    endloop
  endfacet
  facet normal -0.874586 -0 -0.48487
    outer loop
      vertex 21.0122 -10 -23.5017
      vertex 21.0122 10 -23.5017
      vertex 21.2094 -10 -23.8574
    endloop
  endfacet
  facet normal 0 -1 0
    outer loop
      vertex 21.0122 -10 -23.5017
      vertex 21.2094 -10 -23.8574
      vertex 78.7016 -10 -21.8497
    endloop
  endfacet
  facet normal 0 -1 0
    outer loop
      vertex 21.0122 -10 -23.5017
      vertex 78.7016 -10 -21.8497
      vertex 78.8735 -10 -21.4811
    endloop
  endfacet
  facet normal -0.874586 0 -0.48487
    outer loop
      vertex 21.0122 10 -23.5017
      vertex 21.2094 10 -23.8574
      vertex 21.2094 -10 -23.8574
    endloop
  endfacet
  facet normal 0 1 0
    outer loop
      vertex 21.0122 10 -23.5017
      vertex 78.7297 10 -22.6527
      vertex 21.2094 10 -23.8574
    endloop
  endfacet
  facet normal -0.906334 0 0.422562
    outer loop
      vertex 21.0656 -10 -25.029
      vertex 21.2375 -10 -24.6603
      vertex 21.2375 10 -24.6603
    endloop
  endfacet
  facet normal -0.906334 0 0.422562
    outer loop
      vertex 21.0656 -10 -25.029
      vertex 21.2375 10 -24.6603
      vertex 21.0656 10 -25.029
    endloop
  endfacet
  facet normal 0 -1 0
    outer loop
      vertex 21.0656 -10 -25.029
      vertex 78.9268 -10 -23.0084
      vertex 21.2375 -10 -24.6603
    endloop
  endfacet
  facet normal 0 -1 -0
    outer loop
      vertex 21.0656 -10 -25.029
      vertex 79.2243 -10 -23.2858
      vertex 78.9268 -10 -23.0084
    endloop
  endfacet
  facet normal 0 1 0
    outer loop
      vertex 21.0656 10 -25.029
      vertex 21.2375 10 -24.6603
      vertex 78.9268 10 -23.0084
    endloop
  endfacet
  facet normal 0 1 0
    outer loop
      vertex 21.0656 10 -25.029
      vertex 78.9268 10 -23.0084
      vertex 79.2243 10 -23.2858
    endloop
  endfacet
  facet normal -0.981626 -0 -0.190817
    outer loop
      vertex 21.2094 -10 -23.8574
      vertex 21.2094 10 -23.8574
      vertex 21.287 -10 -24.2566
    endloop
  endfacet
  facet normal 0 -1 0
    outer loop
      vertex 21.2094 -10 -23.8574
      vertex 21.287 -10 -24.2566
      vertex 78.6521 -10 -22.2534
    endloop
  endfacet
  facet normal 0 -1 0
    outer loop
      vertex 21.2094 -10 -23.8574
      vertex 78.6521 -10 -22.2534
      vertex 78.7016 -10 -21.8497
    endloop
  endfacet
  facet normal -0.981626 0 -0.190817
    outer loop
      vertex 21.2094 10 -23.8574
      vertex 21.287 10 -24.2566
      vertex 21.287 -10 -24.2566
    endloop
  endfacet
  facet normal 0 1 0
    outer loop
      vertex 21.2094 10 -23.8574
      vertex 78.7297 10 -22.6527
      vertex 21.287 10 -24.2566
    endloop
  endfacet
  facet normal -0.992566 0 0.121704
    outer loop
      vertex 21.2375 -10 -24.6603
      vertex 21.287 -10 -24.2566
      vertex 21.287 10 -24.2566
    endloop
  endfacet
  facet normal -0.992566 0 0.121704
    outer loop
      vertex 21.2375 -10 -24.6603
      vertex 21.287 10 -24.2566
      vertex 21.2375 10 -24.6603
    endloop
  endfacet
  facet normal 0 -1 0
    outer loop
      vertex 21.2375 -10 -24.6603
      vertex 78.7297 -10 -22.6527
      vertex 21.287 -10 -24.2566
    endloop
  endfacet
  facet normal 0 -1 -0
    outer loop
      vertex 21.2375 -10 -24.6603
      vertex 78.9268 -10 -23.0084
      vertex 78.7297 -10 -22.6527
    endloop
  endfacet
  facet normal 0 1 0
    outer loop
      vertex 21.2375 10 -24.6603
      vertex 21.287 10 -24.2566
      vertex 78.7297 10 -22.6527
    endloop
  endfacet
  facet normal 0 1 0
    outer loop
      vertex 21.2375 10 -24.6603
      vertex 78.7297 10 -22.6527
      vertex 78.9268 10 -23.0084
    endloop
  endfacet
  facet normal 0 -1 -0
    outer loop
      vertex 21.287 -10 -24.2566
      vertex 78.7297 -10 -22.6527
      vertex 78.6521 -10 -22.2534
    endloop
  endfacet
  facet normal 0.999391 0 0.0349
    outer loop
      vertex 248.103 -10 33.6944
      vertex 251.593 -10 -66.2447
      vertex 251.593 10 -66.2447
    endloop
  endfacet
  facet normal 0.999391 -0 0.0349
    outer loop
      vertex 248.103 -10 33.6944
      vertex 251.593 10 -66.2447
      vertex 248.103 10 33.6944
    endloop
  endfacet
  facet normal 0.992566 0 -0.121704
    outer loop
      vertex 78.6521 -10 -22.2534
      vertex 78.6521 10 -22.2534
      vertex 78.7016 -10 -21.8497
    endloop
  endfacet
  facet normal 0.981635 0 0.190771
    outer loop
      vertex 78.6521 -10 -22.2534
      vertex 78.7297 -10 -22.6527
      vertex 78.7297 10 -22.6527
    endloop
  endfacet
  facet normal 0.981635 -0 0.190771
    outer loop
      vertex 78.6521 -10 -22.2534
      vertex 78.7297 10 -22.6527
      vertex 78.6521 10 -22.2534
    endloop
  endfacet
  facet normal 0.992566 0 -0.121704
    outer loop
      vertex 78.6521 10 -22.2534
      vertex 78.7016 10 -21.8497
      vertex 78.7016 -10 -21.8497
    endloop
  endfacet
  facet normal 0.90629 0 -0.422657
    outer loop
      vertex 78.7016 -10 -21.8497
      vertex 78.7016 10 -21.8497
      vertex 78.8735 -10 -21.4811
    endloop
  endfacet
  facet normal 0.90629 0 -0.422657
    outer loop
      vertex 78.7016 10 -21.8497
      vertex 78.8735 10 -21.4811
      vertex 78.8735 -10 -21.4811
    endloop
  endfacet
  facet normal 0.87469 0 0.484682
    outer loop
      vertex 78.7297 -10 -22.6527
      vertex 78.9268 -10 -23.0084
      vertex 78.9268 10 -23.0084
    endloop
  endfacet
  facet normal 0.87469 -0 0.484682
    outer loop
      vertex 78.7297 -10 -22.6527
      vertex 78.9268 10 -23.0084
      vertex 78.7297 10 -22.6527
    endloop
  endfacet
  facet normal 0.731382 0 -0.681968
    outer loop
      vertex 78.8735 -10 -21.4811
      vertex 78.8735 10 -21.4811
      vertex 79.1509 -10 -21.1836
    endloop
  endfacet
  facet normal 0.731382 0 -0.681968
    outer loop
      vertex 78.8735 10 -21.4811
      vertex 79.1509 10 -21.1836
      vertex 79.1509 -10 -21.1836
    endloop
  endfacet
  facet normal 0.681968 0 0.731382
    outer loop
      vertex 78.9268 -10 -23.0084
      vertex 79.2243 -10 -23.2858
      vertex 78.9268 10 -23.0084
    endloop
  endfacet
  facet normal 0.681968 0 0.731382
    outer loop
      vertex 78.9268 10 -23.0084
      vertex 79.2243 -10 -23.2858
      vertex 79.2243 10 -23.2858
    endloop
  endfacet
  facet normal 0.48487 0 -0.874586
    outer loop
      vertex 79.1509 -10 -21.1836
      vertex 79.1509 10 -21.1836
      vertex 79.5066 10 -20.9864
    endloop
  endfacet
  facet normal 0.48487 0 -0.874586
    outer loop
      vertex 79.1509 -10 -21.1836
      vertex 79.5066 10 -20.9864
      vertex 79.5066 -10 -20.9864
    endloop
  endfacet
  facet normal 0.422657 0 0.90629
    outer loop
      vertex 79.2243 -10 -23.2858
      vertex 79.5929 -10 -23.4577
      vertex 79.2243 10 -23.2858
    endloop
  endfacet
  facet normal 0.422657 0 0.90629
    outer loop
      vertex 79.2243 10 -23.2858
      vertex 79.5929 -10 -23.4577
      vertex 79.5929 10 -23.4577
    endloop
  endfacet
  facet normal 0.190771 0 -0.981635
    outer loop
      vertex 79.5066 -10 -20.9864
      vertex 79.5066 10 -20.9864
      vertex 79.9059 10 -20.9088
    endloop
  endfacet
  facet normal 0.190771 0 -0.981635
    outer loop
      vertex 79.5066 -10 -20.9864
      vertex 79.9059 10 -20.9088
      vertex 79.9059 -10 -20.9088
    endloop
  endfacet
  facet normal 0.121704 0 0.992566
    outer loop
      vertex 79.5929 -10 -23.4577
      vertex 79.9966 -10 -23.5072
      vertex 79.5929 10 -23.4577
    endloop
  endfacet
  facet normal 0.121704 0 0.992566
    outer loop
      vertex 79.5929 10 -23.4577
      vertex 79.9966 -10 -23.5072
      vertex 79.9966 10 -23.5072
    endloop
  endfacet
  facet normal 0 -1 0
    outer loop
      vertex 79.9059 -10 -20.9088
      vertex 125.749 -10 -15.6057
      vertex 248.103 -10 33.6944
    endloop
  endfacet
  facet normal -0.121947 0 -0.992537
    outer loop
      vertex 79.9059 -10 -20.9088
      vertex 79.9059 10 -20.9088
      vertex 80.3096 10 -20.9584
    endloop
  endfacet
  facet normal 0 -1 0
    outer loop
      vertex 79.9059 -10 -20.9088
      vertex 80.3096 -10 -20.9584
      vertex 125.749 -10 -15.6057
    endloop
  endfacet
  facet normal -0.121947 0 -0.992537
    outer loop
      vertex 79.9059 -10 -20.9088
      vertex 80.3096 10 -20.9584
      vertex 80.3096 -10 -20.9584
    endloop
  endfacet
  facet normal 0 1 0
    outer loop
      vertex 79.9059 10 -20.9088
      vertex 125.749 10 -15.6057
      vertex 80.3096 10 -20.9584
    endloop
  endfacet
  facet normal 0 1 0
    outer loop
      vertex 79.9059 10 -20.9088
      vertex 248.103 10 33.6944
      vertex 125.749 10 -15.6057
    endloop
  endfacet
  facet normal 0 -1 0
    outer loop
      vertex 79.9966 -10 -23.5072
      vertex 126.098 -10 -25.5996
      vertex 80.3959 -10 -23.4296
    endloop
  endfacet
  facet normal 0 -1 0
    outer loop
      vertex 79.9966 -10 -23.5072
      vertex 251.593 -10 -66.2447
      vertex 126.098 -10 -25.5996
    endloop
  endfacet
  facet normal -0.190771 0 0.981635
    outer loop
      vertex 79.9966 -10 -23.5072
      vertex 80.3959 -10 -23.4296
      vertex 79.9966 10 -23.5072
    endloop
  endfacet
  facet normal 0 1 0
    outer loop
      vertex 79.9966 10 -23.5072
      vertex 126.098 10 -25.5996
      vertex 251.593 10 -66.2447
    endloop
  endfacet
  facet normal -0.190771 0 0.981635
    outer loop
      vertex 79.9966 10 -23.5072
      vertex 80.3959 -10 -23.4296
      vertex 80.3959 10 -23.4296
    endloop
  endfacet
  facet normal 0 1 0
    outer loop
      vertex 79.9966 10 -23.5072
      vertex 80.3959 10 -23.4296
      vertex 126.098 10 -25.5996
    endloop
  endfacet
  facet normal -0.422657 0 -0.90629
    outer loop
      vertex 80.3096 -10 -20.9584
      vertex 80.3096 10 -20.9584
      vertex 80.6782 10 -21.1303
    endloop
  endfacet
  facet normal 0 -1 0
    outer loop
      vertex 80.3096 -10 -20.9584
      vertex 80.6782 -10 -21.1303
      vertex 125.749 -10 -15.6057
    endloop
  endfacet
  facet normal -0.422657 0 -0.90629
    outer loop
      vertex 80.3096 -10 -20.9584
      vertex 80.6782 10 -21.1303
      vertex 80.6782 -10 -21.1303
    endloop
  endfacet
  facet normal 0 1 0
    outer loop
      vertex 80.3096 10 -20.9584
      vertex 125.749 10 -15.6057
      vertex 80.6782 10 -21.1303
    endloop
  endfacet
  facet normal 0 -1 0
    outer loop
      vertex 80.3959 -10 -23.4296
      vertex 126.098 -10 -25.5996
      vertex 80.7516 -10 -23.2325
    endloop
  endfacet
  facet normal -0.484682 0 0.87469
    outer loop
      vertex 80.3959 -10 -23.4296
      vertex 80.7516 -10 -23.2325
      vertex 80.3959 10 -23.4296
    endloop
  endfacet
  facet normal -0.484682 0 0.87469
    outer loop
      vertex 80.3959 10 -23.4296
      vertex 80.7516 -10 -23.2325
      vertex 80.7516 10 -23.2325
    endloop
  endfacet
  facet normal 0 1 0
    outer loop
      vertex 80.3959 10 -23.4296
      vertex 80.7516 10 -23.2325
      vertex 126.098 10 -25.5996
    endloop
  endfacet
  facet normal -0.681968 0 -0.731382
    outer loop
      vertex 80.6782 -10 -21.1303
      vertex 80.6782 10 -21.1303
      vertex 80.9757 10 -21.4077
    endloop
  endfacet
  facet normal 0 -1 0
    outer loop
      vertex 80.6782 -10 -21.1303
      vertex 80.9757 -10 -21.4077
      vertex 125.749 -10 -15.6057
    endloop
  endfacet
  facet normal -0.681968 0 -0.731382
    outer loop
      vertex 80.6782 -10 -21.1303
      vertex 80.9757 10 -21.4077
      vertex 80.9757 -10 -21.4077
    endloop
  endfacet
  facet normal 0 1 0
    outer loop
      vertex 80.6782 10 -21.1303
      vertex 125.749 10 -15.6057
      vertex 80.9757 10 -21.4077
    endloop
  endfacet
  facet normal 0 -1 0
    outer loop
      vertex 80.7516 -10 -23.2325
      vertex 126.098 -10 -25.5996
      vertex 81.029 -10 -22.935
    endloop
  endfacet
  facet normal -0.731382 0 0.681968
    outer loop
      vertex 80.7516 -10 -23.2325
      vertex 81.029 -10 -22.935
      vertex 81.029 10 -22.935
    endloop
  endfacet
  facet normal -0.731382 0 0.681968
    outer loop
      vertex 80.7516 -10 -23.2325
      vertex 81.029 10 -22.935
      vertex 80.7516 10 -23.2325
    endloop
  endfacet
  facet normal 0 1 0
    outer loop
      vertex 80.7516 10 -23.2325
      vertex 81.029 10 -22.935
      vertex 126.098 10 -25.5996
    endloop
  endfacet
  facet normal -0.874586 -0 -0.48487
    outer loop
      vertex 80.9757 -10 -21.4077
      vertex 80.9757 10 -21.4077
      vertex 81.1729 -10 -21.7634
    endloop
  endfacet
  facet normal 0 -1 0
    outer loop
      vertex 80.9757 -10 -21.4077
      vertex 81.1729 -10 -21.7634
      vertex 125.749 -10 -15.6057
    endloop
  endfacet
  facet normal 0 1 0
    outer loop
      vertex 80.9757 10 -21.4077
      vertex 125.749 10 -15.6057
      vertex 81.1729 10 -21.7634
    endloop
  endfacet
  facet normal -0.874586 0 -0.48487
    outer loop
      vertex 80.9757 10 -21.4077
      vertex 81.1729 10 -21.7634
      vertex 81.1729 -10 -21.7634
    endloop
  endfacet
  facet normal 0 -1 0
    outer loop
      vertex 81.029 -10 -22.935
      vertex 126.098 -10 -25.5996
      vertex 81.2009 -10 -22.5664
    endloop
  endfacet
  facet normal -0.90629 0 0.422657
    outer loop
      vertex 81.029 -10 -22.935
      vertex 81.2009 -10 -22.5664
      vertex 81.2009 10 -22.5664
    endloop
  endfacet
  facet normal -0.90629 0 0.422657
    outer loop
      vertex 81.029 -10 -22.935
      vertex 81.2009 10 -22.5664
      vertex 81.029 10 -22.935
    endloop
  endfacet
  facet normal 0 1 0
    outer loop
      vertex 81.029 10 -22.935
      vertex 81.2009 10 -22.5664
      vertex 126.098 10 -25.5996
    endloop
  endfacet
  facet normal -0.981635 -0 -0.190771
    outer loop
      vertex 81.1729 -10 -21.7634
      vertex 81.1729 10 -21.7634
      vertex 81.2505 -10 -22.1627
    endloop
  endfacet
  facet normal 0 -1 0
    outer loop
      vertex 81.1729 -10 -21.7634
      vertex 81.2505 -10 -22.1627
      vertex 125.749 -10 -15.6057
    endloop
  endfacet
  facet normal 0 1 0
    outer loop
      vertex 81.1729 10 -21.7634
      vertex 125.749 10 -15.6057
      vertex 81.2505 10 -22.1627
    endloop
  endfacet
  facet normal -0.981635 0 -0.190771
    outer loop
      vertex 81.1729 10 -21.7634
      vertex 81.2505 10 -22.1627
      vertex 81.2505 -10 -22.1627
    endloop
  endfacet
  facet normal 0 -1 0
    outer loop
      vertex 81.2009 -10 -22.5664
      vertex 126.098 -10 -25.5996
      vertex 81.2505 -10 -22.1627
    endloop
  endfacet
  facet normal -0.992537 0 0.121947
    outer loop
      vertex 81.2009 -10 -22.5664
      vertex 81.2505 -10 -22.1627
      vertex 81.2505 10 -22.1627
    endloop
  endfacet
  facet normal -0.992537 0 0.121947
    outer loop
      vertex 81.2009 -10 -22.5664
      vertex 81.2505 10 -22.1627
      vertex 81.2009 10 -22.5664
    endloop
  endfacet
  facet normal 0 1 0
    outer loop
      vertex 81.2009 10 -22.5664
      vertex 81.2505 10 -22.1627
      vertex 126.098 10 -25.5996
    endloop
  endfacet
  facet normal 0 -1 0
    outer loop
      vertex 81.2505 -10 -22.1627
      vertex 126.098 -10 -25.5996
      vertex 125.749 -10 -15.6057
    endloop
  endfacet
  facet normal 0 1 0
    outer loop
      vertex 81.2505 10 -22.1627
      vertex 125.749 10 -15.6057
      vertex 126.098 10 -25.5996
    endloop
  endfacet
endsolid model
