solid model
  facet normal 0.0627828 0.998027 0
    outer loop
      vertex -0.299809 3.62834 -2.6
      vertex -0.299809 3.62834 6.55
      vertex 0.100465 3.60316 -2.6
    endloop
  endfacet
  facet normal 0.0627828 0.998027 -0
    outer loop
      vertex -0.299809 3.62834 6.55
      vertex 0.100465 3.60316 6.55
      vertex 0.100465 3.60316 -2.6
    endloop
  endfacet
  facet normal 0.0627828 -0.998027 0
    outer loop
      vertex -0.299809 6.77166 -2.6
      vertex 0.100465 6.79684 -2.6
      vertex 0.100465 6.79684 6.55
    endloop
  endfacet
  facet normal 0.0627828 -0.998027 0
    outer loop
      vertex -0.299809 6.77166 -2.6
      vertex 0.100465 6.79684 6.55
      vertex -0.299809 6.77166 6.55
    endloop
  endfacet
  facet normal 0 0 -1
    outer loop
      vertex -0.299809 6.77166 -2.6
      vertex 0.257441 9.29191 -2.6
      vertex 0.100465 6.79684 -2.6
    endloop
  endfacet
  facet normal 0.309024 0.951054 0
    outer loop
      vertex -0.681247 3.75228 -2.6
      vertex -0.681247 3.75228 6.55
      vertex -0.299809 3.62834 -2.6
    endloop
  endfacet
  facet normal 0.309024 0.951054 -0
    outer loop
      vertex -0.681247 3.75228 6.55
      vertex -0.299809 3.62834 6.55
      vertex -0.299809 3.62834 -2.6
    endloop
  endfacet
  facet normal 0.309024 -0.951054 0
    outer loop
      vertex -0.681247 6.64772 -2.6
      vertex -0.299809 6.77166 -2.6
      vertex -0.299809 6.77166 6.55
    endloop
  endfacet
  facet normal 0.309024 -0.951054 0
    outer loop
      vertex -0.681247 6.64772 -2.6
      vertex -0.299809 6.77166 6.55
      vertex -0.681247 6.64772 6.55
    endloop
  endfacet
  facet normal 0 0 -1
    outer loop
      vertex -0.768263 9.22738 -2.6
      vertex -0.299809 6.77166 -2.6
      vertex -0.681247 6.64772 -2.6
    endloop
  endfacet
  facet normal -0.0627887 0.998027 0
    outer loop
      vertex -0.768263 9.22738 -2.6
      vertex -0.768263 9.22738 10.6
      vertex 0.257441 9.29191 -2.6
    endloop
  endfacet
  facet normal 0 0 -1
    outer loop
      vertex -0.768263 9.22738 -2.6
      vertex 0.257441 9.29191 -2.6
      vertex -0.299809 6.77166 -2.6
    endloop
  endfacet
  facet normal -0.0627887 0.998027 0
    outer loop
      vertex -0.768263 9.22738 10.6
      vertex 0.257441 9.29191 10.6
      vertex 0.257441 9.29191 -2.6
    endloop
  endfacet
  facet normal 0.535821 0.844331 0
    outer loop
      vertex -1.01988 3.96718 -2.6
      vertex -1.01988 3.96718 6.55
      vertex -0.681247 3.75228 -2.6
    endloop
  endfacet
  facet normal 0.535821 0.844331 -0
    outer loop
      vertex -1.01988 3.96718 6.55
      vertex -0.681247 3.75228 6.55
      vertex -0.681247 3.75228 -2.6
    endloop
  endfacet
  facet normal 0.535821 -0.844331 0
    outer loop
      vertex -1.01988 6.43282 -2.6
      vertex -0.681247 6.64772 -2.6
      vertex -0.681247 6.64772 6.55
    endloop
  endfacet
  facet normal 0.535821 -0.844331 0
    outer loop
      vertex -1.01988 6.43282 -2.6
      vertex -0.681247 6.64772 6.55
      vertex -1.01988 6.43282 6.55
    endloop
  endfacet
  facet normal 0.728962 0.684555 0
    outer loop
      vertex -1.29443 4.25954 -2.6
      vertex -1.01988 3.96718 6.55
      vertex -1.01988 3.96718 -2.6
    endloop
  endfacet
  facet normal 0.728962 0.684555 0
    outer loop
      vertex -1.29443 4.25954 -2.6
      vertex -1.29443 4.25954 6.55
      vertex -1.01988 3.96718 6.55
    endloop
  endfacet
  facet normal 0.728962 -0.684555 0
    outer loop
      vertex -1.29443 6.14046 -2.6
      vertex -1.01988 6.43282 -2.6
      vertex -1.29443 6.14046 6.55
    endloop
  endfacet
  facet normal 0.728962 -0.684555 0
    outer loop
      vertex -1.29443 6.14046 6.55
      vertex -1.01988 6.43282 -2.6
      vertex -1.01988 6.43282 6.55
    endloop
  endfacet
  facet normal 0.876314 0.481741 0
    outer loop
      vertex -1.48764 4.611 -2.6
      vertex -1.29443 4.25954 6.55
      vertex -1.29443 4.25954 -2.6
    endloop
  endfacet
  facet normal 0.876314 0.481741 0
    outer loop
      vertex -1.48764 4.611 -2.6
      vertex -1.48764 4.611 6.55
      vertex -1.29443 4.25954 6.55
    endloop
  endfacet
  facet normal 0.876314 -0.481741 0
    outer loop
      vertex -1.48764 5.789 -2.6
      vertex -1.29443 6.14046 -2.6
      vertex -1.48764 5.789 6.55
    endloop
  endfacet
  facet normal 0.876314 -0.481741 0
    outer loop
      vertex -1.48764 5.789 6.55
      vertex -1.29443 6.14046 -2.6
      vertex -1.29443 6.14046 6.55
    endloop
  endfacet
  facet normal 0.968584 0.248685 0
    outer loop
      vertex -1.58738 4.99947 -2.6
      vertex -1.48764 4.611 6.55
      vertex -1.48764 4.611 -2.6
    endloop
  endfacet
  facet normal 0.968584 0.248685 0
    outer loop
      vertex -1.58738 4.99947 -2.6
      vertex -1.58738 4.99947 6.55
      vertex -1.48764 4.611 6.55
    endloop
  endfacet
  facet normal 1 0 0
    outer loop
      vertex -1.58738 4.99947 -2.6
      vertex -1.58738 5.40053 -2.6
      vertex -1.58738 4.99947 6.55
    endloop
  endfacet
  facet normal 1 -0 0
    outer loop
      vertex -1.58738 4.99947 6.55
      vertex -1.58738 5.40053 -2.6
      vertex -1.58738 5.40053 6.55
    endloop
  endfacet
  facet normal 0.968584 -0.248685 0
    outer loop
      vertex -1.58738 5.40053 -2.6
      vertex -1.48764 5.789 -2.6
      vertex -1.58738 5.40053 6.55
    endloop
  endfacet
  facet normal 0.968584 -0.248685 0
    outer loop
      vertex -1.58738 5.40053 6.55
      vertex -1.48764 5.789 -2.6
      vertex -1.48764 5.789 6.55
    endloop
  endfacet
  facet normal 0 0 1
    outer loop
      vertex -1.65 2.34212 10.6
      vertex -0.768263 1.17262 10.6
      vertex 0.257441 1.10809 10.6
    endloop
  endfacet
  facet normal -0 0 1
    outer loop
      vertex -1.65 2.34212 10.6
      vertex 0.257441 1.10809 10.6
      vertex 1.65 2.34212 10.6
    endloop
  endfacet
  facet normal 0 1 -0
    outer loop
      vertex -1.65 2.34212 10.6
      vertex 1.65 2.34212 10.6
      vertex 1.65 2.34212 6.55
    endloop
  endfacet
  facet normal 0 0 1
    outer loop
      vertex -1.65 2.34212 6.55
      vertex -0.299809 3.62834 6.55
      vertex -0.681247 3.75228 6.55
    endloop
  endfacet
  facet normal 0 0 1
    outer loop
      vertex -1.65 2.34212 6.55
      vertex -0.681247 3.75228 6.55
      vertex -1.01988 3.96718 6.55
    endloop
  endfacet
  facet normal 0 0 1
    outer loop
      vertex -1.65 2.34212 6.55
      vertex -1.01988 3.96718 6.55
      vertex -1.29443 4.25954 6.55
    endloop
  endfacet
  facet normal 0 1 0
    outer loop
      vertex -1.65 2.34212 6.55
      vertex -1.65 2.34212 10.6
      vertex 1.65 2.34212 6.55
    endloop
  endfacet
  facet normal 0 0 1
    outer loop
      vertex -1.65 2.34212 6.55
      vertex 0.100465 3.60316 6.55
      vertex -0.299809 3.62834 6.55
    endloop
  endfacet
  facet normal 0 0 1
    outer loop
      vertex -1.65 2.34212 6.55
      vertex 1.65 2.34212 6.55
      vertex 0.100465 3.60316 6.55
    endloop
  endfacet
  facet normal 0 0 1
    outer loop
      vertex -1.65 8.05788 10.6
      vertex 0.257441 9.29191 10.6
      vertex -0.768263 9.22738 10.6
    endloop
  endfacet
  facet normal 0 0 1
    outer loop
      vertex -1.65 8.05788 10.6
      vertex 1.65 8.05788 10.6
      vertex 0.257441 9.29191 10.6
    endloop
  endfacet
  facet normal 0 0 1
    outer loop
      vertex -1.65 8.05788 6.55
      vertex -0.299809 6.77166 6.55
      vertex 0.100465 6.79684 6.55
    endloop
  endfacet
  facet normal 0 0 1
    outer loop
      vertex -1.65 8.05788 6.55
      vertex -0.681247 6.64772 6.55
      vertex -0.299809 6.77166 6.55
    endloop
  endfacet
  facet normal 0 0 1
    outer loop
      vertex -1.65 8.05788 6.55
      vertex -1.01988 6.43282 6.55
      vertex -0.681247 6.64772 6.55
    endloop
  endfacet
  facet normal 0 0 1
    outer loop
      vertex -1.65 8.05788 6.55
      vertex -1.29443 6.14046 6.55
      vertex -1.01988 6.43282 6.55
    endloop
  endfacet
  facet normal -0 0 1
    outer loop
      vertex -1.65 8.05788 6.55
      vertex 0.100465 6.79684 6.55
      vertex 1.65 8.05788 6.55
    endloop
  endfacet
  facet normal 0 -1 0
    outer loop
      vertex -1.65 8.05788 6.55
      vertex 1.65 8.05788 10.6
      vertex -1.65 8.05788 10.6
    endloop
  endfacet
  facet normal 0 -1 -0
    outer loop
      vertex -1.65 8.05788 6.55
      vertex 1.65 8.05788 6.55
      vertex 1.65 8.05788 10.6
    endloop
  endfacet
  facet normal 0 0 1
    outer loop
      vertex -1.74569 1.49021 10.6
      vertex -0.768263 1.17262 10.6
      vertex -1.65 2.34212 10.6
    endloop
  endfacet
  facet normal 0 0 -1
    outer loop
      vertex -1.74569 8.90979 -2.6
      vertex -0.681247 6.64772 -2.6
      vertex -1.01988 6.43282 -2.6
    endloop
  endfacet
  facet normal 0 0 -1
    outer loop
      vertex -1.74569 8.90979 -2.6
      vertex -0.768263 9.22738 -2.6
      vertex -0.681247 6.64772 -2.6
    endloop
  endfacet
  facet normal 0 0 -1
    outer loop
      vertex -1.74569 8.90979 -2.6
      vertex -1.01988 6.43282 -2.6
      vertex -1.29443 6.14046 -2.6
    endloop
  endfacet
  facet normal 0 0 -1
    outer loop
      vertex -1.74569 8.90979 -2.6
      vertex -1.29443 6.14046 -2.6
      vertex -1.48764 5.789 -2.6
    endloop
  endfacet
  facet normal 0 0 -1
    outer loop
      vertex -1.74569 8.90979 -2.6
      vertex -1.48764 5.789 -2.6
      vertex -1.58738 5.40053 -2.6
    endloop
  endfacet
  facet normal -0.309021 0.951055 0
    outer loop
      vertex -1.74569 8.90979 -2.6
      vertex -1.74569 8.90979 10.6
      vertex -0.768263 9.22738 -2.6
    endloop
  endfacet
  facet normal -0.309021 0.951055 0
    outer loop
      vertex -1.74569 8.90979 10.6
      vertex -0.768263 9.22738 10.6
      vertex -0.768263 9.22738 -2.6
    endloop
  endfacet
  facet normal -0 0 1
    outer loop
      vertex -1.74569 8.90979 10.6
      vertex -1.65 8.05788 10.6
      vertex -0.768263 9.22738 10.6
    endloop
  endfacet
  facet normal -0 0 -1
    outer loop
      vertex -13.375 -0.200533 1.58738
      vertex -13.375 0.200533 1.58738
      vertex 13.375 0.200533 1.58738
    endloop
  endfacet
  facet normal -1 0 0
    outer loop
      vertex -13.375 -0.200533 1.58738
      vertex -13.375 2.6 2.6
      vertex -13.375 0.200533 1.58738
    endloop
  endfacet
  facet normal 0 0 -1
    outer loop
      vertex -13.375 -0.200533 1.58738
      vertex 13.375 0.200533 1.58738
      vertex 13.375 -0.200533 1.58738
    endloop
  endfacet
  facet normal 0 0.125341 0.992114
    outer loop
      vertex -13.375 -0.397903 -1.54973
      vertex 13.375 -0.397903 -1.54973
      vertex -13.375 0 -1.6
    endloop
  endfacet
  facet normal -0 0.368119 0.929778
    outer loop
      vertex -13.375 -0.397903 -1.54973
      vertex 13.375 -0.770805 -1.40209
      vertex 13.375 -0.397903 -1.54973
    endloop
  endfacet
  facet normal 0 0.248687 -0.968584
    outer loop
      vertex -13.375 -0.588999 1.48764
      vertex -13.375 -0.200533 1.58738
      vertex 13.375 -0.200533 1.58738
    endloop
  endfacet
  facet normal 0 0.248687 -0.968584
    outer loop
      vertex -13.375 -0.588999 1.48764
      vertex 13.375 -0.200533 1.58738
      vertex 13.375 -0.588999 1.48764
    endloop
  endfacet
  facet normal 0 0.368119 0.929778
    outer loop
      vertex -13.375 -0.770805 -1.40209
      vertex 13.375 -0.770805 -1.40209
      vertex -13.375 -0.397903 -1.54973
    endloop
  endfacet
  facet normal -0 0.587789 0.809014
    outer loop
      vertex -13.375 -0.770805 -1.40209
      vertex 13.375 -1.09527 -1.16635
      vertex 13.375 -0.770805 -1.40209
    endloop
  endfacet
  facet normal 0 0.481744 -0.876312
    outer loop
      vertex -13.375 -0.940456 1.29443
      vertex -13.375 -0.588999 1.48764
      vertex 13.375 -0.588999 1.48764
    endloop
  endfacet
  facet normal 0 0.481744 -0.876312
    outer loop
      vertex -13.375 -0.940456 1.29443
      vertex 13.375 -0.588999 1.48764
      vertex 13.375 -0.940456 1.29443
    endloop
  endfacet
  facet normal 0 0.587789 0.809014
    outer loop
      vertex -13.375 -1.09527 -1.16635
      vertex 13.375 -1.09527 -1.16635
      vertex -13.375 -0.770805 -1.40209
    endloop
  endfacet
  facet normal 0 0.68455 -0.728966
    outer loop
      vertex -13.375 -1.23282 1.01988
      vertex -13.375 -0.940456 1.29443
      vertex 13.375 -0.940456 1.29443
    endloop
  endfacet
  facet normal 0 0.68455 -0.728966
    outer loop
      vertex -13.375 -1.23282 1.01988
      vertex 13.375 -0.940456 1.29443
      vertex 13.375 -1.23282 1.01988
    endloop
  endfacet
  facet normal 0 0.844332 -0.53582
    outer loop
      vertex -13.375 -1.23282 1.01988
      vertex 13.375 -1.23282 1.01988
      vertex 13.375 -1.44772 0.681246
    endloop
  endfacet
  facet normal 0 0.770512 0.637425
    outer loop
      vertex -13.375 -1.35092 -0.857323
      vertex 13.375 -1.09527 -1.16635
      vertex -13.375 -1.09527 -1.16635
    endloop
  endfacet
  facet normal 0 0.770512 0.637425
    outer loop
      vertex -13.375 -1.35092 -0.857323
      vertex 13.375 -1.35092 -0.857323
      vertex 13.375 -1.09527 -1.16635
    endloop
  endfacet
  facet normal 0 0.844332 -0.53582
    outer loop
      vertex -13.375 -1.44772 0.681246
      vertex -13.375 -1.23282 1.01988
      vertex 13.375 -1.44772 0.681246
    endloop
  endfacet
  facet normal 0 0.951054 -0.309026
    outer loop
      vertex -13.375 -1.44772 0.681246
      vertex 13.375 -1.44772 0.681246
      vertex 13.375 -1.57166 0.29981
    endloop
  endfacet
  facet normal 0 0.904823 0.425788
    outer loop
      vertex -13.375 -1.52169 -0.494427
      vertex 13.375 -1.35092 -0.857323
      vertex -13.375 -1.35092 -0.857323
    endloop
  endfacet
  facet normal 0 0.904823 0.425788
    outer loop
      vertex -13.375 -1.52169 -0.494427
      vertex 13.375 -1.52169 -0.494427
      vertex 13.375 -1.35092 -0.857323
    endloop
  endfacet
  facet normal 0 0.951054 -0.309026
    outer loop
      vertex -13.375 -1.57166 0.29981
      vertex -13.375 -1.44772 0.681246
      vertex 13.375 -1.57166 0.29981
    endloop
  endfacet
  facet normal 0 0.998027 -0.0627827
    outer loop
      vertex -13.375 -1.57166 0.29981
      vertex 13.375 -1.57166 0.29981
      vertex 13.375 -1.59684 -0.100465
    endloop
  endfacet
  facet normal 0 0.998027 -0.0627827
    outer loop
      vertex -13.375 -1.59684 -0.100465
      vertex -13.375 -1.57166 0.29981
      vertex 13.375 -1.59684 -0.100465
    endloop
  endfacet
  facet normal 0 0.982288 0.187376
    outer loop
      vertex -13.375 -1.59684 -0.100465
      vertex 13.375 -1.52169 -0.494427
      vertex -13.375 -1.52169 -0.494427
    endloop
  endfacet
  facet normal 0 0.982288 0.187376
    outer loop
      vertex -13.375 -1.59684 -0.100465
      vertex 13.375 -1.59684 -0.100465
      vertex 13.375 -1.52169 -0.494427
    endloop
  endfacet
  facet normal -0 0 -1
    outer loop
      vertex -13.375 -2.6 -2.6
      vertex -0.299809 3.62834 -2.6
      vertex 0.100465 3.60316 -2.6
    endloop
  endfacet
  facet normal -0 0 -1
    outer loop
      vertex -13.375 -2.6 -2.6
      vertex -0.681247 3.75228 -2.6
      vertex -0.299809 3.62834 -2.6
    endloop
  endfacet
  facet normal 0 0 -1
    outer loop
      vertex -13.375 -2.6 -2.6
      vertex -1.01988 3.96718 -2.6
      vertex -0.681247 3.75228 -2.6
    endloop
  endfacet
  facet normal 0 0 -1
    outer loop
      vertex -13.375 -2.6 -2.6
      vertex -1.29443 4.25954 -2.6
      vertex -1.01988 3.96718 -2.6
    endloop
  endfacet
  facet normal -1 -0 0
    outer loop
      vertex -13.375 -2.6 -2.6
      vertex -13.375 -0.397903 -1.54973
      vertex -13.375 0 -1.6
    endloop
  endfacet
  facet normal -1 -0 0
    outer loop
      vertex -13.375 -2.6 -2.6
      vertex -13.375 -0.770805 -1.40209
      vertex -13.375 -0.397903 -1.54973
    endloop
  endfacet
  facet normal -1 -0 0
    outer loop
      vertex -13.375 -2.6 -2.6
      vertex -13.375 -1.09527 -1.16635
      vertex -13.375 -0.770805 -1.40209
    endloop
  endfacet
  facet normal -1 -0 0
    outer loop
      vertex -13.375 -2.6 -2.6
      vertex -13.375 -1.35092 -0.857323
      vertex -13.375 -1.09527 -1.16635
    endloop
  endfacet
  facet normal -1 -0 0
    outer loop
      vertex -13.375 -2.6 -2.6
      vertex -13.375 -1.52169 -0.494427
      vertex -13.375 -1.35092 -0.857323
    endloop
  endfacet
  facet normal -1 -0 0
    outer loop
      vertex -13.375 -2.6 -2.6
      vertex -13.375 -1.59684 -0.100465
      vertex -13.375 -1.52169 -0.494427
    endloop
  endfacet
  facet normal -1 0 0
    outer loop
      vertex -13.375 -2.6 -2.6
      vertex -13.375 -2.6 2.6
      vertex -13.375 -1.59684 -0.100465
    endloop
  endfacet
  facet normal -1 0 0
    outer loop
      vertex -13.375 -2.6 -2.6
      vertex -13.375 0 -1.6
      vertex -13.375 2.6 -2.6
    endloop
  endfacet
  facet normal 0 0 -1
    outer loop
      vertex -13.375 -2.6 -2.6
      vertex -13.375 2.6 -2.6
      vertex -1.29443 4.25954 -2.6
    endloop
  endfacet
  facet normal 0 0 -1
    outer loop
      vertex -13.375 -2.6 -2.6
      vertex 0.100465 3.60316 -2.6
      vertex 13.375 -2.6 -2.6
    endloop
  endfacet
  facet normal 0 -1 -0
    outer loop
      vertex -13.375 -2.6 -2.6
      vertex 13.375 -2.6 -2.6
      vertex 13.375 -2.6 2.6
    endloop
  endfacet
  facet normal 0 -1 0
    outer loop
      vertex -13.375 -2.6 -2.6
      vertex 13.375 -2.6 2.6
      vertex -13.375 -2.6 2.6
    endloop
  endfacet
  facet normal -0.225671 -0.694535 0.68315
    outer loop
      vertex -13.375 -2.6 2.6
      vertex -0.768263 1.17262 10.6
      vertex -1.74569 1.49021 10.6
    endloop
  endfacet
  facet normal -0.341246 -0.537719 0.77098
    outer loop
      vertex -13.375 -2.6 2.6
      vertex -1.74569 1.49021 10.6
      vertex -2.61344 2.0409 10.6
    endloop
  endfacet
  facet normal -1 0 0
    outer loop
      vertex -13.375 -2.6 2.6
      vertex -13.375 -0.200533 1.58738
      vertex -13.375 -0.588999 1.48764
    endloop
  endfacet
  facet normal -1 0 0
    outer loop
      vertex -13.375 -2.6 2.6
      vertex -13.375 -0.588999 1.48764
      vertex -13.375 -0.940456 1.29443
    endloop
  endfacet
  facet normal -1 0 0
    outer loop
      vertex -13.375 -2.6 2.6
      vertex -13.375 -0.940456 1.29443
      vertex -13.375 -1.23282 1.01988
    endloop
  endfacet
  facet normal -1 0 0
    outer loop
      vertex -13.375 -2.6 2.6
      vertex -13.375 -1.23282 1.01988
      vertex -13.375 -1.44772 0.681246
    endloop
  endfacet
  facet normal -1 0 0
    outer loop
      vertex -13.375 -2.6 2.6
      vertex -13.375 -1.44772 0.681246
      vertex -13.375 -1.57166 0.29981
    endloop
  endfacet
  facet normal -1 0 0
    outer loop
      vertex -13.375 -2.6 2.6
      vertex -13.375 -1.57166 0.29981
      vertex -13.375 -1.59684 -0.100465
    endloop
  endfacet
  facet normal -1 0 0
    outer loop
      vertex -13.375 -2.6 2.6
      vertex -13.375 2.6 2.6
      vertex -13.375 -0.200533 1.58738
    endloop
  endfacet
  facet normal -0.428204 -0.402112 0.809288
    outer loop
      vertex -13.375 -2.6 2.6
      vertex -2.61344 2.0409 10.6
      vertex -3.31697 2.79008 10.6
    endloop
  endfacet
  facet normal -0.50306 -0.276557 0.818808
    outer loop
      vertex -13.375 -2.6 2.6
      vertex -3.31697 2.79008 10.6
      vertex -3.81208 3.69069 10.6
    endloop
  endfacet
  facet normal -0.5756 -0.147791 0.804265
    outer loop
      vertex -13.375 -2.6 2.6
      vertex -3.81208 3.69069 10.6
      vertex -4.06767 4.68613 10.6
    endloop
  endfacet
  facet normal -0.651838 0 0.758359
    outer loop
      vertex -13.375 -2.6 2.6
      vertex -4.06767 4.68613 10.6
      vertex -13.375 2.6 2.6
    endloop
  endfacet
  facet normal -0.054559 -0.867215 0.494936
    outer loop
      vertex -13.375 -2.6 2.6
      vertex 0.257441 1.10809 10.6
      vertex -0.768263 1.17262 10.6
    endloop
  endfacet
  facet normal 0 -0.907277 0.420533
    outer loop
      vertex -13.375 -2.6 2.6
      vertex 13.375 -2.6 2.6
      vertex 0.257441 1.10809 10.6
    endloop
  endfacet
  facet normal -1 0 0
    outer loop
      vertex -13.375 0 -1.6
      vertex -13.375 0.397903 -1.54973
      vertex -13.375 2.6 -2.6
    endloop
  endfacet
  facet normal -0 0.125341 0.992114
    outer loop
      vertex -13.375 0 -1.6
      vertex 13.375 -0.397903 -1.54973
      vertex 13.375 0 -1.6
    endloop
  endfacet
  facet normal 0 -0.125341 0.992114
    outer loop
      vertex -13.375 0 -1.6
      vertex 13.375 0 -1.6
      vertex -13.375 0.397903 -1.54973
    endloop
  endfacet
  facet normal -0 -0.248687 -0.968584
    outer loop
      vertex -13.375 0.200533 1.58738
      vertex -13.375 0.588999 1.48764
      vertex 13.375 0.588999 1.48764
    endloop
  endfacet
  facet normal -1 0 0
    outer loop
      vertex -13.375 0.200533 1.58738
      vertex -13.375 2.6 2.6
      vertex -13.375 0.588999 1.48764
    endloop
  endfacet
  facet normal 0 -0.248687 -0.968584
    outer loop
      vertex -13.375 0.200533 1.58738
      vertex 13.375 0.588999 1.48764
      vertex 13.375 0.200533 1.58738
    endloop
  endfacet
  facet normal -1 0 0
    outer loop
      vertex -13.375 0.397903 -1.54973
      vertex -13.375 0.770805 -1.40209
      vertex -13.375 2.6 -2.6
    endloop
  endfacet
  facet normal 0 -0.125341 0.992114
    outer loop
      vertex -13.375 0.397903 -1.54973
      vertex 13.375 0 -1.6
      vertex 13.375 0.397903 -1.54973
    endloop
  endfacet
  facet normal 0 -0.368119 0.929778
    outer loop
      vertex -13.375 0.397903 -1.54973
      vertex 13.375 0.397903 -1.54973
      vertex -13.375 0.770805 -1.40209
    endloop
  endfacet
  facet normal -0 -0.481744 -0.876312
    outer loop
      vertex -13.375 0.588999 1.48764
      vertex -13.375 0.940456 1.29443
      vertex 13.375 0.940456 1.29443
    endloop
  endfacet
  facet normal -1 0 0
    outer loop
      vertex -13.375 0.588999 1.48764
      vertex -13.375 2.6 2.6
      vertex -13.375 0.940456 1.29443
    endloop
  endfacet
  facet normal 0 -0.481744 -0.876312
    outer loop
      vertex -13.375 0.588999 1.48764
      vertex 13.375 0.940456 1.29443
      vertex 13.375 0.588999 1.48764
    endloop
  endfacet
  facet normal -1 0 0
    outer loop
      vertex -13.375 0.770805 -1.40209
      vertex -13.375 1.09527 -1.16635
      vertex -13.375 2.6 -2.6
    endloop
  endfacet
  facet normal 0 -0.368119 0.929778
    outer loop
      vertex -13.375 0.770805 -1.40209
      vertex 13.375 0.397903 -1.54973
      vertex 13.375 0.770805 -1.40209
    endloop
  endfacet
  facet normal 0 -0.587789 0.809014
    outer loop
      vertex -13.375 0.770805 -1.40209
      vertex 13.375 0.770805 -1.40209
      vertex -13.375 1.09527 -1.16635
    endloop
  endfacet
  facet normal -0 -0.68455 -0.728966
    outer loop
      vertex -13.375 0.940456 1.29443
      vertex -13.375 1.23282 1.01988
      vertex 13.375 1.23282 1.01988
    endloop
  endfacet
  facet normal -1 0 0
    outer loop
      vertex -13.375 0.940456 1.29443
      vertex -13.375 2.6 2.6
      vertex -13.375 1.23282 1.01988
    endloop
  endfacet
  facet normal 0 -0.68455 -0.728966
    outer loop
      vertex -13.375 0.940456 1.29443
      vertex 13.375 1.23282 1.01988
      vertex 13.375 0.940456 1.29443
    endloop
  endfacet
  facet normal -1 0 0
    outer loop
      vertex -13.375 1.09527 -1.16635
      vertex -13.375 1.35092 -0.857323
      vertex -13.375 2.6 -2.6
    endloop
  endfacet
  facet normal 0 -0.587789 0.809014
    outer loop
      vertex -13.375 1.09527 -1.16635
      vertex 13.375 0.770805 -1.40209
      vertex 13.375 1.09527 -1.16635
    endloop
  endfacet
  facet normal 0 -0.770512 0.637425
    outer loop
      vertex -13.375 1.09527 -1.16635
      vertex 13.375 1.09527 -1.16635
      vertex 13.375 1.35092 -0.857323
    endloop
  endfacet
  facet normal 0 -0.770512 0.637425
    outer loop
      vertex -13.375 1.09527 -1.16635
      vertex 13.375 1.35092 -0.857323
      vertex -13.375 1.35092 -0.857323
    endloop
  endfacet
  facet normal 0 -0.844332 -0.53582
    outer loop
      vertex -13.375 1.23282 1.01988
      vertex -13.375 1.44772 0.681246
      vertex 13.375 1.23282 1.01988
    endloop
  endfacet
  facet normal -1 0 0
    outer loop
      vertex -13.375 1.23282 1.01988
      vertex -13.375 2.6 2.6
      vertex -13.375 1.44772 0.681246
    endloop
  endfacet
  facet normal -1 0 0
    outer loop
      vertex -13.375 1.35092 -0.857323
      vertex -13.375 1.52169 -0.494427
      vertex -13.375 2.6 -2.6
    endloop
  endfacet
  facet normal 0 -0.904823 0.425788
    outer loop
      vertex -13.375 1.35092 -0.857323
      vertex 13.375 1.35092 -0.857323
      vertex 13.375 1.52169 -0.494427
    endloop
  endfacet
  facet normal 0 -0.904823 0.425788
    outer loop
      vertex -13.375 1.35092 -0.857323
      vertex 13.375 1.52169 -0.494427
      vertex -13.375 1.52169 -0.494427
    endloop
  endfacet
  facet normal 0 -0.951054 -0.309026
    outer loop
      vertex -13.375 1.44772 0.681246
      vertex -13.375 1.57166 0.29981
      vertex 13.375 1.44772 0.681246
    endloop
  endfacet
  facet normal -1 0 0
    outer loop
      vertex -13.375 1.44772 0.681246
      vertex -13.375 2.6 2.6
      vertex -13.375 1.57166 0.29981
    endloop
  endfacet
  facet normal 0 -0.844332 -0.53582
    outer loop
      vertex -13.375 1.44772 0.681246
      vertex 13.375 1.44772 0.681246
      vertex 13.375 1.23282 1.01988
    endloop
  endfacet
  facet normal -1 0 0
    outer loop
      vertex -13.375 1.52169 -0.494427
      vertex -13.375 1.59684 -0.100465
      vertex -13.375 2.6 -2.6
    endloop
  endfacet
  facet normal 0 -0.982288 0.187376
    outer loop
      vertex -13.375 1.52169 -0.494427
      vertex 13.375 1.52169 -0.494427
      vertex 13.375 1.59684 -0.100465
    endloop
  endfacet
  facet normal 0 -0.982288 0.187376
    outer loop
      vertex -13.375 1.52169 -0.494427
      vertex 13.375 1.59684 -0.100465
      vertex -13.375 1.59684 -0.100465
    endloop
  endfacet
  facet normal 0 -0.998027 -0.0627827
    outer loop
      vertex -13.375 1.57166 0.29981
      vertex -13.375 1.59684 -0.100465
      vertex 13.375 1.57166 0.29981
    endloop
  endfacet
  facet normal -1 0 0
    outer loop
      vertex -13.375 1.57166 0.29981
      vertex -13.375 2.6 2.6
      vertex -13.375 1.59684 -0.100465
    endloop
  endfacet
  facet normal 0 -0.951054 -0.309026
    outer loop
      vertex -13.375 1.57166 0.29981
      vertex 13.375 1.57166 0.29981
      vertex 13.375 1.44772 0.681246
    endloop
  endfacet
  facet normal -1 0 0
    outer loop
      vertex -13.375 1.59684 -0.100465
      vertex -13.375 2.6 2.6
      vertex -13.375 2.6 -2.6
    endloop
  endfacet
  facet normal 0 -0.998027 -0.0627827
    outer loop
      vertex -13.375 1.59684 -0.100465
      vertex 13.375 1.59684 -0.100465
      vertex 13.375 1.57166 0.29981
    endloop
  endfacet
  facet normal -0 0 -1
    outer loop
      vertex -13.375 2.6 -2.6
      vertex -1.48764 4.611 -2.6
      vertex -1.29443 4.25954 -2.6
    endloop
  endfacet
  facet normal -0 0 -1
    outer loop
      vertex -13.375 2.6 -2.6
      vertex -1.58738 4.99947 -2.6
      vertex -1.48764 4.611 -2.6
    endloop
  endfacet
  facet normal 0 0 -1
    outer loop
      vertex -13.375 2.6 -2.6
      vertex -1.58738 5.40053 -2.6
      vertex -1.58738 4.99947 -2.6
    endloop
  endfacet
  facet normal -0 0 -1
    outer loop
      vertex -13.375 2.6 -2.6
      vertex -1.74569 8.90979 -2.6
      vertex -1.58738 5.40053 -2.6
    endloop
  endfacet
  facet normal -0.476901 0.878957 0
    outer loop
      vertex -13.375 2.6 -2.6
      vertex -13.375 2.6 2.6
      vertex -1.74569 8.90979 -2.6
    endloop
  endfacet
  facet normal -0.476901 0.878957 0
    outer loop
      vertex -13.375 2.6 2.6
      vertex -1.74569 8.90979 10.6
      vertex -1.74569 8.90979 -2.6
    endloop
  endfacet
  facet normal -0.532439 0.838992 0.112255
    outer loop
      vertex -13.375 2.6 2.6
      vertex -2.61344 8.3591 10.6
      vertex -1.74569 8.90979 10.6
    endloop
  endfacet
  facet normal -0.655173 0.615251 0.438424
    outer loop
      vertex -13.375 2.6 2.6
      vertex -3.31697 7.60992 10.6
      vertex -2.61344 8.3591 10.6
    endloop
  endfacet
  facet normal -0.684265 0.376174 0.624719
    outer loop
      vertex -13.375 2.6 2.6
      vertex -3.81208 6.70931 10.6
      vertex -3.31697 7.60992 10.6
    endloop
  endfacet
  facet normal -0.651838 0 0.758359
    outer loop
      vertex -13.375 2.6 2.6
      vertex -4.06767 4.68613 10.6
      vertex -4.06767 5.71387 10.6
    endloop
  endfacet
  facet normal -0.674674 0.17323 0.7175
    outer loop
      vertex -13.375 2.6 2.6
      vertex -4.06767 5.71387 10.6
      vertex -3.81208 6.70931 10.6
    endloop
  endfacet
  facet normal 0 0 1
    outer loop
      vertex -2.61344 2.0409 10.6
      vertex -1.74569 1.49021 10.6
      vertex -1.65 2.34212 10.6
    endloop
  endfacet
  facet normal -0 0 1
    outer loop
      vertex -2.61344 8.3591 10.6
      vertex -1.65 8.05788 10.6
      vertex -1.74569 8.90979 10.6
    endloop
  endfacet
  facet normal 0.866025 -0.500001 0
    outer loop
      vertex -3.3 5.2 10.6
      vertex -1.65 8.05788 6.55
      vertex -1.65 8.05788 10.6
    endloop
  endfacet
  facet normal 0 0 1
    outer loop
      vertex -3.3 5.2 6.55
      vertex -1.29443 4.25954 6.55
      vertex -1.48764 4.611 6.55
    endloop
  endfacet
  facet normal 0 0 1
    outer loop
      vertex -3.3 5.2 6.55
      vertex -1.29443 6.14046 6.55
      vertex -1.65 8.05788 6.55
    endloop
  endfacet
  facet normal 0 0 1
    outer loop
      vertex -3.3 5.2 6.55
      vertex -1.48764 4.611 6.55
      vertex -1.58738 4.99947 6.55
    endloop
  endfacet
  facet normal 0 0 1
    outer loop
      vertex -3.3 5.2 6.55
      vertex -1.48764 5.789 6.55
      vertex -1.29443 6.14046 6.55
    endloop
  endfacet
  facet normal 0 0 1
    outer loop
      vertex -3.3 5.2 6.55
      vertex -1.58738 4.99947 6.55
      vertex -1.58738 5.40053 6.55
    endloop
  endfacet
  facet normal 0 0 1
    outer loop
      vertex -3.3 5.2 6.55
      vertex -1.58738 5.40053 6.55
      vertex -1.48764 5.789 6.55
    endloop
  endfacet
  facet normal 0.866025 0.500001 0
    outer loop
      vertex -3.3 5.2 6.55
      vertex -1.65 2.34212 10.6
      vertex -1.65 2.34212 6.55
    endloop
  endfacet
  facet normal 0 0 1
    outer loop
      vertex -3.3 5.2 6.55
      vertex -1.65 2.34212 6.55
      vertex -1.29443 4.25954 6.55
    endloop
  endfacet
  facet normal 0.866025 -0.500001 0
    outer loop
      vertex -3.3 5.2 6.55
      vertex -1.65 8.05788 6.55
      vertex -3.3 5.2 10.6
    endloop
  endfacet
  facet normal 0.866025 0.500001 0
    outer loop
      vertex -3.3 5.2 6.55
      vertex -3.3 5.2 10.6
      vertex -1.65 2.34212 10.6
    endloop
  endfacet
  facet normal -0 0 1
    outer loop
      vertex -3.31697 2.79008 10.6
      vertex -1.65 2.34212 10.6
      vertex -3.3 5.2 10.6
    endloop
  endfacet
  facet normal 0 0 1
    outer loop
      vertex -3.31697 2.79008 10.6
      vertex -2.61344 2.0409 10.6
      vertex -1.65 2.34212 10.6
    endloop
  endfacet
  facet normal 0 0 1
    outer loop
      vertex -3.31697 7.60992 10.6
      vertex -1.65 8.05788 10.6
      vertex -2.61344 8.3591 10.6
    endloop
  endfacet
  facet normal 0 0 1
    outer loop
      vertex -3.31697 7.60992 10.6
      vertex -3.3 5.2 10.6
      vertex -1.65 8.05788 10.6
    endloop
  endfacet
  facet normal 0 0 1
    outer loop
      vertex -3.81208 3.69069 10.6
      vertex -3.31697 2.79008 10.6
      vertex -3.3 5.2 10.6
    endloop
  endfacet
  facet normal -0 0 1
    outer loop
      vertex -3.81208 6.70931 10.6
      vertex -3.3 5.2 10.6
      vertex -3.31697 7.60992 10.6
    endloop
  endfacet
  facet normal 0 0 1
    outer loop
      vertex -4.06767 4.68613 10.6
      vertex -3.3 5.2 10.6
      vertex -4.06767 5.71387 10.6
    endloop
  endfacet
  facet normal 0 0 1
    outer loop
      vertex -4.06767 4.68613 10.6
      vertex -3.81208 3.69069 10.6
      vertex -3.3 5.2 10.6
    endloop
  endfacet
  facet normal -0 0 1
    outer loop
      vertex -4.06767 5.71387 10.6
      vertex -3.3 5.2 10.6
      vertex -3.81208 6.70931 10.6
    endloop
  endfacet
  facet normal -0.187376 0.982288 0
    outer loop
      vertex 0.100465 3.60316 -2.6
      vertex 0.100465 3.60316 6.55
      vertex 0.494427 3.67831 -2.6
    endloop
  endfacet
  facet normal 0 0 -1
    outer loop
      vertex 0.100465 3.60316 -2.6
      vertex 0.494427 3.67831 -2.6
      vertex 13.375 -2.6 -2.6
    endloop
  endfacet
  facet normal -0.187376 0.982288 0
    outer loop
      vertex 0.100465 3.60316 6.55
      vertex 0.494427 3.67831 6.55
      vertex 0.494427 3.67831 -2.6
    endloop
  endfacet
  facet normal -0 0 1
    outer loop
      vertex 0.100465 3.60316 6.55
      vertex 1.65 2.34212 6.55
      vertex 0.494427 3.67831 6.55
    endloop
  endfacet
  facet normal 0 0 -1
    outer loop
      vertex 0.100465 6.79684 -2.6
      vertex 0.257441 9.29191 -2.6
      vertex 0.494427 6.72169 -2.6
    endloop
  endfacet
  facet normal -0.187376 -0.982288 -0
    outer loop
      vertex 0.100465 6.79684 -2.6
      vertex 0.494427 6.72169 -2.6
      vertex 0.494427 6.72169 6.55
    endloop
  endfacet
  facet normal -0.187376 -0.982288 0
    outer loop
      vertex 0.100465 6.79684 -2.6
      vertex 0.494427 6.72169 6.55
      vertex 0.100465 6.79684 6.55
    endloop
  endfacet
  facet normal 0 0 1
    outer loop
      vertex 0.100465 6.79684 6.55
      vertex 0.494427 6.72169 6.55
      vertex 1.65 8.05788 6.55
    endloop
  endfacet
  facet normal 0 0 1
    outer loop
      vertex 0.257441 1.10809 10.6
      vertex 1.26697 1.30067 10.6
      vertex 1.65 2.34212 10.6
    endloop
  endfacet
  facet normal 0.149004 -0.781098 0.606369
    outer loop
      vertex 0.257441 1.10809 10.6
      vertex 13.375 -2.6 2.6
      vertex 1.26697 1.30067 10.6
    endloop
  endfacet
  facet normal 0.187383 0.982287 0
    outer loop
      vertex 0.257441 9.29191 -2.6
      vertex 0.257441 9.29191 10.6
      vertex 1.26697 9.09933 -2.6
    endloop
  endfacet
  facet normal 0 0 -1
    outer loop
      vertex 0.257441 9.29191 -2.6
      vertex 1.26697 9.09933 -2.6
      vertex 0.494427 6.72169 -2.6
    endloop
  endfacet
  facet normal 0.187383 0.982287 -0
    outer loop
      vertex 0.257441 9.29191 10.6
      vertex 1.26697 9.09933 10.6
      vertex 1.26697 9.09933 -2.6
    endloop
  endfacet
  facet normal 0 0 1
    outer loop
      vertex 0.257441 9.29191 10.6
      vertex 1.65 8.05788 10.6
      vertex 1.26697 9.09933 10.6
    endloop
  endfacet
  facet normal -0.425788 0.904823 0
    outer loop
      vertex 0.494427 3.67831 -2.6
      vertex 0.494427 3.67831 6.55
      vertex 0.857323 3.84908 -2.6
    endloop
  endfacet
  facet normal 0 0 -1
    outer loop
      vertex 0.494427 3.67831 -2.6
      vertex 0.857323 3.84908 -2.6
      vertex 13.375 -2.6 -2.6
    endloop
  endfacet
  facet normal -0.425788 0.904823 0
    outer loop
      vertex 0.494427 3.67831 6.55
      vertex 0.857323 3.84908 6.55
      vertex 0.857323 3.84908 -2.6
    endloop
  endfacet
  facet normal -0 0 1
    outer loop
      vertex 0.494427 3.67831 6.55
      vertex 1.65 2.34212 6.55
      vertex 0.857323 3.84908 6.55
    endloop
  endfacet
  facet normal -0.425788 -0.904823 -0
    outer loop
      vertex 0.494427 6.72169 -2.6
      vertex 0.857323 6.55092 -2.6
      vertex 0.857323 6.55092 6.55
    endloop
  endfacet
  facet normal -0.425788 -0.904823 0
    outer loop
      vertex 0.494427 6.72169 -2.6
      vertex 0.857323 6.55092 6.55
      vertex 0.494427 6.72169 6.55
    endloop
  endfacet
  facet normal 0 0 -1
    outer loop
      vertex 0.494427 6.72169 -2.6
      vertex 1.26697 9.09933 -2.6
      vertex 0.857323 6.55092 -2.6
    endloop
  endfacet
  facet normal 0 0 1
    outer loop
      vertex 0.494427 6.72169 6.55
      vertex 0.857323 6.55092 6.55
      vertex 1.65 8.05788 6.55
    endloop
  endfacet
  facet normal -0.63741 0.770525 0
    outer loop
      vertex 0.857323 3.84908 -2.6
      vertex 0.857323 3.84908 6.55
      vertex 1.16635 4.10472 -2.6
    endloop
  endfacet
  facet normal 0 0 -1
    outer loop
      vertex 0.857323 3.84908 -2.6
      vertex 1.16635 4.10472 -2.6
      vertex 13.375 -2.6 -2.6
    endloop
  endfacet
  facet normal -0.63741 0.770525 0
    outer loop
      vertex 0.857323 3.84908 6.55
      vertex 1.16635 4.10472 6.55
      vertex 1.16635 4.10472 -2.6
    endloop
  endfacet
  facet normal -0 0 1
    outer loop
      vertex 0.857323 3.84908 6.55
      vertex 1.65 2.34212 6.55
      vertex 1.16635 4.10472 6.55
    endloop
  endfacet
  facet normal -0.637425 -0.770512 -0
    outer loop
      vertex 0.857323 6.55092 -2.6
      vertex 1.16635 6.29527 -2.6
      vertex 1.16635 6.29527 6.55
    endloop
  endfacet
  facet normal -0.637425 -0.770512 0
    outer loop
      vertex 0.857323 6.55092 -2.6
      vertex 1.16635 6.29527 6.55
      vertex 0.857323 6.55092 6.55
    endloop
  endfacet
  facet normal -0 0 -1
    outer loop
      vertex 0.857323 6.55092 -2.6
      vertex 1.26697 9.09933 -2.6
      vertex 2.19689 8.66174 -2.6
    endloop
  endfacet
  facet normal 0 0 -1
    outer loop
      vertex 0.857323 6.55092 -2.6
      vertex 2.19689 8.66174 -2.6
      vertex 1.16635 6.29527 -2.6
    endloop
  endfacet
  facet normal 0 0 1
    outer loop
      vertex 0.857323 6.55092 6.55
      vertex 1.16635 6.29527 6.55
      vertex 1.65 8.05788 6.55
    endloop
  endfacet
  facet normal -0.809018 0.587783 0
    outer loop
      vertex 1.16635 4.10472 -2.6
      vertex 1.16635 4.10472 6.55
      vertex 1.40209 4.42919 6.55
    endloop
  endfacet
  facet normal 0 0 -1
    outer loop
      vertex 1.16635 4.10472 -2.6
      vertex 1.40209 4.42919 -2.6
      vertex 13.375 2.6 -2.6
    endloop
  endfacet
  facet normal -0.809018 0.587783 0
    outer loop
      vertex 1.16635 4.10472 -2.6
      vertex 1.40209 4.42919 6.55
      vertex 1.40209 4.42919 -2.6
    endloop
  endfacet
  facet normal 0 0 -1
    outer loop
      vertex 1.16635 4.10472 -2.6
      vertex 13.375 2.6 -2.6
      vertex 13.375 -2.6 -2.6
    endloop
  endfacet
  facet normal -0 0 1
    outer loop
      vertex 1.16635 4.10472 6.55
      vertex 1.65 2.34212 6.55
      vertex 1.40209 4.42919 6.55
    endloop
  endfacet
  facet normal -0.80901 -0.587795 0
    outer loop
      vertex 1.16635 6.29527 -2.6
      vertex 1.40209 5.97081 -2.6
      vertex 1.16635 6.29527 6.55
    endloop
  endfacet
  facet normal 0 0 -1
    outer loop
      vertex 1.16635 6.29527 -2.6
      vertex 2.19689 8.66174 -2.6
      vertex 1.40209 5.97081 -2.6
    endloop
  endfacet
  facet normal -0.80901 -0.587795 0
    outer loop
      vertex 1.16635 6.29527 6.55
      vertex 1.40209 5.97081 -2.6
      vertex 1.40209 5.97081 6.55
    endloop
  endfacet
  facet normal 0 0 1
    outer loop
      vertex 1.16635 6.29527 6.55
      vertex 1.40209 5.97081 6.55
      vertex 1.65 8.05788 6.55
    endloop
  endfacet
  facet normal 0.288473 -0.613032 0.73551
    outer loop
      vertex 1.26697 1.30067 10.6
      vertex 13.375 -2.6 2.6
      vertex 2.19689 1.73826 10.6
    endloop
  endfacet
  facet normal 0 0 1
    outer loop
      vertex 1.26697 1.30067 10.6
      vertex 2.19689 1.73826 10.6
      vertex 1.65 2.34212 10.6
    endloop
  endfacet
  facet normal 0.425782 0.904826 0
    outer loop
      vertex 1.26697 9.09933 -2.6
      vertex 1.26697 9.09933 10.6
      vertex 2.19689 8.66174 -2.6
    endloop
  endfacet
  facet normal 0 0 1
    outer loop
      vertex 1.26697 9.09933 10.6
      vertex 1.65 8.05788 10.6
      vertex 2.19689 8.66174 10.6
    endloop
  endfacet
  facet normal 0.425782 0.904826 -0
    outer loop
      vertex 1.26697 9.09933 10.6
      vertex 2.19689 8.66174 10.6
      vertex 2.19689 8.66174 -2.6
    endloop
  endfacet
  facet normal -0.929781 0.368113 0
    outer loop
      vertex 1.40209 4.42919 -2.6
      vertex 1.40209 4.42919 6.55
      vertex 1.54973 4.8021 6.55
    endloop
  endfacet
  facet normal 0 0 -1
    outer loop
      vertex 1.40209 4.42919 -2.6
      vertex 1.54973 4.8021 -2.6
      vertex 13.375 2.6 -2.6
    endloop
  endfacet
  facet normal -0.929781 0.368113 0
    outer loop
      vertex 1.40209 4.42919 -2.6
      vertex 1.54973 4.8021 6.55
      vertex 1.54973 4.8021 -2.6
    endloop
  endfacet
  facet normal 0 0 1
    outer loop
      vertex 1.40209 4.42919 6.55
      vertex 1.65 2.34212 6.55
      vertex 3.3 5.2 6.55
    endloop
  endfacet
  facet normal 0 0 1
    outer loop
      vertex 1.40209 4.42919 6.55
      vertex 3.3 5.2 6.55
      vertex 1.54973 4.8021 6.55
    endloop
  endfacet
  facet normal -0.929781 -0.368113 0
    outer loop
      vertex 1.40209 5.97081 -2.6
      vertex 1.54973 5.5979 -2.6
      vertex 1.40209 5.97081 6.55
    endloop
  endfacet
  facet normal 0 0 -1
    outer loop
      vertex 1.40209 5.97081 -2.6
      vertex 2.19689 8.66174 -2.6
      vertex 1.54973 5.5979 -2.6
    endloop
  endfacet
  facet normal -0.929781 -0.368113 0
    outer loop
      vertex 1.40209 5.97081 6.55
      vertex 1.54973 5.5979 -2.6
      vertex 1.54973 5.5979 6.55
    endloop
  endfacet
  facet normal 0 0 1
    outer loop
      vertex 1.40209 5.97081 6.55
      vertex 1.54973 5.5979 6.55
      vertex 3.3 5.2 6.55
    endloop
  endfacet
  facet normal -0 0 1
    outer loop
      vertex 1.40209 5.97081 6.55
      vertex 3.3 5.2 6.55
      vertex 1.65 8.05788 6.55
    endloop
  endfacet
  facet normal -0.992114 0.125342 0
    outer loop
      vertex 1.54973 4.8021 -2.6
      vertex 1.54973 4.8021 6.55
      vertex 1.6 5.2 6.55
    endloop
  endfacet
  facet normal 0 0 -1
    outer loop
      vertex 1.54973 4.8021 -2.6
      vertex 1.6 5.2 -2.6
      vertex 13.375 2.6 -2.6
    endloop
  endfacet
  facet normal -0.992114 0.125342 0
    outer loop
      vertex 1.54973 4.8021 -2.6
      vertex 1.6 5.2 6.55
      vertex 1.6 5.2 -2.6
    endloop
  endfacet
  facet normal 0 0 1
    outer loop
      vertex 1.54973 4.8021 6.55
      vertex 3.3 5.2 6.55
      vertex 1.6 5.2 6.55
    endloop
  endfacet
  facet normal -0.992114 -0.125342 0
    outer loop
      vertex 1.54973 5.5979 -2.6
      vertex 1.6 5.2 -2.6
      vertex 1.54973 5.5979 6.55
    endloop
  endfacet
  facet normal 0 0 -1
    outer loop
      vertex 1.54973 5.5979 -2.6
      vertex 2.19689 8.66174 -2.6
      vertex 1.6 5.2 -2.6
    endloop
  endfacet
  facet normal -0.992114 -0.125342 0
    outer loop
      vertex 1.54973 5.5979 6.55
      vertex 1.6 5.2 -2.6
      vertex 1.6 5.2 6.55
    endloop
  endfacet
  facet normal 0 0 1
    outer loop
      vertex 1.54973 5.5979 6.55
      vertex 1.6 5.2 6.55
      vertex 3.3 5.2 6.55
    endloop
  endfacet
  facet normal 0 0 -1
    outer loop
      vertex 1.6 5.2 -2.6
      vertex 2.19689 8.66174 -2.6
      vertex 13.375 2.6 -2.6
    endloop
  endfacet
  facet normal 0 0 1
    outer loop
      vertex 1.65 2.34212 10.6
      vertex 2.19689 1.73826 10.6
      vertex 2.98877 2.39336 10.6
    endloop
  endfacet
  facet normal 0 0 1
    outer loop
      vertex 1.65 2.34212 10.6
      vertex 2.98877 2.39336 10.6
      vertex 3.59286 3.22481 10.6
    endloop
  endfacet
  facet normal 0 0 1
    outer loop
      vertex 1.65 2.34212 10.6
      vertex 3.59286 3.22481 10.6
      vertex 3.3 5.2 10.6
    endloop
  endfacet
  facet normal -0.866025 0.500001 0
    outer loop
      vertex 1.65 2.34212 6.55
      vertex 1.65 2.34212 10.6
      vertex 3.3 5.2 10.6
    endloop
  endfacet
  facet normal -0.866025 0.500001 0
    outer loop
      vertex 1.65 2.34212 6.55
      vertex 3.3 5.2 10.6
      vertex 3.3 5.2 6.55
    endloop
  endfacet
  facet normal -0 0 1
    outer loop
      vertex 1.65 8.05788 10.6
      vertex 2.98877 8.00664 10.6
      vertex 2.19689 8.66174 10.6
    endloop
  endfacet
  facet normal 0 0 1
    outer loop
      vertex 1.65 8.05788 10.6
      vertex 3.3 5.2 10.6
      vertex 3.59286 7.17519 10.6
    endloop
  endfacet
  facet normal -0.866025 -0.500001 0
    outer loop
      vertex 1.65 8.05788 10.6
      vertex 3.3 5.2 6.55
      vertex 3.3 5.2 10.6
    endloop
  endfacet
  facet normal 0 0 1
    outer loop
      vertex 1.65 8.05788 10.6
      vertex 3.59286 7.17519 10.6
      vertex 2.98877 8.00664 10.6
    endloop
  endfacet
  facet normal -0.866025 -0.500001 0
    outer loop
      vertex 1.65 8.05788 6.55
      vertex 3.3 5.2 6.55
      vertex 1.65 8.05788 10.6
    endloop
  endfacet
  facet normal 1 0 0
    outer loop
      vertex 13.375 -0.200533 1.58738
      vertex 13.375 0.200533 1.58738
      vertex 13.375 2.6 2.6
    endloop
  endfacet
  facet normal 1 0 0
    outer loop
      vertex 13.375 -2.6 -2.6
      vertex 13.375 -0.397903 -1.54973
      vertex 13.375 -0.770805 -1.40209
    endloop
  endfacet
  facet normal 1 0 0
    outer loop
      vertex 13.375 -2.6 -2.6
      vertex 13.375 -0.770805 -1.40209
      vertex 13.375 -1.09527 -1.16635
    endloop
  endfacet
  facet normal 1 0 0
    outer loop
      vertex 13.375 -2.6 -2.6
      vertex 13.375 -1.09527 -1.16635
      vertex 13.375 -1.35092 -0.857323
    endloop
  endfacet
  facet normal 1 0 0
    outer loop
      vertex 13.375 -2.6 -2.6
      vertex 13.375 -1.35092 -0.857323
      vertex 13.375 -1.52169 -0.494427
    endloop
  endfacet
  facet normal 1 0 0
    outer loop
      vertex 13.375 -2.6 -2.6
      vertex 13.375 -1.52169 -0.494427
      vertex 13.375 -1.59684 -0.100465
    endloop
  endfacet
  facet normal 1 0 0
    outer loop
      vertex 13.375 -2.6 -2.6
      vertex 13.375 -1.59684 -0.100465
      vertex 13.375 -2.6 2.6
    endloop
  endfacet
  facet normal 1 0 0
    outer loop
      vertex 13.375 -2.6 -2.6
      vertex 13.375 0 -1.6
      vertex 13.375 -0.397903 -1.54973
    endloop
  endfacet
  facet normal 1 0 0
    outer loop
      vertex 13.375 -2.6 -2.6
      vertex 13.375 2.6 -2.6
      vertex 13.375 0 -1.6
    endloop
  endfacet
  facet normal 1 -0 0
    outer loop
      vertex 13.375 -2.6 2.6
      vertex 13.375 -0.200533 1.58738
      vertex 13.375 2.6 2.6
    endloop
  endfacet
  facet normal 1 0 0
    outer loop
      vertex 13.375 -2.6 2.6
      vertex 13.375 -0.588999 1.48764
      vertex 13.375 -0.200533 1.58738
    endloop
  endfacet
  facet normal 1 0 0
    outer loop
      vertex 13.375 -2.6 2.6
      vertex 13.375 -0.940456 1.29443
      vertex 13.375 -0.588999 1.48764
    endloop
  endfacet
  facet normal 1 0 0
    outer loop
      vertex 13.375 -2.6 2.6
      vertex 13.375 -1.23282 1.01988
      vertex 13.375 -0.940456 1.29443
    endloop
  endfacet
  facet normal 1 0 0
    outer loop
      vertex 13.375 -2.6 2.6
      vertex 13.375 -1.44772 0.681246
      vertex 13.375 -1.23282 1.01988
    endloop
  endfacet
  facet normal 1 0 0
    outer loop
      vertex 13.375 -2.6 2.6
      vertex 13.375 -1.57166 0.29981
      vertex 13.375 -1.44772 0.681246
    endloop
  endfacet
  facet normal 1 0 0
    outer loop
      vertex 13.375 -2.6 2.6
      vertex 13.375 -1.59684 -0.100465
      vertex 13.375 -1.57166 0.29981
    endloop
  endfacet
  facet normal 1 -0 0
    outer loop
      vertex 13.375 0 -1.6
      vertex 13.375 2.6 -2.6
      vertex 13.375 0.397903 -1.54973
    endloop
  endfacet
  facet normal 1 0 0
    outer loop
      vertex 13.375 0.200533 1.58738
      vertex 13.375 0.588999 1.48764
      vertex 13.375 2.6 2.6
    endloop
  endfacet
  facet normal 1 -0 0
    outer loop
      vertex 13.375 0.397903 -1.54973
      vertex 13.375 2.6 -2.6
      vertex 13.375 0.770805 -1.40209
    endloop
  endfacet
  facet normal 1 0 0
    outer loop
      vertex 13.375 0.588999 1.48764
      vertex 13.375 0.940456 1.29443
      vertex 13.375 2.6 2.6
    endloop
  endfacet
  facet normal 1 -0 0
    outer loop
      vertex 13.375 0.770805 -1.40209
      vertex 13.375 2.6 -2.6
      vertex 13.375 1.09527 -1.16635
    endloop
  endfacet
  facet normal 1 0 0
    outer loop
      vertex 13.375 0.940456 1.29443
      vertex 13.375 1.23282 1.01988
      vertex 13.375 2.6 2.6
    endloop
  endfacet
  facet normal 1 -0 0
    outer loop
      vertex 13.375 1.09527 -1.16635
      vertex 13.375 2.6 -2.6
      vertex 13.375 1.35092 -0.857323
    endloop
  endfacet
  facet normal 1 0 0
    outer loop
      vertex 13.375 1.23282 1.01988
      vertex 13.375 1.44772 0.681246
      vertex 13.375 2.6 2.6
    endloop
  endfacet
  facet normal 1 -0 0
    outer loop
      vertex 13.375 1.35092 -0.857323
      vertex 13.375 2.6 -2.6
      vertex 13.375 1.52169 -0.494427
    endloop
  endfacet
  facet normal 1 0 0
    outer loop
      vertex 13.375 1.44772 0.681246
      vertex 13.375 1.57166 0.29981
      vertex 13.375 2.6 2.6
    endloop
  endfacet
  facet normal 1 -0 0
    outer loop
      vertex 13.375 1.52169 -0.494427
      vertex 13.375 2.6 -2.6
      vertex 13.375 1.59684 -0.100465
    endloop
  endfacet
  facet normal 1 0 0
    outer loop
      vertex 13.375 1.57166 0.29981
      vertex 13.375 1.59684 -0.100465
      vertex 13.375 2.6 2.6
    endloop
  endfacet
  facet normal 1 0 0
    outer loop
      vertex 13.375 1.59684 -0.100465
      vertex 13.375 2.6 -2.6
      vertex 13.375 2.6 2.6
    endloop
  endfacet
  facet normal 0.387055 -0.467869 0.794535
    outer loop
      vertex 2.19689 1.73826 10.6
      vertex 13.375 -2.6 2.6
      vertex 2.98877 2.39336 10.6
    endloop
  endfacet
  facet normal 0.476704 0.879064 0
    outer loop
      vertex 2.19689 8.66174 -2.6
      vertex 13.375 2.6 2.6
      vertex 13.375 2.6 -2.6
    endloop
  endfacet
  facet normal 0.476704 0.879064 0
    outer loop
      vertex 2.19689 8.66174 -2.6
      vertex 2.19689 8.66174 10.6
      vertex 13.375 2.6 2.6
    endloop
  endfacet
  facet normal 0.609386 0.736621 0.293322
    outer loop
      vertex 2.19689 8.66174 10.6
      vertex 2.98877 8.00664 10.6
      vertex 13.375 2.6 2.6
    endloop
  endfacet
  facet normal 0.466426 -0.338882 0.817071
    outer loop
      vertex 2.98877 2.39336 10.6
      vertex 13.375 -2.6 2.6
      vertex 3.59286 3.22481 10.6
    endloop
  endfacet
  facet normal 0.677358 0.492134 0.5468
    outer loop
      vertex 2.98877 8.00664 10.6
      vertex 3.59286 7.17519 10.6
      vertex 13.375 2.6 2.6
    endloop
  endfacet
  facet normal 0 0 1
    outer loop
      vertex 3.3 5.2 10.6
      vertex 3.59286 3.22481 10.6
      vertex 3.97119 4.18037 10.6
    endloop
  endfacet
  facet normal 0 0 1
    outer loop
      vertex 3.3 5.2 10.6
      vertex 3.97119 4.18037 10.6
      vertex 4.1 5.2 10.6
    endloop
  endfacet
  facet normal 0 0 1
    outer loop
      vertex 3.3 5.2 10.6
      vertex 3.97119 6.21963 10.6
      vertex 3.59286 7.17519 10.6
    endloop
  endfacet
  facet normal 0 0 1
    outer loop
      vertex 3.3 5.2 10.6
      vertex 4.1 5.2 10.6
      vertex 3.97119 6.21963 10.6
    endloop
  endfacet
  facet normal 0.539164 -0.213468 0.814699
    outer loop
      vertex 3.59286 3.22481 10.6
      vertex 13.375 -2.6 2.6
      vertex 3.97119 4.18037 10.6
    endloop
  endfacet
  facet normal 0.682082 0.270053 0.679585
    outer loop
      vertex 3.59286 7.17519 10.6
      vertex 3.97119 6.21963 10.6
      vertex 13.375 2.6 2.6
    endloop
  endfacet
  facet normal 0.613037 -0.0774451 0.786249
    outer loop
      vertex 3.97119 4.18037 10.6
      vertex 13.375 -2.6 2.6
      vertex 4.1 5.2 10.6
    endloop
  endfacet
  facet normal 0.664222 0.0839112 0.742811
    outer loop
      vertex 3.97119 6.21963 10.6
      vertex 4.1 5.2 10.6
      vertex 13.375 2.6 2.6
    endloop
  endfacet
  facet normal 0.653141 0 0.757236
    outer loop
      vertex 4.1 5.2 10.6
      vertex 13.375 -2.6 2.6
      vertex 13.375 2.6 2.6
    endloop
  endfacet
endsolid model
