solid model
  facet normal 0 1 -0
    outer loop
      vertex -10.0787 -3.1 -31.136
      vertex -8.59813 -3.1 -30.0714
      vertex -9.19377 -3.1 -31.9046
    endloop
  endfacet
  facet normal 0 1 0
    outer loop
      vertex -10.0787 -3.1 -31.136
      vertex -9.08566 -3.1 -29.416
      vertex -8.59813 -3.1 -30.0714
    endloop
  endfacet
  facet normal -0.0215783 0.99969 0.0124582
    outer loop
      vertex -10.0787 -3.1 -31.136
      vertex 10.2 -3.15 8
      vertex -9.08566 -3.1 -29.416
    endloop
  endfacet
  facet normal 0 1 0
    outer loop
      vertex -10.0787 -3.1 -38.864
      vertex -8.59813 -3.1 -39.9286
      vertex -9.08566 -3.1 -40.584
    endloop
  endfacet
  facet normal -0.0215783 0.99969 -0.0124582
    outer loop
      vertex -10.0787 -3.1 -38.864
      vertex -9.08566 -3.1 -40.584
      vertex 10.2 -3.15 -78
    endloop
  endfacet
  facet normal 0 1 0
    outer loop
      vertex -10.0787 -3.1 -38.864
      vertex -9.19377 -3.1 -38.0954
      vertex -8.59813 -3.1 -39.9286
    endloop
  endfacet
  facet normal -0.887885 0 0.460066
    outer loop
      vertex -10.0787 -3.2 -31.136
      vertex 10.2 -3.15 8
      vertex -10.0787 -3.1 -31.136
    endloop
  endfacet
  facet normal -0.887885 0 0.460066
    outer loop
      vertex -10.0787 -3.2 -31.136
      vertex 10.2 -3.25 8
      vertex 10.2 -3.15 8
    endloop
  endfacet
  facet normal -0.822691 -0.376656 0.425804
    outer loop
      vertex -10.0787 -3.2 -31.136
      vertex 26.5 -33.2 13
      vertex 10.2 -3.25 8
    endloop
  endfacet
  facet normal -0.887885 0 -0.460066
    outer loop
      vertex -10.0787 -3.2 -38.864
      vertex -10.0787 -3.1 -38.864
      vertex 10.2 -3.15 -78
    endloop
  endfacet
  facet normal -0.887885 0 -0.460066
    outer loop
      vertex -10.0787 -3.2 -38.864
      vertex 10.2 -3.15 -78
      vertex 10.2 -3.25 -78
    endloop
  endfacet
  facet normal -0.822691 -0.376656 -0.425804
    outer loop
      vertex -10.0787 -3.2 -38.864
      vertex 10.2 -3.25 -78
      vertex 26.5 -33.2 -83
    endloop
  endfacet
  facet normal 0 1 0
    outer loop
      vertex -10.6924 -3.1 -33.0248
      vertex -10.0787 -3.1 -31.136
      vertex -9.19377 -3.1 -31.9046
    endloop
  endfacet
  facet normal 0 1 -0
    outer loop
      vertex -10.6924 -3.1 -33.0248
      vertex -9.19377 -3.1 -31.9046
      vertex -9.39525 -3.1 -33.8216
    endloop
  endfacet
  facet normal -0.951058 0 -0.309013
    outer loop
      vertex -10.6924 -3.1 -36.9752
      vertex -10.0787 -3.1 -38.864
      vertex -10.0787 -3.2 -38.864
    endloop
  endfacet
  facet normal 0 1 0
    outer loop
      vertex -10.6924 -3.1 -36.9752
      vertex -9.19377 -3.1 -38.0954
      vertex -10.0787 -3.1 -38.864
    endloop
  endfacet
  facet normal 0 1 0
    outer loop
      vertex -10.6924 -3.1 -36.9752
      vertex -9.39525 -3.1 -36.1784
      vertex -9.19377 -3.1 -38.0954
    endloop
  endfacet
  facet normal -0.951058 0 0.309013
    outer loop
      vertex -10.6924 -3.2 -33.0248
      vertex -10.0787 -3.1 -31.136
      vertex -10.6924 -3.1 -33.0248
    endloop
  endfacet
  facet normal -0.951058 0 0.309013
    outer loop
      vertex -10.6924 -3.2 -33.0248
      vertex -10.0787 -3.2 -31.136
      vertex -10.0787 -3.1 -31.136
    endloop
  endfacet
  facet normal -0.777308 -0.576199 0.252559
    outer loop
      vertex -10.6924 -3.2 -33.0248
      vertex 26.5 -33.2 13
      vertex -10.0787 -3.2 -31.136
    endloop
  endfacet
  facet normal -0.777308 -0.576199 -0.252559
    outer loop
      vertex -10.6924 -3.2 -36.9752
      vertex -10.0787 -3.2 -38.864
      vertex 26.5 -33.2 -83
    endloop
  endfacet
  facet normal -0.951058 -0 -0.309013
    outer loop
      vertex -10.6924 -3.2 -36.9752
      vertex -10.6924 -3.1 -36.9752
      vertex -10.0787 -3.2 -38.864
    endloop
  endfacet
  facet normal 0 1 0
    outer loop
      vertex -10.9 -3.1 -35
      vertex -10.6924 -3.1 -33.0248
      vertex -9.39525 -3.1 -33.8216
    endloop
  endfacet
  facet normal -0.994522 0 -0.104528
    outer loop
      vertex -10.9 -3.1 -35
      vertex -10.6924 -3.1 -36.9752
      vertex -10.6924 -3.2 -36.9752
    endloop
  endfacet
  facet normal 0 1 -0
    outer loop
      vertex -10.9 -3.1 -35
      vertex -9.39525 -3.1 -33.8216
      vertex -9.39525 -3.1 -36.1784
    endloop
  endfacet
  facet normal 0 1 0
    outer loop
      vertex -10.9 -3.1 -35
      vertex -9.39525 -3.1 -36.1784
      vertex -10.6924 -3.1 -36.9752
    endloop
  endfacet
  facet normal -0.994522 0 0.104528
    outer loop
      vertex -10.9 -3.2 -35
      vertex -10.6924 -3.1 -33.0248
      vertex -10.9 -3.1 -35
    endloop
  endfacet
  facet normal -0.994522 0 0.104528
    outer loop
      vertex -10.9 -3.2 -35
      vertex -10.6924 -3.2 -33.0248
      vertex -10.6924 -3.1 -33.0248
    endloop
  endfacet
  facet normal -0.678186 -0.731425 -0.0712796
    outer loop
      vertex -10.9 -3.2 -35
      vertex -10.6924 -3.2 -36.9752
      vertex 26.5 -33.2 -83
    endloop
  endfacet
  facet normal -0.994522 -0 -0.104528
    outer loop
      vertex -10.9 -3.2 -35
      vertex -10.9 -3.1 -35
      vertex -10.6924 -3.2 -36.9752
    endloop
  endfacet
  facet normal -0.625712 -0.780054 -0
    outer loop
      vertex -10.9 -3.2 -35
      vertex 26.5 -33.2 -83
      vertex 26.5 -33.2 13
    endloop
  endfacet
  facet normal -0.678186 -0.731425 0.0712796
    outer loop
      vertex -10.9 -3.2 -35
      vertex 26.5 -33.2 13
      vertex -10.6924 -3.2 -33.0248
    endloop
  endfacet
  facet normal 0.786978 0.464447 -0.406146
    outer loop
      vertex -7.3431 -3.1 -27.6396
      vertex 1.35266 -3.12294 -10.8163
      vertex 26.5 -32.3335 4.5074
    endloop
  endfacet
  facet normal 0.786978 0.464447 0.406146
    outer loop
      vertex -7.3431 -3.1 -42.3604
      vertex 26.5 -32.3335 -74.5074
      vertex 1.35266 -3.12294 -59.1837
    endloop
  endfacet
  facet normal -0.00158626 0.999996 0.0021835
    outer loop
      vertex -7.75674 -3.1 -27.9401
      vertex 1.35266 -3.12294 -10.8163
      vertex -7.3431 -3.1 -27.6396
    endloop
  endfacet
  facet normal -0.00159376 0.999996 0.00218749
    outer loop
      vertex -7.75674 -3.1 -27.9401
      vertex 10.2 -3.15 8
      vertex 1.35266 -3.12294 -10.8163
    endloop
  endfacet
  facet normal -0.00158626 0.999996 -0.0021835
    outer loop
      vertex -7.75674 -3.1 -42.0599
      vertex -7.3431 -3.1 -42.3604
      vertex 1.35266 -3.12294 -59.1837
    endloop
  endfacet
  facet normal -0.00159376 0.999996 -0.00218749
    outer loop
      vertex -7.75674 -3.1 -42.0599
      vertex 1.35266 -3.12294 -59.1837
      vertex 10.2 -3.15 -78
    endloop
  endfacet
  facet normal 0.786979 0.46444 -0.406153
    outer loop
      vertex -8.59813 -3.1 -30.0714
      vertex -7.3431 -3.1 -27.6396
      vertex 26.5 -32.3335 4.5074
    endloop
  endfacet
  facet normal 0 1 0
    outer loop
      vertex -8.59813 -3.1 -30.0714
      vertex -7.75674 -3.1 -27.9401
      vertex -7.3431 -3.1 -27.6396
    endloop
  endfacet
  facet normal 0.751643 0.612249 -0.245326
    outer loop
      vertex -8.59813 -3.1 -30.0714
      vertex 26.5 -32.3335 4.5074
      vertex 26.5 -32.3404 4.49018
    endloop
  endfacet
  facet normal -0 1 -0
    outer loop
      vertex -8.59813 -3.1 -39.9286
      vertex -7.3431 -3.1 -42.3604
      vertex -7.75674 -3.1 -42.0599
    endloop
  endfacet
  facet normal 0.786979 0.46444 0.406153
    outer loop
      vertex -8.59813 -3.1 -39.9286
      vertex 26.5 -32.3335 -74.5074
      vertex -7.3431 -3.1 -42.3604
    endloop
  endfacet
  facet normal 0.751712 0.612076 0.245542
    outer loop
      vertex -8.59813 -3.1 -39.9286
      vertex 26.5 -32.3404 -74.4902
      vertex 26.5 -32.3335 -74.5074
    endloop
  endfacet
  facet normal 0 1 0
    outer loop
      vertex -9.08566 -3.1 -29.416
      vertex -7.75674 -3.1 -27.9401
      vertex -8.59813 -3.1 -30.0714
    endloop
  endfacet
  facet normal -0.00347117 0.999989 0.00312549
    outer loop
      vertex -9.08566 -3.1 -29.416
      vertex 10.2 -3.15 8
      vertex -7.75674 -3.1 -27.9401
    endloop
  endfacet
  facet normal -0.00347117 0.999989 -0.00312549
    outer loop
      vertex -9.08566 -3.1 -40.584
      vertex -7.75674 -3.1 -42.0599
      vertex 10.2 -3.15 -78
    endloop
  endfacet
  facet normal 0 1 0
    outer loop
      vertex -9.08566 -3.1 -40.584
      vertex -8.59813 -3.1 -39.9286
      vertex -7.75674 -3.1 -42.0599
    endloop
  endfacet
  facet normal 0.751245 0.613229 -0.244093
    outer loop
      vertex -9.19377 -3.1 -31.9046
      vertex -8.59813 -3.1 -30.0714
      vertex 26.5 -32.3404 4.49018
    endloop
  endfacet
  facet normal 0.674891 0.734412 -0.071848
    outer loop
      vertex -9.19377 -3.1 -31.9046
      vertex 26.5 -32.3404 4.49018
      vertex 26.5 -32.3427 4.46667
    endloop
  endfacet
  facet normal 0.751245 0.613229 0.244093
    outer loop
      vertex -9.19377 -3.1 -38.0954
      vertex 26.5 -32.3404 -74.4902
      vertex -8.59813 -3.1 -39.9286
    endloop
  endfacet
  facet normal 0.674906 0.734395 0.0718769
    outer loop
      vertex -9.19377 -3.1 -38.0954
      vertex 26.5 -32.3427 -74.4667
      vertex 26.5 -32.3404 -74.4902
    endloop
  endfacet
  facet normal 0.67437 0.734984 -0.0708775
    outer loop
      vertex -9.39525 -3.1 -33.8216
      vertex -9.19377 -3.1 -31.9046
      vertex 26.5 -32.3427 4.46667
    endloop
  endfacet
  facet normal 0.631604 0.775291 0
    outer loop
      vertex -9.39525 -3.1 -36.1784
      vertex -9.39525 -3.1 -33.8216
      vertex 26.5 -32.3427 4.46667
    endloop
  endfacet
  facet normal 0.67437 0.734984 0.0708775
    outer loop
      vertex -9.39525 -3.1 -36.1784
      vertex 26.5 -32.3427 -74.4667
      vertex -9.19377 -3.1 -38.0954
    endloop
  endfacet
  facet normal 0.631604 0.775291 0
    outer loop
      vertex -9.39525 -3.1 -36.1784
      vertex 26.5 -32.3427 4.46667
      vertex 26.5 -32.3427 -74.4667
    endloop
  endfacet
  facet normal -0.000811748 0.999998 0.00181979
    outer loop
      vertex 1.35266 -3.12294 -10.8163
      vertex 10.2 -3.15 8
      vertex 5.97097 -3.13545 -1.88183
    endloop
  endfacet
  facet normal 0.786978 0.464447 -0.406146
    outer loop
      vertex 1.35266 -3.12294 -10.8163
      vertex 5.97097 -3.13545 -1.88183
      vertex 26.5 -32.3335 4.5074
    endloop
  endfacet
  facet normal 0.786978 0.464448 0.406145
    outer loop
      vertex 1.35266 -3.12294 -59.1837
      vertex 26.5 -32.3335 -74.5074
      vertex 5.97097 -3.13545 -68.1182
    endloop
  endfacet
  facet normal -0.000811879 0.999998 -0.00181985
    outer loop
      vertex 1.35266 -3.12294 -59.1837
      vertex 5.97097 -3.13545 -68.1182
      vertex 10.2 -3.15 -78
    endloop
  endfacet
  facet normal 0 0.999999 -0.00149
    outer loop
      vertex 10.2 -3.15 -78
      vertex 22.364 -3.14553 -75
      vertex 24.6 -3.15 -78
    endloop
  endfacet
  facet normal 0 0.207685 -0.978196
    outer loop
      vertex 10.2 -3.15 -78
      vertex 24.6 -3.15 -78
      vertex 26.1 -18.222 -81.2
    endloop
  endfacet
  facet normal -4.23638e-07 0.207684 -0.978196
    outer loop
      vertex 10.2 -3.15 -78
      vertex 26.1 -18.222 -81.2
      vertex 26.1 -26.1221 -82.8773
    endloop
  endfacet
  facet normal 0 0.999999 0.00149
    outer loop
      vertex 10.2 -3.15 8
      vertex 24.6 -3.15 8
      vertex 22.364 -3.14553 5
    endloop
  endfacet
  facet normal 0 0.207685 0.978196
    outer loop
      vertex 10.2 -3.15 8
      vertex 26.5 -26.7 13
      vertex 24.6 -3.15 8
    endloop
  endfacet
  facet normal -0.293261 0 -0.956032
    outer loop
      vertex 10.2 -3.25 -78
      vertex 10.2 -3.15 -78
      vertex 26.1 -26.1221 -82.8773
    endloop
  endfacet
  facet normal -0.293261 0 -0.956032
    outer loop
      vertex 10.2 -3.25 -78
      vertex 26.1 -26.1221 -82.8773
      vertex 26.1 -29.5 -82.8773
    endloop
  endfacet
  facet normal -0.293261 1.97813e-07 -0.956032
    outer loop
      vertex 10.2 -3.25 -78
      vertex 26.1 -29.5 -82.8773
      vertex 26.5 -33.2 -83
    endloop
  endfacet
  facet normal -0.293261 0 0.956032
    outer loop
      vertex 10.2 -3.25 8
      vertex 26.5 -26.7 13
      vertex 10.2 -3.15 8
    endloop
  endfacet
  facet normal -0.293261 0 0.956032
    outer loop
      vertex 10.2 -3.25 8
      vertex 26.5 -33.2 13
      vertex 26.5 -26.7 13
    endloop
  endfacet
  facet normal 0.000251509 0.999999 -0.00130254
    outer loop
      vertex 22.364 -3.14553 -75
      vertex 22.5628 -3.14558 -75
      vertex 24.6 -3.15 -78
    endloop
  endfacet
  facet normal 0 0 1
    outer loop
      vertex 22.364 -3.14553 -75
      vertex 26.5 -26.7 -75
      vertex 22.5628 -3.14558 -75
    endloop
  endfacet
  facet normal 0 0 -1
    outer loop
      vertex 22.364 -3.14553 5
      vertex 22.5628 -3.14558 5
      vertex 26.1 -15.331 5
    endloop
  endfacet
  facet normal 0.000251509 0.999999 0.00130254
    outer loop
      vertex 22.364 -3.14553 5
      vertex 24.6 -3.15 8
      vertex 22.5628 -3.14558 5
    endloop
  endfacet
  facet normal 0.00053948 0.999999 -0.00110699
    outer loop
      vertex 22.5628 -3.14558 -75
      vertex 22.7667 -3.14569 -75
      vertex 24.6 -3.15 -78
    endloop
  endfacet
  facet normal 0 0 1
    outer loop
      vertex 22.5628 -3.14558 -75
      vertex 26.5 -26.7 -75
      vertex 22.7667 -3.14569 -75
    endloop
  endfacet
  facet normal 0 0 -1
    outer loop
      vertex 22.5628 -3.14558 5
      vertex 22.7667 -3.14569 5
      vertex 26.1 -15.331 5
    endloop
  endfacet
  facet normal 0.00053948 0.999999 0.00110699
    outer loop
      vertex 22.5628 -3.14558 5
      vertex 24.6 -3.15 8
      vertex 22.7667 -3.14569 5
    endloop
  endfacet
  facet normal 0.00072314 0.999999 -0.000994755
    outer loop
      vertex 22.7667 -3.14569 -75
      vertex 22.9603 -3.14583 -75
      vertex 24.6 -3.15 -78
    endloop
  endfacet
  facet normal 0 0 1
    outer loop
      vertex 22.7667 -3.14569 -75
      vertex 26.5 -26.7 -75
      vertex 22.9603 -3.14583 -75
    endloop
  endfacet
  facet normal 0 0 -1
    outer loop
      vertex 22.7667 -3.14569 5
      vertex 22.9603 -3.14583 5
      vertex 26.1 -15.331 5
    endloop
  endfacet
  facet normal 0.00072314 0.999999 0.000994755
    outer loop
      vertex 22.7667 -3.14569 5
      vertex 24.6 -3.15 8
      vertex 22.9603 -3.14583 5
    endloop
  endfacet
  facet normal 0.000934033 0.999999 -0.000879488
    outer loop
      vertex 22.9603 -3.14583 -75
      vertex 23.1316 -3.14599 -75
      vertex 24.6 -3.15 -78
    endloop
  endfacet
  facet normal 0 0 1
    outer loop
      vertex 22.9603 -3.14583 -75
      vertex 26.5 -26.7 -75
      vertex 23.1316 -3.14599 -75
    endloop
  endfacet
  facet normal 0 0 -1
    outer loop
      vertex 22.9603 -3.14583 5
      vertex 23.1316 -3.14599 5
      vertex 26.1 -15.331 5
    endloop
  endfacet
  facet normal 0.000934033 0.999999 0.000879488
    outer loop
      vertex 22.9603 -3.14583 5
      vertex 24.6 -3.15 8
      vertex 23.1316 -3.14599 5
    endloop
  endfacet
  facet normal 0.00128023 0.999999 -0.000710037
    outer loop
      vertex 23.1316 -3.14599 -75
      vertex 23.2722 -3.14617 -75
      vertex 24.6 -3.15 -78
    endloop
  endfacet
  facet normal 0 0 1
    outer loop
      vertex 23.1316 -3.14599 -75
      vertex 26.5 -26.7 -75
      vertex 23.2722 -3.14617 -75
    endloop
  endfacet
  facet normal 0 0 -1
    outer loop
      vertex 23.1316 -3.14599 5
      vertex 23.2722 -3.14617 5
      vertex 26.1 -15.331 5
    endloop
  endfacet
  facet normal 0.00128023 0.999999 0.000710037
    outer loop
      vertex 23.1316 -3.14599 5
      vertex 24.6 -3.15 8
      vertex 23.2722 -3.14617 5
    endloop
  endfacet
  facet normal 0.00160377 0.999999 -0.000566836
    outer loop
      vertex 23.2722 -3.14617 -75
      vertex 23.3782 -3.14634 -75
      vertex 24.6 -3.15 -78
    endloop
  endfacet
  facet normal 0 0 1
    outer loop
      vertex 23.2722 -3.14617 -75
      vertex 26.5 -26.7 -75
      vertex 23.3782 -3.14634 -75
    endloop
  endfacet
  facet normal 0 0 -1
    outer loop
      vertex 23.2722 -3.14617 5
      vertex 23.3782 -3.14634 5
      vertex 26.1 -15.331 5
    endloop
  endfacet
  facet normal 0.00160377 0.999999 0.000566836
    outer loop
      vertex 23.2722 -3.14617 5
      vertex 24.6 -3.15 8
      vertex 23.3782 -3.14634 5
    endloop
  endfacet
  facet normal 0.00240792 0.999997 -0.000239329
    outer loop
      vertex 23.3782 -3.14634 -75
      vertex 23.4488 -3.14651 -75
      vertex 24.6 -3.15 -78
    endloop
  endfacet
  facet normal 0 0 1
    outer loop
      vertex 23.3782 -3.14634 -75
      vertex 26.5 -26.7 -75
      vertex 23.4488 -3.14651 -75
    endloop
  endfacet
  facet normal 0 0 -1
    outer loop
      vertex 23.3782 -3.14634 5
      vertex 23.4488 -3.14651 5
      vertex 26.1 -15.331 5
    endloop
  endfacet
  facet normal 0.00240792 0.999997 0.000239329
    outer loop
      vertex 23.3782 -3.14634 5
      vertex 24.6 -3.15 8
      vertex 23.4488 -3.14651 5
    endloop
  endfacet
  facet normal 0.00303161 0.999995 -0
    outer loop
      vertex 23.4488 -3.14651 -75
      vertex 24.6 -3.15 -75
      vertex 24.6 -3.15 -78
    endloop
  endfacet
  facet normal 0 0 1
    outer loop
      vertex 23.4488 -3.14651 -75
      vertex 26.5 -26.7 -75
      vertex 24.6 -3.15 -75
    endloop
  endfacet
  facet normal 0 0 -1
    outer loop
      vertex 23.4488 -3.14651 5
      vertex 24.6 -3.15 5
      vertex 26.1 -15.331 5
    endloop
  endfacet
  facet normal 0.00303161 0.999995 -0
    outer loop
      vertex 23.4488 -3.14651 5
      vertex 24.6 -3.15 8
      vertex 24.6 -3.15 5
    endloop
  endfacet
  facet normal 0 0 1
    outer loop
      vertex 24.6 -3.15 -75
      vertex 26.5 -26.7 -75
      vertex 27.5 -26.7 -75
    endloop
  endfacet
  facet normal 0.992503 0.122219 -1.93197e-16
    outer loop
      vertex 24.6 -3.15 -75
      vertex 27.5 -26.7 -75
      vertex 26.456 -18.222 -81.2
    endloop
  endfacet
  facet normal 0.992503 0.122219 0
    outer loop
      vertex 24.6 -3.15 -78
      vertex 24.6 -3.15 -75
      vertex 26.456 -18.222 -81.2
    endloop
  endfacet
  facet normal 0 0.207685 -0.978196
    outer loop
      vertex 24.6 -3.15 -78
      vertex 26.456 -18.222 -81.2
      vertex 26.1 -18.222 -81.2
    endloop
  endfacet
  facet normal 0.992503 0.122219 0
    outer loop
      vertex 24.6 -3.15 5
      vertex 24.6 -3.15 8
      vertex 26.1 -15.331 6
    endloop
  endfacet
  facet normal 0.992503 0.122219 0
    outer loop
      vertex 24.6 -3.15 5
      vertex 26.1 -15.331 6
      vertex 26.1 -15.331 5
    endloop
  endfacet
  facet normal 0 0.207685 0.978196
    outer loop
      vertex 24.6 -3.15 8
      vertex 26.5 -26.7 13
      vertex 27.5 -26.7 13
    endloop
  endfacet
  facet normal 0.992503 0.122219 9.18942e-07
    outer loop
      vertex 24.6 -3.15 8
      vertex 27.5 -26.7 13
      vertex 26.1 -15.331 6
    endloop
  endfacet
  facet normal 0.992503 0.122219 -0
    outer loop
      vertex 26.1 -15.331 6
      vertex 27.5 -26.7 13
      vertex 27.5 -26.7 8
    endloop
  endfacet
  facet normal 0.992503 0.122219 0
    outer loop
      vertex 26.1 -15.331 6
      vertex 27.5 -26.7 8
      vertex 27.5 -26.7 6
    endloop
  endfacet
  facet normal 0 0 -1
    outer loop
      vertex 26.1 -18.222 -81.2
      vertex 26.456 -18.222 -81.2
      vertex 27.5 -26.7 -81.2
    endloop
  endfacet
  facet normal 0 0 -1
    outer loop
      vertex 26.1 -29.5 -81.2
      vertex 26.1 -18.222 -81.2
      vertex 27.5 -26.7 -81.2
    endloop
  endfacet
  facet normal 1 -0 0
    outer loop
      vertex 26.1 -29.5 -81.2
      vertex 26.1 -26.1221 -82.8773
      vertex 26.1 -18.222 -81.2
    endloop
  endfacet
  facet normal 0 0 -1
    outer loop
      vertex 26.1 -29.5 -81.2
      vertex 27.5 -26.7 -81.2
      vertex 27.5 -29.5 -81.2
    endloop
  endfacet
  facet normal 0 1 -0
    outer loop
      vertex 26.1 -29.5 -81.2
      vertex 27.5 -29.5 -81.2
      vertex 26.5 -29.5 -83
    endloop
  endfacet
  facet normal 1 0 0
    outer loop
      vertex 26.1 -29.5 -82.8773
      vertex 26.1 -26.1221 -82.8773
      vertex 26.1 -29.5 -81.2
    endloop
  endfacet
  facet normal 0 1 0
    outer loop
      vertex 26.1 -29.5 -82.8773
      vertex 26.1 -29.5 -81.2
      vertex 26.5 -29.5 -83
    endloop
  endfacet
  facet normal -0.293263 0 -0.956032
    outer loop
      vertex 26.1 -29.5 -82.8773
      vertex 26.5 -29.5 -83
      vertex 26.5 -33.2 -83
    endloop
  endfacet
  facet normal 1 0 0
    outer loop
      vertex 26.1 -29.5 5
      vertex 26.1 -15.331 5
      vertex 26.1 -29.5 6
    endloop
  endfacet
  facet normal 0 1 0
    outer loop
      vertex 26.1 -29.5 5
      vertex 26.1 -29.5 6
      vertex 26.5 -29.5 5
    endloop
  endfacet
  facet normal 0 0 -1
    outer loop
      vertex 26.1 -29.5 5
      vertex 26.5 -29.5 5
      vertex 26.5 -31.9028 5
    endloop
  endfacet
  facet normal 1 -0 0
    outer loop
      vertex 26.1 -29.5 6
      vertex 26.1 -15.331 5
      vertex 26.1 -15.331 6
    endloop
  endfacet
  facet normal -0 0 -1
    outer loop
      vertex 26.1 -29.5 6
      vertex 26.1 -15.331 6
      vertex 27.5 -26.7 6
    endloop
  endfacet
  facet normal 0 0 -1
    outer loop
      vertex 26.1 -29.5 6
      vertex 27.5 -26.7 6
      vertex 61.5 -29.5 6
    endloop
  endfacet
  facet normal 0 1 0
    outer loop
      vertex 26.1 -29.5 6
      vertex 30 -29.5 1.55563
      vertex 26.5 -29.5 5
    endloop
  endfacet
  facet normal 0 1 -0
    outer loop
      vertex 26.1 -29.5 6
      vertex 61.5 -29.5 6
      vertex 30 -29.5 1.55563
    endloop
  endfacet
  facet normal 0.992503 0.122219 -0
    outer loop
      vertex 26.456 -18.222 -81.2
      vertex 27.5 -26.7 -75
      vertex 27.5 -26.7 -78
    endloop
  endfacet
  facet normal 0.992503 0.122219 0
    outer loop
      vertex 26.456 -18.222 -81.2
      vertex 27.5 -26.7 -78
      vertex 27.5 -26.7 -81.2
    endloop
  endfacet
  facet normal 0 1 0
    outer loop
      vertex 26.5 -26.7 -1
      vertex 26.5 -26.7 1.2
      vertex 61.5 -26.7 -1
    endloop
  endfacet
  facet normal 0 1 0
    outer loop
      vertex 26.5 -26.7 -69
      vertex 61.5 -26.7 -69
      vertex 27.5 -26.7 -75
    endloop
  endfacet
  facet normal -0 0 1
    outer loop
      vertex 26.5 -26.7 -69
      vertex 61.5 -32.2 -69
      vertex 61.5 -26.7 -69
    endloop
  endfacet
  facet normal 0 1 0
    outer loop
      vertex 26.5 -26.7 -75
      vertex 26.5 -26.7 -69
      vertex 27.5 -26.7 -75
    endloop
  endfacet
  facet normal -0 0 1
    outer loop
      vertex 26.5 -26.7 1.2
      vertex 30 -28.3 1.2
      vertex 61.5 -26.7 1.2
    endloop
  endfacet
  facet normal 0 1 -0
    outer loop
      vertex 26.5 -26.7 1.2
      vertex 61.5 -26.7 1.2
      vertex 61.5 -26.7 -1
    endloop
  endfacet
  facet normal -0 0 1
    outer loop
      vertex 26.5 -26.7 13
      vertex 27.5 -33.2 13
      vertex 27.5 -26.7 13
    endloop
  endfacet
  facet normal 0 1 0
    outer loop
      vertex 26.5 -29.5 -83
      vertex 27.5 -29.5 -81.2
      vertex 27.5 -29.5 -83
    endloop
  endfacet
  facet normal -1 0 0
    outer loop
      vertex 26.5 -29.5 1.2
      vertex 26.5 -26.7 1.2
      vertex 26.5 -26.7 -1
    endloop
  endfacet
  facet normal 0 1 0
    outer loop
      vertex 26.5 -29.5 1.2
      vertex 26.5 -29.5 5
      vertex 30 -29.5 1.55563
    endloop
  endfacet
  facet normal 0 0 1
    outer loop
      vertex 26.5 -29.5 1.2
      vertex 30 -28.3 1.2
      vertex 26.5 -26.7 1.2
    endloop
  endfacet
  facet normal 0 0 1
    outer loop
      vertex 26.5 -29.5 1.2
      vertex 30 -29.5 1.2
      vertex 30 -28.3 1.2
    endloop
  endfacet
  facet normal 0 1 0
    outer loop
      vertex 26.5 -29.5 1.2
      vertex 30 -29.5 1.55563
      vertex 30 -29.5 1.2
    endloop
  endfacet
  facet normal -0 0 -1
    outer loop
      vertex 26.5 -32.2 -1
      vertex 26.5 -26.7 -1
      vertex 61.5 -26.7 -1
    endloop
  endfacet
  facet normal -1 0 0
    outer loop
      vertex 26.5 -32.2 -1
      vertex 26.5 -29.5 1.2
      vertex 26.5 -26.7 -1
    endloop
  endfacet
  facet normal 0 0 -1
    outer loop
      vertex 26.5 -32.2 -1
      vertex 61.5 -26.7 -1
      vertex 61.5 -32.2 -1
    endloop
  endfacet
  facet normal 0 1 -0
    outer loop
      vertex 26.5 -32.2 -1
      vertex 61.5 -32.2 -1
      vertex 61.5 -32.2 -69
    endloop
  endfacet
  facet normal 0 1 0
    outer loop
      vertex 26.5 -32.2 -69
      vertex 26.5 -32.2 -1
      vertex 61.5 -32.2 -69
    endloop
  endfacet
  facet normal 0 0 1
    outer loop
      vertex 26.5 -32.2 -69
      vertex 61.5 -32.2 -69
      vertex 26.5 -26.7 -69
    endloop
  endfacet
  facet normal -1 0 0
    outer loop
      vertex 26.5 -32.3427 -74.4667
      vertex 26.5 -26.7 -69
      vertex 26.5 -26.7 -75
    endloop
  endfacet
  facet normal -1 0 0
    outer loop
      vertex 26.5 -32.3427 -74.4667
      vertex 26.5 -26.7 -75
      vertex 26.5 -31.9028 -75
    endloop
  endfacet
  facet normal -1 0 0
    outer loop
      vertex 26.5 -32.3427 -74.4667
      vertex 26.5 -31.9028 -75
      vertex 26.5 -32.3335 -74.5074
    endloop
  endfacet
  facet normal -1 -0 0
    outer loop
      vertex 26.5 -32.3427 -74.4667
      vertex 26.5 -32.2 -1
      vertex 26.5 -32.2 -69
    endloop
  endfacet
  facet normal -1 -0 0
    outer loop
      vertex 26.5 -32.3427 -74.4667
      vertex 26.5 -32.2 -69
      vertex 26.5 -26.7 -69
    endloop
  endfacet
  facet normal -1 0 0
    outer loop
      vertex 26.5 -32.3427 -74.4667
      vertex 26.5 -32.3335 -74.5074
      vertex 26.5 -32.3404 -74.4902
    endloop
  endfacet
  facet normal -1 0 0
    outer loop
      vertex 26.5 -32.3427 -74.4667
      vertex 26.5 -32.3427 4.46667
      vertex 26.5 -32.2 -1
    endloop
  endfacet
  facet normal -1 0 0
    outer loop
      vertex 26.5 -32.3427 4.46667
      vertex 26.5 -29.5 1.2
      vertex 26.5 -32.2 -1
    endloop
  endfacet
  facet normal -1 0 0
    outer loop
      vertex 26.5 -32.3427 4.46667
      vertex 26.5 -29.5 5
      vertex 26.5 -29.5 1.2
    endloop
  endfacet
  facet normal -1 -0 0
    outer loop
      vertex 26.5 -32.3427 4.46667
      vertex 26.5 -31.9028 5
      vertex 26.5 -29.5 5
    endloop
  endfacet
  facet normal -1 0 0
    outer loop
      vertex 26.5 -32.3427 4.46667
      vertex 26.5 -32.3335 4.5074
      vertex 26.5 -31.9028 5
    endloop
  endfacet
  facet normal -1 0 0
    outer loop
      vertex 26.5 -32.3427 4.46667
      vertex 26.5 -32.3404 4.49018
      vertex 26.5 -32.3335 4.5074
    endloop
  endfacet
  facet normal -0 0 -1
    outer loop
      vertex 26.5 -33.2 -83
      vertex 26.5 -29.5 -83
      vertex 27.5 -29.5 -83
    endloop
  endfacet
  facet normal 0 0 -1
    outer loop
      vertex 26.5 -33.2 -83
      vertex 27.5 -29.5 -83
      vertex 27.5 -33.2 -83
    endloop
  endfacet
  facet normal 0 -1 -0
    outer loop
      vertex 26.5 -33.2 -83
      vertex 27.5 -33.2 -83
      vertex 27.5 -33.2 13
    endloop
  endfacet
  facet normal 0 -1 0
    outer loop
      vertex 26.5 -33.2 -83
      vertex 27.5 -33.2 13
      vertex 26.5 -33.2 13
    endloop
  endfacet
  facet normal 0 0 1
    outer loop
      vertex 26.5 -33.2 13
      vertex 27.5 -33.2 13
      vertex 26.5 -26.7 13
    endloop
  endfacet
  facet normal 0 1 -0
    outer loop
      vertex 27.5 -26.7 -75
      vertex 61.5 -26.7 -69
      vertex 61.5 -26.7 -78
    endloop
  endfacet
  facet normal 0 1 0
    outer loop
      vertex 27.5 -26.7 -78
      vertex 27.5 -26.7 -75
      vertex 61.5 -26.7 -78
    endloop
  endfacet
  facet normal 0 1 0
    outer loop
      vertex 27.5 -26.7 6
      vertex 27.5 -26.7 8
      vertex 61.5 -26.7 6
    endloop
  endfacet
  facet normal 0 0 -1
    outer loop
      vertex 27.5 -26.7 6
      vertex 61.5 -26.7 6
      vertex 61.5 -29.5 6
    endloop
  endfacet
  facet normal 0 1 -0
    outer loop
      vertex 27.5 -26.7 8
      vertex 61.5 -26.7 8
      vertex 61.5 -26.7 6
    endloop
  endfacet
  facet normal -0 0 1
    outer loop
      vertex 27.5 -26.7 8
      vertex 61.5 -33.2 8
      vertex 61.5 -26.7 8
    endloop
  endfacet
  facet normal 1 0 0
    outer loop
      vertex 27.5 -29.5 -81.2
      vertex 27.5 -26.7 -81.2
      vertex 27.5 -26.7 -78
    endloop
  endfacet
  facet normal -0 0 -1
    outer loop
      vertex 27.5 -33.2 -78
      vertex 27.5 -26.7 -78
      vertex 61.5 -26.7 -78
    endloop
  endfacet
  facet normal 1 -0 0
    outer loop
      vertex 27.5 -33.2 -78
      vertex 27.5 -29.5 -81.2
      vertex 27.5 -26.7 -78
    endloop
  endfacet
  facet normal 0 0 -1
    outer loop
      vertex 27.5 -33.2 -78
      vertex 61.5 -26.7 -78
      vertex 61.5 -33.2 -78
    endloop
  endfacet
  facet normal 0 -1 -0
    outer loop
      vertex 27.5 -33.2 -78
      vertex 61.5 -33.2 -78
      vertex 61.5 -33.2 8
    endloop
  endfacet
  facet normal 0 -1 0
    outer loop
      vertex 27.5 -33.2 -78
      vertex 61.5 -33.2 8
      vertex 27.5 -33.2 8
    endloop
  endfacet
  facet normal 1 0 0
    outer loop
      vertex 27.5 -33.2 -83
      vertex 27.5 -29.5 -81.2
      vertex 27.5 -33.2 -78
    endloop
  endfacet
  facet normal 1 0 0
    outer loop
      vertex 27.5 -33.2 -83
      vertex 27.5 -29.5 -83
      vertex 27.5 -29.5 -81.2
    endloop
  endfacet
  facet normal 0 0 0
    outer loop
      vertex 27.5 -33.2 -83
      vertex 27.5 -33.2 -78
      vertex 27.5 -33.2 8
    endloop
  endfacet
  facet normal 0 0 0
    outer loop
      vertex 27.5 -33.2 -83
      vertex 27.5 -33.2 8
      vertex 27.5 -33.2 13
    endloop
  endfacet
  facet normal 1 -0 0
    outer loop
      vertex 27.5 -33.2 13
      vertex 27.5 -26.7 8
      vertex 27.5 -26.7 13
    endloop
  endfacet
  facet normal 1 0 0
    outer loop
      vertex 27.5 -33.2 8
      vertex 27.5 -26.7 8
      vertex 27.5 -33.2 13
    endloop
  endfacet
  facet normal 0 0 1
    outer loop
      vertex 27.5 -33.2 8
      vertex 61.5 -33.2 8
      vertex 27.5 -26.7 8
    endloop
  endfacet
  facet normal 0 0 1
    outer loop
      vertex 30 -28.3 1.2
      vertex 61.5 -28.3 1.2
      vertex 61.5 -26.7 1.2
    endloop
  endfacet
  facet normal 0 -0.707107 0.707107
    outer loop
      vertex 30 -28.3 1.2
      vertex 61.5 -29 0.5
      vertex 61.5 -28.3 1.2
    endloop
  endfacet
  facet normal 0 -0.707107 0.707107
    outer loop
      vertex 30 -29 0.5
      vertex 61.5 -29 0.5
      vertex 30 -28.3 1.2
    endloop
  endfacet
  facet normal 1 -0 0
    outer loop
      vertex 30 -29.5 1.2
      vertex 30 -29 0.5
      vertex 30 -28.3 1.2
    endloop
  endfacet
  facet normal 0 0.70712 -0.707094
    outer loop
      vertex 30 -29.5 1.55563
      vertex 61.5 -29.5 1.55563
      vertex 61.5 -29.7778 1.27782
    endloop
  endfacet
  facet normal 0 1 0
    outer loop
      vertex 30 -29.5 1.55563
      vertex 61.5 -29.5 6
      vertex 61.5 -29.5 1.55563
    endloop
  endfacet
  facet normal 1 0 0
    outer loop
      vertex 30 -29.7778 1.27782
      vertex 30 -29 0.5
      vertex 30 -29.5 1.2
    endloop
  endfacet
  facet normal 1 0 0
    outer loop
      vertex 30 -29.7778 1.27782
      vertex 30 -29.5 1.2
      vertex 30 -29.5 1.55563
    endloop
  endfacet
  facet normal 0 0.70712 -0.707094
    outer loop
      vertex 30 -29.7778 1.27782
      vertex 30 -29.5 1.55563
      vertex 61.5 -29.7778 1.27782
    endloop
  endfacet
  facet normal 0 0.707116 0.707098
    outer loop
      vertex 30 -29.7778 1.27782
      vertex 61.5 -29 0.5
      vertex 30 -29 0.5
    endloop
  endfacet
  facet normal 0 0.707116 0.707098
    outer loop
      vertex 30 -29.7778 1.27782
      vertex 61.5 -29.7778 1.27782
      vertex 61.5 -29 0.5
    endloop
  endfacet
  facet normal -0.000330506 0.999999 0.00161384
    outer loop
      vertex 5.97097 -3.13545 -1.88183
      vertex 10.2 -3.15 8
      vertex 7.86962 -3.14075 1.79109
    endloop
  endfacet
  facet normal 0.786991 0.464465 -0.406101
    outer loop
      vertex 5.97097 -3.13545 -1.88183
      vertex 26.5 -31.9028 5
      vertex 26.5 -32.3335 4.5074
    endloop
  endfacet
  facet normal 0.786979 0.464447 -0.406144
    outer loop
      vertex 5.97097 -3.13545 -1.88183
      vertex 7.86962 -3.14075 1.79109
      vertex 26.5 -31.9028 5
    endloop
  endfacet
  facet normal 0.786978 0.464446 0.406146
    outer loop
      vertex 5.97097 -3.13545 -68.1182
      vertex 26.5 -31.9028 -75
      vertex 7.86962 -3.14075 -71.7911
    endloop
  endfacet
  facet normal 0.78699 0.464466 0.406101
    outer loop
      vertex 5.97097 -3.13545 -68.1182
      vertex 26.5 -32.3335 -74.5074
      vertex 26.5 -31.9028 -75
    endloop
  endfacet
  facet normal -0.000330462 0.999999 -0.00161383
    outer loop
      vertex 5.97097 -3.13545 -68.1182
      vertex 7.86962 -3.14075 -71.7911
      vertex 10.2 -3.15 -78
    endloop
  endfacet
  facet normal 1 -0 0
    outer loop
      vertex 61.5 -28.3 1.2
      vertex 61.5 -26.7 -1
      vertex 61.5 -26.7 1.2
    endloop
  endfacet
  facet normal 1 -0 0
    outer loop
      vertex 61.5 -29 0.5
      vertex 61.5 -26.7 -1
      vertex 61.5 -28.3 1.2
    endloop
  endfacet
  facet normal 1 0 0
    outer loop
      vertex 61.5 -29.5 6
      vertex 61.5 -26.7 6
      vertex 61.5 -26.7 8
    endloop
  endfacet
  facet normal 1 0 0
    outer loop
      vertex 61.5 -29.7778 1.27782
      vertex 61.5 -29.5 1.55563
      vertex 61.5 -29.5 6
    endloop
  endfacet
  facet normal 1 0 0
    outer loop
      vertex 61.5 -32.2 -1
      vertex 61.5 -26.7 -1
      vertex 61.5 -29 0.5
    endloop
  endfacet
  facet normal 1 0 0
    outer loop
      vertex 61.5 -32.2 -1
      vertex 61.5 -29 0.5
      vertex 61.5 -29.7778 1.27782
    endloop
  endfacet
  facet normal 1 -0 0
    outer loop
      vertex 61.5 -32.2 -69
      vertex 61.5 -26.7 -78
      vertex 61.5 -26.7 -69
    endloop
  endfacet
  facet normal 1 0 0
    outer loop
      vertex 61.5 -33.2 -78
      vertex 61.5 -26.7 -78
      vertex 61.5 -32.2 -69
    endloop
  endfacet
  facet normal 1 0 0
    outer loop
      vertex 61.5 -33.2 -78
      vertex 61.5 -32.2 -69
      vertex 61.5 -33.2 8
    endloop
  endfacet
  facet normal 1 -0 0
    outer loop
      vertex 61.5 -33.2 8
      vertex 61.5 -29.5 6
      vertex 61.5 -26.7 8
    endloop
  endfacet
  facet normal 1 0 0
    outer loop
      vertex 61.5 -33.2 8
      vertex 61.5 -29.7778 1.27782
      vertex 61.5 -29.5 6
    endloop
  endfacet
  facet normal 1 0 0
    outer loop
      vertex 61.5 -33.2 8
      vertex 61.5 -32.2 -1
      vertex 61.5 -29.7778 1.27782
    endloop
  endfacet
  facet normal 1 0 0
    outer loop
      vertex 61.5 -33.2 8
      vertex 61.5 -32.2 -69
      vertex 61.5 -32.2 -1
    endloop
  endfacet
  facet normal 0.786978 0.464445 0.406148
    outer loop
      vertex 7.86962 -3.14075 -71.7911
      vertex 26.5 -31.9028 -75
      vertex 9.52851 -3.14553 -75
    endloop
  endfacet
  facet normal -1.34057e-06 0.999999 -0.0014903
    outer loop
      vertex 7.86962 -3.14075 -71.7911
      vertex 9.52851 -3.14553 -75
      vertex 10.2 -3.15 -78
    endloop
  endfacet
  facet normal -1.35642e-06 0.999999 0.0014903
    outer loop
      vertex 7.86962 -3.14075 1.79109
      vertex 10.2 -3.15 8
      vertex 9.52851 -3.14553 5
    endloop
  endfacet
  facet normal 0.786978 0.464446 -0.406147
    outer loop
      vertex 7.86962 -3.14075 1.79109
      vertex 9.52851 -3.14553 5
      vertex 26.5 -31.9028 5
    endloop
  endfacet
  facet normal 0 0.999999 -0.00149
    outer loop
      vertex 9.52851 -3.14553 -75
      vertex 22.364 -3.14553 -75
      vertex 10.2 -3.15 -78
    endloop
  endfacet
  facet normal -0 0 1
    outer loop
      vertex 9.52851 -3.14553 -75
      vertex 26.5 -26.7 -75
      vertex 22.364 -3.14553 -75
    endloop
  endfacet
  facet normal 0 0 1
    outer loop
      vertex 9.52851 -3.14553 -75
      vertex 26.5 -31.9028 -75
      vertex 26.5 -26.7 -75
    endloop
  endfacet
  facet normal -0 0.999999 0.00149
    outer loop
      vertex 9.52851 -3.14553 5
      vertex 10.2 -3.15 8
      vertex 22.364 -3.14553 5
    endloop
  endfacet
  facet normal 0 0 -1
    outer loop
      vertex 9.52851 -3.14553 5
      vertex 22.364 -3.14553 5
      vertex 26.1 -15.331 5
    endloop
  endfacet
  facet normal 0 0 -1
    outer loop
      vertex 9.52851 -3.14553 5
      vertex 26.1 -15.331 5
      vertex 26.1 -29.5 5
    endloop
  endfacet
  facet normal 0 0 -1
    outer loop
      vertex 9.52851 -3.14553 5
      vertex 26.1 -29.5 5
      vertex 26.5 -31.9028 5
    endloop
  endfacet
endsolid model
