solid model
  facet normal -0 0 -1
    outer loop
      vertex -0.515594 -7.99733 0
      vertex -0.515594 7.99733 0
      vertex 0.637497 -7.99464 0
    endloop
  endfacet
  facet normal 0.00233285 -0.999997 0
    outer loop
      vertex -0.515594 -7.99733 0
      vertex 0.637497 -7.99464 0
      vertex -0.515594 -7.99733 140
    endloop
  endfacet
  facet normal 0.00233285 -0.999997 0
    outer loop
      vertex -0.515594 -7.99733 140
      vertex 0.637497 -7.99464 0
      vertex 0.637497 -7.99464 140
    endloop
  endfacet
  facet normal 0 0 1
    outer loop
      vertex -0.515594 -7.99733 140
      vertex 0.637497 -7.99464 140
      vertex -0.515594 7.99733 140
    endloop
  endfacet
  facet normal 0.00233285 0.999997 -0
    outer loop
      vertex -0.515594 7.99733 0
      vertex -0.515594 7.99733 140
      vertex 0.637497 7.99464 140
    endloop
  endfacet
  facet normal 0 0 -1
    outer loop
      vertex -0.515594 7.99733 0
      vertex 0.637497 7.99464 0
      vertex 0.637497 -7.99464 0
    endloop
  endfacet
  facet normal 0.00233285 0.999997 0
    outer loop
      vertex -0.515594 7.99733 0
      vertex 0.637497 7.99464 140
      vertex 0.637497 7.99464 0
    endloop
  endfacet
  facet normal 0 0 1
    outer loop
      vertex -0.515594 7.99733 140
      vertex 0.637497 -7.99464 140
      vertex 0.637497 7.99464 140
    endloop
  endfacet
  facet normal -0.0429083 -0.999079 0
    outer loop
      vertex -1.63509 -7.94925 0
      vertex -0.515594 -7.99733 0
      vertex -1.63509 -7.94925 140
    endloop
  endfacet
  facet normal 0 0 -1
    outer loop
      vertex -1.63509 -7.94925 0
      vertex -1.63509 7.94925 0
      vertex -0.515594 -7.99733 0
    endloop
  endfacet
  facet normal -0.0429083 -0.999079 0
    outer loop
      vertex -1.63509 -7.94925 140
      vertex -0.515594 -7.99733 0
      vertex -0.515594 -7.99733 140
    endloop
  endfacet
  facet normal -0 0 1
    outer loop
      vertex -1.63509 -7.94925 140
      vertex -0.515594 -7.99733 140
      vertex -1.63509 7.94925 140
    endloop
  endfacet
  facet normal 0 -0 -1
    outer loop
      vertex -1.63509 7.94925 0
      vertex -0.515594 7.99733 0
      vertex -0.515594 -7.99733 0
    endloop
  endfacet
  facet normal -0.0429083 0.999079 0
    outer loop
      vertex -1.63509 7.94925 0
      vertex -0.515594 7.99733 140
      vertex -0.515594 7.99733 0
    endloop
  endfacet
  facet normal -0.0429083 0.999079 0
    outer loop
      vertex -1.63509 7.94925 0
      vertex -1.63509 7.94925 140
      vertex -0.515594 7.99733 140
    endloop
  endfacet
  facet normal -0 0 1
    outer loop
      vertex -1.63509 7.94925 140
      vertex -0.515594 -7.99733 140
      vertex -0.515594 7.99733 140
    endloop
  endfacet
  facet normal 0 0 -1
    outer loop
      vertex -10.0965 -4.64037 0
      vertex -10.0965 4.64037 0
      vertex -9.52614 -5.18114 0
    endloop
  endfacet
  facet normal -0.688032 -0.72568 0
    outer loop
      vertex -10.0965 -4.64037 0
      vertex -9.52614 -5.18114 0
      vertex -10.0965 -4.64037 140
    endloop
  endfacet
  facet normal -0.688032 -0.72568 0
    outer loop
      vertex -10.0965 -4.64037 140
      vertex -9.52614 -5.18114 0
      vertex -9.52614 -5.18114 140
    endloop
  endfacet
  facet normal 0 0 1
    outer loop
      vertex -10.0965 -4.64037 140
      vertex -9.52614 -5.18114 140
      vertex -10.0965 4.64037 140
    endloop
  endfacet
  facet normal -0.688032 0.72568 0
    outer loop
      vertex -10.0965 4.64037 0
      vertex -10.0965 4.64037 140
      vertex -9.52614 5.18114 140
    endloop
  endfacet
  facet normal 0 0 -1
    outer loop
      vertex -10.0965 4.64037 0
      vertex -9.52614 5.18114 0
      vertex -9.52614 -5.18114 0
    endloop
  endfacet
  facet normal -0.688032 0.72568 0
    outer loop
      vertex -10.0965 4.64037 0
      vertex -9.52614 5.18114 140
      vertex -9.52614 5.18114 0
    endloop
  endfacet
  facet normal 0 0 1
    outer loop
      vertex -10.0965 4.64037 140
      vertex -9.52614 -5.18114 140
      vertex -9.52614 5.18114 140
    endloop
  endfacet
  facet normal -0.75656 -0.653924 0
    outer loop
      vertex -10.5955 -4.06305 0
      vertex -10.0965 -4.64037 0
      vertex -10.5955 -4.06305 140
    endloop
  endfacet
  facet normal 0 0 -1
    outer loop
      vertex -10.5955 -4.06305 0
      vertex -10.5955 4.06305 0
      vertex -10.0965 -4.64037 0
    endloop
  endfacet
  facet normal -0.75656 -0.653924 0
    outer loop
      vertex -10.5955 -4.06305 140
      vertex -10.0965 -4.64037 0
      vertex -10.0965 -4.64037 140
    endloop
  endfacet
  facet normal 0 0 1
    outer loop
      vertex -10.5955 -4.06305 140
      vertex -10.0965 -4.64037 140
      vertex -10.5955 4.06305 140
    endloop
  endfacet
  facet normal 0 0 -1
    outer loop
      vertex -10.5955 4.06305 0
      vertex -10.0965 4.64037 0
      vertex -10.0965 -4.64037 0
    endloop
  endfacet
  facet normal -0.75656 0.653924 0
    outer loop
      vertex -10.5955 4.06305 0
      vertex -10.0965 4.64037 140
      vertex -10.0965 4.64037 0
    endloop
  endfacet
  facet normal -0.75656 0.653924 0
    outer loop
      vertex -10.5955 4.06305 0
      vertex -10.5955 4.06305 140
      vertex -10.0965 4.64037 140
    endloop
  endfacet
  facet normal 0 0 1
    outer loop
      vertex -10.5955 4.06305 140
      vertex -10.0965 -4.64037 140
      vertex -10.0965 4.64037 140
    endloop
  endfacet
  facet normal -0.820383 -0.571814 0
    outer loop
      vertex -11.0211 -3.45244 0
      vertex -10.5955 -4.06305 0
      vertex -11.0211 -3.45244 140
    endloop
  endfacet
  facet normal 0 0 -1
    outer loop
      vertex -11.0211 -3.45244 0
      vertex -11.0211 3.45244 0
      vertex -10.5955 -4.06305 0
    endloop
  endfacet
  facet normal -0.820383 -0.571814 0
    outer loop
      vertex -11.0211 -3.45244 140
      vertex -10.5955 -4.06305 0
      vertex -10.5955 -4.06305 140
    endloop
  endfacet
  facet normal -0 0 1
    outer loop
      vertex -11.0211 -3.45244 140
      vertex -10.5955 -4.06305 140
      vertex -11.0211 3.45244 140
    endloop
  endfacet
  facet normal 0 0 -1
    outer loop
      vertex -11.0211 3.45244 0
      vertex -10.5955 4.06305 0
      vertex -10.5955 -4.06305 0
    endloop
  endfacet
  facet normal -0.820383 0.571814 0
    outer loop
      vertex -11.0211 3.45244 0
      vertex -10.5955 4.06305 140
      vertex -10.5955 4.06305 0
    endloop
  endfacet
  facet normal -0.820383 0.571814 0
    outer loop
      vertex -11.0211 3.45244 0
      vertex -11.0211 3.45244 140
      vertex -10.5955 4.06305 140
    endloop
  endfacet
  facet normal 0 -0 1
    outer loop
      vertex -11.0211 3.45244 140
      vertex -10.5955 -4.06305 140
      vertex -10.5955 4.06305 140
    endloop
  endfacet
  facet normal -0.877255 -0.480024 0
    outer loop
      vertex -11.3717 -2.81171 0
      vertex -11.0211 -3.45244 0
      vertex -11.3717 -2.81171 140
    endloop
  endfacet
  facet normal -0.877255 -0.480024 0
    outer loop
      vertex -11.3717 -2.81171 140
      vertex -11.0211 -3.45244 0
      vertex -11.0211 -3.45244 140
    endloop
  endfacet
  facet normal -0.877255 0.480024 0
    outer loop
      vertex -11.3717 2.81171 0
      vertex -11.0211 3.45244 140
      vertex -11.0211 3.45244 0
    endloop
  endfacet
  facet normal -0.877255 0.480024 0
    outer loop
      vertex -11.3717 2.81171 0
      vertex -11.3717 2.81171 140
      vertex -11.0211 3.45244 140
    endloop
  endfacet
  facet normal -0.925131 -0.379648 0
    outer loop
      vertex -11.6458 -2.14378 0
      vertex -11.3717 -2.81171 0
      vertex -11.6458 -2.14378 140
    endloop
  endfacet
  facet normal -0.925131 -0.379648 0
    outer loop
      vertex -11.6458 -2.14378 140
      vertex -11.3717 -2.81171 0
      vertex -11.3717 -2.81171 140
    endloop
  endfacet
  facet normal -0.925131 0.379648 0
    outer loop
      vertex -11.6458 2.14378 0
      vertex -11.3717 2.81171 140
      vertex -11.3717 2.81171 0
    endloop
  endfacet
  facet normal -0.925131 0.379648 0
    outer loop
      vertex -11.6458 2.14378 0
      vertex -11.6458 2.14378 140
      vertex -11.3717 2.81171 140
    endloop
  endfacet
  facet normal 0 0 -1
    outer loop
      vertex -11.8423 -1.45122 0
      vertex -11.3717 -2.81171 0
      vertex -11.6458 -2.14378 0
    endloop
  endfacet
  facet normal -0.962027 -0.272956 0
    outer loop
      vertex -11.8423 -1.45122 0
      vertex -11.6458 -2.14378 0
      vertex -11.8423 -1.45122 140
    endloop
  endfacet
  facet normal -0.962027 -0.272956 0
    outer loop
      vertex -11.8423 -1.45122 140
      vertex -11.6458 -2.14378 0
      vertex -11.6458 -2.14378 140
    endloop
  endfacet
  facet normal -0 -0 1
    outer loop
      vertex -11.8423 -1.45122 140
      vertex -11.6458 -2.14378 140
      vertex -11.3717 -2.81171 140
    endloop
  endfacet
  facet normal 0 0 -1
    outer loop
      vertex -11.8423 1.45122 0
      vertex -11.6458 2.14378 0
      vertex -11.3717 2.81171 0
    endloop
  endfacet
  facet normal -0.962027 0.272956 0
    outer loop
      vertex -11.8423 1.45122 0
      vertex -11.6458 2.14378 140
      vertex -11.6458 2.14378 0
    endloop
  endfacet
  facet normal -0.962027 0.272956 0
    outer loop
      vertex -11.8423 1.45122 0
      vertex -11.8423 1.45122 140
      vertex -11.6458 2.14378 140
    endloop
  endfacet
  facet normal 0 0 1
    outer loop
      vertex -11.8423 1.45122 140
      vertex -11.3717 2.81171 140
      vertex -11.6458 2.14378 140
    endloop
  endfacet
  facet normal 0 0 -1
    outer loop
      vertex -11.9605 -0.736084 0
      vertex -11.0211 -3.45244 0
      vertex -11.3717 -2.81171 0
    endloop
  endfacet
  facet normal 0 0 -1
    outer loop
      vertex -11.9605 -0.736084 0
      vertex -11.3717 -2.81171 0
      vertex -11.8423 -1.45122 0
    endloop
  endfacet
  facet normal -0.986614 -0.163071 0
    outer loop
      vertex -11.9605 -0.736084 0
      vertex -11.8423 -1.45122 0
      vertex -11.9605 -0.736084 140
    endloop
  endfacet
  facet normal -0 -0 1
    outer loop
      vertex -11.9605 -0.736084 140
      vertex -11.3717 -2.81171 140
      vertex -11.0211 -3.45244 140
    endloop
  endfacet
  facet normal -0.986614 -0.163071 0
    outer loop
      vertex -11.9605 -0.736084 140
      vertex -11.8423 -1.45122 0
      vertex -11.8423 -1.45122 140
    endloop
  endfacet
  facet normal 0 0 1
    outer loop
      vertex -11.9605 -0.736084 140
      vertex -11.8423 -1.45122 140
      vertex -11.3717 -2.81171 140
    endloop
  endfacet
  facet normal 0 0 -1
    outer loop
      vertex -11.9605 0.736084 0
      vertex -11.3717 2.81171 0
      vertex -11.0211 3.45244 0
    endloop
  endfacet
  facet normal 0 0 -1
    outer loop
      vertex -11.9605 0.736084 0
      vertex -11.8423 1.45122 0
      vertex -11.3717 2.81171 0
    endloop
  endfacet
  facet normal -0.986614 0.163071 0
    outer loop
      vertex -11.9605 0.736084 0
      vertex -11.8423 1.45122 140
      vertex -11.8423 1.45122 0
    endloop
  endfacet
  facet normal -0.986614 0.163071 0
    outer loop
      vertex -11.9605 0.736084 0
      vertex -11.9605 0.736084 140
      vertex -11.8423 1.45122 140
    endloop
  endfacet
  facet normal 0 0 1
    outer loop
      vertex -11.9605 0.736084 140
      vertex -11.0211 3.45244 140
      vertex -11.3717 2.81171 140
    endloop
  endfacet
  facet normal 0 0 1
    outer loop
      vertex -11.9605 0.736084 140
      vertex -11.3717 2.81171 140
      vertex -11.8423 1.45122 140
    endloop
  endfacet
  facet normal 0 0 -1
    outer loop
      vertex -12 0 0
      vertex -11.0211 -3.45244 0
      vertex -11.9605 -0.736084 0
    endloop
  endfacet
  facet normal 0 0 -1
    outer loop
      vertex -12 0 0
      vertex -11.0211 3.45244 0
      vertex -11.0211 -3.45244 0
    endloop
  endfacet
  facet normal -0.998563 -0.0535853 0
    outer loop
      vertex -12 0 0
      vertex -11.9605 -0.736084 0
      vertex -12 0 140
    endloop
  endfacet
  facet normal 0 0 -1
    outer loop
      vertex -12 0 0
      vertex -11.9605 0.736084 0
      vertex -11.0211 3.45244 0
    endloop
  endfacet
  facet normal -0.998563 0.0535853 0
    outer loop
      vertex -12 0 0
      vertex -11.9605 0.736084 140
      vertex -11.9605 0.736084 0
    endloop
  endfacet
  facet normal -0.998563 0.0535853 0
    outer loop
      vertex -12 0 0
      vertex -12 0 140
      vertex -11.9605 0.736084 140
    endloop
  endfacet
  facet normal 0 0 1
    outer loop
      vertex -12 0 140
      vertex -11.0211 -3.45244 140
      vertex -11.0211 3.45244 140
    endloop
  endfacet
  facet normal 0 0 1
    outer loop
      vertex -12 0 140
      vertex -11.0211 3.45244 140
      vertex -11.9605 0.736084 140
    endloop
  endfacet
  facet normal -0.998563 -0.0535853 0
    outer loop
      vertex -12 0 140
      vertex -11.9605 -0.736084 0
      vertex -11.9605 -0.736084 140
    endloop
  endfacet
  facet normal 0 0 1
    outer loop
      vertex -12 0 140
      vertex -11.9605 -0.736084 140
      vertex -11.0211 -3.45244 140
    endloop
  endfacet
  facet normal -0.0924408 -0.995718 0
    outer loop
      vertex -2.71654 -7.84885 0
      vertex -1.63509 -7.94925 0
      vertex -2.71654 -7.84885 140
    endloop
  endfacet
  facet normal 0 0 -1
    outer loop
      vertex -2.71654 -7.84885 0
      vertex -2.71654 7.84885 0
      vertex -1.63509 -7.94925 0
    endloop
  endfacet
  facet normal -0.0924408 -0.995718 0
    outer loop
      vertex -2.71654 -7.84885 140
      vertex -1.63509 -7.94925 0
      vertex -1.63509 -7.94925 140
    endloop
  endfacet
  facet normal 0 0 1
    outer loop
      vertex -2.71654 -7.84885 140
      vertex -1.63509 -7.94925 140
      vertex -2.71654 7.84885 140
    endloop
  endfacet
  facet normal 0 -0 -1
    outer loop
      vertex -2.71654 7.84885 0
      vertex -1.63509 7.94925 0
      vertex -1.63509 -7.94925 0
    endloop
  endfacet
  facet normal -0.0924408 0.995718 0
    outer loop
      vertex -2.71654 7.84885 0
      vertex -1.63509 7.94925 140
      vertex -1.63509 7.94925 0
    endloop
  endfacet
  facet normal -0.0924408 0.995718 0
    outer loop
      vertex -2.71654 7.84885 0
      vertex -2.71654 7.84885 140
      vertex -1.63509 7.94925 140
    endloop
  endfacet
  facet normal -0 0 1
    outer loop
      vertex -2.71654 7.84885 140
      vertex -1.63509 -7.94925 140
      vertex -1.63509 7.94925 140
    endloop
  endfacet
  facet normal -0.146259 -0.989246 0
    outer loop
      vertex -3.75571 -7.69521 0
      vertex -2.71654 -7.84885 0
      vertex -3.75571 -7.69521 140
    endloop
  endfacet
  facet normal 0 0 -1
    outer loop
      vertex -3.75571 -7.69521 0
      vertex -3.75571 7.69521 0
      vertex -2.71654 -7.84885 0
    endloop
  endfacet
  facet normal -0.146259 -0.989246 0
    outer loop
      vertex -3.75571 -7.69521 140
      vertex -2.71654 -7.84885 0
      vertex -2.71654 -7.84885 140
    endloop
  endfacet
  facet normal 0 0 1
    outer loop
      vertex -3.75571 -7.69521 140
      vertex -2.71654 -7.84885 140
      vertex -3.75571 7.69521 140
    endloop
  endfacet
  facet normal 0 0 -1
    outer loop
      vertex -3.75571 7.69521 0
      vertex -2.71654 7.84885 0
      vertex -2.71654 -7.84885 0
    endloop
  endfacet
  facet normal -0.146259 0.989246 0
    outer loop
      vertex -3.75571 7.69521 0
      vertex -2.71654 7.84885 140
      vertex -2.71654 7.84885 0
    endloop
  endfacet
  facet normal -0.146259 0.989246 0
    outer loop
      vertex -3.75571 7.69521 0
      vertex -3.75571 7.69521 140
      vertex -2.71654 7.84885 140
    endloop
  endfacet
  facet normal 0 0 1
    outer loop
      vertex -3.75571 7.69521 140
      vertex -2.71654 -7.84885 140
      vertex -2.71654 7.84885 140
    endloop
  endfacet
  facet normal -0.204295 -0.978909 0
    outer loop
      vertex -4.74849 -7.48802 0
      vertex -3.75571 -7.69521 0
      vertex -4.74849 -7.48802 140
    endloop
  endfacet
  facet normal 0 0 -1
    outer loop
      vertex -4.74849 -7.48802 0
      vertex -4.74849 7.48802 0
      vertex -3.75571 -7.69521 0
    endloop
  endfacet
  facet normal -0.204295 -0.978909 0
    outer loop
      vertex -4.74849 -7.48802 140
      vertex -3.75571 -7.69521 0
      vertex -3.75571 -7.69521 140
    endloop
  endfacet
  facet normal 0 0 1
    outer loop
      vertex -4.74849 -7.48802 140
      vertex -3.75571 -7.69521 140
      vertex -4.74849 7.48802 140
    endloop
  endfacet
  facet normal 0 0 -1
    outer loop
      vertex -4.74849 7.48802 0
      vertex -3.75571 7.69521 0
      vertex -3.75571 -7.69521 0
    endloop
  endfacet
  facet normal -0.204295 0.978909 0
    outer loop
      vertex -4.74849 7.48802 0
      vertex -3.75571 7.69521 140
      vertex -3.75571 7.69521 0
    endloop
  endfacet
  facet normal -0.204295 0.978909 0
    outer loop
      vertex -4.74849 7.48802 0
      vertex -4.74849 7.48802 140
      vertex -3.75571 7.69521 140
    endloop
  endfacet
  facet normal 0 0 1
    outer loop
      vertex -4.74849 7.48802 140
      vertex -3.75571 -7.69521 140
      vertex -3.75571 7.69521 140
    endloop
  endfacet
  facet normal -0.26631 -0.963887 0
    outer loop
      vertex -5.69095 -7.22763 0
      vertex -4.74849 -7.48802 0
      vertex -5.69095 -7.22763 140
    endloop
  endfacet
  facet normal 0 0 -1
    outer loop
      vertex -5.69095 -7.22763 0
      vertex -5.69095 7.22763 0
      vertex -4.74849 -7.48802 0
    endloop
  endfacet
  facet normal -0.26631 -0.963887 0
    outer loop
      vertex -5.69095 -7.22763 140
      vertex -4.74849 -7.48802 0
      vertex -4.74849 -7.48802 140
    endloop
  endfacet
  facet normal 0 0 1
    outer loop
      vertex -5.69095 -7.22763 140
      vertex -4.74849 -7.48802 140
      vertex -5.69095 7.22763 140
    endloop
  endfacet
  facet normal 0 0 -1
    outer loop
      vertex -5.69095 7.22763 0
      vertex -4.74849 7.48802 0
      vertex -4.74849 -7.48802 0
    endloop
  endfacet
  facet normal -0.26631 0.963887 0
    outer loop
      vertex -5.69095 7.22763 0
      vertex -4.74849 7.48802 140
      vertex -4.74849 7.48802 0
    endloop
  endfacet
  facet normal -0.26631 0.963887 0
    outer loop
      vertex -5.69095 7.22763 0
      vertex -5.69095 7.22763 140
      vertex -4.74849 7.48802 140
    endloop
  endfacet
  facet normal 0 0 1
    outer loop
      vertex -5.69095 7.22763 140
      vertex -4.74849 -7.48802 140
      vertex -4.74849 7.48802 140
    endloop
  endfacet
  facet normal -0.331948 -0.943298 0
    outer loop
      vertex -6.57938 -6.91499 0
      vertex -5.69095 -7.22763 0
      vertex -6.57938 -6.91499 140
    endloop
  endfacet
  facet normal 0 0 -1
    outer loop
      vertex -6.57938 -6.91499 0
      vertex -6.57938 6.91499 0
      vertex -5.69095 -7.22763 0
    endloop
  endfacet
  facet normal -0.331948 -0.943298 0
    outer loop
      vertex -6.57938 -6.91499 140
      vertex -5.69095 -7.22763 0
      vertex -5.69095 -7.22763 140
    endloop
  endfacet
  facet normal 0 0 1
    outer loop
      vertex -6.57938 -6.91499 140
      vertex -5.69095 -7.22763 140
      vertex -6.57938 6.91499 140
    endloop
  endfacet
  facet normal 0 0 -1
    outer loop
      vertex -6.57938 6.91499 0
      vertex -5.69095 7.22763 0
      vertex -5.69095 -7.22763 0
    endloop
  endfacet
  facet normal -0.331948 0.943298 0
    outer loop
      vertex -6.57938 6.91499 0
      vertex -5.69095 7.22763 140
      vertex -5.69095 7.22763 0
    endloop
  endfacet
  facet normal -0.331948 0.943298 0
    outer loop
      vertex -6.57938 6.91499 0
      vertex -6.57938 6.91499 140
      vertex -5.69095 7.22763 140
    endloop
  endfacet
  facet normal 0 -0 1
    outer loop
      vertex -6.57938 6.91499 140
      vertex -5.69095 -7.22763 140
      vertex -5.69095 7.22763 140
    endloop
  endfacet
  facet normal -0.400607 -0.91625 0
    outer loop
      vertex -7.41028 -6.5517 0
      vertex -6.57938 -6.91499 0
      vertex -7.41028 -6.5517 140
    endloop
  endfacet
  facet normal 0 0 -1
    outer loop
      vertex -7.41028 -6.5517 0
      vertex -7.41028 6.5517 0
      vertex -6.57938 -6.91499 0
    endloop
  endfacet
  facet normal -0.400607 -0.91625 0
    outer loop
      vertex -7.41028 -6.5517 140
      vertex -6.57938 -6.91499 0
      vertex -6.57938 -6.91499 140
    endloop
  endfacet
  facet normal -0 0 1
    outer loop
      vertex -7.41028 -6.5517 140
      vertex -6.57938 -6.91499 140
      vertex -7.41028 6.5517 140
    endloop
  endfacet
  facet normal 0 0 -1
    outer loop
      vertex -7.41028 6.5517 0
      vertex -6.57938 6.91499 0
      vertex -6.57938 -6.91499 0
    endloop
  endfacet
  facet normal -0.400607 0.91625 0
    outer loop
      vertex -7.41028 6.5517 0
      vertex -6.57938 6.91499 140
      vertex -6.57938 6.91499 0
    endloop
  endfacet
  facet normal -0.400607 0.91625 0
    outer loop
      vertex -7.41028 6.5517 0
      vertex -7.41028 6.5517 140
      vertex -6.57938 6.91499 140
    endloop
  endfacet
  facet normal 0 -0 1
    outer loop
      vertex -7.41028 6.5517 140
      vertex -6.57938 -6.91499 140
      vertex -6.57938 6.91499 140
    endloop
  endfacet
  facet normal -0.471614 -0.881805 0
    outer loop
      vertex -8.18034 -6.13985 0
      vertex -7.41028 -6.5517 0
      vertex -8.18034 -6.13985 140
    endloop
  endfacet
  facet normal 0 0 -1
    outer loop
      vertex -8.18034 -6.13985 0
      vertex -8.18034 6.13985 0
      vertex -7.41028 -6.5517 0
    endloop
  endfacet
  facet normal -0.471614 -0.881805 0
    outer loop
      vertex -8.18034 -6.13985 140
      vertex -7.41028 -6.5517 0
      vertex -7.41028 -6.5517 140
    endloop
  endfacet
  facet normal -0 0 1
    outer loop
      vertex -8.18034 -6.13985 140
      vertex -7.41028 -6.5517 140
      vertex -8.18034 6.13985 140
    endloop
  endfacet
  facet normal 0 -0 -1
    outer loop
      vertex -8.18034 6.13985 0
      vertex -7.41028 6.5517 0
      vertex -7.41028 -6.5517 0
    endloop
  endfacet
  facet normal -0.471614 0.881805 0
    outer loop
      vertex -8.18034 6.13985 0
      vertex -7.41028 6.5517 140
      vertex -7.41028 6.5517 0
    endloop
  endfacet
  facet normal -0.471614 0.881805 0
    outer loop
      vertex -8.18034 6.13985 0
      vertex -8.18034 6.13985 140
      vertex -7.41028 6.5517 140
    endloop
  endfacet
  facet normal -0 0 1
    outer loop
      vertex -8.18034 6.13985 140
      vertex -7.41028 -6.5517 140
      vertex -7.41028 6.5517 140
    endloop
  endfacet
  facet normal -0.543969 -0.839105 0
    outer loop
      vertex -8.88657 -5.68202 0
      vertex -8.18034 -6.13985 0
      vertex -8.88657 -5.68202 140
    endloop
  endfacet
  facet normal 0 0 -1
    outer loop
      vertex -8.88657 -5.68202 0
      vertex -8.88657 5.68202 0
      vertex -8.18034 -6.13985 0
    endloop
  endfacet
  facet normal -0.543969 -0.839105 0
    outer loop
      vertex -8.88657 -5.68202 140
      vertex -8.18034 -6.13985 0
      vertex -8.18034 -6.13985 140
    endloop
  endfacet
  facet normal 0 0 1
    outer loop
      vertex -8.88657 -5.68202 140
      vertex -8.18034 -6.13985 140
      vertex -8.88657 5.68202 140
    endloop
  endfacet
  facet normal 0 -0 -1
    outer loop
      vertex -8.88657 5.68202 0
      vertex -8.18034 6.13985 0
      vertex -8.18034 -6.13985 0
    endloop
  endfacet
  facet normal -0.543969 0.839105 0
    outer loop
      vertex -8.88657 5.68202 0
      vertex -8.18034 6.13985 140
      vertex -8.18034 6.13985 0
    endloop
  endfacet
  facet normal -0.543969 0.839105 0
    outer loop
      vertex -8.88657 5.68202 0
      vertex -8.88657 5.68202 140
      vertex -8.18034 6.13985 140
    endloop
  endfacet
  facet normal -0 0 1
    outer loop
      vertex -8.88657 5.68202 140
      vertex -8.18034 -6.13985 140
      vertex -8.18034 6.13985 140
    endloop
  endfacet
  facet normal -0.616573 -0.787298 0
    outer loop
      vertex -9.52614 -5.18114 0
      vertex -8.88657 -5.68202 0
      vertex -9.52614 -5.18114 140
    endloop
  endfacet
  facet normal 0 0 -1
    outer loop
      vertex -9.52614 -5.18114 0
      vertex -9.52614 5.18114 0
      vertex -8.88657 -5.68202 0
    endloop
  endfacet
  facet normal -0.616573 -0.787298 0
    outer loop
      vertex -9.52614 -5.18114 140
      vertex -8.88657 -5.68202 0
      vertex -8.88657 -5.68202 140
    endloop
  endfacet
  facet normal 0 0 1
    outer loop
      vertex -9.52614 -5.18114 140
      vertex -8.88657 -5.68202 140
      vertex -9.52614 5.18114 140
    endloop
  endfacet
  facet normal 0 -0 -1
    outer loop
      vertex -9.52614 5.18114 0
      vertex -8.88657 5.68202 0
      vertex -8.88657 -5.68202 0
    endloop
  endfacet
  facet normal -0.616573 0.787298 0
    outer loop
      vertex -9.52614 5.18114 0
      vertex -8.88657 5.68202 140
      vertex -8.88657 5.68202 0
    endloop
  endfacet
  facet normal -0.616573 0.787298 0
    outer loop
      vertex -9.52614 5.18114 0
      vertex -9.52614 5.18114 140
      vertex -8.88657 5.68202 140
    endloop
  endfacet
  facet normal -0 0 1
    outer loop
      vertex -9.52614 5.18114 140
      vertex -8.88657 -5.68202 140
      vertex -8.88657 5.68202 140
    endloop
  endfacet
  facet normal 0 0 -1
    outer loop
      vertex 0.637497 -7.99464 0
      vertex 0.637497 7.99464 0
      vertex 1.81966 -7.94328 0
    endloop
  endfacet
  facet normal 0.0434048 -0.999058 0
    outer loop
      vertex 0.637497 -7.99464 0
      vertex 1.81966 -7.94328 0
      vertex 0.637497 -7.99464 140
    endloop
  endfacet
  facet normal 0.0434048 -0.999058 0
    outer loop
      vertex 0.637497 -7.99464 140
      vertex 1.81966 -7.94328 0
      vertex 1.81966 -7.94328 140
    endloop
  endfacet
  facet normal 0 0 1
    outer loop
      vertex 0.637497 -7.99464 140
      vertex 1.81966 -7.94328 140
      vertex 0.637497 7.99464 140
    endloop
  endfacet
  facet normal 0.0434048 0.999058 -0
    outer loop
      vertex 0.637497 7.99464 0
      vertex 0.637497 7.99464 140
      vertex 1.81966 7.94328 140
    endloop
  endfacet
  facet normal 0 0 -1
    outer loop
      vertex 0.637497 7.99464 0
      vertex 1.81966 7.94328 0
      vertex 1.81966 -7.94328 0
    endloop
  endfacet
  facet normal 0.0434048 0.999058 0
    outer loop
      vertex 0.637497 7.99464 0
      vertex 1.81966 7.94328 140
      vertex 1.81966 7.94328 0
    endloop
  endfacet
  facet normal 0 -0 1
    outer loop
      vertex 0.637497 7.99464 140
      vertex 1.81966 -7.94328 140
      vertex 1.81966 7.94328 140
    endloop
  endfacet
  facet normal 0 0 -1
    outer loop
      vertex 1.81966 -7.94328 0
      vertex 1.81966 7.94328 0
      vertex 3.0262 -7.84581 0
    endloop
  endfacet
  facet normal 0.0805224 -0.996753 0
    outer loop
      vertex 1.81966 -7.94328 0
      vertex 3.0262 -7.84581 0
      vertex 1.81966 -7.94328 140
    endloop
  endfacet
  facet normal 0.0805224 -0.996753 0
    outer loop
      vertex 1.81966 -7.94328 140
      vertex 3.0262 -7.84581 0
      vertex 3.0262 -7.84581 140
    endloop
  endfacet
  facet normal 0 0 1
    outer loop
      vertex 1.81966 -7.94328 140
      vertex 3.0262 -7.84581 140
      vertex 1.81966 7.94328 140
    endloop
  endfacet
  facet normal 0.0805224 0.996753 -0
    outer loop
      vertex 1.81966 7.94328 0
      vertex 1.81966 7.94328 140
      vertex 3.0262 7.84581 140
    endloop
  endfacet
  facet normal -0 -0 -1
    outer loop
      vertex 1.81966 7.94328 0
      vertex 3.0262 7.84581 0
      vertex 3.0262 -7.84581 0
    endloop
  endfacet
  facet normal 0.0805224 0.996753 0
    outer loop
      vertex 1.81966 7.94328 0
      vertex 3.0262 7.84581 140
      vertex 3.0262 7.84581 0
    endloop
  endfacet
  facet normal 0 0 1
    outer loop
      vertex 1.81966 7.94328 140
      vertex 3.0262 -7.84581 140
      vertex 3.0262 7.84581 140
    endloop
  endfacet
  facet normal -0 0 -1
    outer loop
      vertex 10.5067 -6.47746 0
      vertex 10.5067 6.47746 0
      vertex 11.7476 -6.15315 0
    endloop
  endfacet
  facet normal 0.252858 -0.967503 0
    outer loop
      vertex 10.5067 -6.47746 0
      vertex 11.7476 -6.15315 0
      vertex 10.5067 -6.47746 140
    endloop
  endfacet
  facet normal 0.252858 -0.967503 0
    outer loop
      vertex 10.5067 -6.47746 140
      vertex 11.7476 -6.15315 0
      vertex 11.7476 -6.15315 140
    endloop
  endfacet
  facet normal 0 0 1
    outer loop
      vertex 10.5067 -6.47746 140
      vertex 11.7476 -6.15315 140
      vertex 10.5067 6.47746 140
    endloop
  endfacet
  facet normal 0.252858 0.967503 -0
    outer loop
      vertex 10.5067 6.47746 0
      vertex 10.5067 6.47746 140
      vertex 11.7476 6.15315 140
    endloop
  endfacet
  facet normal 0 0 -1
    outer loop
      vertex 10.5067 6.47746 0
      vertex 11.7476 6.15315 0
      vertex 11.7476 -6.15315 0
    endloop
  endfacet
  facet normal 0.252858 0.967503 0
    outer loop
      vertex 10.5067 6.47746 0
      vertex 11.7476 6.15315 140
      vertex 11.7476 6.15315 0
    endloop
  endfacet
  facet normal 0 0 1
    outer loop
      vertex 10.5067 6.47746 140
      vertex 11.7476 -6.15315 140
      vertex 11.7476 6.15315 140
    endloop
  endfacet
  facet normal -0 0 -1
    outer loop
      vertex 11.7476 -6.15315 0
      vertex 11.7476 6.15315 0
      vertex 12.9738 -5.81134 0
    endloop
  endfacet
  facet normal 0.268518 -0.963275 0
    outer loop
      vertex 11.7476 -6.15315 0
      vertex 12.9738 -5.81134 0
      vertex 11.7476 -6.15315 140
    endloop
  endfacet
  facet normal 0.268518 -0.963275 0
    outer loop
      vertex 11.7476 -6.15315 140
      vertex 12.9738 -5.81134 0
      vertex 12.9738 -5.81134 140
    endloop
  endfacet
  facet normal 0 0 1
    outer loop
      vertex 11.7476 -6.15315 140
      vertex 12.9738 -5.81134 140
      vertex 11.7476 6.15315 140
    endloop
  endfacet
  facet normal 0.268518 0.963275 -0
    outer loop
      vertex 11.7476 6.15315 0
      vertex 11.7476 6.15315 140
      vertex 12.9738 5.81134 140
    endloop
  endfacet
  facet normal 0 0 -1
    outer loop
      vertex 11.7476 6.15315 0
      vertex 12.9738 5.81134 0
      vertex 12.9738 -5.81134 0
    endloop
  endfacet
  facet normal 0.268518 0.963275 0
    outer loop
      vertex 11.7476 6.15315 0
      vertex 12.9738 5.81134 140
      vertex 12.9738 5.81134 0
    endloop
  endfacet
  facet normal 0 0 1
    outer loop
      vertex 11.7476 6.15315 140
      vertex 12.9738 -5.81134 140
      vertex 12.9738 5.81134 140
    endloop
  endfacet
  facet normal 0 0 -1
    outer loop
      vertex 12.9738 -5.81134 0
      vertex 12.9738 5.81134 0
      vertex 14.1803 -5.45564 0
    endloop
  endfacet
  facet normal 0.282786 -0.959183 0
    outer loop
      vertex 12.9738 -5.81134 0
      vertex 14.1803 -5.45564 0
      vertex 12.9738 -5.81134 140
    endloop
  endfacet
  facet normal 0.282786 -0.959183 0
    outer loop
      vertex 12.9738 -5.81134 140
      vertex 14.1803 -5.45564 0
      vertex 14.1803 -5.45564 140
    endloop
  endfacet
  facet normal 0 0 1
    outer loop
      vertex 12.9738 -5.81134 140
      vertex 14.1803 -5.45564 140
      vertex 12.9738 5.81134 140
    endloop
  endfacet
  facet normal 0.282786 0.959183 -0
    outer loop
      vertex 12.9738 5.81134 0
      vertex 12.9738 5.81134 140
      vertex 14.1803 5.45564 140
    endloop
  endfacet
  facet normal 0 0 -1
    outer loop
      vertex 12.9738 5.81134 0
      vertex 14.1803 5.45564 0
      vertex 14.1803 -5.45564 0
    endloop
  endfacet
  facet normal 0.282786 0.959183 0
    outer loop
      vertex 12.9738 5.81134 0
      vertex 14.1803 5.45564 140
      vertex 14.1803 5.45564 0
    endloop
  endfacet
  facet normal 0 0 1
    outer loop
      vertex 12.9738 5.81134 140
      vertex 14.1803 -5.45564 140
      vertex 14.1803 5.45564 140
    endloop
  endfacet
  facet normal 0 0 -1
    outer loop
      vertex 14.1803 -5.45564 0
      vertex 14.1803 5.45564 0
      vertex 15.3625 -5.08955 0
    endloop
  endfacet
  facet normal 0.29581 -0.955247 0
    outer loop
      vertex 14.1803 -5.45564 0
      vertex 15.3625 -5.08955 0
      vertex 14.1803 -5.45564 140
    endloop
  endfacet
  facet normal 0.29581 -0.955247 0
    outer loop
      vertex 14.1803 -5.45564 140
      vertex 15.3625 -5.08955 0
      vertex 15.3625 -5.08955 140
    endloop
  endfacet
  facet normal 0 0 1
    outer loop
      vertex 14.1803 -5.45564 140
      vertex 15.3625 -5.08955 140
      vertex 14.1803 5.45564 140
    endloop
  endfacet
  facet normal 0.29581 0.955247 -0
    outer loop
      vertex 14.1803 5.45564 0
      vertex 14.1803 5.45564 140
      vertex 15.3625 5.08955 140
    endloop
  endfacet
  facet normal 0 0 -1
    outer loop
      vertex 14.1803 5.45564 0
      vertex 15.3625 5.08955 0
      vertex 15.3625 -5.08955 0
    endloop
  endfacet
  facet normal 0.29581 0.955247 0
    outer loop
      vertex 14.1803 5.45564 0
      vertex 15.3625 5.08955 140
      vertex 15.3625 5.08955 0
    endloop
  endfacet
  facet normal 0 0 1
    outer loop
      vertex 14.1803 5.45564 140
      vertex 15.3625 -5.08955 140
      vertex 15.3625 5.08955 140
    endloop
  endfacet
  facet normal 0 0 -1
    outer loop
      vertex 15.3625 -5.08955 0
      vertex 15.3625 5.08955 0
      vertex 16.5156 -4.71646 0
    endloop
  endfacet
  facet normal 0.307841 -0.951438 0
    outer loop
      vertex 15.3625 -5.08955 0
      vertex 16.5156 -4.71646 0
      vertex 15.3625 -5.08955 140
    endloop
  endfacet
  facet normal 0.307841 -0.951438 0
    outer loop
      vertex 15.3625 -5.08955 140
      vertex 16.5156 -4.71646 0
      vertex 16.5156 -4.71646 140
    endloop
  endfacet
  facet normal 0 0 1
    outer loop
      vertex 15.3625 -5.08955 140
      vertex 16.5156 -4.71646 140
      vertex 15.3625 5.08955 140
    endloop
  endfacet
  facet normal 0.307841 0.951438 -0
    outer loop
      vertex 15.3625 5.08955 0
      vertex 15.3625 5.08955 140
      vertex 16.5156 4.71646 140
    endloop
  endfacet
  facet normal 0 0 -1
    outer loop
      vertex 15.3625 5.08955 0
      vertex 16.5156 4.71646 0
      vertex 16.5156 -4.71646 0
    endloop
  endfacet
  facet normal 0.307841 0.951438 0
    outer loop
      vertex 15.3625 5.08955 0
      vertex 16.5156 4.71646 140
      vertex 16.5156 4.71646 0
    endloop
  endfacet
  facet normal 0 0 1
    outer loop
      vertex 15.3625 5.08955 140
      vertex 16.5156 -4.71646 140
      vertex 16.5156 4.71646 140
    endloop
  endfacet
  facet normal 0 0 -1
    outer loop
      vertex 16.5156 -4.71646 0
      vertex 16.5156 4.71646 0
      vertex 17.6351 -4.33963 0
    endloop
  endfacet
  facet normal 0.319018 -0.947749 0
    outer loop
      vertex 16.5156 -4.71646 0
      vertex 17.6351 -4.33963 0
      vertex 16.5156 -4.71646 140
    endloop
  endfacet
  facet normal 0.319018 -0.947749 0
    outer loop
      vertex 16.5156 -4.71646 140
      vertex 17.6351 -4.33963 0
      vertex 17.6351 -4.33963 140
    endloop
  endfacet
  facet normal 0 0 1
    outer loop
      vertex 16.5156 -4.71646 140
      vertex 17.6351 -4.33963 140
      vertex 16.5156 4.71646 140
    endloop
  endfacet
  facet normal 0.319018 0.947749 -0
    outer loop
      vertex 16.5156 4.71646 0
      vertex 16.5156 4.71646 140
      vertex 17.6351 4.33963 140
    endloop
  endfacet
  facet normal 0 0 -1
    outer loop
      vertex 16.5156 4.71646 0
      vertex 17.6351 4.33963 0
      vertex 17.6351 -4.33963 0
    endloop
  endfacet
  facet normal 0.319018 0.947749 0
    outer loop
      vertex 16.5156 4.71646 0
      vertex 17.6351 4.33963 140
      vertex 17.6351 4.33963 0
    endloop
  endfacet
  facet normal 0 0 1
    outer loop
      vertex 16.5156 4.71646 140
      vertex 17.6351 -4.33963 140
      vertex 17.6351 4.33963 140
    endloop
  endfacet
  facet normal 0 0 -1
    outer loop
      vertex 17.6351 -4.33963 0
      vertex 17.6351 4.33963 0
      vertex 18.7165 -3.96222 0
    endloop
  endfacet
  facet normal 0.32951 -0.944152 0
    outer loop
      vertex 17.6351 -4.33963 0
      vertex 18.7165 -3.96222 0
      vertex 17.6351 -4.33963 140
    endloop
  endfacet
  facet normal 0.32951 -0.944152 0
    outer loop
      vertex 17.6351 -4.33963 140
      vertex 18.7165 -3.96222 0
      vertex 18.7165 -3.96222 140
    endloop
  endfacet
  facet normal 0 0 1
    outer loop
      vertex 17.6351 -4.33963 140
      vertex 18.7165 -3.96222 140
      vertex 17.6351 4.33963 140
    endloop
  endfacet
  facet normal 0.32951 0.944152 -0
    outer loop
      vertex 17.6351 4.33963 0
      vertex 17.6351 4.33963 140
      vertex 18.7165 3.96222 140
    endloop
  endfacet
  facet normal 0 0 -1
    outer loop
      vertex 17.6351 4.33963 0
      vertex 18.7165 3.96222 0
      vertex 18.7165 -3.96222 0
    endloop
  endfacet
  facet normal 0.32951 0.944152 0
    outer loop
      vertex 17.6351 4.33963 0
      vertex 18.7165 3.96222 140
      vertex 18.7165 3.96222 0
    endloop
  endfacet
  facet normal 0 0 1
    outer loop
      vertex 17.6351 4.33963 140
      vertex 18.7165 -3.96222 140
      vertex 18.7165 3.96222 140
    endloop
  endfacet
  facet normal -0 0 -1
    outer loop
      vertex 18.7165 -3.96222 0
      vertex 18.7165 3.96222 0
      vertex 19.7557 -3.58734 0
    endloop
  endfacet
  facet normal 0.339335 -0.940666 0
    outer loop
      vertex 18.7165 -3.96222 0
      vertex 19.7557 -3.58734 0
      vertex 18.7165 -3.96222 140
    endloop
  endfacet
  facet normal 0.339335 -0.940666 0
    outer loop
      vertex 18.7165 -3.96222 140
      vertex 19.7557 -3.58734 0
      vertex 19.7557 -3.58734 140
    endloop
  endfacet
  facet normal 0 0 1
    outer loop
      vertex 18.7165 -3.96222 140
      vertex 19.7557 -3.58734 140
      vertex 18.7165 3.96222 140
    endloop
  endfacet
  facet normal 0.339335 0.940666 -0
    outer loop
      vertex 18.7165 3.96222 0
      vertex 18.7165 3.96222 140
      vertex 19.7557 3.58734 140
    endloop
  endfacet
  facet normal 0 0 -1
    outer loop
      vertex 18.7165 3.96222 0
      vertex 19.7557 3.58734 0
      vertex 19.7557 -3.58734 0
    endloop
  endfacet
  facet normal 0.339335 0.940666 0
    outer loop
      vertex 18.7165 3.96222 0
      vertex 19.7557 3.58734 140
      vertex 19.7557 3.58734 0
    endloop
  endfacet
  facet normal 0 0 1
    outer loop
      vertex 18.7165 3.96222 140
      vertex 19.7557 -3.58734 140
      vertex 19.7557 3.58734 140
    endloop
  endfacet
  facet normal -0 0 -1
    outer loop
      vertex 19.7557 -3.58734 0
      vertex 19.7557 3.58734 0
      vertex 20.7485 -3.21803 0
    endloop
  endfacet
  facet normal 0.348648 -0.937254 0
    outer loop
      vertex 19.7557 -3.58734 0
      vertex 20.7485 -3.21803 0
      vertex 19.7557 -3.58734 140
    endloop
  endfacet
  facet normal 0.348648 -0.937254 0
    outer loop
      vertex 19.7557 -3.58734 140
      vertex 20.7485 -3.21803 0
      vertex 20.7485 -3.21803 140
    endloop
  endfacet
  facet normal 0 0 1
    outer loop
      vertex 19.7557 -3.58734 140
      vertex 20.7485 -3.21803 140
      vertex 19.7557 3.58734 140
    endloop
  endfacet
  facet normal 0.348648 0.937254 -0
    outer loop
      vertex 19.7557 3.58734 0
      vertex 19.7557 3.58734 140
      vertex 20.7485 3.21803 140
    endloop
  endfacet
  facet normal 0 0 -1
    outer loop
      vertex 19.7557 3.58734 0
      vertex 20.7485 3.21803 0
      vertex 20.7485 -3.21803 0
    endloop
  endfacet
  facet normal 0.348648 0.937254 0
    outer loop
      vertex 19.7557 3.58734 0
      vertex 20.7485 3.21803 140
      vertex 20.7485 3.21803 0
    endloop
  endfacet
  facet normal 0 0 1
    outer loop
      vertex 19.7557 3.58734 140
      vertex 20.7485 -3.21803 140
      vertex 20.7485 3.21803 140
    endloop
  endfacet
  facet normal -0 0 -1
    outer loop
      vertex 20.7485 -3.21803 0
      vertex 20.7485 3.21803 0
      vertex 21.6909 -2.85724 0
    endloop
  endfacet
  facet normal 0.357536 -0.933899 0
    outer loop
      vertex 20.7485 -3.21803 0
      vertex 21.6909 -2.85724 0
      vertex 20.7485 -3.21803 140
    endloop
  endfacet
  facet normal 0.357536 -0.933899 0
    outer loop
      vertex 20.7485 -3.21803 140
      vertex 21.6909 -2.85724 0
      vertex 21.6909 -2.85724 140
    endloop
  endfacet
  facet normal 0 0 1
    outer loop
      vertex 20.7485 -3.21803 140
      vertex 21.6909 -2.85724 140
      vertex 20.7485 3.21803 140
    endloop
  endfacet
  facet normal 0.357536 0.933899 -0
    outer loop
      vertex 20.7485 3.21803 0
      vertex 20.7485 3.21803 140
      vertex 21.6909 2.85724 140
    endloop
  endfacet
  facet normal 0 0 -1
    outer loop
      vertex 20.7485 3.21803 0
      vertex 21.6909 2.85724 0
      vertex 21.6909 -2.85724 0
    endloop
  endfacet
  facet normal 0.357536 0.933899 0
    outer loop
      vertex 20.7485 3.21803 0
      vertex 21.6909 2.85724 140
      vertex 21.6909 2.85724 0
    endloop
  endfacet
  facet normal 0 0 1
    outer loop
      vertex 20.7485 3.21803 140
      vertex 21.6909 -2.85724 140
      vertex 21.6909 2.85724 140
    endloop
  endfacet
  facet normal -0 0 -1
    outer loop
      vertex 21.6909 -2.85724 0
      vertex 21.6909 2.85724 0
      vertex 22.5794 -2.50792 0
    endloop
  endfacet
  facet normal 0.365894 -0.930656 0
    outer loop
      vertex 21.6909 -2.85724 0
      vertex 22.5794 -2.50792 0
      vertex 21.6909 -2.85724 140
    endloop
  endfacet
  facet normal 0.365894 -0.930656 0
    outer loop
      vertex 21.6909 -2.85724 140
      vertex 22.5794 -2.50792 0
      vertex 22.5794 -2.50792 140
    endloop
  endfacet
  facet normal 0 0 1
    outer loop
      vertex 21.6909 -2.85724 140
      vertex 22.5794 -2.50792 140
      vertex 21.6909 2.85724 140
    endloop
  endfacet
  facet normal 0.365894 0.930656 -0
    outer loop
      vertex 21.6909 2.85724 0
      vertex 21.6909 2.85724 140
      vertex 22.5794 2.50792 140
    endloop
  endfacet
  facet normal 0 0 -1
    outer loop
      vertex 21.6909 2.85724 0
      vertex 22.5794 2.50792 0
      vertex 22.5794 -2.50792 0
    endloop
  endfacet
  facet normal 0.365894 0.930656 0
    outer loop
      vertex 21.6909 2.85724 0
      vertex 22.5794 2.50792 140
      vertex 22.5794 2.50792 0
    endloop
  endfacet
  facet normal 0 0 1
    outer loop
      vertex 21.6909 2.85724 140
      vertex 22.5794 -2.50792 140
      vertex 22.5794 2.50792 140
    endloop
  endfacet
  facet normal -0 0 -1
    outer loop
      vertex 22.5794 -2.50792 0
      vertex 22.5794 2.50792 0
      vertex 23.4103 -2.17297 0
    endloop
  endfacet
  facet normal 0.373882 -0.927476 0
    outer loop
      vertex 22.5794 -2.50792 0
      vertex 23.4103 -2.17297 0
      vertex 22.5794 -2.50792 140
    endloop
  endfacet
  facet normal 0.373882 -0.927476 0
    outer loop
      vertex 22.5794 -2.50792 140
      vertex 23.4103 -2.17297 0
      vertex 23.4103 -2.17297 140
    endloop
  endfacet
  facet normal 0 0 1
    outer loop
      vertex 22.5794 -2.50792 140
      vertex 23.4103 -2.17297 140
      vertex 22.5794 2.50792 140
    endloop
  endfacet
  facet normal 0.373882 0.927476 -0
    outer loop
      vertex 22.5794 2.50792 0
      vertex 22.5794 2.50792 140
      vertex 23.4103 2.17297 140
    endloop
  endfacet
  facet normal -0 -0 -1
    outer loop
      vertex 22.5794 2.50792 0
      vertex 23.4103 2.17297 0
      vertex 23.4103 -2.17297 0
    endloop
  endfacet
  facet normal 0.373882 0.927476 0
    outer loop
      vertex 22.5794 2.50792 0
      vertex 23.4103 2.17297 140
      vertex 23.4103 2.17297 0
    endloop
  endfacet
  facet normal 0 0 1
    outer loop
      vertex 22.5794 2.50792 140
      vertex 23.4103 -2.17297 140
      vertex 23.4103 2.17297 140
    endloop
  endfacet
  facet normal -0 0 -1
    outer loop
      vertex 23.4103 -2.17297 0
      vertex 23.4103 2.17297 0
      vertex 24.1803 -1.85524 0
    endloop
  endfacet
  facet normal 0.381439 -0.924394 0
    outer loop
      vertex 23.4103 -2.17297 0
      vertex 24.1803 -1.85524 0
      vertex 23.4103 -2.17297 140
    endloop
  endfacet
  facet normal 0.381439 -0.924394 0
    outer loop
      vertex 23.4103 -2.17297 140
      vertex 24.1803 -1.85524 0
      vertex 24.1803 -1.85524 140
    endloop
  endfacet
  facet normal 0 0 1
    outer loop
      vertex 23.4103 -2.17297 140
      vertex 24.1803 -1.85524 140
      vertex 23.4103 2.17297 140
    endloop
  endfacet
  facet normal 0.381439 0.924394 -0
    outer loop
      vertex 23.4103 2.17297 0
      vertex 23.4103 2.17297 140
      vertex 24.1803 1.85524 140
    endloop
  endfacet
  facet normal -0 -0 -1
    outer loop
      vertex 23.4103 2.17297 0
      vertex 24.1803 1.85524 0
      vertex 24.1803 -1.85524 0
    endloop
  endfacet
  facet normal 0.381439 0.924394 0
    outer loop
      vertex 23.4103 2.17297 0
      vertex 24.1803 1.85524 140
      vertex 24.1803 1.85524 0
    endloop
  endfacet
  facet normal 0 0 1
    outer loop
      vertex 23.4103 2.17297 140
      vertex 24.1803 -1.85524 140
      vertex 24.1803 1.85524 140
    endloop
  endfacet
  facet normal -0 0 -1
    outer loop
      vertex 24.1803 -1.85524 0
      vertex 24.1803 1.85524 0
      vertex 24.8866 -1.55753 0
    endloop
  endfacet
  facet normal 0.388412 -0.921486 0
    outer loop
      vertex 24.1803 -1.85524 0
      vertex 24.8866 -1.55753 0
      vertex 24.1803 -1.85524 140
    endloop
  endfacet
  facet normal 0.388412 -0.921486 0
    outer loop
      vertex 24.1803 -1.85524 140
      vertex 24.8866 -1.55753 0
      vertex 24.8866 -1.55753 140
    endloop
  endfacet
  facet normal 0 0 1
    outer loop
      vertex 24.1803 -1.85524 140
      vertex 24.8866 -1.55753 140
      vertex 24.1803 1.85524 140
    endloop
  endfacet
  facet normal 0.388412 0.921486 -0
    outer loop
      vertex 24.1803 1.85524 0
      vertex 24.1803 1.85524 140
      vertex 24.8866 1.55753 140
    endloop
  endfacet
  facet normal -0 -0 -1
    outer loop
      vertex 24.1803 1.85524 0
      vertex 24.8866 1.55753 0
      vertex 24.8866 -1.55753 0
    endloop
  endfacet
  facet normal 0.388412 0.921486 0
    outer loop
      vertex 24.1803 1.85524 0
      vertex 24.8866 1.55753 140
      vertex 24.8866 1.55753 0
    endloop
  endfacet
  facet normal 0 0 1
    outer loop
      vertex 24.1803 1.85524 140
      vertex 24.8866 -1.55753 140
      vertex 24.8866 1.55753 140
    endloop
  endfacet
  facet normal -0 0 -1
    outer loop
      vertex 24.8866 -1.55753 0
      vertex 24.8866 1.55753 0
      vertex 25.5261 -1.28253 0
    endloop
  endfacet
  facet normal 0.395046 -0.918661 0
    outer loop
      vertex 24.8866 -1.55753 0
      vertex 25.5261 -1.28253 0
      vertex 24.8866 -1.55753 140
    endloop
  endfacet
  facet normal 0.395046 -0.918661 0
    outer loop
      vertex 24.8866 -1.55753 140
      vertex 25.5261 -1.28253 0
      vertex 25.5261 -1.28253 140
    endloop
  endfacet
  facet normal 0 0 1
    outer loop
      vertex 24.8866 -1.55753 140
      vertex 25.5261 -1.28253 140
      vertex 24.8866 1.55753 140
    endloop
  endfacet
  facet normal 0.395046 0.918661 -0
    outer loop
      vertex 24.8866 1.55753 0
      vertex 24.8866 1.55753 140
      vertex 25.5261 1.28253 140
    endloop
  endfacet
  facet normal -0 -0 -1
    outer loop
      vertex 24.8866 1.55753 0
      vertex 25.5261 1.28253 0
      vertex 25.5261 -1.28253 0
    endloop
  endfacet
  facet normal 0.395046 0.918661 0
    outer loop
      vertex 24.8866 1.55753 0
      vertex 25.5261 1.28253 140
      vertex 25.5261 1.28253 0
    endloop
  endfacet
  facet normal 0 0 1
    outer loop
      vertex 24.8866 1.55753 140
      vertex 25.5261 -1.28253 140
      vertex 25.5261 1.28253 140
    endloop
  endfacet
  facet normal 0 0 -1
    outer loop
      vertex 25.5261 -1.28253 0
      vertex 25.5261 1.28253 0
      vertex 26.0965 -1.03285 0
    endloop
  endfacet
  facet normal 0.400994 -0.916081 0
    outer loop
      vertex 25.5261 -1.28253 0
      vertex 26.0965 -1.03285 0
      vertex 25.5261 -1.28253 140
    endloop
  endfacet
  facet normal 0.400994 -0.916081 0
    outer loop
      vertex 25.5261 -1.28253 140
      vertex 26.0965 -1.03285 0
      vertex 26.0965 -1.03285 140
    endloop
  endfacet
  facet normal 0 0 1
    outer loop
      vertex 25.5261 -1.28253 140
      vertex 26.0965 -1.03285 140
      vertex 25.5261 1.28253 140
    endloop
  endfacet
  facet normal 0.400994 0.916081 -0
    outer loop
      vertex 25.5261 1.28253 0
      vertex 25.5261 1.28253 140
      vertex 26.0965 1.03285 140
    endloop
  endfacet
  facet normal 0 0 -1
    outer loop
      vertex 25.5261 1.28253 0
      vertex 26.0965 1.03285 0
      vertex 26.0965 -1.03285 0
    endloop
  endfacet
  facet normal 0.400994 0.916081 0
    outer loop
      vertex 25.5261 1.28253 0
      vertex 26.0965 1.03285 140
      vertex 26.0965 1.03285 0
    endloop
  endfacet
  facet normal 0 -0 1
    outer loop
      vertex 25.5261 1.28253 140
      vertex 26.0965 -1.03285 140
      vertex 26.0965 1.03285 140
    endloop
  endfacet
  facet normal 0 0 -1
    outer loop
      vertex 26.0965 -1.03285 0
      vertex 26.0965 1.03285 0
      vertex 26.5955 -0.810928 0
    endloop
  endfacet
  facet normal 0.406359 -0.913714 0
    outer loop
      vertex 26.0965 -1.03285 0
      vertex 26.5955 -0.810928 0
      vertex 26.0965 -1.03285 140
    endloop
  endfacet
  facet normal 0.406359 -0.913714 0
    outer loop
      vertex 26.0965 -1.03285 140
      vertex 26.5955 -0.810928 0
      vertex 26.5955 -0.810928 140
    endloop
  endfacet
  facet normal 0 0 1
    outer loop
      vertex 26.0965 -1.03285 140
      vertex 26.5955 -0.810928 140
      vertex 26.0965 1.03285 140
    endloop
  endfacet
  facet normal 0.406359 0.913714 -0
    outer loop
      vertex 26.0965 1.03285 0
      vertex 26.0965 1.03285 140
      vertex 26.5955 0.810928 140
    endloop
  endfacet
  facet normal 0 0 -1
    outer loop
      vertex 26.0965 1.03285 0
      vertex 26.5955 0.810928 0
      vertex 26.5955 -0.810928 0
    endloop
  endfacet
  facet normal 0.406359 0.913714 0
    outer loop
      vertex 26.0965 1.03285 0
      vertex 26.5955 0.810928 140
      vertex 26.5955 0.810928 0
    endloop
  endfacet
  facet normal 0 0 1
    outer loop
      vertex 26.0965 1.03285 140
      vertex 26.5955 -0.810928 140
      vertex 26.5955 0.810928 140
    endloop
  endfacet
  facet normal -0 0 -1
    outer loop
      vertex 26.5955 -0.810928 0
      vertex 26.5955 0.810928 0
      vertex 27.0211 -0.618988 0
    endloop
  endfacet
  facet normal 0.411113 -0.911585 0
    outer loop
      vertex 26.5955 -0.810928 0
      vertex 27.0211 -0.618988 0
      vertex 26.5955 -0.810928 140
    endloop
  endfacet
  facet normal 0.411113 -0.911585 0
    outer loop
      vertex 26.5955 -0.810928 140
      vertex 27.0211 -0.618988 0
      vertex 27.0211 -0.618988 140
    endloop
  endfacet
  facet normal 0 0 1
    outer loop
      vertex 26.5955 -0.810928 140
      vertex 27.0211 -0.618988 140
      vertex 26.5955 0.810928 140
    endloop
  endfacet
  facet normal 0.411113 0.911585 -0
    outer loop
      vertex 26.5955 0.810928 0
      vertex 26.5955 0.810928 140
      vertex 27.0211 0.618988 140
    endloop
  endfacet
  facet normal -0 -0 -1
    outer loop
      vertex 26.5955 0.810928 0
      vertex 27.0211 0.618988 0
      vertex 27.0211 -0.618988 0
    endloop
  endfacet
  facet normal 0.411113 0.911585 0
    outer loop
      vertex 26.5955 0.810928 0
      vertex 27.0211 0.618988 140
      vertex 27.0211 0.618988 0
    endloop
  endfacet
  facet normal 0 0 1
    outer loop
      vertex 26.5955 0.810928 140
      vertex 27.0211 -0.618988 140
      vertex 27.0211 0.618988 140
    endloop
  endfacet
  facet normal 0 0 -1
    outer loop
      vertex 27.0211 -0.618988 0
      vertex 27.0211 0.618988 0
      vertex 27.3717 -0.459045 0
    endloop
  endfacet
  facet normal 0.415049 -0.909799 0
    outer loop
      vertex 27.0211 -0.618988 0
      vertex 27.3717 -0.459045 0
      vertex 27.0211 -0.618988 140
    endloop
  endfacet
  facet normal 0.415049 -0.909799 0
    outer loop
      vertex 27.0211 -0.618988 140
      vertex 27.3717 -0.459045 0
      vertex 27.3717 -0.459045 140
    endloop
  endfacet
  facet normal 0 0 1
    outer loop
      vertex 27.0211 -0.618988 140
      vertex 27.3717 -0.459045 140
      vertex 27.0211 0.618988 140
    endloop
  endfacet
  facet normal 0.415049 0.909799 -0
    outer loop
      vertex 27.0211 0.618988 0
      vertex 27.0211 0.618988 140
      vertex 27.3717 0.459045 140
    endloop
  endfacet
  facet normal 0 0 -1
    outer loop
      vertex 27.0211 0.618988 0
      vertex 27.3717 0.459045 0
      vertex 27.3717 -0.459045 0
    endloop
  endfacet
  facet normal 0.415049 0.909799 0
    outer loop
      vertex 27.0211 0.618988 0
      vertex 27.3717 0.459045 140
      vertex 27.3717 0.459045 0
    endloop
  endfacet
  facet normal 0 -0 1
    outer loop
      vertex 27.0211 0.618988 140
      vertex 27.3717 -0.459045 140
      vertex 27.3717 0.459045 140
    endloop
  endfacet
  facet normal 0 0 -1
    outer loop
      vertex 27.3717 -0.459045 0
      vertex 27.3717 0.459045 0
      vertex 27.6457 -0.332779 0
    endloop
  endfacet
  facet normal 0.418524 -0.908206 0
    outer loop
      vertex 27.3717 -0.459045 0
      vertex 27.6457 -0.332779 0
      vertex 27.3717 -0.459045 140
    endloop
  endfacet
  facet normal 0.418524 -0.908206 0
    outer loop
      vertex 27.3717 -0.459045 140
      vertex 27.6457 -0.332779 0
      vertex 27.6457 -0.332779 140
    endloop
  endfacet
  facet normal 0 0 1
    outer loop
      vertex 27.3717 -0.459045 140
      vertex 27.6457 -0.332779 140
      vertex 27.3717 0.459045 140
    endloop
  endfacet
  facet normal 0.418524 0.908206 -0
    outer loop
      vertex 27.3717 0.459045 0
      vertex 27.3717 0.459045 140
      vertex 27.6457 0.332779 140
    endloop
  endfacet
  facet normal 0 0 -1
    outer loop
      vertex 27.3717 0.459045 0
      vertex 27.6457 0.332779 0
      vertex 27.6457 -0.332779 0
    endloop
  endfacet
  facet normal 0.418524 0.908206 0
    outer loop
      vertex 27.3717 0.459045 0
      vertex 27.6457 0.332779 140
      vertex 27.6457 0.332779 0
    endloop
  endfacet
  facet normal 0 0 1
    outer loop
      vertex 27.3717 0.459045 140
      vertex 27.6457 -0.332779 140
      vertex 27.6457 0.332779 140
    endloop
  endfacet
  facet normal -0 0 -1
    outer loop
      vertex 27.6457 -0.332779 0
      vertex 27.6457 0.332779 0
      vertex 27.8423 -0.241577 0
    endloop
  endfacet
  facet normal 0.420821 -0.907144 0
    outer loop
      vertex 27.6457 -0.332779 0
      vertex 27.8423 -0.241577 0
      vertex 27.6457 -0.332779 140
    endloop
  endfacet
  facet normal 0.420821 -0.907144 0
    outer loop
      vertex 27.6457 -0.332779 140
      vertex 27.8423 -0.241577 0
      vertex 27.8423 -0.241577 140
    endloop
  endfacet
  facet normal 0 0 1
    outer loop
      vertex 27.6457 -0.332779 140
      vertex 27.8423 -0.241577 140
      vertex 27.6457 0.332779 140
    endloop
  endfacet
  facet normal 0.420821 0.907144 -0
    outer loop
      vertex 27.6457 0.332779 0
      vertex 27.6457 0.332779 140
      vertex 27.8423 0.241577 140
    endloop
  endfacet
  facet normal -0 -0 -1
    outer loop
      vertex 27.6457 0.332779 0
      vertex 27.8423 0.241577 0
      vertex 27.8423 -0.241577 0
    endloop
  endfacet
  facet normal 0.420821 0.907144 0
    outer loop
      vertex 27.6457 0.332779 0
      vertex 27.8423 0.241577 140
      vertex 27.8423 0.241577 0
    endloop
  endfacet
  facet normal 0 0 1
    outer loop
      vertex 27.6457 0.332779 140
      vertex 27.8423 -0.241577 140
      vertex 27.8423 0.241577 140
    endloop
  endfacet
  facet normal 0 0 -1
    outer loop
      vertex 27.8423 -0.241577 0
      vertex 27.8423 0.241577 0
      vertex 27.9605 0.186432 0
    endloop
  endfacet
  facet normal 0 0 -1
    outer loop
      vertex 27.8423 -0.241577 0
      vertex 27.9605 0.186432 0
      vertex 28 -0.167999 0
    endloop
  endfacet
  facet normal 0.422813 -0.906217 0
    outer loop
      vertex 27.8423 -0.241577 0
      vertex 28 -0.167999 0
      vertex 27.8423 -0.241577 140
    endloop
  endfacet
  facet normal 0 0 1
    outer loop
      vertex 27.8423 -0.241577 140
      vertex 27.9605 0.186432 140
      vertex 27.8423 0.241577 140
    endloop
  endfacet
  facet normal 0.422813 -0.906217 0
    outer loop
      vertex 27.8423 -0.241577 140
      vertex 28 -0.167999 0
      vertex 28 -0.167999 140
    endloop
  endfacet
  facet normal 0 0 1
    outer loop
      vertex 27.8423 -0.241577 140
      vertex 28 -0.167999 140
      vertex 27.9605 0.186432 140
    endloop
  endfacet
  facet normal 0.422791 0.906227 -0
    outer loop
      vertex 27.8423 0.241577 0
      vertex 27.8423 0.241577 140
      vertex 27.9605 0.186432 140
    endloop
  endfacet
  facet normal 0.422791 0.906227 0
    outer loop
      vertex 27.8423 0.241577 0
      vertex 27.9605 0.186432 140
      vertex 27.9605 0.186432 0
    endloop
  endfacet
  facet normal 0.993847 0.110761 -0
    outer loop
      vertex 27.9605 0.186432 0
      vertex 27.9605 0.186432 140
      vertex 28 -0.167999 140
    endloop
  endfacet
  facet normal 0.993847 0.110761 0
    outer loop
      vertex 27.9605 0.186432 0
      vertex 28 -0.167999 140
      vertex 28 -0.167999 0
    endloop
  endfacet
  facet normal -0 0 -1
    outer loop
      vertex 3.0262 -7.84581 0
      vertex 3.0262 7.84581 0
      vertex 4.25237 -7.7052 0
    endloop
  endfacet
  facet normal 0.113928 -0.993489 0
    outer loop
      vertex 3.0262 -7.84581 0
      vertex 4.25237 -7.7052 0
      vertex 3.0262 -7.84581 140
    endloop
  endfacet
  facet normal 0.113928 -0.993489 0
    outer loop
      vertex 3.0262 -7.84581 140
      vertex 4.25237 -7.7052 0
      vertex 4.25237 -7.7052 140
    endloop
  endfacet
  facet normal 0 0 1
    outer loop
      vertex 3.0262 -7.84581 140
      vertex 4.25237 -7.7052 140
      vertex 3.0262 7.84581 140
    endloop
  endfacet
  facet normal 0.113928 0.993489 -0
    outer loop
      vertex 3.0262 7.84581 0
      vertex 3.0262 7.84581 140
      vertex 4.25237 7.7052 140
    endloop
  endfacet
  facet normal 0 0 -1
    outer loop
      vertex 3.0262 7.84581 0
      vertex 4.25237 7.7052 0
      vertex 4.25237 -7.7052 0
    endloop
  endfacet
  facet normal 0.113928 0.993489 0
    outer loop
      vertex 3.0262 7.84581 0
      vertex 4.25237 7.7052 140
      vertex 4.25237 7.7052 0
    endloop
  endfacet
  facet normal 0 0 1
    outer loop
      vertex 3.0262 7.84581 140
      vertex 4.25237 -7.7052 140
      vertex 4.25237 7.7052 140
    endloop
  endfacet
  facet normal 0 0 -1
    outer loop
      vertex 4.25237 -7.7052 0
      vertex 4.25237 7.7052 0
      vertex 5.49333 -7.52475 0
    endloop
  endfacet
  facet normal 0.143898 -0.989592 0
    outer loop
      vertex 4.25237 -7.7052 0
      vertex 5.49333 -7.52475 0
      vertex 4.25237 -7.7052 140
    endloop
  endfacet
  facet normal 0.143898 -0.989592 0
    outer loop
      vertex 4.25237 -7.7052 140
      vertex 5.49333 -7.52475 0
      vertex 5.49333 -7.52475 140
    endloop
  endfacet
  facet normal 0 0 1
    outer loop
      vertex 4.25237 -7.7052 140
      vertex 5.49333 -7.52475 140
      vertex 4.25237 7.7052 140
    endloop
  endfacet
  facet normal 0.143898 0.989592 -0
    outer loop
      vertex 4.25237 7.7052 0
      vertex 4.25237 7.7052 140
      vertex 5.49333 7.52475 140
    endloop
  endfacet
  facet normal 0 0 -1
    outer loop
      vertex 4.25237 7.7052 0
      vertex 5.49333 7.52475 0
      vertex 5.49333 -7.52475 0
    endloop
  endfacet
  facet normal 0.143898 0.989592 0
    outer loop
      vertex 4.25237 7.7052 0
      vertex 5.49333 7.52475 140
      vertex 5.49333 7.52475 0
    endloop
  endfacet
  facet normal 0 -0 1
    outer loop
      vertex 4.25237 7.7052 140
      vertex 5.49333 -7.52475 140
      vertex 5.49333 7.52475 140
    endloop
  endfacet
  facet normal 0 0 -1
    outer loop
      vertex 5.49333 -7.52475 0
      vertex 5.49333 7.52475 0
      vertex 6.74419 -7.30801 0
    endloop
  endfacet
  facet normal 0.170729 -0.985318 0
    outer loop
      vertex 5.49333 -7.52475 0
      vertex 6.74419 -7.30801 0
      vertex 5.49333 -7.52475 140
    endloop
  endfacet
  facet normal 0.170729 -0.985318 0
    outer loop
      vertex 5.49333 -7.52475 140
      vertex 6.74419 -7.30801 0
      vertex 6.74419 -7.30801 140
    endloop
  endfacet
  facet normal 0 0 1
    outer loop
      vertex 5.49333 -7.52475 140
      vertex 6.74419 -7.30801 140
      vertex 5.49333 7.52475 140
    endloop
  endfacet
  facet normal 0.170729 0.985318 -0
    outer loop
      vertex 5.49333 7.52475 0
      vertex 5.49333 7.52475 140
      vertex 6.74419 7.30801 140
    endloop
  endfacet
  facet normal -0 -0 -1
    outer loop
      vertex 5.49333 7.52475 0
      vertex 6.74419 7.30801 0
      vertex 6.74419 -7.30801 0
    endloop
  endfacet
  facet normal 0.170729 0.985318 0
    outer loop
      vertex 5.49333 7.52475 0
      vertex 6.74419 7.30801 140
      vertex 6.74419 7.30801 0
    endloop
  endfacet
  facet normal 0 0 1
    outer loop
      vertex 5.49333 7.52475 140
      vertex 6.74419 -7.30801 140
      vertex 6.74419 7.30801 140
    endloop
  endfacet
  facet normal -0 0 -1
    outer loop
      vertex 6.74419 -7.30801 0
      vertex 6.74419 7.30801 0
      vertex 8 -7.05869 0
    endloop
  endfacet
  facet normal 0.194733 -0.980856 0
    outer loop
      vertex 6.74419 -7.30801 0
      vertex 8 -7.05869 0
      vertex 6.74419 -7.30801 140
    endloop
  endfacet
  facet normal 0.194733 -0.980856 0
    outer loop
      vertex 6.74419 -7.30801 140
      vertex 8 -7.05869 0
      vertex 8 -7.05869 140
    endloop
  endfacet
  facet normal 0 0 1
    outer loop
      vertex 6.74419 -7.30801 140
      vertex 8 -7.05869 140
      vertex 6.74419 7.30801 140
    endloop
  endfacet
  facet normal 0.194733 0.980856 -0
    outer loop
      vertex 6.74419 7.30801 0
      vertex 6.74419 7.30801 140
      vertex 8 7.05869 140
    endloop
  endfacet
  facet normal 0 0 -1
    outer loop
      vertex 6.74419 7.30801 0
      vertex 8 7.05869 0
      vertex 8 -7.05869 0
    endloop
  endfacet
  facet normal 0.194733 0.980856 0
    outer loop
      vertex 6.74419 7.30801 0
      vertex 8 7.05869 140
      vertex 8 7.05869 0
    endloop
  endfacet
  facet normal 0 0 1
    outer loop
      vertex 6.74419 7.30801 140
      vertex 8 -7.05869 140
      vertex 8 7.05869 140
    endloop
  endfacet
  facet normal 0 0 -1
    outer loop
      vertex 8 -7.05869 0
      vertex 8 7.05869 0
      vertex 9.2558 -6.78056 0
    endloop
  endfacet
  facet normal 0.216236 -0.976341 0
    outer loop
      vertex 8 -7.05869 0
      vertex 9.2558 -6.78056 0
      vertex 8 -7.05869 140
    endloop
  endfacet
  facet normal 0.216236 -0.976341 0
    outer loop
      vertex 8 -7.05869 140
      vertex 9.2558 -6.78056 0
      vertex 9.2558 -6.78056 140
    endloop
  endfacet
  facet normal 0 0 1
    outer loop
      vertex 8 -7.05869 140
      vertex 9.2558 -6.78056 140
      vertex 8 7.05869 140
    endloop
  endfacet
  facet normal 0.216236 0.976341 -0
    outer loop
      vertex 8 7.05869 0
      vertex 8 7.05869 140
      vertex 9.2558 6.78056 140
    endloop
  endfacet
  facet normal 0 0 -1
    outer loop
      vertex 8 7.05869 0
      vertex 9.2558 6.78056 0
      vertex 9.2558 -6.78056 0
    endloop
  endfacet
  facet normal 0.216236 0.976341 0
    outer loop
      vertex 8 7.05869 0
      vertex 9.2558 6.78056 140
      vertex 9.2558 6.78056 0
    endloop
  endfacet
  facet normal 0 -0 1
    outer loop
      vertex 8 7.05869 140
      vertex 9.2558 -6.78056 140
      vertex 9.2558 6.78056 140
    endloop
  endfacet
  facet normal 0.235491 -0.971877 0
    outer loop
      vertex 9.2558 -6.78056 0
      vertex 10.5067 -6.47746 0
      vertex 9.2558 -6.78056 140
    endloop
  endfacet
  facet normal 0 0 -1
    outer loop
      vertex 9.2558 -6.78056 0
      vertex 9.2558 6.78056 0
      vertex 10.5067 -6.47746 0
    endloop
  endfacet
  facet normal 0.235491 -0.971877 0
    outer loop
      vertex 9.2558 -6.78056 140
      vertex 10.5067 -6.47746 0
      vertex 10.5067 -6.47746 140
    endloop
  endfacet
  facet normal 0 0 1
    outer loop
      vertex 9.2558 -6.78056 140
      vertex 10.5067 -6.47746 140
      vertex 9.2558 6.78056 140
    endloop
  endfacet
  facet normal -0 -0 -1
    outer loop
      vertex 9.2558 6.78056 0
      vertex 10.5067 6.47746 0
      vertex 10.5067 -6.47746 0
    endloop
  endfacet
  facet normal 0.235491 0.971877 0
    outer loop
      vertex 9.2558 6.78056 0
      vertex 10.5067 6.47746 140
      vertex 10.5067 6.47746 0
    endloop
  endfacet
  facet normal 0.235491 0.971877 -0
    outer loop
      vertex 9.2558 6.78056 0
      vertex 9.2558 6.78056 140
      vertex 10.5067 6.47746 140
    endloop
  endfacet
  facet normal 0 0 1
    outer loop
      vertex 9.2558 6.78056 140
      vertex 10.5067 -6.47746 140
      vertex 10.5067 6.47746 140
    endloop
  endfacet
endsolid model
