solid model
  facet normal -0.104522 0.994523 0
    outer loop
      vertex -0.167245 -1.59123 0
      vertex -0.167245 -1.59123 10
      vertex 0.494427 -1.52169 0
    endloop
  endfacet
  facet normal 0 0 -1
    outer loop
      vertex -0.167245 -1.59123 0
      vertex 0.494427 -1.52169 0
      vertex 0.49651 -4.72398 0
    endloop
  endfacet
  facet normal -0.104522 0.994523 0
    outer loop
      vertex -0.167245 -1.59123 10
      vertex 0.494427 -1.52169 10
      vertex 0.494427 -1.52169 0
    endloop
  endfacet
  facet normal -0 0 1
    outer loop
      vertex -0.167245 -1.59123 10
      vertex 1.65 -2.85788 10
      vertex 0.494427 -1.52169 10
    endloop
  endfacet
  facet normal -0.104522 -0.994523 -0
    outer loop
      vertex -0.167245 1.59123 0
      vertex 0.494427 1.52169 0
      vertex 0.494427 1.52169 10
    endloop
  endfacet
  facet normal -0.104522 -0.994523 0
    outer loop
      vertex -0.167245 1.59123 0
      vertex 0.494427 1.52169 10
      vertex -0.167245 1.59123 10
    endloop
  endfacet
  facet normal 0 0 -1
    outer loop
      vertex -0.167245 1.59123 0
      vertex 0.49651 4.72398 0
      vertex 0.494427 1.52169 0
    endloop
  endfacet
  facet normal 0 0 1
    outer loop
      vertex -0.167245 1.59123 10
      vertex 0.494427 1.52169 10
      vertex 1.65 2.85788 10
    endloop
  endfacet
  facet normal 0 0 -1
    outer loop
      vertex -0.49651 -4.72398 0
      vertex -0.167245 -1.59123 0
      vertex 0.49651 -4.72398 0
    endloop
  endfacet
  facet normal 0 -1 -0
    outer loop
      vertex -0.49651 -4.72398 0
      vertex 0.49651 -4.72398 0
      vertex 0.49651 -4.72398 35
    endloop
  endfacet
  facet normal 0 -1 0
    outer loop
      vertex -0.49651 -4.72398 0
      vertex 0.49651 -4.72398 35
      vertex -0.49651 -4.72398 35
    endloop
  endfacet
  facet normal 0 0 1
    outer loop
      vertex -0.49651 -4.72398 35
      vertex 0.49651 -4.72398 35
      vertex 1.65 -2.85788 35
    endloop
  endfacet
  facet normal 0 1 0
    outer loop
      vertex -0.49651 4.72398 0
      vertex -0.49651 4.72398 35
      vertex 0.49651 4.72398 0
    endloop
  endfacet
  facet normal 0 0 -1
    outer loop
      vertex -0.49651 4.72398 0
      vertex 0.49651 4.72398 0
      vertex -0.167245 1.59123 0
    endloop
  endfacet
  facet normal 0 1 -0
    outer loop
      vertex -0.49651 4.72398 35
      vertex 0.49651 4.72398 35
      vertex 0.49651 4.72398 0
    endloop
  endfacet
  facet normal -0 0 1
    outer loop
      vertex -0.49651 4.72398 35
      vertex 1.65 2.85788 35
      vertex 0.49651 4.72398 35
    endloop
  endfacet
  facet normal 0.309011 0.951058 0
    outer loop
      vertex -0.799999 -1.38564 0
      vertex -0.799999 -1.38564 10
      vertex -0.167245 -1.59123 0
    endloop
  endfacet
  facet normal 0.309011 0.951058 -0
    outer loop
      vertex -0.799999 -1.38564 10
      vertex -0.167245 -1.59123 10
      vertex -0.167245 -1.59123 0
    endloop
  endfacet
  facet normal 0.309011 -0.951058 0
    outer loop
      vertex -0.799999 1.38564 0
      vertex -0.167245 1.59123 0
      vertex -0.167245 1.59123 10
    endloop
  endfacet
  facet normal 0.309011 -0.951058 0
    outer loop
      vertex -0.799999 1.38564 0
      vertex -0.167245 1.59123 10
      vertex -0.799999 1.38564 10
    endloop
  endfacet
  facet normal 0.669128 0.743148 0
    outer loop
      vertex -1.29443 -0.940456 0
      vertex -1.29443 -0.940456 10
      vertex -0.799999 -1.38564 0
    endloop
  endfacet
  facet normal 0.669128 0.743148 -0
    outer loop
      vertex -1.29443 -0.940456 10
      vertex -0.799999 -1.38564 10
      vertex -0.799999 -1.38564 0
    endloop
  endfacet
  facet normal 0.669128 -0.743148 0
    outer loop
      vertex -1.29443 0.940456 0
      vertex -0.799999 1.38564 0
      vertex -0.799999 1.38564 10
    endloop
  endfacet
  facet normal 0.669128 -0.743148 0
    outer loop
      vertex -1.29443 0.940456 0
      vertex -0.799999 1.38564 10
      vertex -1.29443 0.940456 10
    endloop
  endfacet
  facet normal 0 0 -1
    outer loop
      vertex -1.46783 -4.51752 0
      vertex -0.167245 -1.59123 0
      vertex -0.49651 -4.72398 0
    endloop
  endfacet
  facet normal -0.207911 -0.978148 -0
    outer loop
      vertex -1.46783 -4.51752 0
      vertex -0.49651 -4.72398 0
      vertex -0.49651 -4.72398 35
    endloop
  endfacet
  facet normal -0.207911 -0.978148 0
    outer loop
      vertex -1.46783 -4.51752 0
      vertex -0.49651 -4.72398 35
      vertex -1.46783 -4.51752 35
    endloop
  endfacet
  facet normal -0 0 -1
    outer loop
      vertex -1.46783 -4.51752 0
      vertex -0.799999 -1.38564 0
      vertex -0.167245 -1.59123 0
    endloop
  endfacet
  facet normal 0 0 -1
    outer loop
      vertex -1.46783 4.51752 0
      vertex -0.167245 1.59123 0
      vertex -0.799999 1.38564 0
    endloop
  endfacet
  facet normal 0 0 -1
    outer loop
      vertex -1.46783 4.51752 0
      vertex -0.49651 4.72398 0
      vertex -0.167245 1.59123 0
    endloop
  endfacet
  facet normal -0.207911 0.978148 0
    outer loop
      vertex -1.46783 4.51752 0
      vertex -1.46783 4.51752 35
      vertex -0.49651 4.72398 0
    endloop
  endfacet
  facet normal -0.207911 0.978148 0
    outer loop
      vertex -1.46783 4.51752 35
      vertex -0.49651 4.72398 35
      vertex -0.49651 4.72398 0
    endloop
  endfacet
  facet normal 0.913545 0.406738 0
    outer loop
      vertex -1.56504 -0.332658 0
      vertex -1.29443 -0.940456 10
      vertex -1.29443 -0.940456 0
    endloop
  endfacet
  facet normal 0.913545 0.406738 0
    outer loop
      vertex -1.56504 -0.332658 0
      vertex -1.56504 -0.332658 10
      vertex -1.29443 -0.940456 10
    endloop
  endfacet
  facet normal 1 0 0
    outer loop
      vertex -1.56504 -0.332658 0
      vertex -1.56504 0.332658 0
      vertex -1.56504 -0.332658 10
    endloop
  endfacet
  facet normal 1 -0 0
    outer loop
      vertex -1.56504 -0.332658 10
      vertex -1.56504 0.332658 0
      vertex -1.56504 0.332658 10
    endloop
  endfacet
  facet normal 0.913545 -0.406738 0
    outer loop
      vertex -1.56504 0.332658 0
      vertex -1.29443 0.940456 0
      vertex -1.56504 0.332658 10
    endloop
  endfacet
  facet normal 0.913545 -0.406738 0
    outer loop
      vertex -1.56504 0.332658 10
      vertex -1.29443 0.940456 0
      vertex -1.29443 0.940456 10
    endloop
  endfacet
  facet normal 0 0 1
    outer loop
      vertex -1.65 -2.85788 10
      vertex -0.167245 -1.59123 10
      vertex -0.799999 -1.38564 10
    endloop
  endfacet
  facet normal 0 0 1
    outer loop
      vertex -1.65 -2.85788 10
      vertex -0.799999 -1.38564 10
      vertex -1.29443 -0.940456 10
    endloop
  endfacet
  facet normal 0 1 0
    outer loop
      vertex -1.65 -2.85788 10
      vertex -1.65 -2.85788 35
      vertex 1.65 -2.85788 10
    endloop
  endfacet
  facet normal 0 0 1
    outer loop
      vertex -1.65 -2.85788 10
      vertex 1.65 -2.85788 10
      vertex -0.167245 -1.59123 10
    endloop
  endfacet
  facet normal -0 0 1
    outer loop
      vertex -1.65 -2.85788 35
      vertex -0.49651 -4.72398 35
      vertex 1.65 -2.85788 35
    endloop
  endfacet
  facet normal 0 0 1
    outer loop
      vertex -1.65 -2.85788 35
      vertex -1.46783 -4.51752 35
      vertex -0.49651 -4.72398 35
    endloop
  endfacet
  facet normal 0 1 -0
    outer loop
      vertex -1.65 -2.85788 35
      vertex 1.65 -2.85788 35
      vertex 1.65 -2.85788 10
    endloop
  endfacet
  facet normal -0 0 1
    outer loop
      vertex -1.65 2.85788 10
      vertex -0.167245 1.59123 10
      vertex 1.65 2.85788 10
    endloop
  endfacet
  facet normal 0 0 1
    outer loop
      vertex -1.65 2.85788 10
      vertex -0.799999 1.38564 10
      vertex -0.167245 1.59123 10
    endloop
  endfacet
  facet normal 0 0 1
    outer loop
      vertex -1.65 2.85788 10
      vertex -1.29443 0.940456 10
      vertex -0.799999 1.38564 10
    endloop
  endfacet
  facet normal 0 -1 -0
    outer loop
      vertex -1.65 2.85788 10
      vertex 1.65 2.85788 10
      vertex 1.65 2.85788 35
    endloop
  endfacet
  facet normal 0 -1 0
    outer loop
      vertex -1.65 2.85788 10
      vertex 1.65 2.85788 35
      vertex -1.65 2.85788 35
    endloop
  endfacet
  facet normal 0 0 1
    outer loop
      vertex -1.65 2.85788 35
      vertex -0.49651 4.72398 35
      vertex -1.46783 4.51752 35
    endloop
  endfacet
  facet normal 0 0 1
    outer loop
      vertex -1.65 2.85788 35
      vertex 1.65 2.85788 35
      vertex -0.49651 4.72398 35
    endloop
  endfacet
  facet normal 0 0 -1
    outer loop
      vertex -2.375 -4.11362 0
      vertex -0.799999 -1.38564 0
      vertex -1.46783 -4.51752 0
    endloop
  endfacet
  facet normal -0.406738 -0.913545 -0
    outer loop
      vertex -2.375 -4.11362 0
      vertex -1.46783 -4.51752 0
      vertex -1.46783 -4.51752 35
    endloop
  endfacet
  facet normal -0.406738 -0.913545 0
    outer loop
      vertex -2.375 -4.11362 0
      vertex -1.46783 -4.51752 35
      vertex -2.375 -4.11362 35
    endloop
  endfacet
  facet normal 0 0 1
    outer loop
      vertex -2.375 -4.11362 35
      vertex -1.46783 -4.51752 35
      vertex -1.65 -2.85788 35
    endloop
  endfacet
  facet normal 0 0 -1
    outer loop
      vertex -2.375 4.11362 0
      vertex -1.46783 4.51752 0
      vertex -0.799999 1.38564 0
    endloop
  endfacet
  facet normal -0.406738 0.913545 0
    outer loop
      vertex -2.375 4.11362 0
      vertex -2.375 4.11362 35
      vertex -1.46783 4.51752 0
    endloop
  endfacet
  facet normal -0.406738 0.913545 0
    outer loop
      vertex -2.375 4.11362 35
      vertex -1.46783 4.51752 35
      vertex -1.46783 4.51752 0
    endloop
  endfacet
  facet normal -0 0 1
    outer loop
      vertex -2.375 4.11362 35
      vertex -1.65 2.85788 35
      vertex -1.46783 4.51752 35
    endloop
  endfacet
  facet normal 0 0 -1
    outer loop
      vertex -3.17837 -3.52994 0
      vertex -0.799999 -1.38564 0
      vertex -2.375 -4.11362 0
    endloop
  endfacet
  facet normal -0 0 -1
    outer loop
      vertex -3.17837 -3.52994 0
      vertex -1.29443 -0.940456 0
      vertex -0.799999 -1.38564 0
    endloop
  endfacet
  facet normal -0.587784 -0.809018 -0
    outer loop
      vertex -3.17837 -3.52994 0
      vertex -2.375 -4.11362 0
      vertex -2.375 -4.11362 35
    endloop
  endfacet
  facet normal -0.587784 -0.809018 0
    outer loop
      vertex -3.17837 -3.52994 0
      vertex -2.375 -4.11362 35
      vertex -3.17837 -3.52994 35
    endloop
  endfacet
  facet normal 0 0 1
    outer loop
      vertex -3.17837 -3.52994 35
      vertex -2.375 -4.11362 35
      vertex -1.65 -2.85788 35
    endloop
  endfacet
  facet normal 0 0 -1
    outer loop
      vertex -3.17837 3.52994 0
      vertex -0.799999 1.38564 0
      vertex -1.29443 0.940456 0
    endloop
  endfacet
  facet normal 0 0 -1
    outer loop
      vertex -3.17837 3.52994 0
      vertex -2.375 4.11362 0
      vertex -0.799999 1.38564 0
    endloop
  endfacet
  facet normal -0.587784 0.809018 0
    outer loop
      vertex -3.17837 3.52994 0
      vertex -3.17837 3.52994 35
      vertex -2.375 4.11362 0
    endloop
  endfacet
  facet normal -0 0 1
    outer loop
      vertex -3.17837 3.52994 35
      vertex -1.65 2.85788 35
      vertex -2.375 4.11362 35
    endloop
  endfacet
  facet normal -0.587784 0.809018 0
    outer loop
      vertex -3.17837 3.52994 35
      vertex -2.375 4.11362 35
      vertex -2.375 4.11362 0
    endloop
  endfacet
  facet normal 0 0 1
    outer loop
      vertex -3.3 0 10
      vertex -1.29443 -0.940456 10
      vertex -1.56504 -0.332658 10
    endloop
  endfacet
  facet normal 0 0 1
    outer loop
      vertex -3.3 0 10
      vertex -1.29443 0.940456 10
      vertex -1.65 2.85788 10
    endloop
  endfacet
  facet normal 0 0 1
    outer loop
      vertex -3.3 0 10
      vertex -1.56504 -0.332658 10
      vertex -1.56504 0.332658 10
    endloop
  endfacet
  facet normal 0 0 1
    outer loop
      vertex -3.3 0 10
      vertex -1.56504 0.332658 10
      vertex -1.29443 0.940456 10
    endloop
  endfacet
  facet normal 0 0 1
    outer loop
      vertex -3.3 0 10
      vertex -1.65 -2.85788 10
      vertex -1.29443 -0.940456 10
    endloop
  endfacet
  facet normal 0.866025 0.500001 0
    outer loop
      vertex -3.3 0 10
      vertex -1.65 -2.85788 35
      vertex -1.65 -2.85788 10
    endloop
  endfacet
  facet normal 0.866025 -0.500001 0
    outer loop
      vertex -3.3 0 10
      vertex -1.65 2.85788 10
      vertex -3.3 0 35
    endloop
  endfacet
  facet normal 0.866025 0.500001 0
    outer loop
      vertex -3.3 0 10
      vertex -3.3 0 35
      vertex -1.65 -2.85788 35
    endloop
  endfacet
  facet normal 0.866025 -0.500001 0
    outer loop
      vertex -3.3 0 35
      vertex -1.65 2.85788 10
      vertex -1.65 2.85788 35
    endloop
  endfacet
  facet normal 0 0 -1
    outer loop
      vertex -3.84283 -2.79198 0
      vertex -1.29443 -0.940456 0
      vertex -3.17837 -3.52994 0
    endloop
  endfacet
  facet normal -0.743146 -0.669129 0
    outer loop
      vertex -3.84283 -2.79198 0
      vertex -3.17837 -3.52994 0
      vertex -3.84283 -2.79198 35
    endloop
  endfacet
  facet normal -0 0 1
    outer loop
      vertex -3.84283 -2.79198 35
      vertex -1.65 -2.85788 35
      vertex -3.3 0 35
    endloop
  endfacet
  facet normal -0.743146 -0.669129 0
    outer loop
      vertex -3.84283 -2.79198 35
      vertex -3.17837 -3.52994 0
      vertex -3.17837 -3.52994 35
    endloop
  endfacet
  facet normal 0 0 1
    outer loop
      vertex -3.84283 -2.79198 35
      vertex -3.17837 -3.52994 35
      vertex -1.65 -2.85788 35
    endloop
  endfacet
  facet normal 0 0 -1
    outer loop
      vertex -3.84283 2.79198 0
      vertex -3.17837 3.52994 0
      vertex -1.29443 0.940456 0
    endloop
  endfacet
  facet normal -0.743146 0.669129 0
    outer loop
      vertex -3.84283 2.79198 0
      vertex -3.17837 3.52994 35
      vertex -3.17837 3.52994 0
    endloop
  endfacet
  facet normal -0.743146 0.669129 0
    outer loop
      vertex -3.84283 2.79198 0
      vertex -3.84283 2.79198 35
      vertex -3.17837 3.52994 35
    endloop
  endfacet
  facet normal 0 0 1
    outer loop
      vertex -3.84283 2.79198 35
      vertex -1.65 2.85788 35
      vertex -3.17837 3.52994 35
    endloop
  endfacet
  facet normal 0 0 1
    outer loop
      vertex -3.84283 2.79198 35
      vertex -3.3 0 35
      vertex -1.65 2.85788 35
    endloop
  endfacet
  facet normal 0 0 -1
    outer loop
      vertex -4.33934 -1.932 0
      vertex -1.29443 -0.940456 0
      vertex -3.84283 -2.79198 0
    endloop
  endfacet
  facet normal -0 0 -1
    outer loop
      vertex -4.33934 -1.932 0
      vertex -1.56504 -0.332658 0
      vertex -1.29443 -0.940456 0
    endloop
  endfacet
  facet normal -0.866025 -0.5 0
    outer loop
      vertex -4.33934 -1.932 0
      vertex -3.84283 -2.79198 0
      vertex -4.33934 -1.932 35
    endloop
  endfacet
  facet normal -0.866025 -0.5 0
    outer loop
      vertex -4.33934 -1.932 35
      vertex -3.84283 -2.79198 0
      vertex -3.84283 -2.79198 35
    endloop
  endfacet
  facet normal 0 0 1
    outer loop
      vertex -4.33934 -1.932 35
      vertex -3.84283 -2.79198 35
      vertex -3.3 0 35
    endloop
  endfacet
  facet normal 0 0 -1
    outer loop
      vertex -4.33934 1.932 0
      vertex -1.29443 0.940456 0
      vertex -1.56504 0.332658 0
    endloop
  endfacet
  facet normal 0 0 -1
    outer loop
      vertex -4.33934 1.932 0
      vertex -3.84283 2.79198 0
      vertex -1.29443 0.940456 0
    endloop
  endfacet
  facet normal -0.866025 0.5 0
    outer loop
      vertex -4.33934 1.932 0
      vertex -3.84283 2.79198 35
      vertex -3.84283 2.79198 0
    endloop
  endfacet
  facet normal -0.866025 0.5 0
    outer loop
      vertex -4.33934 1.932 0
      vertex -4.33934 1.932 35
      vertex -3.84283 2.79198 35
    endloop
  endfacet
  facet normal -0 0 1
    outer loop
      vertex -4.33934 1.932 35
      vertex -3.3 0 35
      vertex -3.84283 2.79198 35
    endloop
  endfacet
  facet normal 0 0 -1
    outer loop
      vertex -4.6462 -0.98758 0
      vertex -1.56504 -0.332658 0
      vertex -4.33934 -1.932 0
    endloop
  endfacet
  facet normal -0.951057 -0.309016 0
    outer loop
      vertex -4.6462 -0.98758 0
      vertex -4.33934 -1.932 0
      vertex -4.6462 -0.98758 35
    endloop
  endfacet
  facet normal -0.951057 -0.309016 0
    outer loop
      vertex -4.6462 -0.98758 35
      vertex -4.33934 -1.932 0
      vertex -4.33934 -1.932 35
    endloop
  endfacet
  facet normal 0 0 1
    outer loop
      vertex -4.6462 -0.98758 35
      vertex -4.33934 -1.932 35
      vertex -3.3 0 35
    endloop
  endfacet
  facet normal 0 0 -1
    outer loop
      vertex -4.6462 0.98758 0
      vertex -4.33934 1.932 0
      vertex -1.56504 0.332658 0
    endloop
  endfacet
  facet normal -0.951057 0.309016 0
    outer loop
      vertex -4.6462 0.98758 0
      vertex -4.33934 1.932 35
      vertex -4.33934 1.932 0
    endloop
  endfacet
  facet normal -0.951057 0.309016 0
    outer loop
      vertex -4.6462 0.98758 0
      vertex -4.6462 0.98758 35
      vertex -4.33934 1.932 35
    endloop
  endfacet
  facet normal -0 0 1
    outer loop
      vertex -4.6462 0.98758 35
      vertex -3.3 0 35
      vertex -4.33934 1.932 35
    endloop
  endfacet
  facet normal 0 0 -1
    outer loop
      vertex -4.75 0 0
      vertex -1.56504 -0.332658 0
      vertex -4.6462 -0.98758 0
    endloop
  endfacet
  facet normal 0 0 -1
    outer loop
      vertex -4.75 0 0
      vertex -1.56504 0.332658 0
      vertex -1.56504 -0.332658 0
    endloop
  endfacet
  facet normal -0.994522 -0.10453 0
    outer loop
      vertex -4.75 0 0
      vertex -4.6462 -0.98758 0
      vertex -4.75 0 35
    endloop
  endfacet
  facet normal -0 0 -1
    outer loop
      vertex -4.75 0 0
      vertex -4.6462 0.98758 0
      vertex -1.56504 0.332658 0
    endloop
  endfacet
  facet normal -0.994522 0.10453 0
    outer loop
      vertex -4.75 0 0
      vertex -4.6462 0.98758 35
      vertex -4.6462 0.98758 0
    endloop
  endfacet
  facet normal -0.994522 0.10453 0
    outer loop
      vertex -4.75 0 0
      vertex -4.75 0 35
      vertex -4.6462 0.98758 35
    endloop
  endfacet
  facet normal 0 0 1
    outer loop
      vertex -4.75 0 35
      vertex -3.3 0 35
      vertex -4.6462 0.98758 35
    endloop
  endfacet
  facet normal -0.994522 -0.10453 0
    outer loop
      vertex -4.75 0 35
      vertex -4.6462 -0.98758 0
      vertex -4.6462 -0.98758 35
    endloop
  endfacet
  facet normal 0 0 1
    outer loop
      vertex -4.75 0 35
      vertex -4.6462 -0.98758 35
      vertex -3.3 0 35
    endloop
  endfacet
  facet normal -0.500001 0.866025 0
    outer loop
      vertex 0.494427 -1.52169 0
      vertex 0.494427 -1.52169 10
      vertex 1.07061 -1.18903 0
    endloop
  endfacet
  facet normal 0 0 -1
    outer loop
      vertex 0.494427 -1.52169 0
      vertex 1.07061 -1.18903 0
      vertex 2.375 -4.11362 0
    endloop
  endfacet
  facet normal 0 0 -1
    outer loop
      vertex 0.494427 -1.52169 0
      vertex 1.46783 -4.51752 0
      vertex 0.49651 -4.72398 0
    endloop
  endfacet
  facet normal 0 0 -1
    outer loop
      vertex 0.494427 -1.52169 0
      vertex 2.375 -4.11362 0
      vertex 1.46783 -4.51752 0
    endloop
  endfacet
  facet normal -0.500001 0.866025 0
    outer loop
      vertex 0.494427 -1.52169 10
      vertex 1.07061 -1.18903 10
      vertex 1.07061 -1.18903 0
    endloop
  endfacet
  facet normal -0 0 1
    outer loop
      vertex 0.494427 -1.52169 10
      vertex 1.65 -2.85788 10
      vertex 1.07061 -1.18903 10
    endloop
  endfacet
  facet normal -0 0 -1
    outer loop
      vertex 0.494427 1.52169 0
      vertex 0.49651 4.72398 0
      vertex 1.46783 4.51752 0
    endloop
  endfacet
  facet normal -0.500001 -0.866025 -0
    outer loop
      vertex 0.494427 1.52169 0
      vertex 1.07061 1.18903 0
      vertex 1.07061 1.18903 10
    endloop
  endfacet
  facet normal -0.500001 -0.866025 0
    outer loop
      vertex 0.494427 1.52169 0
      vertex 1.07061 1.18903 10
      vertex 0.494427 1.52169 10
    endloop
  endfacet
  facet normal -0 0 -1
    outer loop
      vertex 0.494427 1.52169 0
      vertex 1.46783 4.51752 0
      vertex 2.375 4.11362 0
    endloop
  endfacet
  facet normal 0 0 -1
    outer loop
      vertex 0.494427 1.52169 0
      vertex 2.375 4.11362 0
      vertex 1.07061 1.18903 0
    endloop
  endfacet
  facet normal 0 0 1
    outer loop
      vertex 0.494427 1.52169 10
      vertex 1.07061 1.18903 10
      vertex 1.65 2.85788 10
    endloop
  endfacet
  facet normal 0.207911 -0.978148 0
    outer loop
      vertex 0.49651 -4.72398 0
      vertex 1.46783 -4.51752 0
      vertex 1.46783 -4.51752 35
    endloop
  endfacet
  facet normal 0.207911 -0.978148 0
    outer loop
      vertex 0.49651 -4.72398 0
      vertex 1.46783 -4.51752 35
      vertex 0.49651 -4.72398 35
    endloop
  endfacet
  facet normal 0 0 1
    outer loop
      vertex 0.49651 -4.72398 35
      vertex 1.46783 -4.51752 35
      vertex 1.65 -2.85788 35
    endloop
  endfacet
  facet normal 0.207911 0.978148 0
    outer loop
      vertex 0.49651 4.72398 0
      vertex 0.49651 4.72398 35
      vertex 1.46783 4.51752 0
    endloop
  endfacet
  facet normal 0.207911 0.978148 -0
    outer loop
      vertex 0.49651 4.72398 35
      vertex 1.46783 4.51752 35
      vertex 1.46783 4.51752 0
    endloop
  endfacet
  facet normal 0 0 1
    outer loop
      vertex 0.49651 4.72398 35
      vertex 1.65 2.85788 35
      vertex 1.46783 4.51752 35
    endloop
  endfacet
  facet normal -0.809019 0.587782 0
    outer loop
      vertex 1.07061 -1.18903 0
      vertex 1.07061 -1.18903 10
      vertex 1.46167 -0.650778 10
    endloop
  endfacet
  facet normal 0 0 -1
    outer loop
      vertex 1.07061 -1.18903 0
      vertex 1.46167 -0.650778 0
      vertex 3.84283 -2.79198 0
    endloop
  endfacet
  facet normal -0.809019 0.587782 0
    outer loop
      vertex 1.07061 -1.18903 0
      vertex 1.46167 -0.650778 10
      vertex 1.46167 -0.650778 0
    endloop
  endfacet
  facet normal 0 0 -1
    outer loop
      vertex 1.07061 -1.18903 0
      vertex 3.17837 -3.52994 0
      vertex 2.375 -4.11362 0
    endloop
  endfacet
  facet normal 0 0 -1
    outer loop
      vertex 1.07061 -1.18903 0
      vertex 3.84283 -2.79198 0
      vertex 3.17837 -3.52994 0
    endloop
  endfacet
  facet normal -0 0 1
    outer loop
      vertex 1.07061 -1.18903 10
      vertex 1.65 -2.85788 10
      vertex 1.46167 -0.650778 10
    endloop
  endfacet
  facet normal -0.809019 -0.587782 0
    outer loop
      vertex 1.07061 1.18903 0
      vertex 1.46167 0.650778 0
      vertex 1.07061 1.18903 10
    endloop
  endfacet
  facet normal -0 0 -1
    outer loop
      vertex 1.07061 1.18903 0
      vertex 2.375 4.11362 0
      vertex 3.17837 3.52994 0
    endloop
  endfacet
  facet normal -0 0 -1
    outer loop
      vertex 1.07061 1.18903 0
      vertex 3.17837 3.52994 0
      vertex 3.84283 2.79198 0
    endloop
  endfacet
  facet normal 0 0 -1
    outer loop
      vertex 1.07061 1.18903 0
      vertex 3.84283 2.79198 0
      vertex 1.46167 0.650778 0
    endloop
  endfacet
  facet normal -0.809019 -0.587782 0
    outer loop
      vertex 1.07061 1.18903 10
      vertex 1.46167 0.650778 0
      vertex 1.46167 0.650778 10
    endloop
  endfacet
  facet normal 0 0 1
    outer loop
      vertex 1.07061 1.18903 10
      vertex 1.46167 0.650778 10
      vertex 1.65 2.85788 10
    endloop
  endfacet
  facet normal -0.978147 0.207916 0
    outer loop
      vertex 1.46167 -0.650778 0
      vertex 1.46167 -0.650778 10
      vertex 1.6 0 10
    endloop
  endfacet
  facet normal 0 0 -1
    outer loop
      vertex 1.46167 -0.650778 0
      vertex 1.6 0 0
      vertex 4.6462 -0.98758 0
    endloop
  endfacet
  facet normal -0.978147 0.207916 0
    outer loop
      vertex 1.46167 -0.650778 0
      vertex 1.6 0 10
      vertex 1.6 0 0
    endloop
  endfacet
  facet normal 0 0 -1
    outer loop
      vertex 1.46167 -0.650778 0
      vertex 4.33934 -1.932 0
      vertex 3.84283 -2.79198 0
    endloop
  endfacet
  facet normal 0 0 -1
    outer loop
      vertex 1.46167 -0.650778 0
      vertex 4.6462 -0.98758 0
      vertex 4.33934 -1.932 0
    endloop
  endfacet
  facet normal 0 0 1
    outer loop
      vertex 1.46167 -0.650778 10
      vertex 1.65 -2.85788 10
      vertex 3.3 0 10
    endloop
  endfacet
  facet normal 0 0 1
    outer loop
      vertex 1.46167 -0.650778 10
      vertex 3.3 0 10
      vertex 1.6 0 10
    endloop
  endfacet
  facet normal -0.978147 -0.207916 0
    outer loop
      vertex 1.46167 0.650778 0
      vertex 1.6 0 0
      vertex 1.46167 0.650778 10
    endloop
  endfacet
  facet normal -0 0 -1
    outer loop
      vertex 1.46167 0.650778 0
      vertex 3.84283 2.79198 0
      vertex 4.33934 1.932 0
    endloop
  endfacet
  facet normal -0 0 -1
    outer loop
      vertex 1.46167 0.650778 0
      vertex 4.33934 1.932 0
      vertex 4.6462 0.98758 0
    endloop
  endfacet
  facet normal 0 0 -1
    outer loop
      vertex 1.46167 0.650778 0
      vertex 4.6462 0.98758 0
      vertex 1.6 0 0
    endloop
  endfacet
  facet normal -0.978147 -0.207916 0
    outer loop
      vertex 1.46167 0.650778 10
      vertex 1.6 0 0
      vertex 1.6 0 10
    endloop
  endfacet
  facet normal 0 0 1
    outer loop
      vertex 1.46167 0.650778 10
      vertex 1.6 0 10
      vertex 3.3 0 10
    endloop
  endfacet
  facet normal -0 0 1
    outer loop
      vertex 1.46167 0.650778 10
      vertex 3.3 0 10
      vertex 1.65 2.85788 10
    endloop
  endfacet
  facet normal 0.406738 -0.913545 0
    outer loop
      vertex 1.46783 -4.51752 0
      vertex 2.375 -4.11362 0
      vertex 2.375 -4.11362 35
    endloop
  endfacet
  facet normal 0.406738 -0.913545 0
    outer loop
      vertex 1.46783 -4.51752 0
      vertex 2.375 -4.11362 35
      vertex 1.46783 -4.51752 35
    endloop
  endfacet
  facet normal 0 0 1
    outer loop
      vertex 1.46783 -4.51752 35
      vertex 2.375 -4.11362 35
      vertex 1.65 -2.85788 35
    endloop
  endfacet
  facet normal 0.406738 0.913545 0
    outer loop
      vertex 1.46783 4.51752 0
      vertex 1.46783 4.51752 35
      vertex 2.375 4.11362 0
    endloop
  endfacet
  facet normal 0 0 1
    outer loop
      vertex 1.46783 4.51752 35
      vertex 1.65 2.85788 35
      vertex 2.375 4.11362 35
    endloop
  endfacet
  facet normal 0.406738 0.913545 -0
    outer loop
      vertex 1.46783 4.51752 35
      vertex 2.375 4.11362 35
      vertex 2.375 4.11362 0
    endloop
  endfacet
  facet normal 0 0 -1
    outer loop
      vertex 1.6 0 0
      vertex 4.6462 0.98758 0
      vertex 4.75 0 0
    endloop
  endfacet
  facet normal 0 0 -1
    outer loop
      vertex 1.6 0 0
      vertex 4.75 0 0
      vertex 4.6462 -0.98758 0
    endloop
  endfacet
  facet normal -0.866025 0.500001 0
    outer loop
      vertex 1.65 -2.85788 10
      vertex 1.65 -2.85788 35
      vertex 3.3 0 35
    endloop
  endfacet
  facet normal -0.866025 0.500001 0
    outer loop
      vertex 1.65 -2.85788 10
      vertex 3.3 0 35
      vertex 3.3 0 10
    endloop
  endfacet
  facet normal 0 0 1
    outer loop
      vertex 1.65 -2.85788 35
      vertex 2.375 -4.11362 35
      vertex 3.17837 -3.52994 35
    endloop
  endfacet
  facet normal 0 0 1
    outer loop
      vertex 1.65 -2.85788 35
      vertex 3.17837 -3.52994 35
      vertex 3.84283 -2.79198 35
    endloop
  endfacet
  facet normal 0 0 1
    outer loop
      vertex 1.65 -2.85788 35
      vertex 3.84283 -2.79198 35
      vertex 3.3 0 35
    endloop
  endfacet
  facet normal -0.866025 -0.500001 0
    outer loop
      vertex 1.65 2.85788 10
      vertex 3.3 0 10
      vertex 1.65 2.85788 35
    endloop
  endfacet
  facet normal 0 0 1
    outer loop
      vertex 1.65 2.85788 35
      vertex 3.17837 3.52994 35
      vertex 2.375 4.11362 35
    endloop
  endfacet
  facet normal -0.866025 -0.500001 0
    outer loop
      vertex 1.65 2.85788 35
      vertex 3.3 0 10
      vertex 3.3 0 35
    endloop
  endfacet
  facet normal 0 0 1
    outer loop
      vertex 1.65 2.85788 35
      vertex 3.3 0 35
      vertex 3.84283 2.79198 35
    endloop
  endfacet
  facet normal -0 0 1
    outer loop
      vertex 1.65 2.85788 35
      vertex 3.84283 2.79198 35
      vertex 3.17837 3.52994 35
    endloop
  endfacet
  facet normal 0.587784 -0.809018 0
    outer loop
      vertex 2.375 -4.11362 0
      vertex 3.17837 -3.52994 0
      vertex 3.17837 -3.52994 35
    endloop
  endfacet
  facet normal 0.587784 -0.809018 0
    outer loop
      vertex 2.375 -4.11362 0
      vertex 3.17837 -3.52994 35
      vertex 2.375 -4.11362 35
    endloop
  endfacet
  facet normal 0.587784 0.809018 0
    outer loop
      vertex 2.375 4.11362 0
      vertex 2.375 4.11362 35
      vertex 3.17837 3.52994 0
    endloop
  endfacet
  facet normal 0.587784 0.809018 -0
    outer loop
      vertex 2.375 4.11362 35
      vertex 3.17837 3.52994 35
      vertex 3.17837 3.52994 0
    endloop
  endfacet
  facet normal 0.743146 -0.669129 0
    outer loop
      vertex 3.17837 -3.52994 0
      vertex 3.84283 -2.79198 0
      vertex 3.17837 -3.52994 35
    endloop
  endfacet
  facet normal 0.743146 -0.669129 0
    outer loop
      vertex 3.17837 -3.52994 35
      vertex 3.84283 -2.79198 0
      vertex 3.84283 -2.79198 35
    endloop
  endfacet
  facet normal 0.743146 0.669129 0
    outer loop
      vertex 3.17837 3.52994 0
      vertex 3.17837 3.52994 35
      vertex 3.84283 2.79198 35
    endloop
  endfacet
  facet normal 0.743146 0.669129 0
    outer loop
      vertex 3.17837 3.52994 0
      vertex 3.84283 2.79198 35
      vertex 3.84283 2.79198 0
    endloop
  endfacet
  facet normal 0 0 1
    outer loop
      vertex 3.3 0 35
      vertex 3.84283 -2.79198 35
      vertex 4.33934 -1.932 35
    endloop
  endfacet
  facet normal 0 0 1
    outer loop
      vertex 3.3 0 35
      vertex 4.33934 -1.932 35
      vertex 4.6462 -0.98758 35
    endloop
  endfacet
  facet normal 0 0 1
    outer loop
      vertex 3.3 0 35
      vertex 4.33934 1.932 35
      vertex 3.84283 2.79198 35
    endloop
  endfacet
  facet normal 0 0 1
    outer loop
      vertex 3.3 0 35
      vertex 4.6462 -0.98758 35
      vertex 4.75 0 35
    endloop
  endfacet
  facet normal 0 0 1
    outer loop
      vertex 3.3 0 35
      vertex 4.6462 0.98758 35
      vertex 4.33934 1.932 35
    endloop
  endfacet
  facet normal 0 0 1
    outer loop
      vertex 3.3 0 35
      vertex 4.75 0 35
      vertex 4.6462 0.98758 35
    endloop
  endfacet
  facet normal 0.866025 -0.5 0
    outer loop
      vertex 3.84283 -2.79198 0
      vertex 4.33934 -1.932 0
      vertex 3.84283 -2.79198 35
    endloop
  endfacet
  facet normal 0.866025 -0.5 0
    outer loop
      vertex 3.84283 -2.79198 35
      vertex 4.33934 -1.932 0
      vertex 4.33934 -1.932 35
    endloop
  endfacet
  facet normal 0.866025 0.5 0
    outer loop
      vertex 3.84283 2.79198 0
      vertex 3.84283 2.79198 35
      vertex 4.33934 1.932 35
    endloop
  endfacet
  facet normal 0.866025 0.5 0
    outer loop
      vertex 3.84283 2.79198 0
      vertex 4.33934 1.932 35
      vertex 4.33934 1.932 0
    endloop
  endfacet
  facet normal 0.951057 -0.309016 0
    outer loop
      vertex 4.33934 -1.932 0
      vertex 4.6462 -0.98758 0
      vertex 4.33934 -1.932 35
    endloop
  endfacet
  facet normal 0.951057 -0.309016 0
    outer loop
      vertex 4.33934 -1.932 35
      vertex 4.6462 -0.98758 0
      vertex 4.6462 -0.98758 35
    endloop
  endfacet
  facet normal 0.951057 0.309016 0
    outer loop
      vertex 4.33934 1.932 0
      vertex 4.33934 1.932 35
      vertex 4.6462 0.98758 35
    endloop
  endfacet
  facet normal 0.951057 0.309016 0
    outer loop
      vertex 4.33934 1.932 0
      vertex 4.6462 0.98758 35
      vertex 4.6462 0.98758 0
    endloop
  endfacet
  facet normal 0.994522 -0.10453 0
    outer loop
      vertex 4.6462 -0.98758 0
      vertex 4.75 0 0
      vertex 4.6462 -0.98758 35
    endloop
  endfacet
  facet normal 0.994522 -0.10453 0
    outer loop
      vertex 4.6462 -0.98758 35
      vertex 4.75 0 0
      vertex 4.75 0 35
    endloop
  endfacet
  facet normal 0.994522 0.10453 0
    outer loop
      vertex 4.6462 0.98758 0
      vertex 4.6462 0.98758 35
      vertex 4.75 0 35
    endloop
  endfacet
  facet normal 0.994522 0.10453 0
    outer loop
      vertex 4.6462 0.98758 0
      vertex 4.75 0 35
      vertex 4.75 0 0
    endloop
  endfacet
endsolid model
