solid model
  facet normal -1 0 0
    outer loop
      vertex 194 -0.438665 -12.5276
      vertex 194 0 -11
      vertex 194 0 -12.5
    endloop
  endfacet
  facet normal 0 0.062794 -0.998027
    outer loop
      vertex 194 -0.438665 -12.5276
      vertex 194 0 -12.5
      vertex 694 0 -12.5
    endloop
  endfacet
  facet normal 0 0.062794 -0.998027
    outer loop
      vertex 194 -0.438665 -12.5276
      vertex 694 0 -12.5
      vertex 694 -0.438665 -12.5276
    endloop
  endfacet
  facet normal -1 0 0
    outer loop
      vertex 194 -0.438665 -19.4724
      vertex 194 0 -19.5
      vertex 194 0 -21
    endloop
  endfacet
  facet normal 0 0.062794 0.998027
    outer loop
      vertex 194 -0.438665 -19.4724
      vertex 694 -0.438665 -19.4724
      vertex 194 0 -19.5
    endloop
  endfacet
  facet normal -0 0.187468 0.982271
    outer loop
      vertex 194 -0.438665 -19.4724
      vertex 694 -0.870414 -19.39
      vertex 694 -0.438665 -19.4724
    endloop
  endfacet
  facet normal -1 0 0
    outer loop
      vertex 194 -0.626666 -11.0394
      vertex 194 0 -11
      vertex 194 -0.438665 -12.5276
    endloop
  endfacet
  facet normal 0 -0.0627485 0.998029
    outer loop
      vertex 194 -0.626666 -11.0394
      vertex 694 -0.626666 -11.0394
      vertex 194 0 -11
    endloop
  endfacet
  facet normal 0 -0.187446 0.982275
    outer loop
      vertex 194 -0.626666 -11.0394
      vertex 694 -1.24345 -11.1571
      vertex 694 -0.626666 -11.0394
    endloop
  endfacet
  facet normal -1 0 0
    outer loop
      vertex 194 -0.626666 -20.9606
      vertex 194 -0.438665 -19.4724
      vertex 194 0 -21
    endloop
  endfacet
  facet normal -0 -0.0627485 -0.998029
    outer loop
      vertex 194 -0.626666 -20.9606
      vertex 194 0 -21
      vertex 694 0 -21
    endloop
  endfacet
  facet normal 0 -0.0627485 -0.998029
    outer loop
      vertex 194 -0.626666 -20.9606
      vertex 694 0 -21
      vertex 694 -0.626666 -20.9606
    endloop
  endfacet
  facet normal 0 0.187468 -0.982271
    outer loop
      vertex 194 -0.870414 -12.61
      vertex 194 -0.438665 -12.5276
      vertex 694 -0.438665 -12.5276
    endloop
  endfacet
  facet normal -1 0 0
    outer loop
      vertex 194 -0.870414 -12.61
      vertex 194 -0.626666 -11.0394
      vertex 194 -0.438665 -12.5276
    endloop
  endfacet
  facet normal 0 0.187468 -0.982271
    outer loop
      vertex 194 -0.870414 -12.61
      vertex 694 -0.438665 -12.5276
      vertex 694 -0.870414 -12.61
    endloop
  endfacet
  facet normal -1 0 0
    outer loop
      vertex 194 -0.870414 -19.39
      vertex 194 -0.438665 -19.4724
      vertex 194 -0.626666 -20.9606
    endloop
  endfacet
  facet normal 0 0.187468 0.982271
    outer loop
      vertex 194 -0.870414 -19.39
      vertex 694 -0.870414 -19.39
      vertex 194 -0.438665 -19.4724
    endloop
  endfacet
  facet normal -0 0.308972 0.951071
    outer loop
      vertex 194 -0.870414 -19.39
      vertex 694 -1.28843 -19.2542
      vertex 694 -0.870414 -19.39
    endloop
  endfacet
  facet normal -1 0 0
    outer loop
      vertex 194 -1.24345 -11.1571
      vertex 194 -0.626666 -11.0394
      vertex 194 -0.870414 -12.61
    endloop
  endfacet
  facet normal 0 -0.187446 0.982275
    outer loop
      vertex 194 -1.24345 -11.1571
      vertex 694 -1.24345 -11.1571
      vertex 194 -0.626666 -11.0394
    endloop
  endfacet
  facet normal 0 -0.30897 0.951072
    outer loop
      vertex 194 -1.24345 -11.1571
      vertex 694 -1.84062 -11.3511
      vertex 694 -1.24345 -11.1571
    endloop
  endfacet
  facet normal -0 -0.187446 -0.982275
    outer loop
      vertex 194 -1.24345 -20.8429
      vertex 194 -0.626666 -20.9606
      vertex 694 -0.626666 -20.9606
    endloop
  endfacet
  facet normal -1 0 0
    outer loop
      vertex 194 -1.24345 -20.8429
      vertex 194 -0.870414 -19.39
      vertex 194 -0.626666 -20.9606
    endloop
  endfacet
  facet normal 0 -0.187446 -0.982275
    outer loop
      vertex 194 -1.24345 -20.8429
      vertex 694 -0.626666 -20.9606
      vertex 694 -1.24345 -20.8429
    endloop
  endfacet
  facet normal 0 0.308972 -0.951071
    outer loop
      vertex 194 -1.28843 -12.7458
      vertex 194 -0.870414 -12.61
      vertex 694 -0.870414 -12.61
    endloop
  endfacet
  facet normal -1 0 0
    outer loop
      vertex 194 -1.28843 -12.7458
      vertex 194 -1.24345 -11.1571
      vertex 194 -0.870414 -12.61
    endloop
  endfacet
  facet normal 0 0.308972 -0.951071
    outer loop
      vertex 194 -1.28843 -12.7458
      vertex 694 -0.870414 -12.61
      vertex 694 -1.28843 -12.7458
    endloop
  endfacet
  facet normal -1 0 0
    outer loop
      vertex 194 -1.28843 -19.2542
      vertex 194 -0.870414 -19.39
      vertex 194 -1.24345 -20.8429
    endloop
  endfacet
  facet normal 0 0.308972 0.951071
    outer loop
      vertex 194 -1.28843 -19.2542
      vertex 694 -1.28843 -19.2542
      vertex 194 -0.870414 -19.39
    endloop
  endfacet
  facet normal -0 0.42569 0.904869
    outer loop
      vertex 194 -1.28843 -19.2542
      vertex 694 -1.68614 -19.0671
      vertex 694 -1.28843 -19.2542
    endloop
  endfacet
  facet normal 0 0.42569 -0.904869
    outer loop
      vertex 194 -1.68614 -12.9329
      vertex 194 -1.28843 -12.7458
      vertex 694 -1.28843 -12.7458
    endloop
  endfacet
  facet normal 0 0.42569 -0.904869
    outer loop
      vertex 194 -1.68614 -12.9329
      vertex 694 -1.28843 -12.7458
      vertex 694 -1.68614 -12.9329
    endloop
  endfacet
  facet normal 0 0.42569 0.904869
    outer loop
      vertex 194 -1.68614 -19.0671
      vertex 694 -1.68614 -19.0671
      vertex 194 -1.28843 -19.2542
    endloop
  endfacet
  facet normal -0 0.535805 0.844342
    outer loop
      vertex 194 -1.68614 -19.0671
      vertex 694 -2.05725 -18.8316
      vertex 694 -1.68614 -19.0671
    endloop
  endfacet
  facet normal -1 0 0
    outer loop
      vertex 194 -1.84062 -11.3511
      vertex 194 -1.24345 -11.1571
      vertex 194 -1.28843 -12.7458
    endloop
  endfacet
  facet normal -1 0 0
    outer loop
      vertex 194 -1.84062 -11.3511
      vertex 194 -1.28843 -12.7458
      vertex 194 -1.68614 -12.9329
    endloop
  endfacet
  facet normal 0 -0.30897 0.951072
    outer loop
      vertex 194 -1.84062 -11.3511
      vertex 694 -1.84062 -11.3511
      vertex 194 -1.24345 -11.1571
    endloop
  endfacet
  facet normal 0 -0.425843 0.904797
    outer loop
      vertex 194 -1.84062 -11.3511
      vertex 694 -2.40877 -11.6185
      vertex 694 -1.84062 -11.3511
    endloop
  endfacet
  facet normal -0 -0.30897 -0.951072
    outer loop
      vertex 194 -1.84062 -20.6489
      vertex 194 -1.24345 -20.8429
      vertex 694 -1.24345 -20.8429
    endloop
  endfacet
  facet normal -1 0 0
    outer loop
      vertex 194 -1.84062 -20.6489
      vertex 194 -1.28843 -19.2542
      vertex 194 -1.24345 -20.8429
    endloop
  endfacet
  facet normal -1 -0 0
    outer loop
      vertex 194 -1.84062 -20.6489
      vertex 194 -1.68614 -19.0671
      vertex 194 -1.28843 -19.2542
    endloop
  endfacet
  facet normal 0 -0.30897 -0.951072
    outer loop
      vertex 194 -1.84062 -20.6489
      vertex 694 -1.24345 -20.8429
      vertex 694 -1.84062 -20.6489
    endloop
  endfacet
  facet normal 0 0.535805 -0.844342
    outer loop
      vertex 194 -2.05725 -13.1684
      vertex 194 -1.68614 -12.9329
      vertex 694 -1.68614 -12.9329
    endloop
  endfacet
  facet normal 0 0.535805 -0.844342
    outer loop
      vertex 194 -2.05725 -13.1684
      vertex 694 -1.68614 -12.9329
      vertex 694 -2.05725 -13.1684
    endloop
  endfacet
  facet normal 0 0.535805 0.844342
    outer loop
      vertex 194 -2.05725 -18.8316
      vertex 694 -2.05725 -18.8316
      vertex 194 -1.68614 -19.0671
    endloop
  endfacet
  facet normal -0 0.637473 0.770473
    outer loop
      vertex 194 -2.05725 -18.8316
      vertex 694 -2.39591 -18.5514
      vertex 694 -2.05725 -18.8316
    endloop
  endfacet
  facet normal 0 0.637473 -0.770473
    outer loop
      vertex 194 -2.39591 -13.4486
      vertex 194 -2.05725 -13.1684
      vertex 694 -2.05725 -13.1684
    endloop
  endfacet
  facet normal 0 0.637473 -0.770473
    outer loop
      vertex 194 -2.39591 -13.4486
      vertex 694 -2.05725 -13.1684
      vertex 694 -2.39591 -13.4486
    endloop
  endfacet
  facet normal 0 0.728952 -0.684564
    outer loop
      vertex 194 -2.39591 -13.4486
      vertex 694 -2.39591 -13.4486
      vertex 694 -2.6968 -13.769
    endloop
  endfacet
  facet normal 0 0.637473 0.770473
    outer loop
      vertex 194 -2.39591 -18.5514
      vertex 694 -2.39591 -18.5514
      vertex 194 -2.05725 -18.8316
    endloop
  endfacet
  facet normal -1 0 0
    outer loop
      vertex 194 -2.40877 -11.6185
      vertex 194 -1.68614 -12.9329
      vertex 194 -2.05725 -13.1684
    endloop
  endfacet
  facet normal -1 0 0
    outer loop
      vertex 194 -2.40877 -11.6185
      vertex 194 -1.84062 -11.3511
      vertex 194 -1.68614 -12.9329
    endloop
  endfacet
  facet normal 0 -0.425843 0.904797
    outer loop
      vertex 194 -2.40877 -11.6185
      vertex 694 -2.40877 -11.6185
      vertex 194 -1.84062 -11.3511
    endloop
  endfacet
  facet normal 0 -0.53577 0.844364
    outer loop
      vertex 194 -2.40877 -11.6185
      vertex 694 -2.93893 -11.9549
      vertex 694 -2.40877 -11.6185
    endloop
  endfacet
  facet normal -1 0 0
    outer loop
      vertex 194 -2.40877 -20.3815
      vertex 194 -1.68614 -19.0671
      vertex 194 -1.84062 -20.6489
    endloop
  endfacet
  facet normal -0 -0.425843 -0.904797
    outer loop
      vertex 194 -2.40877 -20.3815
      vertex 194 -1.84062 -20.6489
      vertex 694 -1.84062 -20.6489
    endloop
  endfacet
  facet normal -1 -0 0
    outer loop
      vertex 194 -2.40877 -20.3815
      vertex 194 -2.05725 -18.8316
      vertex 194 -1.68614 -19.0671
    endloop
  endfacet
  facet normal 0 -0.425843 -0.904797
    outer loop
      vertex 194 -2.40877 -20.3815
      vertex 694 -1.84062 -20.6489
      vertex 694 -2.40877 -20.3815
    endloop
  endfacet
  facet normal 0 0.728952 -0.684564
    outer loop
      vertex 194 -2.6968 -13.769
      vertex 194 -2.39591 -13.4486
      vertex 694 -2.6968 -13.769
    endloop
  endfacet
  facet normal 0 0.809026 -0.587773
    outer loop
      vertex 194 -2.6968 -13.769
      vertex 694 -2.6968 -13.769
      vertex 694 -2.95515 -14.1246
    endloop
  endfacet
  facet normal 0 0.728952 0.684564
    outer loop
      vertex 194 -2.6968 -18.231
      vertex 694 -2.39591 -18.5514
      vertex 194 -2.39591 -18.5514
    endloop
  endfacet
  facet normal 0 0.728952 0.684564
    outer loop
      vertex 194 -2.6968 -18.231
      vertex 694 -2.6968 -18.231
      vertex 694 -2.39591 -18.5514
    endloop
  endfacet
  facet normal -1 0 0
    outer loop
      vertex 194 -2.93893 -11.9549
      vertex 194 -2.05725 -13.1684
      vertex 194 -2.39591 -13.4486
    endloop
  endfacet
  facet normal -1 0 0
    outer loop
      vertex 194 -2.93893 -11.9549
      vertex 194 -2.40877 -11.6185
      vertex 194 -2.05725 -13.1684
    endloop
  endfacet
  facet normal 0 -0.53577 0.844364
    outer loop
      vertex 194 -2.93893 -11.9549
      vertex 694 -2.93893 -11.9549
      vertex 194 -2.40877 -11.6185
    endloop
  endfacet
  facet normal 0 -0.637478 0.770468
    outer loop
      vertex 194 -2.93893 -11.9549
      vertex 694 -3.42274 -12.3552
      vertex 694 -2.93893 -11.9549
    endloop
  endfacet
  facet normal -1 0 0
    outer loop
      vertex 194 -2.93893 -20.0451
      vertex 194 -2.05725 -18.8316
      vertex 194 -2.40877 -20.3815
    endloop
  endfacet
  facet normal -1 -0 0
    outer loop
      vertex 194 -2.93893 -20.0451
      vertex 194 -2.39591 -18.5514
      vertex 194 -2.05725 -18.8316
    endloop
  endfacet
  facet normal -0 -0.53577 -0.844364
    outer loop
      vertex 194 -2.93893 -20.0451
      vertex 194 -2.40877 -20.3815
      vertex 694 -2.40877 -20.3815
    endloop
  endfacet
  facet normal 0 -0.53577 -0.844364
    outer loop
      vertex 194 -2.93893 -20.0451
      vertex 694 -2.40877 -20.3815
      vertex 694 -2.93893 -20.0451
    endloop
  endfacet
  facet normal 0 0.809026 -0.587773
    outer loop
      vertex 194 -2.95515 -14.1246
      vertex 194 -2.6968 -13.769
      vertex 694 -2.95515 -14.1246
    endloop
  endfacet
  facet normal 0 0.876331 -0.481709
    outer loop
      vertex 194 -2.95515 -14.1246
      vertex 694 -2.95515 -14.1246
      vertex 694 -3.16689 -14.5098
    endloop
  endfacet
  facet normal 0 0.809026 0.587773
    outer loop
      vertex 194 -2.95515 -17.8754
      vertex 694 -2.6968 -18.231
      vertex 194 -2.6968 -18.231
    endloop
  endfacet
  facet normal 0 0.809026 0.587773
    outer loop
      vertex 194 -2.95515 -17.8754
      vertex 694 -2.95515 -17.8754
      vertex 694 -2.6968 -18.231
    endloop
  endfacet
  facet normal 0 0.876331 -0.481709
    outer loop
      vertex 194 -3.16689 -14.5098
      vertex 194 -2.95515 -14.1246
      vertex 694 -3.16689 -14.5098
    endloop
  endfacet
  facet normal 0 0.92975 -0.368191
    outer loop
      vertex 194 -3.16689 -14.5098
      vertex 694 -3.16689 -14.5098
      vertex 694 -3.3287 -14.9184
    endloop
  endfacet
  facet normal 0 0.876331 0.481709
    outer loop
      vertex 194 -3.16689 -17.4902
      vertex 694 -2.95515 -17.8754
      vertex 194 -2.95515 -17.8754
    endloop
  endfacet
  facet normal 0 0.876331 0.481709
    outer loop
      vertex 194 -3.16689 -17.4902
      vertex 694 -3.16689 -17.4902
      vertex 694 -2.95515 -17.8754
    endloop
  endfacet
  facet normal 0 0.92975 -0.368191
    outer loop
      vertex 194 -3.3287 -14.9184
      vertex 194 -3.16689 -14.5098
      vertex 694 -3.3287 -14.9184
    endloop
  endfacet
  facet normal 0 0.968598 -0.248633
    outer loop
      vertex 194 -3.3287 -14.9184
      vertex 694 -3.3287 -14.9184
      vertex 694 -3.438 -15.3442
    endloop
  endfacet
  facet normal 0 0.92975 0.368191
    outer loop
      vertex 194 -3.3287 -17.0816
      vertex 694 -3.16689 -17.4902
      vertex 194 -3.16689 -17.4902
    endloop
  endfacet
  facet normal 0 0.92975 0.368191
    outer loop
      vertex 194 -3.3287 -17.0816
      vertex 694 -3.3287 -17.0816
      vertex 694 -3.16689 -17.4902
    endloop
  endfacet
  facet normal -1 0 0
    outer loop
      vertex 194 -3.42274 -12.3552
      vertex 194 -2.39591 -13.4486
      vertex 194 -2.6968 -13.769
    endloop
  endfacet
  facet normal -1 0 0
    outer loop
      vertex 194 -3.42274 -12.3552
      vertex 194 -2.93893 -11.9549
      vertex 194 -2.39591 -13.4486
    endloop
  endfacet
  facet normal 0 -0.637478 0.770468
    outer loop
      vertex 194 -3.42274 -12.3552
      vertex 694 -3.42274 -12.3552
      vertex 194 -2.93893 -11.9549
    endloop
  endfacet
  facet normal -1 0 0
    outer loop
      vertex 194 -3.42274 -19.6448
      vertex 194 -2.39591 -18.5514
      vertex 194 -2.93893 -20.0451
    endloop
  endfacet
  facet normal -1 -0 0
    outer loop
      vertex 194 -3.42274 -19.6448
      vertex 194 -2.6968 -18.231
      vertex 194 -2.39591 -18.5514
    endloop
  endfacet
  facet normal -0 -0.637478 -0.770468
    outer loop
      vertex 194 -3.42274 -19.6448
      vertex 194 -2.93893 -20.0451
      vertex 694 -2.93893 -20.0451
    endloop
  endfacet
  facet normal 0 -0.637478 -0.770468
    outer loop
      vertex 194 -3.42274 -19.6448
      vertex 694 -2.93893 -20.0451
      vertex 694 -3.42274 -19.6448
    endloop
  endfacet
  facet normal 0 -0.728952 -0.684565
    outer loop
      vertex 194 -3.42274 -19.6448
      vertex 694 -3.42274 -19.6448
      vertex 694 -3.85257 -19.1871
    endloop
  endfacet
  facet normal 0 0.968598 -0.248633
    outer loop
      vertex 194 -3.438 -15.3442
      vertex 194 -3.3287 -14.9184
      vertex 694 -3.438 -15.3442
    endloop
  endfacet
  facet normal 0 0.992112 -0.125357
    outer loop
      vertex 194 -3.438 -15.3442
      vertex 694 -3.438 -15.3442
      vertex 694 -3.49309 -15.7802
    endloop
  endfacet
  facet normal 0 0.968598 0.248633
    outer loop
      vertex 194 -3.438 -16.6558
      vertex 694 -3.3287 -17.0816
      vertex 194 -3.3287 -17.0816
    endloop
  endfacet
  facet normal 0 0.968598 0.248633
    outer loop
      vertex 194 -3.438 -16.6558
      vertex 694 -3.438 -16.6558
      vertex 694 -3.3287 -17.0816
    endloop
  endfacet
  facet normal 0 0.992112 -0.125357
    outer loop
      vertex 194 -3.49309 -15.7802
      vertex 194 -3.438 -15.3442
      vertex 694 -3.49309 -15.7802
    endloop
  endfacet
  facet normal 0 1 -0
    outer loop
      vertex 194 -3.49309 -15.7802
      vertex 694 -3.49309 -15.7802
      vertex 694 -3.49309 -16.2198
    endloop
  endfacet
  facet normal 0 1 0
    outer loop
      vertex 194 -3.49309 -16.2198
      vertex 194 -3.49309 -15.7802
      vertex 694 -3.49309 -16.2198
    endloop
  endfacet
  facet normal 0 0.992112 0.125357
    outer loop
      vertex 194 -3.49309 -16.2198
      vertex 694 -3.438 -16.6558
      vertex 194 -3.438 -16.6558
    endloop
  endfacet
  facet normal 0 0.992112 0.125357
    outer loop
      vertex 194 -3.49309 -16.2198
      vertex 694 -3.49309 -16.2198
      vertex 694 -3.438 -16.6558
    endloop
  endfacet
  facet normal -1 0 0
    outer loop
      vertex 194 -3.85257 -12.8129
      vertex 194 -2.6968 -13.769
      vertex 194 -2.95515 -14.1246
    endloop
  endfacet
  facet normal -1 0 0
    outer loop
      vertex 194 -3.85257 -12.8129
      vertex 194 -3.42274 -12.3552
      vertex 194 -2.6968 -13.769
    endloop
  endfacet
  facet normal 0 -0.728952 0.684565
    outer loop
      vertex 194 -3.85257 -12.8129
      vertex 694 -3.42274 -12.3552
      vertex 194 -3.42274 -12.3552
    endloop
  endfacet
  facet normal 0 -0.728952 0.684565
    outer loop
      vertex 194 -3.85257 -12.8129
      vertex 694 -3.85257 -12.8129
      vertex 694 -3.42274 -12.3552
    endloop
  endfacet
  facet normal -1 0 0
    outer loop
      vertex 194 -3.85257 -19.1871
      vertex 194 -2.6968 -18.231
      vertex 194 -3.42274 -19.6448
    endloop
  endfacet
  facet normal -1 -0 0
    outer loop
      vertex 194 -3.85257 -19.1871
      vertex 194 -2.95515 -17.8754
      vertex 194 -2.6968 -18.231
    endloop
  endfacet
  facet normal 0 -0.728952 -0.684565
    outer loop
      vertex 194 -3.85257 -19.1871
      vertex 194 -3.42274 -19.6448
      vertex 694 -3.85257 -19.1871
    endloop
  endfacet
  facet normal 0 -0.809027 -0.587771
    outer loop
      vertex 194 -3.85257 -19.1871
      vertex 694 -3.85257 -19.1871
      vertex 694 -4.22164 -18.6791
    endloop
  endfacet
  facet normal -1 0 0
    outer loop
      vertex 194 -4.22164 -13.3209
      vertex 194 -2.95515 -14.1246
      vertex 194 -3.16689 -14.5098
    endloop
  endfacet
  facet normal -1 0 0
    outer loop
      vertex 194 -4.22164 -13.3209
      vertex 194 -3.85257 -12.8129
      vertex 194 -2.95515 -14.1246
    endloop
  endfacet
  facet normal 0 -0.809027 0.587771
    outer loop
      vertex 194 -4.22164 -13.3209
      vertex 694 -3.85257 -12.8129
      vertex 194 -3.85257 -12.8129
    endloop
  endfacet
  facet normal 0 -0.809027 0.587771
    outer loop
      vertex 194 -4.22164 -13.3209
      vertex 694 -4.22164 -13.3209
      vertex 694 -3.85257 -12.8129
    endloop
  endfacet
  facet normal -1 0 0
    outer loop
      vertex 194 -4.22164 -18.6791
      vertex 194 -2.95515 -17.8754
      vertex 194 -3.85257 -19.1871
    endloop
  endfacet
  facet normal -1 -0 0
    outer loop
      vertex 194 -4.22164 -18.6791
      vertex 194 -3.16689 -17.4902
      vertex 194 -2.95515 -17.8754
    endloop
  endfacet
  facet normal 0 -0.809027 -0.587771
    outer loop
      vertex 194 -4.22164 -18.6791
      vertex 194 -3.85257 -19.1871
      vertex 694 -4.22164 -18.6791
    endloop
  endfacet
  facet normal 0 -0.876297 -0.481772
    outer loop
      vertex 194 -4.22164 -18.6791
      vertex 694 -4.22164 -18.6791
      vertex 694 -4.52413 -18.1289
    endloop
  endfacet
  facet normal -1 0 0
    outer loop
      vertex 194 -4.52413 -13.8711
      vertex 194 -3.16689 -14.5098
      vertex 194 -3.3287 -14.9184
    endloop
  endfacet
  facet normal -1 0 0
    outer loop
      vertex 194 -4.52413 -13.8711
      vertex 194 -4.22164 -13.3209
      vertex 194 -3.16689 -14.5098
    endloop
  endfacet
  facet normal 0 -0.876297 0.481772
    outer loop
      vertex 194 -4.52413 -13.8711
      vertex 694 -4.22164 -13.3209
      vertex 194 -4.22164 -13.3209
    endloop
  endfacet
  facet normal 0 -0.876297 0.481772
    outer loop
      vertex 194 -4.52413 -13.8711
      vertex 694 -4.52413 -13.8711
      vertex 694 -4.22164 -13.3209
    endloop
  endfacet
  facet normal -1 0 0
    outer loop
      vertex 194 -4.52413 -18.1289
      vertex 194 -3.16689 -17.4902
      vertex 194 -4.22164 -18.6791
    endloop
  endfacet
  facet normal -1 -0 0
    outer loop
      vertex 194 -4.52413 -18.1289
      vertex 194 -3.3287 -17.0816
      vertex 194 -3.16689 -17.4902
    endloop
  endfacet
  facet normal 0 -0.876297 -0.481772
    outer loop
      vertex 194 -4.52413 -18.1289
      vertex 194 -4.22164 -18.6791
      vertex 694 -4.52413 -18.1289
    endloop
  endfacet
  facet normal 0 -0.929773 -0.368135
    outer loop
      vertex 194 -4.52413 -18.1289
      vertex 694 -4.52413 -18.1289
      vertex 694 -4.75528 -17.5451
    endloop
  endfacet
  facet normal -1 0 0
    outer loop
      vertex 194 -4.75528 -14.4549
      vertex 194 -3.3287 -14.9184
      vertex 194 -3.438 -15.3442
    endloop
  endfacet
  facet normal -1 0 0
    outer loop
      vertex 194 -4.75528 -14.4549
      vertex 194 -4.52413 -13.8711
      vertex 194 -3.3287 -14.9184
    endloop
  endfacet
  facet normal 0 -0.929773 0.368135
    outer loop
      vertex 194 -4.75528 -14.4549
      vertex 694 -4.52413 -13.8711
      vertex 194 -4.52413 -13.8711
    endloop
  endfacet
  facet normal 0 -0.929773 0.368135
    outer loop
      vertex 194 -4.75528 -14.4549
      vertex 694 -4.75528 -14.4549
      vertex 694 -4.52413 -13.8711
    endloop
  endfacet
  facet normal -1 0 0
    outer loop
      vertex 194 -4.75528 -17.5451
      vertex 194 -3.3287 -17.0816
      vertex 194 -4.52413 -18.1289
    endloop
  endfacet
  facet normal -1 -0 0
    outer loop
      vertex 194 -4.75528 -17.5451
      vertex 194 -3.438 -16.6558
      vertex 194 -3.3287 -17.0816
    endloop
  endfacet
  facet normal 0 -0.929773 -0.368135
    outer loop
      vertex 194 -4.75528 -17.5451
      vertex 194 -4.52413 -18.1289
      vertex 694 -4.75528 -17.5451
    endloop
  endfacet
  facet normal 0 -0.968583 -0.248691
    outer loop
      vertex 194 -4.75528 -17.5451
      vertex 694 -4.75528 -17.5451
      vertex 694 -4.91144 -16.9369
    endloop
  endfacet
  facet normal -1 0 0
    outer loop
      vertex 194 -4.91144 -15.0631
      vertex 194 -3.438 -15.3442
      vertex 194 -3.49309 -15.7802
    endloop
  endfacet
  facet normal -1 0 0
    outer loop
      vertex 194 -4.91144 -15.0631
      vertex 194 -4.75528 -14.4549
      vertex 194 -3.438 -15.3442
    endloop
  endfacet
  facet normal 0 -0.968583 0.248691
    outer loop
      vertex 194 -4.91144 -15.0631
      vertex 694 -4.75528 -14.4549
      vertex 194 -4.75528 -14.4549
    endloop
  endfacet
  facet normal 0 -0.968583 0.248691
    outer loop
      vertex 194 -4.91144 -15.0631
      vertex 694 -4.91144 -15.0631
      vertex 694 -4.75528 -14.4549
    endloop
  endfacet
  facet normal -1 0 0
    outer loop
      vertex 194 -4.91144 -16.9369
      vertex 194 -3.438 -16.6558
      vertex 194 -4.75528 -17.5451
    endloop
  endfacet
  facet normal -1 -0 0
    outer loop
      vertex 194 -4.91144 -16.9369
      vertex 194 -3.49309 -16.2198
      vertex 194 -3.438 -16.6558
    endloop
  endfacet
  facet normal 0 -0.968583 -0.248691
    outer loop
      vertex 194 -4.91144 -16.9369
      vertex 194 -4.75528 -17.5451
      vertex 694 -4.91144 -16.9369
    endloop
  endfacet
  facet normal 0 -0.992115 -0.125332
    outer loop
      vertex 194 -4.91144 -16.9369
      vertex 694 -4.91144 -16.9369
      vertex 694 -4.99013 -16.314
    endloop
  endfacet
  facet normal -1 0 0
    outer loop
      vertex 194 -4.99013 -15.686
      vertex 194 -4.91144 -15.0631
      vertex 194 -3.49309 -15.7802
    endloop
  endfacet
  facet normal 0 -0.992115 0.125332
    outer loop
      vertex 194 -4.99013 -15.686
      vertex 694 -4.91144 -15.0631
      vertex 194 -4.91144 -15.0631
    endloop
  endfacet
  facet normal 0 -0.992115 0.125332
    outer loop
      vertex 194 -4.99013 -15.686
      vertex 694 -4.99013 -15.686
      vertex 694 -4.91144 -15.0631
    endloop
  endfacet
  facet normal -1 -0 0
    outer loop
      vertex 194 -4.99013 -16.314
      vertex 194 -3.49309 -15.7802
      vertex 194 -3.49309 -16.2198
    endloop
  endfacet
  facet normal -1 0 0
    outer loop
      vertex 194 -4.99013 -16.314
      vertex 194 -3.49309 -16.2198
      vertex 194 -4.91144 -16.9369
    endloop
  endfacet
  facet normal 0 -0.992115 -0.125332
    outer loop
      vertex 194 -4.99013 -16.314
      vertex 194 -4.91144 -16.9369
      vertex 694 -4.99013 -16.314
    endloop
  endfacet
  facet normal -1 0 0
    outer loop
      vertex 194 -4.99013 -16.314
      vertex 194 -4.99013 -15.686
      vertex 194 -3.49309 -15.7802
    endloop
  endfacet
  facet normal 0 -1 0
    outer loop
      vertex 194 -4.99013 -16.314
      vertex 694 -4.99013 -15.686
      vertex 194 -4.99013 -15.686
    endloop
  endfacet
  facet normal 0 -1 -0
    outer loop
      vertex 194 -4.99013 -16.314
      vertex 694 -4.99013 -16.314
      vertex 694 -4.99013 -15.686
    endloop
  endfacet
  facet normal 0 -0.0627485 0.998029
    outer loop
      vertex 194 0 -11
      vertex 694 -0.626666 -11.0394
      vertex 694 0 -11
    endloop
  endfacet
  facet normal 0 0.0627485 0.998029
    outer loop
      vertex 194 0 -11
      vertex 694 0 -11
      vertex 194 0.626666 -11.0394
    endloop
  endfacet
  facet normal -1 0 0
    outer loop
      vertex 194 0 -12.5
      vertex 194 0 -11
      vertex 194 0.626666 -11.0394
    endloop
  endfacet
  facet normal -0 -0.062794 -0.998027
    outer loop
      vertex 194 0 -12.5
      vertex 194 0.438665 -12.5276
      vertex 694 0.438665 -12.5276
    endloop
  endfacet
  facet normal -1 0 0
    outer loop
      vertex 194 0 -12.5
      vertex 194 0.626666 -11.0394
      vertex 194 0.438665 -12.5276
    endloop
  endfacet
  facet normal 0 -0.062794 -0.998027
    outer loop
      vertex 194 0 -12.5
      vertex 694 0.438665 -12.5276
      vertex 694 0 -12.5
    endloop
  endfacet
  facet normal -0 0.062794 0.998027
    outer loop
      vertex 194 0 -19.5
      vertex 694 -0.438665 -19.4724
      vertex 694 0 -19.5
    endloop
  endfacet
  facet normal 0 -0.062794 0.998027
    outer loop
      vertex 194 0 -19.5
      vertex 694 0 -19.5
      vertex 194 0.438665 -19.4724
    endloop
  endfacet
  facet normal -1 0 0
    outer loop
      vertex 194 0 -21
      vertex 194 0 -19.5
      vertex 194 0.438665 -19.4724
    endloop
  endfacet
  facet normal -1 0 0
    outer loop
      vertex 194 0 -21
      vertex 194 0.438665 -19.4724
      vertex 194 0.626666 -20.9606
    endloop
  endfacet
  facet normal 0 0.0627485 -0.998029
    outer loop
      vertex 194 0 -21
      vertex 194 0.626666 -20.9606
      vertex 694 0.626666 -20.9606
    endloop
  endfacet
  facet normal 0 0.0627485 -0.998029
    outer loop
      vertex 194 0 -21
      vertex 694 0.626666 -20.9606
      vertex 694 0 -21
    endloop
  endfacet
  facet normal -1 0 0
    outer loop
      vertex 194 0.438665 -12.5276
      vertex 194 0.626666 -11.0394
      vertex 194 0.870414 -12.61
    endloop
  endfacet
  facet normal -0 -0.187468 -0.982271
    outer loop
      vertex 194 0.438665 -12.5276
      vertex 194 0.870414 -12.61
      vertex 694 0.870414 -12.61
    endloop
  endfacet
  facet normal 0 -0.187468 -0.982271
    outer loop
      vertex 194 0.438665 -12.5276
      vertex 694 0.870414 -12.61
      vertex 694 0.438665 -12.5276
    endloop
  endfacet
  facet normal -1 0 0
    outer loop
      vertex 194 0.438665 -19.4724
      vertex 194 0.870414 -19.39
      vertex 194 0.626666 -20.9606
    endloop
  endfacet
  facet normal 0 -0.062794 0.998027
    outer loop
      vertex 194 0.438665 -19.4724
      vertex 694 0 -19.5
      vertex 694 0.438665 -19.4724
    endloop
  endfacet
  facet normal 0 -0.187468 0.982271
    outer loop
      vertex 194 0.438665 -19.4724
      vertex 694 0.438665 -19.4724
      vertex 194 0.870414 -19.39
    endloop
  endfacet
  facet normal -1 0 0
    outer loop
      vertex 194 0.626666 -11.0394
      vertex 194 1.24345 -11.1571
      vertex 194 0.870414 -12.61
    endloop
  endfacet
  facet normal -0 0.0627485 0.998029
    outer loop
      vertex 194 0.626666 -11.0394
      vertex 694 0 -11
      vertex 694 0.626666 -11.0394
    endloop
  endfacet
  facet normal 0 0.187446 0.982275
    outer loop
      vertex 194 0.626666 -11.0394
      vertex 694 0.626666 -11.0394
      vertex 194 1.24345 -11.1571
    endloop
  endfacet
  facet normal -1 0 0
    outer loop
      vertex 194 0.626666 -20.9606
      vertex 194 0.870414 -19.39
      vertex 194 1.24345 -20.8429
    endloop
  endfacet
  facet normal 0 0.187446 -0.982275
    outer loop
      vertex 194 0.626666 -20.9606
      vertex 194 1.24345 -20.8429
      vertex 694 1.24345 -20.8429
    endloop
  endfacet
  facet normal 0 0.187446 -0.982275
    outer loop
      vertex 194 0.626666 -20.9606
      vertex 694 1.24345 -20.8429
      vertex 694 0.626666 -20.9606
    endloop
  endfacet
  facet normal -1 0 0
    outer loop
      vertex 194 0.870414 -12.61
      vertex 194 1.24345 -11.1571
      vertex 194 1.28843 -12.7458
    endloop
  endfacet
  facet normal -0 -0.308972 -0.951071
    outer loop
      vertex 194 0.870414 -12.61
      vertex 194 1.28843 -12.7458
      vertex 694 1.28843 -12.7458
    endloop
  endfacet
  facet normal 0 -0.308972 -0.951071
    outer loop
      vertex 194 0.870414 -12.61
      vertex 694 1.28843 -12.7458
      vertex 694 0.870414 -12.61
    endloop
  endfacet
  facet normal -1 0 0
    outer loop
      vertex 194 0.870414 -19.39
      vertex 194 1.28843 -19.2542
      vertex 194 1.24345 -20.8429
    endloop
  endfacet
  facet normal 0 -0.187468 0.982271
    outer loop
      vertex 194 0.870414 -19.39
      vertex 694 0.438665 -19.4724
      vertex 694 0.870414 -19.39
    endloop
  endfacet
  facet normal 0 -0.308972 0.951071
    outer loop
      vertex 194 0.870414 -19.39
      vertex 694 0.870414 -19.39
      vertex 194 1.28843 -19.2542
    endloop
  endfacet
  facet normal -1 0 0
    outer loop
      vertex 194 1.24345 -11.1571
      vertex 194 1.84062 -11.3511
      vertex 194 1.28843 -12.7458
    endloop
  endfacet
  facet normal -0 0.187446 0.982275
    outer loop
      vertex 194 1.24345 -11.1571
      vertex 694 0.626666 -11.0394
      vertex 694 1.24345 -11.1571
    endloop
  endfacet
  facet normal 0 0.30897 0.951072
    outer loop
      vertex 194 1.24345 -11.1571
      vertex 694 1.24345 -11.1571
      vertex 194 1.84062 -11.3511
    endloop
  endfacet
  facet normal -1 0 0
    outer loop
      vertex 194 1.24345 -20.8429
      vertex 194 1.28843 -19.2542
      vertex 194 1.84062 -20.6489
    endloop
  endfacet
  facet normal 0 0.30897 -0.951072
    outer loop
      vertex 194 1.24345 -20.8429
      vertex 194 1.84062 -20.6489
      vertex 694 1.84062 -20.6489
    endloop
  endfacet
  facet normal 0 0.30897 -0.951072
    outer loop
      vertex 194 1.24345 -20.8429
      vertex 694 1.84062 -20.6489
      vertex 694 1.24345 -20.8429
    endloop
  endfacet
  facet normal -0 -0.42569 -0.904869
    outer loop
      vertex 194 1.28843 -12.7458
      vertex 194 1.68614 -12.9329
      vertex 694 1.68614 -12.9329
    endloop
  endfacet
  facet normal -1 0 0
    outer loop
      vertex 194 1.28843 -12.7458
      vertex 194 1.84062 -11.3511
      vertex 194 1.68614 -12.9329
    endloop
  endfacet
  facet normal 0 -0.42569 -0.904869
    outer loop
      vertex 194 1.28843 -12.7458
      vertex 694 1.68614 -12.9329
      vertex 694 1.28843 -12.7458
    endloop
  endfacet
  facet normal -1 0 0
    outer loop
      vertex 194 1.28843 -19.2542
      vertex 194 1.68614 -19.0671
      vertex 194 1.84062 -20.6489
    endloop
  endfacet
  facet normal 0 -0.308972 0.951071
    outer loop
      vertex 194 1.28843 -19.2542
      vertex 694 0.870414 -19.39
      vertex 694 1.28843 -19.2542
    endloop
  endfacet
  facet normal 0 -0.42569 0.904869
    outer loop
      vertex 194 1.28843 -19.2542
      vertex 694 1.28843 -19.2542
      vertex 194 1.68614 -19.0671
    endloop
  endfacet
  facet normal -1 -0 0
    outer loop
      vertex 194 1.68614 -12.9329
      vertex 194 1.84062 -11.3511
      vertex 194 2.40877 -11.6185
    endloop
  endfacet
  facet normal -0 -0.535805 -0.844342
    outer loop
      vertex 194 1.68614 -12.9329
      vertex 194 2.05725 -13.1684
      vertex 694 2.05725 -13.1684
    endloop
  endfacet
  facet normal -1 0 0
    outer loop
      vertex 194 1.68614 -12.9329
      vertex 194 2.40877 -11.6185
      vertex 194 2.05725 -13.1684
    endloop
  endfacet
  facet normal 0 -0.535805 -0.844342
    outer loop
      vertex 194 1.68614 -12.9329
      vertex 694 2.05725 -13.1684
      vertex 694 1.68614 -12.9329
    endloop
  endfacet
  facet normal -1 0 0
    outer loop
      vertex 194 1.68614 -19.0671
      vertex 194 2.05725 -18.8316
      vertex 194 2.40877 -20.3815
    endloop
  endfacet
  facet normal -1 0 0
    outer loop
      vertex 194 1.68614 -19.0671
      vertex 194 2.40877 -20.3815
      vertex 194 1.84062 -20.6489
    endloop
  endfacet
  facet normal 0 -0.42569 0.904869
    outer loop
      vertex 194 1.68614 -19.0671
      vertex 694 1.28843 -19.2542
      vertex 694 1.68614 -19.0671
    endloop
  endfacet
  facet normal 0 -0.535805 0.844342
    outer loop
      vertex 194 1.68614 -19.0671
      vertex 694 1.68614 -19.0671
      vertex 194 2.05725 -18.8316
    endloop
  endfacet
  facet normal -0 0.30897 0.951072
    outer loop
      vertex 194 1.84062 -11.3511
      vertex 694 1.24345 -11.1571
      vertex 694 1.84062 -11.3511
    endloop
  endfacet
  facet normal 0 0.425843 0.904797
    outer loop
      vertex 194 1.84062 -11.3511
      vertex 694 1.84062 -11.3511
      vertex 194 2.40877 -11.6185
    endloop
  endfacet
  facet normal 0 0.425843 -0.904797
    outer loop
      vertex 194 1.84062 -20.6489
      vertex 194 2.40877 -20.3815
      vertex 694 2.40877 -20.3815
    endloop
  endfacet
  facet normal 0 0.425843 -0.904797
    outer loop
      vertex 194 1.84062 -20.6489
      vertex 694 2.40877 -20.3815
      vertex 694 1.84062 -20.6489
    endloop
  endfacet
  facet normal -0 -0.637473 -0.770473
    outer loop
      vertex 194 2.05725 -13.1684
      vertex 194 2.39591 -13.4486
      vertex 694 2.39591 -13.4486
    endloop
  endfacet
  facet normal -1 -0 0
    outer loop
      vertex 194 2.05725 -13.1684
      vertex 194 2.40877 -11.6185
      vertex 194 2.93893 -11.9549
    endloop
  endfacet
  facet normal -1 0 0
    outer loop
      vertex 194 2.05725 -13.1684
      vertex 194 2.93893 -11.9549
      vertex 194 2.39591 -13.4486
    endloop
  endfacet
  facet normal 0 -0.637473 -0.770473
    outer loop
      vertex 194 2.05725 -13.1684
      vertex 694 2.39591 -13.4486
      vertex 694 2.05725 -13.1684
    endloop
  endfacet
  facet normal -1 0 0
    outer loop
      vertex 194 2.05725 -18.8316
      vertex 194 2.39591 -18.5514
      vertex 194 2.93893 -20.0451
    endloop
  endfacet
  facet normal -1 0 0
    outer loop
      vertex 194 2.05725 -18.8316
      vertex 194 2.93893 -20.0451
      vertex 194 2.40877 -20.3815
    endloop
  endfacet
  facet normal 0 -0.535805 0.844342
    outer loop
      vertex 194 2.05725 -18.8316
      vertex 694 1.68614 -19.0671
      vertex 694 2.05725 -18.8316
    endloop
  endfacet
  facet normal 0 -0.637473 0.770473
    outer loop
      vertex 194 2.05725 -18.8316
      vertex 694 2.05725 -18.8316
      vertex 194 2.39591 -18.5514
    endloop
  endfacet
  facet normal 0 -0.728952 -0.684564
    outer loop
      vertex 194 2.39591 -13.4486
      vertex 194 2.6968 -13.769
      vertex 694 2.39591 -13.4486
    endloop
  endfacet
  facet normal -1 -0 0
    outer loop
      vertex 194 2.39591 -13.4486
      vertex 194 2.93893 -11.9549
      vertex 194 3.42274 -12.3552
    endloop
  endfacet
  facet normal -1 0 0
    outer loop
      vertex 194 2.39591 -13.4486
      vertex 194 3.42274 -12.3552
      vertex 194 2.6968 -13.769
    endloop
  endfacet
  facet normal -1 0 0
    outer loop
      vertex 194 2.39591 -18.5514
      vertex 194 2.6968 -18.231
      vertex 194 3.42274 -19.6448
    endloop
  endfacet
  facet normal -1 0 0
    outer loop
      vertex 194 2.39591 -18.5514
      vertex 194 3.42274 -19.6448
      vertex 194 2.93893 -20.0451
    endloop
  endfacet
  facet normal 0 -0.637473 0.770473
    outer loop
      vertex 194 2.39591 -18.5514
      vertex 694 2.05725 -18.8316
      vertex 694 2.39591 -18.5514
    endloop
  endfacet
  facet normal 0 -0.728952 0.684564
    outer loop
      vertex 194 2.39591 -18.5514
      vertex 694 2.39591 -18.5514
      vertex 694 2.6968 -18.231
    endloop
  endfacet
  facet normal 0 -0.728952 0.684564
    outer loop
      vertex 194 2.39591 -18.5514
      vertex 694 2.6968 -18.231
      vertex 194 2.6968 -18.231
    endloop
  endfacet
  facet normal -0 0.425843 0.904797
    outer loop
      vertex 194 2.40877 -11.6185
      vertex 694 1.84062 -11.3511
      vertex 694 2.40877 -11.6185
    endloop
  endfacet
  facet normal 0 0.53577 0.844364
    outer loop
      vertex 194 2.40877 -11.6185
      vertex 694 2.40877 -11.6185
      vertex 194 2.93893 -11.9549
    endloop
  endfacet
  facet normal 0 0.53577 -0.844364
    outer loop
      vertex 194 2.40877 -20.3815
      vertex 194 2.93893 -20.0451
      vertex 694 2.93893 -20.0451
    endloop
  endfacet
  facet normal 0 0.53577 -0.844364
    outer loop
      vertex 194 2.40877 -20.3815
      vertex 694 2.93893 -20.0451
      vertex 694 2.40877 -20.3815
    endloop
  endfacet
  facet normal 0 -0.809026 -0.587773
    outer loop
      vertex 194 2.6968 -13.769
      vertex 194 2.95515 -14.1246
      vertex 694 2.6968 -13.769
    endloop
  endfacet
  facet normal -1 -0 0
    outer loop
      vertex 194 2.6968 -13.769
      vertex 194 3.42274 -12.3552
      vertex 194 3.85257 -12.8129
    endloop
  endfacet
  facet normal -1 0 0
    outer loop
      vertex 194 2.6968 -13.769
      vertex 194 3.85257 -12.8129
      vertex 194 2.95515 -14.1246
    endloop
  endfacet
  facet normal 0 -0.728952 -0.684564
    outer loop
      vertex 194 2.6968 -13.769
      vertex 694 2.6968 -13.769
      vertex 694 2.39591 -13.4486
    endloop
  endfacet
  facet normal -1 0 0
    outer loop
      vertex 194 2.6968 -18.231
      vertex 194 2.95515 -17.8754
      vertex 194 3.85257 -19.1871
    endloop
  endfacet
  facet normal -1 0 0
    outer loop
      vertex 194 2.6968 -18.231
      vertex 194 3.85257 -19.1871
      vertex 194 3.42274 -19.6448
    endloop
  endfacet
  facet normal 0 -0.809026 0.587773
    outer loop
      vertex 194 2.6968 -18.231
      vertex 694 2.6968 -18.231
      vertex 694 2.95515 -17.8754
    endloop
  endfacet
  facet normal 0 -0.809026 0.587773
    outer loop
      vertex 194 2.6968 -18.231
      vertex 694 2.95515 -17.8754
      vertex 194 2.95515 -17.8754
    endloop
  endfacet
  facet normal -0 0.53577 0.844364
    outer loop
      vertex 194 2.93893 -11.9549
      vertex 694 2.40877 -11.6185
      vertex 694 2.93893 -11.9549
    endloop
  endfacet
  facet normal 0 0.637478 0.770468
    outer loop
      vertex 194 2.93893 -11.9549
      vertex 694 2.93893 -11.9549
      vertex 194 3.42274 -12.3552
    endloop
  endfacet
  facet normal 0 0.637478 -0.770468
    outer loop
      vertex 194 2.93893 -20.0451
      vertex 194 3.42274 -19.6448
      vertex 694 3.42274 -19.6448
    endloop
  endfacet
  facet normal 0 0.637478 -0.770468
    outer loop
      vertex 194 2.93893 -20.0451
      vertex 694 3.42274 -19.6448
      vertex 694 2.93893 -20.0451
    endloop
  endfacet
  facet normal 0 -0.876331 -0.481709
    outer loop
      vertex 194 2.95515 -14.1246
      vertex 194 3.16689 -14.5098
      vertex 694 2.95515 -14.1246
    endloop
  endfacet
  facet normal -1 -0 0
    outer loop
      vertex 194 2.95515 -14.1246
      vertex 194 3.85257 -12.8129
      vertex 194 4.22164 -13.3209
    endloop
  endfacet
  facet normal -1 0 0
    outer loop
      vertex 194 2.95515 -14.1246
      vertex 194 4.22164 -13.3209
      vertex 194 3.16689 -14.5098
    endloop
  endfacet
  facet normal 0 -0.809026 -0.587773
    outer loop
      vertex 194 2.95515 -14.1246
      vertex 694 2.95515 -14.1246
      vertex 694 2.6968 -13.769
    endloop
  endfacet
  facet normal -1 0 0
    outer loop
      vertex 194 2.95515 -17.8754
      vertex 194 3.16689 -17.4902
      vertex 194 4.22164 -18.6791
    endloop
  endfacet
  facet normal -1 0 0
    outer loop
      vertex 194 2.95515 -17.8754
      vertex 194 4.22164 -18.6791
      vertex 194 3.85257 -19.1871
    endloop
  endfacet
  facet normal 0 -0.876331 0.481709
    outer loop
      vertex 194 2.95515 -17.8754
      vertex 694 2.95515 -17.8754
      vertex 694 3.16689 -17.4902
    endloop
  endfacet
  facet normal 0 -0.876331 0.481709
    outer loop
      vertex 194 2.95515 -17.8754
      vertex 694 3.16689 -17.4902
      vertex 194 3.16689 -17.4902
    endloop
  endfacet
  facet normal 0 -0.92975 -0.368191
    outer loop
      vertex 194 3.16689 -14.5098
      vertex 194 3.3287 -14.9184
      vertex 694 3.16689 -14.5098
    endloop
  endfacet
  facet normal -1 -0 0
    outer loop
      vertex 194 3.16689 -14.5098
      vertex 194 4.22164 -13.3209
      vertex 194 4.52413 -13.8711
    endloop
  endfacet
  facet normal -1 0 0
    outer loop
      vertex 194 3.16689 -14.5098
      vertex 194 4.52413 -13.8711
      vertex 194 3.3287 -14.9184
    endloop
  endfacet
  facet normal 0 -0.876331 -0.481709
    outer loop
      vertex 194 3.16689 -14.5098
      vertex 694 3.16689 -14.5098
      vertex 694 2.95515 -14.1246
    endloop
  endfacet
  facet normal -1 0 0
    outer loop
      vertex 194 3.16689 -17.4902
      vertex 194 3.3287 -17.0816
      vertex 194 4.52413 -18.1289
    endloop
  endfacet
  facet normal -1 0 0
    outer loop
      vertex 194 3.16689 -17.4902
      vertex 194 4.52413 -18.1289
      vertex 194 4.22164 -18.6791
    endloop
  endfacet
  facet normal 0 -0.92975 0.368191
    outer loop
      vertex 194 3.16689 -17.4902
      vertex 694 3.16689 -17.4902
      vertex 694 3.3287 -17.0816
    endloop
  endfacet
  facet normal 0 -0.92975 0.368191
    outer loop
      vertex 194 3.16689 -17.4902
      vertex 694 3.3287 -17.0816
      vertex 194 3.3287 -17.0816
    endloop
  endfacet
  facet normal 0 -0.968598 -0.248633
    outer loop
      vertex 194 3.3287 -14.9184
      vertex 194 3.438 -15.3442
      vertex 694 3.3287 -14.9184
    endloop
  endfacet
  facet normal -1 -0 0
    outer loop
      vertex 194 3.3287 -14.9184
      vertex 194 4.52413 -13.8711
      vertex 194 4.75528 -14.4549
    endloop
  endfacet
  facet normal -1 0 0
    outer loop
      vertex 194 3.3287 -14.9184
      vertex 194 4.75528 -14.4549
      vertex 194 3.438 -15.3442
    endloop
  endfacet
  facet normal 0 -0.92975 -0.368191
    outer loop
      vertex 194 3.3287 -14.9184
      vertex 694 3.3287 -14.9184
      vertex 694 3.16689 -14.5098
    endloop
  endfacet
  facet normal -1 0 0
    outer loop
      vertex 194 3.3287 -17.0816
      vertex 194 3.438 -16.6558
      vertex 194 4.75528 -17.5451
    endloop
  endfacet
  facet normal -1 0 0
    outer loop
      vertex 194 3.3287 -17.0816
      vertex 194 4.75528 -17.5451
      vertex 194 4.52413 -18.1289
    endloop
  endfacet
  facet normal 0 -0.968598 0.248633
    outer loop
      vertex 194 3.3287 -17.0816
      vertex 694 3.3287 -17.0816
      vertex 694 3.438 -16.6558
    endloop
  endfacet
  facet normal 0 -0.968598 0.248633
    outer loop
      vertex 194 3.3287 -17.0816
      vertex 694 3.438 -16.6558
      vertex 194 3.438 -16.6558
    endloop
  endfacet
  facet normal -0 0.637478 0.770468
    outer loop
      vertex 194 3.42274 -12.3552
      vertex 694 2.93893 -11.9549
      vertex 694 3.42274 -12.3552
    endloop
  endfacet
  facet normal 0 0.728952 0.684565
    outer loop
      vertex 194 3.42274 -12.3552
      vertex 694 3.42274 -12.3552
      vertex 694 3.85257 -12.8129
    endloop
  endfacet
  facet normal 0 0.728952 0.684565
    outer loop
      vertex 194 3.42274 -12.3552
      vertex 694 3.85257 -12.8129
      vertex 194 3.85257 -12.8129
    endloop
  endfacet
  facet normal 0 0.728952 -0.684565
    outer loop
      vertex 194 3.42274 -19.6448
      vertex 194 3.85257 -19.1871
      vertex 694 3.42274 -19.6448
    endloop
  endfacet
  facet normal 0 -0.992112 -0.125357
    outer loop
      vertex 194 3.438 -15.3442
      vertex 194 3.49309 -15.7802
      vertex 694 3.438 -15.3442
    endloop
  endfacet
  facet normal -1 -0 0
    outer loop
      vertex 194 3.438 -15.3442
      vertex 194 4.75528 -14.4549
      vertex 194 4.91144 -15.0631
    endloop
  endfacet
  facet normal -1 0 0
    outer loop
      vertex 194 3.438 -15.3442
      vertex 194 4.91144 -15.0631
      vertex 194 3.49309 -15.7802
    endloop
  endfacet
  facet normal 0 -0.968598 -0.248633
    outer loop
      vertex 194 3.438 -15.3442
      vertex 694 3.438 -15.3442
      vertex 694 3.3287 -14.9184
    endloop
  endfacet
  facet normal -1 0 0
    outer loop
      vertex 194 3.438 -16.6558
      vertex 194 3.49309 -16.2198
      vertex 194 4.91144 -16.9369
    endloop
  endfacet
  facet normal -1 0 0
    outer loop
      vertex 194 3.438 -16.6558
      vertex 194 4.91144 -16.9369
      vertex 194 4.75528 -17.5451
    endloop
  endfacet
  facet normal 0 -0.992112 0.125357
    outer loop
      vertex 194 3.438 -16.6558
      vertex 694 3.438 -16.6558
      vertex 694 3.49309 -16.2198
    endloop
  endfacet
  facet normal 0 -0.992112 0.125357
    outer loop
      vertex 194 3.438 -16.6558
      vertex 694 3.49309 -16.2198
      vertex 194 3.49309 -16.2198
    endloop
  endfacet
  facet normal -1 -0 0
    outer loop
      vertex 194 3.49309 -15.7802
      vertex 194 4.91144 -15.0631
      vertex 194 4.99013 -15.686
    endloop
  endfacet
  facet normal 0 -0.992112 -0.125357
    outer loop
      vertex 194 3.49309 -15.7802
      vertex 694 3.49309 -15.7802
      vertex 694 3.438 -15.3442
    endloop
  endfacet
  facet normal -1 0 0
    outer loop
      vertex 194 3.49309 -16.2198
      vertex 194 3.49309 -15.7802
      vertex 194 4.99013 -15.686
    endloop
  endfacet
  facet normal -1 0 0
    outer loop
      vertex 194 3.49309 -16.2198
      vertex 194 4.99013 -15.686
      vertex 194 4.99013 -16.314
    endloop
  endfacet
  facet normal -1 0 0
    outer loop
      vertex 194 3.49309 -16.2198
      vertex 194 4.99013 -16.314
      vertex 194 4.91144 -16.9369
    endloop
  endfacet
  facet normal 0 -1 0
    outer loop
      vertex 194 3.49309 -16.2198
      vertex 694 3.49309 -15.7802
      vertex 194 3.49309 -15.7802
    endloop
  endfacet
  facet normal 0 -1 -0
    outer loop
      vertex 194 3.49309 -16.2198
      vertex 694 3.49309 -16.2198
      vertex 694 3.49309 -15.7802
    endloop
  endfacet
  facet normal 0 0.809027 0.587771
    outer loop
      vertex 194 3.85257 -12.8129
      vertex 694 3.85257 -12.8129
      vertex 694 4.22164 -13.3209
    endloop
  endfacet
  facet normal 0 0.809027 0.587771
    outer loop
      vertex 194 3.85257 -12.8129
      vertex 694 4.22164 -13.3209
      vertex 194 4.22164 -13.3209
    endloop
  endfacet
  facet normal 0 0.809027 -0.587771
    outer loop
      vertex 194 3.85257 -19.1871
      vertex 194 4.22164 -18.6791
      vertex 694 3.85257 -19.1871
    endloop
  endfacet
  facet normal 0 0.728952 -0.684565
    outer loop
      vertex 194 3.85257 -19.1871
      vertex 694 3.85257 -19.1871
      vertex 694 3.42274 -19.6448
    endloop
  endfacet
  facet normal 0 0.876297 0.481772
    outer loop
      vertex 194 4.22164 -13.3209
      vertex 694 4.22164 -13.3209
      vertex 694 4.52413 -13.8711
    endloop
  endfacet
  facet normal 0 0.876297 0.481772
    outer loop
      vertex 194 4.22164 -13.3209
      vertex 694 4.52413 -13.8711
      vertex 194 4.52413 -13.8711
    endloop
  endfacet
  facet normal 0 0.876297 -0.481772
    outer loop
      vertex 194 4.22164 -18.6791
      vertex 194 4.52413 -18.1289
      vertex 694 4.22164 -18.6791
    endloop
  endfacet
  facet normal 0 0.809027 -0.587771
    outer loop
      vertex 194 4.22164 -18.6791
      vertex 694 4.22164 -18.6791
      vertex 694 3.85257 -19.1871
    endloop
  endfacet
  facet normal 0 0.929773 0.368135
    outer loop
      vertex 194 4.52413 -13.8711
      vertex 694 4.52413 -13.8711
      vertex 694 4.75528 -14.4549
    endloop
  endfacet
  facet normal 0 0.929773 0.368135
    outer loop
      vertex 194 4.52413 -13.8711
      vertex 694 4.75528 -14.4549
      vertex 194 4.75528 -14.4549
    endloop
  endfacet
  facet normal 0 0.929773 -0.368135
    outer loop
      vertex 194 4.52413 -18.1289
      vertex 194 4.75528 -17.5451
      vertex 694 4.52413 -18.1289
    endloop
  endfacet
  facet normal 0 0.876297 -0.481772
    outer loop
      vertex 194 4.52413 -18.1289
      vertex 694 4.52413 -18.1289
      vertex 694 4.22164 -18.6791
    endloop
  endfacet
  facet normal 0 0.968583 0.248691
    outer loop
      vertex 194 4.75528 -14.4549
      vertex 694 4.75528 -14.4549
      vertex 694 4.91144 -15.0631
    endloop
  endfacet
  facet normal 0 0.968583 0.248691
    outer loop
      vertex 194 4.75528 -14.4549
      vertex 694 4.91144 -15.0631
      vertex 194 4.91144 -15.0631
    endloop
  endfacet
  facet normal 0 0.968583 -0.248691
    outer loop
      vertex 194 4.75528 -17.5451
      vertex 194 4.91144 -16.9369
      vertex 694 4.75528 -17.5451
    endloop
  endfacet
  facet normal 0 0.929773 -0.368135
    outer loop
      vertex 194 4.75528 -17.5451
      vertex 694 4.75528 -17.5451
      vertex 694 4.52413 -18.1289
    endloop
  endfacet
  facet normal 0 0.992115 0.125332
    outer loop
      vertex 194 4.91144 -15.0631
      vertex 694 4.91144 -15.0631
      vertex 694 4.99013 -15.686
    endloop
  endfacet
  facet normal 0 0.992115 0.125332
    outer loop
      vertex 194 4.91144 -15.0631
      vertex 694 4.99013 -15.686
      vertex 194 4.99013 -15.686
    endloop
  endfacet
  facet normal 0 0.992115 -0.125332
    outer loop
      vertex 194 4.91144 -16.9369
      vertex 194 4.99013 -16.314
      vertex 694 4.91144 -16.9369
    endloop
  endfacet
  facet normal 0 0.968583 -0.248691
    outer loop
      vertex 194 4.91144 -16.9369
      vertex 694 4.91144 -16.9369
      vertex 694 4.75528 -17.5451
    endloop
  endfacet
  facet normal 0 1 -0
    outer loop
      vertex 194 4.99013 -15.686
      vertex 694 4.99013 -15.686
      vertex 694 4.99013 -16.314
    endloop
  endfacet
  facet normal 0 1 0
    outer loop
      vertex 194 4.99013 -16.314
      vertex 194 4.99013 -15.686
      vertex 694 4.99013 -16.314
    endloop
  endfacet
  facet normal 0 0.992115 -0.125332
    outer loop
      vertex 194 4.99013 -16.314
      vertex 694 4.99013 -16.314
      vertex 694 4.91144 -16.9369
    endloop
  endfacet
  facet normal 1 0 0
    outer loop
      vertex 694 -0.438665 -12.5276
      vertex 694 0 -12.5
      vertex 694 0 -11
    endloop
  endfacet
  facet normal 1 0 0
    outer loop
      vertex 694 -0.438665 -19.4724
      vertex 694 0 -21
      vertex 694 0 -19.5
    endloop
  endfacet
  facet normal 1 -0 0
    outer loop
      vertex 694 -0.626666 -11.0394
      vertex 694 -0.438665 -12.5276
      vertex 694 0 -11
    endloop
  endfacet
  facet normal 1 0 0
    outer loop
      vertex 694 -0.626666 -20.9606
      vertex 694 0 -21
      vertex 694 -0.438665 -19.4724
    endloop
  endfacet
  facet normal 1 0 0
    outer loop
      vertex 694 -0.870414 -12.61
      vertex 694 -0.438665 -12.5276
      vertex 694 -0.626666 -11.0394
    endloop
  endfacet
  facet normal 1 0 0
    outer loop
      vertex 694 -0.870414 -19.39
      vertex 694 -0.626666 -20.9606
      vertex 694 -0.438665 -19.4724
    endloop
  endfacet
  facet normal 1 -0 0
    outer loop
      vertex 694 -1.24345 -11.1571
      vertex 694 -0.870414 -12.61
      vertex 694 -0.626666 -11.0394
    endloop
  endfacet
  facet normal 1 0 0
    outer loop
      vertex 694 -1.24345 -20.8429
      vertex 694 -0.626666 -20.9606
      vertex 694 -0.870414 -19.39
    endloop
  endfacet
  facet normal 1 0 0
    outer loop
      vertex 694 -1.28843 -12.7458
      vertex 694 -0.870414 -12.61
      vertex 694 -1.24345 -11.1571
    endloop
  endfacet
  facet normal 1 0 0
    outer loop
      vertex 694 -1.28843 -19.2542
      vertex 694 -1.24345 -20.8429
      vertex 694 -0.870414 -19.39
    endloop
  endfacet
  facet normal 1 -0 0
    outer loop
      vertex 694 -1.84062 -11.3511
      vertex 694 -1.28843 -12.7458
      vertex 694 -1.24345 -11.1571
    endloop
  endfacet
  facet normal 1 0 0
    outer loop
      vertex 694 -1.84062 -11.3511
      vertex 694 -1.68614 -12.9329
      vertex 694 -1.28843 -12.7458
    endloop
  endfacet
  facet normal 1 0 0
    outer loop
      vertex 694 -1.84062 -20.6489
      vertex 694 -1.24345 -20.8429
      vertex 694 -1.28843 -19.2542
    endloop
  endfacet
  facet normal 1 0 0
    outer loop
      vertex 694 -1.84062 -20.6489
      vertex 694 -1.28843 -19.2542
      vertex 694 -1.68614 -19.0671
    endloop
  endfacet
  facet normal 1 -0 0
    outer loop
      vertex 694 -2.40877 -11.6185
      vertex 694 -1.68614 -12.9329
      vertex 694 -1.84062 -11.3511
    endloop
  endfacet
  facet normal 1 0 0
    outer loop
      vertex 694 -2.40877 -11.6185
      vertex 694 -2.05725 -13.1684
      vertex 694 -1.68614 -12.9329
    endloop
  endfacet
  facet normal 1 0 0
    outer loop
      vertex 694 -2.40877 -20.3815
      vertex 694 -1.68614 -19.0671
      vertex 694 -2.05725 -18.8316
    endloop
  endfacet
  facet normal 1 0 0
    outer loop
      vertex 694 -2.40877 -20.3815
      vertex 694 -1.84062 -20.6489
      vertex 694 -1.68614 -19.0671
    endloop
  endfacet
  facet normal 1 -0 0
    outer loop
      vertex 694 -2.93893 -11.9549
      vertex 694 -2.05725 -13.1684
      vertex 694 -2.40877 -11.6185
    endloop
  endfacet
  facet normal 1 0 0
    outer loop
      vertex 694 -2.93893 -11.9549
      vertex 694 -2.39591 -13.4486
      vertex 694 -2.05725 -13.1684
    endloop
  endfacet
  facet normal 1 0 0
    outer loop
      vertex 694 -2.93893 -20.0451
      vertex 694 -2.05725 -18.8316
      vertex 694 -2.39591 -18.5514
    endloop
  endfacet
  facet normal 1 0 0
    outer loop
      vertex 694 -2.93893 -20.0451
      vertex 694 -2.40877 -20.3815
      vertex 694 -2.05725 -18.8316
    endloop
  endfacet
  facet normal 1 -0 0
    outer loop
      vertex 694 -3.42274 -12.3552
      vertex 694 -2.39591 -13.4486
      vertex 694 -2.93893 -11.9549
    endloop
  endfacet
  facet normal 1 0 0
    outer loop
      vertex 694 -3.42274 -12.3552
      vertex 694 -2.6968 -13.769
      vertex 694 -2.39591 -13.4486
    endloop
  endfacet
  facet normal 1 0 0
    outer loop
      vertex 694 -3.42274 -19.6448
      vertex 694 -2.39591 -18.5514
      vertex 694 -2.6968 -18.231
    endloop
  endfacet
  facet normal 1 0 0
    outer loop
      vertex 694 -3.42274 -19.6448
      vertex 694 -2.93893 -20.0451
      vertex 694 -2.39591 -18.5514
    endloop
  endfacet
  facet normal 1 -0 0
    outer loop
      vertex 694 -3.85257 -12.8129
      vertex 694 -2.6968 -13.769
      vertex 694 -3.42274 -12.3552
    endloop
  endfacet
  facet normal 1 0 0
    outer loop
      vertex 694 -3.85257 -12.8129
      vertex 694 -2.95515 -14.1246
      vertex 694 -2.6968 -13.769
    endloop
  endfacet
  facet normal 1 0 0
    outer loop
      vertex 694 -3.85257 -19.1871
      vertex 694 -2.6968 -18.231
      vertex 694 -2.95515 -17.8754
    endloop
  endfacet
  facet normal 1 0 0
    outer loop
      vertex 694 -3.85257 -19.1871
      vertex 694 -3.42274 -19.6448
      vertex 694 -2.6968 -18.231
    endloop
  endfacet
  facet normal 1 -0 0
    outer loop
      vertex 694 -4.22164 -13.3209
      vertex 694 -2.95515 -14.1246
      vertex 694 -3.85257 -12.8129
    endloop
  endfacet
  facet normal 1 0 0
    outer loop
      vertex 694 -4.22164 -13.3209
      vertex 694 -3.16689 -14.5098
      vertex 694 -2.95515 -14.1246
    endloop
  endfacet
  facet normal 1 0 0
    outer loop
      vertex 694 -4.22164 -18.6791
      vertex 694 -2.95515 -17.8754
      vertex 694 -3.16689 -17.4902
    endloop
  endfacet
  facet normal 1 0 0
    outer loop
      vertex 694 -4.22164 -18.6791
      vertex 694 -3.85257 -19.1871
      vertex 694 -2.95515 -17.8754
    endloop
  endfacet
  facet normal 1 -0 0
    outer loop
      vertex 694 -4.52413 -13.8711
      vertex 694 -3.16689 -14.5098
      vertex 694 -4.22164 -13.3209
    endloop
  endfacet
  facet normal 1 0 0
    outer loop
      vertex 694 -4.52413 -13.8711
      vertex 694 -3.3287 -14.9184
      vertex 694 -3.16689 -14.5098
    endloop
  endfacet
  facet normal 1 0 0
    outer loop
      vertex 694 -4.52413 -18.1289
      vertex 694 -3.16689 -17.4902
      vertex 694 -3.3287 -17.0816
    endloop
  endfacet
  facet normal 1 0 0
    outer loop
      vertex 694 -4.52413 -18.1289
      vertex 694 -4.22164 -18.6791
      vertex 694 -3.16689 -17.4902
    endloop
  endfacet
  facet normal 1 -0 0
    outer loop
      vertex 694 -4.75528 -14.4549
      vertex 694 -3.3287 -14.9184
      vertex 694 -4.52413 -13.8711
    endloop
  endfacet
  facet normal 1 0 0
    outer loop
      vertex 694 -4.75528 -14.4549
      vertex 694 -3.438 -15.3442
      vertex 694 -3.3287 -14.9184
    endloop
  endfacet
  facet normal 1 0 0
    outer loop
      vertex 694 -4.75528 -17.5451
      vertex 694 -3.3287 -17.0816
      vertex 694 -3.438 -16.6558
    endloop
  endfacet
  facet normal 1 0 0
    outer loop
      vertex 694 -4.75528 -17.5451
      vertex 694 -4.52413 -18.1289
      vertex 694 -3.3287 -17.0816
    endloop
  endfacet
  facet normal 1 -0 0
    outer loop
      vertex 694 -4.91144 -15.0631
      vertex 694 -3.438 -15.3442
      vertex 694 -4.75528 -14.4549
    endloop
  endfacet
  facet normal 1 0 0
    outer loop
      vertex 694 -4.91144 -15.0631
      vertex 694 -3.49309 -15.7802
      vertex 694 -3.438 -15.3442
    endloop
  endfacet
  facet normal 1 0 0
    outer loop
      vertex 694 -4.91144 -16.9369
      vertex 694 -3.438 -16.6558
      vertex 694 -3.49309 -16.2198
    endloop
  endfacet
  facet normal 1 0 0
    outer loop
      vertex 694 -4.91144 -16.9369
      vertex 694 -4.75528 -17.5451
      vertex 694 -3.438 -16.6558
    endloop
  endfacet
  facet normal 1 -0 0
    outer loop
      vertex 694 -4.99013 -15.686
      vertex 694 -3.49309 -15.7802
      vertex 694 -4.91144 -15.0631
    endloop
  endfacet
  facet normal 1 0 0
    outer loop
      vertex 694 -4.99013 -15.686
      vertex 694 -3.49309 -16.2198
      vertex 694 -3.49309 -15.7802
    endloop
  endfacet
  facet normal 1 0 0
    outer loop
      vertex 694 -4.99013 -16.314
      vertex 694 -3.49309 -16.2198
      vertex 694 -4.99013 -15.686
    endloop
  endfacet
  facet normal 1 0 0
    outer loop
      vertex 694 -4.99013 -16.314
      vertex 694 -4.91144 -16.9369
      vertex 694 -3.49309 -16.2198
    endloop
  endfacet
  facet normal 1 0 0
    outer loop
      vertex 694 0 -11
      vertex 694 0.438665 -12.5276
      vertex 694 0.626666 -11.0394
    endloop
  endfacet
  facet normal 1 0 0
    outer loop
      vertex 694 0 -12.5
      vertex 694 0.438665 -12.5276
      vertex 694 0 -11
    endloop
  endfacet
  facet normal 1 -0 0
    outer loop
      vertex 694 0 -19.5
      vertex 694 0.626666 -20.9606
      vertex 694 0.438665 -19.4724
    endloop
  endfacet
  facet normal 1 0 0
    outer loop
      vertex 694 0 -21
      vertex 694 0.626666 -20.9606
      vertex 694 0 -19.5
    endloop
  endfacet
  facet normal 1 0 0
    outer loop
      vertex 694 0.438665 -12.5276
      vertex 694 0.870414 -12.61
      vertex 694 0.626666 -11.0394
    endloop
  endfacet
  facet normal 1 -0 0
    outer loop
      vertex 694 0.438665 -19.4724
      vertex 694 0.626666 -20.9606
      vertex 694 0.870414 -19.39
    endloop
  endfacet
  facet normal 1 0 0
    outer loop
      vertex 694 0.626666 -11.0394
      vertex 694 0.870414 -12.61
      vertex 694 1.24345 -11.1571
    endloop
  endfacet
  facet normal 1 0 0
    outer loop
      vertex 694 0.626666 -20.9606
      vertex 694 1.24345 -20.8429
      vertex 694 0.870414 -19.39
    endloop
  endfacet
  facet normal 1 0 0
    outer loop
      vertex 694 0.870414 -12.61
      vertex 694 1.28843 -12.7458
      vertex 694 1.24345 -11.1571
    endloop
  endfacet
  facet normal 1 -0 0
    outer loop
      vertex 694 0.870414 -19.39
      vertex 694 1.24345 -20.8429
      vertex 694 1.28843 -19.2542
    endloop
  endfacet
  facet normal 1 0 0
    outer loop
      vertex 694 1.24345 -11.1571
      vertex 694 1.28843 -12.7458
      vertex 694 1.84062 -11.3511
    endloop
  endfacet
  facet normal 1 0 0
    outer loop
      vertex 694 1.24345 -20.8429
      vertex 694 1.84062 -20.6489
      vertex 694 1.28843 -19.2542
    endloop
  endfacet
  facet normal 1 0 0
    outer loop
      vertex 694 1.28843 -12.7458
      vertex 694 1.68614 -12.9329
      vertex 694 1.84062 -11.3511
    endloop
  endfacet
  facet normal 1 -0 0
    outer loop
      vertex 694 1.28843 -19.2542
      vertex 694 1.84062 -20.6489
      vertex 694 1.68614 -19.0671
    endloop
  endfacet
  facet normal 1 0 0
    outer loop
      vertex 694 1.68614 -12.9329
      vertex 694 2.05725 -13.1684
      vertex 694 2.40877 -11.6185
    endloop
  endfacet
  facet normal 1 0 0
    outer loop
      vertex 694 1.68614 -12.9329
      vertex 694 2.40877 -11.6185
      vertex 694 1.84062 -11.3511
    endloop
  endfacet
  facet normal 1 0 0
    outer loop
      vertex 694 1.68614 -19.0671
      vertex 694 1.84062 -20.6489
      vertex 694 2.40877 -20.3815
    endloop
  endfacet
  facet normal 1 -0 0
    outer loop
      vertex 694 1.68614 -19.0671
      vertex 694 2.40877 -20.3815
      vertex 694 2.05725 -18.8316
    endloop
  endfacet
  facet normal 1 0 0
    outer loop
      vertex 694 2.05725 -13.1684
      vertex 694 2.39591 -13.4486
      vertex 694 2.93893 -11.9549
    endloop
  endfacet
  facet normal 1 0 0
    outer loop
      vertex 694 2.05725 -13.1684
      vertex 694 2.93893 -11.9549
      vertex 694 2.40877 -11.6185
    endloop
  endfacet
  facet normal 1 0 0
    outer loop
      vertex 694 2.05725 -18.8316
      vertex 694 2.40877 -20.3815
      vertex 694 2.93893 -20.0451
    endloop
  endfacet
  facet normal 1 -0 0
    outer loop
      vertex 694 2.05725 -18.8316
      vertex 694 2.93893 -20.0451
      vertex 694 2.39591 -18.5514
    endloop
  endfacet
  facet normal 1 0 0
    outer loop
      vertex 694 2.39591 -13.4486
      vertex 694 2.6968 -13.769
      vertex 694 3.42274 -12.3552
    endloop
  endfacet
  facet normal 1 0 0
    outer loop
      vertex 694 2.39591 -13.4486
      vertex 694 3.42274 -12.3552
      vertex 694 2.93893 -11.9549
    endloop
  endfacet
  facet normal 1 0 0
    outer loop
      vertex 694 2.39591 -18.5514
      vertex 694 2.93893 -20.0451
      vertex 694 3.42274 -19.6448
    endloop
  endfacet
  facet normal 1 -0 0
    outer loop
      vertex 694 2.39591 -18.5514
      vertex 694 3.42274 -19.6448
      vertex 694 2.6968 -18.231
    endloop
  endfacet
  facet normal 1 0 0
    outer loop
      vertex 694 2.6968 -13.769
      vertex 694 2.95515 -14.1246
      vertex 694 3.85257 -12.8129
    endloop
  endfacet
  facet normal 1 0 0
    outer loop
      vertex 694 2.6968 -13.769
      vertex 694 3.85257 -12.8129
      vertex 694 3.42274 -12.3552
    endloop
  endfacet
  facet normal 1 0 0
    outer loop
      vertex 694 2.6968 -18.231
      vertex 694 3.42274 -19.6448
      vertex 694 3.85257 -19.1871
    endloop
  endfacet
  facet normal 1 -0 0
    outer loop
      vertex 694 2.6968 -18.231
      vertex 694 3.85257 -19.1871
      vertex 694 2.95515 -17.8754
    endloop
  endfacet
  facet normal 1 0 0
    outer loop
      vertex 694 2.95515 -14.1246
      vertex 694 3.16689 -14.5098
      vertex 694 4.22164 -13.3209
    endloop
  endfacet
  facet normal 1 0 0
    outer loop
      vertex 694 2.95515 -14.1246
      vertex 694 4.22164 -13.3209
      vertex 694 3.85257 -12.8129
    endloop
  endfacet
  facet normal 1 0 0
    outer loop
      vertex 694 2.95515 -17.8754
      vertex 694 3.85257 -19.1871
      vertex 694 4.22164 -18.6791
    endloop
  endfacet
  facet normal 1 -0 0
    outer loop
      vertex 694 2.95515 -17.8754
      vertex 694 4.22164 -18.6791
      vertex 694 3.16689 -17.4902
    endloop
  endfacet
  facet normal 1 0 0
    outer loop
      vertex 694 3.16689 -14.5098
      vertex 694 3.3287 -14.9184
      vertex 694 4.52413 -13.8711
    endloop
  endfacet
  facet normal 1 0 0
    outer loop
      vertex 694 3.16689 -14.5098
      vertex 694 4.52413 -13.8711
      vertex 694 4.22164 -13.3209
    endloop
  endfacet
  facet normal 1 0 0
    outer loop
      vertex 694 3.16689 -17.4902
      vertex 694 4.22164 -18.6791
      vertex 694 4.52413 -18.1289
    endloop
  endfacet
  facet normal 1 -0 0
    outer loop
      vertex 694 3.16689 -17.4902
      vertex 694 4.52413 -18.1289
      vertex 694 3.3287 -17.0816
    endloop
  endfacet
  facet normal 1 0 0
    outer loop
      vertex 694 3.3287 -14.9184
      vertex 694 3.438 -15.3442
      vertex 694 4.75528 -14.4549
    endloop
  endfacet
  facet normal 1 0 0
    outer loop
      vertex 694 3.3287 -14.9184
      vertex 694 4.75528 -14.4549
      vertex 694 4.52413 -13.8711
    endloop
  endfacet
  facet normal 1 0 0
    outer loop
      vertex 694 3.3287 -17.0816
      vertex 694 4.52413 -18.1289
      vertex 694 4.75528 -17.5451
    endloop
  endfacet
  facet normal 1 -0 0
    outer loop
      vertex 694 3.3287 -17.0816
      vertex 694 4.75528 -17.5451
      vertex 694 3.438 -16.6558
    endloop
  endfacet
  facet normal 1 0 0
    outer loop
      vertex 694 3.438 -15.3442
      vertex 694 3.49309 -15.7802
      vertex 694 4.91144 -15.0631
    endloop
  endfacet
  facet normal 1 0 0
    outer loop
      vertex 694 3.438 -15.3442
      vertex 694 4.91144 -15.0631
      vertex 694 4.75528 -14.4549
    endloop
  endfacet
  facet normal 1 0 0
    outer loop
      vertex 694 3.438 -16.6558
      vertex 694 4.75528 -17.5451
      vertex 694 4.91144 -16.9369
    endloop
  endfacet
  facet normal 1 -0 0
    outer loop
      vertex 694 3.438 -16.6558
      vertex 694 4.91144 -16.9369
      vertex 694 3.49309 -16.2198
    endloop
  endfacet
  facet normal 1 0 0
    outer loop
      vertex 694 3.49309 -15.7802
      vertex 694 4.99013 -15.686
      vertex 694 4.91144 -15.0631
    endloop
  endfacet
  facet normal 1 0 0
    outer loop
      vertex 694 3.49309 -15.7802
      vertex 694 4.99013 -16.314
      vertex 694 4.99013 -15.686
    endloop
  endfacet
  facet normal 1 0 0
    outer loop
      vertex 694 3.49309 -16.2198
      vertex 694 4.91144 -16.9369
      vertex 694 4.99013 -16.314
    endloop
  endfacet
  facet normal 1 -0 0
    outer loop
      vertex 694 3.49309 -16.2198
      vertex 694 4.99013 -16.314
      vertex 694 3.49309 -15.7802
    endloop
  endfacet
endsolid model
