solid model
  facet normal -0.0433859 -0.109361 -0.993055
    outer loop
      vertex 136.617 -28.4533 60.0563
      vertex 136.717 -27.8083 59.9809
      vertex 136.723 -29.0983 60.1227
    endloop
  endfacet
  facet normal -0.985961 -0.155869 0.059889
    outer loop
      vertex 136.617 -28.4533 60.0563
      vertex 136.723 -29.0983 60.1227
      vertex 142.879 -13.4578 202.176
    endloop
  endfacet
  facet normal -0.987642 0.154589 0.0257794
    outer loop
      vertex 136.617 -28.4533 60.0563
      vertex 142.773 -12.8127 202.11
      vertex 142.872 -12.1677 202.035
    endloop
  endfacet
  facet normal -0.987413 0.15608 0.0255983
    outer loop
      vertex 136.617 -28.4533 60.0563
      vertex 142.872 -12.1677 202.035
      vertex 136.717 -27.8083 59.9809
    endloop
  endfacet
  facet normal -0.985959 -0.155881 0.0598903
    outer loop
      vertex 136.617 -28.4533 60.0563
      vertex 142.879 -13.4578 202.176
      vertex 142.773 -12.8127 202.11
    endloop
  endfacet
  facet normal -0.987413 -0.15608 0.0255983
    outer loop
      vertex 136.617 28.4533 60.0563
      vertex 136.717 27.8083 59.9809
      vertex 142.872 12.1677 202.035
    endloop
  endfacet
  facet normal -0.0433859 0.109361 -0.993055
    outer loop
      vertex 136.617 28.4533 60.0563
      vertex 136.723 29.0983 60.1227
      vertex 136.717 27.8083 59.9809
    endloop
  endfacet
  facet normal -0.985959 0.155881 0.0598903
    outer loop
      vertex 136.617 28.4533 60.0563
      vertex 142.773 12.8127 202.11
      vertex 142.879 13.4578 202.176
    endloop
  endfacet
  facet normal -0.987642 -0.154589 0.0257794
    outer loop
      vertex 136.617 28.4533 60.0563
      vertex 142.872 12.1677 202.035
      vertex 142.773 12.8127 202.11
    endloop
  endfacet
  facet normal -0.985961 0.155869 0.059889
    outer loop
      vertex 136.617 28.4533 60.0563
      vertex 142.879 13.4578 202.176
      vertex 136.723 29.0983 60.1227
    endloop
  endfacet
  facet normal -0.0434026 -0.109047 -0.993089
    outer loop
      vertex 136.717 -27.8083 59.9809
      vertex 137.012 -27.2263 59.9041
      vertex 137.474 -26.7645 59.8332
    endloop
  endfacet
  facet normal -0.0428265 -0.109361 -0.993079
    outer loop
      vertex 136.717 -27.8083 59.9809
      vertex 137.024 -29.6802 60.1738
      vertex 136.723 -29.0983 60.1227
    endloop
  endfacet
  facet normal -0.0430612 -0.109293 -0.993076
    outer loop
      vertex 136.717 -27.8083 59.9809
      vertex 137.474 -26.7645 59.8332
      vertex 138.057 -26.4681 59.7753
    endloop
  endfacet
  facet normal -0.0430478 -0.109306 -0.993076
    outer loop
      vertex 136.717 -27.8083 59.9809
      vertex 138.057 -26.4681 59.7753
      vertex 139.94 -26.7645 59.7263
    endloop
  endfacet
  facet normal -0.0430346 -0.109346 -0.993072
    outer loop
      vertex 136.717 -27.8083 59.9809
      vertex 139.94 -26.7645 59.7263
      vertex 139.956 -30.142 60.0975
    endloop
  endfacet
  facet normal -0.0430736 -0.1094 -0.993064
    outer loop
      vertex 136.717 -27.8083 59.9809
      vertex 139.956 -30.142 60.0975
      vertex 137.024 -29.6802 60.1738
    endloop
  endfacet
  facet normal -0.892491 0.450931 -0.0109785
    outer loop
      vertex 136.717 -27.8083 59.9809
      vertex 142.872 -12.1677 202.035
      vertex 137.012 -27.2263 59.9041
    endloop
  endfacet
  facet normal -0.0428265 0.109361 -0.993079
    outer loop
      vertex 136.717 27.8083 59.9809
      vertex 136.723 29.0983 60.1227
      vertex 137.024 29.6802 60.1738
    endloop
  endfacet
  facet normal -0.892491 -0.450931 -0.0109785
    outer loop
      vertex 136.717 27.8083 59.9809
      vertex 137.012 27.2263 59.9041
      vertex 142.872 12.1677 202.035
    endloop
  endfacet
  facet normal -0.0430736 0.1094 -0.993064
    outer loop
      vertex 136.717 27.8083 59.9809
      vertex 137.024 29.6802 60.1738
      vertex 139.956 30.142 60.0975
    endloop
  endfacet
  facet normal -0.0434026 0.109047 -0.993089
    outer loop
      vertex 136.717 27.8083 59.9809
      vertex 137.474 26.7645 59.8332
      vertex 137.012 27.2263 59.9041
    endloop
  endfacet
  facet normal -0.0430612 0.109293 -0.993076
    outer loop
      vertex 136.717 27.8083 59.9809
      vertex 138.057 26.4681 59.7753
      vertex 137.474 26.7645 59.8332
    endloop
  endfacet
  facet normal -0.0430478 0.109306 -0.993076
    outer loop
      vertex 136.717 27.8083 59.9809
      vertex 139.94 26.7645 59.7263
      vertex 138.057 26.4681 59.7753
    endloop
  endfacet
  facet normal -0.0430346 0.109346 -0.993072
    outer loop
      vertex 136.717 27.8083 59.9809
      vertex 139.956 30.142 60.0975
      vertex 139.94 26.7645 59.7263
    endloop
  endfacet
  facet normal -0.887886 -0.451533 0.0881863
    outer loop
      vertex 136.723 -29.0983 60.1227
      vertex 137.024 -29.6802 60.1738
      vertex 143.179 -14.0397 202.227
    endloop
  endfacet
  facet normal -0.888498 -0.450347 0.0880884
    outer loop
      vertex 136.723 -29.0983 60.1227
      vertex 143.179 -14.0397 202.227
      vertex 142.879 -13.4578 202.176
    endloop
  endfacet
  facet normal -0.888498 0.450347 0.0880884
    outer loop
      vertex 136.723 29.0983 60.1227
      vertex 142.879 13.4578 202.176
      vertex 143.179 14.0397 202.227
    endloop
  endfacet
  facet normal -0.887886 0.451533 0.0881863
    outer loop
      vertex 136.723 29.0983 60.1227
      vertex 143.179 14.0397 202.227
      vertex 137.024 29.6802 60.1738
    endloop
  endfacet
  facet normal -0.891851 0.452192 -0.0111385
    outer loop
      vertex 137.012 -27.2263 59.9041
      vertex 142.872 -12.1677 202.035
      vertex 143.168 -11.5858 201.958
    endloop
  endfacet
  facet normal -0.70976 0.702898 -0.046633
    outer loop
      vertex 137.012 -27.2263 59.9041
      vertex 143.168 -11.5858 201.958
      vertex 143.63 -11.124 201.887
    endloop
  endfacet
  facet normal -0.709755 0.702903 -0.0466337
    outer loop
      vertex 137.012 -27.2263 59.9041
      vertex 143.63 -11.124 201.887
      vertex 137.474 -26.7645 59.8332
    endloop
  endfacet
  facet normal -0.709755 -0.702903 -0.0466337
    outer loop
      vertex 137.012 27.2263 59.9041
      vertex 137.474 26.7645 59.8332
      vertex 143.63 11.124 201.887
    endloop
  endfacet
  facet normal -0.891851 -0.452192 -0.0111385
    outer loop
      vertex 137.012 27.2263 59.9041
      vertex 143.168 11.5858 201.958
      vertex 142.872 12.1677 202.035
    endloop
  endfacet
  facet normal -0.70976 -0.702898 -0.046633
    outer loop
      vertex 137.012 27.2263 59.9041
      vertex 143.63 11.124 201.887
      vertex 143.168 11.5858 201.958
    endloop
  endfacet
  facet normal -0.703358 -0.702609 0.107835
    outer loop
      vertex 137.024 -29.6802 60.1738
      vertex 137.49 -30.142 60.2044
      vertex 143.179 -14.0397 202.227
    endloop
  endfacet
  facet normal -0.0430979 -0.109293 -0.993075
    outer loop
      vertex 137.024 -29.6802 60.1738
      vertex 138.076 -30.4385 60.2116
      vertex 137.49 -30.142 60.2044
    endloop
  endfacet
  facet normal -0.042869 -0.108978 -0.993119
    outer loop
      vertex 137.024 -29.6802 60.1738
      vertex 138.725 -30.5407 60.1948
      vertex 138.076 -30.4385 60.2116
    endloop
  endfacet
  facet normal -0.0430694 -0.109373 -0.993067
    outer loop
      vertex 137.024 -29.6802 60.1738
      vertex 139.956 -30.142 60.0975
      vertex 138.725 -30.5407 60.1948
    endloop
  endfacet
  facet normal -0.0430979 0.109293 -0.993075
    outer loop
      vertex 137.024 29.6802 60.1738
      vertex 137.49 30.142 60.2044
      vertex 138.076 30.4385 60.2116
    endloop
  endfacet
  facet normal -0.042869 0.108978 -0.993119
    outer loop
      vertex 137.024 29.6802 60.1738
      vertex 138.076 30.4385 60.2116
      vertex 138.725 30.5407 60.1948
    endloop
  endfacet
  facet normal -0.0430694 0.109373 -0.993067
    outer loop
      vertex 137.024 29.6802 60.1738
      vertex 138.725 30.5407 60.1948
      vertex 139.956 30.142 60.0975
    endloop
  endfacet
  facet normal -0.703358 0.702609 0.107835
    outer loop
      vertex 137.024 29.6802 60.1738
      vertex 143.179 14.0397 202.227
      vertex 137.49 30.142 60.2044
    endloop
  endfacet
  facet normal -0.458077 0.885515 -0.0776465
    outer loop
      vertex 137.474 -26.7645 59.8332
      vertex 143.63 -11.124 201.887
      vertex 144.213 -10.8275 201.829
    endloop
  endfacet
  facet normal -0.457946 0.885581 -0.0776601
    outer loop
      vertex 137.474 -26.7645 59.8332
      vertex 144.213 -10.8275 201.829
      vertex 138.057 -26.4681 59.7753
    endloop
  endfacet
  facet normal -0.457946 -0.885581 -0.0776601
    outer loop
      vertex 137.474 26.7645 59.8332
      vertex 138.057 26.4681 59.7753
      vertex 144.213 10.8275 201.829
    endloop
  endfacet
  facet normal -0.458077 -0.885515 -0.0776465
    outer loop
      vertex 137.474 26.7645 59.8332
      vertex 144.213 10.8275 201.829
      vertex 143.63 11.124 201.887
    endloop
  endfacet
  facet normal -0.449516 -0.885579 0.116985
    outer loop
      vertex 137.49 -30.142 60.2044
      vertex 138.076 -30.4385 60.2116
      vertex 143.646 -14.5015 202.258
    endloop
  endfacet
  facet normal -0.702645 -0.703314 0.107887
    outer loop
      vertex 137.49 -30.142 60.2044
      vertex 143.646 -14.5015 202.258
      vertex 143.179 -14.0397 202.227
    endloop
  endfacet
  facet normal -0.702645 0.703314 0.107887
    outer loop
      vertex 137.49 30.142 60.2044
      vertex 143.179 14.0397 202.227
      vertex 143.646 14.5015 202.258
    endloop
  endfacet
  facet normal -0.449516 0.885579 0.116985
    outer loop
      vertex 137.49 30.142 60.2044
      vertex 143.646 14.5015 202.258
      vertex 138.076 30.4385 60.2116
    endloop
  endfacet
  facet normal -0.0430193 -0.109121 -0.993097
    outer loop
      vertex 138.057 -26.4681 59.7753
      vertex 138.705 -26.3659 59.736
      vertex 139.94 -26.7645 59.7263
    endloop
  endfacet
  facet normal -0.160927 0.981772 -0.101123
    outer loop
      vertex 138.057 -26.4681 59.7753
      vertex 144.213 -10.8275 201.829
      vertex 144.861 -10.7253 201.79
    endloop
  endfacet
  facet normal -0.160973 0.981765 -0.10112
    outer loop
      vertex 138.057 -26.4681 59.7753
      vertex 144.861 -10.7253 201.79
      vertex 138.705 -26.3659 59.736
    endloop
  endfacet
  facet normal -0.160973 -0.981765 -0.10112
    outer loop
      vertex 138.057 26.4681 59.7753
      vertex 138.705 26.3659 59.736
      vertex 144.861 10.7253 201.79
    endloop
  endfacet
  facet normal -0.0430193 0.109121 -0.993097
    outer loop
      vertex 138.057 26.4681 59.7753
      vertex 139.94 26.7645 59.7263
      vertex 138.705 26.3659 59.736
    endloop
  endfacet
  facet normal -0.160927 -0.981772 -0.101123
    outer loop
      vertex 138.057 26.4681 59.7753
      vertex 144.861 10.7253 201.79
      vertex 144.213 10.8275 201.829
    endloop
  endfacet
  facet normal -0.151633 -0.981763 0.114666
    outer loop
      vertex 138.076 -30.4385 60.2116
      vertex 138.725 -30.5407 60.1948
      vertex 144.232 -14.798 202.265
    endloop
  endfacet
  facet normal -0.449484 -0.885595 0.116985
    outer loop
      vertex 138.076 -30.4385 60.2116
      vertex 144.232 -14.798 202.265
      vertex 143.646 -14.5015 202.258
    endloop
  endfacet
  facet normal -0.449484 0.885595 0.116985
    outer loop
      vertex 138.076 30.4385 60.2116
      vertex 143.646 14.5015 202.258
      vertex 144.232 14.798 202.265
    endloop
  endfacet
  facet normal -0.151633 0.981763 0.114666
    outer loop
      vertex 138.076 30.4385 60.2116
      vertex 144.232 14.798 202.265
      vertex 138.725 30.5407 60.1948
    endloop
  endfacet
  facet normal -0.0430667 -0.109269 -0.993079
    outer loop
      vertex 138.705 -26.3659 59.736
      vertex 139.354 -26.4681 59.7191
      vertex 139.94 -26.7645 59.7263
    endloop
  endfacet
  facet normal 0.151599 0.981769 -0.114665
    outer loop
      vertex 138.705 -26.3659 59.736
      vertex 144.861 -10.7253 201.79
      vertex 145.51 -10.8275 201.773
    endloop
  endfacet
  facet normal 0.151616 0.981766 -0.114666
    outer loop
      vertex 138.705 -26.3659 59.736
      vertex 145.51 -10.8275 201.773
      vertex 139.354 -26.4681 59.7191
    endloop
  endfacet
  facet normal 0.151616 -0.981766 -0.114666
    outer loop
      vertex 138.705 26.3659 59.736
      vertex 139.354 26.4681 59.7191
      vertex 145.51 10.8275 201.773
    endloop
  endfacet
  facet normal -0.0430667 0.109269 -0.993079
    outer loop
      vertex 138.705 26.3659 59.736
      vertex 139.94 26.7645 59.7263
      vertex 139.354 26.4681 59.7191
    endloop
  endfacet
  facet normal 0.151599 -0.981769 -0.114665
    outer loop
      vertex 138.705 26.3659 59.736
      vertex 145.51 10.8275 201.773
      vertex 144.861 10.7253 201.79
    endloop
  endfacet
  facet normal 0.160988 -0.981763 0.101118
    outer loop
      vertex 138.725 -30.5407 60.1948
      vertex 139.373 -30.4385 60.1554
      vertex 145.529 -14.798 202.209
    endloop
  endfacet
  facet normal -0.0431911 -0.109006 -0.993102
    outer loop
      vertex 138.725 -30.5407 60.1948
      vertex 139.956 -30.142 60.0975
      vertex 139.373 -30.4385 60.1554
    endloop
  endfacet
  facet normal -0.151623 -0.981765 0.114666
    outer loop
      vertex 138.725 -30.5407 60.1948
      vertex 144.881 -14.9001 202.249
      vertex 144.232 -14.798 202.265
    endloop
  endfacet
  facet normal 0.160932 -0.981772 0.101122
    outer loop
      vertex 138.725 -30.5407 60.1948
      vertex 145.529 -14.798 202.209
      vertex 144.881 -14.9001 202.249
    endloop
  endfacet
  facet normal -0.0431911 0.109006 -0.993102
    outer loop
      vertex 138.725 30.5407 60.1948
      vertex 139.373 30.4385 60.1554
      vertex 139.956 30.142 60.0975
    endloop
  endfacet
  facet normal -0.151623 0.981765 0.114666
    outer loop
      vertex 138.725 30.5407 60.1948
      vertex 144.232 14.798 202.265
      vertex 144.881 14.9001 202.249
    endloop
  endfacet
  facet normal 0.160932 0.981772 0.101122
    outer loop
      vertex 138.725 30.5407 60.1948
      vertex 144.881 14.9001 202.249
      vertex 145.529 14.798 202.209
    endloop
  endfacet
  facet normal 0.160988 0.981763 0.101118
    outer loop
      vertex 138.725 30.5407 60.1948
      vertex 145.529 14.798 202.209
      vertex 139.373 30.4385 60.1554
    endloop
  endfacet
  facet normal 0.449396 0.88564 -0.116987
    outer loop
      vertex 139.354 -26.4681 59.7191
      vertex 145.51 -10.8275 201.773
      vertex 139.94 -26.7645 59.7263
    endloop
  endfacet
  facet normal 0.449396 -0.88564 -0.116987
    outer loop
      vertex 139.354 26.4681 59.7191
      vertex 139.94 26.7645 59.7263
      vertex 145.51 10.8275 201.773
    endloop
  endfacet
  facet normal 0.458066 -0.88552 0.0776477
    outer loop
      vertex 139.373 -30.4385 60.1554
      vertex 139.956 -30.142 60.0975
      vertex 146.112 -14.5015 202.151
    endloop
  endfacet
  facet normal 0.458077 -0.885515 0.0776466
    outer loop
      vertex 139.373 -30.4385 60.1554
      vertex 146.112 -14.5015 202.151
      vertex 145.529 -14.798 202.209
    endloop
  endfacet
  facet normal 0.458077 0.885515 0.0776466
    outer loop
      vertex 139.373 30.4385 60.1554
      vertex 145.529 14.798 202.209
      vertex 146.112 14.5015 202.151
    endloop
  endfacet
  facet normal 0.458066 0.88552 0.0776477
    outer loop
      vertex 139.373 30.4385 60.1554
      vertex 146.112 14.5015 202.151
      vertex 139.956 30.142 60.0975
    endloop
  endfacet
  facet normal -0.0423663 -0.108867 -0.993153
    outer loop
      vertex 139.94 -26.7645 59.7263
      vertex 140.407 -27.2263 59.757
      vertex 140.707 -27.8083 59.808
    endloop
  endfacet
  facet normal -0.0431007 -0.109346 -0.993069
    outer loop
      vertex 139.94 -26.7645 59.7263
      vertex 140.418 -29.6802 60.0266
      vertex 139.956 -30.142 60.0975
    endloop
  endfacet
  facet normal -0.0429526 -0.109292 -0.993081
    outer loop
      vertex 139.94 -26.7645 59.7263
      vertex 140.707 -27.8083 59.808
      vertex 140.813 -28.4533 59.8744
    endloop
  endfacet
  facet normal -0.0430396 -0.109337 -0.993073
    outer loop
      vertex 139.94 -26.7645 59.7263
      vertex 140.813 -28.4533 59.8744
      vertex 140.418 -29.6802 60.0266
    endloop
  endfacet
  facet normal 0.449484 0.885595 -0.116985
    outer loop
      vertex 139.94 -26.7645 59.7263
      vertex 145.51 -10.8275 201.773
      vertex 146.096 -11.124 201.78
    endloop
  endfacet
  facet normal 0.703404 0.702562 -0.107837
    outer loop
      vertex 139.94 -26.7645 59.7263
      vertex 146.096 -11.124 201.78
      vertex 146.562 -11.5858 201.811
    endloop
  endfacet
  facet normal 0.70261 0.703349 -0.107884
    outer loop
      vertex 139.94 -26.7645 59.7263
      vertex 146.562 -11.5858 201.811
      vertex 140.407 -27.2263 59.757
    endloop
  endfacet
  facet normal -0.0431007 0.109346 -0.993069
    outer loop
      vertex 139.94 26.7645 59.7263
      vertex 139.956 30.142 60.0975
      vertex 140.418 29.6802 60.0266
    endloop
  endfacet
  facet normal 0.70261 -0.703349 -0.107884
    outer loop
      vertex 139.94 26.7645 59.7263
      vertex 140.407 27.2263 59.757
      vertex 146.562 11.5858 201.811
    endloop
  endfacet
  facet normal -0.0430396 0.109337 -0.993073
    outer loop
      vertex 139.94 26.7645 59.7263
      vertex 140.418 29.6802 60.0266
      vertex 140.813 28.4533 59.8744
    endloop
  endfacet
  facet normal -0.0423663 0.108867 -0.993153
    outer loop
      vertex 139.94 26.7645 59.7263
      vertex 140.707 27.8083 59.808
      vertex 140.407 27.2263 59.757
    endloop
  endfacet
  facet normal -0.0429526 0.109292 -0.993081
    outer loop
      vertex 139.94 26.7645 59.7263
      vertex 140.813 28.4533 59.8744
      vertex 140.707 27.8083 59.808
    endloop
  endfacet
  facet normal 0.449484 -0.885595 -0.116985
    outer loop
      vertex 139.94 26.7645 59.7263
      vertex 146.096 11.124 201.78
      vertex 145.51 10.8275 201.773
    endloop
  endfacet
  facet normal 0.703404 -0.702562 -0.107837
    outer loop
      vertex 139.94 26.7645 59.7263
      vertex 146.562 11.5858 201.811
      vertex 146.096 11.124 201.78
    endloop
  endfacet
  facet normal 0.709755 -0.702903 0.0466338
    outer loop
      vertex 139.956 -30.142 60.0975
      vertex 140.418 -29.6802 60.0266
      vertex 146.112 -14.5015 202.151
    endloop
  endfacet
  facet normal 0.709755 0.702903 0.0466338
    outer loop
      vertex 139.956 30.142 60.0975
      vertex 146.112 14.5015 202.151
      vertex 140.418 29.6802 60.0266
    endloop
  endfacet
  facet normal 0.887879 0.451545 -0.0881868
    outer loop
      vertex 140.407 -27.2263 59.757
      vertex 146.562 -11.5858 201.811
      vertex 146.863 -12.1677 201.862
    endloop
  endfacet
  facet normal 0.888529 0.450286 -0.0880829
    outer loop
      vertex 140.407 -27.2263 59.757
      vertex 146.863 -12.1677 201.862
      vertex 140.707 -27.8083 59.808
    endloop
  endfacet
  facet normal 0.888529 -0.450286 -0.0880829
    outer loop
      vertex 140.407 27.2263 59.757
      vertex 140.707 27.8083 59.808
      vertex 146.863 12.1677 201.862
    endloop
  endfacet
  facet normal 0.887879 -0.451545 -0.0881868
    outer loop
      vertex 140.407 27.2263 59.757
      vertex 146.863 12.1677 201.862
      vertex 146.562 11.5858 201.811
    endloop
  endfacet
  facet normal 0.89185 -0.452194 0.0111451
    outer loop
      vertex 140.418 -29.6802 60.0266
      vertex 140.714 -29.0983 59.9498
      vertex 146.869 -13.4578 202.004
    endloop
  endfacet
  facet normal -0.0421685 -0.109618 -0.993079
    outer loop
      vertex 140.418 -29.6802 60.0266
      vertex 140.813 -28.4533 59.8744
      vertex 140.714 -29.0983 59.9498
    endloop
  endfacet
  facet normal 0.70976 -0.702898 0.0466331
    outer loop
      vertex 140.418 -29.6802 60.0266
      vertex 146.574 -14.0397 202.08
      vertex 146.112 -14.5015 202.151
    endloop
  endfacet
  facet normal 0.892454 -0.451004 0.0109817
    outer loop
      vertex 140.418 -29.6802 60.0266
      vertex 146.869 -13.4578 202.004
      vertex 146.574 -14.0397 202.08
    endloop
  endfacet
  facet normal -0.0421685 0.109618 -0.993079
    outer loop
      vertex 140.418 29.6802 60.0266
      vertex 140.714 29.0983 59.9498
      vertex 140.813 28.4533 59.8744
    endloop
  endfacet
  facet normal 0.70976 0.702898 0.0466331
    outer loop
      vertex 140.418 29.6802 60.0266
      vertex 146.112 14.5015 202.151
      vertex 146.574 14.0397 202.08
    endloop
  endfacet
  facet normal 0.892454 0.451004 0.0109817
    outer loop
      vertex 140.418 29.6802 60.0266
      vertex 146.574 14.0397 202.08
      vertex 146.869 13.4578 202.004
    endloop
  endfacet
  facet normal 0.89185 0.452194 0.0111451
    outer loop
      vertex 140.418 29.6802 60.0266
      vertex 146.869 13.4578 202.004
      vertex 140.714 29.0983 59.9498
    endloop
  endfacet
  facet normal 0.985955 0.155904 -0.0598925
    outer loop
      vertex 140.707 -27.8083 59.808
      vertex 146.863 -12.1677 201.862
      vertex 146.969 -12.8127 201.928
    endloop
  endfacet
  facet normal 0.985961 0.155869 -0.059889
    outer loop
      vertex 140.707 -27.8083 59.808
      vertex 146.969 -12.8127 201.928
      vertex 140.813 -28.4533 59.8744
    endloop
  endfacet
  facet normal 0.985961 -0.155869 -0.059889
    outer loop
      vertex 140.707 27.8083 59.808
      vertex 140.813 28.4533 59.8744
      vertex 146.969 12.8127 201.928
    endloop
  endfacet
  facet normal 0.985955 -0.155904 -0.0598925
    outer loop
      vertex 140.707 27.8083 59.808
      vertex 146.969 12.8127 201.928
      vertex 146.863 12.1677 201.862
    endloop
  endfacet
  facet normal 0.98764 -0.154604 -0.0257708
    outer loop
      vertex 140.714 -29.0983 59.9498
      vertex 140.813 -28.4533 59.8744
      vertex 146.869 -13.4578 202.004
    endloop
  endfacet
  facet normal 0.98764 0.154604 -0.0257708
    outer loop
      vertex 140.714 29.0983 59.9498
      vertex 146.869 13.4578 202.004
      vertex 140.813 28.4533 59.8744
    endloop
  endfacet
  facet normal 0.987412 -0.15608 -0.0256053
    outer loop
      vertex 140.813 -28.4533 59.8744
      vertex 146.969 -12.8127 201.928
      vertex 146.869 -13.4578 202.004
    endloop
  endfacet
  facet normal 0.987412 0.15608 -0.0256053
    outer loop
      vertex 140.813 28.4533 59.8744
      vertex 146.869 13.4578 202.004
      vertex 146.969 12.8127 201.928
    endloop
  endfacet
  facet normal 0.0421864 0.108545 0.993196
    outer loop
      vertex 142.773 -12.8127 202.11
      vertex 142.879 -13.4578 202.176
      vertex 144.232 -14.798 202.265
    endloop
  endfacet
  facet normal 0.0430541 0.109175 0.99309
    outer loop
      vertex 142.773 -12.8127 202.11
      vertex 144.232 -14.798 202.265
      vertex 144.861 -10.7253 201.79
    endloop
  endfacet
  facet normal 0.0434185 0.108814 0.993113
    outer loop
      vertex 142.773 -12.8127 202.11
      vertex 144.861 -10.7253 201.79
      vertex 142.872 -12.1677 202.035
    endloop
  endfacet
  facet normal 0.0434185 -0.108814 0.993113
    outer loop
      vertex 142.773 12.8127 202.11
      vertex 142.872 12.1677 202.035
      vertex 144.861 10.7253 201.79
    endloop
  endfacet
  facet normal 0.0421864 -0.108545 0.993196
    outer loop
      vertex 142.773 12.8127 202.11
      vertex 144.232 14.798 202.265
      vertex 142.879 13.4578 202.176
    endloop
  endfacet
  facet normal 0.0430541 -0.109175 0.99309
    outer loop
      vertex 142.773 12.8127 202.11
      vertex 144.861 10.7253 201.79
      vertex 144.232 14.798 202.265
    endloop
  endfacet
  facet normal 0.043258 0.109402 0.993056
    outer loop
      vertex 142.872 -12.1677 202.035
      vertex 143.63 -11.124 201.887
      vertex 143.168 -11.5858 201.958
    endloop
  endfacet
  facet normal 0.0426806 0.109818 0.993035
    outer loop
      vertex 142.872 -12.1677 202.035
      vertex 144.861 -10.7253 201.79
      vertex 143.63 -11.124 201.887
    endloop
  endfacet
  facet normal 0.043258 -0.109402 0.993056
    outer loop
      vertex 142.872 12.1677 202.035
      vertex 143.168 11.5858 201.958
      vertex 143.63 11.124 201.887
    endloop
  endfacet
  facet normal 0.0426806 -0.109818 0.993035
    outer loop
      vertex 142.872 12.1677 202.035
      vertex 143.63 11.124 201.887
      vertex 144.861 10.7253 201.79
    endloop
  endfacet
  facet normal 0.0426921 0.109051 0.993119
    outer loop
      vertex 142.879 -13.4578 202.176
      vertex 143.179 -14.0397 202.227
      vertex 144.232 -14.798 202.265
    endloop
  endfacet
  facet normal 0.0426921 -0.109051 0.993119
    outer loop
      vertex 142.879 13.4578 202.176
      vertex 144.232 14.798 202.265
      vertex 143.179 14.0397 202.227
    endloop
  endfacet
  facet normal 0.0447635 0.111907 0.99271
    outer loop
      vertex 143.179 -14.0397 202.227
      vertex 143.646 -14.5015 202.258
      vertex 144.232 -14.798 202.265
    endloop
  endfacet
  facet normal 0.0447635 -0.111907 0.99271
    outer loop
      vertex 143.179 14.0397 202.227
      vertex 144.232 14.798 202.265
      vertex 143.646 14.5015 202.258
    endloop
  endfacet
  facet normal 0.0422173 0.111216 0.992899
    outer loop
      vertex 143.63 -11.124 201.887
      vertex 144.861 -10.7253 201.79
      vertex 144.213 -10.8275 201.829
    endloop
  endfacet
  facet normal 0.0422173 -0.111216 0.992899
    outer loop
      vertex 143.63 11.124 201.887
      vertex 144.213 10.8275 201.829
      vertex 144.861 10.7253 201.79
    endloop
  endfacet
  facet normal 0.0419073 0.110778 0.992961
    outer loop
      vertex 144.232 -14.798 202.265
      vertex 144.881 -14.9001 202.249
      vertex 146.969 -12.8127 201.928
    endloop
  endfacet
  facet normal 0.04309 0.109169 0.993089
    outer loop
      vertex 144.232 -14.798 202.265
      vertex 146.969 -12.8127 201.928
      vertex 144.861 -10.7253 201.79
    endloop
  endfacet
  facet normal 0.04309 -0.109169 0.993089
    outer loop
      vertex 144.232 14.798 202.265
      vertex 144.861 10.7253 201.79
      vertex 146.969 12.8127 201.928
    endloop
  endfacet
  facet normal 0.0419073 -0.110778 0.992961
    outer loop
      vertex 144.232 14.798 202.265
      vertex 146.969 12.8127 201.928
      vertex 144.881 14.9001 202.249
    endloop
  endfacet
  facet normal 0.0433084 0.109844 0.993005
    outer loop
      vertex 144.861 -10.7253 201.79
      vertex 146.562 -11.5858 201.811
      vertex 145.51 -10.8275 201.773
    endloop
  endfacet
  facet normal 0.04303 0.109295 0.993078
    outer loop
      vertex 144.861 -10.7253 201.79
      vertex 146.863 -12.1677 201.862
      vertex 146.562 -11.5858 201.811
    endloop
  endfacet
  facet normal 0.0425384 0.108618 0.993173
    outer loop
      vertex 144.861 -10.7253 201.79
      vertex 146.969 -12.8127 201.928
      vertex 146.863 -12.1677 201.862
    endloop
  endfacet
  facet normal 0.0433084 -0.109844 0.993005
    outer loop
      vertex 144.861 10.7253 201.79
      vertex 145.51 10.8275 201.773
      vertex 146.562 11.5858 201.811
    endloop
  endfacet
  facet normal 0.04303 -0.109295 0.993078
    outer loop
      vertex 144.861 10.7253 201.79
      vertex 146.562 11.5858 201.811
      vertex 146.863 12.1677 201.862
    endloop
  endfacet
  facet normal 0.0425384 -0.108618 0.993173
    outer loop
      vertex 144.861 10.7253 201.79
      vertex 146.863 12.1677 201.862
      vertex 146.969 12.8127 201.928
    endloop
  endfacet
  facet normal 0.0442078 0.1085 0.993113
    outer loop
      vertex 144.881 -14.9001 202.249
      vertex 145.529 -14.798 202.209
      vertex 146.969 -12.8127 201.928
    endloop
  endfacet
  facet normal 0.0442078 -0.1085 0.993113
    outer loop
      vertex 144.881 14.9001 202.249
      vertex 146.969 12.8127 201.928
      vertex 145.529 14.798 202.209
    endloop
  endfacet
  facet normal 0.0446644 0.111712 0.992736
    outer loop
      vertex 145.51 -10.8275 201.773
      vertex 146.562 -11.5858 201.811
      vertex 146.096 -11.124 201.78
    endloop
  endfacet
  facet normal 0.0446644 -0.111712 0.992736
    outer loop
      vertex 145.51 10.8275 201.773
      vertex 146.096 11.124 201.78
      vertex 146.562 11.5858 201.811
    endloop
  endfacet
  facet normal 0.0430485 0.109609 0.993042
    outer loop
      vertex 145.529 -14.798 202.209
      vertex 146.112 -14.5015 202.151
      vertex 146.574 -14.0397 202.08
    endloop
  endfacet
  facet normal 0.0434768 0.109027 0.993088
    outer loop
      vertex 145.529 -14.798 202.209
      vertex 146.574 -14.0397 202.08
      vertex 146.969 -12.8127 201.928
    endloop
  endfacet
  facet normal 0.0430485 -0.109609 0.993042
    outer loop
      vertex 145.529 14.798 202.209
      vertex 146.574 14.0397 202.08
      vertex 146.112 14.5015 202.151
    endloop
  endfacet
  facet normal 0.0434768 -0.109027 0.993088
    outer loop
      vertex 145.529 14.798 202.209
      vertex 146.969 12.8127 201.928
      vertex 146.574 14.0397 202.08
    endloop
  endfacet
  facet normal 0.0361062 0.111404 0.993119
    outer loop
      vertex 146.574 -14.0397 202.08
      vertex 146.869 -13.4578 202.004
      vertex 146.969 -12.8127 201.928
    endloop
  endfacet
  facet normal 0.0361062 -0.111404 0.993119
    outer loop
      vertex 146.574 14.0397 202.08
      vertex 146.969 12.8127 201.928
      vertex 146.869 13.4578 202.004
    endloop
  endfacet
  facet normal -0.0952346 0.0592223 0.993692
    outer loop
      vertex 173.188 -12.6407 201.821
      vertex 173.286 -13.2885 201.869
      vertex 173.58 -13.8728 201.932
    endloop
  endfacet
  facet normal -0.982529 0.156245 -0.101113
    outer loop
      vertex 173.188 -12.6407 201.821
      vertex 173.294 -11.9929 201.792
      vertex 186.445 -21.2005 59.7743
    endloop
  endfacet
  facet normal -0.0928539 0.0599959 0.993871
    outer loop
      vertex 173.188 -12.6407 201.821
      vertex 173.58 -13.8728 201.932
      vertex 174.059 -10.9448 201.8
    endloop
  endfacet
  facet normal -0.0931532 0.0597347 0.993858
    outer loop
      vertex 173.188 -12.6407 201.821
      vertex 173.594 -11.4086 201.785
      vertex 173.294 -11.9929 201.792
    endloop
  endfacet
  facet normal -0.0909227 0.059007 0.994108
    outer loop
      vertex 173.188 -12.6407 201.821
      vertex 174.059 -10.9448 201.8
      vertex 173.594 -11.4086 201.785
    endloop
  endfacet
  facet normal -0.984454 -0.155045 -0.0825345
    outer loop
      vertex 173.188 -12.6407 201.821
      vertex 186.445 -21.2005 59.7743
      vertex 173.286 -13.2885 201.869
    endloop
  endfacet
  facet normal -0.984454 0.155045 -0.0825345
    outer loop
      vertex 173.188 12.6407 201.821
      vertex 173.286 13.2885 201.869
      vertex 186.445 21.2005 59.7743
    endloop
  endfacet
  facet normal -0.0931532 -0.0597347 0.993858
    outer loop
      vertex 173.188 12.6407 201.821
      vertex 173.294 11.9929 201.792
      vertex 173.594 11.4086 201.785
    endloop
  endfacet
  facet normal -0.0952346 -0.0592223 0.993692
    outer loop
      vertex 173.188 12.6407 201.821
      vertex 173.58 13.8728 201.932
      vertex 173.286 13.2885 201.869
    endloop
  endfacet
  facet normal -0.0909227 -0.059007 0.994108
    outer loop
      vertex 173.188 12.6407 201.821
      vertex 173.594 11.4086 201.785
      vertex 174.059 10.9448 201.8
    endloop
  endfacet
  facet normal -0.0928539 -0.0599959 0.993871
    outer loop
      vertex 173.188 12.6407 201.821
      vertex 174.059 10.9448 201.8
      vertex 173.58 13.8728 201.932
    endloop
  endfacet
  facet normal -0.982529 -0.156245 -0.101113
    outer loop
      vertex 173.188 12.6407 201.821
      vertex 186.445 21.2005 59.7743
      vertex 173.294 11.9929 201.792
    endloop
  endfacet
  facet normal -0.984225 -0.156547 -0.0824296
    outer loop
      vertex 173.286 -13.2885 201.869
      vertex 186.445 -21.2005 59.7743
      vertex 186.544 -21.8483 59.8225
    endloop
  endfacet
  facet normal -0.889525 -0.453478 -0.0556976
    outer loop
      vertex 173.286 -13.2885 201.869
      vertex 186.544 -21.8483 59.8225
      vertex 186.838 -22.4327 59.8852
    endloop
  endfacet
  facet normal -0.889483 -0.453562 -0.0556881
    outer loop
      vertex 173.286 -13.2885 201.869
      vertex 186.838 -22.4327 59.8852
      vertex 173.58 -13.8728 201.932
    endloop
  endfacet
  facet normal -0.889483 0.453562 -0.0556881
    outer loop
      vertex 173.286 13.2885 201.869
      vertex 173.58 13.8728 201.932
      vertex 186.838 22.4327 59.8852
    endloop
  endfacet
  facet normal -0.984225 0.156547 -0.0824296
    outer loop
      vertex 173.286 13.2885 201.869
      vertex 186.544 21.8483 59.8225
      vertex 186.445 21.2005 59.7743
    endloop
  endfacet
  facet normal -0.889525 0.453478 -0.0556976
    outer loop
      vertex 173.286 13.2885 201.869
      vertex 186.838 22.4327 59.8852
      vertex 186.544 21.8483 59.8225
    endloop
  endfacet
  facet normal -0.884744 0.452942 -0.109867
    outer loop
      vertex 173.294 -11.9929 201.792
      vertex 173.594 -11.4086 201.785
      vertex 186.551 -20.5528 59.7451
    endloop
  endfacet
  facet normal -0.98253 0.156239 -0.101113
    outer loop
      vertex 173.294 -11.9929 201.792
      vertex 186.551 -20.5528 59.7451
      vertex 186.445 -21.2005 59.7743
    endloop
  endfacet
  facet normal -0.98253 -0.156239 -0.101113
    outer loop
      vertex 173.294 11.9929 201.792
      vertex 186.445 21.2005 59.7743
      vertex 186.551 20.5528 59.7451
    endloop
  endfacet
  facet normal -0.884744 -0.452942 -0.109867
    outer loop
      vertex 173.294 11.9929 201.792
      vertex 186.551 20.5528 59.7451
      vertex 173.594 11.4086 201.785
    endloop
  endfacet
  facet normal -0.0919225 0.0609797 0.993897
    outer loop
      vertex 173.58 -13.8728 201.932
      vertex 174.04 -14.3366 202.003
      vertex 174.621 -14.6343 202.075
    endloop
  endfacet
  facet normal -0.0928373 0.0597273 0.993888
    outer loop
      vertex 173.58 -13.8728 201.932
      vertex 174.621 -14.6343 202.075
      vertex 176.963 -13.8728 202.248
    endloop
  endfacet
  facet normal -0.092986 0.0600169 0.993857
    outer loop
      vertex 173.58 -13.8728 201.932
      vertex 175.29 -10.5445 201.891
      vertex 174.059 -10.9448 201.8
    endloop
  endfacet
  facet normal -0.0928361 0.0599401 0.993876
    outer loop
      vertex 173.58 -13.8728 201.932
      vertex 176.963 -13.8728 202.248
      vertex 175.29 -10.5445 201.891
    endloop
  endfacet
  facet normal -0.708008 -0.705812 -0.0235492
    outer loop
      vertex 173.58 -13.8728 201.932
      vertex 186.838 -22.4327 59.8852
      vertex 174.04 -14.3366 202.003
    endloop
  endfacet
  facet normal -0.708008 0.705812 -0.0235492
    outer loop
      vertex 173.58 13.8728 201.932
      vertex 174.04 14.3366 202.003
      vertex 186.838 22.4327 59.8852
    endloop
  endfacet
  facet normal -0.092986 -0.0600169 0.993857
    outer loop
      vertex 173.58 13.8728 201.932
      vertex 174.059 10.9448 201.8
      vertex 175.29 10.5445 201.891
    endloop
  endfacet
  facet normal -0.0919225 -0.0609797 0.993897
    outer loop
      vertex 173.58 13.8728 201.932
      vertex 174.621 14.6343 202.075
      vertex 174.04 14.3366 202.003
    endloop
  endfacet
  facet normal -0.0928361 -0.0599401 0.993876
    outer loop
      vertex 173.58 13.8728 201.932
      vertex 175.29 10.5445 201.891
      vertex 176.963 13.8728 202.248
    endloop
  endfacet
  facet normal -0.0928373 -0.0597273 0.993888
    outer loop
      vertex 173.58 13.8728 201.932
      vertex 176.963 13.8728 202.248
      vertex 174.621 14.6343 202.075
    endloop
  endfacet
  facet normal -0.700324 0.705625 -0.107887
    outer loop
      vertex 173.594 -11.4086 201.785
      vertex 174.059 -10.9448 201.8
      vertex 187.317 -19.5047 59.7534
    endloop
  endfacet
  facet normal -0.884791 0.452851 -0.109865
    outer loop
      vertex 173.594 -11.4086 201.785
      vertex 186.851 -19.9684 59.7379
      vertex 186.551 -20.5528 59.7451
    endloop
  endfacet
  facet normal -0.699436 0.706511 -0.107852
    outer loop
      vertex 173.594 -11.4086 201.785
      vertex 187.317 -19.5047 59.7534
      vertex 186.851 -19.9684 59.7379
    endloop
  endfacet
  facet normal -0.884791 -0.452851 -0.109865
    outer loop
      vertex 173.594 11.4086 201.785
      vertex 186.551 20.5528 59.7451
      vertex 186.851 19.9684 59.7379
    endloop
  endfacet
  facet normal -0.699436 -0.706511 -0.107852
    outer loop
      vertex 173.594 11.4086 201.785
      vertex 186.851 19.9684 59.7379
      vertex 187.317 19.5047 59.7534
    endloop
  endfacet
  facet normal -0.700324 -0.705625 -0.107887
    outer loop
      vertex 173.594 11.4086 201.785
      vertex 187.317 19.5047 59.7534
      vertex 174.059 10.9448 201.8
    endloop
  endfacet
  facet normal -0.707938 -0.705883 -0.0235388
    outer loop
      vertex 174.04 -14.3366 202.003
      vertex 186.838 -22.4327 59.8852
      vertex 187.298 -22.8964 59.956
    endloop
  endfacet
  facet normal -0.457061 -0.889368 0.0109337
    outer loop
      vertex 174.04 -14.3366 202.003
      vertex 187.298 -22.8964 59.956
      vertex 174.621 -14.6343 202.075
    endloop
  endfacet
  facet normal -0.457061 0.889368 0.0109337
    outer loop
      vertex 174.04 14.3366 202.003
      vertex 174.621 14.6343 202.075
      vertex 187.298 22.8964 59.956
    endloop
  endfacet
  facet normal -0.707938 0.705883 -0.0235388
    outer loop
      vertex 174.04 14.3366 202.003
      vertex 187.298 22.8964 59.956
      vertex 186.838 22.4327 59.8852
    endloop
  endfacet
  facet normal -0.447287 0.889295 -0.0953378
    outer loop
      vertex 174.059 -10.9448 201.8
      vertex 174.643 -10.6471 201.837
      vertex 187.317 -19.5047 59.7534
    endloop
  endfacet
  facet normal -0.091998 0.0569162 0.994131
    outer loop
      vertex 174.059 -10.9448 201.8
      vertex 175.29 -10.5445 201.891
      vertex 174.643 -10.6471 201.837
    endloop
  endfacet
  facet normal -0.091998 -0.0569162 0.994131
    outer loop
      vertex 174.059 10.9448 201.8
      vertex 174.643 10.6471 201.837
      vertex 175.29 10.5445 201.891
    endloop
  endfacet
  facet normal -0.447287 -0.889295 -0.0953378
    outer loop
      vertex 174.059 10.9448 201.8
      vertex 187.317 19.5047 59.7534
      vertex 174.643 10.6471 201.837
    endloop
  endfacet
  facet normal -0.0922516 0.0585789 0.994011
    outer loop
      vertex 174.621 -14.6343 202.075
      vertex 175.267 -14.7369 202.141
      vertex 175.914 -14.6343 202.195
    endloop
  endfacet
  facet normal -0.0922553 0.0579003 0.994051
    outer loop
      vertex 174.621 -14.6343 202.075
      vertex 175.914 -14.6343 202.195
      vertex 176.963 -13.8728 202.248
    endloop
  endfacet
  facet normal -0.457183 -0.889305 0.0109191
    outer loop
      vertex 174.621 -14.6343 202.075
      vertex 187.298 -22.8964 59.956
      vertex 187.879 -23.1942 60.0282
    endloop
  endfacet
  facet normal -0.161124 -0.985936 0.0443751
    outer loop
      vertex 174.621 -14.6343 202.075
      vertex 187.879 -23.1942 60.0282
      vertex 175.267 -14.7369 202.141
    endloop
  endfacet
  facet normal -0.161124 0.985936 0.0443751
    outer loop
      vertex 174.621 14.6343 202.075
      vertex 175.267 14.7369 202.141
      vertex 187.879 23.1942 60.0282
    endloop
  endfacet
  facet normal -0.0922516 -0.0585789 0.994011
    outer loop
      vertex 174.621 14.6343 202.075
      vertex 175.914 14.6343 202.195
      vertex 175.267 14.7369 202.141
    endloop
  endfacet
  facet normal -0.0922553 -0.0579003 0.994051
    outer loop
      vertex 174.621 14.6343 202.075
      vertex 176.963 13.8728 202.248
      vertex 175.914 14.6343 202.195
    endloop
  endfacet
  facet normal -0.457183 0.889305 0.0109191
    outer loop
      vertex 174.621 14.6343 202.075
      vertex 187.879 23.1942 60.0282
      vertex 187.298 22.8964 59.956
    endloop
  endfacet
  facet normal -0.150217 0.985922 -0.0734325
    outer loop
      vertex 174.643 -10.6471 201.837
      vertex 175.29 -10.5445 201.891
      vertex 187.901 -19.2069 59.79
    endloop
  endfacet
  facet normal -0.447459 0.889207 -0.0953476
    outer loop
      vertex 174.643 -10.6471 201.837
      vertex 187.901 -19.2069 59.79
      vertex 187.317 -19.5047 59.7534
    endloop
  endfacet
  facet normal -0.447459 -0.889207 -0.0953476
    outer loop
      vertex 174.643 10.6471 201.837
      vertex 187.317 19.5047 59.7534
      vertex 187.901 19.2069 59.79
    endloop
  endfacet
  facet normal -0.150217 -0.985922 -0.0734325
    outer loop
      vertex 174.643 10.6471 201.837
      vertex 187.901 19.2069 59.79
      vertex 175.29 10.5445 201.891
    endloop
  endfacet
  facet normal -0.161157 -0.985931 0.0443718
    outer loop
      vertex 175.267 -14.7369 202.141
      vertex 187.879 -23.1942 60.0282
      vertex 188.525 -23.2968 60.0947
    endloop
  endfacet
  facet normal 0.150431 -0.985888 0.0734515
    outer loop
      vertex 175.267 -14.7369 202.141
      vertex 188.525 -23.2968 60.0947
      vertex 189.171 -23.1942 60.1488
    endloop
  endfacet
  facet normal 0.150217 -0.985922 0.0734326
    outer loop
      vertex 175.267 -14.7369 202.141
      vertex 189.171 -23.1942 60.1488
      vertex 175.914 -14.6343 202.195
    endloop
  endfacet
  facet normal 0.150217 0.985922 0.0734326
    outer loop
      vertex 175.267 14.7369 202.141
      vertex 175.914 14.6343 202.195
      vertex 189.171 23.1942 60.1488
    endloop
  endfacet
  facet normal -0.161157 0.985931 0.0443718
    outer loop
      vertex 175.267 14.7369 202.141
      vertex 188.525 23.2968 60.0947
      vertex 187.879 23.1942 60.0282
    endloop
  endfacet
  facet normal 0.150431 0.985888 0.0734515
    outer loop
      vertex 175.267 14.7369 202.141
      vertex 189.171 23.1942 60.1488
      vertex 188.525 23.2968 60.0947
    endloop
  endfacet
  facet normal 0.161124 0.985936 -0.0443756
    outer loop
      vertex 175.29 -10.5445 201.891
      vertex 175.936 -10.6471 201.957
      vertex 189.193 -19.2069 59.9106
    endloop
  endfacet
  facet normal -0.0918298 0.0611599 0.993895
    outer loop
      vertex 175.29 -10.5445 201.891
      vertex 176.517 -10.9448 202.029
      vertex 175.936 -10.6471 201.957
    endloop
  endfacet
  facet normal -0.09211 0.06031 0.993921
    outer loop
      vertex 175.29 -10.5445 201.891
      vertex 176.963 -13.8728 202.248
      vertex 176.517 -10.9448 202.029
    endloop
  endfacet
  facet normal -0.150195 0.985926 -0.0734308
    outer loop
      vertex 175.29 -10.5445 201.891
      vertex 188.548 -19.1043 59.8442
      vertex 187.901 -19.2069 59.79
    endloop
  endfacet
  facet normal 0.161391 0.985894 -0.0443468
    outer loop
      vertex 175.29 -10.5445 201.891
      vertex 189.193 -19.2069 59.9106
      vertex 188.548 -19.1043 59.8442
    endloop
  endfacet
  facet normal -0.0918298 -0.0611599 0.993895
    outer loop
      vertex 175.29 10.5445 201.891
      vertex 175.936 10.6471 201.957
      vertex 176.517 10.9448 202.029
    endloop
  endfacet
  facet normal -0.09211 -0.06031 0.993921
    outer loop
      vertex 175.29 10.5445 201.891
      vertex 176.517 10.9448 202.029
      vertex 176.963 13.8728 202.248
    endloop
  endfacet
  facet normal -0.150195 -0.985926 -0.0734308
    outer loop
      vertex 175.29 10.5445 201.891
      vertex 187.901 19.2069 59.79
      vertex 188.548 19.1043 59.8442
    endloop
  endfacet
  facet normal 0.161391 -0.985894 -0.0443468
    outer loop
      vertex 175.29 10.5445 201.891
      vertex 188.548 19.1043 59.8442
      vertex 189.193 19.2069 59.9106
    endloop
  endfacet
  facet normal 0.161124 -0.985936 -0.0443756
    outer loop
      vertex 175.29 10.5445 201.891
      vertex 189.193 19.2069 59.9106
      vertex 175.936 10.6471 201.957
    endloop
  endfacet
  facet normal -0.0930458 0.0589989 0.993912
    outer loop
      vertex 175.914 -14.6343 202.195
      vertex 176.498 -14.3366 202.232
      vertex 176.963 -13.8728 202.248
    endloop
  endfacet
  facet normal 0.446854 -0.889516 0.0953078
    outer loop
      vertex 175.914 -14.6343 202.195
      vertex 189.171 -23.1942 60.1488
      vertex 189.756 -22.8964 60.1854
    endloop
  endfacet
  facet normal 0.447287 -0.889295 0.0953371
    outer loop
      vertex 175.914 -14.6343 202.195
      vertex 189.756 -22.8964 60.1854
      vertex 176.498 -14.3366 202.232
    endloop
  endfacet
  facet normal 0.447287 0.889295 0.0953371
    outer loop
      vertex 175.914 14.6343 202.195
      vertex 176.498 14.3366 202.232
      vertex 189.756 22.8964 60.1854
    endloop
  endfacet
  facet normal -0.0930458 -0.0589989 0.993912
    outer loop
      vertex 175.914 14.6343 202.195
      vertex 176.963 13.8728 202.248
      vertex 176.498 14.3366 202.232
    endloop
  endfacet
  facet normal 0.446854 0.889516 0.0953078
    outer loop
      vertex 175.914 14.6343 202.195
      vertex 189.756 22.8964 60.1854
      vertex 189.171 23.1942 60.1488
    endloop
  endfacet
  facet normal 0.457061 0.889368 -0.0109344
    outer loop
      vertex 175.936 -10.6471 201.957
      vertex 176.517 -10.9448 202.029
      vertex 189.775 -19.5047 59.9828
    endloop
  endfacet
  facet normal 0.456569 0.88962 -0.0109981
    outer loop
      vertex 175.936 -10.6471 201.957
      vertex 189.775 -19.5047 59.9828
      vertex 189.193 -19.2069 59.9106
    endloop
  endfacet
  facet normal 0.456569 -0.88962 -0.0109981
    outer loop
      vertex 175.936 10.6471 201.957
      vertex 189.193 19.2069 59.9106
      vertex 189.775 19.5047 59.9828
    endloop
  endfacet
  facet normal 0.457061 -0.889368 -0.0109344
    outer loop
      vertex 175.936 10.6471 201.957
      vertex 189.775 19.5047 59.9828
      vertex 176.517 10.9448 202.029
    endloop
  endfacet
  facet normal 0.70019 -0.705759 0.107882
    outer loop
      vertex 176.498 -14.3366 202.232
      vertex 189.756 -22.8964 60.1854
      vertex 190.221 -22.4327 60.2009
    endloop
  endfacet
  facet normal 0.700208 -0.705741 0.107883
    outer loop
      vertex 176.498 -14.3366 202.232
      vertex 190.221 -22.4327 60.2009
      vertex 176.963 -13.8728 202.248
    endloop
  endfacet
  facet normal 0.700208 0.705741 0.107883
    outer loop
      vertex 176.498 14.3366 202.232
      vertex 176.963 13.8728 202.248
      vertex 190.221 22.4327 60.2009
    endloop
  endfacet
  facet normal 0.70019 0.705759 0.107882
    outer loop
      vertex 176.498 14.3366 202.232
      vertex 190.221 22.4327 60.2009
      vertex 189.756 22.8964 60.1854
    endloop
  endfacet
  facet normal -0.0929841 0.0601714 0.993848
    outer loop
      vertex 176.517 -10.9448 202.029
      vertex 176.963 -13.8728 202.248
      vertex 177.271 -11.9929 202.163
    endloop
  endfacet
  facet normal 0.708008 0.705812 0.0235498
    outer loop
      vertex 176.517 -10.9448 202.029
      vertex 176.977 -11.4086 202.1
      vertex 190.235 -19.9684 60.0537
    endloop
  endfacet
  facet normal -0.0920625 0.0608401 0.993893
    outer loop
      vertex 176.517 -10.9448 202.029
      vertex 177.271 -11.9929 202.163
      vertex 176.977 -11.4086 202.1
    endloop
  endfacet
  facet normal 0.707935 0.705885 0.0235381
    outer loop
      vertex 176.517 -10.9448 202.029
      vertex 190.235 -19.9684 60.0537
      vertex 189.775 -19.5047 59.9828
    endloop
  endfacet
  facet normal -0.0920625 -0.0608401 0.993893
    outer loop
      vertex 176.517 10.9448 202.029
      vertex 176.977 11.4086 202.1
      vertex 177.271 11.9929 202.163
    endloop
  endfacet
  facet normal -0.0929841 -0.0601714 0.993848
    outer loop
      vertex 176.517 10.9448 202.029
      vertex 177.271 11.9929 202.163
      vertex 176.963 13.8728 202.248
    endloop
  endfacet
  facet normal 0.707935 -0.705885 0.0235381
    outer loop
      vertex 176.517 10.9448 202.029
      vertex 189.775 19.5047 59.9828
      vertex 190.235 19.9684 60.0537
    endloop
  endfacet
  facet normal 0.708008 -0.705812 0.0235498
    outer loop
      vertex 176.517 10.9448 202.029
      vertex 190.235 19.9684 60.0537
      vertex 176.977 11.4086 202.1
    endloop
  endfacet
  facet normal -0.0883338 0.0589678 0.994344
    outer loop
      vertex 176.963 -13.8728 202.248
      vertex 177.263 -13.2885 202.24
      vertex 177.369 -12.6407 202.211
    endloop
  endfacet
  facet normal -0.091107 0.0598725 0.99404
    outer loop
      vertex 176.963 -13.8728 202.248
      vertex 177.369 -12.6407 202.211
      vertex 177.271 -11.9929 202.163
    endloop
  endfacet
  facet normal 0.88482 -0.452793 0.109871
    outer loop
      vertex 176.963 -13.8728 202.248
      vertex 190.221 -22.4327 60.2009
      vertex 177.263 -13.2885 202.24
    endloop
  endfacet
  facet normal 0.88482 0.452793 0.109871
    outer loop
      vertex 176.963 13.8728 202.248
      vertex 177.263 13.2885 202.24
      vertex 190.221 22.4327 60.2009
    endloop
  endfacet
  facet normal -0.091107 -0.0598725 0.99404
    outer loop
      vertex 176.963 13.8728 202.248
      vertex 177.271 11.9929 202.163
      vertex 177.369 12.6407 202.211
    endloop
  endfacet
  facet normal -0.0883338 -0.0589678 0.994344
    outer loop
      vertex 176.963 13.8728 202.248
      vertex 177.369 12.6407 202.211
      vertex 177.263 13.2885 202.24
    endloop
  endfacet
  facet normal 0.889484 0.453562 0.055682
    outer loop
      vertex 176.977 -11.4086 202.1
      vertex 177.271 -11.9929 202.163
      vertex 190.528 -20.5528 60.1163
    endloop
  endfacet
  facet normal 0.890134 0.452266 0.0558275
    outer loop
      vertex 176.977 -11.4086 202.1
      vertex 190.528 -20.5528 60.1163
      vertex 190.235 -19.9684 60.0537
    endloop
  endfacet
  facet normal 0.890134 -0.452266 0.0558275
    outer loop
      vertex 176.977 11.4086 202.1
      vertex 190.235 19.9684 60.0537
      vertex 190.528 20.5528 60.1163
    endloop
  endfacet
  facet normal 0.889484 -0.453562 0.055682
    outer loop
      vertex 176.977 11.4086 202.1
      vertex 190.528 20.5528 60.1163
      vertex 177.271 11.9929 202.163
    endloop
  endfacet
  facet normal 0.884791 -0.452851 0.109872
    outer loop
      vertex 177.263 -13.2885 202.24
      vertex 190.221 -22.4327 60.2009
      vertex 190.521 -21.8483 60.1937
    endloop
  endfacet
  facet normal 0.982528 -0.156245 0.10112
    outer loop
      vertex 177.263 -13.2885 202.24
      vertex 190.521 -21.8483 60.1937
      vertex 177.369 -12.6407 202.211
    endloop
  endfacet
  facet normal 0.982528 0.156245 0.10112
    outer loop
      vertex 177.263 13.2885 202.24
      vertex 177.369 12.6407 202.211
      vertex 190.521 21.8483 60.1937
    endloop
  endfacet
  facet normal 0.884791 0.452851 0.109872
    outer loop
      vertex 177.263 13.2885 202.24
      vertex 190.521 21.8483 60.1937
      vertex 190.221 22.4327 60.2009
    endloop
  endfacet
  facet normal 0.984454 0.155045 0.0825344
    outer loop
      vertex 177.271 -11.9929 202.163
      vertex 177.369 -12.6407 202.211
      vertex 190.528 -20.5528 60.1163
    endloop
  endfacet
  facet normal 0.984454 -0.155045 0.0825344
    outer loop
      vertex 177.271 11.9929 202.163
      vertex 190.528 20.5528 60.1163
      vertex 177.369 12.6407 202.211
    endloop
  endfacet
  facet normal 0.982531 -0.15623 0.10112
    outer loop
      vertex 177.369 -12.6407 202.211
      vertex 190.521 -21.8483 60.1937
      vertex 190.627 -21.2005 60.1646
    endloop
  endfacet
  facet normal 0.984219 0.156583 0.082427
    outer loop
      vertex 177.369 -12.6407 202.211
      vertex 190.627 -21.2005 60.1646
      vertex 190.528 -20.5528 60.1163
    endloop
  endfacet
  facet normal 0.984219 -0.156583 0.082427
    outer loop
      vertex 177.369 12.6407 202.211
      vertex 190.528 20.5528 60.1163
      vertex 190.627 21.2005 60.1646
    endloop
  endfacet
  facet normal 0.982531 0.15623 0.10112
    outer loop
      vertex 177.369 12.6407 202.211
      vertex 190.627 21.2005 60.1646
      vertex 190.521 21.8483 60.1937
    endloop
  endfacet
  facet normal 0.0928731 -0.0600054 -0.993868
    outer loop
      vertex 186.445 -21.2005 59.7743
      vertex 186.551 -20.5528 59.7451
      vertex 187.317 -19.5047 59.7534
    endloop
  endfacet
  facet normal 0.0933077 -0.0596881 -0.993847
    outer loop
      vertex 186.445 -21.2005 59.7743
      vertex 186.838 -22.4327 59.8852
      vertex 186.544 -21.8483 59.8225
    endloop
  endfacet
  facet normal 0.0928898 -0.060014 -0.993866
    outer loop
      vertex 186.445 -21.2005 59.7743
      vertex 187.317 -19.5047 59.7534
      vertex 187.901 -19.2069 59.79
    endloop
  endfacet
  facet normal 0.0927329 -0.0598992 -0.993888
    outer loop
      vertex 186.445 -21.2005 59.7743
      vertex 187.901 -19.2069 59.79
      vertex 189.171 -23.1942 60.1488
    endloop
  endfacet
  facet normal 0.0927559 -0.0598678 -0.993887
    outer loop
      vertex 186.445 -21.2005 59.7743
      vertex 189.171 -23.1942 60.1488
      vertex 186.838 -22.4327 59.8852
    endloop
  endfacet
  facet normal 0.0933077 0.0596881 -0.993847
    outer loop
      vertex 186.445 21.2005 59.7743
      vertex 186.544 21.8483 59.8225
      vertex 186.838 22.4327 59.8852
    endloop
  endfacet
  facet normal 0.0927559 0.0598678 -0.993887
    outer loop
      vertex 186.445 21.2005 59.7743
      vertex 186.838 22.4327 59.8852
      vertex 189.171 23.1942 60.1488
    endloop
  endfacet
  facet normal 0.0928731 0.0600054 -0.993868
    outer loop
      vertex 186.445 21.2005 59.7743
      vertex 187.317 19.5047 59.7534
      vertex 186.551 20.5528 59.7451
    endloop
  endfacet
  facet normal 0.0928898 0.060014 -0.993866
    outer loop
      vertex 186.445 21.2005 59.7743
      vertex 187.901 19.2069 59.79
      vertex 187.317 19.5047 59.7534
    endloop
  endfacet
  facet normal 0.0927329 0.0598992 -0.993888
    outer loop
      vertex 186.445 21.2005 59.7743
      vertex 189.171 23.1942 60.1488
      vertex 187.901 19.2069 59.79
    endloop
  endfacet
  facet normal 0.0924894 -0.0597246 -0.993921
    outer loop
      vertex 186.551 -20.5528 59.7451
      vertex 186.851 -19.9684 59.7379
      vertex 187.317 -19.5047 59.7534
    endloop
  endfacet
  facet normal 0.0924894 0.0597246 -0.993921
    outer loop
      vertex 186.551 20.5528 59.7451
      vertex 187.317 19.5047 59.7534
      vertex 186.851 19.9684 59.7379
    endloop
  endfacet
  facet normal 0.0930295 -0.0594643 -0.993886
    outer loop
      vertex 186.838 -22.4327 59.8852
      vertex 187.879 -23.1942 60.0282
      vertex 187.298 -22.8964 59.956
    endloop
  endfacet
  facet normal 0.0927732 -0.0598151 -0.993889
    outer loop
      vertex 186.838 -22.4327 59.8852
      vertex 189.171 -23.1942 60.1488
      vertex 187.879 -23.1942 60.0282
    endloop
  endfacet
  facet normal 0.0930295 0.0594643 -0.993886
    outer loop
      vertex 186.838 22.4327 59.8852
      vertex 187.298 22.8964 59.956
      vertex 187.879 23.1942 60.0282
    endloop
  endfacet
  facet normal 0.0927732 0.0598151 -0.993889
    outer loop
      vertex 186.838 22.4327 59.8852
      vertex 187.879 23.1942 60.0282
      vertex 189.171 23.1942 60.1488
    endloop
  endfacet
  facet normal 0.0927719 -0.0600587 -0.993874
    outer loop
      vertex 187.879 -23.1942 60.0282
      vertex 189.171 -23.1942 60.1488
      vertex 188.525 -23.2968 60.0947
    endloop
  endfacet
  facet normal 0.0927719 0.0600587 -0.993874
    outer loop
      vertex 187.879 23.1942 60.0282
      vertex 188.525 23.2968 60.0947
      vertex 189.171 23.1942 60.1488
    endloop
  endfacet
  facet normal 0.0927463 -0.0598242 -0.993891
    outer loop
      vertex 187.901 -19.2069 59.79
      vertex 188.548 -19.1043 59.8442
      vertex 189.775 -19.5047 59.9828
    endloop
  endfacet
  facet normal 0.0927209 -0.0599797 -0.993884
    outer loop
      vertex 187.901 -19.2069 59.79
      vertex 189.775 -19.5047 59.9828
      vertex 190.528 -20.5528 60.1163
    endloop
  endfacet
  facet normal 0.0927412 -0.0599402 -0.993884
    outer loop
      vertex 187.901 -19.2069 59.79
      vertex 190.528 -20.5528 60.1163
      vertex 190.627 -21.2005 60.1646
    endloop
  endfacet
  facet normal 0.0927829 -0.0598829 -0.993884
    outer loop
      vertex 187.901 -19.2069 59.79
      vertex 190.627 -21.2005 60.1646
      vertex 189.171 -23.1942 60.1488
    endloop
  endfacet
  facet normal 0.0927829 0.0598829 -0.993884
    outer loop
      vertex 187.901 19.2069 59.79
      vertex 189.171 23.1942 60.1488
      vertex 190.627 21.2005 60.1646
    endloop
  endfacet
  facet normal 0.0927463 0.0598242 -0.993891
    outer loop
      vertex 187.901 19.2069 59.79
      vertex 189.775 19.5047 59.9828
      vertex 188.548 19.1043 59.8442
    endloop
  endfacet
  facet normal 0.0927209 0.0599797 -0.993884
    outer loop
      vertex 187.901 19.2069 59.79
      vertex 190.528 20.5528 60.1163
      vertex 189.775 19.5047 59.9828
    endloop
  endfacet
  facet normal 0.0927412 0.0599402 -0.993884
    outer loop
      vertex 187.901 19.2069 59.79
      vertex 190.627 21.2005 60.1646
      vertex 190.528 20.5528 60.1163
    endloop
  endfacet
  facet normal 0.0928532 -0.0594999 -0.9939
    outer loop
      vertex 188.548 -19.1043 59.8442
      vertex 189.193 -19.2069 59.9106
      vertex 189.775 -19.5047 59.9828
    endloop
  endfacet
  facet normal 0.0928532 0.0594999 -0.9939
    outer loop
      vertex 188.548 19.1043 59.8442
      vertex 189.775 19.5047 59.9828
      vertex 189.193 19.2069 59.9106
    endloop
  endfacet
  facet normal 0.0924829 -0.0595181 -0.993934
    outer loop
      vertex 189.171 -23.1942 60.1488
      vertex 190.221 -22.4327 60.2009
      vertex 189.756 -22.8964 60.1854
    endloop
  endfacet
  facet normal 0.0927032 -0.0598246 -0.993895
    outer loop
      vertex 189.171 -23.1942 60.1488
      vertex 190.627 -21.2005 60.1646
      vertex 190.221 -22.4327 60.2009
    endloop
  endfacet
  facet normal 0.0924829 0.0595181 -0.993934
    outer loop
      vertex 189.171 23.1942 60.1488
      vertex 189.756 22.8964 60.1854
      vertex 190.221 22.4327 60.2009
    endloop
  endfacet
  facet normal 0.0927032 0.0598246 -0.993895
    outer loop
      vertex 189.171 23.1942 60.1488
      vertex 190.221 22.4327 60.2009
      vertex 190.627 21.2005 60.1646
    endloop
  endfacet
  facet normal 0.0927381 -0.0599672 -0.993883
    outer loop
      vertex 189.775 -19.5047 59.9828
      vertex 190.235 -19.9684 60.0537
      vertex 190.528 -20.5528 60.1163
    endloop
  endfacet
  facet normal 0.0927381 0.0599672 -0.993883
    outer loop
      vertex 189.775 19.5047 59.9828
      vertex 190.528 20.5528 60.1163
      vertex 190.235 19.9684 60.0537
    endloop
  endfacet
  facet normal 0.0926525 -0.0598081 -0.993901
    outer loop
      vertex 190.221 -22.4327 60.2009
      vertex 190.627 -21.2005 60.1646
      vertex 190.521 -21.8483 60.1937
    endloop
  endfacet
  facet normal 0.0926525 0.0598081 -0.993901
    outer loop
      vertex 190.221 22.4327 60.2009
      vertex 190.521 21.8483 60.1937
      vertex 190.627 21.2005 60.1646
    endloop
  endfacet
endsolid model
