solid model
  facet normal -1 -0 0
    outer loop
      vertex -135 -50 -100
      vertex -135 -50 100
      vertex -135 50 100
    endloop
  endfacet
  facet normal 0 0 -1
    outer loop
      vertex -135 -50 -100
      vertex -135 50 -100
      vertex 135 28 -100
    endloop
  endfacet
  facet normal -1 0 0
    outer loop
      vertex -135 -50 -100
      vertex -135 50 100
      vertex -135 50 -100
    endloop
  endfacet
  facet normal -0 0 -1
    outer loop
      vertex -135 -50 -100
      vertex 135 -28 -100
      vertex 135 -33 -100
    endloop
  endfacet
  facet normal 0 0 -1
    outer loop
      vertex -135 -50 -100
      vertex 135 -33 -100
      vertex 135 -50 -100
    endloop
  endfacet
  facet normal 0 -1 -0
    outer loop
      vertex -135 -50 -100
      vertex 135 -50 -100
      vertex 135 -50 100
    endloop
  endfacet
  facet normal 0 -1 0
    outer loop
      vertex -135 -50 -100
      vertex 135 -50 100
      vertex -135 -50 100
    endloop
  endfacet
  facet normal -0 0 -1
    outer loop
      vertex -135 -50 -100
      vertex 135 28 -100
      vertex 135 -28 -100
    endloop
  endfacet
  facet normal 0 0 1
    outer loop
      vertex -135 -50 100
      vertex 135 -28 100
      vertex -135 50 100
    endloop
  endfacet
  facet normal 0 0 1
    outer loop
      vertex -135 -50 100
      vertex 135 -33 100
      vertex 135 -28 100
    endloop
  endfacet
  facet normal 0 0 1
    outer loop
      vertex -135 -50 100
      vertex 135 -50 100
      vertex 135 -33 100
    endloop
  endfacet
  facet normal 0 1 0
    outer loop
      vertex -135 50 -100
      vertex -135 50 100
      vertex 135 50 -100
    endloop
  endfacet
  facet normal 0 0 -1
    outer loop
      vertex -135 50 -100
      vertex 135 33 -100
      vertex 135 28 -100
    endloop
  endfacet
  facet normal 0 0 -1
    outer loop
      vertex -135 50 -100
      vertex 135 50 -100
      vertex 135 33 -100
    endloop
  endfacet
  facet normal 0 0 1
    outer loop
      vertex -135 50 100
      vertex 135 -28 100
      vertex 135 28 100
    endloop
  endfacet
  facet normal 0 0 1
    outer loop
      vertex -135 50 100
      vertex 135 28 100
      vertex 135 33 100
    endloop
  endfacet
  facet normal -0 0 1
    outer loop
      vertex -135 50 100
      vertex 135 33 100
      vertex 135 50 100
    endloop
  endfacet
  facet normal 0 1 -0
    outer loop
      vertex -135 50 100
      vertex 135 50 100
      vertex 135 50 -100
    endloop
  endfacet
  facet normal 0 1 0
    outer loop
      vertex 135 -28 -100
      vertex 135 -28 100
      vertex 215 -28 -100
    endloop
  endfacet
  facet normal 1 0 0
    outer loop
      vertex 135 -28 -100
      vertex 135 28 -100
      vertex 135 -28 100
    endloop
  endfacet
  facet normal 1 -0 0
    outer loop
      vertex 135 -28 100
      vertex 135 28 -100
      vertex 135 28 100
    endloop
  endfacet
  facet normal 0 1 -0
    outer loop
      vertex 135 -28 100
      vertex 215 -28 100
      vertex 215 -28 -100
    endloop
  endfacet
  facet normal -0 0 1
    outer loop
      vertex 135 -28 100
      vertex 215 -33 100
      vertex 215 -28 100
    endloop
  endfacet
  facet normal -0 0 -1
    outer loop
      vertex 135 -33 -100
      vertex 135 -28 -100
      vertex 215 -28 -100
    endloop
  endfacet
  facet normal 0 0 -1
    outer loop
      vertex 135 -33 -100
      vertex 215 -28 -100
      vertex 215 -33 -100
    endloop
  endfacet
  facet normal 0 -1 -0
    outer loop
      vertex 135 -33 -100
      vertex 215 -33 -100
      vertex 215 -33 100
    endloop
  endfacet
  facet normal 0 -1 0
    outer loop
      vertex 135 -33 -100
      vertex 215 -33 100
      vertex 135 -33 100
    endloop
  endfacet
  facet normal 0 0 1
    outer loop
      vertex 135 -33 100
      vertex 215 -33 100
      vertex 135 -28 100
    endloop
  endfacet
  facet normal 1 0 0
    outer loop
      vertex 135 -50 -100
      vertex 135 -33 -100
      vertex 135 -50 100
    endloop
  endfacet
  facet normal 1 -0 0
    outer loop
      vertex 135 -50 100
      vertex 135 -33 -100
      vertex 135 -33 100
    endloop
  endfacet
  facet normal -0 0 -1
    outer loop
      vertex 135 28 -100
      vertex 135 33 -100
      vertex 215 33 -100
    endloop
  endfacet
  facet normal 0 -1 -0
    outer loop
      vertex 135 28 -100
      vertex 215 28 -100
      vertex 215 28 100
    endloop
  endfacet
  facet normal 0 -1 0
    outer loop
      vertex 135 28 -100
      vertex 215 28 100
      vertex 135 28 100
    endloop
  endfacet
  facet normal 0 0 -1
    outer loop
      vertex 135 28 -100
      vertex 215 33 -100
      vertex 215 28 -100
    endloop
  endfacet
  facet normal 0 0 1
    outer loop
      vertex 135 28 100
      vertex 215 28 100
      vertex 135 33 100
    endloop
  endfacet
  facet normal 0 1 0
    outer loop
      vertex 135 33 -100
      vertex 135 33 100
      vertex 215 33 -100
    endloop
  endfacet
  facet normal 1 0 0
    outer loop
      vertex 135 33 -100
      vertex 135 50 -100
      vertex 135 33 100
    endloop
  endfacet
  facet normal 1 -0 0
    outer loop
      vertex 135 33 100
      vertex 135 50 -100
      vertex 135 50 100
    endloop
  endfacet
  facet normal -0 0 1
    outer loop
      vertex 135 33 100
      vertex 215 28 100
      vertex 215 33 100
    endloop
  endfacet
  facet normal 0 1 -0
    outer loop
      vertex 135 33 100
      vertex 215 33 100
      vertex 215 33 -100
    endloop
  endfacet
  facet normal 1 0 0
    outer loop
      vertex 215 -33 -100
      vertex 215 -28 -100
      vertex 215 -33 100
    endloop
  endfacet
  facet normal 1 -0 0
    outer loop
      vertex 215 -33 100
      vertex 215 -28 -100
      vertex 215 -28 100
    endloop
  endfacet
  facet normal 1 0 0
    outer loop
      vertex 215 28 -100
      vertex 215 33 -100
      vertex 215 28 100
    endloop
  endfacet
  facet normal 1 -0 0
    outer loop
      vertex 215 28 100
      vertex 215 33 -100
      vertex 215 33 100
    endloop
  endfacet
endsolid model
