solid model
  facet normal 0 0 1
    outer loop
      vertex 30 0 -5
      vertex 33.5 3 -5
      vertex 33.5328 3.31187 -5
    endloop
  endfacet
  facet normal 0 0 1
    outer loop
      vertex 30 0 -5
      vertex 33.5328 2.68813 -5
      vertex 33.5 3 -5
    endloop
  endfacet
  facet normal 0 0 1
    outer loop
      vertex 30 0 -5
      vertex 33.5328 3.31187 -5
      vertex 33.6297 3.6101 -5
    endloop
  endfacet
  facet normal 0 0 1
    outer loop
      vertex 30 0 -5
      vertex 33.6297 2.38989 -5
      vertex 33.5328 2.68813 -5
    endloop
  endfacet
  facet normal 0 0 1
    outer loop
      vertex 30 0 -5
      vertex 33.6297 3.6101 -5
      vertex 33.7865 3.88168 -5
    endloop
  endfacet
  facet normal 0 0 1
    outer loop
      vertex 30 0 -5
      vertex 33.7865 2.11832 -5
      vertex 33.6297 2.38989 -5
    endloop
  endfacet
  facet normal 0 0 1
    outer loop
      vertex 30 0 -5
      vertex 33.7865 3.88168 -5
      vertex 30 27 -5
    endloop
  endfacet
  facet normal 0 0 1
    outer loop
      vertex 30 0 -5
      vertex 33.9963 1.88528 -5
      vertex 33.7865 2.11832 -5
    endloop
  endfacet
  facet normal 0 0 1
    outer loop
      vertex 30 0 -5
      vertex 34.25 1.70096 -5
      vertex 33.9963 1.88528 -5
    endloop
  endfacet
  facet normal 0 0 1
    outer loop
      vertex 30 0 -5
      vertex 34.5365 1.57341 -5
      vertex 34.25 1.70096 -5
    endloop
  endfacet
  facet normal 0 0 1
    outer loop
      vertex 30 0 -5
      vertex 34.8432 1.50822 -5
      vertex 34.5365 1.57341 -5
    endloop
  endfacet
  facet normal 0 0 1
    outer loop
      vertex 30 0 -5
      vertex 40 0 -5
      vertex 34.8432 1.50822 -5
    endloop
  endfacet
  facet normal -1 -0 0
    outer loop
      vertex 30 0 -7
      vertex 30 0 -5
      vertex 30 27 -5
    endloop
  endfacet
  facet normal -1 0 0
    outer loop
      vertex 30 0 -7
      vertex 30 27 -5
      vertex 30 27 -7
    endloop
  endfacet
  facet normal 0 0 -1
    outer loop
      vertex 30 0 -7
      vertex 30 27 -7
      vertex 33.7865 23.1183 -7
    endloop
  endfacet
  facet normal -0 0 -1
    outer loop
      vertex 30 0 -7
      vertex 33.5 3 -7
      vertex 33.5328 2.68813 -7
    endloop
  endfacet
  facet normal -0 0 -1
    outer loop
      vertex 30 0 -7
      vertex 33.5328 2.68813 -7
      vertex 33.6297 2.38989 -7
    endloop
  endfacet
  facet normal 0 0 -1
    outer loop
      vertex 30 0 -7
      vertex 33.5328 3.31187 -7
      vertex 33.5 3 -7
    endloop
  endfacet
  facet normal -0 0 -1
    outer loop
      vertex 30 0 -7
      vertex 33.6297 2.38989 -7
      vertex 33.7865 2.11832 -7
    endloop
  endfacet
  facet normal 0 0 -1
    outer loop
      vertex 30 0 -7
      vertex 33.6297 3.6101 -7
      vertex 33.5328 3.31187 -7
    endloop
  endfacet
  facet normal -0 0 -1
    outer loop
      vertex 30 0 -7
      vertex 33.7865 2.11832 -7
      vertex 33.9963 1.88528 -7
    endloop
  endfacet
  facet normal -0 0 -1
    outer loop
      vertex 30 0 -7
      vertex 33.7865 23.1183 -7
      vertex 33.7865 3.88168 -7
    endloop
  endfacet
  facet normal 0 0 -1
    outer loop
      vertex 30 0 -7
      vertex 33.7865 3.88168 -7
      vertex 33.6297 3.6101 -7
    endloop
  endfacet
  facet normal -0 0 -1
    outer loop
      vertex 30 0 -7
      vertex 33.9963 1.88528 -7
      vertex 34.25 1.70096 -7
    endloop
  endfacet
  facet normal -0 0 -1
    outer loop
      vertex 30 0 -7
      vertex 34.25 1.70096 -7
      vertex 34.5365 1.57341 -7
    endloop
  endfacet
  facet normal -0 0 -1
    outer loop
      vertex 30 0 -7
      vertex 34.5365 1.57341 -7
      vertex 34.8432 1.50822 -7
    endloop
  endfacet
  facet normal 0 0 -1
    outer loop
      vertex 30 0 -7
      vertex 34.8432 1.50822 -7
      vertex 40 0 -7
    endloop
  endfacet
  facet normal 0 -1 0
    outer loop
      vertex 30 0 -7
      vertex 40 0 -5
      vertex 30 0 -5
    endloop
  endfacet
  facet normal 0 -1 -0
    outer loop
      vertex 30 0 -7
      vertex 40 0 -7
      vertex 40 0 -5
    endloop
  endfacet
  facet normal 0 0 1
    outer loop
      vertex 30 27 -5
      vertex 33.5 24 -5
      vertex 33.5328 24.3119 -5
    endloop
  endfacet
  facet normal 0 0 1
    outer loop
      vertex 30 27 -5
      vertex 33.5328 23.6881 -5
      vertex 33.5 24 -5
    endloop
  endfacet
  facet normal 0 0 1
    outer loop
      vertex 30 27 -5
      vertex 33.5328 24.3119 -5
      vertex 33.6297 24.6101 -5
    endloop
  endfacet
  facet normal 0 0 1
    outer loop
      vertex 30 27 -5
      vertex 33.6297 23.3899 -5
      vertex 33.5328 23.6881 -5
    endloop
  endfacet
  facet normal 0 0 1
    outer loop
      vertex 30 27 -5
      vertex 33.6297 24.6101 -5
      vertex 33.7865 24.8817 -5
    endloop
  endfacet
  facet normal 0 0 1
    outer loop
      vertex 30 27 -5
      vertex 33.7865 23.1183 -5
      vertex 33.6297 23.3899 -5
    endloop
  endfacet
  facet normal 0 0 1
    outer loop
      vertex 30 27 -5
      vertex 33.7865 24.8817 -5
      vertex 33.9963 25.1147 -5
    endloop
  endfacet
  facet normal 0 0 1
    outer loop
      vertex 30 27 -5
      vertex 33.7865 3.88168 -5
      vertex 33.7865 23.1183 -5
    endloop
  endfacet
  facet normal 0 0 1
    outer loop
      vertex 30 27 -5
      vertex 33.9963 25.1147 -5
      vertex 34.25 25.299 -5
    endloop
  endfacet
  facet normal 0 0 1
    outer loop
      vertex 30 27 -5
      vertex 34.25 25.299 -5
      vertex 34.5365 25.4266 -5
    endloop
  endfacet
  facet normal 0 0 1
    outer loop
      vertex 30 27 -5
      vertex 34.5365 25.4266 -5
      vertex 34.8432 25.4918 -5
    endloop
  endfacet
  facet normal -0 0 1
    outer loop
      vertex 30 27 -5
      vertex 34.8432 25.4918 -5
      vertex 40 27 -5
    endloop
  endfacet
  facet normal 0 1 -0
    outer loop
      vertex 30 27 -5
      vertex 40 27 -5
      vertex 40 27 -7
    endloop
  endfacet
  facet normal 0 1 0
    outer loop
      vertex 30 27 -7
      vertex 30 27 -5
      vertex 40 27 -7
    endloop
  endfacet
  facet normal 0 0 -1
    outer loop
      vertex 30 27 -7
      vertex 33.5 24 -7
      vertex 33.5328 23.6881 -7
    endloop
  endfacet
  facet normal 0 0 -1
    outer loop
      vertex 30 27 -7
      vertex 33.5328 23.6881 -7
      vertex 33.6297 23.3899 -7
    endloop
  endfacet
  facet normal 0 0 -1
    outer loop
      vertex 30 27 -7
      vertex 33.5328 24.3119 -7
      vertex 33.5 24 -7
    endloop
  endfacet
  facet normal 0 0 -1
    outer loop
      vertex 30 27 -7
      vertex 33.6297 23.3899 -7
      vertex 33.7865 23.1183 -7
    endloop
  endfacet
  facet normal 0 0 -1
    outer loop
      vertex 30 27 -7
      vertex 33.6297 24.6101 -7
      vertex 33.5328 24.3119 -7
    endloop
  endfacet
  facet normal 0 0 -1
    outer loop
      vertex 30 27 -7
      vertex 33.7865 24.8817 -7
      vertex 33.6297 24.6101 -7
    endloop
  endfacet
  facet normal 0 0 -1
    outer loop
      vertex 30 27 -7
      vertex 33.9963 25.1147 -7
      vertex 33.7865 24.8817 -7
    endloop
  endfacet
  facet normal 0 0 -1
    outer loop
      vertex 30 27 -7
      vertex 34.25 25.299 -7
      vertex 33.9963 25.1147 -7
    endloop
  endfacet
  facet normal 0 0 -1
    outer loop
      vertex 30 27 -7
      vertex 34.5365 25.4266 -7
      vertex 34.25 25.299 -7
    endloop
  endfacet
  facet normal 0 0 -1
    outer loop
      vertex 30 27 -7
      vertex 34.8432 25.4918 -7
      vertex 34.5365 25.4266 -7
    endloop
  endfacet
  facet normal 0 0 -1
    outer loop
      vertex 30 27 -7
      vertex 40 27 -7
      vertex 34.8432 25.4918 -7
    endloop
  endfacet
  facet normal 0.994516 -0.104585 0
    outer loop
      vertex 33.5 24 -5
      vertex 33.5328 24.3119 -7
      vertex 33.5328 24.3119 -5
    endloop
  endfacet
  facet normal 0.994516 0.104585 0
    outer loop
      vertex 33.5 24 -7
      vertex 33.5 24 -5
      vertex 33.5328 23.6881 -5
    endloop
  endfacet
  facet normal 0.994516 0.104585 0
    outer loop
      vertex 33.5 24 -7
      vertex 33.5328 23.6881 -5
      vertex 33.5328 23.6881 -7
    endloop
  endfacet
  facet normal 0.994516 -0.104585 0
    outer loop
      vertex 33.5 24 -7
      vertex 33.5328 24.3119 -7
      vertex 33.5 24 -5
    endloop
  endfacet
  facet normal 0.994515 -0.104595 0
    outer loop
      vertex 33.5 3 -5
      vertex 33.5328 3.31187 -7
      vertex 33.5328 3.31187 -5
    endloop
  endfacet
  facet normal 0.994515 0.104595 0
    outer loop
      vertex 33.5 3 -7
      vertex 33.5 3 -5
      vertex 33.5328 2.68813 -5
    endloop
  endfacet
  facet normal 0.994515 0.104595 0
    outer loop
      vertex 33.5 3 -7
      vertex 33.5328 2.68813 -5
      vertex 33.5328 2.68813 -7
    endloop
  endfacet
  facet normal 0.994515 -0.104595 0
    outer loop
      vertex 33.5 3 -7
      vertex 33.5328 3.31187 -7
      vertex 33.5 3 -5
    endloop
  endfacet
  facet normal 0.95106 0.309005 0
    outer loop
      vertex 33.5328 2.68813 -7
      vertex 33.5328 2.68813 -5
      vertex 33.6297 2.38989 -5
    endloop
  endfacet
  facet normal 0.95106 0.309005 0
    outer loop
      vertex 33.5328 2.68813 -7
      vertex 33.6297 2.38989 -5
      vertex 33.6297 2.38989 -7
    endloop
  endfacet
  facet normal 0.951048 0.309043 0
    outer loop
      vertex 33.5328 23.6881 -7
      vertex 33.5328 23.6881 -5
      vertex 33.6297 23.3899 -5
    endloop
  endfacet
  facet normal 0.951048 0.309043 0
    outer loop
      vertex 33.5328 23.6881 -7
      vertex 33.6297 23.3899 -5
      vertex 33.6297 23.3899 -7
    endloop
  endfacet
  facet normal 0.951048 -0.309043 0
    outer loop
      vertex 33.5328 24.3119 -5
      vertex 33.6297 24.6101 -7
      vertex 33.6297 24.6101 -5
    endloop
  endfacet
  facet normal 0.951048 -0.309043 0
    outer loop
      vertex 33.5328 24.3119 -7
      vertex 33.6297 24.6101 -7
      vertex 33.5328 24.3119 -5
    endloop
  endfacet
  facet normal 0.951057 -0.309015 0
    outer loop
      vertex 33.5328 3.31187 -5
      vertex 33.6297 3.6101 -7
      vertex 33.6297 3.6101 -5
    endloop
  endfacet
  facet normal 0.951057 -0.309015 0
    outer loop
      vertex 33.5328 3.31187 -7
      vertex 33.6297 3.6101 -7
      vertex 33.5328 3.31187 -5
    endloop
  endfacet
  facet normal 0.866013 0.500021 0
    outer loop
      vertex 33.6297 2.38989 -7
      vertex 33.6297 2.38989 -5
      vertex 33.7865 2.11832 -5
    endloop
  endfacet
  facet normal 0.866013 0.500021 0
    outer loop
      vertex 33.6297 2.38989 -7
      vertex 33.7865 2.11832 -5
      vertex 33.7865 2.11832 -7
    endloop
  endfacet
  facet normal 0.866037 0.49998 0
    outer loop
      vertex 33.6297 23.3899 -7
      vertex 33.6297 23.3899 -5
      vertex 33.7865 23.1183 -5
    endloop
  endfacet
  facet normal 0.866037 0.49998 0
    outer loop
      vertex 33.6297 23.3899 -7
      vertex 33.7865 23.1183 -5
      vertex 33.7865 23.1183 -7
    endloop
  endfacet
  facet normal 0.866037 -0.49998 0
    outer loop
      vertex 33.6297 24.6101 -5
      vertex 33.7865 24.8817 -7
      vertex 33.7865 24.8817 -5
    endloop
  endfacet
  facet normal 0.866037 -0.49998 0
    outer loop
      vertex 33.6297 24.6101 -7
      vertex 33.7865 24.8817 -7
      vertex 33.6297 24.6101 -5
    endloop
  endfacet
  facet normal 0.866021 -0.500008 0
    outer loop
      vertex 33.6297 3.6101 -5
      vertex 33.7865 3.88168 -7
      vertex 33.7865 3.88168 -5
    endloop
  endfacet
  facet normal 0.866021 -0.500008 0
    outer loop
      vertex 33.6297 3.6101 -7
      vertex 33.7865 3.88168 -7
      vertex 33.6297 3.6101 -5
    endloop
  endfacet
  facet normal 0.743193 0.669077 0
    outer loop
      vertex 33.7865 2.11832 -7
      vertex 33.7865 2.11832 -5
      vertex 33.9963 1.88528 -5
    endloop
  endfacet
  facet normal 0.743193 0.669077 0
    outer loop
      vertex 33.7865 2.11832 -7
      vertex 33.9963 1.88528 -5
      vertex 33.9963 1.88528 -7
    endloop
  endfacet
  facet normal 0 0 1
    outer loop
      vertex 33.7865 23.1183 -5
      vertex 33.9963 4.11472 -5
      vertex 33.9963 22.8853 -5
    endloop
  endfacet
  facet normal 0.743136 0.669141 0
    outer loop
      vertex 33.7865 23.1183 -7
      vertex 33.7865 23.1183 -5
      vertex 33.9963 22.8853 -5
    endloop
  endfacet
  facet normal 0.743136 0.669141 0
    outer loop
      vertex 33.7865 23.1183 -7
      vertex 33.9963 22.8853 -5
      vertex 33.9963 22.8853 -7
    endloop
  endfacet
  facet normal 0.743136 -0.669141 0
    outer loop
      vertex 33.7865 24.8817 -5
      vertex 33.9963 25.1147 -7
      vertex 33.9963 25.1147 -5
    endloop
  endfacet
  facet normal 0.743136 -0.669141 0
    outer loop
      vertex 33.7865 24.8817 -7
      vertex 33.9963 25.1147 -7
      vertex 33.7865 24.8817 -5
    endloop
  endfacet
  facet normal 0 0 1
    outer loop
      vertex 33.7865 3.88168 -5
      vertex 33.9963 4.11472 -5
      vertex 33.7865 23.1183 -5
    endloop
  endfacet
  facet normal 0.743193 -0.669077 0
    outer loop
      vertex 33.7865 3.88168 -5
      vertex 33.9963 4.11472 -7
      vertex 33.9963 4.11472 -5
    endloop
  endfacet
  facet normal 0 0 -1
    outer loop
      vertex 33.7865 3.88168 -7
      vertex 33.7865 23.1183 -7
      vertex 33.9963 22.8853 -7
    endloop
  endfacet
  facet normal 0 0 -1
    outer loop
      vertex 33.7865 3.88168 -7
      vertex 33.9963 22.8853 -7
      vertex 33.9963 4.11472 -7
    endloop
  endfacet
  facet normal 0.743193 -0.669077 0
    outer loop
      vertex 33.7865 3.88168 -7
      vertex 33.9963 4.11472 -7
      vertex 33.7865 3.88168 -5
    endloop
  endfacet
  facet normal 0.587777 0.809023 -0
    outer loop
      vertex 33.9963 1.88528 -5
      vertex 34.25 1.70096 -5
      vertex 34.25 1.70096 -7
    endloop
  endfacet
  facet normal 0.587777 0.809023 0
    outer loop
      vertex 33.9963 1.88528 -7
      vertex 33.9963 1.88528 -5
      vertex 34.25 1.70096 -7
    endloop
  endfacet
  facet normal 0.587735 0.809053 -0
    outer loop
      vertex 33.9963 22.8853 -5
      vertex 34.25 22.701 -5
      vertex 34.25 22.701 -7
    endloop
  endfacet
  facet normal 0 0 1
    outer loop
      vertex 33.9963 22.8853 -5
      vertex 34.25 4.29904 -5
      vertex 34.25 22.701 -5
    endloop
  endfacet
  facet normal 0.587735 0.809053 0
    outer loop
      vertex 33.9963 22.8853 -7
      vertex 33.9963 22.8853 -5
      vertex 34.25 22.701 -7
    endloop
  endfacet
  facet normal 0.587735 -0.809053 0
    outer loop
      vertex 33.9963 25.1147 -7
      vertex 34.25 25.299 -5
      vertex 33.9963 25.1147 -5
    endloop
  endfacet
  facet normal 0.587735 -0.809053 0
    outer loop
      vertex 33.9963 25.1147 -7
      vertex 34.25 25.299 -7
      vertex 34.25 25.299 -5
    endloop
  endfacet
  facet normal 0 0 1
    outer loop
      vertex 33.9963 4.11472 -5
      vertex 34.25 4.29904 -5
      vertex 33.9963 22.8853 -5
    endloop
  endfacet
  facet normal 0 0 -1
    outer loop
      vertex 33.9963 4.11472 -7
      vertex 33.9963 22.8853 -7
      vertex 34.25 22.701 -7
    endloop
  endfacet
  facet normal 0 0 -1
    outer loop
      vertex 33.9963 4.11472 -7
      vertex 34.25 22.701 -7
      vertex 34.25 4.29904 -7
    endloop
  endfacet
  facet normal 0.587777 -0.809023 0
    outer loop
      vertex 33.9963 4.11472 -7
      vertex 34.25 4.29904 -5
      vertex 33.9963 4.11472 -5
    endloop
  endfacet
  facet normal 0.587777 -0.809023 0
    outer loop
      vertex 33.9963 4.11472 -7
      vertex 34.25 4.29904 -7
      vertex 34.25 4.29904 -5
    endloop
  endfacet
  facet normal 0.406715 0.913555 -0
    outer loop
      vertex 34.25 1.70096 -5
      vertex 34.5365 1.57341 -5
      vertex 34.5365 1.57341 -7
    endloop
  endfacet
  facet normal 0.406715 0.913555 0
    outer loop
      vertex 34.25 1.70096 -7
      vertex 34.25 1.70096 -5
      vertex 34.5365 1.57341 -7
    endloop
  endfacet
  facet normal 0.406848 0.913496 -0
    outer loop
      vertex 34.25 22.701 -5
      vertex 34.5365 22.5734 -5
      vertex 34.5365 22.5734 -7
    endloop
  endfacet
  facet normal 0 0 1
    outer loop
      vertex 34.25 22.701 -5
      vertex 34.5365 4.42658 -5
      vertex 34.5365 22.5734 -5
    endloop
  endfacet
  facet normal 0.406848 0.913496 0
    outer loop
      vertex 34.25 22.701 -7
      vertex 34.25 22.701 -5
      vertex 34.5365 22.5734 -7
    endloop
  endfacet
  facet normal 0.406848 -0.913496 0
    outer loop
      vertex 34.25 25.299 -7
      vertex 34.5365 25.4266 -5
      vertex 34.25 25.299 -5
    endloop
  endfacet
  facet normal 0.406848 -0.913496 0
    outer loop
      vertex 34.25 25.299 -7
      vertex 34.5365 25.4266 -7
      vertex 34.5365 25.4266 -5
    endloop
  endfacet
  facet normal 0 0 1
    outer loop
      vertex 34.25 4.29904 -5
      vertex 34.5365 4.42658 -5
      vertex 34.25 22.701 -5
    endloop
  endfacet
  facet normal 0 0 -1
    outer loop
      vertex 34.25 4.29904 -7
      vertex 34.25 22.701 -7
      vertex 34.5365 22.5734 -7
    endloop
  endfacet
  facet normal 0 0 -1
    outer loop
      vertex 34.25 4.29904 -7
      vertex 34.5365 22.5734 -7
      vertex 34.5365 4.42658 -7
    endloop
  endfacet
  facet normal 0.406689 -0.913567 0
    outer loop
      vertex 34.25 4.29904 -7
      vertex 34.5365 4.42658 -5
      vertex 34.25 4.29904 -5
    endloop
  endfacet
  facet normal 0.406689 -0.913567 0
    outer loop
      vertex 34.25 4.29904 -7
      vertex 34.5365 4.42658 -7
      vertex 34.5365 4.42658 -5
    endloop
  endfacet
  facet normal 0.207908 0.978148 -0
    outer loop
      vertex 34.5365 1.57341 -5
      vertex 34.8432 1.50822 -5
      vertex 34.8432 1.50822 -7
    endloop
  endfacet
  facet normal 0.207908 0.978148 0
    outer loop
      vertex 34.5365 1.57341 -7
      vertex 34.5365 1.57341 -5
      vertex 34.8432 1.50822 -7
    endloop
  endfacet
  facet normal 0.207939 0.978142 -0
    outer loop
      vertex 34.5365 22.5734 -5
      vertex 34.8432 22.5082 -5
      vertex 34.8432 22.5082 -7
    endloop
  endfacet
  facet normal 0 0 1
    outer loop
      vertex 34.5365 22.5734 -5
      vertex 34.8432 4.49178 -5
      vertex 34.8432 22.5082 -5
    endloop
  endfacet
  facet normal 0.207939 0.978142 0
    outer loop
      vertex 34.5365 22.5734 -7
      vertex 34.5365 22.5734 -5
      vertex 34.8432 22.5082 -7
    endloop
  endfacet
  facet normal 0.207939 -0.978142 0
    outer loop
      vertex 34.5365 25.4266 -7
      vertex 34.8432 25.4918 -5
      vertex 34.5365 25.4266 -5
    endloop
  endfacet
  facet normal 0.207939 -0.978142 0
    outer loop
      vertex 34.5365 25.4266 -7
      vertex 34.8432 25.4918 -7
      vertex 34.8432 25.4918 -5
    endloop
  endfacet
  facet normal 0 0 1
    outer loop
      vertex 34.5365 4.42658 -5
      vertex 34.8432 4.49178 -5
      vertex 34.5365 22.5734 -5
    endloop
  endfacet
  facet normal 0 0 -1
    outer loop
      vertex 34.5365 4.42658 -7
      vertex 34.5365 22.5734 -7
      vertex 34.8432 22.5082 -7
    endloop
  endfacet
  facet normal 0 0 -1
    outer loop
      vertex 34.5365 4.42658 -7
      vertex 34.8432 22.5082 -7
      vertex 34.8432 4.49178 -7
    endloop
  endfacet
  facet normal 0.207939 -0.978142 0
    outer loop
      vertex 34.5365 4.42658 -7
      vertex 34.8432 4.49178 -5
      vertex 34.5365 4.42658 -5
    endloop
  endfacet
  facet normal 0.207939 -0.978142 0
    outer loop
      vertex 34.5365 4.42658 -7
      vertex 34.8432 4.49178 -7
      vertex 34.8432 4.49178 -5
    endloop
  endfacet
  facet normal 0 1 -0
    outer loop
      vertex 34.8432 1.50822 -5
      vertex 35.1568 1.50822 -5
      vertex 35.1568 1.50822 -7
    endloop
  endfacet
  facet normal -0 0 1
    outer loop
      vertex 34.8432 1.50822 -5
      vertex 40 0 -5
      vertex 35.1568 1.50822 -5
    endloop
  endfacet
  facet normal 0 1 0
    outer loop
      vertex 34.8432 1.50822 -7
      vertex 34.8432 1.50822 -5
      vertex 35.1568 1.50822 -7
    endloop
  endfacet
  facet normal 0 0 -1
    outer loop
      vertex 34.8432 1.50822 -7
      vertex 35.1568 1.50822 -7
      vertex 40 0 -7
    endloop
  endfacet
  facet normal 0 1 -0
    outer loop
      vertex 34.8432 22.5082 -5
      vertex 35.1568 22.5082 -5
      vertex 35.1568 22.5082 -7
    endloop
  endfacet
  facet normal -0 0 1
    outer loop
      vertex 34.8432 22.5082 -5
      vertex 35.1568 4.49178 -5
      vertex 35.1568 22.5082 -5
    endloop
  endfacet
  facet normal 0 1 0
    outer loop
      vertex 34.8432 22.5082 -7
      vertex 34.8432 22.5082 -5
      vertex 35.1568 22.5082 -7
    endloop
  endfacet
  facet normal 0 0 1
    outer loop
      vertex 34.8432 25.4918 -5
      vertex 35.1568 25.4918 -5
      vertex 40 27 -5
    endloop
  endfacet
  facet normal 0 -1 0
    outer loop
      vertex 34.8432 25.4918 -7
      vertex 35.1568 25.4918 -5
      vertex 34.8432 25.4918 -5
    endloop
  endfacet
  facet normal 0 -1 -0
    outer loop
      vertex 34.8432 25.4918 -7
      vertex 35.1568 25.4918 -7
      vertex 35.1568 25.4918 -5
    endloop
  endfacet
  facet normal 0 0 -1
    outer loop
      vertex 34.8432 25.4918 -7
      vertex 40 27 -7
      vertex 35.1568 25.4918 -7
    endloop
  endfacet
  facet normal 0 0 1
    outer loop
      vertex 34.8432 4.49178 -5
      vertex 35.1568 4.49178 -5
      vertex 34.8432 22.5082 -5
    endloop
  endfacet
  facet normal 0 0 -1
    outer loop
      vertex 34.8432 4.49178 -7
      vertex 34.8432 22.5082 -7
      vertex 35.1568 22.5082 -7
    endloop
  endfacet
  facet normal 0 0 -1
    outer loop
      vertex 34.8432 4.49178 -7
      vertex 35.1568 22.5082 -7
      vertex 35.1568 4.49178 -7
    endloop
  endfacet
  facet normal 0 -1 0
    outer loop
      vertex 34.8432 4.49178 -7
      vertex 35.1568 4.49178 -5
      vertex 34.8432 4.49178 -5
    endloop
  endfacet
  facet normal 0 -1 -0
    outer loop
      vertex 34.8432 4.49178 -7
      vertex 35.1568 4.49178 -7
      vertex 35.1568 4.49178 -5
    endloop
  endfacet
  facet normal -0.207908 0.978148 0
    outer loop
      vertex 35.1568 1.50822 -5
      vertex 35.4635 1.57341 -5
      vertex 35.4635 1.57341 -7
    endloop
  endfacet
  facet normal -0 0 1
    outer loop
      vertex 35.1568 1.50822 -5
      vertex 40 0 -5
      vertex 35.4635 1.57341 -5
    endloop
  endfacet
  facet normal -0.207908 0.978148 0
    outer loop
      vertex 35.1568 1.50822 -7
      vertex 35.1568 1.50822 -5
      vertex 35.4635 1.57341 -7
    endloop
  endfacet
  facet normal 0 0 -1
    outer loop
      vertex 35.1568 1.50822 -7
      vertex 35.4635 1.57341 -7
      vertex 40 0 -7
    endloop
  endfacet
  facet normal -0.207939 0.978142 0
    outer loop
      vertex 35.1568 22.5082 -5
      vertex 35.4635 22.5734 -5
      vertex 35.4635 22.5734 -7
    endloop
  endfacet
  facet normal -0 0 1
    outer loop
      vertex 35.1568 22.5082 -5
      vertex 35.4635 4.42658 -5
      vertex 35.4635 22.5734 -5
    endloop
  endfacet
  facet normal -0.207939 0.978142 0
    outer loop
      vertex 35.1568 22.5082 -7
      vertex 35.1568 22.5082 -5
      vertex 35.4635 22.5734 -7
    endloop
  endfacet
  facet normal 0 0 1
    outer loop
      vertex 35.1568 25.4918 -5
      vertex 35.4635 25.4266 -5
      vertex 40 27 -5
    endloop
  endfacet
  facet normal -0.207939 -0.978142 0
    outer loop
      vertex 35.1568 25.4918 -7
      vertex 35.4635 25.4266 -5
      vertex 35.1568 25.4918 -5
    endloop
  endfacet
  facet normal -0.207939 -0.978142 -0
    outer loop
      vertex 35.1568 25.4918 -7
      vertex 35.4635 25.4266 -7
      vertex 35.4635 25.4266 -5
    endloop
  endfacet
  facet normal 0 0 -1
    outer loop
      vertex 35.1568 25.4918 -7
      vertex 40 27 -7
      vertex 35.4635 25.4266 -7
    endloop
  endfacet
  facet normal 0 0 1
    outer loop
      vertex 35.1568 4.49178 -5
      vertex 35.4635 4.42658 -5
      vertex 35.1568 22.5082 -5
    endloop
  endfacet
  facet normal 0 0 -1
    outer loop
      vertex 35.1568 4.49178 -7
      vertex 35.1568 22.5082 -7
      vertex 35.4635 22.5734 -7
    endloop
  endfacet
  facet normal 0 0 -1
    outer loop
      vertex 35.1568 4.49178 -7
      vertex 35.4635 22.5734 -7
      vertex 35.4635 4.42658 -7
    endloop
  endfacet
  facet normal -0.207939 -0.978142 0
    outer loop
      vertex 35.1568 4.49178 -7
      vertex 35.4635 4.42658 -5
      vertex 35.1568 4.49178 -5
    endloop
  endfacet
  facet normal -0.207939 -0.978142 -0
    outer loop
      vertex 35.1568 4.49178 -7
      vertex 35.4635 4.42658 -7
      vertex 35.4635 4.42658 -5
    endloop
  endfacet
  facet normal -0.406715 0.913555 0
    outer loop
      vertex 35.4635 1.57341 -5
      vertex 35.75 1.70096 -5
      vertex 35.75 1.70096 -7
    endloop
  endfacet
  facet normal -0 0 1
    outer loop
      vertex 35.4635 1.57341 -5
      vertex 40 0 -5
      vertex 35.75 1.70096 -5
    endloop
  endfacet
  facet normal -0.406715 0.913555 0
    outer loop
      vertex 35.4635 1.57341 -7
      vertex 35.4635 1.57341 -5
      vertex 35.75 1.70096 -7
    endloop
  endfacet
  facet normal 0 0 -1
    outer loop
      vertex 35.4635 1.57341 -7
      vertex 35.75 1.70096 -7
      vertex 40 0 -7
    endloop
  endfacet
  facet normal -0.406848 0.913496 0
    outer loop
      vertex 35.4635 22.5734 -5
      vertex 35.75 22.701 -5
      vertex 35.75 22.701 -7
    endloop
  endfacet
  facet normal -0 0 1
    outer loop
      vertex 35.4635 22.5734 -5
      vertex 35.75 4.29904 -5
      vertex 35.75 22.701 -5
    endloop
  endfacet
  facet normal -0.406848 0.913496 0
    outer loop
      vertex 35.4635 22.5734 -7
      vertex 35.4635 22.5734 -5
      vertex 35.75 22.701 -7
    endloop
  endfacet
  facet normal 0 0 1
    outer loop
      vertex 35.4635 25.4266 -5
      vertex 35.75 25.299 -5
      vertex 40 27 -5
    endloop
  endfacet
  facet normal -0.406848 -0.913496 0
    outer loop
      vertex 35.4635 25.4266 -7
      vertex 35.75 25.299 -5
      vertex 35.4635 25.4266 -5
    endloop
  endfacet
  facet normal -0.406848 -0.913496 -0
    outer loop
      vertex 35.4635 25.4266 -7
      vertex 35.75 25.299 -7
      vertex 35.75 25.299 -5
    endloop
  endfacet
  facet normal 0 0 -1
    outer loop
      vertex 35.4635 25.4266 -7
      vertex 40 27 -7
      vertex 35.75 25.299 -7
    endloop
  endfacet
  facet normal 0 0 1
    outer loop
      vertex 35.4635 4.42658 -5
      vertex 35.75 4.29904 -5
      vertex 35.4635 22.5734 -5
    endloop
  endfacet
  facet normal 0 0 -1
    outer loop
      vertex 35.4635 4.42658 -7
      vertex 35.4635 22.5734 -7
      vertex 35.75 22.701 -7
    endloop
  endfacet
  facet normal 0 0 -1
    outer loop
      vertex 35.4635 4.42658 -7
      vertex 35.75 22.701 -7
      vertex 35.75 4.29904 -7
    endloop
  endfacet
  facet normal -0.406689 -0.913567 0
    outer loop
      vertex 35.4635 4.42658 -7
      vertex 35.75 4.29904 -5
      vertex 35.4635 4.42658 -5
    endloop
  endfacet
  facet normal -0.406689 -0.913567 -0
    outer loop
      vertex 35.4635 4.42658 -7
      vertex 35.75 4.29904 -7
      vertex 35.75 4.29904 -5
    endloop
  endfacet
  facet normal -0.587777 0.809023 0
    outer loop
      vertex 35.75 1.70096 -5
      vertex 36.0037 1.88528 -5
      vertex 36.0037 1.88528 -7
    endloop
  endfacet
  facet normal -0 0 1
    outer loop
      vertex 35.75 1.70096 -5
      vertex 40 0 -5
      vertex 36.0037 1.88528 -5
    endloop
  endfacet
  facet normal -0.587777 0.809023 0
    outer loop
      vertex 35.75 1.70096 -7
      vertex 35.75 1.70096 -5
      vertex 36.0037 1.88528 -7
    endloop
  endfacet
  facet normal 0 0 -1
    outer loop
      vertex 35.75 1.70096 -7
      vertex 36.0037 1.88528 -7
      vertex 40 0 -7
    endloop
  endfacet
  facet normal -0.587735 0.809053 0
    outer loop
      vertex 35.75 22.701 -5
      vertex 36.0037 22.8853 -5
      vertex 36.0037 22.8853 -7
    endloop
  endfacet
  facet normal -0 0 1
    outer loop
      vertex 35.75 22.701 -5
      vertex 36.0037 4.11472 -5
      vertex 36.0037 22.8853 -5
    endloop
  endfacet
  facet normal -0.587735 0.809053 0
    outer loop
      vertex 35.75 22.701 -7
      vertex 35.75 22.701 -5
      vertex 36.0037 22.8853 -7
    endloop
  endfacet
  facet normal 0 0 1
    outer loop
      vertex 35.75 25.299 -5
      vertex 36.0037 25.1147 -5
      vertex 40 27 -5
    endloop
  endfacet
  facet normal -0.587735 -0.809053 0
    outer loop
      vertex 35.75 25.299 -7
      vertex 36.0037 25.1147 -5
      vertex 35.75 25.299 -5
    endloop
  endfacet
  facet normal -0.587735 -0.809053 -0
    outer loop
      vertex 35.75 25.299 -7
      vertex 36.0037 25.1147 -7
      vertex 36.0037 25.1147 -5
    endloop
  endfacet
  facet normal 0 0 -1
    outer loop
      vertex 35.75 25.299 -7
      vertex 40 27 -7
      vertex 36.0037 25.1147 -7
    endloop
  endfacet
  facet normal 0 0 1
    outer loop
      vertex 35.75 4.29904 -5
      vertex 36.0037 4.11472 -5
      vertex 35.75 22.701 -5
    endloop
  endfacet
  facet normal 0 0 -1
    outer loop
      vertex 35.75 4.29904 -7
      vertex 35.75 22.701 -7
      vertex 36.0037 22.8853 -7
    endloop
  endfacet
  facet normal 0 0 -1
    outer loop
      vertex 35.75 4.29904 -7
      vertex 36.0037 22.8853 -7
      vertex 36.0037 4.11472 -7
    endloop
  endfacet
  facet normal -0.587777 -0.809023 0
    outer loop
      vertex 35.75 4.29904 -7
      vertex 36.0037 4.11472 -5
      vertex 35.75 4.29904 -5
    endloop
  endfacet
  facet normal -0.587777 -0.809023 -0
    outer loop
      vertex 35.75 4.29904 -7
      vertex 36.0037 4.11472 -7
      vertex 36.0037 4.11472 -5
    endloop
  endfacet
  facet normal -0 0 1
    outer loop
      vertex 36.0037 1.88528 -5
      vertex 40 0 -5
      vertex 36.2135 2.11832 -5
    endloop
  endfacet
  facet normal -0.743193 0.669077 0
    outer loop
      vertex 36.0037 1.88528 -7
      vertex 36.0037 1.88528 -5
      vertex 36.2135 2.11832 -5
    endloop
  endfacet
  facet normal -0.743193 0.669077 0
    outer loop
      vertex 36.0037 1.88528 -7
      vertex 36.2135 2.11832 -5
      vertex 36.2135 2.11832 -7
    endloop
  endfacet
  facet normal 0 0 -1
    outer loop
      vertex 36.0037 1.88528 -7
      vertex 36.2135 2.11832 -7
      vertex 40 0 -7
    endloop
  endfacet
  facet normal -0 0 1
    outer loop
      vertex 36.0037 22.8853 -5
      vertex 36.2135 3.88168 -5
      vertex 36.2135 23.1183 -5
    endloop
  endfacet
  facet normal -0.743136 0.669141 0
    outer loop
      vertex 36.0037 22.8853 -7
      vertex 36.0037 22.8853 -5
      vertex 36.2135 23.1183 -5
    endloop
  endfacet
  facet normal -0.743136 0.669141 0
    outer loop
      vertex 36.0037 22.8853 -7
      vertex 36.2135 23.1183 -5
      vertex 36.2135 23.1183 -7
    endloop
  endfacet
  facet normal 0 0 1
    outer loop
      vertex 36.0037 25.1147 -5
      vertex 36.2135 24.8817 -5
      vertex 40 27 -5
    endloop
  endfacet
  facet normal -0.743136 -0.669141 0
    outer loop
      vertex 36.0037 25.1147 -5
      vertex 36.2135 24.8817 -7
      vertex 36.2135 24.8817 -5
    endloop
  endfacet
  facet normal -0.743136 -0.669141 0
    outer loop
      vertex 36.0037 25.1147 -7
      vertex 36.2135 24.8817 -7
      vertex 36.0037 25.1147 -5
    endloop
  endfacet
  facet normal 0 0 -1
    outer loop
      vertex 36.0037 25.1147 -7
      vertex 40 27 -7
      vertex 36.2135 24.8817 -7
    endloop
  endfacet
  facet normal 0 0 1
    outer loop
      vertex 36.0037 4.11472 -5
      vertex 36.2135 3.88168 -5
      vertex 36.0037 22.8853 -5
    endloop
  endfacet
  facet normal -0.743193 -0.669077 0
    outer loop
      vertex 36.0037 4.11472 -5
      vertex 36.2135 3.88168 -7
      vertex 36.2135 3.88168 -5
    endloop
  endfacet
  facet normal 0 0 -1
    outer loop
      vertex 36.0037 4.11472 -7
      vertex 36.0037 22.8853 -7
      vertex 36.2135 23.1183 -7
    endloop
  endfacet
  facet normal 0 0 -1
    outer loop
      vertex 36.0037 4.11472 -7
      vertex 36.2135 23.1183 -7
      vertex 36.2135 3.88168 -7
    endloop
  endfacet
  facet normal -0.743193 -0.669077 0
    outer loop
      vertex 36.0037 4.11472 -7
      vertex 36.2135 3.88168 -7
      vertex 36.0037 4.11472 -5
    endloop
  endfacet
  facet normal -0 0 1
    outer loop
      vertex 36.2135 2.11832 -5
      vertex 40 0 -5
      vertex 36.3703 2.38989 -5
    endloop
  endfacet
  facet normal -0.866013 0.500021 0
    outer loop
      vertex 36.2135 2.11832 -7
      vertex 36.2135 2.11832 -5
      vertex 36.3703 2.38989 -5
    endloop
  endfacet
  facet normal -0.866013 0.500021 0
    outer loop
      vertex 36.2135 2.11832 -7
      vertex 36.3703 2.38989 -5
      vertex 36.3703 2.38989 -7
    endloop
  endfacet
  facet normal 0 0 -1
    outer loop
      vertex 36.2135 2.11832 -7
      vertex 36.3703 2.38989 -7
      vertex 40 0 -7
    endloop
  endfacet
  facet normal 0 0 1
    outer loop
      vertex 36.2135 23.1183 -5
      vertex 40 0 -5
      vertex 40 27 -5
    endloop
  endfacet
  facet normal 0 0 1
    outer loop
      vertex 36.2135 23.1183 -5
      vertex 40 27 -5
      vertex 36.3703 23.3899 -5
    endloop
  endfacet
  facet normal -0.866037 0.49998 0
    outer loop
      vertex 36.2135 23.1183 -7
      vertex 36.2135 23.1183 -5
      vertex 36.3703 23.3899 -5
    endloop
  endfacet
  facet normal -0.866037 0.49998 0
    outer loop
      vertex 36.2135 23.1183 -7
      vertex 36.3703 23.3899 -5
      vertex 36.3703 23.3899 -7
    endloop
  endfacet
  facet normal 0 0 -1
    outer loop
      vertex 36.2135 23.1183 -7
      vertex 36.3703 23.3899 -7
      vertex 40 27 -7
    endloop
  endfacet
  facet normal 0 0 1
    outer loop
      vertex 36.2135 24.8817 -5
      vertex 36.3703 24.6101 -5
      vertex 40 27 -5
    endloop
  endfacet
  facet normal -0.866037 -0.49998 0
    outer loop
      vertex 36.2135 24.8817 -5
      vertex 36.3703 24.6101 -7
      vertex 36.3703 24.6101 -5
    endloop
  endfacet
  facet normal -0.866037 -0.49998 0
    outer loop
      vertex 36.2135 24.8817 -7
      vertex 36.3703 24.6101 -7
      vertex 36.2135 24.8817 -5
    endloop
  endfacet
  facet normal 0 0 -1
    outer loop
      vertex 36.2135 24.8817 -7
      vertex 40 27 -7
      vertex 36.3703 24.6101 -7
    endloop
  endfacet
  facet normal 0 0 1
    outer loop
      vertex 36.2135 3.88168 -5
      vertex 36.3703 3.6101 -5
      vertex 40 0 -5
    endloop
  endfacet
  facet normal -0.866021 -0.500008 0
    outer loop
      vertex 36.2135 3.88168 -5
      vertex 36.3703 3.6101 -7
      vertex 36.3703 3.6101 -5
    endloop
  endfacet
  facet normal -0 0 1
    outer loop
      vertex 36.2135 3.88168 -5
      vertex 40 0 -5
      vertex 36.2135 23.1183 -5
    endloop
  endfacet
  facet normal 0 0 -1
    outer loop
      vertex 36.2135 3.88168 -7
      vertex 36.2135 23.1183 -7
      vertex 40 27 -7
    endloop
  endfacet
  facet normal -0.866021 -0.500008 0
    outer loop
      vertex 36.2135 3.88168 -7
      vertex 36.3703 3.6101 -7
      vertex 36.2135 3.88168 -5
    endloop
  endfacet
  facet normal 0 0 -1
    outer loop
      vertex 36.2135 3.88168 -7
      vertex 40 0 -7
      vertex 36.3703 3.6101 -7
    endloop
  endfacet
  facet normal 0 0 -1
    outer loop
      vertex 36.2135 3.88168 -7
      vertex 40 27 -7
      vertex 40 0 -7
    endloop
  endfacet
  facet normal -0 0 1
    outer loop
      vertex 36.3703 2.38989 -5
      vertex 40 0 -5
      vertex 36.4672 2.68813 -5
    endloop
  endfacet
  facet normal -0.95106 0.309005 0
    outer loop
      vertex 36.3703 2.38989 -7
      vertex 36.3703 2.38989 -5
      vertex 36.4672 2.68813 -5
    endloop
  endfacet
  facet normal -0.95106 0.309005 0
    outer loop
      vertex 36.3703 2.38989 -7
      vertex 36.4672 2.68813 -5
      vertex 36.4672 2.68813 -7
    endloop
  endfacet
  facet normal 0 0 -1
    outer loop
      vertex 36.3703 2.38989 -7
      vertex 36.4672 2.68813 -7
      vertex 40 0 -7
    endloop
  endfacet
  facet normal 0 0 1
    outer loop
      vertex 36.3703 23.3899 -5
      vertex 40 27 -5
      vertex 36.4672 23.6881 -5
    endloop
  endfacet
  facet normal -0.951048 0.309043 0
    outer loop
      vertex 36.3703 23.3899 -7
      vertex 36.3703 23.3899 -5
      vertex 36.4672 23.6881 -5
    endloop
  endfacet
  facet normal -0.951048 0.309043 0
    outer loop
      vertex 36.3703 23.3899 -7
      vertex 36.4672 23.6881 -5
      vertex 36.4672 23.6881 -7
    endloop
  endfacet
  facet normal 0 0 -1
    outer loop
      vertex 36.3703 23.3899 -7
      vertex 36.4672 23.6881 -7
      vertex 40 27 -7
    endloop
  endfacet
  facet normal 0 0 1
    outer loop
      vertex 36.3703 24.6101 -5
      vertex 36.4672 24.3119 -5
      vertex 40 27 -5
    endloop
  endfacet
  facet normal -0.951048 -0.309043 0
    outer loop
      vertex 36.3703 24.6101 -5
      vertex 36.4672 24.3119 -7
      vertex 36.4672 24.3119 -5
    endloop
  endfacet
  facet normal -0.951048 -0.309043 0
    outer loop
      vertex 36.3703 24.6101 -7
      vertex 36.4672 24.3119 -7
      vertex 36.3703 24.6101 -5
    endloop
  endfacet
  facet normal 0 0 -1
    outer loop
      vertex 36.3703 24.6101 -7
      vertex 40 27 -7
      vertex 36.4672 24.3119 -7
    endloop
  endfacet
  facet normal 0 0 1
    outer loop
      vertex 36.3703 3.6101 -5
      vertex 36.4672 3.31187 -5
      vertex 40 0 -5
    endloop
  endfacet
  facet normal -0.951057 -0.309015 0
    outer loop
      vertex 36.3703 3.6101 -5
      vertex 36.4672 3.31187 -7
      vertex 36.4672 3.31187 -5
    endloop
  endfacet
  facet normal -0.951057 -0.309015 0
    outer loop
      vertex 36.3703 3.6101 -7
      vertex 36.4672 3.31187 -7
      vertex 36.3703 3.6101 -5
    endloop
  endfacet
  facet normal 0 0 -1
    outer loop
      vertex 36.3703 3.6101 -7
      vertex 40 0 -7
      vertex 36.4672 3.31187 -7
    endloop
  endfacet
  facet normal -0 0 1
    outer loop
      vertex 36.4672 2.68813 -5
      vertex 40 0 -5
      vertex 36.5 3 -5
    endloop
  endfacet
  facet normal -0.994515 0.104595 0
    outer loop
      vertex 36.4672 2.68813 -7
      vertex 36.4672 2.68813 -5
      vertex 36.5 3 -5
    endloop
  endfacet
  facet normal -0.994515 0.104595 0
    outer loop
      vertex 36.4672 2.68813 -7
      vertex 36.5 3 -5
      vertex 36.5 3 -7
    endloop
  endfacet
  facet normal 0 0 -1
    outer loop
      vertex 36.4672 2.68813 -7
      vertex 36.5 3 -7
      vertex 40 0 -7
    endloop
  endfacet
  facet normal 0 0 1
    outer loop
      vertex 36.4672 23.6881 -5
      vertex 40 27 -5
      vertex 36.5 24 -5
    endloop
  endfacet
  facet normal -0.994516 0.104585 0
    outer loop
      vertex 36.4672 23.6881 -7
      vertex 36.4672 23.6881 -5
      vertex 36.5 24 -5
    endloop
  endfacet
  facet normal -0.994516 0.104585 0
    outer loop
      vertex 36.4672 23.6881 -7
      vertex 36.5 24 -5
      vertex 36.5 24 -7
    endloop
  endfacet
  facet normal 0 0 -1
    outer loop
      vertex 36.4672 23.6881 -7
      vertex 36.5 24 -7
      vertex 40 27 -7
    endloop
  endfacet
  facet normal 0 0 1
    outer loop
      vertex 36.4672 24.3119 -5
      vertex 36.5 24 -5
      vertex 40 27 -5
    endloop
  endfacet
  facet normal -0.994516 -0.104585 0
    outer loop
      vertex 36.4672 24.3119 -5
      vertex 36.5 24 -7
      vertex 36.5 24 -5
    endloop
  endfacet
  facet normal -0.994516 -0.104585 0
    outer loop
      vertex 36.4672 24.3119 -7
      vertex 36.5 24 -7
      vertex 36.4672 24.3119 -5
    endloop
  endfacet
  facet normal 0 0 -1
    outer loop
      vertex 36.4672 24.3119 -7
      vertex 40 27 -7
      vertex 36.5 24 -7
    endloop
  endfacet
  facet normal 0 0 1
    outer loop
      vertex 36.4672 3.31187 -5
      vertex 36.5 3 -5
      vertex 40 0 -5
    endloop
  endfacet
  facet normal -0.994515 -0.104595 0
    outer loop
      vertex 36.4672 3.31187 -5
      vertex 36.5 3 -7
      vertex 36.5 3 -5
    endloop
  endfacet
  facet normal -0.994515 -0.104595 0
    outer loop
      vertex 36.4672 3.31187 -7
      vertex 36.5 3 -7
      vertex 36.4672 3.31187 -5
    endloop
  endfacet
  facet normal 0 0 -1
    outer loop
      vertex 36.4672 3.31187 -7
      vertex 40 0 -7
      vertex 36.5 3 -7
    endloop
  endfacet
  facet normal 1 -0 0
    outer loop
      vertex 40 0 -5
      vertex 40 27 -7
      vertex 40 27 -5
    endloop
  endfacet
  facet normal 1 0 0
    outer loop
      vertex 40 0 -7
      vertex 40 27 -7
      vertex 40 0 -5
    endloop
  endfacet
endsolid model
