solid model
  facet normal -0.0423706 -0.109353 -0.9931
    outer loop
      vertex 136.531 -28.672 58.0701
      vertex 136.631 -28.0269 57.9948
      vertex 136.637 -29.317 58.1366
    endloop
  endfacet
  facet normal -0.985962 -0.15586 0.0598826
    outer loop
      vertex 136.531 -28.672 58.0701
      vertex 136.637 -29.317 58.1366
      vertex 142.823 -13.5982 200.901
    endloop
  endfacet
  facet normal -0.987417 0.156053 0.0256096
    outer loop
      vertex 136.531 -28.672 58.0701
      vertex 142.718 -12.9531 200.835
      vertex 136.631 -28.0269 57.9948
    endloop
  endfacet
  facet normal -0.9862 -0.154407 0.0597397
    outer loop
      vertex 136.531 -28.672 58.0701
      vertex 142.823 -13.5982 200.901
      vertex 142.718 -12.9531 200.835
    endloop
  endfacet
  facet normal -0.987417 -0.156053 0.0256096
    outer loop
      vertex 136.531 28.672 58.0701
      vertex 136.631 28.0269 57.9948
      vertex 142.718 12.9531 200.835
    endloop
  endfacet
  facet normal -0.0423706 0.109353 -0.9931
    outer loop
      vertex 136.531 28.672 58.0701
      vertex 136.637 29.317 58.1366
      vertex 136.631 28.0269 57.9948
    endloop
  endfacet
  facet normal -0.9862 0.154407 0.0597397
    outer loop
      vertex 136.531 28.672 58.0701
      vertex 142.718 12.9531 200.835
      vertex 142.823 13.5982 200.901
    endloop
  endfacet
  facet normal -0.985962 0.15586 0.0598826
    outer loop
      vertex 136.531 28.672 58.0701
      vertex 142.823 13.5982 200.901
      vertex 136.637 29.317 58.1366
    endloop
  endfacet
  facet normal -0.0425817 -0.109649 -0.993058
    outer loop
      vertex 136.631 -28.0269 57.9948
      vertex 136.926 -27.445 57.9179
      vertex 137.388 -26.9832 57.8471
    endloop
  endfacet
  facet normal -0.0431423 -0.109353 -0.993066
    outer loop
      vertex 136.631 -28.0269 57.9948
      vertex 136.938 -29.8989 58.1876
      vertex 136.637 -29.317 58.1366
    endloop
  endfacet
  facet normal -0.0432932 -0.109136 -0.993084
    outer loop
      vertex 136.631 -28.0269 57.9948
      vertex 137.388 -26.9832 57.8471
      vertex 137.971 -26.6867 57.7891
    endloop
  endfacet
  facet normal -0.0430303 -0.109396 -0.993066
    outer loop
      vertex 136.631 -28.0269 57.9948
      vertex 137.971 -26.6867 57.7891
      vertex 139.268 -26.6867 57.7329
    endloop
  endfacet
  facet normal -0.043051 -0.109356 -0.99307
    outer loop
      vertex 136.631 -28.0269 57.9948
      vertex 139.268 -26.6867 57.7329
      vertex 140.332 -29.8989 58.0405
    endloop
  endfacet
  facet normal -0.0430297 -0.109335 -0.993073
    outer loop
      vertex 136.631 -28.0269 57.9948
      vertex 139.87 -30.3607 58.1114
      vertex 136.938 -29.8989 58.1876
    endloop
  endfacet
  facet normal -0.0430642 -0.109382 -0.993066
    outer loop
      vertex 136.631 -28.0269 57.9948
      vertex 140.332 -29.8989 58.0405
      vertex 139.87 -30.3607 58.1114
    endloop
  endfacet
  facet normal -0.987637 0.154627 0.0257695
    outer loop
      vertex 136.631 -28.0269 57.9948
      vertex 142.718 -12.9531 200.835
      vertex 142.817 -12.3081 200.759
    endloop
  endfacet
  facet normal -0.892461 0.45099 -0.010985
    outer loop
      vertex 136.631 -28.0269 57.9948
      vertex 142.817 -12.3081 200.759
      vertex 136.926 -27.445 57.9179
    endloop
  endfacet
  facet normal -0.0431423 0.109353 -0.993066
    outer loop
      vertex 136.631 28.0269 57.9948
      vertex 136.637 29.317 58.1366
      vertex 136.938 29.8989 58.1876
    endloop
  endfacet
  facet normal -0.892461 -0.45099 -0.010985
    outer loop
      vertex 136.631 28.0269 57.9948
      vertex 136.926 27.445 57.9179
      vertex 142.817 12.3081 200.759
    endloop
  endfacet
  facet normal -0.0430297 0.109335 -0.993073
    outer loop
      vertex 136.631 28.0269 57.9948
      vertex 136.938 29.8989 58.1876
      vertex 139.87 30.3607 58.1114
    endloop
  endfacet
  facet normal -0.0425817 0.109649 -0.993058
    outer loop
      vertex 136.631 28.0269 57.9948
      vertex 137.388 26.9832 57.8471
      vertex 136.926 27.445 57.9179
    endloop
  endfacet
  facet normal -0.0432932 0.109136 -0.993084
    outer loop
      vertex 136.631 28.0269 57.9948
      vertex 137.971 26.6867 57.7891
      vertex 137.388 26.9832 57.8471
    endloop
  endfacet
  facet normal -0.0430303 0.109396 -0.993066
    outer loop
      vertex 136.631 28.0269 57.9948
      vertex 139.268 26.6867 57.7329
      vertex 137.971 26.6867 57.7891
    endloop
  endfacet
  facet normal -0.0430642 0.109382 -0.993066
    outer loop
      vertex 136.631 28.0269 57.9948
      vertex 139.87 30.3607 58.1114
      vertex 140.332 29.8989 58.0405
    endloop
  endfacet
  facet normal -0.043051 0.109356 -0.99307
    outer loop
      vertex 136.631 28.0269 57.9948
      vertex 140.332 29.8989 58.0405
      vertex 139.268 26.6867 57.7329
    endloop
  endfacet
  facet normal -0.987637 -0.154627 0.0257695
    outer loop
      vertex 136.631 28.0269 57.9948
      vertex 142.817 12.3081 200.759
      vertex 142.718 12.9531 200.835
    endloop
  endfacet
  facet normal -0.887879 -0.451545 0.0881884
    outer loop
      vertex 136.637 -29.317 58.1366
      vertex 136.938 -29.8989 58.1876
      vertex 143.124 -14.1801 200.952
    endloop
  endfacet
  facet normal -0.887879 -0.451545 0.0881884
    outer loop
      vertex 136.637 -29.317 58.1366
      vertex 143.124 -14.1801 200.952
      vertex 142.823 -13.5982 200.901
    endloop
  endfacet
  facet normal -0.887879 0.451545 0.0881884
    outer loop
      vertex 136.637 29.317 58.1366
      vertex 142.823 13.5982 200.901
      vertex 143.124 14.1801 200.952
    endloop
  endfacet
  facet normal -0.887879 0.451545 0.0881884
    outer loop
      vertex 136.637 29.317 58.1366
      vertex 143.124 14.1801 200.952
      vertex 136.938 29.8989 58.1876
    endloop
  endfacet
  facet normal -0.892454 0.451004 -0.0109867
    outer loop
      vertex 136.926 -27.445 57.9179
      vertex 142.817 -12.3081 200.759
      vertex 143.112 -11.7262 200.683
    endloop
  endfacet
  facet normal -0.70976 0.702898 -0.0466369
    outer loop
      vertex 136.926 -27.445 57.9179
      vertex 143.112 -11.7262 200.683
      vertex 143.574 -11.2644 200.612
    endloop
  endfacet
  facet normal -0.709751 0.702908 -0.0466385
    outer loop
      vertex 136.926 -27.445 57.9179
      vertex 143.574 -11.2644 200.612
      vertex 137.388 -26.9832 57.8471
    endloop
  endfacet
  facet normal -0.709751 -0.702908 -0.0466385
    outer loop
      vertex 136.926 27.445 57.9179
      vertex 137.388 26.9832 57.8471
      vertex 143.574 11.2644 200.612
    endloop
  endfacet
  facet normal -0.892454 -0.451004 -0.0109867
    outer loop
      vertex 136.926 27.445 57.9179
      vertex 143.112 11.7262 200.683
      vertex 142.817 12.3081 200.759
    endloop
  endfacet
  facet normal -0.70976 -0.702898 -0.0466369
    outer loop
      vertex 136.926 27.445 57.9179
      vertex 143.574 11.2644 200.612
      vertex 143.112 11.7262 200.683
    endloop
  endfacet
  facet normal -0.703358 -0.702609 0.107836
    outer loop
      vertex 136.938 -29.8989 58.1876
      vertex 137.404 -30.3607 58.2182
      vertex 143.59 -14.6419 200.983
    endloop
  endfacet
  facet normal -0.0427539 -0.10895 -0.993127
    outer loop
      vertex 136.938 -29.8989 58.1876
      vertex 137.99 -30.6572 58.2255
      vertex 137.404 -30.3607 58.2182
    endloop
  endfacet
  facet normal -0.0430887 -0.109411 -0.993062
    outer loop
      vertex 136.938 -29.8989 58.1876
      vertex 138.639 -30.7594 58.2086
      vertex 137.99 -30.6572 58.2255
    endloop
  endfacet
  facet normal -0.0430208 -0.109277 -0.99308
    outer loop
      vertex 136.938 -29.8989 58.1876
      vertex 139.87 -30.3607 58.1114
      vertex 138.639 -30.7594 58.2086
    endloop
  endfacet
  facet normal -0.703404 -0.702563 0.107833
    outer loop
      vertex 136.938 -29.8989 58.1876
      vertex 143.59 -14.6419 200.983
      vertex 143.124 -14.1801 200.952
    endloop
  endfacet
  facet normal -0.0427539 0.10895 -0.993127
    outer loop
      vertex 136.938 29.8989 58.1876
      vertex 137.404 30.3607 58.2182
      vertex 137.99 30.6572 58.2255
    endloop
  endfacet
  facet normal -0.0430887 0.109411 -0.993062
    outer loop
      vertex 136.938 29.8989 58.1876
      vertex 137.99 30.6572 58.2255
      vertex 138.639 30.7594 58.2086
    endloop
  endfacet
  facet normal -0.0430208 0.109277 -0.99308
    outer loop
      vertex 136.938 29.8989 58.1876
      vertex 138.639 30.7594 58.2086
      vertex 139.87 30.3607 58.1114
    endloop
  endfacet
  facet normal -0.703404 0.702563 0.107833
    outer loop
      vertex 136.938 29.8989 58.1876
      vertex 143.124 14.1801 200.952
      vertex 143.59 14.6419 200.983
    endloop
  endfacet
  facet normal -0.703358 0.702609 0.107836
    outer loop
      vertex 136.938 29.8989 58.1876
      vertex 143.59 14.6419 200.983
      vertex 137.404 30.3607 58.2182
    endloop
  endfacet
  facet normal -0.457458 0.885829 -0.0777105
    outer loop
      vertex 137.388 -26.9832 57.8471
      vertex 143.574 -11.2644 200.612
      vertex 144.158 -10.9679 200.554
    endloop
  endfacet
  facet normal -0.458077 0.885515 -0.0776459
    outer loop
      vertex 137.388 -26.9832 57.8471
      vertex 144.158 -10.9679 200.554
      vertex 137.971 -26.6867 57.7891
    endloop
  endfacet
  facet normal -0.458077 -0.885515 -0.0776459
    outer loop
      vertex 137.388 26.9832 57.8471
      vertex 137.971 26.6867 57.7891
      vertex 144.158 10.9679 200.554
    endloop
  endfacet
  facet normal -0.457458 -0.885829 -0.0777105
    outer loop
      vertex 137.388 26.9832 57.8471
      vertex 144.158 10.9679 200.554
      vertex 143.574 11.2644 200.612
    endloop
  endfacet
  facet normal -0.449532 -0.885571 0.116985
    outer loop
      vertex 137.404 -30.3607 58.2182
      vertex 137.99 -30.6572 58.2255
      vertex 144.177 -14.9384 200.99
    endloop
  endfacet
  facet normal -0.448874 -0.885903 0.11699
    outer loop
      vertex 137.404 -30.3607 58.2182
      vertex 144.177 -14.9384 200.99
      vertex 143.59 -14.6419 200.983
    endloop
  endfacet
  facet normal -0.448874 0.885903 0.11699
    outer loop
      vertex 137.404 30.3607 58.2182
      vertex 143.59 14.6419 200.983
      vertex 144.177 14.9384 200.99
    endloop
  endfacet
  facet normal -0.449532 0.885571 0.116985
    outer loop
      vertex 137.404 30.3607 58.2182
      vertex 144.177 14.9384 200.99
      vertex 137.99 30.6572 58.2255
    endloop
  endfacet
  facet normal -0.0430315 -0.109149 -0.993093
    outer loop
      vertex 137.971 -26.6867 57.7891
      vertex 138.619 -26.5846 57.7498
      vertex 139.268 -26.6867 57.7329
    endloop
  endfacet
  facet normal -0.161079 0.981748 -0.101112
    outer loop
      vertex 137.971 -26.6867 57.7891
      vertex 144.158 -10.9679 200.554
      vertex 144.806 -10.8657 200.514
    endloop
  endfacet
  facet normal -0.160826 0.981788 -0.101129
    outer loop
      vertex 137.971 -26.6867 57.7891
      vertex 144.806 -10.8657 200.514
      vertex 138.619 -26.5846 57.7498
    endloop
  endfacet
  facet normal -0.160826 -0.981788 -0.101129
    outer loop
      vertex 137.971 26.6867 57.7891
      vertex 138.619 26.5846 57.7498
      vertex 144.806 10.8657 200.514
    endloop
  endfacet
  facet normal -0.0430315 0.109149 -0.993093
    outer loop
      vertex 137.971 26.6867 57.7891
      vertex 139.268 26.6867 57.7329
      vertex 138.619 26.5846 57.7498
    endloop
  endfacet
  facet normal -0.161079 -0.981748 -0.101112
    outer loop
      vertex 137.971 26.6867 57.7891
      vertex 144.806 10.8657 200.514
      vertex 144.158 10.9679 200.554
    endloop
  endfacet
  facet normal -0.151616 -0.981766 0.114666
    outer loop
      vertex 137.99 -30.6572 58.2255
      vertex 138.639 -30.7594 58.2086
      vertex 144.177 -14.9384 200.99
    endloop
  endfacet
  facet normal -0.151616 0.981766 0.114666
    outer loop
      vertex 137.99 30.6572 58.2255
      vertex 144.177 14.9384 200.99
      vertex 138.639 30.7594 58.2086
    endloop
  endfacet
  facet normal 0.151468 0.981789 -0.114663
    outer loop
      vertex 138.619 -26.5846 57.7498
      vertex 144.806 -10.8657 200.514
      vertex 139.268 -26.6867 57.7329
    endloop
  endfacet
  facet normal 0.151468 -0.981789 -0.114663
    outer loop
      vertex 138.619 26.5846 57.7498
      vertex 139.268 26.6867 57.7329
      vertex 144.806 10.8657 200.514
    endloop
  endfacet
  facet normal 0.160973 -0.981765 0.10112
    outer loop
      vertex 138.639 -30.7594 58.2086
      vertex 139.287 -30.6572 58.1693
      vertex 145.473 -14.9384 200.934
    endloop
  endfacet
  facet normal -0.0429673 -0.109438 -0.993064
    outer loop
      vertex 138.639 -30.7594 58.2086
      vertex 139.87 -30.3607 58.1114
      vertex 139.287 -30.6572 58.1693
    endloop
  endfacet
  facet normal -0.151451 -0.981792 0.114662
    outer loop
      vertex 138.639 -30.7594 58.2086
      vertex 144.826 -15.0405 200.973
      vertex 144.177 -14.9384 200.99
    endloop
  endfacet
  facet normal 0.161022 -0.981757 0.101117
    outer loop
      vertex 138.639 -30.7594 58.2086
      vertex 145.473 -14.9384 200.934
      vertex 144.826 -15.0405 200.973
    endloop
  endfacet
  facet normal -0.0429673 0.109438 -0.993064
    outer loop
      vertex 138.639 30.7594 58.2086
      vertex 139.287 30.6572 58.1693
      vertex 139.87 30.3607 58.1114
    endloop
  endfacet
  facet normal -0.151451 0.981792 0.114662
    outer loop
      vertex 138.639 30.7594 58.2086
      vertex 144.177 14.9384 200.99
      vertex 144.826 15.0405 200.973
    endloop
  endfacet
  facet normal 0.161022 0.981757 0.101117
    outer loop
      vertex 138.639 30.7594 58.2086
      vertex 144.826 15.0405 200.973
      vertex 145.473 14.9384 200.934
    endloop
  endfacet
  facet normal 0.160973 0.981765 0.10112
    outer loop
      vertex 138.639 30.7594 58.2086
      vertex 145.473 14.9384 200.934
      vertex 139.287 30.6572 58.1693
    endloop
  endfacet
  facet normal -0.0428488 -0.109137 -0.993103
    outer loop
      vertex 139.268 -26.6867 57.7329
      vertex 139.854 -26.9832 57.7402
      vertex 140.321 -27.445 57.7708
    endloop
  endfacet
  facet normal -0.0429949 -0.109338 -0.993074
    outer loop
      vertex 139.268 -26.6867 57.7329
      vertex 140.321 -27.445 57.7708
      vertex 140.332 -29.8989 58.0405
    endloop
  endfacet
  facet normal 0.151999 0.981706 -0.114674
    outer loop
      vertex 139.268 -26.6867 57.7329
      vertex 144.806 -10.8657 200.514
      vertex 145.454 -10.9679 200.498
    endloop
  endfacet
  facet normal 0.448874 0.885904 -0.11699
    outer loop
      vertex 139.268 -26.6867 57.7329
      vertex 145.454 -10.9679 200.498
      vertex 146.041 -11.2644 200.505
    endloop
  endfacet
  facet normal 0.449532 0.885571 -0.116985
    outer loop
      vertex 139.268 -26.6867 57.7329
      vertex 146.041 -11.2644 200.505
      vertex 139.854 -26.9832 57.7402
    endloop
  endfacet
  facet normal 0.449532 -0.885571 -0.116985
    outer loop
      vertex 139.268 26.6867 57.7329
      vertex 139.854 26.9832 57.7402
      vertex 146.041 11.2644 200.505
    endloop
  endfacet
  facet normal -0.0428488 0.109137 -0.993103
    outer loop
      vertex 139.268 26.6867 57.7329
      vertex 140.321 27.445 57.7708
      vertex 139.854 26.9832 57.7402
    endloop
  endfacet
  facet normal -0.0429949 0.109338 -0.993074
    outer loop
      vertex 139.268 26.6867 57.7329
      vertex 140.332 29.8989 58.0405
      vertex 140.321 27.445 57.7708
    endloop
  endfacet
  facet normal 0.151999 -0.981706 -0.114674
    outer loop
      vertex 139.268 26.6867 57.7329
      vertex 145.454 10.9679 200.498
      vertex 144.806 10.8657 200.514
    endloop
  endfacet
  facet normal 0.448874 -0.885904 -0.11699
    outer loop
      vertex 139.268 26.6867 57.7329
      vertex 146.041 11.2644 200.505
      vertex 145.454 10.9679 200.498
    endloop
  endfacet
  facet normal 0.458066 -0.88552 0.0776471
    outer loop
      vertex 139.287 -30.6572 58.1693
      vertex 139.87 -30.3607 58.1114
      vertex 146.057 -14.6419 200.876
    endloop
  endfacet
  facet normal 0.457458 -0.885829 0.0777106
    outer loop
      vertex 139.287 -30.6572 58.1693
      vertex 146.057 -14.6419 200.876
      vertex 145.473 -14.9384 200.934
    endloop
  endfacet
  facet normal 0.457458 0.885829 0.0777106
    outer loop
      vertex 139.287 30.6572 58.1693
      vertex 145.473 14.9384 200.934
      vertex 146.057 14.6419 200.876
    endloop
  endfacet
  facet normal 0.458066 0.88552 0.0776471
    outer loop
      vertex 139.287 30.6572 58.1693
      vertex 146.057 14.6419 200.876
      vertex 139.87 30.3607 58.1114
    endloop
  endfacet
  facet normal 0.702598 0.70336 -0.10789
    outer loop
      vertex 139.854 -26.9832 57.7402
      vertex 146.041 -11.2644 200.505
      vertex 140.321 -27.445 57.7708
    endloop
  endfacet
  facet normal 0.702598 -0.70336 -0.10789
    outer loop
      vertex 139.854 26.9832 57.7402
      vertex 140.321 27.445 57.7708
      vertex 146.041 11.2644 200.505
    endloop
  endfacet
  facet normal 0.709755 -0.702903 0.046633
    outer loop
      vertex 139.87 -30.3607 58.1114
      vertex 140.332 -29.8989 58.0405
      vertex 146.057 -14.6419 200.876
    endloop
  endfacet
  facet normal 0.709755 0.702903 0.046633
    outer loop
      vertex 139.87 30.3607 58.1114
      vertex 146.057 14.6419 200.876
      vertex 140.332 29.8989 58.0405
    endloop
  endfacet
  facet normal -0.0427337 -0.109241 -0.993096
    outer loop
      vertex 140.321 -27.445 57.7708
      vertex 140.621 -28.0269 57.8219
      vertex 140.727 -28.672 57.8883
    endloop
  endfacet
  facet normal -0.0430344 -0.109338 -0.993073
    outer loop
      vertex 140.321 -27.445 57.7708
      vertex 140.727 -28.672 57.8883
      vertex 140.332 -29.8989 58.0405
    endloop
  endfacet
  facet normal 0.703288 0.702678 -0.107841
    outer loop
      vertex 140.321 -27.445 57.7708
      vertex 146.041 -11.2644 200.505
      vertex 146.507 -11.7262 200.535
    endloop
  endfacet
  facet normal 0.888504 0.450335 -0.0880824
    outer loop
      vertex 140.321 -27.445 57.7708
      vertex 146.507 -11.7262 200.535
      vertex 140.621 -28.0269 57.8219
    endloop
  endfacet
  facet normal -0.0430344 0.109338 -0.993073
    outer loop
      vertex 140.321 27.445 57.7708
      vertex 140.332 29.8989 58.0405
      vertex 140.727 28.672 57.8883
    endloop
  endfacet
  facet normal 0.888504 -0.450335 -0.0880824
    outer loop
      vertex 140.321 27.445 57.7708
      vertex 140.621 28.0269 57.8219
      vertex 146.507 11.7262 200.535
    endloop
  endfacet
  facet normal -0.0427337 0.109241 -0.993096
    outer loop
      vertex 140.321 27.445 57.7708
      vertex 140.727 28.672 57.8883
      vertex 140.621 28.0269 57.8219
    endloop
  endfacet
  facet normal 0.703288 -0.702678 -0.107841
    outer loop
      vertex 140.321 27.445 57.7708
      vertex 146.507 11.7262 200.535
      vertex 146.041 11.2644 200.505
    endloop
  endfacet
  facet normal 0.891851 -0.452193 0.0111438
    outer loop
      vertex 140.332 -29.8989 58.0405
      vertex 140.628 -29.317 57.9636
      vertex 146.814 -13.5982 200.728
    endloop
  endfacet
  facet normal -0.0430822 -0.109323 -0.993072
    outer loop
      vertex 140.332 -29.8989 58.0405
      vertex 140.727 -28.672 57.8883
      vertex 140.628 -29.317 57.9636
    endloop
  endfacet
  facet normal 0.70976 -0.702898 0.0466322
    outer loop
      vertex 140.332 -29.8989 58.0405
      vertex 146.519 -14.1801 200.805
      vertex 146.057 -14.6419 200.876
    endloop
  endfacet
  facet normal 0.892462 -0.45099 0.0109786
    outer loop
      vertex 140.332 -29.8989 58.0405
      vertex 146.814 -13.5982 200.728
      vertex 146.519 -14.1801 200.805
    endloop
  endfacet
  facet normal -0.0430822 0.109323 -0.993072
    outer loop
      vertex 140.332 29.8989 58.0405
      vertex 140.628 29.317 57.9636
      vertex 140.727 28.672 57.8883
    endloop
  endfacet
  facet normal 0.70976 0.702898 0.0466322
    outer loop
      vertex 140.332 29.8989 58.0405
      vertex 146.057 14.6419 200.876
      vertex 146.519 14.1801 200.805
    endloop
  endfacet
  facet normal 0.892462 0.45099 0.0109786
    outer loop
      vertex 140.332 29.8989 58.0405
      vertex 146.519 14.1801 200.805
      vertex 146.814 13.5982 200.728
    endloop
  endfacet
  facet normal 0.891851 0.452193 0.0111438
    outer loop
      vertex 140.332 29.8989 58.0405
      vertex 146.814 13.5982 200.728
      vertex 140.628 29.317 57.9636
    endloop
  endfacet
  facet normal 0.887879 0.451544 -0.0881948
    outer loop
      vertex 140.621 -28.0269 57.8219
      vertex 146.507 -11.7262 200.535
      vertex 146.808 -12.3081 200.586
    endloop
  endfacet
  facet normal 0.985969 0.155815 -0.0598849
    outer loop
      vertex 140.621 -28.0269 57.8219
      vertex 146.808 -12.3081 200.586
      vertex 146.914 -12.9531 200.653
    endloop
  endfacet
  facet normal 0.985964 0.155845 -0.0598879
    outer loop
      vertex 140.621 -28.0269 57.8219
      vertex 146.914 -12.9531 200.653
      vertex 140.727 -28.672 57.8883
    endloop
  endfacet
  facet normal 0.985964 -0.155845 -0.0598879
    outer loop
      vertex 140.621 28.0269 57.8219
      vertex 140.727 28.672 57.8883
      vertex 146.914 12.9531 200.653
    endloop
  endfacet
  facet normal 0.887879 -0.451544 -0.0881948
    outer loop
      vertex 140.621 28.0269 57.8219
      vertex 146.808 12.3081 200.586
      vertex 146.507 11.7262 200.535
    endloop
  endfacet
  facet normal 0.985969 -0.155815 -0.0598849
    outer loop
      vertex 140.621 28.0269 57.8219
      vertex 146.914 12.9531 200.653
      vertex 146.808 12.3081 200.586
    endloop
  endfacet
  facet normal 0.987641 -0.154601 -0.0257793
    outer loop
      vertex 140.628 -29.317 57.9636
      vertex 140.727 -28.672 57.8883
      vertex 146.914 -12.9531 200.653
    endloop
  endfacet
  facet normal 0.987419 -0.156041 -0.0256044
    outer loop
      vertex 140.628 -29.317 57.9636
      vertex 146.914 -12.9531 200.653
      vertex 146.814 -13.5982 200.728
    endloop
  endfacet
  facet normal 0.987419 0.156041 -0.0256044
    outer loop
      vertex 140.628 29.317 57.9636
      vertex 146.814 13.5982 200.728
      vertex 146.914 12.9531 200.653
    endloop
  endfacet
  facet normal 0.987641 0.154601 -0.0257793
    outer loop
      vertex 140.628 29.317 57.9636
      vertex 146.914 12.9531 200.653
      vertex 140.727 28.672 57.8883
    endloop
  endfacet
  facet normal 0.0410912 0.108309 0.993268
    outer loop
      vertex 142.718 -12.9531 200.835
      vertex 142.823 -13.5982 200.901
      vertex 143.124 -14.1801 200.952
    endloop
  endfacet
  facet normal 0.0358988 0.111508 0.993115
    outer loop
      vertex 142.718 -12.9531 200.835
      vertex 143.112 -11.7262 200.683
      vertex 142.817 -12.3081 200.759
    endloop
  endfacet
  facet normal 0.04248 0.108758 0.99316
    outer loop
      vertex 142.718 -12.9531 200.835
      vertex 143.124 -14.1801 200.952
      vertex 144.177 -14.9384 200.99
    endloop
  endfacet
  facet normal 0.0430846 0.109197 0.993086
    outer loop
      vertex 142.718 -12.9531 200.835
      vertex 144.177 -14.9384 200.99
      vertex 143.112 -11.7262 200.683
    endloop
  endfacet
  facet normal 0.0358988 -0.111508 0.993115
    outer loop
      vertex 142.718 12.9531 200.835
      vertex 142.817 12.3081 200.759
      vertex 143.112 11.7262 200.683
    endloop
  endfacet
  facet normal 0.0430846 -0.109197 0.993086
    outer loop
      vertex 142.718 12.9531 200.835
      vertex 143.112 11.7262 200.683
      vertex 144.177 14.9384 200.99
    endloop
  endfacet
  facet normal 0.0410912 -0.108309 0.993268
    outer loop
      vertex 142.718 12.9531 200.835
      vertex 143.124 14.1801 200.952
      vertex 142.823 13.5982 200.901
    endloop
  endfacet
  facet normal 0.04248 -0.108758 0.99316
    outer loop
      vertex 142.718 12.9531 200.835
      vertex 144.177 14.9384 200.99
      vertex 143.124 14.1801 200.952
    endloop
  endfacet
  facet normal 0.0431586 0.109221 0.99308
    outer loop
      vertex 143.112 -11.7262 200.683
      vertex 144.177 -14.9384 200.99
      vertex 146.814 -13.5982 200.728
    endloop
  endfacet
  facet normal 0.0432529 0.109407 0.993056
    outer loop
      vertex 143.112 -11.7262 200.683
      vertex 146.814 -13.5982 200.728
      vertex 143.574 -11.2644 200.612
    endloop
  endfacet
  facet normal 0.0432529 -0.109407 0.993056
    outer loop
      vertex 143.112 11.7262 200.683
      vertex 143.574 11.2644 200.612
      vertex 146.814 13.5982 200.728
    endloop
  endfacet
  facet normal 0.0431586 -0.109221 0.99308
    outer loop
      vertex 143.112 11.7262 200.683
      vertex 146.814 13.5982 200.728
      vertex 144.177 14.9384 200.99
    endloop
  endfacet
  facet normal 0.0445103 0.111558 0.992761
    outer loop
      vertex 143.124 -14.1801 200.952
      vertex 143.59 -14.6419 200.983
      vertex 144.177 -14.9384 200.99
    endloop
  endfacet
  facet normal 0.0445103 -0.111558 0.992761
    outer loop
      vertex 143.124 14.1801 200.952
      vertex 144.177 14.9384 200.99
      vertex 143.59 14.6419 200.983
    endloop
  endfacet
  facet normal 0.0444905 0.106674 0.993298
    outer loop
      vertex 143.574 -11.2644 200.612
      vertex 144.806 -10.8657 200.514
      vertex 144.158 -10.9679 200.554
    endloop
  endfacet
  facet normal 0.0434813 0.109722 0.993011
    outer loop
      vertex 143.574 -11.2644 200.612
      vertex 146.814 -13.5982 200.728
      vertex 144.806 -10.8657 200.514
    endloop
  endfacet
  facet normal 0.0444905 -0.106674 0.993298
    outer loop
      vertex 143.574 11.2644 200.612
      vertex 144.158 10.9679 200.554
      vertex 144.806 10.8657 200.514
    endloop
  endfacet
  facet normal 0.0434813 -0.109722 0.993011
    outer loop
      vertex 143.574 11.2644 200.612
      vertex 144.806 10.8657 200.514
      vertex 146.814 13.5982 200.728
    endloop
  endfacet
  facet normal 0.0431869 0.109166 0.993085
    outer loop
      vertex 144.177 -14.9384 200.99
      vertex 144.826 -15.0405 200.973
      vertex 146.814 -13.5982 200.728
    endloop
  endfacet
  facet normal 0.0431869 -0.109166 0.993085
    outer loop
      vertex 144.177 14.9384 200.99
      vertex 146.814 13.5982 200.728
      vertex 144.826 15.0405 200.973
    endloop
  endfacet
  facet normal 0.0412013 0.105692 0.993545
    outer loop
      vertex 144.806 -10.8657 200.514
      vertex 146.507 -11.7262 200.535
      vertex 145.454 -10.9679 200.498
    endloop
  endfacet
  facet normal 0.0431096 0.109452 0.993057
    outer loop
      vertex 144.806 -10.8657 200.514
      vertex 146.814 -13.5982 200.728
      vertex 146.507 -11.7262 200.535
    endloop
  endfacet
  facet normal 0.0412013 -0.105692 0.993545
    outer loop
      vertex 144.806 10.8657 200.514
      vertex 145.454 10.9679 200.498
      vertex 146.507 11.7262 200.535
    endloop
  endfacet
  facet normal 0.0431096 -0.109452 0.993057
    outer loop
      vertex 144.806 10.8657 200.514
      vertex 146.507 11.7262 200.535
      vertex 146.814 13.5982 200.728
    endloop
  endfacet
  facet normal 0.0424776 0.110131 0.993009
    outer loop
      vertex 144.826 -15.0405 200.973
      vertex 145.473 -14.9384 200.934
      vertex 146.814 -13.5982 200.728
    endloop
  endfacet
  facet normal 0.0424776 -0.110131 0.993009
    outer loop
      vertex 144.826 15.0405 200.973
      vertex 146.814 13.5982 200.728
      vertex 145.473 14.9384 200.934
    endloop
  endfacet
  facet normal 0.04232 0.107235 0.993333
    outer loop
      vertex 145.454 -10.9679 200.498
      vertex 146.507 -11.7262 200.535
      vertex 146.041 -11.2644 200.505
    endloop
  endfacet
  facet normal 0.04232 -0.107235 0.993333
    outer loop
      vertex 145.454 10.9679 200.498
      vertex 146.041 11.2644 200.505
      vertex 146.507 11.7262 200.535
    endloop
  endfacet
  facet normal 0.0429446 0.109668 0.99304
    outer loop
      vertex 145.473 -14.9384 200.934
      vertex 146.057 -14.6419 200.876
      vertex 146.814 -13.5982 200.728
    endloop
  endfacet
  facet normal 0.0429446 -0.109668 0.99304
    outer loop
      vertex 145.473 14.9384 200.934
      vertex 146.814 13.5982 200.728
      vertex 146.057 14.6419 200.876
    endloop
  endfacet
  facet normal 0.0431069 0.109551 0.993046
    outer loop
      vertex 146.057 -14.6419 200.876
      vertex 146.519 -14.1801 200.805
      vertex 146.814 -13.5982 200.728
    endloop
  endfacet
  facet normal 0.0431069 -0.109551 0.993046
    outer loop
      vertex 146.057 14.6419 200.876
      vertex 146.814 13.5982 200.728
      vertex 146.519 14.1801 200.805
    endloop
  endfacet
  facet normal 0.0434413 0.109505 0.993037
    outer loop
      vertex 146.507 -11.7262 200.535
      vertex 146.814 -13.5982 200.728
      vertex 146.808 -12.3081 200.586
    endloop
  endfacet
  facet normal 0.0434413 -0.109505 0.993037
    outer loop
      vertex 146.507 11.7262 200.535
      vertex 146.808 12.3081 200.586
      vertex 146.814 13.5982 200.728
    endloop
  endfacet
  facet normal 0.0385193 0.109504 0.99324
    outer loop
      vertex 146.808 -12.3081 200.586
      vertex 146.814 -13.5982 200.728
      vertex 146.914 -12.9531 200.653
    endloop
  endfacet
  facet normal 0.0385193 -0.109504 0.99324
    outer loop
      vertex 146.808 12.3081 200.586
      vertex 146.914 12.9531 200.653
      vertex 146.814 13.5982 200.728
    endloop
  endfacet
  facet normal -0.0921523 0.0595755 0.993961
    outer loop
      vertex 173.295 -12.7102 200.668
      vertex 173.394 -13.3579 200.716
      vertex 173.401 -12.0624 200.639
    endloop
  endfacet
  facet normal -0.982528 0.156245 -0.101121
    outer loop
      vertex 173.295 -12.7102 200.668
      vertex 173.401 -12.0624 200.639
      vertex 186.737 -20.6726 57.7574
    endloop
  endfacet
  facet normal -0.984223 -0.15656 -0.0824291
    outer loop
      vertex 173.295 -12.7102 200.668
      vertex 186.631 -21.3203 57.7865
      vertex 186.73 -21.9681 57.8348
    endloop
  endfacet
  facet normal -0.984225 -0.156546 -0.0824302
    outer loop
      vertex 173.295 -12.7102 200.668
      vertex 186.73 -21.9681 57.8348
      vertex 173.394 -13.3579 200.716
    endloop
  endfacet
  facet normal -0.982527 0.156253 -0.101121
    outer loop
      vertex 173.295 -12.7102 200.668
      vertex 186.737 -20.6726 57.7574
      vertex 186.631 -21.3203 57.7865
    endloop
  endfacet
  facet normal -0.984225 0.156546 -0.0824302
    outer loop
      vertex 173.295 12.7102 200.668
      vertex 173.394 13.3579 200.716
      vertex 186.73 21.9681 57.8348
    endloop
  endfacet
  facet normal -0.0921523 -0.0595755 0.993961
    outer loop
      vertex 173.295 12.7102 200.668
      vertex 173.401 12.0624 200.639
      vertex 173.394 13.3579 200.716
    endloop
  endfacet
  facet normal -0.982527 -0.156253 -0.101121
    outer loop
      vertex 173.295 12.7102 200.668
      vertex 186.631 21.3203 57.7865
      vertex 186.737 20.6726 57.7574
    endloop
  endfacet
  facet normal -0.984223 0.15656 -0.0824291
    outer loop
      vertex 173.295 12.7102 200.668
      vertex 186.73 21.9681 57.8348
      vertex 186.631 21.3203 57.7865
    endloop
  endfacet
  facet normal -0.982528 -0.156245 -0.101121
    outer loop
      vertex 173.295 12.7102 200.668
      vertex 186.737 20.6726 57.7574
      vertex 173.401 12.0624 200.639
    endloop
  endfacet
  facet normal -0.0920837 0.0608189 0.993892
    outer loop
      vertex 173.394 -13.3579 200.716
      vertex 173.688 -13.9423 200.779
      vertex 174.148 -14.4061 200.85
    endloop
  endfacet
  facet normal -0.092862 0.0595754 0.993895
    outer loop
      vertex 173.394 -13.3579 200.716
      vertex 173.701 -11.478 200.632
      vertex 173.401 -12.0624 200.639
    endloop
  endfacet
  facet normal -0.0919953 0.0608831 0.993896
    outer loop
      vertex 173.394 -13.3579 200.716
      vertex 174.148 -14.4061 200.85
      vertex 175.374 -14.8064 200.988
    endloop
  endfacet
  facet normal -0.0927117 0.0599024 0.993889
    outer loop
      vertex 173.394 -13.3579 200.716
      vertex 175.374 -14.8064 200.988
      vertex 177.085 -11.478 200.947
    endloop
  endfacet
  facet normal -0.0923411 0.0594927 0.993949
    outer loop
      vertex 173.394 -13.3579 200.716
      vertex 176.043 -10.7165 200.804
      vertex 173.701 -11.478 200.632
    endloop
  endfacet
  facet normal -0.092675 0.0598293 0.993897
    outer loop
      vertex 173.394 -13.3579 200.716
      vertex 177.085 -11.478 200.947
      vertex 176.043 -10.7165 200.804
    endloop
  endfacet
  facet normal -0.889514 -0.453501 -0.0556954
    outer loop
      vertex 173.394 -13.3579 200.716
      vertex 186.73 -21.9681 57.8348
      vertex 173.688 -13.9423 200.779
    endloop
  endfacet
  facet normal -0.092862 -0.0595754 0.993895
    outer loop
      vertex 173.394 13.3579 200.716
      vertex 173.401 12.0624 200.639
      vertex 173.701 11.478 200.632
    endloop
  endfacet
  facet normal -0.889514 0.453501 -0.0556954
    outer loop
      vertex 173.394 13.3579 200.716
      vertex 173.688 13.9423 200.779
      vertex 186.73 21.9681 57.8348
    endloop
  endfacet
  facet normal -0.0923411 -0.0594927 0.993949
    outer loop
      vertex 173.394 13.3579 200.716
      vertex 173.701 11.478 200.632
      vertex 176.043 10.7165 200.804
    endloop
  endfacet
  facet normal -0.0920837 -0.0608189 0.993892
    outer loop
      vertex 173.394 13.3579 200.716
      vertex 174.148 14.4061 200.85
      vertex 173.688 13.9423 200.779
    endloop
  endfacet
  facet normal -0.0919953 -0.0608831 0.993896
    outer loop
      vertex 173.394 13.3579 200.716
      vertex 175.374 14.8064 200.988
      vertex 174.148 14.4061 200.85
    endloop
  endfacet
  facet normal -0.092675 -0.0598293 0.993897
    outer loop
      vertex 173.394 13.3579 200.716
      vertex 176.043 10.7165 200.804
      vertex 177.085 11.478 200.947
    endloop
  endfacet
  facet normal -0.0927117 -0.0599024 0.993889
    outer loop
      vertex 173.394 13.3579 200.716
      vertex 177.085 11.478 200.947
      vertex 175.374 14.8064 200.988
    endloop
  endfacet
  facet normal -0.884775 0.452881 -0.109872
    outer loop
      vertex 173.401 -12.0624 200.639
      vertex 173.701 -11.478 200.632
      vertex 187.037 -20.0882 57.7502
    endloop
  endfacet
  facet normal -0.88479 0.452851 -0.109872
    outer loop
      vertex 173.401 -12.0624 200.639
      vertex 187.037 -20.0882 57.7502
      vertex 186.737 -20.6726 57.7574
    endloop
  endfacet
  facet normal -0.88479 -0.452851 -0.109872
    outer loop
      vertex 173.401 12.0624 200.639
      vertex 186.737 20.6726 57.7574
      vertex 187.037 20.0882 57.7502
    endloop
  endfacet
  facet normal -0.884775 -0.452881 -0.109872
    outer loop
      vertex 173.401 12.0624 200.639
      vertex 187.037 20.0882 57.7502
      vertex 173.701 11.478 200.632
    endloop
  endfacet
  facet normal -0.890135 -0.452265 -0.0558214
    outer loop
      vertex 173.688 -13.9423 200.779
      vertex 186.73 -21.9681 57.8348
      vertex 187.023 -22.5525 57.8974
    endloop
  endfacet
  facet normal -0.707935 -0.705885 -0.0235335
    outer loop
      vertex 173.688 -13.9423 200.779
      vertex 187.023 -22.5525 57.8974
      vertex 187.483 -23.0162 57.9683
    endloop
  endfacet
  facet normal -0.708008 -0.705812 -0.0235452
    outer loop
      vertex 173.688 -13.9423 200.779
      vertex 187.483 -23.0162 57.9683
      vertex 174.148 -14.4061 200.85
    endloop
  endfacet
  facet normal -0.708008 0.705812 -0.0235452
    outer loop
      vertex 173.688 13.9423 200.779
      vertex 174.148 14.4061 200.85
      vertex 187.483 23.0162 57.9683
    endloop
  endfacet
  facet normal -0.890135 0.452265 -0.0558214
    outer loop
      vertex 173.688 13.9423 200.779
      vertex 187.023 22.5525 57.8974
      vertex 186.73 21.9681 57.8348
    endloop
  endfacet
  facet normal -0.707935 0.705885 -0.0235335
    outer loop
      vertex 173.688 13.9423 200.779
      vertex 187.483 23.0162 57.9683
      vertex 187.023 22.5525 57.8974
    endloop
  endfacet
  facet normal -0.699494 0.706452 -0.107859
    outer loop
      vertex 173.701 -11.478 200.632
      vertex 174.167 -11.0143 200.647
      vertex 187.037 -20.0882 57.7502
    endloop
  endfacet
  facet normal -0.0928839 0.0611968 0.993795
    outer loop
      vertex 173.701 -11.478 200.632
      vertex 176.043 -10.7165 200.804
      vertex 174.167 -11.0143 200.647
    endloop
  endfacet
  facet normal -0.0928839 -0.0611968 0.993795
    outer loop
      vertex 173.701 11.478 200.632
      vertex 174.167 11.0143 200.647
      vertex 176.043 10.7165 200.804
    endloop
  endfacet
  facet normal -0.699494 -0.706452 -0.107859
    outer loop
      vertex 173.701 11.478 200.632
      vertex 187.037 20.0882 57.7502
      vertex 174.167 11.0143 200.647
    endloop
  endfacet
  facet normal -0.0920368 0.0607573 0.9939
    outer loop
      vertex 174.148 -14.4061 200.85
      vertex 174.729 -14.7038 200.922
      vertex 175.374 -14.8064 200.988
    endloop
  endfacet
  facet normal -0.457061 -0.889368 0.0109366
    outer loop
      vertex 174.148 -14.4061 200.85
      vertex 187.483 -23.0162 57.9683
      vertex 174.729 -14.7038 200.922
    endloop
  endfacet
  facet normal -0.457061 0.889368 0.0109366
    outer loop
      vertex 174.148 14.4061 200.85
      vertex 174.729 14.7038 200.922
      vertex 187.483 23.0162 57.9683
    endloop
  endfacet
  facet normal -0.0920368 -0.0607573 0.9939
    outer loop
      vertex 174.148 14.4061 200.85
      vertex 175.374 14.8064 200.988
      vertex 174.729 14.7038 200.922
    endloop
  endfacet
  facet normal -0.447408 0.889234 -0.0953418
    outer loop
      vertex 174.167 -11.0143 200.647
      vertex 174.751 -10.7165 200.684
      vertex 187.502 -19.6244 57.7656
    endloop
  endfacet
  facet normal -0.0919938 0.0568886 0.994133
    outer loop
      vertex 174.167 -11.0143 200.647
      vertex 175.398 -10.6139 200.738
      vertex 174.751 -10.7165 200.684
    endloop
  endfacet
  facet normal -0.0924405 0.05829 0.994011
    outer loop
      vertex 174.167 -11.0143 200.647
      vertex 176.043 -10.7165 200.804
      vertex 175.398 -10.6139 200.738
    endloop
  endfacet
  facet normal -0.700278 0.705672 -0.10788
    outer loop
      vertex 174.167 -11.0143 200.647
      vertex 187.502 -19.6244 57.7656
      vertex 187.037 -20.0882 57.7502
    endloop
  endfacet
  facet normal -0.0919938 -0.0568886 0.994133
    outer loop
      vertex 174.167 11.0143 200.647
      vertex 174.751 10.7165 200.684
      vertex 175.398 10.6139 200.738
    endloop
  endfacet
  facet normal -0.0924405 -0.05829 0.994011
    outer loop
      vertex 174.167 11.0143 200.647
      vertex 175.398 10.6139 200.738
      vertex 176.043 10.7165 200.804
    endloop
  endfacet
  facet normal -0.700278 -0.705672 -0.10788
    outer loop
      vertex 174.167 11.0143 200.647
      vertex 187.037 20.0882 57.7502
      vertex 187.502 19.6244 57.7656
    endloop
  endfacet
  facet normal -0.447408 -0.889234 -0.0953418
    outer loop
      vertex 174.167 11.0143 200.647
      vertex 187.502 19.6244 57.7656
      vertex 174.751 10.7165 200.684
    endloop
  endfacet
  facet normal -0.457184 -0.889305 0.010922
    outer loop
      vertex 174.729 -14.7038 200.922
      vertex 187.483 -23.0162 57.9683
      vertex 188.064 -23.314 58.0405
    endloop
  endfacet
  facet normal -0.161365 -0.985898 0.0443513
    outer loop
      vertex 174.729 -14.7038 200.922
      vertex 188.064 -23.314 58.0405
      vertex 175.374 -14.8064 200.988
    endloop
  endfacet
  facet normal -0.161365 0.985898 0.0443513
    outer loop
      vertex 174.729 14.7038 200.922
      vertex 175.374 14.8064 200.988
      vertex 188.064 23.314 58.0405
    endloop
  endfacet
  facet normal -0.457184 0.889305 0.010922
    outer loop
      vertex 174.729 14.7038 200.922
      vertex 188.064 23.314 58.0405
      vertex 187.483 23.0162 57.9683
    endloop
  endfacet
  facet normal -0.150217 0.985922 -0.0734323
    outer loop
      vertex 174.751 -10.7165 200.684
      vertex 175.398 -10.6139 200.738
      vertex 188.733 -19.2241 57.8564
    endloop
  endfacet
  facet normal -0.446733 0.889577 -0.095303
    outer loop
      vertex 174.751 -10.7165 200.684
      vertex 188.087 -19.3267 57.8022
      vertex 187.502 -19.6244 57.7656
    endloop
  endfacet
  facet normal -0.15042 0.98589 -0.0734503
    outer loop
      vertex 174.751 -10.7165 200.684
      vertex 188.733 -19.2241 57.8564
      vertex 188.087 -19.3267 57.8022
    endloop
  endfacet
  facet normal -0.446733 -0.889577 -0.095303
    outer loop
      vertex 174.751 10.7165 200.684
      vertex 187.502 19.6244 57.7656
      vertex 188.087 19.3267 57.8022
    endloop
  endfacet
  facet normal -0.15042 -0.98589 -0.0734503
    outer loop
      vertex 174.751 10.7165 200.684
      vertex 188.087 19.3267 57.8022
      vertex 188.733 19.2241 57.8564
    endloop
  endfacet
  facet normal -0.150217 -0.985922 -0.0734323
    outer loop
      vertex 174.751 10.7165 200.684
      vertex 188.733 19.2241 57.8564
      vertex 175.398 10.6139 200.738
    endloop
  endfacet
  facet normal -0.0943297 0.0622183 0.993595
    outer loop
      vertex 175.374 -14.8064 200.988
      vertex 176.021 -14.7038 201.043
      vertex 177.071 -13.9423 201.095
    endloop
  endfacet
  facet normal -0.0941994 0.061959 0.993623
    outer loop
      vertex 175.374 -14.8064 200.988
      vertex 177.071 -13.9423 201.095
      vertex 177.371 -13.3579 201.087
    endloop
  endfacet
  facet normal -0.0927263 0.0599099 0.993888
    outer loop
      vertex 175.374 -14.8064 200.988
      vertex 177.371 -13.3579 201.087
      vertex 177.085 -11.478 200.947
    endloop
  endfacet
  facet normal -0.16115 -0.985932 0.0443724
    outer loop
      vertex 175.374 -14.8064 200.988
      vertex 188.064 -23.314 58.0405
      vertex 188.71 -23.4166 58.1069
    endloop
  endfacet
  facet normal 0.150107 -0.98594 0.0734244
    outer loop
      vertex 175.374 -14.8064 200.988
      vertex 188.71 -23.4166 58.1069
      vertex 176.021 -14.7038 201.043
    endloop
  endfacet
  facet normal 0.150107 0.98594 0.0734244
    outer loop
      vertex 175.374 14.8064 200.988
      vertex 176.021 14.7038 201.043
      vertex 188.71 23.4166 58.1069
    endloop
  endfacet
  facet normal -0.0943297 -0.0622183 0.993595
    outer loop
      vertex 175.374 14.8064 200.988
      vertex 177.071 13.9423 201.095
      vertex 176.021 14.7038 201.043
    endloop
  endfacet
  facet normal -0.0927263 -0.0599099 0.993888
    outer loop
      vertex 175.374 14.8064 200.988
      vertex 177.085 11.478 200.947
      vertex 177.371 13.3579 201.087
    endloop
  endfacet
  facet normal -0.0941994 -0.061959 0.993623
    outer loop
      vertex 175.374 14.8064 200.988
      vertex 177.371 13.3579 201.087
      vertex 177.071 13.9423 201.095
    endloop
  endfacet
  facet normal -0.16115 0.985932 0.0443724
    outer loop
      vertex 175.374 14.8064 200.988
      vertex 188.71 23.4166 58.1069
      vertex 188.064 23.314 58.0405
    endloop
  endfacet
  facet normal 0.161365 0.985898 -0.0443512
    outer loop
      vertex 175.398 -10.6139 200.738
      vertex 176.043 -10.7165 200.804
      vertex 188.733 -19.2241 57.8564
    endloop
  endfacet
  facet normal 0.161365 -0.985898 -0.0443512
    outer loop
      vertex 175.398 10.6139 200.738
      vertex 188.733 19.2241 57.8564
      vertex 176.043 10.7165 200.804
    endloop
  endfacet
  facet normal -0.0893025 0.0552266 0.994472
    outer loop
      vertex 176.021 -14.7038 201.043
      vertex 176.606 -14.4061 201.079
      vertex 177.071 -13.9423 201.095
    endloop
  endfacet
  facet normal 0.150195 -0.985926 0.0734314
    outer loop
      vertex 176.021 -14.7038 201.043
      vertex 188.71 -23.4166 58.1069
      vertex 189.357 -23.314 58.1611
    endloop
  endfacet
  facet normal 0.446811 -0.889537 0.0953078
    outer loop
      vertex 176.021 -14.7038 201.043
      vertex 189.357 -23.314 58.1611
      vertex 176.606 -14.4061 201.079
    endloop
  endfacet
  facet normal 0.446811 0.889537 0.0953078
    outer loop
      vertex 176.021 14.7038 201.043
      vertex 176.606 14.4061 201.079
      vertex 189.357 23.314 58.1611
    endloop
  endfacet
  facet normal -0.0893025 -0.0552266 0.994472
    outer loop
      vertex 176.021 14.7038 201.043
      vertex 177.071 13.9423 201.095
      vertex 176.606 14.4061 201.079
    endloop
  endfacet
  facet normal 0.150195 0.985926 0.0734314
    outer loop
      vertex 176.021 14.7038 201.043
      vertex 189.357 23.314 58.1611
      vertex 188.71 23.4166 58.1069
    endloop
  endfacet
  facet normal 0.456566 0.889622 -0.0109982
    outer loop
      vertex 176.043 -10.7165 200.804
      vertex 176.625 -11.0143 200.876
      vertex 189.96 -19.6244 57.995
    endloop
  endfacet
  facet normal -0.0915677 0.0613463 0.993907
    outer loop
      vertex 176.043 -10.7165 200.804
      vertex 177.085 -11.478 200.947
      vertex 176.625 -11.0143 200.876
    endloop
  endfacet
  facet normal 0.161157 0.985931 -0.0443717
    outer loop
      vertex 176.043 -10.7165 200.804
      vertex 189.379 -19.3267 57.9229
      vertex 188.733 -19.2241 57.8564
    endloop
  endfacet
  facet normal 0.457062 0.889368 -0.0109339
    outer loop
      vertex 176.043 -10.7165 200.804
      vertex 189.96 -19.6244 57.995
      vertex 189.379 -19.3267 57.9229
    endloop
  endfacet
  facet normal -0.0915677 -0.0613463 0.993907
    outer loop
      vertex 176.043 10.7165 200.804
      vertex 176.625 11.0143 200.876
      vertex 177.085 11.478 200.947
    endloop
  endfacet
  facet normal 0.161157 -0.985931 -0.0443717
    outer loop
      vertex 176.043 10.7165 200.804
      vertex 188.733 19.2241 57.8564
      vertex 189.379 19.3267 57.9229
    endloop
  endfacet
  facet normal 0.457062 -0.889368 -0.0109339
    outer loop
      vertex 176.043 10.7165 200.804
      vertex 189.379 19.3267 57.9229
      vertex 189.96 19.6244 57.995
    endloop
  endfacet
  facet normal 0.456566 -0.889622 -0.0109982
    outer loop
      vertex 176.043 10.7165 200.804
      vertex 189.96 19.6244 57.995
      vertex 176.625 11.0143 200.876
    endloop
  endfacet
  facet normal 0.447459 -0.889207 0.0953451
    outer loop
      vertex 176.606 -14.4061 201.079
      vertex 189.357 -23.314 58.1611
      vertex 189.941 -23.0162 58.1977
    endloop
  endfacet
  facet normal 0.700208 -0.705741 0.107878
    outer loop
      vertex 176.606 -14.4061 201.079
      vertex 189.941 -23.0162 58.1977
      vertex 177.071 -13.9423 201.095
    endloop
  endfacet
  facet normal 0.700208 0.705741 0.107878
    outer loop
      vertex 176.606 14.4061 201.079
      vertex 177.071 13.9423 201.095
      vertex 189.941 23.0162 58.1977
    endloop
  endfacet
  facet normal 0.447459 0.889207 0.0953451
    outer loop
      vertex 176.606 14.4061 201.079
      vertex 189.941 23.0162 58.1977
      vertex 189.357 23.314 58.1611
    endloop
  endfacet
  facet normal 0.707933 0.705887 0.0235337
    outer loop
      vertex 176.625 -11.0143 200.876
      vertex 177.085 -11.478 200.947
      vertex 189.96 -19.6244 57.995
    endloop
  endfacet
  facet normal 0.707933 -0.705887 0.0235337
    outer loop
      vertex 176.625 11.0143 200.876
      vertex 189.96 19.6244 57.995
      vertex 177.085 11.478 200.947
    endloop
  endfacet
  facet normal 0.700202 -0.705748 0.107878
    outer loop
      vertex 177.071 -13.9423 201.095
      vertex 189.941 -23.0162 58.1977
      vertex 190.406 -22.5525 58.2131
    endloop
  endfacet
  facet normal 0.884168 -0.454063 0.109881
    outer loop
      vertex 177.071 -13.9423 201.095
      vertex 190.406 -22.5525 58.2131
      vertex 190.707 -21.9681 58.206
    endloop
  endfacet
  facet normal 0.884852 -0.452732 0.109871
    outer loop
      vertex 177.071 -13.9423 201.095
      vertex 190.707 -21.9681 58.206
      vertex 177.371 -13.3579 201.087
    endloop
  endfacet
  facet normal 0.884852 0.452732 0.109871
    outer loop
      vertex 177.071 13.9423 201.095
      vertex 177.371 13.3579 201.087
      vertex 190.707 21.9681 58.206
    endloop
  endfacet
  facet normal 0.700202 0.705748 0.107878
    outer loop
      vertex 177.071 13.9423 201.095
      vertex 190.406 22.5525 58.2131
      vertex 189.941 23.0162 58.1977
    endloop
  endfacet
  facet normal 0.884168 0.454063 0.109881
    outer loop
      vertex 177.071 13.9423 201.095
      vertex 190.707 21.9681 58.206
      vertex 190.406 22.5525 58.2131
    endloop
  endfacet
  facet normal -0.0948396 0.059575 0.993708
    outer loop
      vertex 177.085 -11.478 200.947
      vertex 177.371 -13.3579 201.087
      vertex 177.378 -12.0624 201.01
    endloop
  endfacet
  facet normal 0.89012 0.452296 0.0558184
    outer loop
      vertex 177.085 -11.478 200.947
      vertex 177.378 -12.0624 201.01
      vertex 190.42 -20.0882 58.0659
    endloop
  endfacet
  facet normal 0.708011 0.705809 0.0235452
    outer loop
      vertex 177.085 -11.478 200.947
      vertex 190.42 -20.0882 58.0659
      vertex 189.96 -19.6244 57.995
    endloop
  endfacet
  facet normal -0.0948396 -0.059575 0.993708
    outer loop
      vertex 177.085 11.478 200.947
      vertex 177.378 12.0624 201.01
      vertex 177.371 13.3579 201.087
    endloop
  endfacet
  facet normal 0.708011 -0.705809 0.0235452
    outer loop
      vertex 177.085 11.478 200.947
      vertex 189.96 19.6244 57.995
      vertex 190.42 20.0882 58.0659
    endloop
  endfacet
  facet normal 0.89012 -0.452296 0.0558184
    outer loop
      vertex 177.085 11.478 200.947
      vertex 190.42 20.0882 58.0659
      vertex 177.378 12.0624 201.01
    endloop
  endfacet
  facet normal -0.0920947 0.0595755 0.993966
    outer loop
      vertex 177.371 -13.3579 201.087
      vertex 177.477 -12.7102 201.058
      vertex 177.378 -12.0624 201.01
    endloop
  endfacet
  facet normal 0.982533 -0.156215 0.10112
    outer loop
      vertex 177.371 -13.3579 201.087
      vertex 190.707 -21.9681 58.206
      vertex 190.813 -21.3203 58.1768
    endloop
  endfacet
  facet normal 0.982525 -0.156268 0.101122
    outer loop
      vertex 177.371 -13.3579 201.087
      vertex 190.813 -21.3203 58.1768
      vertex 177.477 -12.7102 201.058
    endloop
  endfacet
  facet normal -0.0920947 -0.0595755 0.993966
    outer loop
      vertex 177.371 13.3579 201.087
      vertex 177.378 12.0624 201.01
      vertex 177.477 12.7102 201.058
    endloop
  endfacet
  facet normal 0.982525 0.156268 0.101122
    outer loop
      vertex 177.371 13.3579 201.087
      vertex 177.477 12.7102 201.058
      vertex 190.813 21.3203 58.1768
    endloop
  endfacet
  facet normal 0.982533 0.156215 0.10112
    outer loop
      vertex 177.371 13.3579 201.087
      vertex 190.813 21.3203 58.1768
      vertex 190.707 21.9681 58.206
    endloop
  endfacet
  facet normal 0.984228 0.156523 0.0824319
    outer loop
      vertex 177.378 -12.0624 201.01
      vertex 177.477 -12.7102 201.058
      vertex 190.714 -20.6726 58.1286
    endloop
  endfacet
  facet normal 0.889525 0.453478 0.0556977
    outer loop
      vertex 177.378 -12.0624 201.01
      vertex 190.714 -20.6726 58.1286
      vertex 190.42 -20.0882 58.0659
    endloop
  endfacet
  facet normal 0.889525 -0.453478 0.0556977
    outer loop
      vertex 177.378 12.0624 201.01
      vertex 190.42 20.0882 58.0659
      vertex 190.714 20.6726 58.1286
    endloop
  endfacet
  facet normal 0.984228 -0.156523 0.0824319
    outer loop
      vertex 177.378 12.0624 201.01
      vertex 190.714 20.6726 58.1286
      vertex 177.477 12.7102 201.058
    endloop
  endfacet
  facet normal 0.984221 0.156571 0.0824285
    outer loop
      vertex 177.477 -12.7102 201.058
      vertex 190.813 -21.3203 58.1768
      vertex 190.714 -20.6726 58.1286
    endloop
  endfacet
  facet normal 0.984221 -0.156571 0.0824285
    outer loop
      vertex 177.477 12.7102 201.058
      vertex 190.714 20.6726 58.1286
      vertex 190.813 21.3203 58.1768
    endloop
  endfacet
  facet normal 0.0930541 -0.0598812 -0.993859
    outer loop
      vertex 186.631 -21.3203 57.7865
      vertex 186.737 -20.6726 57.7574
      vertex 186.73 -21.9681 57.8348
    endloop
  endfacet
  facet normal 0.0930541 0.0598812 -0.993859
    outer loop
      vertex 186.631 21.3203 57.7865
      vertex 186.73 21.9681 57.8348
      vertex 186.737 20.6726 57.7574
    endloop
  endfacet
  facet normal 0.0928567 -0.0598812 -0.993877
    outer loop
      vertex 186.73 -21.9681 57.8348
      vertex 186.737 -20.6726 57.7574
      vertex 187.483 -23.0162 57.9683
    endloop
  endfacet
  facet normal 0.0927381 -0.0599672 -0.993883
    outer loop
      vertex 186.73 -21.9681 57.8348
      vertex 187.483 -23.0162 57.9683
      vertex 187.023 -22.5525 57.8974
    endloop
  endfacet
  facet normal 0.0927381 0.0599672 -0.993883
    outer loop
      vertex 186.73 21.9681 57.8348
      vertex 187.023 22.5525 57.8974
      vertex 187.483 23.0162 57.9683
    endloop
  endfacet
  facet normal 0.0928567 0.0598812 -0.993877
    outer loop
      vertex 186.73 21.9681 57.8348
      vertex 187.483 23.0162 57.9683
      vertex 186.737 20.6726 57.7574
    endloop
  endfacet
  facet normal 0.092753 -0.0598595 -0.993888
    outer loop
      vertex 186.737 -20.6726 57.7574
      vertex 187.037 -20.0882 57.7502
      vertex 189.379 -19.3267 57.9229
    endloop
  endfacet
  facet normal 0.0927629 -0.0598792 -0.993886
    outer loop
      vertex 186.737 -20.6726 57.7574
      vertex 189.379 -19.3267 57.9229
      vertex 190.406 -22.5525 58.2131
    endloop
  endfacet
  facet normal 0.0927428 -0.0599182 -0.993886
    outer loop
      vertex 186.737 -20.6726 57.7574
      vertex 190.406 -22.5525 58.2131
      vertex 187.483 -23.0162 57.9683
    endloop
  endfacet
  facet normal 0.0927428 0.0599182 -0.993886
    outer loop
      vertex 186.737 20.6726 57.7574
      vertex 187.483 23.0162 57.9683
      vertex 190.406 22.5525 58.2131
    endloop
  endfacet
  facet normal 0.092753 0.0598595 -0.993888
    outer loop
      vertex 186.737 20.6726 57.7574
      vertex 189.379 19.3267 57.9229
      vertex 187.037 20.0882 57.7502
    endloop
  endfacet
  facet normal 0.0927629 0.0598792 -0.993886
    outer loop
      vertex 186.737 20.6726 57.7574
      vertex 190.406 22.5525 58.2131
      vertex 189.379 19.3267 57.9229
    endloop
  endfacet
  facet normal 0.0926676 -0.0599062 -0.993893
    outer loop
      vertex 187.037 -20.0882 57.7502
      vertex 187.502 -19.6244 57.7656
      vertex 188.087 -19.3267 57.8022
    endloop
  endfacet
  facet normal 0.0928476 -0.0601565 -0.993861
    outer loop
      vertex 187.037 -20.0882 57.7502
      vertex 188.087 -19.3267 57.8022
      vertex 189.379 -19.3267 57.9229
    endloop
  endfacet
  facet normal 0.0926676 0.0599062 -0.993893
    outer loop
      vertex 187.037 20.0882 57.7502
      vertex 188.087 19.3267 57.8022
      vertex 187.502 19.6244 57.7656
    endloop
  endfacet
  facet normal 0.0928476 0.0601565 -0.993861
    outer loop
      vertex 187.037 20.0882 57.7502
      vertex 189.379 19.3267 57.9229
      vertex 188.087 19.3267 57.8022
    endloop
  endfacet
  facet normal 0.0925708 -0.0603564 -0.993875
    outer loop
      vertex 187.483 -23.0162 57.9683
      vertex 188.71 -23.4166 58.1069
      vertex 188.064 -23.314 58.0405
    endloop
  endfacet
  facet normal 0.0927341 -0.0598611 -0.99389
    outer loop
      vertex 187.483 -23.0162 57.9683
      vertex 190.406 -22.5525 58.2131
      vertex 188.71 -23.4166 58.1069
    endloop
  endfacet
  facet normal 0.0925708 0.0603564 -0.993875
    outer loop
      vertex 187.483 23.0162 57.9683
      vertex 188.064 23.314 58.0405
      vertex 188.71 23.4166 58.1069
    endloop
  endfacet
  facet normal 0.0927341 0.0598611 -0.99389
    outer loop
      vertex 187.483 23.0162 57.9683
      vertex 188.71 23.4166 58.1069
      vertex 190.406 22.5525 58.2131
    endloop
  endfacet
  facet normal 0.0928508 -0.0595756 -0.993896
    outer loop
      vertex 188.087 -19.3267 57.8022
      vertex 188.733 -19.2241 57.8564
      vertex 189.379 -19.3267 57.9229
    endloop
  endfacet
  facet normal 0.0928508 0.0595756 -0.993896
    outer loop
      vertex 188.087 19.3267 57.8022
      vertex 189.379 19.3267 57.9229
      vertex 188.733 19.2241 57.8564
    endloop
  endfacet
  facet normal 0.0927254 -0.0596873 -0.993901
    outer loop
      vertex 188.71 -23.4166 58.1069
      vertex 189.941 -23.0162 58.1977
      vertex 189.357 -23.314 58.1611
    endloop
  endfacet
  facet normal 0.0928616 -0.0601146 -0.993863
    outer loop
      vertex 188.71 -23.4166 58.1069
      vertex 190.406 -22.5525 58.2131
      vertex 189.941 -23.0162 58.1977
    endloop
  endfacet
  facet normal 0.0927254 0.0596873 -0.993901
    outer loop
      vertex 188.71 23.4166 58.1069
      vertex 189.357 23.314 58.1611
      vertex 189.941 23.0162 58.1977
    endloop
  endfacet
  facet normal 0.0928616 0.0601146 -0.993863
    outer loop
      vertex 188.71 23.4166 58.1069
      vertex 189.941 23.0162 58.1977
      vertex 190.406 22.5525 58.2131
    endloop
  endfacet
  facet normal 0.0924931 -0.0601986 -0.993892
    outer loop
      vertex 189.379 -19.3267 57.9229
      vertex 189.96 -19.6244 57.995
      vertex 190.42 -20.0882 58.0659
    endloop
  endfacet
  facet normal 0.0926982 -0.0599179 -0.99389
    outer loop
      vertex 189.379 -19.3267 57.9229
      vertex 190.42 -20.0882 58.0659
      vertex 190.707 -21.9681 58.206
    endloop
  endfacet
  facet normal 0.0927938 -0.0598691 -0.993884
    outer loop
      vertex 189.379 -19.3267 57.9229
      vertex 190.707 -21.9681 58.206
      vertex 190.406 -22.5525 58.2131
    endloop
  endfacet
  facet normal 0.0927938 0.0598691 -0.993884
    outer loop
      vertex 189.379 19.3267 57.9229
      vertex 190.406 22.5525 58.2131
      vertex 190.707 21.9681 58.206
    endloop
  endfacet
  facet normal 0.0924931 0.0601986 -0.993892
    outer loop
      vertex 189.379 19.3267 57.9229
      vertex 190.42 20.0882 58.0659
      vertex 189.96 19.6244 57.995
    endloop
  endfacet
  facet normal 0.0926982 0.0599179 -0.99389
    outer loop
      vertex 189.379 19.3267 57.9229
      vertex 190.707 21.9681 58.206
      vertex 190.42 20.0882 58.0659
    endloop
  endfacet
  facet normal 0.0932815 -0.0597014 -0.993848
    outer loop
      vertex 190.42 -20.0882 58.0659
      vertex 190.714 -20.6726 58.1286
      vertex 190.813 -21.3203 58.1768
    endloop
  endfacet
  facet normal 0.0925393 -0.0599431 -0.993903
    outer loop
      vertex 190.42 -20.0882 58.0659
      vertex 190.813 -21.3203 58.1768
      vertex 190.707 -21.9681 58.206
    endloop
  endfacet
  facet normal 0.0925393 0.0599431 -0.993903
    outer loop
      vertex 190.42 20.0882 58.0659
      vertex 190.707 21.9681 58.206
      vertex 190.813 21.3203 58.1768
    endloop
  endfacet
  facet normal 0.0932815 0.0597014 -0.993848
    outer loop
      vertex 190.42 20.0882 58.0659
      vertex 190.813 21.3203 58.1768
      vertex 190.714 20.6726 58.1286
    endloop
  endfacet
endsolid model
