solid model
  facet normal -0 0 -1
    outer loop
      vertex -0.515594 -6.99767 0
      vertex -0.515594 6.99767 0
      vertex 1.81966 -6.95038 0
    endloop
  endfacet
  facet normal 0.0202463 -0.999795 0
    outer loop
      vertex -0.515594 -6.99767 0
      vertex 1.81966 -6.95038 0
      vertex -0.515594 -6.99767 140
    endloop
  endfacet
  facet normal 0.0202463 -0.999795 0
    outer loop
      vertex -0.515594 -6.99767 140
      vertex 1.81966 -6.95038 0
      vertex 1.81966 -6.95038 140
    endloop
  endfacet
  facet normal 0 0 1
    outer loop
      vertex -0.515594 -6.99767 140
      vertex 1.81966 -6.95038 140
      vertex -0.515594 6.99767 140
    endloop
  endfacet
  facet normal 0.0202463 0.999795 -0
    outer loop
      vertex -0.515594 6.99767 0
      vertex -0.515594 6.99767 140
      vertex 1.81966 6.95038 140
    endloop
  endfacet
  facet normal 0 0 -1
    outer loop
      vertex -0.515594 6.99767 0
      vertex 1.81966 6.95038 0
      vertex 1.81966 -6.95038 0
    endloop
  endfacet
  facet normal 0.0202463 0.999795 0
    outer loop
      vertex -0.515594 6.99767 0
      vertex 1.81966 6.95038 140
      vertex 1.81966 6.95038 0
    endloop
  endfacet
  facet normal 0 0 1
    outer loop
      vertex -0.515594 6.99767 140
      vertex 1.81966 -6.95038 140
      vertex 1.81966 6.95038 140
    endloop
  endfacet
  facet normal 0 0 -1
    outer loop
      vertex -10.5955 -3.55516 0
      vertex -10.5955 3.55516 0
      vertex -9.52614 -4.53349 0
    endloop
  endfacet
  facet normal -0.675006 -0.737813 0
    outer loop
      vertex -10.5955 -3.55516 0
      vertex -9.52614 -4.53349 0
      vertex -10.5955 -3.55516 140
    endloop
  endfacet
  facet normal -0.675006 -0.737813 0
    outer loop
      vertex -10.5955 -3.55516 140
      vertex -9.52614 -4.53349 0
      vertex -9.52614 -4.53349 140
    endloop
  endfacet
  facet normal 0 0 1
    outer loop
      vertex -10.5955 -3.55516 140
      vertex -9.52614 -4.53349 140
      vertex -10.5955 3.55516 140
    endloop
  endfacet
  facet normal -0.675006 0.737813 0
    outer loop
      vertex -10.5955 3.55516 0
      vertex -10.5955 3.55516 140
      vertex -9.52614 4.53349 140
    endloop
  endfacet
  facet normal 0 0 -1
    outer loop
      vertex -10.5955 3.55516 0
      vertex -9.52614 4.53349 0
      vertex -9.52614 -4.53349 0
    endloop
  endfacet
  facet normal -0.675006 0.737813 0
    outer loop
      vertex -10.5955 3.55516 0
      vertex -9.52614 4.53349 140
      vertex -9.52614 4.53349 0
    endloop
  endfacet
  facet normal 0 -0 1
    outer loop
      vertex -10.5955 3.55516 140
      vertex -9.52614 -4.53349 140
      vertex -9.52614 4.53349 140
    endloop
  endfacet
  facet normal -0.8158 -0.578334 0
    outer loop
      vertex -11.3717 -2.46025 0
      vertex -10.5955 -3.55516 0
      vertex -11.3717 -2.46025 140
    endloop
  endfacet
  facet normal 0 0 -1
    outer loop
      vertex -11.3717 -2.46025 0
      vertex -11.3717 2.46025 0
      vertex -10.5955 -3.55516 0
    endloop
  endfacet
  facet normal -0.8158 -0.578334 0
    outer loop
      vertex -11.3717 -2.46025 140
      vertex -10.5955 -3.55516 0
      vertex -10.5955 -3.55516 140
    endloop
  endfacet
  facet normal -0 0 1
    outer loop
      vertex -11.3717 -2.46025 140
      vertex -10.5955 -3.55516 140
      vertex -11.3717 2.46025 140
    endloop
  endfacet
  facet normal 0 0 -1
    outer loop
      vertex -11.3717 2.46025 0
      vertex -10.5955 3.55516 0
      vertex -10.5955 -3.55516 0
    endloop
  endfacet
  facet normal -0.8158 0.578334 0
    outer loop
      vertex -11.3717 2.46025 0
      vertex -10.5955 3.55516 140
      vertex -10.5955 3.55516 0
    endloop
  endfacet
  facet normal -0.8158 0.578334 0
    outer loop
      vertex -11.3717 2.46025 0
      vertex -11.3717 2.46025 140
      vertex -10.5955 3.55516 140
    endloop
  endfacet
  facet normal 0 -0 1
    outer loop
      vertex -11.3717 2.46025 140
      vertex -10.5955 -3.55516 140
      vertex -10.5955 3.55516 140
    endloop
  endfacet
  facet normal -0.929971 -0.367632 0
    outer loop
      vertex -11.8423 -1.26981 0
      vertex -11.3717 -2.46025 0
      vertex -11.8423 -1.26981 140
    endloop
  endfacet
  facet normal -0.929971 -0.367632 0
    outer loop
      vertex -11.8423 -1.26981 140
      vertex -11.3717 -2.46025 0
      vertex -11.3717 -2.46025 140
    endloop
  endfacet
  facet normal -0.929971 0.367632 0
    outer loop
      vertex -11.8423 1.26981 0
      vertex -11.3717 2.46025 140
      vertex -11.3717 2.46025 0
    endloop
  endfacet
  facet normal -0.929971 0.367632 0
    outer loop
      vertex -11.8423 1.26981 0
      vertex -11.8423 1.26981 140
      vertex -11.3717 2.46025 140
    endloop
  endfacet
  facet normal 0 0 -1
    outer loop
      vertex -12 0 0
      vertex -11.3717 -2.46025 0
      vertex -11.8423 -1.26981 0
    endloop
  endfacet
  facet normal 0 -0 -1
    outer loop
      vertex -12 0 0
      vertex -11.3717 2.46025 0
      vertex -11.3717 -2.46025 0
    endloop
  endfacet
  facet normal -0.992376 -0.123245 0
    outer loop
      vertex -12 0 0
      vertex -11.8423 -1.26981 0
      vertex -12 0 140
    endloop
  endfacet
  facet normal 0 -0 -1
    outer loop
      vertex -12 0 0
      vertex -11.8423 1.26981 0
      vertex -11.3717 2.46025 0
    endloop
  endfacet
  facet normal -0.992376 0.123245 0
    outer loop
      vertex -12 0 0
      vertex -11.8423 1.26981 140
      vertex -11.8423 1.26981 0
    endloop
  endfacet
  facet normal -0.992376 0.123245 0
    outer loop
      vertex -12 0 0
      vertex -12 0 140
      vertex -11.8423 1.26981 140
    endloop
  endfacet
  facet normal -0 0 1
    outer loop
      vertex -12 0 140
      vertex -11.3717 -2.46025 140
      vertex -11.3717 2.46025 140
    endloop
  endfacet
  facet normal 0 0 1
    outer loop
      vertex -12 0 140
      vertex -11.3717 2.46025 140
      vertex -11.8423 1.26981 140
    endloop
  endfacet
  facet normal -0.992376 -0.123245 0
    outer loop
      vertex -12 0 140
      vertex -11.8423 -1.26981 0
      vertex -11.8423 -1.26981 140
    endloop
  endfacet
  facet normal -0 -0 1
    outer loop
      vertex -12 0 140
      vertex -11.8423 -1.26981 140
      vertex -11.3717 -2.46025 140
    endloop
  endfacet
  facet normal -0.0589311 -0.998262 0
    outer loop
      vertex -2.71654 -6.86774 0
      vertex -0.515594 -6.99767 0
      vertex -2.71654 -6.86774 140
    endloop
  endfacet
  facet normal 0 0 -1
    outer loop
      vertex -2.71654 -6.86774 0
      vertex -2.71654 6.86774 0
      vertex -0.515594 -6.99767 0
    endloop
  endfacet
  facet normal -0.0589311 -0.998262 0
    outer loop
      vertex -2.71654 -6.86774 140
      vertex -0.515594 -6.99767 0
      vertex -0.515594 -6.99767 140
    endloop
  endfacet
  facet normal -0 0 1
    outer loop
      vertex -2.71654 -6.86774 140
      vertex -0.515594 -6.99767 140
      vertex -2.71654 6.86774 140
    endloop
  endfacet
  facet normal 0 -0 -1
    outer loop
      vertex -2.71654 6.86774 0
      vertex -0.515594 6.99767 0
      vertex -0.515594 -6.99767 0
    endloop
  endfacet
  facet normal -0.0589311 0.998262 0
    outer loop
      vertex -2.71654 6.86774 0
      vertex -0.515594 6.99767 140
      vertex -0.515594 6.99767 0
    endloop
  endfacet
  facet normal -0.0589311 0.998262 0
    outer loop
      vertex -2.71654 6.86774 0
      vertex -2.71654 6.86774 140
      vertex -0.515594 6.99767 140
    endloop
  endfacet
  facet normal -0 0 1
    outer loop
      vertex -2.71654 6.86774 140
      vertex -0.515594 -6.99767 140
      vertex -0.515594 6.99767 140
    endloop
  endfacet
  facet normal -0.153536 -0.988143 0
    outer loop
      vertex -4.74849 -6.55202 0
      vertex -2.71654 -6.86774 0
      vertex -4.74849 -6.55202 140
    endloop
  endfacet
  facet normal 0 0 -1
    outer loop
      vertex -4.74849 -6.55202 0
      vertex -4.74849 6.55202 0
      vertex -2.71654 -6.86774 0
    endloop
  endfacet
  facet normal -0.153536 -0.988143 0
    outer loop
      vertex -4.74849 -6.55202 140
      vertex -2.71654 -6.86774 0
      vertex -2.71654 -6.86774 140
    endloop
  endfacet
  facet normal 0 0 1
    outer loop
      vertex -4.74849 -6.55202 140
      vertex -2.71654 -6.86774 140
      vertex -4.74849 6.55202 140
    endloop
  endfacet
  facet normal 0 -0 -1
    outer loop
      vertex -4.74849 6.55202 0
      vertex -2.71654 6.86774 0
      vertex -2.71654 -6.86774 0
    endloop
  endfacet
  facet normal -0.153536 0.988143 0
    outer loop
      vertex -4.74849 6.55202 0
      vertex -2.71654 6.86774 140
      vertex -2.71654 6.86774 0
    endloop
  endfacet
  facet normal -0.153536 0.988143 0
    outer loop
      vertex -4.74849 6.55202 0
      vertex -4.74849 6.55202 140
      vertex -2.71654 6.86774 140
    endloop
  endfacet
  facet normal -0 0 1
    outer loop
      vertex -4.74849 6.55202 140
      vertex -2.71654 -6.86774 140
      vertex -2.71654 6.86774 140
    endloop
  endfacet
  facet normal -0.264135 -0.964486 0
    outer loop
      vertex -6.57938 -6.05061 0
      vertex -4.74849 -6.55202 0
      vertex -6.57938 -6.05061 140
    endloop
  endfacet
  facet normal 0 0 -1
    outer loop
      vertex -6.57938 -6.05061 0
      vertex -6.57938 6.05061 0
      vertex -4.74849 -6.55202 0
    endloop
  endfacet
  facet normal -0.264135 -0.964486 0
    outer loop
      vertex -6.57938 -6.05061 140
      vertex -4.74849 -6.55202 0
      vertex -4.74849 -6.55202 140
    endloop
  endfacet
  facet normal 0 0 1
    outer loop
      vertex -6.57938 -6.05061 140
      vertex -4.74849 -6.55202 140
      vertex -6.57938 6.05061 140
    endloop
  endfacet
  facet normal 0 0 -1
    outer loop
      vertex -6.57938 6.05061 0
      vertex -4.74849 6.55202 0
      vertex -4.74849 -6.55202 0
    endloop
  endfacet
  facet normal -0.264135 0.964486 0
    outer loop
      vertex -6.57938 6.05061 0
      vertex -4.74849 6.55202 140
      vertex -4.74849 6.55202 0
    endloop
  endfacet
  facet normal -0.264135 0.964486 0
    outer loop
      vertex -6.57938 6.05061 0
      vertex -6.57938 6.05061 140
      vertex -4.74849 6.55202 140
    endloop
  endfacet
  facet normal 0 0 1
    outer loop
      vertex -6.57938 6.05061 140
      vertex -4.74849 -6.55202 140
      vertex -4.74849 6.55202 140
    endloop
  endfacet
  facet normal -0.390079 -0.920781 0
    outer loop
      vertex -8.18034 -5.37238 0
      vertex -6.57938 -6.05061 0
      vertex -8.18034 -5.37238 140
    endloop
  endfacet
  facet normal 0 0 -1
    outer loop
      vertex -8.18034 -5.37238 0
      vertex -8.18034 5.37238 0
      vertex -6.57938 -6.05061 0
    endloop
  endfacet
  facet normal -0.390079 -0.920781 0
    outer loop
      vertex -8.18034 -5.37238 140
      vertex -6.57938 -6.05061 0
      vertex -6.57938 -6.05061 140
    endloop
  endfacet
  facet normal 0 0 1
    outer loop
      vertex -8.18034 -5.37238 140
      vertex -6.57938 -6.05061 140
      vertex -8.18034 5.37238 140
    endloop
  endfacet
  facet normal 0 0 -1
    outer loop
      vertex -8.18034 5.37238 0
      vertex -6.57938 6.05061 0
      vertex -6.57938 -6.05061 0
    endloop
  endfacet
  facet normal -0.390079 0.920781 0
    outer loop
      vertex -8.18034 5.37238 0
      vertex -6.57938 6.05061 140
      vertex -6.57938 6.05061 0
    endloop
  endfacet
  facet normal -0.390079 0.920781 0
    outer loop
      vertex -8.18034 5.37238 0
      vertex -8.18034 5.37238 140
      vertex -6.57938 6.05061 140
    endloop
  endfacet
  facet normal 0 0 1
    outer loop
      vertex -8.18034 5.37238 140
      vertex -6.57938 -6.05061 140
      vertex -6.57938 6.05061 140
    endloop
  endfacet
  facet normal -0.528985 -0.848631 0
    outer loop
      vertex -9.52614 -4.53349 0
      vertex -8.18034 -5.37238 0
      vertex -9.52614 -4.53349 140
    endloop
  endfacet
  facet normal 0 0 -1
    outer loop
      vertex -9.52614 -4.53349 0
      vertex -9.52614 4.53349 0
      vertex -8.18034 -5.37238 0
    endloop
  endfacet
  facet normal -0.528985 -0.848631 0
    outer loop
      vertex -9.52614 -4.53349 140
      vertex -8.18034 -5.37238 0
      vertex -8.18034 -5.37238 140
    endloop
  endfacet
  facet normal 0 0 1
    outer loop
      vertex -9.52614 -4.53349 140
      vertex -8.18034 -5.37238 140
      vertex -9.52614 4.53349 140
    endloop
  endfacet
  facet normal 0 0 -1
    outer loop
      vertex -9.52614 4.53349 0
      vertex -8.18034 5.37238 0
      vertex -8.18034 -5.37238 0
    endloop
  endfacet
  facet normal -0.528985 0.848631 0
    outer loop
      vertex -9.52614 4.53349 0
      vertex -8.18034 5.37238 140
      vertex -8.18034 5.37238 0
    endloop
  endfacet
  facet normal -0.528985 0.848631 0
    outer loop
      vertex -9.52614 4.53349 0
      vertex -9.52614 4.53349 140
      vertex -8.18034 5.37238 140
    endloop
  endfacet
  facet normal 0 0 1
    outer loop
      vertex -9.52614 4.53349 140
      vertex -8.18034 -5.37238 140
      vertex -8.18034 5.37238 140
    endloop
  endfacet
  facet normal 0 0 -1
    outer loop
      vertex 1.81966 -6.95038 0
      vertex 1.81966 6.95038 0
      vertex 4.25237 -6.74205 0
    endloop
  endfacet
  facet normal 0.0853247 -0.996353 0
    outer loop
      vertex 1.81966 -6.95038 0
      vertex 4.25237 -6.74205 0
      vertex 1.81966 -6.95038 140
    endloop
  endfacet
  facet normal 0.0853247 -0.996353 0
    outer loop
      vertex 1.81966 -6.95038 140
      vertex 4.25237 -6.74205 0
      vertex 4.25237 -6.74205 140
    endloop
  endfacet
  facet normal 0 0 1
    outer loop
      vertex 1.81966 -6.95038 140
      vertex 4.25237 -6.74205 140
      vertex 1.81966 6.95038 140
    endloop
  endfacet
  facet normal 0.0853247 0.996353 -0
    outer loop
      vertex 1.81966 6.95038 0
      vertex 1.81966 6.95038 140
      vertex 4.25237 6.74205 140
    endloop
  endfacet
  facet normal 0 0 -1
    outer loop
      vertex 1.81966 6.95038 0
      vertex 4.25237 6.74205 0
      vertex 4.25237 -6.74205 0
    endloop
  endfacet
  facet normal 0.0853247 0.996353 0
    outer loop
      vertex 1.81966 6.95038 0
      vertex 4.25237 6.74205 140
      vertex 4.25237 6.74205 0
    endloop
  endfacet
  facet normal 0 -0 1
    outer loop
      vertex 1.81966 6.95038 140
      vertex 4.25237 -6.74205 140
      vertex 4.25237 6.74205 140
    endloop
  endfacet
  facet normal 0 0 -1
    outer loop
      vertex 11.7476 -5.384 0
      vertex 11.7476 5.384 0
      vertex 14.1803 -4.7737 0
    endloop
  endfacet
  facet normal 0.243333 -0.969943 0
    outer loop
      vertex 11.7476 -5.384 0
      vertex 14.1803 -4.7737 0
      vertex 11.7476 -5.384 140
    endloop
  endfacet
  facet normal 0.243333 -0.969943 0
    outer loop
      vertex 11.7476 -5.384 140
      vertex 14.1803 -4.7737 0
      vertex 14.1803 -4.7737 140
    endloop
  endfacet
  facet normal 0 0 1
    outer loop
      vertex 11.7476 -5.384 140
      vertex 14.1803 -4.7737 140
      vertex 11.7476 5.384 140
    endloop
  endfacet
  facet normal 0.243333 0.969943 -0
    outer loop
      vertex 11.7476 5.384 0
      vertex 11.7476 5.384 140
      vertex 14.1803 4.7737 140
    endloop
  endfacet
  facet normal 0 0 -1
    outer loop
      vertex 11.7476 5.384 0
      vertex 14.1803 4.7737 0
      vertex 14.1803 -4.7737 0
    endloop
  endfacet
  facet normal 0.243333 0.969943 0
    outer loop
      vertex 11.7476 5.384 0
      vertex 14.1803 4.7737 140
      vertex 14.1803 4.7737 0
    endloop
  endfacet
  facet normal 0 -0 1
    outer loop
      vertex 11.7476 5.384 140
      vertex 14.1803 -4.7737 140
      vertex 14.1803 4.7737 140
    endloop
  endfacet
  facet normal 0 0 -1
    outer loop
      vertex 14.1803 -4.7737 0
      vertex 14.1803 4.7737 0
      vertex 16.5156 -4.12691 0
    endloop
  endfacet
  facet normal 0.266914 -0.96372 0
    outer loop
      vertex 14.1803 -4.7737 0
      vertex 16.5156 -4.12691 0
      vertex 14.1803 -4.7737 140
    endloop
  endfacet
  facet normal 0.266914 -0.96372 0
    outer loop
      vertex 14.1803 -4.7737 140
      vertex 16.5156 -4.12691 0
      vertex 16.5156 -4.12691 140
    endloop
  endfacet
  facet normal 0 0 1
    outer loop
      vertex 14.1803 -4.7737 140
      vertex 16.5156 -4.12691 140
      vertex 14.1803 4.7737 140
    endloop
  endfacet
  facet normal 0.266914 0.96372 -0
    outer loop
      vertex 14.1803 4.7737 0
      vertex 14.1803 4.7737 140
      vertex 16.5156 4.12691 140
    endloop
  endfacet
  facet normal -0 -0 -1
    outer loop
      vertex 14.1803 4.7737 0
      vertex 16.5156 4.12691 0
      vertex 16.5156 -4.12691 0
    endloop
  endfacet
  facet normal 0.266914 0.96372 0
    outer loop
      vertex 14.1803 4.7737 0
      vertex 16.5156 4.12691 140
      vertex 16.5156 4.12691 0
    endloop
  endfacet
  facet normal 0 0 1
    outer loop
      vertex 14.1803 4.7737 140
      vertex 16.5156 -4.12691 140
      vertex 16.5156 4.12691 140
    endloop
  endfacet
  facet normal 0 0 -1
    outer loop
      vertex 16.5156 -4.12691 0
      vertex 16.5156 4.12691 0
      vertex 18.7165 -3.46695 0
    endloop
  endfacet
  facet normal 0.287224 -0.957863 0
    outer loop
      vertex 16.5156 -4.12691 0
      vertex 18.7165 -3.46695 0
      vertex 16.5156 -4.12691 140
    endloop
  endfacet
  facet normal 0.287224 -0.957863 0
    outer loop
      vertex 16.5156 -4.12691 140
      vertex 18.7165 -3.46695 0
      vertex 18.7165 -3.46695 140
    endloop
  endfacet
  facet normal 0 0 1
    outer loop
      vertex 16.5156 -4.12691 140
      vertex 18.7165 -3.46695 140
      vertex 16.5156 4.12691 140
    endloop
  endfacet
  facet normal 0.287224 0.957863 -0
    outer loop
      vertex 16.5156 4.12691 0
      vertex 16.5156 4.12691 140
      vertex 18.7165 3.46695 140
    endloop
  endfacet
  facet normal -0 -0 -1
    outer loop
      vertex 16.5156 4.12691 0
      vertex 18.7165 3.46695 0
      vertex 18.7165 -3.46695 0
    endloop
  endfacet
  facet normal 0.287224 0.957863 0
    outer loop
      vertex 16.5156 4.12691 0
      vertex 18.7165 3.46695 140
      vertex 18.7165 3.46695 0
    endloop
  endfacet
  facet normal 0 0 1
    outer loop
      vertex 16.5156 4.12691 140
      vertex 18.7165 -3.46695 140
      vertex 18.7165 3.46695 140
    endloop
  endfacet
  facet normal 0 0 -1
    outer loop
      vertex 18.7165 -3.46695 0
      vertex 18.7165 3.46695 0
      vertex 20.7485 -2.81577 0
    endloop
  endfacet
  facet normal 0.305175 -0.952296 0
    outer loop
      vertex 18.7165 -3.46695 0
      vertex 20.7485 -2.81577 0
      vertex 18.7165 -3.46695 140
    endloop
  endfacet
  facet normal 0.305175 -0.952296 0
    outer loop
      vertex 18.7165 -3.46695 140
      vertex 20.7485 -2.81577 0
      vertex 20.7485 -2.81577 140
    endloop
  endfacet
  facet normal 0 0 1
    outer loop
      vertex 18.7165 -3.46695 140
      vertex 20.7485 -2.81577 140
      vertex 18.7165 3.46695 140
    endloop
  endfacet
  facet normal 0.305175 0.952296 -0
    outer loop
      vertex 18.7165 3.46695 0
      vertex 18.7165 3.46695 140
      vertex 20.7485 2.81577 140
    endloop
  endfacet
  facet normal -0 -0 -1
    outer loop
      vertex 18.7165 3.46695 0
      vertex 20.7485 2.81577 0
      vertex 20.7485 -2.81577 0
    endloop
  endfacet
  facet normal 0.305175 0.952296 0
    outer loop
      vertex 18.7165 3.46695 0
      vertex 20.7485 2.81577 140
      vertex 20.7485 2.81577 0
    endloop
  endfacet
  facet normal 0 0 1
    outer loop
      vertex 18.7165 3.46695 140
      vertex 20.7485 -2.81577 140
      vertex 20.7485 2.81577 140
    endloop
  endfacet
  facet normal 0 0 -1
    outer loop
      vertex 20.7485 -2.81577 0
      vertex 20.7485 2.81577 0
      vertex 22.5794 -2.19443 0
    endloop
  endfacet
  facet normal 0.321362 -0.946956 0
    outer loop
      vertex 20.7485 -2.81577 0
      vertex 22.5794 -2.19443 0
      vertex 20.7485 -2.81577 140
    endloop
  endfacet
  facet normal 0.321362 -0.946956 0
    outer loop
      vertex 20.7485 -2.81577 140
      vertex 22.5794 -2.19443 0
      vertex 22.5794 -2.19443 140
    endloop
  endfacet
  facet normal 0 0 1
    outer loop
      vertex 20.7485 -2.81577 140
      vertex 22.5794 -2.19443 140
      vertex 20.7485 2.81577 140
    endloop
  endfacet
  facet normal 0.321362 0.946956 -0
    outer loop
      vertex 20.7485 2.81577 0
      vertex 20.7485 2.81577 140
      vertex 22.5794 2.19443 140
    endloop
  endfacet
  facet normal 0 0 -1
    outer loop
      vertex 20.7485 2.81577 0
      vertex 22.5794 2.19443 0
      vertex 22.5794 -2.19443 0
    endloop
  endfacet
  facet normal 0.321362 0.946956 0
    outer loop
      vertex 20.7485 2.81577 0
      vertex 22.5794 2.19443 140
      vertex 22.5794 2.19443 0
    endloop
  endfacet
  facet normal 0 -0 1
    outer loop
      vertex 20.7485 2.81577 140
      vertex 22.5794 -2.19443 140
      vertex 22.5794 2.19443 140
    endloop
  endfacet
  facet normal 0 0 -1
    outer loop
      vertex 22.5794 -2.19443 0
      vertex 22.5794 2.19443 0
      vertex 24.1803 -1.62334 0
    endloop
  endfacet
  facet normal 0.335992 -0.941865 0
    outer loop
      vertex 22.5794 -2.19443 0
      vertex 24.1803 -1.62334 0
      vertex 22.5794 -2.19443 140
    endloop
  endfacet
  facet normal 0.335992 -0.941865 0
    outer loop
      vertex 22.5794 -2.19443 140
      vertex 24.1803 -1.62334 0
      vertex 24.1803 -1.62334 140
    endloop
  endfacet
  facet normal 0 0 1
    outer loop
      vertex 22.5794 -2.19443 140
      vertex 24.1803 -1.62334 140
      vertex 22.5794 2.19443 140
    endloop
  endfacet
  facet normal 0.335992 0.941865 -0
    outer loop
      vertex 22.5794 2.19443 0
      vertex 22.5794 2.19443 140
      vertex 24.1803 1.62334 140
    endloop
  endfacet
  facet normal 0 0 -1
    outer loop
      vertex 22.5794 2.19443 0
      vertex 24.1803 1.62334 0
      vertex 24.1803 -1.62334 0
    endloop
  endfacet
  facet normal 0.335992 0.941865 0
    outer loop
      vertex 22.5794 2.19443 0
      vertex 24.1803 1.62334 140
      vertex 24.1803 1.62334 0
    endloop
  endfacet
  facet normal 0 -0 1
    outer loop
      vertex 22.5794 2.19443 140
      vertex 24.1803 -1.62334 140
      vertex 24.1803 1.62334 140
    endloop
  endfacet
  facet normal 0 0 -1
    outer loop
      vertex 24.1803 -1.62334 0
      vertex 24.1803 1.62334 0
      vertex 25.5261 -1.12221 0
    endloop
  endfacet
  facet normal 0.348958 -0.937138 0
    outer loop
      vertex 24.1803 -1.62334 0
      vertex 25.5261 -1.12221 0
      vertex 24.1803 -1.62334 140
    endloop
  endfacet
  facet normal 0.348958 -0.937138 0
    outer loop
      vertex 24.1803 -1.62334 140
      vertex 25.5261 -1.12221 0
      vertex 25.5261 -1.12221 140
    endloop
  endfacet
  facet normal 0 0 1
    outer loop
      vertex 24.1803 -1.62334 140
      vertex 25.5261 -1.12221 140
      vertex 24.1803 1.62334 140
    endloop
  endfacet
  facet normal 0.348958 0.937138 -0
    outer loop
      vertex 24.1803 1.62334 0
      vertex 24.1803 1.62334 140
      vertex 25.5261 1.12221 140
    endloop
  endfacet
  facet normal 0 0 -1
    outer loop
      vertex 24.1803 1.62334 0
      vertex 25.5261 1.12221 0
      vertex 25.5261 -1.12221 0
    endloop
  endfacet
  facet normal 0.348958 0.937138 0
    outer loop
      vertex 24.1803 1.62334 0
      vertex 25.5261 1.12221 140
      vertex 25.5261 1.12221 0
    endloop
  endfacet
  facet normal 0 -0 1
    outer loop
      vertex 24.1803 1.62334 140
      vertex 25.5261 -1.12221 140
      vertex 25.5261 1.12221 140
    endloop
  endfacet
  facet normal 0 0 -1
    outer loop
      vertex 25.5261 -1.12221 0
      vertex 25.5261 1.12221 0
      vertex 26.5955 -0.709564 0
    endloop
  endfacet
  facet normal 0.359996 -0.932954 0
    outer loop
      vertex 25.5261 -1.12221 0
      vertex 26.5955 -0.709564 0
      vertex 25.5261 -1.12221 140
    endloop
  endfacet
  facet normal 0.359996 -0.932954 0
    outer loop
      vertex 25.5261 -1.12221 140
      vertex 26.5955 -0.709564 0
      vertex 26.5955 -0.709564 140
    endloop
  endfacet
  facet normal 0 0 1
    outer loop
      vertex 25.5261 -1.12221 140
      vertex 26.5955 -0.709564 140
      vertex 25.5261 1.12221 140
    endloop
  endfacet
  facet normal 0.359996 0.932954 -0
    outer loop
      vertex 25.5261 1.12221 0
      vertex 25.5261 1.12221 140
      vertex 26.5955 0.709564 140
    endloop
  endfacet
  facet normal 0 0 -1
    outer loop
      vertex 25.5261 1.12221 0
      vertex 26.5955 0.709564 0
      vertex 26.5955 -0.709564 0
    endloop
  endfacet
  facet normal 0.359996 0.932954 0
    outer loop
      vertex 25.5261 1.12221 0
      vertex 26.5955 0.709564 140
      vertex 26.5955 0.709564 0
    endloop
  endfacet
  facet normal 0 0 1
    outer loop
      vertex 25.5261 1.12221 140
      vertex 26.5955 -0.709564 140
      vertex 26.5955 0.709564 140
    endloop
  endfacet
  facet normal -0 0 -1
    outer loop
      vertex 26.5955 -0.709564 0
      vertex 26.5955 0.709564 0
      vertex 27.3717 -0.401657 0
    endloop
  endfacet
  facet normal 0.368733 -0.929535 0
    outer loop
      vertex 26.5955 -0.709564 0
      vertex 27.3717 -0.401657 0
      vertex 26.5955 -0.709564 140
    endloop
  endfacet
  facet normal 0.368733 -0.929535 0
    outer loop
      vertex 26.5955 -0.709564 140
      vertex 27.3717 -0.401657 0
      vertex 27.3717 -0.401657 140
    endloop
  endfacet
  facet normal 0 0 1
    outer loop
      vertex 26.5955 -0.709564 140
      vertex 27.3717 -0.401657 140
      vertex 26.5955 0.709564 140
    endloop
  endfacet
  facet normal 0.368733 0.929535 -0
    outer loop
      vertex 26.5955 0.709564 0
      vertex 26.5955 0.709564 140
      vertex 27.3717 0.401657 140
    endloop
  endfacet
  facet normal -0 -0 -1
    outer loop
      vertex 26.5955 0.709564 0
      vertex 27.3717 0.401657 0
      vertex 27.3717 -0.401657 0
    endloop
  endfacet
  facet normal 0.368733 0.929535 0
    outer loop
      vertex 26.5955 0.709564 0
      vertex 27.3717 0.401657 140
      vertex 27.3717 0.401657 0
    endloop
  endfacet
  facet normal 0 0 1
    outer loop
      vertex 26.5955 0.709564 140
      vertex 27.3717 -0.401657 140
      vertex 27.3717 0.401657 140
    endloop
  endfacet
  facet normal 0 0 -1
    outer loop
      vertex 27.3717 -0.401657 0
      vertex 27.3717 0.401657 0
      vertex 27.8423 -0.21138 0
    endloop
  endfacet
  facet normal 0.374848 -0.927086 0
    outer loop
      vertex 27.3717 -0.401657 0
      vertex 27.8423 -0.21138 0
      vertex 27.3717 -0.401657 140
    endloop
  endfacet
  facet normal 0.374848 -0.927086 0
    outer loop
      vertex 27.3717 -0.401657 140
      vertex 27.8423 -0.21138 0
      vertex 27.8423 -0.21138 140
    endloop
  endfacet
  facet normal 0 0 1
    outer loop
      vertex 27.3717 -0.401657 140
      vertex 27.8423 -0.21138 140
      vertex 27.3717 0.401657 140
    endloop
  endfacet
  facet normal 0.374848 0.927086 -0
    outer loop
      vertex 27.3717 0.401657 0
      vertex 27.3717 0.401657 140
      vertex 27.8423 0.21138 140
    endloop
  endfacet
  facet normal 0 0 -1
    outer loop
      vertex 27.3717 0.401657 0
      vertex 27.8423 0.21138 0
      vertex 27.8423 -0.21138 0
    endloop
  endfacet
  facet normal 0.374848 0.927086 0
    outer loop
      vertex 27.3717 0.401657 0
      vertex 27.8423 0.21138 140
      vertex 27.8423 0.21138 0
    endloop
  endfacet
  facet normal 0 -0 1
    outer loop
      vertex 27.3717 0.401657 140
      vertex 27.8423 -0.21138 140
      vertex 27.8423 0.21138 140
    endloop
  endfacet
  facet normal 0 0 -1
    outer loop
      vertex 27.8423 -0.21138 0
      vertex 27.8423 0.21138 0
      vertex 28 -0.146988 0
    endloop
  endfacet
  facet normal 0.378021 -0.925797 0
    outer loop
      vertex 27.8423 -0.21138 0
      vertex 28 -0.146988 0
      vertex 27.8423 -0.21138 140
    endloop
  endfacet
  facet normal 0.378021 -0.925797 0
    outer loop
      vertex 27.8423 -0.21138 140
      vertex 28 -0.146988 0
      vertex 28 -0.146988 140
    endloop
  endfacet
  facet normal 0 0 1
    outer loop
      vertex 27.8423 -0.21138 140
      vertex 28 -0.146988 140
      vertex 27.8423 0.21138 140
    endloop
  endfacet
  facet normal 0.915298 0.402777 -0
    outer loop
      vertex 27.8423 0.21138 0
      vertex 27.8423 0.21138 140
      vertex 28 -0.146988 140
    endloop
  endfacet
  facet normal 0.915298 0.402777 0
    outer loop
      vertex 27.8423 0.21138 0
      vertex 28 -0.146988 140
      vertex 28 -0.146988 0
    endloop
  endfacet
  facet normal 0 0 -1
    outer loop
      vertex 4.25237 -6.74205 0
      vertex 4.25237 6.74205 0
      vertex 6.74419 -6.39452 0
    endloop
  endfacet
  facet normal 0.138131 -0.990414 0
    outer loop
      vertex 4.25237 -6.74205 0
      vertex 6.74419 -6.39452 0
      vertex 4.25237 -6.74205 140
    endloop
  endfacet
  facet normal 0.138131 -0.990414 0
    outer loop
      vertex 4.25237 -6.74205 140
      vertex 6.74419 -6.39452 0
      vertex 6.74419 -6.39452 140
    endloop
  endfacet
  facet normal 0 0 1
    outer loop
      vertex 4.25237 -6.74205 140
      vertex 6.74419 -6.39452 140
      vertex 4.25237 6.74205 140
    endloop
  endfacet
  facet normal 0.138131 0.990414 -0
    outer loop
      vertex 4.25237 6.74205 0
      vertex 4.25237 6.74205 140
      vertex 6.74419 6.39452 140
    endloop
  endfacet
  facet normal -0 -0 -1
    outer loop
      vertex 4.25237 6.74205 0
      vertex 6.74419 6.39452 0
      vertex 6.74419 -6.39452 0
    endloop
  endfacet
  facet normal 0.138131 0.990414 0
    outer loop
      vertex 4.25237 6.74205 0
      vertex 6.74419 6.39452 140
      vertex 6.74419 6.39452 0
    endloop
  endfacet
  facet normal 0 0 1
    outer loop
      vertex 4.25237 6.74205 140
      vertex 6.74419 -6.39452 140
      vertex 6.74419 6.39452 140
    endloop
  endfacet
  facet normal -0 0 -1
    outer loop
      vertex 6.74419 -6.39452 0
      vertex 6.74419 6.39452 0
      vertex 9.2558 -5.933 0
    endloop
  endfacet
  facet normal 0.180729 -0.983533 0
    outer loop
      vertex 6.74419 -6.39452 0
      vertex 9.2558 -5.933 0
      vertex 6.74419 -6.39452 140
    endloop
  endfacet
  facet normal 0.180729 -0.983533 0
    outer loop
      vertex 6.74419 -6.39452 140
      vertex 9.2558 -5.933 0
      vertex 9.2558 -5.933 140
    endloop
  endfacet
  facet normal 0 0 1
    outer loop
      vertex 6.74419 -6.39452 140
      vertex 9.2558 -5.933 140
      vertex 6.74419 6.39452 140
    endloop
  endfacet
  facet normal 0.180729 0.983533 -0
    outer loop
      vertex 6.74419 6.39452 0
      vertex 6.74419 6.39452 140
      vertex 9.2558 5.933 140
    endloop
  endfacet
  facet normal 0 0 -1
    outer loop
      vertex 6.74419 6.39452 0
      vertex 9.2558 5.933 0
      vertex 9.2558 -5.933 0
    endloop
  endfacet
  facet normal 0.180729 0.983533 0
    outer loop
      vertex 6.74419 6.39452 0
      vertex 9.2558 5.933 140
      vertex 9.2558 5.933 0
    endloop
  endfacet
  facet normal 0 0 1
    outer loop
      vertex 6.74419 6.39452 140
      vertex 9.2558 -5.933 140
      vertex 9.2558 5.933 140
    endloop
  endfacet
  facet normal 0.215162 -0.976578 0
    outer loop
      vertex 9.2558 -5.933 0
      vertex 11.7476 -5.384 0
      vertex 9.2558 -5.933 140
    endloop
  endfacet
  facet normal 0 0 -1
    outer loop
      vertex 9.2558 -5.933 0
      vertex 9.2558 5.933 0
      vertex 11.7476 -5.384 0
    endloop
  endfacet
  facet normal 0.215162 -0.976578 0
    outer loop
      vertex 9.2558 -5.933 140
      vertex 11.7476 -5.384 0
      vertex 11.7476 -5.384 140
    endloop
  endfacet
  facet normal 0 0 1
    outer loop
      vertex 9.2558 -5.933 140
      vertex 11.7476 -5.384 140
      vertex 9.2558 5.933 140
    endloop
  endfacet
  facet normal 0 0 -1
    outer loop
      vertex 9.2558 5.933 0
      vertex 11.7476 5.384 0
      vertex 11.7476 -5.384 0
    endloop
  endfacet
  facet normal 0.215162 0.976578 0
    outer loop
      vertex 9.2558 5.933 0
      vertex 11.7476 5.384 140
      vertex 11.7476 5.384 0
    endloop
  endfacet
  facet normal 0.215162 0.976578 -0
    outer loop
      vertex 9.2558 5.933 0
      vertex 9.2558 5.933 140
      vertex 11.7476 5.384 140
    endloop
  endfacet
  facet normal 0 -0 1
    outer loop
      vertex 9.2558 5.933 140
      vertex 11.7476 -5.384 140
      vertex 11.7476 5.384 140
    endloop
  endfacet
endsolid model
