solid model
  facet normal 0 0 1
    outer loop
      vertex 10 0 -6.25
      vertex 40 0 -6.25
      vertex 10 35 -6.25
    endloop
  endfacet
  facet normal -1 -0 0
    outer loop
      vertex 10 0 -9.25
      vertex 10 0 -6.25
      vertex 10 35 -6.25
    endloop
  endfacet
  facet normal -1 0 0
    outer loop
      vertex 10 0 -9.25
      vertex 10 35 -6.25
      vertex 10 35 -9.25
    endloop
  endfacet
  facet normal -0 0 -1
    outer loop
      vertex 10 0 -9.25
      vertex 10 35 -9.25
      vertex 40 35 -9.25
    endloop
  endfacet
  facet normal 0 -1 0
    outer loop
      vertex 10 0 -9.25
      vertex 40 0 -6.25
      vertex 10 0 -6.25
    endloop
  endfacet
  facet normal 0 -1 -0
    outer loop
      vertex 10 0 -9.25
      vertex 40 0 -9.25
      vertex 40 0 -6.25
    endloop
  endfacet
  facet normal 0 0 -1
    outer loop
      vertex 10 0 -9.25
      vertex 40 35 -9.25
      vertex 40 0 -9.25
    endloop
  endfacet
  facet normal -0 0 1
    outer loop
      vertex 10 35 -6.25
      vertex 40 0 -6.25
      vertex 40 35 -6.25
    endloop
  endfacet
  facet normal 0 1 -0
    outer loop
      vertex 10 35 -6.25
      vertex 40 35 -6.25
      vertex 40 35 -9.25
    endloop
  endfacet
  facet normal 0 1 0
    outer loop
      vertex 10 35 -9.25
      vertex 10 35 -6.25
      vertex 40 35 -9.25
    endloop
  endfacet
  facet normal 1 -0 0
    outer loop
      vertex 40 0 -6.25
      vertex 40 35 -9.25
      vertex 40 35 -6.25
    endloop
  endfacet
  facet normal 1 0 0
    outer loop
      vertex 40 0 -9.25
      vertex 40 35 -9.25
      vertex 40 0 -6.25
    endloop
  endfacet
endsolid model
