solid model
  facet normal 0 -0 1
    outer loop
      vertex 154.85 0 202
      vertex 155.102 -1.59144 202
      vertex 155.102 1.59144 202
    endloop
  endfacet
  facet normal -0.987694 -0.156399 0
    outer loop
      vertex 154.85 0 202
      vertex 155.102 -1.59144 60
      vertex 155.102 -1.59144 202
    endloop
  endfacet
  facet normal -0.987694 0.156399 0
    outer loop
      vertex 154.85 0 60
      vertex 154.85 0 202
      vertex 155.102 1.59144 202
    endloop
  endfacet
  facet normal -0.987694 -0.156399 0
    outer loop
      vertex 154.85 0 60
      vertex 155.102 -1.59144 60
      vertex 154.85 0 202
    endloop
  endfacet
  facet normal -0.987694 0.156399 0
    outer loop
      vertex 154.85 0 60
      vertex 155.102 1.59144 202
      vertex 155.102 1.59144 60
    endloop
  endfacet
  facet normal 0 -0 -1
    outer loop
      vertex 154.85 0 60
      vertex 155.102 1.59144 60
      vertex 155.102 -1.59144 60
    endloop
  endfacet
  facet normal 0 0 1
    outer loop
      vertex 155.102 -1.59144 202
      vertex 155.834 -3.02709 202
      vertex 155.102 1.59144 202
    endloop
  endfacet
  facet normal -0.890881 -0.454237 0
    outer loop
      vertex 155.102 -1.59144 202
      vertex 155.834 -3.02709 60
      vertex 155.834 -3.02709 202
    endloop
  endfacet
  facet normal 0 0 -1
    outer loop
      vertex 155.102 -1.59144 60
      vertex 155.102 1.59144 60
      vertex 155.834 3.02709 60
    endloop
  endfacet
  facet normal -0.890881 -0.454237 0
    outer loop
      vertex 155.102 -1.59144 60
      vertex 155.834 -3.02709 60
      vertex 155.102 -1.59144 202
    endloop
  endfacet
  facet normal 0 0 -1
    outer loop
      vertex 155.102 -1.59144 60
      vertex 155.834 3.02709 60
      vertex 155.834 -3.02709 60
    endloop
  endfacet
  facet normal -0 0 1
    outer loop
      vertex 155.102 1.59144 202
      vertex 155.834 -3.02709 202
      vertex 155.834 3.02709 202
    endloop
  endfacet
  facet normal -0.890881 0.454237 0
    outer loop
      vertex 155.102 1.59144 60
      vertex 155.102 1.59144 202
      vertex 155.834 3.02709 202
    endloop
  endfacet
  facet normal -0.890881 0.454237 0
    outer loop
      vertex 155.102 1.59144 60
      vertex 155.834 3.02709 202
      vertex 155.834 3.02709 60
    endloop
  endfacet
  facet normal 0 0 1
    outer loop
      vertex 155.834 -3.02709 202
      vertex 156.973 -4.16644 202
      vertex 155.834 3.02709 202
    endloop
  endfacet
  facet normal -0.707215 -0.706998 0
    outer loop
      vertex 155.834 -3.02709 202
      vertex 156.973 -4.16644 60
      vertex 156.973 -4.16644 202
    endloop
  endfacet
  facet normal 0 0 -1
    outer loop
      vertex 155.834 -3.02709 60
      vertex 155.834 3.02709 60
      vertex 156.973 4.16644 60
    endloop
  endfacet
  facet normal -0.707215 -0.706998 0
    outer loop
      vertex 155.834 -3.02709 60
      vertex 156.973 -4.16644 60
      vertex 155.834 -3.02709 202
    endloop
  endfacet
  facet normal 0 0 -1
    outer loop
      vertex 155.834 -3.02709 60
      vertex 156.973 4.16644 60
      vertex 156.973 -4.16644 60
    endloop
  endfacet
  facet normal -0 0 1
    outer loop
      vertex 155.834 3.02709 202
      vertex 156.973 -4.16644 202
      vertex 156.973 4.16644 202
    endloop
  endfacet
  facet normal -0.707215 0.706998 0
    outer loop
      vertex 155.834 3.02709 60
      vertex 155.834 3.02709 202
      vertex 156.973 4.16644 202
    endloop
  endfacet
  facet normal -0.707215 0.706998 0
    outer loop
      vertex 155.834 3.02709 60
      vertex 156.973 4.16644 202
      vertex 156.973 4.16644 60
    endloop
  endfacet
  facet normal 0 0 1
    outer loop
      vertex 156.973 -4.16644 202
      vertex 158.409 -4.89794 202
      vertex 156.973 4.16644 202
    endloop
  endfacet
  facet normal 0 0 -1
    outer loop
      vertex 156.973 -4.16644 60
      vertex 156.973 4.16644 60
      vertex 158.409 4.89794 60
    endloop
  endfacet
  facet normal -0.453903 -0.891051 0
    outer loop
      vertex 156.973 -4.16644 60
      vertex 158.409 -4.89794 202
      vertex 156.973 -4.16644 202
    endloop
  endfacet
  facet normal -0.453903 -0.891051 -0
    outer loop
      vertex 156.973 -4.16644 60
      vertex 158.409 -4.89794 60
      vertex 158.409 -4.89794 202
    endloop
  endfacet
  facet normal 0 0 -1
    outer loop
      vertex 156.973 -4.16644 60
      vertex 158.409 4.89794 60
      vertex 158.409 -4.89794 60
    endloop
  endfacet
  facet normal -0 0 1
    outer loop
      vertex 156.973 4.16644 202
      vertex 158.409 -4.89794 202
      vertex 158.409 4.89794 202
    endloop
  endfacet
  facet normal -0.453903 0.891051 0
    outer loop
      vertex 156.973 4.16644 202
      vertex 158.409 4.89794 202
      vertex 158.409 4.89794 60
    endloop
  endfacet
  facet normal -0.453903 0.891051 0
    outer loop
      vertex 156.973 4.16644 60
      vertex 156.973 4.16644 202
      vertex 158.409 4.89794 60
    endloop
  endfacet
  facet normal 0 0 1
    outer loop
      vertex 158.409 -4.89794 202
      vertex 160 -5.15 202
      vertex 158.409 4.89794 202
    endloop
  endfacet
  facet normal 0 0 -1
    outer loop
      vertex 158.409 -4.89794 60
      vertex 158.409 4.89794 60
      vertex 160 5.15 60
    endloop
  endfacet
  facet normal -0.156477 -0.987682 0
    outer loop
      vertex 158.409 -4.89794 60
      vertex 160 -5.15 202
      vertex 158.409 -4.89794 202
    endloop
  endfacet
  facet normal -0.156477 -0.987682 -0
    outer loop
      vertex 158.409 -4.89794 60
      vertex 160 -5.15 60
      vertex 160 -5.15 202
    endloop
  endfacet
  facet normal 0 0 -1
    outer loop
      vertex 158.409 -4.89794 60
      vertex 160 5.15 60
      vertex 160 -5.15 60
    endloop
  endfacet
  facet normal -0 0 1
    outer loop
      vertex 158.409 4.89794 202
      vertex 160 -5.15 202
      vertex 160 5.15 202
    endloop
  endfacet
  facet normal -0.156477 0.987682 0
    outer loop
      vertex 158.409 4.89794 202
      vertex 160 5.15 202
      vertex 160 5.15 60
    endloop
  endfacet
  facet normal -0.156477 0.987682 0
    outer loop
      vertex 158.409 4.89794 60
      vertex 158.409 4.89794 202
      vertex 160 5.15 60
    endloop
  endfacet
  facet normal 0 0 1
    outer loop
      vertex 160 -5.15 202
      vertex 161.591 -4.89794 202
      vertex 160 5.15 202
    endloop
  endfacet
  facet normal 0 0 -1
    outer loop
      vertex 160 -5.15 60
      vertex 160 5.15 60
      vertex 161.591 4.89794 60
    endloop
  endfacet
  facet normal 0.156477 -0.987682 0
    outer loop
      vertex 160 -5.15 60
      vertex 161.591 -4.89794 202
      vertex 160 -5.15 202
    endloop
  endfacet
  facet normal 0.156477 -0.987682 0
    outer loop
      vertex 160 -5.15 60
      vertex 161.591 -4.89794 60
      vertex 161.591 -4.89794 202
    endloop
  endfacet
  facet normal 0 0 -1
    outer loop
      vertex 160 -5.15 60
      vertex 161.591 4.89794 60
      vertex 161.591 -4.89794 60
    endloop
  endfacet
  facet normal 0 0 1
    outer loop
      vertex 160 5.15 202
      vertex 161.591 -4.89794 202
      vertex 161.591 4.89794 202
    endloop
  endfacet
  facet normal 0.156477 0.987682 -0
    outer loop
      vertex 160 5.15 202
      vertex 161.591 4.89794 202
      vertex 161.591 4.89794 60
    endloop
  endfacet
  facet normal 0.156477 0.987682 0
    outer loop
      vertex 160 5.15 60
      vertex 160 5.15 202
      vertex 161.591 4.89794 60
    endloop
  endfacet
  facet normal 0 0 1
    outer loop
      vertex 161.591 -4.89794 202
      vertex 163.027 -4.16644 202
      vertex 161.591 4.89794 202
    endloop
  endfacet
  facet normal 0 0 -1
    outer loop
      vertex 161.591 -4.89794 60
      vertex 161.591 4.89794 60
      vertex 163.027 4.16644 60
    endloop
  endfacet
  facet normal 0.453903 -0.891051 0
    outer loop
      vertex 161.591 -4.89794 60
      vertex 163.027 -4.16644 202
      vertex 161.591 -4.89794 202
    endloop
  endfacet
  facet normal 0.453903 -0.891051 0
    outer loop
      vertex 161.591 -4.89794 60
      vertex 163.027 -4.16644 60
      vertex 163.027 -4.16644 202
    endloop
  endfacet
  facet normal 0 0 -1
    outer loop
      vertex 161.591 -4.89794 60
      vertex 163.027 4.16644 60
      vertex 163.027 -4.16644 60
    endloop
  endfacet
  facet normal 0 0 1
    outer loop
      vertex 161.591 4.89794 202
      vertex 163.027 -4.16644 202
      vertex 163.027 4.16644 202
    endloop
  endfacet
  facet normal 0.453903 0.891051 -0
    outer loop
      vertex 161.591 4.89794 202
      vertex 163.027 4.16644 202
      vertex 163.027 4.16644 60
    endloop
  endfacet
  facet normal 0.453903 0.891051 0
    outer loop
      vertex 161.591 4.89794 60
      vertex 161.591 4.89794 202
      vertex 163.027 4.16644 60
    endloop
  endfacet
  facet normal 0 0 1
    outer loop
      vertex 163.027 -4.16644 202
      vertex 164.166 -3.02709 202
      vertex 163.027 4.16644 202
    endloop
  endfacet
  facet normal 0.707215 -0.706998 0
    outer loop
      vertex 163.027 -4.16644 202
      vertex 164.166 -3.02709 60
      vertex 164.166 -3.02709 202
    endloop
  endfacet
  facet normal 0 0 -1
    outer loop
      vertex 163.027 -4.16644 60
      vertex 163.027 4.16644 60
      vertex 164.166 3.02709 60
    endloop
  endfacet
  facet normal 0.707215 -0.706998 0
    outer loop
      vertex 163.027 -4.16644 60
      vertex 164.166 -3.02709 60
      vertex 163.027 -4.16644 202
    endloop
  endfacet
  facet normal 0 0 -1
    outer loop
      vertex 163.027 -4.16644 60
      vertex 164.166 3.02709 60
      vertex 164.166 -3.02709 60
    endloop
  endfacet
  facet normal 0 0 1
    outer loop
      vertex 163.027 4.16644 202
      vertex 164.166 -3.02709 202
      vertex 164.166 3.02709 202
    endloop
  endfacet
  facet normal 0.707215 0.706998 0
    outer loop
      vertex 163.027 4.16644 60
      vertex 163.027 4.16644 202
      vertex 164.166 3.02709 202
    endloop
  endfacet
  facet normal 0.707215 0.706998 0
    outer loop
      vertex 163.027 4.16644 60
      vertex 164.166 3.02709 202
      vertex 164.166 3.02709 60
    endloop
  endfacet
  facet normal 0 0 1
    outer loop
      vertex 164.166 -3.02709 202
      vertex 164.898 -1.59144 202
      vertex 164.166 3.02709 202
    endloop
  endfacet
  facet normal 0.890881 -0.454237 0
    outer loop
      vertex 164.166 -3.02709 202
      vertex 164.898 -1.59144 60
      vertex 164.898 -1.59144 202
    endloop
  endfacet
  facet normal 0 0 -1
    outer loop
      vertex 164.166 -3.02709 60
      vertex 164.166 3.02709 60
      vertex 164.898 1.59144 60
    endloop
  endfacet
  facet normal 0.890881 -0.454237 0
    outer loop
      vertex 164.166 -3.02709 60
      vertex 164.898 -1.59144 60
      vertex 164.166 -3.02709 202
    endloop
  endfacet
  facet normal 0 0 -1
    outer loop
      vertex 164.166 -3.02709 60
      vertex 164.898 1.59144 60
      vertex 164.898 -1.59144 60
    endloop
  endfacet
  facet normal 0 0 1
    outer loop
      vertex 164.166 3.02709 202
      vertex 164.898 -1.59144 202
      vertex 164.898 1.59144 202
    endloop
  endfacet
  facet normal 0.890881 0.454237 0
    outer loop
      vertex 164.166 3.02709 60
      vertex 164.166 3.02709 202
      vertex 164.898 1.59144 202
    endloop
  endfacet
  facet normal 0.890881 0.454237 0
    outer loop
      vertex 164.166 3.02709 60
      vertex 164.898 1.59144 202
      vertex 164.898 1.59144 60
    endloop
  endfacet
  facet normal 0 0 1
    outer loop
      vertex 164.898 -1.59144 202
      vertex 165.15 0 202
      vertex 164.898 1.59144 202
    endloop
  endfacet
  facet normal 0.987694 -0.156399 0
    outer loop
      vertex 164.898 -1.59144 202
      vertex 165.15 0 60
      vertex 165.15 0 202
    endloop
  endfacet
  facet normal 0 0 -1
    outer loop
      vertex 164.898 -1.59144 60
      vertex 164.898 1.59144 60
      vertex 165.15 0 60
    endloop
  endfacet
  facet normal 0.987694 -0.156399 0
    outer loop
      vertex 164.898 -1.59144 60
      vertex 165.15 0 60
      vertex 164.898 -1.59144 202
    endloop
  endfacet
  facet normal 0.987694 0.156399 0
    outer loop
      vertex 164.898 1.59144 60
      vertex 164.898 1.59144 202
      vertex 165.15 0 202
    endloop
  endfacet
  facet normal 0.987694 0.156399 0
    outer loop
      vertex 164.898 1.59144 60
      vertex 165.15 0 202
      vertex 165.15 0 60
    endloop
  endfacet
endsolid model
