solid model
  facet normal -0.992348 0.123476 0
    outer loop
      vertex 148 0 153.5
      vertex 148 0 293.5
      vertex 148.158 1.26981 293.5
    endloop
  endfacet
  facet normal -0.992348 -0.123476 0
    outer loop
      vertex 148 0 153.5
      vertex 148.158 -1.26981 153.5
      vertex 148 0 293.5
    endloop
  endfacet
  facet normal 0 -0 -1
    outer loop
      vertex 148 0 153.5
      vertex 148.158 1.26981 153.5
      vertex 148.628 2.46025 153.5
    endloop
  endfacet
  facet normal -0.992348 0.123476 0
    outer loop
      vertex 148 0 153.5
      vertex 148.158 1.26981 293.5
      vertex 148.158 1.26981 153.5
    endloop
  endfacet
  facet normal 0 0 -1
    outer loop
      vertex 148 0 153.5
      vertex 148.628 -2.46025 153.5
      vertex 148.158 -1.26981 153.5
    endloop
  endfacet
  facet normal 0 -0 -1
    outer loop
      vertex 148 0 153.5
      vertex 148.628 2.46025 153.5
      vertex 148.628 -2.46025 153.5
    endloop
  endfacet
  facet normal -0.992348 -0.123476 0
    outer loop
      vertex 148 0 293.5
      vertex 148.158 -1.26981 153.5
      vertex 148.158 -1.26981 293.5
    endloop
  endfacet
  facet normal -0 -0 1
    outer loop
      vertex 148 0 293.5
      vertex 148.158 -1.26981 293.5
      vertex 148.628 -2.46025 293.5
    endloop
  endfacet
  facet normal -0 0 1
    outer loop
      vertex 148 0 293.5
      vertex 148.628 -2.46025 293.5
      vertex 148.628 2.46025 293.5
    endloop
  endfacet
  facet normal 0 0 1
    outer loop
      vertex 148 0 293.5
      vertex 148.628 2.46025 293.5
      vertex 148.158 1.26981 293.5
    endloop
  endfacet
  facet normal -0.930131 -0.367227 0
    outer loop
      vertex 148.158 -1.26981 153.5
      vertex 148.628 -2.46025 153.5
      vertex 148.158 -1.26981 293.5
    endloop
  endfacet
  facet normal -0.930131 -0.367227 0
    outer loop
      vertex 148.158 -1.26981 293.5
      vertex 148.628 -2.46025 153.5
      vertex 148.628 -2.46025 293.5
    endloop
  endfacet
  facet normal -0.930131 0.367227 0
    outer loop
      vertex 148.158 1.26981 153.5
      vertex 148.158 1.26981 293.5
      vertex 148.628 2.46025 293.5
    endloop
  endfacet
  facet normal -0.930131 0.367227 0
    outer loop
      vertex 148.158 1.26981 153.5
      vertex 148.628 2.46025 293.5
      vertex 148.628 2.46025 153.5
    endloop
  endfacet
  facet normal 0 0 -1
    outer loop
      vertex 148.628 -2.46025 153.5
      vertex 148.628 2.46025 153.5
      vertex 149.404 -3.55516 153.5
    endloop
  endfacet
  facet normal -0.81587 -0.578235 0
    outer loop
      vertex 148.628 -2.46025 153.5
      vertex 149.404 -3.55516 153.5
      vertex 148.628 -2.46025 293.5
    endloop
  endfacet
  facet normal -0.81587 -0.578235 0
    outer loop
      vertex 148.628 -2.46025 293.5
      vertex 149.404 -3.55516 153.5
      vertex 149.404 -3.55516 293.5
    endloop
  endfacet
  facet normal -0 0 1
    outer loop
      vertex 148.628 -2.46025 293.5
      vertex 149.404 -3.55516 293.5
      vertex 148.628 2.46025 293.5
    endloop
  endfacet
  facet normal -0.81587 0.578235 0
    outer loop
      vertex 148.628 2.46025 153.5
      vertex 148.628 2.46025 293.5
      vertex 149.404 3.55516 293.5
    endloop
  endfacet
  facet normal 0 0 -1
    outer loop
      vertex 148.628 2.46025 153.5
      vertex 149.404 3.55516 153.5
      vertex 149.404 -3.55516 153.5
    endloop
  endfacet
  facet normal -0.81587 0.578235 0
    outer loop
      vertex 148.628 2.46025 153.5
      vertex 149.404 3.55516 293.5
      vertex 149.404 3.55516 153.5
    endloop
  endfacet
  facet normal 0 -0 1
    outer loop
      vertex 148.628 2.46025 293.5
      vertex 149.404 -3.55516 293.5
      vertex 149.404 3.55516 293.5
    endloop
  endfacet
  facet normal 0 0 -1
    outer loop
      vertex 149.404 -3.55516 153.5
      vertex 149.404 3.55516 153.5
      vertex 150.474 -4.53349 153.5
    endloop
  endfacet
  facet normal -0.674786 -0.738014 0
    outer loop
      vertex 149.404 -3.55516 153.5
      vertex 150.474 -4.53349 153.5
      vertex 149.404 -3.55516 293.5
    endloop
  endfacet
  facet normal -0.674786 -0.738014 0
    outer loop
      vertex 149.404 -3.55516 293.5
      vertex 150.474 -4.53349 153.5
      vertex 150.474 -4.53349 293.5
    endloop
  endfacet
  facet normal 0 0 1
    outer loop
      vertex 149.404 -3.55516 293.5
      vertex 150.474 -4.53349 293.5
      vertex 149.404 3.55516 293.5
    endloop
  endfacet
  facet normal -0.674786 0.738014 0
    outer loop
      vertex 149.404 3.55516 153.5
      vertex 149.404 3.55516 293.5
      vertex 150.474 4.53349 293.5
    endloop
  endfacet
  facet normal 0 0 -1
    outer loop
      vertex 149.404 3.55516 153.5
      vertex 150.474 4.53349 153.5
      vertex 150.474 -4.53349 153.5
    endloop
  endfacet
  facet normal -0.674786 0.738014 0
    outer loop
      vertex 149.404 3.55516 153.5
      vertex 150.474 4.53349 293.5
      vertex 150.474 4.53349 153.5
    endloop
  endfacet
  facet normal 0 -0 1
    outer loop
      vertex 149.404 3.55516 293.5
      vertex 150.474 -4.53349 293.5
      vertex 150.474 4.53349 293.5
    endloop
  endfacet
  facet normal 0 0 -1
    outer loop
      vertex 150.474 -4.53349 153.5
      vertex 150.474 4.53349 153.5
      vertex 151.82 -5.37238 153.5
    endloop
  endfacet
  facet normal -0.528928 -0.848666 0
    outer loop
      vertex 150.474 -4.53349 153.5
      vertex 151.82 -5.37238 153.5
      vertex 150.474 -4.53349 293.5
    endloop
  endfacet
  facet normal -0.528928 -0.848666 0
    outer loop
      vertex 150.474 -4.53349 293.5
      vertex 151.82 -5.37238 153.5
      vertex 151.82 -5.37238 293.5
    endloop
  endfacet
  facet normal 0 0 1
    outer loop
      vertex 150.474 -4.53349 293.5
      vertex 151.82 -5.37238 293.5
      vertex 150.474 4.53349 293.5
    endloop
  endfacet
  facet normal -0.528928 0.848666 0
    outer loop
      vertex 150.474 4.53349 153.5
      vertex 150.474 4.53349 293.5
      vertex 151.82 5.37238 293.5
    endloop
  endfacet
  facet normal 0 0 -1
    outer loop
      vertex 150.474 4.53349 153.5
      vertex 151.82 5.37238 153.5
      vertex 151.82 -5.37238 153.5
    endloop
  endfacet
  facet normal -0.528928 0.848666 0
    outer loop
      vertex 150.474 4.53349 153.5
      vertex 151.82 5.37238 293.5
      vertex 151.82 5.37238 153.5
    endloop
  endfacet
  facet normal 0 0 1
    outer loop
      vertex 150.474 4.53349 293.5
      vertex 151.82 -5.37238 293.5
      vertex 151.82 5.37238 293.5
    endloop
  endfacet
  facet normal 0 0 -1
    outer loop
      vertex 151.82 -5.37238 153.5
      vertex 151.82 5.37238 153.5
      vertex 153.421 -6.05061 153.5
    endloop
  endfacet
  facet normal -0.390071 -0.920785 0
    outer loop
      vertex 151.82 -5.37238 153.5
      vertex 153.421 -6.05061 153.5
      vertex 151.82 -5.37238 293.5
    endloop
  endfacet
  facet normal -0.390071 -0.920785 0
    outer loop
      vertex 151.82 -5.37238 293.5
      vertex 153.421 -6.05061 153.5
      vertex 153.421 -6.05061 293.5
    endloop
  endfacet
  facet normal 0 0 1
    outer loop
      vertex 151.82 -5.37238 293.5
      vertex 153.421 -6.05061 293.5
      vertex 151.82 5.37238 293.5
    endloop
  endfacet
  facet normal -0.390071 0.920785 0
    outer loop
      vertex 151.82 5.37238 153.5
      vertex 151.82 5.37238 293.5
      vertex 153.421 6.05061 293.5
    endloop
  endfacet
  facet normal 0 0 -1
    outer loop
      vertex 151.82 5.37238 153.5
      vertex 153.421 6.05061 153.5
      vertex 153.421 -6.05061 153.5
    endloop
  endfacet
  facet normal -0.390071 0.920785 0
    outer loop
      vertex 151.82 5.37238 153.5
      vertex 153.421 6.05061 293.5
      vertex 153.421 6.05061 153.5
    endloop
  endfacet
  facet normal 0 0 1
    outer loop
      vertex 151.82 5.37238 293.5
      vertex 153.421 -6.05061 293.5
      vertex 153.421 6.05061 293.5
    endloop
  endfacet
  facet normal 0 0 -1
    outer loop
      vertex 153.421 -6.05061 153.5
      vertex 153.421 6.05061 153.5
      vertex 155.252 -6.55202 153.5
    endloop
  endfacet
  facet normal -0.264121 -0.96449 0
    outer loop
      vertex 153.421 -6.05061 153.5
      vertex 155.252 -6.55202 153.5
      vertex 153.421 -6.05061 293.5
    endloop
  endfacet
  facet normal -0.264121 -0.96449 0
    outer loop
      vertex 153.421 -6.05061 293.5
      vertex 155.252 -6.55202 153.5
      vertex 155.252 -6.55202 293.5
    endloop
  endfacet
  facet normal 0 0 1
    outer loop
      vertex 153.421 -6.05061 293.5
      vertex 155.252 -6.55202 293.5
      vertex 153.421 6.05061 293.5
    endloop
  endfacet
  facet normal -0.264121 0.96449 0
    outer loop
      vertex 153.421 6.05061 153.5
      vertex 153.421 6.05061 293.5
      vertex 155.252 6.55202 293.5
    endloop
  endfacet
  facet normal 0 0 -1
    outer loop
      vertex 153.421 6.05061 153.5
      vertex 155.252 6.55202 153.5
      vertex 155.252 -6.55202 153.5
    endloop
  endfacet
  facet normal -0.264121 0.96449 0
    outer loop
      vertex 153.421 6.05061 153.5
      vertex 155.252 6.55202 293.5
      vertex 155.252 6.55202 153.5
    endloop
  endfacet
  facet normal 0 0 1
    outer loop
      vertex 153.421 6.05061 293.5
      vertex 155.252 -6.55202 293.5
      vertex 155.252 6.55202 293.5
    endloop
  endfacet
  facet normal 0 0 -1
    outer loop
      vertex 155.252 -6.55202 153.5
      vertex 155.252 6.55202 153.5
      vertex 157.283 -6.86774 153.5
    endloop
  endfacet
  facet normal -0.153606 -0.988132 0
    outer loop
      vertex 155.252 -6.55202 153.5
      vertex 157.283 -6.86774 153.5
      vertex 155.252 -6.55202 293.5
    endloop
  endfacet
  facet normal -0.153606 -0.988132 0
    outer loop
      vertex 155.252 -6.55202 293.5
      vertex 157.283 -6.86774 153.5
      vertex 157.283 -6.86774 293.5
    endloop
  endfacet
  facet normal 0 0 1
    outer loop
      vertex 155.252 -6.55202 293.5
      vertex 157.283 -6.86774 293.5
      vertex 155.252 6.55202 293.5
    endloop
  endfacet
  facet normal -0.153606 0.988132 0
    outer loop
      vertex 155.252 6.55202 153.5
      vertex 155.252 6.55202 293.5
      vertex 157.283 6.86774 293.5
    endloop
  endfacet
  facet normal 0 -0 -1
    outer loop
      vertex 155.252 6.55202 153.5
      vertex 157.283 6.86774 153.5
      vertex 157.283 -6.86774 153.5
    endloop
  endfacet
  facet normal -0.153606 0.988132 0
    outer loop
      vertex 155.252 6.55202 153.5
      vertex 157.283 6.86774 293.5
      vertex 157.283 6.86774 153.5
    endloop
  endfacet
  facet normal -0 0 1
    outer loop
      vertex 155.252 6.55202 293.5
      vertex 157.283 -6.86774 293.5
      vertex 157.283 6.86774 293.5
    endloop
  endfacet
  facet normal 0 0 -1
    outer loop
      vertex 157.283 -6.86774 153.5
      vertex 157.283 6.86774 153.5
      vertex 159.484 -6.99767 153.5
    endloop
  endfacet
  facet normal -0.0589297 -0.998262 0
    outer loop
      vertex 157.283 -6.86774 153.5
      vertex 159.484 -6.99767 153.5
      vertex 157.283 -6.86774 293.5
    endloop
  endfacet
  facet normal -0.0589297 -0.998262 0
    outer loop
      vertex 157.283 -6.86774 293.5
      vertex 159.484 -6.99767 153.5
      vertex 159.484 -6.99767 293.5
    endloop
  endfacet
  facet normal -0 0 1
    outer loop
      vertex 157.283 -6.86774 293.5
      vertex 159.484 -6.99767 293.5
      vertex 157.283 6.86774 293.5
    endloop
  endfacet
  facet normal -0.0589297 0.998262 0
    outer loop
      vertex 157.283 6.86774 153.5
      vertex 157.283 6.86774 293.5
      vertex 159.484 6.99767 293.5
    endloop
  endfacet
  facet normal 0 -0 -1
    outer loop
      vertex 157.283 6.86774 153.5
      vertex 159.484 6.99767 153.5
      vertex 159.484 -6.99767 153.5
    endloop
  endfacet
  facet normal -0.0589297 0.998262 0
    outer loop
      vertex 157.283 6.86774 153.5
      vertex 159.484 6.99767 293.5
      vertex 159.484 6.99767 153.5
    endloop
  endfacet
  facet normal -0 0 1
    outer loop
      vertex 157.283 6.86774 293.5
      vertex 159.484 -6.99767 293.5
      vertex 159.484 6.99767 293.5
    endloop
  endfacet
  facet normal -0 0 -1
    outer loop
      vertex 159.484 -6.99767 153.5
      vertex 159.484 6.99767 153.5
      vertex 161.82 -6.95038 153.5
    endloop
  endfacet
  facet normal 0.0202399 -0.999795 0
    outer loop
      vertex 159.484 -6.99767 153.5
      vertex 161.82 -6.95038 153.5
      vertex 159.484 -6.99767 293.5
    endloop
  endfacet
  facet normal 0.0202399 -0.999795 0
    outer loop
      vertex 159.484 -6.99767 293.5
      vertex 161.82 -6.95038 153.5
      vertex 161.82 -6.95038 293.5
    endloop
  endfacet
  facet normal 0 0 1
    outer loop
      vertex 159.484 -6.99767 293.5
      vertex 161.82 -6.95038 293.5
      vertex 159.484 6.99767 293.5
    endloop
  endfacet
  facet normal 0.0202399 0.999795 -0
    outer loop
      vertex 159.484 6.99767 153.5
      vertex 159.484 6.99767 293.5
      vertex 161.82 6.95038 293.5
    endloop
  endfacet
  facet normal 0 0 -1
    outer loop
      vertex 159.484 6.99767 153.5
      vertex 161.82 6.95038 153.5
      vertex 161.82 -6.95038 153.5
    endloop
  endfacet
  facet normal 0.0202399 0.999795 0
    outer loop
      vertex 159.484 6.99767 153.5
      vertex 161.82 6.95038 293.5
      vertex 161.82 6.95038 153.5
    endloop
  endfacet
  facet normal 0 0 1
    outer loop
      vertex 159.484 6.99767 293.5
      vertex 161.82 -6.95038 293.5
      vertex 161.82 6.95038 293.5
    endloop
  endfacet
  facet normal 0 0 -1
    outer loop
      vertex 161.82 -6.95038 153.5
      vertex 161.82 6.95038 153.5
      vertex 164.252 -6.74205 153.5
    endloop
  endfacet
  facet normal 0.0853494 -0.996351 0
    outer loop
      vertex 161.82 -6.95038 153.5
      vertex 164.252 -6.74205 153.5
      vertex 161.82 -6.95038 293.5
    endloop
  endfacet
  facet normal 0.0853494 -0.996351 0
    outer loop
      vertex 161.82 -6.95038 293.5
      vertex 164.252 -6.74205 153.5
      vertex 164.252 -6.74205 293.5
    endloop
  endfacet
  facet normal 0 0 1
    outer loop
      vertex 161.82 -6.95038 293.5
      vertex 164.252 -6.74205 293.5
      vertex 161.82 6.95038 293.5
    endloop
  endfacet
  facet normal 0.0853494 0.996351 -0
    outer loop
      vertex 161.82 6.95038 153.5
      vertex 161.82 6.95038 293.5
      vertex 164.252 6.74205 293.5
    endloop
  endfacet
  facet normal 0 0 -1
    outer loop
      vertex 161.82 6.95038 153.5
      vertex 164.252 6.74205 153.5
      vertex 164.252 -6.74205 153.5
    endloop
  endfacet
  facet normal 0.0853494 0.996351 0
    outer loop
      vertex 161.82 6.95038 153.5
      vertex 164.252 6.74205 293.5
      vertex 164.252 6.74205 153.5
    endloop
  endfacet
  facet normal 0 -0 1
    outer loop
      vertex 161.82 6.95038 293.5
      vertex 164.252 -6.74205 293.5
      vertex 164.252 6.74205 293.5
    endloop
  endfacet
  facet normal 0 0 -1
    outer loop
      vertex 164.252 -6.74205 153.5
      vertex 164.252 6.74205 153.5
      vertex 166.744 -6.39452 153.5
    endloop
  endfacet
  facet normal 0.138122 -0.990415 0
    outer loop
      vertex 164.252 -6.74205 153.5
      vertex 166.744 -6.39452 153.5
      vertex 164.252 -6.74205 293.5
    endloop
  endfacet
  facet normal 0.138122 -0.990415 0
    outer loop
      vertex 164.252 -6.74205 293.5
      vertex 166.744 -6.39452 153.5
      vertex 166.744 -6.39452 293.5
    endloop
  endfacet
  facet normal 0 0 1
    outer loop
      vertex 164.252 -6.74205 293.5
      vertex 166.744 -6.39452 293.5
      vertex 164.252 6.74205 293.5
    endloop
  endfacet
  facet normal 0.138122 0.990415 -0
    outer loop
      vertex 164.252 6.74205 153.5
      vertex 164.252 6.74205 293.5
      vertex 166.744 6.39452 293.5
    endloop
  endfacet
  facet normal -0 -0 -1
    outer loop
      vertex 164.252 6.74205 153.5
      vertex 166.744 6.39452 153.5
      vertex 166.744 -6.39452 153.5
    endloop
  endfacet
  facet normal 0.138122 0.990415 0
    outer loop
      vertex 164.252 6.74205 153.5
      vertex 166.744 6.39452 293.5
      vertex 166.744 6.39452 153.5
    endloop
  endfacet
  facet normal 0 0 1
    outer loop
      vertex 164.252 6.74205 293.5
      vertex 166.744 -6.39452 293.5
      vertex 166.744 6.39452 293.5
    endloop
  endfacet
  facet normal -0 0 -1
    outer loop
      vertex 166.744 -6.39452 153.5
      vertex 166.744 6.39452 153.5
      vertex 169.256 -5.933 153.5
    endloop
  endfacet
  facet normal 0.180702 -0.983538 0
    outer loop
      vertex 166.744 -6.39452 153.5
      vertex 169.256 -5.933 153.5
      vertex 166.744 -6.39452 293.5
    endloop
  endfacet
  facet normal 0.180702 -0.983538 0
    outer loop
      vertex 166.744 -6.39452 293.5
      vertex 169.256 -5.933 153.5
      vertex 169.256 -5.933 293.5
    endloop
  endfacet
  facet normal 0 0 1
    outer loop
      vertex 166.744 -6.39452 293.5
      vertex 169.256 -5.933 293.5
      vertex 166.744 6.39452 293.5
    endloop
  endfacet
  facet normal 0.180702 0.983538 -0
    outer loop
      vertex 166.744 6.39452 153.5
      vertex 166.744 6.39452 293.5
      vertex 169.256 5.933 293.5
    endloop
  endfacet
  facet normal 0 0 -1
    outer loop
      vertex 166.744 6.39452 153.5
      vertex 169.256 5.933 153.5
      vertex 169.256 -5.933 153.5
    endloop
  endfacet
  facet normal 0.180702 0.983538 0
    outer loop
      vertex 166.744 6.39452 153.5
      vertex 169.256 5.933 293.5
      vertex 169.256 5.933 153.5
    endloop
  endfacet
  facet normal 0 0 1
    outer loop
      vertex 166.744 6.39452 293.5
      vertex 169.256 -5.933 293.5
      vertex 169.256 5.933 293.5
    endloop
  endfacet
  facet normal 0 0 -1
    outer loop
      vertex 169.256 -5.933 153.5
      vertex 169.256 5.933 153.5
      vertex 171.748 -5.384 153.5
    endloop
  endfacet
  facet normal 0.215146 -0.976582 0
    outer loop
      vertex 169.256 -5.933 153.5
      vertex 171.748 -5.384 153.5
      vertex 169.256 -5.933 293.5
    endloop
  endfacet
  facet normal 0.215146 -0.976582 0
    outer loop
      vertex 169.256 -5.933 293.5
      vertex 171.748 -5.384 153.5
      vertex 171.748 -5.384 293.5
    endloop
  endfacet
  facet normal 0 0 1
    outer loop
      vertex 169.256 -5.933 293.5
      vertex 171.748 -5.384 293.5
      vertex 169.256 5.933 293.5
    endloop
  endfacet
  facet normal 0.215146 0.976582 -0
    outer loop
      vertex 169.256 5.933 153.5
      vertex 169.256 5.933 293.5
      vertex 171.748 5.384 293.5
    endloop
  endfacet
  facet normal 0 0 -1
    outer loop
      vertex 169.256 5.933 153.5
      vertex 171.748 5.384 153.5
      vertex 171.748 -5.384 153.5
    endloop
  endfacet
  facet normal 0.215146 0.976582 0
    outer loop
      vertex 169.256 5.933 153.5
      vertex 171.748 5.384 293.5
      vertex 171.748 5.384 153.5
    endloop
  endfacet
  facet normal 0 -0 1
    outer loop
      vertex 169.256 5.933 293.5
      vertex 171.748 -5.384 293.5
      vertex 171.748 5.384 293.5
    endloop
  endfacet
  facet normal 0 0 -1
    outer loop
      vertex 171.748 -5.384 153.5
      vertex 171.748 5.384 153.5
      vertex 174.18 -4.7737 153.5
    endloop
  endfacet
  facet normal 0.243399 -0.969926 0
    outer loop
      vertex 171.748 -5.384 153.5
      vertex 174.18 -4.7737 153.5
      vertex 171.748 -5.384 293.5
    endloop
  endfacet
  facet normal 0.243399 -0.969926 0
    outer loop
      vertex 171.748 -5.384 293.5
      vertex 174.18 -4.7737 153.5
      vertex 174.18 -4.7737 293.5
    endloop
  endfacet
  facet normal 0 0 1
    outer loop
      vertex 171.748 -5.384 293.5
      vertex 174.18 -4.7737 293.5
      vertex 171.748 5.384 293.5
    endloop
  endfacet
  facet normal 0.243399 0.969926 -0
    outer loop
      vertex 171.748 5.384 153.5
      vertex 171.748 5.384 293.5
      vertex 174.18 4.7737 293.5
    endloop
  endfacet
  facet normal 0 0 -1
    outer loop
      vertex 171.748 5.384 153.5
      vertex 174.18 4.7737 153.5
      vertex 174.18 -4.7737 153.5
    endloop
  endfacet
  facet normal 0.243399 0.969926 0
    outer loop
      vertex 171.748 5.384 153.5
      vertex 174.18 4.7737 293.5
      vertex 174.18 4.7737 153.5
    endloop
  endfacet
  facet normal 0 -0 1
    outer loop
      vertex 171.748 5.384 293.5
      vertex 174.18 -4.7737 293.5
      vertex 174.18 4.7737 293.5
    endloop
  endfacet
  facet normal 0 0 -1
    outer loop
      vertex 174.18 -4.7737 153.5
      vertex 174.18 4.7737 153.5
      vertex 176.516 -4.12691 153.5
    endloop
  endfacet
  facet normal 0.26684 -0.963741 0
    outer loop
      vertex 174.18 -4.7737 153.5
      vertex 176.516 -4.12691 153.5
      vertex 174.18 -4.7737 293.5
    endloop
  endfacet
  facet normal 0.26684 -0.963741 0
    outer loop
      vertex 174.18 -4.7737 293.5
      vertex 176.516 -4.12691 153.5
      vertex 176.516 -4.12691 293.5
    endloop
  endfacet
  facet normal 0 0 1
    outer loop
      vertex 174.18 -4.7737 293.5
      vertex 176.516 -4.12691 293.5
      vertex 174.18 4.7737 293.5
    endloop
  endfacet
  facet normal 0.26684 0.963741 -0
    outer loop
      vertex 174.18 4.7737 153.5
      vertex 174.18 4.7737 293.5
      vertex 176.516 4.12691 293.5
    endloop
  endfacet
  facet normal -0 -0 -1
    outer loop
      vertex 174.18 4.7737 153.5
      vertex 176.516 4.12691 153.5
      vertex 176.516 -4.12691 153.5
    endloop
  endfacet
  facet normal 0.26684 0.963741 0
    outer loop
      vertex 174.18 4.7737 153.5
      vertex 176.516 4.12691 293.5
      vertex 176.516 4.12691 153.5
    endloop
  endfacet
  facet normal 0 0 1
    outer loop
      vertex 174.18 4.7737 293.5
      vertex 176.516 -4.12691 293.5
      vertex 176.516 4.12691 293.5
    endloop
  endfacet
  facet normal 0 0 -1
    outer loop
      vertex 176.516 -4.12691 153.5
      vertex 176.516 4.12691 153.5
      vertex 178.717 -3.46695 153.5
    endloop
  endfacet
  facet normal 0.287212 -0.957867 0
    outer loop
      vertex 176.516 -4.12691 153.5
      vertex 178.717 -3.46695 153.5
      vertex 176.516 -4.12691 293.5
    endloop
  endfacet
  facet normal 0.287212 -0.957867 0
    outer loop
      vertex 176.516 -4.12691 293.5
      vertex 178.717 -3.46695 153.5
      vertex 178.717 -3.46695 293.5
    endloop
  endfacet
  facet normal 0 0 1
    outer loop
      vertex 176.516 -4.12691 293.5
      vertex 178.717 -3.46695 293.5
      vertex 176.516 4.12691 293.5
    endloop
  endfacet
  facet normal 0.287212 0.957867 -0
    outer loop
      vertex 176.516 4.12691 153.5
      vertex 176.516 4.12691 293.5
      vertex 178.717 3.46695 293.5
    endloop
  endfacet
  facet normal -0 -0 -1
    outer loop
      vertex 176.516 4.12691 153.5
      vertex 178.717 3.46695 153.5
      vertex 178.717 -3.46695 153.5
    endloop
  endfacet
  facet normal 0.287212 0.957867 0
    outer loop
      vertex 176.516 4.12691 153.5
      vertex 178.717 3.46695 293.5
      vertex 178.717 3.46695 153.5
    endloop
  endfacet
  facet normal 0 0 1
    outer loop
      vertex 176.516 4.12691 293.5
      vertex 178.717 -3.46695 293.5
      vertex 178.717 3.46695 293.5
    endloop
  endfacet
  facet normal 0 0 -1
    outer loop
      vertex 178.717 -3.46695 153.5
      vertex 178.717 3.46695 153.5
      vertex 180.748 -2.81577 153.5
    endloop
  endfacet
  facet normal 0.305312 -0.952253 0
    outer loop
      vertex 178.717 -3.46695 153.5
      vertex 180.748 -2.81577 153.5
      vertex 178.717 -3.46695 293.5
    endloop
  endfacet
  facet normal 0.305312 -0.952253 0
    outer loop
      vertex 178.717 -3.46695 293.5
      vertex 180.748 -2.81577 153.5
      vertex 180.748 -2.81577 293.5
    endloop
  endfacet
  facet normal 0 0 1
    outer loop
      vertex 178.717 -3.46695 293.5
      vertex 180.748 -2.81577 293.5
      vertex 178.717 3.46695 293.5
    endloop
  endfacet
  facet normal 0.305312 0.952253 -0
    outer loop
      vertex 178.717 3.46695 153.5
      vertex 178.717 3.46695 293.5
      vertex 180.748 2.81577 293.5
    endloop
  endfacet
  facet normal -0 -0 -1
    outer loop
      vertex 178.717 3.46695 153.5
      vertex 180.748 2.81577 153.5
      vertex 180.748 -2.81577 153.5
    endloop
  endfacet
  facet normal 0.305312 0.952253 0
    outer loop
      vertex 178.717 3.46695 153.5
      vertex 180.748 2.81577 293.5
      vertex 180.748 2.81577 153.5
    endloop
  endfacet
  facet normal 0 0 1
    outer loop
      vertex 178.717 3.46695 293.5
      vertex 180.748 -2.81577 293.5
      vertex 180.748 2.81577 293.5
    endloop
  endfacet
  facet normal 0 0 -1
    outer loop
      vertex 180.748 -2.81577 153.5
      vertex 180.748 2.81577 153.5
      vertex 182.579 -2.19443 153.5
    endloop
  endfacet
  facet normal 0.321346 -0.946962 0
    outer loop
      vertex 180.748 -2.81577 153.5
      vertex 182.579 -2.19443 153.5
      vertex 180.748 -2.81577 293.5
    endloop
  endfacet
  facet normal 0.321346 -0.946962 0
    outer loop
      vertex 180.748 -2.81577 293.5
      vertex 182.579 -2.19443 153.5
      vertex 182.579 -2.19443 293.5
    endloop
  endfacet
  facet normal 0 0 1
    outer loop
      vertex 180.748 -2.81577 293.5
      vertex 182.579 -2.19443 293.5
      vertex 180.748 2.81577 293.5
    endloop
  endfacet
  facet normal 0.321346 0.946962 -0
    outer loop
      vertex 180.748 2.81577 153.5
      vertex 180.748 2.81577 293.5
      vertex 182.579 2.19443 293.5
    endloop
  endfacet
  facet normal 0 0 -1
    outer loop
      vertex 180.748 2.81577 153.5
      vertex 182.579 2.19443 153.5
      vertex 182.579 -2.19443 153.5
    endloop
  endfacet
  facet normal 0.321346 0.946962 0
    outer loop
      vertex 180.748 2.81577 153.5
      vertex 182.579 2.19443 293.5
      vertex 182.579 2.19443 153.5
    endloop
  endfacet
  facet normal 0 -0 1
    outer loop
      vertex 180.748 2.81577 293.5
      vertex 182.579 -2.19443 293.5
      vertex 182.579 2.19443 293.5
    endloop
  endfacet
  facet normal 0 0 -1
    outer loop
      vertex 182.579 -2.19443 153.5
      vertex 182.579 2.19443 153.5
      vertex 184.18 -1.62334 153.5
    endloop
  endfacet
  facet normal 0.335973 -0.941871 0
    outer loop
      vertex 182.579 -2.19443 153.5
      vertex 184.18 -1.62334 153.5
      vertex 182.579 -2.19443 293.5
    endloop
  endfacet
  facet normal 0.335973 -0.941871 0
    outer loop
      vertex 182.579 -2.19443 293.5
      vertex 184.18 -1.62334 153.5
      vertex 184.18 -1.62334 293.5
    endloop
  endfacet
  facet normal 0 0 1
    outer loop
      vertex 182.579 -2.19443 293.5
      vertex 184.18 -1.62334 293.5
      vertex 182.579 2.19443 293.5
    endloop
  endfacet
  facet normal 0.335973 0.941871 -0
    outer loop
      vertex 182.579 2.19443 153.5
      vertex 182.579 2.19443 293.5
      vertex 184.18 1.62334 293.5
    endloop
  endfacet
  facet normal 0 0 -1
    outer loop
      vertex 182.579 2.19443 153.5
      vertex 184.18 1.62334 153.5
      vertex 184.18 -1.62334 153.5
    endloop
  endfacet
  facet normal 0.335973 0.941871 0
    outer loop
      vertex 182.579 2.19443 153.5
      vertex 184.18 1.62334 293.5
      vertex 184.18 1.62334 153.5
    endloop
  endfacet
  facet normal 0 -0 1
    outer loop
      vertex 182.579 2.19443 293.5
      vertex 184.18 -1.62334 293.5
      vertex 184.18 1.62334 293.5
    endloop
  endfacet
  facet normal 0 0 -1
    outer loop
      vertex 184.18 -1.62334 153.5
      vertex 184.18 1.62334 153.5
      vertex 185.526 -1.12221 153.5
    endloop
  endfacet
  facet normal 0.348913 -0.937155 0
    outer loop
      vertex 184.18 -1.62334 153.5
      vertex 185.526 -1.12221 153.5
      vertex 184.18 -1.62334 293.5
    endloop
  endfacet
  facet normal 0.348913 -0.937155 0
    outer loop
      vertex 184.18 -1.62334 293.5
      vertex 185.526 -1.12221 153.5
      vertex 185.526 -1.12221 293.5
    endloop
  endfacet
  facet normal 0 0 1
    outer loop
      vertex 184.18 -1.62334 293.5
      vertex 185.526 -1.12221 293.5
      vertex 184.18 1.62334 293.5
    endloop
  endfacet
  facet normal 0.348913 0.937155 -0
    outer loop
      vertex 184.18 1.62334 153.5
      vertex 184.18 1.62334 293.5
      vertex 185.526 1.12221 293.5
    endloop
  endfacet
  facet normal 0 0 -1
    outer loop
      vertex 184.18 1.62334 153.5
      vertex 185.526 1.12221 153.5
      vertex 185.526 -1.12221 153.5
    endloop
  endfacet
  facet normal 0.348913 0.937155 0
    outer loop
      vertex 184.18 1.62334 153.5
      vertex 185.526 1.12221 293.5
      vertex 185.526 1.12221 153.5
    endloop
  endfacet
  facet normal 0 -0 1
    outer loop
      vertex 184.18 1.62334 293.5
      vertex 185.526 -1.12221 293.5
      vertex 185.526 1.12221 293.5
    endloop
  endfacet
  facet normal 0 0 -1
    outer loop
      vertex 185.526 -1.12221 153.5
      vertex 185.526 1.12221 153.5
      vertex 186.596 -0.709564 153.5
    endloop
  endfacet
  facet normal 0.35982 -0.933022 0
    outer loop
      vertex 185.526 -1.12221 153.5
      vertex 186.596 -0.709564 153.5
      vertex 185.526 -1.12221 293.5
    endloop
  endfacet
  facet normal 0.35982 -0.933022 0
    outer loop
      vertex 185.526 -1.12221 293.5
      vertex 186.596 -0.709564 153.5
      vertex 186.596 -0.709564 293.5
    endloop
  endfacet
  facet normal 0 0 1
    outer loop
      vertex 185.526 -1.12221 293.5
      vertex 186.596 -0.709564 293.5
      vertex 185.526 1.12221 293.5
    endloop
  endfacet
  facet normal 0.35982 0.933022 -0
    outer loop
      vertex 185.526 1.12221 153.5
      vertex 185.526 1.12221 293.5
      vertex 186.596 0.709564 293.5
    endloop
  endfacet
  facet normal 0 0 -1
    outer loop
      vertex 185.526 1.12221 153.5
      vertex 186.596 0.709564 153.5
      vertex 186.596 -0.709564 153.5
    endloop
  endfacet
  facet normal 0.35982 0.933022 0
    outer loop
      vertex 185.526 1.12221 153.5
      vertex 186.596 0.709564 293.5
      vertex 186.596 0.709564 153.5
    endloop
  endfacet
  facet normal 0 0 1
    outer loop
      vertex 185.526 1.12221 293.5
      vertex 186.596 -0.709564 293.5
      vertex 186.596 0.709564 293.5
    endloop
  endfacet
  facet normal -0 0 -1
    outer loop
      vertex 186.596 -0.709564 153.5
      vertex 186.596 0.709564 153.5
      vertex 187.372 -0.401657 153.5
    endloop
  endfacet
  facet normal 0.368815 -0.929503 0
    outer loop
      vertex 186.596 -0.709564 153.5
      vertex 187.372 -0.401657 153.5
      vertex 186.596 -0.709564 293.5
    endloop
  endfacet
  facet normal 0.368815 -0.929503 0
    outer loop
      vertex 186.596 -0.709564 293.5
      vertex 187.372 -0.401657 153.5
      vertex 187.372 -0.401657 293.5
    endloop
  endfacet
  facet normal 0 0 1
    outer loop
      vertex 186.596 -0.709564 293.5
      vertex 187.372 -0.401657 293.5
      vertex 186.596 0.709564 293.5
    endloop
  endfacet
  facet normal 0.368815 0.929503 -0
    outer loop
      vertex 186.596 0.709564 153.5
      vertex 186.596 0.709564 293.5
      vertex 187.372 0.401657 293.5
    endloop
  endfacet
  facet normal -0 -0 -1
    outer loop
      vertex 186.596 0.709564 153.5
      vertex 187.372 0.401657 153.5
      vertex 187.372 -0.401657 153.5
    endloop
  endfacet
  facet normal 0.368815 0.929503 0
    outer loop
      vertex 186.596 0.709564 153.5
      vertex 187.372 0.401657 293.5
      vertex 187.372 0.401657 153.5
    endloop
  endfacet
  facet normal 0 0 1
    outer loop
      vertex 186.596 0.709564 293.5
      vertex 187.372 -0.401657 293.5
      vertex 187.372 0.401657 293.5
    endloop
  endfacet
  facet normal 0 0 -1
    outer loop
      vertex 187.372 -0.401657 153.5
      vertex 187.372 0.401657 153.5
      vertex 187.842 -0.21138 153.5
    endloop
  endfacet
  facet normal 0.375259 -0.92692 0
    outer loop
      vertex 187.372 -0.401657 153.5
      vertex 187.842 -0.21138 153.5
      vertex 187.372 -0.401657 293.5
    endloop
  endfacet
  facet normal 0.375259 -0.92692 0
    outer loop
      vertex 187.372 -0.401657 293.5
      vertex 187.842 -0.21138 153.5
      vertex 187.842 -0.21138 293.5
    endloop
  endfacet
  facet normal 0 0 1
    outer loop
      vertex 187.372 -0.401657 293.5
      vertex 187.842 -0.21138 293.5
      vertex 187.372 0.401657 293.5
    endloop
  endfacet
  facet normal 0.375259 0.92692 -0
    outer loop
      vertex 187.372 0.401657 153.5
      vertex 187.372 0.401657 293.5
      vertex 187.842 0.21138 293.5
    endloop
  endfacet
  facet normal 0 0 -1
    outer loop
      vertex 187.372 0.401657 153.5
      vertex 187.842 0.21138 153.5
      vertex 187.842 -0.21138 153.5
    endloop
  endfacet
  facet normal 0.375259 0.92692 0
    outer loop
      vertex 187.372 0.401657 153.5
      vertex 187.842 0.21138 293.5
      vertex 187.842 0.21138 153.5
    endloop
  endfacet
  facet normal 0 -0 1
    outer loop
      vertex 187.372 0.401657 293.5
      vertex 187.842 -0.21138 293.5
      vertex 187.842 0.21138 293.5
    endloop
  endfacet
  facet normal 0 0 -1
    outer loop
      vertex 187.842 -0.21138 153.5
      vertex 187.842 0.21138 153.5
      vertex 188 -0.146988 153.5
    endloop
  endfacet
  facet normal 0.377406 -0.926048 0
    outer loop
      vertex 187.842 -0.21138 153.5
      vertex 188 -0.146988 153.5
      vertex 187.842 -0.21138 293.5
    endloop
  endfacet
  facet normal 0.377406 -0.926048 0
    outer loop
      vertex 187.842 -0.21138 293.5
      vertex 188 -0.146988 153.5
      vertex 188 -0.146988 293.5
    endloop
  endfacet
  facet normal 0 0 1
    outer loop
      vertex 187.842 -0.21138 293.5
      vertex 188 -0.146988 293.5
      vertex 187.842 0.21138 293.5
    endloop
  endfacet
  facet normal 0.915015 0.403419 -0
    outer loop
      vertex 187.842 0.21138 153.5
      vertex 187.842 0.21138 293.5
      vertex 188 -0.146988 293.5
    endloop
  endfacet
  facet normal 0.915015 0.403419 0
    outer loop
      vertex 187.842 0.21138 153.5
      vertex 188 -0.146988 293.5
      vertex 188 -0.146988 153.5
    endloop
  endfacet
endsolid model
