solid model
  facet normal -0.866025 -0 -0.5
    outer loop
      vertex 128.4 -100 0
      vertex 128.4 100 0
      vertex 129.2 -100 -1.38564
    endloop
  endfacet
  facet normal 0 -1 0
    outer loop
      vertex 128.4 -100 0
      vertex 129.2 -100 -1.38564
      vertex 131.6 -100 0
    endloop
  endfacet
  facet normal -0.866025 0 0.5
    outer loop
      vertex 128.4 -100 0
      vertex 129.2 -100 1.38564
      vertex 129.2 100 1.38564
    endloop
  endfacet
  facet normal -0.866025 0 0.5
    outer loop
      vertex 128.4 -100 0
      vertex 129.2 100 1.38564
      vertex 128.4 100 0
    endloop
  endfacet
  facet normal 0 -1 0
    outer loop
      vertex 128.4 -100 0
      vertex 130.8 -100 1.38564
      vertex 129.2 -100 1.38564
    endloop
  endfacet
  facet normal 0 -1 0
    outer loop
      vertex 128.4 -100 0
      vertex 131.6 -100 0
      vertex 130.8 -100 1.38564
    endloop
  endfacet
  facet normal -0.866025 0 -0.5
    outer loop
      vertex 128.4 100 0
      vertex 129.2 100 -1.38564
      vertex 129.2 -100 -1.38564
    endloop
  endfacet
  facet normal 0 1 0
    outer loop
      vertex 128.4 100 0
      vertex 129.2 100 1.38564
      vertex 131.6 100 0
    endloop
  endfacet
  facet normal 0 1 0
    outer loop
      vertex 128.4 100 0
      vertex 130.8 100 -1.38564
      vertex 129.2 100 -1.38564
    endloop
  endfacet
  facet normal 0 1 -0
    outer loop
      vertex 128.4 100 0
      vertex 131.6 100 0
      vertex 130.8 100 -1.38564
    endloop
  endfacet
  facet normal -0 0 -1
    outer loop
      vertex 129.2 -100 -1.38564
      vertex 129.2 100 -1.38564
      vertex 130.8 100 -1.38564
    endloop
  endfacet
  facet normal 0 -1 0
    outer loop
      vertex 129.2 -100 -1.38564
      vertex 130.8 -100 -1.38564
      vertex 131.6 -100 0
    endloop
  endfacet
  facet normal 0 0 -1
    outer loop
      vertex 129.2 -100 -1.38564
      vertex 130.8 100 -1.38564
      vertex 130.8 -100 -1.38564
    endloop
  endfacet
  facet normal 0 0 1
    outer loop
      vertex 129.2 -100 1.38564
      vertex 130.8 -100 1.38564
      vertex 129.2 100 1.38564
    endloop
  endfacet
  facet normal -0 0 1
    outer loop
      vertex 129.2 100 1.38564
      vertex 130.8 -100 1.38564
      vertex 130.8 100 1.38564
    endloop
  endfacet
  facet normal 0 1 0
    outer loop
      vertex 129.2 100 1.38564
      vertex 130.8 100 1.38564
      vertex 131.6 100 0
    endloop
  endfacet
  facet normal 0.866025 0 -0.5
    outer loop
      vertex 130.8 -100 -1.38564
      vertex 130.8 100 -1.38564
      vertex 131.6 -100 0
    endloop
  endfacet
  facet normal 0.866025 0 0.5
    outer loop
      vertex 130.8 -100 1.38564
      vertex 131.6 -100 0
      vertex 131.6 100 0
    endloop
  endfacet
  facet normal 0.866025 -0 0.5
    outer loop
      vertex 130.8 -100 1.38564
      vertex 131.6 100 0
      vertex 130.8 100 1.38564
    endloop
  endfacet
  facet normal 0.866025 0 -0.5
    outer loop
      vertex 130.8 100 -1.38564
      vertex 131.6 100 0
      vertex 131.6 -100 0
    endloop
  endfacet
  facet normal -1 -0 0
    outer loop
      vertex 135 -50 -100
      vertex 135 -50 100
      vertex 135 50 100
    endloop
  endfacet
  facet normal -0 0 -1
    outer loop
      vertex 135 -50 -100
      vertex 135 50 -100
      vertex 405 50 -100
    endloop
  endfacet
  facet normal -1 0 0
    outer loop
      vertex 135 -50 -100
      vertex 135 50 100
      vertex 135 50 -100
    endloop
  endfacet
  facet normal 0 -1 0
    outer loop
      vertex 135 -50 -100
      vertex 168.4 -50 0
      vertex 135 -50 100
    endloop
  endfacet
  facet normal 0 -1 -0
    outer loop
      vertex 135 -50 -100
      vertex 169.2 -50 -1.38564
      vertex 168.4 -50 0
    endloop
  endfacet
  facet normal 0 -1 0
    outer loop
      vertex 135 -50 -100
      vertex 170.8 -50 -1.38564
      vertex 169.2 -50 -1.38564
    endloop
  endfacet
  facet normal 0 -1 -0
    outer loop
      vertex 135 -50 -100
      vertex 259.2 -50 -1.38564
      vertex 170.8 -50 -1.38564
    endloop
  endfacet
  facet normal 0 -1 -0
    outer loop
      vertex 135 -50 -100
      vertex 260.8 -50 -1.38564
      vertex 259.2 -50 -1.38564
    endloop
  endfacet
  facet normal 0 -1 0
    outer loop
      vertex 135 -50 -100
      vertex 405 -50 -100
      vertex 260.8 -50 -1.38564
    endloop
  endfacet
  facet normal 0 0 -1
    outer loop
      vertex 135 -50 -100
      vertex 405 50 -100
      vertex 405 -50 -100
    endloop
  endfacet
  facet normal 0 -1 0
    outer loop
      vertex 135 -50 100
      vertex 168.4 -50 0
      vertex 169.2 -50 1.38564
    endloop
  endfacet
  facet normal 0 -1 0
    outer loop
      vertex 135 -50 100
      vertex 169.2 -50 1.38564
      vertex 170.8 -50 1.38564
    endloop
  endfacet
  facet normal 0 -1 0
    outer loop
      vertex 135 -50 100
      vertex 170.8 -50 1.38564
      vertex 259.2 -50 1.38564
    endloop
  endfacet
  facet normal 0 -1 0
    outer loop
      vertex 135 -50 100
      vertex 259.2 -50 1.38564
      vertex 260.8 -50 1.38564
    endloop
  endfacet
  facet normal 0 -1 0
    outer loop
      vertex 135 -50 100
      vertex 260.8 -50 1.38564
      vertex 405 -50 100
    endloop
  endfacet
  facet normal 0 0 1
    outer loop
      vertex 135 -50 100
      vertex 405 -50 100
      vertex 135 50 100
    endloop
  endfacet
  facet normal 0 1 0
    outer loop
      vertex 135 50 -100
      vertex 135 50 100
      vertex 168.4 50 0
    endloop
  endfacet
  facet normal 0 1 0
    outer loop
      vertex 135 50 -100
      vertex 168.4 50 0
      vertex 169.2 50 -1.38564
    endloop
  endfacet
  facet normal 0 1 0
    outer loop
      vertex 135 50 -100
      vertex 169.2 50 -1.38564
      vertex 170.8 50 -1.38564
    endloop
  endfacet
  facet normal 0 1 0
    outer loop
      vertex 135 50 -100
      vertex 170.8 50 -1.38564
      vertex 259.2 50 -1.38564
    endloop
  endfacet
  facet normal 0 1 0
    outer loop
      vertex 135 50 -100
      vertex 259.2 50 -1.38564
      vertex 260.8 50 -1.38564
    endloop
  endfacet
  facet normal 0 1 0
    outer loop
      vertex 135 50 -100
      vertex 260.8 50 -1.38564
      vertex 405 50 -100
    endloop
  endfacet
  facet normal 0 1 -0
    outer loop
      vertex 135 50 100
      vertex 169.2 50 1.38564
      vertex 168.4 50 0
    endloop
  endfacet
  facet normal 0 1 -0
    outer loop
      vertex 135 50 100
      vertex 170.8 50 1.38564
      vertex 169.2 50 1.38564
    endloop
  endfacet
  facet normal 0 1 -0
    outer loop
      vertex 135 50 100
      vertex 259.2 50 1.38564
      vertex 170.8 50 1.38564
    endloop
  endfacet
  facet normal 0 1 -0
    outer loop
      vertex 135 50 100
      vertex 260.8 50 1.38564
      vertex 259.2 50 1.38564
    endloop
  endfacet
  facet normal -0 0 1
    outer loop
      vertex 135 50 100
      vertex 405 -50 100
      vertex 405 50 100
    endloop
  endfacet
  facet normal 0 1 0
    outer loop
      vertex 135 50 100
      vertex 405 50 100
      vertex 260.8 50 1.38564
    endloop
  endfacet
  facet normal -0.866025 -0 -0.5
    outer loop
      vertex 168.4 -100 0
      vertex 168.4 -50 0
      vertex 169.2 -100 -1.38564
    endloop
  endfacet
  facet normal 0 -1 0
    outer loop
      vertex 168.4 -100 0
      vertex 169.2 -100 -1.38564
      vertex 171.6 -100 0
    endloop
  endfacet
  facet normal -0.866025 0 0.5
    outer loop
      vertex 168.4 -100 0
      vertex 169.2 -100 1.38564
      vertex 169.2 -50 1.38564
    endloop
  endfacet
  facet normal -0.866025 0 0.5
    outer loop
      vertex 168.4 -100 0
      vertex 169.2 -50 1.38564
      vertex 168.4 -50 0
    endloop
  endfacet
  facet normal 0 -1 0
    outer loop
      vertex 168.4 -100 0
      vertex 170.8 -100 1.38564
      vertex 169.2 -100 1.38564
    endloop
  endfacet
  facet normal 0 -1 0
    outer loop
      vertex 168.4 -100 0
      vertex 171.6 -100 0
      vertex 170.8 -100 1.38564
    endloop
  endfacet
  facet normal -0.866025 0 -0.5
    outer loop
      vertex 168.4 -50 0
      vertex 169.2 -50 -1.38564
      vertex 169.2 -100 -1.38564
    endloop
  endfacet
  facet normal -0.866025 0 -0.5
    outer loop
      vertex 168.4 100 0
      vertex 169.2 100 -1.38564
      vertex 169.2 50 -1.38564
    endloop
  endfacet
  facet normal 0 1 0
    outer loop
      vertex 168.4 100 0
      vertex 169.2 100 1.38564
      vertex 171.6 100 0
    endloop
  endfacet
  facet normal 0 1 0
    outer loop
      vertex 168.4 100 0
      vertex 170.8 100 -1.38564
      vertex 169.2 100 -1.38564
    endloop
  endfacet
  facet normal 0 1 -0
    outer loop
      vertex 168.4 100 0
      vertex 171.6 100 0
      vertex 170.8 100 -1.38564
    endloop
  endfacet
  facet normal -0.866025 -0 -0.5
    outer loop
      vertex 168.4 50 0
      vertex 168.4 100 0
      vertex 169.2 50 -1.38564
    endloop
  endfacet
  facet normal -0.866025 0 0.5
    outer loop
      vertex 168.4 50 0
      vertex 169.2 100 1.38564
      vertex 168.4 100 0
    endloop
  endfacet
  facet normal -0.866025 0 0.5
    outer loop
      vertex 168.4 50 0
      vertex 169.2 50 1.38564
      vertex 169.2 100 1.38564
    endloop
  endfacet
  facet normal -0 0 -1
    outer loop
      vertex 169.2 -100 -1.38564
      vertex 169.2 -50 -1.38564
      vertex 170.8 -50 -1.38564
    endloop
  endfacet
  facet normal 0 -1 0
    outer loop
      vertex 169.2 -100 -1.38564
      vertex 170.8 -100 -1.38564
      vertex 171.6 -100 0
    endloop
  endfacet
  facet normal 0 0 -1
    outer loop
      vertex 169.2 -100 -1.38564
      vertex 170.8 -50 -1.38564
      vertex 170.8 -100 -1.38564
    endloop
  endfacet
  facet normal 0 0 1
    outer loop
      vertex 169.2 -100 1.38564
      vertex 170.8 -100 1.38564
      vertex 169.2 -50 1.38564
    endloop
  endfacet
  facet normal -0 0 1
    outer loop
      vertex 169.2 -50 1.38564
      vertex 170.8 -100 1.38564
      vertex 170.8 -50 1.38564
    endloop
  endfacet
  facet normal 0 1 0
    outer loop
      vertex 169.2 100 1.38564
      vertex 170.8 100 1.38564
      vertex 171.6 100 0
    endloop
  endfacet
  facet normal -0 0 1
    outer loop
      vertex 169.2 100 1.38564
      vertex 170.8 50 1.38564
      vertex 170.8 100 1.38564
    endloop
  endfacet
  facet normal -0 0 -1
    outer loop
      vertex 169.2 50 -1.38564
      vertex 169.2 100 -1.38564
      vertex 170.8 100 -1.38564
    endloop
  endfacet
  facet normal 0 0 -1
    outer loop
      vertex 169.2 50 -1.38564
      vertex 170.8 100 -1.38564
      vertex 170.8 50 -1.38564
    endloop
  endfacet
  facet normal 0 0 1
    outer loop
      vertex 169.2 50 1.38564
      vertex 170.8 50 1.38564
      vertex 169.2 100 1.38564
    endloop
  endfacet
  facet normal 0.866025 0 -0.5
    outer loop
      vertex 170.8 -100 -1.38564
      vertex 170.8 -50 -1.38564
      vertex 171.6 -100 0
    endloop
  endfacet
  facet normal 0.866025 0 0.5
    outer loop
      vertex 170.8 -100 1.38564
      vertex 171.6 -100 0
      vertex 171.6 -50 0
    endloop
  endfacet
  facet normal 0.866025 -0 0.5
    outer loop
      vertex 170.8 -100 1.38564
      vertex 171.6 -50 0
      vertex 170.8 -50 1.38564
    endloop
  endfacet
  facet normal 0.866025 0 -0.5
    outer loop
      vertex 170.8 -50 -1.38564
      vertex 171.6 -50 0
      vertex 171.6 -100 0
    endloop
  endfacet
  facet normal 0 -1 0
    outer loop
      vertex 170.8 -50 -1.38564
      vertex 258.4 -50 0
      vertex 171.6 -50 0
    endloop
  endfacet
  facet normal 0 -1 -0
    outer loop
      vertex 170.8 -50 -1.38564
      vertex 259.2 -50 -1.38564
      vertex 258.4 -50 0
    endloop
  endfacet
  facet normal 0 -1 0
    outer loop
      vertex 170.8 -50 1.38564
      vertex 171.6 -50 0
      vertex 259.2 -50 1.38564
    endloop
  endfacet
  facet normal 0.866025 0 -0.5
    outer loop
      vertex 170.8 100 -1.38564
      vertex 171.6 100 0
      vertex 171.6 50 0
    endloop
  endfacet
  facet normal 0.866025 0 -0.5
    outer loop
      vertex 170.8 50 -1.38564
      vertex 170.8 100 -1.38564
      vertex 171.6 50 0
    endloop
  endfacet
  facet normal 0 1 0
    outer loop
      vertex 170.8 50 -1.38564
      vertex 171.6 50 0
      vertex 259.2 50 -1.38564
    endloop
  endfacet
  facet normal 0.866025 -0 0.5
    outer loop
      vertex 170.8 50 1.38564
      vertex 171.6 100 0
      vertex 170.8 100 1.38564
    endloop
  endfacet
  facet normal 0.866025 0 0.5
    outer loop
      vertex 170.8 50 1.38564
      vertex 171.6 50 0
      vertex 171.6 100 0
    endloop
  endfacet
  facet normal 0 1 0
    outer loop
      vertex 170.8 50 1.38564
      vertex 258.4 50 0
      vertex 171.6 50 0
    endloop
  endfacet
  facet normal 0 1 -0
    outer loop
      vertex 170.8 50 1.38564
      vertex 259.2 50 1.38564
      vertex 258.4 50 0
    endloop
  endfacet
  facet normal 0 -1 0
    outer loop
      vertex 171.6 -50 0
      vertex 258.4 -50 0
      vertex 259.2 -50 1.38564
    endloop
  endfacet
  facet normal 0 1 0
    outer loop
      vertex 171.6 50 0
      vertex 258.4 50 0
      vertex 259.2 50 -1.38564
    endloop
  endfacet
  facet normal -0.866025 -0 -0.5
    outer loop
      vertex 258.4 -100 0
      vertex 258.4 -50 0
      vertex 259.2 -100 -1.38564
    endloop
  endfacet
  facet normal 0 -1 0
    outer loop
      vertex 258.4 -100 0
      vertex 259.2 -100 -1.38564
      vertex 261.6 -100 0
    endloop
  endfacet
  facet normal -0.866025 0 0.5
    outer loop
      vertex 258.4 -100 0
      vertex 259.2 -100 1.38564
      vertex 259.2 -50 1.38564
    endloop
  endfacet
  facet normal -0.866025 0 0.5
    outer loop
      vertex 258.4 -100 0
      vertex 259.2 -50 1.38564
      vertex 258.4 -50 0
    endloop
  endfacet
  facet normal 0 -1 0
    outer loop
      vertex 258.4 -100 0
      vertex 260.8 -100 1.38564
      vertex 259.2 -100 1.38564
    endloop
  endfacet
  facet normal 0 -1 0
    outer loop
      vertex 258.4 -100 0
      vertex 261.6 -100 0
      vertex 260.8 -100 1.38564
    endloop
  endfacet
  facet normal -0.866025 0 -0.5
    outer loop
      vertex 258.4 -50 0
      vertex 259.2 -50 -1.38564
      vertex 259.2 -100 -1.38564
    endloop
  endfacet
  facet normal -0.866025 0 -0.5
    outer loop
      vertex 258.4 100 0
      vertex 259.2 100 -1.38564
      vertex 259.2 50 -1.38564
    endloop
  endfacet
  facet normal 0 1 0
    outer loop
      vertex 258.4 100 0
      vertex 259.2 100 1.38564
      vertex 261.6 100 0
    endloop
  endfacet
  facet normal 0 1 0
    outer loop
      vertex 258.4 100 0
      vertex 260.8 100 -1.38564
      vertex 259.2 100 -1.38564
    endloop
  endfacet
  facet normal 0 1 -0
    outer loop
      vertex 258.4 100 0
      vertex 261.6 100 0
      vertex 260.8 100 -1.38564
    endloop
  endfacet
  facet normal -0.866025 -0 -0.5
    outer loop
      vertex 258.4 50 0
      vertex 258.4 100 0
      vertex 259.2 50 -1.38564
    endloop
  endfacet
  facet normal -0.866025 0 0.5
    outer loop
      vertex 258.4 50 0
      vertex 259.2 100 1.38564
      vertex 258.4 100 0
    endloop
  endfacet
  facet normal -0.866025 0 0.5
    outer loop
      vertex 258.4 50 0
      vertex 259.2 50 1.38564
      vertex 259.2 100 1.38564
    endloop
  endfacet
  facet normal -0 0 -1
    outer loop
      vertex 259.2 -100 -1.38564
      vertex 259.2 -50 -1.38564
      vertex 260.8 -50 -1.38564
    endloop
  endfacet
  facet normal 0 -1 0
    outer loop
      vertex 259.2 -100 -1.38564
      vertex 260.8 -100 -1.38564
      vertex 261.6 -100 0
    endloop
  endfacet
  facet normal 0 0 -1
    outer loop
      vertex 259.2 -100 -1.38564
      vertex 260.8 -50 -1.38564
      vertex 260.8 -100 -1.38564
    endloop
  endfacet
  facet normal 0 0 1
    outer loop
      vertex 259.2 -100 1.38564
      vertex 260.8 -100 1.38564
      vertex 259.2 -50 1.38564
    endloop
  endfacet
  facet normal -0 0 1
    outer loop
      vertex 259.2 -50 1.38564
      vertex 260.8 -100 1.38564
      vertex 260.8 -50 1.38564
    endloop
  endfacet
  facet normal 0 1 0
    outer loop
      vertex 259.2 100 1.38564
      vertex 260.8 100 1.38564
      vertex 261.6 100 0
    endloop
  endfacet
  facet normal -0 0 1
    outer loop
      vertex 259.2 100 1.38564
      vertex 260.8 50 1.38564
      vertex 260.8 100 1.38564
    endloop
  endfacet
  facet normal -0 0 -1
    outer loop
      vertex 259.2 50 -1.38564
      vertex 259.2 100 -1.38564
      vertex 260.8 100 -1.38564
    endloop
  endfacet
  facet normal 0 0 -1
    outer loop
      vertex 259.2 50 -1.38564
      vertex 260.8 100 -1.38564
      vertex 260.8 50 -1.38564
    endloop
  endfacet
  facet normal 0 0 1
    outer loop
      vertex 259.2 50 1.38564
      vertex 260.8 50 1.38564
      vertex 259.2 100 1.38564
    endloop
  endfacet
  facet normal 0.866025 0 -0.5
    outer loop
      vertex 260.8 -100 -1.38564
      vertex 260.8 -50 -1.38564
      vertex 261.6 -100 0
    endloop
  endfacet
  facet normal 0.866025 0 0.5
    outer loop
      vertex 260.8 -100 1.38564
      vertex 261.6 -100 0
      vertex 261.6 -50 0
    endloop
  endfacet
  facet normal 0.866025 -0 0.5
    outer loop
      vertex 260.8 -100 1.38564
      vertex 261.6 -50 0
      vertex 260.8 -50 1.38564
    endloop
  endfacet
  facet normal 0.866025 0 -0.5
    outer loop
      vertex 260.8 -50 -1.38564
      vertex 261.6 -50 0
      vertex 261.6 -100 0
    endloop
  endfacet
  facet normal 0 -1 0
    outer loop
      vertex 260.8 -50 -1.38564
      vertex 405 -50 -100
      vertex 261.6 -50 0
    endloop
  endfacet
  facet normal 0 -1 0
    outer loop
      vertex 260.8 -50 1.38564
      vertex 261.6 -50 0
      vertex 405 -50 100
    endloop
  endfacet
  facet normal 0.866025 0 -0.5
    outer loop
      vertex 260.8 100 -1.38564
      vertex 261.6 100 0
      vertex 261.6 50 0
    endloop
  endfacet
  facet normal 0.866025 0 -0.5
    outer loop
      vertex 260.8 50 -1.38564
      vertex 260.8 100 -1.38564
      vertex 261.6 50 0
    endloop
  endfacet
  facet normal 0 1 0
    outer loop
      vertex 260.8 50 -1.38564
      vertex 261.6 50 0
      vertex 405 50 -100
    endloop
  endfacet
  facet normal 0.866025 -0 0.5
    outer loop
      vertex 260.8 50 1.38564
      vertex 261.6 100 0
      vertex 260.8 100 1.38564
    endloop
  endfacet
  facet normal 0.866025 0 0.5
    outer loop
      vertex 260.8 50 1.38564
      vertex 261.6 50 0
      vertex 261.6 100 0
    endloop
  endfacet
  facet normal 0 1 0
    outer loop
      vertex 260.8 50 1.38564
      vertex 405 50 100
      vertex 261.6 50 0
    endloop
  endfacet
  facet normal 0 -1 0
    outer loop
      vertex 261.6 -50 0
      vertex 405 -50 -100
      vertex 405 -50 100
    endloop
  endfacet
  facet normal 0 1 -0
    outer loop
      vertex 261.6 50 0
      vertex 405 50 100
      vertex 405 50 -100
    endloop
  endfacet
  facet normal 1 0 0
    outer loop
      vertex 405 -50 -100
      vertex 405 50 -100
      vertex 405 -50 100
    endloop
  endfacet
  facet normal 1 -0 0
    outer loop
      vertex 405 -50 100
      vertex 405 50 -100
      vertex 405 50 100
    endloop
  endfacet
  facet normal -0.866025 -0 -0.5
    outer loop
      vertex 48.4 -100 0
      vertex 48.4 100 0
      vertex 49.2 -100 -1.38564
    endloop
  endfacet
  facet normal 0 -1 0
    outer loop
      vertex 48.4 -100 0
      vertex 49.2 -100 -1.38564
      vertex 51.6 -100 0
    endloop
  endfacet
  facet normal -0.866025 0 0.5
    outer loop
      vertex 48.4 -100 0
      vertex 49.2 -100 1.38564
      vertex 49.2 100 1.38564
    endloop
  endfacet
  facet normal -0.866025 0 0.5
    outer loop
      vertex 48.4 -100 0
      vertex 49.2 100 1.38564
      vertex 48.4 100 0
    endloop
  endfacet
  facet normal 0 -1 0
    outer loop
      vertex 48.4 -100 0
      vertex 50.8 -100 1.38564
      vertex 49.2 -100 1.38564
    endloop
  endfacet
  facet normal 0 -1 0
    outer loop
      vertex 48.4 -100 0
      vertex 51.6 -100 0
      vertex 50.8 -100 1.38564
    endloop
  endfacet
  facet normal -0.866025 0 -0.5
    outer loop
      vertex 48.4 100 0
      vertex 49.2 100 -1.38564
      vertex 49.2 -100 -1.38564
    endloop
  endfacet
  facet normal 0 1 0
    outer loop
      vertex 48.4 100 0
      vertex 49.2 100 1.38564
      vertex 51.6 100 0
    endloop
  endfacet
  facet normal 0 1 0
    outer loop
      vertex 48.4 100 0
      vertex 50.8 100 -1.38564
      vertex 49.2 100 -1.38564
    endloop
  endfacet
  facet normal 0 1 -0
    outer loop
      vertex 48.4 100 0
      vertex 51.6 100 0
      vertex 50.8 100 -1.38564
    endloop
  endfacet
  facet normal -0 0 -1
    outer loop
      vertex 49.2 -100 -1.38564
      vertex 49.2 100 -1.38564
      vertex 50.8 100 -1.38564
    endloop
  endfacet
  facet normal 0 -1 0
    outer loop
      vertex 49.2 -100 -1.38564
      vertex 50.8 -100 -1.38564
      vertex 51.6 -100 0
    endloop
  endfacet
  facet normal 0 0 -1
    outer loop
      vertex 49.2 -100 -1.38564
      vertex 50.8 100 -1.38564
      vertex 50.8 -100 -1.38564
    endloop
  endfacet
  facet normal 0 0 1
    outer loop
      vertex 49.2 -100 1.38564
      vertex 50.8 -100 1.38564
      vertex 49.2 100 1.38564
    endloop
  endfacet
  facet normal -0 0 1
    outer loop
      vertex 49.2 100 1.38564
      vertex 50.8 -100 1.38564
      vertex 50.8 100 1.38564
    endloop
  endfacet
  facet normal 0 1 0
    outer loop
      vertex 49.2 100 1.38564
      vertex 50.8 100 1.38564
      vertex 51.6 100 0
    endloop
  endfacet
  facet normal 0.866025 0 -0.5
    outer loop
      vertex 50.8 -100 -1.38564
      vertex 50.8 100 -1.38564
      vertex 51.6 -100 0
    endloop
  endfacet
  facet normal 0.866025 0 0.5
    outer loop
      vertex 50.8 -100 1.38564
      vertex 51.6 -100 0
      vertex 51.6 100 0
    endloop
  endfacet
  facet normal 0.866025 -0 0.5
    outer loop
      vertex 50.8 -100 1.38564
      vertex 51.6 100 0
      vertex 50.8 100 1.38564
    endloop
  endfacet
  facet normal 0.866025 0 -0.5
    outer loop
      vertex 50.8 100 -1.38564
      vertex 51.6 100 0
      vertex 51.6 -100 0
    endloop
  endfacet
endsolid model
