solid model
  facet normal -0.495428 0.054937 -0.86691
    outer loop
      vertex 146.9 -0.257441 255.058
      vertex 146.9 0.768263 255.123
      vertex 154.9 13.375 251.35
    endloop
  endfacet
  facet normal -1 0 0
    outer loop
      vertex 146.9 -0.257441 255.058
      vertex 146.9 1.65 256.292
      vertex 146.9 0.768263 255.123
    endloop
  endfacet
  facet normal -0.420525 0 -0.907281
    outer loop
      vertex 146.9 -0.257441 255.058
      vertex 154.9 13.375 251.35
      vertex 154.9 -13.375 251.35
    endloop
  endfacet
  facet normal -1 0 0
    outer loop
      vertex 146.9 -0.257441 263.242
      vertex 146.9 0.768263 263.177
      vertex 146.9 1.65 262.008
    endloop
  endfacet
  facet normal 0 0.0632442 0.997998
    outer loop
      vertex 146.9 -0.257441 263.242
      vertex 160.1 -0.257441 263.242
      vertex 146.9 0.768263 263.177
    endloop
  endfacet
  facet normal 0 -0.187778 0.982212
    outer loop
      vertex 146.9 -0.257441 263.242
      vertex 160.1 -1.26697 263.049
      vertex 160.1 -0.257441 263.242
    endloop
  endfacet
  facet normal -0.606671 -0.149274 -0.780812
    outer loop
      vertex 146.9 -1.26697 255.251
      vertex 146.9 -0.257441 255.058
      vertex 154.9 -13.375 251.35
    endloop
  endfacet
  facet normal 0 -0.187778 0.982212
    outer loop
      vertex 146.9 -1.26697 263.049
      vertex 160.1 -1.26697 263.049
      vertex 146.9 -0.257441 263.242
    endloop
  endfacet
  facet normal 0 -0.425311 0.905047
    outer loop
      vertex 146.9 -1.26697 263.049
      vertex 160.1 -2.19689 262.612
      vertex 160.1 -1.26697 263.049
    endloop
  endfacet
  facet normal -1 0 0
    outer loop
      vertex 146.9 -1.65 256.292
      vertex 146.9 -0.257441 255.058
      vertex 146.9 -1.26697 255.251
    endloop
  endfacet
  facet normal -1 0 0
    outer loop
      vertex 146.9 -1.65 256.292
      vertex 146.9 1.65 256.292
      vertex 146.9 -0.257441 255.058
    endloop
  endfacet
  facet normal 0 0 1
    outer loop
      vertex 146.9 -1.65 256.292
      vertex 150.95 -1.65 256.292
      vertex 146.9 1.65 256.292
    endloop
  endfacet
  facet normal -1 0 0
    outer loop
      vertex 146.9 -1.65 262.008
      vertex 146.9 -0.257441 263.242
      vertex 146.9 1.65 262.008
    endloop
  endfacet
  facet normal -1 0 0
    outer loop
      vertex 146.9 -1.65 262.008
      vertex 146.9 -1.26697 263.049
      vertex 146.9 -0.257441 263.242
    endloop
  endfacet
  facet normal -0 0 -1
    outer loop
      vertex 146.9 -1.65 262.008
      vertex 146.9 1.65 262.008
      vertex 150.95 1.65 262.008
    endloop
  endfacet
  facet normal 0 0.866034 -0.499985
    outer loop
      vertex 146.9 -1.65 262.008
      vertex 150.95 -1.65 262.008
      vertex 150.95 -3.3 259.15
    endloop
  endfacet
  facet normal 0 0 -1
    outer loop
      vertex 146.9 -1.65 262.008
      vertex 150.95 1.65 262.008
      vertex 150.95 -1.65 262.008
    endloop
  endfacet
  facet normal -0.735333 -0.288236 -0.613355
    outer loop
      vertex 146.9 -2.19689 255.688
      vertex 146.9 -1.26697 255.251
      vertex 154.9 -13.375 251.35
    endloop
  endfacet
  facet normal -1 0 0
    outer loop
      vertex 146.9 -2.19689 255.688
      vertex 146.9 -1.65 256.292
      vertex 146.9 -1.26697 255.251
    endloop
  endfacet
  facet normal -1 0 0
    outer loop
      vertex 146.9 -2.19689 262.612
      vertex 146.9 -1.26697 263.049
      vertex 146.9 -1.65 262.008
    endloop
  endfacet
  facet normal 0 -0.47672 0.879055
    outer loop
      vertex 146.9 -2.19689 262.612
      vertex 154.9 -13.375 256.55
      vertex 160.1 -2.19689 262.612
    endloop
  endfacet
  facet normal 0 -0.425311 0.905047
    outer loop
      vertex 146.9 -2.19689 262.612
      vertex 160.1 -2.19689 262.612
      vertex 146.9 -1.26697 263.049
    endloop
  endfacet
  facet normal -1 0 0
    outer loop
      vertex 146.9 -2.98877 256.343
      vertex 146.9 -1.65 256.292
      vertex 146.9 -2.19689 255.688
    endloop
  endfacet
  facet normal -0.794518 -0.387035 -0.467916
    outer loop
      vertex 146.9 -2.98877 256.343
      vertex 146.9 -2.19689 255.688
      vertex 154.9 -13.375 251.35
    endloop
  endfacet
  facet normal -1 -0 0
    outer loop
      vertex 146.9 -2.98877 261.957
      vertex 146.9 -2.19689 262.612
      vertex 146.9 -1.65 262.008
    endloop
  endfacet
  facet normal -0.293198 -0.609355 0.736696
    outer loop
      vertex 146.9 -2.98877 261.957
      vertex 154.9 -13.375 256.55
      vertex 146.9 -2.19689 262.612
    endloop
  endfacet
  facet normal 0 0.866034 -0.499985
    outer loop
      vertex 146.9 -3.3 259.15
      vertex 146.9 -1.65 262.008
      vertex 150.95 -3.3 259.15
    endloop
  endfacet
  facet normal 0 0.866034 0.499985
    outer loop
      vertex 146.9 -3.3 259.15
      vertex 150.95 -1.65 256.292
      vertex 146.9 -1.65 256.292
    endloop
  endfacet
  facet normal 0 0.866034 0.499985
    outer loop
      vertex 146.9 -3.3 259.15
      vertex 150.95 -3.3 259.15
      vertex 150.95 -1.65 256.292
    endloop
  endfacet
  facet normal -1 0 0
    outer loop
      vertex 146.9 -3.59286 257.175
      vertex 146.9 -1.65 256.292
      vertex 146.9 -2.98877 256.343
    endloop
  endfacet
  facet normal -0.817082 -0.466521 -0.338727
    outer loop
      vertex 146.9 -3.59286 257.175
      vertex 146.9 -2.98877 256.343
      vertex 154.9 -13.375 251.35
    endloop
  endfacet
  facet normal -1 0 0
    outer loop
      vertex 146.9 -3.59286 257.175
      vertex 146.9 -3.3 259.15
      vertex 146.9 -1.65 256.292
    endloop
  endfacet
  facet normal -1 0 0
    outer loop
      vertex 146.9 -3.59286 261.125
      vertex 146.9 -1.65 262.008
      vertex 146.9 -3.3 259.15
    endloop
  endfacet
  facet normal -1 0 0
    outer loop
      vertex 146.9 -3.59286 261.125
      vertex 146.9 -2.98877 261.957
      vertex 146.9 -1.65 262.008
    endloop
  endfacet
  facet normal -0.547026 -0.677393 0.491834
    outer loop
      vertex 146.9 -3.59286 261.125
      vertex 154.9 -13.375 256.55
      vertex 146.9 -2.98877 261.957
    endloop
  endfacet
  facet normal -1 0 0
    outer loop
      vertex 146.9 -3.97119 258.13
      vertex 146.9 -3.3 259.15
      vertex 146.9 -3.59286 257.175
    endloop
  endfacet
  facet normal -0.814709 -0.539107 -0.213571
    outer loop
      vertex 146.9 -3.97119 258.13
      vertex 146.9 -3.59286 257.175
      vertex 154.9 -13.375 251.35
    endloop
  endfacet
  facet normal -1 0 0
    outer loop
      vertex 146.9 -3.97119 260.17
      vertex 146.9 -3.59286 261.125
      vertex 146.9 -3.3 259.15
    endloop
  endfacet
  facet normal -0.67951 -0.682092 0.270216
    outer loop
      vertex 146.9 -3.97119 260.17
      vertex 154.9 -13.375 256.55
      vertex 146.9 -3.59286 261.125
    endloop
  endfacet
  facet normal -1 0 0
    outer loop
      vertex 146.9 -4.1 259.15
      vertex 146.9 -3.3 259.15
      vertex 146.9 -3.97119 258.13
    endloop
  endfacet
  facet normal -0.78624 -0.613052 -0.0774188
    outer loop
      vertex 146.9 -4.1 259.15
      vertex 146.9 -3.97119 258.13
      vertex 154.9 -13.375 251.35
    endloop
  endfacet
  facet normal -1 0 0
    outer loop
      vertex 146.9 -4.1 259.15
      vertex 146.9 -3.97119 260.17
      vertex 146.9 -3.3 259.15
    endloop
  endfacet
  facet normal -0.757236 -0.653141 -0
    outer loop
      vertex 146.9 -4.1 259.15
      vertex 154.9 -13.375 251.35
      vertex 154.9 -13.375 256.55
    endloop
  endfacet
  facet normal -0.742817 -0.664219 0.0838804
    outer loop
      vertex 146.9 -4.1 259.15
      vertex 154.9 -13.375 256.55
      vertex 146.9 -3.97119 260.17
    endloop
  endfacet
  facet normal -1 0 0
    outer loop
      vertex 146.9 0.768263 255.123
      vertex 146.9 1.65 256.292
      vertex 146.9 1.74569 255.44
    endloop
  endfacet
  facet normal -0.682879 0.22537 -0.694899
    outer loop
      vertex 146.9 0.768263 255.123
      vertex 146.9 1.74569 255.44
      vertex 154.9 13.375 251.35
    endloop
  endfacet
  facet normal -1 0 0
    outer loop
      vertex 146.9 0.768263 263.177
      vertex 146.9 1.74569 262.86
      vertex 146.9 1.65 262.008
    endloop
  endfacet
  facet normal -0 0.0632442 0.997998
    outer loop
      vertex 146.9 0.768263 263.177
      vertex 160.1 -0.257441 263.242
      vertex 160.1 0.768263 263.177
    endloop
  endfacet
  facet normal 0 0.308502 0.951224
    outer loop
      vertex 146.9 0.768263 263.177
      vertex 160.1 0.768263 263.177
      vertex 146.9 1.74569 262.86
    endloop
  endfacet
  facet normal -1 0 0
    outer loop
      vertex 146.9 1.65 256.292
      vertex 146.9 2.61344 255.991
      vertex 146.9 1.74569 255.44
    endloop
  endfacet
  facet normal -1 -0 0
    outer loop
      vertex 146.9 1.65 256.292
      vertex 146.9 3.3 259.15
      vertex 146.9 3.31697 256.74
    endloop
  endfacet
  facet normal -1 0 0
    outer loop
      vertex 146.9 1.65 256.292
      vertex 146.9 3.31697 256.74
      vertex 146.9 2.61344 255.991
    endloop
  endfacet
  facet normal -0 0 1
    outer loop
      vertex 146.9 1.65 256.292
      vertex 150.95 -1.65 256.292
      vertex 150.95 1.65 256.292
    endloop
  endfacet
  facet normal 0 -0.866034 0.499985
    outer loop
      vertex 146.9 1.65 256.292
      vertex 150.95 1.65 256.292
      vertex 150.95 3.3 259.15
    endloop
  endfacet
  facet normal 0 -0.866034 0.499985
    outer loop
      vertex 146.9 1.65 256.292
      vertex 150.95 3.3 259.15
      vertex 146.9 3.3 259.15
    endloop
  endfacet
  facet normal -1 -0 0
    outer loop
      vertex 146.9 1.65 262.008
      vertex 146.9 1.74569 262.86
      vertex 146.9 2.61344 262.309
    endloop
  endfacet
  facet normal -1 0 0
    outer loop
      vertex 146.9 1.65 262.008
      vertex 146.9 2.61344 262.309
      vertex 146.9 3.31697 261.56
    endloop
  endfacet
  facet normal 0 -0.866034 -0.499985
    outer loop
      vertex 146.9 1.65 262.008
      vertex 146.9 3.3 259.15
      vertex 150.95 1.65 262.008
    endloop
  endfacet
  facet normal -1 0 0
    outer loop
      vertex 146.9 1.65 262.008
      vertex 146.9 3.31697 261.56
      vertex 146.9 3.3 259.15
    endloop
  endfacet
  facet normal -0.771037 0.341346 -0.537573
    outer loop
      vertex 146.9 1.74569 255.44
      vertex 146.9 2.61344 255.991
      vertex 154.9 13.375 251.35
    endloop
  endfacet
  facet normal -0.112646 0.532629 0.838819
    outer loop
      vertex 146.9 1.74569 262.86
      vertex 154.9 13.375 256.55
      vertex 146.9 2.61344 262.309
    endloop
  endfacet
  facet normal -0 0.308502 0.951224
    outer loop
      vertex 146.9 1.74569 262.86
      vertex 160.1 0.768263 263.177
      vertex 160.1 1.74569 262.86
    endloop
  endfacet
  facet normal 0 0.476914 0.87895
    outer loop
      vertex 146.9 1.74569 262.86
      vertex 160.1 1.74569 262.86
      vertex 154.9 13.375 256.55
    endloop
  endfacet
  facet normal -0.809278 0.428166 -0.402173
    outer loop
      vertex 146.9 2.61344 255.991
      vertex 146.9 3.31697 256.74
      vertex 154.9 13.375 251.35
    endloop
  endfacet
  facet normal -0.438304 0.655141 0.615369
    outer loop
      vertex 146.9 2.61344 262.309
      vertex 154.9 13.375 256.55
      vertex 146.9 3.31697 261.56
    endloop
  endfacet
  facet normal -1 -0 0
    outer loop
      vertex 146.9 3.3 259.15
      vertex 146.9 3.31697 261.56
      vertex 146.9 3.81208 260.659
    endloop
  endfacet
  facet normal -1 0 0
    outer loop
      vertex 146.9 3.3 259.15
      vertex 146.9 3.81208 257.641
      vertex 146.9 3.31697 256.74
    endloop
  endfacet
  facet normal -1 -0 0
    outer loop
      vertex 146.9 3.3 259.15
      vertex 146.9 3.81208 260.659
      vertex 146.9 4.06767 259.664
    endloop
  endfacet
  facet normal -1 0 0
    outer loop
      vertex 146.9 3.3 259.15
      vertex 146.9 4.06767 258.636
      vertex 146.9 3.81208 257.641
    endloop
  endfacet
  facet normal -1 0 0
    outer loop
      vertex 146.9 3.3 259.15
      vertex 146.9 4.06767 259.664
      vertex 146.9 4.06767 258.636
    endloop
  endfacet
  facet normal 0 -0.866034 -0.499985
    outer loop
      vertex 146.9 3.3 259.15
      vertex 150.95 3.3 259.15
      vertex 150.95 1.65 262.008
    endloop
  endfacet
  facet normal -0.818807 0.503111 -0.276466
    outer loop
      vertex 146.9 3.31697 256.74
      vertex 146.9 3.81208 257.641
      vertex 154.9 13.375 251.35
    endloop
  endfacet
  facet normal -0.624817 0.684265 0.376012
    outer loop
      vertex 146.9 3.31697 261.56
      vertex 154.9 13.375 256.55
      vertex 146.9 3.81208 260.659
    endloop
  endfacet
  facet normal -0.804278 0.575568 -0.147849
    outer loop
      vertex 146.9 3.81208 257.641
      vertex 146.9 4.06767 258.636
      vertex 154.9 13.375 251.35
    endloop
  endfacet
  facet normal -0.717475 0.674681 0.173308
    outer loop
      vertex 146.9 3.81208 260.659
      vertex 154.9 13.375 256.55
      vertex 146.9 4.06767 259.664
    endloop
  endfacet
  facet normal -0.758359 0.651838 0
    outer loop
      vertex 146.9 4.06767 258.636
      vertex 146.9 4.06767 259.664
      vertex 154.9 13.375 256.55
    endloop
  endfacet
  facet normal -0.758359 0.651838 0
    outer loop
      vertex 146.9 4.06767 258.636
      vertex 154.9 13.375 256.55
      vertex 154.9 13.375 251.35
    endloop
  endfacet
  facet normal -1 0 0
    outer loop
      vertex 150.95 -0.100465 257.553
      vertex 150.95 0.299809 257.578
      vertex 150.95 1.65 256.292
    endloop
  endfacet
  facet normal 0 -0.0623358 0.998055
    outer loop
      vertex 150.95 -0.100465 257.553
      vertex 160.1 -0.100465 257.553
      vertex 150.95 0.299809 257.578
    endloop
  endfacet
  facet normal -0 0.187015 0.982357
    outer loop
      vertex 150.95 -0.100465 257.553
      vertex 160.1 -0.494427 257.628
      vertex 160.1 -0.100465 257.553
    endloop
  endfacet
  facet normal -0 -0.0623358 -0.998055
    outer loop
      vertex 150.95 -0.100465 260.747
      vertex 150.95 0.299809 260.722
      vertex 160.1 0.299809 260.722
    endloop
  endfacet
  facet normal -1 0 0
    outer loop
      vertex 150.95 -0.100465 260.747
      vertex 150.95 1.65 262.008
      vertex 150.95 0.299809 260.722
    endloop
  endfacet
  facet normal 0 -0.0623358 -0.998055
    outer loop
      vertex 150.95 -0.100465 260.747
      vertex 160.1 0.299809 260.722
      vertex 160.1 -0.100465 260.747
    endloop
  endfacet
  facet normal 0 0.187015 0.982357
    outer loop
      vertex 150.95 -0.494427 257.628
      vertex 160.1 -0.494427 257.628
      vertex 150.95 -0.100465 257.553
    endloop
  endfacet
  facet normal -0 0.426257 0.904602
    outer loop
      vertex 150.95 -0.494427 257.628
      vertex 160.1 -0.857323 257.799
      vertex 160.1 -0.494427 257.628
    endloop
  endfacet
  facet normal 0 0.187015 -0.982357
    outer loop
      vertex 150.95 -0.494427 260.672
      vertex 150.95 -0.100465 260.747
      vertex 160.1 -0.100465 260.747
    endloop
  endfacet
  facet normal 0 0.187015 -0.982357
    outer loop
      vertex 150.95 -0.494427 260.672
      vertex 160.1 -0.100465 260.747
      vertex 160.1 -0.494427 260.672
    endloop
  endfacet
  facet normal 0 0.426257 0.904602
    outer loop
      vertex 150.95 -0.857323 257.799
      vertex 160.1 -0.857323 257.799
      vertex 150.95 -0.494427 257.628
    endloop
  endfacet
  facet normal -0 0.637943 0.770084
    outer loop
      vertex 150.95 -0.857323 257.799
      vertex 160.1 -1.16635 258.055
      vertex 160.1 -0.857323 257.799
    endloop
  endfacet
  facet normal 0 0.426257 -0.904602
    outer loop
      vertex 150.95 -0.857323 260.501
      vertex 150.95 -0.494427 260.672
      vertex 160.1 -0.494427 260.672
    endloop
  endfacet
  facet normal 0 0.426257 -0.904602
    outer loop
      vertex 150.95 -0.857323 260.501
      vertex 160.1 -0.494427 260.672
      vertex 160.1 -0.857323 260.501
    endloop
  endfacet
  facet normal 0 0.637943 0.770084
    outer loop
      vertex 150.95 -1.16635 258.055
      vertex 160.1 -1.16635 258.055
      vertex 150.95 -0.857323 257.799
    endloop
  endfacet
  facet normal 0 0.637943 -0.770084
    outer loop
      vertex 150.95 -1.16635 260.245
      vertex 150.95 -0.857323 260.501
      vertex 160.1 -0.857323 260.501
    endloop
  endfacet
  facet normal 0 0.637943 -0.770084
    outer loop
      vertex 150.95 -1.16635 260.245
      vertex 160.1 -0.857323 260.501
      vertex 160.1 -1.16635 260.245
    endloop
  endfacet
  facet normal 0 0.808613 -0.588341
    outer loop
      vertex 150.95 -1.16635 260.245
      vertex 160.1 -1.16635 260.245
      vertex 160.1 -1.40209 259.921
    endloop
  endfacet
  facet normal 0 0.808613 0.588341
    outer loop
      vertex 150.95 -1.40209 258.379
      vertex 160.1 -1.16635 258.055
      vertex 150.95 -1.16635 258.055
    endloop
  endfacet
  facet normal 0 0.808613 0.588341
    outer loop
      vertex 150.95 -1.40209 258.379
      vertex 160.1 -1.40209 258.379
      vertex 160.1 -1.16635 258.055
    endloop
  endfacet
  facet normal 0 0.808613 -0.588341
    outer loop
      vertex 150.95 -1.40209 259.921
      vertex 150.95 -1.16635 260.245
      vertex 160.1 -1.40209 259.921
    endloop
  endfacet
  facet normal 0 0.929812 -0.368036
    outer loop
      vertex 150.95 -1.40209 259.921
      vertex 160.1 -1.40209 259.921
      vertex 160.1 -1.54973 259.548
    endloop
  endfacet
  facet normal 0 0.929812 0.368036
    outer loop
      vertex 150.95 -1.54973 258.752
      vertex 160.1 -1.40209 258.379
      vertex 150.95 -1.40209 258.379
    endloop
  endfacet
  facet normal 0 0.929812 0.368036
    outer loop
      vertex 150.95 -1.54973 258.752
      vertex 160.1 -1.54973 258.752
      vertex 160.1 -1.40209 258.379
    endloop
  endfacet
  facet normal 0 0.929812 -0.368036
    outer loop
      vertex 150.95 -1.54973 259.548
      vertex 150.95 -1.40209 259.921
      vertex 160.1 -1.54973 259.548
    endloop
  endfacet
  facet normal 0 0.992118 -0.125311
    outer loop
      vertex 150.95 -1.54973 259.548
      vertex 160.1 -1.54973 259.548
      vertex 160.1 -1.6 259.15
    endloop
  endfacet
  facet normal 0 0.992118 -0.125311
    outer loop
      vertex 150.95 -1.6 259.15
      vertex 150.95 -1.54973 259.548
      vertex 160.1 -1.6 259.15
    endloop
  endfacet
  facet normal 0 0.992118 0.125311
    outer loop
      vertex 150.95 -1.6 259.15
      vertex 160.1 -1.54973 258.752
      vertex 150.95 -1.54973 258.752
    endloop
  endfacet
  facet normal 0 0.992118 0.125311
    outer loop
      vertex 150.95 -1.6 259.15
      vertex 160.1 -1.6 259.15
      vertex 160.1 -1.54973 258.752
    endloop
  endfacet
  facet normal -1 0 0
    outer loop
      vertex 150.95 -1.65 256.292
      vertex 150.95 -0.100465 257.553
      vertex 150.95 1.65 256.292
    endloop
  endfacet
  facet normal -1 -0 0
    outer loop
      vertex 150.95 -1.65 256.292
      vertex 150.95 -0.494427 257.628
      vertex 150.95 -0.100465 257.553
    endloop
  endfacet
  facet normal -1 -0 0
    outer loop
      vertex 150.95 -1.65 256.292
      vertex 150.95 -0.857323 257.799
      vertex 150.95 -0.494427 257.628
    endloop
  endfacet
  facet normal -1 -0 0
    outer loop
      vertex 150.95 -1.65 256.292
      vertex 150.95 -1.16635 258.055
      vertex 150.95 -0.857323 257.799
    endloop
  endfacet
  facet normal -1 -0 0
    outer loop
      vertex 150.95 -1.65 256.292
      vertex 150.95 -1.40209 258.379
      vertex 150.95 -1.16635 258.055
    endloop
  endfacet
  facet normal -1 0 0
    outer loop
      vertex 150.95 -1.65 262.008
      vertex 150.95 -0.100465 260.747
      vertex 150.95 -0.494427 260.672
    endloop
  endfacet
  facet normal -1 0 0
    outer loop
      vertex 150.95 -1.65 262.008
      vertex 150.95 -0.494427 260.672
      vertex 150.95 -0.857323 260.501
    endloop
  endfacet
  facet normal -1 0 0
    outer loop
      vertex 150.95 -1.65 262.008
      vertex 150.95 -0.857323 260.501
      vertex 150.95 -1.16635 260.245
    endloop
  endfacet
  facet normal -1 0 0
    outer loop
      vertex 150.95 -1.65 262.008
      vertex 150.95 -1.16635 260.245
      vertex 150.95 -1.40209 259.921
    endloop
  endfacet
  facet normal -1 0 0
    outer loop
      vertex 150.95 -1.65 262.008
      vertex 150.95 1.65 262.008
      vertex 150.95 -0.100465 260.747
    endloop
  endfacet
  facet normal -1 0 0
    outer loop
      vertex 150.95 -3.3 259.15
      vertex 150.95 -1.40209 258.379
      vertex 150.95 -1.65 256.292
    endloop
  endfacet
  facet normal -1 0 0
    outer loop
      vertex 150.95 -3.3 259.15
      vertex 150.95 -1.40209 259.921
      vertex 150.95 -1.54973 259.548
    endloop
  endfacet
  facet normal -1 0 0
    outer loop
      vertex 150.95 -3.3 259.15
      vertex 150.95 -1.54973 258.752
      vertex 150.95 -1.40209 258.379
    endloop
  endfacet
  facet normal -1 0 0
    outer loop
      vertex 150.95 -3.3 259.15
      vertex 150.95 -1.54973 259.548
      vertex 150.95 -1.6 259.15
    endloop
  endfacet
  facet normal -1 0 0
    outer loop
      vertex 150.95 -3.3 259.15
      vertex 150.95 -1.6 259.15
      vertex 150.95 -1.54973 258.752
    endloop
  endfacet
  facet normal -1 -0 0
    outer loop
      vertex 150.95 -3.3 259.15
      vertex 150.95 -1.65 262.008
      vertex 150.95 -1.40209 259.921
    endloop
  endfacet
  facet normal -1 0 0
    outer loop
      vertex 150.95 0.299809 257.578
      vertex 150.95 0.681247 257.702
      vertex 150.95 1.65 256.292
    endloop
  endfacet
  facet normal 0 -0.0623358 0.998055
    outer loop
      vertex 150.95 0.299809 257.578
      vertex 160.1 -0.100465 257.553
      vertex 160.1 0.299809 257.578
    endloop
  endfacet
  facet normal 0 -0.30916 0.95101
    outer loop
      vertex 150.95 0.299809 257.578
      vertex 160.1 0.299809 257.578
      vertex 150.95 0.681247 257.702
    endloop
  endfacet
  facet normal -0 -0.30916 -0.95101
    outer loop
      vertex 150.95 0.299809 260.722
      vertex 150.95 0.681247 260.598
      vertex 160.1 0.681247 260.598
    endloop
  endfacet
  facet normal -1 0 0
    outer loop
      vertex 150.95 0.299809 260.722
      vertex 150.95 1.65 262.008
      vertex 150.95 0.681247 260.598
    endloop
  endfacet
  facet normal 0 -0.30916 -0.95101
    outer loop
      vertex 150.95 0.299809 260.722
      vertex 160.1 0.681247 260.598
      vertex 160.1 0.299809 260.722
    endloop
  endfacet
  facet normal -1 0 0
    outer loop
      vertex 150.95 0.681247 257.702
      vertex 150.95 1.01988 257.917
      vertex 150.95 1.65 256.292
    endloop
  endfacet
  facet normal 0 -0.30916 0.95101
    outer loop
      vertex 150.95 0.681247 257.702
      vertex 160.1 0.299809 257.578
      vertex 160.1 0.681247 257.702
    endloop
  endfacet
  facet normal 0 -0.535999 0.844219
    outer loop
      vertex 150.95 0.681247 257.702
      vertex 160.1 0.681247 257.702
      vertex 150.95 1.01988 257.917
    endloop
  endfacet
  facet normal -0 -0.535999 -0.844219
    outer loop
      vertex 150.95 0.681247 260.598
      vertex 150.95 1.01988 260.383
      vertex 160.1 1.01988 260.383
    endloop
  endfacet
  facet normal -1 0 0
    outer loop
      vertex 150.95 0.681247 260.598
      vertex 150.95 1.65 262.008
      vertex 150.95 1.01988 260.383
    endloop
  endfacet
  facet normal 0 -0.535999 -0.844219
    outer loop
      vertex 150.95 0.681247 260.598
      vertex 160.1 1.01988 260.383
      vertex 160.1 0.681247 260.598
    endloop
  endfacet
  facet normal -1 0 0
    outer loop
      vertex 150.95 1.01988 257.917
      vertex 150.95 1.29443 258.21
      vertex 150.95 1.65 256.292
    endloop
  endfacet
  facet normal 0 -0.535999 0.844219
    outer loop
      vertex 150.95 1.01988 257.917
      vertex 160.1 0.681247 257.702
      vertex 160.1 1.01988 257.917
    endloop
  endfacet
  facet normal 0 -0.729708 0.683759
    outer loop
      vertex 150.95 1.01988 257.917
      vertex 160.1 1.01988 257.917
      vertex 160.1 1.29443 258.21
    endloop
  endfacet
  facet normal 0 -0.729708 0.683759
    outer loop
      vertex 150.95 1.01988 257.917
      vertex 160.1 1.29443 258.21
      vertex 150.95 1.29443 258.21
    endloop
  endfacet
  facet normal 0 -0.729708 -0.683759
    outer loop
      vertex 150.95 1.01988 260.383
      vertex 150.95 1.29443 260.09
      vertex 160.1 1.01988 260.383
    endloop
  endfacet
  facet normal -1 0 0
    outer loop
      vertex 150.95 1.01988 260.383
      vertex 150.95 1.65 262.008
      vertex 150.95 1.29443 260.09
    endloop
  endfacet
  facet normal -1 0 0
    outer loop
      vertex 150.95 1.29443 258.21
      vertex 150.95 1.48764 258.561
      vertex 150.95 3.3 259.15
    endloop
  endfacet
  facet normal -1 0 0
    outer loop
      vertex 150.95 1.29443 258.21
      vertex 150.95 3.3 259.15
      vertex 150.95 1.65 256.292
    endloop
  endfacet
  facet normal 0 -0.876047 0.482225
    outer loop
      vertex 150.95 1.29443 258.21
      vertex 160.1 1.29443 258.21
      vertex 160.1 1.48764 258.561
    endloop
  endfacet
  facet normal 0 -0.876047 0.482225
    outer loop
      vertex 150.95 1.29443 258.21
      vertex 160.1 1.48764 258.561
      vertex 150.95 1.48764 258.561
    endloop
  endfacet
  facet normal 0 -0.876047 -0.482225
    outer loop
      vertex 150.95 1.29443 260.09
      vertex 150.95 1.48764 259.739
      vertex 160.1 1.29443 260.09
    endloop
  endfacet
  facet normal -1 0 0
    outer loop
      vertex 150.95 1.29443 260.09
      vertex 150.95 1.65 262.008
      vertex 150.95 3.3 259.15
    endloop
  endfacet
  facet normal -1 0 0
    outer loop
      vertex 150.95 1.29443 260.09
      vertex 150.95 3.3 259.15
      vertex 150.95 1.48764 259.739
    endloop
  endfacet
  facet normal 0 -0.729708 -0.683759
    outer loop
      vertex 150.95 1.29443 260.09
      vertex 160.1 1.29443 260.09
      vertex 160.1 1.01988 260.383
    endloop
  endfacet
  facet normal -1 0 0
    outer loop
      vertex 150.95 1.48764 258.561
      vertex 150.95 1.58738 258.949
      vertex 150.95 3.3 259.15
    endloop
  endfacet
  facet normal 0 -0.968512 0.248967
    outer loop
      vertex 150.95 1.48764 258.561
      vertex 160.1 1.48764 258.561
      vertex 160.1 1.58738 258.949
    endloop
  endfacet
  facet normal 0 -0.968512 0.248967
    outer loop
      vertex 150.95 1.48764 258.561
      vertex 160.1 1.58738 258.949
      vertex 150.95 1.58738 258.949
    endloop
  endfacet
  facet normal 0 -0.968512 -0.248967
    outer loop
      vertex 150.95 1.48764 259.739
      vertex 150.95 1.58738 259.351
      vertex 160.1 1.48764 259.739
    endloop
  endfacet
  facet normal -1 0 0
    outer loop
      vertex 150.95 1.48764 259.739
      vertex 150.95 3.3 259.15
      vertex 150.95 1.58738 259.351
    endloop
  endfacet
  facet normal 0 -0.876047 -0.482225
    outer loop
      vertex 150.95 1.48764 259.739
      vertex 160.1 1.48764 259.739
      vertex 160.1 1.29443 260.09
    endloop
  endfacet
  facet normal -1 0 0
    outer loop
      vertex 150.95 1.58738 258.949
      vertex 150.95 1.58738 259.351
      vertex 150.95 3.3 259.15
    endloop
  endfacet
  facet normal 0 -1 -0
    outer loop
      vertex 150.95 1.58738 258.949
      vertex 160.1 1.58738 258.949
      vertex 160.1 1.58738 259.351
    endloop
  endfacet
  facet normal 0 -1 0
    outer loop
      vertex 150.95 1.58738 258.949
      vertex 160.1 1.58738 259.351
      vertex 150.95 1.58738 259.351
    endloop
  endfacet
  facet normal 0 -0.968512 -0.248967
    outer loop
      vertex 150.95 1.58738 259.351
      vertex 160.1 1.58738 259.351
      vertex 160.1 1.48764 259.739
    endloop
  endfacet
  facet normal -0 0 -1
    outer loop
      vertex 154.9 -13.375 251.35
      vertex 154.9 13.375 251.35
      vertex 160.1 13.375 251.35
    endloop
  endfacet
  facet normal 0 -1 0
    outer loop
      vertex 154.9 -13.375 251.35
      vertex 155.913 -13.375 253.749
      vertex 154.9 -13.375 256.55
    endloop
  endfacet
  facet normal 0 -1 -0
    outer loop
      vertex 154.9 -13.375 251.35
      vertex 156.012 -13.375 253.361
      vertex 155.913 -13.375 253.749
    endloop
  endfacet
  facet normal 0 -1 -0
    outer loop
      vertex 154.9 -13.375 251.35
      vertex 156.206 -13.375 253.01
      vertex 156.012 -13.375 253.361
    endloop
  endfacet
  facet normal 0 -1 -0
    outer loop
      vertex 154.9 -13.375 251.35
      vertex 156.48 -13.375 252.717
      vertex 156.206 -13.375 253.01
    endloop
  endfacet
  facet normal 0 -1 -0
    outer loop
      vertex 154.9 -13.375 251.35
      vertex 156.819 -13.375 252.502
      vertex 156.48 -13.375 252.717
    endloop
  endfacet
  facet normal 0 -1 -0
    outer loop
      vertex 154.9 -13.375 251.35
      vertex 157.2 -13.375 252.378
      vertex 156.819 -13.375 252.502
    endloop
  endfacet
  facet normal 0 -1 -0
    outer loop
      vertex 154.9 -13.375 251.35
      vertex 157.6 -13.375 252.353
      vertex 157.2 -13.375 252.378
    endloop
  endfacet
  facet normal 0 -1 0
    outer loop
      vertex 154.9 -13.375 251.35
      vertex 160.1 -13.375 251.35
      vertex 157.6 -13.375 252.353
    endloop
  endfacet
  facet normal 0 0 -1
    outer loop
      vertex 154.9 -13.375 251.35
      vertex 160.1 13.375 251.35
      vertex 160.1 -13.375 251.35
    endloop
  endfacet
  facet normal 0 -1 0
    outer loop
      vertex 154.9 -13.375 256.55
      vertex 155.913 -13.375 253.749
      vertex 155.913 -13.375 254.151
    endloop
  endfacet
  facet normal 0 -1 0
    outer loop
      vertex 154.9 -13.375 256.55
      vertex 155.913 -13.375 254.151
      vertex 156.012 -13.375 254.539
    endloop
  endfacet
  facet normal 0 -1 0
    outer loop
      vertex 154.9 -13.375 256.55
      vertex 156.012 -13.375 254.539
      vertex 156.206 -13.375 254.89
    endloop
  endfacet
  facet normal 0 -1 0
    outer loop
      vertex 154.9 -13.375 256.55
      vertex 156.206 -13.375 254.89
      vertex 156.48 -13.375 255.183
    endloop
  endfacet
  facet normal 0 -1 0
    outer loop
      vertex 154.9 -13.375 256.55
      vertex 156.48 -13.375 255.183
      vertex 156.819 -13.375 255.398
    endloop
  endfacet
  facet normal 0 -1 0
    outer loop
      vertex 154.9 -13.375 256.55
      vertex 156.819 -13.375 255.398
      vertex 157.2 -13.375 255.522
    endloop
  endfacet
  facet normal 0 -1 0
    outer loop
      vertex 154.9 -13.375 256.55
      vertex 157.2 -13.375 255.522
      vertex 157.6 -13.375 255.547
    endloop
  endfacet
  facet normal 0 -1 0
    outer loop
      vertex 154.9 -13.375 256.55
      vertex 157.6 -13.375 255.547
      vertex 160.1 -13.375 256.55
    endloop
  endfacet
  facet normal 0 -0.47672 0.879055
    outer loop
      vertex 154.9 -13.375 256.55
      vertex 160.1 -13.375 256.55
      vertex 160.1 -2.19689 262.612
    endloop
  endfacet
  facet normal 0 1 0
    outer loop
      vertex 154.9 13.375 251.35
      vertex 154.9 13.375 256.55
      vertex 155.913 13.375 253.749
    endloop
  endfacet
  facet normal 0 1 0
    outer loop
      vertex 154.9 13.375 251.35
      vertex 155.913 13.375 253.749
      vertex 156.012 13.375 253.361
    endloop
  endfacet
  facet normal 0 1 0
    outer loop
      vertex 154.9 13.375 251.35
      vertex 156.012 13.375 253.361
      vertex 156.206 13.375 253.01
    endloop
  endfacet
  facet normal 0 1 0
    outer loop
      vertex 154.9 13.375 251.35
      vertex 156.206 13.375 253.01
      vertex 156.48 13.375 252.717
    endloop
  endfacet
  facet normal 0 1 0
    outer loop
      vertex 154.9 13.375 251.35
      vertex 156.48 13.375 252.717
      vertex 156.819 13.375 252.502
    endloop
  endfacet
  facet normal 0 1 0
    outer loop
      vertex 154.9 13.375 251.35
      vertex 156.819 13.375 252.502
      vertex 157.2 13.375 252.378
    endloop
  endfacet
  facet normal 0 1 0
    outer loop
      vertex 154.9 13.375 251.35
      vertex 157.2 13.375 252.378
      vertex 157.6 13.375 252.353
    endloop
  endfacet
  facet normal 0 1 0
    outer loop
      vertex 154.9 13.375 251.35
      vertex 157.6 13.375 252.353
      vertex 160.1 13.375 251.35
    endloop
  endfacet
  facet normal 0 1 -0
    outer loop
      vertex 154.9 13.375 256.55
      vertex 155.913 13.375 254.151
      vertex 155.913 13.375 253.749
    endloop
  endfacet
  facet normal 0 1 -0
    outer loop
      vertex 154.9 13.375 256.55
      vertex 156.012 13.375 254.539
      vertex 155.913 13.375 254.151
    endloop
  endfacet
  facet normal 0 1 -0
    outer loop
      vertex 154.9 13.375 256.55
      vertex 156.206 13.375 254.89
      vertex 156.012 13.375 254.539
    endloop
  endfacet
  facet normal 0 1 -0
    outer loop
      vertex 154.9 13.375 256.55
      vertex 156.48 13.375 255.183
      vertex 156.206 13.375 254.89
    endloop
  endfacet
  facet normal 0 1 -0
    outer loop
      vertex 154.9 13.375 256.55
      vertex 156.819 13.375 255.398
      vertex 156.48 13.375 255.183
    endloop
  endfacet
  facet normal 0 1 -0
    outer loop
      vertex 154.9 13.375 256.55
      vertex 157.2 13.375 255.522
      vertex 156.819 13.375 255.398
    endloop
  endfacet
  facet normal 0 1 -0
    outer loop
      vertex 154.9 13.375 256.55
      vertex 157.6 13.375 255.547
      vertex 157.2 13.375 255.522
    endloop
  endfacet
  facet normal -0 0.476914 0.87895
    outer loop
      vertex 154.9 13.375 256.55
      vertex 160.1 1.74569 262.86
      vertex 160.1 13.375 256.55
    endloop
  endfacet
  facet normal 0 1 0
    outer loop
      vertex 154.9 13.375 256.55
      vertex 160.1 13.375 256.55
      vertex 157.6 13.375 255.547
    endloop
  endfacet
  facet normal 1 0 0
    outer loop
      vertex 155.913 -13.375 253.749
      vertex 155.913 13.375 253.749
      vertex 155.913 -13.375 254.151
    endloop
  endfacet
  facet normal 0.968956 0 0.247234
    outer loop
      vertex 155.913 -13.375 253.749
      vertex 156.012 -13.375 253.361
      vertex 156.012 13.375 253.361
    endloop
  endfacet
  facet normal 0.968956 -0 0.247234
    outer loop
      vertex 155.913 -13.375 253.749
      vertex 156.012 13.375 253.361
      vertex 155.913 13.375 253.749
    endloop
  endfacet
  facet normal 1 -0 0
    outer loop
      vertex 155.913 -13.375 254.151
      vertex 155.913 13.375 253.749
      vertex 155.913 13.375 254.151
    endloop
  endfacet
  facet normal 0.968956 0 -0.247234
    outer loop
      vertex 155.913 -13.375 254.151
      vertex 155.913 13.375 254.151
      vertex 156.012 -13.375 254.539
    endloop
  endfacet
  facet normal 0.968956 0 -0.247234
    outer loop
      vertex 155.913 13.375 254.151
      vertex 156.012 13.375 254.539
      vertex 156.012 -13.375 254.539
    endloop
  endfacet
  facet normal 0.875214 0 0.483736
    outer loop
      vertex 156.012 -13.375 253.361
      vertex 156.206 -13.375 253.01
      vertex 156.206 13.375 253.01
    endloop
  endfacet
  facet normal 0.875214 -0 0.483736
    outer loop
      vertex 156.012 -13.375 253.361
      vertex 156.206 13.375 253.01
      vertex 156.012 13.375 253.361
    endloop
  endfacet
  facet normal 0.875214 0 -0.483736
    outer loop
      vertex 156.012 -13.375 254.539
      vertex 156.012 13.375 254.539
      vertex 156.206 -13.375 254.89
    endloop
  endfacet
  facet normal 0.875214 0 -0.483736
    outer loop
      vertex 156.012 13.375 254.539
      vertex 156.206 13.375 254.89
      vertex 156.206 -13.375 254.89
    endloop
  endfacet
  facet normal 0.730392 0 0.683028
    outer loop
      vertex 156.206 -13.375 253.01
      vertex 156.48 -13.375 252.717
      vertex 156.48 13.375 252.717
    endloop
  endfacet
  facet normal 0.730392 -0 0.683028
    outer loop
      vertex 156.206 -13.375 253.01
      vertex 156.48 13.375 252.717
      vertex 156.206 13.375 253.01
    endloop
  endfacet
  facet normal 0.730392 0 -0.683028
    outer loop
      vertex 156.206 -13.375 254.89
      vertex 156.206 13.375 254.89
      vertex 156.48 -13.375 255.183
    endloop
  endfacet
  facet normal 0.730392 0 -0.683028
    outer loop
      vertex 156.206 13.375 254.89
      vertex 156.48 13.375 255.183
      vertex 156.48 -13.375 255.183
    endloop
  endfacet
  facet normal 0.535585 0 0.844481
    outer loop
      vertex 156.48 -13.375 252.717
      vertex 156.819 -13.375 252.502
      vertex 156.48 13.375 252.717
    endloop
  endfacet
  facet normal 0.535585 0 -0.844481
    outer loop
      vertex 156.48 -13.375 255.183
      vertex 156.48 13.375 255.183
      vertex 156.819 13.375 255.398
    endloop
  endfacet
  facet normal 0.535585 0 -0.844481
    outer loop
      vertex 156.48 -13.375 255.183
      vertex 156.819 13.375 255.398
      vertex 156.819 -13.375 255.398
    endloop
  endfacet
  facet normal 0.535585 0 0.844481
    outer loop
      vertex 156.48 13.375 252.717
      vertex 156.819 -13.375 252.502
      vertex 156.819 13.375 252.502
    endloop
  endfacet
  facet normal 0.309481 0 0.950906
    outer loop
      vertex 156.819 -13.375 252.502
      vertex 157.2 -13.375 252.378
      vertex 156.819 13.375 252.502
    endloop
  endfacet
  facet normal 0.309481 0 -0.950906
    outer loop
      vertex 156.819 -13.375 255.398
      vertex 156.819 13.375 255.398
      vertex 157.2 13.375 255.522
    endloop
  endfacet
  facet normal 0.309481 0 -0.950906
    outer loop
      vertex 156.819 -13.375 255.398
      vertex 157.2 13.375 255.522
      vertex 157.2 -13.375 255.522
    endloop
  endfacet
  facet normal 0.309481 0 0.950906
    outer loop
      vertex 156.819 13.375 252.502
      vertex 157.2 -13.375 252.378
      vertex 157.2 13.375 252.378
    endloop
  endfacet
  facet normal 0.0623783 0 0.998053
    outer loop
      vertex 157.2 -13.375 252.378
      vertex 157.6 -13.375 252.353
      vertex 157.2 13.375 252.378
    endloop
  endfacet
  facet normal 0.0623783 0 -0.998053
    outer loop
      vertex 157.2 -13.375 255.522
      vertex 157.2 13.375 255.522
      vertex 157.6 13.375 255.547
    endloop
  endfacet
  facet normal 0.0623783 0 -0.998053
    outer loop
      vertex 157.2 -13.375 255.522
      vertex 157.6 13.375 255.547
      vertex 157.6 -13.375 255.547
    endloop
  endfacet
  facet normal 0.0623783 0 0.998053
    outer loop
      vertex 157.2 13.375 252.378
      vertex 157.6 -13.375 252.353
      vertex 157.6 13.375 252.353
    endloop
  endfacet
  facet normal -0.186998 0 0.98236
    outer loop
      vertex 157.6 -13.375 252.353
      vertex 157.994 -13.375 252.428
      vertex 157.6 13.375 252.353
    endloop
  endfacet
  facet normal 0 -1 0
    outer loop
      vertex 157.6 -13.375 252.353
      vertex 160.1 -13.375 251.35
      vertex 157.994 -13.375 252.428
    endloop
  endfacet
  facet normal -0.186998 0 -0.98236
    outer loop
      vertex 157.6 -13.375 255.547
      vertex 157.6 13.375 255.547
      vertex 157.994 13.375 255.472
    endloop
  endfacet
  facet normal 0 -1 0
    outer loop
      vertex 157.6 -13.375 255.547
      vertex 157.994 -13.375 255.472
      vertex 160.1 -13.375 256.55
    endloop
  endfacet
  facet normal -0.186998 0 -0.98236
    outer loop
      vertex 157.6 -13.375 255.547
      vertex 157.994 13.375 255.472
      vertex 157.994 -13.375 255.472
    endloop
  endfacet
  facet normal -0.186998 0 0.98236
    outer loop
      vertex 157.6 13.375 252.353
      vertex 157.994 -13.375 252.428
      vertex 157.994 13.375 252.428
    endloop
  endfacet
  facet normal 0 1 0
    outer loop
      vertex 157.6 13.375 252.353
      vertex 157.994 13.375 252.428
      vertex 160.1 13.375 251.35
    endloop
  endfacet
  facet normal 0 1 0
    outer loop
      vertex 157.6 13.375 255.547
      vertex 160.1 13.375 256.55
      vertex 157.994 13.375 255.472
    endloop
  endfacet
  facet normal -0.426157 0 0.904649
    outer loop
      vertex 157.994 -13.375 252.428
      vertex 158.357 -13.375 252.599
      vertex 157.994 13.375 252.428
    endloop
  endfacet
  facet normal 0 -1 0
    outer loop
      vertex 157.994 -13.375 252.428
      vertex 160.1 -13.375 251.35
      vertex 158.357 -13.375 252.599
    endloop
  endfacet
  facet normal -0.426157 0 -0.904649
    outer loop
      vertex 157.994 -13.375 255.472
      vertex 157.994 13.375 255.472
      vertex 158.357 13.375 255.301
    endloop
  endfacet
  facet normal 0 -1 0
    outer loop
      vertex 157.994 -13.375 255.472
      vertex 158.357 -13.375 255.301
      vertex 160.1 -13.375 256.55
    endloop
  endfacet
  facet normal -0.426157 0 -0.904649
    outer loop
      vertex 157.994 -13.375 255.472
      vertex 158.357 13.375 255.301
      vertex 158.357 -13.375 255.301
    endloop
  endfacet
  facet normal -0.426157 0 0.904649
    outer loop
      vertex 157.994 13.375 252.428
      vertex 158.357 -13.375 252.599
      vertex 158.357 13.375 252.599
    endloop
  endfacet
  facet normal 0 1 0
    outer loop
      vertex 157.994 13.375 252.428
      vertex 158.357 13.375 252.599
      vertex 160.1 13.375 251.35
    endloop
  endfacet
  facet normal 0 1 0
    outer loop
      vertex 157.994 13.375 255.472
      vertex 160.1 13.375 256.55
      vertex 158.357 13.375 255.301
    endloop
  endfacet
  facet normal -0.637976 0 0.770057
    outer loop
      vertex 158.357 -13.375 252.599
      vertex 158.666 -13.375 252.855
      vertex 158.357 13.375 252.599
    endloop
  endfacet
  facet normal 0 -1 0
    outer loop
      vertex 158.357 -13.375 252.599
      vertex 160.1 -13.375 251.35
      vertex 158.666 -13.375 252.855
    endloop
  endfacet
  facet normal -0.637976 0 -0.770057
    outer loop
      vertex 158.357 -13.375 255.301
      vertex 158.357 13.375 255.301
      vertex 158.666 13.375 255.045
    endloop
  endfacet
  facet normal 0 -1 0
    outer loop
      vertex 158.357 -13.375 255.301
      vertex 158.666 -13.375 255.045
      vertex 160.1 -13.375 256.55
    endloop
  endfacet
  facet normal -0.637976 0 -0.770057
    outer loop
      vertex 158.357 -13.375 255.301
      vertex 158.666 13.375 255.045
      vertex 158.666 -13.375 255.045
    endloop
  endfacet
  facet normal -0.637976 0 0.770057
    outer loop
      vertex 158.357 13.375 252.599
      vertex 158.666 -13.375 252.855
      vertex 158.666 13.375 252.855
    endloop
  endfacet
  facet normal 0 1 0
    outer loop
      vertex 158.357 13.375 252.599
      vertex 158.666 13.375 252.855
      vertex 160.1 13.375 251.35
    endloop
  endfacet
  facet normal 0 1 0
    outer loop
      vertex 158.357 13.375 255.301
      vertex 160.1 13.375 256.55
      vertex 158.666 13.375 255.045
    endloop
  endfacet
  facet normal -0.808304 0 0.588765
    outer loop
      vertex 158.666 -13.375 252.855
      vertex 158.902 -13.375 253.179
      vertex 158.902 13.375 253.179
    endloop
  endfacet
  facet normal -0.808304 0 0.588765
    outer loop
      vertex 158.666 -13.375 252.855
      vertex 158.902 13.375 253.179
      vertex 158.666 13.375 252.855
    endloop
  endfacet
  facet normal 0 -1 0
    outer loop
      vertex 158.666 -13.375 252.855
      vertex 160.1 -13.375 251.35
      vertex 158.902 -13.375 253.179
    endloop
  endfacet
  facet normal -0.808304 -0 -0.588765
    outer loop
      vertex 158.666 -13.375 255.045
      vertex 158.666 13.375 255.045
      vertex 158.902 -13.375 254.721
    endloop
  endfacet
  facet normal 0 -1 0
    outer loop
      vertex 158.666 -13.375 255.045
      vertex 158.902 -13.375 254.721
      vertex 160.1 -13.375 256.55
    endloop
  endfacet
  facet normal 0 1 0
    outer loop
      vertex 158.666 13.375 252.855
      vertex 158.902 13.375 253.179
      vertex 160.1 13.375 251.35
    endloop
  endfacet
  facet normal -0.808304 0 -0.588765
    outer loop
      vertex 158.666 13.375 255.045
      vertex 158.902 13.375 254.721
      vertex 158.902 -13.375 254.721
    endloop
  endfacet
  facet normal 0 1 0
    outer loop
      vertex 158.666 13.375 255.045
      vertex 160.1 13.375 256.55
      vertex 158.902 13.375 254.721
    endloop
  endfacet
  facet normal -0.929504 0 0.368811
    outer loop
      vertex 158.902 -13.375 253.179
      vertex 159.05 -13.375 253.552
      vertex 159.05 13.375 253.552
    endloop
  endfacet
  facet normal -0.929504 0 0.368811
    outer loop
      vertex 158.902 -13.375 253.179
      vertex 159.05 13.375 253.552
      vertex 158.902 13.375 253.179
    endloop
  endfacet
  facet normal 0 -1 0
    outer loop
      vertex 158.902 -13.375 253.179
      vertex 160.1 -13.375 251.35
      vertex 159.05 -13.375 253.552
    endloop
  endfacet
  facet normal -0.929504 -0 -0.368811
    outer loop
      vertex 158.902 -13.375 254.721
      vertex 158.902 13.375 254.721
      vertex 159.05 -13.375 254.348
    endloop
  endfacet
  facet normal 0 -1 0
    outer loop
      vertex 158.902 -13.375 254.721
      vertex 159.05 -13.375 254.348
      vertex 160.1 -13.375 256.55
    endloop
  endfacet
  facet normal 0 1 0
    outer loop
      vertex 158.902 13.375 253.179
      vertex 159.05 13.375 253.552
      vertex 160.1 13.375 251.35
    endloop
  endfacet
  facet normal -0.929504 0 -0.368811
    outer loop
      vertex 158.902 13.375 254.721
      vertex 159.05 13.375 254.348
      vertex 159.05 -13.375 254.348
    endloop
  endfacet
  facet normal 0 1 0
    outer loop
      vertex 158.902 13.375 254.721
      vertex 160.1 13.375 256.55
      vertex 159.05 13.375 254.348
    endloop
  endfacet
  facet normal -0.992201 0 0.124648
    outer loop
      vertex 159.05 -13.375 253.552
      vertex 159.1 -13.375 253.95
      vertex 159.1 13.375 253.95
    endloop
  endfacet
  facet normal -0.992201 0 0.124648
    outer loop
      vertex 159.05 -13.375 253.552
      vertex 159.1 13.375 253.95
      vertex 159.05 13.375 253.552
    endloop
  endfacet
  facet normal 0 -1 0
    outer loop
      vertex 159.05 -13.375 253.552
      vertex 160.1 -13.375 251.35
      vertex 159.1 -13.375 253.95
    endloop
  endfacet
  facet normal -0.992201 -0 -0.124648
    outer loop
      vertex 159.05 -13.375 254.348
      vertex 159.05 13.375 254.348
      vertex 159.1 -13.375 253.95
    endloop
  endfacet
  facet normal 0 -1 0
    outer loop
      vertex 159.05 -13.375 254.348
      vertex 159.1 -13.375 253.95
      vertex 160.1 -13.375 256.55
    endloop
  endfacet
  facet normal 0 1 0
    outer loop
      vertex 159.05 13.375 253.552
      vertex 159.1 13.375 253.95
      vertex 160.1 13.375 251.35
    endloop
  endfacet
  facet normal -0.992201 0 -0.124648
    outer loop
      vertex 159.05 13.375 254.348
      vertex 159.1 13.375 253.95
      vertex 159.1 -13.375 253.95
    endloop
  endfacet
  facet normal 0 1 0
    outer loop
      vertex 159.05 13.375 254.348
      vertex 160.1 13.375 256.55
      vertex 159.1 13.375 253.95
    endloop
  endfacet
  facet normal 0 -1 0
    outer loop
      vertex 159.1 -13.375 253.95
      vertex 160.1 -13.375 251.35
      vertex 160.1 -13.375 256.55
    endloop
  endfacet
  facet normal 0 1 -0
    outer loop
      vertex 159.1 13.375 253.95
      vertex 160.1 13.375 256.55
      vertex 160.1 13.375 251.35
    endloop
  endfacet
  facet normal 1 -0 0
    outer loop
      vertex 160.1 -0.100465 257.553
      vertex 160.1 13.375 251.35
      vertex 160.1 0.299809 257.578
    endloop
  endfacet
  facet normal 1 0 0
    outer loop
      vertex 160.1 -0.100465 260.747
      vertex 160.1 0.299809 260.722
      vertex 160.1 0.768263 263.177
    endloop
  endfacet
  facet normal 1 0 0
    outer loop
      vertex 160.1 -0.257441 263.242
      vertex 160.1 -0.100465 260.747
      vertex 160.1 0.768263 263.177
    endloop
  endfacet
  facet normal 1 0 0
    outer loop
      vertex 160.1 -0.494427 260.672
      vertex 160.1 -0.100465 260.747
      vertex 160.1 -0.257441 263.242
    endloop
  endfacet
  facet normal 1 -0 0
    outer loop
      vertex 160.1 -1.26697 263.049
      vertex 160.1 -0.494427 260.672
      vertex 160.1 -0.257441 263.242
    endloop
  endfacet
  facet normal 1 0 0
    outer loop
      vertex 160.1 -1.26697 263.049
      vertex 160.1 -0.857323 260.501
      vertex 160.1 -0.494427 260.672
    endloop
  endfacet
  facet normal 1 0 0
    outer loop
      vertex 160.1 -13.375 251.35
      vertex 160.1 -0.100465 257.553
      vertex 160.1 -0.494427 257.628
    endloop
  endfacet
  facet normal 1 0 0
    outer loop
      vertex 160.1 -13.375 251.35
      vertex 160.1 -0.494427 257.628
      vertex 160.1 -0.857323 257.799
    endloop
  endfacet
  facet normal 1 0 0
    outer loop
      vertex 160.1 -13.375 251.35
      vertex 160.1 -0.857323 257.799
      vertex 160.1 -1.16635 258.055
    endloop
  endfacet
  facet normal 1 0 0
    outer loop
      vertex 160.1 -13.375 251.35
      vertex 160.1 -1.16635 258.055
      vertex 160.1 -13.375 256.55
    endloop
  endfacet
  facet normal 1 0 0
    outer loop
      vertex 160.1 -13.375 251.35
      vertex 160.1 13.375 251.35
      vertex 160.1 -0.100465 257.553
    endloop
  endfacet
  facet normal 1 0 0
    outer loop
      vertex 160.1 -13.375 256.55
      vertex 160.1 -1.16635 258.055
      vertex 160.1 -1.40209 258.379
    endloop
  endfacet
  facet normal 1 0 0
    outer loop
      vertex 160.1 -13.375 256.55
      vertex 160.1 -1.40209 258.379
      vertex 160.1 -1.54973 258.752
    endloop
  endfacet
  facet normal 1 0 0
    outer loop
      vertex 160.1 -13.375 256.55
      vertex 160.1 -1.54973 258.752
      vertex 160.1 -1.6 259.15
    endloop
  endfacet
  facet normal 1 0 0
    outer loop
      vertex 160.1 -13.375 256.55
      vertex 160.1 -1.6 259.15
      vertex 160.1 -2.19689 262.612
    endloop
  endfacet
  facet normal 1 -0 0
    outer loop
      vertex 160.1 -2.19689 262.612
      vertex 160.1 -0.857323 260.501
      vertex 160.1 -1.26697 263.049
    endloop
  endfacet
  facet normal 1 0 0
    outer loop
      vertex 160.1 -2.19689 262.612
      vertex 160.1 -1.16635 260.245
      vertex 160.1 -0.857323 260.501
    endloop
  endfacet
  facet normal 1 0 0
    outer loop
      vertex 160.1 -2.19689 262.612
      vertex 160.1 -1.40209 259.921
      vertex 160.1 -1.16635 260.245
    endloop
  endfacet
  facet normal 1 0 0
    outer loop
      vertex 160.1 -2.19689 262.612
      vertex 160.1 -1.54973 259.548
      vertex 160.1 -1.40209 259.921
    endloop
  endfacet
  facet normal 1 0 0
    outer loop
      vertex 160.1 -2.19689 262.612
      vertex 160.1 -1.6 259.15
      vertex 160.1 -1.54973 259.548
    endloop
  endfacet
  facet normal 1 -0 0
    outer loop
      vertex 160.1 0.299809 257.578
      vertex 160.1 13.375 251.35
      vertex 160.1 0.681247 257.702
    endloop
  endfacet
  facet normal 1 0 0
    outer loop
      vertex 160.1 0.299809 260.722
      vertex 160.1 0.681247 260.598
      vertex 160.1 0.768263 263.177
    endloop
  endfacet
  facet normal 1 -0 0
    outer loop
      vertex 160.1 0.681247 257.702
      vertex 160.1 13.375 251.35
      vertex 160.1 1.01988 257.917
    endloop
  endfacet
  facet normal 1 0 0
    outer loop
      vertex 160.1 0.681247 260.598
      vertex 160.1 1.01988 260.383
      vertex 160.1 1.74569 262.86
    endloop
  endfacet
  facet normal 1 0 0
    outer loop
      vertex 160.1 0.681247 260.598
      vertex 160.1 1.74569 262.86
      vertex 160.1 0.768263 263.177
    endloop
  endfacet
  facet normal 1 -0 0
    outer loop
      vertex 160.1 1.01988 257.917
      vertex 160.1 13.375 251.35
      vertex 160.1 1.29443 258.21
    endloop
  endfacet
  facet normal 1 0 0
    outer loop
      vertex 160.1 1.01988 260.383
      vertex 160.1 1.29443 260.09
      vertex 160.1 1.74569 262.86
    endloop
  endfacet
  facet normal 1 0 0
    outer loop
      vertex 160.1 1.29443 258.21
      vertex 160.1 13.375 251.35
      vertex 160.1 13.375 256.55
    endloop
  endfacet
  facet normal 1 -0 0
    outer loop
      vertex 160.1 1.29443 258.21
      vertex 160.1 13.375 256.55
      vertex 160.1 1.48764 258.561
    endloop
  endfacet
  facet normal 1 0 0
    outer loop
      vertex 160.1 1.29443 260.09
      vertex 160.1 1.48764 259.739
      vertex 160.1 1.74569 262.86
    endloop
  endfacet
  facet normal 1 -0 0
    outer loop
      vertex 160.1 1.48764 258.561
      vertex 160.1 13.375 256.55
      vertex 160.1 1.58738 258.949
    endloop
  endfacet
  facet normal 1 0 0
    outer loop
      vertex 160.1 1.48764 259.739
      vertex 160.1 1.58738 259.351
      vertex 160.1 1.74569 262.86
    endloop
  endfacet
  facet normal 1 -0 0
    outer loop
      vertex 160.1 1.58738 258.949
      vertex 160.1 13.375 256.55
      vertex 160.1 1.58738 259.351
    endloop
  endfacet
  facet normal 1 -0 0
    outer loop
      vertex 160.1 1.58738 259.351
      vertex 160.1 13.375 256.55
      vertex 160.1 1.74569 262.86
    endloop
  endfacet
endsolid model
