solid model
  facet normal 0 1 0
    outer loop
      vertex 125 -35 -40
      vertex 125 -35 40
      vertex 135 -35 -40
    endloop
  endfacet
  facet normal 0 0 -1
    outer loop
      vertex 125 -35 -40
      vertex 129.2 -38.6144 -40
      vertex 128.4 -40 -40
    endloop
  endfacet
  facet normal 0 0 -1
    outer loop
      vertex 125 -35 -40
      vertex 135 -35 -40
      vertex 129.2 -38.6144 -40
    endloop
  endfacet
  facet normal 0 0 1
    outer loop
      vertex 125 -35 40
      vertex 128.4 -40 40
      vertex 129.2 -38.6144 40
    endloop
  endfacet
  facet normal -0 0 1
    outer loop
      vertex 125 -35 40
      vertex 129.2 -38.6144 40
      vertex 135 -35 40
    endloop
  endfacet
  facet normal 0 1 -0
    outer loop
      vertex 125 -35 40
      vertex 135 -35 40
      vertex 135 -35 -40
    endloop
  endfacet
  facet normal 0 0 -1
    outer loop
      vertex 125 -45 -40
      vertex 125 -35 -40
      vertex 128.4 -40 -40
    endloop
  endfacet
  facet normal -1 0 0
    outer loop
      vertex 125 -45 -40
      vertex 125 -35 40
      vertex 125 -35 -40
    endloop
  endfacet
  facet normal -1 -0 0
    outer loop
      vertex 125 -45 -40
      vertex 125 -45 40
      vertex 125 -35 40
    endloop
  endfacet
  facet normal -0 0 -1
    outer loop
      vertex 125 -45 -40
      vertex 128.4 -40 -40
      vertex 129.2 -41.3856 -40
    endloop
  endfacet
  facet normal 0 0 -1
    outer loop
      vertex 125 -45 -40
      vertex 129.2 -41.3856 -40
      vertex 135 -45 -40
    endloop
  endfacet
  facet normal 0 -1 -0
    outer loop
      vertex 125 -45 -40
      vertex 135 -45 -40
      vertex 135 -45 40
    endloop
  endfacet
  facet normal 0 -1 0
    outer loop
      vertex 125 -45 -40
      vertex 135 -45 40
      vertex 125 -45 40
    endloop
  endfacet
  facet normal 0 0 1
    outer loop
      vertex 125 -45 40
      vertex 128.4 -40 40
      vertex 125 -35 40
    endloop
  endfacet
  facet normal 0 0 1
    outer loop
      vertex 125 -45 40
      vertex 129.2 -41.3856 40
      vertex 128.4 -40 40
    endloop
  endfacet
  facet normal 0 0 1
    outer loop
      vertex 125 -45 40
      vertex 135 -45 40
      vertex 129.2 -41.3856 40
    endloop
  endfacet
  facet normal -1 -0 0
    outer loop
      vertex 125 35 -40
      vertex 125 35 40
      vertex 125 45 40
    endloop
  endfacet
  facet normal 0 0 -1
    outer loop
      vertex 125 35 -40
      vertex 125 45 -40
      vertex 128.4 40 -40
    endloop
  endfacet
  facet normal -1 0 0
    outer loop
      vertex 125 35 -40
      vertex 125 45 40
      vertex 125 45 -40
    endloop
  endfacet
  facet normal -0 0 -1
    outer loop
      vertex 125 35 -40
      vertex 128.4 40 -40
      vertex 129.2 38.6144 -40
    endloop
  endfacet
  facet normal 0 0 -1
    outer loop
      vertex 125 35 -40
      vertex 129.2 38.6144 -40
      vertex 135 35 -40
    endloop
  endfacet
  facet normal 0 -1 -0
    outer loop
      vertex 125 35 -40
      vertex 135 35 -40
      vertex 135 35 40
    endloop
  endfacet
  facet normal 0 -1 0
    outer loop
      vertex 125 35 -40
      vertex 135 35 40
      vertex 125 35 40
    endloop
  endfacet
  facet normal 0 0 1
    outer loop
      vertex 125 35 40
      vertex 128.4 40 40
      vertex 125 45 40
    endloop
  endfacet
  facet normal 0 0 1
    outer loop
      vertex 125 35 40
      vertex 129.2 38.6144 40
      vertex 128.4 40 40
    endloop
  endfacet
  facet normal 0 0 1
    outer loop
      vertex 125 35 40
      vertex 135 35 40
      vertex 129.2 38.6144 40
    endloop
  endfacet
  facet normal 0 1 0
    outer loop
      vertex 125 45 -40
      vertex 125 45 40
      vertex 135 45 -40
    endloop
  endfacet
  facet normal 0 0 -1
    outer loop
      vertex 125 45 -40
      vertex 129.2 41.3856 -40
      vertex 128.4 40 -40
    endloop
  endfacet
  facet normal 0 0 -1
    outer loop
      vertex 125 45 -40
      vertex 135 45 -40
      vertex 129.2 41.3856 -40
    endloop
  endfacet
  facet normal 0 0 1
    outer loop
      vertex 125 45 40
      vertex 128.4 40 40
      vertex 129.2 41.3856 40
    endloop
  endfacet
  facet normal -0 0 1
    outer loop
      vertex 125 45 40
      vertex 129.2 41.3856 40
      vertex 135 45 40
    endloop
  endfacet
  facet normal 0 1 -0
    outer loop
      vertex 125 45 40
      vertex 135 45 40
      vertex 135 45 -40
    endloop
  endfacet
  facet normal 0.866019 0.500011 0
    outer loop
      vertex 128.4 -40 -40
      vertex 128.4 -40 40
      vertex 129.2 -41.3856 40
    endloop
  endfacet
  facet normal 0.866019 -0.500011 0
    outer loop
      vertex 128.4 -40 -40
      vertex 129.2 -38.6144 -40
      vertex 128.4 -40 40
    endloop
  endfacet
  facet normal 0.866019 0.500011 0
    outer loop
      vertex 128.4 -40 -40
      vertex 129.2 -41.3856 40
      vertex 129.2 -41.3856 -40
    endloop
  endfacet
  facet normal 0.866019 -0.500011 0
    outer loop
      vertex 128.4 -40 40
      vertex 129.2 -38.6144 -40
      vertex 129.2 -38.6144 40
    endloop
  endfacet
  facet normal 0.866019 0.500011 0
    outer loop
      vertex 128.4 40 -40
      vertex 128.4 40 40
      vertex 129.2 38.6144 40
    endloop
  endfacet
  facet normal 0.866019 0.500011 0
    outer loop
      vertex 128.4 40 -40
      vertex 129.2 38.6144 40
      vertex 129.2 38.6144 -40
    endloop
  endfacet
  facet normal 0.866019 -0.500011 0
    outer loop
      vertex 128.4 40 -40
      vertex 129.2 41.3856 -40
      vertex 128.4 40 40
    endloop
  endfacet
  facet normal 0.866019 -0.500011 0
    outer loop
      vertex 128.4 40 40
      vertex 129.2 41.3856 -40
      vertex 129.2 41.3856 40
    endloop
  endfacet
  facet normal 0 -1 -0
    outer loop
      vertex 129.2 -38.6144 -40
      vertex 130.8 -38.6144 -40
      vertex 130.8 -38.6144 40
    endloop
  endfacet
  facet normal 0 -1 0
    outer loop
      vertex 129.2 -38.6144 -40
      vertex 130.8 -38.6144 40
      vertex 129.2 -38.6144 40
    endloop
  endfacet
  facet normal 0 0 -1
    outer loop
      vertex 129.2 -38.6144 -40
      vertex 135 -35 -40
      vertex 130.8 -38.6144 -40
    endloop
  endfacet
  facet normal 0 0 1
    outer loop
      vertex 129.2 -38.6144 40
      vertex 130.8 -38.6144 40
      vertex 135 -35 40
    endloop
  endfacet
  facet normal 0 1 0
    outer loop
      vertex 129.2 -41.3856 -40
      vertex 129.2 -41.3856 40
      vertex 130.8 -41.3856 -40
    endloop
  endfacet
  facet normal 0 0 -1
    outer loop
      vertex 129.2 -41.3856 -40
      vertex 130.8 -41.3856 -40
      vertex 135 -45 -40
    endloop
  endfacet
  facet normal 0 1 -0
    outer loop
      vertex 129.2 -41.3856 40
      vertex 130.8 -41.3856 40
      vertex 130.8 -41.3856 -40
    endloop
  endfacet
  facet normal -0 0 1
    outer loop
      vertex 129.2 -41.3856 40
      vertex 135 -45 40
      vertex 130.8 -41.3856 40
    endloop
  endfacet
  facet normal 0 1 0
    outer loop
      vertex 129.2 38.6144 -40
      vertex 129.2 38.6144 40
      vertex 130.8 38.6144 -40
    endloop
  endfacet
  facet normal 0 0 -1
    outer loop
      vertex 129.2 38.6144 -40
      vertex 130.8 38.6144 -40
      vertex 135 35 -40
    endloop
  endfacet
  facet normal 0 1 -0
    outer loop
      vertex 129.2 38.6144 40
      vertex 130.8 38.6144 40
      vertex 130.8 38.6144 -40
    endloop
  endfacet
  facet normal -0 0 1
    outer loop
      vertex 129.2 38.6144 40
      vertex 135 35 40
      vertex 130.8 38.6144 40
    endloop
  endfacet
  facet normal 0 -1 -0
    outer loop
      vertex 129.2 41.3856 -40
      vertex 130.8 41.3856 -40
      vertex 130.8 41.3856 40
    endloop
  endfacet
  facet normal 0 -1 0
    outer loop
      vertex 129.2 41.3856 -40
      vertex 130.8 41.3856 40
      vertex 129.2 41.3856 40
    endloop
  endfacet
  facet normal 0 0 -1
    outer loop
      vertex 129.2 41.3856 -40
      vertex 135 45 -40
      vertex 130.8 41.3856 -40
    endloop
  endfacet
  facet normal 0 0 1
    outer loop
      vertex 129.2 41.3856 40
      vertex 130.8 41.3856 40
      vertex 135 45 40
    endloop
  endfacet
  facet normal -0.866019 -0.500011 0
    outer loop
      vertex 130.8 -38.6144 -40
      vertex 131.6 -40 -40
      vertex 130.8 -38.6144 40
    endloop
  endfacet
  facet normal 0 0 -1
    outer loop
      vertex 130.8 -38.6144 -40
      vertex 135 -35 -40
      vertex 131.6 -40 -40
    endloop
  endfacet
  facet normal -0.866019 -0.500011 0
    outer loop
      vertex 130.8 -38.6144 40
      vertex 131.6 -40 -40
      vertex 131.6 -40 40
    endloop
  endfacet
  facet normal 0 0 1
    outer loop
      vertex 130.8 -38.6144 40
      vertex 131.6 -40 40
      vertex 135 -35 40
    endloop
  endfacet
  facet normal -0.866019 0.500011 0
    outer loop
      vertex 130.8 -41.3856 -40
      vertex 130.8 -41.3856 40
      vertex 131.6 -40 40
    endloop
  endfacet
  facet normal 0 0 -1
    outer loop
      vertex 130.8 -41.3856 -40
      vertex 131.6 -40 -40
      vertex 135 -45 -40
    endloop
  endfacet
  facet normal -0.866019 0.500011 0
    outer loop
      vertex 130.8 -41.3856 -40
      vertex 131.6 -40 40
      vertex 131.6 -40 -40
    endloop
  endfacet
  facet normal -0 0 1
    outer loop
      vertex 130.8 -41.3856 40
      vertex 135 -45 40
      vertex 131.6 -40 40
    endloop
  endfacet
  facet normal -0.866019 0.500011 0
    outer loop
      vertex 130.8 38.6144 -40
      vertex 130.8 38.6144 40
      vertex 131.6 40 40
    endloop
  endfacet
  facet normal 0 0 -1
    outer loop
      vertex 130.8 38.6144 -40
      vertex 131.6 40 -40
      vertex 135 35 -40
    endloop
  endfacet
  facet normal -0.866019 0.500011 0
    outer loop
      vertex 130.8 38.6144 -40
      vertex 131.6 40 40
      vertex 131.6 40 -40
    endloop
  endfacet
  facet normal -0 0 1
    outer loop
      vertex 130.8 38.6144 40
      vertex 135 35 40
      vertex 131.6 40 40
    endloop
  endfacet
  facet normal -0.866019 -0.500011 0
    outer loop
      vertex 130.8 41.3856 -40
      vertex 131.6 40 -40
      vertex 130.8 41.3856 40
    endloop
  endfacet
  facet normal 0 0 -1
    outer loop
      vertex 130.8 41.3856 -40
      vertex 135 45 -40
      vertex 131.6 40 -40
    endloop
  endfacet
  facet normal -0.866019 -0.500011 0
    outer loop
      vertex 130.8 41.3856 40
      vertex 131.6 40 -40
      vertex 131.6 40 40
    endloop
  endfacet
  facet normal 0 0 1
    outer loop
      vertex 130.8 41.3856 40
      vertex 131.6 40 40
      vertex 135 45 40
    endloop
  endfacet
  facet normal 0 0 -1
    outer loop
      vertex 131.6 -40 -40
      vertex 135 -35 -40
      vertex 135 -45 -40
    endloop
  endfacet
  facet normal 0 0 1
    outer loop
      vertex 131.6 -40 40
      vertex 135 -45 40
      vertex 135 -35 40
    endloop
  endfacet
  facet normal 0 0 -1
    outer loop
      vertex 131.6 40 -40
      vertex 135 45 -40
      vertex 135 35 -40
    endloop
  endfacet
  facet normal 0 0 1
    outer loop
      vertex 131.6 40 40
      vertex 135 35 40
      vertex 135 45 40
    endloop
  endfacet
  facet normal 1 0 0
    outer loop
      vertex 135 -45 -40
      vertex 135 -35 -40
      vertex 135 -45 40
    endloop
  endfacet
  facet normal 1 -0 0
    outer loop
      vertex 135 -45 40
      vertex 135 -35 -40
      vertex 135 -35 40
    endloop
  endfacet
  facet normal 1 0 0
    outer loop
      vertex 135 35 -40
      vertex 135 45 -40
      vertex 135 35 40
    endloop
  endfacet
  facet normal 1 -0 0
    outer loop
      vertex 135 35 40
      vertex 135 45 -40
      vertex 135 45 40
    endloop
  endfacet
  facet normal 0 1 0
    outer loop
      vertex 165 -35 -40
      vertex 165 -35 40
      vertex 175 -35 -40
    endloop
  endfacet
  facet normal 0 0 -1
    outer loop
      vertex 165 -35 -40
      vertex 169.2 -38.6144 -40
      vertex 168.4 -40 -40
    endloop
  endfacet
  facet normal 0 0 -1
    outer loop
      vertex 165 -35 -40
      vertex 175 -35 -40
      vertex 169.2 -38.6144 -40
    endloop
  endfacet
  facet normal 0 0 1
    outer loop
      vertex 165 -35 40
      vertex 168.4 -40 40
      vertex 169.2 -38.6144 40
    endloop
  endfacet
  facet normal -0 0 1
    outer loop
      vertex 165 -35 40
      vertex 169.2 -38.6144 40
      vertex 175 -35 40
    endloop
  endfacet
  facet normal 0 1 -0
    outer loop
      vertex 165 -35 40
      vertex 175 -35 40
      vertex 175 -35 -40
    endloop
  endfacet
  facet normal 0 0 -1
    outer loop
      vertex 165 -45 -40
      vertex 165 -35 -40
      vertex 168.4 -40 -40
    endloop
  endfacet
  facet normal -1 0 0
    outer loop
      vertex 165 -45 -40
      vertex 165 -35 40
      vertex 165 -35 -40
    endloop
  endfacet
  facet normal -1 -0 0
    outer loop
      vertex 165 -45 -40
      vertex 165 -45 40
      vertex 165 -35 40
    endloop
  endfacet
  facet normal -0 0 -1
    outer loop
      vertex 165 -45 -40
      vertex 168.4 -40 -40
      vertex 169.2 -41.3856 -40
    endloop
  endfacet
  facet normal 0 0 -1
    outer loop
      vertex 165 -45 -40
      vertex 169.2 -41.3856 -40
      vertex 175 -45 -40
    endloop
  endfacet
  facet normal 0 -1 -0
    outer loop
      vertex 165 -45 -40
      vertex 175 -45 -40
      vertex 175 -45 40
    endloop
  endfacet
  facet normal 0 -1 0
    outer loop
      vertex 165 -45 -40
      vertex 175 -45 40
      vertex 165 -45 40
    endloop
  endfacet
  facet normal 0 0 1
    outer loop
      vertex 165 -45 40
      vertex 168.4 -40 40
      vertex 165 -35 40
    endloop
  endfacet
  facet normal 0 0 1
    outer loop
      vertex 165 -45 40
      vertex 169.2 -41.3856 40
      vertex 168.4 -40 40
    endloop
  endfacet
  facet normal 0 0 1
    outer loop
      vertex 165 -45 40
      vertex 175 -45 40
      vertex 169.2 -41.3856 40
    endloop
  endfacet
  facet normal -1 -0 0
    outer loop
      vertex 165 35 -40
      vertex 165 35 40
      vertex 165 45 40
    endloop
  endfacet
  facet normal 0 0 -1
    outer loop
      vertex 165 35 -40
      vertex 165 45 -40
      vertex 168.4 40 -40
    endloop
  endfacet
  facet normal -1 0 0
    outer loop
      vertex 165 35 -40
      vertex 165 45 40
      vertex 165 45 -40
    endloop
  endfacet
  facet normal -0 0 -1
    outer loop
      vertex 165 35 -40
      vertex 168.4 40 -40
      vertex 169.2 38.6144 -40
    endloop
  endfacet
  facet normal 0 0 -1
    outer loop
      vertex 165 35 -40
      vertex 169.2 38.6144 -40
      vertex 175 35 -40
    endloop
  endfacet
  facet normal 0 -1 -0
    outer loop
      vertex 165 35 -40
      vertex 175 35 -40
      vertex 175 35 40
    endloop
  endfacet
  facet normal 0 -1 0
    outer loop
      vertex 165 35 -40
      vertex 175 35 40
      vertex 165 35 40
    endloop
  endfacet
  facet normal 0 0 1
    outer loop
      vertex 165 35 40
      vertex 168.4 40 40
      vertex 165 45 40
    endloop
  endfacet
  facet normal 0 0 1
    outer loop
      vertex 165 35 40
      vertex 169.2 38.6144 40
      vertex 168.4 40 40
    endloop
  endfacet
  facet normal 0 0 1
    outer loop
      vertex 165 35 40
      vertex 175 35 40
      vertex 169.2 38.6144 40
    endloop
  endfacet
  facet normal 0 1 0
    outer loop
      vertex 165 45 -40
      vertex 165 45 40
      vertex 175 45 -40
    endloop
  endfacet
  facet normal 0 0 -1
    outer loop
      vertex 165 45 -40
      vertex 169.2 41.3856 -40
      vertex 168.4 40 -40
    endloop
  endfacet
  facet normal 0 0 -1
    outer loop
      vertex 165 45 -40
      vertex 175 45 -40
      vertex 169.2 41.3856 -40
    endloop
  endfacet
  facet normal 0 0 1
    outer loop
      vertex 165 45 40
      vertex 168.4 40 40
      vertex 169.2 41.3856 40
    endloop
  endfacet
  facet normal -0 0 1
    outer loop
      vertex 165 45 40
      vertex 169.2 41.3856 40
      vertex 175 45 40
    endloop
  endfacet
  facet normal 0 1 -0
    outer loop
      vertex 165 45 40
      vertex 175 45 40
      vertex 175 45 -40
    endloop
  endfacet
  facet normal 0.866019 0.500011 0
    outer loop
      vertex 168.4 -40 -40
      vertex 168.4 -40 40
      vertex 169.2 -41.3856 40
    endloop
  endfacet
  facet normal 0.866019 -0.500011 0
    outer loop
      vertex 168.4 -40 -40
      vertex 169.2 -38.6144 -40
      vertex 168.4 -40 40
    endloop
  endfacet
  facet normal 0.866019 0.500011 0
    outer loop
      vertex 168.4 -40 -40
      vertex 169.2 -41.3856 40
      vertex 169.2 -41.3856 -40
    endloop
  endfacet
  facet normal 0.866019 -0.500011 0
    outer loop
      vertex 168.4 -40 40
      vertex 169.2 -38.6144 -40
      vertex 169.2 -38.6144 40
    endloop
  endfacet
  facet normal 0.866019 0.500011 0
    outer loop
      vertex 168.4 40 -40
      vertex 168.4 40 40
      vertex 169.2 38.6144 40
    endloop
  endfacet
  facet normal 0.866019 0.500011 0
    outer loop
      vertex 168.4 40 -40
      vertex 169.2 38.6144 40
      vertex 169.2 38.6144 -40
    endloop
  endfacet
  facet normal 0.866019 -0.500011 0
    outer loop
      vertex 168.4 40 -40
      vertex 169.2 41.3856 -40
      vertex 168.4 40 40
    endloop
  endfacet
  facet normal 0.866019 -0.500011 0
    outer loop
      vertex 168.4 40 40
      vertex 169.2 41.3856 -40
      vertex 169.2 41.3856 40
    endloop
  endfacet
  facet normal 0 -1 -0
    outer loop
      vertex 169.2 -38.6144 -40
      vertex 170.8 -38.6144 -40
      vertex 170.8 -38.6144 40
    endloop
  endfacet
  facet normal 0 -1 0
    outer loop
      vertex 169.2 -38.6144 -40
      vertex 170.8 -38.6144 40
      vertex 169.2 -38.6144 40
    endloop
  endfacet
  facet normal 0 0 -1
    outer loop
      vertex 169.2 -38.6144 -40
      vertex 175 -35 -40
      vertex 170.8 -38.6144 -40
    endloop
  endfacet
  facet normal 0 0 1
    outer loop
      vertex 169.2 -38.6144 40
      vertex 170.8 -38.6144 40
      vertex 175 -35 40
    endloop
  endfacet
  facet normal 0 1 0
    outer loop
      vertex 169.2 -41.3856 -40
      vertex 169.2 -41.3856 40
      vertex 170.8 -41.3856 -40
    endloop
  endfacet
  facet normal 0 0 -1
    outer loop
      vertex 169.2 -41.3856 -40
      vertex 170.8 -41.3856 -40
      vertex 175 -45 -40
    endloop
  endfacet
  facet normal 0 1 -0
    outer loop
      vertex 169.2 -41.3856 40
      vertex 170.8 -41.3856 40
      vertex 170.8 -41.3856 -40
    endloop
  endfacet
  facet normal -0 0 1
    outer loop
      vertex 169.2 -41.3856 40
      vertex 175 -45 40
      vertex 170.8 -41.3856 40
    endloop
  endfacet
  facet normal 0 1 0
    outer loop
      vertex 169.2 38.6144 -40
      vertex 169.2 38.6144 40
      vertex 170.8 38.6144 -40
    endloop
  endfacet
  facet normal 0 0 -1
    outer loop
      vertex 169.2 38.6144 -40
      vertex 170.8 38.6144 -40
      vertex 175 35 -40
    endloop
  endfacet
  facet normal 0 1 -0
    outer loop
      vertex 169.2 38.6144 40
      vertex 170.8 38.6144 40
      vertex 170.8 38.6144 -40
    endloop
  endfacet
  facet normal -0 0 1
    outer loop
      vertex 169.2 38.6144 40
      vertex 175 35 40
      vertex 170.8 38.6144 40
    endloop
  endfacet
  facet normal 0 -1 -0
    outer loop
      vertex 169.2 41.3856 -40
      vertex 170.8 41.3856 -40
      vertex 170.8 41.3856 40
    endloop
  endfacet
  facet normal 0 -1 0
    outer loop
      vertex 169.2 41.3856 -40
      vertex 170.8 41.3856 40
      vertex 169.2 41.3856 40
    endloop
  endfacet
  facet normal 0 0 -1
    outer loop
      vertex 169.2 41.3856 -40
      vertex 175 45 -40
      vertex 170.8 41.3856 -40
    endloop
  endfacet
  facet normal 0 0 1
    outer loop
      vertex 169.2 41.3856 40
      vertex 170.8 41.3856 40
      vertex 175 45 40
    endloop
  endfacet
  facet normal -0.866019 -0.500011 0
    outer loop
      vertex 170.8 -38.6144 -40
      vertex 171.6 -40 -40
      vertex 170.8 -38.6144 40
    endloop
  endfacet
  facet normal 0 0 -1
    outer loop
      vertex 170.8 -38.6144 -40
      vertex 175 -35 -40
      vertex 171.6 -40 -40
    endloop
  endfacet
  facet normal -0.866019 -0.500011 0
    outer loop
      vertex 170.8 -38.6144 40
      vertex 171.6 -40 -40
      vertex 171.6 -40 40
    endloop
  endfacet
  facet normal 0 0 1
    outer loop
      vertex 170.8 -38.6144 40
      vertex 171.6 -40 40
      vertex 175 -35 40
    endloop
  endfacet
  facet normal -0.866019 0.500011 0
    outer loop
      vertex 170.8 -41.3856 -40
      vertex 170.8 -41.3856 40
      vertex 171.6 -40 40
    endloop
  endfacet
  facet normal 0 0 -1
    outer loop
      vertex 170.8 -41.3856 -40
      vertex 171.6 -40 -40
      vertex 175 -45 -40
    endloop
  endfacet
  facet normal -0.866019 0.500011 0
    outer loop
      vertex 170.8 -41.3856 -40
      vertex 171.6 -40 40
      vertex 171.6 -40 -40
    endloop
  endfacet
  facet normal -0 0 1
    outer loop
      vertex 170.8 -41.3856 40
      vertex 175 -45 40
      vertex 171.6 -40 40
    endloop
  endfacet
  facet normal -0.866019 0.500011 0
    outer loop
      vertex 170.8 38.6144 -40
      vertex 170.8 38.6144 40
      vertex 171.6 40 40
    endloop
  endfacet
  facet normal 0 0 -1
    outer loop
      vertex 170.8 38.6144 -40
      vertex 171.6 40 -40
      vertex 175 35 -40
    endloop
  endfacet
  facet normal -0.866019 0.500011 0
    outer loop
      vertex 170.8 38.6144 -40
      vertex 171.6 40 40
      vertex 171.6 40 -40
    endloop
  endfacet
  facet normal -0 0 1
    outer loop
      vertex 170.8 38.6144 40
      vertex 175 35 40
      vertex 171.6 40 40
    endloop
  endfacet
  facet normal -0.866019 -0.500011 0
    outer loop
      vertex 170.8 41.3856 -40
      vertex 171.6 40 -40
      vertex 170.8 41.3856 40
    endloop
  endfacet
  facet normal 0 0 -1
    outer loop
      vertex 170.8 41.3856 -40
      vertex 175 45 -40
      vertex 171.6 40 -40
    endloop
  endfacet
  facet normal -0.866019 -0.500011 0
    outer loop
      vertex 170.8 41.3856 40
      vertex 171.6 40 -40
      vertex 171.6 40 40
    endloop
  endfacet
  facet normal 0 0 1
    outer loop
      vertex 170.8 41.3856 40
      vertex 171.6 40 40
      vertex 175 45 40
    endloop
  endfacet
  facet normal 0 0 -1
    outer loop
      vertex 171.6 -40 -40
      vertex 175 -35 -40
      vertex 175 -45 -40
    endloop
  endfacet
  facet normal 0 0 1
    outer loop
      vertex 171.6 -40 40
      vertex 175 -45 40
      vertex 175 -35 40
    endloop
  endfacet
  facet normal 0 0 -1
    outer loop
      vertex 171.6 40 -40
      vertex 175 45 -40
      vertex 175 35 -40
    endloop
  endfacet
  facet normal 0 0 1
    outer loop
      vertex 171.6 40 40
      vertex 175 35 40
      vertex 175 45 40
    endloop
  endfacet
  facet normal 1 0 0
    outer loop
      vertex 175 -45 -40
      vertex 175 -35 -40
      vertex 175 -45 40
    endloop
  endfacet
  facet normal 1 -0 0
    outer loop
      vertex 175 -45 40
      vertex 175 -35 -40
      vertex 175 -35 40
    endloop
  endfacet
  facet normal 1 0 0
    outer loop
      vertex 175 35 -40
      vertex 175 45 -40
      vertex 175 35 40
    endloop
  endfacet
  facet normal 1 -0 0
    outer loop
      vertex 175 35 40
      vertex 175 45 -40
      vertex 175 45 40
    endloop
  endfacet
  facet normal 0 1 0
    outer loop
      vertex 255 -35 -40
      vertex 255 -35 40
      vertex 265 -35 -40
    endloop
  endfacet
  facet normal 0 0 -1
    outer loop
      vertex 255 -35 -40
      vertex 259.2 -38.6144 -40
      vertex 258.4 -40 -40
    endloop
  endfacet
  facet normal 0 0 -1
    outer loop
      vertex 255 -35 -40
      vertex 265 -35 -40
      vertex 259.2 -38.6144 -40
    endloop
  endfacet
  facet normal 0 0 1
    outer loop
      vertex 255 -35 40
      vertex 258.4 -40 40
      vertex 259.2 -38.6144 40
    endloop
  endfacet
  facet normal -0 0 1
    outer loop
      vertex 255 -35 40
      vertex 259.2 -38.6144 40
      vertex 265 -35 40
    endloop
  endfacet
  facet normal 0 1 -0
    outer loop
      vertex 255 -35 40
      vertex 265 -35 40
      vertex 265 -35 -40
    endloop
  endfacet
  facet normal 0 0 -1
    outer loop
      vertex 255 -45 -40
      vertex 255 -35 -40
      vertex 258.4 -40 -40
    endloop
  endfacet
  facet normal -1 0 0
    outer loop
      vertex 255 -45 -40
      vertex 255 -35 40
      vertex 255 -35 -40
    endloop
  endfacet
  facet normal -1 -0 0
    outer loop
      vertex 255 -45 -40
      vertex 255 -45 40
      vertex 255 -35 40
    endloop
  endfacet
  facet normal -0 0 -1
    outer loop
      vertex 255 -45 -40
      vertex 258.4 -40 -40
      vertex 259.2 -41.3856 -40
    endloop
  endfacet
  facet normal 0 0 -1
    outer loop
      vertex 255 -45 -40
      vertex 259.2 -41.3856 -40
      vertex 265 -45 -40
    endloop
  endfacet
  facet normal 0 -1 -0
    outer loop
      vertex 255 -45 -40
      vertex 265 -45 -40
      vertex 265 -45 40
    endloop
  endfacet
  facet normal 0 -1 0
    outer loop
      vertex 255 -45 -40
      vertex 265 -45 40
      vertex 255 -45 40
    endloop
  endfacet
  facet normal 0 0 1
    outer loop
      vertex 255 -45 40
      vertex 258.4 -40 40
      vertex 255 -35 40
    endloop
  endfacet
  facet normal 0 0 1
    outer loop
      vertex 255 -45 40
      vertex 259.2 -41.3856 40
      vertex 258.4 -40 40
    endloop
  endfacet
  facet normal 0 0 1
    outer loop
      vertex 255 -45 40
      vertex 265 -45 40
      vertex 259.2 -41.3856 40
    endloop
  endfacet
  facet normal -1 -0 0
    outer loop
      vertex 255 35 -40
      vertex 255 35 40
      vertex 255 45 40
    endloop
  endfacet
  facet normal 0 0 -1
    outer loop
      vertex 255 35 -40
      vertex 255 45 -40
      vertex 258.4 40 -40
    endloop
  endfacet
  facet normal -1 0 0
    outer loop
      vertex 255 35 -40
      vertex 255 45 40
      vertex 255 45 -40
    endloop
  endfacet
  facet normal -0 0 -1
    outer loop
      vertex 255 35 -40
      vertex 258.4 40 -40
      vertex 259.2 38.6144 -40
    endloop
  endfacet
  facet normal 0 0 -1
    outer loop
      vertex 255 35 -40
      vertex 259.2 38.6144 -40
      vertex 265 35 -40
    endloop
  endfacet
  facet normal 0 -1 -0
    outer loop
      vertex 255 35 -40
      vertex 265 35 -40
      vertex 265 35 40
    endloop
  endfacet
  facet normal 0 -1 0
    outer loop
      vertex 255 35 -40
      vertex 265 35 40
      vertex 255 35 40
    endloop
  endfacet
  facet normal 0 0 1
    outer loop
      vertex 255 35 40
      vertex 258.4 40 40
      vertex 255 45 40
    endloop
  endfacet
  facet normal 0 0 1
    outer loop
      vertex 255 35 40
      vertex 259.2 38.6144 40
      vertex 258.4 40 40
    endloop
  endfacet
  facet normal 0 0 1
    outer loop
      vertex 255 35 40
      vertex 265 35 40
      vertex 259.2 38.6144 40
    endloop
  endfacet
  facet normal 0 1 0
    outer loop
      vertex 255 45 -40
      vertex 255 45 40
      vertex 265 45 -40
    endloop
  endfacet
  facet normal 0 0 -1
    outer loop
      vertex 255 45 -40
      vertex 259.2 41.3856 -40
      vertex 258.4 40 -40
    endloop
  endfacet
  facet normal 0 0 -1
    outer loop
      vertex 255 45 -40
      vertex 265 45 -40
      vertex 259.2 41.3856 -40
    endloop
  endfacet
  facet normal 0 0 1
    outer loop
      vertex 255 45 40
      vertex 258.4 40 40
      vertex 259.2 41.3856 40
    endloop
  endfacet
  facet normal -0 0 1
    outer loop
      vertex 255 45 40
      vertex 259.2 41.3856 40
      vertex 265 45 40
    endloop
  endfacet
  facet normal 0 1 -0
    outer loop
      vertex 255 45 40
      vertex 265 45 40
      vertex 265 45 -40
    endloop
  endfacet
  facet normal 0.866019 0.500011 0
    outer loop
      vertex 258.4 -40 -40
      vertex 258.4 -40 40
      vertex 259.2 -41.3856 40
    endloop
  endfacet
  facet normal 0.866019 -0.500011 0
    outer loop
      vertex 258.4 -40 -40
      vertex 259.2 -38.6144 -40
      vertex 258.4 -40 40
    endloop
  endfacet
  facet normal 0.866019 0.500011 0
    outer loop
      vertex 258.4 -40 -40
      vertex 259.2 -41.3856 40
      vertex 259.2 -41.3856 -40
    endloop
  endfacet
  facet normal 0.866019 -0.500011 0
    outer loop
      vertex 258.4 -40 40
      vertex 259.2 -38.6144 -40
      vertex 259.2 -38.6144 40
    endloop
  endfacet
  facet normal 0.866019 0.500011 0
    outer loop
      vertex 258.4 40 -40
      vertex 258.4 40 40
      vertex 259.2 38.6144 40
    endloop
  endfacet
  facet normal 0.866019 0.500011 0
    outer loop
      vertex 258.4 40 -40
      vertex 259.2 38.6144 40
      vertex 259.2 38.6144 -40
    endloop
  endfacet
  facet normal 0.866019 -0.500011 0
    outer loop
      vertex 258.4 40 -40
      vertex 259.2 41.3856 -40
      vertex 258.4 40 40
    endloop
  endfacet
  facet normal 0.866019 -0.500011 0
    outer loop
      vertex 258.4 40 40
      vertex 259.2 41.3856 -40
      vertex 259.2 41.3856 40
    endloop
  endfacet
  facet normal 0 -1 -0
    outer loop
      vertex 259.2 -38.6144 -40
      vertex 260.8 -38.6144 -40
      vertex 260.8 -38.6144 40
    endloop
  endfacet
  facet normal 0 -1 0
    outer loop
      vertex 259.2 -38.6144 -40
      vertex 260.8 -38.6144 40
      vertex 259.2 -38.6144 40
    endloop
  endfacet
  facet normal 0 0 -1
    outer loop
      vertex 259.2 -38.6144 -40
      vertex 265 -35 -40
      vertex 260.8 -38.6144 -40
    endloop
  endfacet
  facet normal 0 0 1
    outer loop
      vertex 259.2 -38.6144 40
      vertex 260.8 -38.6144 40
      vertex 265 -35 40
    endloop
  endfacet
  facet normal 0 1 0
    outer loop
      vertex 259.2 -41.3856 -40
      vertex 259.2 -41.3856 40
      vertex 260.8 -41.3856 -40
    endloop
  endfacet
  facet normal 0 0 -1
    outer loop
      vertex 259.2 -41.3856 -40
      vertex 260.8 -41.3856 -40
      vertex 265 -45 -40
    endloop
  endfacet
  facet normal 0 1 -0
    outer loop
      vertex 259.2 -41.3856 40
      vertex 260.8 -41.3856 40
      vertex 260.8 -41.3856 -40
    endloop
  endfacet
  facet normal -0 0 1
    outer loop
      vertex 259.2 -41.3856 40
      vertex 265 -45 40
      vertex 260.8 -41.3856 40
    endloop
  endfacet
  facet normal 0 1 0
    outer loop
      vertex 259.2 38.6144 -40
      vertex 259.2 38.6144 40
      vertex 260.8 38.6144 -40
    endloop
  endfacet
  facet normal 0 0 -1
    outer loop
      vertex 259.2 38.6144 -40
      vertex 260.8 38.6144 -40
      vertex 265 35 -40
    endloop
  endfacet
  facet normal 0 1 -0
    outer loop
      vertex 259.2 38.6144 40
      vertex 260.8 38.6144 40
      vertex 260.8 38.6144 -40
    endloop
  endfacet
  facet normal -0 0 1
    outer loop
      vertex 259.2 38.6144 40
      vertex 265 35 40
      vertex 260.8 38.6144 40
    endloop
  endfacet
  facet normal 0 -1 -0
    outer loop
      vertex 259.2 41.3856 -40
      vertex 260.8 41.3856 -40
      vertex 260.8 41.3856 40
    endloop
  endfacet
  facet normal 0 -1 0
    outer loop
      vertex 259.2 41.3856 -40
      vertex 260.8 41.3856 40
      vertex 259.2 41.3856 40
    endloop
  endfacet
  facet normal 0 0 -1
    outer loop
      vertex 259.2 41.3856 -40
      vertex 265 45 -40
      vertex 260.8 41.3856 -40
    endloop
  endfacet
  facet normal 0 0 1
    outer loop
      vertex 259.2 41.3856 40
      vertex 260.8 41.3856 40
      vertex 265 45 40
    endloop
  endfacet
  facet normal -0.866019 -0.500011 0
    outer loop
      vertex 260.8 -38.6144 -40
      vertex 261.6 -40 -40
      vertex 260.8 -38.6144 40
    endloop
  endfacet
  facet normal 0 0 -1
    outer loop
      vertex 260.8 -38.6144 -40
      vertex 265 -35 -40
      vertex 261.6 -40 -40
    endloop
  endfacet
  facet normal -0.866019 -0.500011 0
    outer loop
      vertex 260.8 -38.6144 40
      vertex 261.6 -40 -40
      vertex 261.6 -40 40
    endloop
  endfacet
  facet normal 0 0 1
    outer loop
      vertex 260.8 -38.6144 40
      vertex 261.6 -40 40
      vertex 265 -35 40
    endloop
  endfacet
  facet normal -0.866019 0.500011 0
    outer loop
      vertex 260.8 -41.3856 -40
      vertex 260.8 -41.3856 40
      vertex 261.6 -40 40
    endloop
  endfacet
  facet normal 0 0 -1
    outer loop
      vertex 260.8 -41.3856 -40
      vertex 261.6 -40 -40
      vertex 265 -45 -40
    endloop
  endfacet
  facet normal -0.866019 0.500011 0
    outer loop
      vertex 260.8 -41.3856 -40
      vertex 261.6 -40 40
      vertex 261.6 -40 -40
    endloop
  endfacet
  facet normal -0 0 1
    outer loop
      vertex 260.8 -41.3856 40
      vertex 265 -45 40
      vertex 261.6 -40 40
    endloop
  endfacet
  facet normal -0.866019 0.500011 0
    outer loop
      vertex 260.8 38.6144 -40
      vertex 260.8 38.6144 40
      vertex 261.6 40 40
    endloop
  endfacet
  facet normal 0 0 -1
    outer loop
      vertex 260.8 38.6144 -40
      vertex 261.6 40 -40
      vertex 265 35 -40
    endloop
  endfacet
  facet normal -0.866019 0.500011 0
    outer loop
      vertex 260.8 38.6144 -40
      vertex 261.6 40 40
      vertex 261.6 40 -40
    endloop
  endfacet
  facet normal -0 0 1
    outer loop
      vertex 260.8 38.6144 40
      vertex 265 35 40
      vertex 261.6 40 40
    endloop
  endfacet
  facet normal -0.866019 -0.500011 0
    outer loop
      vertex 260.8 41.3856 -40
      vertex 261.6 40 -40
      vertex 260.8 41.3856 40
    endloop
  endfacet
  facet normal 0 0 -1
    outer loop
      vertex 260.8 41.3856 -40
      vertex 265 45 -40
      vertex 261.6 40 -40
    endloop
  endfacet
  facet normal -0.866019 -0.500011 0
    outer loop
      vertex 260.8 41.3856 40
      vertex 261.6 40 -40
      vertex 261.6 40 40
    endloop
  endfacet
  facet normal 0 0 1
    outer loop
      vertex 260.8 41.3856 40
      vertex 261.6 40 40
      vertex 265 45 40
    endloop
  endfacet
  facet normal 0 0 -1
    outer loop
      vertex 261.6 -40 -40
      vertex 265 -35 -40
      vertex 265 -45 -40
    endloop
  endfacet
  facet normal 0 0 1
    outer loop
      vertex 261.6 -40 40
      vertex 265 -45 40
      vertex 265 -35 40
    endloop
  endfacet
  facet normal 0 0 -1
    outer loop
      vertex 261.6 40 -40
      vertex 265 45 -40
      vertex 265 35 -40
    endloop
  endfacet
  facet normal 0 0 1
    outer loop
      vertex 261.6 40 40
      vertex 265 35 40
      vertex 265 45 40
    endloop
  endfacet
  facet normal 1 0 0
    outer loop
      vertex 265 -45 -40
      vertex 265 -35 -40
      vertex 265 -45 40
    endloop
  endfacet
  facet normal 1 -0 0
    outer loop
      vertex 265 -45 40
      vertex 265 -35 -40
      vertex 265 -35 40
    endloop
  endfacet
  facet normal 1 0 0
    outer loop
      vertex 265 35 -40
      vertex 265 45 -40
      vertex 265 35 40
    endloop
  endfacet
  facet normal 1 -0 0
    outer loop
      vertex 265 35 40
      vertex 265 45 -40
      vertex 265 45 40
    endloop
  endfacet
  facet normal 0 1 0
    outer loop
      vertex 45 -35 -40
      vertex 45 -35 40
      vertex 55 -35 -40
    endloop
  endfacet
  facet normal 0 0 -1
    outer loop
      vertex 45 -35 -40
      vertex 49.2 -38.6144 -40
      vertex 48.4 -40 -40
    endloop
  endfacet
  facet normal 0 0 -1
    outer loop
      vertex 45 -35 -40
      vertex 55 -35 -40
      vertex 49.2 -38.6144 -40
    endloop
  endfacet
  facet normal 0 0 1
    outer loop
      vertex 45 -35 40
      vertex 48.4 -40 40
      vertex 49.2 -38.6144 40
    endloop
  endfacet
  facet normal -0 0 1
    outer loop
      vertex 45 -35 40
      vertex 49.2 -38.6144 40
      vertex 55 -35 40
    endloop
  endfacet
  facet normal 0 1 -0
    outer loop
      vertex 45 -35 40
      vertex 55 -35 40
      vertex 55 -35 -40
    endloop
  endfacet
  facet normal 0 0 -1
    outer loop
      vertex 45 -45 -40
      vertex 45 -35 -40
      vertex 48.4 -40 -40
    endloop
  endfacet
  facet normal -1 0 0
    outer loop
      vertex 45 -45 -40
      vertex 45 -35 40
      vertex 45 -35 -40
    endloop
  endfacet
  facet normal -1 -0 0
    outer loop
      vertex 45 -45 -40
      vertex 45 -45 40
      vertex 45 -35 40
    endloop
  endfacet
  facet normal -0 0 -1
    outer loop
      vertex 45 -45 -40
      vertex 48.4 -40 -40
      vertex 49.2 -41.3856 -40
    endloop
  endfacet
  facet normal 0 0 -1
    outer loop
      vertex 45 -45 -40
      vertex 49.2 -41.3856 -40
      vertex 55 -45 -40
    endloop
  endfacet
  facet normal 0 -1 -0
    outer loop
      vertex 45 -45 -40
      vertex 55 -45 -40
      vertex 55 -45 40
    endloop
  endfacet
  facet normal 0 -1 0
    outer loop
      vertex 45 -45 -40
      vertex 55 -45 40
      vertex 45 -45 40
    endloop
  endfacet
  facet normal 0 0 1
    outer loop
      vertex 45 -45 40
      vertex 48.4 -40 40
      vertex 45 -35 40
    endloop
  endfacet
  facet normal 0 0 1
    outer loop
      vertex 45 -45 40
      vertex 49.2 -41.3856 40
      vertex 48.4 -40 40
    endloop
  endfacet
  facet normal 0 0 1
    outer loop
      vertex 45 -45 40
      vertex 55 -45 40
      vertex 49.2 -41.3856 40
    endloop
  endfacet
  facet normal -1 -0 0
    outer loop
      vertex 45 35 -40
      vertex 45 35 40
      vertex 45 45 40
    endloop
  endfacet
  facet normal 0 0 -1
    outer loop
      vertex 45 35 -40
      vertex 45 45 -40
      vertex 48.4 40 -40
    endloop
  endfacet
  facet normal -1 0 0
    outer loop
      vertex 45 35 -40
      vertex 45 45 40
      vertex 45 45 -40
    endloop
  endfacet
  facet normal -0 0 -1
    outer loop
      vertex 45 35 -40
      vertex 48.4 40 -40
      vertex 49.2 38.6144 -40
    endloop
  endfacet
  facet normal 0 0 -1
    outer loop
      vertex 45 35 -40
      vertex 49.2 38.6144 -40
      vertex 55 35 -40
    endloop
  endfacet
  facet normal 0 -1 -0
    outer loop
      vertex 45 35 -40
      vertex 55 35 -40
      vertex 55 35 40
    endloop
  endfacet
  facet normal 0 -1 0
    outer loop
      vertex 45 35 -40
      vertex 55 35 40
      vertex 45 35 40
    endloop
  endfacet
  facet normal 0 0 1
    outer loop
      vertex 45 35 40
      vertex 48.4 40 40
      vertex 45 45 40
    endloop
  endfacet
  facet normal 0 0 1
    outer loop
      vertex 45 35 40
      vertex 49.2 38.6144 40
      vertex 48.4 40 40
    endloop
  endfacet
  facet normal 0 0 1
    outer loop
      vertex 45 35 40
      vertex 55 35 40
      vertex 49.2 38.6144 40
    endloop
  endfacet
  facet normal 0 1 0
    outer loop
      vertex 45 45 -40
      vertex 45 45 40
      vertex 55 45 -40
    endloop
  endfacet
  facet normal 0 0 -1
    outer loop
      vertex 45 45 -40
      vertex 49.2 41.3856 -40
      vertex 48.4 40 -40
    endloop
  endfacet
  facet normal 0 0 -1
    outer loop
      vertex 45 45 -40
      vertex 55 45 -40
      vertex 49.2 41.3856 -40
    endloop
  endfacet
  facet normal 0 0 1
    outer loop
      vertex 45 45 40
      vertex 48.4 40 40
      vertex 49.2 41.3856 40
    endloop
  endfacet
  facet normal -0 0 1
    outer loop
      vertex 45 45 40
      vertex 49.2 41.3856 40
      vertex 55 45 40
    endloop
  endfacet
  facet normal 0 1 -0
    outer loop
      vertex 45 45 40
      vertex 55 45 40
      vertex 55 45 -40
    endloop
  endfacet
  facet normal 0.866019 0.500011 0
    outer loop
      vertex 48.4 -40 -40
      vertex 48.4 -40 40
      vertex 49.2 -41.3856 40
    endloop
  endfacet
  facet normal 0.866019 -0.500011 0
    outer loop
      vertex 48.4 -40 -40
      vertex 49.2 -38.6144 -40
      vertex 48.4 -40 40
    endloop
  endfacet
  facet normal 0.866019 0.500011 0
    outer loop
      vertex 48.4 -40 -40
      vertex 49.2 -41.3856 40
      vertex 49.2 -41.3856 -40
    endloop
  endfacet
  facet normal 0.866019 -0.500011 0
    outer loop
      vertex 48.4 -40 40
      vertex 49.2 -38.6144 -40
      vertex 49.2 -38.6144 40
    endloop
  endfacet
  facet normal 0.866019 0.500011 0
    outer loop
      vertex 48.4 40 -40
      vertex 48.4 40 40
      vertex 49.2 38.6144 40
    endloop
  endfacet
  facet normal 0.866019 0.500011 0
    outer loop
      vertex 48.4 40 -40
      vertex 49.2 38.6144 40
      vertex 49.2 38.6144 -40
    endloop
  endfacet
  facet normal 0.866019 -0.500011 0
    outer loop
      vertex 48.4 40 -40
      vertex 49.2 41.3856 -40
      vertex 48.4 40 40
    endloop
  endfacet
  facet normal 0.866019 -0.500011 0
    outer loop
      vertex 48.4 40 40
      vertex 49.2 41.3856 -40
      vertex 49.2 41.3856 40
    endloop
  endfacet
  facet normal 0 -1 -0
    outer loop
      vertex 49.2 -38.6144 -40
      vertex 50.8 -38.6144 -40
      vertex 50.8 -38.6144 40
    endloop
  endfacet
  facet normal 0 -1 0
    outer loop
      vertex 49.2 -38.6144 -40
      vertex 50.8 -38.6144 40
      vertex 49.2 -38.6144 40
    endloop
  endfacet
  facet normal 0 0 -1
    outer loop
      vertex 49.2 -38.6144 -40
      vertex 55 -35 -40
      vertex 50.8 -38.6144 -40
    endloop
  endfacet
  facet normal 0 0 1
    outer loop
      vertex 49.2 -38.6144 40
      vertex 50.8 -38.6144 40
      vertex 55 -35 40
    endloop
  endfacet
  facet normal 0 1 0
    outer loop
      vertex 49.2 -41.3856 -40
      vertex 49.2 -41.3856 40
      vertex 50.8 -41.3856 -40
    endloop
  endfacet
  facet normal 0 0 -1
    outer loop
      vertex 49.2 -41.3856 -40
      vertex 50.8 -41.3856 -40
      vertex 55 -45 -40
    endloop
  endfacet
  facet normal 0 1 -0
    outer loop
      vertex 49.2 -41.3856 40
      vertex 50.8 -41.3856 40
      vertex 50.8 -41.3856 -40
    endloop
  endfacet
  facet normal -0 0 1
    outer loop
      vertex 49.2 -41.3856 40
      vertex 55 -45 40
      vertex 50.8 -41.3856 40
    endloop
  endfacet
  facet normal 0 1 0
    outer loop
      vertex 49.2 38.6144 -40
      vertex 49.2 38.6144 40
      vertex 50.8 38.6144 -40
    endloop
  endfacet
  facet normal 0 0 -1
    outer loop
      vertex 49.2 38.6144 -40
      vertex 50.8 38.6144 -40
      vertex 55 35 -40
    endloop
  endfacet
  facet normal 0 1 -0
    outer loop
      vertex 49.2 38.6144 40
      vertex 50.8 38.6144 40
      vertex 50.8 38.6144 -40
    endloop
  endfacet
  facet normal -0 0 1
    outer loop
      vertex 49.2 38.6144 40
      vertex 55 35 40
      vertex 50.8 38.6144 40
    endloop
  endfacet
  facet normal 0 -1 -0
    outer loop
      vertex 49.2 41.3856 -40
      vertex 50.8 41.3856 -40
      vertex 50.8 41.3856 40
    endloop
  endfacet
  facet normal 0 -1 0
    outer loop
      vertex 49.2 41.3856 -40
      vertex 50.8 41.3856 40
      vertex 49.2 41.3856 40
    endloop
  endfacet
  facet normal 0 0 -1
    outer loop
      vertex 49.2 41.3856 -40
      vertex 55 45 -40
      vertex 50.8 41.3856 -40
    endloop
  endfacet
  facet normal 0 0 1
    outer loop
      vertex 49.2 41.3856 40
      vertex 50.8 41.3856 40
      vertex 55 45 40
    endloop
  endfacet
  facet normal -0.866019 -0.500011 0
    outer loop
      vertex 50.8 -38.6144 -40
      vertex 51.6 -40 -40
      vertex 50.8 -38.6144 40
    endloop
  endfacet
  facet normal 0 0 -1
    outer loop
      vertex 50.8 -38.6144 -40
      vertex 55 -35 -40
      vertex 51.6 -40 -40
    endloop
  endfacet
  facet normal -0.866019 -0.500011 0
    outer loop
      vertex 50.8 -38.6144 40
      vertex 51.6 -40 -40
      vertex 51.6 -40 40
    endloop
  endfacet
  facet normal 0 0 1
    outer loop
      vertex 50.8 -38.6144 40
      vertex 51.6 -40 40
      vertex 55 -35 40
    endloop
  endfacet
  facet normal -0.866019 0.500011 0
    outer loop
      vertex 50.8 -41.3856 -40
      vertex 50.8 -41.3856 40
      vertex 51.6 -40 40
    endloop
  endfacet
  facet normal 0 0 -1
    outer loop
      vertex 50.8 -41.3856 -40
      vertex 51.6 -40 -40
      vertex 55 -45 -40
    endloop
  endfacet
  facet normal -0.866019 0.500011 0
    outer loop
      vertex 50.8 -41.3856 -40
      vertex 51.6 -40 40
      vertex 51.6 -40 -40
    endloop
  endfacet
  facet normal -0 0 1
    outer loop
      vertex 50.8 -41.3856 40
      vertex 55 -45 40
      vertex 51.6 -40 40
    endloop
  endfacet
  facet normal -0.866019 0.500011 0
    outer loop
      vertex 50.8 38.6144 -40
      vertex 50.8 38.6144 40
      vertex 51.6 40 40
    endloop
  endfacet
  facet normal 0 0 -1
    outer loop
      vertex 50.8 38.6144 -40
      vertex 51.6 40 -40
      vertex 55 35 -40
    endloop
  endfacet
  facet normal -0.866019 0.500011 0
    outer loop
      vertex 50.8 38.6144 -40
      vertex 51.6 40 40
      vertex 51.6 40 -40
    endloop
  endfacet
  facet normal -0 0 1
    outer loop
      vertex 50.8 38.6144 40
      vertex 55 35 40
      vertex 51.6 40 40
    endloop
  endfacet
  facet normal -0.866019 -0.500011 0
    outer loop
      vertex 50.8 41.3856 -40
      vertex 51.6 40 -40
      vertex 50.8 41.3856 40
    endloop
  endfacet
  facet normal 0 0 -1
    outer loop
      vertex 50.8 41.3856 -40
      vertex 55 45 -40
      vertex 51.6 40 -40
    endloop
  endfacet
  facet normal -0.866019 -0.500011 0
    outer loop
      vertex 50.8 41.3856 40
      vertex 51.6 40 -40
      vertex 51.6 40 40
    endloop
  endfacet
  facet normal 0 0 1
    outer loop
      vertex 50.8 41.3856 40
      vertex 51.6 40 40
      vertex 55 45 40
    endloop
  endfacet
  facet normal 0 0 -1
    outer loop
      vertex 51.6 -40 -40
      vertex 55 -35 -40
      vertex 55 -45 -40
    endloop
  endfacet
  facet normal 0 0 1
    outer loop
      vertex 51.6 -40 40
      vertex 55 -45 40
      vertex 55 -35 40
    endloop
  endfacet
  facet normal 0 0 -1
    outer loop
      vertex 51.6 40 -40
      vertex 55 45 -40
      vertex 55 35 -40
    endloop
  endfacet
  facet normal 0 0 1
    outer loop
      vertex 51.6 40 40
      vertex 55 35 40
      vertex 55 45 40
    endloop
  endfacet
  facet normal 1 0 0
    outer loop
      vertex 55 -45 -40
      vertex 55 -35 -40
      vertex 55 -45 40
    endloop
  endfacet
  facet normal 1 -0 0
    outer loop
      vertex 55 -45 40
      vertex 55 -35 -40
      vertex 55 -35 40
    endloop
  endfacet
  facet normal 1 0 0
    outer loop
      vertex 55 35 -40
      vertex 55 45 -40
      vertex 55 35 40
    endloop
  endfacet
  facet normal 1 -0 0
    outer loop
      vertex 55 35 40
      vertex 55 45 -40
      vertex 55 45 40
    endloop
  endfacet
endsolid model
