solid model
  facet normal -0.0915774 0.0629785 -0.993804
    outer loop
      vertex 141.9 -0.257441 255.058
      vertex 141.9 0.768263 255.123
      vertex 150.939 0.199047 254.254
    endloop
  endfacet
  facet normal -1 0 0
    outer loop
      vertex 141.9 -0.257441 255.058
      vertex 141.9 1.65 256.292
      vertex 141.9 0.768263 255.123
    endloop
  endfacet
  facet normal -0.090496 0 -0.995897
    outer loop
      vertex 141.9 -0.257441 255.058
      vertex 150.935 -0.0667881 254.237
      vertex 150.935 -0.807357 254.237
    endloop
  endfacet
  facet normal -0.0916638 0.064924 -0.993671
    outer loop
      vertex 141.9 -0.257441 255.058
      vertex 150.939 0.199047 254.254
      vertex 150.935 -0.0667881 254.237
    endloop
  endfacet
  facet normal -1 0 0
    outer loop
      vertex 141.9 -0.257441 263.242
      vertex 141.9 0.768263 263.177
      vertex 141.9 1.65 262.008
    endloop
  endfacet
  facet normal 0 0.0632442 0.997998
    outer loop
      vertex 141.9 -0.257441 263.242
      vertex 155.1 -0.257441 263.242
      vertex 141.9 0.768263 263.177
    endloop
  endfacet
  facet normal 0 -0.187778 0.982212
    outer loop
      vertex 141.9 -0.257441 263.242
      vertex 155.1 -1.26697 263.049
      vertex 155.1 -0.257441 263.242
    endloop
  endfacet
  facet normal -0.100175 -0.186833 -0.977271
    outer loop
      vertex 141.9 -1.26697 255.251
      vertex 141.9 -0.257441 255.058
      vertex 150.935 -0.807357 254.237
    endloop
  endfacet
  facet normal -0.100121 -0.187594 -0.977131
    outer loop
      vertex 141.9 -1.26697 255.251
      vertex 150.935 -0.807357 254.237
      vertex 150.947 -1.06899 254.286
    endloop
  endfacet
  facet normal 0 -0.187778 0.982212
    outer loop
      vertex 141.9 -1.26697 263.049
      vertex 155.1 -1.26697 263.049
      vertex 141.9 -0.257441 263.242
    endloop
  endfacet
  facet normal 0 -0.425311 0.905047
    outer loop
      vertex 141.9 -1.26697 263.049
      vertex 155.1 -2.19689 262.612
      vertex 155.1 -1.26697 263.049
    endloop
  endfacet
  facet normal -1 0 0
    outer loop
      vertex 141.9 -1.65 256.292
      vertex 141.9 -0.257441 255.058
      vertex 141.9 -1.26697 255.251
    endloop
  endfacet
  facet normal -1 0 0
    outer loop
      vertex 141.9 -1.65 256.292
      vertex 141.9 1.65 256.292
      vertex 141.9 -0.257441 255.058
    endloop
  endfacet
  facet normal 0 0 1
    outer loop
      vertex 141.9 -1.65 256.292
      vertex 145.95 -1.65 256.292
      vertex 141.9 1.65 256.292
    endloop
  endfacet
  facet normal -1 0 0
    outer loop
      vertex 141.9 -1.65 262.008
      vertex 141.9 -0.257441 263.242
      vertex 141.9 1.65 262.008
    endloop
  endfacet
  facet normal -1 0 0
    outer loop
      vertex 141.9 -1.65 262.008
      vertex 141.9 -1.26697 263.049
      vertex 141.9 -0.257441 263.242
    endloop
  endfacet
  facet normal -0 0 -1
    outer loop
      vertex 141.9 -1.65 262.008
      vertex 141.9 1.65 262.008
      vertex 145.95 1.65 262.008
    endloop
  endfacet
  facet normal 0 0.866034 -0.499985
    outer loop
      vertex 141.9 -1.65 262.008
      vertex 145.95 -1.65 262.008
      vertex 145.95 -3.3 259.15
    endloop
  endfacet
  facet normal 0 0 -1
    outer loop
      vertex 141.9 -1.65 262.008
      vertex 145.95 1.65 262.008
      vertex 145.95 -1.65 262.008
    endloop
  endfacet
  facet normal -0.0868997 -0.423702 -0.901623
    outer loop
      vertex 141.9 -2.19689 255.688
      vertex 141.9 -1.26697 255.251
      vertex 150.947 -1.06899 254.286
    endloop
  endfacet
  facet normal -1 0 0
    outer loop
      vertex 141.9 -2.19689 255.688
      vertex 141.9 -1.65 256.292
      vertex 141.9 -1.26697 255.251
    endloop
  endfacet
  facet normal -0.08686 -0.423906 -0.901531
    outer loop
      vertex 141.9 -2.19689 255.688
      vertex 150.947 -1.06899 254.286
      vertex 150.975 -1.30654 254.395
    endloop
  endfacet
  facet normal -0.047084 -0.637217 -0.769245
    outer loop
      vertex 141.9 -2.19689 255.688
      vertex 150.975 -1.30654 254.395
      vertex 151.012 -1.48311 254.539
    endloop
  endfacet
  facet normal -1 0 0
    outer loop
      vertex 141.9 -2.19689 262.612
      vertex 141.9 -1.26697 263.049
      vertex 141.9 -1.65 262.008
    endloop
  endfacet
  facet normal 0 -0.425311 0.905047
    outer loop
      vertex 141.9 -2.19689 262.612
      vertex 155.1 -2.19689 262.612
      vertex 141.9 -1.26697 263.049
    endloop
  endfacet
  facet normal 0 -0.637366 0.770561
    outer loop
      vertex 141.9 -2.19689 262.612
      vertex 155.1 -2.98877 261.957
      vertex 155.1 -2.19689 262.612
    endloop
  endfacet
  facet normal -1 0 0
    outer loop
      vertex 141.9 -2.98877 256.343
      vertex 141.9 -1.65 256.292
      vertex 141.9 -2.19689 255.688
    endloop
  endfacet
  facet normal -0.0471857 -0.636656 -0.769703
    outer loop
      vertex 141.9 -2.98877 256.343
      vertex 141.9 -2.19689 255.688
      vertex 151.012 -1.48311 254.539
    endloop
  endfacet
  facet normal -0.0476026 -0.635373 -0.770737
    outer loop
      vertex 141.9 -2.98877 256.343
      vertex 151.012 -1.48311 254.539
      vertex 151.021 -1.50198 254.554
    endloop
  endfacet
  facet normal -0.000105069 -0.768812 -0.639475
    outer loop
      vertex 141.9 -2.98877 256.343
      vertex 151.021 -1.50198 254.554
      vertex 151.206 -1.78148 254.89
    endloop
  endfacet
  facet normal 0.000183305 -0.76972 -0.638382
    outer loop
      vertex 141.9 -2.98877 256.343
      vertex 151.206 -1.78148 254.89
      vertex 151.48 -2.02442 255.183
    endloop
  endfacet
  facet normal 6.08526e-05 -0.769223 -0.63898
    outer loop
      vertex 141.9 -2.98877 256.343
      vertex 151.48 -2.02442 255.183
      vertex 151.819 -2.20299 255.398
    endloop
  endfacet
  facet normal 5.37801e-05 -0.769187 -0.639024
    outer loop
      vertex 141.9 -2.98877 256.343
      vertex 151.819 -2.20299 255.398
      vertex 152.2 -2.30598 255.522
    endloop
  endfacet
  facet normal 0 -0.768855 -0.639423
    outer loop
      vertex 141.9 -2.98877 256.343
      vertex 152.2 -2.30598 255.522
      vertex 155.1 -2.98877 256.343
    endloop
  endfacet
  facet normal 0 -0.809199 -0.587535
    outer loop
      vertex 141.9 -2.98877 256.343
      vertex 155.1 -2.98877 256.343
      vertex 155.1 -3.59286 257.175
    endloop
  endfacet
  facet normal -1 -0 0
    outer loop
      vertex 141.9 -2.98877 261.957
      vertex 141.9 -2.19689 262.612
      vertex 141.9 -1.65 262.008
    endloop
  endfacet
  facet normal 0 -0.637366 0.770561
    outer loop
      vertex 141.9 -2.98877 261.957
      vertex 155.1 -2.98877 261.957
      vertex 141.9 -2.19689 262.612
    endloop
  endfacet
  facet normal 0 0.866034 -0.499985
    outer loop
      vertex 141.9 -3.3 259.15
      vertex 141.9 -1.65 262.008
      vertex 145.95 -3.3 259.15
    endloop
  endfacet
  facet normal 0 0.866034 0.499985
    outer loop
      vertex 141.9 -3.3 259.15
      vertex 145.95 -1.65 256.292
      vertex 141.9 -1.65 256.292
    endloop
  endfacet
  facet normal 0 0.866034 0.499985
    outer loop
      vertex 141.9 -3.3 259.15
      vertex 145.95 -3.3 259.15
      vertex 145.95 -1.65 256.292
    endloop
  endfacet
  facet normal -1 0 0
    outer loop
      vertex 141.9 -3.59286 257.175
      vertex 141.9 -1.65 256.292
      vertex 141.9 -2.98877 256.343
    endloop
  endfacet
  facet normal 0 -0.809199 -0.587535
    outer loop
      vertex 141.9 -3.59286 257.175
      vertex 141.9 -2.98877 256.343
      vertex 155.1 -3.59286 257.175
    endloop
  endfacet
  facet normal -1 0 0
    outer loop
      vertex 141.9 -3.59286 257.175
      vertex 141.9 -3.3 259.15
      vertex 141.9 -1.65 256.292
    endloop
  endfacet
  facet normal 0 -0.929704 -0.368309
    outer loop
      vertex 141.9 -3.59286 257.175
      vertex 155.1 -3.59286 257.175
      vertex 155.1 -3.97119 258.13
    endloop
  endfacet
  facet normal -1 0 0
    outer loop
      vertex 141.9 -3.59286 261.125
      vertex 141.9 -1.65 262.008
      vertex 141.9 -3.3 259.15
    endloop
  endfacet
  facet normal -1 0 0
    outer loop
      vertex 141.9 -3.59286 261.125
      vertex 141.9 -2.98877 261.957
      vertex 141.9 -1.65 262.008
    endloop
  endfacet
  facet normal 0 -0.809199 0.587535
    outer loop
      vertex 141.9 -3.59286 261.125
      vertex 155.1 -2.98877 261.957
      vertex 141.9 -2.98877 261.957
    endloop
  endfacet
  facet normal 0 -0.809199 0.587535
    outer loop
      vertex 141.9 -3.59286 261.125
      vertex 155.1 -3.59286 261.125
      vertex 155.1 -2.98877 261.957
    endloop
  endfacet
  facet normal -1 0 0
    outer loop
      vertex 141.9 -3.97119 258.13
      vertex 141.9 -3.3 259.15
      vertex 141.9 -3.59286 257.175
    endloop
  endfacet
  facet normal 0 -0.929704 -0.368309
    outer loop
      vertex 141.9 -3.97119 258.13
      vertex 141.9 -3.59286 257.175
      vertex 155.1 -3.97119 258.13
    endloop
  endfacet
  facet normal 0 -0.99212 -0.125289
    outer loop
      vertex 141.9 -3.97119 258.13
      vertex 155.1 -3.97119 258.13
      vertex 155.1 -4.1 259.15
    endloop
  endfacet
  facet normal -1 0 0
    outer loop
      vertex 141.9 -3.97119 260.17
      vertex 141.9 -3.59286 261.125
      vertex 141.9 -3.3 259.15
    endloop
  endfacet
  facet normal 0 -0.929704 0.368309
    outer loop
      vertex 141.9 -3.97119 260.17
      vertex 155.1 -3.59286 261.125
      vertex 141.9 -3.59286 261.125
    endloop
  endfacet
  facet normal 0 -0.929704 0.368309
    outer loop
      vertex 141.9 -3.97119 260.17
      vertex 155.1 -3.97119 260.17
      vertex 155.1 -3.59286 261.125
    endloop
  endfacet
  facet normal -1 0 0
    outer loop
      vertex 141.9 -4.1 259.15
      vertex 141.9 -3.3 259.15
      vertex 141.9 -3.97119 258.13
    endloop
  endfacet
  facet normal 0 -0.99212 -0.125289
    outer loop
      vertex 141.9 -4.1 259.15
      vertex 141.9 -3.97119 258.13
      vertex 155.1 -4.1 259.15
    endloop
  endfacet
  facet normal -1 0 0
    outer loop
      vertex 141.9 -4.1 259.15
      vertex 141.9 -3.97119 260.17
      vertex 141.9 -3.3 259.15
    endloop
  endfacet
  facet normal 0 -0.99212 0.125289
    outer loop
      vertex 141.9 -4.1 259.15
      vertex 155.1 -3.97119 260.17
      vertex 141.9 -3.97119 260.17
    endloop
  endfacet
  facet normal 0 -0.99212 0.125289
    outer loop
      vertex 141.9 -4.1 259.15
      vertex 155.1 -4.1 259.15
      vertex 155.1 -3.97119 260.17
    endloop
  endfacet
  facet normal -1 0 0
    outer loop
      vertex 141.9 0.768263 255.123
      vertex 141.9 1.65 256.292
      vertex 141.9 1.74569 255.44
    endloop
  endfacet
  facet normal -0.0717935 0.307706 -0.948769
    outer loop
      vertex 141.9 0.768263 255.123
      vertex 141.9 1.74569 255.44
      vertex 150.96 0.449356 254.334
    endloop
  endfacet
  facet normal -0.0717053 0.309104 -0.948321
    outer loop
      vertex 141.9 0.768263 255.123
      vertex 150.96 0.449356 254.334
      vertex 150.939 0.199047 254.254
    endloop
  endfacet
  facet normal -1 0 0
    outer loop
      vertex 141.9 0.768263 263.177
      vertex 141.9 1.74569 262.86
      vertex 141.9 1.65 262.008
    endloop
  endfacet
  facet normal -0 0.0632442 0.997998
    outer loop
      vertex 141.9 0.768263 263.177
      vertex 155.1 -0.257441 263.242
      vertex 155.1 0.768263 263.177
    endloop
  endfacet
  facet normal 0 0.308502 0.951224
    outer loop
      vertex 141.9 0.768263 263.177
      vertex 155.1 0.768263 263.177
      vertex 141.9 1.74569 262.86
    endloop
  endfacet
  facet normal -1 0 0
    outer loop
      vertex 141.9 1.65 256.292
      vertex 141.9 2.61344 255.991
      vertex 141.9 1.74569 255.44
    endloop
  endfacet
  facet normal -1 -0 0
    outer loop
      vertex 141.9 1.65 256.292
      vertex 141.9 3.3 259.15
      vertex 141.9 3.31697 256.74
    endloop
  endfacet
  facet normal -1 0 0
    outer loop
      vertex 141.9 1.65 256.292
      vertex 141.9 3.31697 256.74
      vertex 141.9 2.61344 255.991
    endloop
  endfacet
  facet normal -0 0 1
    outer loop
      vertex 141.9 1.65 256.292
      vertex 145.95 -1.65 256.292
      vertex 145.95 1.65 256.292
    endloop
  endfacet
  facet normal 0 -0.866034 0.499985
    outer loop
      vertex 141.9 1.65 256.292
      vertex 145.95 1.65 256.292
      vertex 145.95 3.3 259.15
    endloop
  endfacet
  facet normal 0 -0.866034 0.499985
    outer loop
      vertex 141.9 1.65 256.292
      vertex 145.95 3.3 259.15
      vertex 141.9 3.3 259.15
    endloop
  endfacet
  facet normal -1 -0 0
    outer loop
      vertex 141.9 1.65 262.008
      vertex 141.9 1.74569 262.86
      vertex 141.9 2.61344 262.309
    endloop
  endfacet
  facet normal -1 0 0
    outer loop
      vertex 141.9 1.65 262.008
      vertex 141.9 2.61344 262.309
      vertex 141.9 3.31697 261.56
    endloop
  endfacet
  facet normal 0 -0.866034 -0.499985
    outer loop
      vertex 141.9 1.65 262.008
      vertex 141.9 3.3 259.15
      vertex 145.95 1.65 262.008
    endloop
  endfacet
  facet normal -1 0 0
    outer loop
      vertex 141.9 1.65 262.008
      vertex 141.9 3.31697 261.56
      vertex 141.9 3.3 259.15
    endloop
  endfacet
  facet normal -0.0263463 0.535855 -0.843899
    outer loop
      vertex 141.9 1.74569 255.44
      vertex 141.9 2.61344 255.991
      vertex 150.995 0.665245 254.47
    endloop
  endfacet
  facet normal -0.026342 0.535878 -0.843884
    outer loop
      vertex 141.9 1.74569 255.44
      vertex 150.995 0.665245 254.47
      vertex 150.96 0.449356 254.334
    endloop
  endfacet
  facet normal -0 0.308502 0.951224
    outer loop
      vertex 141.9 1.74569 262.86
      vertex 155.1 0.768263 263.177
      vertex 155.1 1.74569 262.86
    endloop
  endfacet
  facet normal 0 0.536041 0.844192
    outer loop
      vertex 141.9 1.74569 262.86
      vertex 155.1 1.74569 262.86
      vertex 141.9 2.61344 262.309
    endloop
  endfacet
  facet normal 0 0.728885 -0.684636
    outer loop
      vertex 141.9 2.61344 255.991
      vertex 141.9 3.31697 256.74
      vertex 155.1 2.61344 255.991
    endloop
  endfacet
  facet normal -0.000867875 0.612865 -0.790187
    outer loop
      vertex 141.9 2.61344 255.991
      vertex 151.012 0.754233 254.539
      vertex 150.995 0.665245 254.47
    endloop
  endfacet
  facet normal -0.000159254 0.615026 -0.788507
    outer loop
      vertex 141.9 2.61344 255.991
      vertex 151.206 1.20429 254.89
      vertex 151.012 0.754233 254.539
    endloop
  endfacet
  facet normal 0.000140121 0.616254 -0.787548
    outer loop
      vertex 141.9 2.61344 255.991
      vertex 151.48 1.57867 255.183
      vertex 151.206 1.20429 254.89
    endloop
  endfacet
  facet normal 3.21929e-05 0.615633 -0.788033
    outer loop
      vertex 141.9 2.61344 255.991
      vertex 151.819 1.85386 255.398
      vertex 151.48 1.57867 255.183
    endloop
  endfacet
  facet normal 3.33301e-05 0.615643 -0.788026
    outer loop
      vertex 141.9 2.61344 255.991
      vertex 152.2 2.01256 255.522
      vertex 151.819 1.85386 255.398
    endloop
  endfacet
  facet normal 0 0.615288 -0.788303
    outer loop
      vertex 141.9 2.61344 255.991
      vertex 155.1 2.61344 255.991
      vertex 152.2 2.01256 255.522
    endloop
  endfacet
  facet normal -0 0.536041 0.844192
    outer loop
      vertex 141.9 2.61344 262.309
      vertex 155.1 1.74569 262.86
      vertex 155.1 2.61344 262.309
    endloop
  endfacet
  facet normal 0 0.728885 0.684636
    outer loop
      vertex 141.9 2.61344 262.309
      vertex 155.1 2.61344 262.309
      vertex 155.1 3.31697 261.56
    endloop
  endfacet
  facet normal 0 0.728885 0.684636
    outer loop
      vertex 141.9 2.61344 262.309
      vertex 155.1 3.31697 261.56
      vertex 141.9 3.31697 261.56
    endloop
  endfacet
  facet normal -1 -0 0
    outer loop
      vertex 141.9 3.3 259.15
      vertex 141.9 3.31697 261.56
      vertex 141.9 3.81208 260.659
    endloop
  endfacet
  facet normal -1 0 0
    outer loop
      vertex 141.9 3.3 259.15
      vertex 141.9 3.81208 257.641
      vertex 141.9 3.31697 256.74
    endloop
  endfacet
  facet normal -1 -0 0
    outer loop
      vertex 141.9 3.3 259.15
      vertex 141.9 3.81208 260.659
      vertex 141.9 4.06767 259.664
    endloop
  endfacet
  facet normal -1 0 0
    outer loop
      vertex 141.9 3.3 259.15
      vertex 141.9 4.06767 258.636
      vertex 141.9 3.81208 257.641
    endloop
  endfacet
  facet normal -1 0 0
    outer loop
      vertex 141.9 3.3 259.15
      vertex 141.9 4.06767 259.664
      vertex 141.9 4.06767 258.636
    endloop
  endfacet
  facet normal 0 -0.866034 -0.499985
    outer loop
      vertex 141.9 3.3 259.15
      vertex 145.95 3.3 259.15
      vertex 145.95 1.65 262.008
    endloop
  endfacet
  facet normal 0 0.876397 -0.48159
    outer loop
      vertex 141.9 3.31697 256.74
      vertex 141.9 3.81208 257.641
      vertex 155.1 3.31697 256.74
    endloop
  endfacet
  facet normal 0 0.728885 -0.684636
    outer loop
      vertex 141.9 3.31697 256.74
      vertex 155.1 3.31697 256.74
      vertex 155.1 2.61344 255.991
    endloop
  endfacet
  facet normal 0 0.876397 0.48159
    outer loop
      vertex 141.9 3.31697 261.56
      vertex 155.1 3.31697 261.56
      vertex 155.1 3.81208 260.659
    endloop
  endfacet
  facet normal 0 0.876397 0.48159
    outer loop
      vertex 141.9 3.31697 261.56
      vertex 155.1 3.81208 260.659
      vertex 141.9 3.81208 260.659
    endloop
  endfacet
  facet normal 0 0.968556 -0.248797
    outer loop
      vertex 141.9 3.81208 257.641
      vertex 141.9 4.06767 258.636
      vertex 155.1 3.81208 257.641
    endloop
  endfacet
  facet normal 0 0.876397 -0.48159
    outer loop
      vertex 141.9 3.81208 257.641
      vertex 155.1 3.81208 257.641
      vertex 155.1 3.31697 256.74
    endloop
  endfacet
  facet normal 0 0.968556 0.248797
    outer loop
      vertex 141.9 3.81208 260.659
      vertex 155.1 3.81208 260.659
      vertex 155.1 4.06767 259.664
    endloop
  endfacet
  facet normal 0 0.968556 0.248797
    outer loop
      vertex 141.9 3.81208 260.659
      vertex 155.1 4.06767 259.664
      vertex 141.9 4.06767 259.664
    endloop
  endfacet
  facet normal 0 1 0
    outer loop
      vertex 141.9 4.06767 258.636
      vertex 141.9 4.06767 259.664
      vertex 155.1 4.06767 258.636
    endloop
  endfacet
  facet normal 0 0.968556 -0.248797
    outer loop
      vertex 141.9 4.06767 258.636
      vertex 155.1 4.06767 258.636
      vertex 155.1 3.81208 257.641
    endloop
  endfacet
  facet normal 0 1 -0
    outer loop
      vertex 141.9 4.06767 259.664
      vertex 155.1 4.06767 259.664
      vertex 155.1 4.06767 258.636
    endloop
  endfacet
  facet normal -1 0 0
    outer loop
      vertex 145.95 -0.100465 257.553
      vertex 145.95 0.299809 257.578
      vertex 145.95 1.65 256.292
    endloop
  endfacet
  facet normal 0 -0.0623358 0.998055
    outer loop
      vertex 145.95 -0.100465 257.553
      vertex 155.1 -0.100465 257.553
      vertex 145.95 0.299809 257.578
    endloop
  endfacet
  facet normal -0 0.187015 0.982357
    outer loop
      vertex 145.95 -0.100465 257.553
      vertex 155.1 -0.494427 257.628
      vertex 155.1 -0.100465 257.553
    endloop
  endfacet
  facet normal -0 -0.0623358 -0.998055
    outer loop
      vertex 145.95 -0.100465 260.747
      vertex 145.95 0.299809 260.722
      vertex 155.1 0.299809 260.722
    endloop
  endfacet
  facet normal -1 0 0
    outer loop
      vertex 145.95 -0.100465 260.747
      vertex 145.95 1.65 262.008
      vertex 145.95 0.299809 260.722
    endloop
  endfacet
  facet normal 0 -0.0623358 -0.998055
    outer loop
      vertex 145.95 -0.100465 260.747
      vertex 155.1 0.299809 260.722
      vertex 155.1 -0.100465 260.747
    endloop
  endfacet
  facet normal 0 0.187015 0.982357
    outer loop
      vertex 145.95 -0.494427 257.628
      vertex 155.1 -0.494427 257.628
      vertex 145.95 -0.100465 257.553
    endloop
  endfacet
  facet normal -0 0.426257 0.904602
    outer loop
      vertex 145.95 -0.494427 257.628
      vertex 155.1 -0.857323 257.799
      vertex 155.1 -0.494427 257.628
    endloop
  endfacet
  facet normal 0 0.187015 -0.982357
    outer loop
      vertex 145.95 -0.494427 260.672
      vertex 145.95 -0.100465 260.747
      vertex 155.1 -0.100465 260.747
    endloop
  endfacet
  facet normal 0 0.187015 -0.982357
    outer loop
      vertex 145.95 -0.494427 260.672
      vertex 155.1 -0.100465 260.747
      vertex 155.1 -0.494427 260.672
    endloop
  endfacet
  facet normal 0 0.426257 0.904602
    outer loop
      vertex 145.95 -0.857323 257.799
      vertex 155.1 -0.857323 257.799
      vertex 145.95 -0.494427 257.628
    endloop
  endfacet
  facet normal -0 0.637943 0.770084
    outer loop
      vertex 145.95 -0.857323 257.799
      vertex 155.1 -1.16635 258.055
      vertex 155.1 -0.857323 257.799
    endloop
  endfacet
  facet normal 0 0.426257 -0.904602
    outer loop
      vertex 145.95 -0.857323 260.501
      vertex 145.95 -0.494427 260.672
      vertex 155.1 -0.494427 260.672
    endloop
  endfacet
  facet normal 0 0.426257 -0.904602
    outer loop
      vertex 145.95 -0.857323 260.501
      vertex 155.1 -0.494427 260.672
      vertex 155.1 -0.857323 260.501
    endloop
  endfacet
  facet normal 0 0.637943 0.770084
    outer loop
      vertex 145.95 -1.16635 258.055
      vertex 155.1 -1.16635 258.055
      vertex 145.95 -0.857323 257.799
    endloop
  endfacet
  facet normal 0 0.637943 -0.770084
    outer loop
      vertex 145.95 -1.16635 260.245
      vertex 145.95 -0.857323 260.501
      vertex 155.1 -0.857323 260.501
    endloop
  endfacet
  facet normal 0 0.637943 -0.770084
    outer loop
      vertex 145.95 -1.16635 260.245
      vertex 155.1 -0.857323 260.501
      vertex 155.1 -1.16635 260.245
    endloop
  endfacet
  facet normal 0 0.808613 -0.588341
    outer loop
      vertex 145.95 -1.16635 260.245
      vertex 155.1 -1.16635 260.245
      vertex 155.1 -1.40209 259.921
    endloop
  endfacet
  facet normal 0 0.808613 0.588341
    outer loop
      vertex 145.95 -1.40209 258.379
      vertex 155.1 -1.16635 258.055
      vertex 145.95 -1.16635 258.055
    endloop
  endfacet
  facet normal 0 0.808613 0.588341
    outer loop
      vertex 145.95 -1.40209 258.379
      vertex 155.1 -1.40209 258.379
      vertex 155.1 -1.16635 258.055
    endloop
  endfacet
  facet normal 0 0.808613 -0.588341
    outer loop
      vertex 145.95 -1.40209 259.921
      vertex 145.95 -1.16635 260.245
      vertex 155.1 -1.40209 259.921
    endloop
  endfacet
  facet normal 0 0.929812 -0.368036
    outer loop
      vertex 145.95 -1.40209 259.921
      vertex 155.1 -1.40209 259.921
      vertex 155.1 -1.54973 259.548
    endloop
  endfacet
  facet normal 0 0.929812 0.368036
    outer loop
      vertex 145.95 -1.54973 258.752
      vertex 155.1 -1.40209 258.379
      vertex 145.95 -1.40209 258.379
    endloop
  endfacet
  facet normal 0 0.929812 0.368036
    outer loop
      vertex 145.95 -1.54973 258.752
      vertex 155.1 -1.54973 258.752
      vertex 155.1 -1.40209 258.379
    endloop
  endfacet
  facet normal 0 0.929812 -0.368036
    outer loop
      vertex 145.95 -1.54973 259.548
      vertex 145.95 -1.40209 259.921
      vertex 155.1 -1.54973 259.548
    endloop
  endfacet
  facet normal 0 0.992118 -0.125311
    outer loop
      vertex 145.95 -1.54973 259.548
      vertex 155.1 -1.54973 259.548
      vertex 155.1 -1.6 259.15
    endloop
  endfacet
  facet normal 0 0.992118 -0.125311
    outer loop
      vertex 145.95 -1.6 259.15
      vertex 145.95 -1.54973 259.548
      vertex 155.1 -1.6 259.15
    endloop
  endfacet
  facet normal 0 0.992118 0.125311
    outer loop
      vertex 145.95 -1.6 259.15
      vertex 155.1 -1.54973 258.752
      vertex 145.95 -1.54973 258.752
    endloop
  endfacet
  facet normal 0 0.992118 0.125311
    outer loop
      vertex 145.95 -1.6 259.15
      vertex 155.1 -1.6 259.15
      vertex 155.1 -1.54973 258.752
    endloop
  endfacet
  facet normal -1 0 0
    outer loop
      vertex 145.95 -1.65 256.292
      vertex 145.95 -0.100465 257.553
      vertex 145.95 1.65 256.292
    endloop
  endfacet
  facet normal -1 -0 0
    outer loop
      vertex 145.95 -1.65 256.292
      vertex 145.95 -0.494427 257.628
      vertex 145.95 -0.100465 257.553
    endloop
  endfacet
  facet normal -1 -0 0
    outer loop
      vertex 145.95 -1.65 256.292
      vertex 145.95 -0.857323 257.799
      vertex 145.95 -0.494427 257.628
    endloop
  endfacet
  facet normal -1 -0 0
    outer loop
      vertex 145.95 -1.65 256.292
      vertex 145.95 -1.16635 258.055
      vertex 145.95 -0.857323 257.799
    endloop
  endfacet
  facet normal -1 -0 0
    outer loop
      vertex 145.95 -1.65 256.292
      vertex 145.95 -1.40209 258.379
      vertex 145.95 -1.16635 258.055
    endloop
  endfacet
  facet normal -1 0 0
    outer loop
      vertex 145.95 -1.65 262.008
      vertex 145.95 -0.100465 260.747
      vertex 145.95 -0.494427 260.672
    endloop
  endfacet
  facet normal -1 0 0
    outer loop
      vertex 145.95 -1.65 262.008
      vertex 145.95 -0.494427 260.672
      vertex 145.95 -0.857323 260.501
    endloop
  endfacet
  facet normal -1 0 0
    outer loop
      vertex 145.95 -1.65 262.008
      vertex 145.95 -0.857323 260.501
      vertex 145.95 -1.16635 260.245
    endloop
  endfacet
  facet normal -1 0 0
    outer loop
      vertex 145.95 -1.65 262.008
      vertex 145.95 -1.16635 260.245
      vertex 145.95 -1.40209 259.921
    endloop
  endfacet
  facet normal -1 0 0
    outer loop
      vertex 145.95 -1.65 262.008
      vertex 145.95 1.65 262.008
      vertex 145.95 -0.100465 260.747
    endloop
  endfacet
  facet normal -1 0 0
    outer loop
      vertex 145.95 -3.3 259.15
      vertex 145.95 -1.40209 258.379
      vertex 145.95 -1.65 256.292
    endloop
  endfacet
  facet normal -1 0 0
    outer loop
      vertex 145.95 -3.3 259.15
      vertex 145.95 -1.40209 259.921
      vertex 145.95 -1.54973 259.548
    endloop
  endfacet
  facet normal -1 0 0
    outer loop
      vertex 145.95 -3.3 259.15
      vertex 145.95 -1.54973 258.752
      vertex 145.95 -1.40209 258.379
    endloop
  endfacet
  facet normal -1 0 0
    outer loop
      vertex 145.95 -3.3 259.15
      vertex 145.95 -1.54973 259.548
      vertex 145.95 -1.6 259.15
    endloop
  endfacet
  facet normal -1 0 0
    outer loop
      vertex 145.95 -3.3 259.15
      vertex 145.95 -1.6 259.15
      vertex 145.95 -1.54973 258.752
    endloop
  endfacet
  facet normal -1 -0 0
    outer loop
      vertex 145.95 -3.3 259.15
      vertex 145.95 -1.65 262.008
      vertex 145.95 -1.40209 259.921
    endloop
  endfacet
  facet normal -1 0 0
    outer loop
      vertex 145.95 0.299809 257.578
      vertex 145.95 0.681247 257.702
      vertex 145.95 1.65 256.292
    endloop
  endfacet
  facet normal 0 -0.0623358 0.998055
    outer loop
      vertex 145.95 0.299809 257.578
      vertex 155.1 -0.100465 257.553
      vertex 155.1 0.299809 257.578
    endloop
  endfacet
  facet normal 0 -0.30916 0.95101
    outer loop
      vertex 145.95 0.299809 257.578
      vertex 155.1 0.299809 257.578
      vertex 145.95 0.681247 257.702
    endloop
  endfacet
  facet normal -0 -0.30916 -0.95101
    outer loop
      vertex 145.95 0.299809 260.722
      vertex 145.95 0.681247 260.598
      vertex 155.1 0.681247 260.598
    endloop
  endfacet
  facet normal -1 0 0
    outer loop
      vertex 145.95 0.299809 260.722
      vertex 145.95 1.65 262.008
      vertex 145.95 0.681247 260.598
    endloop
  endfacet
  facet normal 0 -0.30916 -0.95101
    outer loop
      vertex 145.95 0.299809 260.722
      vertex 155.1 0.681247 260.598
      vertex 155.1 0.299809 260.722
    endloop
  endfacet
  facet normal -1 0 0
    outer loop
      vertex 145.95 0.681247 257.702
      vertex 145.95 1.01988 257.917
      vertex 145.95 1.65 256.292
    endloop
  endfacet
  facet normal 0 -0.30916 0.95101
    outer loop
      vertex 145.95 0.681247 257.702
      vertex 155.1 0.299809 257.578
      vertex 155.1 0.681247 257.702
    endloop
  endfacet
  facet normal 0 -0.535999 0.844219
    outer loop
      vertex 145.95 0.681247 257.702
      vertex 155.1 0.681247 257.702
      vertex 145.95 1.01988 257.917
    endloop
  endfacet
  facet normal -0 -0.535999 -0.844219
    outer loop
      vertex 145.95 0.681247 260.598
      vertex 145.95 1.01988 260.383
      vertex 155.1 1.01988 260.383
    endloop
  endfacet
  facet normal -1 0 0
    outer loop
      vertex 145.95 0.681247 260.598
      vertex 145.95 1.65 262.008
      vertex 145.95 1.01988 260.383
    endloop
  endfacet
  facet normal 0 -0.535999 -0.844219
    outer loop
      vertex 145.95 0.681247 260.598
      vertex 155.1 1.01988 260.383
      vertex 155.1 0.681247 260.598
    endloop
  endfacet
  facet normal -1 0 0
    outer loop
      vertex 145.95 1.01988 257.917
      vertex 145.95 1.29443 258.21
      vertex 145.95 1.65 256.292
    endloop
  endfacet
  facet normal 0 -0.535999 0.844219
    outer loop
      vertex 145.95 1.01988 257.917
      vertex 155.1 0.681247 257.702
      vertex 155.1 1.01988 257.917
    endloop
  endfacet
  facet normal 0 -0.729708 0.683759
    outer loop
      vertex 145.95 1.01988 257.917
      vertex 155.1 1.01988 257.917
      vertex 155.1 1.29443 258.21
    endloop
  endfacet
  facet normal 0 -0.729708 0.683759
    outer loop
      vertex 145.95 1.01988 257.917
      vertex 155.1 1.29443 258.21
      vertex 145.95 1.29443 258.21
    endloop
  endfacet
  facet normal 0 -0.729708 -0.683759
    outer loop
      vertex 145.95 1.01988 260.383
      vertex 145.95 1.29443 260.09
      vertex 155.1 1.01988 260.383
    endloop
  endfacet
  facet normal -1 0 0
    outer loop
      vertex 145.95 1.01988 260.383
      vertex 145.95 1.65 262.008
      vertex 145.95 1.29443 260.09
    endloop
  endfacet
  facet normal -1 0 0
    outer loop
      vertex 145.95 1.29443 258.21
      vertex 145.95 1.48764 258.561
      vertex 145.95 3.3 259.15
    endloop
  endfacet
  facet normal -1 0 0
    outer loop
      vertex 145.95 1.29443 258.21
      vertex 145.95 3.3 259.15
      vertex 145.95 1.65 256.292
    endloop
  endfacet
  facet normal 0 -0.876047 0.482225
    outer loop
      vertex 145.95 1.29443 258.21
      vertex 155.1 1.29443 258.21
      vertex 155.1 1.48764 258.561
    endloop
  endfacet
  facet normal 0 -0.876047 0.482225
    outer loop
      vertex 145.95 1.29443 258.21
      vertex 155.1 1.48764 258.561
      vertex 145.95 1.48764 258.561
    endloop
  endfacet
  facet normal 0 -0.876047 -0.482225
    outer loop
      vertex 145.95 1.29443 260.09
      vertex 145.95 1.48764 259.739
      vertex 155.1 1.29443 260.09
    endloop
  endfacet
  facet normal -1 0 0
    outer loop
      vertex 145.95 1.29443 260.09
      vertex 145.95 1.65 262.008
      vertex 145.95 3.3 259.15
    endloop
  endfacet
  facet normal -1 0 0
    outer loop
      vertex 145.95 1.29443 260.09
      vertex 145.95 3.3 259.15
      vertex 145.95 1.48764 259.739
    endloop
  endfacet
  facet normal 0 -0.729708 -0.683759
    outer loop
      vertex 145.95 1.29443 260.09
      vertex 155.1 1.29443 260.09
      vertex 155.1 1.01988 260.383
    endloop
  endfacet
  facet normal -1 0 0
    outer loop
      vertex 145.95 1.48764 258.561
      vertex 145.95 1.58738 258.949
      vertex 145.95 3.3 259.15
    endloop
  endfacet
  facet normal 0 -0.968512 0.248967
    outer loop
      vertex 145.95 1.48764 258.561
      vertex 155.1 1.48764 258.561
      vertex 155.1 1.58738 258.949
    endloop
  endfacet
  facet normal 0 -0.968512 0.248967
    outer loop
      vertex 145.95 1.48764 258.561
      vertex 155.1 1.58738 258.949
      vertex 145.95 1.58738 258.949
    endloop
  endfacet
  facet normal 0 -0.968512 -0.248967
    outer loop
      vertex 145.95 1.48764 259.739
      vertex 145.95 1.58738 259.351
      vertex 155.1 1.48764 259.739
    endloop
  endfacet
  facet normal -1 0 0
    outer loop
      vertex 145.95 1.48764 259.739
      vertex 145.95 3.3 259.15
      vertex 145.95 1.58738 259.351
    endloop
  endfacet
  facet normal 0 -0.876047 -0.482225
    outer loop
      vertex 145.95 1.48764 259.739
      vertex 155.1 1.48764 259.739
      vertex 155.1 1.29443 260.09
    endloop
  endfacet
  facet normal -1 0 0
    outer loop
      vertex 145.95 1.58738 258.949
      vertex 145.95 1.58738 259.351
      vertex 145.95 3.3 259.15
    endloop
  endfacet
  facet normal 0 -1 -0
    outer loop
      vertex 145.95 1.58738 258.949
      vertex 155.1 1.58738 258.949
      vertex 155.1 1.58738 259.351
    endloop
  endfacet
  facet normal 0 -1 0
    outer loop
      vertex 145.95 1.58738 258.949
      vertex 155.1 1.58738 259.351
      vertex 145.95 1.58738 259.351
    endloop
  endfacet
  facet normal 0 -0.968512 -0.248967
    outer loop
      vertex 145.95 1.58738 259.351
      vertex 155.1 1.58738 259.351
      vertex 155.1 1.48764 259.739
    endloop
  endfacet
  facet normal 0.967088 0.00171944 -0.254438
    outer loop
      vertex 150.935 -0.0667881 254.237
      vertex 150.939 0.199047 254.254
      vertex 150.995 0.665245 254.47
    endloop
  endfacet
  facet normal 0.972674 -0.00584726 -0.232103
    outer loop
      vertex 150.935 -0.0667881 254.237
      vertex 150.995 0.665245 254.47
      vertex 151.012 0.754233 254.539
    endloop
  endfacet
  facet normal 0.968999 0 -0.247063
    outer loop
      vertex 150.935 -0.0667881 254.237
      vertex 151.012 0.754233 254.539
      vertex 151.012 -1.48311 254.539
    endloop
  endfacet
  facet normal 0.968999 0 -0.247063
    outer loop
      vertex 150.935 -0.807357 254.237
      vertex 150.935 -0.0667881 254.237
      vertex 151.012 -1.48311 254.539
    endloop
  endfacet
  facet normal 0.96729 -0.00313992 -0.253653
    outer loop
      vertex 150.935 -0.807357 254.237
      vertex 151.012 -1.48311 254.539
      vertex 150.947 -1.06899 254.286
    endloop
  endfacet
  facet normal 0.969667 -0.00323783 -0.244407
    outer loop
      vertex 150.939 0.199047 254.254
      vertex 150.96 0.449356 254.334
      vertex 150.995 0.665245 254.47
    endloop
  endfacet
  facet normal 0.96852 -6.4736e-05 -0.248935
    outer loop
      vertex 150.947 -1.06899 254.286
      vertex 151.012 -1.48311 254.539
      vertex 150.975 -1.30654 254.395
    endloop
  endfacet
  facet normal 0.875214 0 -0.483736
    outer loop
      vertex 151.012 -1.48311 254.539
      vertex 151.012 0.754233 254.539
      vertex 151.206 -1.78148 254.89
    endloop
  endfacet
  facet normal 0.905469 0.104972 -0.411226
    outer loop
      vertex 151.012 -1.48311 254.539
      vertex 151.206 -1.78148 254.89
      vertex 151.021 -1.50198 254.554
    endloop
  endfacet
  facet normal 0.875214 0 -0.483736
    outer loop
      vertex 151.012 0.754233 254.539
      vertex 151.206 1.20429 254.89
      vertex 151.206 -1.78148 254.89
    endloop
  endfacet
  facet normal 0.730392 0 -0.683028
    outer loop
      vertex 151.206 -1.78148 254.89
      vertex 151.206 1.20429 254.89
      vertex 151.48 -2.02442 255.183
    endloop
  endfacet
  facet normal 0.730392 0 -0.683028
    outer loop
      vertex 151.206 1.20429 254.89
      vertex 151.48 1.57867 255.183
      vertex 151.48 -2.02442 255.183
    endloop
  endfacet
  facet normal 0.535585 0 -0.844481
    outer loop
      vertex 151.48 -2.02442 255.183
      vertex 151.48 1.57867 255.183
      vertex 151.819 -2.20299 255.398
    endloop
  endfacet
  facet normal 0.535585 0 -0.844481
    outer loop
      vertex 151.48 1.57867 255.183
      vertex 151.819 1.85386 255.398
      vertex 151.819 -2.20299 255.398
    endloop
  endfacet
  facet normal 0.309481 0 -0.950906
    outer loop
      vertex 151.819 -2.20299 255.398
      vertex 151.819 1.85386 255.398
      vertex 152.2 -2.30598 255.522
    endloop
  endfacet
  facet normal 0.309481 0 -0.950906
    outer loop
      vertex 151.819 1.85386 255.398
      vertex 152.2 2.01256 255.522
      vertex 152.2 -2.30598 255.522
    endloop
  endfacet
  facet normal 0.0623783 0 -0.998053
    outer loop
      vertex 152.2 -2.30598 255.522
      vertex 152.2 2.01256 255.522
      vertex 152.6 -2.3269 255.547
    endloop
  endfacet
  facet normal -0.000317414 -0.769406 -0.63876
    outer loop
      vertex 152.2 -2.30598 255.522
      vertex 152.6 -2.3269 255.547
      vertex 155.1 -2.98877 256.343
    endloop
  endfacet
  facet normal 0.0623783 0 -0.998053
    outer loop
      vertex 152.2 2.01256 255.522
      vertex 152.6 2.04481 255.547
      vertex 152.6 -2.3269 255.547
    endloop
  endfacet
  facet normal -0.000553429 0.616946 -0.787005
    outer loop
      vertex 152.2 2.01256 255.522
      vertex 155.1 2.61344 255.991
      vertex 152.6 2.04481 255.547
    endloop
  endfacet
  facet normal -0.186998 0 -0.98236
    outer loop
      vertex 152.6 -2.3269 255.547
      vertex 152.6 2.04481 255.547
      vertex 152.994 1.94858 255.472
    endloop
  endfacet
  facet normal 9.50982e-05 -0.768769 -0.639526
    outer loop
      vertex 152.6 -2.3269 255.547
      vertex 152.994 -2.26446 255.472
      vertex 155.1 -2.98877 256.343
    endloop
  endfacet
  facet normal -0.186998 0 -0.98236
    outer loop
      vertex 152.6 -2.3269 255.547
      vertex 152.994 1.94858 255.472
      vertex 152.994 -2.26446 255.472
    endloop
  endfacet
  facet normal 0.000133846 0.61507 -0.788473
    outer loop
      vertex 152.6 2.04481 255.547
      vertex 155.1 2.61344 255.991
      vertex 152.994 1.94858 255.472
    endloop
  endfacet
  facet normal -0.426157 0 -0.904649
    outer loop
      vertex 152.994 -2.26446 255.472
      vertex 152.994 1.94858 255.472
      vertex 153.357 1.72991 255.301
    endloop
  endfacet
  facet normal -0.000298129 -0.769236 -0.638964
    outer loop
      vertex 152.994 -2.26446 255.472
      vertex 153.357 -2.12256 255.301
      vertex 155.1 -2.98877 256.343
    endloop
  endfacet
  facet normal -0.426157 0 -0.904649
    outer loop
      vertex 152.994 -2.26446 255.472
      vertex 153.357 1.72991 255.301
      vertex 153.357 -2.12256 255.301
    endloop
  endfacet
  facet normal -0.000226015 0.615778 -0.78792
    outer loop
      vertex 152.994 1.94858 255.472
      vertex 155.1 2.61344 255.991
      vertex 153.357 1.72991 255.301
    endloop
  endfacet
  facet normal -0.637976 0 -0.770057
    outer loop
      vertex 153.357 -2.12256 255.301
      vertex 153.357 1.72991 255.301
      vertex 153.666 1.40254 255.045
    endloop
  endfacet
  facet normal -0.000387847 -0.76931 -0.638875
    outer loop
      vertex 153.357 -2.12256 255.301
      vertex 153.666 -1.91012 255.045
      vertex 155.1 -2.98877 256.343
    endloop
  endfacet
  facet normal -0.637976 0 -0.770057
    outer loop
      vertex 153.357 -2.12256 255.301
      vertex 153.666 1.40254 255.045
      vertex 153.666 -1.91012 255.045
    endloop
  endfacet
  facet normal -0.000278663 0.615843 -0.787869
    outer loop
      vertex 153.357 1.72991 255.301
      vertex 155.1 2.61344 255.991
      vertex 153.666 1.40254 255.045
    endloop
  endfacet
  facet normal -0.808304 0 -0.588765
    outer loop
      vertex 153.666 -1.91012 255.045
      vertex 153.666 1.40254 255.045
      vertex 153.902 0.987043 254.721
    endloop
  endfacet
  facet normal 0.000482837 -0.768837 -0.639444
    outer loop
      vertex 153.666 -1.91012 255.045
      vertex 153.902 -1.6405 254.721
      vertex 155.1 -2.98877 256.343
    endloop
  endfacet
  facet normal -0.808304 0 -0.588765
    outer loop
      vertex 153.666 -1.91012 255.045
      vertex 153.902 0.987043 254.721
      vertex 153.902 -1.6405 254.721
    endloop
  endfacet
  facet normal 0.000651547 0.615158 -0.788403
    outer loop
      vertex 153.666 1.40254 255.045
      vertex 155.1 2.61344 255.991
      vertex 153.902 0.987043 254.721
    endloop
  endfacet
  facet normal -0.929504 0 -0.368811
    outer loop
      vertex 153.902 -1.6405 254.721
      vertex 153.902 0.987043 254.721
      vertex 154.05 0.509529 254.348
    endloop
  endfacet
  facet normal 1.0264e-05 -0.76921 -0.638997
    outer loop
      vertex 153.902 -1.6405 254.721
      vertex 154.05 -1.33064 254.348
      vertex 155.1 -1 253.95
    endloop
  endfacet
  facet normal -0.929504 0 -0.368811
    outer loop
      vertex 153.902 -1.6405 254.721
      vertex 154.05 0.509529 254.348
      vertex 154.05 -1.33064 254.348
    endloop
  endfacet
  facet normal -0.000167713 -0.769074 -0.63916
    outer loop
      vertex 153.902 -1.6405 254.721
      vertex 155.1 -1 253.95
      vertex 155.1 -2.98877 256.343
    endloop
  endfacet
  facet normal 6.92832e-06 0.615586 -0.78807
    outer loop
      vertex 153.902 0.987043 254.721
      vertex 155.1 0 253.95
      vertex 154.05 0.509529 254.348
    endloop
  endfacet
  facet normal -0.000102573 0.615504 -0.788134
    outer loop
      vertex 153.902 0.987043 254.721
      vertex 155.1 2.61344 255.991
      vertex 155.1 0 253.95
    endloop
  endfacet
  facet normal -0.992201 0 -0.124648
    outer loop
      vertex 154.05 -1.33064 254.348
      vertex 154.05 0.509529 254.348
      vertex 154.1 0 253.95
    endloop
  endfacet
  facet normal -0 -0.769196 -0.639013
    outer loop
      vertex 154.05 -1.33064 254.348
      vertex 154.1 -1 253.95
      vertex 155.1 -1 253.95
    endloop
  endfacet
  facet normal -0.992201 0 -0.124648
    outer loop
      vertex 154.05 -1.33064 254.348
      vertex 154.1 0 253.95
      vertex 154.1 -1 253.95
    endloop
  endfacet
  facet normal 0 0.615577 -0.788077
    outer loop
      vertex 154.05 0.509529 254.348
      vertex 155.1 0 253.95
      vertex 154.1 0 253.95
    endloop
  endfacet
  facet normal -0 0 -1
    outer loop
      vertex 154.1 -1 253.95
      vertex 154.1 0 253.95
      vertex 155.1 0 253.95
    endloop
  endfacet
  facet normal 0 0 -1
    outer loop
      vertex 154.1 -1 253.95
      vertex 155.1 0 253.95
      vertex 155.1 -1 253.95
    endloop
  endfacet
  facet normal 1 -0 0
    outer loop
      vertex 155.1 -0.100465 257.553
      vertex 155.1 0 253.95
      vertex 155.1 0.299809 257.578
    endloop
  endfacet
  facet normal 1 0 0
    outer loop
      vertex 155.1 -0.100465 260.747
      vertex 155.1 0.299809 260.722
      vertex 155.1 0.768263 263.177
    endloop
  endfacet
  facet normal 1 0 0
    outer loop
      vertex 155.1 -0.257441 263.242
      vertex 155.1 -0.100465 260.747
      vertex 155.1 0.768263 263.177
    endloop
  endfacet
  facet normal 1 0 0
    outer loop
      vertex 155.1 -0.494427 260.672
      vertex 155.1 -0.100465 260.747
      vertex 155.1 -0.257441 263.242
    endloop
  endfacet
  facet normal 1 0 0
    outer loop
      vertex 155.1 -1 253.95
      vertex 155.1 -0.100465 257.553
      vertex 155.1 -0.494427 257.628
    endloop
  endfacet
  facet normal 1 0 0
    outer loop
      vertex 155.1 -1 253.95
      vertex 155.1 0 253.95
      vertex 155.1 -0.100465 257.553
    endloop
  endfacet
  facet normal 1 -0 0
    outer loop
      vertex 155.1 -1.26697 263.049
      vertex 155.1 -0.494427 260.672
      vertex 155.1 -0.257441 263.242
    endloop
  endfacet
  facet normal 1 0 0
    outer loop
      vertex 155.1 -1.26697 263.049
      vertex 155.1 -0.857323 260.501
      vertex 155.1 -0.494427 260.672
    endloop
  endfacet
  facet normal 1 -0 0
    outer loop
      vertex 155.1 -2.19689 262.612
      vertex 155.1 -0.857323 260.501
      vertex 155.1 -1.26697 263.049
    endloop
  endfacet
  facet normal 1 0 0
    outer loop
      vertex 155.1 -2.19689 262.612
      vertex 155.1 -1.16635 260.245
      vertex 155.1 -0.857323 260.501
    endloop
  endfacet
  facet normal 1 0 0
    outer loop
      vertex 155.1 -2.98877 256.343
      vertex 155.1 -0.494427 257.628
      vertex 155.1 -0.857323 257.799
    endloop
  endfacet
  facet normal 1 0 0
    outer loop
      vertex 155.1 -2.98877 256.343
      vertex 155.1 -0.857323 257.799
      vertex 155.1 -1.16635 258.055
    endloop
  endfacet
  facet normal 1 0 0
    outer loop
      vertex 155.1 -2.98877 256.343
      vertex 155.1 -1 253.95
      vertex 155.1 -0.494427 257.628
    endloop
  endfacet
  facet normal 1 0 0
    outer loop
      vertex 155.1 -2.98877 256.343
      vertex 155.1 -1.16635 258.055
      vertex 155.1 -1.40209 258.379
    endloop
  endfacet
  facet normal 1 -0 0
    outer loop
      vertex 155.1 -2.98877 261.957
      vertex 155.1 -1.16635 260.245
      vertex 155.1 -2.19689 262.612
    endloop
  endfacet
  facet normal 1 0 0
    outer loop
      vertex 155.1 -2.98877 261.957
      vertex 155.1 -1.40209 259.921
      vertex 155.1 -1.16635 260.245
    endloop
  endfacet
  facet normal 1 0 0
    outer loop
      vertex 155.1 -3.59286 257.175
      vertex 155.1 -1.40209 258.379
      vertex 155.1 -1.54973 258.752
    endloop
  endfacet
  facet normal 1 0 0
    outer loop
      vertex 155.1 -3.59286 257.175
      vertex 155.1 -2.98877 256.343
      vertex 155.1 -1.40209 258.379
    endloop
  endfacet
  facet normal 1 -0 0
    outer loop
      vertex 155.1 -3.59286 261.125
      vertex 155.1 -1.40209 259.921
      vertex 155.1 -2.98877 261.957
    endloop
  endfacet
  facet normal 1 0 0
    outer loop
      vertex 155.1 -3.59286 261.125
      vertex 155.1 -1.54973 259.548
      vertex 155.1 -1.40209 259.921
    endloop
  endfacet
  facet normal 1 0 0
    outer loop
      vertex 155.1 -3.97119 258.13
      vertex 155.1 -1.54973 258.752
      vertex 155.1 -1.6 259.15
    endloop
  endfacet
  facet normal 1 0 0
    outer loop
      vertex 155.1 -3.97119 258.13
      vertex 155.1 -3.59286 257.175
      vertex 155.1 -1.54973 258.752
    endloop
  endfacet
  facet normal 1 -0 0
    outer loop
      vertex 155.1 -3.97119 260.17
      vertex 155.1 -1.54973 259.548
      vertex 155.1 -3.59286 261.125
    endloop
  endfacet
  facet normal 1 0 0
    outer loop
      vertex 155.1 -3.97119 260.17
      vertex 155.1 -1.6 259.15
      vertex 155.1 -1.54973 259.548
    endloop
  endfacet
  facet normal 1 0 0
    outer loop
      vertex 155.1 -4.1 259.15
      vertex 155.1 -1.6 259.15
      vertex 155.1 -3.97119 260.17
    endloop
  endfacet
  facet normal 1 0 0
    outer loop
      vertex 155.1 -4.1 259.15
      vertex 155.1 -3.97119 258.13
      vertex 155.1 -1.6 259.15
    endloop
  endfacet
  facet normal 1 0 0
    outer loop
      vertex 155.1 0 253.95
      vertex 155.1 2.61344 255.991
      vertex 155.1 0.299809 257.578
    endloop
  endfacet
  facet normal 1 -0 0
    outer loop
      vertex 155.1 0.299809 257.578
      vertex 155.1 2.61344 255.991
      vertex 155.1 0.681247 257.702
    endloop
  endfacet
  facet normal 1 0 0
    outer loop
      vertex 155.1 0.299809 260.722
      vertex 155.1 0.681247 260.598
      vertex 155.1 0.768263 263.177
    endloop
  endfacet
  facet normal 1 -0 0
    outer loop
      vertex 155.1 0.681247 257.702
      vertex 155.1 2.61344 255.991
      vertex 155.1 1.01988 257.917
    endloop
  endfacet
  facet normal 1 0 0
    outer loop
      vertex 155.1 0.681247 260.598
      vertex 155.1 1.01988 260.383
      vertex 155.1 1.74569 262.86
    endloop
  endfacet
  facet normal 1 0 0
    outer loop
      vertex 155.1 0.681247 260.598
      vertex 155.1 1.74569 262.86
      vertex 155.1 0.768263 263.177
    endloop
  endfacet
  facet normal 1 -0 0
    outer loop
      vertex 155.1 1.01988 257.917
      vertex 155.1 2.61344 255.991
      vertex 155.1 1.29443 258.21
    endloop
  endfacet
  facet normal 1 0 0
    outer loop
      vertex 155.1 1.01988 260.383
      vertex 155.1 1.29443 260.09
      vertex 155.1 2.61344 262.309
    endloop
  endfacet
  facet normal 1 0 0
    outer loop
      vertex 155.1 1.01988 260.383
      vertex 155.1 2.61344 262.309
      vertex 155.1 1.74569 262.86
    endloop
  endfacet
  facet normal 1 0 0
    outer loop
      vertex 155.1 1.29443 258.21
      vertex 155.1 2.61344 255.991
      vertex 155.1 3.31697 256.74
    endloop
  endfacet
  facet normal 1 -0 0
    outer loop
      vertex 155.1 1.29443 258.21
      vertex 155.1 3.31697 256.74
      vertex 155.1 1.48764 258.561
    endloop
  endfacet
  facet normal 1 0 0
    outer loop
      vertex 155.1 1.29443 260.09
      vertex 155.1 1.48764 259.739
      vertex 155.1 2.61344 262.309
    endloop
  endfacet
  facet normal 1 0 0
    outer loop
      vertex 155.1 1.48764 258.561
      vertex 155.1 3.31697 256.74
      vertex 155.1 3.81208 257.641
    endloop
  endfacet
  facet normal 1 -0 0
    outer loop
      vertex 155.1 1.48764 258.561
      vertex 155.1 3.81208 257.641
      vertex 155.1 1.58738 258.949
    endloop
  endfacet
  facet normal 1 0 0
    outer loop
      vertex 155.1 1.48764 259.739
      vertex 155.1 1.58738 259.351
      vertex 155.1 3.81208 260.659
    endloop
  endfacet
  facet normal 1 0 0
    outer loop
      vertex 155.1 1.48764 259.739
      vertex 155.1 3.31697 261.56
      vertex 155.1 2.61344 262.309
    endloop
  endfacet
  facet normal 1 0 0
    outer loop
      vertex 155.1 1.48764 259.739
      vertex 155.1 3.81208 260.659
      vertex 155.1 3.31697 261.56
    endloop
  endfacet
  facet normal 1 0 0
    outer loop
      vertex 155.1 1.58738 258.949
      vertex 155.1 3.81208 257.641
      vertex 155.1 4.06767 258.636
    endloop
  endfacet
  facet normal 1 -0 0
    outer loop
      vertex 155.1 1.58738 258.949
      vertex 155.1 4.06767 258.636
      vertex 155.1 1.58738 259.351
    endloop
  endfacet
  facet normal 1 0 0
    outer loop
      vertex 155.1 1.58738 259.351
      vertex 155.1 4.06767 258.636
      vertex 155.1 4.06767 259.664
    endloop
  endfacet
  facet normal 1 0 0
    outer loop
      vertex 155.1 1.58738 259.351
      vertex 155.1 4.06767 259.664
      vertex 155.1 3.81208 260.659
    endloop
  endfacet
endsolid model
