solid model
  facet normal -1 0 0
    outer loop
      vertex 194 -0.438665 -13.0276
      vertex 194 0 -11.5
      vertex 194 0 -13
    endloop
  endfacet
  facet normal 0 0.062794 -0.998027
    outer loop
      vertex 194 -0.438665 -13.0276
      vertex 194 0 -13
      vertex 694 0 -13
    endloop
  endfacet
  facet normal 0 0.062794 -0.998027
    outer loop
      vertex 194 -0.438665 -13.0276
      vertex 694 0 -13
      vertex 694 -0.438665 -13.0276
    endloop
  endfacet
  facet normal -1 0 0
    outer loop
      vertex 194 -0.438665 -19.9724
      vertex 194 0 -20
      vertex 194 0 -21.5
    endloop
  endfacet
  facet normal 0 0.062794 0.998027
    outer loop
      vertex 194 -0.438665 -19.9724
      vertex 694 -0.438665 -19.9724
      vertex 194 0 -20
    endloop
  endfacet
  facet normal -0 0.187468 0.982271
    outer loop
      vertex 194 -0.438665 -19.9724
      vertex 694 -0.870414 -19.89
      vertex 694 -0.438665 -19.9724
    endloop
  endfacet
  facet normal -1 0 0
    outer loop
      vertex 194 -0.626666 -11.5394
      vertex 194 0 -11.5
      vertex 194 -0.438665 -13.0276
    endloop
  endfacet
  facet normal 0 -0.0627485 0.998029
    outer loop
      vertex 194 -0.626666 -11.5394
      vertex 694 -0.626666 -11.5394
      vertex 194 0 -11.5
    endloop
  endfacet
  facet normal 0 -0.187446 0.982275
    outer loop
      vertex 194 -0.626666 -11.5394
      vertex 694 -1.24345 -11.6571
      vertex 694 -0.626666 -11.5394
    endloop
  endfacet
  facet normal -1 0 0
    outer loop
      vertex 194 -0.626666 -21.4606
      vertex 194 -0.438665 -19.9724
      vertex 194 0 -21.5
    endloop
  endfacet
  facet normal -0 -0.0627485 -0.998029
    outer loop
      vertex 194 -0.626666 -21.4606
      vertex 194 0 -21.5
      vertex 694 0 -21.5
    endloop
  endfacet
  facet normal 0 -0.0627485 -0.998029
    outer loop
      vertex 194 -0.626666 -21.4606
      vertex 694 0 -21.5
      vertex 694 -0.626666 -21.4606
    endloop
  endfacet
  facet normal 0 0.187468 -0.982271
    outer loop
      vertex 194 -0.870414 -13.11
      vertex 194 -0.438665 -13.0276
      vertex 694 -0.438665 -13.0276
    endloop
  endfacet
  facet normal -1 0 0
    outer loop
      vertex 194 -0.870414 -13.11
      vertex 194 -0.626666 -11.5394
      vertex 194 -0.438665 -13.0276
    endloop
  endfacet
  facet normal 0 0.187468 -0.982271
    outer loop
      vertex 194 -0.870414 -13.11
      vertex 694 -0.438665 -13.0276
      vertex 694 -0.870414 -13.11
    endloop
  endfacet
  facet normal -1 0 0
    outer loop
      vertex 194 -0.870414 -19.89
      vertex 194 -0.438665 -19.9724
      vertex 194 -0.626666 -21.4606
    endloop
  endfacet
  facet normal 0 0.187468 0.982271
    outer loop
      vertex 194 -0.870414 -19.89
      vertex 694 -0.870414 -19.89
      vertex 194 -0.438665 -19.9724
    endloop
  endfacet
  facet normal -0 0.308972 0.951071
    outer loop
      vertex 194 -0.870414 -19.89
      vertex 694 -1.28843 -19.7542
      vertex 694 -0.870414 -19.89
    endloop
  endfacet
  facet normal -1 0 0
    outer loop
      vertex 194 -1.24345 -11.6571
      vertex 194 -0.626666 -11.5394
      vertex 194 -0.870414 -13.11
    endloop
  endfacet
  facet normal 0 -0.187446 0.982275
    outer loop
      vertex 194 -1.24345 -11.6571
      vertex 694 -1.24345 -11.6571
      vertex 194 -0.626666 -11.5394
    endloop
  endfacet
  facet normal 0 -0.30897 0.951072
    outer loop
      vertex 194 -1.24345 -11.6571
      vertex 694 -1.84062 -11.8511
      vertex 694 -1.24345 -11.6571
    endloop
  endfacet
  facet normal -0 -0.187446 -0.982275
    outer loop
      vertex 194 -1.24345 -21.3429
      vertex 194 -0.626666 -21.4606
      vertex 694 -0.626666 -21.4606
    endloop
  endfacet
  facet normal -1 0 0
    outer loop
      vertex 194 -1.24345 -21.3429
      vertex 194 -0.870414 -19.89
      vertex 194 -0.626666 -21.4606
    endloop
  endfacet
  facet normal 0 -0.187446 -0.982275
    outer loop
      vertex 194 -1.24345 -21.3429
      vertex 694 -0.626666 -21.4606
      vertex 694 -1.24345 -21.3429
    endloop
  endfacet
  facet normal 0 0.308972 -0.951071
    outer loop
      vertex 194 -1.28843 -13.2458
      vertex 194 -0.870414 -13.11
      vertex 694 -0.870414 -13.11
    endloop
  endfacet
  facet normal -1 0 0
    outer loop
      vertex 194 -1.28843 -13.2458
      vertex 194 -1.24345 -11.6571
      vertex 194 -0.870414 -13.11
    endloop
  endfacet
  facet normal 0 0.308972 -0.951071
    outer loop
      vertex 194 -1.28843 -13.2458
      vertex 694 -0.870414 -13.11
      vertex 694 -1.28843 -13.2458
    endloop
  endfacet
  facet normal -1 0 0
    outer loop
      vertex 194 -1.28843 -19.7542
      vertex 194 -0.870414 -19.89
      vertex 194 -1.24345 -21.3429
    endloop
  endfacet
  facet normal 0 0.308972 0.951071
    outer loop
      vertex 194 -1.28843 -19.7542
      vertex 694 -1.28843 -19.7542
      vertex 194 -0.870414 -19.89
    endloop
  endfacet
  facet normal -0 0.42569 0.904869
    outer loop
      vertex 194 -1.28843 -19.7542
      vertex 694 -1.68614 -19.5671
      vertex 694 -1.28843 -19.7542
    endloop
  endfacet
  facet normal 0 0.42569 -0.904869
    outer loop
      vertex 194 -1.68614 -13.4329
      vertex 194 -1.28843 -13.2458
      vertex 694 -1.28843 -13.2458
    endloop
  endfacet
  facet normal 0 0.42569 -0.904869
    outer loop
      vertex 194 -1.68614 -13.4329
      vertex 694 -1.28843 -13.2458
      vertex 694 -1.68614 -13.4329
    endloop
  endfacet
  facet normal 0 0.42569 0.904869
    outer loop
      vertex 194 -1.68614 -19.5671
      vertex 694 -1.68614 -19.5671
      vertex 194 -1.28843 -19.7542
    endloop
  endfacet
  facet normal -0 0.535805 0.844342
    outer loop
      vertex 194 -1.68614 -19.5671
      vertex 694 -2.05725 -19.3316
      vertex 694 -1.68614 -19.5671
    endloop
  endfacet
  facet normal -1 0 0
    outer loop
      vertex 194 -1.84062 -11.8511
      vertex 194 -1.24345 -11.6571
      vertex 194 -1.28843 -13.2458
    endloop
  endfacet
  facet normal -1 0 0
    outer loop
      vertex 194 -1.84062 -11.8511
      vertex 194 -1.28843 -13.2458
      vertex 194 -1.68614 -13.4329
    endloop
  endfacet
  facet normal 0 -0.30897 0.951072
    outer loop
      vertex 194 -1.84062 -11.8511
      vertex 694 -1.84062 -11.8511
      vertex 194 -1.24345 -11.6571
    endloop
  endfacet
  facet normal 0 -0.425843 0.904797
    outer loop
      vertex 194 -1.84062 -11.8511
      vertex 694 -2.40877 -12.1185
      vertex 694 -1.84062 -11.8511
    endloop
  endfacet
  facet normal -0 -0.30897 -0.951072
    outer loop
      vertex 194 -1.84062 -21.1489
      vertex 194 -1.24345 -21.3429
      vertex 694 -1.24345 -21.3429
    endloop
  endfacet
  facet normal -1 0 0
    outer loop
      vertex 194 -1.84062 -21.1489
      vertex 194 -1.28843 -19.7542
      vertex 194 -1.24345 -21.3429
    endloop
  endfacet
  facet normal -1 -0 0
    outer loop
      vertex 194 -1.84062 -21.1489
      vertex 194 -1.68614 -19.5671
      vertex 194 -1.28843 -19.7542
    endloop
  endfacet
  facet normal 0 -0.30897 -0.951072
    outer loop
      vertex 194 -1.84062 -21.1489
      vertex 694 -1.24345 -21.3429
      vertex 694 -1.84062 -21.1489
    endloop
  endfacet
  facet normal 0 0.535805 -0.844342
    outer loop
      vertex 194 -2.05725 -13.6684
      vertex 194 -1.68614 -13.4329
      vertex 694 -1.68614 -13.4329
    endloop
  endfacet
  facet normal 0 0.535805 -0.844342
    outer loop
      vertex 194 -2.05725 -13.6684
      vertex 694 -1.68614 -13.4329
      vertex 694 -2.05725 -13.6684
    endloop
  endfacet
  facet normal 0 0.535805 0.844342
    outer loop
      vertex 194 -2.05725 -19.3316
      vertex 694 -2.05725 -19.3316
      vertex 194 -1.68614 -19.5671
    endloop
  endfacet
  facet normal -0 0.637473 0.770473
    outer loop
      vertex 194 -2.05725 -19.3316
      vertex 694 -2.39591 -19.0514
      vertex 694 -2.05725 -19.3316
    endloop
  endfacet
  facet normal 0 0.637473 -0.770473
    outer loop
      vertex 194 -2.39591 -13.9486
      vertex 194 -2.05725 -13.6684
      vertex 694 -2.05725 -13.6684
    endloop
  endfacet
  facet normal 0 0.637473 -0.770473
    outer loop
      vertex 194 -2.39591 -13.9486
      vertex 694 -2.05725 -13.6684
      vertex 694 -2.39591 -13.9486
    endloop
  endfacet
  facet normal 0 0.728952 -0.684564
    outer loop
      vertex 194 -2.39591 -13.9486
      vertex 694 -2.39591 -13.9486
      vertex 694 -2.6968 -14.269
    endloop
  endfacet
  facet normal 0 0.637473 0.770473
    outer loop
      vertex 194 -2.39591 -19.0514
      vertex 694 -2.39591 -19.0514
      vertex 194 -2.05725 -19.3316
    endloop
  endfacet
  facet normal -1 0 0
    outer loop
      vertex 194 -2.40877 -12.1185
      vertex 194 -1.68614 -13.4329
      vertex 194 -2.05725 -13.6684
    endloop
  endfacet
  facet normal -1 0 0
    outer loop
      vertex 194 -2.40877 -12.1185
      vertex 194 -1.84062 -11.8511
      vertex 194 -1.68614 -13.4329
    endloop
  endfacet
  facet normal 0 -0.425843 0.904797
    outer loop
      vertex 194 -2.40877 -12.1185
      vertex 694 -2.40877 -12.1185
      vertex 194 -1.84062 -11.8511
    endloop
  endfacet
  facet normal 0 -0.53577 0.844364
    outer loop
      vertex 194 -2.40877 -12.1185
      vertex 694 -2.93893 -12.4549
      vertex 694 -2.40877 -12.1185
    endloop
  endfacet
  facet normal -1 0 0
    outer loop
      vertex 194 -2.40877 -20.8815
      vertex 194 -1.68614 -19.5671
      vertex 194 -1.84062 -21.1489
    endloop
  endfacet
  facet normal -0 -0.425843 -0.904797
    outer loop
      vertex 194 -2.40877 -20.8815
      vertex 194 -1.84062 -21.1489
      vertex 694 -1.84062 -21.1489
    endloop
  endfacet
  facet normal -1 -0 0
    outer loop
      vertex 194 -2.40877 -20.8815
      vertex 194 -2.05725 -19.3316
      vertex 194 -1.68614 -19.5671
    endloop
  endfacet
  facet normal 0 -0.425843 -0.904797
    outer loop
      vertex 194 -2.40877 -20.8815
      vertex 694 -1.84062 -21.1489
      vertex 694 -2.40877 -20.8815
    endloop
  endfacet
  facet normal 0 0.728952 -0.684564
    outer loop
      vertex 194 -2.6968 -14.269
      vertex 194 -2.39591 -13.9486
      vertex 694 -2.6968 -14.269
    endloop
  endfacet
  facet normal 0 0.809026 -0.587773
    outer loop
      vertex 194 -2.6968 -14.269
      vertex 694 -2.6968 -14.269
      vertex 694 -2.95515 -14.6246
    endloop
  endfacet
  facet normal 0 0.728952 0.684564
    outer loop
      vertex 194 -2.6968 -18.731
      vertex 694 -2.39591 -19.0514
      vertex 194 -2.39591 -19.0514
    endloop
  endfacet
  facet normal 0 0.728952 0.684564
    outer loop
      vertex 194 -2.6968 -18.731
      vertex 694 -2.6968 -18.731
      vertex 694 -2.39591 -19.0514
    endloop
  endfacet
  facet normal -1 0 0
    outer loop
      vertex 194 -2.93893 -12.4549
      vertex 194 -2.05725 -13.6684
      vertex 194 -2.39591 -13.9486
    endloop
  endfacet
  facet normal -1 0 0
    outer loop
      vertex 194 -2.93893 -12.4549
      vertex 194 -2.40877 -12.1185
      vertex 194 -2.05725 -13.6684
    endloop
  endfacet
  facet normal 0 -0.53577 0.844364
    outer loop
      vertex 194 -2.93893 -12.4549
      vertex 694 -2.93893 -12.4549
      vertex 194 -2.40877 -12.1185
    endloop
  endfacet
  facet normal 0 -0.637478 0.770468
    outer loop
      vertex 194 -2.93893 -12.4549
      vertex 694 -3.42274 -12.8552
      vertex 694 -2.93893 -12.4549
    endloop
  endfacet
  facet normal -1 0 0
    outer loop
      vertex 194 -2.93893 -20.5451
      vertex 194 -2.05725 -19.3316
      vertex 194 -2.40877 -20.8815
    endloop
  endfacet
  facet normal -1 -0 0
    outer loop
      vertex 194 -2.93893 -20.5451
      vertex 194 -2.39591 -19.0514
      vertex 194 -2.05725 -19.3316
    endloop
  endfacet
  facet normal -0 -0.53577 -0.844364
    outer loop
      vertex 194 -2.93893 -20.5451
      vertex 194 -2.40877 -20.8815
      vertex 694 -2.40877 -20.8815
    endloop
  endfacet
  facet normal 0 -0.53577 -0.844364
    outer loop
      vertex 194 -2.93893 -20.5451
      vertex 694 -2.40877 -20.8815
      vertex 694 -2.93893 -20.5451
    endloop
  endfacet
  facet normal 0 0.809026 -0.587773
    outer loop
      vertex 194 -2.95515 -14.6246
      vertex 194 -2.6968 -14.269
      vertex 694 -2.95515 -14.6246
    endloop
  endfacet
  facet normal 0 0.876331 -0.481709
    outer loop
      vertex 194 -2.95515 -14.6246
      vertex 694 -2.95515 -14.6246
      vertex 694 -3.16689 -15.0098
    endloop
  endfacet
  facet normal 0 0.809026 0.587773
    outer loop
      vertex 194 -2.95515 -18.3754
      vertex 694 -2.6968 -18.731
      vertex 194 -2.6968 -18.731
    endloop
  endfacet
  facet normal 0 0.809026 0.587773
    outer loop
      vertex 194 -2.95515 -18.3754
      vertex 694 -2.95515 -18.3754
      vertex 694 -2.6968 -18.731
    endloop
  endfacet
  facet normal 0 0.876331 -0.481709
    outer loop
      vertex 194 -3.16689 -15.0098
      vertex 194 -2.95515 -14.6246
      vertex 694 -3.16689 -15.0098
    endloop
  endfacet
  facet normal 0 0.92975 -0.368191
    outer loop
      vertex 194 -3.16689 -15.0098
      vertex 694 -3.16689 -15.0098
      vertex 694 -3.3287 -15.4184
    endloop
  endfacet
  facet normal 0 0.876331 0.481709
    outer loop
      vertex 194 -3.16689 -17.9902
      vertex 694 -2.95515 -18.3754
      vertex 194 -2.95515 -18.3754
    endloop
  endfacet
  facet normal 0 0.876331 0.481709
    outer loop
      vertex 194 -3.16689 -17.9902
      vertex 694 -3.16689 -17.9902
      vertex 694 -2.95515 -18.3754
    endloop
  endfacet
  facet normal 0 0.92975 -0.368191
    outer loop
      vertex 194 -3.3287 -15.4184
      vertex 194 -3.16689 -15.0098
      vertex 694 -3.3287 -15.4184
    endloop
  endfacet
  facet normal 0 0.968598 -0.248633
    outer loop
      vertex 194 -3.3287 -15.4184
      vertex 694 -3.3287 -15.4184
      vertex 694 -3.438 -15.8442
    endloop
  endfacet
  facet normal 0 0.92975 0.368191
    outer loop
      vertex 194 -3.3287 -17.5816
      vertex 694 -3.16689 -17.9902
      vertex 194 -3.16689 -17.9902
    endloop
  endfacet
  facet normal 0 0.92975 0.368191
    outer loop
      vertex 194 -3.3287 -17.5816
      vertex 694 -3.3287 -17.5816
      vertex 694 -3.16689 -17.9902
    endloop
  endfacet
  facet normal -1 0 0
    outer loop
      vertex 194 -3.42274 -12.8552
      vertex 194 -2.39591 -13.9486
      vertex 194 -2.6968 -14.269
    endloop
  endfacet
  facet normal -1 0 0
    outer loop
      vertex 194 -3.42274 -12.8552
      vertex 194 -2.93893 -12.4549
      vertex 194 -2.39591 -13.9486
    endloop
  endfacet
  facet normal 0 -0.637478 0.770468
    outer loop
      vertex 194 -3.42274 -12.8552
      vertex 694 -3.42274 -12.8552
      vertex 194 -2.93893 -12.4549
    endloop
  endfacet
  facet normal -1 0 0
    outer loop
      vertex 194 -3.42274 -20.1448
      vertex 194 -2.39591 -19.0514
      vertex 194 -2.93893 -20.5451
    endloop
  endfacet
  facet normal -1 -0 0
    outer loop
      vertex 194 -3.42274 -20.1448
      vertex 194 -2.6968 -18.731
      vertex 194 -2.39591 -19.0514
    endloop
  endfacet
  facet normal -0 -0.637478 -0.770468
    outer loop
      vertex 194 -3.42274 -20.1448
      vertex 194 -2.93893 -20.5451
      vertex 694 -2.93893 -20.5451
    endloop
  endfacet
  facet normal 0 -0.637478 -0.770468
    outer loop
      vertex 194 -3.42274 -20.1448
      vertex 694 -2.93893 -20.5451
      vertex 694 -3.42274 -20.1448
    endloop
  endfacet
  facet normal 0 -0.728952 -0.684565
    outer loop
      vertex 194 -3.42274 -20.1448
      vertex 694 -3.42274 -20.1448
      vertex 694 -3.85257 -19.6871
    endloop
  endfacet
  facet normal 0 0.968598 -0.248633
    outer loop
      vertex 194 -3.438 -15.8442
      vertex 194 -3.3287 -15.4184
      vertex 694 -3.438 -15.8442
    endloop
  endfacet
  facet normal 0 0.992112 -0.125357
    outer loop
      vertex 194 -3.438 -15.8442
      vertex 694 -3.438 -15.8442
      vertex 694 -3.49309 -16.2802
    endloop
  endfacet
  facet normal 0 0.968598 0.248633
    outer loop
      vertex 194 -3.438 -17.1558
      vertex 694 -3.3287 -17.5816
      vertex 194 -3.3287 -17.5816
    endloop
  endfacet
  facet normal 0 0.968598 0.248633
    outer loop
      vertex 194 -3.438 -17.1558
      vertex 694 -3.438 -17.1558
      vertex 694 -3.3287 -17.5816
    endloop
  endfacet
  facet normal 0 0.992112 -0.125357
    outer loop
      vertex 194 -3.49309 -16.2802
      vertex 194 -3.438 -15.8442
      vertex 694 -3.49309 -16.2802
    endloop
  endfacet
  facet normal 0 1 -0
    outer loop
      vertex 194 -3.49309 -16.2802
      vertex 694 -3.49309 -16.2802
      vertex 694 -3.49309 -16.7198
    endloop
  endfacet
  facet normal 0 1 0
    outer loop
      vertex 194 -3.49309 -16.7198
      vertex 194 -3.49309 -16.2802
      vertex 694 -3.49309 -16.7198
    endloop
  endfacet
  facet normal 0 0.992112 0.125357
    outer loop
      vertex 194 -3.49309 -16.7198
      vertex 694 -3.438 -17.1558
      vertex 194 -3.438 -17.1558
    endloop
  endfacet
  facet normal 0 0.992112 0.125357
    outer loop
      vertex 194 -3.49309 -16.7198
      vertex 694 -3.49309 -16.7198
      vertex 694 -3.438 -17.1558
    endloop
  endfacet
  facet normal -1 0 0
    outer loop
      vertex 194 -3.85257 -13.3129
      vertex 194 -2.6968 -14.269
      vertex 194 -2.95515 -14.6246
    endloop
  endfacet
  facet normal -1 0 0
    outer loop
      vertex 194 -3.85257 -13.3129
      vertex 194 -3.42274 -12.8552
      vertex 194 -2.6968 -14.269
    endloop
  endfacet
  facet normal 0 -0.728952 0.684565
    outer loop
      vertex 194 -3.85257 -13.3129
      vertex 694 -3.42274 -12.8552
      vertex 194 -3.42274 -12.8552
    endloop
  endfacet
  facet normal 0 -0.728952 0.684565
    outer loop
      vertex 194 -3.85257 -13.3129
      vertex 694 -3.85257 -13.3129
      vertex 694 -3.42274 -12.8552
    endloop
  endfacet
  facet normal -1 0 0
    outer loop
      vertex 194 -3.85257 -19.6871
      vertex 194 -2.6968 -18.731
      vertex 194 -3.42274 -20.1448
    endloop
  endfacet
  facet normal -1 -0 0
    outer loop
      vertex 194 -3.85257 -19.6871
      vertex 194 -2.95515 -18.3754
      vertex 194 -2.6968 -18.731
    endloop
  endfacet
  facet normal 0 -0.728952 -0.684565
    outer loop
      vertex 194 -3.85257 -19.6871
      vertex 194 -3.42274 -20.1448
      vertex 694 -3.85257 -19.6871
    endloop
  endfacet
  facet normal 0 -0.809027 -0.587771
    outer loop
      vertex 194 -3.85257 -19.6871
      vertex 694 -3.85257 -19.6871
      vertex 694 -4.22164 -19.1791
    endloop
  endfacet
  facet normal -1 0 0
    outer loop
      vertex 194 -4.22164 -13.8209
      vertex 194 -2.95515 -14.6246
      vertex 194 -3.16689 -15.0098
    endloop
  endfacet
  facet normal -1 0 0
    outer loop
      vertex 194 -4.22164 -13.8209
      vertex 194 -3.85257 -13.3129
      vertex 194 -2.95515 -14.6246
    endloop
  endfacet
  facet normal 0 -0.809027 0.587771
    outer loop
      vertex 194 -4.22164 -13.8209
      vertex 694 -3.85257 -13.3129
      vertex 194 -3.85257 -13.3129
    endloop
  endfacet
  facet normal 0 -0.809027 0.587771
    outer loop
      vertex 194 -4.22164 -13.8209
      vertex 694 -4.22164 -13.8209
      vertex 694 -3.85257 -13.3129
    endloop
  endfacet
  facet normal -1 0 0
    outer loop
      vertex 194 -4.22164 -19.1791
      vertex 194 -2.95515 -18.3754
      vertex 194 -3.85257 -19.6871
    endloop
  endfacet
  facet normal -1 -0 0
    outer loop
      vertex 194 -4.22164 -19.1791
      vertex 194 -3.16689 -17.9902
      vertex 194 -2.95515 -18.3754
    endloop
  endfacet
  facet normal 0 -0.809027 -0.587771
    outer loop
      vertex 194 -4.22164 -19.1791
      vertex 194 -3.85257 -19.6871
      vertex 694 -4.22164 -19.1791
    endloop
  endfacet
  facet normal 0 -0.876297 -0.481772
    outer loop
      vertex 194 -4.22164 -19.1791
      vertex 694 -4.22164 -19.1791
      vertex 694 -4.52413 -18.6289
    endloop
  endfacet
  facet normal -1 0 0
    outer loop
      vertex 194 -4.52413 -14.3711
      vertex 194 -3.16689 -15.0098
      vertex 194 -3.3287 -15.4184
    endloop
  endfacet
  facet normal -1 0 0
    outer loop
      vertex 194 -4.52413 -14.3711
      vertex 194 -4.22164 -13.8209
      vertex 194 -3.16689 -15.0098
    endloop
  endfacet
  facet normal 0 -0.876297 0.481772
    outer loop
      vertex 194 -4.52413 -14.3711
      vertex 694 -4.22164 -13.8209
      vertex 194 -4.22164 -13.8209
    endloop
  endfacet
  facet normal 0 -0.876297 0.481772
    outer loop
      vertex 194 -4.52413 -14.3711
      vertex 694 -4.52413 -14.3711
      vertex 694 -4.22164 -13.8209
    endloop
  endfacet
  facet normal -1 0 0
    outer loop
      vertex 194 -4.52413 -18.6289
      vertex 194 -3.16689 -17.9902
      vertex 194 -4.22164 -19.1791
    endloop
  endfacet
  facet normal -1 -0 0
    outer loop
      vertex 194 -4.52413 -18.6289
      vertex 194 -3.3287 -17.5816
      vertex 194 -3.16689 -17.9902
    endloop
  endfacet
  facet normal 0 -0.876297 -0.481772
    outer loop
      vertex 194 -4.52413 -18.6289
      vertex 194 -4.22164 -19.1791
      vertex 694 -4.52413 -18.6289
    endloop
  endfacet
  facet normal 0 -0.929773 -0.368135
    outer loop
      vertex 194 -4.52413 -18.6289
      vertex 694 -4.52413 -18.6289
      vertex 694 -4.75528 -18.0451
    endloop
  endfacet
  facet normal -1 0 0
    outer loop
      vertex 194 -4.75528 -14.9549
      vertex 194 -3.3287 -15.4184
      vertex 194 -3.438 -15.8442
    endloop
  endfacet
  facet normal -1 0 0
    outer loop
      vertex 194 -4.75528 -14.9549
      vertex 194 -4.52413 -14.3711
      vertex 194 -3.3287 -15.4184
    endloop
  endfacet
  facet normal 0 -0.929773 0.368135
    outer loop
      vertex 194 -4.75528 -14.9549
      vertex 694 -4.52413 -14.3711
      vertex 194 -4.52413 -14.3711
    endloop
  endfacet
  facet normal 0 -0.929773 0.368135
    outer loop
      vertex 194 -4.75528 -14.9549
      vertex 694 -4.75528 -14.9549
      vertex 694 -4.52413 -14.3711
    endloop
  endfacet
  facet normal -1 0 0
    outer loop
      vertex 194 -4.75528 -18.0451
      vertex 194 -3.3287 -17.5816
      vertex 194 -4.52413 -18.6289
    endloop
  endfacet
  facet normal -1 -0 0
    outer loop
      vertex 194 -4.75528 -18.0451
      vertex 194 -3.438 -17.1558
      vertex 194 -3.3287 -17.5816
    endloop
  endfacet
  facet normal 0 -0.929773 -0.368135
    outer loop
      vertex 194 -4.75528 -18.0451
      vertex 194 -4.52413 -18.6289
      vertex 694 -4.75528 -18.0451
    endloop
  endfacet
  facet normal 0 -0.968583 -0.248691
    outer loop
      vertex 194 -4.75528 -18.0451
      vertex 694 -4.75528 -18.0451
      vertex 694 -4.91144 -17.4369
    endloop
  endfacet
  facet normal -1 0 0
    outer loop
      vertex 194 -4.91144 -15.5631
      vertex 194 -3.438 -15.8442
      vertex 194 -3.49309 -16.2802
    endloop
  endfacet
  facet normal -1 0 0
    outer loop
      vertex 194 -4.91144 -15.5631
      vertex 194 -4.75528 -14.9549
      vertex 194 -3.438 -15.8442
    endloop
  endfacet
  facet normal 0 -0.968583 0.248691
    outer loop
      vertex 194 -4.91144 -15.5631
      vertex 694 -4.75528 -14.9549
      vertex 194 -4.75528 -14.9549
    endloop
  endfacet
  facet normal 0 -0.968583 0.248691
    outer loop
      vertex 194 -4.91144 -15.5631
      vertex 694 -4.91144 -15.5631
      vertex 694 -4.75528 -14.9549
    endloop
  endfacet
  facet normal -1 0 0
    outer loop
      vertex 194 -4.91144 -17.4369
      vertex 194 -3.438 -17.1558
      vertex 194 -4.75528 -18.0451
    endloop
  endfacet
  facet normal -1 -0 0
    outer loop
      vertex 194 -4.91144 -17.4369
      vertex 194 -3.49309 -16.7198
      vertex 194 -3.438 -17.1558
    endloop
  endfacet
  facet normal 0 -0.968583 -0.248691
    outer loop
      vertex 194 -4.91144 -17.4369
      vertex 194 -4.75528 -18.0451
      vertex 694 -4.91144 -17.4369
    endloop
  endfacet
  facet normal 0 -0.992115 -0.125332
    outer loop
      vertex 194 -4.91144 -17.4369
      vertex 694 -4.91144 -17.4369
      vertex 694 -4.99013 -16.814
    endloop
  endfacet
  facet normal -1 0 0
    outer loop
      vertex 194 -4.99013 -16.186
      vertex 194 -4.91144 -15.5631
      vertex 194 -3.49309 -16.2802
    endloop
  endfacet
  facet normal 0 -0.992115 0.125332
    outer loop
      vertex 194 -4.99013 -16.186
      vertex 694 -4.91144 -15.5631
      vertex 194 -4.91144 -15.5631
    endloop
  endfacet
  facet normal 0 -0.992115 0.125332
    outer loop
      vertex 194 -4.99013 -16.186
      vertex 694 -4.99013 -16.186
      vertex 694 -4.91144 -15.5631
    endloop
  endfacet
  facet normal -1 -0 0
    outer loop
      vertex 194 -4.99013 -16.814
      vertex 194 -3.49309 -16.2802
      vertex 194 -3.49309 -16.7198
    endloop
  endfacet
  facet normal -1 0 0
    outer loop
      vertex 194 -4.99013 -16.814
      vertex 194 -3.49309 -16.7198
      vertex 194 -4.91144 -17.4369
    endloop
  endfacet
  facet normal 0 -0.992115 -0.125332
    outer loop
      vertex 194 -4.99013 -16.814
      vertex 194 -4.91144 -17.4369
      vertex 694 -4.99013 -16.814
    endloop
  endfacet
  facet normal -1 0 0
    outer loop
      vertex 194 -4.99013 -16.814
      vertex 194 -4.99013 -16.186
      vertex 194 -3.49309 -16.2802
    endloop
  endfacet
  facet normal 0 -1 0
    outer loop
      vertex 194 -4.99013 -16.814
      vertex 694 -4.99013 -16.186
      vertex 194 -4.99013 -16.186
    endloop
  endfacet
  facet normal 0 -1 -0
    outer loop
      vertex 194 -4.99013 -16.814
      vertex 694 -4.99013 -16.814
      vertex 694 -4.99013 -16.186
    endloop
  endfacet
  facet normal 0 -0.0627485 0.998029
    outer loop
      vertex 194 0 -11.5
      vertex 694 -0.626666 -11.5394
      vertex 694 0 -11.5
    endloop
  endfacet
  facet normal 0 0.0627485 0.998029
    outer loop
      vertex 194 0 -11.5
      vertex 694 0 -11.5
      vertex 194 0.626666 -11.5394
    endloop
  endfacet
  facet normal -1 0 0
    outer loop
      vertex 194 0 -13
      vertex 194 0 -11.5
      vertex 194 0.626666 -11.5394
    endloop
  endfacet
  facet normal -0 -0.062794 -0.998027
    outer loop
      vertex 194 0 -13
      vertex 194 0.438665 -13.0276
      vertex 694 0.438665 -13.0276
    endloop
  endfacet
  facet normal -1 0 0
    outer loop
      vertex 194 0 -13
      vertex 194 0.626666 -11.5394
      vertex 194 0.438665 -13.0276
    endloop
  endfacet
  facet normal 0 -0.062794 -0.998027
    outer loop
      vertex 194 0 -13
      vertex 694 0.438665 -13.0276
      vertex 694 0 -13
    endloop
  endfacet
  facet normal -0 0.062794 0.998027
    outer loop
      vertex 194 0 -20
      vertex 694 -0.438665 -19.9724
      vertex 694 0 -20
    endloop
  endfacet
  facet normal 0 -0.062794 0.998027
    outer loop
      vertex 194 0 -20
      vertex 694 0 -20
      vertex 194 0.438665 -19.9724
    endloop
  endfacet
  facet normal -1 0 0
    outer loop
      vertex 194 0 -21.5
      vertex 194 0 -20
      vertex 194 0.438665 -19.9724
    endloop
  endfacet
  facet normal -1 0 0
    outer loop
      vertex 194 0 -21.5
      vertex 194 0.438665 -19.9724
      vertex 194 0.626666 -21.4606
    endloop
  endfacet
  facet normal 0 0.0627485 -0.998029
    outer loop
      vertex 194 0 -21.5
      vertex 194 0.626666 -21.4606
      vertex 694 0.626666 -21.4606
    endloop
  endfacet
  facet normal 0 0.0627485 -0.998029
    outer loop
      vertex 194 0 -21.5
      vertex 694 0.626666 -21.4606
      vertex 694 0 -21.5
    endloop
  endfacet
  facet normal -1 0 0
    outer loop
      vertex 194 0.438665 -13.0276
      vertex 194 0.626666 -11.5394
      vertex 194 0.870414 -13.11
    endloop
  endfacet
  facet normal -0 -0.187468 -0.982271
    outer loop
      vertex 194 0.438665 -13.0276
      vertex 194 0.870414 -13.11
      vertex 694 0.870414 -13.11
    endloop
  endfacet
  facet normal 0 -0.187468 -0.982271
    outer loop
      vertex 194 0.438665 -13.0276
      vertex 694 0.870414 -13.11
      vertex 694 0.438665 -13.0276
    endloop
  endfacet
  facet normal -1 0 0
    outer loop
      vertex 194 0.438665 -19.9724
      vertex 194 0.870414 -19.89
      vertex 194 0.626666 -21.4606
    endloop
  endfacet
  facet normal 0 -0.062794 0.998027
    outer loop
      vertex 194 0.438665 -19.9724
      vertex 694 0 -20
      vertex 694 0.438665 -19.9724
    endloop
  endfacet
  facet normal 0 -0.187468 0.982271
    outer loop
      vertex 194 0.438665 -19.9724
      vertex 694 0.438665 -19.9724
      vertex 194 0.870414 -19.89
    endloop
  endfacet
  facet normal -1 0 0
    outer loop
      vertex 194 0.626666 -11.5394
      vertex 194 1.24345 -11.6571
      vertex 194 0.870414 -13.11
    endloop
  endfacet
  facet normal -0 0.0627485 0.998029
    outer loop
      vertex 194 0.626666 -11.5394
      vertex 694 0 -11.5
      vertex 694 0.626666 -11.5394
    endloop
  endfacet
  facet normal 0 0.187446 0.982275
    outer loop
      vertex 194 0.626666 -11.5394
      vertex 694 0.626666 -11.5394
      vertex 194 1.24345 -11.6571
    endloop
  endfacet
  facet normal -1 0 0
    outer loop
      vertex 194 0.626666 -21.4606
      vertex 194 0.870414 -19.89
      vertex 194 1.24345 -21.3429
    endloop
  endfacet
  facet normal 0 0.187446 -0.982275
    outer loop
      vertex 194 0.626666 -21.4606
      vertex 194 1.24345 -21.3429
      vertex 694 1.24345 -21.3429
    endloop
  endfacet
  facet normal 0 0.187446 -0.982275
    outer loop
      vertex 194 0.626666 -21.4606
      vertex 694 1.24345 -21.3429
      vertex 694 0.626666 -21.4606
    endloop
  endfacet
  facet normal -1 0 0
    outer loop
      vertex 194 0.870414 -13.11
      vertex 194 1.24345 -11.6571
      vertex 194 1.28843 -13.2458
    endloop
  endfacet
  facet normal -0 -0.308972 -0.951071
    outer loop
      vertex 194 0.870414 -13.11
      vertex 194 1.28843 -13.2458
      vertex 694 1.28843 -13.2458
    endloop
  endfacet
  facet normal 0 -0.308972 -0.951071
    outer loop
      vertex 194 0.870414 -13.11
      vertex 694 1.28843 -13.2458
      vertex 694 0.870414 -13.11
    endloop
  endfacet
  facet normal -1 0 0
    outer loop
      vertex 194 0.870414 -19.89
      vertex 194 1.28843 -19.7542
      vertex 194 1.24345 -21.3429
    endloop
  endfacet
  facet normal 0 -0.187468 0.982271
    outer loop
      vertex 194 0.870414 -19.89
      vertex 694 0.438665 -19.9724
      vertex 694 0.870414 -19.89
    endloop
  endfacet
  facet normal 0 -0.308972 0.951071
    outer loop
      vertex 194 0.870414 -19.89
      vertex 694 0.870414 -19.89
      vertex 194 1.28843 -19.7542
    endloop
  endfacet
  facet normal -1 0 0
    outer loop
      vertex 194 1.24345 -11.6571
      vertex 194 1.84062 -11.8511
      vertex 194 1.28843 -13.2458
    endloop
  endfacet
  facet normal -0 0.187446 0.982275
    outer loop
      vertex 194 1.24345 -11.6571
      vertex 694 0.626666 -11.5394
      vertex 694 1.24345 -11.6571
    endloop
  endfacet
  facet normal 0 0.30897 0.951072
    outer loop
      vertex 194 1.24345 -11.6571
      vertex 694 1.24345 -11.6571
      vertex 194 1.84062 -11.8511
    endloop
  endfacet
  facet normal -1 0 0
    outer loop
      vertex 194 1.24345 -21.3429
      vertex 194 1.28843 -19.7542
      vertex 194 1.84062 -21.1489
    endloop
  endfacet
  facet normal 0 0.30897 -0.951072
    outer loop
      vertex 194 1.24345 -21.3429
      vertex 194 1.84062 -21.1489
      vertex 694 1.84062 -21.1489
    endloop
  endfacet
  facet normal 0 0.30897 -0.951072
    outer loop
      vertex 194 1.24345 -21.3429
      vertex 694 1.84062 -21.1489
      vertex 694 1.24345 -21.3429
    endloop
  endfacet
  facet normal -0 -0.42569 -0.904869
    outer loop
      vertex 194 1.28843 -13.2458
      vertex 194 1.68614 -13.4329
      vertex 694 1.68614 -13.4329
    endloop
  endfacet
  facet normal -1 0 0
    outer loop
      vertex 194 1.28843 -13.2458
      vertex 194 1.84062 -11.8511
      vertex 194 1.68614 -13.4329
    endloop
  endfacet
  facet normal 0 -0.42569 -0.904869
    outer loop
      vertex 194 1.28843 -13.2458
      vertex 694 1.68614 -13.4329
      vertex 694 1.28843 -13.2458
    endloop
  endfacet
  facet normal -1 0 0
    outer loop
      vertex 194 1.28843 -19.7542
      vertex 194 1.68614 -19.5671
      vertex 194 1.84062 -21.1489
    endloop
  endfacet
  facet normal 0 -0.308972 0.951071
    outer loop
      vertex 194 1.28843 -19.7542
      vertex 694 0.870414 -19.89
      vertex 694 1.28843 -19.7542
    endloop
  endfacet
  facet normal 0 -0.42569 0.904869
    outer loop
      vertex 194 1.28843 -19.7542
      vertex 694 1.28843 -19.7542
      vertex 194 1.68614 -19.5671
    endloop
  endfacet
  facet normal -1 -0 0
    outer loop
      vertex 194 1.68614 -13.4329
      vertex 194 1.84062 -11.8511
      vertex 194 2.40877 -12.1185
    endloop
  endfacet
  facet normal -0 -0.535805 -0.844342
    outer loop
      vertex 194 1.68614 -13.4329
      vertex 194 2.05725 -13.6684
      vertex 694 2.05725 -13.6684
    endloop
  endfacet
  facet normal -1 0 0
    outer loop
      vertex 194 1.68614 -13.4329
      vertex 194 2.40877 -12.1185
      vertex 194 2.05725 -13.6684
    endloop
  endfacet
  facet normal 0 -0.535805 -0.844342
    outer loop
      vertex 194 1.68614 -13.4329
      vertex 694 2.05725 -13.6684
      vertex 694 1.68614 -13.4329
    endloop
  endfacet
  facet normal -1 0 0
    outer loop
      vertex 194 1.68614 -19.5671
      vertex 194 2.05725 -19.3316
      vertex 194 2.40877 -20.8815
    endloop
  endfacet
  facet normal -1 0 0
    outer loop
      vertex 194 1.68614 -19.5671
      vertex 194 2.40877 -20.8815
      vertex 194 1.84062 -21.1489
    endloop
  endfacet
  facet normal 0 -0.42569 0.904869
    outer loop
      vertex 194 1.68614 -19.5671
      vertex 694 1.28843 -19.7542
      vertex 694 1.68614 -19.5671
    endloop
  endfacet
  facet normal 0 -0.535805 0.844342
    outer loop
      vertex 194 1.68614 -19.5671
      vertex 694 1.68614 -19.5671
      vertex 194 2.05725 -19.3316
    endloop
  endfacet
  facet normal -0 0.30897 0.951072
    outer loop
      vertex 194 1.84062 -11.8511
      vertex 694 1.24345 -11.6571
      vertex 694 1.84062 -11.8511
    endloop
  endfacet
  facet normal 0 0.425843 0.904797
    outer loop
      vertex 194 1.84062 -11.8511
      vertex 694 1.84062 -11.8511
      vertex 194 2.40877 -12.1185
    endloop
  endfacet
  facet normal 0 0.425843 -0.904797
    outer loop
      vertex 194 1.84062 -21.1489
      vertex 194 2.40877 -20.8815
      vertex 694 2.40877 -20.8815
    endloop
  endfacet
  facet normal 0 0.425843 -0.904797
    outer loop
      vertex 194 1.84062 -21.1489
      vertex 694 2.40877 -20.8815
      vertex 694 1.84062 -21.1489
    endloop
  endfacet
  facet normal -0 -0.637473 -0.770473
    outer loop
      vertex 194 2.05725 -13.6684
      vertex 194 2.39591 -13.9486
      vertex 694 2.39591 -13.9486
    endloop
  endfacet
  facet normal -1 -0 0
    outer loop
      vertex 194 2.05725 -13.6684
      vertex 194 2.40877 -12.1185
      vertex 194 2.93893 -12.4549
    endloop
  endfacet
  facet normal -1 0 0
    outer loop
      vertex 194 2.05725 -13.6684
      vertex 194 2.93893 -12.4549
      vertex 194 2.39591 -13.9486
    endloop
  endfacet
  facet normal 0 -0.637473 -0.770473
    outer loop
      vertex 194 2.05725 -13.6684
      vertex 694 2.39591 -13.9486
      vertex 694 2.05725 -13.6684
    endloop
  endfacet
  facet normal -1 0 0
    outer loop
      vertex 194 2.05725 -19.3316
      vertex 194 2.39591 -19.0514
      vertex 194 2.93893 -20.5451
    endloop
  endfacet
  facet normal -1 0 0
    outer loop
      vertex 194 2.05725 -19.3316
      vertex 194 2.93893 -20.5451
      vertex 194 2.40877 -20.8815
    endloop
  endfacet
  facet normal 0 -0.535805 0.844342
    outer loop
      vertex 194 2.05725 -19.3316
      vertex 694 1.68614 -19.5671
      vertex 694 2.05725 -19.3316
    endloop
  endfacet
  facet normal 0 -0.637473 0.770473
    outer loop
      vertex 194 2.05725 -19.3316
      vertex 694 2.05725 -19.3316
      vertex 194 2.39591 -19.0514
    endloop
  endfacet
  facet normal 0 -0.728952 -0.684564
    outer loop
      vertex 194 2.39591 -13.9486
      vertex 194 2.6968 -14.269
      vertex 694 2.39591 -13.9486
    endloop
  endfacet
  facet normal -1 -0 0
    outer loop
      vertex 194 2.39591 -13.9486
      vertex 194 2.93893 -12.4549
      vertex 194 3.42274 -12.8552
    endloop
  endfacet
  facet normal -1 0 0
    outer loop
      vertex 194 2.39591 -13.9486
      vertex 194 3.42274 -12.8552
      vertex 194 2.6968 -14.269
    endloop
  endfacet
  facet normal -1 0 0
    outer loop
      vertex 194 2.39591 -19.0514
      vertex 194 2.6968 -18.731
      vertex 194 3.42274 -20.1448
    endloop
  endfacet
  facet normal -1 0 0
    outer loop
      vertex 194 2.39591 -19.0514
      vertex 194 3.42274 -20.1448
      vertex 194 2.93893 -20.5451
    endloop
  endfacet
  facet normal 0 -0.637473 0.770473
    outer loop
      vertex 194 2.39591 -19.0514
      vertex 694 2.05725 -19.3316
      vertex 694 2.39591 -19.0514
    endloop
  endfacet
  facet normal 0 -0.728952 0.684564
    outer loop
      vertex 194 2.39591 -19.0514
      vertex 694 2.39591 -19.0514
      vertex 694 2.6968 -18.731
    endloop
  endfacet
  facet normal 0 -0.728952 0.684564
    outer loop
      vertex 194 2.39591 -19.0514
      vertex 694 2.6968 -18.731
      vertex 194 2.6968 -18.731
    endloop
  endfacet
  facet normal -0 0.425843 0.904797
    outer loop
      vertex 194 2.40877 -12.1185
      vertex 694 1.84062 -11.8511
      vertex 694 2.40877 -12.1185
    endloop
  endfacet
  facet normal 0 0.53577 0.844364
    outer loop
      vertex 194 2.40877 -12.1185
      vertex 694 2.40877 -12.1185
      vertex 194 2.93893 -12.4549
    endloop
  endfacet
  facet normal 0 0.53577 -0.844364
    outer loop
      vertex 194 2.40877 -20.8815
      vertex 194 2.93893 -20.5451
      vertex 694 2.93893 -20.5451
    endloop
  endfacet
  facet normal 0 0.53577 -0.844364
    outer loop
      vertex 194 2.40877 -20.8815
      vertex 694 2.93893 -20.5451
      vertex 694 2.40877 -20.8815
    endloop
  endfacet
  facet normal 0 -0.809026 -0.587773
    outer loop
      vertex 194 2.6968 -14.269
      vertex 194 2.95515 -14.6246
      vertex 694 2.6968 -14.269
    endloop
  endfacet
  facet normal -1 -0 0
    outer loop
      vertex 194 2.6968 -14.269
      vertex 194 3.42274 -12.8552
      vertex 194 3.85257 -13.3129
    endloop
  endfacet
  facet normal -1 0 0
    outer loop
      vertex 194 2.6968 -14.269
      vertex 194 3.85257 -13.3129
      vertex 194 2.95515 -14.6246
    endloop
  endfacet
  facet normal 0 -0.728952 -0.684564
    outer loop
      vertex 194 2.6968 -14.269
      vertex 694 2.6968 -14.269
      vertex 694 2.39591 -13.9486
    endloop
  endfacet
  facet normal -1 0 0
    outer loop
      vertex 194 2.6968 -18.731
      vertex 194 2.95515 -18.3754
      vertex 194 3.85257 -19.6871
    endloop
  endfacet
  facet normal -1 0 0
    outer loop
      vertex 194 2.6968 -18.731
      vertex 194 3.85257 -19.6871
      vertex 194 3.42274 -20.1448
    endloop
  endfacet
  facet normal 0 -0.809026 0.587773
    outer loop
      vertex 194 2.6968 -18.731
      vertex 694 2.6968 -18.731
      vertex 694 2.95515 -18.3754
    endloop
  endfacet
  facet normal 0 -0.809026 0.587773
    outer loop
      vertex 194 2.6968 -18.731
      vertex 694 2.95515 -18.3754
      vertex 194 2.95515 -18.3754
    endloop
  endfacet
  facet normal -0 0.53577 0.844364
    outer loop
      vertex 194 2.93893 -12.4549
      vertex 694 2.40877 -12.1185
      vertex 694 2.93893 -12.4549
    endloop
  endfacet
  facet normal 0 0.637478 0.770468
    outer loop
      vertex 194 2.93893 -12.4549
      vertex 694 2.93893 -12.4549
      vertex 194 3.42274 -12.8552
    endloop
  endfacet
  facet normal 0 0.637478 -0.770468
    outer loop
      vertex 194 2.93893 -20.5451
      vertex 194 3.42274 -20.1448
      vertex 694 3.42274 -20.1448
    endloop
  endfacet
  facet normal 0 0.637478 -0.770468
    outer loop
      vertex 194 2.93893 -20.5451
      vertex 694 3.42274 -20.1448
      vertex 694 2.93893 -20.5451
    endloop
  endfacet
  facet normal 0 -0.876331 -0.481709
    outer loop
      vertex 194 2.95515 -14.6246
      vertex 194 3.16689 -15.0098
      vertex 694 2.95515 -14.6246
    endloop
  endfacet
  facet normal -1 -0 0
    outer loop
      vertex 194 2.95515 -14.6246
      vertex 194 3.85257 -13.3129
      vertex 194 4.22164 -13.8209
    endloop
  endfacet
  facet normal -1 0 0
    outer loop
      vertex 194 2.95515 -14.6246
      vertex 194 4.22164 -13.8209
      vertex 194 3.16689 -15.0098
    endloop
  endfacet
  facet normal 0 -0.809026 -0.587773
    outer loop
      vertex 194 2.95515 -14.6246
      vertex 694 2.95515 -14.6246
      vertex 694 2.6968 -14.269
    endloop
  endfacet
  facet normal -1 0 0
    outer loop
      vertex 194 2.95515 -18.3754
      vertex 194 3.16689 -17.9902
      vertex 194 4.22164 -19.1791
    endloop
  endfacet
  facet normal -1 0 0
    outer loop
      vertex 194 2.95515 -18.3754
      vertex 194 4.22164 -19.1791
      vertex 194 3.85257 -19.6871
    endloop
  endfacet
  facet normal 0 -0.876331 0.481709
    outer loop
      vertex 194 2.95515 -18.3754
      vertex 694 2.95515 -18.3754
      vertex 694 3.16689 -17.9902
    endloop
  endfacet
  facet normal 0 -0.876331 0.481709
    outer loop
      vertex 194 2.95515 -18.3754
      vertex 694 3.16689 -17.9902
      vertex 194 3.16689 -17.9902
    endloop
  endfacet
  facet normal 0 -0.92975 -0.368191
    outer loop
      vertex 194 3.16689 -15.0098
      vertex 194 3.3287 -15.4184
      vertex 694 3.16689 -15.0098
    endloop
  endfacet
  facet normal -1 -0 0
    outer loop
      vertex 194 3.16689 -15.0098
      vertex 194 4.22164 -13.8209
      vertex 194 4.52413 -14.3711
    endloop
  endfacet
  facet normal -1 0 0
    outer loop
      vertex 194 3.16689 -15.0098
      vertex 194 4.52413 -14.3711
      vertex 194 3.3287 -15.4184
    endloop
  endfacet
  facet normal 0 -0.876331 -0.481709
    outer loop
      vertex 194 3.16689 -15.0098
      vertex 694 3.16689 -15.0098
      vertex 694 2.95515 -14.6246
    endloop
  endfacet
  facet normal -1 0 0
    outer loop
      vertex 194 3.16689 -17.9902
      vertex 194 3.3287 -17.5816
      vertex 194 4.52413 -18.6289
    endloop
  endfacet
  facet normal -1 0 0
    outer loop
      vertex 194 3.16689 -17.9902
      vertex 194 4.52413 -18.6289
      vertex 194 4.22164 -19.1791
    endloop
  endfacet
  facet normal 0 -0.92975 0.368191
    outer loop
      vertex 194 3.16689 -17.9902
      vertex 694 3.16689 -17.9902
      vertex 694 3.3287 -17.5816
    endloop
  endfacet
  facet normal 0 -0.92975 0.368191
    outer loop
      vertex 194 3.16689 -17.9902
      vertex 694 3.3287 -17.5816
      vertex 194 3.3287 -17.5816
    endloop
  endfacet
  facet normal 0 -0.968598 -0.248633
    outer loop
      vertex 194 3.3287 -15.4184
      vertex 194 3.438 -15.8442
      vertex 694 3.3287 -15.4184
    endloop
  endfacet
  facet normal -1 -0 0
    outer loop
      vertex 194 3.3287 -15.4184
      vertex 194 4.52413 -14.3711
      vertex 194 4.75528 -14.9549
    endloop
  endfacet
  facet normal -1 0 0
    outer loop
      vertex 194 3.3287 -15.4184
      vertex 194 4.75528 -14.9549
      vertex 194 3.438 -15.8442
    endloop
  endfacet
  facet normal 0 -0.92975 -0.368191
    outer loop
      vertex 194 3.3287 -15.4184
      vertex 694 3.3287 -15.4184
      vertex 694 3.16689 -15.0098
    endloop
  endfacet
  facet normal -1 0 0
    outer loop
      vertex 194 3.3287 -17.5816
      vertex 194 3.438 -17.1558
      vertex 194 4.75528 -18.0451
    endloop
  endfacet
  facet normal -1 0 0
    outer loop
      vertex 194 3.3287 -17.5816
      vertex 194 4.75528 -18.0451
      vertex 194 4.52413 -18.6289
    endloop
  endfacet
  facet normal 0 -0.968598 0.248633
    outer loop
      vertex 194 3.3287 -17.5816
      vertex 694 3.3287 -17.5816
      vertex 694 3.438 -17.1558
    endloop
  endfacet
  facet normal 0 -0.968598 0.248633
    outer loop
      vertex 194 3.3287 -17.5816
      vertex 694 3.438 -17.1558
      vertex 194 3.438 -17.1558
    endloop
  endfacet
  facet normal -0 0.637478 0.770468
    outer loop
      vertex 194 3.42274 -12.8552
      vertex 694 2.93893 -12.4549
      vertex 694 3.42274 -12.8552
    endloop
  endfacet
  facet normal 0 0.728952 0.684565
    outer loop
      vertex 194 3.42274 -12.8552
      vertex 694 3.42274 -12.8552
      vertex 694 3.85257 -13.3129
    endloop
  endfacet
  facet normal 0 0.728952 0.684565
    outer loop
      vertex 194 3.42274 -12.8552
      vertex 694 3.85257 -13.3129
      vertex 194 3.85257 -13.3129
    endloop
  endfacet
  facet normal 0 0.728952 -0.684565
    outer loop
      vertex 194 3.42274 -20.1448
      vertex 194 3.85257 -19.6871
      vertex 694 3.42274 -20.1448
    endloop
  endfacet
  facet normal 0 -0.992112 -0.125357
    outer loop
      vertex 194 3.438 -15.8442
      vertex 194 3.49309 -16.2802
      vertex 694 3.438 -15.8442
    endloop
  endfacet
  facet normal -1 -0 0
    outer loop
      vertex 194 3.438 -15.8442
      vertex 194 4.75528 -14.9549
      vertex 194 4.91144 -15.5631
    endloop
  endfacet
  facet normal -1 0 0
    outer loop
      vertex 194 3.438 -15.8442
      vertex 194 4.91144 -15.5631
      vertex 194 3.49309 -16.2802
    endloop
  endfacet
  facet normal 0 -0.968598 -0.248633
    outer loop
      vertex 194 3.438 -15.8442
      vertex 694 3.438 -15.8442
      vertex 694 3.3287 -15.4184
    endloop
  endfacet
  facet normal -1 0 0
    outer loop
      vertex 194 3.438 -17.1558
      vertex 194 3.49309 -16.7198
      vertex 194 4.91144 -17.4369
    endloop
  endfacet
  facet normal -1 0 0
    outer loop
      vertex 194 3.438 -17.1558
      vertex 194 4.91144 -17.4369
      vertex 194 4.75528 -18.0451
    endloop
  endfacet
  facet normal 0 -0.992112 0.125357
    outer loop
      vertex 194 3.438 -17.1558
      vertex 694 3.438 -17.1558
      vertex 694 3.49309 -16.7198
    endloop
  endfacet
  facet normal 0 -0.992112 0.125357
    outer loop
      vertex 194 3.438 -17.1558
      vertex 694 3.49309 -16.7198
      vertex 194 3.49309 -16.7198
    endloop
  endfacet
  facet normal -1 -0 0
    outer loop
      vertex 194 3.49309 -16.2802
      vertex 194 4.91144 -15.5631
      vertex 194 4.99013 -16.186
    endloop
  endfacet
  facet normal 0 -0.992112 -0.125357
    outer loop
      vertex 194 3.49309 -16.2802
      vertex 694 3.49309 -16.2802
      vertex 694 3.438 -15.8442
    endloop
  endfacet
  facet normal -1 0 0
    outer loop
      vertex 194 3.49309 -16.7198
      vertex 194 3.49309 -16.2802
      vertex 194 4.99013 -16.186
    endloop
  endfacet
  facet normal -1 0 0
    outer loop
      vertex 194 3.49309 -16.7198
      vertex 194 4.99013 -16.186
      vertex 194 4.99013 -16.814
    endloop
  endfacet
  facet normal -1 0 0
    outer loop
      vertex 194 3.49309 -16.7198
      vertex 194 4.99013 -16.814
      vertex 194 4.91144 -17.4369
    endloop
  endfacet
  facet normal 0 -1 0
    outer loop
      vertex 194 3.49309 -16.7198
      vertex 694 3.49309 -16.2802
      vertex 194 3.49309 -16.2802
    endloop
  endfacet
  facet normal 0 -1 -0
    outer loop
      vertex 194 3.49309 -16.7198
      vertex 694 3.49309 -16.7198
      vertex 694 3.49309 -16.2802
    endloop
  endfacet
  facet normal 0 0.809027 0.587771
    outer loop
      vertex 194 3.85257 -13.3129
      vertex 694 3.85257 -13.3129
      vertex 694 4.22164 -13.8209
    endloop
  endfacet
  facet normal 0 0.809027 0.587771
    outer loop
      vertex 194 3.85257 -13.3129
      vertex 694 4.22164 -13.8209
      vertex 194 4.22164 -13.8209
    endloop
  endfacet
  facet normal 0 0.809027 -0.587771
    outer loop
      vertex 194 3.85257 -19.6871
      vertex 194 4.22164 -19.1791
      vertex 694 3.85257 -19.6871
    endloop
  endfacet
  facet normal 0 0.728952 -0.684565
    outer loop
      vertex 194 3.85257 -19.6871
      vertex 694 3.85257 -19.6871
      vertex 694 3.42274 -20.1448
    endloop
  endfacet
  facet normal 0 0.876297 0.481772
    outer loop
      vertex 194 4.22164 -13.8209
      vertex 694 4.22164 -13.8209
      vertex 694 4.52413 -14.3711
    endloop
  endfacet
  facet normal 0 0.876297 0.481772
    outer loop
      vertex 194 4.22164 -13.8209
      vertex 694 4.52413 -14.3711
      vertex 194 4.52413 -14.3711
    endloop
  endfacet
  facet normal 0 0.876297 -0.481772
    outer loop
      vertex 194 4.22164 -19.1791
      vertex 194 4.52413 -18.6289
      vertex 694 4.22164 -19.1791
    endloop
  endfacet
  facet normal 0 0.809027 -0.587771
    outer loop
      vertex 194 4.22164 -19.1791
      vertex 694 4.22164 -19.1791
      vertex 694 3.85257 -19.6871
    endloop
  endfacet
  facet normal 0 0.929773 0.368135
    outer loop
      vertex 194 4.52413 -14.3711
      vertex 694 4.52413 -14.3711
      vertex 694 4.75528 -14.9549
    endloop
  endfacet
  facet normal 0 0.929773 0.368135
    outer loop
      vertex 194 4.52413 -14.3711
      vertex 694 4.75528 -14.9549
      vertex 194 4.75528 -14.9549
    endloop
  endfacet
  facet normal 0 0.929773 -0.368135
    outer loop
      vertex 194 4.52413 -18.6289
      vertex 194 4.75528 -18.0451
      vertex 694 4.52413 -18.6289
    endloop
  endfacet
  facet normal 0 0.876297 -0.481772
    outer loop
      vertex 194 4.52413 -18.6289
      vertex 694 4.52413 -18.6289
      vertex 694 4.22164 -19.1791
    endloop
  endfacet
  facet normal 0 0.968583 0.248691
    outer loop
      vertex 194 4.75528 -14.9549
      vertex 694 4.75528 -14.9549
      vertex 694 4.91144 -15.5631
    endloop
  endfacet
  facet normal 0 0.968583 0.248691
    outer loop
      vertex 194 4.75528 -14.9549
      vertex 694 4.91144 -15.5631
      vertex 194 4.91144 -15.5631
    endloop
  endfacet
  facet normal 0 0.968583 -0.248691
    outer loop
      vertex 194 4.75528 -18.0451
      vertex 194 4.91144 -17.4369
      vertex 694 4.75528 -18.0451
    endloop
  endfacet
  facet normal 0 0.929773 -0.368135
    outer loop
      vertex 194 4.75528 -18.0451
      vertex 694 4.75528 -18.0451
      vertex 694 4.52413 -18.6289
    endloop
  endfacet
  facet normal 0 0.992115 0.125332
    outer loop
      vertex 194 4.91144 -15.5631
      vertex 694 4.91144 -15.5631
      vertex 694 4.99013 -16.186
    endloop
  endfacet
  facet normal 0 0.992115 0.125332
    outer loop
      vertex 194 4.91144 -15.5631
      vertex 694 4.99013 -16.186
      vertex 194 4.99013 -16.186
    endloop
  endfacet
  facet normal 0 0.992115 -0.125332
    outer loop
      vertex 194 4.91144 -17.4369
      vertex 194 4.99013 -16.814
      vertex 694 4.91144 -17.4369
    endloop
  endfacet
  facet normal 0 0.968583 -0.248691
    outer loop
      vertex 194 4.91144 -17.4369
      vertex 694 4.91144 -17.4369
      vertex 694 4.75528 -18.0451
    endloop
  endfacet
  facet normal 0 1 -0
    outer loop
      vertex 194 4.99013 -16.186
      vertex 694 4.99013 -16.186
      vertex 694 4.99013 -16.814
    endloop
  endfacet
  facet normal 0 1 0
    outer loop
      vertex 194 4.99013 -16.814
      vertex 194 4.99013 -16.186
      vertex 694 4.99013 -16.814
    endloop
  endfacet
  facet normal 0 0.992115 -0.125332
    outer loop
      vertex 194 4.99013 -16.814
      vertex 694 4.99013 -16.814
      vertex 694 4.91144 -17.4369
    endloop
  endfacet
  facet normal 1 0 0
    outer loop
      vertex 694 -0.438665 -13.0276
      vertex 694 0 -13
      vertex 694 0 -11.5
    endloop
  endfacet
  facet normal 1 0 0
    outer loop
      vertex 694 -0.438665 -19.9724
      vertex 694 0 -21.5
      vertex 694 0 -20
    endloop
  endfacet
  facet normal 1 -0 0
    outer loop
      vertex 694 -0.626666 -11.5394
      vertex 694 -0.438665 -13.0276
      vertex 694 0 -11.5
    endloop
  endfacet
  facet normal 1 0 0
    outer loop
      vertex 694 -0.626666 -21.4606
      vertex 694 0 -21.5
      vertex 694 -0.438665 -19.9724
    endloop
  endfacet
  facet normal 1 0 0
    outer loop
      vertex 694 -0.870414 -13.11
      vertex 694 -0.438665 -13.0276
      vertex 694 -0.626666 -11.5394
    endloop
  endfacet
  facet normal 1 0 0
    outer loop
      vertex 694 -0.870414 -19.89
      vertex 694 -0.626666 -21.4606
      vertex 694 -0.438665 -19.9724
    endloop
  endfacet
  facet normal 1 -0 0
    outer loop
      vertex 694 -1.24345 -11.6571
      vertex 694 -0.870414 -13.11
      vertex 694 -0.626666 -11.5394
    endloop
  endfacet
  facet normal 1 0 0
    outer loop
      vertex 694 -1.24345 -21.3429
      vertex 694 -0.626666 -21.4606
      vertex 694 -0.870414 -19.89
    endloop
  endfacet
  facet normal 1 0 0
    outer loop
      vertex 694 -1.28843 -13.2458
      vertex 694 -0.870414 -13.11
      vertex 694 -1.24345 -11.6571
    endloop
  endfacet
  facet normal 1 0 0
    outer loop
      vertex 694 -1.28843 -19.7542
      vertex 694 -1.24345 -21.3429
      vertex 694 -0.870414 -19.89
    endloop
  endfacet
  facet normal 1 -0 0
    outer loop
      vertex 694 -1.84062 -11.8511
      vertex 694 -1.28843 -13.2458
      vertex 694 -1.24345 -11.6571
    endloop
  endfacet
  facet normal 1 0 0
    outer loop
      vertex 694 -1.84062 -11.8511
      vertex 694 -1.68614 -13.4329
      vertex 694 -1.28843 -13.2458
    endloop
  endfacet
  facet normal 1 0 0
    outer loop
      vertex 694 -1.84062 -21.1489
      vertex 694 -1.24345 -21.3429
      vertex 694 -1.28843 -19.7542
    endloop
  endfacet
  facet normal 1 0 0
    outer loop
      vertex 694 -1.84062 -21.1489
      vertex 694 -1.28843 -19.7542
      vertex 694 -1.68614 -19.5671
    endloop
  endfacet
  facet normal 1 -0 0
    outer loop
      vertex 694 -2.40877 -12.1185
      vertex 694 -1.68614 -13.4329
      vertex 694 -1.84062 -11.8511
    endloop
  endfacet
  facet normal 1 0 0
    outer loop
      vertex 694 -2.40877 -12.1185
      vertex 694 -2.05725 -13.6684
      vertex 694 -1.68614 -13.4329
    endloop
  endfacet
  facet normal 1 0 0
    outer loop
      vertex 694 -2.40877 -20.8815
      vertex 694 -1.68614 -19.5671
      vertex 694 -2.05725 -19.3316
    endloop
  endfacet
  facet normal 1 0 0
    outer loop
      vertex 694 -2.40877 -20.8815
      vertex 694 -1.84062 -21.1489
      vertex 694 -1.68614 -19.5671
    endloop
  endfacet
  facet normal 1 -0 0
    outer loop
      vertex 694 -2.93893 -12.4549
      vertex 694 -2.05725 -13.6684
      vertex 694 -2.40877 -12.1185
    endloop
  endfacet
  facet normal 1 0 0
    outer loop
      vertex 694 -2.93893 -12.4549
      vertex 694 -2.39591 -13.9486
      vertex 694 -2.05725 -13.6684
    endloop
  endfacet
  facet normal 1 0 0
    outer loop
      vertex 694 -2.93893 -20.5451
      vertex 694 -2.05725 -19.3316
      vertex 694 -2.39591 -19.0514
    endloop
  endfacet
  facet normal 1 0 0
    outer loop
      vertex 694 -2.93893 -20.5451
      vertex 694 -2.40877 -20.8815
      vertex 694 -2.05725 -19.3316
    endloop
  endfacet
  facet normal 1 -0 0
    outer loop
      vertex 694 -3.42274 -12.8552
      vertex 694 -2.39591 -13.9486
      vertex 694 -2.93893 -12.4549
    endloop
  endfacet
  facet normal 1 0 0
    outer loop
      vertex 694 -3.42274 -12.8552
      vertex 694 -2.6968 -14.269
      vertex 694 -2.39591 -13.9486
    endloop
  endfacet
  facet normal 1 0 0
    outer loop
      vertex 694 -3.42274 -20.1448
      vertex 694 -2.39591 -19.0514
      vertex 694 -2.6968 -18.731
    endloop
  endfacet
  facet normal 1 0 0
    outer loop
      vertex 694 -3.42274 -20.1448
      vertex 694 -2.93893 -20.5451
      vertex 694 -2.39591 -19.0514
    endloop
  endfacet
  facet normal 1 -0 0
    outer loop
      vertex 694 -3.85257 -13.3129
      vertex 694 -2.6968 -14.269
      vertex 694 -3.42274 -12.8552
    endloop
  endfacet
  facet normal 1 0 0
    outer loop
      vertex 694 -3.85257 -13.3129
      vertex 694 -2.95515 -14.6246
      vertex 694 -2.6968 -14.269
    endloop
  endfacet
  facet normal 1 0 0
    outer loop
      vertex 694 -3.85257 -19.6871
      vertex 694 -2.6968 -18.731
      vertex 694 -2.95515 -18.3754
    endloop
  endfacet
  facet normal 1 0 0
    outer loop
      vertex 694 -3.85257 -19.6871
      vertex 694 -3.42274 -20.1448
      vertex 694 -2.6968 -18.731
    endloop
  endfacet
  facet normal 1 -0 0
    outer loop
      vertex 694 -4.22164 -13.8209
      vertex 694 -2.95515 -14.6246
      vertex 694 -3.85257 -13.3129
    endloop
  endfacet
  facet normal 1 0 0
    outer loop
      vertex 694 -4.22164 -13.8209
      vertex 694 -3.16689 -15.0098
      vertex 694 -2.95515 -14.6246
    endloop
  endfacet
  facet normal 1 0 0
    outer loop
      vertex 694 -4.22164 -19.1791
      vertex 694 -2.95515 -18.3754
      vertex 694 -3.16689 -17.9902
    endloop
  endfacet
  facet normal 1 0 0
    outer loop
      vertex 694 -4.22164 -19.1791
      vertex 694 -3.85257 -19.6871
      vertex 694 -2.95515 -18.3754
    endloop
  endfacet
  facet normal 1 -0 0
    outer loop
      vertex 694 -4.52413 -14.3711
      vertex 694 -3.16689 -15.0098
      vertex 694 -4.22164 -13.8209
    endloop
  endfacet
  facet normal 1 0 0
    outer loop
      vertex 694 -4.52413 -14.3711
      vertex 694 -3.3287 -15.4184
      vertex 694 -3.16689 -15.0098
    endloop
  endfacet
  facet normal 1 0 0
    outer loop
      vertex 694 -4.52413 -18.6289
      vertex 694 -3.16689 -17.9902
      vertex 694 -3.3287 -17.5816
    endloop
  endfacet
  facet normal 1 0 0
    outer loop
      vertex 694 -4.52413 -18.6289
      vertex 694 -4.22164 -19.1791
      vertex 694 -3.16689 -17.9902
    endloop
  endfacet
  facet normal 1 -0 0
    outer loop
      vertex 694 -4.75528 -14.9549
      vertex 694 -3.3287 -15.4184
      vertex 694 -4.52413 -14.3711
    endloop
  endfacet
  facet normal 1 0 0
    outer loop
      vertex 694 -4.75528 -14.9549
      vertex 694 -3.438 -15.8442
      vertex 694 -3.3287 -15.4184
    endloop
  endfacet
  facet normal 1 0 0
    outer loop
      vertex 694 -4.75528 -18.0451
      vertex 694 -3.3287 -17.5816
      vertex 694 -3.438 -17.1558
    endloop
  endfacet
  facet normal 1 0 0
    outer loop
      vertex 694 -4.75528 -18.0451
      vertex 694 -4.52413 -18.6289
      vertex 694 -3.3287 -17.5816
    endloop
  endfacet
  facet normal 1 -0 0
    outer loop
      vertex 694 -4.91144 -15.5631
      vertex 694 -3.438 -15.8442
      vertex 694 -4.75528 -14.9549
    endloop
  endfacet
  facet normal 1 0 0
    outer loop
      vertex 694 -4.91144 -15.5631
      vertex 694 -3.49309 -16.2802
      vertex 694 -3.438 -15.8442
    endloop
  endfacet
  facet normal 1 0 0
    outer loop
      vertex 694 -4.91144 -17.4369
      vertex 694 -3.438 -17.1558
      vertex 694 -3.49309 -16.7198
    endloop
  endfacet
  facet normal 1 0 0
    outer loop
      vertex 694 -4.91144 -17.4369
      vertex 694 -4.75528 -18.0451
      vertex 694 -3.438 -17.1558
    endloop
  endfacet
  facet normal 1 -0 0
    outer loop
      vertex 694 -4.99013 -16.186
      vertex 694 -3.49309 -16.2802
      vertex 694 -4.91144 -15.5631
    endloop
  endfacet
  facet normal 1 0 0
    outer loop
      vertex 694 -4.99013 -16.186
      vertex 694 -3.49309 -16.7198
      vertex 694 -3.49309 -16.2802
    endloop
  endfacet
  facet normal 1 0 0
    outer loop
      vertex 694 -4.99013 -16.814
      vertex 694 -3.49309 -16.7198
      vertex 694 -4.99013 -16.186
    endloop
  endfacet
  facet normal 1 0 0
    outer loop
      vertex 694 -4.99013 -16.814
      vertex 694 -4.91144 -17.4369
      vertex 694 -3.49309 -16.7198
    endloop
  endfacet
  facet normal 1 0 0
    outer loop
      vertex 694 0 -11.5
      vertex 694 0.438665 -13.0276
      vertex 694 0.626666 -11.5394
    endloop
  endfacet
  facet normal 1 0 0
    outer loop
      vertex 694 0 -13
      vertex 694 0.438665 -13.0276
      vertex 694 0 -11.5
    endloop
  endfacet
  facet normal 1 -0 0
    outer loop
      vertex 694 0 -20
      vertex 694 0.626666 -21.4606
      vertex 694 0.438665 -19.9724
    endloop
  endfacet
  facet normal 1 0 0
    outer loop
      vertex 694 0 -21.5
      vertex 694 0.626666 -21.4606
      vertex 694 0 -20
    endloop
  endfacet
  facet normal 1 0 0
    outer loop
      vertex 694 0.438665 -13.0276
      vertex 694 0.870414 -13.11
      vertex 694 0.626666 -11.5394
    endloop
  endfacet
  facet normal 1 -0 0
    outer loop
      vertex 694 0.438665 -19.9724
      vertex 694 0.626666 -21.4606
      vertex 694 0.870414 -19.89
    endloop
  endfacet
  facet normal 1 0 0
    outer loop
      vertex 694 0.626666 -11.5394
      vertex 694 0.870414 -13.11
      vertex 694 1.24345 -11.6571
    endloop
  endfacet
  facet normal 1 0 0
    outer loop
      vertex 694 0.626666 -21.4606
      vertex 694 1.24345 -21.3429
      vertex 694 0.870414 -19.89
    endloop
  endfacet
  facet normal 1 0 0
    outer loop
      vertex 694 0.870414 -13.11
      vertex 694 1.28843 -13.2458
      vertex 694 1.24345 -11.6571
    endloop
  endfacet
  facet normal 1 -0 0
    outer loop
      vertex 694 0.870414 -19.89
      vertex 694 1.24345 -21.3429
      vertex 694 1.28843 -19.7542
    endloop
  endfacet
  facet normal 1 0 0
    outer loop
      vertex 694 1.24345 -11.6571
      vertex 694 1.28843 -13.2458
      vertex 694 1.84062 -11.8511
    endloop
  endfacet
  facet normal 1 0 0
    outer loop
      vertex 694 1.24345 -21.3429
      vertex 694 1.84062 -21.1489
      vertex 694 1.28843 -19.7542
    endloop
  endfacet
  facet normal 1 0 0
    outer loop
      vertex 694 1.28843 -13.2458
      vertex 694 1.68614 -13.4329
      vertex 694 1.84062 -11.8511
    endloop
  endfacet
  facet normal 1 -0 0
    outer loop
      vertex 694 1.28843 -19.7542
      vertex 694 1.84062 -21.1489
      vertex 694 1.68614 -19.5671
    endloop
  endfacet
  facet normal 1 0 0
    outer loop
      vertex 694 1.68614 -13.4329
      vertex 694 2.05725 -13.6684
      vertex 694 2.40877 -12.1185
    endloop
  endfacet
  facet normal 1 0 0
    outer loop
      vertex 694 1.68614 -13.4329
      vertex 694 2.40877 -12.1185
      vertex 694 1.84062 -11.8511
    endloop
  endfacet
  facet normal 1 0 0
    outer loop
      vertex 694 1.68614 -19.5671
      vertex 694 1.84062 -21.1489
      vertex 694 2.40877 -20.8815
    endloop
  endfacet
  facet normal 1 -0 0
    outer loop
      vertex 694 1.68614 -19.5671
      vertex 694 2.40877 -20.8815
      vertex 694 2.05725 -19.3316
    endloop
  endfacet
  facet normal 1 0 0
    outer loop
      vertex 694 2.05725 -13.6684
      vertex 694 2.39591 -13.9486
      vertex 694 2.93893 -12.4549
    endloop
  endfacet
  facet normal 1 0 0
    outer loop
      vertex 694 2.05725 -13.6684
      vertex 694 2.93893 -12.4549
      vertex 694 2.40877 -12.1185
    endloop
  endfacet
  facet normal 1 0 0
    outer loop
      vertex 694 2.05725 -19.3316
      vertex 694 2.40877 -20.8815
      vertex 694 2.93893 -20.5451
    endloop
  endfacet
  facet normal 1 -0 0
    outer loop
      vertex 694 2.05725 -19.3316
      vertex 694 2.93893 -20.5451
      vertex 694 2.39591 -19.0514
    endloop
  endfacet
  facet normal 1 0 0
    outer loop
      vertex 694 2.39591 -13.9486
      vertex 694 2.6968 -14.269
      vertex 694 3.42274 -12.8552
    endloop
  endfacet
  facet normal 1 0 0
    outer loop
      vertex 694 2.39591 -13.9486
      vertex 694 3.42274 -12.8552
      vertex 694 2.93893 -12.4549
    endloop
  endfacet
  facet normal 1 0 0
    outer loop
      vertex 694 2.39591 -19.0514
      vertex 694 2.93893 -20.5451
      vertex 694 3.42274 -20.1448
    endloop
  endfacet
  facet normal 1 -0 0
    outer loop
      vertex 694 2.39591 -19.0514
      vertex 694 3.42274 -20.1448
      vertex 694 2.6968 -18.731
    endloop
  endfacet
  facet normal 1 0 0
    outer loop
      vertex 694 2.6968 -14.269
      vertex 694 2.95515 -14.6246
      vertex 694 3.85257 -13.3129
    endloop
  endfacet
  facet normal 1 0 0
    outer loop
      vertex 694 2.6968 -14.269
      vertex 694 3.85257 -13.3129
      vertex 694 3.42274 -12.8552
    endloop
  endfacet
  facet normal 1 0 0
    outer loop
      vertex 694 2.6968 -18.731
      vertex 694 3.42274 -20.1448
      vertex 694 3.85257 -19.6871
    endloop
  endfacet
  facet normal 1 -0 0
    outer loop
      vertex 694 2.6968 -18.731
      vertex 694 3.85257 -19.6871
      vertex 694 2.95515 -18.3754
    endloop
  endfacet
  facet normal 1 0 0
    outer loop
      vertex 694 2.95515 -14.6246
      vertex 694 3.16689 -15.0098
      vertex 694 4.22164 -13.8209
    endloop
  endfacet
  facet normal 1 0 0
    outer loop
      vertex 694 2.95515 -14.6246
      vertex 694 4.22164 -13.8209
      vertex 694 3.85257 -13.3129
    endloop
  endfacet
  facet normal 1 0 0
    outer loop
      vertex 694 2.95515 -18.3754
      vertex 694 3.85257 -19.6871
      vertex 694 4.22164 -19.1791
    endloop
  endfacet
  facet normal 1 -0 0
    outer loop
      vertex 694 2.95515 -18.3754
      vertex 694 4.22164 -19.1791
      vertex 694 3.16689 -17.9902
    endloop
  endfacet
  facet normal 1 0 0
    outer loop
      vertex 694 3.16689 -15.0098
      vertex 694 3.3287 -15.4184
      vertex 694 4.52413 -14.3711
    endloop
  endfacet
  facet normal 1 0 0
    outer loop
      vertex 694 3.16689 -15.0098
      vertex 694 4.52413 -14.3711
      vertex 694 4.22164 -13.8209
    endloop
  endfacet
  facet normal 1 0 0
    outer loop
      vertex 694 3.16689 -17.9902
      vertex 694 4.22164 -19.1791
      vertex 694 4.52413 -18.6289
    endloop
  endfacet
  facet normal 1 -0 0
    outer loop
      vertex 694 3.16689 -17.9902
      vertex 694 4.52413 -18.6289
      vertex 694 3.3287 -17.5816
    endloop
  endfacet
  facet normal 1 0 0
    outer loop
      vertex 694 3.3287 -15.4184
      vertex 694 3.438 -15.8442
      vertex 694 4.75528 -14.9549
    endloop
  endfacet
  facet normal 1 0 0
    outer loop
      vertex 694 3.3287 -15.4184
      vertex 694 4.75528 -14.9549
      vertex 694 4.52413 -14.3711
    endloop
  endfacet
  facet normal 1 0 0
    outer loop
      vertex 694 3.3287 -17.5816
      vertex 694 4.52413 -18.6289
      vertex 694 4.75528 -18.0451
    endloop
  endfacet
  facet normal 1 -0 0
    outer loop
      vertex 694 3.3287 -17.5816
      vertex 694 4.75528 -18.0451
      vertex 694 3.438 -17.1558
    endloop
  endfacet
  facet normal 1 0 0
    outer loop
      vertex 694 3.438 -15.8442
      vertex 694 3.49309 -16.2802
      vertex 694 4.91144 -15.5631
    endloop
  endfacet
  facet normal 1 0 0
    outer loop
      vertex 694 3.438 -15.8442
      vertex 694 4.91144 -15.5631
      vertex 694 4.75528 -14.9549
    endloop
  endfacet
  facet normal 1 0 0
    outer loop
      vertex 694 3.438 -17.1558
      vertex 694 4.75528 -18.0451
      vertex 694 4.91144 -17.4369
    endloop
  endfacet
  facet normal 1 -0 0
    outer loop
      vertex 694 3.438 -17.1558
      vertex 694 4.91144 -17.4369
      vertex 694 3.49309 -16.7198
    endloop
  endfacet
  facet normal 1 0 0
    outer loop
      vertex 694 3.49309 -16.2802
      vertex 694 4.99013 -16.186
      vertex 694 4.91144 -15.5631
    endloop
  endfacet
  facet normal 1 0 0
    outer loop
      vertex 694 3.49309 -16.2802
      vertex 694 4.99013 -16.814
      vertex 694 4.99013 -16.186
    endloop
  endfacet
  facet normal 1 0 0
    outer loop
      vertex 694 3.49309 -16.7198
      vertex 694 4.91144 -17.4369
      vertex 694 4.99013 -16.814
    endloop
  endfacet
  facet normal 1 -0 0
    outer loop
      vertex 694 3.49309 -16.7198
      vertex 694 4.99013 -16.814
      vertex 694 3.49309 -16.2802
    endloop
  endfacet
endsolid model
