solid model
  facet normal -0.498013 0.0548435 -0.865434
    outer loop
      vertex 141.9 -0.257441 255.058
      vertex 141.9 0.768263 255.123
      vertex 149.9 13.875 251.35
    endloop
  endfacet
  facet normal -1 0 0
    outer loop
      vertex 141.9 -0.257441 255.058
      vertex 141.9 1.65 256.292
      vertex 141.9 0.768263 255.123
    endloop
  endfacet
  facet normal -0.420525 0 -0.907281
    outer loop
      vertex 141.9 -0.257441 255.058
      vertex 149.9 13.875 251.35
      vertex 149.9 -13.875 251.35
    endloop
  endfacet
  facet normal -1 0 0
    outer loop
      vertex 141.9 -0.257441 263.242
      vertex 141.9 0.768263 263.177
      vertex 141.9 1.65 262.008
    endloop
  endfacet
  facet normal 0 0.0632442 0.997998
    outer loop
      vertex 141.9 -0.257441 263.242
      vertex 155.1 -0.257441 263.242
      vertex 141.9 0.768263 263.177
    endloop
  endfacet
  facet normal 0 -0.187778 0.982212
    outer loop
      vertex 141.9 -0.257441 263.242
      vertex 155.1 -1.26697 263.049
      vertex 155.1 -0.257441 263.242
    endloop
  endfacet
  facet normal -0.612517 -0.14843 -0.776397
    outer loop
      vertex 141.9 -1.26697 255.251
      vertex 141.9 -0.257441 255.058
      vertex 149.9 -13.875 251.35
    endloop
  endfacet
  facet normal 0 -0.187778 0.982212
    outer loop
      vertex 141.9 -1.26697 263.049
      vertex 155.1 -1.26697 263.049
      vertex 141.9 -0.257441 263.242
    endloop
  endfacet
  facet normal 0 -0.425311 0.905047
    outer loop
      vertex 141.9 -1.26697 263.049
      vertex 155.1 -2.19689 262.612
      vertex 155.1 -1.26697 263.049
    endloop
  endfacet
  facet normal -1 0 0
    outer loop
      vertex 141.9 -1.65 256.292
      vertex 141.9 -0.257441 255.058
      vertex 141.9 -1.26697 255.251
    endloop
  endfacet
  facet normal -1 0 0
    outer loop
      vertex 141.9 -1.65 256.292
      vertex 141.9 1.65 256.292
      vertex 141.9 -0.257441 255.058
    endloop
  endfacet
  facet normal 0 0 1
    outer loop
      vertex 141.9 -1.65 256.292
      vertex 145.95 -1.65 256.292
      vertex 141.9 1.65 256.292
    endloop
  endfacet
  facet normal -1 0 0
    outer loop
      vertex 141.9 -1.65 262.008
      vertex 141.9 -0.257441 263.242
      vertex 141.9 1.65 262.008
    endloop
  endfacet
  facet normal -1 0 0
    outer loop
      vertex 141.9 -1.65 262.008
      vertex 141.9 -1.26697 263.049
      vertex 141.9 -0.257441 263.242
    endloop
  endfacet
  facet normal -0 0 -1
    outer loop
      vertex 141.9 -1.65 262.008
      vertex 141.9 1.65 262.008
      vertex 145.95 1.65 262.008
    endloop
  endfacet
  facet normal 0 0.866034 -0.499985
    outer loop
      vertex 141.9 -1.65 262.008
      vertex 145.95 -1.65 262.008
      vertex 145.95 -3.3 259.15
    endloop
  endfacet
  facet normal 0 0 -1
    outer loop
      vertex 141.9 -1.65 262.008
      vertex 145.95 1.65 262.008
      vertex 145.95 -1.65 262.008
    endloop
  endfacet
  facet normal -0.743445 -0.284447 -0.605293
    outer loop
      vertex 141.9 -2.19689 255.688
      vertex 141.9 -1.26697 255.251
      vertex 149.9 -13.875 251.35
    endloop
  endfacet
  facet normal -1 0 0
    outer loop
      vertex 141.9 -2.19689 255.688
      vertex 141.9 -1.65 256.292
      vertex 141.9 -1.26697 255.251
    endloop
  endfacet
  facet normal -1 0 0
    outer loop
      vertex 141.9 -2.19689 262.612
      vertex 141.9 -1.26697 263.049
      vertex 141.9 -1.65 262.008
    endloop
  endfacet
  facet normal 0 -0.460717 0.887547
    outer loop
      vertex 141.9 -2.19689 262.612
      vertex 149.9 -13.875 256.55
      vertex 155.1 -2.19689 262.612
    endloop
  endfacet
  facet normal 0 -0.425311 0.905047
    outer loop
      vertex 141.9 -2.19689 262.612
      vertex 155.1 -2.19689 262.612
      vertex 141.9 -1.26697 263.049
    endloop
  endfacet
  facet normal -1 0 0
    outer loop
      vertex 141.9 -2.98877 256.343
      vertex 141.9 -1.65 256.292
      vertex 141.9 -2.19689 255.688
    endloop
  endfacet
  facet normal -0.803186 -0.379697 -0.459045
    outer loop
      vertex 141.9 -2.98877 256.343
      vertex 141.9 -2.19689 255.688
      vertex 149.9 -13.875 251.35
    endloop
  endfacet
  facet normal -1 -0 0
    outer loop
      vertex 141.9 -2.98877 261.957
      vertex 141.9 -2.19689 262.612
      vertex 141.9 -1.65 262.008
    endloop
  endfacet
  facet normal -0.327412 -0.602236 0.728089
    outer loop
      vertex 141.9 -2.98877 261.957
      vertex 149.9 -13.875 256.55
      vertex 141.9 -2.19689 262.612
    endloop
  endfacet
  facet normal 0 0.866034 -0.499985
    outer loop
      vertex 141.9 -3.3 259.15
      vertex 141.9 -1.65 262.008
      vertex 145.95 -3.3 259.15
    endloop
  endfacet
  facet normal 0 0.866034 0.499985
    outer loop
      vertex 141.9 -3.3 259.15
      vertex 145.95 -1.65 256.292
      vertex 141.9 -1.65 256.292
    endloop
  endfacet
  facet normal 0 0.866034 0.499985
    outer loop
      vertex 141.9 -3.3 259.15
      vertex 145.95 -3.3 259.15
      vertex 145.95 -1.65 256.292
    endloop
  endfacet
  facet normal -1 0 0
    outer loop
      vertex 141.9 -3.59286 257.175
      vertex 141.9 -1.65 256.292
      vertex 141.9 -2.98877 256.343
    endloop
  endfacet
  facet normal -0.826436 -0.455604 -0.3308
    outer loop
      vertex 141.9 -3.59286 257.175
      vertex 141.9 -2.98877 256.343
      vertex 149.9 -13.875 251.35
    endloop
  endfacet
  facet normal -1 0 0
    outer loop
      vertex 141.9 -3.59286 257.175
      vertex 141.9 -3.3 259.15
      vertex 141.9 -1.65 256.292
    endloop
  endfacet
  facet normal -1 0 0
    outer loop
      vertex 141.9 -3.59286 261.125
      vertex 141.9 -1.65 262.008
      vertex 141.9 -3.3 259.15
    endloop
  endfacet
  facet normal -1 0 0
    outer loop
      vertex 141.9 -3.59286 261.125
      vertex 141.9 -2.98877 261.957
      vertex 141.9 -1.65 262.008
    endloop
  endfacet
  facet normal -0.575678 -0.661663 0.480414
    outer loop
      vertex 141.9 -3.59286 261.125
      vertex 149.9 -13.875 256.55
      vertex 141.9 -2.98877 261.957
    endloop
  endfacet
  facet normal -1 0 0
    outer loop
      vertex 141.9 -3.97119 258.13
      vertex 141.9 -3.3 259.15
      vertex 141.9 -3.59286 257.175
    endloop
  endfacet
  facet normal -0.825587 -0.524609 -0.207827
    outer loop
      vertex 141.9 -3.97119 258.13
      vertex 141.9 -3.59286 257.175
      vertex 149.9 -13.875 251.35
    endloop
  endfacet
  facet normal -1 0 0
    outer loop
      vertex 141.9 -3.97119 260.17
      vertex 141.9 -3.59286 261.125
      vertex 141.9 -3.3 259.15
    endloop
  endfacet
  facet normal -0.701487 -0.662583 0.262487
    outer loop
      vertex 141.9 -3.97119 260.17
      vertex 149.9 -13.875 256.55
      vertex 141.9 -3.59286 261.125
    endloop
  endfacet
  facet normal -1 0 0
    outer loop
      vertex 141.9 -4.1 259.15
      vertex 141.9 -3.3 259.15
      vertex 141.9 -3.97119 258.13
    endloop
  endfacet
  facet normal -0.800231 -0.594966 -0.0751349
    outer loop
      vertex 141.9 -4.1 259.15
      vertex 141.9 -3.97119 258.13
      vertex 149.9 -13.875 251.35
    endloop
  endfacet
  facet normal -1 0 0
    outer loop
      vertex 141.9 -4.1 259.15
      vertex 141.9 -3.97119 260.17
      vertex 141.9 -3.3 259.15
    endloop
  endfacet
  facet normal -0.773869 -0.633346 -0
    outer loop
      vertex 141.9 -4.1 259.15
      vertex 149.9 -13.875 251.35
      vertex 149.9 -13.875 256.55
    endloop
  endfacet
  facet normal -0.760592 -0.644115 0.0813416
    outer loop
      vertex 141.9 -4.1 259.15
      vertex 149.9 -13.875 256.55
      vertex 141.9 -3.97119 260.17
    endloop
  endfacet
  facet normal -1 0 0
    outer loop
      vertex 141.9 0.768263 255.123
      vertex 141.9 1.65 256.292
      vertex 141.9 1.74569 255.44
    endloop
  endfacet
  facet normal -0.690289 0.223211 -0.688242
    outer loop
      vertex 141.9 0.768263 255.123
      vertex 141.9 1.74569 255.44
      vertex 149.9 13.875 251.35
    endloop
  endfacet
  facet normal -1 0 0
    outer loop
      vertex 141.9 0.768263 263.177
      vertex 141.9 1.74569 262.86
      vertex 141.9 1.65 262.008
    endloop
  endfacet
  facet normal -0 0.0632442 0.997998
    outer loop
      vertex 141.9 0.768263 263.177
      vertex 155.1 -0.257441 263.242
      vertex 155.1 0.768263 263.177
    endloop
  endfacet
  facet normal 0 0.308502 0.951224
    outer loop
      vertex 141.9 0.768263 263.177
      vertex 155.1 0.768263 263.177
      vertex 141.9 1.74569 262.86
    endloop
  endfacet
  facet normal -1 0 0
    outer loop
      vertex 141.9 1.65 256.292
      vertex 141.9 2.61344 255.991
      vertex 141.9 1.74569 255.44
    endloop
  endfacet
  facet normal -1 -0 0
    outer loop
      vertex 141.9 1.65 256.292
      vertex 141.9 3.3 259.15
      vertex 141.9 3.31697 256.74
    endloop
  endfacet
  facet normal -1 0 0
    outer loop
      vertex 141.9 1.65 256.292
      vertex 141.9 3.31697 256.74
      vertex 141.9 2.61344 255.991
    endloop
  endfacet
  facet normal -0 0 1
    outer loop
      vertex 141.9 1.65 256.292
      vertex 145.95 -1.65 256.292
      vertex 145.95 1.65 256.292
    endloop
  endfacet
  facet normal 0 -0.866034 0.499985
    outer loop
      vertex 141.9 1.65 256.292
      vertex 145.95 1.65 256.292
      vertex 145.95 3.3 259.15
    endloop
  endfacet
  facet normal 0 -0.866034 0.499985
    outer loop
      vertex 141.9 1.65 256.292
      vertex 145.95 3.3 259.15
      vertex 141.9 3.3 259.15
    endloop
  endfacet
  facet normal -1 -0 0
    outer loop
      vertex 141.9 1.65 262.008
      vertex 141.9 1.74569 262.86
      vertex 141.9 2.61344 262.309
    endloop
  endfacet
  facet normal -1 0 0
    outer loop
      vertex 141.9 1.65 262.008
      vertex 141.9 2.61344 262.309
      vertex 141.9 3.31697 261.56
    endloop
  endfacet
  facet normal 0 -0.866034 -0.499985
    outer loop
      vertex 141.9 1.65 262.008
      vertex 141.9 3.3 259.15
      vertex 145.95 1.65 262.008
    endloop
  endfacet
  facet normal -1 0 0
    outer loop
      vertex 141.9 1.65 262.008
      vertex 141.9 3.31697 261.56
      vertex 141.9 3.3 259.15
    endloop
  endfacet
  facet normal -0.779478 0.335792 -0.528827
    outer loop
      vertex 141.9 1.74569 255.44
      vertex 141.9 2.61344 255.991
      vertex 149.9 13.875 251.35
    endloop
  endfacet
  facet normal -0.145311 0.530352 0.835232
    outer loop
      vertex 141.9 1.74569 262.86
      vertex 149.9 13.875 256.55
      vertex 141.9 2.61344 262.309
    endloop
  endfacet
  facet normal -0 0.308502 0.951224
    outer loop
      vertex 141.9 1.74569 262.86
      vertex 155.1 0.768263 263.177
      vertex 155.1 1.74569 262.86
    endloop
  endfacet
  facet normal 0 0.461512 0.887134
    outer loop
      vertex 141.9 1.74569 262.86
      vertex 155.1 1.74569 262.86
      vertex 149.9 13.875 256.55
    endloop
  endfacet
  facet normal -0.818219 0.419041 -0.393602
    outer loop
      vertex 141.9 2.61344 255.991
      vertex 141.9 3.31697 256.74
      vertex 149.9 13.875 251.35
    endloop
  endfacet
  facet normal -0.470493 0.643171 0.604125
    outer loop
      vertex 141.9 2.61344 262.309
      vertex 149.9 13.875 256.55
      vertex 141.9 3.31697 261.56
    endloop
  endfacet
  facet normal -1 -0 0
    outer loop
      vertex 141.9 3.3 259.15
      vertex 141.9 3.31697 261.56
      vertex 141.9 3.81208 260.659
    endloop
  endfacet
  facet normal -1 0 0
    outer loop
      vertex 141.9 3.3 259.15
      vertex 141.9 3.81208 257.641
      vertex 141.9 3.31697 256.74
    endloop
  endfacet
  facet normal -1 -0 0
    outer loop
      vertex 141.9 3.3 259.15
      vertex 141.9 3.81208 260.659
      vertex 141.9 4.06767 259.664
    endloop
  endfacet
  facet normal -1 0 0
    outer loop
      vertex 141.9 3.3 259.15
      vertex 141.9 4.06767 258.636
      vertex 141.9 3.81208 257.641
    endloop
  endfacet
  facet normal -1 0 0
    outer loop
      vertex 141.9 3.3 259.15
      vertex 141.9 4.06767 259.664
      vertex 141.9 4.06767 258.636
    endloop
  endfacet
  facet normal 0 -0.866034 -0.499985
    outer loop
      vertex 141.9 3.3 259.15
      vertex 145.95 3.3 259.15
      vertex 145.95 1.65 262.008
    endloop
  endfacet
  facet normal -0.828782 0.490407 -0.269484
    outer loop
      vertex 141.9 3.31697 256.74
      vertex 141.9 3.81208 257.641
      vertex 149.9 13.875 251.35
    endloop
  endfacet
  facet normal -0.649866 0.666104 0.366032
    outer loop
      vertex 141.9 3.31697 261.56
      vertex 149.9 13.875 256.55
      vertex 141.9 3.81208 260.659
    endloop
  endfacet
  facet normal -0.816448 0.559263 -0.14366
    outer loop
      vertex 141.9 3.81208 257.641
      vertex 141.9 4.06767 258.636
      vertex 149.9 13.875 251.35
    endloop
  endfacet
  facet normal -0.737035 0.654603 0.168151
    outer loop
      vertex 141.9 3.81208 260.659
      vertex 149.9 13.875 256.55
      vertex 141.9 4.06767 259.664
    endloop
  endfacet
  facet normal -0.774893 0.632093 0
    outer loop
      vertex 141.9 4.06767 258.636
      vertex 141.9 4.06767 259.664
      vertex 149.9 13.875 256.55
    endloop
  endfacet
  facet normal -0.774893 0.632093 0
    outer loop
      vertex 141.9 4.06767 258.636
      vertex 149.9 13.875 256.55
      vertex 149.9 13.875 251.35
    endloop
  endfacet
  facet normal -1 0 0
    outer loop
      vertex 145.95 -0.100465 257.553
      vertex 145.95 0.299809 257.578
      vertex 145.95 1.65 256.292
    endloop
  endfacet
  facet normal 0 -0.0623358 0.998055
    outer loop
      vertex 145.95 -0.100465 257.553
      vertex 155.1 -0.100465 257.553
      vertex 145.95 0.299809 257.578
    endloop
  endfacet
  facet normal -0 0.187015 0.982357
    outer loop
      vertex 145.95 -0.100465 257.553
      vertex 155.1 -0.494427 257.628
      vertex 155.1 -0.100465 257.553
    endloop
  endfacet
  facet normal -0 -0.0623358 -0.998055
    outer loop
      vertex 145.95 -0.100465 260.747
      vertex 145.95 0.299809 260.722
      vertex 155.1 0.299809 260.722
    endloop
  endfacet
  facet normal -1 0 0
    outer loop
      vertex 145.95 -0.100465 260.747
      vertex 145.95 1.65 262.008
      vertex 145.95 0.299809 260.722
    endloop
  endfacet
  facet normal 0 -0.0623358 -0.998055
    outer loop
      vertex 145.95 -0.100465 260.747
      vertex 155.1 0.299809 260.722
      vertex 155.1 -0.100465 260.747
    endloop
  endfacet
  facet normal 0 0.187015 0.982357
    outer loop
      vertex 145.95 -0.494427 257.628
      vertex 155.1 -0.494427 257.628
      vertex 145.95 -0.100465 257.553
    endloop
  endfacet
  facet normal -0 0.426257 0.904602
    outer loop
      vertex 145.95 -0.494427 257.628
      vertex 155.1 -0.857323 257.799
      vertex 155.1 -0.494427 257.628
    endloop
  endfacet
  facet normal 0 0.187015 -0.982357
    outer loop
      vertex 145.95 -0.494427 260.672
      vertex 145.95 -0.100465 260.747
      vertex 155.1 -0.100465 260.747
    endloop
  endfacet
  facet normal 0 0.187015 -0.982357
    outer loop
      vertex 145.95 -0.494427 260.672
      vertex 155.1 -0.100465 260.747
      vertex 155.1 -0.494427 260.672
    endloop
  endfacet
  facet normal 0 0.426257 0.904602
    outer loop
      vertex 145.95 -0.857323 257.799
      vertex 155.1 -0.857323 257.799
      vertex 145.95 -0.494427 257.628
    endloop
  endfacet
  facet normal -0 0.637943 0.770084
    outer loop
      vertex 145.95 -0.857323 257.799
      vertex 155.1 -1.16635 258.055
      vertex 155.1 -0.857323 257.799
    endloop
  endfacet
  facet normal 0 0.426257 -0.904602
    outer loop
      vertex 145.95 -0.857323 260.501
      vertex 145.95 -0.494427 260.672
      vertex 155.1 -0.494427 260.672
    endloop
  endfacet
  facet normal 0 0.426257 -0.904602
    outer loop
      vertex 145.95 -0.857323 260.501
      vertex 155.1 -0.494427 260.672
      vertex 155.1 -0.857323 260.501
    endloop
  endfacet
  facet normal 0 0.637943 0.770084
    outer loop
      vertex 145.95 -1.16635 258.055
      vertex 155.1 -1.16635 258.055
      vertex 145.95 -0.857323 257.799
    endloop
  endfacet
  facet normal 0 0.637943 -0.770084
    outer loop
      vertex 145.95 -1.16635 260.245
      vertex 145.95 -0.857323 260.501
      vertex 155.1 -0.857323 260.501
    endloop
  endfacet
  facet normal 0 0.637943 -0.770084
    outer loop
      vertex 145.95 -1.16635 260.245
      vertex 155.1 -0.857323 260.501
      vertex 155.1 -1.16635 260.245
    endloop
  endfacet
  facet normal 0 0.808613 -0.588341
    outer loop
      vertex 145.95 -1.16635 260.245
      vertex 155.1 -1.16635 260.245
      vertex 155.1 -1.40209 259.921
    endloop
  endfacet
  facet normal 0 0.808613 0.588341
    outer loop
      vertex 145.95 -1.40209 258.379
      vertex 155.1 -1.16635 258.055
      vertex 145.95 -1.16635 258.055
    endloop
  endfacet
  facet normal 0 0.808613 0.588341
    outer loop
      vertex 145.95 -1.40209 258.379
      vertex 155.1 -1.40209 258.379
      vertex 155.1 -1.16635 258.055
    endloop
  endfacet
  facet normal 0 0.808613 -0.588341
    outer loop
      vertex 145.95 -1.40209 259.921
      vertex 145.95 -1.16635 260.245
      vertex 155.1 -1.40209 259.921
    endloop
  endfacet
  facet normal 0 0.929812 -0.368036
    outer loop
      vertex 145.95 -1.40209 259.921
      vertex 155.1 -1.40209 259.921
      vertex 155.1 -1.54973 259.548
    endloop
  endfacet
  facet normal 0 0.929812 0.368036
    outer loop
      vertex 145.95 -1.54973 258.752
      vertex 155.1 -1.40209 258.379
      vertex 145.95 -1.40209 258.379
    endloop
  endfacet
  facet normal 0 0.929812 0.368036
    outer loop
      vertex 145.95 -1.54973 258.752
      vertex 155.1 -1.54973 258.752
      vertex 155.1 -1.40209 258.379
    endloop
  endfacet
  facet normal 0 0.929812 -0.368036
    outer loop
      vertex 145.95 -1.54973 259.548
      vertex 145.95 -1.40209 259.921
      vertex 155.1 -1.54973 259.548
    endloop
  endfacet
  facet normal 0 0.992118 -0.125311
    outer loop
      vertex 145.95 -1.54973 259.548
      vertex 155.1 -1.54973 259.548
      vertex 155.1 -1.6 259.15
    endloop
  endfacet
  facet normal 0 0.992118 -0.125311
    outer loop
      vertex 145.95 -1.6 259.15
      vertex 145.95 -1.54973 259.548
      vertex 155.1 -1.6 259.15
    endloop
  endfacet
  facet normal 0 0.992118 0.125311
    outer loop
      vertex 145.95 -1.6 259.15
      vertex 155.1 -1.54973 258.752
      vertex 145.95 -1.54973 258.752
    endloop
  endfacet
  facet normal 0 0.992118 0.125311
    outer loop
      vertex 145.95 -1.6 259.15
      vertex 155.1 -1.6 259.15
      vertex 155.1 -1.54973 258.752
    endloop
  endfacet
  facet normal -1 0 0
    outer loop
      vertex 145.95 -1.65 256.292
      vertex 145.95 -0.100465 257.553
      vertex 145.95 1.65 256.292
    endloop
  endfacet
  facet normal -1 -0 0
    outer loop
      vertex 145.95 -1.65 256.292
      vertex 145.95 -0.494427 257.628
      vertex 145.95 -0.100465 257.553
    endloop
  endfacet
  facet normal -1 -0 0
    outer loop
      vertex 145.95 -1.65 256.292
      vertex 145.95 -0.857323 257.799
      vertex 145.95 -0.494427 257.628
    endloop
  endfacet
  facet normal -1 -0 0
    outer loop
      vertex 145.95 -1.65 256.292
      vertex 145.95 -1.16635 258.055
      vertex 145.95 -0.857323 257.799
    endloop
  endfacet
  facet normal -1 -0 0
    outer loop
      vertex 145.95 -1.65 256.292
      vertex 145.95 -1.40209 258.379
      vertex 145.95 -1.16635 258.055
    endloop
  endfacet
  facet normal -1 0 0
    outer loop
      vertex 145.95 -1.65 262.008
      vertex 145.95 -0.100465 260.747
      vertex 145.95 -0.494427 260.672
    endloop
  endfacet
  facet normal -1 0 0
    outer loop
      vertex 145.95 -1.65 262.008
      vertex 145.95 -0.494427 260.672
      vertex 145.95 -0.857323 260.501
    endloop
  endfacet
  facet normal -1 0 0
    outer loop
      vertex 145.95 -1.65 262.008
      vertex 145.95 -0.857323 260.501
      vertex 145.95 -1.16635 260.245
    endloop
  endfacet
  facet normal -1 0 0
    outer loop
      vertex 145.95 -1.65 262.008
      vertex 145.95 -1.16635 260.245
      vertex 145.95 -1.40209 259.921
    endloop
  endfacet
  facet normal -1 0 0
    outer loop
      vertex 145.95 -1.65 262.008
      vertex 145.95 1.65 262.008
      vertex 145.95 -0.100465 260.747
    endloop
  endfacet
  facet normal -1 0 0
    outer loop
      vertex 145.95 -3.3 259.15
      vertex 145.95 -1.40209 258.379
      vertex 145.95 -1.65 256.292
    endloop
  endfacet
  facet normal -1 0 0
    outer loop
      vertex 145.95 -3.3 259.15
      vertex 145.95 -1.40209 259.921
      vertex 145.95 -1.54973 259.548
    endloop
  endfacet
  facet normal -1 0 0
    outer loop
      vertex 145.95 -3.3 259.15
      vertex 145.95 -1.54973 258.752
      vertex 145.95 -1.40209 258.379
    endloop
  endfacet
  facet normal -1 0 0
    outer loop
      vertex 145.95 -3.3 259.15
      vertex 145.95 -1.54973 259.548
      vertex 145.95 -1.6 259.15
    endloop
  endfacet
  facet normal -1 0 0
    outer loop
      vertex 145.95 -3.3 259.15
      vertex 145.95 -1.6 259.15
      vertex 145.95 -1.54973 258.752
    endloop
  endfacet
  facet normal -1 -0 0
    outer loop
      vertex 145.95 -3.3 259.15
      vertex 145.95 -1.65 262.008
      vertex 145.95 -1.40209 259.921
    endloop
  endfacet
  facet normal -1 0 0
    outer loop
      vertex 145.95 0.299809 257.578
      vertex 145.95 0.681247 257.702
      vertex 145.95 1.65 256.292
    endloop
  endfacet
  facet normal 0 -0.0623358 0.998055
    outer loop
      vertex 145.95 0.299809 257.578
      vertex 155.1 -0.100465 257.553
      vertex 155.1 0.299809 257.578
    endloop
  endfacet
  facet normal 0 -0.30916 0.95101
    outer loop
      vertex 145.95 0.299809 257.578
      vertex 155.1 0.299809 257.578
      vertex 145.95 0.681247 257.702
    endloop
  endfacet
  facet normal -0 -0.30916 -0.95101
    outer loop
      vertex 145.95 0.299809 260.722
      vertex 145.95 0.681247 260.598
      vertex 155.1 0.681247 260.598
    endloop
  endfacet
  facet normal -1 0 0
    outer loop
      vertex 145.95 0.299809 260.722
      vertex 145.95 1.65 262.008
      vertex 145.95 0.681247 260.598
    endloop
  endfacet
  facet normal 0 -0.30916 -0.95101
    outer loop
      vertex 145.95 0.299809 260.722
      vertex 155.1 0.681247 260.598
      vertex 155.1 0.299809 260.722
    endloop
  endfacet
  facet normal -1 0 0
    outer loop
      vertex 145.95 0.681247 257.702
      vertex 145.95 1.01988 257.917
      vertex 145.95 1.65 256.292
    endloop
  endfacet
  facet normal 0 -0.30916 0.95101
    outer loop
      vertex 145.95 0.681247 257.702
      vertex 155.1 0.299809 257.578
      vertex 155.1 0.681247 257.702
    endloop
  endfacet
  facet normal 0 -0.535999 0.844219
    outer loop
      vertex 145.95 0.681247 257.702
      vertex 155.1 0.681247 257.702
      vertex 145.95 1.01988 257.917
    endloop
  endfacet
  facet normal -0 -0.535999 -0.844219
    outer loop
      vertex 145.95 0.681247 260.598
      vertex 145.95 1.01988 260.383
      vertex 155.1 1.01988 260.383
    endloop
  endfacet
  facet normal -1 0 0
    outer loop
      vertex 145.95 0.681247 260.598
      vertex 145.95 1.65 262.008
      vertex 145.95 1.01988 260.383
    endloop
  endfacet
  facet normal 0 -0.535999 -0.844219
    outer loop
      vertex 145.95 0.681247 260.598
      vertex 155.1 1.01988 260.383
      vertex 155.1 0.681247 260.598
    endloop
  endfacet
  facet normal -1 0 0
    outer loop
      vertex 145.95 1.01988 257.917
      vertex 145.95 1.29443 258.21
      vertex 145.95 1.65 256.292
    endloop
  endfacet
  facet normal 0 -0.535999 0.844219
    outer loop
      vertex 145.95 1.01988 257.917
      vertex 155.1 0.681247 257.702
      vertex 155.1 1.01988 257.917
    endloop
  endfacet
  facet normal 0 -0.729708 0.683759
    outer loop
      vertex 145.95 1.01988 257.917
      vertex 155.1 1.01988 257.917
      vertex 155.1 1.29443 258.21
    endloop
  endfacet
  facet normal 0 -0.729708 0.683759
    outer loop
      vertex 145.95 1.01988 257.917
      vertex 155.1 1.29443 258.21
      vertex 145.95 1.29443 258.21
    endloop
  endfacet
  facet normal 0 -0.729708 -0.683759
    outer loop
      vertex 145.95 1.01988 260.383
      vertex 145.95 1.29443 260.09
      vertex 155.1 1.01988 260.383
    endloop
  endfacet
  facet normal -1 0 0
    outer loop
      vertex 145.95 1.01988 260.383
      vertex 145.95 1.65 262.008
      vertex 145.95 1.29443 260.09
    endloop
  endfacet
  facet normal -1 0 0
    outer loop
      vertex 145.95 1.29443 258.21
      vertex 145.95 1.48764 258.561
      vertex 145.95 3.3 259.15
    endloop
  endfacet
  facet normal -1 0 0
    outer loop
      vertex 145.95 1.29443 258.21
      vertex 145.95 3.3 259.15
      vertex 145.95 1.65 256.292
    endloop
  endfacet
  facet normal 0 -0.876047 0.482225
    outer loop
      vertex 145.95 1.29443 258.21
      vertex 155.1 1.29443 258.21
      vertex 155.1 1.48764 258.561
    endloop
  endfacet
  facet normal 0 -0.876047 0.482225
    outer loop
      vertex 145.95 1.29443 258.21
      vertex 155.1 1.48764 258.561
      vertex 145.95 1.48764 258.561
    endloop
  endfacet
  facet normal 0 -0.876047 -0.482225
    outer loop
      vertex 145.95 1.29443 260.09
      vertex 145.95 1.48764 259.739
      vertex 155.1 1.29443 260.09
    endloop
  endfacet
  facet normal -1 0 0
    outer loop
      vertex 145.95 1.29443 260.09
      vertex 145.95 1.65 262.008
      vertex 145.95 3.3 259.15
    endloop
  endfacet
  facet normal -1 0 0
    outer loop
      vertex 145.95 1.29443 260.09
      vertex 145.95 3.3 259.15
      vertex 145.95 1.48764 259.739
    endloop
  endfacet
  facet normal 0 -0.729708 -0.683759
    outer loop
      vertex 145.95 1.29443 260.09
      vertex 155.1 1.29443 260.09
      vertex 155.1 1.01988 260.383
    endloop
  endfacet
  facet normal -1 0 0
    outer loop
      vertex 145.95 1.48764 258.561
      vertex 145.95 1.58738 258.949
      vertex 145.95 3.3 259.15
    endloop
  endfacet
  facet normal 0 -0.968512 0.248967
    outer loop
      vertex 145.95 1.48764 258.561
      vertex 155.1 1.48764 258.561
      vertex 155.1 1.58738 258.949
    endloop
  endfacet
  facet normal 0 -0.968512 0.248967
    outer loop
      vertex 145.95 1.48764 258.561
      vertex 155.1 1.58738 258.949
      vertex 145.95 1.58738 258.949
    endloop
  endfacet
  facet normal 0 -0.968512 -0.248967
    outer loop
      vertex 145.95 1.48764 259.739
      vertex 145.95 1.58738 259.351
      vertex 155.1 1.48764 259.739
    endloop
  endfacet
  facet normal -1 0 0
    outer loop
      vertex 145.95 1.48764 259.739
      vertex 145.95 3.3 259.15
      vertex 145.95 1.58738 259.351
    endloop
  endfacet
  facet normal 0 -0.876047 -0.482225
    outer loop
      vertex 145.95 1.48764 259.739
      vertex 155.1 1.48764 259.739
      vertex 155.1 1.29443 260.09
    endloop
  endfacet
  facet normal -1 0 0
    outer loop
      vertex 145.95 1.58738 258.949
      vertex 145.95 1.58738 259.351
      vertex 145.95 3.3 259.15
    endloop
  endfacet
  facet normal 0 -1 -0
    outer loop
      vertex 145.95 1.58738 258.949
      vertex 155.1 1.58738 258.949
      vertex 155.1 1.58738 259.351
    endloop
  endfacet
  facet normal 0 -1 0
    outer loop
      vertex 145.95 1.58738 258.949
      vertex 155.1 1.58738 259.351
      vertex 145.95 1.58738 259.351
    endloop
  endfacet
  facet normal 0 -0.968512 -0.248967
    outer loop
      vertex 145.95 1.58738 259.351
      vertex 155.1 1.58738 259.351
      vertex 155.1 1.48764 259.739
    endloop
  endfacet
  facet normal -0 0 -1
    outer loop
      vertex 149.9 -13.875 251.35
      vertex 149.9 13.875 251.35
      vertex 155.1 13.875 251.35
    endloop
  endfacet
  facet normal 0 -1 0
    outer loop
      vertex 149.9 -13.875 251.35
      vertex 150.913 -13.875 253.749
      vertex 149.9 -13.875 256.55
    endloop
  endfacet
  facet normal 0 -1 -0
    outer loop
      vertex 149.9 -13.875 251.35
      vertex 151.012 -13.875 253.361
      vertex 150.913 -13.875 253.749
    endloop
  endfacet
  facet normal 0 -1 -0
    outer loop
      vertex 149.9 -13.875 251.35
      vertex 151.206 -13.875 253.01
      vertex 151.012 -13.875 253.361
    endloop
  endfacet
  facet normal 0 -1 -0
    outer loop
      vertex 149.9 -13.875 251.35
      vertex 151.48 -13.875 252.717
      vertex 151.206 -13.875 253.01
    endloop
  endfacet
  facet normal 0 -1 -0
    outer loop
      vertex 149.9 -13.875 251.35
      vertex 151.819 -13.875 252.502
      vertex 151.48 -13.875 252.717
    endloop
  endfacet
  facet normal 0 -1 -0
    outer loop
      vertex 149.9 -13.875 251.35
      vertex 152.2 -13.875 252.378
      vertex 151.819 -13.875 252.502
    endloop
  endfacet
  facet normal 0 -1 -0
    outer loop
      vertex 149.9 -13.875 251.35
      vertex 152.6 -13.875 252.353
      vertex 152.2 -13.875 252.378
    endloop
  endfacet
  facet normal 0 -1 0
    outer loop
      vertex 149.9 -13.875 251.35
      vertex 155.1 -13.875 251.35
      vertex 152.6 -13.875 252.353
    endloop
  endfacet
  facet normal 0 0 -1
    outer loop
      vertex 149.9 -13.875 251.35
      vertex 155.1 13.875 251.35
      vertex 155.1 -13.875 251.35
    endloop
  endfacet
  facet normal 0 -1 0
    outer loop
      vertex 149.9 -13.875 256.55
      vertex 150.913 -13.875 253.749
      vertex 150.913 -13.875 254.151
    endloop
  endfacet
  facet normal 0 -1 0
    outer loop
      vertex 149.9 -13.875 256.55
      vertex 150.913 -13.875 254.151
      vertex 151.012 -13.875 254.539
    endloop
  endfacet
  facet normal 0 -1 0
    outer loop
      vertex 149.9 -13.875 256.55
      vertex 151.012 -13.875 254.539
      vertex 151.206 -13.875 254.89
    endloop
  endfacet
  facet normal 0 -1 0
    outer loop
      vertex 149.9 -13.875 256.55
      vertex 151.206 -13.875 254.89
      vertex 151.48 -13.875 255.183
    endloop
  endfacet
  facet normal 0 -1 0
    outer loop
      vertex 149.9 -13.875 256.55
      vertex 151.48 -13.875 255.183
      vertex 151.819 -13.875 255.398
    endloop
  endfacet
  facet normal 0 -1 0
    outer loop
      vertex 149.9 -13.875 256.55
      vertex 151.819 -13.875 255.398
      vertex 152.2 -13.875 255.522
    endloop
  endfacet
  facet normal 0 -1 0
    outer loop
      vertex 149.9 -13.875 256.55
      vertex 152.2 -13.875 255.522
      vertex 152.6 -13.875 255.547
    endloop
  endfacet
  facet normal 0 -1 0
    outer loop
      vertex 149.9 -13.875 256.55
      vertex 152.6 -13.875 255.547
      vertex 155.1 -13.875 256.55
    endloop
  endfacet
  facet normal 0 -0.460717 0.887547
    outer loop
      vertex 149.9 -13.875 256.55
      vertex 155.1 -13.875 256.55
      vertex 155.1 -2.19689 262.612
    endloop
  endfacet
  facet normal 0 1 0
    outer loop
      vertex 149.9 13.875 251.35
      vertex 149.9 13.875 256.55
      vertex 150.913 13.875 253.749
    endloop
  endfacet
  facet normal 0 1 0
    outer loop
      vertex 149.9 13.875 251.35
      vertex 150.913 13.875 253.749
      vertex 151.012 13.875 253.361
    endloop
  endfacet
  facet normal 0 1 0
    outer loop
      vertex 149.9 13.875 251.35
      vertex 151.012 13.875 253.361
      vertex 151.206 13.875 253.01
    endloop
  endfacet
  facet normal 0 1 0
    outer loop
      vertex 149.9 13.875 251.35
      vertex 151.206 13.875 253.01
      vertex 151.48 13.875 252.717
    endloop
  endfacet
  facet normal 0 1 0
    outer loop
      vertex 149.9 13.875 251.35
      vertex 151.48 13.875 252.717
      vertex 151.819 13.875 252.502
    endloop
  endfacet
  facet normal 0 1 0
    outer loop
      vertex 149.9 13.875 251.35
      vertex 151.819 13.875 252.502
      vertex 152.2 13.875 252.378
    endloop
  endfacet
  facet normal 0 1 0
    outer loop
      vertex 149.9 13.875 251.35
      vertex 152.2 13.875 252.378
      vertex 152.6 13.875 252.353
    endloop
  endfacet
  facet normal 0 1 0
    outer loop
      vertex 149.9 13.875 251.35
      vertex 152.6 13.875 252.353
      vertex 155.1 13.875 251.35
    endloop
  endfacet
  facet normal 0 1 -0
    outer loop
      vertex 149.9 13.875 256.55
      vertex 150.913 13.875 254.151
      vertex 150.913 13.875 253.749
    endloop
  endfacet
  facet normal 0 1 -0
    outer loop
      vertex 149.9 13.875 256.55
      vertex 151.012 13.875 254.539
      vertex 150.913 13.875 254.151
    endloop
  endfacet
  facet normal 0 1 -0
    outer loop
      vertex 149.9 13.875 256.55
      vertex 151.206 13.875 254.89
      vertex 151.012 13.875 254.539
    endloop
  endfacet
  facet normal 0 1 -0
    outer loop
      vertex 149.9 13.875 256.55
      vertex 151.48 13.875 255.183
      vertex 151.206 13.875 254.89
    endloop
  endfacet
  facet normal 0 1 -0
    outer loop
      vertex 149.9 13.875 256.55
      vertex 151.819 13.875 255.398
      vertex 151.48 13.875 255.183
    endloop
  endfacet
  facet normal 0 1 -0
    outer loop
      vertex 149.9 13.875 256.55
      vertex 152.2 13.875 255.522
      vertex 151.819 13.875 255.398
    endloop
  endfacet
  facet normal 0 1 -0
    outer loop
      vertex 149.9 13.875 256.55
      vertex 152.6 13.875 255.547
      vertex 152.2 13.875 255.522
    endloop
  endfacet
  facet normal -0 0.461512 0.887134
    outer loop
      vertex 149.9 13.875 256.55
      vertex 155.1 1.74569 262.86
      vertex 155.1 13.875 256.55
    endloop
  endfacet
  facet normal 0 1 0
    outer loop
      vertex 149.9 13.875 256.55
      vertex 155.1 13.875 256.55
      vertex 152.6 13.875 255.547
    endloop
  endfacet
  facet normal 1 0 0
    outer loop
      vertex 150.913 -13.875 253.749
      vertex 150.913 13.875 253.749
      vertex 150.913 -13.875 254.151
    endloop
  endfacet
  facet normal 0.968956 0 0.247234
    outer loop
      vertex 150.913 -13.875 253.749
      vertex 151.012 -13.875 253.361
      vertex 151.012 13.875 253.361
    endloop
  endfacet
  facet normal 0.968956 -0 0.247234
    outer loop
      vertex 150.913 -13.875 253.749
      vertex 151.012 13.875 253.361
      vertex 150.913 13.875 253.749
    endloop
  endfacet
  facet normal 1 -0 0
    outer loop
      vertex 150.913 -13.875 254.151
      vertex 150.913 13.875 253.749
      vertex 150.913 13.875 254.151
    endloop
  endfacet
  facet normal 0.968956 0 -0.247234
    outer loop
      vertex 150.913 -13.875 254.151
      vertex 150.913 13.875 254.151
      vertex 151.012 -13.875 254.539
    endloop
  endfacet
  facet normal 0.968956 0 -0.247234
    outer loop
      vertex 150.913 13.875 254.151
      vertex 151.012 13.875 254.539
      vertex 151.012 -13.875 254.539
    endloop
  endfacet
  facet normal 0.875214 0 0.483736
    outer loop
      vertex 151.012 -13.875 253.361
      vertex 151.206 -13.875 253.01
      vertex 151.206 13.875 253.01
    endloop
  endfacet
  facet normal 0.875214 -0 0.483736
    outer loop
      vertex 151.012 -13.875 253.361
      vertex 151.206 13.875 253.01
      vertex 151.012 13.875 253.361
    endloop
  endfacet
  facet normal 0.875214 0 -0.483736
    outer loop
      vertex 151.012 -13.875 254.539
      vertex 151.012 13.875 254.539
      vertex 151.206 -13.875 254.89
    endloop
  endfacet
  facet normal 0.875214 0 -0.483736
    outer loop
      vertex 151.012 13.875 254.539
      vertex 151.206 13.875 254.89
      vertex 151.206 -13.875 254.89
    endloop
  endfacet
  facet normal 0.730392 0 0.683028
    outer loop
      vertex 151.206 -13.875 253.01
      vertex 151.48 -13.875 252.717
      vertex 151.48 13.875 252.717
    endloop
  endfacet
  facet normal 0.730392 -0 0.683028
    outer loop
      vertex 151.206 -13.875 253.01
      vertex 151.48 13.875 252.717
      vertex 151.206 13.875 253.01
    endloop
  endfacet
  facet normal 0.730392 0 -0.683028
    outer loop
      vertex 151.206 -13.875 254.89
      vertex 151.206 13.875 254.89
      vertex 151.48 -13.875 255.183
    endloop
  endfacet
  facet normal 0.730392 0 -0.683028
    outer loop
      vertex 151.206 13.875 254.89
      vertex 151.48 13.875 255.183
      vertex 151.48 -13.875 255.183
    endloop
  endfacet
  facet normal 0.535585 0 0.844481
    outer loop
      vertex 151.48 -13.875 252.717
      vertex 151.819 -13.875 252.502
      vertex 151.48 13.875 252.717
    endloop
  endfacet
  facet normal 0.535585 0 -0.844481
    outer loop
      vertex 151.48 -13.875 255.183
      vertex 151.48 13.875 255.183
      vertex 151.819 13.875 255.398
    endloop
  endfacet
  facet normal 0.535585 0 -0.844481
    outer loop
      vertex 151.48 -13.875 255.183
      vertex 151.819 13.875 255.398
      vertex 151.819 -13.875 255.398
    endloop
  endfacet
  facet normal 0.535585 0 0.844481
    outer loop
      vertex 151.48 13.875 252.717
      vertex 151.819 -13.875 252.502
      vertex 151.819 13.875 252.502
    endloop
  endfacet
  facet normal 0.309481 0 0.950906
    outer loop
      vertex 151.819 -13.875 252.502
      vertex 152.2 -13.875 252.378
      vertex 151.819 13.875 252.502
    endloop
  endfacet
  facet normal 0.309481 0 -0.950906
    outer loop
      vertex 151.819 -13.875 255.398
      vertex 151.819 13.875 255.398
      vertex 152.2 13.875 255.522
    endloop
  endfacet
  facet normal 0.309481 0 -0.950906
    outer loop
      vertex 151.819 -13.875 255.398
      vertex 152.2 13.875 255.522
      vertex 152.2 -13.875 255.522
    endloop
  endfacet
  facet normal 0.309481 0 0.950906
    outer loop
      vertex 151.819 13.875 252.502
      vertex 152.2 -13.875 252.378
      vertex 152.2 13.875 252.378
    endloop
  endfacet
  facet normal 0.0623783 0 0.998053
    outer loop
      vertex 152.2 -13.875 252.378
      vertex 152.6 -13.875 252.353
      vertex 152.2 13.875 252.378
    endloop
  endfacet
  facet normal 0.0623783 0 -0.998053
    outer loop
      vertex 152.2 -13.875 255.522
      vertex 152.2 13.875 255.522
      vertex 152.6 13.875 255.547
    endloop
  endfacet
  facet normal 0.0623783 0 -0.998053
    outer loop
      vertex 152.2 -13.875 255.522
      vertex 152.6 13.875 255.547
      vertex 152.6 -13.875 255.547
    endloop
  endfacet
  facet normal 0.0623783 0 0.998053
    outer loop
      vertex 152.2 13.875 252.378
      vertex 152.6 -13.875 252.353
      vertex 152.6 13.875 252.353
    endloop
  endfacet
  facet normal -0.186998 0 0.98236
    outer loop
      vertex 152.6 -13.875 252.353
      vertex 152.994 -13.875 252.428
      vertex 152.6 13.875 252.353
    endloop
  endfacet
  facet normal 0 -1 0
    outer loop
      vertex 152.6 -13.875 252.353
      vertex 155.1 -13.875 251.35
      vertex 152.994 -13.875 252.428
    endloop
  endfacet
  facet normal -0.186998 0 -0.98236
    outer loop
      vertex 152.6 -13.875 255.547
      vertex 152.6 13.875 255.547
      vertex 152.994 13.875 255.472
    endloop
  endfacet
  facet normal 0 -1 0
    outer loop
      vertex 152.6 -13.875 255.547
      vertex 152.994 -13.875 255.472
      vertex 155.1 -13.875 256.55
    endloop
  endfacet
  facet normal -0.186998 0 -0.98236
    outer loop
      vertex 152.6 -13.875 255.547
      vertex 152.994 13.875 255.472
      vertex 152.994 -13.875 255.472
    endloop
  endfacet
  facet normal -0.186998 0 0.98236
    outer loop
      vertex 152.6 13.875 252.353
      vertex 152.994 -13.875 252.428
      vertex 152.994 13.875 252.428
    endloop
  endfacet
  facet normal 0 1 0
    outer loop
      vertex 152.6 13.875 252.353
      vertex 152.994 13.875 252.428
      vertex 155.1 13.875 251.35
    endloop
  endfacet
  facet normal 0 1 0
    outer loop
      vertex 152.6 13.875 255.547
      vertex 155.1 13.875 256.55
      vertex 152.994 13.875 255.472
    endloop
  endfacet
  facet normal -0.426157 0 0.904649
    outer loop
      vertex 152.994 -13.875 252.428
      vertex 153.357 -13.875 252.599
      vertex 152.994 13.875 252.428
    endloop
  endfacet
  facet normal 0 -1 0
    outer loop
      vertex 152.994 -13.875 252.428
      vertex 155.1 -13.875 251.35
      vertex 153.357 -13.875 252.599
    endloop
  endfacet
  facet normal -0.426157 0 -0.904649
    outer loop
      vertex 152.994 -13.875 255.472
      vertex 152.994 13.875 255.472
      vertex 153.357 13.875 255.301
    endloop
  endfacet
  facet normal 0 -1 0
    outer loop
      vertex 152.994 -13.875 255.472
      vertex 153.357 -13.875 255.301
      vertex 155.1 -13.875 256.55
    endloop
  endfacet
  facet normal -0.426157 0 -0.904649
    outer loop
      vertex 152.994 -13.875 255.472
      vertex 153.357 13.875 255.301
      vertex 153.357 -13.875 255.301
    endloop
  endfacet
  facet normal -0.426157 0 0.904649
    outer loop
      vertex 152.994 13.875 252.428
      vertex 153.357 -13.875 252.599
      vertex 153.357 13.875 252.599
    endloop
  endfacet
  facet normal 0 1 0
    outer loop
      vertex 152.994 13.875 252.428
      vertex 153.357 13.875 252.599
      vertex 155.1 13.875 251.35
    endloop
  endfacet
  facet normal 0 1 0
    outer loop
      vertex 152.994 13.875 255.472
      vertex 155.1 13.875 256.55
      vertex 153.357 13.875 255.301
    endloop
  endfacet
  facet normal -0.637976 0 0.770057
    outer loop
      vertex 153.357 -13.875 252.599
      vertex 153.666 -13.875 252.855
      vertex 153.357 13.875 252.599
    endloop
  endfacet
  facet normal 0 -1 0
    outer loop
      vertex 153.357 -13.875 252.599
      vertex 155.1 -13.875 251.35
      vertex 153.666 -13.875 252.855
    endloop
  endfacet
  facet normal -0.637976 0 -0.770057
    outer loop
      vertex 153.357 -13.875 255.301
      vertex 153.357 13.875 255.301
      vertex 153.666 13.875 255.045
    endloop
  endfacet
  facet normal 0 -1 0
    outer loop
      vertex 153.357 -13.875 255.301
      vertex 153.666 -13.875 255.045
      vertex 155.1 -13.875 256.55
    endloop
  endfacet
  facet normal -0.637976 0 -0.770057
    outer loop
      vertex 153.357 -13.875 255.301
      vertex 153.666 13.875 255.045
      vertex 153.666 -13.875 255.045
    endloop
  endfacet
  facet normal -0.637976 0 0.770057
    outer loop
      vertex 153.357 13.875 252.599
      vertex 153.666 -13.875 252.855
      vertex 153.666 13.875 252.855
    endloop
  endfacet
  facet normal 0 1 0
    outer loop
      vertex 153.357 13.875 252.599
      vertex 153.666 13.875 252.855
      vertex 155.1 13.875 251.35
    endloop
  endfacet
  facet normal 0 1 0
    outer loop
      vertex 153.357 13.875 255.301
      vertex 155.1 13.875 256.55
      vertex 153.666 13.875 255.045
    endloop
  endfacet
  facet normal -0.808304 0 0.588765
    outer loop
      vertex 153.666 -13.875 252.855
      vertex 153.902 -13.875 253.179
      vertex 153.902 13.875 253.179
    endloop
  endfacet
  facet normal -0.808304 0 0.588765
    outer loop
      vertex 153.666 -13.875 252.855
      vertex 153.902 13.875 253.179
      vertex 153.666 13.875 252.855
    endloop
  endfacet
  facet normal 0 -1 0
    outer loop
      vertex 153.666 -13.875 252.855
      vertex 155.1 -13.875 251.35
      vertex 153.902 -13.875 253.179
    endloop
  endfacet
  facet normal -0.808304 -0 -0.588765
    outer loop
      vertex 153.666 -13.875 255.045
      vertex 153.666 13.875 255.045
      vertex 153.902 -13.875 254.721
    endloop
  endfacet
  facet normal 0 -1 0
    outer loop
      vertex 153.666 -13.875 255.045
      vertex 153.902 -13.875 254.721
      vertex 155.1 -13.875 256.55
    endloop
  endfacet
  facet normal 0 1 0
    outer loop
      vertex 153.666 13.875 252.855
      vertex 153.902 13.875 253.179
      vertex 155.1 13.875 251.35
    endloop
  endfacet
  facet normal -0.808304 0 -0.588765
    outer loop
      vertex 153.666 13.875 255.045
      vertex 153.902 13.875 254.721
      vertex 153.902 -13.875 254.721
    endloop
  endfacet
  facet normal 0 1 0
    outer loop
      vertex 153.666 13.875 255.045
      vertex 155.1 13.875 256.55
      vertex 153.902 13.875 254.721
    endloop
  endfacet
  facet normal -0.929504 0 0.368811
    outer loop
      vertex 153.902 -13.875 253.179
      vertex 154.05 -13.875 253.552
      vertex 154.05 13.875 253.552
    endloop
  endfacet
  facet normal -0.929504 0 0.368811
    outer loop
      vertex 153.902 -13.875 253.179
      vertex 154.05 13.875 253.552
      vertex 153.902 13.875 253.179
    endloop
  endfacet
  facet normal 0 -1 0
    outer loop
      vertex 153.902 -13.875 253.179
      vertex 155.1 -13.875 251.35
      vertex 154.05 -13.875 253.552
    endloop
  endfacet
  facet normal -0.929504 -0 -0.368811
    outer loop
      vertex 153.902 -13.875 254.721
      vertex 153.902 13.875 254.721
      vertex 154.05 -13.875 254.348
    endloop
  endfacet
  facet normal 0 -1 0
    outer loop
      vertex 153.902 -13.875 254.721
      vertex 154.05 -13.875 254.348
      vertex 155.1 -13.875 256.55
    endloop
  endfacet
  facet normal 0 1 0
    outer loop
      vertex 153.902 13.875 253.179
      vertex 154.05 13.875 253.552
      vertex 155.1 13.875 251.35
    endloop
  endfacet
  facet normal -0.929504 0 -0.368811
    outer loop
      vertex 153.902 13.875 254.721
      vertex 154.05 13.875 254.348
      vertex 154.05 -13.875 254.348
    endloop
  endfacet
  facet normal 0 1 0
    outer loop
      vertex 153.902 13.875 254.721
      vertex 155.1 13.875 256.55
      vertex 154.05 13.875 254.348
    endloop
  endfacet
  facet normal -0.992201 0 0.124648
    outer loop
      vertex 154.05 -13.875 253.552
      vertex 154.1 -13.875 253.95
      vertex 154.1 13.875 253.95
    endloop
  endfacet
  facet normal -0.992201 0 0.124648
    outer loop
      vertex 154.05 -13.875 253.552
      vertex 154.1 13.875 253.95
      vertex 154.05 13.875 253.552
    endloop
  endfacet
  facet normal 0 -1 0
    outer loop
      vertex 154.05 -13.875 253.552
      vertex 155.1 -13.875 251.35
      vertex 154.1 -13.875 253.95
    endloop
  endfacet
  facet normal -0.992201 -0 -0.124648
    outer loop
      vertex 154.05 -13.875 254.348
      vertex 154.05 13.875 254.348
      vertex 154.1 -13.875 253.95
    endloop
  endfacet
  facet normal 0 -1 0
    outer loop
      vertex 154.05 -13.875 254.348
      vertex 154.1 -13.875 253.95
      vertex 155.1 -13.875 256.55
    endloop
  endfacet
  facet normal 0 1 0
    outer loop
      vertex 154.05 13.875 253.552
      vertex 154.1 13.875 253.95
      vertex 155.1 13.875 251.35
    endloop
  endfacet
  facet normal -0.992201 0 -0.124648
    outer loop
      vertex 154.05 13.875 254.348
      vertex 154.1 13.875 253.95
      vertex 154.1 -13.875 253.95
    endloop
  endfacet
  facet normal 0 1 0
    outer loop
      vertex 154.05 13.875 254.348
      vertex 155.1 13.875 256.55
      vertex 154.1 13.875 253.95
    endloop
  endfacet
  facet normal 0 -1 0
    outer loop
      vertex 154.1 -13.875 253.95
      vertex 155.1 -13.875 251.35
      vertex 155.1 -13.875 256.55
    endloop
  endfacet
  facet normal 0 1 -0
    outer loop
      vertex 154.1 13.875 253.95
      vertex 155.1 13.875 256.55
      vertex 155.1 13.875 251.35
    endloop
  endfacet
  facet normal 1 -0 0
    outer loop
      vertex 155.1 -0.100465 257.553
      vertex 155.1 13.875 251.35
      vertex 155.1 0.299809 257.578
    endloop
  endfacet
  facet normal 1 0 0
    outer loop
      vertex 155.1 -0.100465 260.747
      vertex 155.1 0.299809 260.722
      vertex 155.1 0.768263 263.177
    endloop
  endfacet
  facet normal 1 0 0
    outer loop
      vertex 155.1 -0.257441 263.242
      vertex 155.1 -0.100465 260.747
      vertex 155.1 0.768263 263.177
    endloop
  endfacet
  facet normal 1 0 0
    outer loop
      vertex 155.1 -0.494427 260.672
      vertex 155.1 -0.100465 260.747
      vertex 155.1 -0.257441 263.242
    endloop
  endfacet
  facet normal 1 -0 0
    outer loop
      vertex 155.1 -1.26697 263.049
      vertex 155.1 -0.494427 260.672
      vertex 155.1 -0.257441 263.242
    endloop
  endfacet
  facet normal 1 0 0
    outer loop
      vertex 155.1 -1.26697 263.049
      vertex 155.1 -0.857323 260.501
      vertex 155.1 -0.494427 260.672
    endloop
  endfacet
  facet normal 1 0 0
    outer loop
      vertex 155.1 -13.875 251.35
      vertex 155.1 -0.100465 257.553
      vertex 155.1 -0.494427 257.628
    endloop
  endfacet
  facet normal 1 0 0
    outer loop
      vertex 155.1 -13.875 251.35
      vertex 155.1 -0.494427 257.628
      vertex 155.1 -0.857323 257.799
    endloop
  endfacet
  facet normal 1 0 0
    outer loop
      vertex 155.1 -13.875 251.35
      vertex 155.1 -0.857323 257.799
      vertex 155.1 -1.16635 258.055
    endloop
  endfacet
  facet normal 1 0 0
    outer loop
      vertex 155.1 -13.875 251.35
      vertex 155.1 -1.16635 258.055
      vertex 155.1 -13.875 256.55
    endloop
  endfacet
  facet normal 1 0 0
    outer loop
      vertex 155.1 -13.875 251.35
      vertex 155.1 13.875 251.35
      vertex 155.1 -0.100465 257.553
    endloop
  endfacet
  facet normal 1 0 0
    outer loop
      vertex 155.1 -13.875 256.55
      vertex 155.1 -1.16635 258.055
      vertex 155.1 -1.40209 258.379
    endloop
  endfacet
  facet normal 1 0 0
    outer loop
      vertex 155.1 -13.875 256.55
      vertex 155.1 -1.40209 258.379
      vertex 155.1 -1.54973 258.752
    endloop
  endfacet
  facet normal 1 0 0
    outer loop
      vertex 155.1 -13.875 256.55
      vertex 155.1 -1.54973 258.752
      vertex 155.1 -1.6 259.15
    endloop
  endfacet
  facet normal 1 0 0
    outer loop
      vertex 155.1 -13.875 256.55
      vertex 155.1 -1.6 259.15
      vertex 155.1 -2.19689 262.612
    endloop
  endfacet
  facet normal 1 -0 0
    outer loop
      vertex 155.1 -2.19689 262.612
      vertex 155.1 -0.857323 260.501
      vertex 155.1 -1.26697 263.049
    endloop
  endfacet
  facet normal 1 0 0
    outer loop
      vertex 155.1 -2.19689 262.612
      vertex 155.1 -1.16635 260.245
      vertex 155.1 -0.857323 260.501
    endloop
  endfacet
  facet normal 1 0 0
    outer loop
      vertex 155.1 -2.19689 262.612
      vertex 155.1 -1.40209 259.921
      vertex 155.1 -1.16635 260.245
    endloop
  endfacet
  facet normal 1 0 0
    outer loop
      vertex 155.1 -2.19689 262.612
      vertex 155.1 -1.54973 259.548
      vertex 155.1 -1.40209 259.921
    endloop
  endfacet
  facet normal 1 0 0
    outer loop
      vertex 155.1 -2.19689 262.612
      vertex 155.1 -1.6 259.15
      vertex 155.1 -1.54973 259.548
    endloop
  endfacet
  facet normal 1 -0 0
    outer loop
      vertex 155.1 0.299809 257.578
      vertex 155.1 13.875 251.35
      vertex 155.1 0.681247 257.702
    endloop
  endfacet
  facet normal 1 0 0
    outer loop
      vertex 155.1 0.299809 260.722
      vertex 155.1 0.681247 260.598
      vertex 155.1 0.768263 263.177
    endloop
  endfacet
  facet normal 1 -0 0
    outer loop
      vertex 155.1 0.681247 257.702
      vertex 155.1 13.875 251.35
      vertex 155.1 1.01988 257.917
    endloop
  endfacet
  facet normal 1 0 0
    outer loop
      vertex 155.1 0.681247 260.598
      vertex 155.1 1.01988 260.383
      vertex 155.1 1.74569 262.86
    endloop
  endfacet
  facet normal 1 0 0
    outer loop
      vertex 155.1 0.681247 260.598
      vertex 155.1 1.74569 262.86
      vertex 155.1 0.768263 263.177
    endloop
  endfacet
  facet normal 1 -0 0
    outer loop
      vertex 155.1 1.01988 257.917
      vertex 155.1 13.875 251.35
      vertex 155.1 1.29443 258.21
    endloop
  endfacet
  facet normal 1 0 0
    outer loop
      vertex 155.1 1.01988 260.383
      vertex 155.1 1.29443 260.09
      vertex 155.1 1.74569 262.86
    endloop
  endfacet
  facet normal 1 0 0
    outer loop
      vertex 155.1 1.29443 258.21
      vertex 155.1 13.875 251.35
      vertex 155.1 13.875 256.55
    endloop
  endfacet
  facet normal 1 -0 0
    outer loop
      vertex 155.1 1.29443 258.21
      vertex 155.1 13.875 256.55
      vertex 155.1 1.48764 258.561
    endloop
  endfacet
  facet normal 1 0 0
    outer loop
      vertex 155.1 1.29443 260.09
      vertex 155.1 1.48764 259.739
      vertex 155.1 1.74569 262.86
    endloop
  endfacet
  facet normal 1 -0 0
    outer loop
      vertex 155.1 1.48764 258.561
      vertex 155.1 13.875 256.55
      vertex 155.1 1.58738 258.949
    endloop
  endfacet
  facet normal 1 0 0
    outer loop
      vertex 155.1 1.48764 259.739
      vertex 155.1 1.58738 259.351
      vertex 155.1 1.74569 262.86
    endloop
  endfacet
  facet normal 1 -0 0
    outer loop
      vertex 155.1 1.58738 258.949
      vertex 155.1 13.875 256.55
      vertex 155.1 1.58738 259.351
    endloop
  endfacet
  facet normal 1 -0 0
    outer loop
      vertex 155.1 1.58738 259.351
      vertex 155.1 13.875 256.55
      vertex 155.1 1.74569 262.86
    endloop
  endfacet
endsolid model
