solid OpenSCAD_Model
  facet normal -0.965664 -0.259793 0
    outer loop
      vertex 135.245 -1.54508 -10
      vertex 135.109 -1.03956 129.5
      vertex 135.109 -1.03956 -10
    endloop
  endfacet
  facet normal -0.965664 -0.259793 0
    outer loop
      vertex 135.109 -1.03956 129.5
      vertex 135.245 -1.54508 -10
      vertex 135.245 -1.54508 129.5
    endloop
  endfacet
  facet normal 0 1 -0
    outer loop
      vertex 197 10 -10
      vertex 150 10 129.5
      vertex 197 10 129.5
    endloop
  endfacet
  facet normal 0 1 0
    outer loop
      vertex 150 10 129.5
      vertex 197 10 -10
      vertex 150 10 -10
    endloop
  endfacet
  facet normal -0.933936 0.357442 0
    outer loop
      vertex 135.245 1.54508 -10
      vertex 135.432 2.03368 129.5
      vertex 135.432 2.03368 -10
    endloop
  endfacet
  facet normal -0.933936 0.357442 0
    outer loop
      vertex 135.432 2.03368 129.5
      vertex 135.245 1.54508 -10
      vertex 135.245 1.54508 129.5
    endloop
  endfacet
  facet normal 1 -0 0
    outer loop
      vertex 197 -10 129.5
      vertex 197 10 -10
      vertex 197 10 129.5
    endloop
  endfacet
  facet normal 1 0 0
    outer loop
      vertex 197 10 -10
      vertex 197 -10 129.5
      vertex 197 -10 -10
    endloop
  endfacet
  facet normal 0 0 -1
    outer loop
      vertex 150 -10 -10
      vertex 197 10 -10
      vertex 197 -10 -10
    endloop
  endfacet
  facet normal 0 0 -1
    outer loop
      vertex 150 -10 -10
      vertex 150 10 -10
      vertex 197 10 -10
    endloop
  endfacet
  facet normal 0 0 -1
    outer loop
      vertex 150 -10 -10
      vertex 149.846 9.93062 -10
      vertex 150 10 -10
    endloop
  endfacet
  facet normal 0 0 -1
    outer loop
      vertex 141.3 0 -10
      vertex 149.846 9.93062 -10
      vertex 150 -10 -10
    endloop
  endfacet
  facet normal 0 0 -1
    outer loop
      vertex 140.59 18.8417 -10
      vertex 149.846 9.93062 -10
      vertex 141.924 6.35436 -10
    endloop
  endfacet
  facet normal 0 -0 -1
    outer loop
      vertex 141.158 19.4098 -10
      vertex 149.846 9.93062 -10
      vertex 141.052 19.2359 -10
    endloop
  endfacet
  facet normal 0 -0 -1
    outer loop
      vertex 141.236 19.5983 -10
      vertex 143.119 21.589 -10
      vertex 141.158 19.4098 -10
    endloop
  endfacet
  facet normal 0 -0 -1
    outer loop
      vertex 141.3 20 -10
      vertex 143.119 21.589 -10
      vertex 141.284 19.7966 -10
    endloop
  endfacet
  facet normal 0 0 -1
    outer loop
      vertex 149.846 9.93062 -10
      vertex 141.3 0 -10
      vertex 141.293 0.135886 -10
    endloop
  endfacet
  facet normal 0 0 -1
    outer loop
      vertex 150 -10 -10
      vertex 141.293 -0.135886 -10
      vertex 141.3 0 -10
    endloop
  endfacet
  facet normal 0 0 -1
    outer loop
      vertex 150 -10 -10
      vertex 141.272 -0.270285 -10
      vertex 141.293 -0.135886 -10
    endloop
  endfacet
  facet normal 0 0 -1
    outer loop
      vertex 150 -10 -10
      vertex 141.236 -0.401722 -10
      vertex 141.272 -0.270285 -10
    endloop
  endfacet
  facet normal 0 0 -1
    outer loop
      vertex 150 -10 -10
      vertex 141.188 -0.528757 -10
      vertex 141.236 -0.401722 -10
    endloop
  endfacet
  facet normal 0 0 -1
    outer loop
      vertex 150 -10 -10
      vertex 141.126 -0.65 -10
      vertex 141.188 -0.528757 -10
    endloop
  endfacet
  facet normal 0 0 -1
    outer loop
      vertex 150 -10 -10
      vertex 141.052 -0.76412 -10
      vertex 141.126 -0.65 -10
    endloop
  endfacet
  facet normal 0 0 -1
    outer loop
      vertex 150 -10 -10
      vertex 140.966 -0.869869 -10
      vertex 141.052 -0.76412 -10
    endloop
  endfacet
  facet normal 0 0 -1
    outer loop
      vertex 150 -10 -10
      vertex 140.87 -0.966087 -10
      vertex 140.966 -0.869869 -10
    endloop
  endfacet
  facet normal 0 0 -1
    outer loop
      vertex 150 -10 -10
      vertex 140.764 -1.05172 -10
      vertex 140.87 -0.966087 -10
    endloop
  endfacet
  facet normal 0 0 -1
    outer loop
      vertex 150 -10 -10
      vertex 140.65 -1.12583 -10
      vertex 140.764 -1.05172 -10
    endloop
  endfacet
  facet normal 0 0 -1
    outer loop
      vertex 137.966 -4.56773 -10
      vertex 140.65 -1.12583 -10
      vertex 150 -10 -10
    endloop
  endfacet
  facet normal 0 0 -1
    outer loop
      vertex 140.65 -1.12583 -10
      vertex 137.966 -4.56773 -10
      vertex 140.529 -1.18761 -10
    endloop
  endfacet
  facet normal 0 0 -1
    outer loop
      vertex 140.529 -1.18761 -10
      vertex 137.966 -4.56773 -10
      vertex 140.402 -1.23637 -10
    endloop
  endfacet
  facet normal 0 0 -1
    outer loop
      vertex 140.402 -1.23637 -10
      vertex 137.966 -4.56773 -10
      vertex 140.27 -1.27159 -10
    endloop
  endfacet
  facet normal 0 0 -1
    outer loop
      vertex 140.27 -1.27159 -10
      vertex 137.966 -4.56773 -10
      vertex 140.136 -1.29288 -10
    endloop
  endfacet
  facet normal 0 0 -1
    outer loop
      vertex 140.136 -1.29288 -10
      vertex 137.966 -4.56773 -10
      vertex 140 -1.3 -10
    endloop
  endfacet
  facet normal -0 0 -1
    outer loop
      vertex 140 -1.3 -10
      vertex 137.966 -4.56773 -10
      vertex 139.864 -1.29288 -10
    endloop
  endfacet
  facet normal -0 0 -1
    outer loop
      vertex 139.864 -1.29288 -10
      vertex 137.966 -4.56773 -10
      vertex 139.73 -1.27159 -10
    endloop
  endfacet
  facet normal -0 0 -1
    outer loop
      vertex 139.73 -1.27159 -10
      vertex 137.966 -4.56773 -10
      vertex 139.598 -1.23637 -10
    endloop
  endfacet
  facet normal -0 0 -1
    outer loop
      vertex 139.598 -1.23637 -10
      vertex 137.966 -4.56773 -10
      vertex 139.471 -1.18761 -10
    endloop
  endfacet
  facet normal -0 0 -1
    outer loop
      vertex 139.471 -1.18761 -10
      vertex 137.966 -4.56773 -10
      vertex 139.35 -1.12583 -10
    endloop
  endfacet
  facet normal 0 0 -1
    outer loop
      vertex 137.5 -4.33013 -10
      vertex 139.35 -1.12583 -10
      vertex 137.966 -4.56773 -10
    endloop
  endfacet
  facet normal -0 0 -1
    outer loop
      vertex 138.948 -0.76412 -10
      vertex 135.955 -2.93893 -10
      vertex 138.874 -0.65 -10
    endloop
  endfacet
  facet normal 0 0 -1
    outer loop
      vertex 135.955 -2.93893 -10
      vertex 138.948 -0.76412 -10
      vertex 136.284 -3.34565 -10
    endloop
  endfacet
  facet normal -0 0 -1
    outer loop
      vertex 139.034 -0.869869 -10
      vertex 136.284 -3.34565 -10
      vertex 138.948 -0.76412 -10
    endloop
  endfacet
  facet normal 0 0 -1
    outer loop
      vertex 136.284 -3.34565 -10
      vertex 139.034 -0.869869 -10
      vertex 136.654 -3.71572 -10
    endloop
  endfacet
  facet normal -0 0 -1
    outer loop
      vertex 139.13 -0.966087 -10
      vertex 136.654 -3.71572 -10
      vertex 139.034 -0.869869 -10
    endloop
  endfacet
  facet normal 0 0 -1
    outer loop
      vertex 136.654 -3.71572 -10
      vertex 139.13 -0.966087 -10
      vertex 137.061 -4.04508 -10
    endloop
  endfacet
  facet normal -0 0 -1
    outer loop
      vertex 139.236 -1.05172 -10
      vertex 137.061 -4.04508 -10
      vertex 139.13 -0.966087 -10
    endloop
  endfacet
  facet normal 0 0 -1
    outer loop
      vertex 137.061 -4.04508 -10
      vertex 139.236 -1.05172 -10
      vertex 137.5 -4.33013 -10
    endloop
  endfacet
  facet normal -0 0 -1
    outer loop
      vertex 139.35 -1.12583 -10
      vertex 137.5 -4.33013 -10
      vertex 139.236 -1.05172 -10
    endloop
  endfacet
  facet normal 0 0 -1
    outer loop
      vertex 141.236 20.4017 -10
      vertex 143.119 21.589 -10
      vertex 141.284 20.2034 -10
    endloop
  endfacet
  facet normal -0 0 -1
    outer loop
      vertex 143.119 21.589 -10
      vertex 141.158 20.5902 -10
      vertex 142.832 22.0572 -10
    endloop
  endfacet
  facet normal 0 0 -1
    outer loop
      vertex 141.158 20.5902 -10
      vertex 143.119 21.589 -10
      vertex 141.236 20.4017 -10
    endloop
  endfacet
  facet normal 0 0 -1
    outer loop
      vertex 141.284 20.2034 -10
      vertex 143.119 21.589 -10
      vertex 141.3 20 -10
    endloop
  endfacet
  facet normal 0 -0 -1
    outer loop
      vertex 141.284 19.7966 -10
      vertex 143.119 21.589 -10
      vertex 141.236 19.5983 -10
    endloop
  endfacet
  facet normal 0 0 -1
    outer loop
      vertex 149.846 9.93062 -10
      vertex 141.158 19.4098 -10
      vertex 143.119 21.589 -10
    endloop
  endfacet
  facet normal 0 0 -1
    outer loop
      vertex 149.846 9.93062 -10
      vertex 140.919 19.0808 -10
      vertex 141.052 19.2359 -10
    endloop
  endfacet
  facet normal 0 0 -1
    outer loop
      vertex 149.846 9.93062 -10
      vertex 140.764 18.9483 -10
      vertex 140.919 19.0808 -10
    endloop
  endfacet
  facet normal 0 0 -1
    outer loop
      vertex 149.846 9.93062 -10
      vertex 140.59 18.8417 -10
      vertex 140.764 18.9483 -10
    endloop
  endfacet
  facet normal 0 0 -1
    outer loop
      vertex 141.924 6.35436 -10
      vertex 140.402 18.7636 -10
      vertex 140.59 18.8417 -10
    endloop
  endfacet
  facet normal 0 0 -1
    outer loop
      vertex 141.924 6.35436 -10
      vertex 140.203 18.716 -10
      vertex 140.402 18.7636 -10
    endloop
  endfacet
  facet normal 0 0 -1
    outer loop
      vertex 141.924 6.35436 -10
      vertex 140 18.7 -10
      vertex 140.203 18.716 -10
    endloop
  endfacet
  facet normal 0 0 -1
    outer loop
      vertex 141.924 6.35436 -10
      vertex 139.797 18.716 -10
      vertex 140 18.7 -10
    endloop
  endfacet
  facet normal 0 0 -1
    outer loop
      vertex 136.881 18.411 -10
      vertex 139.797 18.716 -10
      vertex 141.924 6.35436 -10
    endloop
  endfacet
  facet normal -0 0 -1
    outer loop
      vertex 139.797 18.716 -10
      vertex 136.881 18.411 -10
      vertex 139.598 18.7636 -10
    endloop
  endfacet
  facet normal -0 0 -1
    outer loop
      vertex 139.598 18.7636 -10
      vertex 136.881 18.411 -10
      vertex 139.41 18.8417 -10
    endloop
  endfacet
  facet normal -0 0 -1
    outer loop
      vertex 139.41 18.8417 -10
      vertex 136.881 18.411 -10
      vertex 139.236 18.9483 -10
    endloop
  endfacet
  facet normal -0 0 -1
    outer loop
      vertex 139.236 18.9483 -10
      vertex 136.881 18.411 -10
      vertex 139.081 19.0808 -10
    endloop
  endfacet
  facet normal -0 0 -1
    outer loop
      vertex 139.081 19.0808 -10
      vertex 136.881 18.411 -10
      vertex 138.948 19.2359 -10
    endloop
  endfacet
  facet normal -0 0 -1
    outer loop
      vertex 138.948 19.2359 -10
      vertex 136.881 18.411 -10
      vertex 138.842 19.4098 -10
    endloop
  endfacet
  facet normal -0 0 -1
    outer loop
      vertex 138.842 19.4098 -10
      vertex 136.881 18.411 -10
      vertex 138.764 19.5983 -10
    endloop
  endfacet
  facet normal 0 0 -1
    outer loop
      vertex 136.5 20 -10
      vertex 138.7 20 -10
      vertex 138.716 19.7966 -10
    endloop
  endfacet
  facet normal 0 0 -1
    outer loop
      vertex 138.7 20 -10
      vertex 137.943 22.8316 -10
      vertex 138.411 23.1185 -10
    endloop
  endfacet
  facet normal 0 0 -1
    outer loop
      vertex 136.671 18.9184 -10
      vertex 138.764 19.5983 -10
      vertex 136.881 18.411 -10
    endloop
  endfacet
  facet normal -0 0 -1
    outer loop
      vertex 138.764 19.5983 -10
      vertex 136.671 18.9184 -10
      vertex 138.716 19.7966 -10
    endloop
  endfacet
  facet normal 0 0 -1
    outer loop
      vertex 138.7 20 -10
      vertex 137.525 22.4749 -10
      vertex 137.943 22.8316 -10
    endloop
  endfacet
  facet normal 0 0 -1
    outer loop
      vertex 138.7 20 -10
      vertex 137.168 22.0572 -10
      vertex 137.525 22.4749 -10
    endloop
  endfacet
  facet normal 0 0 -1
    outer loop
      vertex 138.7 20 -10
      vertex 136.881 21.589 -10
      vertex 137.168 22.0572 -10
    endloop
  endfacet
  facet normal 0 0 -1
    outer loop
      vertex 136.543 19.4525 -10
      vertex 138.716 19.7966 -10
      vertex 136.671 18.9184 -10
    endloop
  endfacet
  facet normal 0 0 -1
    outer loop
      vertex 138.7 20 -10
      vertex 136.671 21.0816 -10
      vertex 136.881 21.589 -10
    endloop
  endfacet
  facet normal 0 0 -1
    outer loop
      vertex 136.5 20 -10
      vertex 138.716 19.7966 -10
      vertex 136.543 19.4525 -10
    endloop
  endfacet
  facet normal 0 0 -1
    outer loop
      vertex 138.7 20 -10
      vertex 136.543 20.5475 -10
      vertex 136.671 21.0816 -10
    endloop
  endfacet
  facet normal 0 0 -1
    outer loop
      vertex 138.7 20 -10
      vertex 136.5 20 -10
      vertex 136.543 20.5475 -10
    endloop
  endfacet
  facet normal 0 0 -1
    outer loop
      vertex 141.272 0.270285 -10
      vertex 149.846 9.93062 -10
      vertex 141.293 0.135886 -10
    endloop
  endfacet
  facet normal 0 0 -1
    outer loop
      vertex 141.236 0.401722 -10
      vertex 149.846 9.93062 -10
      vertex 141.272 0.270285 -10
    endloop
  endfacet
  facet normal 0 0 -1
    outer loop
      vertex 149.846 9.93062 -10
      vertex 141.236 0.401722 -10
      vertex 141.924 6.35436 -10
    endloop
  endfacet
  facet normal 0 0 -1
    outer loop
      vertex 141.188 0.528757 -10
      vertex 141.924 6.35436 -10
      vertex 141.236 0.401722 -10
    endloop
  endfacet
  facet normal 0 0 -1
    outer loop
      vertex 141.126 0.65 -10
      vertex 141.924 6.35436 -10
      vertex 141.188 0.528757 -10
    endloop
  endfacet
  facet normal 0 0 -1
    outer loop
      vertex 141.052 0.76412 -10
      vertex 141.924 6.35436 -10
      vertex 141.126 0.65 -10
    endloop
  endfacet
  facet normal 0 0 -1
    outer loop
      vertex 140.966 0.869869 -10
      vertex 141.924 6.35436 -10
      vertex 141.052 0.76412 -10
    endloop
  endfacet
  facet normal 0 0 -1
    outer loop
      vertex 140.87 0.966087 -10
      vertex 141.924 6.35436 -10
      vertex 140.966 0.869869 -10
    endloop
  endfacet
  facet normal 0 0 -1
    outer loop
      vertex 140.764 1.05172 -10
      vertex 141.924 6.35436 -10
      vertex 140.87 0.966087 -10
    endloop
  endfacet
  facet normal 0 0 -1
    outer loop
      vertex 140.65 1.12583 -10
      vertex 141.924 6.35436 -10
      vertex 140.764 1.05172 -10
    endloop
  endfacet
  facet normal 0 0 -1
    outer loop
      vertex 140.529 1.18761 -10
      vertex 141.924 6.35436 -10
      vertex 140.65 1.12583 -10
    endloop
  endfacet
  facet normal 0 0 -1
    outer loop
      vertex 140.402 1.23637 -10
      vertex 141.924 6.35436 -10
      vertex 140.529 1.18761 -10
    endloop
  endfacet
  facet normal 0 0 -1
    outer loop
      vertex 140.27 1.27159 -10
      vertex 141.924 6.35436 -10
      vertex 140.402 1.23637 -10
    endloop
  endfacet
  facet normal 0 0 -1
    outer loop
      vertex 140.136 1.29288 -10
      vertex 141.924 6.35436 -10
      vertex 140.27 1.27159 -10
    endloop
  endfacet
  facet normal 0 0 -1
    outer loop
      vertex 137.966 4.56773 -10
      vertex 140.136 1.29288 -10
      vertex 140 1.3 -10
    endloop
  endfacet
  facet normal 0 0 -1
    outer loop
      vertex 137.966 4.56773 -10
      vertex 140 1.3 -10
      vertex 139.864 1.29288 -10
    endloop
  endfacet
  facet normal 0 0 -1
    outer loop
      vertex 137.966 4.56773 -10
      vertex 139.864 1.29288 -10
      vertex 139.73 1.27159 -10
    endloop
  endfacet
  facet normal 0 0 -1
    outer loop
      vertex 137.966 4.56773 -10
      vertex 139.73 1.27159 -10
      vertex 139.598 1.23637 -10
    endloop
  endfacet
  facet normal 0 0 -1
    outer loop
      vertex 137.966 4.56773 -10
      vertex 139.598 1.23637 -10
      vertex 139.471 1.18761 -10
    endloop
  endfacet
  facet normal 0 0 -1
    outer loop
      vertex 137.966 4.56773 -10
      vertex 139.471 1.18761 -10
      vertex 139.35 1.12583 -10
    endloop
  endfacet
  facet normal 0 0 -1
    outer loop
      vertex 137.5 4.33013 -10
      vertex 139.35 1.12583 -10
      vertex 139.236 1.05172 -10
    endloop
  endfacet
  facet normal 0 0 -1
    outer loop
      vertex 137.061 4.04508 -10
      vertex 139.236 1.05172 -10
      vertex 139.13 0.966087 -10
    endloop
  endfacet
  facet normal 0 0 -1
    outer loop
      vertex 136.654 3.71572 -10
      vertex 139.13 0.966087 -10
      vertex 139.034 0.869869 -10
    endloop
  endfacet
  facet normal 0 0 -1
    outer loop
      vertex 136.284 3.34565 -10
      vertex 139.034 0.869869 -10
      vertex 138.948 0.76412 -10
    endloop
  endfacet
  facet normal 0 0 -1
    outer loop
      vertex 135.955 2.93893 -10
      vertex 138.948 0.76412 -10
      vertex 138.874 0.65 -10
    endloop
  endfacet
  facet normal 0 0 -1
    outer loop
      vertex 135.67 -2.5 -10
      vertex 138.874 -0.65 -10
      vertex 135.955 -2.93893 -10
    endloop
  endfacet
  facet normal 0 0 -1
    outer loop
      vertex 140.136 1.29288 -10
      vertex 137.966 4.56773 -10
      vertex 141.924 6.35436 -10
    endloop
  endfacet
  facet normal 0 0 -1
    outer loop
      vertex 135.67 2.5 -10
      vertex 138.874 0.65 -10
      vertex 138.812 0.528757 -10
    endloop
  endfacet
  facet normal 0 0 -1
    outer loop
      vertex 135.432 2.03368 -10
      vertex 138.812 0.528757 -10
      vertex 138.764 0.401722 -10
    endloop
  endfacet
  facet normal 0 0 -1
    outer loop
      vertex 135.245 1.54508 -10
      vertex 138.764 0.401722 -10
      vertex 138.728 0.270285 -10
    endloop
  endfacet
  facet normal 0 0 -1
    outer loop
      vertex 135.109 1.03956 -10
      vertex 138.728 0.270285 -10
      vertex 138.707 0.135886 -10
    endloop
  endfacet
  facet normal -0 0 -1
    outer loop
      vertex 138.874 -0.65 -10
      vertex 135.67 -2.5 -10
      vertex 138.812 -0.528757 -10
    endloop
  endfacet
  facet normal 0 0 -1
    outer loop
      vertex 135.432 -2.03368 -10
      vertex 138.812 -0.528757 -10
      vertex 135.67 -2.5 -10
    endloop
  endfacet
  facet normal 0 0 -1
    outer loop
      vertex 139.35 1.12583 -10
      vertex 137.5 4.33013 -10
      vertex 137.966 4.56773 -10
    endloop
  endfacet
  facet normal -0 0 -1
    outer loop
      vertex 138.812 -0.528757 -10
      vertex 135.432 -2.03368 -10
      vertex 138.764 -0.401722 -10
    endloop
  endfacet
  facet normal 0 0 -1
    outer loop
      vertex 139.236 1.05172 -10
      vertex 137.061 4.04508 -10
      vertex 137.5 4.33013 -10
    endloop
  endfacet
  facet normal 0 0 -1
    outer loop
      vertex 135.245 -1.54508 -10
      vertex 138.764 -0.401722 -10
      vertex 135.432 -2.03368 -10
    endloop
  endfacet
  facet normal 0 0 -1
    outer loop
      vertex 139.13 0.966087 -10
      vertex 136.654 3.71572 -10
      vertex 137.061 4.04508 -10
    endloop
  endfacet
  facet normal -0 0 -1
    outer loop
      vertex 138.764 -0.401722 -10
      vertex 135.245 -1.54508 -10
      vertex 138.728 -0.270285 -10
    endloop
  endfacet
  facet normal 0 0 -1
    outer loop
      vertex 139.034 0.869869 -10
      vertex 136.284 3.34565 -10
      vertex 136.654 3.71572 -10
    endloop
  endfacet
  facet normal 0 0 -1
    outer loop
      vertex 135.109 -1.03956 -10
      vertex 138.728 -0.270285 -10
      vertex 135.245 -1.54508 -10
    endloop
  endfacet
  facet normal 0 0 -1
    outer loop
      vertex 138.948 0.76412 -10
      vertex 135.955 2.93893 -10
      vertex 136.284 3.34565 -10
    endloop
  endfacet
  facet normal -0 0 -1
    outer loop
      vertex 138.728 -0.270285 -10
      vertex 135.109 -1.03956 -10
      vertex 138.707 -0.135886 -10
    endloop
  endfacet
  facet normal 0 0 -1
    outer loop
      vertex 138.874 0.65 -10
      vertex 135.67 2.5 -10
      vertex 135.955 2.93893 -10
    endloop
  endfacet
  facet normal 0 0 -1
    outer loop
      vertex 135.027 -0.522642 -10
      vertex 138.707 -0.135886 -10
      vertex 135.109 -1.03956 -10
    endloop
  endfacet
  facet normal 0 0 -1
    outer loop
      vertex 138.812 0.528757 -10
      vertex 135.432 2.03368 -10
      vertex 135.67 2.5 -10
    endloop
  endfacet
  facet normal -0 0 -1
    outer loop
      vertex 138.707 -0.135886 -10
      vertex 135.027 -0.522642 -10
      vertex 138.7 0 -10
    endloop
  endfacet
  facet normal 0 0 -1
    outer loop
      vertex 138.764 0.401722 -10
      vertex 135.245 1.54508 -10
      vertex 135.432 2.03368 -10
    endloop
  endfacet
  facet normal 0 0 -1
    outer loop
      vertex 135 0 -10
      vertex 138.7 0 -10
      vertex 135.027 -0.522642 -10
    endloop
  endfacet
  facet normal 0 0 -1
    outer loop
      vertex 138.728 0.270285 -10
      vertex 135.109 1.03956 -10
      vertex 135.245 1.54508 -10
    endloop
  endfacet
  facet normal 0 0 -1
    outer loop
      vertex 138.7 0 -10
      vertex 135 0 -10
      vertex 138.707 0.135886 -10
    endloop
  endfacet
  facet normal 0 0 -1
    outer loop
      vertex 138.707 0.135886 -10
      vertex 135.027 0.522642 -10
      vertex 135.109 1.03956 -10
    endloop
  endfacet
  facet normal -0 0 -1
    outer loop
      vertex 138.707 0.135886 -10
      vertex 135 0 -10
      vertex 135.027 0.522642 -10
    endloop
  endfacet
  facet normal 0 0 -1
    outer loop
      vertex 141.052 20.7641 -10
      vertex 142.832 22.0572 -10
      vertex 141.158 20.5902 -10
    endloop
  endfacet
  facet normal -0 0 -1
    outer loop
      vertex 142.832 22.0572 -10
      vertex 141.052 20.7641 -10
      vertex 142.475 22.4749 -10
    endloop
  endfacet
  facet normal 0 0 -1
    outer loop
      vertex 140.919 20.9192 -10
      vertex 142.475 22.4749 -10
      vertex 141.052 20.7641 -10
    endloop
  endfacet
  facet normal -0 0 -1
    outer loop
      vertex 142.475 22.4749 -10
      vertex 140.919 20.9192 -10
      vertex 142.057 22.8316 -10
    endloop
  endfacet
  facet normal 0 0 -1
    outer loop
      vertex 140.764 21.0517 -10
      vertex 142.057 22.8316 -10
      vertex 140.919 20.9192 -10
    endloop
  endfacet
  facet normal -0 0 -1
    outer loop
      vertex 142.057 22.8316 -10
      vertex 140.764 21.0517 -10
      vertex 141.589 23.1185 -10
    endloop
  endfacet
  facet normal 0 0 -1
    outer loop
      vertex 140.59 21.1583 -10
      vertex 141.589 23.1185 -10
      vertex 140.764 21.0517 -10
    endloop
  endfacet
  facet normal -0 0 -1
    outer loop
      vertex 141.589 23.1185 -10
      vertex 140.59 21.1583 -10
      vertex 141.082 23.3287 -10
    endloop
  endfacet
  facet normal 0 0 -1
    outer loop
      vertex 140.402 21.2364 -10
      vertex 141.082 23.3287 -10
      vertex 140.59 21.1583 -10
    endloop
  endfacet
  facet normal -0 0 -1
    outer loop
      vertex 141.082 23.3287 -10
      vertex 140.402 21.2364 -10
      vertex 140.548 23.4569 -10
    endloop
  endfacet
  facet normal 0 0 -1
    outer loop
      vertex 140.203 21.284 -10
      vertex 140.548 23.4569 -10
      vertex 140.402 21.2364 -10
    endloop
  endfacet
  facet normal 0 0 -1
    outer loop
      vertex 140 21.3 -10
      vertex 140.548 23.4569 -10
      vertex 140.203 21.284 -10
    endloop
  endfacet
  facet normal 0 0 -1
    outer loop
      vertex 140 21.3 -10
      vertex 140 23.5 -10
      vertex 140.548 23.4569 -10
    endloop
  endfacet
  facet normal 0 0 -1
    outer loop
      vertex 139.797 21.284 -10
      vertex 140 23.5 -10
      vertex 140 21.3 -10
    endloop
  endfacet
  facet normal 0 0 -1
    outer loop
      vertex 139.452 23.4569 -10
      vertex 139.797 21.284 -10
      vertex 139.598 21.2364 -10
    endloop
  endfacet
  facet normal 0 0 -1
    outer loop
      vertex 139.797 21.284 -10
      vertex 139.452 23.4569 -10
      vertex 140 23.5 -10
    endloop
  endfacet
  facet normal 0 0 -1
    outer loop
      vertex 138.918 23.3287 -10
      vertex 139.598 21.2364 -10
      vertex 139.41 21.1583 -10
    endloop
  endfacet
  facet normal 0 0 -1
    outer loop
      vertex 138.411 23.1185 -10
      vertex 139.41 21.1583 -10
      vertex 139.236 21.0517 -10
    endloop
  endfacet
  facet normal 0 0 -1
    outer loop
      vertex 138.411 23.1185 -10
      vertex 139.236 21.0517 -10
      vertex 139.081 20.9192 -10
    endloop
  endfacet
  facet normal 0 0 -1
    outer loop
      vertex 138.411 23.1185 -10
      vertex 139.081 20.9192 -10
      vertex 138.948 20.7641 -10
    endloop
  endfacet
  facet normal 0 0 -1
    outer loop
      vertex 139.598 21.2364 -10
      vertex 138.918 23.3287 -10
      vertex 139.452 23.4569 -10
    endloop
  endfacet
  facet normal 0 0 -1
    outer loop
      vertex 138.411 23.1185 -10
      vertex 138.948 20.7641 -10
      vertex 138.842 20.5902 -10
    endloop
  endfacet
  facet normal 0 0 -1
    outer loop
      vertex 138.411 23.1185 -10
      vertex 138.842 20.5902 -10
      vertex 138.764 20.4017 -10
    endloop
  endfacet
  facet normal 0 0 -1
    outer loop
      vertex 138.411 23.1185 -10
      vertex 138.764 20.4017 -10
      vertex 138.716 20.2034 -10
    endloop
  endfacet
  facet normal 0 0 -1
    outer loop
      vertex 138.411 23.1185 -10
      vertex 138.716 20.2034 -10
      vertex 138.7 20 -10
    endloop
  endfacet
  facet normal 0 0 -1
    outer loop
      vertex 139.41 21.1583 -10
      vertex 138.411 23.1185 -10
      vertex 138.918 23.3287 -10
    endloop
  endfacet
  facet normal -0.411433 -0.91144 0
    outer loop
      vertex 137.966 -4.56773 -10
      vertex 150 -10 129.5
      vertex 137.966 -4.56773 129.5
    endloop
  endfacet
  facet normal -0.411433 -0.91144 -0
    outer loop
      vertex 150 -10 129.5
      vertex 137.966 -4.56773 -10
      vertex 150 -10 -10
    endloop
  endfacet
  facet normal 0 -1 0
    outer loop
      vertex 150 -10 -10
      vertex 197 -10 129.5
      vertex 150 -10 129.5
    endloop
  endfacet
  facet normal 0 -1 -0
    outer loop
      vertex 197 -10 129.5
      vertex 150 -10 -10
      vertex 197 -10 -10
    endloop
  endfacet
  facet normal -0.965664 0.259793 0
    outer loop
      vertex 135.109 1.03956 -10
      vertex 135.245 1.54508 129.5
      vertex 135.245 1.54508 -10
    endloop
  endfacet
  facet normal -0.965664 0.259793 0
    outer loop
      vertex 135.245 1.54508 129.5
      vertex 135.109 1.03956 -10
      vertex 135.109 1.03956 129.5
    endloop
  endfacet
  facet normal -0.454235 -0.890882 0
    outer loop
      vertex 137.5 -4.33013 -10
      vertex 137.966 -4.56773 129.5
      vertex 137.5 -4.33013 129.5
    endloop
  endfacet
  facet normal -0.454235 -0.890882 -0
    outer loop
      vertex 137.966 -4.56773 129.5
      vertex 137.5 -4.33013 -10
      vertex 137.966 -4.56773 -10
    endloop
  endfacet
  facet normal -0.411451 0.911432 9.33526e-07
    outer loop
      vertex 141.924 6.35436 -8
      vertex 150 10 129.5
      vertex 149.846 9.93062 -8
    endloop
  endfacet
  facet normal -0.410759 0.911744 0
    outer loop
      vertex 150 10 -10
      vertex 149.846 9.93062 -8
      vertex 150 10 129.5
    endloop
  endfacet
  facet normal -0.410759 0.911744 0
    outer loop
      vertex 149.846 9.93062 -8
      vertex 150 10 -10
      vertex 149.846 9.93062 -10
    endloop
  endfacet
  facet normal -0.411433 0.91144 -3.41094e-07
    outer loop
      vertex 150 10 129.5
      vertex 141.924 6.35436 -8
      vertex 137.966 4.56773 129.5
    endloop
  endfacet
  facet normal -0.411423 0.911444 0
    outer loop
      vertex 137.966 4.56773 -10
      vertex 141.924 6.35436 -8
      vertex 141.924 6.35436 -10
    endloop
  endfacet
  facet normal -0.411423 0.911444 0
    outer loop
      vertex 141.924 6.35436 -8
      vertex 137.966 4.56773 -10
      vertex 137.966 4.56773 129.5
    endloop
  endfacet
  facet normal -0.454235 0.890882 0
    outer loop
      vertex 137.966 4.56773 -10
      vertex 137.5 4.33013 129.5
      vertex 137.966 4.56773 129.5
    endloop
  endfacet
  facet normal -0.454235 0.890882 0
    outer loop
      vertex 137.5 4.33013 129.5
      vertex 137.966 4.56773 -10
      vertex 137.5 4.33013 -10
    endloop
  endfacet
  facet normal -0.707174 -0.70704 0
    outer loop
      vertex 136.654 -3.71572 -10
      vertex 136.284 -3.34565 129.5
      vertex 136.284 -3.34565 -10
    endloop
  endfacet
  facet normal -0.707174 -0.70704 0
    outer loop
      vertex 136.284 -3.34565 129.5
      vertex 136.654 -3.71572 -10
      vertex 136.654 -3.71572 129.5
    endloop
  endfacet
  facet normal -0.544585 -0.838705 0
    outer loop
      vertex 137.061 -4.04508 -10
      vertex 137.5 -4.33013 129.5
      vertex 137.061 -4.04508 129.5
    endloop
  endfacet
  facet normal -0.544585 -0.838705 -0
    outer loop
      vertex 137.5 -4.33013 129.5
      vertex 137.061 -4.04508 -10
      vertex 137.5 -4.33013 -10
    endloop
  endfacet
  facet normal -0.629064 0.777353 0
    outer loop
      vertex 137.061 4.04508 -10
      vertex 136.654 3.71572 129.5
      vertex 137.061 4.04508 129.5
    endloop
  endfacet
  facet normal -0.629064 0.777353 0
    outer loop
      vertex 136.654 3.71572 129.5
      vertex 137.061 4.04508 -10
      vertex 136.654 3.71572 -10
    endloop
  endfacet
  facet normal -0.838709 -0.544579 0
    outer loop
      vertex 135.955 -2.93893 -10
      vertex 135.67 -2.5 129.5
      vertex 135.67 -2.5 -10
    endloop
  endfacet
  facet normal -0.838709 -0.544579 0
    outer loop
      vertex 135.67 -2.5 129.5
      vertex 135.955 -2.93893 -10
      vertex 135.955 -2.93893 129.5
    endloop
  endfacet
  facet normal -0.777478 -0.62891 0
    outer loop
      vertex 136.284 -3.34565 -10
      vertex 135.955 -2.93893 129.5
      vertex 135.955 -2.93893 -10
    endloop
  endfacet
  facet normal -0.777478 -0.62891 0
    outer loop
      vertex 135.955 -2.93893 129.5
      vertex 136.284 -3.34565 -10
      vertex 136.284 -3.34565 129.5
    endloop
  endfacet
  facet normal -0.707174 0.70704 0
    outer loop
      vertex 136.284 3.34565 -10
      vertex 136.654 3.71572 129.5
      vertex 136.654 3.71572 -10
    endloop
  endfacet
  facet normal -0.707174 0.70704 0
    outer loop
      vertex 136.654 3.71572 129.5
      vertex 136.284 3.34565 -10
      vertex 136.284 3.34565 129.5
    endloop
  endfacet
  facet normal -0.544585 0.838705 0
    outer loop
      vertex 137.5 4.33013 -10
      vertex 137.061 4.04508 129.5
      vertex 137.5 4.33013 129.5
    endloop
  endfacet
  facet normal -0.544585 0.838705 0
    outer loop
      vertex 137.061 4.04508 129.5
      vertex 137.5 4.33013 -10
      vertex 137.061 4.04508 -10
    endloop
  endfacet
  facet normal -0.629064 -0.777353 0
    outer loop
      vertex 136.654 -3.71572 -10
      vertex 137.061 -4.04508 129.5
      vertex 136.654 -3.71572 129.5
    endloop
  endfacet
  facet normal -0.629064 -0.777353 -0
    outer loop
      vertex 137.061 -4.04508 129.5
      vertex 136.654 -3.71572 -10
      vertex 137.061 -4.04508 -10
    endloop
  endfacet
  facet normal -0.777478 0.62891 0
    outer loop
      vertex 135.955 2.93893 -10
      vertex 136.284 3.34565 129.5
      vertex 136.284 3.34565 -10
    endloop
  endfacet
  facet normal -0.777478 0.62891 0
    outer loop
      vertex 136.284 3.34565 129.5
      vertex 135.955 2.93893 -10
      vertex 135.955 2.93893 129.5
    endloop
  endfacet
  facet normal -0 0 1
    outer loop
      vertex 150 10 129.5
      vertex 197 -10 129.5
      vertex 197 10 129.5
    endloop
  endfacet
  facet normal 0 0 1
    outer loop
      vertex 150 10 129.5
      vertex 150 -10 129.5
      vertex 197 -10 129.5
    endloop
  endfacet
  facet normal 0 0 1
    outer loop
      vertex 150 10 129.5
      vertex 141.3 0 129.5
      vertex 150 -10 129.5
    endloop
  endfacet
  facet normal 0 0 1
    outer loop
      vertex 150 10 129.5
      vertex 141.293 0.135886 129.5
      vertex 141.3 0 129.5
    endloop
  endfacet
  facet normal 0 0 1
    outer loop
      vertex 150 10 129.5
      vertex 141.272 0.270285 129.5
      vertex 141.293 0.135886 129.5
    endloop
  endfacet
  facet normal 0 0 1
    outer loop
      vertex 150 10 129.5
      vertex 141.236 0.401722 129.5
      vertex 141.272 0.270285 129.5
    endloop
  endfacet
  facet normal 0 0 1
    outer loop
      vertex 150 10 129.5
      vertex 141.188 0.528757 129.5
      vertex 141.236 0.401722 129.5
    endloop
  endfacet
  facet normal 0 0 1
    outer loop
      vertex 150 10 129.5
      vertex 141.126 0.65 129.5
      vertex 141.188 0.528757 129.5
    endloop
  endfacet
  facet normal 0 0 1
    outer loop
      vertex 150 10 129.5
      vertex 141.052 0.76412 129.5
      vertex 141.126 0.65 129.5
    endloop
  endfacet
  facet normal 0 0 1
    outer loop
      vertex 150 10 129.5
      vertex 140.966 0.869869 129.5
      vertex 141.052 0.76412 129.5
    endloop
  endfacet
  facet normal 0 0 1
    outer loop
      vertex 150 10 129.5
      vertex 140.87 0.966087 129.5
      vertex 140.966 0.869869 129.5
    endloop
  endfacet
  facet normal 0 0 1
    outer loop
      vertex 150 10 129.5
      vertex 140.764 1.05172 129.5
      vertex 140.87 0.966087 129.5
    endloop
  endfacet
  facet normal 0 0 1
    outer loop
      vertex 150 10 129.5
      vertex 140.65 1.12583 129.5
      vertex 140.764 1.05172 129.5
    endloop
  endfacet
  facet normal -0 0 1
    outer loop
      vertex 137.966 4.56773 129.5
      vertex 140.65 1.12583 129.5
      vertex 150 10 129.5
    endloop
  endfacet
  facet normal 0 0 1
    outer loop
      vertex 140.65 1.12583 129.5
      vertex 137.966 4.56773 129.5
      vertex 140.529 1.18761 129.5
    endloop
  endfacet
  facet normal 0 0 1
    outer loop
      vertex 140.529 1.18761 129.5
      vertex 137.966 4.56773 129.5
      vertex 140.402 1.23637 129.5
    endloop
  endfacet
  facet normal 0 0 1
    outer loop
      vertex 140.402 1.23637 129.5
      vertex 137.966 4.56773 129.5
      vertex 140.27 1.27159 129.5
    endloop
  endfacet
  facet normal 0 0 1
    outer loop
      vertex 140.27 1.27159 129.5
      vertex 137.966 4.56773 129.5
      vertex 140.136 1.29288 129.5
    endloop
  endfacet
  facet normal 0 0 1
    outer loop
      vertex 140.136 1.29288 129.5
      vertex 137.966 4.56773 129.5
      vertex 140 1.3 129.5
    endloop
  endfacet
  facet normal 0 0 1
    outer loop
      vertex 140 1.3 129.5
      vertex 137.966 4.56773 129.5
      vertex 139.864 1.29288 129.5
    endloop
  endfacet
  facet normal 0 0 1
    outer loop
      vertex 139.864 1.29288 129.5
      vertex 137.966 4.56773 129.5
      vertex 139.73 1.27159 129.5
    endloop
  endfacet
  facet normal 0 0 1
    outer loop
      vertex 139.73 1.27159 129.5
      vertex 137.966 4.56773 129.5
      vertex 139.598 1.23637 129.5
    endloop
  endfacet
  facet normal 0 0 1
    outer loop
      vertex 139.598 1.23637 129.5
      vertex 137.966 4.56773 129.5
      vertex 139.471 1.18761 129.5
    endloop
  endfacet
  facet normal 0 0 1
    outer loop
      vertex 139.471 1.18761 129.5
      vertex 137.966 4.56773 129.5
      vertex 139.35 1.12583 129.5
    endloop
  endfacet
  facet normal -0 0 1
    outer loop
      vertex 137.5 4.33013 129.5
      vertex 139.35 1.12583 129.5
      vertex 137.966 4.56773 129.5
    endloop
  endfacet
  facet normal 0 0 1
    outer loop
      vertex 138.948 0.76412 129.5
      vertex 135.955 2.93893 129.5
      vertex 138.874 0.65 129.5
    endloop
  endfacet
  facet normal -0 0 1
    outer loop
      vertex 135.955 2.93893 129.5
      vertex 138.948 0.76412 129.5
      vertex 136.284 3.34565 129.5
    endloop
  endfacet
  facet normal 0 0 1
    outer loop
      vertex 139.034 0.869869 129.5
      vertex 136.284 3.34565 129.5
      vertex 138.948 0.76412 129.5
    endloop
  endfacet
  facet normal -0 0 1
    outer loop
      vertex 136.284 3.34565 129.5
      vertex 139.034 0.869869 129.5
      vertex 136.654 3.71572 129.5
    endloop
  endfacet
  facet normal 0 0 1
    outer loop
      vertex 139.13 0.966087 129.5
      vertex 136.654 3.71572 129.5
      vertex 139.034 0.869869 129.5
    endloop
  endfacet
  facet normal -0 0 1
    outer loop
      vertex 136.654 3.71572 129.5
      vertex 139.13 0.966087 129.5
      vertex 137.061 4.04508 129.5
    endloop
  endfacet
  facet normal 0 0 1
    outer loop
      vertex 139.236 1.05172 129.5
      vertex 137.061 4.04508 129.5
      vertex 139.13 0.966087 129.5
    endloop
  endfacet
  facet normal -0 0 1
    outer loop
      vertex 137.061 4.04508 129.5
      vertex 139.236 1.05172 129.5
      vertex 137.5 4.33013 129.5
    endloop
  endfacet
  facet normal 0 0 1
    outer loop
      vertex 139.35 1.12583 129.5
      vertex 137.5 4.33013 129.5
      vertex 139.236 1.05172 129.5
    endloop
  endfacet
  facet normal -0 0 1
    outer loop
      vertex 141.293 -0.135886 129.5
      vertex 150 -10 129.5
      vertex 141.3 0 129.5
    endloop
  endfacet
  facet normal -0 0 1
    outer loop
      vertex 141.272 -0.270285 129.5
      vertex 150 -10 129.5
      vertex 141.293 -0.135886 129.5
    endloop
  endfacet
  facet normal -0 0 1
    outer loop
      vertex 141.236 -0.401722 129.5
      vertex 150 -10 129.5
      vertex 141.272 -0.270285 129.5
    endloop
  endfacet
  facet normal -0 0 1
    outer loop
      vertex 141.188 -0.528757 129.5
      vertex 150 -10 129.5
      vertex 141.236 -0.401722 129.5
    endloop
  endfacet
  facet normal -0 0 1
    outer loop
      vertex 141.126 -0.65 129.5
      vertex 150 -10 129.5
      vertex 141.188 -0.528757 129.5
    endloop
  endfacet
  facet normal -0 0 1
    outer loop
      vertex 141.052 -0.76412 129.5
      vertex 150 -10 129.5
      vertex 141.126 -0.65 129.5
    endloop
  endfacet
  facet normal -0 0 1
    outer loop
      vertex 140.966 -0.869869 129.5
      vertex 150 -10 129.5
      vertex 141.052 -0.76412 129.5
    endloop
  endfacet
  facet normal -0 0 1
    outer loop
      vertex 140.87 -0.966087 129.5
      vertex 150 -10 129.5
      vertex 140.966 -0.869869 129.5
    endloop
  endfacet
  facet normal -0 0 1
    outer loop
      vertex 140.764 -1.05172 129.5
      vertex 150 -10 129.5
      vertex 140.87 -0.966087 129.5
    endloop
  endfacet
  facet normal -0 0 1
    outer loop
      vertex 140.65 -1.12583 129.5
      vertex 150 -10 129.5
      vertex 140.764 -1.05172 129.5
    endloop
  endfacet
  facet normal 0 0 1
    outer loop
      vertex 137.966 -4.56773 129.5
      vertex 140.65 -1.12583 129.5
      vertex 140.529 -1.18761 129.5
    endloop
  endfacet
  facet normal 0 0 1
    outer loop
      vertex 137.966 -4.56773 129.5
      vertex 140.529 -1.18761 129.5
      vertex 140.402 -1.23637 129.5
    endloop
  endfacet
  facet normal 0 0 1
    outer loop
      vertex 137.966 -4.56773 129.5
      vertex 140.402 -1.23637 129.5
      vertex 140.27 -1.27159 129.5
    endloop
  endfacet
  facet normal 0 0 1
    outer loop
      vertex 137.966 -4.56773 129.5
      vertex 140.27 -1.27159 129.5
      vertex 140.136 -1.29288 129.5
    endloop
  endfacet
  facet normal 0 0 1
    outer loop
      vertex 137.966 -4.56773 129.5
      vertex 140.136 -1.29288 129.5
      vertex 140 -1.3 129.5
    endloop
  endfacet
  facet normal 0 0 1
    outer loop
      vertex 137.966 -4.56773 129.5
      vertex 140 -1.3 129.5
      vertex 139.864 -1.29288 129.5
    endloop
  endfacet
  facet normal 0 0 1
    outer loop
      vertex 137.966 -4.56773 129.5
      vertex 139.864 -1.29288 129.5
      vertex 139.73 -1.27159 129.5
    endloop
  endfacet
  facet normal 0 0 1
    outer loop
      vertex 137.966 -4.56773 129.5
      vertex 139.73 -1.27159 129.5
      vertex 139.598 -1.23637 129.5
    endloop
  endfacet
  facet normal 0 0 1
    outer loop
      vertex 137.966 -4.56773 129.5
      vertex 139.598 -1.23637 129.5
      vertex 139.471 -1.18761 129.5
    endloop
  endfacet
  facet normal 0 0 1
    outer loop
      vertex 137.966 -4.56773 129.5
      vertex 139.471 -1.18761 129.5
      vertex 139.35 -1.12583 129.5
    endloop
  endfacet
  facet normal 0 0 1
    outer loop
      vertex 137.5 -4.33013 129.5
      vertex 139.35 -1.12583 129.5
      vertex 139.236 -1.05172 129.5
    endloop
  endfacet
  facet normal 0 0 1
    outer loop
      vertex 137.061 -4.04508 129.5
      vertex 139.236 -1.05172 129.5
      vertex 139.13 -0.966087 129.5
    endloop
  endfacet
  facet normal -0 0 1
    outer loop
      vertex 135.67 2.5 129.5
      vertex 138.874 0.65 129.5
      vertex 135.955 2.93893 129.5
    endloop
  endfacet
  facet normal 0 0 1
    outer loop
      vertex 140.65 -1.12583 129.5
      vertex 137.966 -4.56773 129.5
      vertex 150 -10 129.5
    endloop
  endfacet
  facet normal 0 0 1
    outer loop
      vertex 136.654 -3.71572 129.5
      vertex 139.13 -0.966087 129.5
      vertex 139.034 -0.869869 129.5
    endloop
  endfacet
  facet normal 0 0 1
    outer loop
      vertex 136.284 -3.34565 129.5
      vertex 139.034 -0.869869 129.5
      vertex 138.948 -0.76412 129.5
    endloop
  endfacet
  facet normal 0 0 1
    outer loop
      vertex 135.955 -2.93893 129.5
      vertex 138.948 -0.76412 129.5
      vertex 138.874 -0.65 129.5
    endloop
  endfacet
  facet normal 0 0 1
    outer loop
      vertex 135.67 -2.5 129.5
      vertex 138.874 -0.65 129.5
      vertex 138.812 -0.528757 129.5
    endloop
  endfacet
  facet normal 0 0 1
    outer loop
      vertex 135.432 -2.03368 129.5
      vertex 138.812 -0.528757 129.5
      vertex 138.764 -0.401722 129.5
    endloop
  endfacet
  facet normal 0 0 1
    outer loop
      vertex 135.245 -1.54508 129.5
      vertex 138.764 -0.401722 129.5
      vertex 138.728 -0.270285 129.5
    endloop
  endfacet
  facet normal 0 0 1
    outer loop
      vertex 135.109 -1.03956 129.5
      vertex 138.728 -0.270285 129.5
      vertex 138.707 -0.135886 129.5
    endloop
  endfacet
  facet normal 0 0 1
    outer loop
      vertex 138.874 0.65 129.5
      vertex 135.67 2.5 129.5
      vertex 138.812 0.528757 129.5
    endloop
  endfacet
  facet normal -0 0 1
    outer loop
      vertex 135.432 2.03368 129.5
      vertex 138.812 0.528757 129.5
      vertex 135.67 2.5 129.5
    endloop
  endfacet
  facet normal 0 0 1
    outer loop
      vertex 139.35 -1.12583 129.5
      vertex 137.5 -4.33013 129.5
      vertex 137.966 -4.56773 129.5
    endloop
  endfacet
  facet normal 0 0 1
    outer loop
      vertex 138.812 0.528757 129.5
      vertex 135.432 2.03368 129.5
      vertex 138.764 0.401722 129.5
    endloop
  endfacet
  facet normal 0 0 1
    outer loop
      vertex 139.236 -1.05172 129.5
      vertex 137.061 -4.04508 129.5
      vertex 137.5 -4.33013 129.5
    endloop
  endfacet
  facet normal -0 0 1
    outer loop
      vertex 135.245 1.54508 129.5
      vertex 138.764 0.401722 129.5
      vertex 135.432 2.03368 129.5
    endloop
  endfacet
  facet normal 0 0 1
    outer loop
      vertex 139.13 -0.966087 129.5
      vertex 136.654 -3.71572 129.5
      vertex 137.061 -4.04508 129.5
    endloop
  endfacet
  facet normal 0 0 1
    outer loop
      vertex 138.764 0.401722 129.5
      vertex 135.245 1.54508 129.5
      vertex 138.728 0.270285 129.5
    endloop
  endfacet
  facet normal 0 0 1
    outer loop
      vertex 139.034 -0.869869 129.5
      vertex 136.284 -3.34565 129.5
      vertex 136.654 -3.71572 129.5
    endloop
  endfacet
  facet normal -0 0 1
    outer loop
      vertex 135.109 1.03956 129.5
      vertex 138.728 0.270285 129.5
      vertex 135.245 1.54508 129.5
    endloop
  endfacet
  facet normal 0 0 1
    outer loop
      vertex 138.948 -0.76412 129.5
      vertex 135.955 -2.93893 129.5
      vertex 136.284 -3.34565 129.5
    endloop
  endfacet
  facet normal 0 0 1
    outer loop
      vertex 138.728 0.270285 129.5
      vertex 135.109 1.03956 129.5
      vertex 138.707 0.135886 129.5
    endloop
  endfacet
  facet normal 0 0 1
    outer loop
      vertex 138.874 -0.65 129.5
      vertex 135.67 -2.5 129.5
      vertex 135.955 -2.93893 129.5
    endloop
  endfacet
  facet normal -0 0 1
    outer loop
      vertex 135.027 0.522642 129.5
      vertex 138.707 0.135886 129.5
      vertex 135.109 1.03956 129.5
    endloop
  endfacet
  facet normal 0 0 1
    outer loop
      vertex 138.812 -0.528757 129.5
      vertex 135.432 -2.03368 129.5
      vertex 135.67 -2.5 129.5
    endloop
  endfacet
  facet normal 0 0 1
    outer loop
      vertex 138.707 0.135886 129.5
      vertex 135.027 0.522642 129.5
      vertex 138.7 0 129.5
    endloop
  endfacet
  facet normal 0 0 1
    outer loop
      vertex 138.764 -0.401722 129.5
      vertex 135.245 -1.54508 129.5
      vertex 135.432 -2.03368 129.5
    endloop
  endfacet
  facet normal 0 0 1
    outer loop
      vertex 135 0 129.5
      vertex 138.7 0 129.5
      vertex 135.027 0.522642 129.5
    endloop
  endfacet
  facet normal 0 0 1
    outer loop
      vertex 138.728 -0.270285 129.5
      vertex 135.109 -1.03956 129.5
      vertex 135.245 -1.54508 129.5
    endloop
  endfacet
  facet normal 0 0 1
    outer loop
      vertex 138.7 0 129.5
      vertex 135 0 129.5
      vertex 138.707 -0.135886 129.5
    endloop
  endfacet
  facet normal 0 0 1
    outer loop
      vertex 138.707 -0.135886 129.5
      vertex 135.027 -0.522642 129.5
      vertex 135.109 -1.03956 129.5
    endloop
  endfacet
  facet normal 0 0 1
    outer loop
      vertex 138.707 -0.135886 129.5
      vertex 135 0 129.5
      vertex 135.027 -0.522642 129.5
    endloop
  endfacet
  facet normal -0.98765 0.156673 0
    outer loop
      vertex 135.027 0.522642 -10
      vertex 135.109 1.03956 129.5
      vertex 135.109 1.03956 -10
    endloop
  endfacet
  facet normal -0.98765 0.156673 0
    outer loop
      vertex 135.109 1.03956 129.5
      vertex 135.027 0.522642 -10
      vertex 135.027 0.522642 129.5
    endloop
  endfacet
  facet normal -0.998668 0.0515918 0
    outer loop
      vertex 135 0 -10
      vertex 135.027 0.522642 129.5
      vertex 135.027 0.522642 -10
    endloop
  endfacet
  facet normal -0.998668 0.0515918 0
    outer loop
      vertex 135.027 0.522642 129.5
      vertex 135 0 -10
      vertex 135 0 129.5
    endloop
  endfacet
  facet normal -0.890699 -0.454594 0
    outer loop
      vertex 135.67 -2.5 -10
      vertex 135.432 -2.03368 129.5
      vertex 135.432 -2.03368 -10
    endloop
  endfacet
  facet normal -0.890699 -0.454594 0
    outer loop
      vertex 135.432 -2.03368 129.5
      vertex 135.67 -2.5 -10
      vertex 135.67 -2.5 129.5
    endloop
  endfacet
  facet normal -0.933936 -0.357442 0
    outer loop
      vertex 135.432 -2.03368 -10
      vertex 135.245 -1.54508 129.5
      vertex 135.245 -1.54508 -10
    endloop
  endfacet
  facet normal -0.933936 -0.357442 0
    outer loop
      vertex 135.245 -1.54508 129.5
      vertex 135.432 -2.03368 -10
      vertex 135.432 -2.03368 129.5
    endloop
  endfacet
  facet normal -0.838709 0.544579 0
    outer loop
      vertex 135.67 2.5 -10
      vertex 135.955 2.93893 129.5
      vertex 135.955 2.93893 -10
    endloop
  endfacet
  facet normal -0.838709 0.544579 0
    outer loop
      vertex 135.955 2.93893 129.5
      vertex 135.67 2.5 -10
      vertex 135.67 2.5 129.5
    endloop
  endfacet
  facet normal -0.890699 0.454594 0
    outer loop
      vertex 135.432 2.03368 -10
      vertex 135.67 2.5 129.5
      vertex 135.67 2.5 -10
    endloop
  endfacet
  facet normal -0.890699 0.454594 0
    outer loop
      vertex 135.67 2.5 129.5
      vertex 135.432 2.03368 -10
      vertex 135.432 2.03368 129.5
    endloop
  endfacet
  facet normal -0.98765 -0.156673 0
    outer loop
      vertex 135.109 -1.03956 -10
      vertex 135.027 -0.522642 129.5
      vertex 135.027 -0.522642 -10
    endloop
  endfacet
  facet normal -0.98765 -0.156673 0
    outer loop
      vertex 135.027 -0.522642 129.5
      vertex 135.109 -1.03956 -10
      vertex 135.109 -1.03956 129.5
    endloop
  endfacet
  facet normal -0.998668 -0.0515918 0
    outer loop
      vertex 135.027 -0.522642 -10
      vertex 135 0 129.5
      vertex 135 0 -10
    endloop
  endfacet
  facet normal -0.998668 -0.0515918 0
    outer loop
      vertex 135 0 129.5
      vertex 135.027 -0.522642 -10
      vertex 135.027 -0.522642 129.5
    endloop
  endfacet
  facet normal -0.156912 -0.987613 0
    outer loop
      vertex 140.136 1.29288 -10
      vertex 140.27 1.27159 129.5
      vertex 140.136 1.29288 129.5
    endloop
  endfacet
  facet normal -0.156912 -0.987613 -0
    outer loop
      vertex 140.27 1.27159 129.5
      vertex 140.136 1.29288 -10
      vertex 140.27 1.27159 -10
    endloop
  endfacet
  facet normal -0.988012 -0.154378 0
    outer loop
      vertex 141.293 0.135886 -10
      vertex 141.272 0.270285 129.5
      vertex 141.272 0.270285 -10
    endloop
  endfacet
  facet normal -0.988012 -0.154378 0
    outer loop
      vertex 141.272 0.270285 129.5
      vertex 141.293 0.135886 -10
      vertex 141.293 0.135886 129.5
    endloop
  endfacet
  facet normal -0.998676 -0.0514456 0
    outer loop
      vertex 141.3 0 -10
      vertex 141.293 0.135886 129.5
      vertex 141.293 0.135886 -10
    endloop
  endfacet
  facet normal -0.998676 -0.0514456 0
    outer loop
      vertex 141.293 0.135886 129.5
      vertex 141.3 0 -10
      vertex 141.3 0 129.5
    endloop
  endfacet
  facet normal -0.964477 -0.264166 0
    outer loop
      vertex 141.272 0.270285 -10
      vertex 141.236 0.401722 129.5
      vertex 141.236 0.401722 -10
    endloop
  endfacet
  facet normal -0.964477 -0.264166 0
    outer loop
      vertex 141.236 0.401722 129.5
      vertex 141.272 0.270285 -10
      vertex 141.272 0.270285 129.5
    endloop
  endfacet
  facet normal 0.0522813 -0.998632 0
    outer loop
      vertex 139.864 1.29288 -10
      vertex 140 1.3 129.5
      vertex 139.864 1.29288 129.5
    endloop
  endfacet
  facet normal 0.0522813 -0.998632 0
    outer loop
      vertex 140 1.3 129.5
      vertex 139.864 1.29288 -10
      vertex 140 1.3 -10
    endloop
  endfacet
  facet normal -0.628415 0.777878 0
    outer loop
      vertex 140.87 -0.966087 -10
      vertex 140.764 -1.05172 129.5
      vertex 140.87 -0.966087 129.5
    endloop
  endfacet
  facet normal -0.628415 0.777878 0
    outer loop
      vertex 140.764 -1.05172 129.5
      vertex 140.87 -0.966087 -10
      vertex 140.764 -1.05172 -10
    endloop
  endfacet
  facet normal -0.988012 0.154378 0
    outer loop
      vertex 141.272 -0.270285 -10
      vertex 141.293 -0.135886 129.5
      vertex 141.293 -0.135886 -10
    endloop
  endfacet
  facet normal -0.988012 0.154378 0
    outer loop
      vertex 141.293 -0.135886 129.5
      vertex 141.272 -0.270285 -10
      vertex 141.272 -0.270285 129.5
    endloop
  endfacet
  facet normal -0.156912 0.987613 0
    outer loop
      vertex 140.27 -1.27159 -10
      vertex 140.136 -1.29288 129.5
      vertex 140.27 -1.27159 129.5
    endloop
  endfacet
  facet normal -0.156912 0.987613 0
    outer loop
      vertex 140.136 -1.29288 129.5
      vertex 140.27 -1.27159 -10
      vertex 140.136 -1.29288 -10
    endloop
  endfacet
  facet normal -0.93545 -0.353459 0
    outer loop
      vertex 141.236 0.401722 -10
      vertex 141.188 0.528757 129.5
      vertex 141.188 0.528757 -10
    endloop
  endfacet
  facet normal -0.93545 -0.353459 0
    outer loop
      vertex 141.188 0.528757 129.5
      vertex 141.236 0.401722 -10
      vertex 141.236 0.401722 129.5
    endloop
  endfacet
  facet normal 0.93545 -0.353459 0
    outer loop
      vertex 138.764 0.401722 129.5
      vertex 138.812 0.528757 -10
      vertex 138.812 0.528757 129.5
    endloop
  endfacet
  facet normal 0.93545 -0.353459 0
    outer loop
      vertex 138.812 0.528757 -10
      vertex 138.764 0.401722 129.5
      vertex 138.764 0.401722 -10
    endloop
  endfacet
  facet normal 0.998676 0.0514456 0
    outer loop
      vertex 138.707 -0.135886 129.5
      vertex 138.7 0 -10
      vertex 138.7 0 129.5
    endloop
  endfacet
  facet normal 0.998676 0.0514456 0
    outer loop
      vertex 138.7 0 -10
      vertex 138.707 -0.135886 129.5
      vertex 138.707 -0.135886 -10
    endloop
  endfacet
  facet normal 0.54504 0.83841 -0
    outer loop
      vertex 139.35 -1.12583 -10
      vertex 139.236 -1.05172 129.5
      vertex 139.35 -1.12583 129.5
    endloop
  endfacet
  facet normal 0.54504 0.83841 0
    outer loop
      vertex 139.236 -1.05172 129.5
      vertex 139.35 -1.12583 -10
      vertex 139.236 -1.05172 -10
    endloop
  endfacet
  facet normal 0.890341 -0.455294 0
    outer loop
      vertex 138.812 0.528757 129.5
      vertex 138.874 0.65 -10
      vertex 138.874 0.65 129.5
    endloop
  endfacet
  facet normal 0.890341 -0.455294 0
    outer loop
      vertex 138.874 0.65 -10
      vertex 138.812 0.528757 129.5
      vertex 138.812 0.528757 -10
    endloop
  endfacet
  facet normal -0.998676 0.0514456 0
    outer loop
      vertex 141.293 -0.135886 -10
      vertex 141.3 0 129.5
      vertex 141.3 0 -10
    endloop
  endfacet
  facet normal -0.998676 0.0514456 0
    outer loop
      vertex 141.3 0 129.5
      vertex 141.293 -0.135886 -10
      vertex 141.293 -0.135886 129.5
    endloop
  endfacet
  facet normal -0.54504 -0.83841 0
    outer loop
      vertex 140.65 1.12583 -10
      vertex 140.764 1.05172 129.5
      vertex 140.65 1.12583 129.5
    endloop
  endfacet
  facet normal -0.54504 -0.83841 -0
    outer loop
      vertex 140.764 1.05172 129.5
      vertex 140.65 1.12583 -10
      vertex 140.764 1.05172 -10
    endloop
  endfacet
  facet normal -0.454735 -0.890627 0
    outer loop
      vertex 140.529 1.18761 -10
      vertex 140.65 1.12583 129.5
      vertex 140.529 1.18761 129.5
    endloop
  endfacet
  facet normal -0.454735 -0.890627 -0
    outer loop
      vertex 140.65 1.12583 129.5
      vertex 140.529 1.18761 -10
      vertex 140.65 1.12583 -10
    endloop
  endfacet
  facet normal 0.358427 -0.933558 0
    outer loop
      vertex 139.471 1.18761 -10
      vertex 139.598 1.23637 129.5
      vertex 139.471 1.18761 129.5
    endloop
  endfacet
  facet normal 0.358427 -0.933558 0
    outer loop
      vertex 139.598 1.23637 129.5
      vertex 139.471 1.18761 -10
      vertex 139.598 1.23637 -10
    endloop
  endfacet
  facet normal -0.964477 0.264166 0
    outer loop
      vertex 141.236 -0.401722 -10
      vertex 141.272 -0.270285 129.5
      vertex 141.272 -0.270285 -10
    endloop
  endfacet
  facet normal -0.964477 0.264166 0
    outer loop
      vertex 141.272 -0.270285 129.5
      vertex 141.236 -0.401722 -10
      vertex 141.236 -0.401722 129.5
    endloop
  endfacet
  facet normal 0.54504 -0.83841 0
    outer loop
      vertex 139.236 1.05172 -10
      vertex 139.35 1.12583 129.5
      vertex 139.236 1.05172 129.5
    endloop
  endfacet
  facet normal 0.54504 -0.83841 0
    outer loop
      vertex 139.35 1.12583 129.5
      vertex 139.236 1.05172 -10
      vertex 139.35 1.12583 -10
    endloop
  endfacet
  facet normal 0.156912 -0.987613 0
    outer loop
      vertex 139.73 1.27159 -10
      vertex 139.864 1.29288 129.5
      vertex 139.73 1.27159 129.5
    endloop
  endfacet
  facet normal 0.156912 -0.987613 0
    outer loop
      vertex 139.864 1.29288 129.5
      vertex 139.73 1.27159 -10
      vertex 139.864 1.29288 -10
    endloop
  endfacet
  facet normal 0.988012 0.154378 0
    outer loop
      vertex 138.728 -0.270285 129.5
      vertex 138.707 -0.135886 -10
      vertex 138.707 -0.135886 129.5
    endloop
  endfacet
  facet normal 0.988012 0.154378 0
    outer loop
      vertex 138.707 -0.135886 -10
      vertex 138.728 -0.270285 129.5
      vertex 138.728 -0.270285 -10
    endloop
  endfacet
  facet normal 0.0522813 0.998632 -0
    outer loop
      vertex 140 -1.3 -10
      vertex 139.864 -1.29288 129.5
      vertex 140 -1.3 129.5
    endloop
  endfacet
  facet normal 0.0522813 0.998632 0
    outer loop
      vertex 139.864 -1.29288 129.5
      vertex 140 -1.3 -10
      vertex 139.864 -1.29288 -10
    endloop
  endfacet
  facet normal -0.257799 -0.966198 0
    outer loop
      vertex 140.27 1.27159 -10
      vertex 140.402 1.23637 129.5
      vertex 140.27 1.27159 129.5
    endloop
  endfacet
  facet normal -0.257799 -0.966198 -0
    outer loop
      vertex 140.402 1.23637 129.5
      vertex 140.27 1.27159 -10
      vertex 140.402 1.23637 -10
    endloop
  endfacet
  facet normal 0.454735 0.890627 -0
    outer loop
      vertex 139.471 -1.18761 -10
      vertex 139.35 -1.12583 129.5
      vertex 139.471 -1.18761 129.5
    endloop
  endfacet
  facet normal 0.454735 0.890627 0
    outer loop
      vertex 139.35 -1.12583 129.5
      vertex 139.471 -1.18761 -10
      vertex 139.35 -1.12583 -10
    endloop
  endfacet
  facet normal 0.454735 -0.890627 0
    outer loop
      vertex 139.35 1.12583 -10
      vertex 139.471 1.18761 129.5
      vertex 139.35 1.12583 129.5
    endloop
  endfacet
  facet normal 0.454735 -0.890627 0
    outer loop
      vertex 139.471 1.18761 129.5
      vertex 139.35 1.12583 -10
      vertex 139.471 1.18761 -10
    endloop
  endfacet
  facet normal -0.77583 -0.630941 0
    outer loop
      vertex 141.052 0.76412 -10
      vertex 140.966 0.869869 129.5
      vertex 140.966 0.869869 -10
    endloop
  endfacet
  facet normal -0.77583 -0.630941 0
    outer loop
      vertex 140.966 0.869869 129.5
      vertex 141.052 0.76412 -10
      vertex 141.052 0.76412 129.5
    endloop
  endfacet
  facet normal 0.964477 0.264166 0
    outer loop
      vertex 138.764 -0.401722 129.5
      vertex 138.728 -0.270285 -10
      vertex 138.728 -0.270285 129.5
    endloop
  endfacet
  facet normal 0.964477 0.264166 0
    outer loop
      vertex 138.728 -0.270285 -10
      vertex 138.764 -0.401722 129.5
      vertex 138.764 -0.401722 -10
    endloop
  endfacet
  facet normal -0.358427 0.933558 0
    outer loop
      vertex 140.529 -1.18761 -10
      vertex 140.402 -1.23637 129.5
      vertex 140.529 -1.18761 129.5
    endloop
  endfacet
  facet normal -0.358427 0.933558 0
    outer loop
      vertex 140.402 -1.23637 129.5
      vertex 140.529 -1.18761 -10
      vertex 140.402 -1.23637 -10
    endloop
  endfacet
  facet normal -0.839041 0.544068 0
    outer loop
      vertex 141.052 -0.76412 -10
      vertex 141.126 -0.65 129.5
      vertex 141.126 -0.65 -10
    endloop
  endfacet
  facet normal -0.839041 0.544068 0
    outer loop
      vertex 141.126 -0.65 129.5
      vertex 141.052 -0.76412 -10
      vertex 141.052 -0.76412 129.5
    endloop
  endfacet
  facet normal 0.77583 0.630941 0
    outer loop
      vertex 139.034 -0.869869 129.5
      vertex 138.948 -0.76412 -10
      vertex 138.948 -0.76412 129.5
    endloop
  endfacet
  facet normal 0.77583 0.630941 0
    outer loop
      vertex 138.948 -0.76412 -10
      vertex 139.034 -0.869869 129.5
      vertex 139.034 -0.869869 -10
    endloop
  endfacet
  facet normal -0.628415 -0.777878 0
    outer loop
      vertex 140.764 1.05172 -10
      vertex 140.87 0.966087 129.5
      vertex 140.764 1.05172 129.5
    endloop
  endfacet
  facet normal -0.628415 -0.777878 -0
    outer loop
      vertex 140.87 0.966087 129.5
      vertex 140.764 1.05172 -10
      vertex 140.87 0.966087 -10
    endloop
  endfacet
  facet normal -0.890341 -0.455294 0
    outer loop
      vertex 141.188 0.528757 -10
      vertex 141.126 0.65 129.5
      vertex 141.126 0.65 -10
    endloop
  endfacet
  facet normal -0.890341 -0.455294 0
    outer loop
      vertex 141.126 0.65 129.5
      vertex 141.188 0.528757 -10
      vertex 141.188 0.528757 129.5
    endloop
  endfacet
  facet normal -0.454735 0.890627 0
    outer loop
      vertex 140.65 -1.12583 -10
      vertex 140.529 -1.18761 129.5
      vertex 140.65 -1.12583 129.5
    endloop
  endfacet
  facet normal -0.454735 0.890627 0
    outer loop
      vertex 140.529 -1.18761 129.5
      vertex 140.65 -1.12583 -10
      vertex 140.529 -1.18761 -10
    endloop
  endfacet
  facet normal -0.54504 0.83841 0
    outer loop
      vertex 140.764 -1.05172 -10
      vertex 140.65 -1.12583 129.5
      vertex 140.764 -1.05172 129.5
    endloop
  endfacet
  facet normal -0.54504 0.83841 0
    outer loop
      vertex 140.65 -1.12583 129.5
      vertex 140.764 -1.05172 -10
      vertex 140.65 -1.12583 -10
    endloop
  endfacet
  facet normal -0.358427 -0.933558 0
    outer loop
      vertex 140.402 1.23637 -10
      vertex 140.529 1.18761 129.5
      vertex 140.402 1.23637 129.5
    endloop
  endfacet
  facet normal -0.358427 -0.933558 -0
    outer loop
      vertex 140.529 1.18761 129.5
      vertex 140.402 1.23637 -10
      vertex 140.529 1.18761 -10
    endloop
  endfacet
  facet normal 0.890341 0.455294 0
    outer loop
      vertex 138.874 -0.65 129.5
      vertex 138.812 -0.528757 -10
      vertex 138.812 -0.528757 129.5
    endloop
  endfacet
  facet normal 0.890341 0.455294 0
    outer loop
      vertex 138.812 -0.528757 -10
      vertex 138.874 -0.65 129.5
      vertex 138.874 -0.65 -10
    endloop
  endfacet
  facet normal -0.93545 0.353459 0
    outer loop
      vertex 141.188 -0.528757 -10
      vertex 141.236 -0.401722 129.5
      vertex 141.236 -0.401722 -10
    endloop
  endfacet
  facet normal -0.93545 0.353459 0
    outer loop
      vertex 141.236 -0.401722 129.5
      vertex 141.188 -0.528757 -10
      vertex 141.188 -0.528757 129.5
    endloop
  endfacet
  facet normal 0.839041 -0.544068 0
    outer loop
      vertex 138.874 0.65 129.5
      vertex 138.948 0.76412 -10
      vertex 138.948 0.76412 129.5
    endloop
  endfacet
  facet normal 0.839041 -0.544068 0
    outer loop
      vertex 138.948 0.76412 -10
      vertex 138.874 0.65 129.5
      vertex 138.874 0.65 -10
    endloop
  endfacet
  facet normal 0.156912 0.987613 -0
    outer loop
      vertex 139.864 -1.29288 -10
      vertex 139.73 -1.27159 129.5
      vertex 139.864 -1.29288 129.5
    endloop
  endfacet
  facet normal 0.156912 0.987613 0
    outer loop
      vertex 139.73 -1.27159 129.5
      vertex 139.864 -1.29288 -10
      vertex 139.73 -1.27159 -10
    endloop
  endfacet
  facet normal -0.0522813 -0.998632 0
    outer loop
      vertex 140 1.3 -10
      vertex 140.136 1.29288 129.5
      vertex 140 1.3 129.5
    endloop
  endfacet
  facet normal -0.0522813 -0.998632 -0
    outer loop
      vertex 140.136 1.29288 129.5
      vertex 140 1.3 -10
      vertex 140.136 1.29288 -10
    endloop
  endfacet
  facet normal -0.77583 0.630941 0
    outer loop
      vertex 140.966 -0.869869 -10
      vertex 141.052 -0.76412 129.5
      vertex 141.052 -0.76412 -10
    endloop
  endfacet
  facet normal -0.77583 0.630941 0
    outer loop
      vertex 141.052 -0.76412 129.5
      vertex 140.966 -0.869869 -10
      vertex 140.966 -0.869869 129.5
    endloop
  endfacet
  facet normal -0.839041 -0.544068 0
    outer loop
      vertex 141.126 0.65 -10
      vertex 141.052 0.76412 129.5
      vertex 141.052 0.76412 -10
    endloop
  endfacet
  facet normal -0.839041 -0.544068 0
    outer loop
      vertex 141.052 0.76412 129.5
      vertex 141.126 0.65 -10
      vertex 141.126 0.65 129.5
    endloop
  endfacet
  facet normal 0.77583 -0.630941 0
    outer loop
      vertex 138.948 0.76412 129.5
      vertex 139.034 0.869869 -10
      vertex 139.034 0.869869 129.5
    endloop
  endfacet
  facet normal 0.77583 -0.630941 0
    outer loop
      vertex 139.034 0.869869 -10
      vertex 138.948 0.76412 129.5
      vertex 138.948 0.76412 -10
    endloop
  endfacet
  facet normal 0.628415 -0.777878 0
    outer loop
      vertex 139.13 0.966087 -10
      vertex 139.236 1.05172 129.5
      vertex 139.13 0.966087 129.5
    endloop
  endfacet
  facet normal 0.628415 -0.777878 0
    outer loop
      vertex 139.236 1.05172 129.5
      vertex 139.13 0.966087 -10
      vertex 139.236 1.05172 -10
    endloop
  endfacet
  facet normal 0.257799 -0.966198 0
    outer loop
      vertex 139.598 1.23637 -10
      vertex 139.73 1.27159 129.5
      vertex 139.598 1.23637 129.5
    endloop
  endfacet
  facet normal 0.257799 -0.966198 0
    outer loop
      vertex 139.73 1.27159 129.5
      vertex 139.598 1.23637 -10
      vertex 139.73 1.27159 -10
    endloop
  endfacet
  facet normal 0.707908 -0.706304 0
    outer loop
      vertex 139.034 0.869869 -10
      vertex 139.13 0.966087 129.5
      vertex 139.034 0.869869 129.5
    endloop
  endfacet
  facet normal 0.707908 -0.706304 0
    outer loop
      vertex 139.13 0.966087 129.5
      vertex 139.034 0.869869 -10
      vertex 139.13 0.966087 -10
    endloop
  endfacet
  facet normal -0.890341 0.455294 0
    outer loop
      vertex 141.126 -0.65 -10
      vertex 141.188 -0.528757 129.5
      vertex 141.188 -0.528757 -10
    endloop
  endfacet
  facet normal -0.890341 0.455294 0
    outer loop
      vertex 141.188 -0.528757 129.5
      vertex 141.126 -0.65 -10
      vertex 141.126 -0.65 129.5
    endloop
  endfacet
  facet normal 0.839041 0.544068 0
    outer loop
      vertex 138.948 -0.76412 129.5
      vertex 138.874 -0.65 -10
      vertex 138.874 -0.65 129.5
    endloop
  endfacet
  facet normal 0.839041 0.544068 0
    outer loop
      vertex 138.874 -0.65 -10
      vertex 138.948 -0.76412 129.5
      vertex 138.948 -0.76412 -10
    endloop
  endfacet
  facet normal 0.988012 -0.154378 0
    outer loop
      vertex 138.707 0.135886 129.5
      vertex 138.728 0.270285 -10
      vertex 138.728 0.270285 129.5
    endloop
  endfacet
  facet normal 0.988012 -0.154378 0
    outer loop
      vertex 138.728 0.270285 -10
      vertex 138.707 0.135886 129.5
      vertex 138.707 0.135886 -10
    endloop
  endfacet
  facet normal -0.707908 -0.706304 0
    outer loop
      vertex 140.87 0.966087 -10
      vertex 140.966 0.869869 129.5
      vertex 140.87 0.966087 129.5
    endloop
  endfacet
  facet normal -0.707908 -0.706304 -0
    outer loop
      vertex 140.966 0.869869 129.5
      vertex 140.87 0.966087 -10
      vertex 140.966 0.869869 -10
    endloop
  endfacet
  facet normal -0.0522813 0.998632 0
    outer loop
      vertex 140.136 -1.29288 -10
      vertex 140 -1.3 129.5
      vertex 140.136 -1.29288 129.5
    endloop
  endfacet
  facet normal -0.0522813 0.998632 0
    outer loop
      vertex 140 -1.3 129.5
      vertex 140.136 -1.29288 -10
      vertex 140 -1.3 -10
    endloop
  endfacet
  facet normal 0.93545 0.353459 0
    outer loop
      vertex 138.812 -0.528757 129.5
      vertex 138.764 -0.401722 -10
      vertex 138.764 -0.401722 129.5
    endloop
  endfacet
  facet normal 0.93545 0.353459 0
    outer loop
      vertex 138.764 -0.401722 -10
      vertex 138.812 -0.528757 129.5
      vertex 138.812 -0.528757 -10
    endloop
  endfacet
  facet normal 0.707908 0.706304 -0
    outer loop
      vertex 139.13 -0.966087 -10
      vertex 139.034 -0.869869 129.5
      vertex 139.13 -0.966087 129.5
    endloop
  endfacet
  facet normal 0.707908 0.706304 0
    outer loop
      vertex 139.034 -0.869869 129.5
      vertex 139.13 -0.966087 -10
      vertex 139.034 -0.869869 -10
    endloop
  endfacet
  facet normal 0.964477 -0.264166 0
    outer loop
      vertex 138.728 0.270285 129.5
      vertex 138.764 0.401722 -10
      vertex 138.764 0.401722 129.5
    endloop
  endfacet
  facet normal 0.964477 -0.264166 0
    outer loop
      vertex 138.764 0.401722 -10
      vertex 138.728 0.270285 129.5
      vertex 138.728 0.270285 -10
    endloop
  endfacet
  facet normal -0.257799 0.966198 0
    outer loop
      vertex 140.402 -1.23637 -10
      vertex 140.27 -1.27159 129.5
      vertex 140.402 -1.23637 129.5
    endloop
  endfacet
  facet normal -0.257799 0.966198 0
    outer loop
      vertex 140.27 -1.27159 129.5
      vertex 140.402 -1.23637 -10
      vertex 140.27 -1.27159 -10
    endloop
  endfacet
  facet normal 0.628415 0.777878 -0
    outer loop
      vertex 139.236 -1.05172 -10
      vertex 139.13 -0.966087 129.5
      vertex 139.236 -1.05172 129.5
    endloop
  endfacet
  facet normal 0.628415 0.777878 0
    outer loop
      vertex 139.13 -0.966087 129.5
      vertex 139.236 -1.05172 -10
      vertex 139.13 -0.966087 -10
    endloop
  endfacet
  facet normal 0.358427 0.933558 -0
    outer loop
      vertex 139.598 -1.23637 -10
      vertex 139.471 -1.18761 129.5
      vertex 139.598 -1.23637 129.5
    endloop
  endfacet
  facet normal 0.358427 0.933558 0
    outer loop
      vertex 139.471 -1.18761 129.5
      vertex 139.598 -1.23637 -10
      vertex 139.471 -1.18761 -10
    endloop
  endfacet
  facet normal 0.257799 0.966198 -0
    outer loop
      vertex 139.73 -1.27159 -10
      vertex 139.598 -1.23637 129.5
      vertex 139.73 -1.27159 129.5
    endloop
  endfacet
  facet normal 0.257799 0.966198 0
    outer loop
      vertex 139.598 -1.23637 129.5
      vertex 139.73 -1.27159 -10
      vertex 139.598 -1.23637 -10
    endloop
  endfacet
  facet normal -0.707908 0.706304 0
    outer loop
      vertex 140.966 -0.869869 -10
      vertex 140.87 -0.966087 129.5
      vertex 140.966 -0.869869 129.5
    endloop
  endfacet
  facet normal -0.707908 0.706304 0
    outer loop
      vertex 140.87 -0.966087 129.5
      vertex 140.966 -0.869869 -10
      vertex 140.87 -0.966087 -10
    endloop
  endfacet
  facet normal 0.998676 -0.0514456 0
    outer loop
      vertex 138.7 0 129.5
      vertex 138.707 0.135886 -10
      vertex 138.707 0.135886 129.5
    endloop
  endfacet
  facet normal 0.998676 -0.0514456 0
    outer loop
      vertex 138.707 0.135886 -10
      vertex 138.7 0 129.5
      vertex 138.7 0 -10
    endloop
  endfacet
  facet normal 0.866153 0.499779 0
    outer loop
      vertex 149.846 9.93062 -8
      vertex 143.119 21.589 -10
      vertex 143.119 21.589 -8
    endloop
  endfacet
  facet normal 0.866153 0.499779 0
    outer loop
      vertex 143.119 21.589 -10
      vertex 149.846 9.93062 -8
      vertex 149.846 9.93062 -10
    endloop
  endfacet
  facet normal -0.99693 0.0782977 0
    outer loop
      vertex 136.5 20 -10
      vertex 136.543 20.5475 -8
      vertex 136.543 20.5475 -10
    endloop
  endfacet
  facet normal -0.99693 0.0782977 0
    outer loop
      vertex 136.543 20.5475 -8
      vertex 136.5 20 -10
      vertex 136.5 20 -8
    endloop
  endfacet
  facet normal -0.922549 -0.38588 0
    outer loop
      vertex 141.924 6.35436 -10
      vertex 136.881 18.411 -8
      vertex 136.881 18.411 -10
    endloop
  endfacet
  facet normal -0.922549 -0.38588 0
    outer loop
      vertex 136.881 18.411 -8
      vertex 141.924 6.35436 -10
      vertex 141.924 6.35436 -8
    endloop
  endfacet
  facet normal -0.972463 -0.233056 0
    outer loop
      vertex 136.671 18.9184 -10
      vertex 136.543 19.4525 -8
      vertex 136.543 19.4525 -10
    endloop
  endfacet
  facet normal -0.972463 -0.233056 0
    outer loop
      vertex 136.543 19.4525 -8
      vertex 136.671 18.9184 -10
      vertex 136.671 18.9184 -8
    endloop
  endfacet
  facet normal -0.972463 0.233056 0
    outer loop
      vertex 136.543 20.5475 -10
      vertex 136.671 21.0816 -8
      vertex 136.671 21.0816 -10
    endloop
  endfacet
  facet normal -0.972463 0.233056 0
    outer loop
      vertex 136.671 21.0816 -8
      vertex 136.543 20.5475 -10
      vertex 136.543 20.5475 -8
    endloop
  endfacet
  facet normal -0.92399 0.382416 0
    outer loop
      vertex 136.671 21.0816 -10
      vertex 136.881 21.589 -8
      vertex 136.881 21.589 -10
    endloop
  endfacet
  facet normal -0.92399 0.382416 0
    outer loop
      vertex 136.881 21.589 -8
      vertex 136.671 21.0816 -10
      vertex 136.671 21.0816 -8
    endloop
  endfacet
  facet normal 0.85257 0.522613 0
    outer loop
      vertex 143.119 21.589 -8
      vertex 142.832 22.0572 -10
      vertex 142.832 22.0572 -8
    endloop
  endfacet
  facet normal 0.85257 0.522613 0
    outer loop
      vertex 142.832 22.0572 -10
      vertex 143.119 21.589 -8
      vertex 143.119 21.589 -10
    endloop
  endfacet
  facet normal 0.0784075 0.996921 -0
    outer loop
      vertex 140.548 23.4569 -10
      vertex 140 23.5 -8
      vertex 140.548 23.4569 -8
    endloop
  endfacet
  facet normal 0.0784075 0.996921 0
    outer loop
      vertex 140 23.5 -8
      vertex 140.548 23.4569 -10
      vertex 140 23.5 -10
    endloop
  endfacet
  facet normal -0.99693 -0.0782977 0
    outer loop
      vertex 136.543 19.4525 -10
      vertex 136.5 20 -8
      vertex 136.5 20 -10
    endloop
  endfacet
  facet normal -0.99693 -0.0782977 0
    outer loop
      vertex 136.5 20 -8
      vertex 136.543 19.4525 -10
      vertex 136.543 19.4525 -8
    endloop
  endfacet
  facet normal -0.92399 -0.382416 0
    outer loop
      vertex 136.881 18.411 -10
      vertex 136.671 18.9184 -8
      vertex 136.671 18.9184 -10
    endloop
  endfacet
  facet normal -0.92399 -0.382416 0
    outer loop
      vertex 136.671 18.9184 -8
      vertex 136.881 18.411 -10
      vertex 136.881 18.411 -8
    endloop
  endfacet
  facet normal 0.649126 0.760681 -0
    outer loop
      vertex 142.475 22.4749 -10
      vertex 142.057 22.8316 -8
      vertex 142.475 22.4749 -8
    endloop
  endfacet
  facet normal 0.649126 0.760681 0
    outer loop
      vertex 142.057 22.8316 -8
      vertex 142.475 22.4749 -10
      vertex 142.057 22.8316 -10
    endloop
  endfacet
  facet normal -0.760181 0.649712 0
    outer loop
      vertex 137.168 22.0572 -10
      vertex 137.525 22.4749 -8
      vertex 137.525 22.4749 -10
    endloop
  endfacet
  facet normal -0.760181 0.649712 0
    outer loop
      vertex 137.525 22.4749 -8
      vertex 137.168 22.0572 -10
      vertex 137.168 22.0572 -8
    endloop
  endfacet
  facet normal 0.760181 0.649712 0
    outer loop
      vertex 142.832 22.0572 -8
      vertex 142.475 22.4749 -10
      vertex 142.475 22.4749 -8
    endloop
  endfacet
  facet normal 0.760181 0.649712 0
    outer loop
      vertex 142.475 22.4749 -10
      vertex 142.832 22.0572 -8
      vertex 142.832 22.0572 -10
    endloop
  endfacet
  facet normal -0.649126 0.760681 0
    outer loop
      vertex 137.943 22.8316 -10
      vertex 137.525 22.4749 -8
      vertex 137.943 22.8316 -8
    endloop
  endfacet
  facet normal -0.649126 0.760681 0
    outer loop
      vertex 137.525 22.4749 -8
      vertex 137.943 22.8316 -10
      vertex 137.525 22.4749 -10
    endloop
  endfacet
  facet normal -0.85257 0.522613 0
    outer loop
      vertex 136.881 21.589 -10
      vertex 137.168 22.0572 -8
      vertex 137.168 22.0572 -10
    endloop
  endfacet
  facet normal -0.85257 0.522613 0
    outer loop
      vertex 137.168 22.0572 -8
      vertex 136.881 21.589 -10
      vertex 136.881 21.589 -8
    endloop
  endfacet
  facet normal -0.233442 0.972371 0
    outer loop
      vertex 139.452 23.4569 -10
      vertex 138.918 23.3287 -8
      vertex 139.452 23.4569 -8
    endloop
  endfacet
  facet normal -0.233442 0.972371 0
    outer loop
      vertex 138.918 23.3287 -8
      vertex 139.452 23.4569 -10
      vertex 138.918 23.3287 -10
    endloop
  endfacet
  facet normal -0.382985 0.923755 0
    outer loop
      vertex 138.918 23.3287 -10
      vertex 138.411 23.1185 -8
      vertex 138.918 23.3287 -8
    endloop
  endfacet
  facet normal -0.382985 0.923755 0
    outer loop
      vertex 138.411 23.1185 -8
      vertex 138.918 23.3287 -10
      vertex 138.411 23.1185 -10
    endloop
  endfacet
  facet normal 0.233442 0.972371 -0
    outer loop
      vertex 141.082 23.3287 -10
      vertex 140.548 23.4569 -8
      vertex 141.082 23.3287 -8
    endloop
  endfacet
  facet normal 0.233442 0.972371 0
    outer loop
      vertex 140.548 23.4569 -8
      vertex 141.082 23.3287 -10
      vertex 140.548 23.4569 -10
    endloop
  endfacet
  facet normal 0.382985 0.923755 -0
    outer loop
      vertex 141.589 23.1185 -10
      vertex 141.082 23.3287 -8
      vertex 141.589 23.1185 -8
    endloop
  endfacet
  facet normal 0.382985 0.923755 0
    outer loop
      vertex 141.082 23.3287 -8
      vertex 141.589 23.1185 -10
      vertex 141.082 23.3287 -10
    endloop
  endfacet
  facet normal 0.522643 0.852552 -0
    outer loop
      vertex 142.057 22.8316 -10
      vertex 141.589 23.1185 -8
      vertex 142.057 22.8316 -8
    endloop
  endfacet
  facet normal 0.522643 0.852552 0
    outer loop
      vertex 141.589 23.1185 -8
      vertex 142.057 22.8316 -10
      vertex 141.589 23.1185 -10
    endloop
  endfacet
  facet normal -0.522643 0.852552 0
    outer loop
      vertex 138.411 23.1185 -10
      vertex 137.943 22.8316 -8
      vertex 138.411 23.1185 -8
    endloop
  endfacet
  facet normal -0.522643 0.852552 0
    outer loop
      vertex 137.943 22.8316 -8
      vertex 138.411 23.1185 -10
      vertex 137.943 22.8316 -10
    endloop
  endfacet
  facet normal -0.0784075 0.996921 0
    outer loop
      vertex 140 23.5 -10
      vertex 139.452 23.4569 -8
      vertex 140 23.5 -8
    endloop
  endfacet
  facet normal -0.0784075 0.996921 0
    outer loop
      vertex 139.452 23.4569 -8
      vertex 140 23.5 -10
      vertex 139.452 23.4569 -10
    endloop
  endfacet
  facet normal 0 0 1
    outer loop
      vertex 143.119 21.589 -8
      vertex 141.284 20.2034 -8
      vertex 141.3 20 -8
    endloop
  endfacet
  facet normal 0 0 1
    outer loop
      vertex 142.057 22.8316 -8
      vertex 141.236 20.4017 -8
      vertex 141.284 20.2034 -8
    endloop
  endfacet
  facet normal 0 0 1
    outer loop
      vertex 142.057 22.8316 -8
      vertex 141.158 20.5902 -8
      vertex 141.236 20.4017 -8
    endloop
  endfacet
  facet normal 0 0 1
    outer loop
      vertex 140.59 21.1583 -8
      vertex 141.589 23.1185 -8
      vertex 141.082 23.3287 -8
    endloop
  endfacet
  facet normal 0 0 1
    outer loop
      vertex 142.057 22.8316 -8
      vertex 141.052 20.7641 -8
      vertex 141.158 20.5902 -8
    endloop
  endfacet
  facet normal 0 0 1
    outer loop
      vertex 142.057 22.8316 -8
      vertex 140.919 20.9192 -8
      vertex 141.052 20.7641 -8
    endloop
  endfacet
  facet normal 0 0 1
    outer loop
      vertex 142.057 22.8316 -8
      vertex 140.764 21.0517 -8
      vertex 140.919 20.9192 -8
    endloop
  endfacet
  facet normal 0 0 1
    outer loop
      vertex 141.589 23.1185 -8
      vertex 140.59 21.1583 -8
      vertex 140.764 21.0517 -8
    endloop
  endfacet
  facet normal 0 0 1
    outer loop
      vertex 140.402 21.2364 -8
      vertex 141.082 23.3287 -8
      vertex 140.548 23.4569 -8
    endloop
  endfacet
  facet normal 0 0 1
    outer loop
      vertex 141.082 23.3287 -8
      vertex 140.402 21.2364 -8
      vertex 140.59 21.1583 -8
    endloop
  endfacet
  facet normal 0 0 1
    outer loop
      vertex 140.548 23.4569 -8
      vertex 140.203 21.284 -8
      vertex 140.402 21.2364 -8
    endloop
  endfacet
  facet normal 0 0 1
    outer loop
      vertex 140 23.5 -8
      vertex 140.203 21.284 -8
      vertex 140.548 23.4569 -8
    endloop
  endfacet
  facet normal 0 0 1
    outer loop
      vertex 140 23.5 -8
      vertex 140 21.3 -8
      vertex 140.203 21.284 -8
    endloop
  endfacet
  facet normal 0 0 1
    outer loop
      vertex 140 23.5 -8
      vertex 139.797 21.284 -8
      vertex 140 21.3 -8
    endloop
  endfacet
  facet normal -0 0 1
    outer loop
      vertex 139.452 23.4569 -8
      vertex 139.797 21.284 -8
      vertex 140 23.5 -8
    endloop
  endfacet
  facet normal 0 0 1
    outer loop
      vertex 139.797 21.284 -8
      vertex 139.452 23.4569 -8
      vertex 139.598 21.2364 -8
    endloop
  endfacet
  facet normal -0 0 1
    outer loop
      vertex 138.918 23.3287 -8
      vertex 139.598 21.2364 -8
      vertex 139.452 23.4569 -8
    endloop
  endfacet
  facet normal 0 0 1
    outer loop
      vertex 139.598 21.2364 -8
      vertex 138.918 23.3287 -8
      vertex 139.41 21.1583 -8
    endloop
  endfacet
  facet normal -0 0 1
    outer loop
      vertex 138.411 23.1185 -8
      vertex 139.41 21.1583 -8
      vertex 138.918 23.3287 -8
    endloop
  endfacet
  facet normal 0 0 1
    outer loop
      vertex 139.41 21.1583 -8
      vertex 138.411 23.1185 -8
      vertex 139.236 21.0517 -8
    endloop
  endfacet
  facet normal -0 0 1
    outer loop
      vertex 137.943 22.8316 -8
      vertex 139.236 21.0517 -8
      vertex 138.411 23.1185 -8
    endloop
  endfacet
  facet normal 0 0 1
    outer loop
      vertex 139.236 21.0517 -8
      vertex 137.943 22.8316 -8
      vertex 139.081 20.9192 -8
    endloop
  endfacet
  facet normal -0 0 1
    outer loop
      vertex 137.525 22.4749 -8
      vertex 139.081 20.9192 -8
      vertex 137.943 22.8316 -8
    endloop
  endfacet
  facet normal 0 0 1
    outer loop
      vertex 139.081 20.9192 -8
      vertex 137.525 22.4749 -8
      vertex 138.948 20.7641 -8
    endloop
  endfacet
  facet normal -0 0 1
    outer loop
      vertex 137.168 22.0572 -8
      vertex 138.948 20.7641 -8
      vertex 137.525 22.4749 -8
    endloop
  endfacet
  facet normal 0 0 1
    outer loop
      vertex 138.948 20.7641 -8
      vertex 137.168 22.0572 -8
      vertex 138.842 20.5902 -8
    endloop
  endfacet
  facet normal 0 0 1
    outer loop
      vertex 141.284 20.2034 -8
      vertex 143.119 21.589 -8
      vertex 142.832 22.0572 -8
    endloop
  endfacet
  facet normal 0 0 1
    outer loop
      vertex 141.284 20.2034 -8
      vertex 142.832 22.0572 -8
      vertex 142.475 22.4749 -8
    endloop
  endfacet
  facet normal 0 0 1
    outer loop
      vertex 141.284 20.2034 -8
      vertex 142.475 22.4749 -8
      vertex 142.057 22.8316 -8
    endloop
  endfacet
  facet normal 0 0 1
    outer loop
      vertex 143.119 21.589 -8
      vertex 141.284 19.7966 -8
      vertex 141.236 19.5983 -8
    endloop
  endfacet
  facet normal 0 0 1
    outer loop
      vertex 140.764 21.0517 -8
      vertex 142.057 22.8316 -8
      vertex 141.589 23.1185 -8
    endloop
  endfacet
  facet normal 0 0 1
    outer loop
      vertex 143.119 21.589 -8
      vertex 141.3 20 -8
      vertex 141.284 19.7966 -8
    endloop
  endfacet
  facet normal 0 0 1
    outer loop
      vertex 141.158 19.4098 -8
      vertex 143.119 21.589 -8
      vertex 141.236 19.5983 -8
    endloop
  endfacet
  facet normal 0 0 1
    outer loop
      vertex 143.119 21.589 -8
      vertex 141.158 19.4098 -8
      vertex 149.846 9.93062 -8
    endloop
  endfacet
  facet normal -0 0 1
    outer loop
      vertex 141.052 19.2359 -8
      vertex 149.846 9.93062 -8
      vertex 141.158 19.4098 -8
    endloop
  endfacet
  facet normal -0 0 1
    outer loop
      vertex 140.919 19.0808 -8
      vertex 149.846 9.93062 -8
      vertex 141.052 19.2359 -8
    endloop
  endfacet
  facet normal -0 0 1
    outer loop
      vertex 140.764 18.9483 -8
      vertex 149.846 9.93062 -8
      vertex 140.919 19.0808 -8
    endloop
  endfacet
  facet normal -0 0 1
    outer loop
      vertex 140.59 18.8417 -8
      vertex 149.846 9.93062 -8
      vertex 140.764 18.9483 -8
    endloop
  endfacet
  facet normal 0 0 1
    outer loop
      vertex 149.846 9.93062 -8
      vertex 140.59 18.8417 -8
      vertex 141.924 6.35436 -8
    endloop
  endfacet
  facet normal -0 0 1
    outer loop
      vertex 140.402 18.7636 -8
      vertex 141.924 6.35436 -8
      vertex 140.59 18.8417 -8
    endloop
  endfacet
  facet normal -0 0 1
    outer loop
      vertex 140.203 18.716 -8
      vertex 141.924 6.35436 -8
      vertex 140.402 18.7636 -8
    endloop
  endfacet
  facet normal -0 0 1
    outer loop
      vertex 140 18.7 -8
      vertex 141.924 6.35436 -8
      vertex 140.203 18.716 -8
    endloop
  endfacet
  facet normal 0 0 1
    outer loop
      vertex 139.797 18.716 -8
      vertex 141.924 6.35436 -8
      vertex 140 18.7 -8
    endloop
  endfacet
  facet normal 0 0 1
    outer loop
      vertex 136.881 18.411 -8
      vertex 139.797 18.716 -8
      vertex 139.598 18.7636 -8
    endloop
  endfacet
  facet normal 0 0 1
    outer loop
      vertex 136.881 18.411 -8
      vertex 139.598 18.7636 -8
      vertex 139.41 18.8417 -8
    endloop
  endfacet
  facet normal 0 0 1
    outer loop
      vertex 136.881 18.411 -8
      vertex 139.41 18.8417 -8
      vertex 139.236 18.9483 -8
    endloop
  endfacet
  facet normal 0 0 1
    outer loop
      vertex 136.881 18.411 -8
      vertex 139.236 18.9483 -8
      vertex 139.081 19.0808 -8
    endloop
  endfacet
  facet normal 0 0 1
    outer loop
      vertex 136.881 18.411 -8
      vertex 139.081 19.0808 -8
      vertex 138.948 19.2359 -8
    endloop
  endfacet
  facet normal 0 0 1
    outer loop
      vertex 136.881 18.411 -8
      vertex 138.948 19.2359 -8
      vertex 138.842 19.4098 -8
    endloop
  endfacet
  facet normal 0 0 1
    outer loop
      vertex 136.881 18.411 -8
      vertex 138.842 19.4098 -8
      vertex 138.764 19.5983 -8
    endloop
  endfacet
  facet normal 0 0 1
    outer loop
      vertex 136.671 18.9184 -8
      vertex 138.764 19.5983 -8
      vertex 138.716 19.7966 -8
    endloop
  endfacet
  facet normal -0 0 1
    outer loop
      vertex 136.881 21.589 -8
      vertex 138.842 20.5902 -8
      vertex 137.168 22.0572 -8
    endloop
  endfacet
  facet normal 0 0 1
    outer loop
      vertex 138.842 20.5902 -8
      vertex 136.881 21.589 -8
      vertex 138.764 20.4017 -8
    endloop
  endfacet
  facet normal -0 0 1
    outer loop
      vertex 136.671 21.0816 -8
      vertex 138.764 20.4017 -8
      vertex 136.881 21.589 -8
    endloop
  endfacet
  facet normal 0 0 1
    outer loop
      vertex 138.764 20.4017 -8
      vertex 136.671 21.0816 -8
      vertex 138.716 20.2034 -8
    endloop
  endfacet
  facet normal -0 0 1
    outer loop
      vertex 136.543 20.5475 -8
      vertex 138.716 20.2034 -8
      vertex 136.671 21.0816 -8
    endloop
  endfacet
  facet normal 0 0 1
    outer loop
      vertex 138.716 20.2034 -8
      vertex 136.543 20.5475 -8
      vertex 138.7 20 -8
    endloop
  endfacet
  facet normal 0 0 1
    outer loop
      vertex 139.797 18.716 -8
      vertex 136.881 18.411 -8
      vertex 141.924 6.35436 -8
    endloop
  endfacet
  facet normal 0 0 1
    outer loop
      vertex 136.5 20 -8
      vertex 138.7 20 -8
      vertex 136.543 20.5475 -8
    endloop
  endfacet
  facet normal 0 0 1
    outer loop
      vertex 138.764 19.5983 -8
      vertex 136.671 18.9184 -8
      vertex 136.881 18.411 -8
    endloop
  endfacet
  facet normal 0 0 1
    outer loop
      vertex 138.7 20 -8
      vertex 136.5 20 -8
      vertex 138.716 19.7966 -8
    endloop
  endfacet
  facet normal 0 0 1
    outer loop
      vertex 138.716 19.7966 -8
      vertex 136.543 19.4525 -8
      vertex 136.671 18.9184 -8
    endloop
  endfacet
  facet normal 0 0 1
    outer loop
      vertex 138.716 19.7966 -8
      vertex 136.5 20 -8
      vertex 136.543 19.4525 -8
    endloop
  endfacet
  facet normal 0.99692 0.0784205 0
    outer loop
      vertex 138.716 19.7966 -8
      vertex 138.7 20 -10
      vertex 138.7 20 -8
    endloop
  endfacet
  facet normal 0.99692 0.0784205 0
    outer loop
      vertex 138.7 20 -10
      vertex 138.716 19.7966 -8
      vertex 138.716 19.7966 -10
    endloop
  endfacet
  facet normal -0.522401 0.8527 0
    outer loop
      vertex 140.764 18.9483 -10
      vertex 140.59 18.8417 -8
      vertex 140.764 18.9483 -8
    endloop
  endfacet
  facet normal -0.522401 0.8527 0
    outer loop
      vertex 140.59 18.8417 -8
      vertex 140.764 18.9483 -10
      vertex 140.59 18.8417 -10
    endloop
  endfacet
  facet normal 0.971932 -0.235263 0
    outer loop
      vertex 138.716 20.2034 -8
      vertex 138.764 20.4017 -10
      vertex 138.764 20.4017 -8
    endloop
  endfacet
  facet normal 0.971932 -0.235263 0
    outer loop
      vertex 138.764 20.4017 -10
      vertex 138.716 20.2034 -8
      vertex 138.716 20.2034 -10
    endloop
  endfacet
  facet normal -0.0785741 -0.996908 0
    outer loop
      vertex 140 21.3 -10
      vertex 140.203 21.284 -8
      vertex 140 21.3 -8
    endloop
  endfacet
  facet normal -0.0785741 -0.996908 -0
    outer loop
      vertex 140.203 21.284 -8
      vertex 140 21.3 -10
      vertex 140.203 21.284 -10
    endloop
  endfacet
  facet normal -0.971932 -0.235263 0
    outer loop
      vertex 141.284 20.2034 -10
      vertex 141.236 20.4017 -8
      vertex 141.236 20.4017 -10
    endloop
  endfacet
  facet normal -0.971932 -0.235263 0
    outer loop
      vertex 141.236 20.4017 -8
      vertex 141.284 20.2034 -10
      vertex 141.284 20.2034 -8
    endloop
  endfacet
  facet normal -0.383639 0.923483 0
    outer loop
      vertex 140.59 18.8417 -10
      vertex 140.402 18.7636 -8
      vertex 140.59 18.8417 -8
    endloop
  endfacet
  facet normal -0.383639 0.923483 0
    outer loop
      vertex 140.402 18.7636 -8
      vertex 140.59 18.8417 -10
      vertex 140.402 18.7636 -10
    endloop
  endfacet
  facet normal 0.971932 0.235263 0
    outer loop
      vertex 138.764 19.5983 -8
      vertex 138.716 19.7966 -10
      vertex 138.716 19.7966 -8
    endloop
  endfacet
  facet normal 0.971932 0.235263 0
    outer loop
      vertex 138.716 19.7966 -10
      vertex 138.764 19.5983 -8
      vertex 138.764 19.5983 -10
    endloop
  endfacet
  facet normal -0.99692 0.0784205 0
    outer loop
      vertex 141.284 19.7966 -10
      vertex 141.3 20 -8
      vertex 141.3 20 -10
    endloop
  endfacet
  facet normal -0.99692 0.0784205 0
    outer loop
      vertex 141.3 20 -8
      vertex 141.284 19.7966 -10
      vertex 141.284 19.7966 -8
    endloop
  endfacet
  facet normal -0.853876 0.520476 0
    outer loop
      vertex 141.052 19.2359 -10
      vertex 141.158 19.4098 -8
      vertex 141.158 19.4098 -10
    endloop
  endfacet
  facet normal -0.853876 0.520476 0
    outer loop
      vertex 141.158 19.4098 -8
      vertex 141.052 19.2359 -10
      vertex 141.052 19.2359 -8
    endloop
  endfacet
  facet normal -0.232634 0.972564 0
    outer loop
      vertex 140.402 18.7636 -10
      vertex 140.203 18.716 -8
      vertex 140.402 18.7636 -8
    endloop
  endfacet
  facet normal -0.232634 0.972564 0
    outer loop
      vertex 140.203 18.716 -8
      vertex 140.402 18.7636 -10
      vertex 140.203 18.716 -10
    endloop
  endfacet
  facet normal 0.649781 0.760121 -0
    outer loop
      vertex 139.236 18.9483 -10
      vertex 139.081 19.0808 -8
      vertex 139.236 18.9483 -8
    endloop
  endfacet
  facet normal 0.649781 0.760121 0
    outer loop
      vertex 139.081 19.0808 -8
      vertex 139.236 18.9483 -10
      vertex 139.081 19.0808 -10
    endloop
  endfacet
  facet normal -0.99692 -0.0784205 0
    outer loop
      vertex 141.3 20 -10
      vertex 141.284 20.2034 -8
      vertex 141.284 20.2034 -10
    endloop
  endfacet
  facet normal -0.99692 -0.0784205 0
    outer loop
      vertex 141.284 20.2034 -8
      vertex 141.3 20 -10
      vertex 141.3 20 -8
    endloop
  endfacet
  facet normal 0.924017 0.382352 0
    outer loop
      vertex 138.842 19.4098 -8
      vertex 138.764 19.5983 -10
      vertex 138.764 19.5983 -8
    endloop
  endfacet
  facet normal 0.924017 0.382352 0
    outer loop
      vertex 138.764 19.5983 -10
      vertex 138.842 19.4098 -8
      vertex 138.842 19.4098 -10
    endloop
  endfacet
  facet normal 0.232634 -0.972564 0
    outer loop
      vertex 139.598 21.2364 -10
      vertex 139.797 21.284 -8
      vertex 139.598 21.2364 -8
    endloop
  endfacet
  facet normal 0.232634 -0.972564 0
    outer loop
      vertex 139.797 21.284 -8
      vertex 139.598 21.2364 -10
      vertex 139.797 21.284 -10
    endloop
  endfacet
  facet normal -0.924017 -0.382352 0
    outer loop
      vertex 141.236 20.4017 -10
      vertex 141.158 20.5902 -8
      vertex 141.158 20.5902 -10
    endloop
  endfacet
  facet normal -0.924017 -0.382352 0
    outer loop
      vertex 141.158 20.5902 -8
      vertex 141.236 20.4017 -10
      vertex 141.236 20.4017 -8
    endloop
  endfacet
  facet normal 0.759118 -0.650953 0
    outer loop
      vertex 138.948 20.7641 -8
      vertex 139.081 20.9192 -10
      vertex 139.081 20.9192 -8
    endloop
  endfacet
  facet normal 0.759118 -0.650953 0
    outer loop
      vertex 139.081 20.9192 -10
      vertex 138.948 20.7641 -8
      vertex 138.948 20.7641 -10
    endloop
  endfacet
  facet normal -0.649781 0.760121 0
    outer loop
      vertex 140.919 19.0808 -10
      vertex 140.764 18.9483 -8
      vertex 140.919 19.0808 -8
    endloop
  endfacet
  facet normal -0.649781 0.760121 0
    outer loop
      vertex 140.764 18.9483 -8
      vertex 140.919 19.0808 -10
      vertex 140.764 18.9483 -10
    endloop
  endfacet
  facet normal -0.232634 -0.972564 0
    outer loop
      vertex 140.203 21.284 -10
      vertex 140.402 21.2364 -8
      vertex 140.203 21.284 -8
    endloop
  endfacet
  facet normal -0.232634 -0.972564 -0
    outer loop
      vertex 140.402 21.2364 -8
      vertex 140.203 21.284 -10
      vertex 140.402 21.2364 -10
    endloop
  endfacet
  facet normal 0.0785741 0.996908 -0
    outer loop
      vertex 140 18.7 -10
      vertex 139.797 18.716 -8
      vertex 140 18.7 -8
    endloop
  endfacet
  facet normal 0.0785741 0.996908 0
    outer loop
      vertex 139.797 18.716 -8
      vertex 140 18.7 -10
      vertex 139.797 18.716 -10
    endloop
  endfacet
  facet normal 0.232634 0.972564 -0
    outer loop
      vertex 139.797 18.716 -10
      vertex 139.598 18.7636 -8
      vertex 139.797 18.716 -8
    endloop
  endfacet
  facet normal 0.232634 0.972564 0
    outer loop
      vertex 139.598 18.7636 -8
      vertex 139.797 18.716 -10
      vertex 139.598 18.7636 -10
    endloop
  endfacet
  facet normal 0.759118 0.650953 0
    outer loop
      vertex 139.081 19.0808 -8
      vertex 138.948 19.2359 -10
      vertex 138.948 19.2359 -8
    endloop
  endfacet
  facet normal 0.759118 0.650953 0
    outer loop
      vertex 138.948 19.2359 -10
      vertex 139.081 19.0808 -8
      vertex 139.081 19.0808 -10
    endloop
  endfacet
  facet normal -0.853876 -0.520476 0
    outer loop
      vertex 141.158 20.5902 -10
      vertex 141.052 20.7641 -8
      vertex 141.052 20.7641 -10
    endloop
  endfacet
  facet normal -0.853876 -0.520476 0
    outer loop
      vertex 141.052 20.7641 -8
      vertex 141.158 20.5902 -10
      vertex 141.158 20.5902 -8
    endloop
  endfacet
  facet normal -0.522401 -0.8527 0
    outer loop
      vertex 140.59 21.1583 -10
      vertex 140.764 21.0517 -8
      vertex 140.59 21.1583 -8
    endloop
  endfacet
  facet normal -0.522401 -0.8527 -0
    outer loop
      vertex 140.764 21.0517 -8
      vertex 140.59 21.1583 -10
      vertex 140.764 21.0517 -10
    endloop
  endfacet
  facet normal -0.924017 0.382352 0
    outer loop
      vertex 141.158 19.4098 -10
      vertex 141.236 19.5983 -8
      vertex 141.236 19.5983 -10
    endloop
  endfacet
  facet normal -0.924017 0.382352 0
    outer loop
      vertex 141.236 19.5983 -8
      vertex 141.158 19.4098 -10
      vertex 141.158 19.4098 -8
    endloop
  endfacet
  facet normal -0.971932 0.235263 0
    outer loop
      vertex 141.236 19.5983 -10
      vertex 141.284 19.7966 -8
      vertex 141.284 19.7966 -10
    endloop
  endfacet
  facet normal -0.971932 0.235263 0
    outer loop
      vertex 141.284 19.7966 -8
      vertex 141.236 19.5983 -10
      vertex 141.236 19.5983 -8
    endloop
  endfacet
  facet normal 0.924017 -0.382352 0
    outer loop
      vertex 138.764 20.4017 -8
      vertex 138.842 20.5902 -10
      vertex 138.842 20.5902 -8
    endloop
  endfacet
  facet normal 0.924017 -0.382352 0
    outer loop
      vertex 138.842 20.5902 -10
      vertex 138.764 20.4017 -8
      vertex 138.764 20.4017 -10
    endloop
  endfacet
  facet normal -0.649781 -0.760121 0
    outer loop
      vertex 140.764 21.0517 -10
      vertex 140.919 20.9192 -8
      vertex 140.764 21.0517 -8
    endloop
  endfacet
  facet normal -0.649781 -0.760121 -0
    outer loop
      vertex 140.919 20.9192 -8
      vertex 140.764 21.0517 -10
      vertex 140.919 20.9192 -10
    endloop
  endfacet
  facet normal -0.759118 0.650953 0
    outer loop
      vertex 140.919 19.0808 -10
      vertex 141.052 19.2359 -8
      vertex 141.052 19.2359 -10
    endloop
  endfacet
  facet normal -0.759118 0.650953 0
    outer loop
      vertex 141.052 19.2359 -8
      vertex 140.919 19.0808 -10
      vertex 140.919 19.0808 -8
    endloop
  endfacet
  facet normal 0.522401 -0.8527 0
    outer loop
      vertex 139.236 21.0517 -10
      vertex 139.41 21.1583 -8
      vertex 139.236 21.0517 -8
    endloop
  endfacet
  facet normal 0.522401 -0.8527 0
    outer loop
      vertex 139.41 21.1583 -8
      vertex 139.236 21.0517 -10
      vertex 139.41 21.1583 -10
    endloop
  endfacet
  facet normal 0.99692 -0.0784205 0
    outer loop
      vertex 138.7 20 -8
      vertex 138.716 20.2034 -10
      vertex 138.716 20.2034 -8
    endloop
  endfacet
  facet normal 0.99692 -0.0784205 0
    outer loop
      vertex 138.716 20.2034 -10
      vertex 138.7 20 -8
      vertex 138.7 20 -10
    endloop
  endfacet
  facet normal -0.759118 -0.650953 0
    outer loop
      vertex 141.052 20.7641 -10
      vertex 140.919 20.9192 -8
      vertex 140.919 20.9192 -10
    endloop
  endfacet
  facet normal -0.759118 -0.650953 0
    outer loop
      vertex 140.919 20.9192 -8
      vertex 141.052 20.7641 -10
      vertex 141.052 20.7641 -8
    endloop
  endfacet
  facet normal 0.0785741 -0.996908 0
    outer loop
      vertex 139.797 21.284 -10
      vertex 140 21.3 -8
      vertex 139.797 21.284 -8
    endloop
  endfacet
  facet normal 0.0785741 -0.996908 0
    outer loop
      vertex 140 21.3 -8
      vertex 139.797 21.284 -10
      vertex 140 21.3 -10
    endloop
  endfacet
  facet normal 0.383639 -0.923483 0
    outer loop
      vertex 139.41 21.1583 -10
      vertex 139.598 21.2364 -8
      vertex 139.41 21.1583 -8
    endloop
  endfacet
  facet normal 0.383639 -0.923483 0
    outer loop
      vertex 139.598 21.2364 -8
      vertex 139.41 21.1583 -10
      vertex 139.598 21.2364 -10
    endloop
  endfacet
  facet normal 0.853876 0.520476 0
    outer loop
      vertex 138.948 19.2359 -8
      vertex 138.842 19.4098 -10
      vertex 138.842 19.4098 -8
    endloop
  endfacet
  facet normal 0.853876 0.520476 0
    outer loop
      vertex 138.842 19.4098 -10
      vertex 138.948 19.2359 -8
      vertex 138.948 19.2359 -10
    endloop
  endfacet
  facet normal -0.383639 -0.923483 0
    outer loop
      vertex 140.402 21.2364 -10
      vertex 140.59 21.1583 -8
      vertex 140.402 21.2364 -8
    endloop
  endfacet
  facet normal -0.383639 -0.923483 -0
    outer loop
      vertex 140.59 21.1583 -8
      vertex 140.402 21.2364 -10
      vertex 140.59 21.1583 -10
    endloop
  endfacet
  facet normal 0.649781 -0.760121 0
    outer loop
      vertex 139.081 20.9192 -10
      vertex 139.236 21.0517 -8
      vertex 139.081 20.9192 -8
    endloop
  endfacet
  facet normal 0.649781 -0.760121 0
    outer loop
      vertex 139.236 21.0517 -8
      vertex 139.081 20.9192 -10
      vertex 139.236 21.0517 -10
    endloop
  endfacet
  facet normal 0.853876 -0.520476 0
    outer loop
      vertex 138.842 20.5902 -8
      vertex 138.948 20.7641 -10
      vertex 138.948 20.7641 -8
    endloop
  endfacet
  facet normal 0.853876 -0.520476 0
    outer loop
      vertex 138.948 20.7641 -10
      vertex 138.842 20.5902 -8
      vertex 138.842 20.5902 -10
    endloop
  endfacet
  facet normal 0.522401 0.8527 -0
    outer loop
      vertex 139.41 18.8417 -10
      vertex 139.236 18.9483 -8
      vertex 139.41 18.8417 -8
    endloop
  endfacet
  facet normal 0.522401 0.8527 0
    outer loop
      vertex 139.236 18.9483 -8
      vertex 139.41 18.8417 -10
      vertex 139.236 18.9483 -10
    endloop
  endfacet
  facet normal -0.0785741 0.996908 0
    outer loop
      vertex 140.203 18.716 -10
      vertex 140 18.7 -8
      vertex 140.203 18.716 -8
    endloop
  endfacet
  facet normal -0.0785741 0.996908 0
    outer loop
      vertex 140 18.7 -8
      vertex 140.203 18.716 -10
      vertex 140 18.7 -10
    endloop
  endfacet
  facet normal 0.383639 0.923483 -0
    outer loop
      vertex 139.598 18.7636 -10
      vertex 139.41 18.8417 -8
      vertex 139.598 18.7636 -8
    endloop
  endfacet
  facet normal 0.383639 0.923483 0
    outer loop
      vertex 139.41 18.8417 -8
      vertex 139.598 18.7636 -10
      vertex 139.41 18.8417 -10
    endloop
  endfacet
endsolid OpenSCAD_Model
