solid model
  facet normal 0 0 1
    outer loop
      vertex 0.5 -15 -16.4
      vertex 2 -10 -16.4
      vertex 0.5 15 -16.4
    endloop
  endfacet
  facet normal 0 0 1
    outer loop
      vertex 0.5 -15 -16.4
      vertex 2 -12 -16.4
      vertex 2 -10 -16.4
    endloop
  endfacet
  facet normal 0 0 1
    outer loop
      vertex 0.5 -15 -16.4
      vertex 2 -15 -16.4
      vertex 2 -12 -16.4
    endloop
  endfacet
  facet normal 0 -1 0
    outer loop
      vertex 0.5 -15 -16.4
      vertex 2 -15 -18.4
      vertex 2 -15 -16.4
    endloop
  endfacet
  facet normal -1 -0 0
    outer loop
      vertex 0.5 -15 -20.4
      vertex 0.5 -15 -16.4
      vertex 0.5 15 -16.4
    endloop
  endfacet
  facet normal -1 0 0
    outer loop
      vertex 0.5 -15 -20.4
      vertex 0.5 15 -16.4
      vertex 0.5 15 -20.4
    endloop
  endfacet
  facet normal 0 0 -1
    outer loop
      vertex 0.5 -15 -20.4
      vertex 0.5 15 -20.4
      vertex 15.7056 10.0595 -20.4
    endloop
  endfacet
  facet normal 0 0 -1
    outer loop
      vertex 0.5 -15 -20.4
      vertex 15.435 -10.6673 -20.4
      vertex 15.435 -11.3327 -20.4
    endloop
  endfacet
  facet normal -0 0 -1
    outer loop
      vertex 0.5 -15 -20.4
      vertex 15.435 -11.3327 -20.4
      vertex 15.7056 -11.9405 -20.4
    endloop
  endfacet
  facet normal 0 0 -1
    outer loop
      vertex 0.5 -15 -20.4
      vertex 15.7056 -10.0595 -20.4
      vertex 15.435 -10.6673 -20.4
    endloop
  endfacet
  facet normal -0 0 -1
    outer loop
      vertex 0.5 -15 -20.4
      vertex 15.7056 -11.9405 -20.4
      vertex 16.2 -12.3856 -20.4
    endloop
  endfacet
  facet normal -0 0 -1
    outer loop
      vertex 0.5 -15 -20.4
      vertex 15.7056 10.0595 -20.4
      vertex 15.7056 -10.0595 -20.4
    endloop
  endfacet
  facet normal -0 0 -1
    outer loop
      vertex 0.5 -15 -20.4
      vertex 16.2 -12.3856 -20.4
      vertex 16.8328 -12.5912 -20.4
    endloop
  endfacet
  facet normal 0 0 -1
    outer loop
      vertex 0.5 -15 -20.4
      vertex 16.8328 -12.5912 -20.4
      vertex 40 -15 -20.4
    endloop
  endfacet
  facet normal 0 -1 0
    outer loop
      vertex 0.5 -15 -20.4
      vertex 2 -15 -18.4
      vertex 0.5 -15 -16.4
    endloop
  endfacet
  facet normal 0 -1 0
    outer loop
      vertex 0.5 -15 -20.4
      vertex 40 -15 -20.4
      vertex 2 -15 -18.4
    endloop
  endfacet
  facet normal 0 0 1
    outer loop
      vertex 0.5 15 -16.4
      vertex 2 -10 -16.4
      vertex 2 10 -16.4
    endloop
  endfacet
  facet normal 0 0 1
    outer loop
      vertex 0.5 15 -16.4
      vertex 2 10 -16.4
      vertex 2 12 -16.4
    endloop
  endfacet
  facet normal -0 0 1
    outer loop
      vertex 0.5 15 -16.4
      vertex 2 12 -16.4
      vertex 2 15 -16.4
    endloop
  endfacet
  facet normal 0 1 -0
    outer loop
      vertex 0.5 15 -16.4
      vertex 2 15 -16.4
      vertex 2 15 -18.4
    endloop
  endfacet
  facet normal 0 1 0
    outer loop
      vertex 0.5 15 -20.4
      vertex 0.5 15 -16.4
      vertex 2 15 -18.4
    endloop
  endfacet
  facet normal 0 0 -1
    outer loop
      vertex 0.5 15 -20.4
      vertex 15.435 10.6673 -20.4
      vertex 15.7056 10.0595 -20.4
    endloop
  endfacet
  facet normal 0 0 -1
    outer loop
      vertex 0.5 15 -20.4
      vertex 15.435 11.3327 -20.4
      vertex 15.435 10.6673 -20.4
    endloop
  endfacet
  facet normal 0 0 -1
    outer loop
      vertex 0.5 15 -20.4
      vertex 15.7056 11.9405 -20.4
      vertex 15.435 11.3327 -20.4
    endloop
  endfacet
  facet normal 0 0 -1
    outer loop
      vertex 0.5 15 -20.4
      vertex 16.2 12.3856 -20.4
      vertex 15.7056 11.9405 -20.4
    endloop
  endfacet
  facet normal 0 0 -1
    outer loop
      vertex 0.5 15 -20.4
      vertex 16.8328 12.5912 -20.4
      vertex 16.2 12.3856 -20.4
    endloop
  endfacet
  facet normal 0 1 0
    outer loop
      vertex 0.5 15 -20.4
      vertex 2 15 -18.4
      vertex 40 15 -20.4
    endloop
  endfacet
  facet normal 0 0 -1
    outer loop
      vertex 0.5 15 -20.4
      vertex 40 15 -20.4
      vertex 16.8328 12.5912 -20.4
    endloop
  endfacet
  facet normal 0.913551 -0.406724 0
    outer loop
      vertex 15.435 -10.6673 -16.4
      vertex 15.7056 -10.0595 -20.4
      vertex 15.7056 -10.0595 -16.4
    endloop
  endfacet
  facet normal 0.913551 -0.406724 0
    outer loop
      vertex 15.435 -10.6673 -20.4
      vertex 15.7056 -10.0595 -20.4
      vertex 15.435 -10.6673 -16.4
    endloop
  endfacet
  facet normal 1 -0 0
    outer loop
      vertex 15.435 -11.3327 -16.4
      vertex 15.435 -10.6673 -20.4
      vertex 15.435 -10.6673 -16.4
    endloop
  endfacet
  facet normal 1 0 0
    outer loop
      vertex 15.435 -11.3327 -20.4
      vertex 15.435 -10.6673 -20.4
      vertex 15.435 -11.3327 -16.4
    endloop
  endfacet
  facet normal 0.913551 0.406724 0
    outer loop
      vertex 15.435 -11.3327 -20.4
      vertex 15.435 -11.3327 -16.4
      vertex 15.7056 -11.9405 -16.4
    endloop
  endfacet
  facet normal 0.913551 0.406724 0
    outer loop
      vertex 15.435 -11.3327 -20.4
      vertex 15.7056 -11.9405 -16.4
      vertex 15.7056 -11.9405 -20.4
    endloop
  endfacet
  facet normal 1 -0 0
    outer loop
      vertex 15.435 10.6673 -16.4
      vertex 15.435 11.3327 -20.4
      vertex 15.435 11.3327 -16.4
    endloop
  endfacet
  facet normal 0.913551 0.406724 0
    outer loop
      vertex 15.435 10.6673 -20.4
      vertex 15.435 10.6673 -16.4
      vertex 15.7056 10.0595 -16.4
    endloop
  endfacet
  facet normal 1 0 0
    outer loop
      vertex 15.435 10.6673 -20.4
      vertex 15.435 11.3327 -20.4
      vertex 15.435 10.6673 -16.4
    endloop
  endfacet
  facet normal 0.913551 0.406724 0
    outer loop
      vertex 15.435 10.6673 -20.4
      vertex 15.7056 10.0595 -16.4
      vertex 15.7056 10.0595 -20.4
    endloop
  endfacet
  facet normal 0.913551 -0.406724 0
    outer loop
      vertex 15.435 11.3327 -16.4
      vertex 15.7056 11.9405 -20.4
      vertex 15.7056 11.9405 -16.4
    endloop
  endfacet
  facet normal 0.913551 -0.406724 0
    outer loop
      vertex 15.435 11.3327 -20.4
      vertex 15.7056 11.9405 -20.4
      vertex 15.435 11.3327 -16.4
    endloop
  endfacet
  facet normal 0.669027 -0.743238 0
    outer loop
      vertex 15.7056 -10.0595 -16.4
      vertex 15.7717 -10 -18.4
      vertex 15.7717 -10 -16.4
    endloop
  endfacet
  facet normal 0 0 -1
    outer loop
      vertex 15.7056 -10.0595 -20.4
      vertex 15.7056 10.0595 -20.4
      vertex 16.2 9.61436 -20.4
    endloop
  endfacet
  facet normal 0.669027 -0.743238 0
    outer loop
      vertex 15.7056 -10.0595 -20.4
      vertex 15.7717 -10 -18.4
      vertex 15.7056 -10.0595 -16.4
    endloop
  endfacet
  facet normal 0.669114 -0.74316 -5.22647e-06
    outer loop
      vertex 15.7056 -10.0595 -20.4
      vertex 16.2 -9.61436 -20.4
      vertex 15.7717 -10 -18.4
    endloop
  endfacet
  facet normal 0 0 -1
    outer loop
      vertex 15.7056 -10.0595 -20.4
      vertex 16.2 9.61436 -20.4
      vertex 16.2 -9.61436 -20.4
    endloop
  endfacet
  facet normal 0.669027 0.743238 -0
    outer loop
      vertex 15.7056 -11.9405 -16.4
      vertex 15.7717 -12 -16.4
      vertex 15.7717 -12 -18.4
    endloop
  endfacet
  facet normal 0.669027 0.743238 0
    outer loop
      vertex 15.7056 -11.9405 -20.4
      vertex 15.7056 -11.9405 -16.4
      vertex 15.7717 -12 -18.4
    endloop
  endfacet
  facet normal 0.669081 0.743189 -3.23943e-06
    outer loop
      vertex 15.7056 -11.9405 -20.4
      vertex 15.7717 -12 -18.4
      vertex 16.2 -12.3856 -20.4
    endloop
  endfacet
  facet normal 0.669027 0.743238 -0
    outer loop
      vertex 15.7056 10.0595 -16.4
      vertex 15.7717 10 -16.4
      vertex 15.7717 10 -18.4
    endloop
  endfacet
  facet normal 0.669027 0.743238 0
    outer loop
      vertex 15.7056 10.0595 -20.4
      vertex 15.7056 10.0595 -16.4
      vertex 15.7717 10 -18.4
    endloop
  endfacet
  facet normal 0.669114 0.74316 -5.22647e-06
    outer loop
      vertex 15.7056 10.0595 -20.4
      vertex 15.7717 10 -18.4
      vertex 16.2 9.61436 -20.4
    endloop
  endfacet
  facet normal 0.669027 -0.743238 0
    outer loop
      vertex 15.7056 11.9405 -16.4
      vertex 15.7717 12 -18.4
      vertex 15.7717 12 -16.4
    endloop
  endfacet
  facet normal 0.669027 -0.743238 0
    outer loop
      vertex 15.7056 11.9405 -20.4
      vertex 15.7717 12 -18.4
      vertex 15.7056 11.9405 -16.4
    endloop
  endfacet
  facet normal 0.669081 -0.743189 -3.23943e-06
    outer loop
      vertex 15.7056 11.9405 -20.4
      vertex 16.2 12.3856 -20.4
      vertex 15.7717 12 -18.4
    endloop
  endfacet
  facet normal 0.669128 -0.743147 0
    outer loop
      vertex 15.7717 -10 -18.4
      vertex 16.2 -9.61436 -20.4
      vertex 16.2 -9.61436 -18.4
    endloop
  endfacet
  facet normal 0.669089 0.743182 0
    outer loop
      vertex 15.7717 -12 -18.4
      vertex 16.2 -12.3856 -18.4
      vertex 16.2 -12.3856 -20.4
    endloop
  endfacet
  facet normal 0.669128 0.743147 0
    outer loop
      vertex 15.7717 10 -18.4
      vertex 16.2 9.61436 -18.4
      vertex 16.2 9.61436 -20.4
    endloop
  endfacet
  facet normal 0.669089 -0.743182 0
    outer loop
      vertex 15.7717 12 -18.4
      vertex 16.2 12.3856 -20.4
      vertex 16.2 12.3856 -18.4
    endloop
  endfacet
  facet normal 0.309005 0.951061 -0
    outer loop
      vertex 16.2 -12.3856 -18.4
      vertex 16.8328 -12.5912 -18.4
      vertex 16.8328 -12.5912 -20.4
    endloop
  endfacet
  facet normal 0.309005 0.951061 0
    outer loop
      vertex 16.2 -12.3856 -20.4
      vertex 16.2 -12.3856 -18.4
      vertex 16.8328 -12.5912 -20.4
    endloop
  endfacet
  facet normal 0 0 1
    outer loop
      vertex 16.2 -9.61436 -18.4
      vertex 16.8328 -9.40877 -18.4
      vertex 16.2 9.61436 -18.4
    endloop
  endfacet
  facet normal 0 0 -1
    outer loop
      vertex 16.2 -9.61436 -20.4
      vertex 16.2 9.61436 -20.4
      vertex 16.8328 9.40876 -20.4
    endloop
  endfacet
  facet normal 0.308991 -0.951065 0
    outer loop
      vertex 16.2 -9.61436 -20.4
      vertex 16.8328 -9.40877 -18.4
      vertex 16.2 -9.61436 -18.4
    endloop
  endfacet
  facet normal 0.308991 -0.951065 0
    outer loop
      vertex 16.2 -9.61436 -20.4
      vertex 16.8328 -9.40877 -20.4
      vertex 16.8328 -9.40877 -18.4
    endloop
  endfacet
  facet normal 0 0 -1
    outer loop
      vertex 16.2 -9.61436 -20.4
      vertex 16.8328 9.40876 -20.4
      vertex 16.8328 -9.40877 -20.4
    endloop
  endfacet
  facet normal 0.309005 -0.951061 0
    outer loop
      vertex 16.2 12.3856 -20.4
      vertex 16.8328 12.5912 -18.4
      vertex 16.2 12.3856 -18.4
    endloop
  endfacet
  facet normal 0.309005 -0.951061 0
    outer loop
      vertex 16.2 12.3856 -20.4
      vertex 16.8328 12.5912 -20.4
      vertex 16.8328 12.5912 -18.4
    endloop
  endfacet
  facet normal 0 0 1
    outer loop
      vertex 16.2 9.61436 -18.4
      vertex 16.8328 -9.40877 -18.4
      vertex 16.8328 9.40876 -18.4
    endloop
  endfacet
  facet normal 0.309005 0.951061 -0
    outer loop
      vertex 16.2 9.61436 -18.4
      vertex 16.8328 9.40876 -18.4
      vertex 16.8328 9.40876 -20.4
    endloop
  endfacet
  facet normal 0.309005 0.951061 0
    outer loop
      vertex 16.2 9.61436 -20.4
      vertex 16.2 9.61436 -18.4
      vertex 16.8328 9.40876 -20.4
    endloop
  endfacet
  facet normal -0.104474 0.994528 0
    outer loop
      vertex 16.8328 -12.5912 -18.4
      vertex 17.4944 -12.5217 -18.4
      vertex 17.4944 -12.5217 -20.4
    endloop
  endfacet
  facet normal -0 0 1
    outer loop
      vertex 16.8328 -12.5912 -18.4
      vertex 40 -15 -18.4
      vertex 17.4944 -12.5217 -18.4
    endloop
  endfacet
  facet normal -0.104474 0.994528 0
    outer loop
      vertex 16.8328 -12.5912 -20.4
      vertex 16.8328 -12.5912 -18.4
      vertex 17.4944 -12.5217 -20.4
    endloop
  endfacet
  facet normal 0 0 -1
    outer loop
      vertex 16.8328 -12.5912 -20.4
      vertex 17.4944 -12.5217 -20.4
      vertex 40 -15 -20.4
    endloop
  endfacet
  facet normal 0 0 1
    outer loop
      vertex 16.8328 -9.40877 -18.4
      vertex 17.4944 -9.47831 -18.4
      vertex 16.8328 9.40876 -18.4
    endloop
  endfacet
  facet normal 0 0 -1
    outer loop
      vertex 16.8328 -9.40877 -20.4
      vertex 16.8328 9.40876 -20.4
      vertex 17.4944 9.47831 -20.4
    endloop
  endfacet
  facet normal -0.104533 -0.994521 0
    outer loop
      vertex 16.8328 -9.40877 -20.4
      vertex 17.4944 -9.47831 -18.4
      vertex 16.8328 -9.40877 -18.4
    endloop
  endfacet
  facet normal -0.104533 -0.994521 -0
    outer loop
      vertex 16.8328 -9.40877 -20.4
      vertex 17.4944 -9.47831 -20.4
      vertex 17.4944 -9.47831 -18.4
    endloop
  endfacet
  facet normal 0 0 -1
    outer loop
      vertex 16.8328 -9.40877 -20.4
      vertex 17.4944 9.47831 -20.4
      vertex 17.4944 -9.47831 -20.4
    endloop
  endfacet
  facet normal 0 0 1
    outer loop
      vertex 16.8328 12.5912 -18.4
      vertex 17.4944 12.5217 -18.4
      vertex 40 15 -18.4
    endloop
  endfacet
  facet normal -0.104474 -0.994528 0
    outer loop
      vertex 16.8328 12.5912 -20.4
      vertex 17.4944 12.5217 -18.4
      vertex 16.8328 12.5912 -18.4
    endloop
  endfacet
  facet normal -0.104474 -0.994528 -0
    outer loop
      vertex 16.8328 12.5912 -20.4
      vertex 17.4944 12.5217 -20.4
      vertex 17.4944 12.5217 -18.4
    endloop
  endfacet
  facet normal 0 0 -1
    outer loop
      vertex 16.8328 12.5912 -20.4
      vertex 40 15 -20.4
      vertex 17.4944 12.5217 -20.4
    endloop
  endfacet
  facet normal -0 0 1
    outer loop
      vertex 16.8328 9.40876 -18.4
      vertex 17.4944 -9.47831 -18.4
      vertex 17.4944 9.47831 -18.4
    endloop
  endfacet
  facet normal -0.104548 0.99452 0
    outer loop
      vertex 16.8328 9.40876 -18.4
      vertex 17.4944 9.47831 -18.4
      vertex 17.4944 9.47831 -20.4
    endloop
  endfacet
  facet normal -0.104548 0.99452 0
    outer loop
      vertex 16.8328 9.40876 -20.4
      vertex 16.8328 9.40876 -18.4
      vertex 17.4944 9.47831 -20.4
    endloop
  endfacet
  facet normal -0.500035 0.866005 0
    outer loop
      vertex 17.4944 -12.5217 -18.4
      vertex 18.0706 -12.189 -18.4
      vertex 18.0706 -12.189 -20.4
    endloop
  endfacet
  facet normal -0 0 1
    outer loop
      vertex 17.4944 -12.5217 -18.4
      vertex 40 -15 -18.4
      vertex 18.0706 -12.189 -18.4
    endloop
  endfacet
  facet normal -0.500035 0.866005 0
    outer loop
      vertex 17.4944 -12.5217 -20.4
      vertex 17.4944 -12.5217 -18.4
      vertex 18.0706 -12.189 -20.4
    endloop
  endfacet
  facet normal 0 0 -1
    outer loop
      vertex 17.4944 -12.5217 -20.4
      vertex 18.0706 -12.189 -20.4
      vertex 40 -15 -20.4
    endloop
  endfacet
  facet normal 0 0 1
    outer loop
      vertex 17.4944 -9.47831 -18.4
      vertex 18.0706 -9.81097 -18.4
      vertex 17.4944 9.47831 -18.4
    endloop
  endfacet
  facet normal 0 0 -1
    outer loop
      vertex 17.4944 -9.47831 -20.4
      vertex 17.4944 9.47831 -20.4
      vertex 18.0706 9.81097 -20.4
    endloop
  endfacet
  facet normal -0.49999 -0.866031 0
    outer loop
      vertex 17.4944 -9.47831 -20.4
      vertex 18.0706 -9.81097 -18.4
      vertex 17.4944 -9.47831 -18.4
    endloop
  endfacet
  facet normal -0.49999 -0.866031 -0
    outer loop
      vertex 17.4944 -9.47831 -20.4
      vertex 18.0706 -9.81097 -20.4
      vertex 18.0706 -9.81097 -18.4
    endloop
  endfacet
  facet normal 0 0 -1
    outer loop
      vertex 17.4944 -9.47831 -20.4
      vertex 18.0706 9.81097 -20.4
      vertex 18.0706 -9.81097 -20.4
    endloop
  endfacet
  facet normal 0 0 1
    outer loop
      vertex 17.4944 12.5217 -18.4
      vertex 18.0706 12.189 -18.4
      vertex 40 15 -18.4
    endloop
  endfacet
  facet normal -0.500035 -0.866005 0
    outer loop
      vertex 17.4944 12.5217 -20.4
      vertex 18.0706 12.189 -18.4
      vertex 17.4944 12.5217 -18.4
    endloop
  endfacet
  facet normal -0.500035 -0.866005 -0
    outer loop
      vertex 17.4944 12.5217 -20.4
      vertex 18.0706 12.189 -20.4
      vertex 18.0706 12.189 -18.4
    endloop
  endfacet
  facet normal 0 0 -1
    outer loop
      vertex 17.4944 12.5217 -20.4
      vertex 40 15 -20.4
      vertex 18.0706 12.189 -20.4
    endloop
  endfacet
  facet normal -0 0 1
    outer loop
      vertex 17.4944 9.47831 -18.4
      vertex 18.0706 -9.81097 -18.4
      vertex 18.0706 9.81097 -18.4
    endloop
  endfacet
  facet normal -0.49999 0.866031 0
    outer loop
      vertex 17.4944 9.47831 -18.4
      vertex 18.0706 9.81097 -18.4
      vertex 18.0706 9.81097 -20.4
    endloop
  endfacet
  facet normal -0.49999 0.866031 0
    outer loop
      vertex 17.4944 9.47831 -20.4
      vertex 17.4944 9.47831 -18.4
      vertex 18.0706 9.81097 -20.4
    endloop
  endfacet
  facet normal -0 0 1
    outer loop
      vertex 18.0706 -12.189 -18.4
      vertex 40 -15 -18.4
      vertex 18.2079 -12 -18.4
    endloop
  endfacet
  facet normal -0.809051 0.587739 0
    outer loop
      vertex 18.0706 -12.189 -20.4
      vertex 18.0706 -12.189 -18.4
      vertex 18.2079 -12 -18.4
    endloop
  endfacet
  facet normal -0.808964 0.587859 -1.73156e-05
    outer loop
      vertex 18.0706 -12.189 -20.4
      vertex 18.2079 -12 -18.4
      vertex 18.4617 -11.6508 -20.4
    endloop
  endfacet
  facet normal 0 0 -1
    outer loop
      vertex 18.0706 -12.189 -20.4
      vertex 18.4617 -11.6508 -20.4
      vertex 40 -15 -20.4
    endloop
  endfacet
  facet normal 0 0 1
    outer loop
      vertex 18.0706 -9.81097 -18.4
      vertex 18.2079 -10 -18.4
      vertex 40 -10 -18.4
    endloop
  endfacet
  facet normal -0 0 1
    outer loop
      vertex 18.0706 -9.81097 -18.4
      vertex 40 -10 -18.4
      vertex 18.0706 9.81097 -18.4
    endloop
  endfacet
  facet normal 0 0 -1
    outer loop
      vertex 18.0706 -9.81097 -20.4
      vertex 18.0706 9.81097 -20.4
      vertex 18.4617 10.3492 -20.4
    endloop
  endfacet
  facet normal -0.809095 -0.587678 0
    outer loop
      vertex 18.0706 -9.81097 -20.4
      vertex 18.2079 -10 -18.4
      vertex 18.0706 -9.81097 -18.4
    endloop
  endfacet
  facet normal -0.808979 -0.587837 -2.3037e-05
    outer loop
      vertex 18.0706 -9.81097 -20.4
      vertex 18.4617 -10.3492 -20.4
      vertex 18.2079 -10 -18.4
    endloop
  endfacet
  facet normal 0 0 -1
    outer loop
      vertex 18.0706 -9.81097 -20.4
      vertex 18.4617 10.3492 -20.4
      vertex 18.4617 -10.3492 -20.4
    endloop
  endfacet
  facet normal 0 0 1
    outer loop
      vertex 18.0706 12.189 -18.4
      vertex 18.2079 12 -18.4
      vertex 40 15 -18.4
    endloop
  endfacet
  facet normal -0.809051 -0.587739 0
    outer loop
      vertex 18.0706 12.189 -20.4
      vertex 18.2079 12 -18.4
      vertex 18.0706 12.189 -18.4
    endloop
  endfacet
  facet normal -0.808964 -0.587859 -1.73156e-05
    outer loop
      vertex 18.0706 12.189 -20.4
      vertex 18.4617 11.6508 -20.4
      vertex 18.2079 12 -18.4
    endloop
  endfacet
  facet normal 0 0 -1
    outer loop
      vertex 18.0706 12.189 -20.4
      vertex 40 15 -20.4
      vertex 18.4617 11.6508 -20.4
    endloop
  endfacet
  facet normal 0 0 1
    outer loop
      vertex 18.0706 9.81097 -18.4
      vertex 40 -10 -18.4
      vertex 40 10 -18.4
    endloop
  endfacet
  facet normal 0 0 1
    outer loop
      vertex 18.0706 9.81097 -18.4
      vertex 40 10 -18.4
      vertex 18.2079 10 -18.4
    endloop
  endfacet
  facet normal -0.809095 0.587678 0
    outer loop
      vertex 18.0706 9.81097 -20.4
      vertex 18.0706 9.81097 -18.4
      vertex 18.2079 10 -18.4
    endloop
  endfacet
  facet normal -0.808979 0.587837 -2.3037e-05
    outer loop
      vertex 18.0706 9.81097 -20.4
      vertex 18.2079 10 -18.4
      vertex 18.4617 10.3492 -20.4
    endloop
  endfacet
  facet normal 0 -0 1
    outer loop
      vertex 18.2079 -10 -16.4
      vertex 18.4617 -10.3492 -16.4
      vertex 40 -10 -16.4
    endloop
  endfacet
  facet normal 0 1 -0
    outer loop
      vertex 18.2079 -10 -16.4
      vertex 40 -10 -16.4
      vertex 40 -10 -18.4
    endloop
  endfacet
  facet normal 0 1 0
    outer loop
      vertex 18.2079 -10 -18.4
      vertex 18.2079 -10 -16.4
      vertex 40 -10 -18.4
    endloop
  endfacet
  facet normal -0.808916 -0.587924 0
    outer loop
      vertex 18.2079 -10 -18.4
      vertex 18.4617 -10.3492 -16.4
      vertex 18.2079 -10 -16.4
    endloop
  endfacet
  facet normal -0.808916 -0.587924 -0
    outer loop
      vertex 18.2079 -10 -18.4
      vertex 18.4617 -10.3492 -20.4
      vertex 18.4617 -10.3492 -16.4
    endloop
  endfacet
  facet normal 0 0 1
    outer loop
      vertex 18.2079 -12 -16.4
      vertex 40 -12 -16.4
      vertex 18.4617 -11.6508 -16.4
    endloop
  endfacet
  facet normal -0.808916 0.587924 0
    outer loop
      vertex 18.2079 -12 -18.4
      vertex 18.2079 -12 -16.4
      vertex 18.4617 -11.6508 -16.4
    endloop
  endfacet
  facet normal -0.808916 0.587924 0
    outer loop
      vertex 18.2079 -12 -18.4
      vertex 18.4617 -11.6508 -16.4
      vertex 18.4617 -11.6508 -20.4
    endloop
  endfacet
  facet normal 0 -1 0
    outer loop
      vertex 18.2079 -12 -18.4
      vertex 40 -12 -16.4
      vertex 18.2079 -12 -16.4
    endloop
  endfacet
  facet normal 0 -1 -0
    outer loop
      vertex 18.2079 -12 -18.4
      vertex 40 -12 -18.4
      vertex 40 -12 -16.4
    endloop
  endfacet
  facet normal -0 0 1
    outer loop
      vertex 18.2079 -12 -18.4
      vertex 40 -15 -18.4
      vertex 40 -12 -18.4
    endloop
  endfacet
  facet normal 0 0 1
    outer loop
      vertex 18.2079 10 -16.4
      vertex 40 10 -16.4
      vertex 18.4617 10.3492 -16.4
    endloop
  endfacet
  facet normal -0.808916 0.587924 0
    outer loop
      vertex 18.2079 10 -18.4
      vertex 18.2079 10 -16.4
      vertex 18.4617 10.3492 -16.4
    endloop
  endfacet
  facet normal -0.808916 0.587924 0
    outer loop
      vertex 18.2079 10 -18.4
      vertex 18.4617 10.3492 -16.4
      vertex 18.4617 10.3492 -20.4
    endloop
  endfacet
  facet normal 0 -1 0
    outer loop
      vertex 18.2079 10 -18.4
      vertex 40 10 -16.4
      vertex 18.2079 10 -16.4
    endloop
  endfacet
  facet normal 0 -1 -0
    outer loop
      vertex 18.2079 10 -18.4
      vertex 40 10 -18.4
      vertex 40 10 -16.4
    endloop
  endfacet
  facet normal 0 -0 1
    outer loop
      vertex 18.2079 12 -16.4
      vertex 18.4617 11.6508 -16.4
      vertex 40 12 -16.4
    endloop
  endfacet
  facet normal 0 1 -0
    outer loop
      vertex 18.2079 12 -16.4
      vertex 40 12 -16.4
      vertex 40 12 -18.4
    endloop
  endfacet
  facet normal 0 1 0
    outer loop
      vertex 18.2079 12 -18.4
      vertex 18.2079 12 -16.4
      vertex 40 12 -18.4
    endloop
  endfacet
  facet normal -0.808916 -0.587924 0
    outer loop
      vertex 18.2079 12 -18.4
      vertex 18.4617 11.6508 -16.4
      vertex 18.2079 12 -16.4
    endloop
  endfacet
  facet normal -0.808916 -0.587924 -0
    outer loop
      vertex 18.2079 12 -18.4
      vertex 18.4617 11.6508 -20.4
      vertex 18.4617 11.6508 -16.4
    endloop
  endfacet
  facet normal 0 0 1
    outer loop
      vertex 18.2079 12 -18.4
      vertex 40 12 -18.4
      vertex 40 15 -18.4
    endloop
  endfacet
  facet normal 0 0 1
    outer loop
      vertex 18.4617 -10.3492 -16.4
      vertex 18.6 -11 -16.4
      vertex 40 -10 -16.4
    endloop
  endfacet
  facet normal -0.978157 -0.207866 0
    outer loop
      vertex 18.4617 -10.3492 -16.4
      vertex 18.6 -11 -20.4
      vertex 18.6 -11 -16.4
    endloop
  endfacet
  facet normal 0 0 -1
    outer loop
      vertex 18.4617 -10.3492 -20.4
      vertex 18.4617 10.3492 -20.4
      vertex 40 15 -20.4
    endloop
  endfacet
  facet normal -0.978157 -0.207866 0
    outer loop
      vertex 18.4617 -10.3492 -20.4
      vertex 18.6 -11 -20.4
      vertex 18.4617 -10.3492 -16.4
    endloop
  endfacet
  facet normal 0 0 -1
    outer loop
      vertex 18.4617 -10.3492 -20.4
      vertex 40 -15 -20.4
      vertex 18.6 -11 -20.4
    endloop
  endfacet
  facet normal 0 0 -1
    outer loop
      vertex 18.4617 -10.3492 -20.4
      vertex 40 15 -20.4
      vertex 40 -15 -20.4
    endloop
  endfacet
  facet normal -0 0 1
    outer loop
      vertex 18.4617 -11.6508 -16.4
      vertex 40 -12 -16.4
      vertex 18.6 -11 -16.4
    endloop
  endfacet
  facet normal -0.978157 0.207866 0
    outer loop
      vertex 18.4617 -11.6508 -20.4
      vertex 18.4617 -11.6508 -16.4
      vertex 18.6 -11 -16.4
    endloop
  endfacet
  facet normal -0.978157 0.207866 0
    outer loop
      vertex 18.4617 -11.6508 -20.4
      vertex 18.6 -11 -16.4
      vertex 18.6 -11 -20.4
    endloop
  endfacet
  facet normal 0 0 -1
    outer loop
      vertex 18.4617 -11.6508 -20.4
      vertex 18.6 -11 -20.4
      vertex 40 -15 -20.4
    endloop
  endfacet
  facet normal -0 0 1
    outer loop
      vertex 18.4617 10.3492 -16.4
      vertex 40 10 -16.4
      vertex 18.6 11 -16.4
    endloop
  endfacet
  facet normal -0.978157 0.207866 0
    outer loop
      vertex 18.4617 10.3492 -20.4
      vertex 18.4617 10.3492 -16.4
      vertex 18.6 11 -16.4
    endloop
  endfacet
  facet normal -0.978157 0.207866 0
    outer loop
      vertex 18.4617 10.3492 -20.4
      vertex 18.6 11 -16.4
      vertex 18.6 11 -20.4
    endloop
  endfacet
  facet normal 0 0 -1
    outer loop
      vertex 18.4617 10.3492 -20.4
      vertex 18.6 11 -20.4
      vertex 40 15 -20.4
    endloop
  endfacet
  facet normal 0 0 1
    outer loop
      vertex 18.4617 11.6508 -16.4
      vertex 18.6 11 -16.4
      vertex 40 12 -16.4
    endloop
  endfacet
  facet normal -0.978157 -0.207866 0
    outer loop
      vertex 18.4617 11.6508 -16.4
      vertex 18.6 11 -20.4
      vertex 18.6 11 -16.4
    endloop
  endfacet
  facet normal -0.978157 -0.207866 0
    outer loop
      vertex 18.4617 11.6508 -20.4
      vertex 18.6 11 -20.4
      vertex 18.4617 11.6508 -16.4
    endloop
  endfacet
  facet normal 0 0 -1
    outer loop
      vertex 18.4617 11.6508 -20.4
      vertex 40 15 -20.4
      vertex 18.6 11 -20.4
    endloop
  endfacet
  facet normal 0 0 1
    outer loop
      vertex 18.6 -11 -16.4
      vertex 40 -12 -16.4
      vertex 40 -10 -16.4
    endloop
  endfacet
  facet normal 0 0 1
    outer loop
      vertex 18.6 11 -16.4
      vertex 40 10 -16.4
      vertex 40 12 -16.4
    endloop
  endfacet
  facet normal 0 0 1
    outer loop
      vertex 2 -10 -16.4
      vertex 15.435 -10.6673 -16.4
      vertex 15.7056 -10.0595 -16.4
    endloop
  endfacet
  facet normal 0 0 1
    outer loop
      vertex 2 -10 -16.4
      vertex 15.435 -11.3327 -16.4
      vertex 15.435 -10.6673 -16.4
    endloop
  endfacet
  facet normal -0 0 1
    outer loop
      vertex 2 -10 -16.4
      vertex 15.7056 -10.0595 -16.4
      vertex 15.7717 -10 -16.4
    endloop
  endfacet
  facet normal 0 1 -0
    outer loop
      vertex 2 -10 -16.4
      vertex 15.7717 -10 -16.4
      vertex 15.7717 -10 -18.4
    endloop
  endfacet
  facet normal 1 -0 0
    outer loop
      vertex 2 -10 -16.4
      vertex 2 10 -18.4
      vertex 2 10 -16.4
    endloop
  endfacet
  facet normal 0 0 1
    outer loop
      vertex 2 -10 -18.4
      vertex 15.7717 -10 -18.4
      vertex 16.2 -9.61436 -18.4
    endloop
  endfacet
  facet normal 0 0 1
    outer loop
      vertex 2 -10 -18.4
      vertex 16.2 -9.61436 -18.4
      vertex 2 10 -18.4
    endloop
  endfacet
  facet normal 0 1 0
    outer loop
      vertex 2 -10 -18.4
      vertex 2 -10 -16.4
      vertex 15.7717 -10 -18.4
    endloop
  endfacet
  facet normal 1 0 0
    outer loop
      vertex 2 -10 -18.4
      vertex 2 10 -18.4
      vertex 2 -10 -16.4
    endloop
  endfacet
  facet normal 0 0 1
    outer loop
      vertex 2 -12 -16.4
      vertex 15.435 -11.3327 -16.4
      vertex 2 -10 -16.4
    endloop
  endfacet
  facet normal 0 0 1
    outer loop
      vertex 2 -12 -16.4
      vertex 15.7056 -11.9405 -16.4
      vertex 15.435 -11.3327 -16.4
    endloop
  endfacet
  facet normal 0 0 1
    outer loop
      vertex 2 -12 -16.4
      vertex 15.7717 -12 -16.4
      vertex 15.7056 -11.9405 -16.4
    endloop
  endfacet
  facet normal 0 -1 0
    outer loop
      vertex 2 -12 -18.4
      vertex 15.7717 -12 -16.4
      vertex 2 -12 -16.4
    endloop
  endfacet
  facet normal 0 -1 -0
    outer loop
      vertex 2 -12 -18.4
      vertex 15.7717 -12 -18.4
      vertex 15.7717 -12 -16.4
    endloop
  endfacet
  facet normal 1 -0 0
    outer loop
      vertex 2 -15 -16.4
      vertex 2 -12 -18.4
      vertex 2 -12 -16.4
    endloop
  endfacet
  facet normal 0 0 1
    outer loop
      vertex 2 -15 -18.4
      vertex 15.7717 -12 -18.4
      vertex 2 -12 -18.4
    endloop
  endfacet
  facet normal 0 0 1
    outer loop
      vertex 2 -15 -18.4
      vertex 16.2 -12.3856 -18.4
      vertex 15.7717 -12 -18.4
    endloop
  endfacet
  facet normal 0 0 1
    outer loop
      vertex 2 -15 -18.4
      vertex 16.8328 -12.5912 -18.4
      vertex 16.2 -12.3856 -18.4
    endloop
  endfacet
  facet normal 1 0 0
    outer loop
      vertex 2 -15 -18.4
      vertex 2 -12 -18.4
      vertex 2 -15 -16.4
    endloop
  endfacet
  facet normal 0 0 1
    outer loop
      vertex 2 -15 -18.4
      vertex 40 -15 -18.4
      vertex 16.8328 -12.5912 -18.4
    endloop
  endfacet
  facet normal 0 -1 0
    outer loop
      vertex 2 -15 -18.4
      vertex 40 -15 -20.4
      vertex 40 -15 -18.4
    endloop
  endfacet
  facet normal 0 0 1
    outer loop
      vertex 2 10 -16.4
      vertex 15.435 10.6673 -16.4
      vertex 2 12 -16.4
    endloop
  endfacet
  facet normal 0 0 1
    outer loop
      vertex 2 10 -16.4
      vertex 15.7056 10.0595 -16.4
      vertex 15.435 10.6673 -16.4
    endloop
  endfacet
  facet normal 0 0 1
    outer loop
      vertex 2 10 -16.4
      vertex 15.7717 10 -16.4
      vertex 15.7056 10.0595 -16.4
    endloop
  endfacet
  facet normal 0 -1 0
    outer loop
      vertex 2 10 -18.4
      vertex 15.7717 10 -16.4
      vertex 2 10 -16.4
    endloop
  endfacet
  facet normal 0 -1 -0
    outer loop
      vertex 2 10 -18.4
      vertex 15.7717 10 -18.4
      vertex 15.7717 10 -16.4
    endloop
  endfacet
  facet normal 0 0 1
    outer loop
      vertex 2 10 -18.4
      vertex 16.2 -9.61436 -18.4
      vertex 16.2 9.61436 -18.4
    endloop
  endfacet
  facet normal -0 0 1
    outer loop
      vertex 2 10 -18.4
      vertex 16.2 9.61436 -18.4
      vertex 15.7717 10 -18.4
    endloop
  endfacet
  facet normal 0 0 1
    outer loop
      vertex 2 12 -16.4
      vertex 15.435 10.6673 -16.4
      vertex 15.435 11.3327 -16.4
    endloop
  endfacet
  facet normal 0 0 1
    outer loop
      vertex 2 12 -16.4
      vertex 15.435 11.3327 -16.4
      vertex 15.7056 11.9405 -16.4
    endloop
  endfacet
  facet normal -0 0 1
    outer loop
      vertex 2 12 -16.4
      vertex 15.7056 11.9405 -16.4
      vertex 15.7717 12 -16.4
    endloop
  endfacet
  facet normal 0 1 -0
    outer loop
      vertex 2 12 -16.4
      vertex 15.7717 12 -16.4
      vertex 15.7717 12 -18.4
    endloop
  endfacet
  facet normal 1 -0 0
    outer loop
      vertex 2 12 -16.4
      vertex 2 15 -18.4
      vertex 2 15 -16.4
    endloop
  endfacet
  facet normal 0 0 1
    outer loop
      vertex 2 12 -18.4
      vertex 15.7717 12 -18.4
      vertex 2 15 -18.4
    endloop
  endfacet
  facet normal 0 1 0
    outer loop
      vertex 2 12 -18.4
      vertex 2 12 -16.4
      vertex 15.7717 12 -18.4
    endloop
  endfacet
  facet normal 1 0 0
    outer loop
      vertex 2 12 -18.4
      vertex 2 15 -18.4
      vertex 2 12 -16.4
    endloop
  endfacet
  facet normal 0 0 1
    outer loop
      vertex 2 15 -18.4
      vertex 15.7717 12 -18.4
      vertex 16.2 12.3856 -18.4
    endloop
  endfacet
  facet normal 0 0 1
    outer loop
      vertex 2 15 -18.4
      vertex 16.2 12.3856 -18.4
      vertex 16.8328 12.5912 -18.4
    endloop
  endfacet
  facet normal -0 0 1
    outer loop
      vertex 2 15 -18.4
      vertex 16.8328 12.5912 -18.4
      vertex 40 15 -18.4
    endloop
  endfacet
  facet normal 0 1 0
    outer loop
      vertex 2 15 -18.4
      vertex 40 15 -18.4
      vertex 40 15 -20.4
    endloop
  endfacet
  facet normal 1 -0 0
    outer loop
      vertex 40 -10 -18.4
      vertex 40 15 -20.4
      vertex 40 10 -18.4
    endloop
  endfacet
  facet normal 1 0 0
    outer loop
      vertex 40 -12 -16.4
      vertex 40 -10 -18.4
      vertex 40 -10 -16.4
    endloop
  endfacet
  facet normal 1 0 0
    outer loop
      vertex 40 -12 -18.4
      vertex 40 -10 -18.4
      vertex 40 -12 -16.4
    endloop
  endfacet
  facet normal 1 0 0
    outer loop
      vertex 40 -15 -20.4
      vertex 40 -10 -18.4
      vertex 40 -12 -18.4
    endloop
  endfacet
  facet normal 1 0 0
    outer loop
      vertex 40 -15 -20.4
      vertex 40 -12 -18.4
      vertex 40 -15 -18.4
    endloop
  endfacet
  facet normal 1 0 0
    outer loop
      vertex 40 -15 -20.4
      vertex 40 15 -20.4
      vertex 40 -10 -18.4
    endloop
  endfacet
  facet normal 1 0 0
    outer loop
      vertex 40 10 -16.4
      vertex 40 12 -18.4
      vertex 40 12 -16.4
    endloop
  endfacet
  facet normal 1 0 0
    outer loop
      vertex 40 10 -18.4
      vertex 40 12 -18.4
      vertex 40 10 -16.4
    endloop
  endfacet
  facet normal 1 -0 0
    outer loop
      vertex 40 10 -18.4
      vertex 40 15 -20.4
      vertex 40 12 -18.4
    endloop
  endfacet
  facet normal 1 -0 0
    outer loop
      vertex 40 12 -18.4
      vertex 40 15 -20.4
      vertex 40 15 -18.4
    endloop
  endfacet
endsolid model
