solid OpenSCAD_Model
  facet normal 0.99939 0.034921 0
    outer loop
      vertex 251.593 -66.2447 10
      vertex 251.244 -56.2568 -10
      vertex 251.244 -56.2568 10
    endloop
  endfacet
  facet normal 0.99939 0.034921 0
    outer loop
      vertex 251.244 -56.2568 -10
      vertex 251.593 -66.2447 10
      vertex 251.593 -66.2447 -10
    endloop
  endfacet
  facet normal -0.0346497 0.9994 0
    outer loop
      vertex -251.244 16.2568 -10
      vertex -251.593 16.2447 10
      vertex -251.244 16.2568 10
    endloop
  endfacet
  facet normal -0.0346497 0.9994 0
    outer loop
      vertex -251.593 16.2447 10
      vertex -251.244 16.2568 -10
      vertex -251.593 16.2447 -10
    endloop
  endfacet
  facet normal 0.0348994 -0.999391 0
    outer loop
      vertex -248.103 -83.6944 -10
      vertex 251.593 -66.2447 10
      vertex -248.103 -83.6944 10
    endloop
  endfacet
  facet normal 0.0348994 -0.999391 0
    outer loop
      vertex 251.593 -66.2447 10
      vertex -248.103 -83.6944 -10
      vertex 251.593 -66.2447 -10
    endloop
  endfacet
  facet normal -0.999391 -0.0349 0
    outer loop
      vertex -248.103 -83.6944 -10
      vertex -251.593 16.2447 10
      vertex -251.593 16.2447 -10
    endloop
  endfacet
  facet normal -0.999391 -0.0349 0
    outer loop
      vertex -251.593 16.2447 10
      vertex -248.103 -83.6944 -10
      vertex -248.103 -83.6944 10
    endloop
  endfacet
  facet normal 0 0 -1
    outer loop
      vertex -248.103 -83.6944 -10
      vertex -251.593 16.2447 -10
      vertex -251.244 16.2568 -10
    endloop
  endfacet
  facet normal 0 0 -1
    outer loop
      vertex 145.737 -14.9077 -10
      vertex 251.244 -56.2568 -10
      vertex 145.737 -14.9138 -10
    endloop
  endfacet
  facet normal 0 0 -1
    outer loop
      vertex 251.593 -66.2447 -10
      vertex 145.737 -14.9138 -10
      vertex 251.244 -56.2568 -10
    endloop
  endfacet
  facet normal 0 0 -1
    outer loop
      vertex 251.593 -66.2447 -10
      vertex 126.098 -15.5996 -10
      vertex 145.737 -14.9138 -10
    endloop
  endfacet
  facet normal 0 0 -1
    outer loop
      vertex -251.244 16.2568 -10
      vertex 126.098 -15.5996 -10
      vertex -248.103 -83.6944 -10
    endloop
  endfacet
  facet normal 0 0 -1
    outer loop
      vertex -248.103 -83.6944 -10
      vertex 126.098 -15.5996 -10
      vertex 251.593 -66.2447 -10
    endloop
  endfacet
  facet normal -0 0 -1
    outer loop
      vertex 251.593 -56.2447 -10
      vertex 251.244 -56.2568 -10
      vertex 248.103 43.6944 -10
    endloop
  endfacet
  facet normal 0 0 -1
    outer loop
      vertex 251.244 -56.2568 -10
      vertex 145.737 -14.9077 -10
      vertex 248.103 43.6944 -10
    endloop
  endfacet
  facet normal 0 0 -1
    outer loop
      vertex 126.098 -15.5935 -10
      vertex 248.103 43.6944 -10
      vertex 145.737 -14.9077 -10
    endloop
  endfacet
  facet normal 0 0 -1
    outer loop
      vertex 126.098 -15.5996 -10
      vertex -251.244 16.2568 -10
      vertex 126.098 -15.5935 -10
    endloop
  endfacet
  facet normal 0 0 -1
    outer loop
      vertex -251.593 26.2447 -10
      vertex 126.098 -15.5935 -10
      vertex -251.244 16.2568 -10
    endloop
  endfacet
  facet normal 0 0 -1
    outer loop
      vertex 126.098 -15.5935 -10
      vertex -251.593 26.2447 -10
      vertex 248.103 43.6944 -10
    endloop
  endfacet
  facet normal 0 0 1
    outer loop
      vertex 251.593 -56.2447 10
      vertex 248.103 43.6944 10
      vertex 251.244 -56.2568 10
    endloop
  endfacet
  facet normal -0 0 1
    outer loop
      vertex 145.737 -14.9077 10
      vertex 251.244 -56.2568 10
      vertex 248.103 43.6944 10
    endloop
  endfacet
  facet normal 0 0 1
    outer loop
      vertex 145.737 -14.9138 10
      vertex 251.593 -66.2447 10
      vertex 251.244 -56.2568 10
    endloop
  endfacet
  facet normal -0 0 1
    outer loop
      vertex 126.098 -15.5996 10
      vertex 251.593 -66.2447 10
      vertex 145.737 -14.9138 10
    endloop
  endfacet
  facet normal 0 0 1
    outer loop
      vertex 126.098 -15.5996 10
      vertex -248.103 -83.6944 10
      vertex 251.593 -66.2447 10
    endloop
  endfacet
  facet normal 0 0 1
    outer loop
      vertex -251.244 16.2568 10
      vertex 126.098 -15.5996 10
      vertex 126.098 -15.5935 10
    endloop
  endfacet
  facet normal 0 0 1
    outer loop
      vertex 251.244 -56.2568 10
      vertex 145.737 -14.9077 10
      vertex 145.737 -14.9138 10
    endloop
  endfacet
  facet normal 0 0 1
    outer loop
      vertex 248.103 43.6944 10
      vertex 126.098 -15.5935 10
      vertex 145.737 -14.9077 10
    endloop
  endfacet
  facet normal -0 0 1
    outer loop
      vertex -251.593 26.2447 10
      vertex 126.098 -15.5935 10
      vertex 248.103 43.6944 10
    endloop
  endfacet
  facet normal 0 0 1
    outer loop
      vertex 126.098 -15.5996 10
      vertex -251.244 16.2568 10
      vertex -248.103 -83.6944 10
    endloop
  endfacet
  facet normal 0 0 1
    outer loop
      vertex 126.098 -15.5935 10
      vertex -251.593 26.2447 10
      vertex -251.244 16.2568 10
    endloop
  endfacet
  facet normal 0 0 1
    outer loop
      vertex -248.103 -83.6944 10
      vertex -251.244 16.2568 10
      vertex -251.593 16.2447 10
    endloop
  endfacet
  facet normal -1 0 0
    outer loop
      vertex 145.737 -14.9138 -10
      vertex 145.737 -14.9077 10
      vertex 145.737 -14.9077 -10
    endloop
  endfacet
  facet normal -1 -0 0
    outer loop
      vertex 145.737 -14.9077 10
      vertex 145.737 -14.9138 -10
      vertex 145.737 -14.9138 10
    endloop
  endfacet
  facet normal 0.034899 -0.999391 0
    outer loop
      vertex 126.098 -15.5935 -10
      vertex 145.737 -14.9077 10
      vertex 126.098 -15.5935 10
    endloop
  endfacet
  facet normal 0.034899 -0.999391 0
    outer loop
      vertex 145.737 -14.9077 10
      vertex 126.098 -15.5935 -10
      vertex 145.737 -14.9077 -10
    endloop
  endfacet
  facet normal 0.999391 0.0349 0
    outer loop
      vertex 251.593 -56.2447 10
      vertex 248.103 43.6944 -10
      vertex 248.103 43.6944 10
    endloop
  endfacet
  facet normal 0.999391 0.0349 0
    outer loop
      vertex 248.103 43.6944 -10
      vertex 251.593 -56.2447 10
      vertex 251.593 -56.2447 -10
    endloop
  endfacet
  facet normal -0.0348994 0.999391 0
    outer loop
      vertex 248.103 43.6944 -10
      vertex -251.593 26.2447 10
      vertex 248.103 43.6944 10
    endloop
  endfacet
  facet normal -0.0348994 0.999391 0
    outer loop
      vertex -251.593 26.2447 10
      vertex 248.103 43.6944 -10
      vertex -251.593 26.2447 -10
    endloop
  endfacet
  facet normal 0.0346497 -0.9994 0
    outer loop
      vertex 251.244 -56.2568 -10
      vertex 251.593 -56.2447 10
      vertex 251.244 -56.2568 10
    endloop
  endfacet
  facet normal 0.0346497 -0.9994 0
    outer loop
      vertex 251.593 -56.2447 10
      vertex 251.244 -56.2568 -10
      vertex 251.593 -56.2447 -10
    endloop
  endfacet
  facet normal -0.99939 -0.034921 0
    outer loop
      vertex -251.244 16.2568 -10
      vertex -251.593 26.2447 10
      vertex -251.593 26.2447 -10
    endloop
  endfacet
  facet normal -0.99939 -0.034921 0
    outer loop
      vertex -251.593 26.2447 10
      vertex -251.244 16.2568 -10
      vertex -251.244 16.2568 10
    endloop
  endfacet
  facet normal -0.034899 0.999391 0
    outer loop
      vertex 145.737 -14.9138 -10
      vertex 126.098 -15.5996 10
      vertex 145.737 -14.9138 10
    endloop
  endfacet
  facet normal -0.034899 0.999391 0
    outer loop
      vertex 126.098 -15.5996 10
      vertex 145.737 -14.9138 -10
      vertex 126.098 -15.5996 -10
    endloop
  endfacet
  facet normal 1 -0 0
    outer loop
      vertex 126.098 -15.5996 10
      vertex 126.098 -15.5935 -10
      vertex 126.098 -15.5935 10
    endloop
  endfacet
  facet normal 1 0 0
    outer loop
      vertex 126.098 -15.5935 -10
      vertex 126.098 -15.5996 10
      vertex 126.098 -15.5996 -10
    endloop
  endfacet
endsolid OpenSCAD_Model
