solid OpenSCAD_Model
  facet normal 0 1 -0
    outer loop
      vertex 40 30 -47
      vertex 2.5 30 -41
      vertex 40 30 -41
    endloop
  endfacet
  facet normal 0 1 0
    outer loop
      vertex 2.5 30 -41
      vertex 40 30 -47
      vertex 2.5 30 -47
    endloop
  endfacet
  facet normal 0 -1 0
    outer loop
      vertex 2.5 -30 -47
      vertex 40 -30 -41
      vertex 2.5 -30 -41
    endloop
  endfacet
  facet normal 0 -1 -0
    outer loop
      vertex 40 -30 -41
      vertex 2.5 -30 -47
      vertex 40 -30 -47
    endloop
  endfacet
  facet normal -1 0 0
    outer loop
      vertex 2.5 16.75 -47
      vertex 2.5 30 -41
      vertex 2.5 30 -47
    endloop
  endfacet
  facet normal -1 0 0
    outer loop
      vertex 2.5 13.818 -44.068
      vertex 2.5 30 -41
      vertex 2.5 16.75 -47
    endloop
  endfacet
  facet normal -1 0 0
    outer loop
      vertex 2.5 -8.88604 -47
      vertex 2.5 13.818 -44.068
      vertex 2.5 10.886 -47
    endloop
  endfacet
  facet normal -1 0 0
    outer loop
      vertex 2.5 -11.818 -44.068
      vertex 2.5 13.818 -44.068
      vertex 2.5 -8.88604 -47
    endloop
  endfacet
  facet normal -1 0 0
    outer loop
      vertex 2.5 13.818 -44.068
      vertex 2.5 -11.818 -44.068
      vertex 2.5 30 -41
    endloop
  endfacet
  facet normal -1 0 0
    outer loop
      vertex 2.5 -30 -41
      vertex 2.5 -14.75 -47
      vertex 2.5 -30 -47
    endloop
  endfacet
  facet normal -1 0 0
    outer loop
      vertex 2.5 -11.818 -44.068
      vertex 2.5 -30 -41
      vertex 2.5 30 -41
    endloop
  endfacet
  facet normal -1 0 0
    outer loop
      vertex 2.5 -14.75 -47
      vertex 2.5 -30 -41
      vertex 2.5 -11.818 -44.068
    endloop
  endfacet
  facet normal 0 0 -1
    outer loop
      vertex 2.5 16.75 -47
      vertex 40 30 -47
      vertex 40 16.75 -47
    endloop
  endfacet
  facet normal -0 0 -1
    outer loop
      vertex 40 30 -47
      vertex 2.5 16.75 -47
      vertex 2.5 30 -47
    endloop
  endfacet
  facet normal 0 0 -1
    outer loop
      vertex 2.5 -30 -47
      vertex 40 -14.75 -47
      vertex 40 -30 -47
    endloop
  endfacet
  facet normal -0 0 -1
    outer loop
      vertex 40 -14.75 -47
      vertex 2.5 -30 -47
      vertex 2.5 -14.75 -47
    endloop
  endfacet
  facet normal 0 0 -1
    outer loop
      vertex 2.5 -8.88604 -47
      vertex 40 10.886 -47
      vertex 40 -8.88604 -47
    endloop
  endfacet
  facet normal -0 0 -1
    outer loop
      vertex 40 10.886 -47
      vertex 2.5 -8.88604 -47
      vertex 2.5 10.886 -47
    endloop
  endfacet
  facet normal -0 0 1
    outer loop
      vertex 2.5 30 -41
      vertex 40 -30 -41
      vertex 40 30 -41
    endloop
  endfacet
  facet normal 0 0 1
    outer loop
      vertex 40 -30 -41
      vertex 2.5 30 -41
      vertex 2.5 -30 -41
    endloop
  endfacet
  facet normal -1 0 0
    outer loop
      vertex 1.75 -15 -47.25
      vertex 1.75 -11.818 -44.068
      vertex 1.75 -8.63604 -47.25
    endloop
  endfacet
  facet normal 0 0.707107 0.707107
    outer loop
      vertex 40 -8.88604 -47
      vertex 40 -8.63604 -47.25
      vertex 2.5 -8.88604 -47
    endloop
  endfacet
  facet normal 0 0.707112 0.707102
    outer loop
      vertex 2.5 -8.88604 -47
      vertex 1.75 -11.818 -44.068
      vertex 2.5 -11.818 -44.068
    endloop
  endfacet
  facet normal 2.96296e-06 0.707111 0.707102
    outer loop
      vertex 2.5 -8.88604 -47
      vertex 1.75 -8.63604 -47.25
      vertex 1.75 -11.818 -44.068
    endloop
  endfacet
  facet normal -0 0.707107 0.707107
    outer loop
      vertex 1.75 -8.63604 -47.25
      vertex 2.5 -8.88604 -47
      vertex 40 -8.63604 -47.25
    endloop
  endfacet
  facet normal 0 -0.707107 0.707107
    outer loop
      vertex 1.75 -11.818 -44.068
      vertex 2.5 -14.75 -47
      vertex 2.5 -11.818 -44.068
    endloop
  endfacet
  facet normal 1.31581e-16 -0.707107 0.707107
    outer loop
      vertex 1.75 -15 -47.25
      vertex 2.5 -14.75 -47
      vertex 1.75 -11.818 -44.068
    endloop
  endfacet
  facet normal 0 -0.707107 0.707107
    outer loop
      vertex 40 -15 -47.25
      vertex 2.5 -14.75 -47
      vertex 1.75 -15 -47.25
    endloop
  endfacet
  facet normal 0 -0.707107 0.707107
    outer loop
      vertex 2.5 -14.75 -47
      vertex 40 -15 -47.25
      vertex 40 -14.75 -47
    endloop
  endfacet
  facet normal 0 0 -1
    outer loop
      vertex 1.75 -15 -47.25
      vertex 40 -8.63604 -47.25
      vertex 40 -15 -47.25
    endloop
  endfacet
  facet normal -0 0 -1
    outer loop
      vertex 40 -8.63604 -47.25
      vertex 1.75 -15 -47.25
      vertex 1.75 -8.63604 -47.25
    endloop
  endfacet
  facet normal -1 0 0
    outer loop
      vertex 1.75 10.636 -47.25
      vertex 1.75 13.818 -44.068
      vertex 1.75 17 -47.25
    endloop
  endfacet
  facet normal 0 0.707107 0.707107
    outer loop
      vertex 40 16.75 -47
      vertex 40 17 -47.25
      vertex 2.5 16.75 -47
    endloop
  endfacet
  facet normal 0 0.707107 0.707107
    outer loop
      vertex 2.5 16.75 -47
      vertex 1.75 13.818 -44.068
      vertex 2.5 13.818 -44.068
    endloop
  endfacet
  facet normal 1.31581e-16 0.707107 0.707107
    outer loop
      vertex 2.5 16.75 -47
      vertex 1.75 17 -47.25
      vertex 1.75 13.818 -44.068
    endloop
  endfacet
  facet normal -0 0.707107 0.707107
    outer loop
      vertex 1.75 17 -47.25
      vertex 2.5 16.75 -47
      vertex 40 17 -47.25
    endloop
  endfacet
  facet normal 0 -0.707107 0.707107
    outer loop
      vertex 1.75 13.818 -44.068
      vertex 2.5 10.886 -47
      vertex 2.5 13.818 -44.068
    endloop
  endfacet
  facet normal 1.31581e-16 -0.707107 0.707107
    outer loop
      vertex 1.75 10.636 -47.25
      vertex 2.5 10.886 -47
      vertex 1.75 13.818 -44.068
    endloop
  endfacet
  facet normal 0 -0.707107 0.707107
    outer loop
      vertex 40 10.636 -47.25
      vertex 2.5 10.886 -47
      vertex 1.75 10.636 -47.25
    endloop
  endfacet
  facet normal 0 -0.707107 0.707107
    outer loop
      vertex 2.5 10.886 -47
      vertex 40 10.636 -47.25
      vertex 40 10.886 -47
    endloop
  endfacet
  facet normal 0 0 -1
    outer loop
      vertex 1.75 10.636 -47.25
      vertex 40 17 -47.25
      vertex 40 10.636 -47.25
    endloop
  endfacet
  facet normal -0 0 -1
    outer loop
      vertex 40 17 -47.25
      vertex 1.75 10.636 -47.25
      vertex 1.75 17 -47.25
    endloop
  endfacet
  facet normal 1 0 0
    outer loop
      vertex 40 30 -41
      vertex 40 16.75 -47
      vertex 40 30 -47
    endloop
  endfacet
  facet normal 1 0 0
    outer loop
      vertex 40 30 -41
      vertex 40 10.886 -47
      vertex 40 16.75 -47
    endloop
  endfacet
  facet normal 1 0 0
    outer loop
      vertex 40 30 -41
      vertex 40 -8.88604 -47
      vertex 40 10.886 -47
    endloop
  endfacet
  facet normal 1 -0 0
    outer loop
      vertex 40 -30 -41
      vertex 40 -8.88604 -47
      vertex 40 30 -41
    endloop
  endfacet
  facet normal 1 0 0
    outer loop
      vertex 40 -8.88604 -47
      vertex 40 -30 -41
      vertex 40 -14.75 -47
    endloop
  endfacet
  facet normal 1 0 0
    outer loop
      vertex 40 -14.75 -47
      vertex 40 -30 -41
      vertex 40 -30 -47
    endloop
  endfacet
  facet normal 1 -0 0
    outer loop
      vertex 40 10.886 -47
      vertex 40 17 -47.25
      vertex 40 16.75 -47
    endloop
  endfacet
  facet normal 1 0 0
    outer loop
      vertex 40 17 -47.25
      vertex 40 10.886 -47
      vertex 40 10.636 -47.25
    endloop
  endfacet
  facet normal 1 -0 0
    outer loop
      vertex 40 -14.75 -47
      vertex 40 -8.63604 -47.25
      vertex 40 -8.88604 -47
    endloop
  endfacet
  facet normal 1 0 0
    outer loop
      vertex 40 -8.63604 -47.25
      vertex 40 -14.75 -47
      vertex 40 -15 -47.25
    endloop
  endfacet
endsolid OpenSCAD_Model
