  0
SECTION
  2
BLOCKS
  0
ENDSEC
  0
SECTION
  2
ENTITIES
  0
LINE
  8
0
 10
2.09344
 20
-39.9452
 11
4.18114
 21
-39.7809
  0
LINE
  8
0
 10
4.18114
 20
-39.7809
 11
6.25738
 21
-39.5075
  0
LINE
  8
0
 10
6.25738
 20
-39.5075
 11
8.31647
 21
-39.1259
  0
LINE
  8
0
 10
8.31647
 20
-39.1259
 11
10.3528
 21
-38.637
  0
LINE
  8
0
 10
10.3528
 20
-38.637
 11
12.3607
 21
-38.0423
  0
LINE
  8
0
 10
12.3607
 20
-38.0423
 11
14.3347
 21
-37.3432
  0
LINE
  8
0
 10
14.3347
 20
-37.3432
 11
16.2695
 21
-36.5418
  0
LINE
  8
0
 10
16.2695
 20
-36.5418
 11
18.1596
 21
-35.6403
  0
LINE
  8
0
 10
18.1596
 20
-35.6403
 11
20
 21
-34.641
  0
LINE
  8
0
 10
20
 20
-34.641
 11
21.7856
 21
-33.5468
  0
LINE
  8
0
 10
21.7856
 20
-33.5468
 11
23.5114
 21
-32.3607
  0
LINE
  8
0
 10
23.5114
 20
-32.3607
 11
25.1728
 21
-31.0858
  0
LINE
  8
0
 10
25.1728
 20
-31.0858
 11
26.7652
 21
-29.7258
  0
LINE
  8
0
 10
26.7652
 20
-29.7258
 11
28.2843
 21
-28.2843
  0
LINE
  8
0
 10
28.2843
 20
-28.2843
 11
29.7258
 21
-26.7652
  0
LINE
  8
0
 10
29.7258
 20
-26.7652
 11
31.0858
 21
-25.1728
  0
LINE
  8
0
 10
31.0858
 20
-25.1728
 11
32.3607
 21
-23.5114
  0
LINE
  8
0
 10
32.3607
 20
-23.5114
 11
33.5468
 21
-21.7856
  0
LINE
  8
0
 10
33.5468
 20
-21.7856
 11
34.641
 21
-20
  0
LINE
  8
0
 10
34.641
 20
-20
 11
35.6403
 21
-18.1596
  0
LINE
  8
0
 10
35.6403
 20
-18.1596
 11
36.5418
 21
-16.2695
  0
LINE
  8
0
 10
36.5418
 20
-16.2695
 11
37.3432
 21
-14.3347
  0
LINE
  8
0
 10
37.3432
 20
-14.3347
 11
38.0423
 21
-12.3607
  0
LINE
  8
0
 10
38.0423
 20
-12.3607
 11
38.637
 21
-10.3528
  0
LINE
  8
0
 10
38.637
 20
-10.3528
 11
39.1259
 21
-8.31647
  0
LINE
  8
0
 10
39.1259
 20
-8.31647
 11
39.5075
 21
-6.25738
  0
LINE
  8
0
 10
39.5075
 20
-6.25738
 11
39.7809
 21
-4.18114
  0
LINE
  8
0
 10
39.7809
 20
-4.18114
 11
39.9452
 21
-2.09344
  0
LINE
  8
0
 10
39.9452
 20
-2.09344
 11
40
 21
0
  0
LINE
  8
0
 10
40
 20
0
 11
39.9452
 21
2.09344
  0
LINE
  8
0
 10
39.9452
 20
2.09344
 11
39.7809
 21
4.18114
  0
LINE
  8
0
 10
39.7809
 20
4.18114
 11
39.5075
 21
6.25738
  0
LINE
  8
0
 10
39.5075
 20
6.25738
 11
39.1259
 21
8.31647
  0
LINE
  8
0
 10
39.1259
 20
8.31647
 11
38.637
 21
10.3528
  0
LINE
  8
0
 10
38.637
 20
10.3528
 11
38.0423
 21
12.3607
  0
LINE
  8
0
 10
38.0423
 20
12.3607
 11
37.3432
 21
14.3347
  0
LINE
  8
0
 10
37.3432
 20
14.3347
 11
36.5418
 21
16.2695
  0
LINE
  8
0
 10
36.5418
 20
16.2695
 11
35.6403
 21
18.1596
  0
LINE
  8
0
 10
35.6403
 20
18.1596
 11
34.641
 21
20
  0
LINE
  8
0
 10
34.641
 20
20
 11
33.5468
 21
21.7856
  0
LINE
  8
0
 10
33.5468
 20
21.7856
 11
32.3607
 21
23.5114
  0
LINE
  8
0
 10
32.3607
 20
23.5114
 11
31.0858
 21
25.1728
  0
LINE
  8
0
 10
31.0858
 20
25.1728
 11
29.7258
 21
26.7652
  0
LINE
  8
0
 10
29.7258
 20
26.7652
 11
28.2843
 21
28.2843
  0
LINE
  8
0
 10
28.2843
 20
28.2843
 11
26.7652
 21
29.7258
  0
LINE
  8
0
 10
26.7652
 20
29.7258
 11
25.1728
 21
31.0858
  0
LINE
  8
0
 10
25.1728
 20
31.0858
 11
23.5114
 21
32.3607
  0
LINE
  8
0
 10
23.5114
 20
32.3607
 11
21.7856
 21
33.5468
  0
LINE
  8
0
 10
21.7856
 20
33.5468
 11
20
 21
34.641
  0
LINE
  8
0
 10
20
 20
34.641
 11
18.1596
 21
35.6403
  0
LINE
  8
0
 10
18.1596
 20
35.6403
 11
16.2695
 21
36.5418
  0
LINE
  8
0
 10
16.2695
 20
36.5418
 11
14.3347
 21
37.3432
  0
LINE
  8
0
 10
14.3347
 20
37.3432
 11
12.3607
 21
38.0423
  0
LINE
  8
0
 10
12.3607
 20
38.0423
 11
10.3528
 21
38.637
  0
LINE
  8
0
 10
10.3528
 20
38.637
 11
8.31647
 21
39.1259
  0
LINE
  8
0
 10
8.31647
 20
39.1259
 11
6.25738
 21
39.5075
  0
LINE
  8
0
 10
6.25738
 20
39.5075
 11
4.18114
 21
39.7809
  0
LINE
  8
0
 10
4.18114
 20
39.7809
 11
2.09344
 21
39.9452
  0
LINE
  8
0
 10
2.09344
 20
39.9452
 11
0
 21
40
  0
LINE
  8
0
 10
0
 20
40
 11
-2.09344
 21
39.9452
  0
LINE
  8
0
 10
-2.09344
 20
39.9452
 11
-4.18114
 21
39.7809
  0
LINE
  8
0
 10
-4.18114
 20
39.7809
 11
-6.25738
 21
39.5075
  0
LINE
  8
0
 10
-6.25738
 20
39.5075
 11
-8.31647
 21
39.1259
  0
LINE
  8
0
 10
-8.31647
 20
39.1259
 11
-10.3528
 21
38.637
  0
LINE
  8
0
 10
-10.3528
 20
38.637
 11
-12.3607
 21
38.0423
  0
LINE
  8
0
 10
-12.3607
 20
38.0423
 11
-14.3347
 21
37.3432
  0
LINE
  8
0
 10
-14.3347
 20
37.3432
 11
-16.2695
 21
36.5418
  0
LINE
  8
0
 10
-16.2695
 20
36.5418
 11
-18.1596
 21
35.6403
  0
LINE
  8
0
 10
-18.1596
 20
35.6403
 11
-20
 21
34.641
  0
LINE
  8
0
 10
-20
 20
34.641
 11
-21.7856
 21
33.5468
  0
LINE
  8
0
 10
-21.7856
 20
33.5468
 11
-23.5114
 21
32.3607
  0
LINE
  8
0
 10
-23.5114
 20
32.3607
 11
-25.1728
 21
31.0858
  0
LINE
  8
0
 10
-25.1728
 20
31.0858
 11
-26.7652
 21
29.7258
  0
LINE
  8
0
 10
-26.7652
 20
29.7258
 11
-28.2843
 21
28.2843
  0
LINE
  8
0
 10
-28.2843
 20
28.2843
 11
-29.7258
 21
26.7652
  0
LINE
  8
0
 10
-29.7258
 20
26.7652
 11
-31.0858
 21
25.1728
  0
LINE
  8
0
 10
-31.0858
 20
25.1728
 11
-32.3607
 21
23.5114
  0
LINE
  8
0
 10
-32.3607
 20
23.5114
 11
-33.5468
 21
21.7856
  0
LINE
  8
0
 10
-33.5468
 20
21.7856
 11
-34.641
 21
20
  0
LINE
  8
0
 10
-34.641
 20
20
 11
-35.6403
 21
18.1596
  0
LINE
  8
0
 10
-35.6403
 20
18.1596
 11
-36.5418
 21
16.2695
  0
LINE
  8
0
 10
-36.5418
 20
16.2695
 11
-37.3432
 21
14.3347
  0
LINE
  8
0
 10
-37.3432
 20
14.3347
 11
-38.0423
 21
12.3607
  0
LINE
  8
0
 10
-38.0423
 20
12.3607
 11
-38.637
 21
10.3528
  0
LINE
  8
0
 10
-38.637
 20
10.3528
 11
-39.1259
 21
8.31647
  0
LINE
  8
0
 10
-39.1259
 20
8.31647
 11
-39.5075
 21
6.25738
  0
LINE
  8
0
 10
-39.5075
 20
6.25738
 11
-39.7809
 21
4.18114
  0
LINE
  8
0
 10
-39.7809
 20
4.18114
 11
-39.9452
 21
2.09344
  0
LINE
  8
0
 10
-39.9452
 20
2.09344
 11
-40
 21
0
  0
LINE
  8
0
 10
-40
 20
0
 11
-39.9452
 21
-2.09344
  0
LINE
  8
0
 10
-39.9452
 20
-2.09344
 11
-39.7809
 21
-4.18114
  0
LINE
  8
0
 10
-39.7809
 20
-4.18114
 11
-39.5075
 21
-6.25738
  0
LINE
  8
0
 10
-39.5075
 20
-6.25738
 11
-39.1259
 21
-8.31647
  0
LINE
  8
0
 10
-39.1259
 20
-8.31647
 11
-38.637
 21
-10.3528
  0
LINE
  8
0
 10
-38.637
 20
-10.3528
 11
-38.0423
 21
-12.3607
  0
LINE
  8
0
 10
-38.0423
 20
-12.3607
 11
-37.3432
 21
-14.3347
  0
LINE
  8
0
 10
-37.3432
 20
-14.3347
 11
-36.5418
 21
-16.2695
  0
LINE
  8
0
 10
-36.5418
 20
-16.2695
 11
-35.6403
 21
-18.1596
  0
LINE
  8
0
 10
-35.6403
 20
-18.1596
 11
-34.641
 21
-20
  0
LINE
  8
0
 10
-34.641
 20
-20
 11
-33.5468
 21
-21.7856
  0
LINE
  8
0
 10
-33.5468
 20
-21.7856
 11
-32.3607
 21
-23.5114
  0
LINE
  8
0
 10
-32.3607
 20
-23.5114
 11
-31.0858
 21
-25.1728
  0
LINE
  8
0
 10
-31.0858
 20
-25.1728
 11
-29.7258
 21
-26.7652
  0
LINE
  8
0
 10
-29.7258
 20
-26.7652
 11
-28.2843
 21
-28.2843
  0
LINE
  8
0
 10
-28.2843
 20
-28.2843
 11
-26.7652
 21
-29.7258
  0
LINE
  8
0
 10
-26.7652
 20
-29.7258
 11
-25.1728
 21
-31.0858
  0
LINE
  8
0
 10
-25.1728
 20
-31.0858
 11
-23.5114
 21
-32.3607
  0
LINE
  8
0
 10
-23.5114
 20
-32.3607
 11
-21.7856
 21
-33.5468
  0
LINE
  8
0
 10
-21.7856
 20
-33.5468
 11
-20
 21
-34.641
  0
LINE
  8
0
 10
-20
 20
-34.641
 11
-18.1596
 21
-35.6403
  0
LINE
  8
0
 10
-18.1596
 20
-35.6403
 11
-16.2695
 21
-36.5418
  0
LINE
  8
0
 10
-16.2695
 20
-36.5418
 11
-14.3347
 21
-37.3432
  0
LINE
  8
0
 10
-14.3347
 20
-37.3432
 11
-12.3607
 21
-38.0423
  0
LINE
  8
0
 10
-12.3607
 20
-38.0423
 11
-10.3528
 21
-38.637
  0
LINE
  8
0
 10
-10.3528
 20
-38.637
 11
-8.31647
 21
-39.1259
  0
LINE
  8
0
 10
-8.31647
 20
-39.1259
 11
-6.25738
 21
-39.5075
  0
LINE
  8
0
 10
-6.25738
 20
-39.5075
 11
-4.18114
 21
-39.7809
  0
LINE
  8
0
 10
-4.18114
 20
-39.7809
 11
-2.09344
 21
-39.9452
  0
LINE
  8
0
 10
-2.09344
 20
-39.9452
 11
0
 21
-40
  0
LINE
  8
0
 10
0
 20
-40
 11
2.09344
 21
-39.9452
  0
LINE
  8
0
 10
-0.271773
 20
-38.5858
 11
-2.15587
 21
-38.5364
  0
LINE
  8
0
 10
-2.15587
 20
-38.5364
 11
-4.0348
 21
-38.3885
  0
LINE
  8
0
 10
-4.0348
 20
-38.3885
 11
-5.90341
 21
-38.1425
  0
LINE
  8
0
 10
-5.90341
 20
-38.1425
 11
-7.75659
 21
-37.7991
  0
LINE
  8
0
 10
-7.75659
 20
-37.7991
 11
-8.16557
 21
-37.7121
  0
LINE
  8
0
 10
-8.16557
 20
-37.7121
 11
-8.28826
 21
-37.6861
  0
LINE
  8
0
 10
-8.28826
 20
-37.6861
 11
-10.1209
 21
-37.2461
  0
LINE
  8
0
 10
-10.1209
 20
-37.2461
 11
-11.9281
 21
-36.7108
  0
LINE
  8
0
 10
-11.9281
 20
-36.7108
 11
-13.7047
 21
-36.0816
  0
LINE
  8
0
 10
-13.7047
 20
-36.0816
 11
-15.446
 21
-35.3604
  0
LINE
  8
0
 10
-15.446
 20
-35.3604
 11
-15.5606
 21
-35.3094
  0
LINE
  8
0
 10
-15.5606
 20
-35.3094
 11
-15.9425
 21
-35.1393
  0
LINE
  8
0
 10
-15.9425
 20
-35.1393
 11
-17.6437
 21
-34.3279
  0
LINE
  8
0
 10
-17.6437
 20
-34.3279
 11
-19.3
 21
-33.4286
  0
LINE
  8
0
 10
-19.3
 20
-33.4286
 11
-20.907
 21
-32.4438
  0
LINE
  8
0
 10
-20.907
 20
-32.4438
 11
-22.4603
 21
-31.3763
  0
LINE
  8
0
 10
-22.4603
 20
-31.3763
 11
-22.7985
 21
-31.1305
  0
LINE
  8
0
 10
-22.7985
 20
-31.1305
 11
-22.9
 21
-31.0568
  0
LINE
  8
0
 10
-22.9
 20
-31.0568
 11
-24.3953
 21
-29.9094
  0
LINE
  8
0
 10
-24.3953
 20
-29.9094
 11
-24.837
 21
-29.5322
  0
LINE
  8
0
 10
-24.837
 20
-29.5322
 11
-24.8813
 21
-29.4944
  0
LINE
  8
0
 10
-24.8813
 20
-29.4944
 11
-25.014
 21
-29.381
  0
LINE
  8
0
 10
-25.014
 20
-29.381
 11
-25.2348
 21
-29.1924
  0
LINE
  8
0
 10
-25.2348
 20
-29.1924
 11
-25.5431
 21
-28.929
  0
LINE
  8
0
 10
-25.5431
 20
-28.929
 11
-25.8284
 21
-28.6854
  0
LINE
  8
0
 10
-25.8284
 20
-28.6854
 11
-25.9271
 21
-28.5917
  0
LINE
  8
0
 10
-25.9271
 20
-28.5917
 11
-26.3596
 21
-28.1813
  0
LINE
  8
0
 10
-26.3596
 20
-28.1813
 11
-26.5262
 21
-28.0232
  0
LINE
  8
0
 10
-26.5262
 20
-28.0232
 11
-26.6102
 21
-27.93
  0
LINE
  8
0
 10
-26.6102
 20
-27.93
 11
-26.8899
 21
-27.6193
  0
LINE
  8
0
 10
-26.8899
 20
-27.6193
 11
-26.9526
 21
-27.5107
  0
LINE
  8
0
 10
-26.9526
 20
-27.5107
 11
-27.1617
 21
-27.1486
  0
LINE
  8
0
 10
-27.1617
 20
-27.1486
 11
-27.2909
 21
-26.7509
  0
LINE
  8
0
 10
-27.2909
 20
-26.7509
 11
-27.3297
 21
-26.6316
  0
LINE
  8
0
 10
-27.3297
 20
-26.6316
 11
-27.3734
 21
-26.2158
  0
LINE
  8
0
 10
-27.3734
 20
-26.2158
 11
-27.3865
 21
-26.091
  0
LINE
  8
0
 10
-27.3865
 20
-26.091
 11
-27.3734
 21
-25.9663
  0
LINE
  8
0
 10
-27.3734
 20
-25.9663
 11
-27.3297
 21
-25.5505
  0
LINE
  8
0
 10
-27.3297
 20
-25.5505
 11
-27.2909
 21
-25.4312
  0
LINE
  8
0
 10
-27.2909
 20
-25.4312
 11
-27.2683
 21
-25.3614
  0
LINE
  8
0
 10
-27.2683
 20
-25.3614
 11
-27.2577
 21
-25.3291
  0
LINE
  8
0
 10
-27.2577
 20
-25.3291
 11
-27.2209
 21
-25.2157
  0
LINE
  8
0
 10
-27.2209
 20
-25.2157
 11
-27.1617
 21
-25.0335
  0
LINE
  8
0
 10
-27.1617
 20
-25.0335
 11
-27.1374
 21
-24.9915
  0
LINE
  8
0
 10
-27.1374
 20
-24.9915
 11
-27.028
 21
-24.8019
  0
LINE
  8
0
 10
-27.028
 20
-24.8019
 11
-26.9526
 21
-24.6714
  0
LINE
  8
0
 10
-26.9526
 20
-24.6714
 11
-26.8899
 21
-24.5628
  0
LINE
  8
0
 10
-26.8899
 20
-24.5628
 11
-26.7189
 21
-24.3728
  0
LINE
  8
0
 10
-26.7189
 20
-24.3728
 11
-26.6102
 21
-24.2521
  0
LINE
  8
0
 10
-26.6102
 20
-24.2521
 11
-26.5262
 21
-24.1589
  0
LINE
  8
0
 10
-26.5262
 20
-24.1589
 11
-26.2814
 21
-23.9012
  0
LINE
  8
0
 10
-26.2814
 20
-23.9012
 11
-26.2182
 21
-23.8346
  0
LINE
  8
0
 10
-26.2182
 20
-23.8346
 11
-25.8232
 21
-23.4188
  0
LINE
  8
0
 10
-25.8232
 20
-23.4188
 11
-25.6929
 21
-23.2817
  0
LINE
  8
0
 10
-25.6929
 20
-23.2817
 11
-25.3739
 21
-22.9459
  0
LINE
  8
0
 10
-25.3739
 20
-22.9459
 11
-25.1019
 21
-22.6596
  0
LINE
  8
0
 10
-25.1019
 20
-22.6596
 11
-24.8685
 21
-22.4138
  0
LINE
  8
0
 10
-24.8685
 20
-22.4138
 11
-24.4469
 21
-21.9701
  0
LINE
  8
0
 10
-24.4469
 20
-21.9701
 11
-24.2134
 21
-21.7244
  0
LINE
  8
0
 10
-24.2134
 20
-21.7244
 11
-23.7297
 21
-21.2151
  0
LINE
  8
0
 10
-23.7297
 20
-21.2151
 11
-23.4962
 21
-20.9694
  0
LINE
  8
0
 10
-23.4962
 20
-20.9694
 11
-22.9522
 21
-20.3967
  0
LINE
  8
0
 10
-22.9522
 20
-20.3967
 11
-22.8312
 21
-20.2694
  0
LINE
  8
0
 10
-22.8312
 20
-20.2694
 11
-22.1165
 21
-19.5171
  0
LINE
  8
0
 10
-22.1165
 20
-19.5171
 11
-21.225
 21
-18.5786
  0
LINE
  8
0
 10
-21.225
 20
-18.5786
 11
-21.1826
 21
-18.534
  0
LINE
  8
0
 10
-21.1826
 20
-18.534
 11
-20.7427
 21
-18.071
  0
LINE
  8
0
 10
-20.7427
 20
-18.071
 11
-20.6649
 21
-18.0144
  0
LINE
  8
0
 10
-20.6649
 20
-18.0144
 11
-18.1868
 21
-15.5363
  0
LINE
  8
0
 10
-18.1868
 20
-15.5363
 11
-17.3133
 21
-14.6628
  0
LINE
  8
0
 10
-17.3133
 20
-14.6628
 11
-17.6922
 21
-14.2191
  0
LINE
  8
0
 10
-17.6922
 20
-14.2191
 11
-17.7253
 21
-14.1759
  0
LINE
  8
0
 10
-17.7253
 20
-14.1759
 11
-17.9337
 21
-13.9045
  0
LINE
  8
0
 10
-17.9337
 20
-13.9045
 11
-18.2674
 21
-13.4695
  0
LINE
  8
0
 10
-18.2674
 20
-13.4695
 11
-18.3647
 21
-13.3427
  0
LINE
  8
0
 10
-18.3647
 20
-13.3427
 11
-18.5667
 21
-13.0488
  0
LINE
  8
0
 10
-18.5667
 20
-13.0488
 11
-18.7866
 21
-12.7289
  0
LINE
  8
0
 10
-18.7866
 20
-12.7289
 11
-18.9904
 21
-12.4323
  0
LINE
  8
0
 10
-18.9904
 20
-12.4323
 11
-19.1572
 21
-12.16
  0
LINE
  8
0
 10
-19.1572
 20
-12.16
 11
-19.333
 21
-11.8733
  0
LINE
  8
0
 10
-19.333
 20
-11.8733
 11
-19.5676
 21
-11.4905
  0
LINE
  8
0
 10
-19.5676
 20
-11.4905
 11
-19.6303
 21
-11.3818
  0
LINE
  8
0
 10
-19.6303
 20
-11.3818
 11
-19.7348
 21
-11.2008
  0
LINE
  8
0
 10
-19.7348
 20
-11.2008
 11
-19.8705
 21
-10.9508
  0
LINE
  8
0
 10
-19.8705
 20
-10.9508
 11
-19.9112
 21
-10.8758
  0
LINE
  8
0
 10
-19.9112
 20
-10.8758
 11
-20.2619
 21
-10.23
  0
LINE
  8
0
 10
-20.2619
 20
-10.23
 11
-20.3499
 21
-10.0454
  0
LINE
  8
0
 10
-20.3499
 20
-10.0454
 11
-20.3702
 21
-10.003
  0
LINE
  8
0
 10
-20.3702
 20
-10.003
 11
-20.7375
 21
-9.23292
  0
LINE
  8
0
 10
-20.7375
 20
-9.23292
 11
-20.7555
 21
-9.18951
  0
LINE
  8
0
 10
-20.7555
 20
-9.18951
 11
-20.8217
 21
-9.02955
  0
LINE
  8
0
 10
-20.8217
 20
-9.02955
 11
-21.1587
 21
-8.21608
  0
LINE
  8
0
 10
-21.1587
 20
-8.21608
 11
-21.1602
 21
-8.21234
  0
LINE
  8
0
 10
-21.1602
 20
-8.21234
 11
-21.2237
 21
-8.03316
  0
LINE
  8
0
 10
-21.2237
 20
-8.03316
 11
-21.5117
 21
-7.21968
  0
LINE
  8
0
 10
-21.5117
 20
-7.21968
 11
-21.529
 21
-7.17104
  0
LINE
  8
0
 10
-21.529
 20
-7.17104
 11
-21.5936
 21
-6.97221
  0
LINE
  8
0
 10
-21.5936
 20
-6.97221
 11
-21.6323
 21
-6.85292
  0
LINE
  8
0
 10
-21.6323
 20
-6.85292
 11
-21.6781
 21
-6.69841
  0
LINE
  8
0
 10
-21.6781
 20
-6.69841
 11
-21.831
 21
-6.18234
  0
LINE
  8
0
 10
-21.831
 20
-6.18234
 11
-21.9461
 21
-5.79374
  0
LINE
  8
0
 10
-21.9461
 20
-5.79374
 11
-21.9771
 21
-5.66433
  0
LINE
  8
0
 10
-21.9771
 20
-5.66433
 11
-22.077
 21
-5.24851
  0
LINE
  8
0
 10
-22.077
 20
-5.24851
 11
-22.2039
 21
-4.71959
  0
LINE
  8
0
 10
-22.2039
 20
-4.71959
 11
-22.2232
 21
-4.61564
  0
LINE
  8
0
 10
-22.2232
 20
-4.61564
 11
-22.3003
 21
-4.19981
  0
LINE
  8
0
 10
-22.3003
 20
-4.19981
 11
-22.4053
 21
-3.63342
  0
LINE
  8
0
 10
-22.4053
 20
-3.63342
 11
-22.4156
 21
-3.55521
  0
LINE
  8
0
 10
-22.4156
 20
-3.55521
 11
-22.4703
 21
-3.13938
  0
LINE
  8
0
 10
-22.4703
 20
-3.13938
 11
-22.5494
 21
-2.53821
  0
LINE
  8
0
 10
-22.5494
 20
-2.53821
 11
-22.5713
 21
-2.3303
  0
LINE
  8
0
 10
-22.5713
 20
-2.3303
 11
-22.5844
 21
-2.20555
  0
LINE
  8
0
 10
-22.5844
 20
-2.20555
 11
-22.5885
 21
-2.15329
  0
LINE
  8
0
 10
-22.5885
 20
-2.15329
 11
-22.5967
 21
-2.04905
  0
LINE
  8
0
 10
-22.5967
 20
-2.04905
 11
-22.6711
 21
-1.10429
  0
LINE
  8
0
 10
-22.6711
 20
-1.10429
 11
-22.6718
 21
-1.07812
  0
LINE
  8
0
 10
-22.6718
 20
-1.07812
 11
-22.7
 21
0
  0
LINE
  8
0
 10
-22.7
 20
0
 11
-22.6718
 21
1.07812
  0
LINE
  8
0
 10
-22.6718
 20
1.07812
 11
-22.6711
 21
1.10429
  0
LINE
  8
0
 10
-22.6711
 20
1.10429
 11
-22.5967
 21
2.04905
  0
LINE
  8
0
 10
-22.5967
 20
2.04905
 11
-22.5885
 21
2.15329
  0
LINE
  8
0
 10
-22.5885
 20
2.15329
 11
-22.5844
 21
2.20555
  0
LINE
  8
0
 10
-22.5844
 20
2.20555
 11
-22.5713
 21
2.3303
  0
LINE
  8
0
 10
-22.5713
 20
2.3303
 11
-22.5494
 21
2.53821
  0
LINE
  8
0
 10
-22.5494
 20
2.53821
 11
-22.4703
 21
3.13938
  0
LINE
  8
0
 10
-22.4703
 20
3.13938
 11
-22.4156
 21
3.55521
  0
LINE
  8
0
 10
-22.4156
 20
3.55521
 11
-22.4053
 21
3.63342
  0
LINE
  8
0
 10
-22.4053
 20
3.63342
 11
-22.3003
 21
4.19981
  0
LINE
  8
0
 10
-22.3003
 20
4.19981
 11
-22.2232
 21
4.61564
  0
LINE
  8
0
 10
-22.2232
 20
4.61564
 11
-22.2039
 21
4.71959
  0
LINE
  8
0
 10
-22.2039
 20
4.71959
 11
-22.077
 21
5.24851
  0
LINE
  8
0
 10
-22.077
 20
5.24851
 11
-21.9771
 21
5.66433
  0
LINE
  8
0
 10
-21.9771
 20
5.66433
 11
-21.9461
 21
5.79374
  0
LINE
  8
0
 10
-21.9461
 20
5.79374
 11
-21.831
 21
6.18234
  0
LINE
  8
0
 10
-21.831
 20
6.18234
 11
-21.6781
 21
6.69841
  0
LINE
  8
0
 10
-21.6781
 20
6.69841
 11
-21.6323
 21
6.85292
  0
LINE
  8
0
 10
-21.6323
 20
6.85292
 11
-21.5936
 21
6.97221
  0
LINE
  8
0
 10
-21.5936
 20
6.97221
 11
-21.529
 21
7.17104
  0
LINE
  8
0
 10
-21.529
 20
7.17104
 11
-21.5117
 21
7.21968
  0
LINE
  8
0
 10
-21.5117
 20
7.21968
 11
-21.2237
 21
8.03316
  0
LINE
  8
0
 10
-21.2237
 20
8.03316
 11
-21.1602
 21
8.21234
  0
LINE
  8
0
 10
-21.1602
 20
8.21234
 11
-21.1587
 21
8.21608
  0
LINE
  8
0
 10
-21.1587
 20
8.21608
 11
-20.8217
 21
9.02955
  0
LINE
  8
0
 10
-20.8217
 20
9.02955
 11
-20.7555
 21
9.18951
  0
LINE
  8
0
 10
-20.7555
 20
9.18951
 11
-20.7375
 21
9.23292
  0
LINE
  8
0
 10
-20.7375
 20
9.23292
 11
-20.3702
 21
10.003
  0
LINE
  8
0
 10
-20.3702
 20
10.003
 11
-20.3499
 21
10.0454
  0
LINE
  8
0
 10
-20.3499
 20
10.0454
 11
-20.2619
 21
10.23
  0
LINE
  8
0
 10
-20.2619
 20
10.23
 11
-19.9112
 21
10.8758
  0
LINE
  8
0
 10
-19.9112
 20
10.8758
 11
-19.8705
 21
10.9508
  0
LINE
  8
0
 10
-19.8705
 20
10.9508
 11
-19.7348
 21
11.2008
  0
LINE
  8
0
 10
-19.7348
 20
11.2008
 11
-19.6303
 21
11.3818
  0
LINE
  8
0
 10
-19.6303
 20
11.3818
 11
-19.5676
 21
11.4905
  0
LINE
  8
0
 10
-19.5676
 20
11.4905
 11
-19.333
 21
11.8733
  0
LINE
  8
0
 10
-19.333
 20
11.8733
 11
-19.1572
 21
12.16
  0
LINE
  8
0
 10
-19.1572
 20
12.16
 11
-18.9904
 21
12.4323
  0
LINE
  8
0
 10
-18.9904
 20
12.4323
 11
-18.7866
 21
12.7289
  0
LINE
  8
0
 10
-18.7866
 20
12.7289
 11
-18.5667
 21
13.0488
  0
LINE
  8
0
 10
-18.5667
 20
13.0488
 11
-18.3647
 21
13.3427
  0
LINE
  8
0
 10
-18.3647
 20
13.3427
 11
-18.2674
 21
13.4695
  0
LINE
  8
0
 10
-18.2674
 20
13.4695
 11
-17.9337
 21
13.9045
  0
LINE
  8
0
 10
-17.9337
 20
13.9045
 11
-17.7253
 21
14.1759
  0
LINE
  8
0
 10
-17.7253
 20
14.1759
 11
-17.6922
 21
14.2191
  0
LINE
  8
0
 10
-17.6922
 20
14.2191
 11
-17.3133
 21
14.6628
  0
LINE
  8
0
 10
-17.3133
 20
14.6628
 11
-18.1868
 21
15.5363
  0
LINE
  8
0
 10
-18.1868
 20
15.5363
 11
-20.6649
 21
18.0144
  0
LINE
  8
0
 10
-20.6649
 20
18.0144
 11
-20.7427
 21
18.071
  0
LINE
  8
0
 10
-20.7427
 20
18.071
 11
-21.1826
 21
18.534
  0
LINE
  8
0
 10
-21.1826
 20
18.534
 11
-21.225
 21
18.5786
  0
LINE
  8
0
 10
-21.225
 20
18.5786
 11
-22.1165
 21
19.5171
  0
LINE
  8
0
 10
-22.1165
 20
19.5171
 11
-22.8312
 21
20.2694
  0
LINE
  8
0
 10
-22.8312
 20
20.2694
 11
-22.9522
 21
20.3967
  0
LINE
  8
0
 10
-22.9522
 20
20.3967
 11
-23.4962
 21
20.9694
  0
LINE
  8
0
 10
-23.4962
 20
20.9694
 11
-23.7297
 21
21.2151
  0
LINE
  8
0
 10
-23.7297
 20
21.2151
 11
-24.2134
 21
21.7244
  0
LINE
  8
0
 10
-24.2134
 20
21.7244
 11
-24.4469
 21
21.9701
  0
LINE
  8
0
 10
-24.4469
 20
21.9701
 11
-24.8685
 21
22.4138
  0
LINE
  8
0
 10
-24.8685
 20
22.4138
 11
-25.1019
 21
22.6596
  0
LINE
  8
0
 10
-25.1019
 20
22.6596
 11
-25.3739
 21
22.9459
  0
LINE
  8
0
 10
-25.3739
 20
22.9459
 11
-25.6929
 21
23.2817
  0
LINE
  8
0
 10
-25.6929
 20
23.2817
 11
-25.8232
 21
23.4188
  0
LINE
  8
0
 10
-25.8232
 20
23.4188
 11
-26.2182
 21
23.8346
  0
LINE
  8
0
 10
-26.2182
 20
23.8346
 11
-26.2814
 21
23.9012
  0
LINE
  8
0
 10
-26.2814
 20
23.9012
 11
-26.5262
 21
24.1589
  0
LINE
  8
0
 10
-26.5262
 20
24.1589
 11
-26.6102
 21
24.2521
  0
LINE
  8
0
 10
-26.6102
 20
24.2521
 11
-26.7189
 21
24.3728
  0
LINE
  8
0
 10
-26.7189
 20
24.3728
 11
-26.8899
 21
24.5628
  0
LINE
  8
0
 10
-26.8899
 20
24.5628
 11
-26.9526
 21
24.6714
  0
LINE
  8
0
 10
-26.9526
 20
24.6714
 11
-27.028
 21
24.8019
  0
LINE
  8
0
 10
-27.028
 20
24.8019
 11
-27.1374
 21
24.9915
  0
LINE
  8
0
 10
-27.1374
 20
24.9915
 11
-27.1617
 21
25.0335
  0
LINE
  8
0
 10
-27.1617
 20
25.0335
 11
-27.2209
 21
25.2157
  0
LINE
  8
0
 10
-27.2209
 20
25.2157
 11
-27.2577
 21
25.3291
  0
LINE
  8
0
 10
-27.2577
 20
25.3291
 11
-27.2683
 21
25.3614
  0
LINE
  8
0
 10
-27.2683
 20
25.3614
 11
-27.2909
 21
25.4312
  0
LINE
  8
0
 10
-27.2909
 20
25.4312
 11
-27.3297
 21
25.5505
  0
LINE
  8
0
 10
-27.3297
 20
25.5505
 11
-27.3734
 21
25.9663
  0
LINE
  8
0
 10
-27.3734
 20
25.9663
 11
-27.3865
 21
26.091
  0
LINE
  8
0
 10
-27.3865
 20
26.091
 11
-27.3734
 21
26.2158
  0
LINE
  8
0
 10
-27.3734
 20
26.2158
 11
-27.3297
 21
26.6316
  0
LINE
  8
0
 10
-27.3297
 20
26.6316
 11
-27.2909
 21
26.7509
  0
LINE
  8
0
 10
-27.2909
 20
26.7509
 11
-27.1617
 21
27.1486
  0
LINE
  8
0
 10
-27.1617
 20
27.1486
 11
-26.9526
 21
27.5107
  0
LINE
  8
0
 10
-26.9526
 20
27.5107
 11
-26.8899
 21
27.6193
  0
LINE
  8
0
 10
-26.8899
 20
27.6193
 11
-26.6102
 21
27.93
  0
LINE
  8
0
 10
-26.6102
 20
27.93
 11
-26.5262
 21
28.0232
  0
LINE
  8
0
 10
-26.5262
 20
28.0232
 11
-26.3596
 21
28.1813
  0
LINE
  8
0
 10
-26.3596
 20
28.1813
 11
-25.9271
 21
28.5917
  0
LINE
  8
0
 10
-25.9271
 20
28.5917
 11
-25.8284
 21
28.6854
  0
LINE
  8
0
 10
-25.8284
 20
28.6854
 11
-25.5431
 21
28.929
  0
LINE
  8
0
 10
-25.5431
 20
28.929
 11
-25.2348
 21
29.1924
  0
LINE
  8
0
 10
-25.2348
 20
29.1924
 11
-25.014
 21
29.381
  0
LINE
  8
0
 10
-25.014
 20
29.381
 11
-24.8813
 21
29.4944
  0
LINE
  8
0
 10
-24.8813
 20
29.4944
 11
-24.837
 21
29.5322
  0
LINE
  8
0
 10
-24.837
 20
29.5322
 11
-24.3953
 21
29.9094
  0
LINE
  8
0
 10
-24.3953
 20
29.9094
 11
-22.9
 21
31.0568
  0
LINE
  8
0
 10
-22.9
 20
31.0568
 11
-22.7985
 21
31.1305
  0
LINE
  8
0
 10
-22.7985
 20
31.1305
 11
-22.4603
 21
31.3763
  0
LINE
  8
0
 10
-22.4603
 20
31.3763
 11
-20.907
 21
32.4438
  0
LINE
  8
0
 10
-20.907
 20
32.4438
 11
-19.3
 21
33.4286
  0
LINE
  8
0
 10
-19.3
 20
33.4286
 11
-17.6437
 21
34.3279
  0
LINE
  8
0
 10
-17.6437
 20
34.3279
 11
-15.9425
 21
35.1393
  0
LINE
  8
0
 10
-15.9425
 20
35.1393
 11
-15.5606
 21
35.3094
  0
LINE
  8
0
 10
-15.5606
 20
35.3094
 11
-15.446
 21
35.3604
  0
LINE
  8
0
 10
-15.446
 20
35.3604
 11
-13.7047
 21
36.0816
  0
LINE
  8
0
 10
-13.7047
 20
36.0816
 11
-11.9281
 21
36.7108
  0
LINE
  8
0
 10
-11.9281
 20
36.7108
 11
-10.1209
 21
37.2461
  0
LINE
  8
0
 10
-10.1209
 20
37.2461
 11
-8.28826
 21
37.6861
  0
LINE
  8
0
 10
-8.28826
 20
37.6861
 11
-8.16557
 21
37.7121
  0
LINE
  8
0
 10
-8.16557
 20
37.7121
 11
-7.75659
 21
37.7991
  0
LINE
  8
0
 10
-7.75659
 20
37.7991
 11
-5.90341
 21
38.1425
  0
LINE
  8
0
 10
-5.90341
 20
38.1425
 11
-4.0348
 21
38.3885
  0
LINE
  8
0
 10
-4.0348
 20
38.3885
 11
-2.15587
 21
38.5364
  0
LINE
  8
0
 10
-2.15587
 20
38.5364
 11
-0.271773
 21
38.5858
  0
LINE
  8
0
 10
-0.271773
 20
38.5858
 11
0.271773
 21
38.5858
  0
LINE
  8
0
 10
0.271773
 20
38.5858
 11
2.15587
 21
38.5364
  0
LINE
  8
0
 10
2.15587
 20
38.5364
 11
4.0348
 21
38.3885
  0
LINE
  8
0
 10
4.0348
 20
38.3885
 11
5.90341
 21
38.1425
  0
LINE
  8
0
 10
5.90341
 20
38.1425
 11
7.75659
 21
37.7991
  0
LINE
  8
0
 10
7.75659
 20
37.7991
 11
8.16557
 21
37.7121
  0
LINE
  8
0
 10
8.16557
 20
37.7121
 11
8.28826
 21
37.6861
  0
LINE
  8
0
 10
8.28826
 20
37.6861
 11
10.1209
 21
37.2461
  0
LINE
  8
0
 10
10.1209
 20
37.2461
 11
11.9281
 21
36.7108
  0
LINE
  8
0
 10
11.9281
 20
36.7108
 11
13.7047
 21
36.0816
  0
LINE
  8
0
 10
13.7047
 20
36.0816
 11
15.446
 21
35.3604
  0
LINE
  8
0
 10
15.446
 20
35.3604
 11
15.5606
 21
35.3094
  0
LINE
  8
0
 10
15.5606
 20
35.3094
 11
15.9425
 21
35.1393
  0
LINE
  8
0
 10
15.9425
 20
35.1393
 11
17.6437
 21
34.3279
  0
LINE
  8
0
 10
17.6437
 20
34.3279
 11
19.3
 21
33.4286
  0
LINE
  8
0
 10
19.3
 20
33.4286
 11
20.907
 21
32.4438
  0
LINE
  8
0
 10
20.907
 20
32.4438
 11
22.4603
 21
31.3763
  0
LINE
  8
0
 10
22.4603
 20
31.3763
 11
22.7985
 21
31.1305
  0
LINE
  8
0
 10
22.7985
 20
31.1305
 11
22.9
 21
31.0568
  0
LINE
  8
0
 10
22.9
 20
31.0568
 11
24.3953
 21
29.9094
  0
LINE
  8
0
 10
24.3953
 20
29.9094
 11
24.837
 21
29.5322
  0
LINE
  8
0
 10
24.837
 20
29.5322
 11
24.8813
 21
29.4944
  0
LINE
  8
0
 10
24.8813
 20
29.4944
 11
25.014
 21
29.381
  0
LINE
  8
0
 10
25.014
 20
29.381
 11
25.2348
 21
29.1924
  0
LINE
  8
0
 10
25.2348
 20
29.1924
 11
25.5431
 21
28.929
  0
LINE
  8
0
 10
25.5431
 20
28.929
 11
25.8284
 21
28.6854
  0
LINE
  8
0
 10
25.8284
 20
28.6854
 11
25.9271
 21
28.5917
  0
LINE
  8
0
 10
25.9271
 20
28.5917
 11
26.3596
 21
28.1813
  0
LINE
  8
0
 10
26.3596
 20
28.1813
 11
26.5262
 21
28.0232
  0
LINE
  8
0
 10
26.5262
 20
28.0232
 11
26.6102
 21
27.93
  0
LINE
  8
0
 10
26.6102
 20
27.93
 11
26.8899
 21
27.6193
  0
LINE
  8
0
 10
26.8899
 20
27.6193
 11
26.9526
 21
27.5107
  0
LINE
  8
0
 10
26.9526
 20
27.5107
 11
27.1617
 21
27.1486
  0
LINE
  8
0
 10
27.1617
 20
27.1486
 11
27.2909
 21
26.7509
  0
LINE
  8
0
 10
27.2909
 20
26.7509
 11
27.3297
 21
26.6316
  0
LINE
  8
0
 10
27.3297
 20
26.6316
 11
27.3734
 21
26.2158
  0
LINE
  8
0
 10
27.3734
 20
26.2158
 11
27.3865
 21
26.091
  0
LINE
  8
0
 10
27.3865
 20
26.091
 11
27.3734
 21
25.9663
  0
LINE
  8
0
 10
27.3734
 20
25.9663
 11
27.3297
 21
25.5505
  0
LINE
  8
0
 10
27.3297
 20
25.5505
 11
27.2909
 21
25.4312
  0
LINE
  8
0
 10
27.2909
 20
25.4312
 11
27.2683
 21
25.3614
  0
LINE
  8
0
 10
27.2683
 20
25.3614
 11
27.2577
 21
25.3291
  0
LINE
  8
0
 10
27.2577
 20
25.3291
 11
27.2209
 21
25.2157
  0
LINE
  8
0
 10
27.2209
 20
25.2157
 11
27.1617
 21
25.0335
  0
LINE
  8
0
 10
27.1617
 20
25.0335
 11
27.1374
 21
24.9915
  0
LINE
  8
0
 10
27.1374
 20
24.9915
 11
27.028
 21
24.8019
  0
LINE
  8
0
 10
27.028
 20
24.8019
 11
26.9526
 21
24.6714
  0
LINE
  8
0
 10
26.9526
 20
24.6714
 11
26.8899
 21
24.5628
  0
LINE
  8
0
 10
26.8899
 20
24.5628
 11
26.7189
 21
24.3728
  0
LINE
  8
0
 10
26.7189
 20
24.3728
 11
26.6102
 21
24.2521
  0
LINE
  8
0
 10
26.6102
 20
24.2521
 11
26.5262
 21
24.1589
  0
LINE
  8
0
 10
26.5262
 20
24.1589
 11
26.2814
 21
23.9012
  0
LINE
  8
0
 10
26.2814
 20
23.9012
 11
26.2182
 21
23.8346
  0
LINE
  8
0
 10
26.2182
 20
23.8346
 11
25.8232
 21
23.4188
  0
LINE
  8
0
 10
25.8232
 20
23.4188
 11
25.6929
 21
23.2817
  0
LINE
  8
0
 10
25.6929
 20
23.2817
 11
25.3739
 21
22.9459
  0
LINE
  8
0
 10
25.3739
 20
22.9459
 11
25.1019
 21
22.6596
  0
LINE
  8
0
 10
25.1019
 20
22.6596
 11
24.8685
 21
22.4138
  0
LINE
  8
0
 10
24.8685
 20
22.4138
 11
24.4469
 21
21.9701
  0
LINE
  8
0
 10
24.4469
 20
21.9701
 11
24.2134
 21
21.7244
  0
LINE
  8
0
 10
24.2134
 20
21.7244
 11
23.7297
 21
21.2151
  0
LINE
  8
0
 10
23.7297
 20
21.2151
 11
23.4962
 21
20.9694
  0
LINE
  8
0
 10
23.4962
 20
20.9694
 11
22.9522
 21
20.3967
  0
LINE
  8
0
 10
22.9522
 20
20.3967
 11
22.8312
 21
20.2694
  0
LINE
  8
0
 10
22.8312
 20
20.2694
 11
22.1165
 21
19.5171
  0
LINE
  8
0
 10
22.1165
 20
19.5171
 11
21.225
 21
18.5786
  0
LINE
  8
0
 10
21.225
 20
18.5786
 11
20.7427
 21
18.071
  0
LINE
  8
0
 10
20.7427
 20
18.071
 11
20.6412
 21
17.9972
  0
LINE
  8
0
 10
20.6412
 20
17.9972
 11
20.303
 21
17.7515
  0
LINE
  8
0
 10
20.303
 20
17.7515
 11
19.921
 21
17.5814
  0
LINE
  8
0
 10
19.921
 20
17.5814
 11
19.8064
 21
17.5304
  0
LINE
  8
0
 10
19.8064
 20
17.5304
 11
19.3974
 21
17.4435
  0
LINE
  8
0
 10
19.3974
 20
17.4435
 11
19.2747
 21
17.4174
  0
LINE
  8
0
 10
19.2747
 20
17.4174
 11
18.7312
 21
17.4174
  0
LINE
  8
0
 10
18.7312
 20
17.4174
 11
18.6085
 21
17.4435
  0
LINE
  8
0
 10
18.6085
 20
17.4435
 11
18.1995
 21
17.5304
  0
LINE
  8
0
 10
18.1995
 20
17.5304
 11
17.8176
 21
17.7004
  0
LINE
  8
0
 10
17.8176
 20
17.7004
 11
17.703
 21
17.7515
  0
LINE
  8
0
 10
17.703
 20
17.7515
 11
17.3647
 21
17.9972
  0
LINE
  8
0
 10
17.3647
 20
17.9972
 11
17.2632
 21
18.071
  0
LINE
  8
0
 10
17.2632
 20
18.071
 11
16.7283
 21
18.5786
  0
LINE
  8
0
 10
16.7283
 20
18.5786
 11
15.6295
 21
19.5171
  0
LINE
  8
0
 10
15.6295
 20
19.5171
 11
14.6988
 21
20.2312
  0
LINE
  8
0
 10
14.6988
 20
20.2312
 11
13.732
 21
20.8956
  0
LINE
  8
0
 10
13.732
 20
20.8956
 11
13.331
 21
21.1414
  0
LINE
  8
0
 10
13.331
 20
21.1414
 11
12.5
 21
21.6506
  0
LINE
  8
0
 10
12.5
 20
21.6506
 11
11.2301
 21
22.3401
  0
LINE
  8
0
 10
11.2301
 20
22.3401
 11
10.1713
 21
22.8451
  0
LINE
  8
0
 10
10.1713
 20
22.8451
 11
9.4186
 21
23.1569
  0
LINE
  8
0
 10
9.4186
 20
23.1569
 11
9.08751
 21
23.2941
  0
LINE
  8
0
 10
9.08751
 20
23.2941
 11
7.72543
 21
23.7764
  0
LINE
  8
0
 10
7.72543
 20
23.7764
 11
6.33996
 21
24.1868
  0
LINE
  8
0
 10
6.33996
 20
24.1868
 11
5.19927
 21
24.4607
  0
LINE
  8
0
 10
5.19927
 20
24.4607
 11
4.04582
 21
24.6744
  0
LINE
  8
0
 10
4.04582
 20
24.6744
 11
2.61321
 21
24.863
  0
LINE
  8
0
 10
2.61321
 20
24.863
 11
1.1727
 21
24.9764
  0
LINE
  8
0
 10
1.1727
 20
24.9764
 11
0
 21
25.0071
  0
LINE
  8
0
 10
0
 20
25.0071
 11
-1.1727
 21
24.9764
  0
LINE
  8
0
 10
-1.1727
 20
24.9764
 11
-2.61321
 21
24.863
  0
LINE
  8
0
 10
-2.61321
 20
24.863
 11
-4.04582
 21
24.6744
  0
LINE
  8
0
 10
-4.04582
 20
24.6744
 11
-5.19927
 21
24.4607
  0
LINE
  8
0
 10
-5.19927
 20
24.4607
 11
-6.33996
 21
24.1868
  0
LINE
  8
0
 10
-6.33996
 20
24.1868
 11
-7.72543
 21
23.7764
  0
LINE
  8
0
 10
-7.72543
 20
23.7764
 11
-9.08751
 21
23.2941
  0
LINE
  8
0
 10
-9.08751
 20
23.2941
 11
-9.4186
 21
23.1569
  0
LINE
  8
0
 10
-9.4186
 20
23.1569
 11
-10.1713
 21
22.8451
  0
LINE
  8
0
 10
-10.1713
 20
22.8451
 11
-11.2301
 21
22.3401
  0
LINE
  8
0
 10
-11.2301
 20
22.3401
 11
-12.5
 21
21.6506
  0
LINE
  8
0
 10
-12.5
 20
21.6506
 11
-13.331
 21
21.1414
  0
LINE
  8
0
 10
-13.331
 20
21.1414
 11
-13.732
 21
20.8956
  0
LINE
  8
0
 10
-13.732
 20
20.8956
 11
-14.6988
 21
20.2312
  0
LINE
  8
0
 10
-14.6988
 20
20.2312
 11
-15.6295
 21
19.5171
  0
LINE
  8
0
 10
-15.6295
 20
19.5171
 11
-16.2967
 21
18.9472
  0
LINE
  8
0
 10
-16.2967
 20
18.9472
 11
-16.2557
 21
18.9062
  0
LINE
  8
0
 10
-16.2557
 20
18.9062
 11
-13.7937
 21
16.4442
  0
LINE
  8
0
 10
-13.7937
 20
16.4442
 11
-13.7213
 21
16.3638
  0
LINE
  8
0
 10
-13.7213
 20
16.3638
 11
-13.6418
 21
16.306
  0
LINE
  8
0
 10
-13.6418
 20
16.306
 11
-13.2931
 21
15.9478
  0
LINE
  8
0
 10
-13.2931
 20
15.9478
 11
-13.2092
 21
15.8545
  0
LINE
  8
0
 10
-13.2092
 20
15.8545
 11
-13.0693
 21
15.6992
  0
LINE
  8
0
 10
-13.0693
 20
15.6992
 11
-13.0066
 21
15.5906
  0
LINE
  8
0
 10
-13.0066
 20
15.5906
 11
-12.9021
 21
15.4095
  0
LINE
  8
0
 10
-12.9021
 20
15.4095
 11
-12.8375
 21
15.2107
  0
LINE
  8
0
 10
-12.8375
 20
15.2107
 11
-12.7987
 21
15.0914
  0
LINE
  8
0
 10
-12.7987
 20
15.0914
 11
-12.7768
 21
14.8835
  0
LINE
  8
0
 10
-12.7768
 20
14.8835
 11
-12.7637
 21
14.7587
  0
LINE
  8
0
 10
-12.7637
 20
14.7587
 11
-12.7704
 21
14.6956
  0
LINE
  8
0
 10
-12.7704
 20
14.6956
 11
-12.7704
 21
14.6955
  0
LINE
  8
0
 10
-12.7704
 20
14.6955
 11
-12.7835
 21
14.5708
  0
LINE
  8
0
 10
-12.7835
 20
14.5708
 11
-12.7987
 21
14.4261
  0
LINE
  8
0
 10
-12.7987
 20
14.4261
 11
-12.8375
 21
14.3068
  0
LINE
  8
0
 10
-12.8375
 20
14.3068
 11
-12.8956
 21
14.1278
  0
LINE
  8
0
 10
-12.8956
 20
14.1278
 11
-12.9021
 21
14.108
  0
LINE
  8
0
 10
-12.9021
 20
14.108
 11
-13.0066
 21
13.9269
  0
LINE
  8
0
 10
-13.0066
 20
13.9269
 11
-13.0693
 21
13.8183
  0
LINE
  8
0
 10
-13.0693
 20
13.8183
 11
-13.2092
 21
13.6629
  0
LINE
  8
0
 10
-13.2092
 20
13.6629
 11
-13.2931
 21
13.5697
  0
LINE
  8
0
 10
-13.2931
 20
13.5697
 11
-13.4958
 21
13.3774
  0
LINE
  8
0
 10
-13.4958
 20
13.3774
 11
-13.7534
 21
13.1059
  0
LINE
  8
0
 10
-13.7534
 20
13.1059
 11
-14.123
 21
12.7164
  0
LINE
  8
0
 10
-14.123
 20
12.7164
 11
-14.4415
 21
12.3435
  0
LINE
  8
0
 10
-14.4415
 20
12.3435
 11
-14.7148
 21
12.0235
  0
LINE
  8
0
 10
-14.7148
 20
12.0235
 11
-15.1513
 21
11.4547
  0
LINE
  8
0
 10
-15.1513
 20
11.4547
 11
-15.3713
 21
11.1679
  0
LINE
  8
0
 10
-15.3713
 20
11.1679
 11
-15.9307
 21
10.3541
  0
LINE
  8
0
 10
-15.9307
 20
10.3541
 11
-15.9822
 21
10.2791
  0
LINE
  8
0
 10
-15.9822
 20
10.2791
 11
-16.4583
 21
9.5022
  0
LINE
  8
0
 10
-16.4583
 20
9.5022
 11
-16.8931
 21
8.70143
  0
LINE
  8
0
 10
-16.8931
 20
8.70143
 11
-16.9694
 21
8.54147
  0
LINE
  8
0
 10
-16.9694
 20
8.54147
 11
-17.3574
 21
7.728
  0
LINE
  8
0
 10
-17.3574
 20
7.728
 11
-17.4331
 21
7.54507
  0
LINE
  8
0
 10
-17.4331
 20
7.54507
 11
-17.7701
 21
6.7316
  0
LINE
  8
0
 10
-17.7701
 20
6.7316
 11
-17.9124
 21
6.32962
  0
LINE
  8
0
 10
-17.9124
 20
6.32962
 11
-18.0742
 21
5.87269
  0
LINE
  8
0
 10
-18.0742
 20
5.87269
 11
-18.333
 21
4.99901
  0
LINE
  8
0
 10
-18.333
 20
4.99901
 11
-18.5848
 21
3.95032
  0
LINE
  8
0
 10
-18.5848
 20
3.95032
 11
-18.7043
 21
3.30571
  0
LINE
  8
0
 10
-18.7043
 20
3.30571
 11
-18.7813
 21
2.88989
  0
LINE
  8
0
 10
-18.7813
 20
2.88989
 11
-18.9003
 21
1.9865
  0
LINE
  8
0
 10
-18.9003
 20
1.9865
 11
-18.9718
 21
1.07812
  0
LINE
  8
0
 10
-18.9718
 20
1.07812
 11
-19
 21
0
  0
LINE
  8
0
 10
-19
 20
0
 11
-18.9718
 21
-1.07812
  0
LINE
  8
0
 10
-18.9718
 20
-1.07812
 11
-18.9003
 21
-1.9865
  0
LINE
  8
0
 10
-18.9003
 20
-1.9865
 11
-18.7813
 21
-2.88989
  0
LINE
  8
0
 10
-18.7813
 20
-2.88989
 11
-18.7043
 21
-3.30571
  0
LINE
  8
0
 10
-18.7043
 20
-3.30571
 11
-18.5848
 21
-3.95032
  0
LINE
  8
0
 10
-18.5848
 20
-3.95032
 11
-18.333
 21
-4.99901
  0
LINE
  8
0
 10
-18.333
 20
-4.99901
 11
-18.0742
 21
-5.87269
  0
LINE
  8
0
 10
-18.0742
 20
-5.87269
 11
-17.9124
 21
-6.32962
  0
LINE
  8
0
 10
-17.9124
 20
-6.32962
 11
-17.7701
 21
-6.7316
  0
LINE
  8
0
 10
-17.7701
 20
-6.7316
 11
-17.4331
 21
-7.54507
  0
LINE
  8
0
 10
-17.4331
 20
-7.54507
 11
-17.3574
 21
-7.728
  0
LINE
  8
0
 10
-17.3574
 20
-7.728
 11
-16.9694
 21
-8.54147
  0
LINE
  8
0
 10
-16.9694
 20
-8.54147
 11
-16.8931
 21
-8.70143
  0
LINE
  8
0
 10
-16.8931
 20
-8.70143
 11
-16.4583
 21
-9.5022
  0
LINE
  8
0
 10
-16.4583
 20
-9.5022
 11
-15.9822
 21
-10.2791
  0
LINE
  8
0
 10
-15.9822
 20
-10.2791
 11
-15.9307
 21
-10.3541
  0
LINE
  8
0
 10
-15.9307
 20
-10.3541
 11
-15.3713
 21
-11.1679
  0
LINE
  8
0
 10
-15.3713
 20
-11.1679
 11
-15.1513
 21
-11.4547
  0
LINE
  8
0
 10
-15.1513
 20
-11.4547
 11
-14.7148
 21
-12.0235
  0
LINE
  8
0
 10
-14.7148
 20
-12.0235
 11
-14.4415
 21
-12.3435
  0
LINE
  8
0
 10
-14.4415
 20
-12.3435
 11
-14.123
 21
-12.7164
  0
LINE
  8
0
 10
-14.123
 20
-12.7164
 11
-13.7534
 21
-13.1059
  0
LINE
  8
0
 10
-13.7534
 20
-13.1059
 11
-13.4958
 21
-13.3774
  0
LINE
  8
0
 10
-13.4958
 20
-13.3774
 11
-13.2931
 21
-13.5697
  0
LINE
  8
0
 10
-13.2931
 20
-13.5697
 11
-13.2092
 21
-13.6629
  0
LINE
  8
0
 10
-13.2092
 20
-13.6629
 11
-13.0693
 21
-13.8183
  0
LINE
  8
0
 10
-13.0693
 20
-13.8183
 11
-13.0066
 21
-13.9269
  0
LINE
  8
0
 10
-13.0066
 20
-13.9269
 11
-12.9021
 21
-14.108
  0
LINE
  8
0
 10
-12.9021
 20
-14.108
 11
-12.8956
 21
-14.1278
  0
LINE
  8
0
 10
-12.8956
 20
-14.1278
 11
-12.8375
 21
-14.3068
  0
LINE
  8
0
 10
-12.8375
 20
-14.3068
 11
-12.7987
 21
-14.4261
  0
LINE
  8
0
 10
-12.7987
 20
-14.4261
 11
-12.7835
 21
-14.5708
  0
LINE
  8
0
 10
-12.7835
 20
-14.5708
 11
-12.7704
 21
-14.6955
  0
LINE
  8
0
 10
-12.7704
 20
-14.6955
 11
-12.7704
 21
-14.6956
  0
LINE
  8
0
 10
-12.7704
 20
-14.6956
 11
-12.7637
 21
-14.7587
  0
LINE
  8
0
 10
-12.7637
 20
-14.7587
 11
-12.7768
 21
-14.8835
  0
LINE
  8
0
 10
-12.7768
 20
-14.8835
 11
-12.7987
 21
-15.0914
  0
LINE
  8
0
 10
-12.7987
 20
-15.0914
 11
-12.8375
 21
-15.2107
  0
LINE
  8
0
 10
-12.8375
 20
-15.2107
 11
-12.9021
 21
-15.4095
  0
LINE
  8
0
 10
-12.9021
 20
-15.4095
 11
-13.0066
 21
-15.5906
  0
LINE
  8
0
 10
-13.0066
 20
-15.5906
 11
-13.0693
 21
-15.6992
  0
LINE
  8
0
 10
-13.0693
 20
-15.6992
 11
-13.2092
 21
-15.8545
  0
LINE
  8
0
 10
-13.2092
 20
-15.8545
 11
-13.2931
 21
-15.9478
  0
LINE
  8
0
 10
-13.2931
 20
-15.9478
 11
-13.6418
 21
-16.306
  0
LINE
  8
0
 10
-13.6418
 20
-16.306
 11
-13.7213
 21
-16.3638
  0
LINE
  8
0
 10
-13.7213
 20
-16.3638
 11
-13.7937
 21
-16.4442
  0
LINE
  8
0
 10
-13.7937
 20
-16.4442
 11
-16.2557
 21
-18.9062
  0
LINE
  8
0
 10
-16.2557
 20
-18.9062
 11
-16.2967
 21
-18.9472
  0
LINE
  8
0
 10
-16.2967
 20
-18.9472
 11
-15.6295
 21
-19.5171
  0
LINE
  8
0
 10
-15.6295
 20
-19.5171
 11
-14.6988
 21
-20.2312
  0
LINE
  8
0
 10
-14.6988
 20
-20.2312
 11
-13.732
 21
-20.8956
  0
LINE
  8
0
 10
-13.732
 20
-20.8956
 11
-13.331
 21
-21.1414
  0
LINE
  8
0
 10
-13.331
 20
-21.1414
 11
-12.5
 21
-21.6506
  0
LINE
  8
0
 10
-12.5
 20
-21.6506
 11
-11.2301
 21
-22.3401
  0
LINE
  8
0
 10
-11.2301
 20
-22.3401
 11
-10.1713
 21
-22.8451
  0
LINE
  8
0
 10
-10.1713
 20
-22.8451
 11
-9.4186
 21
-23.1569
  0
LINE
  8
0
 10
-9.4186
 20
-23.1569
 11
-9.08751
 21
-23.2941
  0
LINE
  8
0
 10
-9.08751
 20
-23.2941
 11
-7.72543
 21
-23.7764
  0
LINE
  8
0
 10
-7.72543
 20
-23.7764
 11
-6.33996
 21
-24.1868
  0
LINE
  8
0
 10
-6.33996
 20
-24.1868
 11
-5.19927
 21
-24.4607
  0
LINE
  8
0
 10
-5.19927
 20
-24.4607
 11
-4.04582
 21
-24.6744
  0
LINE
  8
0
 10
-4.04582
 20
-24.6744
 11
-2.61321
 21
-24.863
  0
LINE
  8
0
 10
-2.61321
 20
-24.863
 11
-1.1727
 21
-24.9764
  0
LINE
  8
0
 10
-1.1727
 20
-24.9764
 11
0
 21
-25.0071
  0
LINE
  8
0
 10
0
 20
-25.0071
 11
1.1727
 21
-24.9764
  0
LINE
  8
0
 10
1.1727
 20
-24.9764
 11
2.61321
 21
-24.863
  0
LINE
  8
0
 10
2.61321
 20
-24.863
 11
4.04582
 21
-24.6744
  0
LINE
  8
0
 10
4.04582
 20
-24.6744
 11
5.19927
 21
-24.4607
  0
LINE
  8
0
 10
5.19927
 20
-24.4607
 11
6.33996
 21
-24.1868
  0
LINE
  8
0
 10
6.33996
 20
-24.1868
 11
7.72543
 21
-23.7764
  0
LINE
  8
0
 10
7.72543
 20
-23.7764
 11
9.08751
 21
-23.2941
  0
LINE
  8
0
 10
9.08751
 20
-23.2941
 11
9.4186
 21
-23.1569
  0
LINE
  8
0
 10
9.4186
 20
-23.1569
 11
10.1713
 21
-22.8451
  0
LINE
  8
0
 10
10.1713
 20
-22.8451
 11
11.2301
 21
-22.3401
  0
LINE
  8
0
 10
11.2301
 20
-22.3401
 11
12.5
 21
-21.6506
  0
LINE
  8
0
 10
12.5
 20
-21.6506
 11
13.331
 21
-21.1414
  0
LINE
  8
0
 10
13.331
 20
-21.1414
 11
13.732
 21
-20.8956
  0
LINE
  8
0
 10
13.732
 20
-20.8956
 11
14.6988
 21
-20.2312
  0
LINE
  8
0
 10
14.6988
 20
-20.2312
 11
15.6295
 21
-19.5171
  0
LINE
  8
0
 10
15.6295
 20
-19.5171
 11
16.7283
 21
-18.5786
  0
LINE
  8
0
 10
16.7283
 20
-18.5786
 11
17.2632
 21
-18.071
  0
LINE
  8
0
 10
17.2632
 20
-18.071
 11
17.3647
 21
-17.9972
  0
LINE
  8
0
 10
17.3647
 20
-17.9972
 11
17.703
 21
-17.7515
  0
LINE
  8
0
 10
17.703
 20
-17.7515
 11
17.8176
 21
-17.7004
  0
LINE
  8
0
 10
17.8176
 20
-17.7004
 11
18.1995
 21
-17.5304
  0
LINE
  8
0
 10
18.1995
 20
-17.5304
 11
18.6085
 21
-17.4435
  0
LINE
  8
0
 10
18.6085
 20
-17.4435
 11
18.7312
 21
-17.4174
  0
LINE
  8
0
 10
18.7312
 20
-17.4174
 11
19.2747
 21
-17.4174
  0
LINE
  8
0
 10
19.2747
 20
-17.4174
 11
19.3974
 21
-17.4435
  0
LINE
  8
0
 10
19.3974
 20
-17.4435
 11
19.8064
 21
-17.5304
  0
LINE
  8
0
 10
19.8064
 20
-17.5304
 11
19.921
 21
-17.5814
  0
LINE
  8
0
 10
19.921
 20
-17.5814
 11
20.303
 21
-17.7515
  0
LINE
  8
0
 10
20.303
 20
-17.7515
 11
20.6412
 21
-17.9972
  0
LINE
  8
0
 10
20.6412
 20
-17.9972
 11
20.7427
 21
-18.071
  0
LINE
  8
0
 10
20.7427
 20
-18.071
 11
21.225
 21
-18.5786
  0
LINE
  8
0
 10
21.225
 20
-18.5786
 11
22.1165
 21
-19.5171
  0
LINE
  8
0
 10
22.1165
 20
-19.5171
 11
22.8312
 21
-20.2694
  0
LINE
  8
0
 10
22.8312
 20
-20.2694
 11
22.9522
 21
-20.3967
  0
LINE
  8
0
 10
22.9522
 20
-20.3967
 11
23.4962
 21
-20.9694
  0
LINE
  8
0
 10
23.4962
 20
-20.9694
 11
23.7297
 21
-21.2151
  0
LINE
  8
0
 10
23.7297
 20
-21.2151
 11
24.2134
 21
-21.7244
  0
LINE
  8
0
 10
24.2134
 20
-21.7244
 11
24.4469
 21
-21.9701
  0
LINE
  8
0
 10
24.4469
 20
-21.9701
 11
24.8685
 21
-22.4138
  0
LINE
  8
0
 10
24.8685
 20
-22.4138
 11
25.1019
 21
-22.6596
  0
LINE
  8
0
 10
25.1019
 20
-22.6596
 11
25.3739
 21
-22.9459
  0
LINE
  8
0
 10
25.3739
 20
-22.9459
 11
25.6929
 21
-23.2817
  0
LINE
  8
0
 10
25.6929
 20
-23.2817
 11
25.8232
 21
-23.4188
  0
LINE
  8
0
 10
25.8232
 20
-23.4188
 11
26.2182
 21
-23.8346
  0
LINE
  8
0
 10
26.2182
 20
-23.8346
 11
26.2814
 21
-23.9012
  0
LINE
  8
0
 10
26.2814
 20
-23.9012
 11
26.5262
 21
-24.1589
  0
LINE
  8
0
 10
26.5262
 20
-24.1589
 11
26.6102
 21
-24.2521
  0
LINE
  8
0
 10
26.6102
 20
-24.2521
 11
26.7189
 21
-24.3728
  0
LINE
  8
0
 10
26.7189
 20
-24.3728
 11
26.8899
 21
-24.5628
  0
LINE
  8
0
 10
26.8899
 20
-24.5628
 11
26.9526
 21
-24.6714
  0
LINE
  8
0
 10
26.9526
 20
-24.6714
 11
27.028
 21
-24.8019
  0
LINE
  8
0
 10
27.028
 20
-24.8019
 11
27.1374
 21
-24.9915
  0
LINE
  8
0
 10
27.1374
 20
-24.9915
 11
27.1617
 21
-25.0335
  0
LINE
  8
0
 10
27.1617
 20
-25.0335
 11
27.2209
 21
-25.2157
  0
LINE
  8
0
 10
27.2209
 20
-25.2157
 11
27.2577
 21
-25.3291
  0
LINE
  8
0
 10
27.2577
 20
-25.3291
 11
27.2683
 21
-25.3614
  0
LINE
  8
0
 10
27.2683
 20
-25.3614
 11
27.2909
 21
-25.4312
  0
LINE
  8
0
 10
27.2909
 20
-25.4312
 11
27.3297
 21
-25.5505
  0
LINE
  8
0
 10
27.3297
 20
-25.5505
 11
27.3734
 21
-25.9663
  0
LINE
  8
0
 10
27.3734
 20
-25.9663
 11
27.3865
 21
-26.091
  0
LINE
  8
0
 10
27.3865
 20
-26.091
 11
27.3734
 21
-26.2158
  0
LINE
  8
0
 10
27.3734
 20
-26.2158
 11
27.3297
 21
-26.6316
  0
LINE
  8
0
 10
27.3297
 20
-26.6316
 11
27.2909
 21
-26.7509
  0
LINE
  8
0
 10
27.2909
 20
-26.7509
 11
27.1617
 21
-27.1486
  0
LINE
  8
0
 10
27.1617
 20
-27.1486
 11
26.9526
 21
-27.5107
  0
LINE
  8
0
 10
26.9526
 20
-27.5107
 11
26.8899
 21
-27.6193
  0
LINE
  8
0
 10
26.8899
 20
-27.6193
 11
26.6102
 21
-27.93
  0
LINE
  8
0
 10
26.6102
 20
-27.93
 11
26.5262
 21
-28.0232
  0
LINE
  8
0
 10
26.5262
 20
-28.0232
 11
26.3596
 21
-28.1813
  0
LINE
  8
0
 10
26.3596
 20
-28.1813
 11
25.9271
 21
-28.5917
  0
LINE
  8
0
 10
25.9271
 20
-28.5917
 11
25.8284
 21
-28.6854
  0
LINE
  8
0
 10
25.8284
 20
-28.6854
 11
25.5431
 21
-28.929
  0
LINE
  8
0
 10
25.5431
 20
-28.929
 11
25.2348
 21
-29.1924
  0
LINE
  8
0
 10
25.2348
 20
-29.1924
 11
25.014
 21
-29.381
  0
LINE
  8
0
 10
25.014
 20
-29.381
 11
24.8813
 21
-29.4944
  0
LINE
  8
0
 10
24.8813
 20
-29.4944
 11
24.837
 21
-29.5322
  0
LINE
  8
0
 10
24.837
 20
-29.5322
 11
24.3953
 21
-29.9094
  0
LINE
  8
0
 10
24.3953
 20
-29.9094
 11
22.9
 21
-31.0568
  0
LINE
  8
0
 10
22.9
 20
-31.0568
 11
22.7985
 21
-31.1305
  0
LINE
  8
0
 10
22.7985
 20
-31.1305
 11
22.4603
 21
-31.3763
  0
LINE
  8
0
 10
22.4603
 20
-31.3763
 11
20.907
 21
-32.4438
  0
LINE
  8
0
 10
20.907
 20
-32.4438
 11
19.3
 21
-33.4286
  0
LINE
  8
0
 10
19.3
 20
-33.4286
 11
17.6437
 21
-34.3279
  0
LINE
  8
0
 10
17.6437
 20
-34.3279
 11
15.9425
 21
-35.1393
  0
LINE
  8
0
 10
15.9425
 20
-35.1393
 11
15.5606
 21
-35.3094
  0
LINE
  8
0
 10
15.5606
 20
-35.3094
 11
15.446
 21
-35.3604
  0
LINE
  8
0
 10
15.446
 20
-35.3604
 11
13.7047
 21
-36.0816
  0
LINE
  8
0
 10
13.7047
 20
-36.0816
 11
11.9281
 21
-36.7108
  0
LINE
  8
0
 10
11.9281
 20
-36.7108
 11
10.1209
 21
-37.2461
  0
LINE
  8
0
 10
10.1209
 20
-37.2461
 11
8.28826
 21
-37.6861
  0
LINE
  8
0
 10
8.28826
 20
-37.6861
 11
8.16557
 21
-37.7121
  0
LINE
  8
0
 10
8.16557
 20
-37.7121
 11
7.75659
 21
-37.7991
  0
LINE
  8
0
 10
7.75659
 20
-37.7991
 11
5.90341
 21
-38.1425
  0
LINE
  8
0
 10
5.90341
 20
-38.1425
 11
4.0348
 21
-38.3885
  0
LINE
  8
0
 10
4.0348
 20
-38.3885
 11
2.15587
 21
-38.5364
  0
LINE
  8
0
 10
2.15587
 20
-38.5364
 11
0.271773
 21
-38.5858
  0
LINE
  8
0
 10
0.271773
 20
-38.5858
 11
-0.271773
 21
-38.5858
  0
LINE
  8
0
 10
-0.386271
 20
21.4112
 11
-0.734731
 21
21.5887
  0
LINE
  8
0
 10
-0.734731
 20
21.5887
 11
-1.01127
 21
21.8653
  0
LINE
  8
0
 10
-1.01127
 20
21.8653
 11
-1.18882
 21
22.2137
  0
LINE
  8
0
 10
-1.18882
 20
22.2137
 11
-1.25
 21
22.6
  0
LINE
  8
0
 10
-1.25
 20
22.6
 11
-1.18882
 21
22.9863
  0
LINE
  8
0
 10
-1.18882
 20
22.9863
 11
-1.01127
 21
23.3347
  0
LINE
  8
0
 10
-1.01127
 20
23.3347
 11
-0.734731
 21
23.6113
  0
LINE
  8
0
 10
-0.734731
 20
23.6113
 11
-0.386271
 21
23.7888
  0
LINE
  8
0
 10
-0.386271
 20
23.7888
 11
0
 21
23.85
  0
LINE
  8
0
 10
0
 20
23.85
 11
0.386271
 21
23.7888
  0
LINE
  8
0
 10
0.386271
 20
23.7888
 11
0.734731
 21
23.6113
  0
LINE
  8
0
 10
0.734731
 20
23.6113
 11
1.01127
 21
23.3347
  0
LINE
  8
0
 10
1.01127
 20
23.3347
 11
1.18882
 21
22.9863
  0
LINE
  8
0
 10
1.18882
 20
22.9863
 11
1.25
 21
22.6
  0
LINE
  8
0
 10
1.25
 20
22.6
 11
1.18882
 21
22.2137
  0
LINE
  8
0
 10
1.18882
 20
22.2137
 11
1.01127
 21
21.8653
  0
LINE
  8
0
 10
1.01127
 20
21.8653
 11
0.734731
 21
21.5887
  0
LINE
  8
0
 10
0.734731
 20
21.5887
 11
0.386271
 21
21.4112
  0
LINE
  8
0
 10
0.386271
 20
21.4112
 11
0
 21
21.35
  0
LINE
  8
0
 10
0
 20
21.35
 11
-0.386271
 21
21.4112
  0
LINE
  8
0
 10
-8.38106
 20
17.872
 11
-8.50375
 21
17.8981
  0
LINE
  8
0
 10
-8.50375
 20
17.8981
 11
-8.61834
 21
17.9491
  0
LINE
  8
0
 10
-8.61834
 20
17.9491
 11
-8.71982
 21
18.0229
  0
LINE
  8
0
 10
-8.71982
 20
18.0229
 11
-8.80375
 21
18.1161
  0
LINE
  8
0
 10
-8.80375
 20
18.1161
 11
-8.86647
 21
18.2247
  0
LINE
  8
0
 10
-8.86647
 20
18.2247
 11
-9.89253
 21
21.0438
  0
LINE
  8
0
 10
-9.89253
 20
21.0438
 11
-9.93129
 21
21.1631
  0
LINE
  8
0
 10
-9.93129
 20
21.1631
 11
-9.94441
 21
21.2878
  0
LINE
  8
0
 10
-9.94441
 20
21.2878
 11
-9.93129
 21
21.4126
  0
LINE
  8
0
 10
-9.93129
 20
21.4126
 11
-9.89253
 21
21.5319
  0
LINE
  8
0
 10
-9.89253
 20
21.5319
 11
-9.82982
 21
21.6405
  0
LINE
  8
0
 10
-9.82982
 20
21.6405
 11
-9.74588
 21
21.7337
  0
LINE
  8
0
 10
-9.74588
 20
21.7337
 11
-9.64441
 21
21.8075
  0
LINE
  8
0
 10
-9.64441
 20
21.8075
 11
-9.52982
 21
21.8585
  0
LINE
  8
0
 10
-9.52982
 20
21.8585
 11
-6.71074
 21
22.8845
  0
LINE
  8
0
 10
-6.71074
 20
22.8845
 11
-6.58804
 21
22.9106
  0
LINE
  8
0
 10
-6.58804
 20
22.9106
 11
-6.46261
 21
22.9106
  0
LINE
  8
0
 10
-6.46261
 20
22.9106
 11
-6.33992
 21
22.8845
  0
LINE
  8
0
 10
-6.33992
 20
22.8845
 11
-6.22533
 21
22.8335
  0
LINE
  8
0
 10
-6.22533
 20
22.8335
 11
-6.12385
 21
22.7598
  0
LINE
  8
0
 10
-6.12385
 20
22.7598
 11
-6.03992
 21
22.6666
  0
LINE
  8
0
 10
-6.03992
 20
22.6666
 11
-5.9772
 21
22.5579
  0
LINE
  8
0
 10
-5.9772
 20
22.5579
 11
-4.95114
 21
19.7389
  0
LINE
  8
0
 10
-4.95114
 20
19.7389
 11
-4.91238
 21
19.6196
  0
LINE
  8
0
 10
-4.91238
 20
19.6196
 11
-4.89927
 21
19.4948
  0
LINE
  8
0
 10
-4.89927
 20
19.4948
 11
-4.91238
 21
19.3701
  0
LINE
  8
0
 10
-4.91238
 20
19.3701
 11
-4.95114
 21
19.2508
  0
LINE
  8
0
 10
-4.95114
 20
19.2508
 11
-5.01386
 21
19.1422
  0
LINE
  8
0
 10
-5.01386
 20
19.1422
 11
-5.09779
 21
19.0489
  0
LINE
  8
0
 10
-5.09779
 20
19.0489
 11
-5.19927
 21
18.9752
  0
LINE
  8
0
 10
-5.19927
 20
18.9752
 11
-5.31386
 21
18.9242
  0
LINE
  8
0
 10
-5.31386
 20
18.9242
 11
-8.13294
 21
17.8981
  0
LINE
  8
0
 10
-8.13294
 20
17.8981
 11
-8.25563
 21
17.872
  0
LINE
  8
0
 10
-8.25563
 20
17.872
 11
-8.38106
 21
17.872
  0
LINE
  8
0
 10
-6.67096
 20
13.1736
 11
-6.79365
 21
13.1997
  0
LINE
  8
0
 10
-6.79365
 20
13.1997
 11
-6.90824
 21
13.2507
  0
LINE
  8
0
 10
-6.90824
 20
13.2507
 11
-7.00972
 21
13.3244
  0
LINE
  8
0
 10
-7.00972
 20
13.3244
 11
-7.09365
 21
13.4176
  0
LINE
  8
0
 10
-7.09365
 20
13.4176
 11
-7.15637
 21
13.5263
  0
LINE
  8
0
 10
-7.15637
 20
13.5263
 11
-8.18243
 21
16.3453
  0
LINE
  8
0
 10
-8.18243
 20
16.3453
 11
-8.22119
 21
16.4646
  0
LINE
  8
0
 10
-8.22119
 20
16.4646
 11
-8.2343
 21
16.5894
  0
LINE
  8
0
 10
-8.2343
 20
16.5894
 11
-8.22119
 21
16.7141
  0
LINE
  8
0
 10
-8.22119
 20
16.7141
 11
-8.18243
 21
16.8334
  0
LINE
  8
0
 10
-8.18243
 20
16.8334
 11
-8.11971
 21
16.942
  0
LINE
  8
0
 10
-8.11971
 20
16.942
 11
-8.03578
 21
17.0353
  0
LINE
  8
0
 10
-8.03578
 20
17.0353
 11
-7.9343
 21
17.109
  0
LINE
  8
0
 10
-7.9343
 20
17.109
 11
-7.81971
 21
17.16
  0
LINE
  8
0
 10
-7.81971
 20
17.16
 11
-5.00064
 21
18.1861
  0
LINE
  8
0
 10
-5.00064
 20
18.1861
 11
-4.87794
 21
18.2121
  0
LINE
  8
0
 10
-4.87794
 20
18.2121
 11
-4.75251
 21
18.2121
  0
LINE
  8
0
 10
-4.75251
 20
18.2121
 11
-4.62982
 21
18.1861
  0
LINE
  8
0
 10
-4.62982
 20
18.1861
 11
-4.51523
 21
18.1351
  0
LINE
  8
0
 10
-4.51523
 20
18.1351
 11
-4.41375
 21
18.0613
  0
LINE
  8
0
 10
-4.41375
 20
18.0613
 11
-4.32982
 21
17.9681
  0
LINE
  8
0
 10
-4.32982
 20
17.9681
 11
-4.2671
 21
17.8595
  0
LINE
  8
0
 10
-4.2671
 20
17.8595
 11
-3.24104
 21
15.0404
  0
LINE
  8
0
 10
-3.24104
 20
15.0404
 11
-3.20228
 21
14.9211
  0
LINE
  8
0
 10
-3.20228
 20
14.9211
 11
-3.18917
 21
14.7964
  0
LINE
  8
0
 10
-3.18917
 20
14.7964
 11
-3.20228
 21
14.6716
  0
LINE
  8
0
 10
-3.20228
 20
14.6716
 11
-3.24104
 21
14.5523
  0
LINE
  8
0
 10
-3.24104
 20
14.5523
 11
-3.30376
 21
14.4437
  0
LINE
  8
0
 10
-3.30376
 20
14.4437
 11
-3.38769
 21
14.3505
  0
LINE
  8
0
 10
-3.38769
 20
14.3505
 11
-3.48917
 21
14.2767
  0
LINE
  8
0
 10
-3.48917
 20
14.2767
 11
-3.60376
 21
14.2257
  0
LINE
  8
0
 10
-3.60376
 20
14.2257
 11
-6.42284
 21
13.1997
  0
LINE
  8
0
 10
-6.42284
 20
13.1997
 11
-6.54553
 21
13.1736
  0
LINE
  8
0
 10
-6.54553
 20
13.1736
 11
-6.67096
 21
13.1736
  0
LINE
  8
0
 10
-14.2863
 20
5.81118
 11
-14.6347
 21
5.98873
  0
LINE
  8
0
 10
-14.6347
 20
5.98873
 11
-14.9113
 21
6.26527
  0
LINE
  8
0
 10
-14.9113
 20
6.26527
 11
-15.0888
 21
6.61373
  0
LINE
  8
0
 10
-15.0888
 20
6.61373
 11
-15.15
 21
7
  0
LINE
  8
0
 10
-15.15
 20
7
 11
-15.0888
 21
7.38627
  0
LINE
  8
0
 10
-15.0888
 20
7.38627
 11
-14.9113
 21
7.73473
  0
LINE
  8
0
 10
-14.9113
 20
7.73473
 11
-14.6347
 21
8.01127
  0
LINE
  8
0
 10
-14.6347
 20
8.01127
 11
-14.2863
 21
8.18882
  0
LINE
  8
0
 10
-14.2863
 20
8.18882
 11
-13.9
 21
8.25
  0
LINE
  8
0
 10
-13.9
 20
8.25
 11
-13.5137
 21
8.18882
  0
LINE
  8
0
 10
-13.5137
 20
8.18882
 11
-13.1653
 21
8.01127
  0
LINE
  8
0
 10
-13.1653
 20
8.01127
 11
-12.8887
 21
7.73473
  0
LINE
  8
0
 10
-12.8887
 20
7.73473
 11
-12.7112
 21
7.38627
  0
LINE
  8
0
 10
-12.7112
 20
7.38627
 11
-12.65
 21
7
  0
LINE
  8
0
 10
-12.65
 20
7
 11
-12.7112
 21
6.61373
  0
LINE
  8
0
 10
-12.7112
 20
6.61373
 11
-12.8887
 21
6.26527
  0
LINE
  8
0
 10
-12.8887
 20
6.26527
 11
-13.1653
 21
5.98873
  0
LINE
  8
0
 10
-13.1653
 20
5.98873
 11
-13.5137
 21
5.81118
  0
LINE
  8
0
 10
-13.5137
 20
5.81118
 11
-13.9
 21
5.75
  0
LINE
  8
0
 10
-13.9
 20
5.75
 11
-14.2863
 21
5.81118
  0
LINE
  8
0
 10
13.5137
 20
5.81118
 11
13.1653
 21
5.98873
  0
LINE
  8
0
 10
13.1653
 20
5.98873
 11
12.8887
 21
6.26527
  0
LINE
  8
0
 10
12.8887
 20
6.26527
 11
12.7112
 21
6.61373
  0
LINE
  8
0
 10
12.7112
 20
6.61373
 11
12.65
 21
7
  0
LINE
  8
0
 10
12.65
 20
7
 11
12.7112
 21
7.38627
  0
LINE
  8
0
 10
12.7112
 20
7.38627
 11
12.8887
 21
7.73473
  0
LINE
  8
0
 10
12.8887
 20
7.73473
 11
13.1653
 21
8.01127
  0
LINE
  8
0
 10
13.1653
 20
8.01127
 11
13.5137
 21
8.18882
  0
LINE
  8
0
 10
13.5137
 20
8.18882
 11
13.9
 21
8.25
  0
LINE
  8
0
 10
13.9
 20
8.25
 11
14.2863
 21
8.18882
  0
LINE
  8
0
 10
14.2863
 20
8.18882
 11
14.6347
 21
8.01127
  0
LINE
  8
0
 10
14.6347
 20
8.01127
 11
14.9113
 21
7.73473
  0
LINE
  8
0
 10
14.9113
 20
7.73473
 11
15.0888
 21
7.38627
  0
LINE
  8
0
 10
15.0888
 20
7.38627
 11
15.15
 21
7
  0
LINE
  8
0
 10
15.15
 20
7
 11
15.0888
 21
6.61373
  0
LINE
  8
0
 10
15.0888
 20
6.61373
 11
14.9113
 21
6.26527
  0
LINE
  8
0
 10
14.9113
 20
6.26527
 11
14.6347
 21
5.98873
  0
LINE
  8
0
 10
14.6347
 20
5.98873
 11
14.2863
 21
5.81118
  0
LINE
  8
0
 10
14.2863
 20
5.81118
 11
13.9
 21
5.75
  0
LINE
  8
0
 10
13.9
 20
5.75
 11
13.5137
 21
5.81118
  0
LINE
  8
0
 10
-0.421304
 20
-8.03897
 11
-0.841454
 21
-8.0059
  0
LINE
  8
0
 10
-0.841454
 20
-8.0059
 11
-1.2593
 21
-7.95089
  0
LINE
  8
0
 10
-1.2593
 20
-7.95089
 11
-1.67369
 21
-7.87409
  0
LINE
  8
0
 10
-1.67369
 20
-7.87409
 11
-2.08349
 21
-7.7757
  0
LINE
  8
0
 10
-2.08349
 20
-7.7757
 11
-2.48759
 21
-7.656
  0
LINE
  8
0
 10
-2.48759
 20
-7.656
 11
-2.88486
 21
-7.51532
  0
LINE
  8
0
 10
-2.88486
 20
-7.51532
 11
-3.27423
 21
-7.35404
  0
LINE
  8
0
 10
-3.27423
 20
-7.35404
 11
-3.65462
 21
-7.1726
  0
LINE
  8
0
 10
-3.65462
 20
-7.1726
 11
-4.025
 21
-6.9715
  0
LINE
  8
0
 10
-4.025
 20
-6.9715
 11
-4.38434
 21
-6.7513
  0
LINE
  8
0
 10
-4.38434
 20
-6.7513
 11
-4.73167
 21
-6.51259
  0
LINE
  8
0
 10
-4.73167
 20
-6.51259
 11
-5.06603
 21
-6.25602
  0
LINE
  8
0
 10
-5.06603
 20
-6.25602
 11
-5.3865
 21
-5.98232
  0
LINE
  8
0
 10
-5.3865
 20
-5.98232
 11
-5.69221
 21
-5.69221
  0
LINE
  8
0
 10
-5.69221
 20
-5.69221
 11
-5.98232
 21
-5.3865
  0
LINE
  8
0
 10
-5.98232
 20
-5.3865
 11
-6.25602
 21
-5.06603
  0
LINE
  8
0
 10
-6.25602
 20
-5.06603
 11
-6.51259
 21
-4.73167
  0
LINE
  8
0
 10
-6.51259
 20
-4.73167
 11
-6.7513
 21
-4.38434
  0
LINE
  8
0
 10
-6.7513
 20
-4.38434
 11
-6.9715
 21
-4.025
  0
LINE
  8
0
 10
-6.9715
 20
-4.025
 11
-7.1726
 21
-3.65462
  0
LINE
  8
0
 10
-7.1726
 20
-3.65462
 11
-7.35404
 21
-3.27423
  0
LINE
  8
0
 10
-7.35404
 20
-3.27423
 11
-7.51532
 21
-2.88486
  0
LINE
  8
0
 10
-7.51532
 20
-2.88486
 11
-7.656
 21
-2.48759
  0
LINE
  8
0
 10
-7.656
 20
-2.48759
 11
-7.7757
 21
-2.08349
  0
LINE
  8
0
 10
-7.7757
 20
-2.08349
 11
-7.87409
 21
-1.67369
  0
LINE
  8
0
 10
-7.87409
 20
-1.67369
 11
-7.95089
 21
-1.2593
  0
LINE
  8
0
 10
-7.95089
 20
-1.2593
 11
-8.0059
 21
-0.841454
  0
LINE
  8
0
 10
-8.0059
 20
-0.841454
 11
-8.03897
 21
-0.421304
  0
LINE
  8
0
 10
-8.03897
 20
-0.421304
 11
-8.05
 21
0
  0
LINE
  8
0
 10
-8.05
 20
0
 11
-8.03897
 21
0.421304
  0
LINE
  8
0
 10
-8.03897
 20
0.421304
 11
-8.0059
 21
0.841454
  0
LINE
  8
0
 10
-8.0059
 20
0.841454
 11
-7.95089
 21
1.2593
  0
LINE
  8
0
 10
-7.95089
 20
1.2593
 11
-7.87409
 21
1.67369
  0
LINE
  8
0
 10
-7.87409
 20
1.67369
 11
-7.7757
 21
2.08349
  0
LINE
  8
0
 10
-7.7757
 20
2.08349
 11
-7.656
 21
2.48759
  0
LINE
  8
0
 10
-7.656
 20
2.48759
 11
-7.51532
 21
2.88486
  0
LINE
  8
0
 10
-7.51532
 20
2.88486
 11
-7.35404
 21
3.27423
  0
LINE
  8
0
 10
-7.35404
 20
3.27423
 11
-7.1726
 21
3.65462
  0
LINE
  8
0
 10
-7.1726
 20
3.65462
 11
-6.9715
 21
4.025
  0
LINE
  8
0
 10
-6.9715
 20
4.025
 11
-6.7513
 21
4.38434
  0
LINE
  8
0
 10
-6.7513
 20
4.38434
 11
-6.51259
 21
4.73167
  0
LINE
  8
0
 10
-6.51259
 20
4.73167
 11
-6.25602
 21
5.06603
  0
LINE
  8
0
 10
-6.25602
 20
5.06603
 11
-5.98232
 21
5.3865
  0
LINE
  8
0
 10
-5.98232
 20
5.3865
 11
-5.69221
 21
5.69221
  0
LINE
  8
0
 10
-5.69221
 20
5.69221
 11
-5.3865
 21
5.98232
  0
LINE
  8
0
 10
-5.3865
 20
5.98232
 11
-5.06603
 21
6.25602
  0
LINE
  8
0
 10
-5.06603
 20
6.25602
 11
-4.73167
 21
6.51259
  0
LINE
  8
0
 10
-4.73167
 20
6.51259
 11
-4.38434
 21
6.7513
  0
LINE
  8
0
 10
-4.38434
 20
6.7513
 11
-4.025
 21
6.9715
  0
LINE
  8
0
 10
-4.025
 20
6.9715
 11
-3.65462
 21
7.1726
  0
LINE
  8
0
 10
-3.65462
 20
7.1726
 11
-3.27423
 21
7.35404
  0
LINE
  8
0
 10
-3.27423
 20
7.35404
 11
-2.88486
 21
7.51532
  0
LINE
  8
0
 10
-2.88486
 20
7.51532
 11
-2.48759
 21
7.656
  0
LINE
  8
0
 10
-2.48759
 20
7.656
 11
-2.08349
 21
7.7757
  0
LINE
  8
0
 10
-2.08349
 20
7.7757
 11
-1.67369
 21
7.87409
  0
LINE
  8
0
 10
-1.67369
 20
7.87409
 11
-1.2593
 21
7.95089
  0
LINE
  8
0
 10
-1.2593
 20
7.95089
 11
-0.841454
 21
8.0059
  0
LINE
  8
0
 10
-0.841454
 20
8.0059
 11
-0.421304
 21
8.03897
  0
LINE
  8
0
 10
-0.421304
 20
8.03897
 11
0
 21
8.05
  0
LINE
  8
0
 10
0
 20
8.05
 11
0.421304
 21
8.03897
  0
LINE
  8
0
 10
0.421304
 20
8.03897
 11
0.841454
 21
8.0059
  0
LINE
  8
0
 10
0.841454
 20
8.0059
 11
1.2593
 21
7.95089
  0
LINE
  8
0
 10
1.2593
 20
7.95089
 11
1.67369
 21
7.87409
  0
LINE
  8
0
 10
1.67369
 20
7.87409
 11
2.08349
 21
7.7757
  0
LINE
  8
0
 10
2.08349
 20
7.7757
 11
2.48759
 21
7.656
  0
LINE
  8
0
 10
2.48759
 20
7.656
 11
2.88486
 21
7.51532
  0
LINE
  8
0
 10
2.88486
 20
7.51532
 11
3.27423
 21
7.35404
  0
LINE
  8
0
 10
3.27423
 20
7.35404
 11
3.65462
 21
7.1726
  0
LINE
  8
0
 10
3.65462
 20
7.1726
 11
4.025
 21
6.9715
  0
LINE
  8
0
 10
4.025
 20
6.9715
 11
4.38434
 21
6.7513
  0
LINE
  8
0
 10
4.38434
 20
6.7513
 11
4.73167
 21
6.51259
  0
LINE
  8
0
 10
4.73167
 20
6.51259
 11
5.06603
 21
6.25602
  0
LINE
  8
0
 10
5.06603
 20
6.25602
 11
5.3865
 21
5.98232
  0
LINE
  8
0
 10
5.3865
 20
5.98232
 11
5.69221
 21
5.69221
  0
LINE
  8
0
 10
5.69221
 20
5.69221
 11
5.98232
 21
5.3865
  0
LINE
  8
0
 10
5.98232
 20
5.3865
 11
6.25602
 21
5.06603
  0
LINE
  8
0
 10
6.25602
 20
5.06603
 11
6.51259
 21
4.73167
  0
LINE
  8
0
 10
6.51259
 20
4.73167
 11
6.7513
 21
4.38434
  0
LINE
  8
0
 10
6.7513
 20
4.38434
 11
6.9715
 21
4.025
  0
LINE
  8
0
 10
6.9715
 20
4.025
 11
7.1726
 21
3.65462
  0
LINE
  8
0
 10
7.1726
 20
3.65462
 11
7.35404
 21
3.27423
  0
LINE
  8
0
 10
7.35404
 20
3.27423
 11
7.51532
 21
2.88486
  0
LINE
  8
0
 10
7.51532
 20
2.88486
 11
7.656
 21
2.48759
  0
LINE
  8
0
 10
7.656
 20
2.48759
 11
7.7757
 21
2.08349
  0
LINE
  8
0
 10
7.7757
 20
2.08349
 11
7.87409
 21
1.67369
  0
LINE
  8
0
 10
7.87409
 20
1.67369
 11
7.95089
 21
1.2593
  0
LINE
  8
0
 10
7.95089
 20
1.2593
 11
8.0059
 21
0.841454
  0
LINE
  8
0
 10
8.0059
 20
0.841454
 11
8.03897
 21
0.421304
  0
LINE
  8
0
 10
8.03897
 20
0.421304
 11
8.05
 21
0
  0
LINE
  8
0
 10
8.05
 20
0
 11
8.03897
 21
-0.421304
  0
LINE
  8
0
 10
8.03897
 20
-0.421304
 11
8.0059
 21
-0.841454
  0
LINE
  8
0
 10
8.0059
 20
-0.841454
 11
7.95089
 21
-1.2593
  0
LINE
  8
0
 10
7.95089
 20
-1.2593
 11
7.87409
 21
-1.67369
  0
LINE
  8
0
 10
7.87409
 20
-1.67369
 11
7.7757
 21
-2.08349
  0
LINE
  8
0
 10
7.7757
 20
-2.08349
 11
7.656
 21
-2.48759
  0
LINE
  8
0
 10
7.656
 20
-2.48759
 11
7.51532
 21
-2.88486
  0
LINE
  8
0
 10
7.51532
 20
-2.88486
 11
7.35404
 21
-3.27423
  0
LINE
  8
0
 10
7.35404
 20
-3.27423
 11
7.1726
 21
-3.65462
  0
LINE
  8
0
 10
7.1726
 20
-3.65462
 11
6.9715
 21
-4.025
  0
LINE
  8
0
 10
6.9715
 20
-4.025
 11
6.7513
 21
-4.38434
  0
LINE
  8
0
 10
6.7513
 20
-4.38434
 11
6.51259
 21
-4.73167
  0
LINE
  8
0
 10
6.51259
 20
-4.73167
 11
6.25602
 21
-5.06603
  0
LINE
  8
0
 10
6.25602
 20
-5.06603
 11
5.98232
 21
-5.3865
  0
LINE
  8
0
 10
5.98232
 20
-5.3865
 11
5.69221
 21
-5.69221
  0
LINE
  8
0
 10
5.69221
 20
-5.69221
 11
5.3865
 21
-5.98232
  0
LINE
  8
0
 10
5.3865
 20
-5.98232
 11
5.06603
 21
-6.25602
  0
LINE
  8
0
 10
5.06603
 20
-6.25602
 11
4.73167
 21
-6.51259
  0
LINE
  8
0
 10
4.73167
 20
-6.51259
 11
4.38434
 21
-6.7513
  0
LINE
  8
0
 10
4.38434
 20
-6.7513
 11
4.025
 21
-6.9715
  0
LINE
  8
0
 10
4.025
 20
-6.9715
 11
3.65462
 21
-7.1726
  0
LINE
  8
0
 10
3.65462
 20
-7.1726
 11
3.27423
 21
-7.35404
  0
LINE
  8
0
 10
3.27423
 20
-7.35404
 11
2.88486
 21
-7.51532
  0
LINE
  8
0
 10
2.88486
 20
-7.51532
 11
2.48759
 21
-7.656
  0
LINE
  8
0
 10
2.48759
 20
-7.656
 11
2.08349
 21
-7.7757
  0
LINE
  8
0
 10
2.08349
 20
-7.7757
 11
1.67369
 21
-7.87409
  0
LINE
  8
0
 10
1.67369
 20
-7.87409
 11
1.2593
 21
-7.95089
  0
LINE
  8
0
 10
1.2593
 20
-7.95089
 11
0.841454
 21
-8.0059
  0
LINE
  8
0
 10
0.841454
 20
-8.0059
 11
0.421304
 21
-8.03897
  0
LINE
  8
0
 10
0.421304
 20
-8.03897
 11
0
 21
-8.05
  0
LINE
  8
0
 10
0
 20
-8.05
 11
-0.421304
 21
-8.03897
  0
ENDSEC
  0
SECTION
  2
OBJECTS
  0
DICTIONARY
  0
ENDSEC
  0
EOF
