  0
SECTION
  2
BLOCKS
  0
ENDSEC
  0
SECTION
  2
ENTITIES
  0
LINE
  8
0
 10
2.09344
 20
-39.9452
 11
4.18114
 21
-39.7809
  0
LINE
  8
0
 10
4.18114
 20
-39.7809
 11
6.25738
 21
-39.5075
  0
LINE
  8
0
 10
6.25738
 20
-39.5075
 11
8.31647
 21
-39.1259
  0
LINE
  8
0
 10
8.31647
 20
-39.1259
 11
10.3528
 21
-38.637
  0
LINE
  8
0
 10
10.3528
 20
-38.637
 11
12.3607
 21
-38.0423
  0
LINE
  8
0
 10
12.3607
 20
-38.0423
 11
14.3347
 21
-37.3432
  0
LINE
  8
0
 10
14.3347
 20
-37.3432
 11
16.2695
 21
-36.5418
  0
LINE
  8
0
 10
16.2695
 20
-36.5418
 11
18.1596
 21
-35.6403
  0
LINE
  8
0
 10
18.1596
 20
-35.6403
 11
20
 21
-34.641
  0
LINE
  8
0
 10
20
 20
-34.641
 11
21.7856
 21
-33.5468
  0
LINE
  8
0
 10
21.7856
 20
-33.5468
 11
23.5114
 21
-32.3607
  0
LINE
  8
0
 10
23.5114
 20
-32.3607
 11
25.1728
 21
-31.0858
  0
LINE
  8
0
 10
25.1728
 20
-31.0858
 11
26.7652
 21
-29.7258
  0
LINE
  8
0
 10
26.7652
 20
-29.7258
 11
28.2843
 21
-28.2843
  0
LINE
  8
0
 10
28.2843
 20
-28.2843
 11
29.7258
 21
-26.7652
  0
LINE
  8
0
 10
29.7258
 20
-26.7652
 11
31.0858
 21
-25.1728
  0
LINE
  8
0
 10
31.0858
 20
-25.1728
 11
32.3607
 21
-23.5114
  0
LINE
  8
0
 10
32.3607
 20
-23.5114
 11
33.5468
 21
-21.7856
  0
LINE
  8
0
 10
33.5468
 20
-21.7856
 11
34.641
 21
-20
  0
LINE
  8
0
 10
34.641
 20
-20
 11
35.6403
 21
-18.1596
  0
LINE
  8
0
 10
35.6403
 20
-18.1596
 11
36.5418
 21
-16.2695
  0
LINE
  8
0
 10
36.5418
 20
-16.2695
 11
37.3432
 21
-14.3347
  0
LINE
  8
0
 10
37.3432
 20
-14.3347
 11
38.0423
 21
-12.3607
  0
LINE
  8
0
 10
38.0423
 20
-12.3607
 11
38.637
 21
-10.3528
  0
LINE
  8
0
 10
38.637
 20
-10.3528
 11
39.1259
 21
-8.31647
  0
LINE
  8
0
 10
39.1259
 20
-8.31647
 11
39.5075
 21
-6.25738
  0
LINE
  8
0
 10
39.5075
 20
-6.25738
 11
39.7809
 21
-4.18114
  0
LINE
  8
0
 10
39.7809
 20
-4.18114
 11
39.9452
 21
-2.09344
  0
LINE
  8
0
 10
39.9452
 20
-2.09344
 11
40
 21
0
  0
LINE
  8
0
 10
40
 20
0
 11
39.9452
 21
2.09344
  0
LINE
  8
0
 10
39.9452
 20
2.09344
 11
39.7809
 21
4.18114
  0
LINE
  8
0
 10
39.7809
 20
4.18114
 11
39.5075
 21
6.25738
  0
LINE
  8
0
 10
39.5075
 20
6.25738
 11
39.1259
 21
8.31647
  0
LINE
  8
0
 10
39.1259
 20
8.31647
 11
38.637
 21
10.3528
  0
LINE
  8
0
 10
38.637
 20
10.3528
 11
38.0423
 21
12.3607
  0
LINE
  8
0
 10
38.0423
 20
12.3607
 11
37.3432
 21
14.3347
  0
LINE
  8
0
 10
37.3432
 20
14.3347
 11
36.5418
 21
16.2695
  0
LINE
  8
0
 10
36.5418
 20
16.2695
 11
35.6403
 21
18.1596
  0
LINE
  8
0
 10
35.6403
 20
18.1596
 11
34.641
 21
20
  0
LINE
  8
0
 10
34.641
 20
20
 11
33.5468
 21
21.7856
  0
LINE
  8
0
 10
33.5468
 20
21.7856
 11
32.3607
 21
23.5114
  0
LINE
  8
0
 10
32.3607
 20
23.5114
 11
31.0858
 21
25.1728
  0
LINE
  8
0
 10
31.0858
 20
25.1728
 11
29.7258
 21
26.7652
  0
LINE
  8
0
 10
29.7258
 20
26.7652
 11
28.2843
 21
28.2843
  0
LINE
  8
0
 10
28.2843
 20
28.2843
 11
26.7652
 21
29.7258
  0
LINE
  8
0
 10
26.7652
 20
29.7258
 11
25.1728
 21
31.0858
  0
LINE
  8
0
 10
25.1728
 20
31.0858
 11
23.5114
 21
32.3607
  0
LINE
  8
0
 10
23.5114
 20
32.3607
 11
21.7856
 21
33.5468
  0
LINE
  8
0
 10
21.7856
 20
33.5468
 11
20
 21
34.641
  0
LINE
  8
0
 10
20
 20
34.641
 11
18.1596
 21
35.6403
  0
LINE
  8
0
 10
18.1596
 20
35.6403
 11
16.2695
 21
36.5418
  0
LINE
  8
0
 10
16.2695
 20
36.5418
 11
14.3347
 21
37.3432
  0
LINE
  8
0
 10
14.3347
 20
37.3432
 11
12.3607
 21
38.0423
  0
LINE
  8
0
 10
12.3607
 20
38.0423
 11
10.3528
 21
38.637
  0
LINE
  8
0
 10
10.3528
 20
38.637
 11
8.31647
 21
39.1259
  0
LINE
  8
0
 10
8.31647
 20
39.1259
 11
6.25738
 21
39.5075
  0
LINE
  8
0
 10
6.25738
 20
39.5075
 11
4.18114
 21
39.7809
  0
LINE
  8
0
 10
4.18114
 20
39.7809
 11
2.09344
 21
39.9452
  0
LINE
  8
0
 10
2.09344
 20
39.9452
 11
0
 21
40
  0
LINE
  8
0
 10
0
 20
40
 11
-2.09344
 21
39.9452
  0
LINE
  8
0
 10
-2.09344
 20
39.9452
 11
-4.18114
 21
39.7809
  0
LINE
  8
0
 10
-4.18114
 20
39.7809
 11
-6.25738
 21
39.5075
  0
LINE
  8
0
 10
-6.25738
 20
39.5075
 11
-8.31647
 21
39.1259
  0
LINE
  8
0
 10
-8.31647
 20
39.1259
 11
-10.3528
 21
38.637
  0
LINE
  8
0
 10
-10.3528
 20
38.637
 11
-12.3607
 21
38.0423
  0
LINE
  8
0
 10
-12.3607
 20
38.0423
 11
-14.3347
 21
37.3432
  0
LINE
  8
0
 10
-14.3347
 20
37.3432
 11
-16.2695
 21
36.5418
  0
LINE
  8
0
 10
-16.2695
 20
36.5418
 11
-18.1596
 21
35.6403
  0
LINE
  8
0
 10
-18.1596
 20
35.6403
 11
-20
 21
34.641
  0
LINE
  8
0
 10
-20
 20
34.641
 11
-21.7856
 21
33.5468
  0
LINE
  8
0
 10
-21.7856
 20
33.5468
 11
-23.5114
 21
32.3607
  0
LINE
  8
0
 10
-23.5114
 20
32.3607
 11
-25.1728
 21
31.0858
  0
LINE
  8
0
 10
-25.1728
 20
31.0858
 11
-26.7652
 21
29.7258
  0
LINE
  8
0
 10
-26.7652
 20
29.7258
 11
-28.2843
 21
28.2843
  0
LINE
  8
0
 10
-28.2843
 20
28.2843
 11
-29.7258
 21
26.7652
  0
LINE
  8
0
 10
-29.7258
 20
26.7652
 11
-31.0858
 21
25.1728
  0
LINE
  8
0
 10
-31.0858
 20
25.1728
 11
-32.3607
 21
23.5114
  0
LINE
  8
0
 10
-32.3607
 20
23.5114
 11
-33.5468
 21
21.7856
  0
LINE
  8
0
 10
-33.5468
 20
21.7856
 11
-34.641
 21
20
  0
LINE
  8
0
 10
-34.641
 20
20
 11
-35.6403
 21
18.1596
  0
LINE
  8
0
 10
-35.6403
 20
18.1596
 11
-36.5418
 21
16.2695
  0
LINE
  8
0
 10
-36.5418
 20
16.2695
 11
-37.3432
 21
14.3347
  0
LINE
  8
0
 10
-37.3432
 20
14.3347
 11
-38.0423
 21
12.3607
  0
LINE
  8
0
 10
-38.0423
 20
12.3607
 11
-38.637
 21
10.3528
  0
LINE
  8
0
 10
-38.637
 20
10.3528
 11
-39.1259
 21
8.31647
  0
LINE
  8
0
 10
-39.1259
 20
8.31647
 11
-39.5075
 21
6.25738
  0
LINE
  8
0
 10
-39.5075
 20
6.25738
 11
-39.7809
 21
4.18114
  0
LINE
  8
0
 10
-39.7809
 20
4.18114
 11
-39.9452
 21
2.09344
  0
LINE
  8
0
 10
-39.9452
 20
2.09344
 11
-40
 21
0
  0
LINE
  8
0
 10
-40
 20
0
 11
-39.9452
 21
-2.09344
  0
LINE
  8
0
 10
-39.9452
 20
-2.09344
 11
-39.7809
 21
-4.18114
  0
LINE
  8
0
 10
-39.7809
 20
-4.18114
 11
-39.5075
 21
-6.25738
  0
LINE
  8
0
 10
-39.5075
 20
-6.25738
 11
-39.1259
 21
-8.31647
  0
LINE
  8
0
 10
-39.1259
 20
-8.31647
 11
-38.637
 21
-10.3528
  0
LINE
  8
0
 10
-38.637
 20
-10.3528
 11
-38.0423
 21
-12.3607
  0
LINE
  8
0
 10
-38.0423
 20
-12.3607
 11
-37.3432
 21
-14.3347
  0
LINE
  8
0
 10
-37.3432
 20
-14.3347
 11
-36.5418
 21
-16.2695
  0
LINE
  8
0
 10
-36.5418
 20
-16.2695
 11
-35.6403
 21
-18.1596
  0
LINE
  8
0
 10
-35.6403
 20
-18.1596
 11
-34.641
 21
-20
  0
LINE
  8
0
 10
-34.641
 20
-20
 11
-33.5468
 21
-21.7856
  0
LINE
  8
0
 10
-33.5468
 20
-21.7856
 11
-32.3607
 21
-23.5114
  0
LINE
  8
0
 10
-32.3607
 20
-23.5114
 11
-31.0858
 21
-25.1728
  0
LINE
  8
0
 10
-31.0858
 20
-25.1728
 11
-29.7258
 21
-26.7652
  0
LINE
  8
0
 10
-29.7258
 20
-26.7652
 11
-28.2843
 21
-28.2843
  0
LINE
  8
0
 10
-28.2843
 20
-28.2843
 11
-26.7652
 21
-29.7258
  0
LINE
  8
0
 10
-26.7652
 20
-29.7258
 11
-25.1728
 21
-31.0858
  0
LINE
  8
0
 10
-25.1728
 20
-31.0858
 11
-23.5114
 21
-32.3607
  0
LINE
  8
0
 10
-23.5114
 20
-32.3607
 11
-21.7856
 21
-33.5468
  0
LINE
  8
0
 10
-21.7856
 20
-33.5468
 11
-20
 21
-34.641
  0
LINE
  8
0
 10
-20
 20
-34.641
 11
-18.1596
 21
-35.6403
  0
LINE
  8
0
 10
-18.1596
 20
-35.6403
 11
-16.2695
 21
-36.5418
  0
LINE
  8
0
 10
-16.2695
 20
-36.5418
 11
-14.3347
 21
-37.3432
  0
LINE
  8
0
 10
-14.3347
 20
-37.3432
 11
-12.3607
 21
-38.0423
  0
LINE
  8
0
 10
-12.3607
 20
-38.0423
 11
-10.3528
 21
-38.637
  0
LINE
  8
0
 10
-10.3528
 20
-38.637
 11
-8.31647
 21
-39.1259
  0
LINE
  8
0
 10
-8.31647
 20
-39.1259
 11
-6.25738
 21
-39.5075
  0
LINE
  8
0
 10
-6.25738
 20
-39.5075
 11
-4.18114
 21
-39.7809
  0
LINE
  8
0
 10
-4.18114
 20
-39.7809
 11
-2.09344
 21
-39.9452
  0
LINE
  8
0
 10
-2.09344
 20
-39.9452
 11
0
 21
-40
  0
LINE
  8
0
 10
0
 20
-40
 11
2.09344
 21
-39.9452
  0
LINE
  8
0
 10
-19.212
 20
18.0141
 11
-19.621
 21
18.101
  0
LINE
  8
0
 10
-19.621
 20
18.101
 11
-20.003
 21
18.2711
  0
LINE
  8
0
 10
-20.003
 20
18.2711
 11
-20.3412
 21
18.5168
  0
LINE
  8
0
 10
-20.3412
 20
18.5168
 11
-20.8235
 21
19.0245
  0
LINE
  8
0
 10
-20.8235
 20
19.0245
 11
-21.715
 21
19.9629
  0
LINE
  8
0
 10
-21.715
 20
19.9629
 11
-22.5507
 21
20.8426
  0
LINE
  8
0
 10
-22.5507
 20
20.8426
 11
-23.3282
 21
21.661
  0
LINE
  8
0
 10
-23.3282
 20
21.661
 11
-24.0454
 21
22.416
  0
LINE
  8
0
 10
-24.0454
 20
22.416
 11
-24.7005
 21
23.1055
  0
LINE
  8
0
 10
-24.7005
 20
23.1055
 11
-25.2914
 21
23.7276
  0
LINE
  8
0
 10
-25.2914
 20
23.7276
 11
-25.8167
 21
24.2805
  0
LINE
  8
0
 10
-25.8167
 20
24.2805
 11
-26.1247
 21
24.6047
  0
LINE
  8
0
 10
-26.1247
 20
24.6047
 11
-26.4045
 21
24.9155
  0
LINE
  8
0
 10
-26.4045
 20
24.9155
 11
-26.6136
 21
25.2776
  0
LINE
  8
0
 10
-26.6136
 20
25.2776
 11
-26.7428
 21
25.6752
  0
LINE
  8
0
 10
-26.7428
 20
25.6752
 11
-26.7865
 21
26.091
  0
LINE
  8
0
 10
-26.7865
 20
26.091
 11
-26.7428
 21
26.5069
  0
LINE
  8
0
 10
-26.7428
 20
26.5069
 11
-26.6136
 21
26.9045
  0
LINE
  8
0
 10
-26.6136
 20
26.9045
 11
-26.4045
 21
27.2666
  0
LINE
  8
0
 10
-26.4045
 20
27.2666
 11
-26.1247
 21
27.5773
  0
LINE
  8
0
 10
-26.1247
 20
27.5773
 11
-25.9581
 21
27.7354
  0
LINE
  8
0
 10
-25.9581
 20
27.7354
 11
-25.5257
 21
28.1458
  0
LINE
  8
0
 10
-25.5257
 20
28.1458
 11
-25.427
 21
28.2395
  0
LINE
  8
0
 10
-25.427
 20
28.2395
 11
-25.1417
 21
28.4832
  0
LINE
  8
0
 10
-25.1417
 20
28.4832
 11
-24.8334
 21
28.7465
  0
LINE
  8
0
 10
-24.8334
 20
28.7465
 11
-24.6125
 21
28.9351
  0
LINE
  8
0
 10
-24.6125
 20
28.9351
 11
-24.4798
 21
29.0485
  0
LINE
  8
0
 10
-24.4798
 20
29.0485
 11
-24.4355
 21
29.0863
  0
LINE
  8
0
 10
-24.4355
 20
29.0863
 11
-23.9938
 21
29.4635
  0
LINE
  8
0
 10
-23.9938
 20
29.4635
 11
-22.4985
 21
30.6109
  0
LINE
  8
0
 10
-22.4985
 20
30.6109
 11
-22.1603
 21
30.8567
  0
LINE
  8
0
 10
-22.1603
 20
30.8567
 11
-20.607
 21
31.9242
  0
LINE
  8
0
 10
-20.607
 20
31.9242
 11
-19
 21
32.909
  0
LINE
  8
0
 10
-19
 20
32.909
 11
-17.3437
 21
33.8083
  0
LINE
  8
0
 10
-17.3437
 20
33.8083
 11
-15.6425
 21
34.6197
  0
LINE
  8
0
 10
-15.6425
 20
34.6197
 11
-15.2606
 21
34.7897
  0
LINE
  8
0
 10
-15.2606
 20
34.7897
 11
-13.5193
 21
35.511
  0
LINE
  8
0
 10
-13.5193
 20
35.511
 11
-11.7426
 21
36.1401
  0
LINE
  8
0
 10
-11.7426
 20
36.1401
 11
-9.93552
 21
36.6754
  0
LINE
  8
0
 10
-9.93552
 20
36.6754
 11
-8.10285
 21
37.1154
  0
LINE
  8
0
 10
-8.10285
 20
37.1154
 11
-7.69388
 21
37.2024
  0
LINE
  8
0
 10
-7.69388
 20
37.2024
 11
-5.8407
 21
37.5458
  0
LINE
  8
0
 10
-5.8407
 20
37.5458
 11
-3.97208
 21
37.7918
  0
LINE
  8
0
 10
-3.97208
 20
37.7918
 11
-2.09315
 21
37.9397
  0
LINE
  8
0
 10
-2.09315
 20
37.9397
 11
-0.209057
 21
37.989
  0
LINE
  8
0
 10
-0.209057
 20
37.989
 11
0.209057
 21
37.989
  0
LINE
  8
0
 10
0.209057
 20
37.989
 11
2.09315
 21
37.9397
  0
LINE
  8
0
 10
2.09315
 20
37.9397
 11
3.97208
 21
37.7918
  0
LINE
  8
0
 10
3.97208
 20
37.7918
 11
5.8407
 21
37.5458
  0
LINE
  8
0
 10
5.8407
 20
37.5458
 11
7.69388
 21
37.2024
  0
LINE
  8
0
 10
7.69388
 20
37.2024
 11
8.10285
 21
37.1154
  0
LINE
  8
0
 10
8.10285
 20
37.1154
 11
9.93552
 21
36.6754
  0
LINE
  8
0
 10
9.93552
 20
36.6754
 11
11.7426
 21
36.1401
  0
LINE
  8
0
 10
11.7426
 20
36.1401
 11
13.5193
 21
35.511
  0
LINE
  8
0
 10
13.5193
 20
35.511
 11
15.2606
 21
34.7897
  0
LINE
  8
0
 10
15.2606
 20
34.7897
 11
15.6425
 21
34.6197
  0
LINE
  8
0
 10
15.6425
 20
34.6197
 11
17.3437
 21
33.8083
  0
LINE
  8
0
 10
17.3437
 20
33.8083
 11
19
 21
32.909
  0
LINE
  8
0
 10
19
 20
32.909
 11
20.607
 21
31.9242
  0
LINE
  8
0
 10
20.607
 20
31.9242
 11
22.1603
 21
30.8567
  0
LINE
  8
0
 10
22.1603
 20
30.8567
 11
22.4985
 21
30.6109
  0
LINE
  8
0
 10
22.4985
 20
30.6109
 11
23.9938
 21
29.4635
  0
LINE
  8
0
 10
23.9938
 20
29.4635
 11
24.4355
 21
29.0863
  0
LINE
  8
0
 10
24.4355
 20
29.0863
 11
24.4798
 21
29.0485
  0
LINE
  8
0
 10
24.4798
 20
29.0485
 11
24.6125
 21
28.9351
  0
LINE
  8
0
 10
24.6125
 20
28.9351
 11
24.8334
 21
28.7465
  0
LINE
  8
0
 10
24.8334
 20
28.7465
 11
25.1417
 21
28.4832
  0
LINE
  8
0
 10
25.1417
 20
28.4832
 11
25.427
 21
28.2395
  0
LINE
  8
0
 10
25.427
 20
28.2395
 11
25.5257
 21
28.1458
  0
LINE
  8
0
 10
25.5257
 20
28.1458
 11
25.9581
 21
27.7354
  0
LINE
  8
0
 10
25.9581
 20
27.7354
 11
26.1247
 21
27.5773
  0
LINE
  8
0
 10
26.1247
 20
27.5773
 11
26.4045
 21
27.2666
  0
LINE
  8
0
 10
26.4045
 20
27.2666
 11
26.6136
 21
26.9045
  0
LINE
  8
0
 10
26.6136
 20
26.9045
 11
26.7428
 21
26.5069
  0
LINE
  8
0
 10
26.7428
 20
26.5069
 11
26.7865
 21
26.091
  0
LINE
  8
0
 10
26.7865
 20
26.091
 11
26.7428
 21
25.6752
  0
LINE
  8
0
 10
26.7428
 20
25.6752
 11
26.6136
 21
25.2776
  0
LINE
  8
0
 10
26.6136
 20
25.2776
 11
26.4045
 21
24.9155
  0
LINE
  8
0
 10
26.4045
 20
24.9155
 11
26.1247
 21
24.6047
  0
LINE
  8
0
 10
26.1247
 20
24.6047
 11
25.8167
 21
24.2805
  0
LINE
  8
0
 10
25.8167
 20
24.2805
 11
25.2914
 21
23.7276
  0
LINE
  8
0
 10
25.2914
 20
23.7276
 11
24.7005
 21
23.1055
  0
LINE
  8
0
 10
24.7005
 20
23.1055
 11
24.0454
 21
22.416
  0
LINE
  8
0
 10
24.0454
 20
22.416
 11
23.3282
 21
21.661
  0
LINE
  8
0
 10
23.3282
 20
21.661
 11
22.5507
 21
20.8426
  0
LINE
  8
0
 10
22.5507
 20
20.8426
 11
21.715
 21
19.9629
  0
LINE
  8
0
 10
21.715
 20
19.9629
 11
20.8235
 21
19.0245
  0
LINE
  8
0
 10
20.8235
 20
19.0245
 11
20.3412
 21
18.5168
  0
LINE
  8
0
 10
20.3412
 20
18.5168
 11
20.003
 21
18.2711
  0
LINE
  8
0
 10
20.003
 20
18.2711
 11
19.621
 21
18.101
  0
LINE
  8
0
 10
19.621
 20
18.101
 11
19.212
 21
18.0141
  0
LINE
  8
0
 10
19.212
 20
18.0141
 11
18.7939
 21
18.0141
  0
LINE
  8
0
 10
18.7939
 20
18.0141
 11
18.3849
 21
18.101
  0
LINE
  8
0
 10
18.3849
 20
18.101
 11
18.003
 21
18.2711
  0
LINE
  8
0
 10
18.003
 20
18.2711
 11
17.6647
 21
18.5168
  0
LINE
  8
0
 10
17.6647
 20
18.5168
 11
17.1297
 21
19.0245
  0
LINE
  8
0
 10
17.1297
 20
19.0245
 11
16.031
 21
19.9629
  0
LINE
  8
0
 10
16.031
 20
19.9629
 11
15.0505
 21
20.7153
  0
LINE
  8
0
 10
15.0505
 20
20.7153
 11
14.032
 21
21.4153
  0
LINE
  8
0
 10
14.032
 20
21.4153
 11
12.8
 21
22.1702
  0
LINE
  8
0
 10
12.8
 20
22.1702
 11
11.5301
 21
22.8597
  0
LINE
  8
0
 10
11.5301
 20
22.8597
 11
10.4147
 21
23.3918
  0
LINE
  8
0
 10
10.4147
 20
23.3918
 11
9.27292
 21
23.8647
  0
LINE
  8
0
 10
9.27292
 20
23.8647
 11
7.91084
 21
24.347
  0
LINE
  8
0
 10
7.91084
 20
24.347
 11
6.52537
 21
24.7574
  0
LINE
  8
0
 10
6.52537
 20
24.7574
 11
5.32367
 21
25.0459
  0
LINE
  8
0
 10
5.32367
 20
25.0459
 11
4.10853
 21
25.2712
  0
LINE
  8
0
 10
4.10853
 20
25.2712
 11
2.67593
 21
25.4598
  0
LINE
  8
0
 10
2.67593
 20
25.4598
 11
1.23542
 21
25.5731
  0
LINE
  8
0
 10
1.23542
 20
25.5731
 11
0
 21
25.6055
  0
LINE
  8
0
 10
0
 20
25.6055
 11
-1.23542
 21
25.5731
  0
LINE
  8
0
 10
-1.23542
 20
25.5731
 11
-2.67593
 21
25.4598
  0
LINE
  8
0
 10
-2.67593
 20
25.4598
 11
-4.10853
 21
25.2712
  0
LINE
  8
0
 10
-4.10853
 20
25.2712
 11
-5.32367
 21
25.0459
  0
LINE
  8
0
 10
-5.32367
 20
25.0459
 11
-6.52537
 21
24.7574
  0
LINE
  8
0
 10
-6.52537
 20
24.7574
 11
-7.91084
 21
24.347
  0
LINE
  8
0
 10
-7.91084
 20
24.347
 11
-9.27292
 21
23.8647
  0
LINE
  8
0
 10
-9.27292
 20
23.8647
 11
-10.4147
 21
23.3918
  0
LINE
  8
0
 10
-10.4147
 20
23.3918
 11
-11.5301
 21
22.8597
  0
LINE
  8
0
 10
-11.5301
 20
22.8597
 11
-12.8
 21
22.1702
  0
LINE
  8
0
 10
-12.8
 20
22.1702
 11
-14.032
 21
21.4153
  0
LINE
  8
0
 10
-14.032
 20
21.4153
 11
-15.0505
 21
20.7153
  0
LINE
  8
0
 10
-15.0505
 20
20.7153
 11
-16.031
 21
19.9629
  0
LINE
  8
0
 10
-16.031
 20
19.9629
 11
-17.1297
 21
19.0245
  0
LINE
  8
0
 10
-17.1297
 20
19.0245
 11
-17.6647
 21
18.5168
  0
LINE
  8
0
 10
-17.6647
 20
18.5168
 11
-18.003
 21
18.2711
  0
LINE
  8
0
 10
-18.003
 20
18.2711
 11
-18.3849
 21
18.101
  0
LINE
  8
0
 10
-18.3849
 20
18.101
 11
-18.7939
 21
18.0141
  0
LINE
  8
0
 10
-18.7939
 20
18.0141
 11
-19.212
 21
18.0141
  0
LINE
  8
0
 10
-3.2359
 20
19.4933
 11
-3.53083
 21
19.5978
  0
LINE
  8
0
 10
-3.53083
 20
19.5978
 11
-3.77904
 21
19.7882
  0
LINE
  8
0
 10
-3.77904
 20
19.7882
 11
-3.95625
 21
20.0461
  0
LINE
  8
0
 10
-3.95625
 20
20.0461
 11
-4.04511
 21
20.3461
  0
LINE
  8
0
 10
-4.04511
 20
20.3461
 11
-4.44983
 21
22.31
  0
LINE
  8
0
 10
-4.44983
 20
22.31
 11
-4.44164
 21
22.6228
  0
LINE
  8
0
 10
-4.44164
 20
22.6228
 11
-4.3372
 21
22.9177
  0
LINE
  8
0
 10
-4.3372
 20
22.9177
 11
-4.14674
 21
23.1659
  0
LINE
  8
0
 10
-4.14674
 20
23.1659
 11
-3.88889
 21
23.3432
  0
LINE
  8
0
 10
-3.88889
 20
23.3432
 11
-3.58891
 21
23.432
  0
LINE
  8
0
 10
-3.58891
 20
23.432
 11
-2.59803
 21
23.5625
  0
LINE
  8
0
 10
-2.59803
 20
23.5625
 11
-2.28527
 21
23.5543
  0
LINE
  8
0
 10
-2.28527
 20
23.5543
 11
-1.99035
 21
23.4498
  0
LINE
  8
0
 10
-1.99035
 20
23.4498
 11
-1.74213
 21
23.2594
  0
LINE
  8
0
 10
-1.74213
 20
23.2594
 11
-1.56492
 21
23.0015
  0
LINE
  8
0
 10
-1.56492
 20
23.0015
 11
-1.47606
 21
22.7015
  0
LINE
  8
0
 10
-1.47606
 20
22.7015
 11
-1.35867
 21
20.6997
  0
LINE
  8
0
 10
-1.35867
 20
20.6997
 11
-1.36686
 21
20.387
  0
LINE
  8
0
 10
-1.36686
 20
20.387
 11
-1.4713
 21
20.0921
  0
LINE
  8
0
 10
-1.4713
 20
20.0921
 11
-1.66176
 21
19.8438
  0
LINE
  8
0
 10
-1.66176
 20
19.8438
 11
-1.9196
 21
19.6666
  0
LINE
  8
0
 10
-1.9196
 20
19.6666
 11
-2.21959
 21
19.5778
  0
LINE
  8
0
 10
-2.21959
 20
19.5778
 11
-2.92314
 21
19.4852
  0
LINE
  8
0
 10
-2.92314
 20
19.4852
 11
-3.2359
 21
19.4933
  0
LINE
  8
0
 10
2.21959
 20
19.5778
 11
1.9196
 21
19.6666
  0
LINE
  8
0
 10
1.9196
 20
19.6666
 11
1.66176
 21
19.8438
  0
LINE
  8
0
 10
1.66176
 20
19.8438
 11
1.4713
 21
20.0921
  0
LINE
  8
0
 10
1.4713
 20
20.0921
 11
1.36686
 21
20.387
  0
LINE
  8
0
 10
1.36686
 20
20.387
 11
1.35867
 21
20.6997
  0
LINE
  8
0
 10
1.35867
 20
20.6997
 11
1.47606
 21
22.7015
  0
LINE
  8
0
 10
1.47606
 20
22.7015
 11
1.56492
 21
23.0015
  0
LINE
  8
0
 10
1.56492
 20
23.0015
 11
1.74213
 21
23.2594
  0
LINE
  8
0
 10
1.74213
 20
23.2594
 11
1.99035
 21
23.4498
  0
LINE
  8
0
 10
1.99035
 20
23.4498
 11
2.28527
 21
23.5543
  0
LINE
  8
0
 10
2.28527
 20
23.5543
 11
2.59803
 21
23.5625
  0
LINE
  8
0
 10
2.59803
 20
23.5625
 11
3.58891
 21
23.432
  0
LINE
  8
0
 10
3.58891
 20
23.432
 11
3.88889
 21
23.3432
  0
LINE
  8
0
 10
3.88889
 20
23.3432
 11
4.14674
 21
23.1659
  0
LINE
  8
0
 10
4.14674
 20
23.1659
 11
4.3372
 21
22.9177
  0
LINE
  8
0
 10
4.3372
 20
22.9177
 11
4.44164
 21
22.6228
  0
LINE
  8
0
 10
4.44164
 20
22.6228
 11
4.44983
 21
22.31
  0
LINE
  8
0
 10
4.44983
 20
22.31
 11
4.04511
 21
20.3461
  0
LINE
  8
0
 10
4.04511
 20
20.3461
 11
3.95625
 21
20.0461
  0
LINE
  8
0
 10
3.95625
 20
20.0461
 11
3.77904
 21
19.7882
  0
LINE
  8
0
 10
3.77904
 20
19.7882
 11
3.53083
 21
19.5978
  0
LINE
  8
0
 10
3.53083
 20
19.5978
 11
3.2359
 21
19.4933
  0
LINE
  8
0
 10
3.2359
 20
19.4933
 11
2.92314
 21
19.4852
  0
LINE
  8
0
 10
2.92314
 20
19.4852
 11
2.21959
 21
19.5778
  0
LINE
  8
0
 10
-8.4828
 20
18.0162
 11
-8.77185
 21
18.1359
  0
LINE
  8
0
 10
-8.77185
 20
18.1359
 11
-9.00976
 21
18.3391
  0
LINE
  8
0
 10
-9.00976
 20
18.3391
 11
-9.17323
 21
18.6058
  0
LINE
  8
0
 10
-9.17323
 20
18.6058
 11
-10.0725
 21
20.3982
  0
LINE
  8
0
 10
-10.0725
 20
20.3982
 11
-10.1455
 21
20.7024
  0
LINE
  8
0
 10
-10.1455
 20
20.7024
 11
-10.121
 21
21.0143
  0
LINE
  8
0
 10
-10.121
 20
21.0143
 11
-10.0012
 21
21.3033
  0
LINE
  8
0
 10
-10.0012
 20
21.3033
 11
-9.79803
 21
21.5412
  0
LINE
  8
0
 10
-9.79803
 20
21.5412
 11
-9.53127
 21
21.7047
  0
LINE
  8
0
 10
-9.53127
 20
21.7047
 11
-8.60792
 21
22.0872
  0
LINE
  8
0
 10
-8.60792
 20
22.0872
 11
-8.3037
 21
22.1602
  0
LINE
  8
0
 10
-8.3037
 20
22.1602
 11
-7.99179
 21
22.1357
  0
LINE
  8
0
 10
-7.99179
 20
22.1357
 11
-7.70274
 21
22.0159
  0
LINE
  8
0
 10
-7.70274
 20
22.0159
 11
-7.46483
 21
21.8127
  0
LINE
  8
0
 10
-7.46483
 20
21.8127
 11
-7.30136
 21
21.546
  0
LINE
  8
0
 10
-7.30136
 20
21.546
 11
-6.66986
 21
19.6428
  0
LINE
  8
0
 10
-6.66986
 20
19.6428
 11
-6.59683
 21
19.3385
  0
LINE
  8
0
 10
-6.59683
 20
19.3385
 11
-6.62137
 21
19.0266
  0
LINE
  8
0
 10
-6.62137
 20
19.0266
 11
-6.7411
 21
18.7376
  0
LINE
  8
0
 10
-6.7411
 20
18.7376
 11
-6.94429
 21
18.4997
  0
LINE
  8
0
 10
-6.94429
 20
18.4997
 11
-7.21106
 21
18.3362
  0
LINE
  8
0
 10
-7.21106
 20
18.3362
 11
-7.86667
 21
18.0646
  0
LINE
  8
0
 10
-7.86667
 20
18.0646
 11
-8.17089
 21
17.9916
  0
LINE
  8
0
 10
-8.17089
 20
17.9916
 11
-8.4828
 21
18.0162
  0
LINE
  8
0
 10
7.86667
 20
18.0646
 11
7.21106
 21
18.3362
  0
LINE
  8
0
 10
7.21106
 20
18.3362
 11
6.94429
 21
18.4997
  0
LINE
  8
0
 10
6.94429
 20
18.4997
 11
6.7411
 21
18.7376
  0
LINE
  8
0
 10
6.7411
 20
18.7376
 11
6.62137
 21
19.0266
  0
LINE
  8
0
 10
6.62137
 20
19.0266
 11
6.59683
 21
19.3385
  0
LINE
  8
0
 10
6.59683
 20
19.3385
 11
6.66986
 21
19.6428
  0
LINE
  8
0
 10
6.66986
 20
19.6428
 11
7.30136
 21
21.546
  0
LINE
  8
0
 10
7.30136
 20
21.546
 11
7.46483
 21
21.8127
  0
LINE
  8
0
 10
7.46483
 20
21.8127
 11
7.70274
 21
22.0159
  0
LINE
  8
0
 10
7.70274
 20
22.0159
 11
7.99179
 21
22.1357
  0
LINE
  8
0
 10
7.99179
 20
22.1357
 11
8.3037
 21
22.1602
  0
LINE
  8
0
 10
8.3037
 20
22.1602
 11
8.60792
 21
22.0872
  0
LINE
  8
0
 10
8.60792
 20
22.0872
 11
9.53127
 21
21.7047
  0
LINE
  8
0
 10
9.53127
 20
21.7047
 11
9.79803
 21
21.5412
  0
LINE
  8
0
 10
9.79803
 20
21.5412
 11
10.0012
 21
21.3033
  0
LINE
  8
0
 10
10.0012
 20
21.3033
 11
10.121
 21
21.0143
  0
LINE
  8
0
 10
10.121
 20
21.0143
 11
10.1455
 21
20.7024
  0
LINE
  8
0
 10
10.1455
 20
20.7024
 11
10.0725
 21
20.3982
  0
LINE
  8
0
 10
10.0725
 20
20.3982
 11
9.17323
 21
18.6058
  0
LINE
  8
0
 10
9.17323
 20
18.6058
 11
9.00976
 21
18.3391
  0
LINE
  8
0
 10
9.00976
 20
18.3391
 11
8.77185
 21
18.1359
  0
LINE
  8
0
 10
8.77185
 20
18.1359
 11
8.4828
 21
18.0162
  0
LINE
  8
0
 10
8.4828
 20
18.0162
 11
8.17089
 21
17.9916
  0
LINE
  8
0
 10
8.17089
 20
17.9916
 11
7.86667
 21
18.0646
  0
LINE
  8
0
 10
-13.1669
 20
15.2476
 11
-13.4493
 21
15.3823
  0
LINE
  8
0
 10
-13.4493
 20
15.3823
 11
-13.6762
 21
15.5977
  0
LINE
  8
0
 10
-13.6762
 20
15.5977
 11
-15.0087
 21
17.0962
  0
LINE
  8
0
 10
-15.0087
 20
17.0962
 11
-15.158
 21
17.3711
  0
LINE
  8
0
 10
-15.158
 20
17.3711
 11
-15.215
 21
17.6787
  0
LINE
  8
0
 10
-15.215
 20
17.6787
 11
-15.1742
 21
17.9889
  0
LINE
  8
0
 10
-15.1742
 20
17.9889
 11
-15.0395
 21
18.2713
  0
LINE
  8
0
 10
-15.0395
 20
18.2713
 11
-14.8241
 21
18.4983
  0
LINE
  8
0
 10
-14.8241
 20
18.4983
 11
-14.0312
 21
19.1067
  0
LINE
  8
0
 10
-14.0312
 20
19.1067
 11
-13.7562
 21
19.256
  0
LINE
  8
0
 10
-13.7562
 20
19.256
 11
-13.4486
 21
19.313
  0
LINE
  8
0
 10
-13.4486
 20
19.313
 11
-13.1384
 21
19.2721
  0
LINE
  8
0
 10
-13.1384
 20
19.2721
 11
-12.856
 21
19.1375
  0
LINE
  8
0
 10
-12.856
 20
19.1375
 11
-12.6291
 21
18.9221
  0
LINE
  8
0
 10
-12.6291
 20
18.9221
 11
-11.5265
 21
17.2472
  0
LINE
  8
0
 10
-11.5265
 20
17.2472
 11
-11.3772
 21
16.9722
  0
LINE
  8
0
 10
-11.3772
 20
16.9722
 11
-11.3202
 21
16.6646
  0
LINE
  8
0
 10
-11.3202
 20
16.6646
 11
-11.3611
 21
16.3544
  0
LINE
  8
0
 10
-11.3611
 20
16.3544
 11
-11.4957
 21
16.072
  0
LINE
  8
0
 10
-11.4957
 20
16.072
 11
-11.7111
 21
15.8451
  0
LINE
  8
0
 10
-11.7111
 20
15.8451
 11
-12.2741
 21
15.4131
  0
LINE
  8
0
 10
-12.2741
 20
15.4131
 11
-12.549
 21
15.2638
  0
LINE
  8
0
 10
-12.549
 20
15.2638
 11
-12.8567
 21
15.2068
  0
LINE
  8
0
 10
-12.8567
 20
15.2068
 11
-13.1669
 21
15.2476
  0
LINE
  8
0
 10
12.549
 20
15.2638
 11
12.2741
 21
15.4131
  0
LINE
  8
0
 10
12.2741
 20
15.4131
 11
11.7111
 21
15.8451
  0
LINE
  8
0
 10
11.7111
 20
15.8451
 11
11.4957
 21
16.072
  0
LINE
  8
0
 10
11.4957
 20
16.072
 11
11.3611
 21
16.3544
  0
LINE
  8
0
 10
11.3611
 20
16.3544
 11
11.3202
 21
16.6646
  0
LINE
  8
0
 10
11.3202
 20
16.6646
 11
11.3772
 21
16.9722
  0
LINE
  8
0
 10
11.3772
 20
16.9722
 11
11.5265
 21
17.2472
  0
LINE
  8
0
 10
11.5265
 20
17.2472
 11
12.6291
 21
18.9221
  0
LINE
  8
0
 10
12.6291
 20
18.9221
 11
12.856
 21
19.1375
  0
LINE
  8
0
 10
12.856
 20
19.1375
 11
13.1384
 21
19.2721
  0
LINE
  8
0
 10
13.1384
 20
19.2721
 11
13.4486
 21
19.313
  0
LINE
  8
0
 10
13.4486
 20
19.313
 11
13.7562
 21
19.256
  0
LINE
  8
0
 10
13.7562
 20
19.256
 11
14.0312
 21
19.1067
  0
LINE
  8
0
 10
14.0312
 20
19.1067
 11
14.8241
 21
18.4983
  0
LINE
  8
0
 10
14.8241
 20
18.4983
 11
15.0395
 21
18.2713
  0
LINE
  8
0
 10
15.0395
 20
18.2713
 11
15.1742
 21
17.9889
  0
LINE
  8
0
 10
15.1742
 20
17.9889
 11
15.215
 21
17.6787
  0
LINE
  8
0
 10
15.215
 20
17.6787
 11
15.158
 21
17.3711
  0
LINE
  8
0
 10
15.158
 20
17.3711
 11
15.0087
 21
17.0962
  0
LINE
  8
0
 10
15.0087
 20
17.0962
 11
13.6762
 21
15.5977
  0
LINE
  8
0
 10
13.6762
 20
15.5977
 11
13.4493
 21
15.3823
  0
LINE
  8
0
 10
13.4493
 20
15.3823
 11
13.1669
 21
15.2476
  0
LINE
  8
0
 10
13.1669
 20
15.2476
 11
12.8567
 21
15.2068
  0
LINE
  8
0
 10
12.8567
 20
15.2068
 11
12.549
 21
15.2638
  0
LINE
  8
0
 10
-0.0275621
 20
14.7
 11
-0.336579
 21
14.7489
  0
LINE
  8
0
 10
-0.336579
 20
14.7489
 11
-0.615347
 21
14.891
  0
LINE
  8
0
 10
-0.615347
 20
14.891
 11
-0.836579
 21
15.1122
  0
LINE
  8
0
 10
-0.836579
 20
15.1122
 11
-0.978619
 21
15.391
  0
LINE
  8
0
 10
-0.978619
 20
15.391
 11
-1.02756
 21
15.7
  0
LINE
  8
0
 10
-1.02756
 20
15.7
 11
-1.17757
 21
17.7
  0
LINE
  8
0
 10
-1.17757
 20
17.7
 11
-1.12863
 21
18.009
  0
LINE
  8
0
 10
-1.12863
 20
18.009
 11
-0.986588
 21
18.2878
  0
LINE
  8
0
 10
-0.986588
 20
18.2878
 11
-0.765356
 21
18.509
  0
LINE
  8
0
 10
-0.765356
 20
18.509
 11
-0.486588
 21
18.6511
  0
LINE
  8
0
 10
-0.486588
 20
18.6511
 11
-0.177571
 21
18.7
  0
LINE
  8
0
 10
-0.177571
 20
18.7
 11
0.177571
 21
18.7
  0
LINE
  8
0
 10
0.177571
 20
18.7
 11
0.486588
 21
18.6511
  0
LINE
  8
0
 10
0.486588
 20
18.6511
 11
0.765356
 21
18.509
  0
LINE
  8
0
 10
0.765356
 20
18.509
 11
0.986588
 21
18.2878
  0
LINE
  8
0
 10
0.986588
 20
18.2878
 11
1.12863
 21
18.009
  0
LINE
  8
0
 10
1.12863
 20
18.009
 11
1.17757
 21
17.7
  0
LINE
  8
0
 10
1.17757
 20
17.7
 11
1.02756
 21
15.7
  0
LINE
  8
0
 10
1.02756
 20
15.7
 11
0.978619
 21
15.391
  0
LINE
  8
0
 10
0.978619
 20
15.391
 11
0.836579
 21
15.1122
  0
LINE
  8
0
 10
0.836579
 20
15.1122
 11
0.615347
 21
14.891
  0
LINE
  8
0
 10
0.615347
 20
14.891
 11
0.336579
 21
14.7489
  0
LINE
  8
0
 10
0.336579
 20
14.7489
 11
0.0275621
 21
14.7
  0
LINE
  8
0
 10
0.0275621
 20
14.7
 11
-0.0275621
 21
14.7
  0
LINE
  8
0
 10
-16.9722
 20
11.3772
 11
-17.2472
 21
11.5265
  0
LINE
  8
0
 10
-17.2472
 20
11.5265
 11
-18.9221
 21
12.6291
  0
LINE
  8
0
 10
-18.9221
 20
12.6291
 11
-19.1375
 21
12.856
  0
LINE
  8
0
 10
-19.1375
 20
12.856
 11
-19.2721
 21
13.1384
  0
LINE
  8
0
 10
-19.2721
 20
13.1384
 11
-19.313
 21
13.4486
  0
LINE
  8
0
 10
-19.313
 20
13.4486
 11
-19.256
 21
13.7562
  0
LINE
  8
0
 10
-19.256
 20
13.7562
 11
-19.1067
 21
14.0312
  0
LINE
  8
0
 10
-19.1067
 20
14.0312
 11
-18.4983
 21
14.8241
  0
LINE
  8
0
 10
-18.4983
 20
14.8241
 11
-18.2713
 21
15.0395
  0
LINE
  8
0
 10
-18.2713
 20
15.0395
 11
-17.9889
 21
15.1742
  0
LINE
  8
0
 10
-17.9889
 20
15.1742
 11
-17.6787
 21
15.215
  0
LINE
  8
0
 10
-17.6787
 20
15.215
 11
-17.3711
 21
15.158
  0
LINE
  8
0
 10
-17.3711
 20
15.158
 11
-17.0962
 21
15.0087
  0
LINE
  8
0
 10
-17.0962
 20
15.0087
 11
-15.5977
 21
13.6762
  0
LINE
  8
0
 10
-15.5977
 20
13.6762
 11
-15.3823
 21
13.4493
  0
LINE
  8
0
 10
-15.3823
 20
13.4493
 11
-15.2476
 21
13.1669
  0
LINE
  8
0
 10
-15.2476
 20
13.1669
 11
-15.2068
 21
12.8567
  0
LINE
  8
0
 10
-15.2068
 20
12.8567
 11
-15.2638
 21
12.549
  0
LINE
  8
0
 10
-15.2638
 20
12.549
 11
-15.4131
 21
12.2741
  0
LINE
  8
0
 10
-15.4131
 20
12.2741
 11
-15.8451
 21
11.7111
  0
LINE
  8
0
 10
-15.8451
 20
11.7111
 11
-16.072
 21
11.4957
  0
LINE
  8
0
 10
-16.072
 20
11.4957
 11
-16.3544
 21
11.3611
  0
LINE
  8
0
 10
-16.3544
 20
11.3611
 11
-16.6646
 21
11.3202
  0
LINE
  8
0
 10
-16.6646
 20
11.3202
 11
-16.9722
 21
11.3772
  0
LINE
  8
0
 10
16.3544
 20
11.3611
 11
16.072
 21
11.4957
  0
LINE
  8
0
 10
16.072
 20
11.4957
 11
15.8451
 21
11.7111
  0
LINE
  8
0
 10
15.8451
 20
11.7111
 11
15.4131
 21
12.2741
  0
LINE
  8
0
 10
15.4131
 20
12.2741
 11
15.2638
 21
12.549
  0
LINE
  8
0
 10
15.2638
 20
12.549
 11
15.2068
 21
12.8567
  0
LINE
  8
0
 10
15.2068
 20
12.8567
 11
15.2476
 21
13.1669
  0
LINE
  8
0
 10
15.2476
 20
13.1669
 11
15.3823
 21
13.4493
  0
LINE
  8
0
 10
15.3823
 20
13.4493
 11
15.5977
 21
13.6762
  0
LINE
  8
0
 10
15.5977
 20
13.6762
 11
17.0962
 21
15.0087
  0
LINE
  8
0
 10
17.0962
 20
15.0087
 11
17.3711
 21
15.158
  0
LINE
  8
0
 10
17.3711
 20
15.158
 11
17.6787
 21
15.215
  0
LINE
  8
0
 10
17.6787
 20
15.215
 11
17.9889
 21
15.1742
  0
LINE
  8
0
 10
17.9889
 20
15.1742
 11
18.2713
 21
15.0395
  0
LINE
  8
0
 10
18.2713
 20
15.0395
 11
18.4983
 21
14.8241
  0
LINE
  8
0
 10
18.4983
 20
14.8241
 11
19.1067
 21
14.0312
  0
LINE
  8
0
 10
19.1067
 20
14.0312
 11
19.256
 21
13.7562
  0
LINE
  8
0
 10
19.256
 20
13.7562
 11
19.313
 21
13.4486
  0
LINE
  8
0
 10
19.313
 20
13.4486
 11
19.2721
 21
13.1384
  0
LINE
  8
0
 10
19.2721
 20
13.1384
 11
19.1375
 21
12.856
  0
LINE
  8
0
 10
19.1375
 20
12.856
 11
18.9221
 21
12.6291
  0
LINE
  8
0
 10
18.9221
 20
12.6291
 11
17.2472
 21
11.5265
  0
LINE
  8
0
 10
17.2472
 20
11.5265
 11
16.9722
 21
11.3772
  0
LINE
  8
0
 10
16.9722
 20
11.3772
 11
16.6646
 21
11.3202
  0
LINE
  8
0
 10
16.6646
 20
11.3202
 11
16.3544
 21
11.3611
  0
LINE
  8
0
 10
-0.386271
 20
9.81118
 11
-0.734731
 21
9.98873
  0
LINE
  8
0
 10
-0.734731
 20
9.98873
 11
-1.01127
 21
10.2653
  0
LINE
  8
0
 10
-1.01127
 20
10.2653
 11
-1.18882
 21
10.6137
  0
LINE
  8
0
 10
-1.18882
 20
10.6137
 11
-1.25
 21
11
  0
LINE
  8
0
 10
-1.25
 20
11
 11
-1.18882
 21
11.3863
  0
LINE
  8
0
 10
-1.18882
 20
11.3863
 11
-1.01127
 21
11.7347
  0
LINE
  8
0
 10
-1.01127
 20
11.7347
 11
-0.734731
 21
12.0113
  0
LINE
  8
0
 10
-0.734731
 20
12.0113
 11
-0.386271
 21
12.1888
  0
LINE
  8
0
 10
-0.386271
 20
12.1888
 11
0
 21
12.25
  0
LINE
  8
0
 10
0
 20
12.25
 11
0.386271
 21
12.1888
  0
LINE
  8
0
 10
0.386271
 20
12.1888
 11
0.734731
 21
12.0113
  0
LINE
  8
0
 10
0.734731
 20
12.0113
 11
1.01127
 21
11.7347
  0
LINE
  8
0
 10
1.01127
 20
11.7347
 11
1.18882
 21
11.3863
  0
LINE
  8
0
 10
1.18882
 20
11.3863
 11
1.25
 21
11
  0
LINE
  8
0
 10
1.25
 20
11
 11
1.18882
 21
10.6137
  0
LINE
  8
0
 10
1.18882
 20
10.6137
 11
1.01127
 21
10.2653
  0
LINE
  8
0
 10
1.01127
 20
10.2653
 11
0.734731
 21
9.98873
  0
LINE
  8
0
 10
0.734731
 20
9.98873
 11
0.386271
 21
9.81118
  0
LINE
  8
0
 10
0.386271
 20
9.81118
 11
0
 21
9.75
  0
LINE
  8
0
 10
0
 20
9.75
 11
-0.386271
 21
9.81118
  0
LINE
  8
0
 10
-19.6428
 20
6.66986
 11
-21.546
 21
7.30136
  0
LINE
  8
0
 10
-21.546
 20
7.30136
 11
-21.8127
 21
7.46483
  0
LINE
  8
0
 10
-21.8127
 20
7.46483
 11
-22.0159
 21
7.70274
  0
LINE
  8
0
 10
-22.0159
 20
7.70274
 11
-22.1357
 21
7.99179
  0
LINE
  8
0
 10
-22.1357
 20
7.99179
 11
-22.1602
 21
8.3037
  0
LINE
  8
0
 10
-22.1602
 20
8.3037
 11
-22.0872
 21
8.60792
  0
LINE
  8
0
 10
-22.0872
 20
8.60792
 11
-21.7047
 21
9.53127
  0
LINE
  8
0
 10
-21.7047
 20
9.53127
 11
-21.5412
 21
9.79803
  0
LINE
  8
0
 10
-21.5412
 20
9.79803
 11
-21.3033
 21
10.0012
  0
LINE
  8
0
 10
-21.3033
 20
10.0012
 11
-21.0143
 21
10.121
  0
LINE
  8
0
 10
-21.0143
 20
10.121
 11
-20.7024
 21
10.1455
  0
LINE
  8
0
 10
-20.7024
 20
10.1455
 11
-20.3982
 21
10.0725
  0
LINE
  8
0
 10
-20.3982
 20
10.0725
 11
-18.6058
 21
9.17323
  0
LINE
  8
0
 10
-18.6058
 20
9.17323
 11
-18.3391
 21
9.00976
  0
LINE
  8
0
 10
-18.3391
 20
9.00976
 11
-18.1359
 21
8.77185
  0
LINE
  8
0
 10
-18.1359
 20
8.77185
 11
-18.0162
 21
8.4828
  0
LINE
  8
0
 10
-18.0162
 20
8.4828
 11
-17.9916
 21
8.17089
  0
LINE
  8
0
 10
-17.9916
 20
8.17089
 11
-18.0646
 21
7.86667
  0
LINE
  8
0
 10
-18.0646
 20
7.86667
 11
-18.3362
 21
7.21106
  0
LINE
  8
0
 10
-18.3362
 20
7.21106
 11
-18.4997
 21
6.94429
  0
LINE
  8
0
 10
-18.4997
 20
6.94429
 11
-18.7376
 21
6.7411
  0
LINE
  8
0
 10
-18.7376
 20
6.7411
 11
-19.0266
 21
6.62137
  0
LINE
  8
0
 10
-19.0266
 20
6.62137
 11
-19.3385
 21
6.59683
  0
LINE
  8
0
 10
-19.3385
 20
6.59683
 11
-19.6428
 21
6.66986
  0
LINE
  8
0
 10
19.0266
 20
6.62137
 11
18.7376
 21
6.7411
  0
LINE
  8
0
 10
18.7376
 20
6.7411
 11
18.4997
 21
6.94429
  0
LINE
  8
0
 10
18.4997
 20
6.94429
 11
18.3362
 21
7.21106
  0
LINE
  8
0
 10
18.3362
 20
7.21106
 11
18.0646
 21
7.86667
  0
LINE
  8
0
 10
18.0646
 20
7.86667
 11
17.9916
 21
8.17089
  0
LINE
  8
0
 10
17.9916
 20
8.17089
 11
18.0162
 21
8.4828
  0
LINE
  8
0
 10
18.0162
 20
8.4828
 11
18.1359
 21
8.77185
  0
LINE
  8
0
 10
18.1359
 20
8.77185
 11
18.3391
 21
9.00976
  0
LINE
  8
0
 10
18.3391
 20
9.00976
 11
18.6058
 21
9.17323
  0
LINE
  8
0
 10
18.6058
 20
9.17323
 11
20.3982
 21
10.0725
  0
LINE
  8
0
 10
20.3982
 20
10.0725
 11
20.7024
 21
10.1455
  0
LINE
  8
0
 10
20.7024
 20
10.1455
 11
21.0143
 21
10.121
  0
LINE
  8
0
 10
21.0143
 20
10.121
 11
21.3033
 21
10.0012
  0
LINE
  8
0
 10
21.3033
 20
10.0012
 11
21.5412
 21
9.79803
  0
LINE
  8
0
 10
21.5412
 20
9.79803
 11
21.7047
 21
9.53127
  0
LINE
  8
0
 10
21.7047
 20
9.53127
 11
22.0872
 21
8.60792
  0
LINE
  8
0
 10
22.0872
 20
8.60792
 11
22.1602
 21
8.3037
  0
LINE
  8
0
 10
22.1602
 20
8.3037
 11
22.1357
 21
7.99179
  0
LINE
  8
0
 10
22.1357
 20
7.99179
 11
22.0159
 21
7.70274
  0
LINE
  8
0
 10
22.0159
 20
7.70274
 11
21.8127
 21
7.46483
  0
LINE
  8
0
 10
21.8127
 20
7.46483
 11
21.546
 21
7.30136
  0
LINE
  8
0
 10
21.546
 20
7.30136
 11
19.6428
 21
6.66986
  0
LINE
  8
0
 10
19.6428
 20
6.66986
 11
19.3385
 21
6.59683
  0
LINE
  8
0
 10
19.3385
 20
6.59683
 11
19.0266
 21
6.62137
  0
LINE
  8
0
 10
7.52788
 20
6.19787
 11
7.05179
 21
6.35256
  0
LINE
  8
0
 10
7.05179
 20
6.35256
 11
6.6468
 21
6.6468
  0
LINE
  8
0
 10
6.6468
 20
6.6468
 11
6.35256
 21
7.05179
  0
LINE
  8
0
 10
6.35256
 20
7.05179
 11
6.19787
 21
7.52788
  0
LINE
  8
0
 10
6.19787
 20
7.52788
 11
6.19787
 21
8.02847
  0
LINE
  8
0
 10
6.19787
 20
8.02847
 11
6.35256
 21
8.50456
  0
LINE
  8
0
 10
6.35256
 20
8.50456
 11
6.6468
 21
8.90954
  0
LINE
  8
0
 10
6.6468
 20
8.90954
 11
7.05179
 21
9.20378
  0
LINE
  8
0
 10
7.05179
 20
9.20378
 11
7.52788
 21
9.35848
  0
LINE
  8
0
 10
7.52788
 20
9.35848
 11
8.02847
 21
9.35848
  0
LINE
  8
0
 10
8.02847
 20
9.35848
 11
8.50456
 21
9.20378
  0
LINE
  8
0
 10
8.50456
 20
9.20378
 11
8.90954
 21
8.90954
  0
LINE
  8
0
 10
8.90954
 20
8.90954
 11
9.20378
 21
8.50456
  0
LINE
  8
0
 10
9.20378
 20
8.50456
 11
9.35848
 21
8.02847
  0
LINE
  8
0
 10
9.35848
 20
8.02847
 11
9.35848
 21
7.52788
  0
LINE
  8
0
 10
9.35848
 20
7.52788
 11
9.20378
 21
7.05179
  0
LINE
  8
0
 10
9.20378
 20
7.05179
 11
8.90954
 21
6.6468
  0
LINE
  8
0
 10
8.90954
 20
6.6468
 11
8.50456
 21
6.35256
  0
LINE
  8
0
 10
8.50456
 20
6.35256
 11
8.02847
 21
6.19787
  0
LINE
  8
0
 10
8.02847
 20
6.19787
 11
7.52788
 21
6.19787
  0
LINE
  8
0
 10
-0.421304
 20
-8.03897
 11
-0.841454
 21
-8.0059
  0
LINE
  8
0
 10
-0.841454
 20
-8.0059
 11
-1.2593
 21
-7.95089
  0
LINE
  8
0
 10
-1.2593
 20
-7.95089
 11
-1.67369
 21
-7.87409
  0
LINE
  8
0
 10
-1.67369
 20
-7.87409
 11
-2.08349
 21
-7.7757
  0
LINE
  8
0
 10
-2.08349
 20
-7.7757
 11
-2.48759
 21
-7.656
  0
LINE
  8
0
 10
-2.48759
 20
-7.656
 11
-2.88486
 21
-7.51532
  0
LINE
  8
0
 10
-2.88486
 20
-7.51532
 11
-3.27423
 21
-7.35404
  0
LINE
  8
0
 10
-3.27423
 20
-7.35404
 11
-3.65462
 21
-7.1726
  0
LINE
  8
0
 10
-3.65462
 20
-7.1726
 11
-4.025
 21
-6.9715
  0
LINE
  8
0
 10
-4.025
 20
-6.9715
 11
-4.38434
 21
-6.7513
  0
LINE
  8
0
 10
-4.38434
 20
-6.7513
 11
-4.73167
 21
-6.51259
  0
LINE
  8
0
 10
-4.73167
 20
-6.51259
 11
-5.06603
 21
-6.25602
  0
LINE
  8
0
 10
-5.06603
 20
-6.25602
 11
-5.3865
 21
-5.98232
  0
LINE
  8
0
 10
-5.3865
 20
-5.98232
 11
-5.69221
 21
-5.69221
  0
LINE
  8
0
 10
-5.69221
 20
-5.69221
 11
-5.98232
 21
-5.3865
  0
LINE
  8
0
 10
-5.98232
 20
-5.3865
 11
-6.25602
 21
-5.06603
  0
LINE
  8
0
 10
-6.25602
 20
-5.06603
 11
-6.51259
 21
-4.73167
  0
LINE
  8
0
 10
-6.51259
 20
-4.73167
 11
-6.7513
 21
-4.38434
  0
LINE
  8
0
 10
-6.7513
 20
-4.38434
 11
-6.9715
 21
-4.025
  0
LINE
  8
0
 10
-6.9715
 20
-4.025
 11
-7.1726
 21
-3.65462
  0
LINE
  8
0
 10
-7.1726
 20
-3.65462
 11
-7.35404
 21
-3.27423
  0
LINE
  8
0
 10
-7.35404
 20
-3.27423
 11
-7.51532
 21
-2.88486
  0
LINE
  8
0
 10
-7.51532
 20
-2.88486
 11
-7.656
 21
-2.48759
  0
LINE
  8
0
 10
-7.656
 20
-2.48759
 11
-7.7757
 21
-2.08349
  0
LINE
  8
0
 10
-7.7757
 20
-2.08349
 11
-7.87409
 21
-1.67369
  0
LINE
  8
0
 10
-7.87409
 20
-1.67369
 11
-7.95089
 21
-1.2593
  0
LINE
  8
0
 10
-7.95089
 20
-1.2593
 11
-8.0059
 21
-0.841454
  0
LINE
  8
0
 10
-8.0059
 20
-0.841454
 11
-8.03897
 21
-0.421304
  0
LINE
  8
0
 10
-8.03897
 20
-0.421304
 11
-8.05
 21
0
  0
LINE
  8
0
 10
-8.05
 20
0
 11
-8.03897
 21
0.421304
  0
LINE
  8
0
 10
-8.03897
 20
0.421304
 11
-8.0059
 21
0.841454
  0
LINE
  8
0
 10
-8.0059
 20
0.841454
 11
-7.95089
 21
1.2593
  0
LINE
  8
0
 10
-7.95089
 20
1.2593
 11
-7.87409
 21
1.67369
  0
LINE
  8
0
 10
-7.87409
 20
1.67369
 11
-7.7757
 21
2.08349
  0
LINE
  8
0
 10
-7.7757
 20
2.08349
 11
-7.656
 21
2.48759
  0
LINE
  8
0
 10
-7.656
 20
2.48759
 11
-7.51532
 21
2.88486
  0
LINE
  8
0
 10
-7.51532
 20
2.88486
 11
-7.35404
 21
3.27423
  0
LINE
  8
0
 10
-7.35404
 20
3.27423
 11
-7.1726
 21
3.65462
  0
LINE
  8
0
 10
-7.1726
 20
3.65462
 11
-6.9715
 21
4.025
  0
LINE
  8
0
 10
-6.9715
 20
4.025
 11
-6.7513
 21
4.38434
  0
LINE
  8
0
 10
-6.7513
 20
4.38434
 11
-6.51259
 21
4.73167
  0
LINE
  8
0
 10
-6.51259
 20
4.73167
 11
-6.25602
 21
5.06603
  0
LINE
  8
0
 10
-6.25602
 20
5.06603
 11
-5.98232
 21
5.3865
  0
LINE
  8
0
 10
-5.98232
 20
5.3865
 11
-5.69221
 21
5.69221
  0
LINE
  8
0
 10
-5.69221
 20
5.69221
 11
-5.3865
 21
5.98232
  0
LINE
  8
0
 10
-5.3865
 20
5.98232
 11
-5.06603
 21
6.25602
  0
LINE
  8
0
 10
-5.06603
 20
6.25602
 11
-4.73167
 21
6.51259
  0
LINE
  8
0
 10
-4.73167
 20
6.51259
 11
-4.38434
 21
6.7513
  0
LINE
  8
0
 10
-4.38434
 20
6.7513
 11
-4.025
 21
6.9715
  0
LINE
  8
0
 10
-4.025
 20
6.9715
 11
-3.65462
 21
7.1726
  0
LINE
  8
0
 10
-3.65462
 20
7.1726
 11
-3.27423
 21
7.35404
  0
LINE
  8
0
 10
-3.27423
 20
7.35404
 11
-2.88486
 21
7.51532
  0
LINE
  8
0
 10
-2.88486
 20
7.51532
 11
-2.48759
 21
7.656
  0
LINE
  8
0
 10
-2.48759
 20
7.656
 11
-2.08349
 21
7.7757
  0
LINE
  8
0
 10
-2.08349
 20
7.7757
 11
-1.67369
 21
7.87409
  0
LINE
  8
0
 10
-1.67369
 20
7.87409
 11
-1.2593
 21
7.95089
  0
LINE
  8
0
 10
-1.2593
 20
7.95089
 11
-0.841454
 21
8.0059
  0
LINE
  8
0
 10
-0.841454
 20
8.0059
 11
-0.421304
 21
8.03897
  0
LINE
  8
0
 10
-0.421304
 20
8.03897
 11
0
 21
8.05
  0
LINE
  8
0
 10
0
 20
8.05
 11
0.421304
 21
8.03897
  0
LINE
  8
0
 10
0.421304
 20
8.03897
 11
0.841454
 21
8.0059
  0
LINE
  8
0
 10
0.841454
 20
8.0059
 11
1.2593
 21
7.95089
  0
LINE
  8
0
 10
1.2593
 20
7.95089
 11
1.67369
 21
7.87409
  0
LINE
  8
0
 10
1.67369
 20
7.87409
 11
2.08349
 21
7.7757
  0
LINE
  8
0
 10
2.08349
 20
7.7757
 11
2.48759
 21
7.656
  0
LINE
  8
0
 10
2.48759
 20
7.656
 11
2.88486
 21
7.51532
  0
LINE
  8
0
 10
2.88486
 20
7.51532
 11
3.27423
 21
7.35404
  0
LINE
  8
0
 10
3.27423
 20
7.35404
 11
3.65462
 21
7.1726
  0
LINE
  8
0
 10
3.65462
 20
7.1726
 11
4.025
 21
6.9715
  0
LINE
  8
0
 10
4.025
 20
6.9715
 11
4.38434
 21
6.7513
  0
LINE
  8
0
 10
4.38434
 20
6.7513
 11
4.73167
 21
6.51259
  0
LINE
  8
0
 10
4.73167
 20
6.51259
 11
5.06603
 21
6.25602
  0
LINE
  8
0
 10
5.06603
 20
6.25602
 11
5.3865
 21
5.98232
  0
LINE
  8
0
 10
5.3865
 20
5.98232
 11
5.69221
 21
5.69221
  0
LINE
  8
0
 10
5.69221
 20
5.69221
 11
5.98232
 21
5.3865
  0
LINE
  8
0
 10
5.98232
 20
5.3865
 11
6.25602
 21
5.06603
  0
LINE
  8
0
 10
6.25602
 20
5.06603
 11
6.51259
 21
4.73167
  0
LINE
  8
0
 10
6.51259
 20
4.73167
 11
6.7513
 21
4.38434
  0
LINE
  8
0
 10
6.7513
 20
4.38434
 11
6.9715
 21
4.025
  0
LINE
  8
0
 10
6.9715
 20
4.025
 11
7.1726
 21
3.65462
  0
LINE
  8
0
 10
7.1726
 20
3.65462
 11
7.35404
 21
3.27423
  0
LINE
  8
0
 10
7.35404
 20
3.27423
 11
7.51532
 21
2.88486
  0
LINE
  8
0
 10
7.51532
 20
2.88486
 11
7.656
 21
2.48759
  0
LINE
  8
0
 10
7.656
 20
2.48759
 11
7.7757
 21
2.08349
  0
LINE
  8
0
 10
7.7757
 20
2.08349
 11
7.87409
 21
1.67369
  0
LINE
  8
0
 10
7.87409
 20
1.67369
 11
7.95089
 21
1.2593
  0
LINE
  8
0
 10
7.95089
 20
1.2593
 11
8.0059
 21
0.841454
  0
LINE
  8
0
 10
8.0059
 20
0.841454
 11
8.03897
 21
0.421304
  0
LINE
  8
0
 10
8.03897
 20
0.421304
 11
8.05
 21
0
  0
LINE
  8
0
 10
8.05
 20
0
 11
8.03897
 21
-0.421304
  0
LINE
  8
0
 10
8.03897
 20
-0.421304
 11
8.0059
 21
-0.841454
  0
LINE
  8
0
 10
8.0059
 20
-0.841454
 11
7.95089
 21
-1.2593
  0
LINE
  8
0
 10
7.95089
 20
-1.2593
 11
7.87409
 21
-1.67369
  0
LINE
  8
0
 10
7.87409
 20
-1.67369
 11
7.7757
 21
-2.08349
  0
LINE
  8
0
 10
7.7757
 20
-2.08349
 11
7.656
 21
-2.48759
  0
LINE
  8
0
 10
7.656
 20
-2.48759
 11
7.51532
 21
-2.88486
  0
LINE
  8
0
 10
7.51532
 20
-2.88486
 11
7.35404
 21
-3.27423
  0
LINE
  8
0
 10
7.35404
 20
-3.27423
 11
7.1726
 21
-3.65462
  0
LINE
  8
0
 10
7.1726
 20
-3.65462
 11
6.9715
 21
-4.025
  0
LINE
  8
0
 10
6.9715
 20
-4.025
 11
6.7513
 21
-4.38434
  0
LINE
  8
0
 10
6.7513
 20
-4.38434
 11
6.51259
 21
-4.73167
  0
LINE
  8
0
 10
6.51259
 20
-4.73167
 11
6.25602
 21
-5.06603
  0
LINE
  8
0
 10
6.25602
 20
-5.06603
 11
5.98232
 21
-5.3865
  0
LINE
  8
0
 10
5.98232
 20
-5.3865
 11
5.69221
 21
-5.69221
  0
LINE
  8
0
 10
5.69221
 20
-5.69221
 11
5.3865
 21
-5.98232
  0
LINE
  8
0
 10
5.3865
 20
-5.98232
 11
5.06603
 21
-6.25602
  0
LINE
  8
0
 10
5.06603
 20
-6.25602
 11
4.73167
 21
-6.51259
  0
LINE
  8
0
 10
4.73167
 20
-6.51259
 11
4.38434
 21
-6.7513
  0
LINE
  8
0
 10
4.38434
 20
-6.7513
 11
4.025
 21
-6.9715
  0
LINE
  8
0
 10
4.025
 20
-6.9715
 11
3.65462
 21
-7.1726
  0
LINE
  8
0
 10
3.65462
 20
-7.1726
 11
3.27423
 21
-7.35404
  0
LINE
  8
0
 10
3.27423
 20
-7.35404
 11
2.88486
 21
-7.51532
  0
LINE
  8
0
 10
2.88486
 20
-7.51532
 11
2.48759
 21
-7.656
  0
LINE
  8
0
 10
2.48759
 20
-7.656
 11
2.08349
 21
-7.7757
  0
LINE
  8
0
 10
2.08349
 20
-7.7757
 11
1.67369
 21
-7.87409
  0
LINE
  8
0
 10
1.67369
 20
-7.87409
 11
1.2593
 21
-7.95089
  0
LINE
  8
0
 10
1.2593
 20
-7.95089
 11
0.841454
 21
-8.0059
  0
LINE
  8
0
 10
0.841454
 20
-8.0059
 11
0.421304
 21
-8.03897
  0
LINE
  8
0
 10
0.421304
 20
-8.03897
 11
0
 21
-8.05
  0
LINE
  8
0
 10
0
 20
-8.05
 11
-0.421304
 21
-8.03897
  0
LINE
  8
0
 10
-22.7015
 20
1.47606
 11
-23.0015
 21
1.56492
  0
LINE
  8
0
 10
-23.0015
 20
1.56492
 11
-23.2594
 21
1.74213
  0
LINE
  8
0
 10
-23.2594
 20
1.74213
 11
-23.4498
 21
1.99035
  0
LINE
  8
0
 10
-23.4498
 20
1.99035
 11
-23.5543
 21
2.28527
  0
LINE
  8
0
 10
-23.5543
 20
2.28527
 11
-23.5625
 21
2.59803
  0
LINE
  8
0
 10
-23.5625
 20
2.59803
 11
-23.432
 21
3.58891
  0
LINE
  8
0
 10
-23.432
 20
3.58891
 11
-23.3432
 21
3.88889
  0
LINE
  8
0
 10
-23.3432
 20
3.88889
 11
-23.1659
 21
4.14674
  0
LINE
  8
0
 10
-23.1659
 20
4.14674
 11
-22.9177
 21
4.3372
  0
LINE
  8
0
 10
-22.9177
 20
4.3372
 11
-22.6228
 21
4.44164
  0
LINE
  8
0
 10
-22.6228
 20
4.44164
 11
-22.31
 21
4.44983
  0
LINE
  8
0
 10
-22.31
 20
4.44983
 11
-20.3461
 21
4.04511
  0
LINE
  8
0
 10
-20.3461
 20
4.04511
 11
-20.0461
 21
3.95625
  0
LINE
  8
0
 10
-20.0461
 20
3.95625
 11
-19.7882
 21
3.77904
  0
LINE
  8
0
 10
-19.7882
 20
3.77904
 11
-19.5978
 21
3.53083
  0
LINE
  8
0
 10
-19.5978
 20
3.53083
 11
-19.4933
 21
3.2359
  0
LINE
  8
0
 10
-19.4933
 20
3.2359
 11
-19.4852
 21
2.92314
  0
LINE
  8
0
 10
-19.4852
 20
2.92314
 11
-19.5778
 21
2.21959
  0
LINE
  8
0
 10
-19.5778
 20
2.21959
 11
-19.6666
 21
1.9196
  0
LINE
  8
0
 10
-19.6666
 20
1.9196
 11
-19.8438
 21
1.66176
  0
LINE
  8
0
 10
-19.8438
 20
1.66176
 11
-20.0921
 21
1.4713
  0
LINE
  8
0
 10
-20.0921
 20
1.4713
 11
-20.387
 21
1.36686
  0
LINE
  8
0
 10
-20.387
 20
1.36686
 11
-20.6997
 21
1.35867
  0
LINE
  8
0
 10
-20.6997
 20
1.35867
 11
-22.7015
 21
1.47606
  0
LINE
  8
0
 10
20.387
 20
1.36686
 11
20.0921
 21
1.4713
  0
LINE
  8
0
 10
20.0921
 20
1.4713
 11
19.8438
 21
1.66176
  0
LINE
  8
0
 10
19.8438
 20
1.66176
 11
19.6666
 21
1.9196
  0
LINE
  8
0
 10
19.6666
 20
1.9196
 11
19.5778
 21
2.21959
  0
LINE
  8
0
 10
19.5778
 20
2.21959
 11
19.4852
 21
2.92314
  0
LINE
  8
0
 10
19.4852
 20
2.92314
 11
19.4933
 21
3.2359
  0
LINE
  8
0
 10
19.4933
 20
3.2359
 11
19.5978
 21
3.53083
  0
LINE
  8
0
 10
19.5978
 20
3.53083
 11
19.7882
 21
3.77904
  0
LINE
  8
0
 10
19.7882
 20
3.77904
 11
20.0461
 21
3.95625
  0
LINE
  8
0
 10
20.0461
 20
3.95625
 11
20.3461
 21
4.04511
  0
LINE
  8
0
 10
20.3461
 20
4.04511
 11
22.31
 21
4.44983
  0
LINE
  8
0
 10
22.31
 20
4.44983
 11
22.6228
 21
4.44164
  0
LINE
  8
0
 10
22.6228
 20
4.44164
 11
22.9177
 21
4.3372
  0
LINE
  8
0
 10
22.9177
 20
4.3372
 11
23.1659
 21
4.14674
  0
LINE
  8
0
 10
23.1659
 20
4.14674
 11
23.3432
 21
3.88889
  0
LINE
  8
0
 10
23.3432
 20
3.88889
 11
23.432
 21
3.58891
  0
LINE
  8
0
 10
23.432
 20
3.58891
 11
23.5625
 21
2.59803
  0
LINE
  8
0
 10
23.5625
 20
2.59803
 11
23.5543
 21
2.28527
  0
LINE
  8
0
 10
23.5543
 20
2.28527
 11
23.4498
 21
1.99035
  0
LINE
  8
0
 10
23.4498
 20
1.99035
 11
23.2594
 21
1.74213
  0
LINE
  8
0
 10
23.2594
 20
1.74213
 11
23.0015
 21
1.56492
  0
LINE
  8
0
 10
23.0015
 20
1.56492
 11
22.7015
 21
1.47606
  0
LINE
  8
0
 10
22.7015
 20
1.47606
 11
20.6997
 21
1.35867
  0
LINE
  8
0
 10
20.6997
 20
1.35867
 11
20.387
 21
1.36686
  0
LINE
  8
0
 10
10.6137
 20
-1.18882
 11
10.2653
 21
-1.01127
  0
LINE
  8
0
 10
10.2653
 20
-1.01127
 11
9.98873
 21
-0.734731
  0
LINE
  8
0
 10
9.98873
 20
-0.734731
 11
9.81118
 21
-0.386271
  0
LINE
  8
0
 10
9.81118
 20
-0.386271
 11
9.75
 21
0
  0
LINE
  8
0
 10
9.75
 20
0
 11
9.81118
 21
0.386271
  0
LINE
  8
0
 10
9.81118
 20
0.386271
 11
9.98873
 21
0.734731
  0
LINE
  8
0
 10
9.98873
 20
0.734731
 11
10.2653
 21
1.01127
  0
LINE
  8
0
 10
10.2653
 20
1.01127
 11
10.6137
 21
1.18882
  0
LINE
  8
0
 10
10.6137
 20
1.18882
 11
11
 21
1.25
  0
LINE
  8
0
 10
11
 20
1.25
 11
11.3863
 21
1.18882
  0
LINE
  8
0
 10
11.3863
 20
1.18882
 11
11.7347
 21
1.01127
  0
LINE
  8
0
 10
11.7347
 20
1.01127
 11
12.0113
 21
0.734731
  0
LINE
  8
0
 10
12.0113
 20
0.734731
 11
12.1888
 21
0.386271
  0
LINE
  8
0
 10
12.1888
 20
0.386271
 11
12.25
 21
0
  0
LINE
  8
0
 10
12.25
 20
0
 11
12.1888
 21
-0.386271
  0
LINE
  8
0
 10
12.1888
 20
-0.386271
 11
12.0113
 21
-0.734731
  0
LINE
  8
0
 10
12.0113
 20
-0.734731
 11
11.7347
 21
-1.01127
  0
LINE
  8
0
 10
11.7347
 20
-1.01127
 11
11.3863
 21
-1.18882
  0
LINE
  8
0
 10
11.3863
 20
-1.18882
 11
11
 21
-1.25
  0
LINE
  8
0
 10
11
 20
-1.25
 11
10.6137
 21
-1.18882
  0
LINE
  8
0
 10
-11.3863
 20
-1.18882
 11
-11.7347
 21
-1.01127
  0
LINE
  8
0
 10
-11.7347
 20
-1.01127
 11
-12.0113
 21
-0.734731
  0
LINE
  8
0
 10
-12.0113
 20
-0.734731
 11
-12.1888
 21
-0.386271
  0
LINE
  8
0
 10
-12.1888
 20
-0.386271
 11
-12.25
 21
0
  0
LINE
  8
0
 10
-12.25
 20
0
 11
-12.1888
 21
0.386271
  0
LINE
  8
0
 10
-12.1888
 20
0.386271
 11
-12.0113
 21
0.734731
  0
LINE
  8
0
 10
-12.0113
 20
0.734731
 11
-11.7347
 21
1.01127
  0
LINE
  8
0
 10
-11.7347
 20
1.01127
 11
-11.3863
 21
1.18882
  0
LINE
  8
0
 10
-11.3863
 20
1.18882
 11
-11
 21
1.25
  0
LINE
  8
0
 10
-11
 20
1.25
 11
-10.6137
 21
1.18882
  0
LINE
  8
0
 10
-10.6137
 20
1.18882
 11
-10.2653
 21
1.01127
  0
LINE
  8
0
 10
-10.2653
 20
1.01127
 11
-9.98873
 21
0.734731
  0
LINE
  8
0
 10
-9.98873
 20
0.734731
 11
-9.81118
 21
0.386271
  0
LINE
  8
0
 10
-9.81118
 20
0.386271
 11
-9.75
 21
0
  0
LINE
  8
0
 10
-9.75
 20
0
 11
-9.81118
 21
-0.386271
  0
LINE
  8
0
 10
-9.81118
 20
-0.386271
 11
-9.98873
 21
-0.734731
  0
LINE
  8
0
 10
-9.98873
 20
-0.734731
 11
-10.2653
 21
-1.01127
  0
LINE
  8
0
 10
-10.2653
 20
-1.01127
 11
-10.6137
 21
-1.18882
  0
LINE
  8
0
 10
-10.6137
 20
-1.18882
 11
-11
 21
-1.25
  0
LINE
  8
0
 10
-11
 20
-1.25
 11
-11.3863
 21
-1.18882
  0
LINE
  8
0
 10
-22.6228
 20
-4.44164
 11
-22.9177
 21
-4.3372
  0
LINE
  8
0
 10
-22.9177
 20
-4.3372
 11
-23.1659
 21
-4.14674
  0
LINE
  8
0
 10
-23.1659
 20
-4.14674
 11
-23.3432
 21
-3.88889
  0
LINE
  8
0
 10
-23.3432
 20
-3.88889
 11
-23.432
 21
-3.58891
  0
LINE
  8
0
 10
-23.432
 20
-3.58891
 11
-23.5625
 21
-2.59803
  0
LINE
  8
0
 10
-23.5625
 20
-2.59803
 11
-23.5543
 21
-2.28527
  0
LINE
  8
0
 10
-23.5543
 20
-2.28527
 11
-23.4498
 21
-1.99035
  0
LINE
  8
0
 10
-23.4498
 20
-1.99035
 11
-23.2594
 21
-1.74213
  0
LINE
  8
0
 10
-23.2594
 20
-1.74213
 11
-23.0015
 21
-1.56492
  0
LINE
  8
0
 10
-23.0015
 20
-1.56492
 11
-22.7015
 21
-1.47606
  0
LINE
  8
0
 10
-22.7015
 20
-1.47606
 11
-20.6997
 21
-1.35867
  0
LINE
  8
0
 10
-20.6997
 20
-1.35867
 11
-20.387
 21
-1.36686
  0
LINE
  8
0
 10
-20.387
 20
-1.36686
 11
-20.0921
 21
-1.4713
  0
LINE
  8
0
 10
-20.0921
 20
-1.4713
 11
-19.8438
 21
-1.66176
  0
LINE
  8
0
 10
-19.8438
 20
-1.66176
 11
-19.6666
 21
-1.9196
  0
LINE
  8
0
 10
-19.6666
 20
-1.9196
 11
-19.5778
 21
-2.21959
  0
LINE
  8
0
 10
-19.5778
 20
-2.21959
 11
-19.4852
 21
-2.92314
  0
LINE
  8
0
 10
-19.4852
 20
-2.92314
 11
-19.4933
 21
-3.2359
  0
LINE
  8
0
 10
-19.4933
 20
-3.2359
 11
-19.5978
 21
-3.53083
  0
LINE
  8
0
 10
-19.5978
 20
-3.53083
 11
-19.7882
 21
-3.77904
  0
LINE
  8
0
 10
-19.7882
 20
-3.77904
 11
-20.0461
 21
-3.95625
  0
LINE
  8
0
 10
-20.0461
 20
-3.95625
 11
-20.3461
 21
-4.04511
  0
LINE
  8
0
 10
-20.3461
 20
-4.04511
 11
-22.31
 21
-4.44983
  0
LINE
  8
0
 10
-22.31
 20
-4.44983
 11
-22.6228
 21
-4.44164
  0
LINE
  8
0
 10
20.3461
 20
-4.04511
 11
20.0461
 21
-3.95625
  0
LINE
  8
0
 10
20.0461
 20
-3.95625
 11
19.7882
 21
-3.77904
  0
LINE
  8
0
 10
19.7882
 20
-3.77904
 11
19.5978
 21
-3.53083
  0
LINE
  8
0
 10
19.5978
 20
-3.53083
 11
19.4933
 21
-3.2359
  0
LINE
  8
0
 10
19.4933
 20
-3.2359
 11
19.4852
 21
-2.92314
  0
LINE
  8
0
 10
19.4852
 20
-2.92314
 11
19.5778
 21
-2.21959
  0
LINE
  8
0
 10
19.5778
 20
-2.21959
 11
19.6666
 21
-1.9196
  0
LINE
  8
0
 10
19.6666
 20
-1.9196
 11
19.8438
 21
-1.66176
  0
LINE
  8
0
 10
19.8438
 20
-1.66176
 11
20.0921
 21
-1.4713
  0
LINE
  8
0
 10
20.0921
 20
-1.4713
 11
20.387
 21
-1.36686
  0
LINE
  8
0
 10
20.387
 20
-1.36686
 11
20.6997
 21
-1.35867
  0
LINE
  8
0
 10
20.6997
 20
-1.35867
 11
22.7015
 21
-1.47606
  0
LINE
  8
0
 10
22.7015
 20
-1.47606
 11
23.0015
 21
-1.56492
  0
LINE
  8
0
 10
23.0015
 20
-1.56492
 11
23.2594
 21
-1.74213
  0
LINE
  8
0
 10
23.2594
 20
-1.74213
 11
23.4498
 21
-1.99035
  0
LINE
  8
0
 10
23.4498
 20
-1.99035
 11
23.5543
 21
-2.28527
  0
LINE
  8
0
 10
23.5543
 20
-2.28527
 11
23.5625
 21
-2.59803
  0
LINE
  8
0
 10
23.5625
 20
-2.59803
 11
23.432
 21
-3.58891
  0
LINE
  8
0
 10
23.432
 20
-3.58891
 11
23.3432
 21
-3.88889
  0
LINE
  8
0
 10
23.3432
 20
-3.88889
 11
23.1659
 21
-4.14674
  0
LINE
  8
0
 10
23.1659
 20
-4.14674
 11
22.9177
 21
-4.3372
  0
LINE
  8
0
 10
22.9177
 20
-4.3372
 11
22.6228
 21
-4.44164
  0
LINE
  8
0
 10
22.6228
 20
-4.44164
 11
22.31
 21
-4.44983
  0
LINE
  8
0
 10
22.31
 20
-4.44983
 11
20.3461
 21
-4.04511
  0
LINE
  8
0
 10
-8.02847
 20
-9.35848
 11
-8.50456
 21
-9.20378
  0
LINE
  8
0
 10
-8.50456
 20
-9.20378
 11
-8.90954
 21
-8.90954
  0
LINE
  8
0
 10
-8.90954
 20
-8.90954
 11
-9.20378
 21
-8.50456
  0
LINE
  8
0
 10
-9.20378
 20
-8.50456
 11
-9.35848
 21
-8.02847
  0
LINE
  8
0
 10
-9.35848
 20
-8.02847
 11
-9.35848
 21
-7.52788
  0
LINE
  8
0
 10
-9.35848
 20
-7.52788
 11
-9.20378
 21
-7.05179
  0
LINE
  8
0
 10
-9.20378
 20
-7.05179
 11
-8.90954
 21
-6.6468
  0
LINE
  8
0
 10
-8.90954
 20
-6.6468
 11
-8.50456
 21
-6.35256
  0
LINE
  8
0
 10
-8.50456
 20
-6.35256
 11
-8.02847
 21
-6.19787
  0
LINE
  8
0
 10
-8.02847
 20
-6.19787
 11
-7.52788
 21
-6.19787
  0
LINE
  8
0
 10
-7.52788
 20
-6.19787
 11
-7.05179
 21
-6.35256
  0
LINE
  8
0
 10
-7.05179
 20
-6.35256
 11
-6.6468
 21
-6.6468
  0
LINE
  8
0
 10
-6.6468
 20
-6.6468
 11
-6.35256
 21
-7.05179
  0
LINE
  8
0
 10
-6.35256
 20
-7.05179
 11
-6.19787
 21
-7.52788
  0
LINE
  8
0
 10
-6.19787
 20
-7.52788
 11
-6.19787
 21
-8.02847
  0
LINE
  8
0
 10
-6.19787
 20
-8.02847
 11
-6.35256
 21
-8.50456
  0
LINE
  8
0
 10
-6.35256
 20
-8.50456
 11
-6.6468
 21
-8.90954
  0
LINE
  8
0
 10
-6.6468
 20
-8.90954
 11
-7.05179
 21
-9.20378
  0
LINE
  8
0
 10
-7.05179
 20
-9.20378
 11
-7.52788
 21
-9.35848
  0
LINE
  8
0
 10
-7.52788
 20
-9.35848
 11
-8.02847
 21
-9.35848
  0
LINE
  8
0
 10
20.3982
 20
-10.0725
 11
18.6058
 21
-9.17323
  0
LINE
  8
0
 10
18.6058
 20
-9.17323
 11
18.3391
 21
-9.00976
  0
LINE
  8
0
 10
18.3391
 20
-9.00976
 11
18.1359
 21
-8.77185
  0
LINE
  8
0
 10
18.1359
 20
-8.77185
 11
18.0162
 21
-8.4828
  0
LINE
  8
0
 10
18.0162
 20
-8.4828
 11
17.9916
 21
-8.17089
  0
LINE
  8
0
 10
17.9916
 20
-8.17089
 11
18.0646
 21
-7.86667
  0
LINE
  8
0
 10
18.0646
 20
-7.86667
 11
18.3362
 21
-7.21106
  0
LINE
  8
0
 10
18.3362
 20
-7.21106
 11
18.4997
 21
-6.94429
  0
LINE
  8
0
 10
18.4997
 20
-6.94429
 11
18.7376
 21
-6.7411
  0
LINE
  8
0
 10
18.7376
 20
-6.7411
 11
19.0266
 21
-6.62137
  0
LINE
  8
0
 10
19.0266
 20
-6.62137
 11
19.3385
 21
-6.59683
  0
LINE
  8
0
 10
19.3385
 20
-6.59683
 11
19.6428
 21
-6.66986
  0
LINE
  8
0
 10
19.6428
 20
-6.66986
 11
21.546
 21
-7.30136
  0
LINE
  8
0
 10
21.546
 20
-7.30136
 11
21.8127
 21
-7.46483
  0
LINE
  8
0
 10
21.8127
 20
-7.46483
 11
22.0159
 21
-7.70274
  0
LINE
  8
0
 10
22.0159
 20
-7.70274
 11
22.1357
 21
-7.99179
  0
LINE
  8
0
 10
22.1357
 20
-7.99179
 11
22.1602
 21
-8.3037
  0
LINE
  8
0
 10
22.1602
 20
-8.3037
 11
22.0872
 21
-8.60792
  0
LINE
  8
0
 10
22.0872
 20
-8.60792
 11
21.7047
 21
-9.53127
  0
LINE
  8
0
 10
21.7047
 20
-9.53127
 11
21.5412
 21
-9.79803
  0
LINE
  8
0
 10
21.5412
 20
-9.79803
 11
21.3033
 21
-10.0012
  0
LINE
  8
0
 10
21.3033
 20
-10.0012
 11
21.0143
 21
-10.121
  0
LINE
  8
0
 10
21.0143
 20
-10.121
 11
20.7024
 21
-10.1455
  0
LINE
  8
0
 10
20.7024
 20
-10.1455
 11
20.3982
 21
-10.0725
  0
LINE
  8
0
 10
-21.0143
 20
-10.121
 11
-21.3033
 21
-10.0012
  0
LINE
  8
0
 10
-21.3033
 20
-10.0012
 11
-21.5412
 21
-9.79803
  0
LINE
  8
0
 10
-21.5412
 20
-9.79803
 11
-21.7047
 21
-9.53127
  0
LINE
  8
0
 10
-21.7047
 20
-9.53127
 11
-22.0872
 21
-8.60792
  0
LINE
  8
0
 10
-22.0872
 20
-8.60792
 11
-22.1602
 21
-8.3037
  0
LINE
  8
0
 10
-22.1602
 20
-8.3037
 11
-22.1357
 21
-7.99179
  0
LINE
  8
0
 10
-22.1357
 20
-7.99179
 11
-22.0159
 21
-7.70274
  0
LINE
  8
0
 10
-22.0159
 20
-7.70274
 11
-21.8127
 21
-7.46483
  0
LINE
  8
0
 10
-21.8127
 20
-7.46483
 11
-21.546
 21
-7.30136
  0
LINE
  8
0
 10
-21.546
 20
-7.30136
 11
-19.6428
 21
-6.66986
  0
LINE
  8
0
 10
-19.6428
 20
-6.66986
 11
-19.3385
 21
-6.59683
  0
LINE
  8
0
 10
-19.3385
 20
-6.59683
 11
-19.0266
 21
-6.62137
  0
LINE
  8
0
 10
-19.0266
 20
-6.62137
 11
-18.7376
 21
-6.7411
  0
LINE
  8
0
 10
-18.7376
 20
-6.7411
 11
-18.4997
 21
-6.94429
  0
LINE
  8
0
 10
-18.4997
 20
-6.94429
 11
-18.3362
 21
-7.21106
  0
LINE
  8
0
 10
-18.3362
 20
-7.21106
 11
-18.0646
 21
-7.86667
  0
LINE
  8
0
 10
-18.0646
 20
-7.86667
 11
-17.9916
 21
-8.17089
  0
LINE
  8
0
 10
-17.9916
 20
-8.17089
 11
-18.0162
 21
-8.4828
  0
LINE
  8
0
 10
-18.0162
 20
-8.4828
 11
-18.1359
 21
-8.77185
  0
LINE
  8
0
 10
-18.1359
 20
-8.77185
 11
-18.3391
 21
-9.00976
  0
LINE
  8
0
 10
-18.3391
 20
-9.00976
 11
-18.6058
 21
-9.17323
  0
LINE
  8
0
 10
-18.6058
 20
-9.17323
 11
-20.3982
 21
-10.0725
  0
LINE
  8
0
 10
-20.3982
 20
-10.0725
 11
-20.7024
 21
-10.1455
  0
LINE
  8
0
 10
-20.7024
 20
-10.1455
 11
-21.0143
 21
-10.121
  0
LINE
  8
0
 10
-0.386271
 20
-12.1888
 11
-0.734731
 21
-12.0113
  0
LINE
  8
0
 10
-0.734731
 20
-12.0113
 11
-1.01127
 21
-11.7347
  0
LINE
  8
0
 10
-1.01127
 20
-11.7347
 11
-1.18882
 21
-11.3863
  0
LINE
  8
0
 10
-1.18882
 20
-11.3863
 11
-1.25
 21
-11
  0
LINE
  8
0
 10
-1.25
 20
-11
 11
-1.18882
 21
-10.6137
  0
LINE
  8
0
 10
-1.18882
 20
-10.6137
 11
-1.01127
 21
-10.2653
  0
LINE
  8
0
 10
-1.01127
 20
-10.2653
 11
-0.734731
 21
-9.98873
  0
LINE
  8
0
 10
-0.734731
 20
-9.98873
 11
-0.386271
 21
-9.81118
  0
LINE
  8
0
 10
-0.386271
 20
-9.81118
 11
0
 21
-9.75
  0
LINE
  8
0
 10
0
 20
-9.75
 11
0.386271
 21
-9.81118
  0
LINE
  8
0
 10
0.386271
 20
-9.81118
 11
0.734731
 21
-9.98873
  0
LINE
  8
0
 10
0.734731
 20
-9.98873
 11
1.01127
 21
-10.2653
  0
LINE
  8
0
 10
1.01127
 20
-10.2653
 11
1.18882
 21
-10.6137
  0
LINE
  8
0
 10
1.18882
 20
-10.6137
 11
1.25
 21
-11
  0
LINE
  8
0
 10
1.25
 20
-11
 11
1.18882
 21
-11.3863
  0
LINE
  8
0
 10
1.18882
 20
-11.3863
 11
1.01127
 21
-11.7347
  0
LINE
  8
0
 10
1.01127
 20
-11.7347
 11
0.734731
 21
-12.0113
  0
LINE
  8
0
 10
0.734731
 20
-12.0113
 11
0.386271
 21
-12.1888
  0
LINE
  8
0
 10
0.386271
 20
-12.1888
 11
0
 21
-12.25
  0
LINE
  8
0
 10
0
 20
-12.25
 11
-0.386271
 21
-12.1888
  0
LINE
  8
0
 10
-17.9889
 20
-15.1742
 11
-18.2713
 21
-15.0395
  0
LINE
  8
0
 10
-18.2713
 20
-15.0395
 11
-18.4983
 21
-14.8241
  0
LINE
  8
0
 10
-18.4983
 20
-14.8241
 11
-19.1067
 21
-14.0312
  0
LINE
  8
0
 10
-19.1067
 20
-14.0312
 11
-19.256
 21
-13.7562
  0
LINE
  8
0
 10
-19.256
 20
-13.7562
 11
-19.313
 21
-13.4486
  0
LINE
  8
0
 10
-19.313
 20
-13.4486
 11
-19.2721
 21
-13.1384
  0
LINE
  8
0
 10
-19.2721
 20
-13.1384
 11
-19.1375
 21
-12.856
  0
LINE
  8
0
 10
-19.1375
 20
-12.856
 11
-18.9221
 21
-12.6291
  0
LINE
  8
0
 10
-18.9221
 20
-12.6291
 11
-17.2472
 21
-11.5265
  0
LINE
  8
0
 10
-17.2472
 20
-11.5265
 11
-16.9722
 21
-11.3772
  0
LINE
  8
0
 10
-16.9722
 20
-11.3772
 11
-16.6646
 21
-11.3202
  0
LINE
  8
0
 10
-16.6646
 20
-11.3202
 11
-16.3544
 21
-11.3611
  0
LINE
  8
0
 10
-16.3544
 20
-11.3611
 11
-16.072
 21
-11.4957
  0
LINE
  8
0
 10
-16.072
 20
-11.4957
 11
-15.8451
 21
-11.7111
  0
LINE
  8
0
 10
-15.8451
 20
-11.7111
 11
-15.4131
 21
-12.2741
  0
LINE
  8
0
 10
-15.4131
 20
-12.2741
 11
-15.2638
 21
-12.549
  0
LINE
  8
0
 10
-15.2638
 20
-12.549
 11
-15.2068
 21
-12.8567
  0
LINE
  8
0
 10
-15.2068
 20
-12.8567
 11
-15.2476
 21
-13.1669
  0
LINE
  8
0
 10
-15.2476
 20
-13.1669
 11
-15.3823
 21
-13.4493
  0
LINE
  8
0
 10
-15.3823
 20
-13.4493
 11
-15.5977
 21
-13.6762
  0
LINE
  8
0
 10
-15.5977
 20
-13.6762
 11
-17.0962
 21
-15.0087
  0
LINE
  8
0
 10
-17.0962
 20
-15.0087
 11
-17.3711
 21
-15.158
  0
LINE
  8
0
 10
-17.3711
 20
-15.158
 11
-17.6787
 21
-15.215
  0
LINE
  8
0
 10
-17.6787
 20
-15.215
 11
-17.9889
 21
-15.1742
  0
LINE
  8
0
 10
17.3711
 20
-15.158
 11
17.0962
 21
-15.0087
  0
LINE
  8
0
 10
17.0962
 20
-15.0087
 11
15.5977
 21
-13.6762
  0
LINE
  8
0
 10
15.5977
 20
-13.6762
 11
15.3823
 21
-13.4493
  0
LINE
  8
0
 10
15.3823
 20
-13.4493
 11
15.2476
 21
-13.1669
  0
LINE
  8
0
 10
15.2476
 20
-13.1669
 11
15.2068
 21
-12.8567
  0
LINE
  8
0
 10
15.2068
 20
-12.8567
 11
15.2638
 21
-12.549
  0
LINE
  8
0
 10
15.2638
 20
-12.549
 11
15.4131
 21
-12.2741
  0
LINE
  8
0
 10
15.4131
 20
-12.2741
 11
15.8451
 21
-11.7111
  0
LINE
  8
0
 10
15.8451
 20
-11.7111
 11
16.072
 21
-11.4957
  0
LINE
  8
0
 10
16.072
 20
-11.4957
 11
16.3544
 21
-11.3611
  0
LINE
  8
0
 10
16.3544
 20
-11.3611
 11
16.6646
 21
-11.3202
  0
LINE
  8
0
 10
16.6646
 20
-11.3202
 11
16.9722
 21
-11.3772
  0
LINE
  8
0
 10
16.9722
 20
-11.3772
 11
17.2472
 21
-11.5265
  0
LINE
  8
0
 10
17.2472
 20
-11.5265
 11
18.9221
 21
-12.6291
  0
LINE
  8
0
 10
18.9221
 20
-12.6291
 11
19.1375
 21
-12.856
  0
LINE
  8
0
 10
19.1375
 20
-12.856
 11
19.2721
 21
-13.1384
  0
LINE
  8
0
 10
19.2721
 20
-13.1384
 11
19.313
 21
-13.4486
  0
LINE
  8
0
 10
19.313
 20
-13.4486
 11
19.256
 21
-13.7562
  0
LINE
  8
0
 10
19.256
 20
-13.7562
 11
19.1067
 21
-14.0312
  0
LINE
  8
0
 10
19.1067
 20
-14.0312
 11
18.4983
 21
-14.8241
  0
LINE
  8
0
 10
18.4983
 20
-14.8241
 11
18.2713
 21
-15.0395
  0
LINE
  8
0
 10
18.2713
 20
-15.0395
 11
17.9889
 21
-15.1742
  0
LINE
  8
0
 10
17.9889
 20
-15.1742
 11
17.6787
 21
-15.215
  0
LINE
  8
0
 10
17.6787
 20
-15.215
 11
17.3711
 21
-15.158
  0
LINE
  8
0
 10
-0.177571
 20
-18.7
 11
-0.486588
 21
-18.6511
  0
LINE
  8
0
 10
-0.486588
 20
-18.6511
 11
-0.765356
 21
-18.509
  0
LINE
  8
0
 10
-0.765356
 20
-18.509
 11
-0.986588
 21
-18.2878
  0
LINE
  8
0
 10
-0.986588
 20
-18.2878
 11
-1.12863
 21
-18.009
  0
LINE
  8
0
 10
-1.12863
 20
-18.009
 11
-1.17757
 21
-17.7
  0
LINE
  8
0
 10
-1.17757
 20
-17.7
 11
-1.02756
 21
-15.7
  0
LINE
  8
0
 10
-1.02756
 20
-15.7
 11
-0.978619
 21
-15.391
  0
LINE
  8
0
 10
-0.978619
 20
-15.391
 11
-0.836579
 21
-15.1122
  0
LINE
  8
0
 10
-0.836579
 20
-15.1122
 11
-0.615347
 21
-14.891
  0
LINE
  8
0
 10
-0.615347
 20
-14.891
 11
-0.336579
 21
-14.7489
  0
LINE
  8
0
 10
-0.336579
 20
-14.7489
 11
-0.0275621
 21
-14.7
  0
LINE
  8
0
 10
-0.0275621
 20
-14.7
 11
0.0275621
 21
-14.7
  0
LINE
  8
0
 10
0.0275621
 20
-14.7
 11
0.336579
 21
-14.7489
  0
LINE
  8
0
 10
0.336579
 20
-14.7489
 11
0.615347
 21
-14.891
  0
LINE
  8
0
 10
0.615347
 20
-14.891
 11
0.836579
 21
-15.1122
  0
LINE
  8
0
 10
0.836579
 20
-15.1122
 11
0.978619
 21
-15.391
  0
LINE
  8
0
 10
0.978619
 20
-15.391
 11
1.02756
 21
-15.7
  0
LINE
  8
0
 10
1.02756
 20
-15.7
 11
1.17757
 21
-17.7
  0
LINE
  8
0
 10
1.17757
 20
-17.7
 11
1.12863
 21
-18.009
  0
LINE
  8
0
 10
1.12863
 20
-18.009
 11
0.986588
 21
-18.2878
  0
LINE
  8
0
 10
0.986588
 20
-18.2878
 11
0.765356
 21
-18.509
  0
LINE
  8
0
 10
0.765356
 20
-18.509
 11
0.486588
 21
-18.6511
  0
LINE
  8
0
 10
0.486588
 20
-18.6511
 11
0.177571
 21
-18.7
  0
LINE
  8
0
 10
0.177571
 20
-18.7
 11
-0.177571
 21
-18.7
  0
LINE
  8
0
 10
-13.7562
 20
-19.256
 11
-14.0312
 21
-19.1067
  0
LINE
  8
0
 10
-14.0312
 20
-19.1067
 11
-14.8241
 21
-18.4983
  0
LINE
  8
0
 10
-14.8241
 20
-18.4983
 11
-15.0395
 21
-18.2713
  0
LINE
  8
0
 10
-15.0395
 20
-18.2713
 11
-15.1742
 21
-17.9889
  0
LINE
  8
0
 10
-15.1742
 20
-17.9889
 11
-15.215
 21
-17.6787
  0
LINE
  8
0
 10
-15.215
 20
-17.6787
 11
-15.158
 21
-17.3711
  0
LINE
  8
0
 10
-15.158
 20
-17.3711
 11
-15.0087
 21
-17.0962
  0
LINE
  8
0
 10
-15.0087
 20
-17.0962
 11
-13.6762
 21
-15.5977
  0
LINE
  8
0
 10
-13.6762
 20
-15.5977
 11
-13.4493
 21
-15.3823
  0
LINE
  8
0
 10
-13.4493
 20
-15.3823
 11
-13.1669
 21
-15.2476
  0
LINE
  8
0
 10
-13.1669
 20
-15.2476
 11
-12.8567
 21
-15.2068
  0
LINE
  8
0
 10
-12.8567
 20
-15.2068
 11
-12.549
 21
-15.2638
  0
LINE
  8
0
 10
-12.549
 20
-15.2638
 11
-12.2741
 21
-15.4131
  0
LINE
  8
0
 10
-12.2741
 20
-15.4131
 11
-11.7111
 21
-15.8451
  0
LINE
  8
0
 10
-11.7111
 20
-15.8451
 11
-11.4957
 21
-16.072
  0
LINE
  8
0
 10
-11.4957
 20
-16.072
 11
-11.3611
 21
-16.3544
  0
LINE
  8
0
 10
-11.3611
 20
-16.3544
 11
-11.3202
 21
-16.6646
  0
LINE
  8
0
 10
-11.3202
 20
-16.6646
 11
-11.3772
 21
-16.9722
  0
LINE
  8
0
 10
-11.3772
 20
-16.9722
 11
-11.5265
 21
-17.2472
  0
LINE
  8
0
 10
-11.5265
 20
-17.2472
 11
-12.6291
 21
-18.9221
  0
LINE
  8
0
 10
-12.6291
 20
-18.9221
 11
-12.856
 21
-19.1375
  0
LINE
  8
0
 10
-12.856
 20
-19.1375
 11
-13.1384
 21
-19.2721
  0
LINE
  8
0
 10
-13.1384
 20
-19.2721
 11
-13.4486
 21
-19.313
  0
LINE
  8
0
 10
-13.4486
 20
-19.313
 11
-13.7562
 21
-19.256
  0
LINE
  8
0
 10
13.1384
 20
-19.2721
 11
12.856
 21
-19.1375
  0
LINE
  8
0
 10
12.856
 20
-19.1375
 11
12.6291
 21
-18.9221
  0
LINE
  8
0
 10
12.6291
 20
-18.9221
 11
11.5265
 21
-17.2472
  0
LINE
  8
0
 10
11.5265
 20
-17.2472
 11
11.3772
 21
-16.9722
  0
LINE
  8
0
 10
11.3772
 20
-16.9722
 11
11.3202
 21
-16.6646
  0
LINE
  8
0
 10
11.3202
 20
-16.6646
 11
11.3611
 21
-16.3544
  0
LINE
  8
0
 10
11.3611
 20
-16.3544
 11
11.4957
 21
-16.072
  0
LINE
  8
0
 10
11.4957
 20
-16.072
 11
11.7111
 21
-15.8451
  0
LINE
  8
0
 10
11.7111
 20
-15.8451
 11
12.2741
 21
-15.4131
  0
LINE
  8
0
 10
12.2741
 20
-15.4131
 11
12.549
 21
-15.2638
  0
LINE
  8
0
 10
12.549
 20
-15.2638
 11
12.8567
 21
-15.2068
  0
LINE
  8
0
 10
12.8567
 20
-15.2068
 11
13.1669
 21
-15.2476
  0
LINE
  8
0
 10
13.1669
 20
-15.2476
 11
13.4493
 21
-15.3823
  0
LINE
  8
0
 10
13.4493
 20
-15.3823
 11
13.6762
 21
-15.5977
  0
LINE
  8
0
 10
13.6762
 20
-15.5977
 11
15.0087
 21
-17.0962
  0
LINE
  8
0
 10
15.0087
 20
-17.0962
 11
15.158
 21
-17.3711
  0
LINE
  8
0
 10
15.158
 20
-17.3711
 11
15.215
 21
-17.6787
  0
LINE
  8
0
 10
15.215
 20
-17.6787
 11
15.1742
 21
-17.9889
  0
LINE
  8
0
 10
15.1742
 20
-17.9889
 11
15.0395
 21
-18.2713
  0
LINE
  8
0
 10
15.0395
 20
-18.2713
 11
14.8241
 21
-18.4983
  0
LINE
  8
0
 10
14.8241
 20
-18.4983
 11
14.0312
 21
-19.1067
  0
LINE
  8
0
 10
14.0312
 20
-19.1067
 11
13.7562
 21
-19.256
  0
LINE
  8
0
 10
13.7562
 20
-19.256
 11
13.4486
 21
-19.313
  0
LINE
  8
0
 10
13.4486
 20
-19.313
 11
13.1384
 21
-19.2721
  0
LINE
  8
0
 10
-8.60792
 20
-22.0872
 11
-9.53127
 21
-21.7047
  0
LINE
  8
0
 10
-9.53127
 20
-21.7047
 11
-9.79803
 21
-21.5412
  0
LINE
  8
0
 10
-9.79803
 20
-21.5412
 11
-10.0012
 21
-21.3033
  0
LINE
  8
0
 10
-10.0012
 20
-21.3033
 11
-10.121
 21
-21.0143
  0
LINE
  8
0
 10
-10.121
 20
-21.0143
 11
-10.1455
 21
-20.7024
  0
LINE
  8
0
 10
-10.1455
 20
-20.7024
 11
-10.0725
 21
-20.3982
  0
LINE
  8
0
 10
-10.0725
 20
-20.3982
 11
-9.17323
 21
-18.6058
  0
LINE
  8
0
 10
-9.17323
 20
-18.6058
 11
-9.00976
 21
-18.3391
  0
LINE
  8
0
 10
-9.00976
 20
-18.3391
 11
-8.77185
 21
-18.1359
  0
LINE
  8
0
 10
-8.77185
 20
-18.1359
 11
-8.4828
 21
-18.0162
  0
LINE
  8
0
 10
-8.4828
 20
-18.0162
 11
-8.17089
 21
-17.9916
  0
LINE
  8
0
 10
-8.17089
 20
-17.9916
 11
-7.86667
 21
-18.0646
  0
LINE
  8
0
 10
-7.86667
 20
-18.0646
 11
-7.21106
 21
-18.3362
  0
LINE
  8
0
 10
-7.21106
 20
-18.3362
 11
-6.94429
 21
-18.4997
  0
LINE
  8
0
 10
-6.94429
 20
-18.4997
 11
-6.7411
 21
-18.7376
  0
LINE
  8
0
 10
-6.7411
 20
-18.7376
 11
-6.62137
 21
-19.0266
  0
LINE
  8
0
 10
-6.62137
 20
-19.0266
 11
-6.59683
 21
-19.3385
  0
LINE
  8
0
 10
-6.59683
 20
-19.3385
 11
-6.66986
 21
-19.6428
  0
LINE
  8
0
 10
-6.66986
 20
-19.6428
 11
-7.30136
 21
-21.546
  0
LINE
  8
0
 10
-7.30136
 20
-21.546
 11
-7.46483
 21
-21.8127
  0
LINE
  8
0
 10
-7.46483
 20
-21.8127
 11
-7.70274
 21
-22.0159
  0
LINE
  8
0
 10
-7.70274
 20
-22.0159
 11
-7.99179
 21
-22.1357
  0
LINE
  8
0
 10
-7.99179
 20
-22.1357
 11
-8.3037
 21
-22.1602
  0
LINE
  8
0
 10
-8.3037
 20
-22.1602
 11
-8.60792
 21
-22.0872
  0
LINE
  8
0
 10
7.99179
 20
-22.1357
 11
7.70274
 21
-22.0159
  0
LINE
  8
0
 10
7.70274
 20
-22.0159
 11
7.46483
 21
-21.8127
  0
LINE
  8
0
 10
7.46483
 20
-21.8127
 11
7.30136
 21
-21.546
  0
LINE
  8
0
 10
7.30136
 20
-21.546
 11
6.66986
 21
-19.6428
  0
LINE
  8
0
 10
6.66986
 20
-19.6428
 11
6.59683
 21
-19.3385
  0
LINE
  8
0
 10
6.59683
 20
-19.3385
 11
6.62137
 21
-19.0266
  0
LINE
  8
0
 10
6.62137
 20
-19.0266
 11
6.7411
 21
-18.7376
  0
LINE
  8
0
 10
6.7411
 20
-18.7376
 11
6.94429
 21
-18.4997
  0
LINE
  8
0
 10
6.94429
 20
-18.4997
 11
7.21106
 21
-18.3362
  0
LINE
  8
0
 10
7.21106
 20
-18.3362
 11
7.86667
 21
-18.0646
  0
LINE
  8
0
 10
7.86667
 20
-18.0646
 11
8.17089
 21
-17.9916
  0
LINE
  8
0
 10
8.17089
 20
-17.9916
 11
8.4828
 21
-18.0162
  0
LINE
  8
0
 10
8.4828
 20
-18.0162
 11
8.77185
 21
-18.1359
  0
LINE
  8
0
 10
8.77185
 20
-18.1359
 11
9.00976
 21
-18.3391
  0
LINE
  8
0
 10
9.00976
 20
-18.3391
 11
9.17323
 21
-18.6058
  0
LINE
  8
0
 10
9.17323
 20
-18.6058
 11
10.0725
 21
-20.3982
  0
LINE
  8
0
 10
10.0725
 20
-20.3982
 11
10.1455
 21
-20.7024
  0
LINE
  8
0
 10
10.1455
 20
-20.7024
 11
10.121
 21
-21.0143
  0
LINE
  8
0
 10
10.121
 20
-21.0143
 11
10.0012
 21
-21.3033
  0
LINE
  8
0
 10
10.0012
 20
-21.3033
 11
9.79803
 21
-21.5412
  0
LINE
  8
0
 10
9.79803
 20
-21.5412
 11
9.53127
 21
-21.7047
  0
LINE
  8
0
 10
9.53127
 20
-21.7047
 11
8.60792
 21
-22.0872
  0
LINE
  8
0
 10
8.60792
 20
-22.0872
 11
8.3037
 21
-22.1602
  0
LINE
  8
0
 10
8.3037
 20
-22.1602
 11
7.99179
 21
-22.1357
  0
LINE
  8
0
 10
-0.209057
 20
-37.989
 11
-2.09315
 21
-37.9397
  0
LINE
  8
0
 10
-2.09315
 20
-37.9397
 11
-3.97208
 21
-37.7918
  0
LINE
  8
0
 10
-3.97208
 20
-37.7918
 11
-5.8407
 21
-37.5458
  0
LINE
  8
0
 10
-5.8407
 20
-37.5458
 11
-7.69388
 21
-37.2024
  0
LINE
  8
0
 10
-7.69388
 20
-37.2024
 11
-8.10285
 21
-37.1154
  0
LINE
  8
0
 10
-8.10285
 20
-37.1154
 11
-9.93552
 21
-36.6754
  0
LINE
  8
0
 10
-9.93552
 20
-36.6754
 11
-11.7426
 21
-36.1401
  0
LINE
  8
0
 10
-11.7426
 20
-36.1401
 11
-13.5193
 21
-35.511
  0
LINE
  8
0
 10
-13.5193
 20
-35.511
 11
-15.2606
 21
-34.7897
  0
LINE
  8
0
 10
-15.2606
 20
-34.7897
 11
-15.6425
 21
-34.6197
  0
LINE
  8
0
 10
-15.6425
 20
-34.6197
 11
-17.3437
 21
-33.8083
  0
LINE
  8
0
 10
-17.3437
 20
-33.8083
 11
-19
 21
-32.909
  0
LINE
  8
0
 10
-19
 20
-32.909
 11
-20.607
 21
-31.9242
  0
LINE
  8
0
 10
-20.607
 20
-31.9242
 11
-22.1603
 21
-30.8567
  0
LINE
  8
0
 10
-22.1603
 20
-30.8567
 11
-22.4985
 21
-30.6109
  0
LINE
  8
0
 10
-22.4985
 20
-30.6109
 11
-23.9938
 21
-29.4635
  0
LINE
  8
0
 10
-23.9938
 20
-29.4635
 11
-24.4355
 21
-29.0863
  0
LINE
  8
0
 10
-24.4355
 20
-29.0863
 11
-24.4798
 21
-29.0485
  0
LINE
  8
0
 10
-24.4798
 20
-29.0485
 11
-24.6125
 21
-28.9351
  0
LINE
  8
0
 10
-24.6125
 20
-28.9351
 11
-24.8334
 21
-28.7465
  0
LINE
  8
0
 10
-24.8334
 20
-28.7465
 11
-25.1417
 21
-28.4832
  0
LINE
  8
0
 10
-25.1417
 20
-28.4832
 11
-25.427
 21
-28.2395
  0
LINE
  8
0
 10
-25.427
 20
-28.2395
 11
-25.5257
 21
-28.1458
  0
LINE
  8
0
 10
-25.5257
 20
-28.1458
 11
-25.9581
 21
-27.7354
  0
LINE
  8
0
 10
-25.9581
 20
-27.7354
 11
-26.1247
 21
-27.5773
  0
LINE
  8
0
 10
-26.1247
 20
-27.5773
 11
-26.4045
 21
-27.2666
  0
LINE
  8
0
 10
-26.4045
 20
-27.2666
 11
-26.6136
 21
-26.9045
  0
LINE
  8
0
 10
-26.6136
 20
-26.9045
 11
-26.7428
 21
-26.5069
  0
LINE
  8
0
 10
-26.7428
 20
-26.5069
 11
-26.7865
 21
-26.091
  0
LINE
  8
0
 10
-26.7865
 20
-26.091
 11
-26.7428
 21
-25.6752
  0
LINE
  8
0
 10
-26.7428
 20
-25.6752
 11
-26.6136
 21
-25.2776
  0
LINE
  8
0
 10
-26.6136
 20
-25.2776
 11
-26.4045
 21
-24.9155
  0
LINE
  8
0
 10
-26.4045
 20
-24.9155
 11
-26.1247
 21
-24.6047
  0
LINE
  8
0
 10
-26.1247
 20
-24.6047
 11
-25.8167
 21
-24.2805
  0
LINE
  8
0
 10
-25.8167
 20
-24.2805
 11
-25.2914
 21
-23.7276
  0
LINE
  8
0
 10
-25.2914
 20
-23.7276
 11
-24.7005
 21
-23.1055
  0
LINE
  8
0
 10
-24.7005
 20
-23.1055
 11
-24.0454
 21
-22.416
  0
LINE
  8
0
 10
-24.0454
 20
-22.416
 11
-23.3282
 21
-21.661
  0
LINE
  8
0
 10
-23.3282
 20
-21.661
 11
-22.5507
 21
-20.8426
  0
LINE
  8
0
 10
-22.5507
 20
-20.8426
 11
-21.715
 21
-19.9629
  0
LINE
  8
0
 10
-21.715
 20
-19.9629
 11
-20.8235
 21
-19.0245
  0
LINE
  8
0
 10
-20.8235
 20
-19.0245
 11
-20.3412
 21
-18.5168
  0
LINE
  8
0
 10
-20.3412
 20
-18.5168
 11
-20.003
 21
-18.2711
  0
LINE
  8
0
 10
-20.003
 20
-18.2711
 11
-19.621
 21
-18.101
  0
LINE
  8
0
 10
-19.621
 20
-18.101
 11
-19.212
 21
-18.0141
  0
LINE
  8
0
 10
-19.212
 20
-18.0141
 11
-18.7939
 21
-18.0141
  0
LINE
  8
0
 10
-18.7939
 20
-18.0141
 11
-18.3849
 21
-18.101
  0
LINE
  8
0
 10
-18.3849
 20
-18.101
 11
-18.003
 21
-18.2711
  0
LINE
  8
0
 10
-18.003
 20
-18.2711
 11
-17.6647
 21
-18.5168
  0
LINE
  8
0
 10
-17.6647
 20
-18.5168
 11
-17.1297
 21
-19.0245
  0
LINE
  8
0
 10
-17.1297
 20
-19.0245
 11
-16.031
 21
-19.9629
  0
LINE
  8
0
 10
-16.031
 20
-19.9629
 11
-15.0505
 21
-20.7153
  0
LINE
  8
0
 10
-15.0505
 20
-20.7153
 11
-14.032
 21
-21.4153
  0
LINE
  8
0
 10
-14.032
 20
-21.4153
 11
-12.8
 21
-22.1702
  0
LINE
  8
0
 10
-12.8
 20
-22.1702
 11
-11.5301
 21
-22.8597
  0
LINE
  8
0
 10
-11.5301
 20
-22.8597
 11
-10.4147
 21
-23.3918
  0
LINE
  8
0
 10
-10.4147
 20
-23.3918
 11
-9.27292
 21
-23.8647
  0
LINE
  8
0
 10
-9.27292
 20
-23.8647
 11
-7.91084
 21
-24.347
  0
LINE
  8
0
 10
-7.91084
 20
-24.347
 11
-6.52537
 21
-24.7574
  0
LINE
  8
0
 10
-6.52537
 20
-24.7574
 11
-5.32367
 21
-25.0459
  0
LINE
  8
0
 10
-5.32367
 20
-25.0459
 11
-4.10853
 21
-25.2712
  0
LINE
  8
0
 10
-4.10853
 20
-25.2712
 11
-2.67593
 21
-25.4598
  0
LINE
  8
0
 10
-2.67593
 20
-25.4598
 11
-1.23542
 21
-25.5731
  0
LINE
  8
0
 10
-1.23542
 20
-25.5731
 11
0
 21
-25.6055
  0
LINE
  8
0
 10
0
 20
-25.6055
 11
1.23542
 21
-25.5731
  0
LINE
  8
0
 10
1.23542
 20
-25.5731
 11
2.67593
 21
-25.4598
  0
LINE
  8
0
 10
2.67593
 20
-25.4598
 11
4.10853
 21
-25.2712
  0
LINE
  8
0
 10
4.10853
 20
-25.2712
 11
5.32367
 21
-25.0459
  0
LINE
  8
0
 10
5.32367
 20
-25.0459
 11
6.52537
 21
-24.7574
  0
LINE
  8
0
 10
6.52537
 20
-24.7574
 11
7.91084
 21
-24.347
  0
LINE
  8
0
 10
7.91084
 20
-24.347
 11
9.27292
 21
-23.8647
  0
LINE
  8
0
 10
9.27292
 20
-23.8647
 11
10.4147
 21
-23.3918
  0
LINE
  8
0
 10
10.4147
 20
-23.3918
 11
11.5301
 21
-22.8597
  0
LINE
  8
0
 10
11.5301
 20
-22.8597
 11
12.8
 21
-22.1702
  0
LINE
  8
0
 10
12.8
 20
-22.1702
 11
14.032
 21
-21.4153
  0
LINE
  8
0
 10
14.032
 20
-21.4153
 11
15.0505
 21
-20.7153
  0
LINE
  8
0
 10
15.0505
 20
-20.7153
 11
16.031
 21
-19.9629
  0
LINE
  8
0
 10
16.031
 20
-19.9629
 11
17.1297
 21
-19.0245
  0
LINE
  8
0
 10
17.1297
 20
-19.0245
 11
17.6647
 21
-18.5168
  0
LINE
  8
0
 10
17.6647
 20
-18.5168
 11
18.003
 21
-18.2711
  0
LINE
  8
0
 10
18.003
 20
-18.2711
 11
18.3849
 21
-18.101
  0
LINE
  8
0
 10
18.3849
 20
-18.101
 11
18.7939
 21
-18.0141
  0
LINE
  8
0
 10
18.7939
 20
-18.0141
 11
19.212
 21
-18.0141
  0
LINE
  8
0
 10
19.212
 20
-18.0141
 11
19.621
 21
-18.101
  0
LINE
  8
0
 10
19.621
 20
-18.101
 11
20.003
 21
-18.2711
  0
LINE
  8
0
 10
20.003
 20
-18.2711
 11
20.3412
 21
-18.5168
  0
LINE
  8
0
 10
20.3412
 20
-18.5168
 11
20.8235
 21
-19.0245
  0
LINE
  8
0
 10
20.8235
 20
-19.0245
 11
21.715
 21
-19.9629
  0
LINE
  8
0
 10
21.715
 20
-19.9629
 11
22.5507
 21
-20.8426
  0
LINE
  8
0
 10
22.5507
 20
-20.8426
 11
23.3282
 21
-21.661
  0
LINE
  8
0
 10
23.3282
 20
-21.661
 11
24.0454
 21
-22.416
  0
LINE
  8
0
 10
24.0454
 20
-22.416
 11
24.7005
 21
-23.1055
  0
LINE
  8
0
 10
24.7005
 20
-23.1055
 11
25.2914
 21
-23.7276
  0
LINE
  8
0
 10
25.2914
 20
-23.7276
 11
25.8167
 21
-24.2805
  0
LINE
  8
0
 10
25.8167
 20
-24.2805
 11
26.1247
 21
-24.6047
  0
LINE
  8
0
 10
26.1247
 20
-24.6047
 11
26.4045
 21
-24.9155
  0
LINE
  8
0
 10
26.4045
 20
-24.9155
 11
26.6136
 21
-25.2776
  0
LINE
  8
0
 10
26.6136
 20
-25.2776
 11
26.7428
 21
-25.6752
  0
LINE
  8
0
 10
26.7428
 20
-25.6752
 11
26.7865
 21
-26.091
  0
LINE
  8
0
 10
26.7865
 20
-26.091
 11
26.7428
 21
-26.5069
  0
LINE
  8
0
 10
26.7428
 20
-26.5069
 11
26.6136
 21
-26.9045
  0
LINE
  8
0
 10
26.6136
 20
-26.9045
 11
26.4045
 21
-27.2666
  0
LINE
  8
0
 10
26.4045
 20
-27.2666
 11
26.1247
 21
-27.5773
  0
LINE
  8
0
 10
26.1247
 20
-27.5773
 11
25.9581
 21
-27.7354
  0
LINE
  8
0
 10
25.9581
 20
-27.7354
 11
25.5257
 21
-28.1458
  0
LINE
  8
0
 10
25.5257
 20
-28.1458
 11
25.427
 21
-28.2395
  0
LINE
  8
0
 10
25.427
 20
-28.2395
 11
25.1417
 21
-28.4832
  0
LINE
  8
0
 10
25.1417
 20
-28.4832
 11
24.8334
 21
-28.7465
  0
LINE
  8
0
 10
24.8334
 20
-28.7465
 11
24.6125
 21
-28.9351
  0
LINE
  8
0
 10
24.6125
 20
-28.9351
 11
24.4798
 21
-29.0485
  0
LINE
  8
0
 10
24.4798
 20
-29.0485
 11
24.4355
 21
-29.0863
  0
LINE
  8
0
 10
24.4355
 20
-29.0863
 11
23.9938
 21
-29.4635
  0
LINE
  8
0
 10
23.9938
 20
-29.4635
 11
22.4985
 21
-30.6109
  0
LINE
  8
0
 10
22.4985
 20
-30.6109
 11
22.1603
 21
-30.8567
  0
LINE
  8
0
 10
22.1603
 20
-30.8567
 11
20.607
 21
-31.9242
  0
LINE
  8
0
 10
20.607
 20
-31.9242
 11
19
 21
-32.909
  0
LINE
  8
0
 10
19
 20
-32.909
 11
17.3437
 21
-33.8083
  0
LINE
  8
0
 10
17.3437
 20
-33.8083
 11
15.6425
 21
-34.6197
  0
LINE
  8
0
 10
15.6425
 20
-34.6197
 11
15.2606
 21
-34.7897
  0
LINE
  8
0
 10
15.2606
 20
-34.7897
 11
13.5193
 21
-35.511
  0
LINE
  8
0
 10
13.5193
 20
-35.511
 11
11.7426
 21
-36.1401
  0
LINE
  8
0
 10
11.7426
 20
-36.1401
 11
9.93552
 21
-36.6754
  0
LINE
  8
0
 10
9.93552
 20
-36.6754
 11
8.10285
 21
-37.1154
  0
LINE
  8
0
 10
8.10285
 20
-37.1154
 11
7.69388
 21
-37.2024
  0
LINE
  8
0
 10
7.69388
 20
-37.2024
 11
5.8407
 21
-37.5458
  0
LINE
  8
0
 10
5.8407
 20
-37.5458
 11
3.97208
 21
-37.7918
  0
LINE
  8
0
 10
3.97208
 20
-37.7918
 11
2.09315
 21
-37.9397
  0
LINE
  8
0
 10
2.09315
 20
-37.9397
 11
0.209057
 21
-37.989
  0
LINE
  8
0
 10
0.209057
 20
-37.989
 11
-0.209057
 21
-37.989
  0
LINE
  8
0
 10
2.28527
 20
-23.5543
 11
1.99035
 21
-23.4498
  0
LINE
  8
0
 10
1.99035
 20
-23.4498
 11
1.74213
 21
-23.2594
  0
LINE
  8
0
 10
1.74213
 20
-23.2594
 11
1.56492
 21
-23.0015
  0
LINE
  8
0
 10
1.56492
 20
-23.0015
 11
1.47606
 21
-22.7015
  0
LINE
  8
0
 10
1.47606
 20
-22.7015
 11
1.35867
 21
-20.6997
  0
LINE
  8
0
 10
1.35867
 20
-20.6997
 11
1.36686
 21
-20.387
  0
LINE
  8
0
 10
1.36686
 20
-20.387
 11
1.4713
 21
-20.0921
  0
LINE
  8
0
 10
1.4713
 20
-20.0921
 11
1.66176
 21
-19.8438
  0
LINE
  8
0
 10
1.66176
 20
-19.8438
 11
1.9196
 21
-19.6666
  0
LINE
  8
0
 10
1.9196
 20
-19.6666
 11
2.21959
 21
-19.5778
  0
LINE
  8
0
 10
2.21959
 20
-19.5778
 11
2.92314
 21
-19.4852
  0
LINE
  8
0
 10
2.92314
 20
-19.4852
 11
3.2359
 21
-19.4933
  0
LINE
  8
0
 10
3.2359
 20
-19.4933
 11
3.53083
 21
-19.5978
  0
LINE
  8
0
 10
3.53083
 20
-19.5978
 11
3.77904
 21
-19.7882
  0
LINE
  8
0
 10
3.77904
 20
-19.7882
 11
3.95625
 21
-20.0461
  0
LINE
  8
0
 10
3.95625
 20
-20.0461
 11
4.04511
 21
-20.3461
  0
LINE
  8
0
 10
4.04511
 20
-20.3461
 11
4.44983
 21
-22.31
  0
LINE
  8
0
 10
4.44983
 20
-22.31
 11
4.44164
 21
-22.6228
  0
LINE
  8
0
 10
4.44164
 20
-22.6228
 11
4.3372
 21
-22.9177
  0
LINE
  8
0
 10
4.3372
 20
-22.9177
 11
4.14674
 21
-23.1659
  0
LINE
  8
0
 10
4.14674
 20
-23.1659
 11
3.88889
 21
-23.3432
  0
LINE
  8
0
 10
3.88889
 20
-23.3432
 11
3.58891
 21
-23.432
  0
LINE
  8
0
 10
3.58891
 20
-23.432
 11
2.59803
 21
-23.5625
  0
LINE
  8
0
 10
2.59803
 20
-23.5625
 11
2.28527
 21
-23.5543
  0
LINE
  8
0
 10
-3.58891
 20
-23.432
 11
-3.88889
 21
-23.3432
  0
LINE
  8
0
 10
-3.88889
 20
-23.3432
 11
-4.14674
 21
-23.1659
  0
LINE
  8
0
 10
-4.14674
 20
-23.1659
 11
-4.3372
 21
-22.9177
  0
LINE
  8
0
 10
-4.3372
 20
-22.9177
 11
-4.44164
 21
-22.6228
  0
LINE
  8
0
 10
-4.44164
 20
-22.6228
 11
-4.44983
 21
-22.31
  0
LINE
  8
0
 10
-4.44983
 20
-22.31
 11
-4.04511
 21
-20.3461
  0
LINE
  8
0
 10
-4.04511
 20
-20.3461
 11
-3.95625
 21
-20.0461
  0
LINE
  8
0
 10
-3.95625
 20
-20.0461
 11
-3.77904
 21
-19.7882
  0
LINE
  8
0
 10
-3.77904
 20
-19.7882
 11
-3.53083
 21
-19.5978
  0
LINE
  8
0
 10
-3.53083
 20
-19.5978
 11
-3.2359
 21
-19.4933
  0
LINE
  8
0
 10
-3.2359
 20
-19.4933
 11
-2.92314
 21
-19.4852
  0
LINE
  8
0
 10
-2.92314
 20
-19.4852
 11
-2.21959
 21
-19.5778
  0
LINE
  8
0
 10
-2.21959
 20
-19.5778
 11
-1.9196
 21
-19.6666
  0
LINE
  8
0
 10
-1.9196
 20
-19.6666
 11
-1.66176
 21
-19.8438
  0
LINE
  8
0
 10
-1.66176
 20
-19.8438
 11
-1.4713
 21
-20.0921
  0
LINE
  8
0
 10
-1.4713
 20
-20.0921
 11
-1.36686
 21
-20.387
  0
LINE
  8
0
 10
-1.36686
 20
-20.387
 11
-1.35867
 21
-20.6997
  0
LINE
  8
0
 10
-1.35867
 20
-20.6997
 11
-1.47606
 21
-22.7015
  0
LINE
  8
0
 10
-1.47606
 20
-22.7015
 11
-1.56492
 21
-23.0015
  0
LINE
  8
0
 10
-1.56492
 20
-23.0015
 11
-1.74213
 21
-23.2594
  0
LINE
  8
0
 10
-1.74213
 20
-23.2594
 11
-1.99035
 21
-23.4498
  0
LINE
  8
0
 10
-1.99035
 20
-23.4498
 11
-2.28527
 21
-23.5543
  0
LINE
  8
0
 10
-2.28527
 20
-23.5543
 11
-2.59803
 21
-23.5625
  0
LINE
  8
0
 10
-2.59803
 20
-23.5625
 11
-3.58891
 21
-23.432
  0
ENDSEC
  0
SECTION
  2
OBJECTS
  0
DICTIONARY
  0
ENDSEC
  0
EOF
