  0
SECTION
  2
BLOCKS
  0
ENDSEC
  0
SECTION
  2
ENTITIES
  0
LINE
  8
0
 10
2.09344
 20
-39.9452
 11
4.18114
 21
-39.7809
  0
LINE
  8
0
 10
4.18114
 20
-39.7809
 11
6.25738
 21
-39.5075
  0
LINE
  8
0
 10
6.25738
 20
-39.5075
 11
8.31647
 21
-39.1259
  0
LINE
  8
0
 10
8.31647
 20
-39.1259
 11
10.3528
 21
-38.637
  0
LINE
  8
0
 10
10.3528
 20
-38.637
 11
12.3607
 21
-38.0423
  0
LINE
  8
0
 10
12.3607
 20
-38.0423
 11
14.3347
 21
-37.3432
  0
LINE
  8
0
 10
14.3347
 20
-37.3432
 11
16.2695
 21
-36.5418
  0
LINE
  8
0
 10
16.2695
 20
-36.5418
 11
18.1596
 21
-35.6403
  0
LINE
  8
0
 10
18.1596
 20
-35.6403
 11
20
 21
-34.641
  0
LINE
  8
0
 10
20
 20
-34.641
 11
21.7856
 21
-33.5468
  0
LINE
  8
0
 10
21.7856
 20
-33.5468
 11
23.5114
 21
-32.3607
  0
LINE
  8
0
 10
23.5114
 20
-32.3607
 11
25.1728
 21
-31.0858
  0
LINE
  8
0
 10
25.1728
 20
-31.0858
 11
26.7652
 21
-29.7258
  0
LINE
  8
0
 10
26.7652
 20
-29.7258
 11
28.2843
 21
-28.2843
  0
LINE
  8
0
 10
28.2843
 20
-28.2843
 11
29.7258
 21
-26.7652
  0
LINE
  8
0
 10
29.7258
 20
-26.7652
 11
31.0858
 21
-25.1728
  0
LINE
  8
0
 10
31.0858
 20
-25.1728
 11
32.3607
 21
-23.5114
  0
LINE
  8
0
 10
32.3607
 20
-23.5114
 11
33.5468
 21
-21.7856
  0
LINE
  8
0
 10
33.5468
 20
-21.7856
 11
34.641
 21
-20
  0
LINE
  8
0
 10
34.641
 20
-20
 11
35.6403
 21
-18.1596
  0
LINE
  8
0
 10
35.6403
 20
-18.1596
 11
36.5418
 21
-16.2695
  0
LINE
  8
0
 10
36.5418
 20
-16.2695
 11
37.3432
 21
-14.3347
  0
LINE
  8
0
 10
37.3432
 20
-14.3347
 11
38.0423
 21
-12.3607
  0
LINE
  8
0
 10
38.0423
 20
-12.3607
 11
38.637
 21
-10.3528
  0
LINE
  8
0
 10
38.637
 20
-10.3528
 11
39.1259
 21
-8.31647
  0
LINE
  8
0
 10
39.1259
 20
-8.31647
 11
39.5075
 21
-6.25738
  0
LINE
  8
0
 10
39.5075
 20
-6.25738
 11
39.7809
 21
-4.18114
  0
LINE
  8
0
 10
39.7809
 20
-4.18114
 11
39.9452
 21
-2.09344
  0
LINE
  8
0
 10
39.9452
 20
-2.09344
 11
40
 21
0
  0
LINE
  8
0
 10
40
 20
0
 11
39.9452
 21
2.09344
  0
LINE
  8
0
 10
39.9452
 20
2.09344
 11
39.7809
 21
4.18114
  0
LINE
  8
0
 10
39.7809
 20
4.18114
 11
39.5075
 21
6.25738
  0
LINE
  8
0
 10
39.5075
 20
6.25738
 11
39.1259
 21
8.31647
  0
LINE
  8
0
 10
39.1259
 20
8.31647
 11
38.637
 21
10.3528
  0
LINE
  8
0
 10
38.637
 20
10.3528
 11
38.0423
 21
12.3607
  0
LINE
  8
0
 10
38.0423
 20
12.3607
 11
37.3432
 21
14.3347
  0
LINE
  8
0
 10
37.3432
 20
14.3347
 11
36.5418
 21
16.2695
  0
LINE
  8
0
 10
36.5418
 20
16.2695
 11
35.6403
 21
18.1596
  0
LINE
  8
0
 10
35.6403
 20
18.1596
 11
34.641
 21
20
  0
LINE
  8
0
 10
34.641
 20
20
 11
33.5468
 21
21.7856
  0
LINE
  8
0
 10
33.5468
 20
21.7856
 11
32.3607
 21
23.5114
  0
LINE
  8
0
 10
32.3607
 20
23.5114
 11
31.0858
 21
25.1728
  0
LINE
  8
0
 10
31.0858
 20
25.1728
 11
29.7258
 21
26.7652
  0
LINE
  8
0
 10
29.7258
 20
26.7652
 11
28.2843
 21
28.2843
  0
LINE
  8
0
 10
28.2843
 20
28.2843
 11
26.7652
 21
29.7258
  0
LINE
  8
0
 10
26.7652
 20
29.7258
 11
25.1728
 21
31.0858
  0
LINE
  8
0
 10
25.1728
 20
31.0858
 11
23.5114
 21
32.3607
  0
LINE
  8
0
 10
23.5114
 20
32.3607
 11
21.7856
 21
33.5468
  0
LINE
  8
0
 10
21.7856
 20
33.5468
 11
20
 21
34.641
  0
LINE
  8
0
 10
20
 20
34.641
 11
18.1596
 21
35.6403
  0
LINE
  8
0
 10
18.1596
 20
35.6403
 11
16.2695
 21
36.5418
  0
LINE
  8
0
 10
16.2695
 20
36.5418
 11
14.3347
 21
37.3432
  0
LINE
  8
0
 10
14.3347
 20
37.3432
 11
12.3607
 21
38.0423
  0
LINE
  8
0
 10
12.3607
 20
38.0423
 11
10.3528
 21
38.637
  0
LINE
  8
0
 10
10.3528
 20
38.637
 11
8.31647
 21
39.1259
  0
LINE
  8
0
 10
8.31647
 20
39.1259
 11
6.25738
 21
39.5075
  0
LINE
  8
0
 10
6.25738
 20
39.5075
 11
4.18114
 21
39.7809
  0
LINE
  8
0
 10
4.18114
 20
39.7809
 11
2.09344
 21
39.9452
  0
LINE
  8
0
 10
2.09344
 20
39.9452
 11
0
 21
40
  0
LINE
  8
0
 10
0
 20
40
 11
-2.09344
 21
39.9452
  0
LINE
  8
0
 10
-2.09344
 20
39.9452
 11
-4.18114
 21
39.7809
  0
LINE
  8
0
 10
-4.18114
 20
39.7809
 11
-6.25738
 21
39.5075
  0
LINE
  8
0
 10
-6.25738
 20
39.5075
 11
-8.31647
 21
39.1259
  0
LINE
  8
0
 10
-8.31647
 20
39.1259
 11
-10.3528
 21
38.637
  0
LINE
  8
0
 10
-10.3528
 20
38.637
 11
-12.3607
 21
38.0423
  0
LINE
  8
0
 10
-12.3607
 20
38.0423
 11
-14.3347
 21
37.3432
  0
LINE
  8
0
 10
-14.3347
 20
37.3432
 11
-16.2695
 21
36.5418
  0
LINE
  8
0
 10
-16.2695
 20
36.5418
 11
-18.1596
 21
35.6403
  0
LINE
  8
0
 10
-18.1596
 20
35.6403
 11
-20
 21
34.641
  0
LINE
  8
0
 10
-20
 20
34.641
 11
-21.7856
 21
33.5468
  0
LINE
  8
0
 10
-21.7856
 20
33.5468
 11
-23.5114
 21
32.3607
  0
LINE
  8
0
 10
-23.5114
 20
32.3607
 11
-25.1728
 21
31.0858
  0
LINE
  8
0
 10
-25.1728
 20
31.0858
 11
-26.7652
 21
29.7258
  0
LINE
  8
0
 10
-26.7652
 20
29.7258
 11
-28.2843
 21
28.2843
  0
LINE
  8
0
 10
-28.2843
 20
28.2843
 11
-29.7258
 21
26.7652
  0
LINE
  8
0
 10
-29.7258
 20
26.7652
 11
-31.0858
 21
25.1728
  0
LINE
  8
0
 10
-31.0858
 20
25.1728
 11
-32.3607
 21
23.5114
  0
LINE
  8
0
 10
-32.3607
 20
23.5114
 11
-33.5468
 21
21.7856
  0
LINE
  8
0
 10
-33.5468
 20
21.7856
 11
-34.641
 21
20
  0
LINE
  8
0
 10
-34.641
 20
20
 11
-35.6403
 21
18.1596
  0
LINE
  8
0
 10
-35.6403
 20
18.1596
 11
-36.5418
 21
16.2695
  0
LINE
  8
0
 10
-36.5418
 20
16.2695
 11
-37.3432
 21
14.3347
  0
LINE
  8
0
 10
-37.3432
 20
14.3347
 11
-38.0423
 21
12.3607
  0
LINE
  8
0
 10
-38.0423
 20
12.3607
 11
-38.637
 21
10.3528
  0
LINE
  8
0
 10
-38.637
 20
10.3528
 11
-39.1259
 21
8.31647
  0
LINE
  8
0
 10
-39.1259
 20
8.31647
 11
-39.5075
 21
6.25738
  0
LINE
  8
0
 10
-39.5075
 20
6.25738
 11
-39.7809
 21
4.18114
  0
LINE
  8
0
 10
-39.7809
 20
4.18114
 11
-39.9452
 21
2.09344
  0
LINE
  8
0
 10
-39.9452
 20
2.09344
 11
-40
 21
0
  0
LINE
  8
0
 10
-40
 20
0
 11
-39.9452
 21
-2.09344
  0
LINE
  8
0
 10
-39.9452
 20
-2.09344
 11
-39.7809
 21
-4.18114
  0
LINE
  8
0
 10
-39.7809
 20
-4.18114
 11
-39.5075
 21
-6.25738
  0
LINE
  8
0
 10
-39.5075
 20
-6.25738
 11
-39.1259
 21
-8.31647
  0
LINE
  8
0
 10
-39.1259
 20
-8.31647
 11
-38.637
 21
-10.3528
  0
LINE
  8
0
 10
-38.637
 20
-10.3528
 11
-38.0423
 21
-12.3607
  0
LINE
  8
0
 10
-38.0423
 20
-12.3607
 11
-37.3432
 21
-14.3347
  0
LINE
  8
0
 10
-37.3432
 20
-14.3347
 11
-36.5418
 21
-16.2695
  0
LINE
  8
0
 10
-36.5418
 20
-16.2695
 11
-35.6403
 21
-18.1596
  0
LINE
  8
0
 10
-35.6403
 20
-18.1596
 11
-34.641
 21
-20
  0
LINE
  8
0
 10
-34.641
 20
-20
 11
-33.5468
 21
-21.7856
  0
LINE
  8
0
 10
-33.5468
 20
-21.7856
 11
-32.3607
 21
-23.5114
  0
LINE
  8
0
 10
-32.3607
 20
-23.5114
 11
-31.0858
 21
-25.1728
  0
LINE
  8
0
 10
-31.0858
 20
-25.1728
 11
-29.7258
 21
-26.7652
  0
LINE
  8
0
 10
-29.7258
 20
-26.7652
 11
-28.2843
 21
-28.2843
  0
LINE
  8
0
 10
-28.2843
 20
-28.2843
 11
-26.7652
 21
-29.7258
  0
LINE
  8
0
 10
-26.7652
 20
-29.7258
 11
-25.1728
 21
-31.0858
  0
LINE
  8
0
 10
-25.1728
 20
-31.0858
 11
-23.5114
 21
-32.3607
  0
LINE
  8
0
 10
-23.5114
 20
-32.3607
 11
-21.7856
 21
-33.5468
  0
LINE
  8
0
 10
-21.7856
 20
-33.5468
 11
-20
 21
-34.641
  0
LINE
  8
0
 10
-20
 20
-34.641
 11
-18.1596
 21
-35.6403
  0
LINE
  8
0
 10
-18.1596
 20
-35.6403
 11
-16.2695
 21
-36.5418
  0
LINE
  8
0
 10
-16.2695
 20
-36.5418
 11
-14.3347
 21
-37.3432
  0
LINE
  8
0
 10
-14.3347
 20
-37.3432
 11
-12.3607
 21
-38.0423
  0
LINE
  8
0
 10
-12.3607
 20
-38.0423
 11
-10.3528
 21
-38.637
  0
LINE
  8
0
 10
-10.3528
 20
-38.637
 11
-8.31647
 21
-39.1259
  0
LINE
  8
0
 10
-8.31647
 20
-39.1259
 11
-6.25738
 21
-39.5075
  0
LINE
  8
0
 10
-6.25738
 20
-39.5075
 11
-4.18114
 21
-39.7809
  0
LINE
  8
0
 10
-4.18114
 20
-39.7809
 11
-2.09344
 21
-39.9452
  0
LINE
  8
0
 10
-2.09344
 20
-39.9452
 11
0
 21
-40
  0
LINE
  8
0
 10
0
 20
-40
 11
2.09344
 21
-39.9452
  0
LINE
  8
0
 10
-0.386271
 20
21.4112
 11
-0.734731
 21
21.5887
  0
LINE
  8
0
 10
-0.734731
 20
21.5887
 11
-1.01127
 21
21.8653
  0
LINE
  8
0
 10
-1.01127
 20
21.8653
 11
-1.18882
 21
22.2137
  0
LINE
  8
0
 10
-1.18882
 20
22.2137
 11
-1.25
 21
22.6
  0
LINE
  8
0
 10
-1.25
 20
22.6
 11
-1.18882
 21
22.9863
  0
LINE
  8
0
 10
-1.18882
 20
22.9863
 11
-1.01127
 21
23.3347
  0
LINE
  8
0
 10
-1.01127
 20
23.3347
 11
-0.734731
 21
23.6113
  0
LINE
  8
0
 10
-0.734731
 20
23.6113
 11
-0.386271
 21
23.7888
  0
LINE
  8
0
 10
-0.386271
 20
23.7888
 11
0
 21
23.85
  0
LINE
  8
0
 10
0
 20
23.85
 11
0.386271
 21
23.7888
  0
LINE
  8
0
 10
0.386271
 20
23.7888
 11
0.734731
 21
23.6113
  0
LINE
  8
0
 10
0.734731
 20
23.6113
 11
1.01127
 21
23.3347
  0
LINE
  8
0
 10
1.01127
 20
23.3347
 11
1.18882
 21
22.9863
  0
LINE
  8
0
 10
1.18882
 20
22.9863
 11
1.25
 21
22.6
  0
LINE
  8
0
 10
1.25
 20
22.6
 11
1.18882
 21
22.2137
  0
LINE
  8
0
 10
1.18882
 20
22.2137
 11
1.01127
 21
21.8653
  0
LINE
  8
0
 10
1.01127
 20
21.8653
 11
0.734731
 21
21.5887
  0
LINE
  8
0
 10
0.734731
 20
21.5887
 11
0.386271
 21
21.4112
  0
LINE
  8
0
 10
0.386271
 20
21.4112
 11
0
 21
21.35
  0
LINE
  8
0
 10
0
 20
21.35
 11
-0.386271
 21
21.4112
  0
LINE
  8
0
 10
13.5137
 20
5.81118
 11
13.1653
 21
5.98873
  0
LINE
  8
0
 10
13.1653
 20
5.98873
 11
12.8887
 21
6.26527
  0
LINE
  8
0
 10
12.8887
 20
6.26527
 11
12.7112
 21
6.61373
  0
LINE
  8
0
 10
12.7112
 20
6.61373
 11
12.65
 21
7
  0
LINE
  8
0
 10
12.65
 20
7
 11
12.7112
 21
7.38627
  0
LINE
  8
0
 10
12.7112
 20
7.38627
 11
12.8887
 21
7.73473
  0
LINE
  8
0
 10
12.8887
 20
7.73473
 11
13.1653
 21
8.01127
  0
LINE
  8
0
 10
13.1653
 20
8.01127
 11
13.5137
 21
8.18882
  0
LINE
  8
0
 10
13.5137
 20
8.18882
 11
13.9
 21
8.25
  0
LINE
  8
0
 10
13.9
 20
8.25
 11
14.2863
 21
8.18882
  0
LINE
  8
0
 10
14.2863
 20
8.18882
 11
14.6347
 21
8.01127
  0
LINE
  8
0
 10
14.6347
 20
8.01127
 11
14.9113
 21
7.73473
  0
LINE
  8
0
 10
14.9113
 20
7.73473
 11
15.0888
 21
7.38627
  0
LINE
  8
0
 10
15.0888
 20
7.38627
 11
15.15
 21
7
  0
LINE
  8
0
 10
15.15
 20
7
 11
15.0888
 21
6.61373
  0
LINE
  8
0
 10
15.0888
 20
6.61373
 11
14.9113
 21
6.26527
  0
LINE
  8
0
 10
14.9113
 20
6.26527
 11
14.6347
 21
5.98873
  0
LINE
  8
0
 10
14.6347
 20
5.98873
 11
14.2863
 21
5.81118
  0
LINE
  8
0
 10
14.2863
 20
5.81118
 11
13.9
 21
5.75
  0
LINE
  8
0
 10
13.9
 20
5.75
 11
13.5137
 21
5.81118
  0
LINE
  8
0
 10
-14.2863
 20
5.81118
 11
-14.6347
 21
5.98873
  0
LINE
  8
0
 10
-14.6347
 20
5.98873
 11
-14.9113
 21
6.26527
  0
LINE
  8
0
 10
-14.9113
 20
6.26527
 11
-15.0888
 21
6.61373
  0
LINE
  8
0
 10
-15.0888
 20
6.61373
 11
-15.15
 21
7
  0
LINE
  8
0
 10
-15.15
 20
7
 11
-15.0888
 21
7.38627
  0
LINE
  8
0
 10
-15.0888
 20
7.38627
 11
-14.9113
 21
7.73473
  0
LINE
  8
0
 10
-14.9113
 20
7.73473
 11
-14.6347
 21
8.01127
  0
LINE
  8
0
 10
-14.6347
 20
8.01127
 11
-14.2863
 21
8.18882
  0
LINE
  8
0
 10
-14.2863
 20
8.18882
 11
-13.9
 21
8.25
  0
LINE
  8
0
 10
-13.9
 20
8.25
 11
-13.5137
 21
8.18882
  0
LINE
  8
0
 10
-13.5137
 20
8.18882
 11
-13.1653
 21
8.01127
  0
LINE
  8
0
 10
-13.1653
 20
8.01127
 11
-12.8887
 21
7.73473
  0
LINE
  8
0
 10
-12.8887
 20
7.73473
 11
-12.7112
 21
7.38627
  0
LINE
  8
0
 10
-12.7112
 20
7.38627
 11
-12.65
 21
7
  0
LINE
  8
0
 10
-12.65
 20
7
 11
-12.7112
 21
6.61373
  0
LINE
  8
0
 10
-12.7112
 20
6.61373
 11
-12.8887
 21
6.26527
  0
LINE
  8
0
 10
-12.8887
 20
6.26527
 11
-13.1653
 21
5.98873
  0
LINE
  8
0
 10
-13.1653
 20
5.98873
 11
-13.5137
 21
5.81118
  0
LINE
  8
0
 10
-13.5137
 20
5.81118
 11
-13.9
 21
5.75
  0
LINE
  8
0
 10
-13.9
 20
5.75
 11
-14.2863
 21
5.81118
  0
LINE
  8
0
 10
-0.421304
 20
-8.03897
 11
-0.841454
 21
-8.0059
  0
LINE
  8
0
 10
-0.841454
 20
-8.0059
 11
-1.2593
 21
-7.95089
  0
LINE
  8
0
 10
-1.2593
 20
-7.95089
 11
-1.67369
 21
-7.87409
  0
LINE
  8
0
 10
-1.67369
 20
-7.87409
 11
-2.08349
 21
-7.7757
  0
LINE
  8
0
 10
-2.08349
 20
-7.7757
 11
-2.48759
 21
-7.656
  0
LINE
  8
0
 10
-2.48759
 20
-7.656
 11
-2.88486
 21
-7.51532
  0
LINE
  8
0
 10
-2.88486
 20
-7.51532
 11
-3.27423
 21
-7.35404
  0
LINE
  8
0
 10
-3.27423
 20
-7.35404
 11
-3.65462
 21
-7.1726
  0
LINE
  8
0
 10
-3.65462
 20
-7.1726
 11
-4.025
 21
-6.9715
  0
LINE
  8
0
 10
-4.025
 20
-6.9715
 11
-4.38434
 21
-6.7513
  0
LINE
  8
0
 10
-4.38434
 20
-6.7513
 11
-4.73167
 21
-6.51259
  0
LINE
  8
0
 10
-4.73167
 20
-6.51259
 11
-5.06603
 21
-6.25602
  0
LINE
  8
0
 10
-5.06603
 20
-6.25602
 11
-5.3865
 21
-5.98232
  0
LINE
  8
0
 10
-5.3865
 20
-5.98232
 11
-5.69221
 21
-5.69221
  0
LINE
  8
0
 10
-5.69221
 20
-5.69221
 11
-5.98232
 21
-5.3865
  0
LINE
  8
0
 10
-5.98232
 20
-5.3865
 11
-6.25602
 21
-5.06603
  0
LINE
  8
0
 10
-6.25602
 20
-5.06603
 11
-6.51259
 21
-4.73167
  0
LINE
  8
0
 10
-6.51259
 20
-4.73167
 11
-6.7513
 21
-4.38434
  0
LINE
  8
0
 10
-6.7513
 20
-4.38434
 11
-6.9715
 21
-4.025
  0
LINE
  8
0
 10
-6.9715
 20
-4.025
 11
-7.1726
 21
-3.65462
  0
LINE
  8
0
 10
-7.1726
 20
-3.65462
 11
-7.35404
 21
-3.27423
  0
LINE
  8
0
 10
-7.35404
 20
-3.27423
 11
-7.51532
 21
-2.88486
  0
LINE
  8
0
 10
-7.51532
 20
-2.88486
 11
-7.656
 21
-2.48759
  0
LINE
  8
0
 10
-7.656
 20
-2.48759
 11
-7.7757
 21
-2.08349
  0
LINE
  8
0
 10
-7.7757
 20
-2.08349
 11
-7.87409
 21
-1.67369
  0
LINE
  8
0
 10
-7.87409
 20
-1.67369
 11
-7.95089
 21
-1.2593
  0
LINE
  8
0
 10
-7.95089
 20
-1.2593
 11
-8.0059
 21
-0.841454
  0
LINE
  8
0
 10
-8.0059
 20
-0.841454
 11
-8.03897
 21
-0.421304
  0
LINE
  8
0
 10
-8.03897
 20
-0.421304
 11
-8.05
 21
0
  0
LINE
  8
0
 10
-8.05
 20
0
 11
-8.03897
 21
0.421304
  0
LINE
  8
0
 10
-8.03897
 20
0.421304
 11
-8.0059
 21
0.841454
  0
LINE
  8
0
 10
-8.0059
 20
0.841454
 11
-7.95089
 21
1.2593
  0
LINE
  8
0
 10
-7.95089
 20
1.2593
 11
-7.87409
 21
1.67369
  0
LINE
  8
0
 10
-7.87409
 20
1.67369
 11
-7.7757
 21
2.08349
  0
LINE
  8
0
 10
-7.7757
 20
2.08349
 11
-7.656
 21
2.48759
  0
LINE
  8
0
 10
-7.656
 20
2.48759
 11
-7.51532
 21
2.88486
  0
LINE
  8
0
 10
-7.51532
 20
2.88486
 11
-7.35404
 21
3.27423
  0
LINE
  8
0
 10
-7.35404
 20
3.27423
 11
-7.1726
 21
3.65462
  0
LINE
  8
0
 10
-7.1726
 20
3.65462
 11
-6.9715
 21
4.025
  0
LINE
  8
0
 10
-6.9715
 20
4.025
 11
-6.7513
 21
4.38434
  0
LINE
  8
0
 10
-6.7513
 20
4.38434
 11
-6.51259
 21
4.73167
  0
LINE
  8
0
 10
-6.51259
 20
4.73167
 11
-6.25602
 21
5.06603
  0
LINE
  8
0
 10
-6.25602
 20
5.06603
 11
-5.98232
 21
5.3865
  0
LINE
  8
0
 10
-5.98232
 20
5.3865
 11
-5.69221
 21
5.69221
  0
LINE
  8
0
 10
-5.69221
 20
5.69221
 11
-5.3865
 21
5.98232
  0
LINE
  8
0
 10
-5.3865
 20
5.98232
 11
-5.06603
 21
6.25602
  0
LINE
  8
0
 10
-5.06603
 20
6.25602
 11
-4.73167
 21
6.51259
  0
LINE
  8
0
 10
-4.73167
 20
6.51259
 11
-4.38434
 21
6.7513
  0
LINE
  8
0
 10
-4.38434
 20
6.7513
 11
-4.025
 21
6.9715
  0
LINE
  8
0
 10
-4.025
 20
6.9715
 11
-3.65462
 21
7.1726
  0
LINE
  8
0
 10
-3.65462
 20
7.1726
 11
-3.27423
 21
7.35404
  0
LINE
  8
0
 10
-3.27423
 20
7.35404
 11
-2.88486
 21
7.51532
  0
LINE
  8
0
 10
-2.88486
 20
7.51532
 11
-2.48759
 21
7.656
  0
LINE
  8
0
 10
-2.48759
 20
7.656
 11
-2.08349
 21
7.7757
  0
LINE
  8
0
 10
-2.08349
 20
7.7757
 11
-1.67369
 21
7.87409
  0
LINE
  8
0
 10
-1.67369
 20
7.87409
 11
-1.2593
 21
7.95089
  0
LINE
  8
0
 10
-1.2593
 20
7.95089
 11
-0.841454
 21
8.0059
  0
LINE
  8
0
 10
-0.841454
 20
8.0059
 11
-0.421304
 21
8.03897
  0
LINE
  8
0
 10
-0.421304
 20
8.03897
 11
0
 21
8.05
  0
LINE
  8
0
 10
0
 20
8.05
 11
0.421304
 21
8.03897
  0
LINE
  8
0
 10
0.421304
 20
8.03897
 11
0.841454
 21
8.0059
  0
LINE
  8
0
 10
0.841454
 20
8.0059
 11
1.2593
 21
7.95089
  0
LINE
  8
0
 10
1.2593
 20
7.95089
 11
1.67369
 21
7.87409
  0
LINE
  8
0
 10
1.67369
 20
7.87409
 11
2.08349
 21
7.7757
  0
LINE
  8
0
 10
2.08349
 20
7.7757
 11
2.48759
 21
7.656
  0
LINE
  8
0
 10
2.48759
 20
7.656
 11
2.88486
 21
7.51532
  0
LINE
  8
0
 10
2.88486
 20
7.51532
 11
3.27423
 21
7.35404
  0
LINE
  8
0
 10
3.27423
 20
7.35404
 11
3.65462
 21
7.1726
  0
LINE
  8
0
 10
3.65462
 20
7.1726
 11
4.025
 21
6.9715
  0
LINE
  8
0
 10
4.025
 20
6.9715
 11
4.38434
 21
6.7513
  0
LINE
  8
0
 10
4.38434
 20
6.7513
 11
4.73167
 21
6.51259
  0
LINE
  8
0
 10
4.73167
 20
6.51259
 11
5.06603
 21
6.25602
  0
LINE
  8
0
 10
5.06603
 20
6.25602
 11
5.3865
 21
5.98232
  0
LINE
  8
0
 10
5.3865
 20
5.98232
 11
5.69221
 21
5.69221
  0
LINE
  8
0
 10
5.69221
 20
5.69221
 11
5.98232
 21
5.3865
  0
LINE
  8
0
 10
5.98232
 20
5.3865
 11
6.25602
 21
5.06603
  0
LINE
  8
0
 10
6.25602
 20
5.06603
 11
6.51259
 21
4.73167
  0
LINE
  8
0
 10
6.51259
 20
4.73167
 11
6.7513
 21
4.38434
  0
LINE
  8
0
 10
6.7513
 20
4.38434
 11
6.9715
 21
4.025
  0
LINE
  8
0
 10
6.9715
 20
4.025
 11
7.1726
 21
3.65462
  0
LINE
  8
0
 10
7.1726
 20
3.65462
 11
7.35404
 21
3.27423
  0
LINE
  8
0
 10
7.35404
 20
3.27423
 11
7.51532
 21
2.88486
  0
LINE
  8
0
 10
7.51532
 20
2.88486
 11
7.656
 21
2.48759
  0
LINE
  8
0
 10
7.656
 20
2.48759
 11
7.7757
 21
2.08349
  0
LINE
  8
0
 10
7.7757
 20
2.08349
 11
7.87409
 21
1.67369
  0
LINE
  8
0
 10
7.87409
 20
1.67369
 11
7.95089
 21
1.2593
  0
LINE
  8
0
 10
7.95089
 20
1.2593
 11
8.0059
 21
0.841454
  0
LINE
  8
0
 10
8.0059
 20
0.841454
 11
8.03897
 21
0.421304
  0
LINE
  8
0
 10
8.03897
 20
0.421304
 11
8.05
 21
0
  0
LINE
  8
0
 10
8.05
 20
0
 11
8.03897
 21
-0.421304
  0
LINE
  8
0
 10
8.03897
 20
-0.421304
 11
8.0059
 21
-0.841454
  0
LINE
  8
0
 10
8.0059
 20
-0.841454
 11
7.95089
 21
-1.2593
  0
LINE
  8
0
 10
7.95089
 20
-1.2593
 11
7.87409
 21
-1.67369
  0
LINE
  8
0
 10
7.87409
 20
-1.67369
 11
7.7757
 21
-2.08349
  0
LINE
  8
0
 10
7.7757
 20
-2.08349
 11
7.656
 21
-2.48759
  0
LINE
  8
0
 10
7.656
 20
-2.48759
 11
7.51532
 21
-2.88486
  0
LINE
  8
0
 10
7.51532
 20
-2.88486
 11
7.35404
 21
-3.27423
  0
LINE
  8
0
 10
7.35404
 20
-3.27423
 11
7.1726
 21
-3.65462
  0
LINE
  8
0
 10
7.1726
 20
-3.65462
 11
6.9715
 21
-4.025
  0
LINE
  8
0
 10
6.9715
 20
-4.025
 11
6.7513
 21
-4.38434
  0
LINE
  8
0
 10
6.7513
 20
-4.38434
 11
6.51259
 21
-4.73167
  0
LINE
  8
0
 10
6.51259
 20
-4.73167
 11
6.25602
 21
-5.06603
  0
LINE
  8
0
 10
6.25602
 20
-5.06603
 11
5.98232
 21
-5.3865
  0
LINE
  8
0
 10
5.98232
 20
-5.3865
 11
5.69221
 21
-5.69221
  0
LINE
  8
0
 10
5.69221
 20
-5.69221
 11
5.3865
 21
-5.98232
  0
LINE
  8
0
 10
5.3865
 20
-5.98232
 11
5.06603
 21
-6.25602
  0
LINE
  8
0
 10
5.06603
 20
-6.25602
 11
4.73167
 21
-6.51259
  0
LINE
  8
0
 10
4.73167
 20
-6.51259
 11
4.38434
 21
-6.7513
  0
LINE
  8
0
 10
4.38434
 20
-6.7513
 11
4.025
 21
-6.9715
  0
LINE
  8
0
 10
4.025
 20
-6.9715
 11
3.65462
 21
-7.1726
  0
LINE
  8
0
 10
3.65462
 20
-7.1726
 11
3.27423
 21
-7.35404
  0
LINE
  8
0
 10
3.27423
 20
-7.35404
 11
2.88486
 21
-7.51532
  0
LINE
  8
0
 10
2.88486
 20
-7.51532
 11
2.48759
 21
-7.656
  0
LINE
  8
0
 10
2.48759
 20
-7.656
 11
2.08349
 21
-7.7757
  0
LINE
  8
0
 10
2.08349
 20
-7.7757
 11
1.67369
 21
-7.87409
  0
LINE
  8
0
 10
1.67369
 20
-7.87409
 11
1.2593
 21
-7.95089
  0
LINE
  8
0
 10
1.2593
 20
-7.95089
 11
0.841454
 21
-8.0059
  0
LINE
  8
0
 10
0.841454
 20
-8.0059
 11
0.421304
 21
-8.03897
  0
LINE
  8
0
 10
0.421304
 20
-8.03897
 11
0
 21
-8.05
  0
LINE
  8
0
 10
0
 20
-8.05
 11
-0.421304
 21
-8.03897
  0
ENDSEC
  0
SECTION
  2
OBJECTS
  0
DICTIONARY
  0
ENDSEC
  0
EOF
