  0
SECTION
  2
BLOCKS
  0
ENDSEC
  0
SECTION
  2
ENTITIES
  0
LINE
  8
0
 10
2.09315
 20
-37.9397
 11
3.97208
 21
-37.7918
  0
LINE
  8
0
 10
3.97208
 20
-37.7918
 11
5.8407
 21
-37.5458
  0
LINE
  8
0
 10
5.8407
 20
-37.5458
 11
7.69388
 21
-37.2024
  0
LINE
  8
0
 10
7.69388
 20
-37.2024
 11
8.10285
 21
-37.1154
  0
LINE
  8
0
 10
8.10285
 20
-37.1154
 11
9.93552
 21
-36.6754
  0
LINE
  8
0
 10
9.93552
 20
-36.6754
 11
11.7426
 21
-36.1401
  0
LINE
  8
0
 10
11.7426
 20
-36.1401
 11
13.5193
 21
-35.511
  0
LINE
  8
0
 10
13.5193
 20
-35.511
 11
15.2606
 21
-34.7897
  0
LINE
  8
0
 10
15.2606
 20
-34.7897
 11
15.6425
 21
-34.6197
  0
LINE
  8
0
 10
15.6425
 20
-34.6197
 11
17.3437
 21
-33.8083
  0
LINE
  8
0
 10
17.3437
 20
-33.8083
 11
19
 21
-32.909
  0
LINE
  8
0
 10
19
 20
-32.909
 11
20.607
 21
-31.9242
  0
LINE
  8
0
 10
20.607
 20
-31.9242
 11
22.1603
 21
-30.8567
  0
LINE
  8
0
 10
22.1603
 20
-30.8567
 11
22.4985
 21
-30.6109
  0
LINE
  8
0
 10
22.4985
 20
-30.6109
 11
23.9938
 21
-29.4635
  0
LINE
  8
0
 10
23.9938
 20
-29.4635
 11
24.4355
 21
-29.0863
  0
LINE
  8
0
 10
24.4355
 20
-29.0863
 11
24.4798
 21
-29.0485
  0
LINE
  8
0
 10
24.4798
 20
-29.0485
 11
24.6125
 21
-28.9351
  0
LINE
  8
0
 10
24.6125
 20
-28.9351
 11
24.8334
 21
-28.7465
  0
LINE
  8
0
 10
24.8334
 20
-28.7465
 11
25.1417
 21
-28.4832
  0
LINE
  8
0
 10
25.1417
 20
-28.4832
 11
25.427
 21
-28.2395
  0
LINE
  8
0
 10
25.427
 20
-28.2395
 11
25.5257
 21
-28.1458
  0
LINE
  8
0
 10
25.5257
 20
-28.1458
 11
25.9581
 21
-27.7354
  0
LINE
  8
0
 10
25.9581
 20
-27.7354
 11
26.1247
 21
-27.5773
  0
LINE
  8
0
 10
26.1247
 20
-27.5773
 11
26.4045
 21
-27.2666
  0
LINE
  8
0
 10
26.4045
 20
-27.2666
 11
26.6136
 21
-26.9045
  0
LINE
  8
0
 10
26.6136
 20
-26.9045
 11
26.7428
 21
-26.5069
  0
LINE
  8
0
 10
26.7428
 20
-26.5069
 11
26.7865
 21
-26.091
  0
LINE
  8
0
 10
26.7865
 20
-26.091
 11
26.7428
 21
-25.6752
  0
LINE
  8
0
 10
26.7428
 20
-25.6752
 11
26.6136
 21
-25.2776
  0
LINE
  8
0
 10
26.6136
 20
-25.2776
 11
26.4045
 21
-24.9155
  0
LINE
  8
0
 10
26.4045
 20
-24.9155
 11
26.1247
 21
-24.6047
  0
LINE
  8
0
 10
26.1247
 20
-24.6047
 11
25.8167
 21
-24.2805
  0
LINE
  8
0
 10
25.8167
 20
-24.2805
 11
25.2914
 21
-23.7276
  0
LINE
  8
0
 10
25.2914
 20
-23.7276
 11
24.7005
 21
-23.1055
  0
LINE
  8
0
 10
24.7005
 20
-23.1055
 11
24.0454
 21
-22.416
  0
LINE
  8
0
 10
24.0454
 20
-22.416
 11
23.3282
 21
-21.661
  0
LINE
  8
0
 10
23.3282
 20
-21.661
 11
22.5507
 21
-20.8426
  0
LINE
  8
0
 10
22.5507
 20
-20.8426
 11
21.715
 21
-19.9629
  0
LINE
  8
0
 10
21.715
 20
-19.9629
 11
20.8235
 21
-19.0245
  0
LINE
  8
0
 10
20.8235
 20
-19.0245
 11
20.3412
 21
-18.5168
  0
LINE
  8
0
 10
20.3412
 20
-18.5168
 11
20.003
 21
-18.2711
  0
LINE
  8
0
 10
20.003
 20
-18.2711
 11
19.621
 21
-18.101
  0
LINE
  8
0
 10
19.621
 20
-18.101
 11
19.212
 21
-18.0141
  0
LINE
  8
0
 10
19.212
 20
-18.0141
 11
18.7939
 21
-18.0141
  0
LINE
  8
0
 10
18.7939
 20
-18.0141
 11
18.3849
 21
-18.101
  0
LINE
  8
0
 10
18.3849
 20
-18.101
 11
18.003
 21
-18.2711
  0
LINE
  8
0
 10
18.003
 20
-18.2711
 11
17.6647
 21
-18.5168
  0
LINE
  8
0
 10
17.6647
 20
-18.5168
 11
17.1297
 21
-19.0245
  0
LINE
  8
0
 10
17.1297
 20
-19.0245
 11
16.031
 21
-19.9629
  0
LINE
  8
0
 10
16.031
 20
-19.9629
 11
15.0505
 21
-20.7153
  0
LINE
  8
0
 10
15.0505
 20
-20.7153
 11
14.032
 21
-21.4153
  0
LINE
  8
0
 10
14.032
 20
-21.4153
 11
12.8
 21
-22.1702
  0
LINE
  8
0
 10
12.8
 20
-22.1702
 11
11.5301
 21
-22.8597
  0
LINE
  8
0
 10
11.5301
 20
-22.8597
 11
10.4147
 21
-23.3918
  0
LINE
  8
0
 10
10.4147
 20
-23.3918
 11
9.27292
 21
-23.8647
  0
LINE
  8
0
 10
9.27292
 20
-23.8647
 11
7.91084
 21
-24.347
  0
LINE
  8
0
 10
7.91084
 20
-24.347
 11
6.52537
 21
-24.7574
  0
LINE
  8
0
 10
6.52537
 20
-24.7574
 11
5.32367
 21
-25.0459
  0
LINE
  8
0
 10
5.32367
 20
-25.0459
 11
4.10853
 21
-25.2712
  0
LINE
  8
0
 10
4.10853
 20
-25.2712
 11
2.67593
 21
-25.4598
  0
LINE
  8
0
 10
2.67593
 20
-25.4598
 11
1.23542
 21
-25.5731
  0
LINE
  8
0
 10
1.23542
 20
-25.5731
 11
0
 21
-25.6055
  0
LINE
  8
0
 10
0
 20
-25.6055
 11
-1.23542
 21
-25.5731
  0
LINE
  8
0
 10
-1.23542
 20
-25.5731
 11
-2.67593
 21
-25.4598
  0
LINE
  8
0
 10
-2.67593
 20
-25.4598
 11
-4.10853
 21
-25.2712
  0
LINE
  8
0
 10
-4.10853
 20
-25.2712
 11
-5.32367
 21
-25.0459
  0
LINE
  8
0
 10
-5.32367
 20
-25.0459
 11
-6.52537
 21
-24.7574
  0
LINE
  8
0
 10
-6.52537
 20
-24.7574
 11
-7.91084
 21
-24.347
  0
LINE
  8
0
 10
-7.91084
 20
-24.347
 11
-9.27292
 21
-23.8647
  0
LINE
  8
0
 10
-9.27292
 20
-23.8647
 11
-10.4147
 21
-23.3918
  0
LINE
  8
0
 10
-10.4147
 20
-23.3918
 11
-11.5301
 21
-22.8597
  0
LINE
  8
0
 10
-11.5301
 20
-22.8597
 11
-12.8
 21
-22.1702
  0
LINE
  8
0
 10
-12.8
 20
-22.1702
 11
-14.032
 21
-21.4153
  0
LINE
  8
0
 10
-14.032
 20
-21.4153
 11
-15.0505
 21
-20.7153
  0
LINE
  8
0
 10
-15.0505
 20
-20.7153
 11
-16.031
 21
-19.9629
  0
LINE
  8
0
 10
-16.031
 20
-19.9629
 11
-17.1297
 21
-19.0245
  0
LINE
  8
0
 10
-17.1297
 20
-19.0245
 11
-17.1768
 21
-18.9799
  0
LINE
  8
0
 10
-17.1768
 20
-18.9799
 11
-14.1952
 21
-15.9983
  0
LINE
  8
0
 10
-14.1952
 20
-15.9983
 11
-14.2113
 21
-15.9822
  0
LINE
  8
0
 10
-14.2113
 20
-15.9822
 11
-14.0432
 21
-15.8601
  0
LINE
  8
0
 10
-14.0432
 20
-15.8601
 11
-13.6946
 21
-15.5019
  0
LINE
  8
0
 10
-13.6946
 20
-15.5019
 11
-13.5547
 21
-15.3465
  0
LINE
  8
0
 10
-13.5547
 20
-15.3465
 11
-13.4502
 21
-15.1655
  0
LINE
  8
0
 10
-13.4502
 20
-15.1655
 11
-13.3856
 21
-14.9666
  0
LINE
  8
0
 10
-13.3856
 20
-14.9666
 11
-13.3637
 21
-14.7587
  0
LINE
  8
0
 10
-13.3637
 20
-14.7587
 11
-13.3856
 21
-14.5508
  0
LINE
  8
0
 10
-13.3856
 20
-14.5508
 11
-13.4502
 21
-14.352
  0
LINE
  8
0
 10
-13.4502
 20
-14.352
 11
-13.5547
 21
-14.1709
  0
LINE
  8
0
 10
-13.5547
 20
-14.1709
 11
-13.6946
 21
-14.0156
  0
LINE
  8
0
 10
-13.6946
 20
-14.0156
 11
-13.8973
 21
-13.8233
  0
LINE
  8
0
 10
-13.8973
 20
-13.8233
 11
-14.5677
 21
-13.1168
  0
LINE
  8
0
 10
-14.5677
 20
-13.1168
 11
-15.2002
 21
-12.3762
  0
LINE
  8
0
 10
-15.2002
 20
-12.3762
 11
-15.8567
 21
-11.5206
  0
LINE
  8
0
 10
-15.8567
 20
-11.5206
 11
-16.4676
 21
-10.6318
  0
LINE
  8
0
 10
-16.4676
 20
-10.6318
 11
-16.9765
 21
-9.80137
  0
LINE
  8
0
 10
-16.9765
 20
-9.80137
 11
-17.4412
 21
-8.94547
  0
LINE
  8
0
 10
-17.4412
 20
-8.94547
 11
-17.9055
 21
-7.97204
  0
LINE
  8
0
 10
-17.9055
 20
-7.97204
 11
-18.3182
 21
-6.97564
  0
LINE
  8
0
 10
-18.3182
 20
-6.97564
 11
-18.6433
 21
-6.05759
  0
LINE
  8
0
 10
-18.6433
 20
-6.05759
 11
-18.9199
 21
-5.12376
  0
LINE
  8
0
 10
-18.9199
 20
-5.12376
 11
-19.1717
 21
-4.07507
  0
LINE
  8
0
 10
-19.1717
 20
-4.07507
 11
-19.3682
 21
-3.01464
  0
LINE
  8
0
 10
-19.3682
 20
-3.01464
 11
-19.4954
 21
-2.04905
  0
LINE
  8
0
 10
-19.4954
 20
-2.04905
 11
-19.5718
 21
-1.07812
  0
LINE
  8
0
 10
-19.5718
 20
-1.07812
 11
-19.6
 21
0
  0
LINE
  8
0
 10
-19.6
 20
0
 11
-19.5718
 21
1.07812
  0
LINE
  8
0
 10
-19.5718
 20
1.07812
 11
-19.4954
 21
2.04905
  0
LINE
  8
0
 10
-19.4954
 20
2.04905
 11
-19.3682
 21
3.01464
  0
LINE
  8
0
 10
-19.3682
 20
3.01464
 11
-19.1717
 21
4.07507
  0
LINE
  8
0
 10
-19.1717
 20
4.07507
 11
-18.9199
 21
5.12376
  0
LINE
  8
0
 10
-18.9199
 20
5.12376
 11
-18.6433
 21
6.05759
  0
LINE
  8
0
 10
-18.6433
 20
6.05759
 11
-18.3182
 21
6.97564
  0
LINE
  8
0
 10
-18.3182
 20
6.97564
 11
-17.9055
 21
7.97204
  0
LINE
  8
0
 10
-17.9055
 20
7.97204
 11
-17.4412
 21
8.94547
  0
LINE
  8
0
 10
-17.4412
 20
8.94547
 11
-16.9765
 21
9.80137
  0
LINE
  8
0
 10
-16.9765
 20
9.80137
 11
-16.4676
 21
10.6318
  0
LINE
  8
0
 10
-16.4676
 20
10.6318
 11
-15.8567
 21
11.5206
  0
LINE
  8
0
 10
-15.8567
 20
11.5206
 11
-15.2002
 21
12.3762
  0
LINE
  8
0
 10
-15.2002
 20
12.3762
 11
-14.5677
 21
13.1168
  0
LINE
  8
0
 10
-14.5677
 20
13.1168
 11
-13.8973
 21
13.8233
  0
LINE
  8
0
 10
-13.8973
 20
13.8233
 11
-13.6946
 21
14.0156
  0
LINE
  8
0
 10
-13.6946
 20
14.0156
 11
-13.5547
 21
14.1709
  0
LINE
  8
0
 10
-13.5547
 20
14.1709
 11
-13.4502
 21
14.352
  0
LINE
  8
0
 10
-13.4502
 20
14.352
 11
-13.3856
 21
14.5508
  0
LINE
  8
0
 10
-13.3856
 20
14.5508
 11
-13.3637
 21
14.7587
  0
LINE
  8
0
 10
-13.3637
 20
14.7587
 11
-13.3856
 21
14.9666
  0
LINE
  8
0
 10
-13.3856
 20
14.9666
 11
-13.4502
 21
15.1655
  0
LINE
  8
0
 10
-13.4502
 20
15.1655
 11
-13.5547
 21
15.3465
  0
LINE
  8
0
 10
-13.5547
 20
15.3465
 11
-13.6946
 21
15.5019
  0
LINE
  8
0
 10
-13.6946
 20
15.5019
 11
-14.0432
 21
15.8601
  0
LINE
  8
0
 10
-14.0432
 20
15.8601
 11
-14.2113
 21
15.9822
  0
LINE
  8
0
 10
-14.2113
 20
15.9822
 11
-14.1952
 21
15.9983
  0
LINE
  8
0
 10
-14.1952
 20
15.9983
 11
-17.1768
 21
18.9799
  0
LINE
  8
0
 10
-17.1768
 20
18.9799
 11
-17.1297
 21
19.0245
  0
LINE
  8
0
 10
-17.1297
 20
19.0245
 11
-16.031
 21
19.9629
  0
LINE
  8
0
 10
-16.031
 20
19.9629
 11
-15.0505
 21
20.7153
  0
LINE
  8
0
 10
-15.0505
 20
20.7153
 11
-14.032
 21
21.4153
  0
LINE
  8
0
 10
-14.032
 20
21.4153
 11
-12.8
 21
22.1702
  0
LINE
  8
0
 10
-12.8
 20
22.1702
 11
-11.5301
 21
22.8597
  0
LINE
  8
0
 10
-11.5301
 20
22.8597
 11
-10.4147
 21
23.3918
  0
LINE
  8
0
 10
-10.4147
 20
23.3918
 11
-9.27292
 21
23.8647
  0
LINE
  8
0
 10
-9.27292
 20
23.8647
 11
-7.91084
 21
24.347
  0
LINE
  8
0
 10
-7.91084
 20
24.347
 11
-6.52537
 21
24.7574
  0
LINE
  8
0
 10
-6.52537
 20
24.7574
 11
-5.32367
 21
25.0459
  0
LINE
  8
0
 10
-5.32367
 20
25.0459
 11
-4.10853
 21
25.2712
  0
LINE
  8
0
 10
-4.10853
 20
25.2712
 11
-2.67593
 21
25.4598
  0
LINE
  8
0
 10
-2.67593
 20
25.4598
 11
-1.23542
 21
25.5731
  0
LINE
  8
0
 10
-1.23542
 20
25.5731
 11
0
 21
25.6055
  0
LINE
  8
0
 10
0
 20
25.6055
 11
1.23542
 21
25.5731
  0
LINE
  8
0
 10
1.23542
 20
25.5731
 11
2.67593
 21
25.4598
  0
LINE
  8
0
 10
2.67593
 20
25.4598
 11
4.10853
 21
25.2712
  0
LINE
  8
0
 10
4.10853
 20
25.2712
 11
5.32367
 21
25.0459
  0
LINE
  8
0
 10
5.32367
 20
25.0459
 11
6.52537
 21
24.7574
  0
LINE
  8
0
 10
6.52537
 20
24.7574
 11
7.91084
 21
24.347
  0
LINE
  8
0
 10
7.91084
 20
24.347
 11
9.27292
 21
23.8647
  0
LINE
  8
0
 10
9.27292
 20
23.8647
 11
10.4147
 21
23.3918
  0
LINE
  8
0
 10
10.4147
 20
23.3918
 11
11.5301
 21
22.8597
  0
LINE
  8
0
 10
11.5301
 20
22.8597
 11
12.8
 21
22.1702
  0
LINE
  8
0
 10
12.8
 20
22.1702
 11
14.032
 21
21.4153
  0
LINE
  8
0
 10
14.032
 20
21.4153
 11
15.0505
 21
20.7153
  0
LINE
  8
0
 10
15.0505
 20
20.7153
 11
16.031
 21
19.9629
  0
LINE
  8
0
 10
16.031
 20
19.9629
 11
17.1297
 21
19.0245
  0
LINE
  8
0
 10
17.1297
 20
19.0245
 11
17.6647
 21
18.5168
  0
LINE
  8
0
 10
17.6647
 20
18.5168
 11
18.003
 21
18.2711
  0
LINE
  8
0
 10
18.003
 20
18.2711
 11
18.3849
 21
18.101
  0
LINE
  8
0
 10
18.3849
 20
18.101
 11
18.7939
 21
18.0141
  0
LINE
  8
0
 10
18.7939
 20
18.0141
 11
19.212
 21
18.0141
  0
LINE
  8
0
 10
19.212
 20
18.0141
 11
19.621
 21
18.101
  0
LINE
  8
0
 10
19.621
 20
18.101
 11
20.003
 21
18.2711
  0
LINE
  8
0
 10
20.003
 20
18.2711
 11
20.3412
 21
18.5168
  0
LINE
  8
0
 10
20.3412
 20
18.5168
 11
20.8235
 21
19.0245
  0
LINE
  8
0
 10
20.8235
 20
19.0245
 11
21.715
 21
19.9629
  0
LINE
  8
0
 10
21.715
 20
19.9629
 11
22.5507
 21
20.8426
  0
LINE
  8
0
 10
22.5507
 20
20.8426
 11
23.3282
 21
21.661
  0
LINE
  8
0
 10
23.3282
 20
21.661
 11
24.0454
 21
22.416
  0
LINE
  8
0
 10
24.0454
 20
22.416
 11
24.7005
 21
23.1055
  0
LINE
  8
0
 10
24.7005
 20
23.1055
 11
25.2914
 21
23.7276
  0
LINE
  8
0
 10
25.2914
 20
23.7276
 11
25.8167
 21
24.2805
  0
LINE
  8
0
 10
25.8167
 20
24.2805
 11
26.1247
 21
24.6047
  0
LINE
  8
0
 10
26.1247
 20
24.6047
 11
26.4045
 21
24.9155
  0
LINE
  8
0
 10
26.4045
 20
24.9155
 11
26.6136
 21
25.2776
  0
LINE
  8
0
 10
26.6136
 20
25.2776
 11
26.7428
 21
25.6752
  0
LINE
  8
0
 10
26.7428
 20
25.6752
 11
26.7865
 21
26.091
  0
LINE
  8
0
 10
26.7865
 20
26.091
 11
26.7428
 21
26.5069
  0
LINE
  8
0
 10
26.7428
 20
26.5069
 11
26.6136
 21
26.9045
  0
LINE
  8
0
 10
26.6136
 20
26.9045
 11
26.4045
 21
27.2666
  0
LINE
  8
0
 10
26.4045
 20
27.2666
 11
26.1247
 21
27.5773
  0
LINE
  8
0
 10
26.1247
 20
27.5773
 11
25.9581
 21
27.7354
  0
LINE
  8
0
 10
25.9581
 20
27.7354
 11
25.5257
 21
28.1458
  0
LINE
  8
0
 10
25.5257
 20
28.1458
 11
25.427
 21
28.2395
  0
LINE
  8
0
 10
25.427
 20
28.2395
 11
25.1417
 21
28.4832
  0
LINE
  8
0
 10
25.1417
 20
28.4832
 11
24.8334
 21
28.7465
  0
LINE
  8
0
 10
24.8334
 20
28.7465
 11
24.6125
 21
28.9351
  0
LINE
  8
0
 10
24.6125
 20
28.9351
 11
24.4798
 21
29.0485
  0
LINE
  8
0
 10
24.4798
 20
29.0485
 11
24.4355
 21
29.0863
  0
LINE
  8
0
 10
24.4355
 20
29.0863
 11
23.9938
 21
29.4635
  0
LINE
  8
0
 10
23.9938
 20
29.4635
 11
22.4985
 21
30.6109
  0
LINE
  8
0
 10
22.4985
 20
30.6109
 11
22.1603
 21
30.8567
  0
LINE
  8
0
 10
22.1603
 20
30.8567
 11
20.607
 21
31.9242
  0
LINE
  8
0
 10
20.607
 20
31.9242
 11
19
 21
32.909
  0
LINE
  8
0
 10
19
 20
32.909
 11
17.3437
 21
33.8083
  0
LINE
  8
0
 10
17.3437
 20
33.8083
 11
15.6425
 21
34.6197
  0
LINE
  8
0
 10
15.6425
 20
34.6197
 11
15.2606
 21
34.7897
  0
LINE
  8
0
 10
15.2606
 20
34.7897
 11
13.5193
 21
35.511
  0
LINE
  8
0
 10
13.5193
 20
35.511
 11
11.7426
 21
36.1401
  0
LINE
  8
0
 10
11.7426
 20
36.1401
 11
9.93552
 21
36.6754
  0
LINE
  8
0
 10
9.93552
 20
36.6754
 11
8.10285
 21
37.1154
  0
LINE
  8
0
 10
8.10285
 20
37.1154
 11
7.69388
 21
37.2024
  0
LINE
  8
0
 10
7.69388
 20
37.2024
 11
5.8407
 21
37.5458
  0
LINE
  8
0
 10
5.8407
 20
37.5458
 11
3.97208
 21
37.7918
  0
LINE
  8
0
 10
3.97208
 20
37.7918
 11
2.09315
 21
37.9397
  0
LINE
  8
0
 10
2.09315
 20
37.9397
 11
0.209057
 21
37.989
  0
LINE
  8
0
 10
0.209057
 20
37.989
 11
-0.209057
 21
37.989
  0
LINE
  8
0
 10
-0.209057
 20
37.989
 11
-2.09315
 21
37.9397
  0
LINE
  8
0
 10
-2.09315
 20
37.9397
 11
-3.97208
 21
37.7918
  0
LINE
  8
0
 10
-3.97208
 20
37.7918
 11
-5.8407
 21
37.5458
  0
LINE
  8
0
 10
-5.8407
 20
37.5458
 11
-7.69388
 21
37.2024
  0
LINE
  8
0
 10
-7.69388
 20
37.2024
 11
-8.10285
 21
37.1154
  0
LINE
  8
0
 10
-8.10285
 20
37.1154
 11
-9.93552
 21
36.6754
  0
LINE
  8
0
 10
-9.93552
 20
36.6754
 11
-11.7426
 21
36.1401
  0
LINE
  8
0
 10
-11.7426
 20
36.1401
 11
-13.5193
 21
35.511
  0
LINE
  8
0
 10
-13.5193
 20
35.511
 11
-15.2606
 21
34.7897
  0
LINE
  8
0
 10
-15.2606
 20
34.7897
 11
-15.6425
 21
34.6197
  0
LINE
  8
0
 10
-15.6425
 20
34.6197
 11
-17.3437
 21
33.8083
  0
LINE
  8
0
 10
-17.3437
 20
33.8083
 11
-19
 21
32.909
  0
LINE
  8
0
 10
-19
 20
32.909
 11
-20.607
 21
31.9242
  0
LINE
  8
0
 10
-20.607
 20
31.9242
 11
-22.1603
 21
30.8567
  0
LINE
  8
0
 10
-22.1603
 20
30.8567
 11
-22.4985
 21
30.6109
  0
LINE
  8
0
 10
-22.4985
 20
30.6109
 11
-23.9938
 21
29.4635
  0
LINE
  8
0
 10
-23.9938
 20
29.4635
 11
-24.4355
 21
29.0863
  0
LINE
  8
0
 10
-24.4355
 20
29.0863
 11
-24.4798
 21
29.0485
  0
LINE
  8
0
 10
-24.4798
 20
29.0485
 11
-24.6125
 21
28.9351
  0
LINE
  8
0
 10
-24.6125
 20
28.9351
 11
-24.8334
 21
28.7465
  0
LINE
  8
0
 10
-24.8334
 20
28.7465
 11
-25.1417
 21
28.4832
  0
LINE
  8
0
 10
-25.1417
 20
28.4832
 11
-25.427
 21
28.2395
  0
LINE
  8
0
 10
-25.427
 20
28.2395
 11
-25.5257
 21
28.1458
  0
LINE
  8
0
 10
-25.5257
 20
28.1458
 11
-25.9581
 21
27.7354
  0
LINE
  8
0
 10
-25.9581
 20
27.7354
 11
-26.1247
 21
27.5773
  0
LINE
  8
0
 10
-26.1247
 20
27.5773
 11
-26.4045
 21
27.2666
  0
LINE
  8
0
 10
-26.4045
 20
27.2666
 11
-26.6136
 21
26.9045
  0
LINE
  8
0
 10
-26.6136
 20
26.9045
 11
-26.7428
 21
26.5069
  0
LINE
  8
0
 10
-26.7428
 20
26.5069
 11
-26.7865
 21
26.091
  0
LINE
  8
0
 10
-26.7865
 20
26.091
 11
-26.7428
 21
25.6752
  0
LINE
  8
0
 10
-26.7428
 20
25.6752
 11
-26.6136
 21
25.2776
  0
LINE
  8
0
 10
-26.6136
 20
25.2776
 11
-26.4045
 21
24.9155
  0
LINE
  8
0
 10
-26.4045
 20
24.9155
 11
-26.1247
 21
24.6047
  0
LINE
  8
0
 10
-26.1247
 20
24.6047
 11
-25.8167
 21
24.2805
  0
LINE
  8
0
 10
-25.8167
 20
24.2805
 11
-25.2914
 21
23.7276
  0
LINE
  8
0
 10
-25.2914
 20
23.7276
 11
-24.7005
 21
23.1055
  0
LINE
  8
0
 10
-24.7005
 20
23.1055
 11
-24.0454
 21
22.416
  0
LINE
  8
0
 10
-24.0454
 20
22.416
 11
-23.3282
 21
21.661
  0
LINE
  8
0
 10
-23.3282
 20
21.661
 11
-22.5507
 21
20.8426
  0
LINE
  8
0
 10
-22.5507
 20
20.8426
 11
-21.715
 21
19.9629
  0
LINE
  8
0
 10
-21.715
 20
19.9629
 11
-20.8235
 21
19.0245
  0
LINE
  8
0
 10
-20.8235
 20
19.0245
 11
-20.3412
 21
18.5168
  0
LINE
  8
0
 10
-20.3412
 20
18.5168
 11
-20.2635
 21
18.4603
  0
LINE
  8
0
 10
-20.2635
 20
18.4603
 11
-16.4987
 21
14.6956
  0
LINE
  8
0
 10
-16.4987
 20
14.6956
 11
-16.7751
 21
14.3719
  0
LINE
  8
0
 10
-16.7751
 20
14.3719
 11
-17.2068
 21
13.8664
  0
LINE
  8
0
 10
-17.2068
 20
13.8664
 11
-17.4482
 21
13.5518
  0
LINE
  8
0
 10
-17.4482
 20
13.5518
 11
-17.8793
 21
12.9901
  0
LINE
  8
0
 10
-17.8793
 20
12.9901
 11
-18.0813
 21
12.6962
  0
LINE
  8
0
 10
-18.0813
 20
12.6962
 11
-18.505
 21
12.0797
  0
LINE
  8
0
 10
-18.505
 20
12.0797
 11
-18.6718
 21
11.8073
  0
LINE
  8
0
 10
-18.6718
 20
11.8073
 11
-19.0822
 21
11.1378
  0
LINE
  8
0
 10
-19.0822
 20
11.1378
 11
-19.1867
 21
10.9567
  0
LINE
  8
0
 10
-19.1867
 20
10.9567
 11
-19.3224
 21
10.7067
  0
LINE
  8
0
 10
-19.3224
 20
10.7067
 11
-19.7138
 21
9.98594
  0
LINE
  8
0
 10
-19.7138
 20
9.98594
 11
-19.8221
 21
9.75894
  0
LINE
  8
0
 10
-19.8221
 20
9.75894
 11
-20.1894
 21
8.98888
  0
LINE
  8
0
 10
-20.1894
 20
8.98888
 11
-20.2736
 21
8.78551
  0
LINE
  8
0
 10
-20.2736
 20
8.78551
 11
-20.6121
 21
7.9683
  0
LINE
  8
0
 10
-20.6121
 20
7.9683
 11
-20.6755
 21
7.78912
  0
LINE
  8
0
 10
-20.6755
 20
7.78912
 11
-20.9808
 21
6.92699
  0
LINE
  8
0
 10
-20.9808
 20
6.92699
 11
-21.0454
 21
6.72817
  0
LINE
  8
0
 10
-21.0454
 20
6.72817
 11
-21.0912
 21
6.57366
  0
LINE
  8
0
 10
-21.0912
 20
6.57366
 11
-21.3592
 21
5.66899
  0
LINE
  8
0
 10
-21.3592
 20
5.66899
 11
-21.3903
 21
5.53958
  0
LINE
  8
0
 10
-21.3903
 20
5.53958
 11
-21.6171
 21
4.59485
  0
LINE
  8
0
 10
-21.6171
 20
4.59485
 11
-21.6363
 21
4.49089
  0
LINE
  8
0
 10
-21.6363
 20
4.49089
 11
-21.8184
 21
3.50868
  0
LINE
  8
0
 10
-21.8184
 20
3.50868
 11
-21.8287
 21
3.43046
  0
LINE
  8
0
 10
-21.8287
 20
3.43046
 11
-21.9626
 21
2.41346
  0
LINE
  8
0
 10
-21.9626
 20
2.41346
 11
-21.9844
 21
2.20555
  0
LINE
  8
0
 10
-21.9844
 20
2.20555
 11
-21.9885
 21
2.15329
  0
LINE
  8
0
 10
-21.9885
 20
2.15329
 11
-22.0711
 21
1.10429
  0
LINE
  8
0
 10
-22.0711
 20
1.10429
 11
-22.0718
 21
1.07812
  0
LINE
  8
0
 10
-22.0718
 20
1.07812
 11
-22.1
 21
0
  0
LINE
  8
0
 10
-22.1
 20
0
 11
-22.0718
 21
-1.07812
  0
LINE
  8
0
 10
-22.0718
 20
-1.07812
 11
-22.0711
 21
-1.10429
  0
LINE
  8
0
 10
-22.0711
 20
-1.10429
 11
-21.9885
 21
-2.15329
  0
LINE
  8
0
 10
-21.9885
 20
-2.15329
 11
-21.9844
 21
-2.20555
  0
LINE
  8
0
 10
-21.9844
 20
-2.20555
 11
-21.9626
 21
-2.41346
  0
LINE
  8
0
 10
-21.9626
 20
-2.41346
 11
-21.8287
 21
-3.43046
  0
LINE
  8
0
 10
-21.8287
 20
-3.43046
 11
-21.8184
 21
-3.50868
  0
LINE
  8
0
 10
-21.8184
 20
-3.50868
 11
-21.6363
 21
-4.49089
  0
LINE
  8
0
 10
-21.6363
 20
-4.49089
 11
-21.6171
 21
-4.59485
  0
LINE
  8
0
 10
-21.6171
 20
-4.59485
 11
-21.3903
 21
-5.53958
  0
LINE
  8
0
 10
-21.3903
 20
-5.53958
 11
-21.3592
 21
-5.66899
  0
LINE
  8
0
 10
-21.3592
 20
-5.66899
 11
-21.0912
 21
-6.57366
  0
LINE
  8
0
 10
-21.0912
 20
-6.57366
 11
-21.0454
 21
-6.72817
  0
LINE
  8
0
 10
-21.0454
 20
-6.72817
 11
-20.9808
 21
-6.92699
  0
LINE
  8
0
 10
-20.9808
 20
-6.92699
 11
-20.6755
 21
-7.78912
  0
LINE
  8
0
 10
-20.6755
 20
-7.78912
 11
-20.6121
 21
-7.9683
  0
LINE
  8
0
 10
-20.6121
 20
-7.9683
 11
-20.2736
 21
-8.78551
  0
LINE
  8
0
 10
-20.2736
 20
-8.78551
 11
-20.1894
 21
-8.98888
  0
LINE
  8
0
 10
-20.1894
 20
-8.98888
 11
-19.8221
 21
-9.75894
  0
LINE
  8
0
 10
-19.8221
 20
-9.75894
 11
-19.7138
 21
-9.98594
  0
LINE
  8
0
 10
-19.7138
 20
-9.98594
 11
-19.3224
 21
-10.7067
  0
LINE
  8
0
 10
-19.3224
 20
-10.7067
 11
-19.1867
 21
-10.9567
  0
LINE
  8
0
 10
-19.1867
 20
-10.9567
 11
-19.0822
 21
-11.1378
  0
LINE
  8
0
 10
-19.0822
 20
-11.1378
 11
-18.6718
 21
-11.8073
  0
LINE
  8
0
 10
-18.6718
 20
-11.8073
 11
-18.505
 21
-12.0797
  0
LINE
  8
0
 10
-18.505
 20
-12.0797
 11
-18.0813
 21
-12.6962
  0
LINE
  8
0
 10
-18.0813
 20
-12.6962
 11
-17.8793
 21
-12.9901
  0
LINE
  8
0
 10
-17.8793
 20
-12.9901
 11
-17.4482
 21
-13.5518
  0
LINE
  8
0
 10
-17.4482
 20
-13.5518
 11
-17.2068
 21
-13.8664
  0
LINE
  8
0
 10
-17.2068
 20
-13.8664
 11
-16.7751
 21
-14.3719
  0
LINE
  8
0
 10
-16.7751
 20
-14.3719
 11
-16.4987
 21
-14.6956
  0
LINE
  8
0
 10
-16.4987
 20
-14.6956
 11
-20.2635
 21
-18.4603
  0
LINE
  8
0
 10
-20.2635
 20
-18.4603
 11
-20.3412
 21
-18.5168
  0
LINE
  8
0
 10
-20.3412
 20
-18.5168
 11
-20.8235
 21
-19.0245
  0
LINE
  8
0
 10
-20.8235
 20
-19.0245
 11
-21.715
 21
-19.9629
  0
LINE
  8
0
 10
-21.715
 20
-19.9629
 11
-22.5507
 21
-20.8426
  0
LINE
  8
0
 10
-22.5507
 20
-20.8426
 11
-23.3282
 21
-21.661
  0
LINE
  8
0
 10
-23.3282
 20
-21.661
 11
-24.0454
 21
-22.416
  0
LINE
  8
0
 10
-24.0454
 20
-22.416
 11
-24.7005
 21
-23.1055
  0
LINE
  8
0
 10
-24.7005
 20
-23.1055
 11
-25.2914
 21
-23.7276
  0
LINE
  8
0
 10
-25.2914
 20
-23.7276
 11
-25.8167
 21
-24.2805
  0
LINE
  8
0
 10
-25.8167
 20
-24.2805
 11
-26.1247
 21
-24.6047
  0
LINE
  8
0
 10
-26.1247
 20
-24.6047
 11
-26.4045
 21
-24.9155
  0
LINE
  8
0
 10
-26.4045
 20
-24.9155
 11
-26.6136
 21
-25.2776
  0
LINE
  8
0
 10
-26.6136
 20
-25.2776
 11
-26.7428
 21
-25.6752
  0
LINE
  8
0
 10
-26.7428
 20
-25.6752
 11
-26.7865
 21
-26.091
  0
LINE
  8
0
 10
-26.7865
 20
-26.091
 11
-26.7428
 21
-26.5069
  0
LINE
  8
0
 10
-26.7428
 20
-26.5069
 11
-26.6136
 21
-26.9045
  0
LINE
  8
0
 10
-26.6136
 20
-26.9045
 11
-26.4045
 21
-27.2666
  0
LINE
  8
0
 10
-26.4045
 20
-27.2666
 11
-26.1247
 21
-27.5773
  0
LINE
  8
0
 10
-26.1247
 20
-27.5773
 11
-25.9581
 21
-27.7354
  0
LINE
  8
0
 10
-25.9581
 20
-27.7354
 11
-25.5257
 21
-28.1458
  0
LINE
  8
0
 10
-25.5257
 20
-28.1458
 11
-25.427
 21
-28.2395
  0
LINE
  8
0
 10
-25.427
 20
-28.2395
 11
-25.1417
 21
-28.4832
  0
LINE
  8
0
 10
-25.1417
 20
-28.4832
 11
-24.8334
 21
-28.7465
  0
LINE
  8
0
 10
-24.8334
 20
-28.7465
 11
-24.6125
 21
-28.9351
  0
LINE
  8
0
 10
-24.6125
 20
-28.9351
 11
-24.4798
 21
-29.0485
  0
LINE
  8
0
 10
-24.4798
 20
-29.0485
 11
-24.4355
 21
-29.0863
  0
LINE
  8
0
 10
-24.4355
 20
-29.0863
 11
-23.9938
 21
-29.4635
  0
LINE
  8
0
 10
-23.9938
 20
-29.4635
 11
-22.4985
 21
-30.6109
  0
LINE
  8
0
 10
-22.4985
 20
-30.6109
 11
-22.1603
 21
-30.8567
  0
LINE
  8
0
 10
-22.1603
 20
-30.8567
 11
-20.607
 21
-31.9242
  0
LINE
  8
0
 10
-20.607
 20
-31.9242
 11
-19
 21
-32.909
  0
LINE
  8
0
 10
-19
 20
-32.909
 11
-17.3437
 21
-33.8083
  0
LINE
  8
0
 10
-17.3437
 20
-33.8083
 11
-15.6425
 21
-34.6197
  0
LINE
  8
0
 10
-15.6425
 20
-34.6197
 11
-15.2606
 21
-34.7897
  0
LINE
  8
0
 10
-15.2606
 20
-34.7897
 11
-13.5193
 21
-35.511
  0
LINE
  8
0
 10
-13.5193
 20
-35.511
 11
-11.7426
 21
-36.1401
  0
LINE
  8
0
 10
-11.7426
 20
-36.1401
 11
-9.93552
 21
-36.6754
  0
LINE
  8
0
 10
-9.93552
 20
-36.6754
 11
-8.10285
 21
-37.1154
  0
LINE
  8
0
 10
-8.10285
 20
-37.1154
 11
-7.69388
 21
-37.2024
  0
LINE
  8
0
 10
-7.69388
 20
-37.2024
 11
-5.8407
 21
-37.5458
  0
LINE
  8
0
 10
-5.8407
 20
-37.5458
 11
-3.97208
 21
-37.7918
  0
LINE
  8
0
 10
-3.97208
 20
-37.7918
 11
-2.09315
 21
-37.9397
  0
LINE
  8
0
 10
-2.09315
 20
-37.9397
 11
-0.209057
 21
-37.989
  0
LINE
  8
0
 10
-0.209057
 20
-37.989
 11
0.209057
 21
-37.989
  0
LINE
  8
0
 10
0.209057
 20
-37.989
 11
2.09315
 21
-37.9397
  0
ENDSEC
  0
SECTION
  2
OBJECTS
  0
DICTIONARY
  0
ENDSEC
  0
EOF
