<?xml version="1.0" standalone="no"?>
<!DOCTYPE svg PUBLIC "-//W3C//DTD SVG 1.1//EN" "http://www.w3.org/Graphics/SVG/1.1/DTD/svg11.dtd">
<svg width="70mm" height="56mm" viewBox="-35 -28 70 56" xmlns="http://www.w3.org/2000/svg" version="1.1">
<title>OpenSCAD Model</title>
<path d="
M -35,28 L -26,28 L -26,27.6 L 26,27.6 L 26,28 L 35,28
 L 35,-28 L 26,-28 L 26,-27.6 L -26,-27.6 L -26,-28 L -35,-28
 z
M -33.35,24.3 L -33.35,17.7 L -30.65,17.7 L -30.65,24.3 z
M -33.35,-17.7 L -33.35,-24.3 L -30.65,-24.3 L -30.65,-17.7 z
M -23.1231,20.4707 L -23.1231,19.5293 L -23.0403,19.261 L -22.8456,18.6297 L -22.6874,18.3977 L -22.3152,17.8518
 L -22.0958,17.6768 L -21.5792,17.2648 L -20.9641,17.0234 L -20.7028,16.9209 L -20.4229,16.8999 L -19.764,16.8505
 L -19.1198,16.9975 L -18.8461,17.06 L -18.603,17.2003 L -18.0308,17.5307 L -17.5814,18.0151 L -17.3905,18.2208
 L -17.2687,18.4737 L -16.982,19.0691 L -16.9401,19.3466 L -16.8417,20 L -16.9401,20.6534 L -16.982,20.9309
 L -17.2687,21.5263 L -17.3905,21.7792 L -17.5814,21.9849 L -18.0308,22.4693 L -18.603,22.7997 L -18.8461,22.94
 L -19.1198,23.0025 L -19.764,23.1495 L -20.4229,23.1001 L -20.7028,23.0791 L -20.9641,22.9766 L -21.5792,22.7352
 L -22.0958,22.3232 L -22.3152,22.1482 L -22.6874,21.6023 L -22.8456,21.3703 L -23.0403,20.739 z
M -23.1231,-19.5293 L -23.1231,-20.4707 L -23.0403,-20.739 L -22.8456,-21.3703 L -22.6874,-21.6023 L -22.3152,-22.1482
 L -22.0958,-22.3232 L -21.5792,-22.7352 L -20.9641,-22.9766 L -20.7028,-23.0791 L -20.4229,-23.1001 L -19.764,-23.1495
 L -19.1198,-23.0025 L -18.8461,-22.94 L -18.603,-22.7997 L -18.0308,-22.4693 L -17.5814,-21.9849 L -17.3905,-21.7792
 L -17.2687,-21.5263 L -16.982,-20.9309 L -16.9401,-20.6534 L -16.8417,-20 L -16.9401,-19.3466 L -16.982,-19.0691
 L -17.2687,-18.4737 L -17.3905,-18.2208 L -17.5814,-18.0151 L -18.0308,-17.5307 L -18.603,-17.2003 L -18.8461,-17.06
 L -19.1198,-16.9975 L -19.764,-16.8505 L -20.4229,-16.8999 L -20.7028,-16.9209 L -20.9641,-17.0234 L -21.5792,-17.2648
 L -22.0958,-17.6768 L -22.3152,-17.8518 L -22.6874,-18.3977 L -22.8456,-18.6297 L -23.0403,-19.261 z
M 1.01564,-20.6513 L 1.01564,-21.0687 L 1.13864,-21.4674 L 1.37373,-21.8122 L 1.7,-22.0724 L 2.08847,-22.2249
 L 2.50462,-22.2561 L 2.91148,-22.1632 L 3.27289,-21.9546 L 3.55673,-21.6486 L 3.7378,-21.2727 L 3.8,-20.86
 L 3.7378,-20.4473 L 3.55673,-20.0714 L 3.27289,-19.7654 L 2.91148,-19.5568 L 2.50462,-19.4639 L 2.08847,-19.4951
 L 1.7,-19.6476 L 1.37373,-19.9078 L 1.13864,-20.2526 z
M 1.78564,21.7037 L 1.78564,21.2863 L 1.90864,20.8876 L 2.14373,20.5428 L 2.47,20.2826 L 2.85847,20.1301
 L 3.27462,20.0989 L 3.68148,20.1918 L 4.04288,20.4004 L 4.32673,20.7064 L 4.5078,21.0823 L 4.57,21.495
 L 4.5078,21.9077 L 4.32673,22.2836 L 4.04288,22.5896 L 3.68148,22.7982 L 3.27462,22.8911 L 2.85847,22.8599
 L 2.47,22.7074 L 2.14373,22.4472 L 1.90864,22.1024 z
M 4.41564,-20.6513 L 4.41564,-21.0687 L 4.53864,-21.4674 L 4.77373,-21.8122 L 5.1,-22.0724 L 5.48847,-22.2249
 L 5.90462,-22.2561 L 6.31148,-22.1632 L 6.67288,-21.9546 L 6.95673,-21.6486 L 7.1378,-21.2727 L 7.2,-20.86
 L 7.1378,-20.4473 L 6.95673,-20.0714 L 6.67288,-19.7654 L 6.31148,-19.5568 L 5.90462,-19.4639 L 5.48847,-19.4951
 L 5.1,-19.6476 L 4.77373,-19.9078 L 4.53864,-20.2526 z
M 7.91564,-20.6513 L 7.91564,-21.0687 L 8.03864,-21.4674 L 8.27373,-21.8122 L 8.6,-22.0724 L 8.98847,-22.2249
 L 9.40462,-22.2561 L 9.81148,-22.1632 L 10.1729,-21.9546 L 10.4567,-21.6486 L 10.6378,-21.2727 L 10.7,-20.86
 L 10.6378,-20.4473 L 10.4567,-20.0714 L 10.1729,-19.7654 L 9.81148,-19.5568 L 9.40462,-19.4639 L 8.98847,-19.4951
 L 8.6,-19.6476 L 8.27373,-19.9078 L 8.03864,-20.2526 z
M 11.3156,-20.6513 L 11.3156,-21.0687 L 11.4386,-21.4674 L 11.6737,-21.8122 L 12,-22.0724 L 12.3885,-22.2249
 L 12.8046,-22.2561 L 13.2115,-22.1632 L 13.5729,-21.9546 L 13.8567,-21.6486 L 14.0378,-21.2727 L 14.1,-20.86
 L 14.0378,-20.4473 L 13.8567,-20.0714 L 13.5729,-19.7654 L 13.2115,-19.5568 L 12.8046,-19.4639 L 12.3885,-19.4951
 L 12,-19.6476 L 11.6737,-19.9078 L 11.4386,-20.2526 z
M 16.8769,20.4707 L 16.8769,19.5293 L 16.9597,19.261 L 17.1544,18.6297 L 17.3126,18.3977 L 17.6848,17.8518
 L 17.9042,17.6768 L 18.4208,17.2648 L 19.0359,17.0234 L 19.2972,16.9209 L 19.5771,16.8999 L 20.236,16.8505
 L 20.8802,16.9975 L 21.1539,17.06 L 21.397,17.2003 L 21.9692,17.5307 L 22.4186,18.0151 L 22.6095,18.2208
 L 22.7313,18.4737 L 23.018,19.0691 L 23.0599,19.3466 L 23.1583,20 L 23.0599,20.6534 L 23.018,20.9309
 L 22.7313,21.5263 L 22.6095,21.7792 L 22.4186,21.9849 L 21.9692,22.4693 L 21.397,22.7997 L 21.1539,22.94
 L 20.8802,23.0025 L 20.236,23.1495 L 19.5771,23.1001 L 19.2972,23.0791 L 19.0359,22.9766 L 18.4208,22.7352
 L 17.9042,22.3232 L 17.6848,22.1482 L 17.3126,21.6023 L 17.1544,21.3703 L 16.9597,20.739 z
M 16.8769,-19.5293 L 16.8769,-20.4707 L 16.9597,-20.739 L 17.1544,-21.3703 L 17.3126,-21.6023 L 17.6848,-22.1482
 L 17.9042,-22.3232 L 18.4208,-22.7352 L 19.0359,-22.9766 L 19.2972,-23.0791 L 19.5771,-23.1001 L 20.236,-23.1495
 L 20.8802,-23.0025 L 21.1539,-22.94 L 21.397,-22.7997 L 21.9692,-22.4693 L 22.4186,-21.9849 L 22.6095,-21.7792
 L 22.7313,-21.5263 L 23.018,-20.9309 L 23.0599,-20.6534 L 23.1583,-20 L 23.0599,-19.3466 L 23.018,-19.0691
 L 22.7313,-18.4737 L 22.6095,-18.2208 L 22.4186,-18.0151 L 21.9692,-17.5307 L 21.397,-17.2003 L 21.1539,-17.06
 L 20.8802,-16.9975 L 20.236,-16.8505 L 19.5771,-16.8999 L 19.2972,-16.9209 L 19.0359,-17.0234 L 18.4208,-17.2648
 L 17.9042,-17.6768 L 17.6848,-17.8518 L 17.3126,-18.3977 L 17.1544,-18.6297 L 16.9597,-19.261 z
M 30.65,24.3 L 30.65,17.7 L 33.35,17.7 L 33.35,24.3 z
M 30.65,-17.7 L 30.65,-24.3 L 33.35,-24.3 L 33.35,-17.7 z
" stroke="black" fill="lightgray" stroke-width="0.5"/>
</svg>
