<?xml version="1.0" encoding="UTF-8" standalone="no"?>
<svg
   xmlns:dc="http://purl.org/dc/elements/1.1/"
   xmlns:cc="http://creativecommons.org/ns#"
   xmlns:rdf="http://www.w3.org/1999/02/22-rdf-syntax-ns#"
   xmlns:svg="http://www.w3.org/2000/svg"
   xmlns="http://www.w3.org/2000/svg"
   xmlns:sodipodi="http://sodipodi.sourceforge.net/DTD/sodipodi-0.dtd"
   xmlns:inkscape="http://www.inkscape.org/namespaces/inkscape"
   width="80mm"
   height="80mm"
   viewBox="-40 -40 80 80"
   version="1.1"
   id="svg6"
   sodipodi:docname="888_4045_rotor.svg"
   inkscape:version="0.92.5 (2060ec1f9f, 2020-04-08)">
  <metadata
     id="metadata12">
    <rdf:RDF>
      <cc:Work
         rdf:about="">
        <dc:format>image/svg+xml</dc:format>
        <dc:type
           rdf:resource="http://purl.org/dc/dcmitype/StillImage" />
      </cc:Work>
    </rdf:RDF>
  </metadata>
  <defs
     id="defs10" />
  <sodipodi:namedview
     pagecolor="#ffffff"
     bordercolor="#666666"
     borderopacity="1"
     objecttolerance="10"
     gridtolerance="10"
     guidetolerance="10"
     inkscape:pageopacity="0"
     inkscape:pageshadow="2"
     inkscape:window-width="1848"
     inkscape:window-height="1016"
     id="namedview8"
     showgrid="false"
     inkscape:zoom="3.1220833"
     inkscape:cx="130.63857"
     inkscape:cy="188.1001"
     inkscape:window-x="72"
     inkscape:window-y="27"
     inkscape:window-maximized="1"
     inkscape:current-layer="svg6" />
  <title
     id="title2">OpenSCAD Model</title>
  <path
     d=" M 2.09344,39.9452 L 4.18114,39.7809 L 6.25738,39.5075 L 8.31647,39.1259 L 10.3528,38.637 L 12.3607,38.0423  L 14.3347,37.3432 L 16.2695,36.5418 L 18.1596,35.6403 L 20,34.641 L 21.7856,33.5468 L 23.5114,32.3607  L 25.1728,31.0858 L 26.7652,29.7258 L 28.2843,28.2843 L 29.7258,26.7652 L 31.0858,25.1728 L 32.3607,23.5114  L 33.5468,21.7856 L 34.641,20 L 35.6403,18.1596 L 36.5418,16.2695 L 37.3432,14.3347 L 38.0423,12.3607  L 38.637,10.3528 L 39.1259,8.31647 L 39.5075,6.25738 L 39.7809,4.18114 L 39.9452,2.09344 L 40,-1.52886e-07  L 39.9452,-2.09344 L 39.7809,-4.18114 L 39.5075,-6.25738 L 39.1259,-8.31647 L 38.637,-10.3528 L 38.0423,-12.3607  L 37.3432,-14.3347 L 36.5418,-16.2695 L 35.6403,-18.1596 L 34.641,-20 L 33.5468,-21.7856 L 32.3607,-23.5114  L 31.0858,-25.1728 L 29.7258,-26.7652 L 28.2843,-28.2843 L 26.7652,-29.7258 L 25.1728,-31.0858 L 23.5114,-32.3607  L 21.7856,-33.5468 L 20,-34.641 L 18.1596,-35.6403 L 16.2695,-36.5418 L 14.3347,-37.3432 L 12.3607,-38.0423  L 10.3528,-38.637 L 8.31647,-39.1259 L 6.25738,-39.5075 L 4.18114,-39.7809 L 2.09344,-39.9452 L -1.52886e-07,-40  L -2.09344,-39.9452 L -4.18114,-39.7809 L -6.25738,-39.5075 L -8.31647,-39.1259 L -10.3528,-38.637 L -12.3607,-38.0423  L -14.3347,-37.3432 L -16.2695,-36.5418 L -18.1596,-35.6403 L -20,-34.641 L -21.7856,-33.5468 L -23.5114,-32.3607  L -25.1728,-31.0858 L -26.7652,-29.7258 L -28.2843,-28.2843 L -29.7258,-26.7652 L -31.0858,-25.1728 L -32.3607,-23.5114  L -33.5468,-21.7856 L -34.641,-20 L -35.6403,-18.1596 L -36.5418,-16.2695 L -37.3432,-14.3347 L -38.0423,-12.3607  L -38.637,-10.3528 L -39.1259,-8.31647 L -39.5075,-6.25738 L -39.7809,-4.18114 L -39.9452,-2.09344 L -40,1.52886e-07  L -39.9452,2.09344 L -39.7809,4.18114 L -39.5075,6.25738 L -39.1259,8.31647 L -38.637,10.3528 L -38.0423,12.3607  L -37.3432,14.3347 L -36.5418,16.2695 L -35.6403,18.1596 L -34.641,20 L -33.5468,21.7856 L -32.3607,23.5114  L -31.0858,25.1728 L -29.7258,26.7652 L -28.2843,28.2843 L -26.7652,29.7258 L -25.1728,31.0858 L -23.5114,32.3607  L -21.7856,33.5468 L -20,34.641 L -18.1596,35.6403 L -16.2695,36.5418 L -14.3347,37.3432 L -12.3607,38.0423  L -10.3528,38.637 L -8.31647,39.1259 L -6.25738,39.5075 L -4.18114,39.7809 L -2.09344,39.9452 L 1.52886e-07,40  z M -22.9557,-13.626 L -23.3646,-13.713 L -23.7466,-13.883 L -24.3239,-14.2793 L -25.391,-15.0119 L -26.3913,-15.6986  L -27.322,-16.3375 L -28.1805,-16.9268 L -28.9646,-17.4651 L -29.672,-17.9507 L -30.3008,-18.3823 L -30.6695,-18.6354  L -31.0077,-18.8812 L -31.2875,-19.1919 L -31.4966,-19.554 L -31.6258,-19.9517 L -31.6695,-20.3675 L -31.6258,-20.7833  L -31.4966,-21.181 L -31.2875,-21.5431 L -31.1574,-21.7324 L -30.8197,-22.2237 L -30.7426,-22.3358 L -30.5142,-22.6335  L -30.2674,-22.9552 L -30.0906,-23.1856 L -29.9844,-23.3241 L -29.9489,-23.3703 L -29.5953,-23.8311 L -28.3712,-25.2643  L -28.0915,-25.575 L -26.7941,-26.9421 L -25.427,-28.2395 L -23.9938,-29.4635 L -22.4985,-30.6109 L -22.1603,-30.8567  L -20.607,-31.9242 L -19,-32.909 L -17.3437,-33.8083 L -15.6425,-34.6197 L -15.2606,-34.7897 L -13.5193,-35.511  L -11.7426,-36.1401 L -9.93552,-36.6754 L -8.10285,-37.1154 L -7.69388,-37.2024 L -5.8407,-37.5458 L -3.97208,-37.7918  L -2.09315,-37.9397 L -0.209057,-37.989 L 0.209056,-37.989 L 2.09315,-37.9397 L 3.97208,-37.7918 L 5.8407,-37.5458  L 7.69388,-37.2024 L 8.10285,-37.1154 L 9.93552,-36.6754 L 11.7426,-36.1401 L 13.5193,-35.511 L 15.2606,-34.7897  L 15.6425,-34.6197 L 17.3437,-33.8083 L 17.8541,-33.5311 L 17.9053,-33.5033 L 18.0587,-33.42 L 18.314,-33.2815  L 18.6703,-33.088 L 19,-32.909 L 19.116,-32.8379 L 19.6244,-32.5264 L 19.8202,-32.4063 L 20.1585,-32.1606  L 20.4382,-31.8499 L 20.6473,-31.4878 L 20.7765,-31.0901 L 20.8202,-30.6743 L 20.7765,-30.2585 L 20.6473,-29.8608  L 20.4382,-29.4987 L 20.2044,-29.1175 L 19.8055,-28.4674 L 19.3568,-27.7361 L 18.8594,-26.9255 L 18.3148,-26.0379  L 17.7245,-25.0757 L 17.09,-24.0415 L 16.4131,-22.9382 L 16.0469,-22.3414 L 15.7671,-22.0307 L 15.4288,-21.7849  L 15.0469,-21.6148 L 14.6379,-21.5279 L 14.2198,-21.5279 L 13.8108,-21.6148 L 13.4288,-21.7849 L 12.8,-22.1702  L 11.5301,-22.8597 L 10.4147,-23.3918 L 9.27292,-23.8647 L 7.91083,-24.347 L 6.52537,-24.7574 L 5.32369,-25.0459  L 4.10853,-25.2712 L 2.67593,-25.4598 L 1.23542,-25.5731 L -6.931e-06,-25.6055 L -1.23542,-25.5731 L -2.67593,-25.4598  L -4.10853,-25.2712 L -5.32368,-25.0459 L -6.52537,-24.7574 L -7.91083,-24.347 L -9.27292,-23.8647 L -10.4147,-23.3918  L -11.5301,-22.8597 L -12.8,-22.1702 L -14.032,-21.4153 L -15.0505,-20.7153 L -16.031,-19.9629 L -17.1297,-19.0245  L -18.1779,-18.0299 L -19.0286,-17.1334 L -19.8312,-16.1937 L -20.7108,-15.0473 L -21.1286,-14.4395 L -21.4083,-14.1288  L -21.7466,-13.883 L -22.1286,-13.713 L -22.5375,-13.626 z M -2.21127,-19.636 L -2.50032,-19.7557 L -2.73823,-19.9589 L -2.9017,-20.2257 L -2.97474,-20.5299 L -3.27611,-22.5124  L -3.25156,-22.8243 L -3.13183,-23.1133 L -2.92864,-23.3512 L -2.66188,-23.5147 L -2.35765,-23.5877 L -1.36131,-23.6661  L -1.04941,-23.6416 L -0.760352,-23.5219 L -0.522445,-23.3187 L -0.358971,-23.0519 L -0.285933,-22.7477 L -0.273468,-20.7425  L -0.298016,-20.4306 L -0.417746,-20.1415 L -0.620938,-19.9036 L -0.887702,-19.7401 L -1.19193,-19.6671 L -1.89936,-19.6114  z M 3.93891,-19.3055 L 3.24117,-19.4348 L 2.94625,-19.5392 L 2.69803,-19.7297 L 2.52082,-19.9875 L 2.43196,-20.2875  L 2.44015,-20.6003 L 2.66215,-22.5932 L 2.76659,-22.8881 L 2.95705,-23.1363 L 3.21489,-23.3135 L 3.51488,-23.4024  L 3.82764,-23.3942 L 4.81033,-23.2121 L 5.10525,-23.1076 L 5.35346,-22.9172 L 5.53067,-22.6593 L 5.61953,-22.3593  L 5.61134,-22.0466 L 5.1044,-20.1065 L 4.99996,-19.8116 L 4.8095,-19.5633 L 4.55166,-19.3861 L 4.25167,-19.2973  z M -7.52828,-18.4354 L -7.81067,-18.5701 L -8.03761,-18.7855 L -8.1869,-19.0604 L -8.99111,-20.8973 L -9.04812,-21.205  L -9.00728,-21.5152 L -8.87259,-21.7976 L -8.65722,-22.0245 L -8.38227,-22.1738 L -7.44017,-22.5074 L -7.13254,-22.5644  L -6.82235,-22.5236 L -6.53996,-22.3889 L -6.31301,-22.1735 L -6.16372,-21.8986 L -5.6327,-19.9649 L -5.57568,-19.6573  L -5.61652,-19.3471 L -5.75121,-19.0647 L -5.96658,-18.8378 L -6.24153,-18.6885 L -6.91045,-18.4516 L -7.21809,-18.3946  z M 8.80132,-17.6282 L 8.16082,-17.9337 L 7.90298,-18.1109 L 7.71251,-18.3591 L 7.60808,-18.654 L 7.59989,-18.9668  L 7.68875,-19.2668 L 8.41898,-21.1343 L 8.59619,-21.3922 L 8.84441,-21.5826 L 9.13933,-21.6871 L 9.4521,-21.6953  L 9.75208,-21.6064 L 10.6541,-21.1761 L 10.912,-20.9989 L 11.1025,-20.7507 L 11.2069,-20.4558 L 11.2151,-20.143  L 11.1262,-19.843 L 10.1344,-18.1003 L 9.9572,-17.8424 L 9.70899,-17.6519 L 9.41406,-17.5475 L 9.1013,-17.5393  z M -12.3508,-15.9158 L -12.6258,-16.0651 L -12.8411,-16.292 L -14.0934,-17.8582 L -14.2281,-18.1406 L -14.2689,-18.4508  L -14.2119,-18.7584 L -14.0626,-19.0334 L -13.8357,-19.2488 L -13.012,-19.8148 L -12.7296,-19.9495 L -12.4194,-19.9904  L -12.1118,-19.9333 L -11.8368,-19.7841 L -11.6215,-19.5571 L -10.6081,-17.8268 L -10.4734,-17.5444 L -10.4325,-17.2342  L -10.4896,-16.9266 L -10.6388,-16.6516 L -10.8658,-16.4363 L -11.4506,-16.0343 L -11.733,-15.8996 L -12.0432,-15.8588  z M 13.3307,-14.5861 L 13.0639,-14.7496 L 12.5243,-15.2104 L 12.3211,-15.4483 L 12.2014,-15.7374 L 12.1769,-16.0493  L 12.2499,-16.3535 L 12.4134,-16.6203 L 13.6021,-18.2352 L 13.84,-18.4384 L 14.129,-18.5581 L 14.4409,-18.5827  L 14.7452,-18.5096 L 15.0119,-18.3462 L 15.7719,-17.6971 L 15.9751,-17.4592 L 16.0948,-17.1701 L 16.1194,-16.8582  L 16.0463,-16.554 L 15.8829,-16.2872 L 14.4738,-14.8605 L 14.2359,-14.6573 L 13.9468,-14.5376 L 13.6349,-14.5131  z M -16.3535,-12.2499 L -16.6203,-12.4134 L -18.2352,-13.6021 L -18.4384,-13.84 L -18.5581,-14.129 L -18.5827,-14.4409  L -18.5096,-14.7452 L -18.3462,-15.0119 L -17.6971,-15.7719 L -17.4592,-15.9751 L -17.1701,-16.0948 L -16.8582,-16.1194  L -16.554,-16.0463 L -16.2872,-15.8829 L -14.8605,-14.4738 L -14.6573,-14.2359 L -14.5376,-13.9468 L -14.5131,-13.6349  L -14.5861,-13.3307 L -14.7496,-13.0639 L -15.2104,-12.5243 L -15.4483,-12.3211 L -15.7374,-12.2014 L -16.0493,-12.1769  z M -8.71771,-12.3726 L -8.98589,-12.5337 L -9.19115,-12.7698 L -10.3782,-14.3864 L -10.5005,-14.6744 L -10.5277,-14.9861  L -10.4573,-15.291 L -10.2962,-15.5591 L -10.0601,-15.7644 L -9.7589,-15.9526 L -9.4709,-16.0748 L -9.15922,-16.1021  L -8.85437,-16.0317 L -8.58619,-15.8706 L -8.38093,-15.6345 L -7.44831,-13.8589 L -7.32606,-13.5709 L -7.29879,-13.2592  L -7.36917,-12.9544 L -7.53031,-12.6862 L -7.76644,-12.4809 L -7.81319,-12.4517 L -8.10118,-12.3295 L -8.41286,-12.3022  z M 16.9266,-10.4896 L 16.6516,-10.6388 L 16.4363,-10.8658 L 16.0343,-11.4506 L 15.8996,-11.733 L 15.8588,-12.0432  L 15.9158,-12.3508 L 16.0651,-12.6258 L 16.292,-12.8411 L 17.8582,-14.0934 L 18.1406,-14.2281 L 18.4508,-14.2689  L 18.7584,-14.2119 L 19.0334,-14.0626 L 19.2488,-13.8357 L 19.8148,-13.012 L 19.9495,-12.7296 L 19.9904,-12.4194  L 19.9333,-12.1118 L 19.7841,-11.8368 L 19.5571,-11.6215 L 17.8268,-10.6081 L 17.5444,-10.4734 L 17.2342,-10.4325  z M -2.79545,-9.61769 L -3.12344,-9.83069 L -3.36956,-10.1346 L -3.50971,-10.4997 L -3.53018,-10.8903 L -3.42896,-11.268  L -3.21596,-11.596 L -2.91203,-11.8422 L -2.54692,-11.9823 L -2.15637,-12.0028 L -1.77861,-11.9016 L -1.45062,-11.6886  L -1.2045,-11.3846 L -1.06434,-11.0195 L -1.04388,-10.629 L -1.1451,-10.2512 L -1.3581,-9.92321 L -1.66203,-9.67709  L -2.02714,-9.53694 L -2.41769,-9.51647 z M -19.2668,-7.68875 L -21.1343,-8.41898 L -21.3922,-8.59619 L -21.5826,-8.84441 L -21.6871,-9.13933 L -21.6953,-9.4521  L -21.6064,-9.75208 L -21.1761,-10.6541 L -20.9989,-10.912 L -20.7507,-11.1025 L -20.4558,-11.2069 L -20.143,-11.2151  L -19.843,-11.1262 L -18.1003,-10.1344 L -17.8424,-9.9572 L -17.6519,-9.70899 L -17.5475,-9.41406 L -17.5393,-9.1013  L -17.6282,-8.80132 L -17.9337,-8.16082 L -18.1109,-7.90298 L -18.3591,-7.71251 L -18.654,-7.60808 L -18.9668,-7.59989  z M -7.62033,-6.95191 L -7.98544,-7.09206 L -8.28937,-7.33818 L -8.50237,-7.66617 L -8.60359,-8.04393 L -8.58312,-8.43448  L -8.44297,-8.79959 L -8.19685,-9.10352 L -7.86886,-9.31652 L -7.4911,-9.41774 L -7.10055,-9.39728 L -6.73544,-9.25712  L -6.43151,-9.01101 L -6.2185,-8.68301 L -6.11728,-8.30525 L -6.13775,-7.9147 L -6.2779,-7.54959 L -6.52402,-7.24566  L -6.85202,-7.03266 L -7.22978,-6.93144 z M 19.3471,-5.61652 L 19.0647,-5.75121 L 18.8378,-5.96658 L 18.6885,-6.24153 L 18.4516,-6.91045 L 18.3946,-7.21809  L 18.4354,-7.52828 L 18.5701,-7.81067 L 18.7855,-8.03761 L 19.0604,-8.1869 L 20.8973,-8.99111 L 21.205,-9.04812  L 21.5152,-9.00728 L 21.7976,-8.87259 L 22.0245,-8.65722 L 22.1738,-8.38227 L 22.5074,-7.44017 L 22.5644,-7.13254  L 22.5236,-6.82235 L 22.3889,-6.53996 L 22.1735,-6.31301 L 21.8986,-6.16372 L 19.9649,-5.6327 L 19.6573,-5.57568  z M -0.421304,8.03897 L -0.841453,8.0059 L -1.2593,7.95089 L -1.67369,7.87409 L -2.08349,7.7757 L -2.48759,7.656  L -2.88486,7.51532 L -3.27423,7.35404 L -3.65462,7.1726 L -4.025,6.9715 L -4.38434,6.7513 L -4.73167,6.51259  L -5.06603,6.25602 L -5.3865,5.98232 L -5.69221,5.69221 L -5.98232,5.3865 L -6.25602,5.06603 L -6.51259,4.73167  L -6.7513,4.38434 L -6.9715,4.025 L -7.1726,3.65462 L -7.35404,3.27423 L -7.51532,2.88486 L -7.656,2.48759  L -7.7757,2.08349 L -7.87409,1.67369 L -7.95089,1.2593 L -8.0059,0.841455 L -8.03897,0.421304 L -8.05,4.04821e-08  L -8.03897,-0.421304 L -8.0059,-0.841453 L -7.95089,-1.2593 L -7.87409,-1.67369 L -7.7757,-2.08349 L -7.656,-2.48759  L -7.51532,-2.88486 L -7.35404,-3.27423 L -7.1726,-3.65462 L -6.9715,-4.025 L -6.7513,-4.38434 L -6.51259,-4.73167  L -6.25602,-5.06603 L -5.98232,-5.3865 L -5.69221,-5.69221 L -5.3865,-5.98232 L -5.06603,-6.25602 L -4.73167,-6.51259  L -4.38434,-6.7513 L -4.025,-6.9715 L -3.65462,-7.1726 L -3.27423,-7.35404 L -2.88486,-7.51532 L -2.48759,-7.656  L -2.08349,-7.7757 L -1.67369,-7.87409 L -1.2593,-7.95089 L -0.841455,-8.0059 L -0.421304,-8.03897 L -4.04821e-08,-8.05  L 0.421304,-8.03897 L 0.841453,-8.0059 L 1.2593,-7.95089 L 1.67369,-7.87409 L 2.08349,-7.7757 L 2.48759,-7.656  L 2.88486,-7.51532 L 3.27423,-7.35404 L 3.65462,-7.1726 L 4.025,-6.9715 L 4.38434,-6.7513 L 4.73167,-6.51259  L 5.06603,-6.25602 L 5.3865,-5.98232 L 5.69221,-5.69221 L 5.98232,-5.3865 L 6.25602,-5.06603 L 6.51259,-4.73167  L 6.7513,-4.38434 L 6.9715,-4.025 L 7.1726,-3.65462 L 7.35404,-3.27423 L 7.51532,-2.88486 L 7.656,-2.48759  L 7.7757,-2.08349 L 7.87409,-1.67369 L 7.95089,-1.2593 L 8.0059,-0.841455 L 8.03897,-0.421304 L 8.05,-4.04821e-08  L 8.03897,0.421304 L 8.0059,0.841453 L 7.95089,1.2593 L 7.87409,1.67369 L 7.7757,2.08349 L 7.656,2.48759  L 7.51532,2.88486 L 7.35404,3.27423 L 7.1726,3.65462 L 6.9715,4.025 L 6.7513,4.38434 L 6.51259,4.73167  L 6.25602,5.06603 L 5.98232,5.3865 L 5.69221,5.69221 L 5.3865,5.98232 L 5.06603,6.25602 L 4.73167,6.51259  L 4.38434,6.7513 L 4.025,6.9715 L 3.65462,7.1726 L 3.27423,7.35404 L 2.88486,7.51532 L 2.48759,7.656  L 2.08349,7.7757 L 1.67369,7.87409 L 1.2593,7.95089 L 0.841455,8.0059 L 0.421304,8.03897 L 4.04821e-08,8.05  z M 8.48976,-4.79651 L 8.04777,-5.03152 L 7.70003,-5.39162 L 7.48058,-5.84155 L 7.41092,-6.33726 L 7.49784,-6.83025  L 7.73285,-7.27224 L 8.09295,-7.61998 L 8.54288,-7.83943 L 9.0386,-7.9091 L 9.53158,-7.82217 L 9.97358,-7.58716  L 10.3213,-7.22706 L 10.5408,-6.77714 L 10.6104,-6.28142 L 10.5235,-5.78843 L 10.2885,-5.34644 L 9.92839,-4.9987  L 9.47847,-4.77925 L 8.98275,-4.70958 z M -20.6003,-2.44015 L -22.5932,-2.66215 L -22.8881,-2.76659 L -23.1363,-2.95705 L -23.3135,-3.21489 L -23.4024,-3.51488  L -23.3942,-3.82764 L -23.2121,-4.81033 L -23.1076,-5.10525 L -22.9172,-5.35346 L -22.6593,-5.53067 L -22.3593,-5.61953  L -22.0466,-5.61134 L -20.1065,-5.1044 L -19.8116,-4.99996 L -19.5633,-4.8095 L -19.3861,-4.55166 L -19.2973,-4.25167  L -19.3055,-3.93891 L -19.4348,-3.24117 L -19.5392,-2.94625 L -19.7297,-2.69803 L -19.9875,-2.52082 L -20.2875,-2.43196  z M 10.2512,-1.1451 L 9.92321,-1.3581 L 9.67709,-1.66203 L 9.53694,-2.02714 L 9.51647,-2.41769 L 9.61769,-2.79545  L 9.83069,-3.12344 L 10.1346,-3.36956 L 10.4997,-3.50971 L 10.8903,-3.53018 L 11.268,-3.42896 L 11.596,-3.21596  L 11.8422,-2.91203 L 11.9823,-2.54692 L 12.0028,-2.15637 L 11.9016,-1.77861 L 11.6886,-1.45062 L 11.3846,-1.2045  L 11.0195,-1.06434 L 10.629,-1.04388 z M 20.4306,-0.298016 L 20.1415,-0.417746 L 19.9036,-0.620938 L 19.7401,-0.887702 L 19.6671,-1.19193 L 19.6114,-1.89936  L 19.636,-2.21127 L 19.7557,-2.50032 L 19.9589,-2.73823 L 20.2257,-2.9017 L 20.5299,-2.97474 L 22.5124,-3.27611  L 22.8243,-3.25156 L 23.1133,-3.13183 L 23.3512,-2.92864 L 23.5147,-2.66188 L 23.5877,-2.35765 L 23.6661,-1.36131  L 23.6416,-1.04941 L 23.5219,-0.760352 L 23.3187,-0.522445 L 23.0519,-0.358971 L 22.7477,-0.285933 L 20.7425,-0.273468  z M -22.8243,3.25156 L -23.1133,3.13183 L -23.3512,2.92864 L -23.5147,2.66188 L -23.5877,2.35765 L -23.6661,1.36131  L -23.6416,1.04941 L -23.5219,0.760352 L -23.3187,0.522445 L -23.0519,0.358971 L -22.7477,0.285933 L -20.7425,0.273468  L -20.4306,0.298016 L -20.1415,0.417746 L -19.9036,0.620938 L -19.7401,0.887702 L -19.6671,1.19193 L -19.6114,1.89936  L -19.636,2.21127 L -19.7557,2.50032 L -19.9589,2.73823 L -20.2257,2.9017 L -20.5299,2.97474 L -22.5124,3.27611  z M -11.268,3.42896 L -11.596,3.21596 L -11.8422,2.91203 L -11.9823,2.54692 L -12.0028,2.15637 L -11.9016,1.77861  L -11.6886,1.45062 L -11.3846,1.2045 L -11.0195,1.06434 L -10.629,1.04388 L -10.2512,1.1451 L -9.92321,1.3581  L -9.67709,1.66203 L -9.53694,2.02714 L -9.51647,2.41769 L -9.61769,2.79545 L -9.83069,3.12344 L -10.1346,3.36956  L -10.4997,3.50971 L -10.8903,3.53018 z M 22.0466,5.61134 L 20.1065,5.1044 L 19.8116,4.99996 L 19.5633,4.8095 L 19.3861,4.55166 L 19.2973,4.25167  L 19.3055,3.93891 L 19.4348,3.24117 L 19.5392,2.94625 L 19.7297,2.69803 L 19.9875,2.52082 L 20.2875,2.43196  L 20.6003,2.44015 L 22.5932,2.66215 L 22.8881,2.76659 L 23.1363,2.95705 L 23.3135,3.21489 L 23.4024,3.51488  L 23.3942,3.82764 L 23.2121,4.81033 L 23.1076,5.10525 L 22.9172,5.35346 L 22.6593,5.53067 L 22.3593,5.61953  z M -9.53158,7.82217 L -9.97358,7.58716 L -10.3213,7.22706 L -10.5408,6.77714 L -10.6104,6.28142 L -10.5235,5.78843  L -10.2885,5.34644 L -9.92839,4.9987 L -9.47847,4.77925 L -8.98275,4.70958 L -8.48976,4.79651 L -8.04777,5.03152  L -7.70003,5.39162 L -7.48058,5.84155 L -7.41092,6.33726 L -7.49784,6.83025 L -7.73285,7.27224 L -8.09295,7.61998  L -8.54288,7.83943 L -9.0386,7.9091 z M -21.5152,9.00728 L -21.7976,8.87259 L -22.0245,8.65722 L -22.1738,8.38227 L -22.5074,7.44017 L -22.5644,7.13254  L -22.5236,6.82235 L -22.3889,6.53996 L -22.1735,6.31301 L -21.8986,6.16372 L -19.9649,5.6327 L -19.6573,5.57568  L -19.3471,5.61652 L -19.0647,5.75121 L -18.8378,5.96658 L -18.6885,6.24153 L -18.4516,6.91045 L -18.3946,7.21809  L -18.4354,7.52828 L -18.5701,7.81067 L -18.7855,8.03761 L -19.0604,8.1869 L -20.8973,8.99111 L -21.205,9.04812  z M 19.843,11.1262 L 18.1003,10.1344 L 17.8424,9.9572 L 17.6519,9.70899 L 17.5475,9.41406 L 17.5393,9.1013  L 17.6282,8.80132 L 17.9337,8.16082 L 18.1109,7.90298 L 18.3591,7.71251 L 18.654,7.60808 L 18.9668,7.59989  L 19.2668,7.68875 L 21.1343,8.41898 L 21.3922,8.59619 L 21.5826,8.84441 L 21.6871,9.13933 L 21.6953,9.4521  L 21.6064,9.75208 L 21.1761,10.6541 L 20.9989,10.912 L 20.7507,11.1025 L 20.4558,11.2069 L 20.143,11.2151  z M -3.78546,11.6504 L -4.13392,11.4729 L -4.41046,11.1964 L -4.58801,10.8479 L -4.64919,10.4616 L -4.58801,10.0753  L -4.41046,9.72689 L -4.13392,9.45035 L -3.78546,9.2728 L -3.39919,9.21162 L -3.01292,9.2728 L -2.66446,9.45035  L -2.38792,9.72689 L -2.21037,10.0753 L -2.14919,10.4616 L -2.21037,10.8479 L -2.38792,11.1964 L -2.66446,11.4729  L -3.01292,11.6504 L -3.39919,11.7116 z M 1.77861,11.9016 L 1.45062,11.6886 L 1.2045,11.3846 L 1.06434,11.0195 L 1.04388,10.629 L 1.1451,10.2512  L 1.3581,9.92321 L 1.66203,9.67709 L 2.02714,9.53694 L 2.41769,9.51647 L 2.79545,9.61769 L 3.12344,9.83069  L 3.36956,10.1346 L 3.50971,10.4997 L 3.53018,10.8903 L 3.42896,11.268 L 3.21596,11.596 L 2.91203,11.8422  L 2.54692,11.9823 L 2.15637,12.0028 z M -18.7584,14.2119 L -19.0334,14.0626 L -19.2488,13.8357 L -19.8148,13.012 L -19.9495,12.7296 L -19.9904,12.4194  L -19.9333,12.1118 L -19.7841,11.8368 L -19.5571,11.6215 L -17.8268,10.6081 L -17.5444,10.4734 L -17.2342,10.4325  L -16.9266,10.4896 L -16.6516,10.6388 L -16.4363,10.8658 L -16.0343,11.4506 L -15.8996,11.733 L -15.8588,12.0432  L -15.9158,12.3508 L -16.0651,12.6258 L -16.292,12.8411 L -17.8582,14.0934 L -18.1406,14.2281 L -18.4508,14.2689  z M 16.554,16.0463 L 16.2872,15.8829 L 14.8605,14.4738 L 14.6573,14.2359 L 14.5376,13.9468 L 14.5131,13.6349  L 14.5861,13.3307 L 14.7496,13.0639 L 15.2104,12.5243 L 15.4483,12.3211 L 15.7374,12.2014 L 16.0493,12.1769  L 16.3535,12.2499 L 16.6203,12.4134 L 18.2352,13.6021 L 18.4384,13.84 L 18.5581,14.129 L 18.5827,14.4409  L 18.5096,14.7452 L 18.3462,15.0119 L 17.6971,15.7719 L 17.4592,15.9751 L 17.1701,16.0948 L 16.8582,16.1194  z M 8.85437,16.0317 L 8.58619,15.8706 L 8.38093,15.6345 L 7.44831,13.8589 L 7.32606,13.5709 L 7.29879,13.2592  L 7.36917,12.9544 L 7.53031,12.6862 L 7.76644,12.4809 L 7.81319,12.4517 L 8.10118,12.3295 L 8.41286,12.3022  L 8.71771,12.3726 L 8.98589,12.5337 L 9.19115,12.7698 L 10.3782,14.3864 L 10.5005,14.6744 L 10.5277,14.9861  L 10.4573,15.291 L 10.2962,15.5591 L 10.0601,15.7644 L 9.7589,15.9526 L 9.4709,16.0748 L 9.15922,16.1021  z M -0.209056,37.989 L -2.09315,37.9397 L -3.97208,37.7918 L -5.8407,37.5458 L -7.69388,37.2024 L -8.10285,37.1154  L -9.93552,36.6754 L -11.7426,36.1401 L -13.5193,35.511 L -15.2606,34.7897 L -15.6425,34.6197 L -17.3437,33.8083  L -17.8541,33.5311 L -17.9053,33.5033 L -18.0587,33.42 L -18.314,33.2815 L -18.6703,33.088 L -19,32.909  L -19.116,32.8379 L -19.6244,32.5264 L -19.8202,32.4063 L -20.1585,32.1606 L -20.4382,31.8499 L -20.6473,31.4878  L -20.7765,31.0901 L -20.8202,30.6743 L -20.7765,30.2585 L -20.6473,29.8608 L -20.4382,29.4987 L -20.2044,29.1175  L -19.8055,28.4674 L -19.3568,27.7361 L -18.8594,26.9255 L -18.3148,26.0379 L -17.7245,25.0757 L -17.09,24.0415  L -16.4131,22.9382 L -16.0469,22.3414 L -15.7671,22.0307 L -15.4288,21.7849 L -15.0469,21.6148 L -14.6379,21.5279  L -14.2198,21.5279 L -13.8108,21.6148 L -13.4288,21.7849 L -12.8,22.1702 L -11.5301,22.8597 L -10.4147,23.3918  L -9.27292,23.8647 L -7.91083,24.347 L -6.52537,24.7574 L -5.32369,25.0459 L -4.10853,25.2712 L -2.67593,25.4598  L -1.23542,25.5731 L 6.931e-06,25.6055 L 1.23542,25.5731 L 2.67593,25.4598 L 4.10853,25.2712 L 5.32368,25.0459  L 6.52537,24.7574 L 7.91083,24.347 L 9.27292,23.8647 L 10.4147,23.3918 L 11.5301,22.8597 L 12.8,22.1702  L 14.032,21.4153 L 15.0505,20.7153 L 16.031,19.9629 L 17.1297,19.0245 L 18.1779,18.0299 L 19.0286,17.1334  L 19.8312,16.1937 L 20.7108,15.0473 L 21.1286,14.4395 L 21.4083,14.1288 L 21.7466,13.883 L 22.1286,13.713  L 22.5375,13.626 L 22.9557,13.626 L 23.3646,13.713 L 23.7466,13.883 L 24.3239,14.2793 L 25.391,15.0119  L 26.3913,15.6986 L 27.322,16.3375 L 28.1805,16.9268 L 28.9646,17.4651 L 29.672,17.9507 L 30.3008,18.3823  L 30.6695,18.6354 L 31.0077,18.8812 L 31.2875,19.1919 L 31.4966,19.554 L 31.6258,19.9517 L 31.6695,20.3675  L 31.6258,20.7833 L 31.4966,21.181 L 31.2875,21.5431 L 31.1574,21.7324 L 30.8197,22.2237 L 30.7426,22.3358  L 30.5142,22.6335 L 30.2674,22.9552 L 30.0906,23.1856 L 29.9844,23.3241 L 29.9489,23.3703 L 29.5953,23.8311  L 28.3712,25.2643 L 28.0915,25.575 L 26.7941,26.9421 L 25.427,28.2395 L 23.9938,29.4635 L 22.4985,30.6109  L 22.1603,30.8567 L 20.607,31.9242 L 19,32.909 L 17.3437,33.8083 L 15.6425,34.6197 L 15.2606,34.7897  L 13.5193,35.511 L 11.7426,36.1401 L 9.93552,36.6754 L 8.10285,37.1154 L 7.69388,37.2024 L 5.8407,37.5458  L 3.97208,37.7918 L 2.09315,37.9397 L 0.209057,37.989 z M -14.7452,18.5096 L -15.0119,18.3462 L -15.7719,17.6971 L -15.9751,17.4592 L -16.0948,17.1701 L -16.1194,16.8582  L -16.0463,16.554 L -15.8829,16.2872 L -14.4738,14.8605 L -14.2359,14.6573 L -13.9468,14.5376 L -13.6349,14.5131  L -13.3307,14.5861 L -13.0639,14.7496 L -12.5243,15.2104 L -12.3211,15.4483 L -12.2014,15.7374 L -12.1769,16.0493  L -12.2499,16.3535 L -12.4134,16.6203 L -13.6021,18.2352 L -13.84,18.4384 L -14.129,18.5581 L -14.4409,18.5827  z M 12.1118,19.9333 L 11.8368,19.7841 L 11.6215,19.5571 L 10.6081,17.8268 L 10.4734,17.5444 L 10.4325,17.2342  L 10.4896,16.9266 L 10.6388,16.6516 L 10.8658,16.4363 L 11.4506,16.0343 L 11.733,15.8996 L 12.0432,15.8588  L 12.3508,15.9158 L 12.6258,16.0651 L 12.8411,16.292 L 14.0934,17.8582 L 14.2281,18.1406 L 14.2689,18.4508  L 14.2119,18.7584 L 14.0626,19.0334 L 13.8357,19.2488 L 13.012,19.8148 L 12.7296,19.9495 L 12.4194,19.9904  z M -9.75208,21.6064 L -10.6541,21.1761 L -10.912,20.9989 L -11.1025,20.7507 L -11.2069,20.4558 L -11.2151,20.143  L -11.1262,19.843 L -10.1344,18.1003 L -9.9572,17.8424 L -9.70899,17.6519 L -9.41406,17.5475 L -9.1013,17.5393  L -8.80132,17.6282 L -8.16082,17.9337 L -7.90298,18.1109 L -7.71251,18.3591 L -7.60808,18.654 L -7.59989,18.9668  L -7.68875,19.2668 L -8.41898,21.1343 L -8.59619,21.3922 L -8.84441,21.5826 L -9.13933,21.6871 L -9.4521,21.6953  z M 6.82235,22.5236 L 6.53996,22.3889 L 6.31301,22.1735 L 6.16372,21.8986 L 5.6327,19.9649 L 5.57568,19.6573  L 5.61652,19.3471 L 5.75121,19.0647 L 5.96658,18.8378 L 6.24153,18.6885 L 6.91045,18.4516 L 7.21809,18.3946  L 7.52828,18.4354 L 7.81067,18.5701 L 8.03761,18.7855 L 8.1869,19.0604 L 8.99111,20.8973 L 9.04812,21.205  L 9.00728,21.5152 L 8.87259,21.7976 L 8.65722,22.0245 L 8.38227,22.1738 L 7.44017,22.5074 L 7.13254,22.5644  z M -3.82764,23.3942 L -4.81033,23.2121 L -5.10525,23.1076 L -5.35346,22.9172 L -5.53067,22.6593 L -5.61953,22.3593  L -5.61134,22.0466 L -5.1044,20.1065 L -4.99996,19.8116 L -4.8095,19.5633 L -4.55166,19.3861 L -4.25167,19.2973  L -3.93891,19.3055 L -3.24117,19.4348 L -2.94625,19.5392 L -2.69803,19.7297 L -2.52082,19.9875 L -2.43196,20.2875  L -2.44015,20.6003 L -2.66215,22.5932 L -2.76659,22.8881 L -2.95705,23.1363 L -3.21489,23.3135 L -3.51488,23.4024  z M 1.04941,23.6416 L 0.760352,23.5219 L 0.522445,23.3187 L 0.358971,23.0519 L 0.285933,22.7477 L 0.273468,20.7425  L 0.298016,20.4306 L 0.417746,20.1415 L 0.620938,19.9036 L 0.887702,19.7401 L 1.19193,19.6671 L 1.89936,19.6114  L 2.21127,19.636 L 2.50032,19.7557 L 2.73823,19.9589 L 2.9017,20.2257 L 2.97474,20.5299 L 3.27611,22.5124  L 3.25156,22.8243 L 3.13183,23.1133 L 2.92864,23.3512 L 2.66188,23.5147 L 2.35765,23.5877 L 1.36131,23.6661  z "
     stroke="black"
     fill="lightgray"
     stroke-width="0.5"
     id="path4"
     style="stroke-width:0.05;stroke-miterlimit:4;stroke-dasharray:none" />
</svg>
