<?xml version="1.0" encoding="UTF-8" standalone="no"?>
<svg
   xmlns:dc="http://purl.org/dc/elements/1.1/"
   xmlns:cc="http://creativecommons.org/ns#"
   xmlns:rdf="http://www.w3.org/1999/02/22-rdf-syntax-ns#"
   xmlns:svg="http://www.w3.org/2000/svg"
   xmlns="http://www.w3.org/2000/svg"
   xmlns:sodipodi="http://sodipodi.sourceforge.net/DTD/sodipodi-0.dtd"
   xmlns:inkscape="http://www.inkscape.org/namespaces/inkscape"
   width="85mm"
   height="85mm"
   viewBox="-28 -39 85 85"
   version="1.1"
   id="svg6"
   sodipodi:docname="888_4045_stator_Cu_electrodes_zone.svg"
   inkscape:version="0.92.5 (2060ec1f9f, 2020-04-08)">
  <metadata
     id="metadata12">
    <rdf:RDF>
      <cc:Work
         rdf:about="">
        <dc:format>image/svg+xml</dc:format>
        <dc:type
           rdf:resource="http://purl.org/dc/dcmitype/StillImage" />
        <dc:title>OpenSCAD Model</dc:title>
      </cc:Work>
    </rdf:RDF>
  </metadata>
  <defs
     id="defs10" />
  <sodipodi:namedview
     pagecolor="#ffffff"
     bordercolor="#666666"
     borderopacity="1"
     objecttolerance="10"
     gridtolerance="10"
     guidetolerance="10"
     inkscape:pageopacity="0"
     inkscape:pageshadow="2"
     inkscape:window-width="1848"
     inkscape:window-height="1016"
     id="namedview8"
     showgrid="false"
     inkscape:zoom="0.80053419"
     inkscape:cx="105.82677"
     inkscape:cy="147.40157"
     inkscape:window-x="72"
     inkscape:window-y="27"
     inkscape:window-maximized="1"
     inkscape:current-layer="svg6" />
  <title
     id="title2">OpenSCAD Model</title>
  <path
     d="m -3.5759019,-13.650002 0.5729,-0.2551 0.5074,-0.3686 0.535,-0.5077 1.09869996,-0.9384 0.8975,-0.6887 0.9324,-0.6407 1.23200004,-0.755 1.2699,-0.6895 1.021,-0.487 1.0452,-0.433 1.36208,-0.4823 1.38547,-0.4104 1.10002,-0.2641 1.1123199,-0.2061 1.43261,-0.1886 1.44051,-0.1134 1.13089,-0.0296 1.13089,0.0296 1.44051,0.1134 1.43261,0.1886 1.11232,0.2061 1.10002,0.2641 1.38547,0.4104 1.36208,0.4823 1.0452,0.433 1.021,0.487 1.2699,0.6895 1.232,0.755 0.9324,0.6407 0.8975,0.6887 1.0987,0.9384 0.535,0.5077 0.5074,0.3686 0.5729,0.2551 0.6135,0.1304 h 0.6272 l 0.6134,-0.1304 0.573,-0.2551 0.5074,-0.3686 0.4822,-0.5077 0.8916,-0.9384 0.8356,-0.8796 0.7775,-0.8185 0.7173,-0.755 0.655,-0.6894 0.591,-0.6221 0.5253,-0.553 0.308,-0.3242 0.4196,-0.4661 0.3136,-0.5431 0.1938,-0.5965 0.0656,-0.6237 -0.0656,-0.6238 -0.1938,-0.5964 -0.3136,-0.5432 -0.4196,-0.4661 -0.1666,-0.1581 -0.4325,-0.4104 -0.0987,-0.0936 -0.2853,-0.2437 -0.3083,-0.2633 -0.2208,-0.1886 -0.1328,-0.1134 -0.0443,-0.0378 -0.4417,-0.3773 -1.4952,-1.1473 -0.5074,-0.3687 -1.5533,-1.0675 -1.607,-0.9848 -1.6563,-0.8993 -1.7012,-0.8114 -0.5729,-0.2551 -1.7413,-0.7213 -1.7766,-0.6291 -1.8072,-0.5353 -1.83263,-0.44 -0.61346,-0.1304 -1.85318,-0.3434 -1.86862,-0.2461 -1.87893,-0.1478 -1.884095,-0.0494 h -0.62717 l -1.884095,0.0494 -1.87893,0.1478 -1.8686199,0.2461 -1.85318,0.3434 -0.61346,0.1304 -1.83263,0.44 -1.8072,0.5353 -1.77660004,0.6291 -1.74129996,0.7213 -0.5729,0.2551 -1.7012,0.8114 -1.6563,0.8993 -1.607,0.9848 -1.5533,1.0675 -0.5074,0.3687 -1.4952001,1.1473 -0.4417,0.3773 -0.0443,0.0378 -0.1328,0.1134 -0.2208,0.1886 -0.3083,0.2633 -0.2853,0.2437 -0.0987,0.0936 -0.4325,0.4104 -0.1666,0.1581 -0.4196,0.4661 -0.3136,0.5432 -0.1938,0.5964 -0.0656,0.6238 0.0656,0.6237 0.1938,0.5965 0.3136,0.5431 0.4196,0.4661 0.308,0.3242 0.5253,0.553 0.591,0.6221 0.655,0.6894 0.7173001,0.755 0.7775,0.8185 0.8356,0.8796 0.8916,0.9384 0.4822,0.5077 0.5074,0.3686 0.573,0.2551 0.6134,0.1304 h 0.6272 z m 20.2735799,56.0842 1.87893,-0.1478 1.86862,-0.2461 1.85318,-0.3434 0.61346,-0.1304 1.83263,-0.44 1.8072,-0.5353 1.7766,-0.6291 1.7413,-0.7213 0.5729,-0.2551 1.7012,-0.8114 1.6563,-0.8993 1.607,-0.9848 1.5533,-1.0675 0.5074,-0.3687 1.4952,-1.1473 0.4417,-0.3773 0.0443,-0.0378 0.1328,-0.1134 0.2208,-0.1886 0.3083,-0.2633 0.2853,-0.2437 0.0987,-0.0936 0.4325,-0.4104 0.1666,-0.1581 0.4196,-0.4661 0.3136,-0.5432 0.1938,-0.5964 0.0656,-0.6238 -0.0656,-0.6237 -0.1938,-0.5965 -0.3136,-0.5431 -0.4196,-0.4661 -0.308,-0.3242 -0.5253,-0.553 -0.591,-0.6221 -0.655,-0.6894 -0.7173,-0.755 -0.7775,-0.8185 -0.8356,-0.8796 -0.8916,-0.9384 -0.4822,-0.5077 -0.5074,-0.3686 -0.573,-0.2551 -0.6134,-0.1304 h -0.6272 l -0.6135,0.1304 -0.5729,0.2551 -0.5074,0.3686 -0.535,0.5077 -1.0987,0.9384 -0.8975,0.6887 -0.9324,0.6407 -1.232,0.755 -1.2699,0.6895 -1.021,0.487 -1.0452,0.433 -1.36208,0.4823 -1.38547,0.4104 -1.10002,0.2641 -1.11232,0.2061 -1.43261,0.1886 -1.44051,0.1134 -1.13089,0.0296 -1.13089,-0.0296 -1.44051,-0.1134 -1.43261,-0.1886 -1.1123199,-0.2061 -1.10002,-0.2641 -1.38547,-0.4104 -1.36208,-0.4823 -1.0452,-0.433 -1.021,-0.487 -1.2699,-0.6895 -1.23200004,-0.755 -0.9324,-0.6407 -0.8975,-0.6887 -1.09869996,-0.9384 -0.535,-0.5077 -0.5074,-0.3686 -0.5729,-0.2551 -0.6135,-0.1304 h -0.6272 l -0.6134,0.1304 -0.573,0.2551 -0.5074,0.3686 -0.4822,0.5077 -0.8916,0.9384 -0.8356,0.8796 -0.7775,0.8185 -0.7173001,0.755 -0.655,0.6894 -0.591,0.6221 -0.5253,0.553 -0.308,0.3242 -0.4196,0.4661 -0.3136,0.5431 -0.1938,0.5965 -0.0656,0.6237 0.0656,0.6238 0.1938,0.5964 0.3136,0.5432 0.4196,0.4661 0.1666,0.1581 0.4325,0.4104 0.0987,0.0936 0.2853,0.2437 0.3083,0.2633 0.2208,0.1886 0.1328,0.1134 0.0443,0.0378 0.4417,0.3773 1.4952001,1.1473 0.5074,0.3687 1.5533,1.0675 1.607,0.9848 1.6563,0.8993 1.7012,0.8114 0.5729,0.2551 1.74129996,0.7213 1.77660004,0.6291 1.8072,0.5353 1.83263,0.44 0.61346,0.1304 1.85318,0.3434 1.8686199,0.2461 1.87893,0.1478 1.884095,0.0494 h 0.62717 z"
     id="path4"
     inkscape:connector-curvature="0"
     style="fill:#d3d3d3;stroke:#000000;stroke-width:0.05;stroke-miterlimit:4;stroke-dasharray:none" />
</svg>
