<?xml version="1.0" standalone="no"?>
<!DOCTYPE svg PUBLIC "-//W3C//DTD SVG 1.1//EN" "http://www.w3.org/Graphics/SVG/1.1/DTD/svg11.dtd">
<svg width="80mm" height="80mm" viewBox="-40 -40 80 80" xmlns="http://www.w3.org/2000/svg" version="1.1">
<title>OpenSCAD Model</title>
<path d="
M 2.09343,39.9452 L 4.18114,39.7809 L 6.25737,39.5075 L 8.31647,39.1259 L 10.3528,38.637 L 12.3607,38.0423
 L 14.3347,37.3432 L 16.2695,36.5418 L 18.1596,35.6403 L 20,34.641 L 21.7856,33.5468 L 23.5114,32.3607
 L 25.1728,31.0858 L 26.7652,29.7258 L 28.2843,28.2843 L 29.7258,26.7652 L 31.0858,25.1728 L 32.3607,23.5114
 L 33.5468,21.7856 L 34.641,20 L 35.6403,18.1596 L 36.5418,16.2695 L 37.3432,14.3347 L 38.0423,12.3607
 L 38.637,10.3528 L 39.1259,8.31647 L 39.5075,6.25737 L 39.7809,4.18114 L 39.9452,2.09343 L 40,-0
 L 39.9452,-2.09343 L 39.7809,-4.18114 L 39.5075,-6.25737 L 39.1259,-8.31647 L 38.637,-10.3528 L 38.0423,-12.3607
 L 37.3432,-14.3347 L 36.5418,-16.2695 L 35.6403,-18.1596 L 34.641,-20 L 33.5468,-21.7856 L 32.3607,-23.5114
 L 31.0858,-25.1728 L 29.7258,-26.7652 L 28.2843,-28.2843 L 26.7652,-29.7258 L 25.1728,-31.0858 L 23.5114,-32.3607
 L 21.7856,-33.5468 L 20,-34.641 L 18.1596,-35.6403 L 16.2695,-36.5418 L 14.3347,-37.3432 L 12.3607,-38.0423
 L 10.3528,-38.637 L 8.31647,-39.1259 L 6.25737,-39.5075 L 4.18114,-39.7809 L 2.09343,-39.9452 L 0,-40
 L -2.09343,-39.9452 L -4.18114,-39.7809 L -6.25737,-39.5075 L -8.31647,-39.1259 L -10.3528,-38.637 L -12.3607,-38.0423
 L -14.3347,-37.3432 L -16.2695,-36.5418 L -18.1596,-35.6403 L -20,-34.641 L -21.7856,-33.5468 L -23.5114,-32.3607
 L -25.1728,-31.0858 L -26.7652,-29.7258 L -28.2843,-28.2843 L -29.7258,-26.7652 L -31.0858,-25.1728 L -32.3607,-23.5114
 L -33.5468,-21.7856 L -34.641,-20 L -35.6403,-18.1596 L -36.5418,-16.2695 L -37.3432,-14.3347 L -38.0423,-12.3607
 L -38.637,-10.3528 L -39.1259,-8.31647 L -39.5075,-6.25737 L -39.7809,-4.18114 L -39.9452,-2.09343 L -40,-0
 L -39.9452,2.09343 L -39.7809,4.18114 L -39.5075,6.25737 L -39.1259,8.31647 L -38.637,10.3528 L -38.0423,12.3607
 L -37.3432,14.3347 L -36.5418,16.2695 L -35.6403,18.1596 L -34.641,20 L -33.5468,21.7856 L -32.3607,23.5114
 L -31.0858,25.1728 L -29.7258,26.7652 L -28.2843,28.2843 L -26.7652,29.7258 L -25.1728,31.0858 L -23.5114,32.3607
 L -21.7856,33.5468 L -20,34.641 L -18.1596,35.6403 L -16.2695,36.5418 L -14.3347,37.3432 L -12.3607,38.0423
 L -10.3528,38.637 L -8.31647,39.1259 L -6.25737,39.5075 L -4.18114,39.7809 L -2.09343,39.9452 L 0,40
 z
M -0.271759,38.5858 L -2.15585,38.5364 L -4.03479,38.3885 L -5.90341,38.1425 L -7.75659,37.7991 L -8.28825,37.6861
 L -10.1209,37.2461 L -11.928,36.7108 L -13.7047,36.0816 L -15.446,35.3604 L -15.9425,35.1393 L -17.6436,34.3279
 L -19.3,33.4286 L -20.907,32.4438 L -22.4603,31.3763 L -22.9,31.0568 L -24.3953,29.9094 L -25.8284,28.6854
 L -26.5262,28.0232 L -26.8899,27.6193 L -27.1617,27.1485 L -27.3297,26.6316 L -27.3865,26.091 L -27.3297,25.5505
 L -27.1617,25.0335 L -26.8899,24.5628 L -26.5262,24.1589 L -20.7427,18.071 L -20.6649,18.0144 L -17.3133,14.6628
 L -17.6922,14.2191 L -18.3647,13.3427 L -18.9904,12.4323 L -19.5676,11.4904 L -19.7348,11.2008 L -20.2619,10.23
 L -20.7375,9.23291 L -21.1602,8.21234 L -21.529,7.17104 L -21.6323,6.85291 L -21.9461,5.79373 L -22.2039,4.71959
 L -22.4053,3.63342 L -22.5494,2.53821 L -22.5844,2.20554 L -22.6711,1.10428 L -22.7,-0 L -22.6711,-1.10428
 L -22.5844,-2.20554 L -22.5494,-2.53821 L -22.4053,-3.63342 L -22.2039,-4.71959 L -21.9461,-5.79373 L -21.6323,-6.85291
 L -21.529,-7.17104 L -21.1602,-8.21234 L -20.7375,-9.23291 L -20.2619,-10.23 L -19.7348,-11.2008 L -19.5676,-11.4904
 L -18.9904,-12.4323 L -18.3647,-13.3427 L -17.6922,-14.2191 L -17.3133,-14.6628 L -20.6649,-18.0144 L -20.7427,-18.071
 L -26.5262,-24.1589 L -26.8899,-24.5628 L -27.1617,-25.0335 L -27.3297,-25.5505 L -27.3865,-26.091 L -27.3297,-26.6316
 L -27.1617,-27.1485 L -26.8899,-27.6193 L -26.5262,-28.0232 L -25.8284,-28.6854 L -24.3953,-29.9094 L -22.9,-31.0568
 L -22.4603,-31.3763 L -20.907,-32.4438 L -19.3,-33.4286 L -17.6436,-34.3279 L -15.9425,-35.1393 L -15.446,-35.3604
 L -13.7047,-36.0816 L -11.928,-36.7108 L -10.1209,-37.2461 L -8.28825,-37.6861 L -7.75659,-37.7991 L -5.90341,-38.1425
 L -4.03479,-38.3885 L -2.15585,-38.5364 L -0.271759,-38.5858 L 0.271759,-38.5858 L 2.15585,-38.5364 L 4.03479,-38.3885
 L 5.90341,-38.1425 L 7.75659,-37.7991 L 8.28825,-37.6861 L 10.1209,-37.2461 L 11.928,-36.7108 L 13.7047,-36.0816
 L 15.446,-35.3604 L 15.9425,-35.1393 L 17.6436,-34.3279 L 19.3,-33.4286 L 20.907,-32.4438 L 22.4603,-31.3763
 L 22.9,-31.0568 L 24.3953,-29.9094 L 25.8284,-28.6854 L 26.5262,-28.0232 L 26.8899,-27.6193 L 27.1617,-27.1485
 L 27.3297,-26.6316 L 27.3865,-26.091 L 27.3297,-25.5505 L 27.1617,-25.0335 L 26.8899,-24.5628 L 26.5262,-24.1589
 L 20.7427,-18.071 L 20.303,-17.7515 L 19.8064,-17.5304 L 19.2747,-17.4174 L 18.7312,-17.4174 L 18.1995,-17.5304
 L 17.703,-17.7515 L 17.2632,-18.071 L 16.7283,-18.5786 L 15.6295,-19.517 L 14.6988,-20.2312 L 13.732,-20.8956
 L 12.5,-21.6506 L 11.2301,-22.3401 L 10.1713,-22.8451 L 9.08751,-23.2941 L 7.72542,-23.7764 L 6.33995,-24.1868
 L 5.19926,-24.4607 L 4.04581,-24.6744 L 2.6132,-24.863 L 1.1727,-24.9764 L 0,-25.0071 L -1.1727,-24.9764
 L -2.6132,-24.863 L -4.04581,-24.6744 L -5.19926,-24.4607 L -6.33995,-24.1868 L -7.72542,-23.7764 L -9.08751,-23.2941
 L -10.1713,-22.8451 L -11.2301,-22.3401 L -12.5,-21.6506 L -13.732,-20.8956 L -14.6988,-20.2312 L -15.6295,-19.517
 L -16.2967,-18.9472 L -13.7937,-16.4442 L -13.7213,-16.3638 L -13.6417,-16.306 L -13.2931,-15.9478 L -13.0693,-15.6992
 L -12.9021,-15.4095 L -12.7987,-15.0914 L -12.7637,-14.7587 L -12.7987,-14.4261 L -12.9021,-14.1079 L -13.0693,-13.8183
 L -13.2931,-13.5697 L -13.4958,-13.3774 L -14.123,-12.7164 L -14.7148,-12.0235 L -15.3713,-11.1679 L -15.9822,-10.2791
 L -16.4583,-9.5022 L -16.8931,-8.70142 L -17.3574,-7.728 L -17.7701,-6.7316 L -18.0742,-5.87268 L -18.333,-4.99901
 L -18.5848,-3.95032 L -18.7813,-2.88988 L -18.9003,-1.9865 L -18.9718,-1.07811 L -19,-0 L -18.9718,1.07811
 L -18.9003,1.9865 L -18.7813,2.88988 L -18.5848,3.95032 L -18.333,4.99901 L -18.0742,5.87268 L -17.7701,6.7316
 L -17.3574,7.728 L -16.8931,8.70142 L -16.4583,9.5022 L -15.9822,10.2791 L -15.3713,11.1679 L -14.7148,12.0235
 L -14.123,12.7164 L -13.4958,13.3774 L -13.2931,13.5697 L -13.0693,13.8183 L -12.9021,14.1079 L -12.7987,14.4261
 L -12.7637,14.7587 L -12.7987,15.0914 L -12.9021,15.4095 L -13.0693,15.6992 L -13.2931,15.9478 L -13.6417,16.306
 L -13.7213,16.3638 L -13.7937,16.4442 L -16.2967,18.9472 L -15.6295,19.517 L -14.6988,20.2312 L -13.732,20.8956
 L -12.5,21.6506 L -11.2301,22.3401 L -10.1713,22.8451 L -9.08751,23.2941 L -7.72542,23.7764 L -6.33995,24.1868
 L -5.19926,24.4607 L -4.04581,24.6744 L -2.6132,24.863 L -1.1727,24.9764 L 0,25.0071 L 1.1727,24.9764
 L 2.6132,24.863 L 4.04581,24.6744 L 5.19926,24.4607 L 6.33995,24.1868 L 7.72542,23.7764 L 9.08751,23.2941
 L 10.1713,22.8451 L 11.2301,22.3401 L 12.5,21.6506 L 13.732,20.8956 L 14.6988,20.2312 L 15.6295,19.517
 L 16.7283,18.5786 L 17.2632,18.071 L 17.703,17.7515 L 18.1995,17.5304 L 18.7312,17.4174 L 19.2747,17.4174
 L 19.8064,17.5304 L 20.303,17.7515 L 20.7427,18.071 L 26.5262,24.1589 L 26.8899,24.5628 L 27.1617,25.0335
 L 27.3297,25.5505 L 27.3865,26.091 L 27.3297,26.6316 L 27.1617,27.1485 L 26.8899,27.6193 L 26.5262,28.0232
 L 25.8284,28.6854 L 24.3953,29.9094 L 22.9,31.0568 L 22.4603,31.3763 L 20.907,32.4438 L 19.3,33.4286
 L 17.6436,34.3279 L 15.9425,35.1393 L 15.446,35.3604 L 13.7047,36.0816 L 11.928,36.7108 L 10.1209,37.2461
 L 8.28825,37.6861 L 7.75659,37.7991 L 5.90341,38.1425 L 4.03479,38.3885 L 2.15585,38.5364 L 0.271759,38.5858
 z
M -0.386261,-21.4112 L -0.734726,-21.5887 L -1.01126,-21.8653 L -1.18881,-22.2137 L -1.25,-22.6 L -1.18881,-22.9863
 L -1.01126,-23.3347 L -0.734726,-23.6113 L -0.386261,-23.7888 L 0,-23.85 L 0.386261,-23.7888 L 0.734726,-23.6113
 L 1.01126,-23.3347 L 1.18881,-22.9863 L 1.25,-22.6 L 1.18881,-22.2137 L 1.01126,-21.8653 L 0.734726,-21.5887
 L 0.386261,-21.4112 L 0,-21.35 z
M -8.38106,-17.872 L -8.50375,-17.8981 L -8.61833,-17.9491 L -8.71982,-18.0229 L -8.80374,-18.1161 L -8.86647,-18.2247
 L -9.89253,-21.0438 L -9.93129,-21.1631 L -9.9444,-21.2878 L -9.93129,-21.4126 L -9.89253,-21.5319 L -9.8298,-21.6405
 L -9.74588,-21.7337 L -9.64439,-21.8074 L -9.52982,-21.8585 L -6.71072,-22.8845 L -6.58804,-22.9106 L -6.4626,-22.9106
 L -6.3399,-22.8845 L -6.22533,-22.8335 L -6.12384,-22.7598 L -6.03992,-22.6666 L -5.97719,-22.5579 L -4.95113,-19.7389
 L -4.91237,-19.6196 L -4.89926,-19.4948 L -4.91237,-19.3701 L -4.95113,-19.2508 L -5.01385,-19.1422 L -5.09778,-19.0489
 L -5.19926,-18.9752 L -5.31386,-18.9242 L -8.13293,-17.8981 L -8.25562,-17.872 z
M -6.67096,-13.1736 L -6.79364,-13.1997 L -6.90823,-13.2507 L -7.00972,-13.3244 L -7.09364,-13.4176 L -7.15637,-13.5262
 L -8.18242,-16.3453 L -8.22119,-16.4646 L -8.2343,-16.5894 L -8.22119,-16.7141 L -8.18242,-16.8334 L -8.11971,-16.942
 L -8.03578,-17.0352 L -7.9343,-17.109 L -7.8197,-17.16 L -5.00063,-18.1861 L -4.87793,-18.2121 L -4.7525,-18.2121
 L -4.62981,-18.1861 L -4.51523,-18.135 L -4.41374,-18.0613 L -4.3298,-17.9681 L -4.26709,-17.8595 L -3.24103,-15.0404
 L -3.20227,-14.9211 L -3.18916,-14.7964 L -3.20227,-14.6716 L -3.24103,-14.5523 L -3.30376,-14.4437 L -3.38768,-14.3505
 L -3.48917,-14.2767 L -3.60374,-14.2257 L -6.42282,-13.1997 L -6.54552,-13.1736 z
M -14.2863,-5.81117 L -14.6347,-5.98872 L -14.9113,-6.26526 L -15.0888,-6.61372 L -15.15,-7 L -15.0888,-7.38626
 L -14.9113,-7.73473 L -14.6347,-8.01126 L -14.2863,-8.18881 L -13.9,-8.25 L -13.5137,-8.18881 L -13.1653,-8.01126
 L -12.8887,-7.73473 L -12.7112,-7.38626 L -12.65,-7 L -12.7112,-6.61372 L -12.8887,-6.26526 L -13.1653,-5.98872
 L -13.5137,-5.81117 L -13.9,-5.75 z
M 13.5137,-5.81117 L 13.1653,-5.98872 L 12.8887,-6.26526 L 12.7112,-6.61372 L 12.65,-7 L 12.7112,-7.38626
 L 12.8887,-7.73473 L 13.1653,-8.01126 L 13.5137,-8.18881 L 13.9,-8.25 L 14.2863,-8.18881 L 14.6347,-8.01126
 L 14.9113,-7.73473 L 15.0888,-7.38626 L 15.15,-7 L 15.0888,-6.61372 L 14.9113,-6.26526 L 14.6347,-5.98872
 L 14.2863,-5.81117 L 13.9,-5.75 z
M -0.421295,8.03896 L -0.841446,8.00589 L -1.25929,7.95088 L -1.67368,7.87408 L -2.08348,7.7757 L -2.48758,7.65599
 L -2.88486,7.51532 L -3.27422,7.35403 L -3.65462,7.17259 L -4.02499,6.9715 L -4.38434,6.7513 L -4.73166,6.51257
 L -5.06602,6.25601 L -5.38649,5.98232 L -5.6922,5.6922 L -5.98232,5.38649 L -6.25601,5.06602 L -6.51257,4.73166
 L -6.7513,4.38434 L -6.9715,4.02499 L -7.17259,3.65462 L -7.35403,3.27422 L -7.51532,2.88486 L -7.65599,2.48758
 L -7.7757,2.08348 L -7.87408,1.67368 L -7.95088,1.25929 L -8.00589,0.841446 L -8.03896,0.421295 L -8.04999,-0
 L -8.03896,-0.421295 L -8.00589,-0.841446 L -7.95088,-1.25929 L -7.87408,-1.67368 L -7.7757,-2.08348 L -7.65599,-2.48758
 L -7.51532,-2.88486 L -7.35403,-3.27422 L -7.17259,-3.65462 L -6.9715,-4.02499 L -6.7513,-4.38434 L -6.51257,-4.73166
 L -6.25601,-5.06602 L -5.98232,-5.38649 L -5.6922,-5.6922 L -5.38649,-5.98232 L -5.06602,-6.25601 L -4.73166,-6.51257
 L -4.38434,-6.7513 L -4.02499,-6.9715 L -3.65462,-7.17259 L -3.27422,-7.35403 L -2.88486,-7.51532 L -2.48758,-7.65599
 L -2.08348,-7.7757 L -1.67368,-7.87408 L -1.25929,-7.95088 L -0.841446,-8.00589 L -0.421295,-8.03896 L 0,-8.04999
 L 0.421295,-8.03896 L 0.841446,-8.00589 L 1.25929,-7.95088 L 1.67368,-7.87408 L 2.08348,-7.7757 L 2.48758,-7.65599
 L 2.88486,-7.51532 L 3.27422,-7.35403 L 3.65462,-7.17259 L 4.02499,-6.9715 L 4.38434,-6.7513 L 4.73166,-6.51257
 L 5.06602,-6.25601 L 5.38649,-5.98232 L 5.6922,-5.6922 L 5.98232,-5.38649 L 6.25601,-5.06602 L 6.51257,-4.73166
 L 6.7513,-4.38434 L 6.9715,-4.02499 L 7.17259,-3.65462 L 7.35403,-3.27422 L 7.51532,-2.88486 L 7.65599,-2.48758
 L 7.7757,-2.08348 L 7.87408,-1.67368 L 7.95088,-1.25929 L 8.00589,-0.841446 L 8.03896,-0.421295 L 8.04999,-0
 L 8.03896,0.421295 L 8.00589,0.841446 L 7.95088,1.25929 L 7.87408,1.67368 L 7.7757,2.08348 L 7.65599,2.48758
 L 7.51532,2.88486 L 7.35403,3.27422 L 7.17259,3.65462 L 6.9715,4.02499 L 6.7513,4.38434 L 6.51257,4.73166
 L 6.25601,5.06602 L 5.98232,5.38649 L 5.6922,5.6922 L 5.38649,5.98232 L 5.06602,6.25601 L 4.73166,6.51257
 L 4.38434,6.7513 L 4.02499,6.9715 L 3.65462,7.17259 L 3.27422,7.35403 L 2.88486,7.51532 L 2.48758,7.65599
 L 2.08348,7.7757 L 1.67368,7.87408 L 1.25929,7.95088 L 0.841446,8.00589 L 0.421295,8.03896 L 0,8.04999
 z
" stroke="black" fill="lightgray" stroke-width="0.5"/>
</svg>
