<?xml version="1.0" encoding="UTF-8" standalone="no"?>
<svg
   width="85mm"
   height="85mm"
   viewBox="-27 -38 85 85"
   version="1.1"
   id="svg6"
   sodipodi:docname="888_4045_stator_Cu_electrodes.svg"
   inkscape:version="1.1 (ce6663b3b7, 2021-05-25)"
   xmlns:inkscape="http://www.inkscape.org/namespaces/inkscape"
   xmlns:sodipodi="http://sodipodi.sourceforge.net/DTD/sodipodi-0.dtd"
   xmlns="http://www.w3.org/2000/svg"
   xmlns:svg="http://www.w3.org/2000/svg"
   xmlns:rdf="http://www.w3.org/1999/02/22-rdf-syntax-ns#"
   xmlns:cc="http://creativecommons.org/ns#"
   xmlns:dc="http://purl.org/dc/elements/1.1/">
  <defs
     id="defs10" />
  <sodipodi:namedview
     id="namedview8"
     pagecolor="#ffffff"
     bordercolor="#666666"
     borderopacity="1.0"
     inkscape:pageshadow="2"
     inkscape:pageopacity="0.0"
     inkscape:pagecheckerboard="0"
     inkscape:document-units="mm"
     showgrid="false"
     inkscape:zoom="2.9382675"
     inkscape:cx="101.93081"
     inkscape:cy="143.79222"
     inkscape:window-width="1870"
     inkscape:window-height="1016"
     inkscape:window-x="50"
     inkscape:window-y="27"
     inkscape:window-maximized="1"
     inkscape:current-layer="svg6" />
  <title
     id="title2">OpenSCAD Model</title>
  <path
     d="m 17.59315,42.4397 1.87893,-0.1479 1.86862,-0.246 1.85318,-0.3434 0.40897,-0.087 1.83267,-0.44 1.80708,-0.5353 1.7767,-0.6291 1.7413,-0.7213 0.3819,-0.17 1.7012,-0.8114 1.6563,-0.8993 1.607,-0.9848 1.5533,-1.0675 0.3382,-0.2458 1.4953,-1.1474 0.4417,-0.3772 0.0443,-0.0378 0.1327,-0.1134 0.2209,-0.1886 0.3083,-0.2633 0.2853,-0.2437 0.0987,-0.0937 0.4324,-0.4104 0.1666,-0.1581 0.2798,-0.3107 0.2091,-0.3621 0.1292,-0.3976 0.0437,-0.4159 -0.0437,-0.4158 -0.1292,-0.3976 -0.2091,-0.3621 -0.2798,-0.3108 -0.308,-0.3242 L 40.7914,28.2276 40.2005,27.6055 39.5454,26.916 38.8282,26.161 38.0507,25.3426 37.215,24.4629 36.3235,23.5245 35.8412,23.0168 35.503,22.7711 35.121,22.601 34.712,22.5141 h -0.4181 l -0.409,0.0869 -0.3819,0.1701 -0.3383,0.2457 -0.535,0.5077 -1.0987,0.9384 -0.9805,0.7524 -1.0185,0.7 -1.232,0.7549 -1.2699,0.6895 -1.1154,0.5321 -1.14178,0.4729 -1.36208,0.4823 -1.38547,0.4104 -1.2017,0.2885 -1.21514,0.2253 -1.4326,0.1886 -1.44051,0.1133 L 15.5,30.1055 14.26458,30.0731 12.82407,29.9598 11.39147,29.7712 10.17633,29.5459 8.97463,29.2574 7.58916,28.847 6.22708,28.3647 5.0853,27.8918 3.9699,27.3597 2.7,26.6702 1.468,25.9153 0.4495,25.2153 -0.531,24.4629 -1.6297,23.5245 -2.1647,23.0168 -2.3719,22.8663 3.8213,16.673 3.8633,16.6264 3.8947,16.5721 3.9072,16.5334 3.9361,16.5206 3.9868,16.4837 4.0574,16.4129 4.0993,16.3663 4.1307,16.312 4.1501,16.2523 4.1566,16.1899 4.1501,16.1276 4.1307,16.0679 4.0993,16.0136 4.0574,15.967 4.0335,15.9443 3.4604,15.3405 2.9198,14.7075 2.3939,14.02212 1.9046,13.31021 1.4697,12.60041 1.0725,11.86882 0.7006,11.08913 0.37,10.29105 0.0921,9.50633 -0.1443,8.70814 -0.346,7.86817 -0.5034,7.0188 -0.6121,6.19344 -0.6774,5.363543 -0.7,4.5 -0.6774,3.636457 -0.6121,2.80656 -0.5034,1.9812 -0.346,1.13183 -0.1443,0.29186 0.0921,-0.50633 0.37,-1.29105 0.7006,-2.08913 1.0725,-2.86882 1.4697,-3.60041 1.9046,-4.31021 2.3939,-5.02212 2.9198,-5.7075 3.4604,-6.3405 4.0335,-6.9443 4.0574,-6.967 4.0993,-7.0136 4.1307,-7.0679 4.1501,-7.1276 4.1566,-7.1899 4.1501,-7.2523 4.1307,-7.312 4.1117,-7.3448 4.1068,-7.36 4.0754,-7.4143 4.0335,-7.4609 l -6.4054,-6.4054 0.2072,-0.1505 0.535,-0.5077 1.0987,-0.9384 0.9805,-0.7524 1.0185,-0.7 1.232,-0.7549 1.2699,-0.6895 1.1154,-0.5321 1.14178,-0.4729 1.36208,-0.4823 1.38547,-0.4104 1.2017,-0.2885 1.21514,-0.2253 1.4326,-0.1886 1.44051,-0.1133 1.23542,-0.0324 1.23542,0.0324 1.44051,0.1133 1.4326,0.1886 1.21514,0.2253 1.2017,0.2885 1.38547,0.4104 1.36208,0.4823 1.14178,0.4729 1.1154,0.5321 1.2699,0.6895 1.232,0.7549 1.0185,0.7 0.9805,0.7524 1.0987,0.9384 0.535,0.5077 0.3383,0.2457 0.3819,0.1701 0.409,0.0869 h 0.4181 l 0.409,-0.0869 0.382,-0.1701 0.3382,-0.2457 0.4823,-0.5077 0.8915,-0.9384 0.8357,-0.8797 0.7775,-0.8184 0.7172,-0.755 0.6551,-0.6895 0.5909,-0.6221 0.5253,-0.5529 0.308,-0.3242 0.2798,-0.3108 0.2091,-0.3621 0.1292,-0.3976 0.0437,-0.4158 -0.0437,-0.4159 -0.1292,-0.3976 -0.2091,-0.3621 -0.2798,-0.3107 -0.1666,-0.1581 -0.4324,-0.4104 -0.0987,-0.0937 -0.2853,-0.2437 -0.3083,-0.2633 -0.2209,-0.1886 -0.1327,-0.1134 -0.0443,-0.0378 -0.4417,-0.3772 -1.4953,-1.1474 -0.3382,-0.2458 -1.5533,-1.0675 -1.607,-0.9848 -1.6563,-0.8993 -1.7012,-0.8114 -0.3819,-0.17 -1.7413,-0.7213 -1.7767,-0.6291 -1.80708,-0.5353 -1.83267,-0.44 -0.40897,-0.087 -1.85318,-0.3434 -1.86862,-0.246 -1.87893,-0.1479 -1.884093,-0.0493 h -0.418114 l -1.884093,0.0493 -1.87893,0.1479 -1.86862,0.246 -1.85318,0.3434 -0.40897,0.087 -1.83267,0.44 -1.80708,0.5353 -1.7767,0.6291 -1.7413,0.7213 -0.3819,0.17 -1.7012,0.8114 -1.6563,0.8993 -1.607,0.9848 -1.5533,1.0675 -0.3382,0.2458 -1.4953,1.1474 -0.4417,0.3772 -0.0443,0.0378 -0.1327,0.1134 -0.2209,0.1886 -0.3083,0.2633 -0.2853,0.2437 -0.0987,0.0937 -0.4324,0.4104 -0.1666,0.1581 -0.2798,0.3107 -0.2091,0.3621 -0.1292,0.3976 -0.0437,0.4159 0.0437,0.4158 0.1292,0.3976 0.2091,0.3621 0.2798,0.3108 0.308,0.3242 0.5253,0.5529 0.5909,0.6221 0.6551,0.6895 0.7172,0.755 0.7775,0.8184 0.8357,0.8797 0.8915,0.9384 0.4823,0.5077 0.3382,0.2457 0.382,0.1701 0.409,0.0869 h 0.4181 l 0.2354,-0.05 6.3683,6.3682 -0.3467,0.3654 -0.042,0.0466 -0.0572,0.0669 -0.5072,0.5939 -0.0483,0.063 -0.4808,0.62653 -0.0404,0.05878 -0.4518,0.65745 -0.0334,0.05446 -0.4207,0.68655 -0.0314,0.05431 -0.0271,0.05 -0.3876,0.71376 -0.0216,0.0454 -0.3525,0.73901 -0.0169,0.04068 -0.3157,0.76224 -0.0127,0.03584 -0.2774,0.78339 -0.0194,0.05965 -0.0091,0.0309 -0.2377,0.80238 -0.0062,0.02588 -0.1967,0.81918 -0.0038,0.02079 -0.1546,0.83374 -0.002,0.01564 -0.1114,0.84599 -0.0066,0.06238 -8e-4,0.01045 -0.0673,0.855944 -2e-4,0.00523 L -1.4,4.5 l 0.0226,0.863543 2e-4,0.00523 0.0673,0.855944 8e-4,0.01045 0.0066,0.06238 0.1114,0.84599 0.002,0.01564 0.1546,0.83374 0.0038,0.02079 0.1967,0.81918 0.0062,0.02588 0.2377,0.80238 0.0091,0.0309 0.0194,0.05965 0.2774,0.78339 0.0127,0.03584 0.3157,0.76224 0.0169,0.04068 0.3525,0.73901 0.0216,0.0454 0.3876,0.71376 0.0271,0.05 0.0314,0.05431 0.4207,0.68655 0.0334,0.05446 0.4518,0.65745 0.0404,0.05878 0.4808,0.62653 0.0483,0.063 0.5072,0.5939 0.0572,0.0669 0.042,0.0466 0.3467,0.3654 -6.3683,6.3682 -0.2354,-0.05 H -3.712 l -0.409,0.0869 -0.382,0.1701 -0.3382,0.2457 -0.4823,0.5077 -0.8915,0.9384 -0.8357,0.8797 -0.7775,0.8184 -0.7172,0.755 -0.6551,0.6895 -0.5909,0.6221 -0.5253,0.5529 -0.308,0.3242 -0.2798,0.3108 -0.2091,0.3621 -0.1292,0.3976 -0.0437,0.4158 0.0437,0.4159 0.1292,0.3976 0.2091,0.3621 0.2798,0.3107 0.1666,0.1581 0.4324,0.4104 0.0987,0.0937 0.2853,0.2437 0.3083,0.2633 0.2209,0.1886 0.1327,0.1134 0.0443,0.0378 0.4417,0.3772 1.4953,1.1474 0.3382,0.2458 1.5533,1.0675 1.607,0.9848 1.6563,0.8993 1.7012,0.8114 0.3819,0.17 1.7413,0.7213 1.7767,0.6291 1.80708,0.5353 1.83267,0.44 0.40897,0.087 1.85318,0.3434 1.86862,0.246 1.87893,0.1479 1.884093,0.0493 h 0.418114 z"
     stroke="#000000"
     fill="#d3d3d3"
     stroke-width="0.5"
     id="path4" />
  <metadata
     id="metadata827">
    <rdf:RDF>
      <cc:Work
         rdf:about="">
        <dc:title>OpenSCAD Model</dc:title>
      </cc:Work>
    </rdf:RDF>
  </metadata>
</svg>
