<?xml version="1.0" encoding="UTF-8" standalone="no"?>
<svg
   width="85mm"
   height="85mm"
   viewBox="-27 -38 85 85"
   version="1.1"
   id="svg6"
   sodipodi:docname="888_4045_stator_Cu_electrodes.svg"
   inkscape:version="1.1 (ce6663b3b7, 2021-05-25)"
   xmlns:inkscape="http://www.inkscape.org/namespaces/inkscape"
   xmlns:sodipodi="http://sodipodi.sourceforge.net/DTD/sodipodi-0.dtd"
   xmlns="http://www.w3.org/2000/svg"
   xmlns:svg="http://www.w3.org/2000/svg"
   xmlns:rdf="http://www.w3.org/1999/02/22-rdf-syntax-ns#"
   xmlns:cc="http://creativecommons.org/ns#"
   xmlns:dc="http://purl.org/dc/elements/1.1/">
  <defs
     id="defs10" />
  <sodipodi:namedview
     id="namedview8"
     pagecolor="#ffffff"
     bordercolor="#666666"
     borderopacity="1.0"
     inkscape:pageshadow="2"
     inkscape:pageopacity="0.0"
     inkscape:pagecheckerboard="0"
     inkscape:document-units="mm"
     showgrid="false"
     inkscape:zoom="2.9382675"
     inkscape:cx="101.93081"
     inkscape:cy="143.79222"
     inkscape:window-width="1870"
     inkscape:window-height="1016"
     inkscape:window-x="50"
     inkscape:window-y="27"
     inkscape:window-maximized="1"
     inkscape:current-layer="svg6" />
  <title
     id="title2">OpenSCAD Model</title>
  <path
     d="m 17.59314,42.4397 1.87894,-0.1479 1.8686,-0.246 1.85318,-0.3435 0.40898,-0.0869 1.83268,-0.44 1.80708,-0.5353 1.7767,-0.6291 1.7412,-0.7213 0.382,-0.17 1.7012,-0.8114 1.6563,-0.8993 1.607,-0.9848 1.5533,-1.0675 0.3382,-0.2458 1.4953,-1.1474 1.4332,-1.224 0.6977,-0.6622 0.2798,-0.3107 0.2091,-0.3621 0.1292,-0.3976 0.0437,-0.4159 -0.0437,-0.4158 -0.1292,-0.3976 -0.2091,-0.3621 -0.2798,-0.3108 -5.7835,-6.0879 -0.3382,-0.2457 -0.382,-0.1701 -0.409,-0.0869 h -0.4181 l -0.409,0.0869 -0.3819,0.1701 -0.3383,0.2457 -0.535,0.5077 -1.0987,0.9384 -0.9805,0.7524 -1.0185,0.7 -1.232,0.7549 -1.2699,0.6895 -1.1154,0.5321 -1.14178,0.4729 -1.36209,0.4823 -1.38547,0.4104 -1.20169,0.2885 -1.21515,0.2252 -1.4326,0.1886 -1.44051,0.1134 L 15.5,30.1055 14.26459,30.0731 12.82408,29.9597 11.39148,29.7711 10.17633,29.5459 8.97464,29.2574 7.58917,28.847 6.22708,28.3647 5.0853,27.8918 3.9699,27.3597 2.7,26.6702 1.468,25.9153 0.4495,25.2153 -0.531,24.4629 -1.6297,23.5245 -1.6768,23.4799 1.3048,20.4983 1.2887,20.4822 1.4568,20.3601 1.8054,20.0019 1.9453,19.8465 2.0498,19.6655 2.1144,19.4666 2.1363,19.2587 2.1144,19.0508 2.0498,18.852 1.9453,18.6709 1.8054,18.5156 1.6027,18.3232 0.9323,17.6168 0.2998,16.8762 -0.3567,16.0206 -0.9676,15.1318 -1.4765,14.30136 -1.9412,13.44547 -2.4055,12.47203 -2.8182,11.47563 -3.1433,10.55759 -3.4199,9.62375 -3.6717,8.57506 -3.8682,7.51463 -3.9953,6.54904 -4.0718,5.57811 -4.1,4.5 l 0.0282,-1.07811 0.0765,-0.97093 0.1271,-0.96559 0.1965,-1.06043 0.2518,-1.04869 0.2766,-0.93384 0.3251,-0.91804 0.4127,-0.9964 0.4643,-0.97344 0.4647,-0.85589 0.5089,-0.83044 0.6109,-0.8888 0.6565,-0.8556 0.6325,-0.7406 0.6704,-0.7064 0.2027,-0.1924 0.1399,-0.1553 0.1045,-0.1811 0.0646,-0.1988 0.0219,-0.2079 -0.0219,-0.2079 -0.0646,-0.1989 -0.1045,-0.181 -0.1399,-0.1554 -0.3486,-0.3582 -0.1681,-0.1221 0.0161,-0.0161 -2.9816,-2.9816 0.0471,-0.0446 1.0987,-0.9384 0.9805,-0.7524 1.0185,-0.7 1.232,-0.7549 1.2699,-0.6895 1.1154,-0.5321 1.14178,-0.4729 1.36209,-0.4823 1.38547,-0.4104 1.20169,-0.2885 1.21515,-0.2252 1.4326,-0.1886 1.44051,-0.1134 1.23541,-0.0324 1.23541,0.0324 1.44051,0.1134 1.4326,0.1886 1.21515,0.2252 1.20169,0.2885 1.38547,0.4104 1.36209,0.4823 1.14178,0.4729 1.1154,0.5321 1.2699,0.6895 1.232,0.7549 1.0185,0.7 0.9805,0.7524 1.0987,0.9384 0.535,0.5077 0.3383,0.2457 0.3819,0.1701 0.409,0.0869 h 0.4181 l 0.409,-0.0869 0.382,-0.1701 0.3382,-0.2457 5.7835,-6.0879 0.2798,-0.3108 0.2091,-0.3621 0.1292,-0.3976 0.0437,-0.4158 -0.0437,-0.4159 -0.1292,-0.3976 -0.2091,-0.3621 -0.2798,-0.3107 -0.6977,-0.6622 -1.4332,-1.224 -1.4953,-1.1474 -0.3382,-0.2458 -1.5533,-1.0675 -1.607,-0.9848 -1.6563,-0.8993 -1.7012,-0.8114 -0.382,-0.17 -1.7412,-0.7213 -1.7767,-0.6291 -1.80708,-0.5353 -1.83268,-0.44 -0.40898,-0.0869 -1.85318,-0.3435 -1.8686,-0.246 -1.87894,-0.1479 -1.884095,-0.0493 h -0.41809 l -1.884095,0.0493 -1.87894,0.1479 -1.8686,0.246 -1.85318,0.3435 -0.40898,0.0869 -1.83268,0.44 -1.80708,0.5353 -1.7767,0.6291 -1.7412,0.7213 -0.382,0.17 -1.7012,0.8114 -1.6563,0.8993 -1.607,0.9848 -1.5533,1.0675 -0.3382,0.2458 -1.4953,1.1474 -1.4332,1.224 -0.6977,0.6622 -0.2798,0.3107 -0.2091,0.3621 -0.1292,0.3976 -0.0437,0.4159 0.0437,0.4158 0.1292,0.3976 0.2091,0.3621 0.2798,0.3108 5.7835,6.0879 0.0778,0.0565 3.7647,3.7648 -0.7081,0.8291 -0.6725,0.8763 -0.6257,0.9104 -0.5771,0.9419 -0.1046,0.1811 -0.5271,0.97077 -0.4755,0.99705 -0.4228,1.02059 -0.3687,1.0413 -0.0646,0.19883 -0.3138,1.05917 -0.2579,1.07416 L -6.3184,0.99133 -6.4626,2.08655 -6.4844,2.29446 -6.5711,3.39572 -6.6,4.5 l 0.0289,1.10428 0.0867,1.10126 0.0218,0.20791 0.1442,1.09522 0.2013,1.08616 0.2579,1.07416 0.3138,1.05917 0.0646,0.19883 0.3687,1.0413 0.4228,1.02059 0.4755,0.99705 0.5271,0.97077 0.1046,0.1811 0.5771,0.9419 0.6257,0.9104 0.6725,0.8763 0.7081,0.8291 -3.7647,3.7648 -0.0778,0.0565 -5.7835,6.0879 -0.2798,0.3108 -0.2091,0.3621 -0.1292,0.3976 -0.0437,0.4158 0.0437,0.4159 0.1292,0.3976 0.2091,0.3621 0.2798,0.3107 0.6977,0.6622 1.4332,1.224 1.4953,1.1474 0.3382,0.2458 1.5533,1.0675 1.607,0.9848 1.6563,0.8993 1.7012,0.8114 0.382,0.17 1.7412,0.7213 1.7767,0.6291 1.80708,0.5353 1.83268,0.44 0.40898,0.0869 1.85318,0.3435 1.8686,0.246 1.87894,0.1479 1.884095,0.0493 h 0.41809 z"
     stroke="#000000"
     fill="#d3d3d3"
     stroke-width="0.5"
     id="path4"
     style="stroke-width:0.01;stroke-miterlimit:4;stroke-dasharray:none" />
  <metadata
     id="metadata827">
    <rdf:RDF>
      <cc:Work
         rdf:about="">
        <dc:title>OpenSCAD Model</dc:title>
      </cc:Work>
    </rdf:RDF>
  </metadata>
</svg>
