<?xml version="1.0" encoding="UTF-8" standalone="no"?>
<svg
   xmlns:dc="http://purl.org/dc/elements/1.1/"
   xmlns:cc="http://creativecommons.org/ns#"
   xmlns:rdf="http://www.w3.org/1999/02/22-rdf-syntax-ns#"
   xmlns:svg="http://www.w3.org/2000/svg"
   xmlns="http://www.w3.org/2000/svg"
   xmlns:sodipodi="http://sodipodi.sourceforge.net/DTD/sodipodi-0.dtd"
   xmlns:inkscape="http://www.inkscape.org/namespaces/inkscape"
   width="85mm"
   height="85mm"
   viewBox="-38 -29 85 85"
   version="1.1"
   id="svg6"
   sodipodi:docname="888_4045_stator_Cu_connection.svg"
   inkscape:version="0.92.5 (2060ec1f9f, 2020-04-08)">
  <metadata
     id="metadata12">
    <rdf:RDF>
      <cc:Work
         rdf:about="">
        <dc:format>image/svg+xml</dc:format>
        <dc:type
           rdf:resource="http://purl.org/dc/dcmitype/StillImage" />
        <dc:title>OpenSCAD Model</dc:title>
      </cc:Work>
    </rdf:RDF>
  </metadata>
  <defs
     id="defs10" />
  <sodipodi:namedview
     pagecolor="#ffffff"
     bordercolor="#666666"
     borderopacity="1"
     objecttolerance="10"
     gridtolerance="10"
     guidetolerance="10"
     inkscape:pageopacity="0"
     inkscape:pageshadow="2"
     inkscape:window-width="1848"
     inkscape:window-height="1016"
     id="namedview8"
     showgrid="false"
     inkscape:zoom="1.0765805"
     inkscape:cx="143.62205"
     inkscape:cy="109.6063"
     inkscape:window-x="72"
     inkscape:window-y="27"
     inkscape:window-maximized="1"
     inkscape:current-layer="svg6" />
  <title
     id="title2">OpenSCAD Model</title>
  <path
     d="m -19.147402,41.681798 -0.2523,-0.1989 -2.1218,-1.9614 -1.9614,-2.1218 -1.7889,-2.2692 -1.6054,-2.4026 -1.4118,-2.521 -1.2098,-2.6242 -1.0001,-2.7109 -0.7843,-2.78101 -0.5637,-2.834 -0.3397,-2.8695 -0.1134,-2.88729 0.1134,-2.88729 0.3397,-2.8695 0.5637,-2.834 0.7843,-2.78101 1.0001,-2.71090004 1.2098,-2.62419996 1.4118,-2.5209998 1.6054,-2.4026 1.7889,-2.2692002 1.9614,-2.1218 2.1218,-1.9614 0.2523,-0.1989 -0.257,-0.3064 -0.2551,0.2011 -2.1449,1.9827 -1.9827,2.1449 -1.8083,2.2939002 -1.6228,2.4287 -1.4272,2.5484998 -1.2229,2.65259996 -1.011,2.74040004 -0.7929,2.81123 -0.5698,2.86481 -0.3433,2.90068 -0.1147,2.91868 0.1147,2.91868 0.3433,2.90068 0.5698,2.86481 0.7929,2.81123 1.011,2.7404 1.2229,2.6526 1.4272,2.5485 1.6228,2.4287 1.8083,2.2939 1.9827,2.1449 2.1449,1.9827 0.2551,0.2011 z m 47.8069,0.1053 2.1449,-1.9827 1.9827,-2.1449 1.8083,-2.2939 1.6228,-2.4287 1.4272,-2.5485 1.2229,-2.6526 1.011,-2.7404 0.7929,-2.81123 0.5698,-2.86481 0.3433,-2.90068 0.1147,-2.91868 -0.1147,-2.91868 -0.3433,-2.90068 -0.5698,-2.86481 -0.7929,-2.81123 -1.011,-2.74040004 -1.2229,-2.65259996 -1.4272,-2.5484998 -1.6228,-2.4287 -1.8083,-2.2939002 -1.9827,-2.1449 -2.1449,-1.9827 -0.2551,-0.2011 -0.257,0.3064 0.2523,0.1989 2.1218,1.9614 1.9614,2.1218 1.7889,2.2692002 1.6054,2.4026 1.4118,2.5209998 1.2098,2.62419996 1.0001,2.71090004 0.7843,2.78101 0.5637,2.834 0.3397,2.8695 0.1134,2.88729 -0.1134,2.88729 -0.3397,2.8695 -0.5637,2.834 -0.7843,2.78101 -1.0001,2.7109 -1.2098,2.6242 -1.4118,2.521 -1.6054,2.4026 -1.7889,2.2692 -1.9614,2.1218 -2.1218,1.9614 -0.2523,0.1989 0.257,0.3064 z"
     id="path4"
     inkscape:connector-curvature="0"
     style="fill:#d3d3d3;stroke:#000000;stroke-width:0.05;stroke-miterlimit:4;stroke-dasharray:none" />
</svg>
