<?xml version="1.0" standalone="no"?>
<!DOCTYPE svg PUBLIC "-//W3C//DTD SVG 1.1//EN" "http://www.w3.org/Graphics/SVG/1.1/DTD/svg11.dtd">
<svg width="54mm" height="76mm" viewBox="-27 -38 54 76" xmlns="http://www.w3.org/2000/svg" version="1.1">
<title>OpenSCAD Model</title>
<path d="
M 2.09314,37.9397 L 3.97208,37.7918 L 5.84068,37.5458 L 7.69386,37.2023 L 8.10284,37.1154 L 9.93552,36.6754
 L 11.7426,36.1401 L 13.5193,35.511 L 15.2605,34.7897 L 15.6425,34.6197 L 17.3437,33.8083 L 19,32.909
 L 20.607,31.9242 L 22.1603,30.8567 L 22.4985,30.6109 L 23.9938,29.4635 L 25.427,28.2395 L 26.1247,27.5773
 L 26.4045,27.2666 L 26.6136,26.9045 L 26.7428,26.5069 L 26.7865,26.091 L 26.7428,25.6752 L 26.6136,25.2776
 L 26.4045,24.9155 L 26.1247,24.6047 L 20.3412,18.5168 L 20.003,18.2711 L 19.621,18.101 L 19.212,18.0141
 L 18.7939,18.0141 L 18.3849,18.101 L 18.003,18.2711 L 17.6647,18.5168 L 17.1297,19.0245 L 16.031,19.9629
 L 15.0505,20.7153 L 14.032,21.4153 L 12.8,22.1702 L 11.5301,22.8597 L 10.4147,23.3918 L 9.27292,23.8647
 L 7.91083,24.347 L 6.52536,24.7574 L 5.32367,25.0459 L 4.10852,25.2711 L 2.67592,25.4597 L 1.23541,25.5731
 L 0,25.6055 L -1.23541,25.5731 L -2.67592,25.4597 L -4.10852,25.2711 L -5.32367,25.0459 L -6.52536,24.7574
 L -7.91083,24.347 L -9.27292,23.8647 L -10.4147,23.3918 L -11.5301,22.8597 L -12.8,22.1702 L -14.032,21.4153
 L -15.0505,20.7153 L -16.031,19.9629 L -17.1297,19.0245 L -17.1768,18.9799 L -14.1952,15.9983 L -14.2113,15.9822
 L -14.0432,15.8601 L -13.6946,15.5019 L -13.5547,15.3465 L -13.4502,15.1655 L -13.3856,14.9666 L -13.3637,14.7587
 L -13.3856,14.5508 L -13.4502,14.352 L -13.5547,14.1709 L -13.6946,14.0156 L -13.8973,13.8232 L -14.5677,13.1168
 L -15.2002,12.3762 L -15.8567,11.5206 L -16.4676,10.6318 L -16.9765,9.80136 L -17.4412,8.94547 L -17.9055,7.97203
 L -18.3182,6.97563 L -18.6433,6.05759 L -18.9199,5.12375 L -19.1717,4.07506 L -19.3682,3.01463 L -19.4953,2.04904
 L -19.5718,1.07811 L -19.6,-0 L -19.5718,-1.07811 L -19.4953,-2.04904 L -19.3682,-3.01463 L -19.1717,-4.07506
 L -18.9199,-5.12375 L -18.6433,-6.05759 L -18.3182,-6.97563 L -17.9055,-7.97203 L -17.4412,-8.94547 L -16.9765,-9.80136
 L -16.4676,-10.6318 L -15.8567,-11.5206 L -15.2002,-12.3762 L -14.5677,-13.1168 L -13.8973,-13.8232 L -13.6946,-14.0156
 L -13.5547,-14.1709 L -13.4502,-14.352 L -13.3856,-14.5508 L -13.3637,-14.7587 L -13.3856,-14.9666 L -13.4502,-15.1655
 L -13.5547,-15.3465 L -13.6946,-15.5019 L -14.0432,-15.8601 L -14.2113,-15.9822 L -14.1952,-15.9983 L -17.1768,-18.9799
 L -17.1297,-19.0245 L -16.031,-19.9629 L -15.0505,-20.7153 L -14.032,-21.4153 L -12.8,-22.1702 L -11.5301,-22.8597
 L -10.4147,-23.3918 L -9.27292,-23.8647 L -7.91083,-24.347 L -6.52536,-24.7574 L -5.32367,-25.0459 L -4.10852,-25.2711
 L -2.67592,-25.4597 L -1.23541,-25.5731 L 0,-25.6055 L 1.23541,-25.5731 L 2.67592,-25.4597 L 4.10852,-25.2711
 L 5.32367,-25.0459 L 6.52536,-24.7574 L 7.91083,-24.347 L 9.27292,-23.8647 L 10.4147,-23.3918 L 11.5301,-22.8597
 L 12.8,-22.1702 L 14.032,-21.4153 L 15.0505,-20.7153 L 16.031,-19.9629 L 17.1297,-19.0245 L 17.6647,-18.5168
 L 18.003,-18.2711 L 18.3849,-18.101 L 18.7939,-18.0141 L 19.212,-18.0141 L 19.621,-18.101 L 20.003,-18.2711
 L 20.3412,-18.5168 L 26.1247,-24.6047 L 26.4045,-24.9155 L 26.6136,-25.2776 L 26.7428,-25.6752 L 26.7865,-26.091
 L 26.7428,-26.5069 L 26.6136,-26.9045 L 26.4045,-27.2666 L 26.1247,-27.5773 L 25.427,-28.2395 L 23.9938,-29.4635
 L 22.4985,-30.6109 L 22.1603,-30.8567 L 20.607,-31.9242 L 19,-32.909 L 17.3437,-33.8083 L 15.6425,-34.6197
 L 15.2605,-34.7897 L 13.5193,-35.511 L 11.7426,-36.1401 L 9.93552,-36.6754 L 8.10284,-37.1154 L 7.69386,-37.2023
 L 5.84068,-37.5458 L 3.97208,-37.7918 L 2.09314,-37.9397 L 0.209045,-37.989 L -0.209045,-37.989 L -2.09314,-37.9397
 L -3.97208,-37.7918 L -5.84068,-37.5458 L -7.69386,-37.2023 L -8.10284,-37.1154 L -9.93552,-36.6754 L -11.7426,-36.1401
 L -13.5193,-35.511 L -15.2605,-34.7897 L -15.6425,-34.6197 L -17.3437,-33.8083 L -19,-32.909 L -20.607,-31.9242
 L -22.1603,-30.8567 L -22.4985,-30.6109 L -23.9938,-29.4635 L -25.427,-28.2395 L -26.1247,-27.5773 L -26.4045,-27.2666
 L -26.6136,-26.9045 L -26.7428,-26.5069 L -26.7865,-26.091 L -26.7428,-25.6752 L -26.6136,-25.2776 L -26.4045,-24.9155
 L -26.1247,-24.6047 L -20.3412,-18.5168 L -20.2634,-18.4603 L -16.4987,-14.6955 L -17.2068,-13.8664 L -17.8793,-12.9901
 L -18.505,-12.0797 L -19.0821,-11.1378 L -19.1867,-10.9567 L -19.7138,-9.98593 L -20.1893,-8.98888 L -20.6121,-7.96829
 L -20.9808,-6.92699 L -21.0454,-6.72816 L -21.3592,-5.66899 L -21.6171,-4.59483 L -21.8184,-3.50867 L -21.9626,-2.41345
 L -21.9844,-2.20554 L -22.0711,-1.10428 L -22.1,-0 L -22.0711,1.10428 L -21.9844,2.20554 L -21.9626,2.41345
 L -21.8184,3.50867 L -21.6171,4.59483 L -21.3592,5.66899 L -21.0454,6.72816 L -20.9808,6.92699 L -20.6121,7.96829
 L -20.1893,8.98888 L -19.7138,9.98593 L -19.1867,10.9567 L -19.0821,11.1378 L -18.505,12.0797 L -17.8793,12.9901
 L -17.2068,13.8664 L -16.4987,14.6955 L -20.2634,18.4603 L -20.3412,18.5168 L -26.1247,24.6047 L -26.4045,24.9155
 L -26.6136,25.2776 L -26.7428,25.6752 L -26.7865,26.091 L -26.7428,26.5069 L -26.6136,26.9045 L -26.4045,27.2666
 L -26.1247,27.5773 L -25.427,28.2395 L -23.9938,29.4635 L -22.4985,30.6109 L -22.1603,30.8567 L -20.607,31.9242
 L -19,32.909 L -17.3437,33.8083 L -15.6425,34.6197 L -15.2605,34.7897 L -13.5193,35.511 L -11.7426,36.1401
 L -9.93552,36.6754 L -8.10284,37.1154 L -7.69386,37.2023 L -5.84068,37.5458 L -3.97208,37.7918 L -2.09314,37.9397
 L -0.209045,37.989 L 0.209045,37.989 z
" stroke="black" fill="lightgray" stroke-width="0.5"/>
</svg>
