<?xml version="1.0" standalone="no"?>
<!DOCTYPE svg PUBLIC "-//W3C//DTD SVG 1.1//EN" "http://www.w3.org/Graphics/SVG/1.1/DTD/svg11.dtd">
<svg width="80mm" height="80mm" viewBox="-40 -40 80 80" xmlns="http://www.w3.org/2000/svg" version="1.1">
<title>OpenSCAD Model</title>
<path d="
M 2.09343,39.9452 L 4.18114,39.7809 L 6.25737,39.5075 L 8.31647,39.1259 L 10.3528,38.637 L 12.3607,38.0423
 L 14.3347,37.3432 L 16.2695,36.5418 L 18.1596,35.6403 L 20,34.641 L 21.7856,33.5468 L 23.5114,32.3607
 L 25.1728,31.0858 L 26.7652,29.7258 L 28.2843,28.2843 L 29.7258,26.7652 L 31.0858,25.1728 L 32.3607,23.5114
 L 33.5468,21.7856 L 34.641,20 L 35.6403,18.1596 L 36.5418,16.2695 L 37.3432,14.3347 L 38.0423,12.3607
 L 38.637,10.3528 L 39.1259,8.31647 L 39.5075,6.25737 L 39.7809,4.18114 L 39.9452,2.09343 L 40,-0
 L 39.9452,-2.09343 L 39.7809,-4.18114 L 39.5075,-6.25737 L 39.1259,-8.31647 L 38.637,-10.3528 L 38.0423,-12.3607
 L 37.3432,-14.3347 L 36.5418,-16.2695 L 35.6403,-18.1596 L 34.641,-20 L 33.5468,-21.7856 L 32.3607,-23.5114
 L 31.0858,-25.1728 L 29.7258,-26.7652 L 28.2843,-28.2843 L 26.7652,-29.7258 L 25.1728,-31.0858 L 23.5114,-32.3607
 L 21.7856,-33.5468 L 20,-34.641 L 18.1596,-35.6403 L 16.2695,-36.5418 L 14.3347,-37.3432 L 12.3607,-38.0423
 L 10.3528,-38.637 L 8.31647,-39.1259 L 6.25737,-39.5075 L 4.18114,-39.7809 L 2.09343,-39.9452 L 0,-40
 L -2.09343,-39.9452 L -4.18114,-39.7809 L -6.25737,-39.5075 L -8.31647,-39.1259 L -10.3528,-38.637 L -12.3607,-38.0423
 L -14.3347,-37.3432 L -16.2695,-36.5418 L -18.1596,-35.6403 L -20,-34.641 L -21.7856,-33.5468 L -23.5114,-32.3607
 L -25.1728,-31.0858 L -26.7652,-29.7258 L -28.2843,-28.2843 L -29.7258,-26.7652 L -31.0858,-25.1728 L -32.3607,-23.5114
 L -33.5468,-21.7856 L -34.641,-20 L -35.6403,-18.1596 L -36.5418,-16.2695 L -37.3432,-14.3347 L -38.0423,-12.3607
 L -38.637,-10.3528 L -39.1259,-8.31647 L -39.5075,-6.25737 L -39.7809,-4.18114 L -39.9452,-2.09343 L -40,-0
 L -39.9452,2.09343 L -39.7809,4.18114 L -39.5075,6.25737 L -39.1259,8.31647 L -38.637,10.3528 L -38.0423,12.3607
 L -37.3432,14.3347 L -36.5418,16.2695 L -35.6403,18.1596 L -34.641,20 L -33.5468,21.7856 L -32.3607,23.5114
 L -31.0858,25.1728 L -29.7258,26.7652 L -28.2843,28.2843 L -26.7652,29.7258 L -25.1728,31.0858 L -23.5114,32.3607
 L -21.7856,33.5468 L -20,34.641 L -18.1596,35.6403 L -16.2695,36.5418 L -14.3347,37.3432 L -12.3607,38.0423
 L -10.3528,38.637 L -8.31647,39.1259 L -6.25737,39.5075 L -4.18114,39.7809 L -2.09343,39.9452 L 0,40
 z
M -22.9556,-13.626 L -23.3646,-13.713 L -23.7466,-13.883 L -30.6695,-18.6354 L -31.0077,-18.8812 L -31.2875,-19.1919
 L -31.4966,-19.554 L -31.6258,-19.9517 L -31.6695,-20.3675 L -31.6258,-20.7833 L -31.4966,-21.181 L -31.2875,-21.543
 L -30.7426,-22.3358 L -29.5953,-23.8311 L -28.3712,-25.2643 L -28.0915,-25.575 L -26.7941,-26.9421 L -25.427,-28.2395
 L -23.9938,-29.4635 L -22.4985,-30.6109 L -22.1603,-30.8567 L -20.607,-31.9242 L -19,-32.909 L -17.3436,-33.8083
 L -15.6425,-34.6197 L -15.2605,-34.7897 L -13.5193,-35.511 L -11.7426,-36.1401 L -9.93552,-36.6754 L -8.10284,-37.1154
 L -7.69388,-37.2023 L -5.84068,-37.5458 L -3.97208,-37.7918 L -2.09314,-37.9397 L -0.209045,-37.989 L 0.209045,-37.989
 L 2.09314,-37.9397 L 3.97208,-37.7918 L 5.84068,-37.5458 L 7.69386,-37.2023 L 8.10284,-37.1154 L 9.93552,-36.6754
 L 11.7426,-36.1401 L 13.5193,-35.511 L 15.2605,-34.7897 L 15.6425,-34.6197 L 17.3436,-33.8083 L 19,-32.909
 L 19.8202,-32.4063 L 20.1585,-32.1606 L 20.4382,-31.8499 L 20.6473,-31.4877 L 20.7765,-31.0901 L 20.8202,-30.6743
 L 20.7765,-30.2585 L 20.6473,-29.8608 L 20.4382,-29.4987 L 16.0469,-22.3414 L 15.7671,-22.0307 L 15.4288,-21.7849
 L 15.0469,-21.6148 L 14.6379,-21.5279 L 14.2198,-21.5279 L 13.8108,-21.6148 L 13.4288,-21.7849 L 12.8,-22.1702
 L 11.5301,-22.8597 L 10.4147,-23.3918 L 9.27292,-23.8647 L 7.91083,-24.347 L 6.52536,-24.7574 L 5.32368,-25.0459
 L 4.10852,-25.2711 L 2.67592,-25.4597 L 1.23541,-25.5731 L 0,-25.6055 L -1.23541,-25.5731 L -2.67592,-25.4597
 L -4.10852,-25.2711 L -5.32367,-25.0459 L -6.52536,-24.7574 L -7.91083,-24.347 L -9.27292,-23.8647 L -10.4147,-23.3918
 L -11.5301,-22.8597 L -12.8,-22.1702 L -14.032,-21.4153 L -15.0505,-20.7153 L -16.031,-19.9629 L -17.1297,-19.0245
 L -18.1779,-18.0298 L -19.0286,-17.1334 L -19.8312,-16.1937 L -20.7108,-15.0473 L -21.1286,-14.4395 L -21.4083,-14.1288
 L -21.7466,-13.883 L -22.1286,-13.713 L -22.5375,-13.626 z
M -2.21126,-19.636 L -2.50032,-19.7557 L -2.73822,-19.9589 L -2.90169,-20.2257 L -2.97473,-20.5299 L -3.27611,-22.5123
 L -3.25156,-22.8242 L -3.13182,-23.1133 L -2.92863,-23.3512 L -2.66187,-23.5147 L -2.35765,-23.5877 L -1.3613,-23.6661
 L -1.04939,-23.6416 L -0.760345,-23.5219 L -0.52243,-23.3187 L -0.358963,-23.0519 L -0.285919,-22.7477 L -0.273468,-20.7425
 L -0.298004,-20.4306 L -0.41774,-20.1415 L -0.620926,-19.9036 L -0.887695,-19.7401 L -1.19193,-19.6671 L -1.89935,-19.6114
 z
M 3.9389,-19.3055 L 3.24117,-19.4348 L 2.94624,-19.5392 L 2.69803,-19.7297 L 2.52081,-19.9875 L 2.43195,-20.2875
 L 2.44014,-20.6003 L 2.66214,-22.5932 L 2.76657,-22.8881 L 2.95705,-23.1363 L 3.21489,-23.3135 L 3.51486,-23.4024
 L 3.82764,-23.3942 L 4.81032,-23.2121 L 5.10524,-23.1076 L 5.35345,-22.9172 L 5.53067,-22.6593 L 5.61952,-22.3593
 L 5.61134,-22.0466 L 5.10439,-20.1065 L 4.99995,-19.8116 L 4.80949,-19.5633 L 4.55165,-19.3861 L 4.25166,-19.2973
 z
M -7.52827,-18.4354 L -7.81065,-18.5701 L -8.03761,-18.7855 L -8.18689,-19.0604 L -8.9911,-20.8973 L -9.04811,-21.205
 L -9.00728,-21.5152 L -8.87259,-21.7976 L -8.65721,-22.0245 L -8.38226,-22.1738 L -7.44017,-22.5074 L -7.13254,-22.5644
 L -6.82234,-22.5236 L -6.53995,-22.3889 L -6.313,-22.1735 L -6.16371,-21.8986 L -5.63269,-19.9649 L -5.57568,-19.6573
 L -5.61652,-19.3471 L -5.75121,-19.0647 L -5.96657,-18.8378 L -6.24153,-18.6885 L -6.91045,-18.4516 L -7.21808,-18.3946
 z
M 8.80132,-17.6282 L 8.16081,-17.9337 L 7.90297,-18.1109 L 7.71251,-18.3591 L 7.60806,-18.654 L 7.59988,-18.9668
 L 7.68874,-19.2668 L 8.41898,-21.1343 L 8.59619,-21.3922 L 8.84441,-21.5826 L 9.13933,-21.6871 L 9.45209,-21.6953
 L 9.75208,-21.6064 L 10.6541,-21.1761 L 10.912,-20.9989 L 11.1024,-20.7507 L 11.2069,-20.4558 L 11.2151,-20.143
 L 11.1262,-19.843 L 10.1344,-18.1003 L 9.9572,-17.8424 L 9.70898,-17.6519 L 9.41406,-17.5475 L 9.10129,-17.5393
 z
M -12.3508,-15.9158 L -12.6258,-16.0651 L -12.8411,-16.292 L -14.0934,-17.8582 L -14.2281,-18.1406 L -14.2689,-18.4508
 L -14.2119,-18.7584 L -14.0626,-19.0334 L -13.8356,-19.2487 L -13.012,-19.8148 L -12.7296,-19.9495 L -12.4194,-19.9904
 L -12.1118,-19.9333 L -11.8368,-19.7841 L -11.6215,-19.5571 L -10.6081,-17.8268 L -10.4734,-17.5444 L -10.4325,-17.2342
 L -10.4895,-16.9266 L -10.6388,-16.6516 L -10.8658,-16.4362 L -11.4506,-16.0343 L -11.733,-15.8996 L -12.0432,-15.8588
 z
M 13.3307,-14.5861 L 13.0639,-14.7496 L 12.5243,-15.2104 L 12.3211,-15.4483 L 12.2014,-15.7374 L 12.1768,-16.0493
 L 12.2499,-16.3535 L 12.4134,-16.6203 L 13.6021,-18.2352 L 13.84,-18.4384 L 14.129,-18.5581 L 14.4409,-18.5827
 L 14.7452,-18.5096 L 15.0119,-18.3461 L 15.7719,-17.6971 L 15.9751,-17.4592 L 16.0948,-17.1701 L 16.1194,-16.8582
 L 16.0463,-16.554 L 15.8829,-16.2872 L 14.4738,-14.8605 L 14.2359,-14.6573 L 13.9468,-14.5376 L 13.6349,-14.513
 z
M -16.3535,-12.2499 L -16.6203,-12.4134 L -18.2352,-13.6021 L -18.4384,-13.84 L -18.5581,-14.129 L -18.5827,-14.4409
 L -18.5096,-14.7452 L -18.3461,-15.0119 L -17.6971,-15.7719 L -17.4592,-15.9751 L -17.1701,-16.0948 L -16.8582,-16.1194
 L -16.554,-16.0463 L -16.2872,-15.8829 L -14.8605,-14.4738 L -14.6573,-14.2359 L -14.5376,-13.9468 L -14.513,-13.6349
 L -14.5861,-13.3307 L -14.7496,-13.0639 L -15.2104,-12.5243 L -15.4483,-12.3211 L -15.7374,-12.2014 L -16.0493,-12.1768
 z
M -8.71771,-12.3726 L -8.98589,-12.5337 L -9.19115,-12.7698 L -10.3782,-14.3864 L -10.5004,-14.6744 L -10.5277,-14.9861
 L -10.4573,-15.291 L -10.2962,-15.5591 L -10.0601,-15.7644 L -9.7589,-15.9526 L -9.4709,-16.0748 L -9.15921,-16.1021
 L -8.85437,-16.0317 L -8.58618,-15.8706 L -8.38092,-15.6345 L -7.4483,-13.8589 L -7.32605,-13.5709 L -7.29878,-13.2592
 L -7.36917,-12.9543 L -7.5303,-12.6862 L -7.76643,-12.4809 L -7.81319,-12.4517 L -8.10118,-12.3295 L -8.41286,-12.3022
 z
M 16.9266,-10.4895 L 16.6516,-10.6388 L 16.4362,-10.8658 L 16.0343,-11.4506 L 15.8996,-11.733 L 15.8588,-12.0432
 L 15.9158,-12.3508 L 16.0651,-12.6258 L 16.292,-12.8411 L 17.8582,-14.0934 L 18.1406,-14.2281 L 18.4508,-14.2689
 L 18.7584,-14.2119 L 19.0334,-14.0626 L 19.2487,-13.8356 L 19.8148,-13.012 L 19.9495,-12.7296 L 19.9904,-12.4194
 L 19.9333,-12.1118 L 19.7841,-11.8368 L 19.5571,-11.6215 L 17.8268,-10.6081 L 17.5444,-10.4734 L 17.2342,-10.4325
 z
M 3.01291,-9.2728 L 2.66444,-9.45035 L 2.38791,-9.72688 L 2.21036,-10.0753 L 2.14919,-10.4616 L 2.21036,-10.8479
 L 2.38791,-11.1964 L 2.66444,-11.4729 L 3.01291,-11.6504 L 3.39919,-11.7116 L 3.78545,-11.6504 L 4.13391,-11.4729
 L 4.41045,-11.1964 L 4.588,-10.8479 L 4.64919,-10.4616 L 4.588,-10.0753 L 4.41045,-9.72688 L 4.13391,-9.45035
 L 3.78545,-9.2728 L 3.39919,-9.21161 z
M -19.2668,-7.68874 L -21.1343,-8.41898 L -21.3922,-8.59619 L -21.5826,-8.84441 L -21.6871,-9.13933 L -21.6953,-9.45209
 L -21.6064,-9.75208 L -21.1761,-10.6541 L -20.9989,-10.912 L -20.7507,-11.1024 L -20.4558,-11.2069 L -20.143,-11.2151
 L -19.843,-11.1262 L -18.1003,-10.1344 L -17.8424,-9.9572 L -17.6519,-9.70898 L -17.5475,-9.41406 L -17.5393,-9.10129
 L -17.6282,-8.80132 L -17.9337,-8.16081 L -18.1109,-7.90297 L -18.3591,-7.71251 L -18.654,-7.60806 L -18.9668,-7.59988
 z
M -7.62032,-6.9519 L -7.98543,-7.09206 L -8.28935,-7.33817 L -8.50237,-7.66617 L -8.60358,-8.04393 L -8.58311,-8.43448
 L -8.44296,-8.79959 L -8.19684,-9.10352 L -7.86885,-9.31651 L -7.49109,-9.41774 L -7.10054,-9.39726 L -6.73543,-9.25711
 L -6.4315,-9.011 L -6.21849,-8.68301 L -6.11728,-8.30525 L -6.13774,-7.9147 L -6.27789,-7.54959 L -6.52402,-7.24565
 L -6.85201,-7.03265 L -7.22977,-6.93143 z
M 19.3471,-5.61652 L 19.0647,-5.75121 L 18.8378,-5.96657 L 18.6885,-6.24153 L 18.4516,-6.91045 L 18.3946,-7.21808
 L 18.4354,-7.52827 L 18.5701,-7.81065 L 18.7855,-8.03761 L 19.0604,-8.18689 L 20.8973,-8.9911 L 21.205,-9.04811
 L 21.5152,-9.00728 L 21.7976,-8.87259 L 22.0245,-8.65721 L 22.1738,-8.38226 L 22.5074,-7.44017 L 22.5644,-7.13254
 L 22.5236,-6.82234 L 22.3889,-6.53995 L 22.1735,-6.313 L 21.8986,-6.16371 L 19.9649,-5.63269 L 19.6573,-5.57568
 z
M -0.421295,8.03896 L -0.841446,8.00589 L -1.25929,7.95088 L -1.67368,7.87408 L -2.08348,7.7757 L -2.48758,7.65599
 L -2.88486,7.51532 L -3.27422,7.35403 L -3.65462,7.17259 L -4.02499,6.9715 L -4.38434,6.7513 L -4.73166,6.51257
 L -5.06602,6.25601 L -5.38649,5.98232 L -5.6922,5.6922 L -5.98232,5.38649 L -6.25601,5.06602 L -6.51257,4.73166
 L -6.7513,4.38434 L -6.9715,4.02499 L -7.17259,3.65462 L -7.35403,3.27422 L -7.51532,2.88486 L -7.65599,2.48758
 L -7.7757,2.08348 L -7.87408,1.67368 L -7.95088,1.25929 L -8.00589,0.841446 L -8.03896,0.421295 L -8.04999,-0
 L -8.03896,-0.421295 L -8.00589,-0.841446 L -7.95088,-1.25929 L -7.87408,-1.67368 L -7.7757,-2.08348 L -7.65599,-2.48758
 L -7.51532,-2.88486 L -7.35403,-3.27422 L -7.17259,-3.65462 L -6.9715,-4.02499 L -6.7513,-4.38434 L -6.51257,-4.73166
 L -6.25601,-5.06602 L -5.98232,-5.38649 L -5.6922,-5.6922 L -5.38649,-5.98232 L -5.06602,-6.25601 L -4.73166,-6.51257
 L -4.38434,-6.7513 L -4.02499,-6.9715 L -3.65462,-7.17259 L -3.27422,-7.35403 L -2.88486,-7.51532 L -2.48758,-7.65599
 L -2.08348,-7.7757 L -1.67368,-7.87408 L -1.25929,-7.95088 L -0.841446,-8.00589 L -0.421295,-8.03896 L 0,-8.04999
 L 0.421295,-8.03896 L 0.841446,-8.00589 L 1.25929,-7.95088 L 1.67368,-7.87408 L 2.08348,-7.7757 L 2.48758,-7.65599
 L 2.88486,-7.51532 L 3.27422,-7.35403 L 3.65462,-7.17259 L 4.02499,-6.9715 L 4.38434,-6.7513 L 4.73166,-6.51257
 L 5.06602,-6.25601 L 5.38649,-5.98232 L 5.6922,-5.6922 L 5.98232,-5.38649 L 6.25601,-5.06602 L 6.51257,-4.73166
 L 6.7513,-4.38434 L 6.9715,-4.02499 L 7.17259,-3.65462 L 7.35403,-3.27422 L 7.51532,-2.88486 L 7.65599,-2.48758
 L 7.7757,-2.08348 L 7.87408,-1.67368 L 7.95088,-1.25929 L 8.00589,-0.841446 L 8.03896,-0.421295 L 8.04999,-0
 L 8.03896,0.421295 L 8.00589,0.841446 L 7.95088,1.25929 L 7.87408,1.67368 L 7.7757,2.08348 L 7.65599,2.48758
 L 7.51532,2.88486 L 7.35403,3.27422 L 7.17259,3.65462 L 6.9715,4.02499 L 6.7513,4.38434 L 6.51257,4.73166
 L 6.25601,5.06602 L 5.98232,5.38649 L 5.6922,5.6922 L 5.38649,5.98232 L 5.06602,6.25601 L 4.73166,6.51257
 L 4.38434,6.7513 L 4.02499,6.9715 L 3.65462,7.17259 L 3.27422,7.35403 L 2.88486,7.51532 L 2.48758,7.65599
 L 2.08348,7.7757 L 1.67368,7.87408 L 1.25929,7.95088 L 0.841446,8.00589 L 0.421295,8.03896 L 0,8.04999
 z
M 8.48976,-4.79651 L 8.04776,-5.03151 L 7.70003,-5.39162 L 7.48058,-5.84154 L 7.4109,-6.33725 L 7.49783,-6.83025
 L 7.73285,-7.27223 L 8.09294,-7.61998 L 8.54288,-7.83942 L 9.03859,-7.90909 L 9.53157,-7.82216 L 9.97357,-7.58714
 L 10.3213,-7.22705 L 10.5408,-6.77713 L 10.6104,-6.2814 L 10.5235,-5.78842 L 10.2885,-5.34644 L 9.92839,-4.99869
 L 9.47845,-4.77925 L 8.98274,-4.70958 z
M -20.6003,-2.44014 L -22.5932,-2.66214 L -22.8881,-2.76657 L -23.1363,-2.95705 L -23.3135,-3.21489 L -23.4024,-3.51486
 L -23.3942,-3.82764 L -23.2121,-4.81032 L -23.1076,-5.10524 L -22.9172,-5.35345 L -22.6593,-5.53067 L -22.3593,-5.61952
 L -22.0466,-5.61134 L -20.1065,-5.10439 L -19.8116,-4.99995 L -19.5633,-4.80949 L -19.3861,-4.55165 L -19.2973,-4.25166
 L -19.3055,-3.9389 L -19.4348,-3.24117 L -19.5392,-2.94624 L -19.7297,-2.69803 L -19.9875,-2.52081 L -20.2875,-2.43195
 z
M 10.2512,-1.1451 L 9.9232,-1.35809 L 9.67708,-1.66202 L 9.53693,-2.02713 L 9.51646,-2.41768 L 9.61769,-2.79544
 L 9.83069,-3.12343 L 10.1346,-3.36955 L 10.4997,-3.5097 L 10.8903,-3.53017 L 11.268,-3.42896 L 11.596,-3.21596
 L 11.8421,-2.91202 L 11.9823,-2.54691 L 12.0028,-2.15636 L 11.9016,-1.77859 L 11.6886,-1.45061 L 11.3846,-1.20448
 L 11.0195,-1.06433 L 10.629,-1.04387 z
M 20.4306,-0.298004 L 20.1415,-0.41774 L 19.9036,-0.620926 L 19.7401,-0.887695 L 19.6671,-1.19193 L 19.6114,-1.89935
 L 19.636,-2.21126 L 19.7557,-2.50032 L 19.9589,-2.73822 L 20.2257,-2.90169 L 20.5299,-2.97473 L 22.5123,-3.27611
 L 22.8242,-3.25156 L 23.1133,-3.13182 L 23.3512,-2.92863 L 23.5147,-2.66187 L 23.5877,-2.35765 L 23.6661,-1.3613
 L 23.6416,-1.04939 L 23.5219,-0.760345 L 23.3187,-0.52243 L 23.0519,-0.358963 L 22.7477,-0.285919 L 20.7425,-0.273468
 z
M -22.8242,3.25156 L -23.1133,3.13182 L -23.3512,2.92863 L -23.5147,2.66187 L -23.5877,2.35765 L -23.6661,1.3613
 L -23.6416,1.04939 L -23.5219,0.760345 L -23.3187,0.52243 L -23.0519,0.358963 L -22.7477,0.285919 L -20.7425,0.273468
 L -20.4306,0.298004 L -20.1415,0.41774 L -19.9036,0.620926 L -19.7401,0.887695 L -19.6671,1.19193 L -19.6114,1.89935
 L -19.636,2.21126 L -19.7557,2.50032 L -19.9589,2.73822 L -20.2257,2.90169 L -20.5299,2.97473 L -22.5123,3.27611
 z
M -11.268,3.42896 L -11.596,3.21596 L -11.8421,2.91202 L -11.9823,2.54691 L -12.0028,2.15636 L -11.9016,1.77859
 L -11.6886,1.45061 L -11.3846,1.20448 L -11.0195,1.06433 L -10.629,1.04387 L -10.2512,1.1451 L -9.9232,1.35809
 L -9.67708,1.66202 L -9.53693,2.02713 L -9.51646,2.41768 L -9.61769,2.79544 L -9.83069,3.12343 L -10.1346,3.36955
 L -10.4997,3.5097 L -10.8903,3.53017 z
M 22.0466,5.61134 L 20.1065,5.10439 L 19.8116,4.99995 L 19.5633,4.80949 L 19.3861,4.55165 L 19.2973,4.25166
 L 19.3055,3.9389 L 19.4348,3.24117 L 19.5392,2.94624 L 19.7297,2.69803 L 19.9875,2.52081 L 20.2875,2.43195
 L 20.6003,2.44014 L 22.5932,2.66214 L 22.8881,2.76657 L 23.1363,2.95705 L 23.3135,3.21489 L 23.4024,3.51486
 L 23.3942,3.82764 L 23.2121,4.81032 L 23.1076,5.10524 L 22.9172,5.35345 L 22.6593,5.53067 L 22.3593,5.61952
 z
M -9.53157,7.82216 L -9.97357,7.58714 L -10.3213,7.22705 L -10.5408,6.77713 L -10.6104,6.2814 L -10.5235,5.78842
 L -10.2885,5.34644 L -9.92839,4.99869 L -9.47845,4.77925 L -8.98274,4.70958 L -8.48976,4.79651 L -8.04776,5.03151
 L -7.70003,5.39162 L -7.48058,5.84154 L -7.4109,6.33725 L -7.49783,6.83025 L -7.73285,7.27223 L -8.09294,7.61998
 L -8.54288,7.83942 L -9.03859,7.90909 z
M -21.5152,9.00728 L -21.7976,8.87259 L -22.0245,8.65721 L -22.1738,8.38226 L -22.5074,7.44017 L -22.5644,7.13254
 L -22.5236,6.82234 L -22.3889,6.53995 L -22.1735,6.313 L -21.8986,6.16371 L -19.9649,5.63269 L -19.6573,5.57568
 L -19.3471,5.61652 L -19.0647,5.75121 L -18.8378,5.96657 L -18.6885,6.24153 L -18.4516,6.91045 L -18.3946,7.21808
 L -18.4354,7.52827 L -18.5701,7.81065 L -18.7855,8.03761 L -19.0604,8.18689 L -20.8973,8.9911 L -21.205,9.04811
 z
M 7.10054,9.39726 L 6.73543,9.25711 L 6.4315,9.011 L 6.21849,8.68301 L 6.11728,8.30525 L 6.13774,7.9147
 L 6.27789,7.54959 L 6.52402,7.24565 L 6.85201,7.03265 L 7.22977,6.93143 L 7.62032,6.9519 L 7.98543,7.09206
 L 8.28935,7.33817 L 8.50237,7.66617 L 8.60358,8.04393 L 8.58311,8.43448 L 8.44296,8.79959 L 8.19684,9.10352
 L 7.86885,9.31651 L 7.49109,9.41774 z
M 19.843,11.1262 L 18.1003,10.1344 L 17.8424,9.9572 L 17.6519,9.70898 L 17.5475,9.41406 L 17.5393,9.10129
 L 17.6282,8.80132 L 17.9337,8.16081 L 18.1109,7.90297 L 18.3591,7.71251 L 18.654,7.60806 L 18.9668,7.59988
 L 19.2668,7.68874 L 21.1343,8.41898 L 21.3922,8.59619 L 21.5826,8.84441 L 21.6871,9.13933 L 21.6953,9.45209
 L 21.6064,9.75208 L 21.1761,10.6541 L 20.9989,10.912 L 20.7507,11.1024 L 20.4558,11.2069 L 20.143,11.2151
 z
M -3.78545,11.6504 L -4.13391,11.4729 L -4.41045,11.1964 L -4.588,10.8479 L -4.64919,10.4616 L -4.588,10.0753
 L -4.41045,9.72688 L -4.13391,9.45035 L -3.78545,9.2728 L -3.39919,9.21161 L -3.01291,9.2728 L -2.66444,9.45035
 L -2.38791,9.72688 L -2.21036,10.0753 L -2.14919,10.4616 L -2.21036,10.8479 L -2.38791,11.1964 L -2.66444,11.4729
 L -3.01291,11.6504 L -3.39919,11.7116 z
M -18.7584,14.2119 L -19.0334,14.0626 L -19.2487,13.8356 L -19.8148,13.012 L -19.9495,12.7296 L -19.9904,12.4194
 L -19.9333,12.1118 L -19.7841,11.8368 L -19.5571,11.6215 L -17.8268,10.6081 L -17.5444,10.4734 L -17.2342,10.4325
 L -16.9266,10.4895 L -16.6516,10.6388 L -16.4362,10.8658 L -16.0343,11.4506 L -15.8996,11.733 L -15.8588,12.0432
 L -15.9158,12.3508 L -16.0651,12.6258 L -16.292,12.8411 L -17.8582,14.0934 L -18.1406,14.2281 L -18.4508,14.2689
 z
M 16.554,16.0463 L 16.2872,15.8829 L 14.8605,14.4738 L 14.6573,14.2359 L 14.5376,13.9468 L 14.513,13.6349
 L 14.5861,13.3307 L 14.7496,13.0639 L 15.2104,12.5243 L 15.4483,12.3211 L 15.7374,12.2014 L 16.0493,12.1768
 L 16.3535,12.2499 L 16.6203,12.4134 L 18.2352,13.6021 L 18.4384,13.84 L 18.5581,14.129 L 18.5827,14.4409
 L 18.5096,14.7452 L 18.3461,15.0119 L 17.6971,15.7719 L 17.4592,15.9751 L 17.1701,16.0948 L 16.8582,16.1194
 z
M 8.85437,16.0317 L 8.58618,15.8706 L 8.38092,15.6345 L 7.4483,13.8589 L 7.32605,13.5709 L 7.29878,13.2592
 L 7.36917,12.9543 L 7.5303,12.6862 L 7.76643,12.4809 L 7.81319,12.4517 L 8.10118,12.3295 L 8.41286,12.3022
 L 8.71771,12.3726 L 8.98589,12.5337 L 9.19115,12.7698 L 10.3782,14.3864 L 10.5004,14.6744 L 10.5277,14.9861
 L 10.4573,15.291 L 10.2962,15.5591 L 10.0601,15.7644 L 9.7589,15.9526 L 9.4709,16.0748 L 9.15921,16.1021
 z
M -0.209045,37.989 L -2.09314,37.9397 L -3.97208,37.7918 L -5.84068,37.5458 L -7.69386,37.2023 L -8.10284,37.1154
 L -9.93552,36.6754 L -11.7426,36.1401 L -13.5193,35.511 L -15.2605,34.7897 L -15.6425,34.6197 L -17.3436,33.8083
 L -19,32.909 L -19.8202,32.4063 L -20.1585,32.1606 L -20.4382,31.8499 L -20.6473,31.4877 L -20.7765,31.0901
 L -20.8202,30.6743 L -20.7765,30.2585 L -20.6473,29.8608 L -20.4382,29.4987 L -16.0469,22.3414 L -15.7671,22.0307
 L -15.4288,21.7849 L -15.0469,21.6148 L -14.6379,21.5279 L -14.2198,21.5279 L -13.8108,21.6148 L -13.4288,21.7849
 L -12.8,22.1702 L -11.5301,22.8597 L -10.4147,23.3918 L -9.27292,23.8647 L -7.91083,24.347 L -6.52536,24.7574
 L -5.32368,25.0459 L -4.10852,25.2711 L -2.67592,25.4597 L -1.23541,25.5731 L 0,25.6055 L 1.23541,25.5731
 L 2.67592,25.4597 L 4.10852,25.2711 L 5.32367,25.0459 L 6.52536,24.7574 L 7.91083,24.347 L 9.27292,23.8647
 L 10.4147,23.3918 L 11.5301,22.8597 L 12.8,22.1702 L 14.032,21.4153 L 15.0505,20.7153 L 16.031,19.9629
 L 17.1297,19.0245 L 18.1779,18.0298 L 19.0286,17.1334 L 19.8312,16.1937 L 20.7108,15.0473 L 21.1286,14.4395
 L 21.4083,14.1288 L 21.7466,13.883 L 22.1286,13.713 L 22.5375,13.626 L 22.9556,13.626 L 23.3646,13.713
 L 23.7466,13.883 L 30.6695,18.6354 L 31.0077,18.8812 L 31.2875,19.1919 L 31.4966,19.554 L 31.6258,19.9517
 L 31.6695,20.3675 L 31.6258,20.7833 L 31.4966,21.181 L 31.2875,21.543 L 30.7426,22.3358 L 29.5953,23.8311
 L 28.3712,25.2643 L 28.0915,25.575 L 26.7941,26.9421 L 25.427,28.2395 L 23.9938,29.4635 L 22.4985,30.6109
 L 22.1603,30.8567 L 20.607,31.9242 L 19,32.909 L 17.3436,33.8083 L 15.6425,34.6197 L 15.2605,34.7897
 L 13.5193,35.511 L 11.7426,36.1401 L 9.93552,36.6754 L 8.10284,37.1154 L 7.69388,37.2023 L 5.84068,37.5458
 L 3.97208,37.7918 L 2.09314,37.9397 L 0.209045,37.989 z
M -14.7452,18.5096 L -15.0119,18.3461 L -15.7719,17.6971 L -15.9751,17.4592 L -16.0948,17.1701 L -16.1194,16.8582
 L -16.0463,16.554 L -15.8829,16.2872 L -14.4738,14.8605 L -14.2359,14.6573 L -13.9468,14.5376 L -13.6349,14.513
 L -13.3307,14.5861 L -13.0639,14.7496 L -12.5243,15.2104 L -12.3211,15.4483 L -12.2014,15.7374 L -12.1768,16.0493
 L -12.2499,16.3535 L -12.4134,16.6203 L -13.6021,18.2352 L -13.84,18.4384 L -14.129,18.5581 L -14.4409,18.5827
 z
M 12.1118,19.9333 L 11.8368,19.7841 L 11.6215,19.5571 L 10.6081,17.8268 L 10.4734,17.5444 L 10.4325,17.2342
 L 10.4895,16.9266 L 10.6388,16.6516 L 10.8658,16.4362 L 11.4506,16.0343 L 11.733,15.8996 L 12.0432,15.8588
 L 12.3508,15.9158 L 12.6258,16.0651 L 12.8411,16.292 L 14.0934,17.8582 L 14.2281,18.1406 L 14.2689,18.4508
 L 14.2119,18.7584 L 14.0626,19.0334 L 13.8356,19.2487 L 13.012,19.8148 L 12.7296,19.9495 L 12.4194,19.9904
 z
M -9.75208,21.6064 L -10.6541,21.1761 L -10.912,20.9989 L -11.1024,20.7507 L -11.2069,20.4558 L -11.2151,20.143
 L -11.1262,19.843 L -10.1344,18.1003 L -9.9572,17.8424 L -9.70898,17.6519 L -9.41406,17.5475 L -9.10129,17.5393
 L -8.80132,17.6282 L -8.16081,17.9337 L -7.90297,18.1109 L -7.71251,18.3591 L -7.60806,18.654 L -7.59988,18.9668
 L -7.68874,19.2668 L -8.41898,21.1343 L -8.59619,21.3922 L -8.84441,21.5826 L -9.13933,21.6871 L -9.45209,21.6953
 z
M 6.82234,22.5236 L 6.53995,22.3889 L 6.313,22.1735 L 6.16371,21.8986 L 5.63269,19.9649 L 5.57568,19.6573
 L 5.61652,19.3471 L 5.75121,19.0647 L 5.96657,18.8378 L 6.24153,18.6885 L 6.91045,18.4516 L 7.21808,18.3946
 L 7.52827,18.4354 L 7.81065,18.5701 L 8.03761,18.7855 L 8.18689,19.0604 L 8.9911,20.8973 L 9.04811,21.205
 L 9.00728,21.5152 L 8.87259,21.7976 L 8.65721,22.0245 L 8.38226,22.1738 L 7.44017,22.5074 L 7.13254,22.5644
 z
M -3.82764,23.3942 L -4.81032,23.2121 L -5.10524,23.1076 L -5.35345,22.9172 L -5.53067,22.6593 L -5.61952,22.3593
 L -5.61134,22.0466 L -5.10439,20.1065 L -4.99995,19.8116 L -4.80949,19.5633 L -4.55165,19.3861 L -4.25166,19.2973
 L -3.9389,19.3055 L -3.24117,19.4348 L -2.94624,19.5392 L -2.69803,19.7297 L -2.52081,19.9875 L -2.43195,20.2875
 L -2.44014,20.6003 L -2.66214,22.5932 L -2.76657,22.8881 L -2.95705,23.1363 L -3.21489,23.3135 L -3.51486,23.4024
 z
M 1.04939,23.6416 L 0.760345,23.5219 L 0.52243,23.3187 L 0.358963,23.0519 L 0.285919,22.7477 L 0.273468,20.7425
 L 0.298004,20.4306 L 0.41774,20.1415 L 0.620926,19.9036 L 0.887695,19.7401 L 1.19193,19.6671 L 1.89935,19.6114
 L 2.21126,19.636 L 2.50032,19.7557 L 2.73822,19.9589 L 2.90169,20.2257 L 2.97473,20.5299 L 3.27611,22.5123
 L 3.25156,22.8242 L 3.13182,23.1133 L 2.92863,23.3512 L 2.66187,23.5147 L 2.35765,23.5877 L 1.3613,23.6661
 z
" stroke="black" fill="lightgray" stroke-width="0.5"/>
</svg>
