<?xml version="1.0" standalone="no"?>
<!DOCTYPE svg PUBLIC "-//W3C//DTD SVG 1.1//EN" "http://www.w3.org/Graphics/SVG/1.1/DTD/svg11.dtd">
<svg width="80mm" height="80mm" viewBox="-40 -40 80 80" xmlns="http://www.w3.org/2000/svg" version="1.1">
<title>OpenSCAD Model</title>
<path d="
M 2.09343,39.9452 L 4.18114,39.7809 L 6.25737,39.5075 L 8.31647,39.1259 L 10.3528,38.637 L 12.3607,38.0423
 L 14.3347,37.3432 L 16.2695,36.5418 L 18.1596,35.6403 L 20,34.641 L 21.7856,33.5468 L 23.5114,32.3607
 L 25.1728,31.0858 L 26.7652,29.7258 L 28.2843,28.2843 L 29.7258,26.7652 L 31.0858,25.1728 L 32.3607,23.5114
 L 33.5468,21.7856 L 34.641,20 L 35.6403,18.1596 L 36.5418,16.2695 L 37.3432,14.3347 L 38.0423,12.3607
 L 38.637,10.3528 L 39.1259,8.31647 L 39.5075,6.25737 L 39.7809,4.18114 L 39.9452,2.09343 L 40,-0
 L 39.9452,-2.09343 L 39.7809,-4.18114 L 39.5075,-6.25737 L 39.1259,-8.31647 L 38.637,-10.3528 L 38.0423,-12.3607
 L 37.3432,-14.3347 L 36.5418,-16.2695 L 35.6403,-18.1596 L 34.641,-20 L 33.5468,-21.7856 L 32.3607,-23.5114
 L 31.0858,-25.1728 L 29.7258,-26.7652 L 28.2843,-28.2843 L 26.7652,-29.7258 L 25.1728,-31.0858 L 23.5114,-32.3607
 L 21.7856,-33.5468 L 20,-34.641 L 18.1596,-35.6403 L 16.2695,-36.5418 L 14.3347,-37.3432 L 12.3607,-38.0423
 L 10.3528,-38.637 L 8.31647,-39.1259 L 6.25737,-39.5075 L 4.18114,-39.7809 L 2.09343,-39.9452 L 0,-40
 L -2.09343,-39.9452 L -4.18114,-39.7809 L -6.25737,-39.5075 L -8.31647,-39.1259 L -10.3528,-38.637 L -12.3607,-38.0423
 L -14.3347,-37.3432 L -16.2695,-36.5418 L -18.1596,-35.6403 L -20,-34.641 L -21.7856,-33.5468 L -23.5114,-32.3607
 L -25.1728,-31.0858 L -26.7652,-29.7258 L -28.2843,-28.2843 L -29.7258,-26.7652 L -31.0858,-25.1728 L -32.3607,-23.5114
 L -33.5468,-21.7856 L -34.641,-20 L -35.6403,-18.1596 L -36.5418,-16.2695 L -37.3432,-14.3347 L -38.0423,-12.3607
 L -38.637,-10.3528 L -39.1259,-8.31647 L -39.5075,-6.25737 L -39.7809,-4.18114 L -39.9452,-2.09343 L -40,-0
 L -39.9452,2.09343 L -39.7809,4.18114 L -39.5075,6.25737 L -39.1259,8.31647 L -38.637,10.3528 L -38.0423,12.3607
 L -37.3432,14.3347 L -36.5418,16.2695 L -35.6403,18.1596 L -34.641,20 L -33.5468,21.7856 L -32.3607,23.5114
 L -31.0858,25.1728 L -29.7258,26.7652 L -28.2843,28.2843 L -26.7652,29.7258 L -25.1728,31.0858 L -23.5114,32.3607
 L -21.7856,33.5468 L -20,34.641 L -18.1596,35.6403 L -16.2695,36.5418 L -14.3347,37.3432 L -12.3607,38.0423
 L -10.3528,38.637 L -8.31647,39.1259 L -6.25737,39.5075 L -4.18114,39.7809 L -2.09343,39.9452 L 0,40
 z
M -0.386261,-21.4112 L -0.734726,-21.5887 L -1.01126,-21.8653 L -1.18881,-22.2137 L -1.25,-22.6 L -1.18881,-22.9863
 L -1.01126,-23.3347 L -0.734726,-23.6113 L -0.386261,-23.7888 L 0,-23.85 L 0.386261,-23.7888 L 0.734726,-23.6113
 L 1.01126,-23.3347 L 1.18881,-22.9863 L 1.25,-22.6 L 1.18881,-22.2137 L 1.01126,-21.8653 L 0.734726,-21.5887
 L 0.386261,-21.4112 L 0,-21.35 z
M 13.5137,-5.81117 L 13.1653,-5.98872 L 12.8887,-6.26526 L 12.7112,-6.61372 L 12.65,-7 L 12.7112,-7.38626
 L 12.8887,-7.73473 L 13.1653,-8.01126 L 13.5137,-8.18881 L 13.9,-8.25 L 14.2863,-8.18881 L 14.6347,-8.01126
 L 14.9113,-7.73473 L 15.0888,-7.38626 L 15.15,-7 L 15.0888,-6.61372 L 14.9113,-6.26526 L 14.6347,-5.98872
 L 14.2863,-5.81117 L 13.9,-5.75 z
M -14.2863,-5.81117 L -14.6347,-5.98872 L -14.9113,-6.26526 L -15.0888,-6.61372 L -15.15,-7 L -15.0888,-7.38626
 L -14.9113,-7.73473 L -14.6347,-8.01126 L -14.2863,-8.18881 L -13.9,-8.25 L -13.5137,-8.18881 L -13.1653,-8.01126
 L -12.8887,-7.73473 L -12.7112,-7.38626 L -12.65,-7 L -12.7112,-6.61372 L -12.8887,-6.26526 L -13.1653,-5.98872
 L -13.5137,-5.81117 L -13.9,-5.75 z
M -0.421295,8.03896 L -0.841446,8.00589 L -1.25929,7.95088 L -1.67368,7.87408 L -2.08348,7.7757 L -2.48758,7.65599
 L -2.88486,7.51532 L -3.27422,7.35403 L -3.65462,7.17259 L -4.02499,6.9715 L -4.38434,6.7513 L -4.73166,6.51257
 L -5.06602,6.25601 L -5.38649,5.98232 L -5.6922,5.6922 L -5.98232,5.38649 L -6.25601,5.06602 L -6.51257,4.73166
 L -6.7513,4.38434 L -6.9715,4.02499 L -7.17259,3.65462 L -7.35403,3.27422 L -7.51532,2.88486 L -7.65599,2.48758
 L -7.7757,2.08348 L -7.87408,1.67368 L -7.95088,1.25929 L -8.00589,0.841446 L -8.03896,0.421295 L -8.04999,-0
 L -8.03896,-0.421295 L -8.00589,-0.841446 L -7.95088,-1.25929 L -7.87408,-1.67368 L -7.7757,-2.08348 L -7.65599,-2.48758
 L -7.51532,-2.88486 L -7.35403,-3.27422 L -7.17259,-3.65462 L -6.9715,-4.02499 L -6.7513,-4.38434 L -6.51257,-4.73166
 L -6.25601,-5.06602 L -5.98232,-5.38649 L -5.6922,-5.6922 L -5.38649,-5.98232 L -5.06602,-6.25601 L -4.73166,-6.51257
 L -4.38434,-6.7513 L -4.02499,-6.9715 L -3.65462,-7.17259 L -3.27422,-7.35403 L -2.88486,-7.51532 L -2.48758,-7.65599
 L -2.08348,-7.7757 L -1.67368,-7.87408 L -1.25929,-7.95088 L -0.841446,-8.00589 L -0.421295,-8.03896 L 0,-8.04999
 L 0.421295,-8.03896 L 0.841446,-8.00589 L 1.25929,-7.95088 L 1.67368,-7.87408 L 2.08348,-7.7757 L 2.48758,-7.65599
 L 2.88486,-7.51532 L 3.27422,-7.35403 L 3.65462,-7.17259 L 4.02499,-6.9715 L 4.38434,-6.7513 L 4.73166,-6.51257
 L 5.06602,-6.25601 L 5.38649,-5.98232 L 5.6922,-5.6922 L 5.98232,-5.38649 L 6.25601,-5.06602 L 6.51257,-4.73166
 L 6.7513,-4.38434 L 6.9715,-4.02499 L 7.17259,-3.65462 L 7.35403,-3.27422 L 7.51532,-2.88486 L 7.65599,-2.48758
 L 7.7757,-2.08348 L 7.87408,-1.67368 L 7.95088,-1.25929 L 8.00589,-0.841446 L 8.03896,-0.421295 L 8.04999,-0
 L 8.03896,0.421295 L 8.00589,0.841446 L 7.95088,1.25929 L 7.87408,1.67368 L 7.7757,2.08348 L 7.65599,2.48758
 L 7.51532,2.88486 L 7.35403,3.27422 L 7.17259,3.65462 L 6.9715,4.02499 L 6.7513,4.38434 L 6.51257,4.73166
 L 6.25601,5.06602 L 5.98232,5.38649 L 5.6922,5.6922 L 5.38649,5.98232 L 5.06602,6.25601 L 4.73166,6.51257
 L 4.38434,6.7513 L 4.02499,6.9715 L 3.65462,7.17259 L 3.27422,7.35403 L 2.88486,7.51532 L 2.48758,7.65599
 L 2.08348,7.7757 L 1.67368,7.87408 L 1.25929,7.95088 L 0.841446,8.00589 L 0.421295,8.03896 L 0,8.04999
 z
" stroke="black" fill="lightgray" stroke-width="0.5"/>
</svg>
