<?xml version="1.0" standalone="no"?>
<!DOCTYPE svg PUBLIC "-//W3C//DTD SVG 1.1//EN" "http://www.w3.org/Graphics/SVG/1.1/DTD/svg11.dtd">
<svg width="80mm" height="80mm" viewBox="-40 -40 80 80" xmlns="http://www.w3.org/2000/svg" version="1.1">
<title>OpenSCAD Model</title>
<path d="
M 2.09343,39.9452 L 4.18114,39.7809 L 6.25737,39.5075 L 8.31647,39.1259 L 10.3528,38.637 L 12.3607,38.0423
 L 14.3347,37.3432 L 16.2695,36.5418 L 18.1596,35.6403 L 20,34.641 L 21.7856,33.5468 L 23.5114,32.3607
 L 25.1728,31.0858 L 26.7652,29.7258 L 28.2843,28.2843 L 29.7258,26.7652 L 31.0858,25.1728 L 32.3607,23.5114
 L 33.5468,21.7856 L 34.641,20 L 35.6403,18.1596 L 36.5418,16.2695 L 37.3432,14.3347 L 38.0423,12.3607
 L 38.637,10.3528 L 39.1259,8.31647 L 39.5075,6.25737 L 39.7809,4.18114 L 39.9452,2.09343 L 40,-0
 L 39.9452,-2.09343 L 39.7809,-4.18114 L 39.5075,-6.25737 L 39.1259,-8.31647 L 38.637,-10.3528 L 38.0423,-12.3607
 L 37.3432,-14.3347 L 36.5418,-16.2695 L 35.6403,-18.1596 L 34.641,-20 L 33.5468,-21.7856 L 32.3607,-23.5114
 L 31.0858,-25.1728 L 29.7258,-26.7652 L 28.2843,-28.2843 L 26.7652,-29.7258 L 25.1728,-31.0858 L 23.5114,-32.3607
 L 21.7856,-33.5468 L 20,-34.641 L 18.1596,-35.6403 L 16.2695,-36.5418 L 14.3347,-37.3432 L 12.3607,-38.0423
 L 10.3528,-38.637 L 8.31647,-39.1259 L 6.25737,-39.5075 L 4.18114,-39.7809 L 2.09343,-39.9452 L 0,-40
 L -2.09343,-39.9452 L -4.18114,-39.7809 L -6.25737,-39.5075 L -8.31647,-39.1259 L -10.3528,-38.637 L -12.3607,-38.0423
 L -14.3347,-37.3432 L -16.2695,-36.5418 L -18.1596,-35.6403 L -20,-34.641 L -21.7856,-33.5468 L -23.5114,-32.3607
 L -25.1728,-31.0858 L -26.7652,-29.7258 L -28.2843,-28.2843 L -29.7258,-26.7652 L -31.0858,-25.1728 L -32.3607,-23.5114
 L -33.5468,-21.7856 L -34.641,-20 L -35.6403,-18.1596 L -36.5418,-16.2695 L -37.3432,-14.3347 L -38.0423,-12.3607
 L -38.637,-10.3528 L -39.1259,-8.31647 L -39.5075,-6.25737 L -39.7809,-4.18114 L -39.9452,-2.09343 L -40,-0
 L -39.9452,2.09343 L -39.7809,4.18114 L -39.5075,6.25737 L -39.1259,8.31647 L -38.637,10.3528 L -38.0423,12.3607
 L -37.3432,14.3347 L -36.5418,16.2695 L -35.6403,18.1596 L -34.641,20 L -33.5468,21.7856 L -32.3607,23.5114
 L -31.0858,25.1728 L -29.7258,26.7652 L -28.2843,28.2843 L -26.7652,29.7258 L -25.1728,31.0858 L -23.5114,32.3607
 L -21.7856,33.5468 L -20,34.641 L -18.1596,35.6403 L -16.2695,36.5418 L -14.3347,37.3432 L -12.3607,38.0423
 L -10.3528,38.637 L -8.31647,39.1259 L -6.25737,39.5075 L -4.18114,39.7809 L -2.09343,39.9452 L 0,40
 z
M -19.212,-18.0141 L -19.621,-18.101 L -20.003,-18.2711 L -20.3412,-18.5168 L -26.1247,-24.6047 L -26.4045,-24.9155
 L -26.6136,-25.2776 L -26.7428,-25.6752 L -26.7865,-26.091 L -26.7428,-26.5069 L -26.6136,-26.9045 L -26.4045,-27.2666
 L -26.1247,-27.5773 L -25.427,-28.2395 L -23.9938,-29.4635 L -22.4985,-30.6109 L -22.1603,-30.8567 L -20.607,-31.9242
 L -19,-32.909 L -17.3437,-33.8083 L -15.6425,-34.6197 L -15.2605,-34.7897 L -13.5193,-35.511 L -11.7426,-36.1401
 L -9.93552,-36.6754 L -8.10284,-37.1154 L -7.69386,-37.2023 L -5.84068,-37.5458 L -3.97208,-37.7918 L -2.09314,-37.9397
 L -0.209045,-37.989 L 0.209045,-37.989 L 2.09314,-37.9397 L 3.97208,-37.7918 L 5.84068,-37.5458 L 7.69386,-37.2023
 L 8.10284,-37.1154 L 9.93552,-36.6754 L 11.7426,-36.1401 L 13.5193,-35.511 L 15.2605,-34.7897 L 15.6425,-34.6197
 L 17.3437,-33.8083 L 19,-32.909 L 20.607,-31.9242 L 22.1603,-30.8567 L 22.4985,-30.6109 L 23.9938,-29.4635
 L 25.427,-28.2395 L 26.1247,-27.5773 L 26.4045,-27.2666 L 26.6136,-26.9045 L 26.7428,-26.5069 L 26.7865,-26.091
 L 26.7428,-25.6752 L 26.6136,-25.2776 L 26.4045,-24.9155 L 26.1247,-24.6047 L 20.3412,-18.5168 L 20.003,-18.2711
 L 19.621,-18.101 L 19.212,-18.0141 L 18.7939,-18.0141 L 18.3849,-18.101 L 18.003,-18.2711 L 17.6647,-18.5168
 L 17.1297,-19.0245 L 16.031,-19.9629 L 15.0505,-20.7153 L 14.032,-21.4153 L 12.8,-22.1702 L 11.5301,-22.8597
 L 10.4147,-23.3918 L 9.27292,-23.8647 L 7.91083,-24.347 L 6.52536,-24.7574 L 5.32367,-25.0459 L 4.10852,-25.2711
 L 2.67592,-25.4597 L 1.23541,-25.5731 L 0,-25.6055 L -1.23541,-25.5731 L -2.67592,-25.4597 L -4.10852,-25.2711
 L -5.32367,-25.0459 L -6.52536,-24.7574 L -7.91083,-24.347 L -9.27292,-23.8647 L -10.4147,-23.3918 L -11.5301,-22.8597
 L -12.8,-22.1702 L -14.032,-21.4153 L -15.0505,-20.7153 L -16.031,-19.9629 L -17.1297,-19.0245 L -17.6647,-18.5168
 L -18.003,-18.2711 L -18.3849,-18.101 L -18.7939,-18.0141 z
M 2.21959,-19.5778 L 1.9196,-19.6666 L 1.66176,-19.8438 L 1.4713,-20.0921 L 1.36685,-20.387 L 1.35866,-20.6997
 L 1.47606,-22.7015 L 1.56491,-23.0015 L 1.74213,-23.2594 L 1.99034,-23.4498 L 2.28526,-23.5543 L 2.59802,-23.5625
 L 3.5889,-23.432 L 3.88889,-23.3432 L 4.14673,-23.1659 L 4.33719,-22.9177 L 4.44164,-22.6228 L 4.44981,-22.31
 L 4.0451,-20.3461 L 3.95625,-20.0461 L 3.77904,-19.7882 L 3.53082,-19.5978 L 3.2359,-19.4933 L 2.92314,-19.4851
 z
M -3.2359,-19.4933 L -3.53082,-19.5978 L -3.77904,-19.7882 L -3.95625,-20.0461 L -4.0451,-20.3461 L -4.44981,-22.31
 L -4.44164,-22.6228 L -4.33719,-22.9177 L -4.14673,-23.1659 L -3.88889,-23.3432 L -3.5889,-23.432 L -2.59802,-23.5625
 L -2.28526,-23.5543 L -1.99034,-23.4498 L -1.74213,-23.2594 L -1.56491,-23.0015 L -1.47606,-22.7015 L -1.35866,-20.6997
 L -1.36685,-20.387 L -1.4713,-20.0921 L -1.66176,-19.8438 L -1.9196,-19.6666 L -2.21959,-19.5778 L -2.92314,-19.4851
 z
M 7.86665,-18.0646 L 7.21106,-18.3362 L 6.94429,-18.4997 L 6.74109,-18.7376 L 6.62137,-19.0266 L 6.59682,-19.3385
 L 6.66986,-19.6428 L 7.30136,-21.546 L 7.46483,-21.8127 L 7.70273,-22.0159 L 7.99179,-22.1357 L 8.3037,-22.1602
 L 8.60791,-22.0872 L 9.53127,-21.7047 L 9.79803,-21.5412 L 10.0012,-21.3033 L 10.121,-21.0143 L 10.1455,-20.7024
 L 10.0725,-20.3981 L 9.17322,-18.6058 L 9.00975,-18.3391 L 8.77184,-18.1359 L 8.48279,-18.0161 L 8.17088,-17.9916
 z
M -8.48279,-18.0161 L -8.77184,-18.1359 L -9.00975,-18.3391 L -9.17322,-18.6058 L -10.0725,-20.3981 L -10.1455,-20.7024
 L -10.121,-21.0143 L -10.0012,-21.3033 L -9.79803,-21.5412 L -9.53127,-21.7047 L -8.60791,-22.0872 L -8.3037,-22.1602
 L -7.99179,-22.1357 L -7.70273,-22.0159 L -7.46483,-21.8127 L -7.30136,-21.546 L -6.66986,-19.6428 L -6.59682,-19.3385
 L -6.62137,-19.0266 L -6.74109,-18.7376 L -6.94429,-18.4997 L -7.21106,-18.3362 L -7.86665,-18.0646 L -8.17088,-17.9916
 z
M -13.1669,-15.2476 L -13.4492,-15.3823 L -13.6762,-15.5977 L -15.0087,-17.0961 L -15.158,-17.3711 L -15.215,-17.6787
 L -15.1741,-17.9889 L -15.0394,-18.2713 L -14.8241,-18.4983 L -14.0312,-19.1067 L -13.7562,-19.256 L -13.4486,-19.313
 L -13.1384,-19.2721 L -12.856,-19.1375 L -12.6291,-18.9221 L -11.5265,-17.2472 L -11.3772,-16.9722 L -11.3202,-16.6646
 L -11.361,-16.3544 L -11.4957,-16.072 L -11.7111,-15.845 L -12.2741,-15.4131 L -12.549,-15.2638 L -12.8567,-15.2068
 z
M 12.549,-15.2638 L 12.2741,-15.4131 L 11.7111,-15.845 L 11.4957,-16.072 L 11.361,-16.3544 L 11.3202,-16.6646
 L 11.3772,-16.9722 L 11.5265,-17.2472 L 12.6291,-18.9221 L 12.856,-19.1375 L 13.1384,-19.2721 L 13.4486,-19.313
 L 13.7562,-19.256 L 14.0312,-19.1067 L 14.8241,-18.4983 L 15.0394,-18.2713 L 15.1741,-17.9889 L 15.215,-17.6787
 L 15.158,-17.3711 L 15.0087,-17.0961 L 13.6762,-15.5977 L 13.4492,-15.3823 L 13.1669,-15.2476 L 12.8567,-15.2068
 z
M -5.67125,-13.7825 L -5.9548,-13.9147 L -6.18362,-14.1281 L -6.3353,-14.4017 L -7.16031,-16.2298 L -7.22,-16.5369
 L -7.18187,-16.8475 L -7.04965,-17.131 L -6.83627,-17.3598 L -6.56264,-17.5115 L -6.22891,-17.633 L -5.92178,-17.6927
 L -5.61125,-17.6545 L -5.3277,-17.5223 L -5.09888,-17.3089 L -4.94719,-17.0353 L -4.40411,-15.1046 L -4.34442,-14.7975
 L -4.38255,-14.487 L -4.51477,-14.2034 L -4.72815,-13.9746 L -5.00179,-13.8229 L -5.05359,-13.804 L -5.3607,-13.7444
 z
M -16.9722,-11.3772 L -17.2472,-11.5265 L -18.9221,-12.6291 L -19.1375,-12.856 L -19.2721,-13.1384 L -19.313,-13.4486
 L -19.256,-13.7562 L -19.1067,-14.0312 L -18.4983,-14.8241 L -18.2713,-15.0394 L -17.9889,-15.1741 L -17.6787,-15.215
 L -17.3711,-15.158 L -17.0961,-15.0087 L -15.5977,-13.6762 L -15.3823,-13.4492 L -15.2476,-13.1669 L -15.2068,-12.8567
 L -15.2638,-12.549 L -15.4131,-12.2741 L -15.845,-11.7111 L -16.072,-11.4957 L -16.3544,-11.361 L -16.6646,-11.3202
 z
M 16.3544,-11.361 L 16.072,-11.4957 L 15.845,-11.7111 L 15.4131,-12.2741 L 15.2638,-12.549 L 15.2068,-12.8567
 L 15.2476,-13.1669 L 15.3823,-13.4492 L 15.5977,-13.6762 L 17.0961,-15.0087 L 17.3711,-15.158 L 17.6787,-15.215
 L 17.9889,-15.1741 L 18.2713,-15.0394 L 18.4983,-14.8241 L 19.1067,-14.0312 L 19.256,-13.7562 L 19.313,-13.4486
 L 19.2721,-13.1384 L 19.1375,-12.856 L 18.9221,-12.6291 L 17.2472,-11.5265 L 16.9722,-11.3772 L 16.6646,-11.3202
 z
M -0.386261,-9.81117 L -0.734726,-9.98872 L -1.01126,-10.2653 L -1.18881,-10.6137 L -1.25,-11 L -1.18881,-11.3863
 L -1.01126,-11.7347 L -0.734726,-12.0113 L -0.386261,-12.1888 L 0,-12.25 L 0.386261,-12.1888 L 0.734726,-12.0113
 L 1.01126,-11.7347 L 1.18881,-11.3863 L 1.25,-11 L 1.18881,-10.6137 L 1.01126,-10.2653 L 0.734726,-9.98872
 L 0.386261,-9.81117 L 0,-9.75 z
M -19.6428,-6.66986 L -21.546,-7.30136 L -21.8127,-7.46483 L -22.0159,-7.70273 L -22.1357,-7.99179 L -22.1602,-8.3037
 L -22.0872,-8.60791 L -21.7047,-9.53127 L -21.5412,-9.79803 L -21.3033,-10.0012 L -21.0143,-10.121 L -20.7024,-10.1455
 L -20.3981,-10.0725 L -18.6058,-9.17322 L -18.3391,-9.00975 L -18.1359,-8.77184 L -18.0161,-8.48279 L -17.9916,-8.17088
 L -18.0646,-7.86665 L -18.3362,-7.21106 L -18.4997,-6.94429 L -18.7376,-6.74109 L -19.0266,-6.62137 L -19.3385,-6.59682
 z
M 19.0266,-6.62137 L 18.7376,-6.74109 L 18.4997,-6.94429 L 18.3362,-7.21106 L 18.0646,-7.86665 L 17.9916,-8.17088
 L 18.0161,-8.48279 L 18.1359,-8.77184 L 18.3391,-9.00975 L 18.6058,-9.17322 L 20.3981,-10.0725 L 20.7024,-10.1455
 L 21.0143,-10.121 L 21.3033,-10.0012 L 21.5412,-9.79803 L 21.7047,-9.53127 L 22.0872,-8.60791 L 22.1602,-8.3037
 L 22.1357,-7.99179 L 22.0159,-7.70273 L 21.8127,-7.46483 L 21.546,-7.30136 L 19.6428,-6.66986 L 19.3385,-6.59682
 z
M 7.52788,-6.19786 L 7.05179,-6.35255 L 6.64679,-6.64679 L 6.35255,-7.05179 L 6.19786,-7.52788 L 6.19786,-8.02846
 L 6.35255,-8.50455 L 6.64679,-8.90953 L 7.05179,-9.20378 L 7.52788,-9.35847 L 8.02846,-9.35847 L 8.50455,-9.20378
 L 8.90953,-8.90953 L 9.20378,-8.50455 L 9.35847,-8.02846 L 9.35847,-7.52788 L 9.20378,-7.05179 L 8.90953,-6.64679
 L 8.50455,-6.35255 L 8.02846,-6.19786 z
M -0.421295,8.03896 L -0.841446,8.00589 L -1.25929,7.95088 L -1.67368,7.87408 L -2.08348,7.7757 L -2.48758,7.65599
 L -2.88486,7.51532 L -3.27422,7.35403 L -3.65462,7.17259 L -4.02499,6.9715 L -4.38434,6.7513 L -4.73166,6.51257
 L -5.06602,6.25601 L -5.38649,5.98232 L -5.6922,5.6922 L -5.98232,5.38649 L -6.25601,5.06602 L -6.51257,4.73166
 L -6.7513,4.38434 L -6.9715,4.02499 L -7.17259,3.65462 L -7.35403,3.27422 L -7.51532,2.88486 L -7.65599,2.48758
 L -7.7757,2.08348 L -7.87408,1.67368 L -7.95088,1.25929 L -8.00589,0.841446 L -8.03896,0.421295 L -8.04999,-0
 L -8.03896,-0.421295 L -8.00589,-0.841446 L -7.95088,-1.25929 L -7.87408,-1.67368 L -7.7757,-2.08348 L -7.65599,-2.48758
 L -7.51532,-2.88486 L -7.35403,-3.27422 L -7.17259,-3.65462 L -6.9715,-4.02499 L -6.7513,-4.38434 L -6.51257,-4.73166
 L -6.25601,-5.06602 L -5.98232,-5.38649 L -5.6922,-5.6922 L -5.38649,-5.98232 L -5.06602,-6.25601 L -4.73166,-6.51257
 L -4.38434,-6.7513 L -4.02499,-6.9715 L -3.65462,-7.17259 L -3.27422,-7.35403 L -2.88486,-7.51532 L -2.48758,-7.65599
 L -2.08348,-7.7757 L -1.67368,-7.87408 L -1.25929,-7.95088 L -0.841446,-8.00589 L -0.421295,-8.03896 L 0,-8.04999
 L 0.421295,-8.03896 L 0.841446,-8.00589 L 1.25929,-7.95088 L 1.67368,-7.87408 L 2.08348,-7.7757 L 2.48758,-7.65599
 L 2.88486,-7.51532 L 3.27422,-7.35403 L 3.65462,-7.17259 L 4.02499,-6.9715 L 4.38434,-6.7513 L 4.73166,-6.51257
 L 5.06602,-6.25601 L 5.38649,-5.98232 L 5.6922,-5.6922 L 5.98232,-5.38649 L 6.25601,-5.06602 L 6.51257,-4.73166
 L 6.7513,-4.38434 L 6.9715,-4.02499 L 7.17259,-3.65462 L 7.35403,-3.27422 L 7.51532,-2.88486 L 7.65599,-2.48758
 L 7.7757,-2.08348 L 7.87408,-1.67368 L 7.95088,-1.25929 L 8.00589,-0.841446 L 8.03896,-0.421295 L 8.04999,-0
 L 8.03896,0.421295 L 8.00589,0.841446 L 7.95088,1.25929 L 7.87408,1.67368 L 7.7757,2.08348 L 7.65599,2.48758
 L 7.51532,2.88486 L 7.35403,3.27422 L 7.17259,3.65462 L 6.9715,4.02499 L 6.7513,4.38434 L 6.51257,4.73166
 L 6.25601,5.06602 L 5.98232,5.38649 L 5.6922,5.6922 L 5.38649,5.98232 L 5.06602,6.25601 L 4.73166,6.51257
 L 4.38434,6.7513 L 4.02499,6.9715 L 3.65462,7.17259 L 3.27422,7.35403 L 2.88486,7.51532 L 2.48758,7.65599
 L 2.08348,7.7757 L 1.67368,7.87408 L 1.25929,7.95088 L 0.841446,8.00589 L 0.421295,8.03896 L 0,8.04999
 z
M -22.7015,-1.47606 L -23.0015,-1.56491 L -23.2594,-1.74213 L -23.4498,-1.99034 L -23.5543,-2.28526 L -23.5625,-2.59802
 L -23.432,-3.5889 L -23.3432,-3.88889 L -23.1659,-4.14673 L -22.9177,-4.33719 L -22.6228,-4.44164 L -22.31,-4.44981
 L -20.3461,-4.0451 L -20.0461,-3.95625 L -19.7882,-3.77904 L -19.5978,-3.53082 L -19.4933,-3.2359 L -19.4851,-2.92314
 L -19.5778,-2.21959 L -19.6666,-1.9196 L -19.8438,-1.66176 L -20.0921,-1.4713 L -20.387,-1.36685 L -20.6997,-1.35866
 z
M 20.387,-1.36685 L 20.0921,-1.4713 L 19.8438,-1.66176 L 19.6666,-1.9196 L 19.5778,-2.21959 L 19.4851,-2.92314
 L 19.4933,-3.2359 L 19.5978,-3.53082 L 19.7882,-3.77904 L 20.0461,-3.95625 L 20.3461,-4.0451 L 22.31,-4.44981
 L 22.6228,-4.44164 L 22.9177,-4.33719 L 23.1659,-4.14673 L 23.3432,-3.88889 L 23.432,-3.5889 L 23.5625,-2.59802
 L 23.5543,-2.28526 L 23.4498,-1.99034 L 23.2594,-1.74213 L 23.0015,-1.56491 L 22.7015,-1.47606 L 20.6997,-1.35866
 z
M 10.6137,1.18881 L 10.2653,1.01126 L 9.98872,0.734726 L 9.81117,0.386261 L 9.75,-0 L 9.81117,-0.386261
 L 9.98872,-0.734726 L 10.2653,-1.01126 L 10.6137,-1.18881 L 11,-1.25 L 11.3863,-1.18881 L 11.7347,-1.01126
 L 12.0113,-0.734726 L 12.1888,-0.386261 L 12.25,-0 L 12.1888,0.386261 L 12.0113,0.734726 L 11.7347,1.01126
 L 11.3863,1.18881 L 11,1.25 z
M -11.3863,1.18881 L -11.7347,1.01126 L -12.0113,0.734726 L -12.1888,0.386261 L -12.25,-0 L -12.1888,-0.386261
 L -12.0113,-0.734726 L -11.7347,-1.01126 L -11.3863,-1.18881 L -11,-1.25 L -10.6137,-1.18881 L -10.2653,-1.01126
 L -9.98872,-0.734726 L -9.81117,-0.386261 L -9.75,-0 L -9.81117,0.386261 L -9.98872,0.734726 L -10.2653,1.01126
 L -10.6137,1.18881 L -11,1.25 z
M -22.6228,4.44164 L -22.9177,4.33719 L -23.1659,4.14673 L -23.3432,3.88889 L -23.432,3.5889 L -23.5625,2.59802
 L -23.5543,2.28526 L -23.4498,1.99034 L -23.2594,1.74213 L -23.0015,1.56491 L -22.7015,1.47606 L -20.6997,1.35866
 L -20.387,1.36685 L -20.0921,1.4713 L -19.8438,1.66176 L -19.6666,1.9196 L -19.5778,2.21959 L -19.4851,2.92314
 L -19.4933,3.2359 L -19.5978,3.53082 L -19.7882,3.77904 L -20.0461,3.95625 L -20.3461,4.0451 L -22.31,4.44981
 z
M 20.3461,4.0451 L 20.0461,3.95625 L 19.7882,3.77904 L 19.5978,3.53082 L 19.4933,3.2359 L 19.4851,2.92314
 L 19.5778,2.21959 L 19.6666,1.9196 L 19.8438,1.66176 L 20.0921,1.4713 L 20.387,1.36685 L 20.6997,1.35866
 L 22.7015,1.47606 L 23.0015,1.56491 L 23.2594,1.74213 L 23.4498,1.99034 L 23.5543,2.28526 L 23.5625,2.59802
 L 23.432,3.5889 L 23.3432,3.88889 L 23.1659,4.14673 L 22.9177,4.33719 L 22.6228,4.44164 L 22.31,4.44981
 z
M -8.02846,9.35847 L -8.50455,9.20378 L -8.90953,8.90953 L -9.20378,8.50455 L -9.35847,8.02846 L -9.35847,7.52788
 L -9.20378,7.05179 L -8.90953,6.64679 L -8.50455,6.35255 L -8.02846,6.19786 L -7.52788,6.19786 L -7.05179,6.35255
 L -6.64679,6.64679 L -6.35255,7.05179 L -6.19786,7.52788 L -6.19786,8.02846 L -6.35255,8.50455 L -6.64679,8.90953
 L -7.05179,9.20378 L -7.52788,9.35847 z
M -21.0143,10.121 L -21.3033,10.0012 L -21.5412,9.79803 L -21.7047,9.53127 L -22.0872,8.60791 L -22.1602,8.3037
 L -22.1357,7.99179 L -22.0159,7.70273 L -21.8127,7.46483 L -21.546,7.30136 L -19.6428,6.66986 L -19.3385,6.59682
 L -19.0266,6.62137 L -18.7376,6.74109 L -18.4997,6.94429 L -18.3362,7.21106 L -18.0646,7.86665 L -17.9916,8.17088
 L -18.0161,8.48279 L -18.1359,8.77184 L -18.3391,9.00975 L -18.6058,9.17322 L -20.3981,10.0725 L -20.7024,10.1455
 z
M 20.3981,10.0725 L 18.6058,9.17322 L 18.3391,9.00975 L 18.1359,8.77184 L 18.0161,8.48279 L 17.9916,8.17088
 L 18.0646,7.86665 L 18.3362,7.21106 L 18.4997,6.94429 L 18.7376,6.74109 L 19.0266,6.62137 L 19.3385,6.59682
 L 19.6428,6.66986 L 21.546,7.30136 L 21.8127,7.46483 L 22.0159,7.70273 L 22.1357,7.99179 L 22.1602,8.3037
 L 22.0872,8.60791 L 21.7047,9.53127 L 21.5412,9.79803 L 21.3033,10.0012 L 21.0143,10.121 L 20.7024,10.1455
 z
M -0.386261,12.1888 L -0.734726,12.0113 L -1.01126,11.7347 L -1.18881,11.3863 L -1.25,11 L -1.18881,10.6137
 L -1.01126,10.2653 L -0.734726,9.98872 L -0.386261,9.81117 L 0,9.75 L 0.386261,9.81117 L 0.734726,9.98872
 L 1.01126,10.2653 L 1.18881,10.6137 L 1.25,11 L 1.18881,11.3863 L 1.01126,11.7347 L 0.734726,12.0113
 L 0.386261,12.1888 L 0,12.25 z
M 17.3711,15.158 L 17.0961,15.0087 L 15.5977,13.6762 L 15.3823,13.4492 L 15.2476,13.1669 L 15.2068,12.8567
 L 15.2638,12.549 L 15.4131,12.2741 L 15.845,11.7111 L 16.072,11.4957 L 16.3544,11.361 L 16.6646,11.3202
 L 16.9722,11.3772 L 17.2472,11.5265 L 18.9221,12.6291 L 19.1375,12.856 L 19.2721,13.1384 L 19.313,13.4486
 L 19.256,13.7562 L 19.1067,14.0312 L 18.4983,14.8241 L 18.2713,15.0394 L 17.9889,15.1741 L 17.6787,15.215
 z
M -17.9889,15.1741 L -18.2713,15.0394 L -18.4983,14.8241 L -19.1067,14.0312 L -19.256,13.7562 L -19.313,13.4486
 L -19.2721,13.1384 L -19.1375,12.856 L -18.9221,12.6291 L -17.2472,11.5265 L -16.9722,11.3772 L -16.6646,11.3202
 L -16.3544,11.361 L -16.072,11.4957 L -15.845,11.7111 L -15.4131,12.2741 L -15.2638,12.549 L -15.2068,12.8567
 L -15.2476,13.1669 L -15.3823,13.4492 L -15.5977,13.6762 L -17.0961,15.0087 L -17.3711,15.158 L -17.6787,15.215
 z
M 5.61125,17.6545 L 5.3277,17.5223 L 5.09888,17.3089 L 4.94719,17.0353 L 4.40411,15.1046 L 4.34442,14.7975
 L 4.38255,14.487 L 4.51477,14.2034 L 4.72815,13.9746 L 5.00179,13.8229 L 5.05359,13.804 L 5.3607,13.7444
 L 5.67125,13.7825 L 5.9548,13.9147 L 6.18362,14.1281 L 6.3353,14.4017 L 7.16031,16.2298 L 7.22,16.5369
 L 7.18187,16.8475 L 7.04965,17.131 L 6.83627,17.3598 L 6.56264,17.5115 L 6.22891,17.633 L 5.92178,17.6927
 z
M 13.1384,19.2721 L 12.856,19.1375 L 12.6291,18.9221 L 11.5265,17.2472 L 11.3772,16.9722 L 11.3202,16.6646
 L 11.361,16.3544 L 11.4957,16.072 L 11.7111,15.845 L 12.2741,15.4131 L 12.549,15.2638 L 12.8567,15.2068
 L 13.1669,15.2476 L 13.4492,15.3823 L 13.6762,15.5977 L 15.0087,17.0961 L 15.158,17.3711 L 15.215,17.6787
 L 15.1741,17.9889 L 15.0394,18.2713 L 14.8241,18.4983 L 14.0312,19.1067 L 13.7562,19.256 L 13.4486,19.313
 z
M -13.7562,19.256 L -14.0312,19.1067 L -14.8241,18.4983 L -15.0394,18.2713 L -15.1741,17.9889 L -15.215,17.6787
 L -15.158,17.3711 L -15.0087,17.0961 L -13.6762,15.5977 L -13.4492,15.3823 L -13.1669,15.2476 L -12.8567,15.2068
 L -12.549,15.2638 L -12.2741,15.4131 L -11.7111,15.845 L -11.4957,16.072 L -11.361,16.3544 L -11.3202,16.6646
 L -11.3772,16.9722 L -11.5265,17.2472 L -12.6291,18.9221 L -12.856,19.1375 L -13.1384,19.2721 L -13.4486,19.313
 z
M 7.99179,22.1357 L 7.70273,22.0159 L 7.46483,21.8127 L 7.30136,21.546 L 6.66986,19.6428 L 6.59682,19.3385
 L 6.62137,19.0266 L 6.74109,18.7376 L 6.94429,18.4997 L 7.21106,18.3362 L 7.86665,18.0646 L 8.17088,17.9916
 L 8.48279,18.0161 L 8.77184,18.1359 L 9.00975,18.3391 L 9.17322,18.6058 L 10.0725,20.3981 L 10.1455,20.7024
 L 10.121,21.0143 L 10.0012,21.3033 L 9.79803,21.5412 L 9.53127,21.7047 L 8.60791,22.0872 L 8.3037,22.1602
 z
M -8.60791,22.0872 L -9.53127,21.7047 L -9.79803,21.5412 L -10.0012,21.3033 L -10.121,21.0143 L -10.1455,20.7024
 L -10.0725,20.3981 L -9.17322,18.6058 L -9.00975,18.3391 L -8.77184,18.1359 L -8.48279,18.0161 L -8.17088,17.9916
 L -7.86665,18.0646 L -7.21106,18.3362 L -6.94429,18.4997 L -6.74109,18.7376 L -6.62137,19.0266 L -6.59682,19.3385
 L -6.66986,19.6428 L -7.30136,21.546 L -7.46483,21.8127 L -7.70273,22.0159 L -7.99179,22.1357 L -8.3037,22.1602
 z
M -0.209045,37.989 L -2.09314,37.9397 L -3.97208,37.7918 L -5.84068,37.5458 L -7.69386,37.2023 L -8.10284,37.1154
 L -9.93552,36.6754 L -11.7426,36.1401 L -13.5193,35.511 L -15.2605,34.7897 L -15.6425,34.6197 L -17.3437,33.8083
 L -19,32.909 L -20.607,31.9242 L -22.1603,30.8567 L -22.4985,30.6109 L -23.9938,29.4635 L -25.427,28.2395
 L -26.1247,27.5773 L -26.4045,27.2666 L -26.6136,26.9045 L -26.7428,26.5069 L -26.7865,26.091 L -26.7428,25.6752
 L -26.6136,25.2776 L -26.4045,24.9155 L -26.1247,24.6047 L -20.3412,18.5168 L -20.003,18.2711 L -19.621,18.101
 L -19.212,18.0141 L -18.7939,18.0141 L -18.3849,18.101 L -18.003,18.2711 L -17.6647,18.5168 L -17.1297,19.0245
 L -16.031,19.9629 L -15.0505,20.7153 L -14.032,21.4153 L -12.8,22.1702 L -11.5301,22.8597 L -10.4147,23.3918
 L -9.27292,23.8647 L -7.91083,24.347 L -6.52536,24.7574 L -5.32367,25.0459 L -4.10852,25.2711 L -2.67592,25.4597
 L -1.23541,25.5731 L 0,25.6055 L 1.23541,25.5731 L 2.67592,25.4597 L 4.10852,25.2711 L 5.32367,25.0459
 L 6.52536,24.7574 L 7.91083,24.347 L 9.27292,23.8647 L 10.4147,23.3918 L 11.5301,22.8597 L 12.8,22.1702
 L 14.032,21.4153 L 15.0505,20.7153 L 16.031,19.9629 L 17.1297,19.0245 L 17.6647,18.5168 L 18.003,18.2711
 L 18.3849,18.101 L 18.7939,18.0141 L 19.212,18.0141 L 19.621,18.101 L 20.003,18.2711 L 20.3412,18.5168
 L 26.1247,24.6047 L 26.4045,24.9155 L 26.6136,25.2776 L 26.7428,25.6752 L 26.7865,26.091 L 26.7428,26.5069
 L 26.6136,26.9045 L 26.4045,27.2666 L 26.1247,27.5773 L 25.427,28.2395 L 23.9938,29.4635 L 22.4985,30.6109
 L 22.1603,30.8567 L 20.607,31.9242 L 19,32.909 L 17.3437,33.8083 L 15.6425,34.6197 L 15.2605,34.7897
 L 13.5193,35.511 L 11.7426,36.1401 L 9.93552,36.6754 L 8.10284,37.1154 L 7.69386,37.2023 L 5.84068,37.5458
 L 3.97208,37.7918 L 2.09314,37.9397 L 0.209045,37.989 z
M -3.5889,23.432 L -3.88889,23.3432 L -4.14673,23.1659 L -4.33719,22.9177 L -4.44164,22.6228 L -4.44981,22.31
 L -4.0451,20.3461 L -3.95625,20.0461 L -3.77904,19.7882 L -3.53082,19.5978 L -3.2359,19.4933 L -2.92314,19.4851
 L -2.21959,19.5778 L -1.9196,19.6666 L -1.66176,19.8438 L -1.4713,20.0921 L -1.36685,20.387 L -1.35866,20.6997
 L -1.47606,22.7015 L -1.56491,23.0015 L -1.74213,23.2594 L -1.99034,23.4498 L -2.28526,23.5543 L -2.59802,23.5625
 z
M 2.28526,23.5543 L 1.99034,23.4498 L 1.74213,23.2594 L 1.56491,23.0015 L 1.47606,22.7015 L 1.35866,20.6997
 L 1.36685,20.387 L 1.4713,20.0921 L 1.66176,19.8438 L 1.9196,19.6666 L 2.21959,19.5778 L 2.92314,19.4851
 L 3.2359,19.4933 L 3.53082,19.5978 L 3.77904,19.7882 L 3.95625,20.0461 L 4.0451,20.3461 L 4.44981,22.31
 L 4.44164,22.6228 L 4.33719,22.9177 L 4.14673,23.1659 L 3.88889,23.3432 L 3.5889,23.432 L 2.59802,23.5625
 z
" stroke="black" fill="lightgray" stroke-width="0.5"/>
</svg>
