<?xml version="1.0" encoding="UTF-8" standalone="no"?>
<svg
   width="85mm"
   height="85mm"
   viewBox="-40 -40 85 85"
   version="1.1"
   id="svg6"
   sodipodi:docname="888_4045_stator.svg"
   inkscape:version="1.1 (ce6663b3b7, 2021-05-25)"
   xmlns:inkscape="http://www.inkscape.org/namespaces/inkscape"
   xmlns:sodipodi="http://sodipodi.sourceforge.net/DTD/sodipodi-0.dtd"
   xmlns="http://www.w3.org/2000/svg"
   xmlns:svg="http://www.w3.org/2000/svg"
   xmlns:rdf="http://www.w3.org/1999/02/22-rdf-syntax-ns#"
   xmlns:cc="http://creativecommons.org/ns#"
   xmlns:dc="http://purl.org/dc/elements/1.1/">
  <defs
     id="defs10" />
  <sodipodi:namedview
     id="namedview8"
     pagecolor="#ffffff"
     bordercolor="#666666"
     borderopacity="1.0"
     inkscape:pageshadow="2"
     inkscape:pageopacity="0.0"
     inkscape:pagecheckerboard="0"
     inkscape:document-units="mm"
     showgrid="false"
     inkscape:zoom="1.3956771"
     inkscape:cx="214.59118"
     inkscape:cy="182.34877"
     inkscape:window-width="1870"
     inkscape:window-height="1016"
     inkscape:window-x="50"
     inkscape:window-y="27"
     inkscape:window-maximized="1"
     inkscape:current-layer="svg6" />
  <title
     id="title2">OpenSCAD Model</title>
  <path
     d="m 4.59344,42.4452 2.0877,-0.1643 2.07624,-0.2734 2.05909,-0.3816 2.03633,-0.4889 2.0079,-0.5947 1.974,-0.6991 1.9348,-0.8014 1.8901,-0.9015 1.8404,-0.9993 1.7856,-1.0942 1.7258,-1.1861 1.6614,-1.2749 1.5924,-1.36 1.5191,-1.4415 1.4415,-1.5191 1.36,-1.5924 1.2749,-1.6614 1.1861,-1.7258 1.0942,-1.7856 0.9993,-1.8404 0.9015,-1.8901 0.8014,-1.9348 0.6991,-1.974 0.5947,-2.0079 0.4889,-2.03633 0.3816,-2.05909 0.2734,-2.07624 0.1643,-2.0877 L 42.5,2.5 42.4452,0.40656 42.2809,-1.68114 42.0075,-3.75738 41.6259,-5.81647 41.137,-7.8528 l -0.5947,-2.0079 -0.6991,-1.974 -0.8014,-1.9348 -0.9015,-1.8901 -0.9993,-1.8404 -1.0942,-1.7856 -1.1861,-1.7258 -1.2749,-1.6614 -1.36,-1.5924 -1.4415,-1.5191 -1.5191,-1.4415 -1.5924,-1.36 -1.6614,-1.2749 -1.7258,-1.1861 -1.7856,-1.0942 -1.8404,-0.9993 -1.8901,-0.9015 -1.9348,-0.8014 -1.974,-0.6991 -2.0079,-0.5947 -2.03633,-0.4889 -2.05909,-0.3816 -2.07624,-0.2734 -2.0877,-0.1643 L 2.5,-37.5 l -2.09344,0.0548 -2.0877,0.1643 -2.07624,0.2734 -2.05909,0.3816 -2.03633,0.4889 -2.0079,0.5947 -1.974,0.6991 -1.9348,0.8014 -1.8901,0.9015 -1.8404,0.9993 -1.7856,1.0942 -1.7258,1.1861 -1.6614,1.2749 -1.5924,1.36 -1.5191,1.4415 -1.4415,1.5191 -1.36,1.5924 -1.2749,1.6614 -1.1861,1.7258 -1.0942,1.7856 -0.9993,1.8404 -0.9015,1.8901 -0.8014,1.9348 -0.6991,1.974 -0.5947,2.0079 -0.4889,2.03633 -0.3816,2.05909 -0.2734,2.07624 -0.1643,2.0877 L -37.5,2.5 l 0.0548,2.09344 0.1643,2.0877 0.2734,2.07624 0.3816,2.05909 0.4889,2.03633 0.5947,2.0079 0.6991,1.974 0.8014,1.9348 0.9015,1.8901 0.9993,1.8404 1.0942,1.7856 1.1861,1.7258 1.2749,1.6614 1.36,1.5924 1.4415,1.5191 1.5191,1.4415 1.5924,1.36 1.6614,1.2749 1.7258,1.1861 1.7856,1.0942 1.8404,0.9993 1.8901,0.9015 1.9348,0.8014 1.974,0.6991 2.0079,0.5947 2.03633,0.4889 2.05909,0.3816 2.07624,0.2734 2.0877,0.1643 L 2.5,42.5 Z m -9.47971,-52.6564 -0.34846,-0.1775 -0.27654,-0.2766 -0.17755,-0.3484 L -5.75,-11.4 l 0.06118,-0.3863 0.17755,-0.3484 0.27654,-0.2766 0.34846,-0.1775 0.38627,-0.0612 0.38627,0.0612 0.34846,0.1775 0.27654,0.2766 0.17755,0.3484 0.06118,0.3863 -0.06118,0.3863 -0.17755,0.3484 -0.27654,0.2766 -0.34846,0.1775 L -4.5,-10.15 Z M 2.078696,10.53897 1.658546,10.5059 1.2407,10.45089 0.82631,10.37409 0.41651,10.2757 0.01241,10.156 -0.38486,10.01532 -0.77423,9.85404 -1.15462,9.6726 -1.525,9.4715 -1.88434,9.2513 -2.23167,9.01259 -2.56603,8.75602 -2.8865,8.48232 -3.19221,8.19221 -3.48232,7.8865 -3.75602,7.56603 -4.01259,7.23167 -4.2513,6.88434 -4.4715,6.525 -4.6726,6.15462 -4.85404,5.77423 -5.01532,5.38486 -5.156,4.98759 -5.2757,4.58349 -5.37409,4.17369 -5.45089,3.7593 -5.5059,3.341454 -5.51113,3.275 H -8.9 V 3.5 L -8.9514,3.82447 -9.1005,4.11717 -9.3328,4.34947 -9.6255,4.49861 -9.95,4.55 -10.2745,4.49861 -10.5672,4.34947 -10.7995,4.11717 -10.9486,3.82447 -11,3.5 v -2 l 0.0514,-0.32447 0.1491,-0.2927 0.2323,-0.2323 0.2927,-0.14914 L -9.95,0.45 l 0.3245,0.05139 0.2927,0.14914 0.2323,0.2323 0.1491,0.2927 L -8.9,1.5 v 0.225 h 3.38887 L -5.5059,1.658546 -5.45089,1.2407 l 0.0768,-0.41439 0.09839,-0.4098 0.1197,-0.4041 0.14068,-0.39727 0.16128,-0.38937 0.18144,-0.38039 0.2011,-0.37038 0.2202,-0.35934 0.23871,-0.34733 0.25657,-0.33436 0.2737,-0.32047 0.29011,-0.30571 0.30571,-0.29011 0.32047,-0.2737 0.33436,-0.25657 0.34733,-0.23871 0.35934,-0.2202 0.37038,-0.2011 0.38039,-0.18144 0.38937,-0.16128 L 0.01241,-5.156 0.41651,-5.2757 0.82631,-5.37409 1.2407,-5.45089 1.658546,-5.5059 2.078696,-5.53897 2.5,-5.55 l 0.421304,0.01103 0.42015,0.03307 0.417846,0.05501 0.41439,0.0768 0.4098,0.09839 0.4041,0.1197 0.39727,0.14068 0.38937,0.16128 0.38039,0.18144 0.37038,0.2011 0.35934,0.2202 0.34733,0.23871 0.33436,0.25657 0.32047,0.2737 0.30571,0.29011 0.29011,0.30571 0.2737,0.32047 0.25657,0.33436 0.23871,0.34733 0.2202,0.35934 0.2011,0.37038 0.18144,0.38039 0.16128,0.38937 0.14068,0.39727 0.1197,0.4041 0.09839,0.4098 0.0768,0.41439 0.05501,0.417846 0.03307,0.42015 L 10.55,2.5 10.53897,2.921304 10.5059,3.341454 10.45089,3.7593 10.37409,4.17369 10.2757,4.58349 10.156,4.98759 10.01532,5.38486 9.85404,5.77423 9.6726,6.15462 9.4715,6.525 9.2513,6.88434 9.01259,7.23167 8.75602,7.56603 8.48232,7.8865 8.19221,8.19221 7.8865,8.48232 7.56603,8.75602 7.23167,9.01259 6.88434,9.2513 6.525,9.4715 6.15462,9.6726 5.77423,9.85404 5.38486,10.01532 4.98759,10.156 4.58349,10.2757 4.17369,10.37409 3.7593,10.45089 3.341454,10.5059 2.921304,10.53897 2.5,10.55 Z M -20.4863,3.68882 -20.8347,3.51127 -21.1113,3.234731 -21.2888,2.886271 -21.35,2.5 -21.2888,2.113729 -21.1113,1.765269 -20.8347,1.48873 -20.4863,1.31118 -20.1,1.25 l 0.3863,0.06118 0.3484,0.17755 0.2766,0.276539 0.1775,0.34846 L -18.85,2.5 -18.9112,2.886271 -19.0887,3.234731 -19.3653,3.51127 -19.7137,3.68882 -20.1,3.75 Z M -4.88627,17.5888 -5.23473,17.4113 -5.51127,17.1347 -5.68882,16.7863 -5.75,16.4 -5.68882,16.0137 -5.51127,15.6653 -5.23473,15.3887 -4.88627,15.2112 -4.5,15.15 l 0.38627,0.0612 0.34846,0.1775 0.27654,0.2766 0.17755,0.3484 L -3.25,16.4 -3.31118,16.7863 -3.48873,17.1347 -3.76527,17.4113 -4.11373,17.5888 -4.5,17.65 Z"
     stroke="#000000"
     fill="#d3d3d3"
     stroke-width="0.5"
     id="path4"
     style="stroke-width:0.05;stroke-miterlimit:4;stroke-dasharray:none" />
  <metadata
     id="metadata827">
    <rdf:RDF>
      <cc:Work
         rdf:about="">
        <dc:title>OpenSCAD Model</dc:title>
      </cc:Work>
    </rdf:RDF>
  </metadata>
</svg>
