<?xml version="1.0" encoding="UTF-8" standalone="no"?>
<svg
   width="85mm"
   height="85mm"
   viewBox="-40 -40 85 85"
   version="1.1"
   id="svg6"
   sodipodi:docname="888_4045_rotor.svg"
   inkscape:version="1.1 (ce6663b3b7, 2021-05-25)"
   xmlns:inkscape="http://www.inkscape.org/namespaces/inkscape"
   xmlns:sodipodi="http://sodipodi.sourceforge.net/DTD/sodipodi-0.dtd"
   xmlns="http://www.w3.org/2000/svg"
   xmlns:svg="http://www.w3.org/2000/svg"
   xmlns:rdf="http://www.w3.org/1999/02/22-rdf-syntax-ns#"
   xmlns:cc="http://creativecommons.org/ns#"
   xmlns:dc="http://purl.org/dc/elements/1.1/">
  <defs
     id="defs10" />
  <sodipodi:namedview
     id="namedview8"
     pagecolor="#ffffff"
     bordercolor="#666666"
     borderopacity="1.0"
     inkscape:pageshadow="2"
     inkscape:pageopacity="0.0"
     inkscape:pagecheckerboard="0"
     inkscape:document-units="mm"
     showgrid="false"
     inkscape:zoom="1.3956771"
     inkscape:cx="66.276076"
     inkscape:cy="213.15819"
     inkscape:window-width="1870"
     inkscape:window-height="1016"
     inkscape:window-x="50"
     inkscape:window-y="27"
     inkscape:window-maximized="1"
     inkscape:current-layer="svg6" />
  <title
     id="title2">OpenSCAD Model</title>
  <path
     d="m 4.59343,42.4452 2.08771,-0.1643 2.07623,-0.2734 2.0591,-0.3816 2.03633,-0.4889 2.0079,-0.5947 1.974,-0.6991 1.9348,-0.8014 1.8901,-0.9015 1.8404,-0.9993 1.7856,-1.0942 1.7258,-1.1861 1.6614,-1.2749 1.5924,-1.36 1.5191,-1.4415 1.4415,-1.5191 1.36,-1.5924 1.2749,-1.6614 1.1861,-1.7258 1.0942,-1.7856 0.9993,-1.8404 0.9015,-1.8901 0.8014,-1.9348 0.6991,-1.974 0.5947,-2.0079 0.4889,-2.03633 0.3816,-2.0591 L 42.2809,6.68114 42.4452,4.59343 42.5,2.5 42.4452,0.40657 42.2809,-1.68114 42.0075,-3.75737 41.6259,-5.81647 41.137,-7.8528 l -0.5947,-2.0079 -0.6991,-1.974 -0.8014,-1.9348 -0.9015,-1.8901 -0.9993,-1.8404 -1.0942,-1.7856 -1.1861,-1.7258 -1.2749,-1.6614 -1.36,-1.5924 -1.4415,-1.5191 -1.5191,-1.4415 -1.5924,-1.36 -1.6614,-1.2749 -1.7258,-1.1861 -1.7856,-1.0942 -1.8404,-0.9993 -1.8901,-0.9015 -1.9348,-0.8014 -1.974,-0.6991 -2.0079,-0.5947 -2.03633,-0.4889 -2.0591,-0.3816 L 6.68114,-37.2809 4.59343,-37.4452 2.5,-37.5 l -2.09343,0.0548 -2.08771,0.1643 -2.07623,0.2734 -2.0591,0.3816 -2.03633,0.4889 -2.0079,0.5947 -1.974,0.6991 -1.9348,0.8014 -1.8901,0.9015 -1.8404,0.9993 -1.7856,1.0942 -1.7258,1.1861 -1.6614,1.2749 -1.5924,1.36 -1.5191,1.4415 -1.4415,1.5191 -1.36,1.5924 -1.2749,1.6614 -1.1861,1.7258 -1.0942,1.7856 -0.9993,1.8404 -0.9015,1.8901 -0.8014,1.9348 -0.6991,1.974 -0.5947,2.0079 -0.4889,2.03633 -0.3816,2.0591 -0.2734,2.07623 -0.1643,2.08771 L -37.5,2.5 l 0.0548,2.09343 0.1643,2.08771 0.2734,2.07623 0.3816,2.0591 0.4889,2.03633 0.5947,2.0079 0.6991,1.974 0.8014,1.9348 0.9015,1.8901 0.9993,1.8404 1.0942,1.7856 1.1861,1.7258 1.2749,1.6614 1.36,1.5924 1.4415,1.5191 1.5191,1.4415 1.5924,1.36 1.6614,1.2749 1.7258,1.1861 1.7856,1.0942 1.8404,0.9993 1.8901,0.9015 1.9348,0.8014 1.974,0.6991 2.0079,0.5947 2.03633,0.4889 2.0591,0.3816 2.07623,0.2734 2.08771,0.1643 L 2.5,42.5 Z m -21.30543,-57.9593 -0.409,-0.0869 -0.382,-0.1701 -0.3382,-0.2457 -5.7835,-6.0879 -0.2798,-0.3108 -0.2091,-0.3621 -0.1292,-0.3976 -0.0437,-0.4158 0.0437,-0.4159 0.1292,-0.3976 0.2091,-0.3621 0.2798,-0.3107 0.6977,-0.6622 1.4332,-1.224 1.4953,-1.1474 0.3382,-0.2458 1.5533,-1.0675 1.607,-0.9848 1.6563,-0.8993 1.7012,-0.8114 0.382,-0.17 1.7412,-0.7213 1.7767,-0.6291 1.80708,-0.5353 1.83268,-0.44 0.40898,-0.0869 1.85318,-0.3435 1.8686,-0.246 1.87894,-0.1479 1.884095,-0.0493 h 0.41809 l 1.884095,0.0493 1.87894,0.1479 1.8686,0.246 1.85318,0.3435 0.40898,0.0869 1.83268,0.44 1.80708,0.5353 1.7767,0.6291 1.7412,0.7213 0.382,0.17 1.7012,0.8114 1.6563,0.8993 1.607,0.9848 1.5533,1.0675 0.3382,0.2458 1.4953,1.1474 1.4332,1.224 0.6977,0.6622 0.2798,0.3107 0.2091,0.3621 0.1292,0.3976 0.0437,0.4159 -0.0437,0.4158 -0.1292,0.3976 -0.2091,0.3621 -0.2798,0.3108 -5.7835,6.0879 -0.3382,0.2457 -0.382,0.1701 -0.409,0.0869 h -0.4181 l -0.409,-0.0869 -0.3819,-0.1701 -0.3383,-0.2457 -0.535,-0.5077 -1.0987,-0.9384 -0.9805,-0.7524 -1.0185,-0.7 -1.232,-0.7549 -1.2699,-0.6895 -1.1154,-0.5321 -1.14178,-0.4729 -1.36209,-0.4823 -1.38547,-0.4104 -1.20169,-0.2885 -1.21515,-0.2252 -1.4326,-0.1886 -1.44051,-0.1134 -1.23541,-0.0324 -1.23541,0.0324 -1.44051,0.1134 -1.4326,0.1886 -1.21515,0.2252 -1.20169,0.2885 -1.38547,0.4104 -1.36209,0.4823 -1.14178,0.4729 -1.1154,0.5321 -1.2699,0.6895 -1.232,0.7549 -1.0185,0.7 -0.9805,0.7524 -1.0987,0.9384 -0.535,0.5077 -0.3383,0.2457 -0.3819,0.1701 -0.409,0.0869 z m 15.9761,-1.4792 -0.29492,-0.1045 -0.24822,-0.1904 -0.17721,-0.2579 -0.08885,-0.3 -0.40471,-1.9639 0.00817,-0.3128 0.10445,-0.2949 0.19046,-0.2482 0.25784,-0.1773 0.29999,-0.0888 0.99088,-0.1305 0.31276,0.0082 0.29492,0.1045 0.24821,0.1904 0.17722,0.2579 0.08885,0.3 0.1174,2.0018 -0.00819,0.3127 -0.10445,0.2949 -0.19046,0.2483 -0.25784,0.1772 -0.29999,0.0888 -0.70355,0.0927 z m 5.45549,-0.0845 -0.29999,-0.0888 -0.25784,-0.1772 -0.19046,-0.2483 -0.10445,-0.2949 -0.00819,-0.3127 0.1174,-2.0018 0.08885,-0.3 0.17722,-0.2579 0.24821,-0.1904 0.29492,-0.1045 0.31276,-0.0082 0.99088,0.1305 0.29999,0.0888 0.25784,0.1773 0.19046,0.2482 0.10445,0.2949 0.00817,0.3128 -0.40471,1.9639 -0.08885,0.3 -0.17721,0.2579 -0.24822,0.1904 -0.29492,0.1045 -0.31276,0.0082 z m -10.70238,1.5617 -0.28905,-0.1198 -0.23791,-0.2032 -0.16347,-0.2667 -0.89928,-1.7923 -0.073,-0.3043 0.0245,-0.3119 0.1198,-0.289 0.20317,-0.2379 0.26676,-0.1635 0.92336,-0.3825 0.30421,-0.073 0.31191,0.0245 0.28906,0.1198 0.2379,0.2032 0.16347,0.2667 0.6315,1.9032 0.07304,0.3043 -0.02455,0.3119 -0.11972,0.289 -0.2032,0.2379 -0.26677,0.1635 -0.65559,0.2716 -0.30423,0.073 z m 16.34944,-0.0485 -0.65559,-0.2716 -0.26677,-0.1635 -0.2032,-0.2379 -0.11972,-0.289 -0.02455,-0.3119 0.07304,-0.3043 0.6315,-1.9032 0.16347,-0.2667 0.2379,-0.2032 0.28906,-0.1198 0.31191,-0.0245 0.30421,0.073 0.92336,0.3825 0.26676,0.1635 0.20317,0.2379 0.1198,0.289 0.0245,0.3119 -0.073,0.3043 -0.89928,1.7923 -0.16347,0.2667 -0.23791,0.2032 -0.28905,0.1198 -0.31191,0.0245 z m -21.03355,2.817 -0.2823,-0.1347 -0.227,-0.2154 -1.3325,-1.4984 -0.1493,-0.275 -0.057,-0.3076 0.0409,-0.3102 0.1347,-0.2824 0.2153,-0.227 0.7929,-0.6084 0.275,-0.1493 0.3076,-0.057 0.3102,0.0409 0.2824,0.1346 0.2269,0.2154 1.1026,1.6749 0.1493,0.275 0.057,0.3076 -0.0408,0.3102 -0.1347,0.2824 -0.2154,0.227 -0.563,0.4319 -0.2749,0.1493 -0.3077,0.057 z m 25.7159,-0.0162 -0.2749,-0.1493 -0.563,-0.4319 -0.2154,-0.227 -0.1347,-0.2824 -0.0408,-0.3102 0.057,-0.3076 0.1493,-0.275 1.1026,-1.6749 0.2269,-0.2154 0.2824,-0.1346 0.3102,-0.0409 0.3076,0.057 0.275,0.1493 0.7929,0.6084 0.2153,0.227 0.1347,0.2824 0.0409,0.3102 -0.057,0.3076 -0.1493,0.275 -1.3325,1.4984 -0.227,0.2154 -0.2823,0.1347 -0.3102,0.0408 z M 2.4724426,-12.2 2.163422,-12.2489 1.884659,-12.391 1.663422,-12.6122 1.521393,-12.891 1.47244,-13.2 l -0.15001,-2 0.04895,-0.309 0.142032,-0.2788 0.221238,-0.2212 0.278762,-0.142 0.309021,-0.049 h 0.355134 l 0.309021,0.049 0.278762,0.142 0.221238,0.2212 0.142032,0.2788 0.04895,0.309 -0.15001,2 -0.048953,0.309 -0.142029,0.2788 -0.221237,0.2212 -0.278763,0.1421 -0.3090206,0.0489 z m -16.9446426,3.3228 -0.275,-0.1493 -1.6749,-1.1026 -0.2154,-0.2269 -0.1346,-0.2824 -0.0409,-0.3102 0.057,-0.3076 0.1493,-0.275 0.6084,-0.7929 0.227,-0.2153 0.2824,-0.1347 0.3102,-0.0409 0.3076,0.057 0.275,0.1493 1.4984,1.3325 0.2154,0.227 0.1347,0.2823 0.0408,0.3102 -0.057,0.3077 -0.1493,0.2749 -0.4319,0.563 -0.227,0.2154 -0.2824,0.1347 -0.3102,0.0408 z m 33.3266,0.0162 -0.2824,-0.1347 -0.227,-0.2154 -0.4319,-0.563 -0.1493,-0.2749 -0.057,-0.3077 0.0408,-0.3102 0.1347,-0.2823 0.2154,-0.227 1.4984,-1.3325 0.275,-0.1493 0.3076,-0.057 0.3102,0.0409 0.2824,0.1347 0.227,0.2153 0.6084,0.7929 0.1493,0.275 0.057,0.3076 -0.0409,0.3102 -0.1346,0.2824 -0.2154,0.2269 -1.6749,1.1026 -0.275,0.1493 -0.3076,0.057 z M 2.113739,-7.31117 1.765274,-7.48872 1.48874,-7.7653 1.31119,-8.1137 1.25,-8.5 1.31119,-8.8863 1.48874,-9.2347 1.765274,-9.5113 2.113739,-9.6888 2.5,-9.75 2.886261,-9.6888 3.234726,-9.5113 3.51126,-9.2347 3.68881,-8.8863 3.75,-8.5 3.68881,-8.1137 3.51126,-7.7653 3.234726,-7.48872 2.886261,-7.31117 2.5,-7.25 Z m -19.256539,3.14131 -1.9032,-0.6315 -0.2667,-0.16347 -0.2032,-0.2379 -0.1198,-0.28906 -0.0245,-0.31191 0.073,-0.30421 0.3825,-0.92336 0.1635,-0.26676 0.2379,-0.20317 0.289,-0.1198 0.3119,-0.0245 0.3043,0.073 1.7923,0.89928 0.2667,0.16347 0.2032,0.23791 0.1198,0.28905 0.0245,0.31191 -0.073,0.30423 -0.2716,0.65559 -0.1635,0.26677 -0.2379,0.2032 -0.289,0.11972 -0.3119,0.02455 z m 38.6694,0.04849 -0.289,-0.11972 -0.2379,-0.2032 -0.1635,-0.26677 -0.2716,-0.65559 -0.073,-0.30423 0.0245,-0.31191 0.1198,-0.28905 0.2032,-0.23791 0.2667,-0.16347 1.7923,-0.89928 0.3043,-0.073 0.3119,0.0245 0.289,0.1198 0.2379,0.20317 0.1635,0.26676 0.3825,0.92336 0.073,0.30421 -0.0245,0.31191 -0.1198,0.28906 -0.2032,0.2379 -0.2667,0.16347 -1.9032,0.6315 -0.3043,0.07304 z m -11.49872,0.42351 -0.47609,-0.15469 -0.405,-0.29424 -0.29424,-0.405 -0.15469,-0.47609 v -0.50058 l 0.15469,-0.47609 0.29424,-0.40498 0.405,-0.29425 0.47609,-0.15469 h 0.50058 l 0.47609,0.15469 0.40498,0.29425 0.29425,0.40498 0.15469,0.47609 v 0.50058 l -0.15469,0.47609 -0.29425,0.405 -0.40498,0.29424 -0.47609,0.15469 z M 2.078705,10.53896 1.658554,10.50589 1.24071,10.45088 0.82632,10.37408 0.41652,10.2757 0.01242,10.15599 -0.38486,10.01532 -0.77422,9.85403 -1.15462,9.67259 -1.52499,9.4715 -1.88434,9.2513 -2.23166,9.01257 -2.56602,8.75601 -2.88649,8.48232 -3.1922,8.1922 -3.48232,7.88649 -3.75601,7.56602 -4.01257,7.23166 -4.2513,6.88434 -4.4715,6.52499 -4.67259,6.15462 -4.85403,5.77422 -5.01532,5.38486 -5.15599,4.98758 -5.2757,4.58348 -5.37408,4.17368 -5.45088,3.75929 -5.50589,3.341446 -5.53896,2.921295 -5.54999,2.5 -5.53896,2.078705 -5.50589,1.658554 -5.45088,1.24071 l 0.0768,-0.41439 0.09838,-0.4098 0.11971,-0.4041 0.14067,-0.39728 0.16129,-0.38936 0.18144,-0.3804 0.20109,-0.37037 0.2202,-0.35935 0.23873,-0.34732 0.25656,-0.33436 0.27369,-0.32047 0.29012,-0.30571 0.30571,-0.29012 0.32047,-0.27369 0.33436,-0.25656 0.34732,-0.23873 0.35935,-0.2202 0.37037,-0.20109 0.3804,-0.18144 0.38936,-0.16129 0.39728,-0.14067 0.4041,-0.11971 0.4098,-0.09838 0.41439,-0.0768 L 1.658554,-5.50589 2.078705,-5.53896 2.5,-5.54999 l 0.421295,0.01103 0.420151,0.03307 0.417844,0.05501 0.41439,0.0768 0.4098,0.09838 0.4041,0.11971 0.39728,0.14067 0.38936,0.16129 0.3804,0.18144 0.37037,0.20109 0.35935,0.2202 0.34732,0.23873 0.33436,0.25656 0.32047,0.27369 0.30571,0.29012 0.29012,0.30571 0.27369,0.32047 0.25656,0.33436 0.23873,0.34732 0.2202,0.35935 0.20109,0.37037 0.18144,0.3804 0.16129,0.38936 0.14067,0.39728 0.11971,0.4041 0.09838,0.4098 0.0768,0.41439 0.05501,0.417844 0.03307,0.420151 L 10.54999,2.5 10.53896,2.921295 10.50589,3.341446 10.45088,3.75929 10.37408,4.17368 10.2757,4.58348 10.15599,4.98758 10.01532,5.38486 9.85403,5.77422 9.67259,6.15462 9.4715,6.52499 9.2513,6.88434 9.01257,7.23166 8.75601,7.56602 8.48232,7.88649 8.1922,8.1922 7.88649,8.48232 7.56602,8.75601 7.23166,9.01257 6.88434,9.2513 6.52499,9.4715 6.15462,9.67259 5.77422,9.85403 5.38486,10.01532 4.98758,10.15599 4.58348,10.2757 4.17368,10.37408 3.75929,10.45088 3.341446,10.50589 2.921295,10.53896 2.5,10.54999 Z M -20.2015,1.02394 l -0.3,-0.08885 -0.2579,-0.17722 -0.1904,-0.24821 -0.1045,-0.29492 -0.0082,-0.31276 0.1305,-0.99088 0.0888,-0.29999 0.1773,-0.25784 0.2482,-0.19046 0.2949,-0.10445 0.3128,-0.00817 1.9639,0.40471 0.3,0.08885 0.2579,0.17721 0.1904,0.24822 0.1045,0.29492 0.0082,0.31276 -0.0927,0.70355 -0.0888,0.29999 -0.1772,0.25784 -0.2483,0.19046 -0.2949,0.10445 -0.3127,0.00819 z M 22.887,1.13315 22.5921,1.0287 22.3438,0.83824 22.1666,0.5804 22.0778,0.28041 l -0.0927,-0.70355 0.0082,-0.31276 0.1045,-0.29492 0.1904,-0.24822 0.2579,-0.17721 0.3,-0.08885 1.9639,-0.40471 0.3128,0.00817 0.2949,0.10445 0.2482,0.19046 0.1773,0.25784 0.0888,0.29999 0.1305,0.99088 -0.0082,0.31276 -0.1045,0.29492 -0.1904,0.24821 -0.2579,0.17722 -0.3,0.08885 -2.0018,0.1174 z M 13.1137,3.68881 12.7653,3.51126 12.48872,3.234726 12.31117,2.886261 12.25,2.5 12.31117,2.113739 12.48872,1.765274 12.7653,1.48874 13.1137,1.31119 13.5,1.25 13.8863,1.31119 14.2347,1.48874 14.5113,1.765274 14.6888,2.113739 14.75,2.5 14.6888,2.886261 14.5113,3.234726 14.2347,3.51126 13.8863,3.68881 13.5,3.75 Z m -22,0 L -9.2347,3.51126 -9.5113,3.234726 -9.6888,2.886261 -9.75,2.5 -9.6888,2.113739 -9.5113,1.765274 -9.2347,1.48874 -8.8863,1.31119 -8.5,1.25 -8.1137,1.31119 -7.7653,1.48874 -7.48872,1.765274 -7.31117,2.113739 -7.25,2.5 -7.31117,2.886261 -7.48872,3.234726 -7.7653,3.51126 -8.1137,3.68881 -8.5,3.75 Z m -11.2365,3.25283 -0.2949,-0.10445 -0.2482,-0.19046 -0.1773,-0.25784 -0.0888,-0.29999 -0.1305,-0.99088 0.0082,-0.31276 0.1045,-0.29492 0.1904,-0.24821 0.2579,-0.17722 0.3,-0.08885 2.0018,-0.1174 0.3127,0.00819 0.2949,0.10445 0.2483,0.19046 0.1772,0.25784 0.0888,0.29999 0.0927,0.70355 -0.0082,0.31276 -0.1045,0.29492 -0.1904,0.24822 -0.2579,0.17721 -0.3,0.08885 -1.9639,0.40471 z M 22.8461,6.5451 22.5461,6.45625 22.2882,6.27904 22.0978,6.03082 21.9933,5.7359 21.9851,5.42314 22.0778,4.71959 22.1666,4.4196 22.3438,4.16176 22.5921,3.9713 22.887,3.86685 l 0.3127,-0.00819 2.0018,0.1174 0.3,0.08885 0.2579,0.17722 0.1904,0.24821 0.1045,0.29492 0.0082,0.31276 L 25.932,6.0889 25.8432,6.38889 25.6659,6.64673 25.4177,6.83719 25.1228,6.94164 24.81,6.94981 Z m -28.37456,5.31337 -0.47609,-0.15469 -0.40498,-0.29425 -0.29425,-0.40498 -0.15469,-0.47609 v -0.50058 l 0.15469,-0.47609 0.29425,-0.405 0.40498,-0.29424 0.47609,-0.15469 h 0.50058 l 0.47609,0.15469 0.405,0.29424 0.29424,0.405 0.15469,0.47609 v 0.50058 l -0.15469,0.47609 -0.29424,0.40498 -0.405,0.29425 -0.47609,0.15469 z m 28.42656,0.71403 -1.7923,-0.89928 -0.2667,-0.16347 -0.2032,-0.23791 -0.1198,-0.28905 -0.0245,-0.31191 0.073,-0.30423 0.2716,-0.65559 0.1635,-0.26677 0.2379,-0.2032 0.289,-0.11972 0.3119,-0.02455 0.3043,0.07304 1.9032,0.6315 0.2667,0.16347 0.2032,0.2379 0.1198,0.28906 0.0245,0.31191 -0.073,0.30421 -0.3825,0.92336 -0.1635,0.26676 -0.2379,0.20317 -0.289,0.1198 -0.3119,0.0245 z m -41.4124,0.0485 -0.289,-0.1198 -0.2379,-0.20317 -0.1635,-0.26676 -0.3825,-0.92336 -0.073,-0.30421 0.0245,-0.31191 0.1198,-0.28906 0.2032,-0.2379 0.2667,-0.16347 1.9032,-0.6315 0.3043,-0.07304 0.3119,0.02455 0.289,0.11972 0.2379,0.2032 0.1635,0.26677 0.2716,0.65559 0.073,0.30423 -0.0245,0.31191 -0.1198,0.28905 -0.2032,0.23791 -0.2667,0.16347 -1.7923,0.89928 -0.3043,0.073 z M 2.113739,14.6888 1.765274,14.5113 1.48874,14.2347 1.31119,13.8863 1.25,13.5 1.31119,13.1137 1.48874,12.7653 1.765274,12.48872 2.113739,12.31117 2.5,12.25 2.886261,12.31117 3.234726,12.48872 3.51126,12.7653 3.68881,13.1137 3.75,13.5 3.68881,13.8863 3.51126,14.2347 3.234726,14.5113 2.886261,14.6888 2.5,14.75 Z m -17.602639,2.9853 -0.2824,-0.1347 -0.227,-0.2153 -0.6084,-0.7929 -0.1493,-0.275 -0.057,-0.3076 0.0409,-0.3102 0.1346,-0.2824 0.2154,-0.2269 1.6749,-1.1026 0.275,-0.1493 0.3076,-0.057 0.3102,0.0408 0.2824,0.1347 0.227,0.2154 0.4319,0.563 0.1493,0.2749 0.057,0.3077 -0.0408,0.3102 -0.1347,0.2823 -0.2154,0.227 -1.4984,1.3325 -0.275,0.1493 -0.3076,0.057 z m 35.36,-0.0161 -0.275,-0.1493 -1.4984,-1.3325 -0.2154,-0.227 -0.1347,-0.2823 -0.0408,-0.3102 0.057,-0.3077 0.1493,-0.2749 0.4319,-0.563 0.227,-0.2154 0.2824,-0.1347 0.3102,-0.0408 0.3076,0.057 0.275,0.1493 1.6749,1.1026 0.2154,0.2269 0.1346,0.2824 0.0409,0.3102 -0.057,0.3076 -0.1493,0.275 -0.6084,0.7929 -0.227,0.2153 -0.2824,0.1347 -0.3102,0.0409 z M 2.322433,21.2 2.013412,21.151 1.73465,21.009 1.513412,20.7878 1.37138,20.509 1.32243,20.2 1.47244,18.2 1.521393,17.891 1.663422,17.6122 1.884659,17.391 2.163422,17.2489 2.4724426,17.2 h 0.055115 L 2.836578,17.2489 3.115341,17.391 3.336578,17.6122 3.478607,17.891 3.52756,18.2 3.67757,20.2 3.62862,20.509 3.486588,20.7878 3.26535,21.009 2.986588,21.151 2.677567,21.2 Z m -13.578633,0.556 -0.275,-0.1493 -0.7929,-0.6084 -0.2153,-0.227 -0.1347,-0.2824 -0.0409,-0.3102 0.057,-0.3076 0.1493,-0.275 1.3325,-1.4984 0.227,-0.2154 0.2823,-0.1347 0.3102,-0.0408 0.3077,0.057 0.2749,0.1493 0.563,0.4319 0.2154,0.227 0.1347,0.2824 0.0408,0.3102 -0.057,0.3076 -0.1493,0.275 -1.1026,1.6749 -0.2269,0.2154 -0.2824,0.1346 -0.3102,0.0409 z m 26.8946,0.0161 -0.2824,-0.1346 -0.2269,-0.2154 -1.1026,-1.6749 -0.1493,-0.275 -0.057,-0.3076 0.0408,-0.3102 0.1347,-0.2824 0.2154,-0.227 0.563,-0.4319 0.2749,-0.1493 0.3077,-0.057 0.3102,0.0408 0.2823,0.1347 0.227,0.2154 1.3325,1.4984 0.1493,0.275 0.057,0.3076 -0.0409,0.3102 -0.1347,0.2824 -0.2153,0.227 -0.7929,0.6084 -0.275,0.1493 -0.3076,0.057 z m -21.74631,2.8151 -0.92336,-0.3825 -0.26676,-0.1635 -0.20317,-0.2379 -0.1198,-0.289 -0.0245,-0.3119 0.073,-0.3043 0.89928,-1.7923 0.16347,-0.2667 0.23791,-0.2032 0.28905,-0.1198 0.31191,-0.0245 0.30423,0.073 0.65559,0.2716 0.26677,0.1635 0.2032,0.2379 0.11972,0.289 0.02455,0.3119 -0.07304,0.3043 -0.6315,1.9032 -0.16347,0.2667 -0.2379,0.2032 -0.28906,0.1198 -0.31191,0.0245 z m 16.5997,0.0485 -0.28906,-0.1198 -0.2379,-0.2032 -0.16347,-0.2667 -0.6315,-1.9032 -0.07304,-0.3043 0.02455,-0.3119 0.11972,-0.289 0.2032,-0.2379 0.26677,-0.1635 0.65559,-0.2716 0.30423,-0.073 0.31191,0.0245 0.28905,0.1198 0.23791,0.2032 0.16347,0.2667 0.89928,1.7923 0.073,0.3043 -0.0245,0.3119 -0.1198,0.289 -0.20317,0.2379 -0.26676,0.1635 -0.92336,0.3825 -0.30421,0.073 z M 2.290955,40.489 0.40686,40.4397 l -1.87894,-0.1479 -1.8686,-0.246 -1.85318,-0.3435 -0.40898,-0.0869 -1.83268,-0.44 -1.80708,-0.5353 -1.7767,-0.6291 -1.7412,-0.7213 -0.382,-0.17 -1.7012,-0.8114 -1.6563,-0.8993 -1.607,-0.9848 -1.5533,-1.0675 -0.3382,-0.2458 -1.4953,-1.1474 -1.4332,-1.224 -0.6977,-0.6622 -0.2798,-0.3107 -0.2091,-0.3621 -0.1292,-0.3976 -0.0437,-0.4159 0.0437,-0.4158 0.1292,-0.3976 0.2091,-0.3621 0.2798,-0.3108 5.7835,-6.0879 0.3382,-0.2457 0.382,-0.1701 0.409,-0.0869 h 0.4181 l 0.409,0.0869 0.3819,0.1701 0.3383,0.2457 0.535,0.5077 1.0987,0.9384 0.9805,0.7524 1.0185,0.7 1.232,0.7549 1.2699,0.6895 1.1154,0.5321 1.14178,0.4729 1.36209,0.4823 1.38547,0.4104 1.20169,0.2885 1.21515,0.2252 1.4326,0.1886 1.44051,0.1134 1.23541,0.0324 1.23541,-0.0324 1.44051,-0.1134 1.4326,-0.1886 1.21515,-0.2252 1.20169,-0.2885 1.38547,-0.4104 1.36209,-0.4823 1.14178,-0.4729 1.1154,-0.5321 1.2699,-0.6895 1.232,-0.7549 1.0185,-0.7 0.9805,-0.7524 1.0987,-0.9384 0.535,-0.5077 0.3383,-0.2457 0.3819,-0.1701 0.409,-0.0869 h 0.4181 l 0.409,0.0869 0.382,0.1701 0.3382,0.2457 5.7835,6.0879 0.2798,0.3108 0.2091,0.3621 0.1292,0.3976 0.0437,0.4158 -0.0437,0.4159 -0.1292,0.3976 -0.2091,0.3621 -0.2798,0.3107 -0.6977,0.6622 -1.4332,1.224 -1.4953,1.1474 -0.3382,0.2458 -1.5533,1.0675 -1.607,0.9848 -1.6563,0.8993 -1.7012,0.8114 -0.382,0.17 -1.7412,0.7213 -1.7767,0.6291 -1.80708,0.5353 -1.83268,0.44 -0.40898,0.0869 -1.85318,0.3435 -1.8686,0.246 -1.87894,0.1479 -1.884095,0.0493 z M -1.0889,25.932 -1.38889,25.8432 -1.64673,25.6659 -1.83719,25.4177 -1.94164,25.1228 -1.94981,24.81 l 0.40471,-1.9639 0.08885,-0.3 0.17721,-0.2579 0.24822,-0.1904 0.29492,-0.1045 0.31276,-0.0082 0.70355,0.0927 0.29999,0.0888 0.25784,0.1772 0.19046,0.2483 0.10445,0.2949 0.00819,0.3127 -0.1174,2.0018 -0.08885,0.3 -0.17722,0.2579 -0.24821,0.1904 -0.29492,0.1045 -0.31276,0.0082 z M 4.78526,26.0543 4.49034,25.9498 4.24213,25.7594 4.06491,25.5015 3.97606,25.2015 3.85866,23.1997 3.86685,22.887 3.9713,22.5921 4.16176,22.3438 4.4196,22.1666 l 0.29999,-0.0888 0.70355,-0.0927 0.31276,0.0082 0.29492,0.1045 0.24822,0.1904 0.17721,0.2579 0.08885,0.3 L 6.94981,24.81 6.94164,25.1228 6.83719,25.4177 6.64673,25.6659 6.38889,25.8432 6.0889,25.932 5.09802,26.0625 Z"
     stroke="#000000"
     fill="#d3d3d3"
     stroke-width="0.5"
     id="path4"
     style="stroke-width:0.01;stroke-miterlimit:4;stroke-dasharray:none" />
  <metadata
     id="metadata827">
    <rdf:RDF>
      <cc:Work
         rdf:about="">
        <dc:title>OpenSCAD Model</dc:title>
      </cc:Work>
    </rdf:RDF>
  </metadata>
</svg>
