<?xml version="1.0" standalone="no"?>
<!DOCTYPE svg PUBLIC "-//W3C//DTD SVG 1.1//EN" "http://www.w3.org/Graphics/SVG/1.1/DTD/svg11.dtd">
<svg width="54mm" height="76mm" viewBox="-27 -38 54 76" xmlns="http://www.w3.org/2000/svg" version="1.1">
<title>OpenSCAD Model</title>
<path d="
M 2.09314,37.9397 L 3.97208,37.7918 L 5.84068,37.5458 L 7.69386,37.2023 L 8.10284,37.1154 L 9.93552,36.6754
 L 11.7426,36.1401 L 13.5193,35.511 L 15.2605,34.7897 L 15.6425,34.6197 L 17.3437,33.8083 L 19,32.909
 L 20.607,31.9242 L 22.1603,30.8567 L 22.4985,30.6109 L 23.9938,29.4635 L 25.427,28.2395 L 26.1247,27.5773
 L 26.4045,27.2666 L 26.6136,26.9045 L 26.7428,26.5069 L 26.7865,26.091 L 26.7428,25.6752 L 26.6136,25.2776
 L 26.4045,24.9155 L 26.1247,24.6047 L 20.3412,18.5168 L 20.003,18.2711 L 19.621,18.101 L 19.212,18.0141
 L 18.7939,18.0141 L 18.3849,18.101 L 18.003,18.2711 L 17.6647,18.5168 L 17.1297,19.0245 L 16.031,19.9629
 L 15.0505,20.7153 L 14.032,21.4153 L 12.8,22.1702 L 11.5301,22.8597 L 10.4147,23.3918 L 9.27292,23.8647
 L 7.91083,24.347 L 6.52536,24.7574 L 5.32367,25.0459 L 4.10852,25.2711 L 2.67592,25.4597 L 1.23541,25.5731
 L 0,25.6055 L -1.23541,25.5731 L -2.67592,25.4597 L -4.10852,25.2711 L -5.32367,25.0459 L -6.52536,24.7574
 L -7.91083,24.347 L -9.27292,23.8647 L -10.4147,23.3918 L -11.5301,22.8597 L -12.8,22.1702 L -14.032,21.4153
 L -15.0505,20.7153 L -16.031,19.9629 L -17.1297,19.0245 L -17.6647,18.5168 L -17.9537,18.3069 L -17.017,17.3702
 L -16.9972,17.3482 L -16.9784,17.3293 L -16.9504,17.2982 L -16.9295,17.262 L -16.9166,17.2222 L -16.9122,17.1807
 L -16.9166,17.1391 L -16.9295,17.0993 L -16.9504,17.0631 L -16.9784,17.032 L -17.0135,16.9987 L -17.873,16.093
 L -18.684,15.1434 L -19.4568,14.1362 L -20.1759,13.0899 L -20.8284,12.0253 L -21.4242,10.9279 L -21.9708,9.78201
 L -22.4566,8.60907 L -22.8734,7.43202 L -23.2281,6.23477 L -23.5244,5.00027 L -23.7558,3.75195 L -23.9188,2.51396
 L -24.0168,1.26913 L -24.05,-0 L -24.0168,-1.26913 L -23.9188,-2.51396 L -23.7558,-3.75195 L -23.5244,-5.00027
 L -23.2281,-6.23477 L -22.8734,-7.43202 L -22.4566,-8.60907 L -21.9708,-9.78201 L -21.4242,-10.9279 L -20.8284,-12.0253
 L -20.1759,-13.0899 L -19.4568,-14.1362 L -18.684,-15.1434 L -17.873,-16.093 L -17.0135,-16.9987 L -16.9784,-17.032
 L -16.9504,-17.0631 L -16.9295,-17.0993 L -16.9166,-17.1391 L -16.9122,-17.1807 L -16.9166,-17.2222 L -16.9295,-17.262
 L -16.9504,-17.2982 L -16.9784,-17.3293 L -16.9972,-17.3482 L -17.017,-17.3702 L -17.9537,-18.3069 L -17.6647,-18.5168
 L -17.1297,-19.0245 L -16.031,-19.9629 L -15.0505,-20.7153 L -14.032,-21.4153 L -12.8,-22.1702 L -11.5301,-22.8597
 L -10.4147,-23.3918 L -9.27292,-23.8647 L -7.91083,-24.347 L -6.52536,-24.7574 L -5.32367,-25.0459 L -4.10852,-25.2711
 L -2.67592,-25.4597 L -1.23541,-25.5731 L 0,-25.6055 L 1.23541,-25.5731 L 2.67592,-25.4597 L 4.10852,-25.2711
 L 5.32367,-25.0459 L 6.52536,-24.7574 L 7.91083,-24.347 L 9.27292,-23.8647 L 10.4147,-23.3918 L 11.5301,-22.8597
 L 12.8,-22.1702 L 14.032,-21.4153 L 15.0505,-20.7153 L 16.031,-19.9629 L 17.1297,-19.0245 L 17.6647,-18.5168
 L 18.003,-18.2711 L 18.3849,-18.101 L 18.7939,-18.0141 L 19.212,-18.0141 L 19.621,-18.101 L 20.003,-18.2711
 L 20.3412,-18.5168 L 26.1247,-24.6047 L 26.4045,-24.9155 L 26.6136,-25.2776 L 26.7428,-25.6752 L 26.7865,-26.091
 L 26.7428,-26.5069 L 26.6136,-26.9045 L 26.4045,-27.2666 L 26.1247,-27.5773 L 25.427,-28.2395 L 23.9938,-29.4635
 L 22.4985,-30.6109 L 22.1603,-30.8567 L 20.607,-31.9242 L 19,-32.909 L 17.3437,-33.8083 L 15.6425,-34.6197
 L 15.2605,-34.7897 L 13.5193,-35.511 L 11.7426,-36.1401 L 9.93552,-36.6754 L 8.10284,-37.1154 L 7.69386,-37.2023
 L 5.84068,-37.5458 L 3.97208,-37.7918 L 2.09314,-37.9397 L 0.209045,-37.989 L -0.209045,-37.989 L -2.09314,-37.9397
 L -3.97208,-37.7918 L -5.84068,-37.5458 L -7.69386,-37.2023 L -8.10284,-37.1154 L -9.93552,-36.6754 L -11.7426,-36.1401
 L -13.5193,-35.511 L -15.2605,-34.7897 L -15.6425,-34.6197 L -17.3437,-33.8083 L -19,-32.909 L -20.607,-31.9242
 L -22.1603,-30.8567 L -22.4985,-30.6109 L -23.9938,-29.4635 L -25.427,-28.2395 L -26.1247,-27.5773 L -26.4045,-27.2666
 L -26.6136,-26.9045 L -26.7428,-26.5069 L -26.7865,-26.091 L -26.7428,-25.6752 L -26.6136,-25.2776 L -26.4045,-24.9155
 L -26.1247,-24.6047 L -20.3412,-18.5168 L -20.003,-18.2711 L -19.621,-18.101 L -19.212,-18.0141 L -18.7939,-18.0141
 L -18.442,-18.0889 L -17.531,-17.1779 L -18.2294,-16.442 L -18.2574,-16.4109 L -19.0853,-15.4415 L -19.8614,-14.4301
 L -20.5834,-13.3795 L -21.2495,-12.2925 L -21.2704,-12.2563 L -21.8787,-11.136 L -22.4275,-9.98538 L -22.9154,-8.8076
 L -23.3409,-7.6059 L -23.3539,-7.56613 L -23.7159,-6.34381 L -24.0135,-5.10422 L -24.2458,-3.85075 L -24.4122,-2.58684
 L -24.4166,-2.54526 L -24.5166,-1.27437 L -24.55,-0 L -24.5166,1.27437 L -24.4166,2.54526 L -24.4122,2.58684
 L -24.2458,3.85075 L -24.0135,5.10422 L -23.7159,6.34381 L -23.3539,7.56613 L -23.3409,7.6059 L -22.9154,8.8076
 L -22.4275,9.98538 L -21.8787,11.136 L -21.2704,12.2563 L -21.2495,12.2925 L -20.5834,13.3795 L -19.8614,14.4301
 L -19.0853,15.4415 L -18.2574,16.4109 L -18.2294,16.442 L -17.531,17.1779 L -18.442,18.0889 L -18.7939,18.0141
 L -19.212,18.0141 L -19.621,18.101 L -20.003,18.2711 L -20.3412,18.5168 L -26.1247,24.6047 L -26.4045,24.9155
 L -26.6136,25.2776 L -26.7428,25.6752 L -26.7865,26.091 L -26.7428,26.5069 L -26.6136,26.9045 L -26.4045,27.2666
 L -26.1247,27.5773 L -25.427,28.2395 L -23.9938,29.4635 L -22.4985,30.6109 L -22.1603,30.8567 L -20.607,31.9242
 L -19,32.909 L -17.3437,33.8083 L -15.6425,34.6197 L -15.2605,34.7897 L -13.5193,35.511 L -11.7426,36.1401
 L -9.93552,36.6754 L -8.10284,37.1154 L -7.69386,37.2023 L -5.84068,37.5458 L -3.97208,37.7918 L -2.09314,37.9397
 L -0.209045,37.989 L 0.209045,37.989 z
" stroke="black" fill="lightgray" stroke-width="0.5"/>
</svg>
