<?xml version="1.0" encoding="UTF-8" standalone="no"?>
<svg
   width="85mm"
   height="85mm"
   viewBox="-40 -40 85 85"
   version="1.1"
   id="svg6"
   sodipodi:docname="888_4045_stator.svg"
   inkscape:version="1.1 (ce6663b3b7, 2021-05-25)"
   xmlns:inkscape="http://www.inkscape.org/namespaces/inkscape"
   xmlns:sodipodi="http://sodipodi.sourceforge.net/DTD/sodipodi-0.dtd"
   xmlns="http://www.w3.org/2000/svg"
   xmlns:svg="http://www.w3.org/2000/svg"
   xmlns:rdf="http://www.w3.org/1999/02/22-rdf-syntax-ns#"
   xmlns:cc="http://creativecommons.org/ns#"
   xmlns:dc="http://purl.org/dc/elements/1.1/">
  <defs
     id="defs10" />
  <sodipodi:namedview
     id="namedview8"
     pagecolor="#ffffff"
     bordercolor="#666666"
     borderopacity="1.0"
     inkscape:pageshadow="2"
     inkscape:pageopacity="0.0"
     inkscape:pagecheckerboard="0"
     inkscape:document-units="mm"
     showgrid="false"
     inkscape:zoom="0.69783854"
     inkscape:cx="-60.90234"
     inkscape:cy="-132.55215"
     inkscape:window-width="1870"
     inkscape:window-height="1016"
     inkscape:window-x="50"
     inkscape:window-y="27"
     inkscape:window-maximized="1"
     inkscape:current-layer="svg6" />
  <title
     id="title2">OpenSCAD Model</title>
  <path
     d="m 4.59343,42.4452 2.08771,-0.1643 2.07623,-0.2734 2.0591,-0.3816 2.03633,-0.4889 2.0079,-0.5947 1.974,-0.6991 1.9348,-0.8014 1.8901,-0.9015 1.8404,-0.9993 1.7856,-1.0942 1.7258,-1.1861 1.6614,-1.2749 1.5924,-1.36 1.5191,-1.4415 1.4415,-1.5191 1.36,-1.5924 1.2749,-1.6614 1.1861,-1.7258 1.0942,-1.7856 0.9993,-1.8404 0.9015,-1.8901 0.8014,-1.9348 0.6991,-1.974 0.5947,-2.0079 0.4889,-2.03633 0.3816,-2.0591 L 42.2809,6.68114 42.4452,4.59343 42.5,2.5 42.4452,0.40657 42.2809,-1.68114 42.0075,-3.75737 41.6259,-5.81647 41.137,-7.8528 l -0.5947,-2.0079 -0.6991,-1.974 -0.8014,-1.9348 -0.9015,-1.8901 -0.9993,-1.8404 -1.0942,-1.7856 -1.1861,-1.7258 -1.2749,-1.6614 -1.36,-1.5924 -1.4415,-1.5191 -1.5191,-1.4415 -1.5924,-1.36 -1.6614,-1.2749 -1.7258,-1.1861 -1.7856,-1.0942 -1.8404,-0.9993 -1.8901,-0.9015 -1.9348,-0.8014 -1.974,-0.6991 -2.0079,-0.5947 -2.03633,-0.4889 -2.0591,-0.3816 L 6.68114,-37.2809 4.59343,-37.4452 2.5,-37.5 l -2.09343,0.0548 -2.08771,0.1643 -2.07623,0.2734 -2.0591,0.3816 -2.03633,0.4889 -2.0079,0.5947 -1.974,0.6991 -1.9348,0.8014 -1.8901,0.9015 -1.8404,0.9993 -1.7856,1.0942 -1.7258,1.1861 -1.6614,1.2749 -1.5924,1.36 -1.5191,1.4415 -1.4415,1.5191 -1.36,1.5924 -1.2749,1.6614 -1.1861,1.7258 -1.0942,1.7856 -0.9993,1.8404 -0.9015,1.8901 -0.8014,1.9348 -0.6991,1.974 -0.5947,2.0079 -0.4889,2.03633 -0.3816,2.0591 -0.2734,2.07623 -0.1643,2.08771 L -37.5,2.5 l 0.0548,2.09343 0.1643,2.08771 0.2734,2.07623 0.3816,2.0591 0.4889,2.03633 0.5947,2.0079 0.6991,1.974 0.8014,1.9348 0.9015,1.8901 0.9993,1.8404 1.0942,1.7856 1.1861,1.7258 1.2749,1.6614 1.36,1.5924 1.4415,1.5191 1.5191,1.4415 1.5924,1.36 1.6614,1.2749 1.7258,1.1861 1.7856,1.0942 1.8404,0.9993 1.8901,0.9015 1.9348,0.8014 1.974,0.6991 2.0079,0.5947 2.03633,0.4889 2.0591,0.3816 2.07623,0.2734 2.08771,0.1643 L 2.5,42.5 Z M 2.113739,-18.9112 1.765274,-19.0887 1.48874,-19.3653 1.31119,-19.7137 1.25,-20.1 1.31119,-20.4863 1.48874,-20.8347 1.765274,-21.1113 2.113739,-21.2888 2.5,-21.35 l 0.386261,0.0612 0.348465,0.1775 0.276534,0.2766 0.17755,0.3484 L 3.75,-20.1 3.68881,-19.7137 3.51126,-19.3653 3.234726,-19.0887 2.886261,-18.9112 2.5,-18.85 Z M 16.0137,-3.31117 15.6653,-3.48872 15.3887,-3.76526 15.2112,-4.11372 15.15,-4.5 15.2112,-4.88626 15.3887,-5.23473 15.6653,-5.51126 16.0137,-5.68881 16.4,-5.75 l 0.3863,0.06119 0.3484,0.17755 0.2766,0.27653 0.1775,0.34847 L 17.65,-4.5 17.5888,-4.11372 17.4113,-3.76526 17.1347,-3.48872 16.7863,-3.31117 16.4,-3.25 Z m -27.8,0 -0.3484,-0.17755 -0.2766,-0.27654 -0.1775,-0.34846 L -12.65,-4.5 l 0.0612,-0.38626 0.1775,-0.34847 0.2766,-0.27653 0.3484,-0.17755 0.3863,-0.06119 0.3863,0.06119 0.3484,0.17755 0.2766,0.27653 0.1775,0.34847 0.0612,0.38626 -0.0612,0.38628 -0.1775,0.34846 -0.2766,0.27654 -0.3484,0.17755 L -11.4,-3.25 Z M 2.078705,10.53896 1.658554,10.50589 1.24071,10.45088 0.82632,10.37408 0.41652,10.2757 0.01242,10.15599 -0.38486,10.01532 -0.77422,9.85403 -1.15462,9.67259 -1.52499,9.4715 -1.88434,9.2513 -2.23166,9.01257 -2.56602,8.75601 -2.88649,8.48232 -3.1922,8.1922 -3.48232,7.88649 -3.75601,7.56602 -4.01257,7.23166 -4.2513,6.88434 -4.4715,6.52499 -4.67259,6.15462 -4.85403,5.77422 -5.01532,5.38486 -5.15599,4.98758 -5.2757,4.58348 -5.37408,4.17368 -5.45088,3.75929 -5.50589,3.341446 -5.53896,2.921295 -5.54999,2.5 -5.53896,2.078705 -5.50589,1.658554 -5.45088,1.24071 l 0.0768,-0.41439 0.09838,-0.4098 0.11971,-0.4041 0.14067,-0.39728 0.16129,-0.38936 0.18144,-0.3804 0.20109,-0.37037 0.2202,-0.35935 0.23873,-0.34732 0.25656,-0.33436 0.27369,-0.32047 0.29012,-0.30571 0.30571,-0.29012 0.32047,-0.27369 0.33436,-0.25656 0.34732,-0.23873 0.35935,-0.2202 0.37037,-0.20109 0.3804,-0.18144 0.38936,-0.16129 0.39728,-0.14067 0.4041,-0.11971 0.4098,-0.09838 0.41439,-0.0768 L 1.658554,-5.50589 2.078705,-5.53896 2.5,-5.54999 l 0.421295,0.01103 0.420151,0.03307 0.417844,0.05501 0.41439,0.0768 0.4098,0.09838 0.4041,0.11971 0.39728,0.14067 0.38936,0.16129 0.3804,0.18144 0.37037,0.20109 0.35935,0.2202 0.34732,0.23873 0.33436,0.25656 0.32047,0.27369 0.30571,0.29012 0.29012,0.30571 0.27369,0.32047 0.25656,0.33436 0.23873,0.34732 0.2202,0.35935 0.20109,0.37037 0.18144,0.3804 0.16129,0.38936 0.14067,0.39728 0.11971,0.4041 0.09838,0.4098 0.0768,0.41439 0.05501,0.417844 0.03307,0.420151 L 10.54999,2.5 10.53896,2.921295 10.50589,3.341446 10.45088,3.75929 10.37408,4.17368 10.2757,4.58348 10.15599,4.98758 10.01532,5.38486 9.85403,5.77422 9.67259,6.15462 9.4715,6.52499 9.2513,6.88434 9.01257,7.23166 8.75601,7.56602 8.48232,7.88649 8.1922,8.1922 7.88649,8.48232 7.56602,8.75601 7.23166,9.01257 6.88434,9.2513 6.52499,9.4715 6.15462,9.67259 5.77422,9.85403 5.38486,10.01532 4.98758,10.15599 4.58348,10.2757 4.17368,10.37408 3.75929,10.45088 3.341446,10.50589 2.921295,10.53896 2.5,10.54999 Z"
     stroke="#000000"
     fill="#d3d3d3"
     stroke-width="0.5"
     id="path4"
     style="stroke-width:0.01;stroke-miterlimit:4;stroke-dasharray:none" />
  <metadata
     id="metadata827">
    <rdf:RDF>
      <cc:Work
         rdf:about="">
        <dc:title>OpenSCAD Model</dc:title>
      </cc:Work>
    </rdf:RDF>
  </metadata>
</svg>
