<?xml version="1.0" encoding="UTF-8" standalone="no"?>
<svg
   width="85mm"
   height="85mm"
   viewBox="-28 -39 85 85"
   version="1.1"
   id="svg6"
   sodipodi:docname="888_4045_stator_unmasked.svg"
   inkscape:version="1.1 (ce6663b3b7, 2021-05-25)"
   xmlns:inkscape="http://www.inkscape.org/namespaces/inkscape"
   xmlns:sodipodi="http://sodipodi.sourceforge.net/DTD/sodipodi-0.dtd"
   xmlns="http://www.w3.org/2000/svg"
   xmlns:svg="http://www.w3.org/2000/svg"
   xmlns:rdf="http://www.w3.org/1999/02/22-rdf-syntax-ns#"
   xmlns:cc="http://creativecommons.org/ns#"
   xmlns:dc="http://purl.org/dc/elements/1.1/">
  <defs
     id="defs10" />
  <sodipodi:namedview
     id="namedview8"
     pagecolor="#ffffff"
     bordercolor="#666666"
     borderopacity="1.0"
     inkscape:pageshadow="2"
     inkscape:pageopacity="0.0"
     inkscape:pagecheckerboard="0"
     inkscape:document-units="mm"
     showgrid="false"
     inkscape:zoom="1.4314637"
     inkscape:cx="-11.526663"
     inkscape:cy="195.95328"
     inkscape:window-width="1870"
     inkscape:window-height="1016"
     inkscape:window-x="50"
     inkscape:window-y="27"
     inkscape:window-maximized="1"
     inkscape:current-layer="svg6" />
  <title
     id="title2">OpenSCAD Model</title>
  <path
     d="m -4.2416,-14.0168 0.5112,-0.1087 0.4774,-0.2126 0.4229,-0.3072 0.5349,-0.5076 1.0988,-0.9385 0.939,-0.7205 0.9754,-0.6703 1.232,-0.755 1.2699,-0.6895 1.0682,-0.5095 1.09349,-0.453 1.36209,-0.4823 1.38547,-0.4104 1.15086,-0.2763 1.16373,-0.2157 1.4326,-0.1886 1.44051,-0.1134 1.18315,-0.0309 1.18315,0.0309 1.44051,0.1134 1.4326,0.1886 1.16373,0.2157 1.15086,0.2763 1.38547,0.4104 1.36209,0.4823 1.09349,0.453 1.0682,0.5095 1.2699,0.6895 1.232,0.755 0.9754,0.6703 0.939,0.7205 1.0988,0.9385 0.5349,0.5076 0.4229,0.3072 0.4774,0.2126 0.5112,0.1087 h 0.5227 l 0.5112,-0.1087 0.4775,-0.2126 0.4228,-0.3072 5.7835,-6.0879 0.3497,-0.3884 0.2613,-0.4526 0.1616,-0.4971 0.0546,-0.5197 -0.0546,-0.5198 -0.1616,-0.4971 -0.2613,-0.4526 -0.3497,-0.3884 -0.6978,-0.6622 -1.4331,-1.224 -1.4953,-1.1474 -0.4228,-0.3072 -1.5533,-1.0675 -1.607,-0.9848 -1.6563,-0.8993 -1.7012,-0.8114 -0.4774,-0.2126 -1.7413,-0.7212 -1.7767,-0.6292 -1.8071,-0.5353 -1.83265,-0.4399 -0.51121,-0.1087 -1.85318,-0.3435 -1.86862,-0.246 -1.87894,-0.1479 -1.884093,-0.0493 h -0.522614 l -1.884093,0.0493 -1.87894,0.1479 -1.86862,0.246 -1.85318,0.3435 -0.51121,0.1087 -1.83265,0.4399 -1.8071,0.5353 -1.7767,0.6292 -1.7413,0.7212 -0.4774,0.2126 -1.7012,0.8114 -1.6563,0.8993 -1.607,0.9848 -1.5533,1.0675 -0.4228,0.3072 -1.4953,1.1474 -1.4331,1.224 -0.6978,0.6622 -0.3497,0.3884 -0.2613,0.4526 -0.1616,0.4971 -0.0546,0.5198 0.0546,0.5197 0.1616,0.4971 0.2613,0.4526 0.3497,0.3884 5.7835,6.0879 0.4228,0.3072 0.4775,0.2126 0.5112,0.1087 z m 20.887,55.9538 1.87894,-0.1479 1.86862,-0.246 1.85318,-0.3435 0.51121,-0.1087 1.83265,-0.4399 1.8071,-0.5353 1.7767,-0.6292 1.7413,-0.7212 0.4774,-0.2126 1.7012,-0.8114 1.6563,-0.8993 1.607,-0.9848 1.5533,-1.0675 0.4228,-0.3072 1.4953,-1.1474 1.4331,-1.224 0.6978,-0.6622 0.3497,-0.3884 0.2613,-0.4526 0.1616,-0.4971 0.0546,-0.5198 -0.0546,-0.5197 -0.1616,-0.4971 -0.2613,-0.4526 -0.3497,-0.3884 -5.7835,-6.0879 -0.4228,-0.3072 -0.4775,-0.2126 -0.5112,-0.1087 h -0.5227 l -0.5112,0.1087 -0.4774,0.2126 -0.4229,0.3072 -0.5349,0.5076 -1.0988,0.9385 -0.939,0.7205 -0.9754,0.6703 -1.232,0.755 -1.2699,0.6895 -1.0682,0.5095 -1.09349,0.453 -1.36209,0.4823 -1.38547,0.4104 -1.15086,0.2763 -1.16373,0.2157 -1.4326,0.1886 -1.44051,0.1134 L 14.5,28.6068 13.31685,28.5759 11.87634,28.4625 10.44374,28.2739 9.28001,28.0582 8.12915,27.7819 6.74368,27.3715 5.38159,26.8892 4.2881,26.4362 3.2199,25.9267 1.95,25.2372 0.718,24.4822 -0.2574,23.8119 -1.1964,23.0914 -2.2952,22.1529 -2.8301,21.6453 -3.253,21.3381 -3.7304,21.1255 -4.2416,21.0168 h -0.5227 l -0.5112,0.1087 -0.4775,0.2126 -0.4228,0.3072 -5.7835,6.0879 -0.3497,0.3884 -0.2613,0.4526 -0.1616,0.4971 -0.0546,0.5197 0.0546,0.5198 0.1616,0.4971 0.2613,0.4526 0.3497,0.3884 0.6978,0.6622 1.4331,1.224 1.4953,1.1474 0.4228,0.3072 1.5533,1.0675 1.607,0.9848 1.6563,0.8993 1.7012,0.8114 0.4774,0.2126 1.7413,0.7212 1.7767,0.6292 1.8071,0.5353 1.83265,0.4399 0.51121,0.1087 1.85318,0.3435 1.86862,0.246 1.87894,0.1479 1.884093,0.0493 h 0.522614 z"
     stroke="#000000"
     fill="#d3d3d3"
     stroke-width="0.5"
     id="path4"
     style="stroke-width:0.05;stroke-miterlimit:4;stroke-dasharray:none" />
  <metadata
     id="metadata827">
    <rdf:RDF>
      <cc:Work
         rdf:about="">
        <dc:title>OpenSCAD Model</dc:title>
      </cc:Work>
    </rdf:RDF>
  </metadata>
</svg>
