<?xml version="1.0" standalone="no"?>
<!DOCTYPE svg PUBLIC "-//W3C//DTD SVG 1.1//EN" "http://www.w3.org/Graphics/SVG/1.1/DTD/svg11.dtd">
<svg width="56mm" height="78mm" viewBox="-28 -39 56 78" xmlns="http://www.w3.org/2000/svg" version="1.1">
<title>OpenSCAD Model</title>
<path d="
M -18.7416,-17.5168 L -18.2304,-17.6255 L -17.753,-17.8381 L -17.3301,-18.1453 L -16.7952,-18.6529 L -15.6964,-19.5914
 L -14.7574,-20.3119 L -13.782,-20.9822 L -12.55,-21.7372 L -11.2801,-22.4267 L -10.2119,-22.9362 L -9.11841,-23.3892
 L -7.75632,-23.8715 L -6.37085,-24.2819 L -5.21999,-24.5582 L -4.05626,-24.7739 L -2.62366,-24.9625 L -1.18315,-25.0759
 L 0,-25.1068 L 1.18315,-25.0759 L 2.62366,-24.9625 L 4.05626,-24.7739 L 5.21999,-24.5582 L 6.37085,-24.2819
 L 7.75632,-23.8715 L 9.11841,-23.3892 L 10.2119,-22.9362 L 11.2801,-22.4267 L 12.55,-21.7372 L 13.782,-20.9822
 L 14.7574,-20.3119 L 15.6964,-19.5914 L 16.7952,-18.6529 L 17.3301,-18.1453 L 17.753,-17.8381 L 18.2304,-17.6255
 L 18.7416,-17.5168 L 19.2643,-17.5168 L 19.7755,-17.6255 L 20.253,-17.8381 L 20.6758,-18.1453 L 26.4593,-24.2332
 L 26.809,-24.6216 L 27.0703,-25.0742 L 27.2319,-25.5713 L 27.2865,-26.091 L 27.2319,-26.6108 L 27.0703,-27.1079
 L 26.809,-27.5605 L 26.4593,-27.9489 L 25.7615,-28.6111 L 24.3284,-29.8351 L 22.8331,-30.9825 L 22.4103,-31.2897
 L 20.857,-32.3572 L 19.25,-33.342 L 17.5937,-34.2413 L 15.8925,-35.0527 L 15.4151,-35.2653 L 13.6738,-35.9865
 L 11.8971,-36.6157 L 10.09,-37.151 L 8.25735,-37.5909 L 7.74614,-37.6996 L 5.89296,-38.0431 L 4.02434,-38.2891
 L 2.1454,-38.437 L 0.261307,-38.4863 L -0.261307,-38.4863 L -2.1454,-38.437 L -4.02434,-38.2891 L -5.89296,-38.0431
 L -7.74614,-37.6996 L -8.25735,-37.5909 L -10.09,-37.151 L -11.8971,-36.6157 L -13.6738,-35.9865 L -15.4151,-35.2653
 L -15.8925,-35.0527 L -17.5937,-34.2413 L -19.25,-33.342 L -20.857,-32.3572 L -22.4103,-31.2897 L -22.8331,-30.9825
 L -24.3284,-29.8351 L -25.7615,-28.6111 L -26.4593,-27.9489 L -26.809,-27.5605 L -27.0703,-27.1079 L -27.2319,-26.6108
 L -27.2865,-26.091 L -27.2319,-25.5713 L -27.0703,-25.0742 L -26.809,-24.6216 L -26.4593,-24.2332 L -20.6758,-18.1453
 L -20.253,-17.8381 L -19.7755,-17.6255 L -19.2643,-17.5168 z
M 2.1454,38.437 L 4.02434,38.2891 L 5.89296,38.0431 L 7.74614,37.6996 L 8.25735,37.5909 L 10.09,37.151
 L 11.8971,36.6157 L 13.6738,35.9865 L 15.4151,35.2653 L 15.8925,35.0527 L 17.5937,34.2413 L 19.25,33.342
 L 20.857,32.3572 L 22.4103,31.2897 L 22.8331,30.9825 L 24.3284,29.8351 L 25.7615,28.6111 L 26.4593,27.9489
 L 26.809,27.5605 L 27.0703,27.1079 L 27.2319,26.6108 L 27.2865,26.091 L 27.2319,25.5713 L 27.0703,25.0742
 L 26.809,24.6216 L 26.4593,24.2332 L 20.6758,18.1453 L 20.253,17.8381 L 19.7755,17.6255 L 19.2643,17.5168
 L 18.7416,17.5168 L 18.2304,17.6255 L 17.753,17.8381 L 17.3301,18.1453 L 16.7952,18.6529 L 15.6964,19.5914
 L 14.7574,20.3119 L 13.782,20.9822 L 12.55,21.7372 L 11.2801,22.4267 L 10.2119,22.9362 L 9.11841,23.3892
 L 7.75632,23.8715 L 6.37085,24.2819 L 5.21999,24.5582 L 4.05626,24.7739 L 2.62366,24.9625 L 1.18315,25.0759
 L 0,25.1068 L -1.18315,25.0759 L -2.62366,24.9625 L -4.05626,24.7739 L -5.21999,24.5582 L -6.37085,24.2819
 L -7.75632,23.8715 L -9.11841,23.3892 L -10.2119,22.9362 L -11.2801,22.4267 L -12.55,21.7372 L -13.782,20.9822
 L -14.7574,20.3119 L -15.6964,19.5914 L -16.7952,18.6529 L -17.3301,18.1453 L -17.753,17.8381 L -18.2304,17.6255
 L -18.7416,17.5168 L -19.2643,17.5168 L -19.7755,17.6255 L -20.253,17.8381 L -20.6758,18.1453 L -26.4593,24.2332
 L -26.809,24.6216 L -27.0703,25.0742 L -27.2319,25.5713 L -27.2865,26.091 L -27.2319,26.6108 L -27.0703,27.1079
 L -26.809,27.5605 L -26.4593,27.9489 L -25.7615,28.6111 L -24.3284,29.8351 L -22.8331,30.9825 L -22.4103,31.2897
 L -20.857,32.3572 L -19.25,33.342 L -17.5937,34.2413 L -15.8925,35.0527 L -15.4151,35.2653 L -13.6738,35.9865
 L -11.8971,36.6157 L -10.09,37.151 L -8.25735,37.5909 L -7.74614,37.6996 L -5.89296,38.0431 L -4.02434,38.2891
 L -2.1454,38.437 L -0.261307,38.4863 L 0.261307,38.4863 z
" stroke="black" fill="lightgray" stroke-width="0.5"/>
</svg>
