<?xml version="1.0" encoding="UTF-8" standalone="no"?>
<svg
   xmlns:dc="http://purl.org/dc/elements/1.1/"
   xmlns:cc="http://creativecommons.org/ns#"
   xmlns:rdf="http://www.w3.org/1999/02/22-rdf-syntax-ns#"
   xmlns:svg="http://www.w3.org/2000/svg"
   xmlns="http://www.w3.org/2000/svg"
   xmlns:sodipodi="http://sodipodi.sourceforge.net/DTD/sodipodi-0.dtd"
   xmlns:inkscape="http://www.inkscape.org/namespaces/inkscape"
   width="85mm"
   height="85mm"
   viewBox="-27 -38 85 85"
   version="1.1"
   id="svg6"
   sodipodi:docname="888_4045_stator_Cu_electrodes.svg"
   inkscape:version="0.92.5 (2060ec1f9f, 2020-04-08)">
  <metadata
     id="metadata12">
    <rdf:RDF>
      <cc:Work
         rdf:about="">
        <dc:format>image/svg+xml</dc:format>
        <dc:type
           rdf:resource="http://purl.org/dc/dcmitype/StillImage" />
        <dc:title>OpenSCAD Model</dc:title>
      </cc:Work>
    </rdf:RDF>
  </metadata>
  <defs
     id="defs10" />
  <sodipodi:namedview
     pagecolor="#ffffff"
     bordercolor="#666666"
     borderopacity="1"
     objecttolerance="10"
     gridtolerance="10"
     guidetolerance="10"
     inkscape:pageopacity="0"
     inkscape:pageshadow="2"
     inkscape:window-width="1848"
     inkscape:window-height="1016"
     id="namedview8"
     showgrid="false"
     inkscape:zoom="0.82160088"
     inkscape:cx="102.04724"
     inkscape:cy="143.62205"
     inkscape:window-x="72"
     inkscape:window-y="27"
     inkscape:window-maximized="1"
     inkscape:current-layer="svg6" />
  <title
     id="title2">OpenSCAD Model</title>
  <path
     d="m -2.8849019,-13.601002 0.3819,-0.1701 0.3383,-0.2457 0.535,-0.5077 1.09869996,-0.9384 0.9805,-0.7524 1.01850004,-0.7 1.232,-0.7549 1.2699,-0.6895 1.1154,-0.5321 1.14178,-0.4729 1.36208,-0.4823 1.38547,-0.4104 1.2016999,-0.2885 1.21514,-0.2253 1.4326,-0.1886 1.44051,-0.1133 1.23542,-0.0324 1.23542,0.0324 1.44051,0.1133 1.4326,0.1886 1.21514,0.2253 1.2017,0.2885 1.38547,0.4104 1.36208,0.4823 1.14178,0.4729 1.1154,0.5321 1.2699,0.6895 1.232,0.7549 1.0185,0.7 0.9805,0.7524 1.0987,0.9384 0.535,0.5077 0.3383,0.2457 0.3819,0.1701 0.409,0.0869 h 0.4181 l 0.409,-0.0869 0.382,-0.1701 0.3382,-0.2457 0.4823,-0.5077 0.8915,-0.9384 0.8357,-0.8797 0.7775,-0.8184 0.7172,-0.755 0.6551,-0.6895 0.5909,-0.6221 0.5253,-0.5529 0.308,-0.3242 0.2798,-0.3108 0.2091,-0.3621 0.1292,-0.3976 0.0437,-0.4158 -0.0437,-0.4159 -0.1292,-0.3976 -0.2091,-0.3621 -0.2798,-0.3107 -0.1666,-0.1581 -0.4324,-0.4104 -0.0987,-0.0937 -0.2853,-0.2437 -0.3083,-0.2633 -0.2209,-0.1886 -0.1327,-0.1134 -0.0443,-0.0378 -0.4417,-0.3772 -1.4953,-1.1474 -0.3382,-0.2458 -1.5533,-1.0675 -1.607,-0.9848 -1.6563,-0.8993 -1.7012,-0.8114 -0.3819,-0.17 -1.7413,-0.7213 -1.7767,-0.6291 -1.80708,-0.5353 -1.83267,-0.44 -0.40897,-0.087 -1.85318,-0.3434 -1.86862,-0.246 -1.87893,-0.1479 -1.884093,-0.0493 h -0.418114 l -1.884093,0.0493 -1.87893,0.1479 -1.8686199,0.246 -1.85318,0.3434 -0.40897,0.087 -1.83267,0.44 -1.80708,0.5353 -1.7767,0.6291 -1.74130004,0.7213 -0.3819,0.17 -1.70119996,0.8114 -1.6563,0.8993 -1.607,0.9848 -1.5533,1.0675 -0.3382,0.2458 -1.4953,1.1474 -0.4417,0.3772 -0.0443,0.0378 -0.1327,0.1134 -0.2209,0.1886 -0.3083,0.2633 -0.2853,0.2437 -0.0987,0.0937 -0.4324,0.4104 -0.1666,0.1581 -0.2798,0.3107 -0.2091,0.3621 -0.1292,0.3976 -0.0437,0.4159 0.0437,0.4158 0.1292,0.3976 0.2091,0.3621 0.2798,0.3108 0.308,0.3242 0.5253002,0.5529 0.5909,0.6221 0.6551,0.6895 0.7172,0.755 0.7775,0.8184 0.8357,0.8797 0.8915,0.9384 0.4823,0.5077 0.3382,0.2457 0.382,0.1701 0.409,0.0869 h 0.4181 z m 20.4780499,56.0407 1.87893,-0.1479 1.86862,-0.246 1.85318,-0.3434 0.40897,-0.087 1.83267,-0.44 1.80708,-0.5353 1.7767,-0.6291 1.7413,-0.7213 0.3819,-0.17 1.7012,-0.8114 1.6563,-0.8993 1.607,-0.9848 1.5533,-1.0675 0.3382,-0.2458 1.4953,-1.1474 0.4417,-0.3772 0.0443,-0.0378 0.1327,-0.1134 0.2209,-0.1886 0.3083,-0.2633 0.2853,-0.2437 0.0987,-0.0937 0.4324,-0.4104 0.1666,-0.1581 0.2798,-0.3107 0.2091,-0.3621 0.1292,-0.3976 0.0437,-0.4159 -0.0437,-0.4158 -0.1292,-0.3976 -0.2091,-0.3621 -0.2798,-0.3108 -0.308,-0.3242 -0.5253,-0.5529 -0.5909,-0.6221 -0.6551,-0.6895 -0.7172,-0.755 -0.7775,-0.8184 -0.8357,-0.8797 -0.8915,-0.9384 -0.4823,-0.5077 -0.3382,-0.2457 -0.382,-0.1701 -0.409,-0.0869 h -0.4181 l -0.409,0.0869 -0.3819,0.1701 -0.3383,0.2457 -0.535,0.5077 -1.0987,0.9384 -0.9805,0.7524 -1.0185,0.7 -1.232,0.7549 -1.2699,0.6895 -1.1154,0.5321 -1.14178,0.4729 -1.36208,0.4823 -1.38547,0.4104 -1.2017,0.2885 -1.21514,0.2253 -1.4326,0.1886 -1.44051,0.1133 -1.23542,0.0324 -1.23542,-0.0324 -1.44051,-0.1133 -1.4326,-0.1886 -1.21514,-0.2253 -1.2016999,-0.2885 -1.38547,-0.4104 -1.36208,-0.4823 -1.14178,-0.4729 -1.1154,-0.5321 -1.2699,-0.6895 -1.232,-0.7549 -1.01850004,-0.7 -0.9805,-0.7524 -1.09869996,-0.9384 -0.535,-0.5077 -0.3383,-0.2457 -0.3819,-0.1701 -0.409,-0.0869 h -0.4181 l -0.409,0.0869 -0.382,0.1701 -0.3382,0.2457 -0.4823,0.5077 -0.8915,0.9384 -0.8357,0.8797 -0.7775,0.8184 -0.7172,0.755 -0.6551,0.6895 -0.5909,0.6221 -0.5253001,0.5529 -0.308,0.3242 -0.2798,0.3108 -0.2091,0.3621 -0.1292,0.3976 -0.0437,0.4158 0.0437,0.4159 0.1292,0.3976 0.2091,0.3621 0.2798,0.3107 0.1666,0.1581 0.4324,0.4104 0.0987,0.0937 0.2853,0.2437 0.3083,0.2633 0.2209,0.1886 0.1327,0.1134 0.0443,0.0378 0.4417,0.3772 1.4953,1.1474 0.3382,0.2458 1.5533,1.0675 1.607,0.9848 1.6563,0.8993 1.70119996,0.8114 0.3819,0.17 1.74130004,0.7213 1.7767,0.6291 1.80708,0.5353 1.83267,0.44 0.40897,0.087 1.85318,0.3434 1.86862,0.246 1.87893,0.1479 1.884093,0.0493 h 0.418114 z"
     id="path4"
     style="fill:#d3d3d3;stroke:#000000;stroke-width:0.05;stroke-miterlimit:4;stroke-dasharray:none"
     inkscape:connector-curvature="0" />
</svg>
